<svg version="1.1" id="Layer_1" xmlns:x="ns_extend;" xmlns:i="ns_ai;" xmlns:graph="ns_graphs;" xmlns="http://www.w3.org/2000/svg" xmlns:xlink="http://www.w3.org/1999/xlink" x="0px" y="0px" viewBox="0 0 674.6 113.1" style="enable-background:new 0 0 674.6 113.1;" xml:space="preserve">
 <style type="text/css">
  .st0{fill:#FFFFFF;}
	.st1{fill:#FF6600;}
 </style>
 <metadata>
  <sfw xmlns="ns_sfw;">
   <slices>
   </slices>
   <sliceSourceBounds bottomLeftOrigin="true" height="113.1" width="674.6" x="13.1" y="112.5">
   </sliceSourceBounds>
  </sfw>
 </metadata>
 <g>
  <g id="XMLID_2_">
   <path id="XMLID_3_" class="st0" d="M167.1,20.2h53.1v13.5h-38.2v19.9h35.8v13.5h-35.8v23h41.5l-9.8,13.5h-46.6L167.1,20.2
			L167.1,20.2z">
   </path>
   <path id="XMLID_5_" class="st0" d="M242.6,71.7l-20.8-28.5h15.6l13.2,18.1l13-18.1h15.7l-20.8,28.4l22.9,32h-15.4l-15.3-21.3
			l-15.3,21.3h-15.4L242.6,71.7z">
   </path>
   <path id="XMLID_7_" class="st0" d="M288.6,85.2c2.5,4.1,8.1,7.5,15.9,7.5c8.3,0,10.8-3.5,10.8-6.6c0-5-7.2-6.2-16.5-9.6
			c-8.9-3.2-14.8-7.8-14.8-17c0-11.6,9.8-18.1,21.3-18.1c9.3,0,15.6,3.7,19.5,8.9l-8,8.5c-2.3-2.9-5.9-5-11.7-5
			c-4.5,0-7.3,2.2-7.3,5.4c0,4.6,5,5.2,15.2,8.9c11.1,3.9,16.2,9.2,16.2,18c0,10.4-7.5,19.2-24.8,19.2c-12.6,0-21.2-5-24.9-12.2
			L288.6,85.2z">
   </path>
   <path id="XMLID_10_" class="st0" d="M365.8,41.3c9,0,17.2,3,24.2,10.4l-8.9,9.2c-4.1-4.2-8.9-6.6-15.3-6.6
			c-10.5,0-18.5,8-18.5,18.9s8,18.9,18.5,18.9c6.5,0,11.2-2.4,15.3-6.6l8.9,9.2c-6.9,7.4-15.2,10.4-24.2,10.4
			c-18.2,0-32.8-13.5-32.8-32S347.6,41.3,365.8,41.3z">
   </path>
   <path id="XMLID_13_" class="st0" d="M394.5,27.7c0-4.8,4-8.5,8.6-8.5c4.5,0,8.5,3.7,8.5,8.5s-4,8.5-8.5,8.5
			C398.5,36.2,394.5,32.5,394.5,27.7z M396,43.3h14.4v60.3H396V43.3z">
   </path>
   <path id="XMLID_16_" class="st0" d="M416.7,73.4c0-19.4,13.5-31.8,31.6-31.8c18,0,29.8,13.5,29.8,30.4c0,0,0,2.6-0.2,5H431
			c0.5,9.6,7.5,15.8,18.2,15.8c7.3,0,11.7-2.4,16.3-6.9l8.6,8.4c-7.8,8.3-16.3,10.8-25.4,10.8c-18.9,0-32-12.2-32-31.1V73.4z
			 M463.5,67c0-7.2-6.8-13.2-15.2-13.2c-9,0-16.4,5.9-17,13.2H463.5z">
   </path>
   <path id="XMLID_19_" class="st0" d="M485.4,43.3h14.2v8.6c2.8-5.8,9.6-9.8,18.3-9.8c14.5,0,22.9,9.3,22.9,24.2v37.3h-14.4V68.3
			c0-8.1-4.7-13.4-12.8-13.4s-14,5.7-14,14v34.7h-14.2L485.4,43.3L485.4,43.3z">
   </path>
   <path id="XMLID_21_" class="st0" d="M556.5,56.3h-12.1v-13h12.1V20.2h14.4v23.1h12.4v13h-12.4v47.3h-14.4V56.3z">
   </path>
   <path id="XMLID_23_" class="st0" d="M589,27.7c0-4.8,4-8.5,8.6-8.5c4.5,0,8.5,3.7,8.5,8.5s-4,8.5-8.5,8.5
			C593,36.2,589,32.5,589,27.7z M590.4,43.3h14.4v60.3h-14.4V43.3z">
   </path>
   <path id="XMLID_26_" class="st0" d="M640.9,41.9c10.2,0,17.2,4.4,19.3,10v-8.7h14.4v60.3h-14.4v-8.7c-2,5.6-9.1,10.1-19.3,10.1
			c-17,0-30.2-13.7-30.2-31.5S623.9,41.9,640.9,41.9z M641.8,92.6c10.8,0,19.2-8.2,19.2-19.2s-8.4-19.2-19.2-19.2
			c-10.6,0-18.6,8.2-18.6,19.2S631.1,92.6,641.8,92.6z">
   </path>
  </g>
  <g id="XMLID_1714_">
   <path class="st1" d="M103.3,55.6c0.4,0.2,0.7,0.5,1.1,0.8C104.1,56.1,103.7,55.8,103.3,55.6z">
   </path>
   <g id="XMLID_1715_">
    <path class="st1" d="M109.8,79.2c-12.3,28.6-45.9,41.7-74.9,29.1c-0.1,0-0.2-0.1-0.3-0.1c-0.1,0-0.2-0.1-0.3-0.1L53.9,63
				l36.6-0.3c0.7,4.4,4.6,7.7,9.1,7.7h0.1c5-0.1,9.1-4.2,9-9.2c-0.1-5-4.3-9.1-9.4-9c-4.6,0-8.4,3.4-8.9,7.8l-36.5,0.3L38.2,27.6
				l5.2-2.4l-6.1-12.8l-12.9,5.9l6.1,12.8l5.2-2.4l15.7,32.9l-19.6,45.2c-0.5-0.3-1.1-0.5-1.6-0.8c-0.2-0.1-0.4-0.2-0.6-0.3
				c-0.5-0.3-1-0.5-1.4-0.8c0,0-0.1-0.1-0.2-0.1c-0.5-0.3-0.9-0.6-1.4-0.9c-0.2-0.1-0.4-0.2-0.6-0.4c-0.5-0.3-0.9-0.6-1.4-0.9
				c-0.6-0.4-1.1-0.8-1.6-1.2c-0.5-0.4-1.1-0.8-1.6-1.2c-0.5-0.4-1-0.8-1.5-1.2c-0.1-0.1-0.2-0.2-0.3-0.2c-0.4-0.4-0.9-0.8-1.3-1.2
				c-0.4-0.4-0.9-0.8-1.3-1.2c-0.3-0.3-0.6-0.6-0.9-0.9c-1.6-1.6-3.1-3.3-4.4-5.1c-0.4-0.5-0.8-1.1-1.2-1.6
				c-0.4-0.5-0.8-1.1-1.1-1.6c-0.3-0.5-0.7-1-1-1.6c0-0.1-0.1-0.1-0.1-0.2c-0.3-0.5-0.6-1-0.9-1.6c0,0-0.1-0.1-0.1-0.1
				c-0.3-0.5-0.6-1-0.8-1.5c-0.1-0.1-0.1-0.2-0.2-0.4c-0.2-0.4-0.4-0.8-0.6-1.2c-0.1-0.2-0.2-0.4-0.3-0.7c-0.2-0.4-0.4-0.8-0.6-1.3
				c-0.1-0.2-0.2-0.4-0.2-0.6c-0.1-0.3-0.3-0.6-0.4-1C4.2,77,4,76.7,3.9,76.5c-0.2-0.4-0.3-0.9-0.5-1.3c0-0.1-0.1-0.2-0.1-0.3
				c-0.2-0.5-0.3-0.9-0.5-1.4c-0.1-0.3-0.2-0.5-0.2-0.8c-0.1-0.3-0.2-0.6-0.3-0.9c-0.1-0.3-0.2-0.6-0.3-1c-0.1-0.4-0.2-0.8-0.3-1.2
				c0-0.1-0.1-0.2-0.1-0.3c-0.1-0.5-0.2-1-0.4-1.5c0-0.2-0.1-0.3-0.1-0.5c-0.1-0.5-0.2-1-0.3-1.4c-0.1-0.6-0.2-1.1-0.3-1.7
				c-0.1-0.4-0.1-0.9-0.2-1.4c0-0.3-0.1-0.6-0.1-0.8c0-0.2,0-0.4-0.1-0.6c-0.1-0.5-0.1-1-0.1-1.5c0-0.6-0.1-1.2-0.1-1.9
				c0-0.7,0-1.4,0-2.1c0-7.3,1.5-14.8,4.5-22C16.8,5.3,50.4-7.8,79.5,4.8C108.5,17.3,122.1,50.6,109.8,79.2z">
    </path>
    <path id="XMLID_1724_" class="st1" d="M98.5,54.4c0.2,0,0.5,0,0.9,0l0,0C98.9,54.4,98.7,54.4,98.5,54.4z">
    </path>
    <path id="XMLID_1722_" class="st1" d="M99.4,70.5c-0.3,0-0.6,0-0.8,0C98.8,70.5,99.1,70.5,99.4,70.5z">
    </path>
    <path id="XMLID_1721_" class="st1" d="M99.3,54.4L99.3,54.4L99.3,54.4z">
    </path>
    <path id="XMLID_1720_" class="st1" d="M100.7,70.5C101.3,70.5,101.2,70.5,100.7,70.5L100.7,70.5z">
    </path>
    <path class="st1" d="M106.5,61.3c0.1,3.8-3,7-6.9,7c-3.9,0-7.1-3.1-7.2-6.9c-0.1-3.8,3-7,6.9-7h0c1.4,0,2.8,0.4,3.9,1.2
				c0.4,0.2,0.7,0.5,1.1,0.8c0.3,0.3,0.6,0.7,0.9,1c0.3,0.4,0.5,0.8,0.7,1.2C106.3,59.5,106.5,60.4,106.5,61.3z">
    </path>
   </g>
  </g>
 </g>
</svg>