<?xml version="1.0" encoding="UTF-8"?><svg id="uuid-83be68f6-dcfe-47f7-bb1b-06eb4c3d40b8" xmlns="http://www.w3.org/2000/svg" viewBox="0 0 720 208.98"><defs><style>.uuid-a10f75fb-7c67-4065-93be-8ef8ac9dfa0d{fill:#fff;stroke-width:0px;}</style></defs><g id="uuid-fc5af298-5adf-4615-9810-8e7705befcdd"><path class="uuid-a10f75fb-7c67-4065-93be-8ef8ac9dfa0d" d="M124.68,18.91c0,7.28-6.83,12.85-8.19,13.89-1.85,1.44-2.13,3.74-2.43,6.17-.18,1.39-.35,2.82-.84,4.1-1.03,2.83-.1,3.82.89,4.87.26.28.54.58.78.9.85,1.11.94,4.19.64,6.08h-2.07c.5-2.51.06-4.36-.72-5.34-.32-.42-.62-.8-.89-1.15-1.37-1.74-1.79-2.27-1.48-4.93.05-.4.08-.83.13-1.27.33-3.53.78-8.36,3.18-10.25,2.95-2.27,6.05-6.67,5.92-12.22-.11-4.61-1.78-7.15-4.09-10.66-.32-.48-.65-.99-1-1.52-.3-.47-.56-.88-.79-1.25-1.96-3.09-2.27-3.43-5.21-3.43h-4.74c-2.73,0-3.06.34-4.82,3.04-.3.46-.65.99-1.07,1.62-.34.5-.64.97-.94,1.42-2.43,3.69-4.05,6.12-4.19,10.78-.14,5.5,2.98,9.92,5.96,12.23,2.29,1.84,2.8,6.56,3.16,10,.06.54.11,1.05.17,1.53.26,2.64-.16,3.17-1.53,4.9-.28.35-.58.75-.93,1.19-1.06,1.33-.94,3.58-.7,5.31h-2.27c-.29-1.89-.21-4.98.61-6.08.24-.33.51-.62.77-.89,1-1.05,1.94-2.04.89-4.88-.45-1.25-.62-2.64-.8-3.98-.32-2.49-.62-4.82-2.46-6.28-1.36-1.06-8.2-6.73-8.2-13.89,0-6.46,1.12-8.02,3.15-10.83,1.23-1.59,2.03-3.32,2.54-5.45.38-1.53,1.86-2.63,3.5-2.63h18.9c1.65,0,3.12,1.11,3.5,2.63.48,1.99,1.31,3.77,2.54,5.45,2.03,2.82,3.14,4.37,3.14,10.83Z"/><path class="uuid-a10f75fb-7c67-4065-93be-8ef8ac9dfa0d" d="M101.58,54.9c-.15-1.35,0-2.27.27-2.62.33-.44.63-.81.89-1.14,1.65-2.09,2.5-3.34,2.14-7v-.04c-.06-.46-.11-.96-.17-1.48-.42-3.95-.99-9.36-4.23-11.96-2.43-1.89-4.98-5.48-4.87-9.9.12-3.83,1.4-5.76,3.72-9.27.3-.45.61-.92.93-1.41.43-.64.78-1.18,1.09-1.64.49-.75.99-1.52,1.2-1.68.2-.06.91-.06,1.21-.06h4.75c.42,0,1.2,0,1.38.07.21.14.79,1.06,1.41,2.03.24.37.5.79.8,1.26.35.54.69,1.06,1.01,1.55,2.28,3.46,3.53,5.37,3.62,9.15.11,4.47-2.41,8.03-4.81,9.88-3.38,2.67-3.9,8.22-4.28,12.26-.04.43-.08.84-.12,1.23-.42,3.66.43,4.92,2.09,7.02.26.33.55.69.86,1.11l.03.04c.14.17.49.81.3,2.59h-9.21Z"/><path class="uuid-a10f75fb-7c67-4065-93be-8ef8ac9dfa0d" d="M64.37,27.3c4.68,5.58,3.02,14.23,2.65,15.91-.49,2.29.77,4.23,2.1,6.29.76,1.18,1.54,2.38,1.99,3.68,1.03,2.84,2.38,2.99,3.81,3.15.38.05.79.1,1.18.19,1.36.3,3.42,2.61,4.4,4.24l-1.59,1.33c-1.23-2.24-2.76-3.38-3.98-3.63-.51-.12-.99-.22-1.42-.3-2.17-.45-2.83-.58-4.31-2.82-.22-.34-.47-.69-.71-1.06-2.02-2.92-4.78-6.91-4.16-9.9.79-3.64.34-9-3.32-13.17-3.05-3.46-5.96-4.33-9.99-5.54-.55-.16-1.14-.34-1.74-.52-.53-.17-.99-.31-1.41-.45-3.49-1.11-3.95-1.17-6.2.72l-3.63,3.05c-2.09,1.76-2.12,2.23-1.74,5.43.07.54.14,1.18.22,1.93.07.6.13,1.16.19,1.69.51,4.39.84,7.29,3.72,10.95,3.43,4.3,8.66,5.68,12.42,5.54,2.94-.07,6.36,3.23,8.85,5.63.39.38.76.74,1.11,1.06,1.9,1.85,1.92,2.53,1.98,4.74.01.45.04.94.05,1.51.04,1.7,1.58,3.35,2.88,4.52l-1.74,1.46c-1.44-1.26-3.36-3.68-3.44-5.05-.02-.41,0-.8.02-1.18.09-1.45.17-2.81-2.45-4.32-1.15-.67-2.17-1.62-3.17-2.53-1.84-1.7-3.57-3.3-5.92-3.23-1.73.06-10.61.12-15.21-5.37-4.15-4.95-4.3-6.86-4.55-10.32-.08-2.01-.58-3.85-1.56-5.81-.69-1.42-.27-3.21.99-4.26l14.48-12.15c1.26-1.06,3.11-1.16,4.37-.23,1.65,1.22,3.42,2.05,5.45,2.54,3.37.85,5.22,1.33,9.37,6.28Z"/><path class="uuid-a10f75fb-7c67-4065-93be-8ef8ac9dfa0d" d="M69.81,69.71c-.98-.94-1.46-1.74-1.48-2.18-.03-.55-.04-1.02-.05-1.45-.07-2.66-.23-4.17-2.86-6.73l-.03-.03c-.34-.32-.7-.67-1.08-1.03-2.86-2.76-6.77-6.53-10.93-6.44-3.08.11-7.33-1-10.09-4.45-2.37-3.01-2.63-5.31-3.11-9.49-.06-.53-.12-1.09-.2-1.68-.08-.76-.16-1.41-.22-1.96-.11-.89-.22-1.8-.16-2.06.12-.17.66-.63.89-.83l3.64-3.05c.32-.27.92-.77,1.1-.83.25-.03,1.29.3,2.38.65.42.13.89.28,1.43.45.62.19,1.21.37,1.77.54,3.97,1.19,6.15,1.84,8.66,4.68,2.95,3.35,3.31,7.71,2.66,10.66-.87,4.22,2.3,8.8,4.6,12.15.25.36.48.7.7,1.02,2.03,3.07,3.49,3.5,6.11,4.04.41.08.86.18,1.38.3h.05c.22.06.9.31,1.89,1.81l-7.05,5.92Z"/><path class="uuid-a10f75fb-7c67-4065-93be-8ef8ac9dfa0d" d="M23.56,72.49c7.17,1.26,11.46,8.96,12.26,10.48,1.1,2.07,3.31,2.74,5.66,3.47,1.34.42,2.71.84,3.89,1.54,2.61,1.51,3.75.76,4.95-.04.32-.21.66-.43,1.03-.61,1.24-.64,4.29-.2,6.1.42l-.36,2.04c-2.38-.93-4.29-.81-5.39-.22-.47.24-.9.47-1.28.68-1.95,1.05-2.54,1.37-5.11.6-.39-.12-.8-.23-1.23-.35-3.42-.93-8.1-2.22-9.55-4.91-1.73-3.3-5.52-7.12-11.01-7.95-4.55-.69-7.35.51-11.21,2.18-.52.23-1.09.47-1.67.72-.51.21-.96.4-1.37.56-3.39,1.39-3.77,1.64-4.28,4.54l-.82,4.67c-.47,2.69-.19,3.07,2.16,5.27.4.37.86.81,1.41,1.34.44.42.84.8,1.23,1.17,3.21,3.04,5.33,5.05,9.89,5.99,5.39,1.09,10.29-1.22,13.08-3.74,2.21-1.94,6.95-1.61,10.4-1.38.54.04,1.06.07,1.53.1,2.64.2,3.09.71,4.56,2.36.3.34.63.7,1.01,1.13,1.13,1.28,3.36,1.55,5.11,1.61l-.39,2.23c-1.91-.04-4.94-.66-5.88-1.65-.28-.3-.52-.61-.75-.92-.86-1.17-1.67-2.26-4.66-1.73-1.31.22-2.71.16-4.06.1-2.51-.12-4.85-.23-6.62,1.33-1.28,1.16-8.05,6.91-15.1,5.67-6.36-1.12-7.7-2.49-10.12-4.98-1.36-1.49-2.92-2.58-4.93-3.45-1.44-.64-2.27-2.28-1.98-3.9l3.28-18.61c.29-1.62,1.63-2.88,3.2-2.99,2.05-.12,3.94-.63,5.81-1.56,3.13-1.51,4.85-2.33,11.21-1.21Z"/><path class="uuid-a10f75fb-7c67-4065-93be-8ef8ac9dfa0d" d="M54.99,101.48c-1.36-.09-2.24-.4-2.53-.72-.38-.41-.69-.76-.97-1.07-1.77-1.99-2.86-3.04-6.52-3.32h-.04c-.46-.03-.96-.06-1.49-.1-3.96-.28-9.39-.65-12.51,2.09-2.29,2.07-6.26,3.95-10.59,3.08-3.75-.78-5.43-2.37-8.48-5.27-.39-.37-.8-.76-1.23-1.16-.55-.53-1.02-.98-1.43-1.36-.65-.61-1.32-1.24-1.45-1.47-.02-.21.1-.9.15-1.21l.82-4.67c.07-.41.21-1.18.31-1.34.18-.19,1.18-.6,2.24-1.03.41-.17.87-.36,1.38-.57.6-.25,1.16-.49,1.7-.73,3.8-1.64,5.9-2.54,9.64-1.98,4.42.67,7.49,3.77,8.89,6.45,2.05,3.79,7.41,5.27,11.33,6.34.42.11.81.22,1.19.33,3.53,1.05,4.92.44,7.28-.84.37-.2.78-.42,1.25-.66l.05-.03c.19-.11.88-.34,2.61.16l-1.6,9.07Z"/><path class="uuid-a10f75fb-7c67-4065-93be-8ef8ac9dfa0d" d="M21.34,133.34c6.31-3.64,14.54-.51,16.13.15,2.17.88,4.3-.03,6.56-.98,1.29-.54,2.62-1.1,3.97-1.32,2.97-.52,3.36-1.82,3.77-3.21.11-.37.23-.76.39-1.13.54-1.29,3.16-2.91,4.94-3.6l1.03,1.79c-2.42.82-3.81,2.13-4.27,3.29-.2.48-.39.93-.55,1.35-.82,2.06-1.07,2.68-3.53,3.75-.37.16-.76.34-1.16.52-3.22,1.48-7.63,3.5-10.47,2.37-3.44-1.41-8.81-1.9-13.54.98-3.93,2.4-5.3,5.12-7.19,8.88-.25.51-.53,1.06-.82,1.62-.25.49-.48.92-.69,1.31-1.7,3.24-1.83,3.69-.37,6.23l2.37,4.11c1.37,2.37,1.83,2.48,5.04,2.65.54.03,1.18.07,1.94.12.6.04,1.16.07,1.7.11,4.41.26,7.33.44,11.43-1.76,4.83-2.63,7.1-7.54,7.61-11.27.44-2.9,4.29-5.7,7.08-7.74.44-.32.86-.62,1.24-.91,2.15-1.55,2.82-1.45,5.01-1.13.45.07.93.13,1.5.21,1.69.25,3.57-.97,4.95-2.05l1.13,1.96c-1.49,1.2-4.21,2.67-5.57,2.51-.4-.05-.79-.14-1.16-.22-1.41-.34-2.74-.66-4.68,1.67-.86,1.01-1.97,1.86-3.05,2.68-2,1.52-3.87,2.94-4.21,5.27-.24,1.71-1.73,10.47-7.93,14.05-5.59,3.23-7.5,3.04-10.96,2.69-2-.27-3.89-.1-6,.52-1.52.43-3.2-.29-4.02-1.71l-9.45-16.36c-.83-1.43-.6-3.26.53-4.34,1.49-1.41,2.61-3.01,3.45-4.93,1.42-3.17,2.22-4.91,7.81-8.14Z"/><path class="uuid-a10f75fb-7c67-4065-93be-8ef8ac9dfa0d" d="M64.05,135.34c-1.09.81-1.97,1.13-2.4,1.08-.55-.07-1.02-.14-1.44-.2-2.63-.39-4.15-.49-7.13,1.65l-.03.02c-.37.28-.78.57-1.2.88-3.21,2.33-7.61,5.53-8.24,9.64-.42,3.06-2.25,7.05-6.14,9.17-3.37,1.81-5.68,1.67-9.88,1.41-.54-.03-1.1-.07-1.69-.1-.77-.05-1.41-.09-1.97-.12-.89-.05-1.81-.1-2.06-.2-.15-.15-.5-.76-.66-1.02l-2.37-4.11c-.21-.36-.6-1.04-.63-1.23.02-.26.52-1.22,1.05-2.23.21-.39.44-.83.69-1.33.3-.58.57-1.12.83-1.65,1.86-3.7,2.88-5.74,6.12-7.71,3.82-2.33,8.16-1.93,10.96-.77,4,1.59,9.06-.73,12.76-2.43.39-.18.77-.35,1.12-.51,3.38-1.46,4.05-2.83,5.04-5.32.15-.39.32-.82.53-1.3l.02-.05c.08-.21.45-.83,2.1-1.55l4.6,7.97Z"/><path class="uuid-a10f75fb-7c67-4065-93be-8ef8ac9dfa0d" d="M58.76,181.37c2.49-6.84,10.81-9.73,12.45-10.25,2.23-.73,3.28-2.79,4.4-4.97.64-1.24,1.3-2.52,2.19-3.57,1.94-2.31,1.4-3.56.82-4.88-.15-.35-.31-.73-.43-1.12-.42-1.33.55-4.26,1.47-5.93l1.94.71c-1.33,2.18-1.54,4.08-1.15,5.26.15.5.3.96.45,1.38.69,2.11.91,2.74-.29,5.14-.18.36-.36.75-.56,1.15-1.51,3.21-3.6,7.59-6.49,8.55-3.55,1.13-7.97,4.2-9.74,9.46-1.47,4.37-.77,7.33.2,11.42.14.56.28,1.15.42,1.77.12.54.23,1.01.32,1.44.78,3.58.96,4,3.72,5.01l4.46,1.62c2.57.93,2.99.72,5.57-1.21.44-.33.95-.71,1.56-1.16.49-.36.94-.69,1.37-1.01,3.55-2.64,5.9-4.37,7.62-8.69,2.01-5.12.59-10.34-1.41-13.53-1.53-2.51-.38-7.12.45-10.48.13-.53.26-1.03.37-1.49.66-2.57,1.23-2.92,3.11-4.08.38-.24.8-.5,1.28-.8,1.45-.89,2.11-3.04,2.47-4.75l2.13.77c-.38,1.88-1.51,4.75-2.65,5.5-.34.22-.69.4-1.03.58-1.3.65-2.52,1.26-2.51,4.28,0,1.33-.32,2.69-.61,4.01-.55,2.45-1.07,4.74.16,6.75.92,1.46,5.41,9.13,2.96,15.86-2.21,6.07-3.79,7.15-6.67,9.1-1.7,1.08-3.04,2.42-4.26,4.25-.88,1.31-2.64,1.84-4.18,1.27l-17.76-6.46c-1.55-.56-2.56-2.11-2.39-3.67.24-2.04.06-3.99-.53-5.99-.95-3.34-1.46-5.18.75-11.25Z"/><path class="uuid-a10f75fb-7c67-4065-93be-8ef8ac9dfa0d" d="M92.77,155.46c-.32,1.32-.78,2.13-1.15,2.37-.47.3-.87.55-1.23.77-2.27,1.39-3.49,2.29-4.4,5.84v.04c-.12.45-.24.94-.36,1.45-.96,3.85-2.27,9.13-.11,12.68,1.64,2.61,2.8,6.85,1.19,10.97-1.42,3.56-3.28,4.93-6.66,7.44-.43.32-.88.65-1.36,1.01-.62.45-1.14.84-1.58,1.17-.71.53-1.45,1.09-1.7,1.17-.21-.01-.87-.26-1.16-.36l-4.46-1.62c-.39-.14-1.13-.41-1.27-.54-.15-.21-.38-1.27-.63-2.39-.09-.43-.2-.92-.32-1.46-.14-.63-.29-1.23-.42-1.8-.95-4.03-1.48-6.25-.27-9.84,1.43-4.24,5.02-6.72,7.9-7.64,4.09-1.36,6.47-6.39,8.22-10.06.19-.39.36-.76.53-1.11,1.65-3.29,1.28-4.77.44-7.31-.13-.4-.28-.84-.43-1.34l-.02-.05c-.07-.21-.19-.93.61-2.54l8.65,3.15Z"/><path class="uuid-a10f75fb-7c67-4065-93be-8ef8ac9dfa0d" d="M118.3,194.12c-2.49-6.84,2.03-14.41,2.95-15.85,1.24-1.99.72-4.24.18-6.63-.31-1.37-.63-2.77-.61-4.14,0-3.02-1.21-3.63-2.51-4.27-.34-.17-.71-.36-1.05-.58-1.18-.75-2.32-3.62-2.68-5.49l1.94-.71c.38,2.53,1.44,4.12,2.5,4.77.44.29.85.54,1.23.77,1.88,1.17,2.46,1.52,3.08,4.13.09.39.2.81.31,1.24.9,3.43,2.12,8.13.52,10.72-1.99,3.14-3.4,8.34-1.38,13.51,1.68,4.29,4.12,6.11,7.49,8.62.46.34.95.71,1.46,1.09.44.34.83.63,1.17.9,2.9,2.24,3.31,2.45,6.07,1.44l4.46-1.62c2.57-.93,2.76-1.37,3.49-4.5.12-.53.28-1.15.45-1.89.14-.59.27-1.13.4-1.65,1.02-4.3,1.71-7.14.25-11.56-1.75-5.22-6.2-8.3-9.78-9.46-2.78-.94-4.87-5.21-6.39-8.32-.24-.49-.47-.95-.68-1.38-1.15-2.39-.94-3.03-.24-5.13.14-.43.29-.9.47-1.44.54-1.62-.34-3.69-1.16-5.23l2.13-.77c.92,1.68,1.9,4.61,1.51,5.92-.12.39-.27.75-.42,1.11-.58,1.33-1.12,2.58.83,4.9.85,1.02,1.49,2.27,2.11,3.47,1.15,2.23,2.23,4.32,4.46,5.06,1.64.53,10.01,3.52,12.46,10.25,2.21,6.07,1.69,7.92.74,11.26-.61,1.92-.77,3.81-.53,5.99.16,1.57-.84,3.1-2.39,3.67l-17.76,6.46c-1.55.56-3.31.03-4.18-1.27-1.13-1.71-2.51-3.09-4.26-4.25-2.87-1.95-4.45-3.03-6.66-9.1Z"/><path class="uuid-a10f75fb-7c67-4065-93be-8ef8ac9dfa0d" d="M127.69,152.41c.6,1.22.77,2.14.64,2.55-.16.53-.31.98-.44,1.38-.84,2.53-1.21,4,.38,7.31l.02.04c.21.41.43.86.66,1.34,1.74,3.57,4.13,8.46,8.07,9.79,2.94.95,6.55,3.44,7.96,7.64,1.2,3.63.66,5.89-.32,9.98-.13.52-.26,1.07-.39,1.64-.19.75-.33,1.38-.46,1.91-.2.87-.41,1.77-.55,1.99-.17.12-.83.37-1.12.47l-4.46,1.62c-.39.14-1.13.41-1.32.41-.25-.06-1.11-.72-2.02-1.42-.35-.27-.74-.57-1.19-.91-.52-.39-1.01-.76-1.48-1.11-3.32-2.47-5.15-3.84-6.53-7.36-1.63-4.16-.48-8.37,1.14-10.93,2.26-3.67.85-9.05-.17-12.99-.11-.42-.21-.82-.31-1.19-.85-3.58-2.08-4.48-4.36-5.88-.36-.22-.75-.46-1.19-.75l-.05-.03c-.19-.12-.74-.59-1.17-2.34l8.65-3.15Z"/><path class="uuid-a10f75fb-7c67-4065-93be-8ef8ac9dfa0d" d="M172.1,165.61c-6.31-3.64-7.71-12.34-7.93-14.04-.33-2.32-2.17-3.71-4.13-5.19-1.11-.85-2.26-1.71-3.13-2.78-1.94-2.31-3.26-2-4.66-1.66-.37.09-.77.18-1.17.23-1.38.18-4.1-1.28-5.59-2.48l1.03-1.79c1.92,1.69,3.75,2.23,4.98,2.05.52-.06,1-.13,1.44-.2,2.19-.32,2.86-.42,5.01,1.18.32.24.68.49,1.03.75,2.9,2.05,6.85,4.86,7.29,7.88.5,3.69,2.76,8.58,7.62,11.24,4.04,2.21,7.08,2.03,11.28,1.79.57-.04,1.18-.07,1.81-.1.55-.03,1.04-.05,1.48-.06,3.66-.15,4.11-.25,5.58-2.8l2.37-4.11c1.37-2.37,1.23-2.82-.22-5.69-.25-.49-.53-1.06-.87-1.74-.27-.54-.52-1.04-.76-1.52-1.98-3.95-3.28-6.57-7.24-9.01-4.69-2.87-10.08-2.38-13.57-.96-2.74,1.07-7.08-.86-10.24-2.26-.5-.22-.97-.43-1.41-.62-2.42-1.09-2.67-1.72-3.48-3.78-.17-.42-.36-.87-.57-1.4-.62-1.59-2.63-2.61-4.25-3.26l1.13-1.96c1.78.7,4.41,2.31,4.96,3.56.16.37.28.75.39,1.12.41,1.39.8,2.7,3.78,3.22,1.31.24,2.6.78,3.85,1.3,2.31.97,4.48,1.88,6.67,1.01,1.6-.65,9.93-3.74,16.13-.16,5.59,3.23,6.38,4.98,7.81,8.14.77,1.86,1.86,3.42,3.45,4.93,1.13,1.1,1.35,2.92.53,4.34l-9.45,16.36c-.83,1.43-2.52,2.15-4.02,1.71-1.97-.59-3.91-.75-6-.52-3.45.35-5.36.53-10.95-2.7Z"/><path class="uuid-a10f75fb-7c67-4065-93be-8ef8ac9dfa0d" d="M152.48,127.62c1.25.55,1.97,1.14,2.13,1.54.22.51.39.95.55,1.34.98,2.48,1.65,3.84,4.99,5.35l.04.02c.43.18.88.39,1.37.6,3.63,1.61,8.6,3.82,12.47,2.31,2.86-1.16,7.23-1.57,11.01.73,3.26,2.01,4.29,4.09,6.17,7.85.24.48.49.98.76,1.51.34.69.63,1.27.88,1.76.4.8.82,1.62.86,1.88-.05.2-.4.82-.56,1.08l-2.37,4.11c-.21.36-.6,1.04-.75,1.16-.23.11-1.31.16-2.46.2-.44.02-.94.04-1.49.07-.65.03-1.26.07-1.84.1-4.13.24-6.41.37-9.74-1.44-3.92-2.14-5.75-6.11-6.15-9.1-.63-4.26-5.17-7.48-8.48-9.84-.35-.25-.69-.49-1-.72-2.95-2.19-4.48-2.09-7.13-1.7-.41.06-.87.13-1.4.19h-.05c-.22.04-.95.03-2.39-1.03l4.6-7.97Z"/><path class="uuid-a10f75fb-7c67-4065-93be-8ef8ac9dfa0d" d="M195,109.19c-7.17,1.26-13.84-4.5-15.1-5.66-1.74-1.57-4.05-1.44-6.5-1.32-1.4.07-2.83.14-4.19-.11-2.97-.53-3.78.56-4.64,1.73-.23.31-.48.63-.75.93-.95,1.03-3.97,1.66-5.87,1.69l-.36-2.04c2.56.06,4.31-.7,5.14-1.63.36-.38.68-.75.97-1.08,1.48-1.65,1.92-2.16,4.6-2.32.4-.02.83-.06,1.27-.09,3.54-.29,8.37-.68,10.65,1.35,2.75,2.51,7.62,4.8,13.06,3.71,4.52-.91,6.73-3,9.79-5.88.41-.39.86-.81,1.32-1.25.41-.37.77-.7,1.09-1,2.71-2.47,2.98-2.84,2.47-5.73l-.82-4.67c-.47-2.69-.87-2.95-3.83-4.22-.5-.21-1.09-.47-1.78-.77-.55-.24-1.07-.47-1.56-.68-4.06-1.76-6.73-2.92-11.34-2.25-5.44.82-9.25,4.66-11.01,7.99-1.41,2.58-5.98,3.89-9.3,4.85-.52.15-1.02.29-1.48.43-2.55.72-3.15.39-5.09-.65-.4-.21-.83-.44-1.34-.71-1.5-.82-3.69-.31-5.35.23l-.39-2.23c1.81-.61,4.87-1.07,6.09-.46.36.18.69.4,1.02.61,1.21.8,2.35,1.56,4.97.03,1.15-.66,2.49-1.07,3.78-1.48,2.4-.74,4.64-1.44,5.76-3.51.81-1.52,5.2-9.25,12.25-10.49,6.36-1.12,8.09-.29,11.21,1.22,1.78.94,3.62,1.43,5.81,1.56,1.57.11,2.91,1.37,3.2,2.99l3.28,18.61c.29,1.62-.55,3.27-1.98,3.9-1.88.81-3.48,1.94-4.93,3.45-2.42,2.49-3.76,3.85-10.12,4.97Z"/><path class="uuid-a10f75fb-7c67-4065-93be-8ef8ac9dfa0d" d="M155.55,92.7c1.3-.38,2.24-.39,2.63-.19.5.25.91.47,1.28.68,2.34,1.27,3.73,1.88,7.26.89h.04c.44-.15.93-.28,1.43-.43,3.82-1.1,9.04-2.6,11.04-6.25,1.44-2.73,4.53-5.85,8.9-6.51,3.79-.55,5.91.37,9.77,2.05.49.21,1.01.44,1.55.67.7.31,1.3.57,1.81.79.82.35,1.67.71,1.86.89.09.19.22.88.27,1.19l.82,4.67c.07.41.21,1.18.17,1.37-.1.23-.9.96-1.75,1.74-.33.3-.69.63-1.1,1.01-.48.44-.92.86-1.35,1.26-3.01,2.84-4.67,4.41-8.38,5.15-4.38.88-8.33-.98-10.56-3.02-3.22-2.86-8.77-2.41-12.82-2.08-.43.03-.84.07-1.23.09-3.67.22-4.77,1.27-6.55,3.28-.28.31-.59.66-.95,1.04l-.04.04c-.15.17-.71.62-2.5.74l-1.6-9.07Z"/><path class="uuid-a10f75fb-7c67-4065-93be-8ef8ac9dfa0d" d="M176.26,51.26c-4.68,5.58-13.49,5.45-15.21,5.37-2.34-.08-4.03,1.5-5.83,3.16-1.03.95-2.08,1.93-3.28,2.6-2.61,1.51-2.54,2.86-2.44,4.3.02.38.04.79.02,1.2-.06,1.4-1.98,3.82-3.41,5.07l-1.59-1.33c2-1.6,2.85-3.31,2.88-4.55.03-.53.04-1.01.05-1.45.07-2.22.08-2.89,2.03-4.73.29-.28.6-.58.91-.89,2.52-2.5,5.97-5.9,9.03-5.81,3.72.15,8.93-1.22,12.39-5.56,2.87-3.6,3.23-6.62,3.72-10.8.06-.57.14-1.18.21-1.81.07-.55.13-1.03.2-1.47.49-3.63.46-4.09-1.79-5.98l-3.63-3.05c-2.09-1.76-2.56-1.7-5.65-.77-.52.16-1.14.34-1.86.55-.58.17-1.12.33-1.63.48-4.24,1.26-7.04,2.09-10.13,5.56-3.64,4.12-4.09,9.52-3.3,13.2.58,2.88-2.08,6.83-4.01,9.69-.3.45-.59.88-.85,1.28-1.5,2.19-2.16,2.33-4.32,2.77-.44.09-.92.2-1.48.31-1.67.34-3.02,2.14-3.95,3.62l-1.74-1.46c1-1.64,3.04-3.95,4.37-4.27.4-.09.79-.14,1.17-.19,1.44-.17,2.8-.32,3.83-3.17.46-1.24,1.22-2.42,1.94-3.56,1.36-2.11,2.63-4.09,2.15-6.4-.36-1.69-1.96-10.43,2.64-15.91,4.15-4.95,6.01-5.42,9.38-6.27,1.97-.43,3.69-1.24,5.45-2.54,1.28-.93,3.11-.82,4.37.23l14.48,12.15c1.26,1.06,1.68,2.86.99,4.26-.92,1.83-1.42,3.72-1.56,5.81-.25,3.46-.4,5.37-4.56,10.32Z"/><path class="uuid-a10f75fb-7c67-4065-93be-8ef8ac9dfa0d" d="M135.44,63.98c.75-1.13,1.46-1.74,1.89-1.83.54-.13,1-.22,1.42-.31,2.61-.53,4.07-.95,6.14-3.99l.02-.03c.25-.39.53-.8.83-1.24,2.22-3.29,5.26-7.8,4.44-11.88-.65-3.02-.29-7.39,2.63-10.71,2.55-2.86,4.77-3.51,8.8-4.71.52-.15,1.05-.31,1.62-.48.74-.21,1.36-.4,1.89-.56.85-.26,1.74-.53,2-.52.19.08.73.54.97.74l3.64,3.05c.32.27.92.77,1.01.94.07.25-.07,1.32-.23,2.46-.06.44-.13.93-.2,1.48-.08.64-.15,1.25-.22,1.83-.48,4.11-.75,6.38-3.11,9.34-2.79,3.49-7.01,4.6-10.03,4.47-4.3-.12-8.27,3.79-11.16,6.64-.31.3-.6.59-.88.86-2.67,2.53-2.84,4.04-2.91,6.72-.01.42-.02.88-.05,1.41v.06c0,.22-.14.93-1.44,2.18l-7.05-5.92Z"/><polygon class="uuid-a10f75fb-7c67-4065-93be-8ef8ac9dfa0d" points="110.77 95.41 116.03 107.84 105.84 116.66 94.28 109.71 97.33 96.57 110.77 95.41"/><polygon class="uuid-a10f75fb-7c67-4065-93be-8ef8ac9dfa0d" points="104.73 120.46 106.04 134.47 95.46 138.1 82.36 130.09 80.37 117.5 91.54 112.54 104.73 120.46"/><polygon class="uuid-a10f75fb-7c67-4065-93be-8ef8ac9dfa0d" points="93.5 93.84 90 108.92 78.83 113.88 72.09 105.01 75.9 88.79 85.13 83.6 93.5 93.84"/><polygon class="uuid-a10f75fb-7c67-4065-93be-8ef8ac9dfa0d" points="132.83 113.92 133.9 125.83 122.33 136.3 109.95 134.16 108.63 120.13 108.65 120.11 120.22 110.09 132.83 113.92"/><polygon class="uuid-a10f75fb-7c67-4065-93be-8ef8ac9dfa0d" points="118.46 79.79 111.87 89.95 111.84 89.97 96.47 91.31 88.08 81 94.49 72.38 110.52 70.95 118.46 79.79"/><polygon class="uuid-a10f75fb-7c67-4065-93be-8ef8ac9dfa0d" points="133.39 84.93 139.62 100.17 133.73 110.09 121.18 106.24 115.16 92.06 121.81 81.86 133.39 84.93"/><path class="uuid-a10f75fb-7c67-4065-93be-8ef8ac9dfa0d" d="M266.29,47.79h9.88v44.91h-9.88v-44.91Z"/><path class="uuid-a10f75fb-7c67-4065-93be-8ef8ac9dfa0d" d="M302.09,70.37v-.13c0-12.77,9.62-23.22,23.42-23.22,8.47,0,13.54,2.82,17.7,6.93l-6.29,7.25c-3.47-3.14-6.99-5.07-11.48-5.07-7.57,0-13.02,6.29-13.02,13.99v.13c0,7.7,5.33,14.11,13.02,14.11,5.13,0,8.28-2.05,11.8-5.26l6.29,6.35c-4.62,4.94-9.75,8.02-18.41,8.02-13.22,0-23.03-10.2-23.03-23.1Z"/><path class="uuid-a10f75fb-7c67-4065-93be-8ef8ac9dfa0d" d="M364.84,70.37v-.13c0-12.77,10.07-23.22,23.93-23.22s23.8,10.33,23.8,23.09v.13c0,12.77-10.07,23.22-23.93,23.22s-23.8-10.33-23.8-23.1ZM402.25,70.37v-.13c0-7.7-5.65-14.11-13.6-14.11s-13.47,6.29-13.47,13.99v.13c0,7.7,5.65,14.11,13.6,14.11s13.47-6.29,13.47-13.99Z"/><path class="uuid-a10f75fb-7c67-4065-93be-8ef8ac9dfa0d" d="M434.66,86.16l5.84-6.99c4.04,3.34,8.28,5.45,13.41,5.45,4.04,0,6.48-1.6,6.48-4.23v-.13c0-2.5-1.54-3.78-9.05-5.71-9.04-2.31-14.88-4.81-14.88-13.73v-.13c0-8.15,6.54-13.54,15.72-13.54,6.54,0,12.12,2.05,16.68,5.71l-5.13,7.44c-3.98-2.76-7.89-4.43-11.68-4.43s-5.77,1.73-5.77,3.91v.13c0,2.95,1.92,3.91,9.69,5.9,9.11,2.37,14.24,5.65,14.24,13.47v.13c0,8.92-6.8,13.92-16.49,13.92-6.8,0-13.66-2.37-19.05-7.19Z"/><path class="uuid-a10f75fb-7c67-4065-93be-8ef8ac9dfa0d" d="M509.93,47.47h9.11l19.24,45.23h-10.33l-4.11-10.07h-18.99l-4.11,10.07h-10.07l19.24-45.23ZM520.32,73.9l-5.97-14.56-5.97,14.56h11.93Z"/><path class="uuid-a10f75fb-7c67-4065-93be-8ef8ac9dfa0d" d="M551.63,47.79h10.91l11.74,31.63,11.74-31.63h10.65l-18.15,45.23h-8.73l-18.15-45.23Z"/><path class="uuid-a10f75fb-7c67-4065-93be-8ef8ac9dfa0d" d="M629.26,47.47h9.11l19.24,45.23h-10.33l-4.11-10.07h-18.99l-4.11,10.07h-10.07l19.24-45.23ZM639.65,73.9l-5.97-14.56-5.97,14.56h11.93Z"/><path class="uuid-a10f75fb-7c67-4065-93be-8ef8ac9dfa0d" d="M692.2,69.86l-15.01-22.07h11.55l9.43,14.56,9.49-14.56h11.23l-15.01,21.94,15.65,22.97h-11.55l-10.07-15.4-10.14,15.4h-11.23l15.65-22.84Z"/><rect class="uuid-a10f75fb-7c67-4065-93be-8ef8ac9dfa0d" x="266.29" y="115.97" width="453.24" height="2.24"/><path class="uuid-a10f75fb-7c67-4065-93be-8ef8ac9dfa0d" d="M283.45,159.15h-3.18l-1.73-4.13h-8.09l-1.76,4.13h-3.08l7.53-17.24h2.79l7.53,17.24ZM274.48,145.51l-2.94,6.85h5.89l-2.96-6.85Z"/><path class="uuid-a10f75fb-7c67-4065-93be-8ef8ac9dfa0d" d="M308.5,145.97c2.81,0,4.52,1.78,4.52,4.94v8.24h-2.96v-7.34c0-2.05-.95-3.15-2.62-3.15s-2.76,1.12-2.76,3.2v7.29h-2.96v-7.36c0-2.01-.98-3.13-2.62-3.13s-2.76,1.22-2.76,3.23v7.26h-2.96v-12.91h2.96v1.96c.83-1.15,1.96-2.22,3.94-2.22,1.86,0,3.15.9,3.84,2.27,1.05-1.37,2.42-2.27,4.38-2.27Z"/><path class="uuid-a10f75fb-7c67-4065-93be-8ef8ac9dfa0d" d="M322.68,157.02c1.44,0,2.47-.54,3.5-1.54l1.73,1.54c-1.22,1.47-2.91,2.42-5.28,2.42-3.74,0-6.63-2.71-6.63-6.72,0-3.72,2.62-6.75,6.31-6.75,4.11,0,6.19,3.23,6.19,6.97,0,.27-.02.51-.05.81h-9.49c.34,2.1,1.81,3.28,3.72,3.28ZM325.56,151.79c-.19-1.91-1.32-3.4-3.28-3.4-1.81,0-3.08,1.39-3.35,3.4h6.63Z"/><path class="uuid-a10f75fb-7c67-4065-93be-8ef8ac9dfa0d" d="M346.63,145.97c2.81,0,4.52,1.78,4.52,4.94v8.24h-2.96v-7.34c0-2.05-.95-3.15-2.62-3.15s-2.76,1.12-2.76,3.2v7.29h-2.96v-7.36c0-2.01-.98-3.13-2.62-3.13s-2.76,1.22-2.76,3.23v7.26h-2.96v-12.91h2.96v1.96c.83-1.15,1.96-2.22,3.94-2.22,1.86,0,3.15.9,3.84,2.27,1.05-1.37,2.42-2.27,4.38-2.27Z"/><path class="uuid-a10f75fb-7c67-4065-93be-8ef8ac9dfa0d" d="M362.2,159.42c-2.13,0-3.47-1.08-4.38-2.27v2.01h-2.96v-17.85h2.96v7.09c.95-1.35,2.3-2.42,4.38-2.42,3.06,0,6.02,2.42,6.02,6.72s-2.94,6.72-6.02,6.72ZM361.52,148.54c-2,0-3.77,1.64-3.77,4.16s1.76,4.16,3.77,4.16,3.69-1.59,3.69-4.16-1.69-4.16-3.69-4.16Z"/><path class="uuid-a10f75fb-7c67-4065-93be-8ef8ac9dfa0d" d="M377.26,157.02c1.44,0,2.47-.54,3.5-1.54l1.73,1.54c-1.22,1.47-2.91,2.42-5.28,2.42-3.74,0-6.63-2.71-6.63-6.72,0-3.72,2.62-6.75,6.31-6.75,4.11,0,6.19,3.23,6.19,6.97,0,.27-.02.51-.05.81h-9.49c.34,2.1,1.81,3.28,3.72,3.28ZM380.14,151.79c-.19-1.91-1.32-3.4-3.28-3.4-1.81,0-3.08,1.39-3.35,3.4h6.63Z"/><path class="uuid-a10f75fb-7c67-4065-93be-8ef8ac9dfa0d" d="M389.06,159.15h-2.96v-12.91h2.96v2.91c.81-1.93,2.3-3.25,4.57-3.15v3.13h-.17c-2.59,0-4.4,1.69-4.4,5.11v4.91Z"/><path class="uuid-a10f75fb-7c67-4065-93be-8ef8ac9dfa0d" d="M409.67,159.44c-3.94,0-6.85-3.01-6.85-6.7s2.93-6.77,6.9-6.77,6.87,3.01,6.87,6.72-2.93,6.75-6.92,6.75ZM409.67,148.56c-2.37,0-3.89,1.86-3.89,4.13s1.64,4.18,3.94,4.18,3.91-1.86,3.91-4.13-1.64-4.18-3.96-4.18Z"/><path class="uuid-a10f75fb-7c67-4065-93be-8ef8ac9dfa0d" d="M426.3,146.34v2.44h-3.37v10.37h-2.96v-10.37h-1.64v-2.47h1.64v-.93c0-2.84,1.42-4.23,3.96-4.23,1.03,0,1.73.15,2.4.34v2.49c-.59-.2-1.1-.32-1.74-.32-1.13,0-1.71.61-1.71,1.96v.71h3.42Z"/><path class="uuid-a10f75fb-7c67-4065-93be-8ef8ac9dfa0d" d="M439.42,155.12c0,1.15.59,1.61,1.59,1.61.66,0,1.25-.15,1.83-.44v2.42c-.73.42-1.56.66-2.67.66-2.18,0-3.72-.95-3.72-3.79v-6.8h-1.64v-2.54h1.64v-3.55h2.96v3.55h3.47v2.54h-3.47v6.33Z"/><path class="uuid-a10f75fb-7c67-4065-93be-8ef8ac9dfa0d" d="M448.82,159.15h-2.96v-17.85h2.96v6.94c.83-1.22,2.03-2.27,4.03-2.27,2.91,0,4.6,1.96,4.6,4.96v8.22h-2.96v-7.34c0-2.01-1-3.15-2.76-3.15s-2.91,1.2-2.91,3.2v7.29Z"/><path class="uuid-a10f75fb-7c67-4065-93be-8ef8ac9dfa0d" d="M467.05,157.02c1.44,0,2.47-.54,3.5-1.54l1.73,1.54c-1.22,1.47-2.91,2.42-5.28,2.42-3.74,0-6.63-2.71-6.63-6.72,0-3.72,2.62-6.75,6.31-6.75,4.11,0,6.19,3.23,6.19,6.97,0,.27-.02.51-.05.81h-9.49c.34,2.1,1.81,3.28,3.72,3.28ZM469.94,151.79c-.19-1.91-1.32-3.4-3.28-3.4-1.81,0-3.08,1.39-3.35,3.4h6.63Z"/><path class="uuid-a10f75fb-7c67-4065-93be-8ef8ac9dfa0d" d="M499.92,159.15h-3.18l-1.73-4.13h-8.09l-1.76,4.13h-3.08l7.53-17.24h2.79l7.53,17.24ZM490.95,145.51l-2.94,6.85h5.89l-2.96-6.85Z"/><path class="uuid-a10f75fb-7c67-4065-93be-8ef8ac9dfa0d" d="M507.2,159.39c-1.83,0-3.86-.66-5.48-1.93l1.32-2.01c1.39,1.05,2.91,1.59,4.23,1.59s2-.54,2-1.39v-.05c0-1-1.37-1.35-2.88-1.81-1.91-.54-4.03-1.32-4.03-3.79v-.05c0-2.45,2.03-3.94,4.6-3.94,1.61,0,3.37.56,4.74,1.47l-1.17,2.1c-1.25-.76-2.57-1.22-3.64-1.22-1.15,0-1.81.54-1.81,1.3v.05c0,.93,1.39,1.32,2.91,1.81,1.88.59,4.01,1.44,4.01,3.77v.05c0,2.71-2.1,4.06-4.79,4.06Z"/><path class="uuid-a10f75fb-7c67-4065-93be-8ef8ac9dfa0d" d="M518.56,155.12c0,1.15.59,1.61,1.59,1.61.66,0,1.25-.15,1.83-.44v2.42c-.73.42-1.56.66-2.67.66-2.18,0-3.72-.95-3.72-3.79v-6.8h-1.64v-2.54h1.64v-3.55h2.96v3.55h3.47v2.54h-3.47v6.33Z"/><path class="uuid-a10f75fb-7c67-4065-93be-8ef8ac9dfa0d" d="M527.96,159.15h-2.96v-12.91h2.96v2.91c.81-1.93,2.3-3.25,4.57-3.15v3.13h-.17c-2.59,0-4.4,1.69-4.4,5.11v4.91Z"/><path class="uuid-a10f75fb-7c67-4065-93be-8ef8ac9dfa0d" d="M542.7,159.15v-1.59c-.88,1.05-2.23,1.86-4.18,1.86-2.45,0-4.6-1.39-4.6-3.98v-.05c0-2.79,2.22-4.16,5.23-4.16,1.56,0,2.57.22,3.57.54v-.32c0-1.79-1.12-2.76-3.18-2.76-1.44,0-2.52.32-3.69.81l-.81-2.37c1.42-.64,2.81-1.08,4.92-1.08,3.81,0,5.67,2,5.67,5.45v7.65h-2.93ZM542.77,153.67c-.76-.29-1.81-.51-2.96-.51-1.86,0-2.96.76-2.96,2.08v.05c0,1.22,1.1,1.91,2.49,1.91,1.96,0,3.42-1.1,3.42-2.71v-.81Z"/><path class="uuid-a10f75fb-7c67-4065-93be-8ef8ac9dfa0d" d="M548.85,144.7v-2.67h13.69v2.22l-10.1,12.23h10.1v2.67h-14.01v-2.22l10.1-12.23h-9.78Z"/><path class="uuid-a10f75fb-7c67-4065-93be-8ef8ac9dfa0d" d="M571.41,157.02c1.44,0,2.47-.54,3.5-1.54l1.73,1.54c-1.22,1.47-2.91,2.42-5.28,2.42-3.74,0-6.63-2.71-6.63-6.72,0-3.72,2.62-6.75,6.31-6.75,4.11,0,6.19,3.23,6.19,6.97,0,.27-.02.51-.05.81h-9.49c.34,2.1,1.81,3.28,3.72,3.28ZM574.3,151.79c-.19-1.91-1.32-3.4-3.28-3.4-1.81,0-3.08,1.39-3.35,3.4h6.63Z"/><path class="uuid-a10f75fb-7c67-4065-93be-8ef8ac9dfa0d" d="M583.22,159.15h-2.96v-12.91h2.96v2.01c.83-1.22,2.03-2.27,4.03-2.27,2.91,0,4.6,1.96,4.6,4.96v8.22h-2.96v-7.34c0-2.01-1-3.15-2.76-3.15s-2.91,1.2-2.91,3.2v7.29Z"/><path class="uuid-a10f75fb-7c67-4065-93be-8ef8ac9dfa0d" d="M601.45,157.02c1.44,0,2.47-.54,3.5-1.54l1.73,1.54c-1.22,1.47-2.91,2.42-5.28,2.42-3.74,0-6.63-2.71-6.63-6.72,0-3.72,2.62-6.75,6.31-6.75,4.11,0,6.19,3.23,6.19,6.97,0,.27-.02.51-.05.81h-9.49c.34,2.1,1.81,3.28,3.72,3.28ZM604.34,151.79c-.19-1.91-1.32-3.4-3.28-3.4-1.81,0-3.08,1.39-3.35,3.4h6.63Z"/><path class="uuid-a10f75fb-7c67-4065-93be-8ef8ac9dfa0d" d="M616.21,159.44c-3.84,0-6.67-3.01-6.67-6.7s2.84-6.77,6.7-6.77c2.45,0,3.96.9,5.16,2.22l-1.83,1.98c-.9-.95-1.86-1.61-3.35-1.61-2.15,0-3.72,1.86-3.72,4.13s1.59,4.18,3.86,4.18c1.39,0,2.42-.66,3.35-1.61l1.78,1.76c-1.27,1.42-2.76,2.42-5.28,2.42Z"/><path class="uuid-a10f75fb-7c67-4065-93be-8ef8ac9dfa0d" d="M632.23,159.15v-1.59c-.88,1.05-2.23,1.86-4.18,1.86-2.45,0-4.6-1.39-4.6-3.98v-.05c0-2.79,2.22-4.16,5.23-4.16,1.56,0,2.57.22,3.57.54v-.32c0-1.79-1.13-2.76-3.18-2.76-1.44,0-2.52.32-3.69.81l-.81-2.37c1.42-.64,2.81-1.08,4.92-1.08,3.81,0,5.67,2,5.67,5.45v7.65h-2.93ZM632.3,153.67c-.76-.29-1.81-.51-2.96-.51-1.86,0-2.96.76-2.96,2.08v.05c0,1.22,1.1,1.91,2.49,1.91,1.96,0,3.42-1.1,3.42-2.71v-.81Z"/><path class="uuid-a10f75fb-7c67-4065-93be-8ef8ac9dfa0d" d="M654.49,159.44c-5.35,0-8.88-3.81-8.88-8.83s3.67-8.88,8.83-8.88c2.98,0,4.82.83,6.58,2.32l-1.91,2.27c-1.32-1.12-2.62-1.83-4.79-1.83-3.15,0-5.55,2.74-5.55,6.06,0,3.55,2.32,6.14,5.82,6.14,1.61,0,3.08-.51,4.13-1.3v-3.2h-4.38v-2.62h7.29v7.19c-1.69,1.44-4.11,2.67-7.14,2.67Z"/><path class="uuid-a10f75fb-7c67-4065-93be-8ef8ac9dfa0d" d="M668.46,159.15h-2.96v-12.91h2.96v2.91c.81-1.93,2.3-3.25,4.57-3.15v3.13h-.17c-2.59,0-4.4,1.69-4.4,5.11v4.91Z"/><path class="uuid-a10f75fb-7c67-4065-93be-8ef8ac9dfa0d" d="M681.5,159.44c-3.94,0-6.85-3.01-6.85-6.7s2.93-6.77,6.9-6.77,6.87,3.01,6.87,6.72-2.93,6.75-6.92,6.75ZM681.5,148.56c-2.37,0-3.89,1.86-3.89,4.13s1.64,4.18,3.94,4.18,3.91-1.86,3.91-4.13-1.64-4.18-3.96-4.18Z"/><path class="uuid-a10f75fb-7c67-4065-93be-8ef8ac9dfa0d" d="M699.94,146.24h2.96v12.91h-2.96v-2.01c-.83,1.22-2.03,2.27-4.03,2.27-2.91,0-4.6-1.96-4.6-4.96v-8.22h2.96v7.34c0,2.01,1,3.15,2.76,3.15s2.91-1.2,2.91-3.2v-7.29Z"/><path class="uuid-a10f75fb-7c67-4065-93be-8ef8ac9dfa0d" d="M713.98,159.42c-2.13,0-3.47-1.08-4.38-2.27v5.92h-2.96v-16.82h2.96v2.15c.95-1.35,2.3-2.42,4.38-2.42,3.06,0,6.02,2.42,6.02,6.72s-2.94,6.72-6.02,6.72ZM713.3,148.54c-2,0-3.77,1.64-3.77,4.16s1.76,4.16,3.77,4.16,3.69-1.59,3.69-4.16-1.69-4.16-3.69-4.16Z"/></g></svg>