<?xml version="1.0" encoding="utf-8"?>
<!-- Generator: Adobe Illustrator 15.0.0, SVG Export Plug-In . SVG Version: 6.00 Build 0)  -->
<!DOCTYPE svg PUBLIC "-//W3C//DTD SVG 1.1//EN" "http://www.w3.org/Graphics/SVG/1.1/DTD/svg11.dtd">
<svg version="1.1" id="Layer_1" xmlns="http://www.w3.org/2000/svg" xmlns:xlink="http://www.w3.org/1999/xlink" x="0px" y="0px"
	 width="530px" height="50px" viewBox="0 0 530 50" enable-background="new 0 0 530 50" xml:space="preserve">
<pattern  x="-0.5" y="465" width="69" height="69" patternUnits="userSpaceOnUse" id="Unnamed_Pattern" viewBox="2.125 -70.896 69 69" overflow="visible">
	<g>
		<polygon fill="none" points="71.125,-1.896 2.125,-1.896 2.125,-70.896 71.125,-70.896 		"/>
		<polygon fill="#F8C05A" points="71.125,-1.896 2.125,-1.896 2.125,-70.896 71.125,-70.896 		"/>
		<g>
			<path fill="#FFFFFF" d="M61.772-71.653c0.018,0.072,0.007,0.127-0.026,0.19c-0.053,0.101-0.112,0.062-0.165,0.128
				c-0.05,0.062-0.099,0.276-0.079,0.362c-0.169,0.058-0.01,0.227-0.015,0.35c-0.002,0.05-0.041,0.105-0.045,0.161
				c-0.01,0.119,0.017,0.266,0.068,0.37c0.097,0.198,0.268,0.413,0.435,0.544c0.19,0.148,0.365,0.572,0.608,0.631
				c0.177,0.042,0.384-0.104,0.543-0.143c0.18-0.043,0.397,0.01,0.571-0.053c0.222-0.079,0.127-0.337,0.288-0.45
				c0.104-0.074,0.287-0.01,0.406-0.051c0.2-0.069,0.339-0.263,0.376-0.46c0.016-0.082,0.01-0.145,0.039-0.221
				c0.039-0.103,0.111-0.16,0.09-0.293c-0.01-0.062-0.052-0.12-0.064-0.187c-0.022-0.114,0.002-0.224,0-0.337
				c-0.003-0.2,0.017-0.379-0.078-0.55c-0.38-0.688-1.236-0.929-1.975-0.789c-0.18,0.034-0.287,0.126-0.442,0.207
				c-0.17,0.088-0.139,0.166-0.318,0.224c-0.081,0.026-0.216,0.124-0.215,0.224c0.001,0.115,0.005,0.051,0.012,0.169
				c-0.021,0.011-0.021-0.005-0.03-0.025"/>
			<path fill="#FFFFFF" d="M54.105-71.653c0.018,0.072,0.007,0.127-0.026,0.19c-0.053,0.101-0.112,0.062-0.165,0.128
				c-0.05,0.062-0.099,0.276-0.079,0.362c-0.169,0.058-0.01,0.227-0.015,0.35c-0.002,0.05-0.041,0.105-0.045,0.161
				c-0.01,0.119,0.017,0.266,0.068,0.37c0.097,0.198,0.268,0.413,0.435,0.544c0.19,0.148,0.365,0.572,0.608,0.631
				c0.177,0.042,0.384-0.104,0.543-0.143c0.18-0.043,0.397,0.01,0.571-0.053c0.222-0.079,0.127-0.337,0.288-0.45
				c0.104-0.074,0.287-0.01,0.406-0.051c0.2-0.069,0.339-0.263,0.376-0.46c0.016-0.082,0.01-0.145,0.039-0.221
				c0.039-0.103,0.111-0.16,0.09-0.293c-0.01-0.062-0.052-0.12-0.064-0.187c-0.022-0.114,0.002-0.224,0-0.337
				c-0.003-0.2,0.017-0.379-0.078-0.55c-0.38-0.688-1.236-0.929-1.975-0.789c-0.18,0.034-0.287,0.126-0.442,0.207
				c-0.17,0.088-0.139,0.166-0.318,0.224c-0.081,0.026-0.216,0.124-0.215,0.224c0.001,0.115,0.005,0.051,0.012,0.169
				c-0.021,0.011-0.021-0.005-0.03-0.025"/>
			<path fill="#FFFFFF" d="M46.439-71.653c0.018,0.072,0.007,0.127-0.026,0.19c-0.053,0.101-0.112,0.062-0.165,0.128
				c-0.05,0.062-0.099,0.276-0.079,0.362c-0.169,0.058-0.01,0.227-0.015,0.35c-0.002,0.05-0.041,0.105-0.045,0.161
				c-0.01,0.119,0.017,0.266,0.068,0.37c0.097,0.198,0.268,0.413,0.435,0.544c0.19,0.148,0.365,0.572,0.608,0.631
				c0.177,0.042,0.384-0.104,0.543-0.143c0.18-0.043,0.397,0.01,0.571-0.053c0.222-0.079,0.127-0.337,0.288-0.45
				c0.104-0.074,0.287-0.01,0.406-0.051c0.2-0.069,0.339-0.263,0.376-0.46c0.016-0.082,0.01-0.145,0.039-0.221
				c0.039-0.103,0.111-0.16,0.09-0.293c-0.01-0.062-0.052-0.12-0.064-0.187c-0.022-0.114,0.002-0.224,0-0.337
				c-0.003-0.2,0.017-0.379-0.078-0.55c-0.38-0.688-1.236-0.929-1.975-0.789c-0.18,0.034-0.287,0.126-0.442,0.207
				c-0.17,0.088-0.139,0.166-0.318,0.224c-0.081,0.026-0.216,0.124-0.215,0.224c0.001,0.115,0.005,0.051,0.012,0.169
				c-0.021,0.011-0.021-0.005-0.03-0.025"/>
			<path fill="#FFFFFF" d="M38.772-71.653c0.018,0.072,0.007,0.127-0.026,0.19c-0.053,0.101-0.112,0.062-0.165,0.128
				c-0.05,0.062-0.099,0.276-0.079,0.362c-0.169,0.058-0.01,0.227-0.015,0.35c-0.002,0.05-0.041,0.105-0.045,0.161
				c-0.01,0.119,0.017,0.266,0.068,0.37c0.097,0.198,0.268,0.413,0.435,0.544c0.19,0.148,0.365,0.572,0.608,0.631
				c0.177,0.042,0.384-0.104,0.543-0.143c0.18-0.043,0.397,0.01,0.571-0.053c0.222-0.079,0.127-0.337,0.288-0.45
				c0.104-0.074,0.287-0.01,0.406-0.051c0.2-0.069,0.339-0.263,0.376-0.46c0.016-0.082,0.01-0.145,0.039-0.221
				c0.039-0.103,0.111-0.16,0.09-0.293c-0.01-0.062-0.052-0.12-0.064-0.187c-0.022-0.114,0.002-0.224,0-0.337
				c-0.003-0.2,0.017-0.379-0.078-0.55c-0.38-0.688-1.236-0.929-1.975-0.789c-0.18,0.034-0.287,0.126-0.442,0.207
				c-0.17,0.088-0.139,0.166-0.318,0.224c-0.081,0.026-0.216,0.124-0.215,0.224c0.001,0.115,0.005,0.051,0.012,0.169
				c-0.021,0.011-0.021-0.005-0.03-0.025"/>
			<path fill="#FFFFFF" d="M31.105-71.653c0.018,0.072,0.007,0.127-0.026,0.19c-0.053,0.101-0.112,0.062-0.165,0.128
				c-0.05,0.062-0.099,0.276-0.079,0.362c-0.169,0.058-0.01,0.227-0.015,0.35c-0.002,0.05-0.041,0.105-0.045,0.161
				c-0.01,0.119,0.017,0.266,0.068,0.37c0.097,0.198,0.268,0.413,0.435,0.544c0.19,0.148,0.365,0.572,0.608,0.631
				c0.177,0.042,0.384-0.104,0.543-0.143c0.18-0.043,0.397,0.01,0.571-0.053c0.222-0.079,0.127-0.337,0.288-0.45
				c0.104-0.074,0.287-0.01,0.406-0.051c0.2-0.069,0.339-0.263,0.376-0.46c0.016-0.082,0.01-0.145,0.039-0.221
				c0.039-0.103,0.111-0.16,0.09-0.293c-0.01-0.062-0.052-0.12-0.064-0.187c-0.022-0.114,0.002-0.224,0-0.337
				c-0.003-0.2,0.017-0.379-0.078-0.55c-0.38-0.688-1.236-0.929-1.975-0.789c-0.18,0.034-0.287,0.126-0.442,0.207
				c-0.17,0.088-0.139,0.166-0.318,0.224c-0.081,0.026-0.216,0.124-0.215,0.224c0.001,0.115,0.005,0.051,0.012,0.169
				c-0.021,0.011-0.021-0.005-0.03-0.025"/>
			<path fill="#FFFFFF" d="M23.439-71.653c0.018,0.072,0.007,0.127-0.026,0.19c-0.053,0.101-0.112,0.062-0.165,0.128
				c-0.05,0.062-0.099,0.276-0.079,0.362c-0.169,0.058-0.01,0.227-0.015,0.35c-0.002,0.05-0.041,0.105-0.045,0.161
				c-0.01,0.119,0.017,0.266,0.068,0.37c0.097,0.198,0.268,0.413,0.435,0.544c0.19,0.148,0.365,0.572,0.608,0.631
				c0.177,0.042,0.384-0.104,0.543-0.143c0.18-0.043,0.397,0.01,0.571-0.053c0.222-0.079,0.127-0.337,0.288-0.45
				c0.104-0.074,0.287-0.01,0.406-0.051c0.2-0.069,0.339-0.263,0.376-0.46c0.016-0.082,0.01-0.145,0.039-0.221
				c0.039-0.103,0.111-0.16,0.09-0.293c-0.01-0.062-0.052-0.12-0.064-0.187c-0.022-0.114,0.002-0.224,0-0.337
				c-0.003-0.2,0.017-0.379-0.078-0.55c-0.38-0.688-1.236-0.929-1.975-0.789c-0.18,0.034-0.287,0.126-0.442,0.207
				c-0.17,0.088-0.139,0.166-0.318,0.224c-0.081,0.026-0.216,0.124-0.215,0.224c0.001,0.115,0.005,0.051,0.012,0.169
				c-0.021,0.011-0.021-0.005-0.03-0.025"/>
			<path fill="#FFFFFF" d="M15.772-71.653c0.018,0.072,0.007,0.127-0.026,0.19c-0.053,0.101-0.112,0.062-0.165,0.128
				c-0.05,0.062-0.099,0.276-0.079,0.362c-0.169,0.058-0.01,0.227-0.015,0.35c-0.002,0.05-0.041,0.105-0.045,0.161
				c-0.01,0.119,0.017,0.266,0.068,0.37c0.097,0.198,0.268,0.413,0.435,0.544c0.19,0.148,0.365,0.572,0.608,0.631
				c0.177,0.042,0.384-0.104,0.543-0.143c0.18-0.043,0.397,0.01,0.571-0.053c0.222-0.079,0.127-0.337,0.288-0.45
				c0.104-0.074,0.287-0.01,0.406-0.051c0.2-0.069,0.339-0.263,0.376-0.46c0.016-0.082,0.01-0.145,0.039-0.221
				c0.039-0.103,0.111-0.16,0.09-0.293c-0.01-0.062-0.052-0.12-0.064-0.187c-0.022-0.114,0.002-0.224,0-0.337
				c-0.003-0.2,0.017-0.379-0.078-0.55c-0.38-0.688-1.236-0.929-1.975-0.789c-0.18,0.034-0.287,0.126-0.442,0.207
				c-0.17,0.088-0.139,0.166-0.318,0.224c-0.081,0.026-0.216,0.124-0.215,0.224c0.001,0.115,0.005,0.051,0.012,0.169
				c-0.021,0.011-0.021-0.005-0.03-0.025"/>
			<path fill="#FFFFFF" d="M8.105-71.653c0.018,0.072,0.007,0.127-0.026,0.19c-0.053,0.101-0.112,0.062-0.165,0.128
				c-0.05,0.062-0.099,0.276-0.079,0.362c-0.169,0.058-0.01,0.227-0.015,0.35c-0.002,0.05-0.041,0.105-0.045,0.161
				c-0.01,0.119,0.017,0.266,0.068,0.37c0.097,0.198,0.268,0.413,0.435,0.544c0.19,0.148,0.365,0.572,0.608,0.631
				c0.177,0.042,0.384-0.104,0.543-0.143c0.18-0.043,0.397,0.01,0.571-0.053c0.222-0.079,0.127-0.337,0.288-0.45
				c0.104-0.074,0.287-0.01,0.406-0.051c0.2-0.069,0.339-0.263,0.376-0.46c0.016-0.082,0.01-0.145,0.039-0.221
				c0.039-0.103,0.111-0.16,0.09-0.293c-0.01-0.062-0.052-0.12-0.064-0.187c-0.022-0.114,0.002-0.224,0-0.337
				c-0.003-0.2,0.017-0.379-0.078-0.55c-0.38-0.688-1.236-0.929-1.975-0.789c-0.18,0.034-0.287,0.126-0.442,0.207
				c-0.17,0.088-0.139,0.166-0.318,0.224c-0.081,0.026-0.216,0.124-0.215,0.224c0.001,0.115,0.005,0.051,0.012,0.169
				c-0.021,0.011-0.021-0.005-0.03-0.025"/>
			<path fill="#FFFFFF" d="M0.439-71.653c0.018,0.072,0.008,0.127-0.026,0.19C0.361-71.362,0.3-71.4,0.248-71.335
				c-0.051,0.062-0.099,0.276-0.079,0.362c-0.169,0.058-0.01,0.227-0.015,0.35c-0.002,0.05-0.041,0.105-0.045,0.161
				c-0.01,0.119,0.017,0.266,0.068,0.37c0.097,0.198,0.268,0.413,0.435,0.544c0.19,0.148,0.365,0.572,0.608,0.631
				c0.177,0.042,0.384-0.104,0.543-0.143c0.18-0.043,0.397,0.01,0.571-0.053c0.222-0.079,0.127-0.337,0.288-0.45
				c0.104-0.074,0.287-0.01,0.406-0.051c0.2-0.07,0.339-0.263,0.376-0.46c0.016-0.082,0.01-0.145,0.039-0.221
				c0.038-0.103,0.111-0.16,0.09-0.293c-0.01-0.062-0.051-0.12-0.064-0.187c-0.021-0.114,0.002-0.224,0-0.337
				c-0.003-0.2,0.017-0.379-0.078-0.55c-0.38-0.688-1.236-0.929-1.975-0.789c-0.18,0.034-0.287,0.126-0.442,0.207
				c-0.17,0.088-0.139,0.166-0.318,0.224c-0.081,0.026-0.215,0.124-0.215,0.224c0.002,0.115,0.005,0.051,0.012,0.169
				c-0.021,0.011-0.021-0.005-0.03-0.025"/>
		</g>
		<g>
			<path fill="#FFFFFF" d="M69.439-71.653c0.018,0.072,0.008,0.127-0.026,0.19c-0.052,0.101-0.113,0.062-0.165,0.128
				c-0.051,0.062-0.099,0.276-0.079,0.362c-0.169,0.058-0.01,0.227-0.015,0.35c-0.002,0.05-0.041,0.105-0.045,0.161
				c-0.01,0.119,0.017,0.266,0.068,0.37c0.097,0.198,0.268,0.413,0.435,0.544c0.19,0.148,0.365,0.572,0.608,0.631
				c0.177,0.042,0.384-0.104,0.543-0.143c0.18-0.043,0.397,0.01,0.571-0.053c0.222-0.079,0.127-0.337,0.288-0.45
				c0.104-0.074,0.287-0.01,0.406-0.051c0.2-0.07,0.339-0.263,0.376-0.46c0.016-0.082,0.01-0.145,0.039-0.221
				c0.038-0.103,0.111-0.16,0.09-0.293c-0.01-0.062-0.051-0.12-0.064-0.187c-0.021-0.114,0.002-0.224,0-0.337
				c-0.003-0.2,0.017-0.379-0.078-0.55c-0.38-0.688-1.236-0.929-1.975-0.789c-0.18,0.034-0.287,0.126-0.442,0.207
				c-0.17,0.088-0.139,0.166-0.318,0.224c-0.081,0.026-0.215,0.124-0.215,0.224c0.002,0.115,0.005,0.051,0.012,0.169
				c-0.021,0.011-0.021-0.005-0.03-0.025"/>
		</g>
		<path fill="#FFFFFF" d="M0.495-71.653c0.018,0.072,0.008,0.127-0.026,0.19c-0.052,0.101-0.113,0.062-0.165,0.128
			c-0.051,0.062-0.099,0.276-0.079,0.362c-0.169,0.058-0.01,0.227-0.015,0.35c-0.002,0.05-0.041,0.105-0.045,0.161
			c-0.01,0.119,0.017,0.266,0.068,0.37c0.097,0.198,0.268,0.413,0.435,0.544c0.19,0.148,0.365,0.572,0.608,0.631
			c0.177,0.042,0.384-0.104,0.543-0.143c0.18-0.043,0.397,0.01,0.571-0.053c0.222-0.079,0.127-0.337,0.288-0.45
			c0.104-0.074,0.287-0.01,0.406-0.051c0.2-0.07,0.339-0.263,0.376-0.46c0.016-0.082,0.01-0.145,0.039-0.221
			c0.038-0.103,0.111-0.16,0.09-0.293c-0.01-0.062-0.051-0.12-0.064-0.187c-0.021-0.114,0.002-0.224,0-0.337
			c-0.003-0.2,0.017-0.379-0.078-0.55c-0.38-0.688-1.236-0.929-1.975-0.789c-0.18,0.034-0.287,0.126-0.442,0.207
			c-0.17,0.088-0.139,0.166-0.318,0.224c-0.081,0.026-0.215,0.124-0.215,0.224C0.5-71.68,0.503-71.744,0.51-71.626
			c-0.021,0.011-0.021-0.005-0.03-0.025"/>
		<g>
			<g>
				<path fill="#FFFFFF" d="M69.439-64.001c0.018,0.072,0.007,0.127-0.026,0.19c-0.053,0.101-0.112,0.062-0.165,0.128
					c-0.05,0.062-0.099,0.276-0.079,0.362c-0.169,0.058-0.01,0.227-0.015,0.35c-0.002,0.05-0.041,0.105-0.045,0.161
					c-0.01,0.119,0.017,0.266,0.068,0.37c0.097,0.198,0.268,0.413,0.435,0.544c0.19,0.148,0.365,0.572,0.608,0.631
					c0.177,0.042,0.384-0.104,0.543-0.143c0.18-0.043,0.397,0.01,0.571-0.053c0.222-0.079,0.127-0.337,0.288-0.45
					c0.104-0.074,0.287-0.01,0.406-0.051c0.2-0.069,0.339-0.263,0.376-0.46c0.016-0.082,0.01-0.145,0.039-0.221
					c0.039-0.103,0.111-0.16,0.09-0.293c-0.01-0.062-0.052-0.12-0.064-0.187c-0.022-0.114,0.002-0.224,0-0.337
					c-0.003-0.2,0.017-0.379-0.078-0.55c-0.38-0.688-1.236-0.929-1.975-0.789c-0.18,0.034-0.287,0.126-0.442,0.207
					c-0.17,0.088-0.139,0.166-0.318,0.224c-0.081,0.026-0.216,0.124-0.215,0.224c0.001,0.115,0.005,0.051,0.012,0.169
					c-0.021,0.011-0.021-0.005-0.03-0.025"/>
				<path fill="#FFFFFF" d="M61.778-64.001c0.018,0.072,0.007,0.127-0.026,0.19c-0.053,0.101-0.112,0.062-0.165,0.128
					c-0.05,0.062-0.099,0.276-0.079,0.362c-0.169,0.058-0.009,0.227-0.015,0.35c-0.002,0.05-0.041,0.105-0.045,0.161
					c-0.01,0.119,0.017,0.266,0.068,0.37c0.097,0.198,0.268,0.413,0.435,0.544c0.19,0.148,0.365,0.572,0.608,0.631
					c0.177,0.042,0.384-0.104,0.543-0.143c0.18-0.043,0.397,0.01,0.571-0.053c0.222-0.079,0.127-0.337,0.288-0.45
					c0.104-0.074,0.287-0.01,0.406-0.051c0.2-0.069,0.339-0.263,0.376-0.46c0.016-0.082,0.01-0.145,0.039-0.221
					c0.039-0.103,0.111-0.16,0.09-0.293c-0.01-0.062-0.052-0.12-0.064-0.187c-0.022-0.114,0.002-0.224,0-0.337
					c-0.003-0.2,0.017-0.379-0.078-0.55c-0.38-0.688-1.236-0.929-1.975-0.789c-0.18,0.034-0.287,0.126-0.442,0.207
					c-0.17,0.088-0.139,0.166-0.318,0.224c-0.081,0.026-0.216,0.124-0.215,0.224c0.001,0.115,0.005,0.051,0.012,0.169
					c-0.021,0.011-0.021-0.005-0.03-0.025"/>
				<path fill="#FFFFFF" d="M54.118-64.001c0.018,0.072,0.007,0.127-0.026,0.19c-0.053,0.101-0.112,0.062-0.165,0.128
					c-0.05,0.062-0.099,0.276-0.079,0.362c-0.169,0.058-0.009,0.227-0.015,0.35c-0.002,0.05-0.041,0.105-0.045,0.161
					c-0.01,0.119,0.017,0.266,0.068,0.37c0.097,0.198,0.268,0.413,0.435,0.544c0.19,0.148,0.365,0.572,0.608,0.631
					c0.177,0.042,0.384-0.104,0.543-0.143c0.18-0.043,0.397,0.01,0.571-0.053c0.222-0.079,0.127-0.337,0.288-0.45
					c0.104-0.074,0.287-0.01,0.406-0.051c0.2-0.069,0.339-0.263,0.376-0.46c0.016-0.082,0.01-0.145,0.039-0.221
					c0.039-0.103,0.111-0.16,0.09-0.293c-0.01-0.062-0.052-0.12-0.064-0.187c-0.022-0.114,0.002-0.224,0-0.337
					c-0.003-0.2,0.017-0.379-0.078-0.55c-0.38-0.688-1.236-0.929-1.975-0.789c-0.18,0.034-0.287,0.126-0.442,0.207
					c-0.17,0.088-0.139,0.166-0.318,0.224c-0.081,0.026-0.216,0.124-0.215,0.224c0.001,0.115,0.005,0.051,0.012,0.169
					c-0.021,0.011-0.021-0.005-0.03-0.025"/>
				<path fill="#FFFFFF" d="M46.458-64.001c0.018,0.072,0.007,0.127-0.026,0.19c-0.053,0.101-0.112,0.062-0.165,0.128
					c-0.05,0.062-0.099,0.276-0.079,0.362c-0.169,0.058-0.009,0.227-0.015,0.35c-0.002,0.05-0.041,0.105-0.045,0.161
					c-0.01,0.119,0.017,0.266,0.068,0.37c0.097,0.198,0.268,0.413,0.435,0.544c0.19,0.148,0.365,0.572,0.608,0.631
					c0.177,0.042,0.384-0.104,0.543-0.143c0.18-0.043,0.397,0.01,0.571-0.053c0.222-0.079,0.127-0.337,0.288-0.45
					c0.104-0.074,0.287-0.01,0.406-0.051c0.2-0.069,0.339-0.263,0.376-0.46c0.016-0.082,0.01-0.145,0.039-0.221
					c0.039-0.103,0.111-0.16,0.09-0.293c-0.01-0.062-0.052-0.12-0.064-0.187c-0.022-0.114,0.002-0.224,0-0.337
					c-0.003-0.2,0.017-0.379-0.078-0.55c-0.38-0.688-1.236-0.929-1.975-0.789c-0.18,0.034-0.287,0.126-0.442,0.207
					c-0.17,0.088-0.139,0.166-0.318,0.224c-0.081,0.026-0.216,0.124-0.215,0.224c0.001,0.115,0.005,0.051,0.012,0.169
					c-0.021,0.011-0.021-0.005-0.03-0.025"/>
				<path fill="#FFFFFF" d="M38.797-64.001c0.018,0.072,0.007,0.127-0.026,0.19c-0.053,0.101-0.112,0.062-0.165,0.128
					c-0.05,0.062-0.099,0.276-0.079,0.362c-0.169,0.058-0.009,0.227-0.015,0.35c-0.002,0.05-0.041,0.105-0.045,0.161
					c-0.01,0.119,0.017,0.266,0.068,0.37c0.097,0.198,0.268,0.413,0.435,0.544c0.19,0.148,0.365,0.572,0.608,0.631
					c0.177,0.042,0.384-0.104,0.543-0.143c0.18-0.043,0.397,0.01,0.571-0.053c0.222-0.079,0.127-0.337,0.288-0.45
					c0.104-0.074,0.287-0.01,0.406-0.051c0.2-0.069,0.339-0.263,0.376-0.46c0.016-0.082,0.01-0.145,0.039-0.221
					c0.039-0.103,0.111-0.16,0.09-0.293c-0.01-0.062-0.052-0.12-0.064-0.187c-0.022-0.114,0.002-0.224,0-0.337
					c-0.003-0.2,0.017-0.379-0.078-0.55c-0.38-0.688-1.236-0.929-1.975-0.789c-0.18,0.034-0.287,0.126-0.442,0.207
					c-0.17,0.088-0.139,0.166-0.318,0.224c-0.081,0.026-0.216,0.124-0.215,0.224c0.001,0.115,0.005,0.051,0.012,0.169
					c-0.021,0.011-0.021-0.005-0.03-0.025"/>
				<path fill="#FFFFFF" d="M31.137-64.001c0.018,0.072,0.007,0.127-0.026,0.19c-0.053,0.101-0.112,0.062-0.165,0.128
					c-0.05,0.062-0.099,0.276-0.079,0.362c-0.169,0.058-0.009,0.227-0.015,0.35c-0.002,0.05-0.041,0.105-0.045,0.161
					c-0.01,0.119,0.017,0.266,0.068,0.37c0.097,0.198,0.268,0.413,0.435,0.544c0.19,0.148,0.365,0.572,0.608,0.631
					c0.177,0.042,0.384-0.104,0.543-0.143c0.18-0.043,0.397,0.01,0.571-0.053c0.222-0.079,0.127-0.337,0.288-0.45
					c0.104-0.074,0.287-0.01,0.406-0.051c0.2-0.069,0.339-0.263,0.376-0.46c0.016-0.082,0.01-0.145,0.039-0.221
					c0.039-0.103,0.111-0.16,0.09-0.293c-0.01-0.062-0.052-0.12-0.064-0.187c-0.022-0.114,0.002-0.224,0-0.337
					c-0.003-0.2,0.017-0.379-0.078-0.55c-0.38-0.688-1.236-0.929-1.975-0.789c-0.18,0.034-0.287,0.126-0.442,0.207
					c-0.17,0.088-0.139,0.166-0.318,0.224c-0.081,0.026-0.216,0.124-0.215,0.224c0.001,0.115,0.005,0.051,0.012,0.169
					c-0.021,0.011-0.021-0.005-0.03-0.025"/>
				<path fill="#FFFFFF" d="M23.477-64.001c0.018,0.072,0.007,0.127-0.026,0.19c-0.053,0.101-0.112,0.062-0.165,0.128
					c-0.05,0.062-0.099,0.276-0.079,0.362c-0.169,0.058-0.009,0.227-0.015,0.35c-0.002,0.05-0.041,0.105-0.045,0.161
					c-0.01,0.119,0.017,0.266,0.068,0.37c0.097,0.198,0.268,0.413,0.435,0.544c0.19,0.148,0.365,0.572,0.608,0.631
					c0.177,0.042,0.384-0.104,0.543-0.143c0.18-0.043,0.397,0.01,0.571-0.053c0.222-0.079,0.127-0.337,0.288-0.45
					c0.104-0.074,0.287-0.01,0.406-0.051c0.2-0.069,0.339-0.263,0.376-0.46c0.016-0.082,0.01-0.145,0.039-0.221
					c0.039-0.103,0.111-0.16,0.09-0.293c-0.01-0.062-0.052-0.12-0.064-0.187c-0.022-0.114,0.002-0.224,0-0.337
					c-0.003-0.2,0.017-0.379-0.078-0.55c-0.38-0.688-1.236-0.929-1.975-0.789c-0.18,0.034-0.287,0.126-0.442,0.207
					c-0.17,0.088-0.139,0.166-0.318,0.224c-0.081,0.026-0.216,0.124-0.215,0.224c0.001,0.115,0.005,0.051,0.012,0.169
					c-0.021,0.011-0.021-0.005-0.03-0.025"/>
				<path fill="#FFFFFF" d="M15.816-64.001c0.018,0.072,0.007,0.127-0.026,0.19c-0.053,0.101-0.112,0.062-0.165,0.128
					c-0.05,0.062-0.099,0.276-0.079,0.362c-0.169,0.058-0.009,0.227-0.015,0.35c-0.002,0.05-0.041,0.105-0.045,0.161
					c-0.01,0.119,0.017,0.266,0.068,0.37c0.097,0.198,0.268,0.413,0.435,0.544c0.19,0.148,0.365,0.572,0.608,0.631
					c0.177,0.042,0.384-0.104,0.543-0.143c0.18-0.043,0.397,0.01,0.571-0.053c0.222-0.079,0.127-0.337,0.288-0.45
					c0.104-0.074,0.287-0.01,0.406-0.051c0.2-0.069,0.339-0.263,0.376-0.46c0.016-0.082,0.01-0.145,0.039-0.221
					c0.039-0.103,0.111-0.16,0.09-0.293c-0.01-0.062-0.052-0.12-0.064-0.187c-0.022-0.114,0.002-0.224,0-0.337
					c-0.003-0.2,0.017-0.379-0.078-0.55c-0.38-0.688-1.236-0.929-1.975-0.789c-0.18,0.034-0.287,0.126-0.442,0.207
					c-0.17,0.088-0.139,0.166-0.318,0.224c-0.081,0.026-0.216,0.124-0.215,0.224c0.001,0.115,0.005,0.051,0.012,0.169
					c-0.021,0.011-0.021-0.005-0.03-0.025"/>
				<path fill="#FFFFFF" d="M8.156-64.001c0.018,0.072,0.007,0.127-0.026,0.19c-0.053,0.101-0.112,0.062-0.165,0.128
					c-0.05,0.062-0.099,0.276-0.079,0.362c-0.169,0.058-0.009,0.227-0.015,0.35c-0.002,0.05-0.041,0.105-0.045,0.161
					c-0.01,0.119,0.017,0.266,0.068,0.37c0.097,0.198,0.268,0.413,0.435,0.544c0.19,0.148,0.365,0.572,0.608,0.631
					c0.177,0.042,0.384-0.104,0.543-0.143c0.18-0.043,0.397,0.01,0.571-0.053c0.222-0.079,0.127-0.337,0.288-0.45
					c0.104-0.074,0.287-0.01,0.406-0.051c0.2-0.069,0.339-0.263,0.376-0.46c0.016-0.082,0.01-0.145,0.039-0.221
					c0.039-0.103,0.111-0.16,0.09-0.293c-0.01-0.062-0.052-0.12-0.064-0.187c-0.022-0.114,0.002-0.224,0-0.337
					c-0.003-0.2,0.017-0.379-0.078-0.55c-0.38-0.688-1.236-0.929-1.975-0.789c-0.18,0.034-0.287,0.126-0.442,0.207
					c-0.17,0.088-0.139,0.166-0.318,0.224c-0.081,0.026-0.216,0.124-0.215,0.224c0.001,0.115,0.005,0.051,0.012,0.169
					c-0.021,0.011-0.021-0.005-0.03-0.025"/>
				<path fill="#FFFFFF" d="M0.495-64.001c0.018,0.072,0.007,0.127-0.026,0.19c-0.053,0.101-0.112,0.062-0.165,0.128
					c-0.05,0.062-0.099,0.276-0.079,0.362c-0.169,0.058-0.01,0.227-0.015,0.35c-0.002,0.05-0.041,0.105-0.045,0.161
					c-0.01,0.119,0.017,0.266,0.068,0.37c0.097,0.198,0.268,0.413,0.435,0.544c0.19,0.148,0.365,0.572,0.608,0.631
					c0.177,0.042,0.384-0.104,0.543-0.143C2-61.45,2.217-61.397,2.391-61.46c0.222-0.079,0.127-0.337,0.288-0.45
					c0.104-0.074,0.287-0.01,0.406-0.051c0.2-0.069,0.339-0.263,0.376-0.46c0.016-0.082,0.01-0.145,0.039-0.221
					c0.039-0.103,0.111-0.16,0.09-0.293c-0.01-0.062-0.052-0.12-0.064-0.187c-0.022-0.114,0.002-0.224,0-0.337
					c-0.003-0.2,0.017-0.379-0.078-0.55c-0.38-0.688-1.236-0.929-1.975-0.789c-0.18,0.034-0.287,0.126-0.442,0.207
					c-0.17,0.088-0.139,0.166-0.318,0.224c-0.081,0.026-0.216,0.124-0.215,0.224c0.001,0.115,0.005,0.051,0.012,0.169
					c-0.021,0.011-0.021-0.005-0.03-0.025"/>
			</g>
			<g>
				<path fill="#FFFFFF" d="M69.439-56.348c0.018,0.072,0.007,0.127-0.026,0.19c-0.053,0.101-0.112,0.062-0.165,0.128
					c-0.05,0.062-0.099,0.276-0.079,0.362c-0.169,0.058-0.01,0.227-0.015,0.35c-0.002,0.05-0.041,0.105-0.045,0.161
					c-0.01,0.119,0.017,0.266,0.068,0.37c0.097,0.198,0.268,0.413,0.435,0.544c0.19,0.148,0.365,0.572,0.608,0.631
					c0.177,0.042,0.384-0.104,0.543-0.143c0.18-0.043,0.397,0.01,0.571-0.053c0.222-0.079,0.127-0.337,0.288-0.45
					c0.104-0.074,0.287-0.01,0.406-0.051c0.2-0.069,0.339-0.263,0.376-0.46c0.016-0.082,0.01-0.145,0.039-0.221
					c0.039-0.103,0.111-0.16,0.09-0.293c-0.01-0.062-0.052-0.12-0.064-0.187c-0.022-0.114,0.002-0.224,0-0.337
					c-0.003-0.2,0.017-0.379-0.078-0.55c-0.38-0.688-1.236-0.929-1.975-0.789c-0.18,0.034-0.287,0.126-0.442,0.207
					c-0.17,0.088-0.139,0.166-0.318,0.224c-0.081,0.026-0.216,0.124-0.215,0.224c0.001,0.115,0.005,0.051,0.012,0.169
					c-0.021,0.011-0.021-0.005-0.03-0.025"/>
				<path fill="#FFFFFF" d="M61.778-56.348c0.018,0.072,0.007,0.127-0.026,0.19c-0.053,0.101-0.112,0.062-0.165,0.128
					c-0.05,0.062-0.099,0.276-0.079,0.362c-0.169,0.058-0.009,0.227-0.015,0.35c-0.002,0.05-0.041,0.105-0.045,0.161
					c-0.01,0.119,0.017,0.266,0.068,0.37c0.097,0.198,0.268,0.413,0.435,0.544c0.19,0.148,0.365,0.572,0.608,0.631
					c0.177,0.042,0.384-0.104,0.543-0.143c0.18-0.043,0.397,0.01,0.571-0.053c0.222-0.079,0.127-0.337,0.288-0.45
					c0.104-0.074,0.287-0.01,0.406-0.051c0.2-0.069,0.339-0.263,0.376-0.46c0.016-0.082,0.01-0.145,0.039-0.221
					c0.039-0.103,0.111-0.16,0.09-0.293c-0.01-0.062-0.052-0.12-0.064-0.187c-0.022-0.114,0.002-0.224,0-0.337
					c-0.003-0.2,0.017-0.379-0.078-0.55c-0.38-0.688-1.236-0.929-1.975-0.789c-0.18,0.034-0.287,0.126-0.442,0.207
					c-0.17,0.088-0.139,0.166-0.318,0.224c-0.081,0.026-0.216,0.124-0.215,0.224c0.001,0.115,0.005,0.051,0.012,0.169
					c-0.021,0.011-0.021-0.005-0.03-0.025"/>
				<path fill="#FFFFFF" d="M54.118-56.348c0.018,0.072,0.007,0.127-0.026,0.19c-0.053,0.101-0.112,0.062-0.165,0.128
					c-0.05,0.062-0.099,0.276-0.079,0.362c-0.169,0.058-0.009,0.227-0.015,0.35c-0.002,0.05-0.041,0.105-0.045,0.161
					c-0.01,0.119,0.017,0.266,0.068,0.37c0.097,0.198,0.268,0.413,0.435,0.544c0.19,0.148,0.365,0.572,0.608,0.631
					c0.177,0.042,0.384-0.104,0.543-0.143c0.18-0.043,0.397,0.01,0.571-0.053c0.222-0.079,0.127-0.337,0.288-0.45
					c0.104-0.074,0.287-0.01,0.406-0.051c0.2-0.069,0.339-0.263,0.376-0.46c0.016-0.082,0.01-0.145,0.039-0.221
					c0.039-0.103,0.111-0.16,0.09-0.293c-0.01-0.062-0.052-0.12-0.064-0.187c-0.022-0.114,0.002-0.224,0-0.337
					c-0.003-0.2,0.017-0.379-0.078-0.55c-0.38-0.688-1.236-0.929-1.975-0.789c-0.18,0.034-0.287,0.126-0.442,0.207
					c-0.17,0.088-0.139,0.166-0.318,0.224c-0.081,0.026-0.216,0.124-0.215,0.224c0.001,0.115,0.005,0.051,0.012,0.169
					c-0.021,0.011-0.021-0.005-0.03-0.025"/>
				<path fill="#FFFFFF" d="M46.458-56.348c0.018,0.072,0.007,0.127-0.026,0.19c-0.053,0.101-0.112,0.062-0.165,0.128
					c-0.05,0.062-0.099,0.276-0.079,0.362c-0.169,0.058-0.009,0.227-0.015,0.35c-0.002,0.05-0.041,0.105-0.045,0.161
					c-0.01,0.119,0.017,0.266,0.068,0.37c0.097,0.198,0.268,0.413,0.435,0.544c0.19,0.148,0.365,0.572,0.608,0.631
					c0.177,0.042,0.384-0.104,0.543-0.143c0.18-0.043,0.397,0.01,0.571-0.053c0.222-0.079,0.127-0.337,0.288-0.45
					c0.104-0.074,0.287-0.01,0.406-0.051c0.2-0.069,0.339-0.263,0.376-0.46c0.016-0.082,0.01-0.145,0.039-0.221
					c0.039-0.103,0.111-0.16,0.09-0.293c-0.01-0.062-0.052-0.12-0.064-0.187c-0.022-0.114,0.002-0.224,0-0.337
					c-0.003-0.2,0.017-0.379-0.078-0.55c-0.38-0.688-1.236-0.929-1.975-0.789c-0.18,0.034-0.287,0.126-0.442,0.207
					c-0.17,0.088-0.139,0.166-0.318,0.224c-0.081,0.026-0.216,0.124-0.215,0.224c0.001,0.115,0.005,0.051,0.012,0.169
					c-0.021,0.011-0.021-0.005-0.03-0.025"/>
				<path fill="#FFFFFF" d="M38.797-56.348c0.018,0.072,0.007,0.127-0.026,0.19c-0.053,0.101-0.112,0.062-0.165,0.128
					c-0.05,0.062-0.099,0.276-0.079,0.362c-0.169,0.058-0.009,0.227-0.015,0.35c-0.002,0.05-0.041,0.105-0.045,0.161
					c-0.01,0.119,0.017,0.266,0.068,0.37c0.097,0.198,0.268,0.413,0.435,0.544c0.19,0.148,0.365,0.572,0.608,0.631
					c0.177,0.042,0.384-0.104,0.543-0.143c0.18-0.043,0.397,0.01,0.571-0.053c0.222-0.079,0.127-0.337,0.288-0.45
					c0.104-0.074,0.287-0.01,0.406-0.051c0.2-0.069,0.339-0.263,0.376-0.46c0.016-0.082,0.01-0.145,0.039-0.221
					c0.039-0.103,0.111-0.16,0.09-0.293c-0.01-0.062-0.052-0.12-0.064-0.187c-0.022-0.114,0.002-0.224,0-0.337
					c-0.003-0.2,0.017-0.379-0.078-0.55c-0.38-0.688-1.236-0.929-1.975-0.789c-0.18,0.034-0.287,0.126-0.442,0.207
					c-0.17,0.088-0.139,0.166-0.318,0.224c-0.081,0.026-0.216,0.124-0.215,0.224c0.001,0.115,0.005,0.051,0.012,0.169
					c-0.021,0.011-0.021-0.005-0.03-0.025"/>
				<path fill="#FFFFFF" d="M31.137-56.348c0.018,0.072,0.007,0.127-0.026,0.19c-0.053,0.101-0.112,0.062-0.165,0.128
					c-0.05,0.062-0.099,0.276-0.079,0.362c-0.169,0.058-0.009,0.227-0.015,0.35c-0.002,0.05-0.041,0.105-0.045,0.161
					c-0.01,0.119,0.017,0.266,0.068,0.37c0.097,0.198,0.268,0.413,0.435,0.544c0.19,0.148,0.365,0.572,0.608,0.631
					c0.177,0.042,0.384-0.104,0.543-0.143c0.18-0.043,0.397,0.01,0.571-0.053c0.222-0.079,0.127-0.337,0.288-0.45
					c0.104-0.074,0.287-0.01,0.406-0.051c0.2-0.069,0.339-0.263,0.376-0.46c0.016-0.082,0.01-0.145,0.039-0.221
					c0.039-0.103,0.111-0.16,0.09-0.293c-0.01-0.062-0.052-0.12-0.064-0.187c-0.022-0.114,0.002-0.224,0-0.337
					c-0.003-0.2,0.017-0.379-0.078-0.55c-0.38-0.688-1.236-0.929-1.975-0.789c-0.18,0.034-0.287,0.126-0.442,0.207
					c-0.17,0.088-0.139,0.166-0.318,0.224c-0.081,0.026-0.216,0.124-0.215,0.224c0.001,0.115,0.005,0.051,0.012,0.169
					c-0.021,0.011-0.021-0.005-0.03-0.025"/>
				<path fill="#FFFFFF" d="M23.477-56.348c0.018,0.072,0.007,0.127-0.026,0.19c-0.053,0.101-0.112,0.062-0.165,0.128
					c-0.05,0.062-0.099,0.276-0.079,0.362c-0.169,0.058-0.009,0.227-0.015,0.35c-0.002,0.05-0.041,0.105-0.045,0.161
					c-0.01,0.119,0.017,0.266,0.068,0.37c0.097,0.198,0.268,0.413,0.435,0.544c0.19,0.148,0.365,0.572,0.608,0.631
					c0.177,0.042,0.384-0.104,0.543-0.143c0.18-0.043,0.397,0.01,0.571-0.053c0.222-0.079,0.127-0.337,0.288-0.45
					c0.104-0.074,0.287-0.01,0.406-0.051c0.2-0.069,0.339-0.263,0.376-0.46c0.016-0.082,0.01-0.145,0.039-0.221
					c0.039-0.103,0.111-0.16,0.09-0.293c-0.01-0.062-0.052-0.12-0.064-0.187c-0.022-0.114,0.002-0.224,0-0.337
					c-0.003-0.2,0.017-0.379-0.078-0.55c-0.38-0.688-1.236-0.929-1.975-0.789c-0.18,0.034-0.287,0.126-0.442,0.207
					c-0.17,0.088-0.139,0.166-0.318,0.224c-0.081,0.026-0.216,0.124-0.215,0.224c0.001,0.115,0.005,0.051,0.012,0.169
					c-0.021,0.011-0.021-0.005-0.03-0.025"/>
				<path fill="#FFFFFF" d="M15.816-56.348c0.018,0.072,0.007,0.127-0.026,0.19c-0.053,0.101-0.112,0.062-0.165,0.128
					c-0.05,0.062-0.099,0.276-0.079,0.362c-0.169,0.058-0.009,0.227-0.015,0.35c-0.002,0.05-0.041,0.105-0.045,0.161
					c-0.01,0.119,0.017,0.266,0.068,0.37c0.097,0.198,0.268,0.413,0.435,0.544c0.19,0.148,0.365,0.572,0.608,0.631
					c0.177,0.042,0.384-0.104,0.543-0.143c0.18-0.043,0.397,0.01,0.571-0.053c0.222-0.079,0.127-0.337,0.288-0.45
					c0.104-0.074,0.287-0.01,0.406-0.051c0.2-0.069,0.339-0.263,0.376-0.46c0.016-0.082,0.01-0.145,0.039-0.221
					c0.039-0.103,0.111-0.16,0.09-0.293c-0.01-0.062-0.052-0.12-0.064-0.187c-0.022-0.114,0.002-0.224,0-0.337
					c-0.003-0.2,0.017-0.379-0.078-0.55c-0.38-0.688-1.236-0.929-1.975-0.789c-0.18,0.034-0.287,0.126-0.442,0.207
					c-0.17,0.088-0.139,0.166-0.318,0.224c-0.081,0.026-0.216,0.124-0.215,0.224c0.001,0.115,0.005,0.051,0.012,0.169
					c-0.021,0.011-0.021-0.005-0.03-0.025"/>
				<path fill="#FFFFFF" d="M8.156-56.348c0.018,0.072,0.007,0.127-0.026,0.19c-0.053,0.101-0.112,0.062-0.165,0.128
					c-0.05,0.062-0.099,0.276-0.079,0.362c-0.169,0.058-0.009,0.227-0.015,0.35c-0.002,0.05-0.041,0.105-0.045,0.161
					c-0.01,0.119,0.017,0.266,0.068,0.37c0.097,0.198,0.268,0.413,0.435,0.544c0.19,0.148,0.365,0.572,0.608,0.631
					c0.177,0.042,0.384-0.104,0.543-0.143c0.18-0.043,0.397,0.01,0.571-0.053c0.222-0.079,0.127-0.337,0.288-0.45
					c0.104-0.074,0.287-0.01,0.406-0.051c0.2-0.069,0.339-0.263,0.376-0.46c0.016-0.082,0.01-0.145,0.039-0.221
					c0.039-0.103,0.111-0.16,0.09-0.293c-0.01-0.062-0.052-0.12-0.064-0.187c-0.022-0.114,0.002-0.224,0-0.337
					c-0.003-0.2,0.017-0.379-0.078-0.55c-0.38-0.688-1.236-0.929-1.975-0.789c-0.18,0.034-0.287,0.126-0.442,0.207
					c-0.17,0.088-0.139,0.166-0.318,0.224c-0.081,0.026-0.216,0.124-0.215,0.224c0.001,0.115,0.005,0.051,0.012,0.169
					c-0.021,0.011-0.021-0.005-0.03-0.025"/>
				<path fill="#FFFFFF" d="M0.495-56.348c0.018,0.072,0.007,0.127-0.026,0.19c-0.053,0.101-0.112,0.062-0.165,0.128
					c-0.05,0.062-0.099,0.276-0.079,0.362c-0.169,0.058-0.01,0.227-0.015,0.35c-0.002,0.05-0.041,0.105-0.045,0.161
					c-0.01,0.119,0.017,0.266,0.068,0.37c0.097,0.198,0.268,0.413,0.435,0.544c0.19,0.148,0.365,0.572,0.608,0.631
					c0.177,0.042,0.384-0.104,0.543-0.143c0.18-0.043,0.397,0.01,0.571-0.053c0.222-0.079,0.127-0.337,0.288-0.45
					c0.104-0.074,0.287-0.01,0.406-0.051c0.2-0.069,0.339-0.263,0.376-0.46c0.016-0.082,0.01-0.145,0.039-0.221
					c0.039-0.103,0.111-0.16,0.09-0.293c-0.01-0.062-0.052-0.12-0.064-0.187c-0.022-0.114,0.002-0.224,0-0.337
					c-0.003-0.2,0.017-0.379-0.078-0.55c-0.38-0.688-1.236-0.929-1.975-0.789c-0.18,0.034-0.287,0.126-0.442,0.207
					c-0.17,0.088-0.139,0.166-0.318,0.224c-0.081,0.026-0.216,0.124-0.215,0.224C0.5-56.374,0.503-56.438,0.51-56.32
					c-0.021,0.011-0.021-0.005-0.03-0.025"/>
			</g>
			<g>
				<path fill="#FFFFFF" d="M69.439-48.695c0.018,0.072,0.007,0.127-0.026,0.19c-0.053,0.101-0.112,0.062-0.165,0.128
					c-0.05,0.062-0.099,0.276-0.079,0.362c-0.169,0.058-0.01,0.227-0.015,0.35c-0.002,0.05-0.041,0.105-0.045,0.161
					c-0.01,0.119,0.017,0.266,0.068,0.37c0.097,0.198,0.268,0.413,0.435,0.544c0.19,0.148,0.365,0.572,0.608,0.631
					c0.177,0.042,0.384-0.104,0.543-0.143c0.18-0.043,0.397,0.01,0.571-0.053c0.222-0.079,0.127-0.337,0.288-0.45
					c0.104-0.074,0.287-0.01,0.406-0.051c0.2-0.069,0.339-0.263,0.376-0.46c0.016-0.082,0.01-0.145,0.039-0.221
					c0.039-0.103,0.111-0.16,0.09-0.293c-0.01-0.062-0.052-0.12-0.064-0.187c-0.022-0.114,0.002-0.224,0-0.337
					c-0.003-0.2,0.017-0.379-0.078-0.55c-0.38-0.688-1.236-0.929-1.975-0.789c-0.18,0.034-0.287,0.126-0.442,0.207
					c-0.17,0.088-0.139,0.166-0.318,0.224c-0.081,0.026-0.216,0.124-0.215,0.224c0.001,0.115,0.005,0.051,0.012,0.169
					c-0.021,0.011-0.021-0.005-0.03-0.025"/>
				<path fill="#FFFFFF" d="M61.778-48.695c0.018,0.072,0.007,0.127-0.026,0.19c-0.053,0.101-0.112,0.062-0.165,0.128
					c-0.05,0.062-0.099,0.276-0.079,0.362c-0.169,0.058-0.009,0.227-0.015,0.35c-0.002,0.05-0.041,0.105-0.045,0.161
					c-0.01,0.119,0.017,0.266,0.068,0.37c0.097,0.198,0.268,0.413,0.435,0.544c0.19,0.148,0.365,0.572,0.608,0.631
					c0.177,0.042,0.384-0.104,0.543-0.143c0.18-0.043,0.397,0.01,0.571-0.053c0.222-0.079,0.127-0.337,0.288-0.45
					c0.104-0.074,0.287-0.01,0.406-0.051c0.2-0.069,0.339-0.263,0.376-0.46c0.016-0.082,0.01-0.145,0.039-0.221
					c0.039-0.103,0.111-0.16,0.09-0.293c-0.01-0.062-0.052-0.12-0.064-0.187c-0.022-0.114,0.002-0.224,0-0.337
					c-0.003-0.2,0.017-0.379-0.078-0.55c-0.38-0.688-1.236-0.929-1.975-0.789c-0.18,0.034-0.287,0.126-0.442,0.207
					c-0.17,0.088-0.139,0.166-0.318,0.224c-0.081,0.026-0.216,0.124-0.215,0.224c0.001,0.115,0.005,0.051,0.012,0.169
					c-0.021,0.011-0.021-0.005-0.03-0.025"/>
				<path fill="#FFFFFF" d="M54.118-48.695c0.018,0.072,0.007,0.127-0.026,0.19c-0.053,0.101-0.112,0.062-0.165,0.128
					c-0.05,0.062-0.099,0.276-0.079,0.362c-0.169,0.058-0.009,0.227-0.015,0.35c-0.002,0.05-0.041,0.105-0.045,0.161
					c-0.01,0.119,0.017,0.266,0.068,0.37c0.097,0.198,0.268,0.413,0.435,0.544c0.19,0.148,0.365,0.572,0.608,0.631
					c0.177,0.042,0.384-0.104,0.543-0.143c0.18-0.043,0.397,0.01,0.571-0.053c0.222-0.079,0.127-0.337,0.288-0.45
					c0.104-0.074,0.287-0.01,0.406-0.051c0.2-0.069,0.339-0.263,0.376-0.46c0.016-0.082,0.01-0.145,0.039-0.221
					c0.039-0.103,0.111-0.16,0.09-0.293c-0.01-0.062-0.052-0.12-0.064-0.187c-0.022-0.114,0.002-0.224,0-0.337
					c-0.003-0.2,0.017-0.379-0.078-0.55c-0.38-0.688-1.236-0.929-1.975-0.789c-0.18,0.034-0.287,0.126-0.442,0.207
					c-0.17,0.088-0.139,0.166-0.318,0.224c-0.081,0.026-0.216,0.124-0.215,0.224c0.001,0.115,0.005,0.051,0.012,0.169
					c-0.021,0.011-0.021-0.005-0.03-0.025"/>
				<path fill="#FFFFFF" d="M46.458-48.695c0.018,0.072,0.007,0.127-0.026,0.19c-0.053,0.101-0.112,0.062-0.165,0.128
					c-0.05,0.062-0.099,0.276-0.079,0.362c-0.169,0.058-0.009,0.227-0.015,0.35c-0.002,0.05-0.041,0.105-0.045,0.161
					c-0.01,0.119,0.017,0.266,0.068,0.37c0.097,0.198,0.268,0.413,0.435,0.544c0.19,0.148,0.365,0.572,0.608,0.631
					c0.177,0.042,0.384-0.104,0.543-0.143c0.18-0.043,0.397,0.01,0.571-0.053c0.222-0.079,0.127-0.337,0.288-0.45
					c0.104-0.074,0.287-0.01,0.406-0.051c0.2-0.069,0.339-0.263,0.376-0.46c0.016-0.082,0.01-0.145,0.039-0.221
					c0.039-0.103,0.111-0.16,0.09-0.293c-0.01-0.062-0.052-0.12-0.064-0.187c-0.022-0.114,0.002-0.224,0-0.337
					c-0.003-0.2,0.017-0.379-0.078-0.55c-0.38-0.688-1.236-0.929-1.975-0.789c-0.18,0.034-0.287,0.126-0.442,0.207
					c-0.17,0.088-0.139,0.166-0.318,0.224c-0.081,0.026-0.216,0.124-0.215,0.224c0.001,0.115,0.005,0.051,0.012,0.169
					c-0.021,0.011-0.021-0.005-0.03-0.025"/>
				<path fill="#FFFFFF" d="M38.797-48.695c0.018,0.072,0.007,0.127-0.026,0.19c-0.053,0.101-0.112,0.062-0.165,0.128
					c-0.05,0.062-0.099,0.276-0.079,0.362c-0.169,0.058-0.009,0.227-0.015,0.35c-0.002,0.05-0.041,0.105-0.045,0.161
					c-0.01,0.119,0.017,0.266,0.068,0.37c0.097,0.198,0.268,0.413,0.435,0.544c0.19,0.148,0.365,0.572,0.608,0.631
					c0.177,0.042,0.384-0.104,0.543-0.143c0.18-0.043,0.397,0.01,0.571-0.053c0.222-0.079,0.127-0.337,0.288-0.45
					c0.104-0.074,0.287-0.01,0.406-0.051c0.2-0.069,0.339-0.263,0.376-0.46c0.016-0.082,0.01-0.145,0.039-0.221
					c0.039-0.103,0.111-0.16,0.09-0.293c-0.01-0.062-0.052-0.12-0.064-0.187c-0.022-0.114,0.002-0.224,0-0.337
					c-0.003-0.2,0.017-0.379-0.078-0.55c-0.38-0.688-1.236-0.929-1.975-0.789c-0.18,0.034-0.287,0.126-0.442,0.207
					c-0.17,0.088-0.139,0.166-0.318,0.224c-0.081,0.026-0.216,0.124-0.215,0.224c0.001,0.115,0.005,0.051,0.012,0.169
					c-0.021,0.011-0.021-0.005-0.03-0.025"/>
				<path fill="#FFFFFF" d="M31.137-48.695c0.018,0.072,0.007,0.127-0.026,0.19c-0.053,0.101-0.112,0.062-0.165,0.128
					c-0.05,0.062-0.099,0.276-0.079,0.362c-0.169,0.058-0.009,0.227-0.015,0.35c-0.002,0.05-0.041,0.105-0.045,0.161
					c-0.01,0.119,0.017,0.266,0.068,0.37c0.097,0.198,0.268,0.413,0.435,0.544c0.19,0.148,0.365,0.572,0.608,0.631
					c0.177,0.042,0.384-0.104,0.543-0.143c0.18-0.043,0.397,0.01,0.571-0.053c0.222-0.079,0.127-0.337,0.288-0.45
					c0.104-0.074,0.287-0.01,0.406-0.051c0.2-0.069,0.339-0.263,0.376-0.46c0.016-0.082,0.01-0.145,0.039-0.221
					c0.039-0.103,0.111-0.16,0.09-0.293c-0.01-0.062-0.052-0.12-0.064-0.187c-0.022-0.114,0.002-0.224,0-0.337
					c-0.003-0.2,0.017-0.379-0.078-0.55c-0.38-0.688-1.236-0.929-1.975-0.789c-0.18,0.034-0.287,0.126-0.442,0.207
					c-0.17,0.088-0.139,0.166-0.318,0.224c-0.081,0.026-0.216,0.124-0.215,0.224c0.001,0.115,0.005,0.051,0.012,0.169
					c-0.021,0.011-0.021-0.005-0.03-0.025"/>
				<path fill="#FFFFFF" d="M23.477-48.695c0.018,0.072,0.007,0.127-0.026,0.19c-0.053,0.101-0.112,0.062-0.165,0.128
					c-0.05,0.062-0.099,0.276-0.079,0.362c-0.169,0.058-0.009,0.227-0.015,0.35c-0.002,0.05-0.041,0.105-0.045,0.161
					c-0.01,0.119,0.017,0.266,0.068,0.37c0.097,0.198,0.268,0.413,0.435,0.544c0.19,0.148,0.365,0.572,0.608,0.631
					c0.177,0.042,0.384-0.104,0.543-0.143c0.18-0.043,0.397,0.01,0.571-0.053c0.222-0.079,0.127-0.337,0.288-0.45
					c0.104-0.074,0.287-0.01,0.406-0.051c0.2-0.069,0.339-0.263,0.376-0.46c0.016-0.082,0.01-0.145,0.039-0.221
					c0.039-0.103,0.111-0.16,0.09-0.293c-0.01-0.062-0.052-0.12-0.064-0.187c-0.022-0.114,0.002-0.224,0-0.337
					c-0.003-0.2,0.017-0.379-0.078-0.55c-0.38-0.688-1.236-0.929-1.975-0.789c-0.18,0.034-0.287,0.126-0.442,0.207
					c-0.17,0.088-0.139,0.166-0.318,0.224c-0.081,0.026-0.216,0.124-0.215,0.224c0.001,0.115,0.005,0.051,0.012,0.169
					c-0.021,0.011-0.021-0.005-0.03-0.025"/>
				<path fill="#FFFFFF" d="M15.816-48.695c0.018,0.072,0.007,0.127-0.026,0.19c-0.053,0.101-0.112,0.062-0.165,0.128
					c-0.05,0.062-0.099,0.276-0.079,0.362c-0.169,0.058-0.009,0.227-0.015,0.35c-0.002,0.05-0.041,0.105-0.045,0.161
					c-0.01,0.119,0.017,0.266,0.068,0.37c0.097,0.198,0.268,0.413,0.435,0.544c0.19,0.148,0.365,0.572,0.608,0.631
					c0.177,0.042,0.384-0.104,0.543-0.143c0.18-0.043,0.397,0.01,0.571-0.053c0.222-0.079,0.127-0.337,0.288-0.45
					c0.104-0.074,0.287-0.01,0.406-0.051c0.2-0.069,0.339-0.263,0.376-0.46c0.016-0.082,0.01-0.145,0.039-0.221
					c0.039-0.103,0.111-0.16,0.09-0.293c-0.01-0.062-0.052-0.12-0.064-0.187c-0.022-0.114,0.002-0.224,0-0.337
					c-0.003-0.2,0.017-0.379-0.078-0.55c-0.38-0.688-1.236-0.929-1.975-0.789c-0.18,0.034-0.287,0.126-0.442,0.207
					c-0.17,0.088-0.139,0.166-0.318,0.224c-0.081,0.026-0.216,0.124-0.215,0.224c0.001,0.115,0.005,0.051,0.012,0.169
					c-0.021,0.011-0.021-0.005-0.03-0.025"/>
				<path fill="#FFFFFF" d="M8.156-48.695c0.018,0.072,0.007,0.127-0.026,0.19c-0.053,0.101-0.112,0.062-0.165,0.128
					c-0.05,0.062-0.099,0.276-0.079,0.362c-0.169,0.058-0.009,0.227-0.015,0.35c-0.002,0.05-0.041,0.105-0.045,0.161
					c-0.01,0.119,0.017,0.266,0.068,0.37c0.097,0.198,0.268,0.413,0.435,0.544c0.19,0.148,0.365,0.572,0.608,0.631
					c0.177,0.042,0.384-0.104,0.543-0.143c0.18-0.043,0.397,0.01,0.571-0.053c0.222-0.079,0.127-0.337,0.288-0.45
					c0.104-0.074,0.287-0.01,0.406-0.051c0.2-0.069,0.339-0.263,0.376-0.46c0.016-0.082,0.01-0.145,0.039-0.221
					c0.039-0.103,0.111-0.16,0.09-0.293c-0.01-0.062-0.052-0.12-0.064-0.187c-0.022-0.114,0.002-0.224,0-0.337
					c-0.003-0.2,0.017-0.379-0.078-0.55c-0.38-0.688-1.236-0.929-1.975-0.789c-0.18,0.034-0.287,0.126-0.442,0.207
					c-0.17,0.088-0.139,0.166-0.318,0.224c-0.081,0.026-0.216,0.124-0.215,0.224c0.001,0.115,0.005,0.051,0.012,0.169
					c-0.021,0.011-0.021-0.005-0.03-0.025"/>
				<path fill="#FFFFFF" d="M0.495-48.695c0.018,0.072,0.007,0.127-0.026,0.19c-0.053,0.101-0.112,0.062-0.165,0.128
					c-0.05,0.062-0.099,0.276-0.079,0.362c-0.169,0.058-0.01,0.227-0.015,0.35c-0.002,0.05-0.041,0.105-0.045,0.161
					c-0.01,0.119,0.017,0.266,0.068,0.37c0.097,0.198,0.268,0.413,0.435,0.544c0.19,0.148,0.365,0.572,0.608,0.631
					c0.177,0.042,0.384-0.104,0.543-0.143c0.18-0.043,0.397,0.01,0.571-0.053c0.222-0.079,0.127-0.337,0.288-0.45
					c0.104-0.074,0.287-0.01,0.406-0.051c0.2-0.069,0.339-0.263,0.376-0.46c0.016-0.082,0.01-0.145,0.039-0.221
					c0.039-0.103,0.111-0.16,0.09-0.293c-0.01-0.062-0.052-0.12-0.064-0.187c-0.022-0.114,0.002-0.224,0-0.337
					c-0.003-0.2,0.017-0.379-0.078-0.55c-0.38-0.688-1.236-0.929-1.975-0.789c-0.18,0.034-0.287,0.126-0.442,0.207
					c-0.17,0.088-0.139,0.166-0.318,0.224c-0.081,0.026-0.216,0.124-0.215,0.224c0.001,0.115,0.005,0.051,0.012,0.169
					c-0.021,0.011-0.021-0.005-0.03-0.025"/>
			</g>
			<g>
				<path fill="#FFFFFF" d="M69.439-41.042c0.018,0.072,0.007,0.127-0.026,0.19c-0.053,0.101-0.112,0.062-0.165,0.128
					c-0.05,0.062-0.099,0.276-0.079,0.362c-0.169,0.058-0.01,0.227-0.015,0.35c-0.002,0.05-0.041,0.105-0.045,0.161
					c-0.01,0.119,0.017,0.266,0.068,0.37c0.097,0.198,0.268,0.413,0.435,0.544c0.19,0.148,0.365,0.572,0.608,0.631
					c0.177,0.042,0.384-0.104,0.543-0.143c0.18-0.043,0.397,0.01,0.571-0.053c0.222-0.079,0.127-0.337,0.288-0.45
					c0.104-0.074,0.287-0.01,0.406-0.051c0.2-0.069,0.339-0.263,0.376-0.46c0.016-0.082,0.01-0.145,0.039-0.221
					c0.039-0.103,0.111-0.16,0.09-0.293c-0.01-0.062-0.052-0.12-0.064-0.187c-0.022-0.114,0.002-0.224,0-0.337
					c-0.003-0.2,0.017-0.379-0.078-0.55c-0.38-0.688-1.236-0.929-1.975-0.789c-0.18,0.034-0.287,0.126-0.442,0.207
					c-0.17,0.088-0.139,0.166-0.318,0.224c-0.081,0.026-0.216,0.124-0.215,0.224c0.001,0.115,0.005,0.051,0.012,0.169
					c-0.021,0.011-0.021-0.005-0.03-0.025"/>
				<path fill="#FFFFFF" d="M61.778-41.042c0.018,0.072,0.007,0.127-0.026,0.19c-0.053,0.101-0.112,0.062-0.165,0.128
					c-0.05,0.062-0.099,0.276-0.079,0.362c-0.169,0.058-0.009,0.227-0.015,0.35c-0.002,0.05-0.041,0.105-0.045,0.161
					c-0.01,0.119,0.017,0.266,0.068,0.37c0.097,0.198,0.268,0.413,0.435,0.544c0.19,0.148,0.365,0.572,0.608,0.631
					c0.177,0.042,0.384-0.104,0.543-0.143c0.18-0.043,0.397,0.01,0.571-0.053c0.222-0.079,0.127-0.337,0.288-0.45
					c0.104-0.074,0.287-0.01,0.406-0.051c0.2-0.069,0.339-0.263,0.376-0.46c0.016-0.082,0.01-0.145,0.039-0.221
					c0.039-0.103,0.111-0.16,0.09-0.293c-0.01-0.062-0.052-0.12-0.064-0.187c-0.022-0.114,0.002-0.224,0-0.337
					c-0.003-0.2,0.017-0.379-0.078-0.55c-0.38-0.688-1.236-0.929-1.975-0.789c-0.18,0.034-0.287,0.126-0.442,0.207
					c-0.17,0.088-0.139,0.166-0.318,0.224c-0.081,0.026-0.216,0.124-0.215,0.224c0.001,0.115,0.005,0.051,0.012,0.169
					c-0.021,0.011-0.021-0.005-0.03-0.025"/>
				<path fill="#FFFFFF" d="M54.118-41.042c0.018,0.072,0.007,0.127-0.026,0.19c-0.053,0.101-0.112,0.062-0.165,0.128
					c-0.05,0.062-0.099,0.276-0.079,0.362c-0.169,0.058-0.009,0.227-0.015,0.35c-0.002,0.05-0.041,0.105-0.045,0.161
					c-0.01,0.119,0.017,0.266,0.068,0.37c0.097,0.198,0.268,0.413,0.435,0.544c0.19,0.148,0.365,0.572,0.608,0.631
					c0.177,0.042,0.384-0.104,0.543-0.143c0.18-0.043,0.397,0.01,0.571-0.053c0.222-0.079,0.127-0.337,0.288-0.45
					c0.104-0.074,0.287-0.01,0.406-0.051c0.2-0.069,0.339-0.263,0.376-0.46c0.016-0.082,0.01-0.145,0.039-0.221
					c0.039-0.103,0.111-0.16,0.09-0.293c-0.01-0.062-0.052-0.12-0.064-0.187c-0.022-0.114,0.002-0.224,0-0.337
					c-0.003-0.2,0.017-0.379-0.078-0.55c-0.38-0.688-1.236-0.929-1.975-0.789c-0.18,0.034-0.287,0.126-0.442,0.207
					c-0.17,0.088-0.139,0.166-0.318,0.224c-0.081,0.026-0.216,0.124-0.215,0.224c0.001,0.115,0.005,0.051,0.012,0.169
					c-0.021,0.011-0.021-0.005-0.03-0.025"/>
				<path fill="#FFFFFF" d="M46.458-41.042c0.018,0.072,0.007,0.127-0.026,0.19c-0.053,0.101-0.112,0.062-0.165,0.128
					c-0.05,0.062-0.099,0.276-0.079,0.362c-0.169,0.058-0.009,0.227-0.015,0.35c-0.002,0.05-0.041,0.105-0.045,0.161
					c-0.01,0.119,0.017,0.266,0.068,0.37c0.097,0.198,0.268,0.413,0.435,0.544c0.19,0.148,0.365,0.572,0.608,0.631
					c0.177,0.042,0.384-0.104,0.543-0.143c0.18-0.043,0.397,0.01,0.571-0.053c0.222-0.079,0.127-0.337,0.288-0.45
					c0.104-0.074,0.287-0.01,0.406-0.051c0.2-0.069,0.339-0.263,0.376-0.46c0.016-0.082,0.01-0.145,0.039-0.221
					c0.039-0.103,0.111-0.16,0.09-0.293c-0.01-0.062-0.052-0.12-0.064-0.187c-0.022-0.114,0.002-0.224,0-0.337
					c-0.003-0.2,0.017-0.379-0.078-0.55c-0.38-0.688-1.236-0.929-1.975-0.789c-0.18,0.034-0.287,0.126-0.442,0.207
					c-0.17,0.088-0.139,0.166-0.318,0.224c-0.081,0.026-0.216,0.124-0.215,0.224c0.001,0.115,0.005,0.051,0.012,0.169
					c-0.021,0.011-0.021-0.005-0.03-0.025"/>
				<path fill="#FFFFFF" d="M38.797-41.042c0.018,0.072,0.007,0.127-0.026,0.19c-0.053,0.101-0.112,0.062-0.165,0.128
					c-0.05,0.062-0.099,0.276-0.079,0.362c-0.169,0.058-0.009,0.227-0.015,0.35c-0.002,0.05-0.041,0.105-0.045,0.161
					c-0.01,0.119,0.017,0.266,0.068,0.37c0.097,0.198,0.268,0.413,0.435,0.544c0.19,0.148,0.365,0.572,0.608,0.631
					c0.177,0.042,0.384-0.104,0.543-0.143c0.18-0.043,0.397,0.01,0.571-0.053c0.222-0.079,0.127-0.337,0.288-0.45
					c0.104-0.074,0.287-0.01,0.406-0.051c0.2-0.069,0.339-0.263,0.376-0.46c0.016-0.082,0.01-0.145,0.039-0.221
					c0.039-0.103,0.111-0.16,0.09-0.293c-0.01-0.062-0.052-0.12-0.064-0.187c-0.022-0.114,0.002-0.224,0-0.337
					c-0.003-0.2,0.017-0.379-0.078-0.55c-0.38-0.688-1.236-0.929-1.975-0.789c-0.18,0.034-0.287,0.126-0.442,0.207
					c-0.17,0.088-0.139,0.166-0.318,0.224c-0.081,0.026-0.216,0.124-0.215,0.224c0.001,0.115,0.005,0.051,0.012,0.169
					c-0.021,0.011-0.021-0.005-0.03-0.025"/>
				<path fill="#FFFFFF" d="M31.137-41.042c0.018,0.072,0.007,0.127-0.026,0.19c-0.053,0.101-0.112,0.062-0.165,0.128
					c-0.05,0.062-0.099,0.276-0.079,0.362c-0.169,0.058-0.009,0.227-0.015,0.35c-0.002,0.05-0.041,0.105-0.045,0.161
					c-0.01,0.119,0.017,0.266,0.068,0.37c0.097,0.198,0.268,0.413,0.435,0.544c0.19,0.148,0.365,0.572,0.608,0.631
					c0.177,0.042,0.384-0.104,0.543-0.143c0.18-0.043,0.397,0.01,0.571-0.053c0.222-0.079,0.127-0.337,0.288-0.45
					c0.104-0.074,0.287-0.01,0.406-0.051c0.2-0.069,0.339-0.263,0.376-0.46c0.016-0.082,0.01-0.145,0.039-0.221
					c0.039-0.103,0.111-0.16,0.09-0.293c-0.01-0.062-0.052-0.12-0.064-0.187c-0.022-0.114,0.002-0.224,0-0.337
					c-0.003-0.2,0.017-0.379-0.078-0.55c-0.38-0.688-1.236-0.929-1.975-0.789c-0.18,0.034-0.287,0.126-0.442,0.207
					c-0.17,0.088-0.139,0.166-0.318,0.224c-0.081,0.026-0.216,0.124-0.215,0.224c0.001,0.115,0.005,0.051,0.012,0.169
					c-0.021,0.011-0.021-0.005-0.03-0.025"/>
				<path fill="#FFFFFF" d="M23.477-41.042c0.018,0.072,0.007,0.127-0.026,0.19c-0.053,0.101-0.112,0.062-0.165,0.128
					c-0.05,0.062-0.099,0.276-0.079,0.362c-0.169,0.058-0.009,0.227-0.015,0.35c-0.002,0.05-0.041,0.105-0.045,0.161
					c-0.01,0.119,0.017,0.266,0.068,0.37c0.097,0.198,0.268,0.413,0.435,0.544c0.19,0.148,0.365,0.572,0.608,0.631
					c0.177,0.042,0.384-0.104,0.543-0.143c0.18-0.043,0.397,0.01,0.571-0.053c0.222-0.079,0.127-0.337,0.288-0.45
					c0.104-0.074,0.287-0.01,0.406-0.051c0.2-0.069,0.339-0.263,0.376-0.46c0.016-0.082,0.01-0.145,0.039-0.221
					c0.039-0.103,0.111-0.16,0.09-0.293c-0.01-0.062-0.052-0.12-0.064-0.187c-0.022-0.114,0.002-0.224,0-0.337
					c-0.003-0.2,0.017-0.379-0.078-0.55c-0.38-0.688-1.236-0.929-1.975-0.789c-0.18,0.034-0.287,0.126-0.442,0.207
					c-0.17,0.088-0.139,0.166-0.318,0.224c-0.081,0.026-0.216,0.124-0.215,0.224c0.001,0.115,0.005,0.051,0.012,0.169
					c-0.021,0.011-0.021-0.005-0.03-0.025"/>
				<path fill="#FFFFFF" d="M15.816-41.042c0.018,0.072,0.007,0.127-0.026,0.19c-0.053,0.101-0.112,0.062-0.165,0.128
					c-0.05,0.062-0.099,0.276-0.079,0.362c-0.169,0.058-0.009,0.227-0.015,0.35c-0.002,0.05-0.041,0.105-0.045,0.161
					c-0.01,0.119,0.017,0.266,0.068,0.37c0.097,0.198,0.268,0.413,0.435,0.544c0.19,0.148,0.365,0.572,0.608,0.631
					c0.177,0.042,0.384-0.104,0.543-0.143c0.18-0.043,0.397,0.01,0.571-0.053c0.222-0.079,0.127-0.337,0.288-0.45
					c0.104-0.074,0.287-0.01,0.406-0.051c0.2-0.069,0.339-0.263,0.376-0.46c0.016-0.082,0.01-0.145,0.039-0.221
					c0.039-0.103,0.111-0.16,0.09-0.293c-0.01-0.062-0.052-0.12-0.064-0.187c-0.022-0.114,0.002-0.224,0-0.337
					c-0.003-0.2,0.017-0.379-0.078-0.55c-0.38-0.688-1.236-0.929-1.975-0.789c-0.18,0.034-0.287,0.126-0.442,0.207
					c-0.17,0.088-0.139,0.166-0.318,0.224c-0.081,0.026-0.216,0.124-0.215,0.224c0.001,0.115,0.005,0.051,0.012,0.169
					c-0.021,0.011-0.021-0.005-0.03-0.025"/>
				<path fill="#FFFFFF" d="M8.156-41.042c0.018,0.072,0.007,0.127-0.026,0.19c-0.053,0.101-0.112,0.062-0.165,0.128
					c-0.05,0.062-0.099,0.276-0.079,0.362c-0.169,0.058-0.009,0.227-0.015,0.35c-0.002,0.05-0.041,0.105-0.045,0.161
					c-0.01,0.119,0.017,0.266,0.068,0.37c0.097,0.198,0.268,0.413,0.435,0.544c0.19,0.148,0.365,0.572,0.608,0.631
					c0.177,0.042,0.384-0.104,0.543-0.143c0.18-0.043,0.397,0.01,0.571-0.053c0.222-0.079,0.127-0.337,0.288-0.45
					c0.104-0.074,0.287-0.01,0.406-0.051c0.2-0.069,0.339-0.263,0.376-0.46c0.016-0.082,0.01-0.145,0.039-0.221
					c0.039-0.103,0.111-0.16,0.09-0.293c-0.01-0.062-0.052-0.12-0.064-0.187c-0.022-0.114,0.002-0.224,0-0.337
					c-0.003-0.2,0.017-0.379-0.078-0.55c-0.38-0.688-1.236-0.929-1.975-0.789c-0.18,0.034-0.287,0.126-0.442,0.207
					c-0.17,0.088-0.139,0.166-0.318,0.224c-0.081,0.026-0.216,0.124-0.215,0.224c0.001,0.115,0.005,0.051,0.012,0.169
					C8.15-41.004,8.149-41.02,8.14-41.04"/>
				<path fill="#FFFFFF" d="M0.495-41.042c0.018,0.072,0.007,0.127-0.026,0.19c-0.053,0.101-0.112,0.062-0.165,0.128
					c-0.05,0.062-0.099,0.276-0.079,0.362c-0.169,0.058-0.01,0.227-0.015,0.35c-0.002,0.05-0.041,0.105-0.045,0.161
					c-0.01,0.119,0.017,0.266,0.068,0.37c0.097,0.198,0.268,0.413,0.435,0.544c0.19,0.148,0.365,0.572,0.608,0.631
					c0.177,0.042,0.384-0.104,0.543-0.143c0.18-0.043,0.397,0.01,0.571-0.053c0.222-0.079,0.127-0.337,0.288-0.45
					c0.104-0.074,0.287-0.01,0.406-0.051c0.2-0.069,0.339-0.263,0.376-0.46c0.016-0.082,0.01-0.145,0.039-0.221
					c0.039-0.103,0.111-0.16,0.09-0.293c-0.01-0.062-0.052-0.12-0.064-0.187c-0.022-0.114,0.002-0.224,0-0.337
					c-0.003-0.2,0.017-0.379-0.078-0.55c-0.38-0.688-1.236-0.929-1.975-0.789c-0.18,0.034-0.287,0.126-0.442,0.207
					c-0.17,0.088-0.139,0.166-0.318,0.224c-0.081,0.026-0.216,0.124-0.215,0.224c0.001,0.115,0.005,0.051,0.012,0.169
					c-0.021,0.011-0.021-0.005-0.03-0.025"/>
			</g>
			<g>
				<path fill="#FFFFFF" d="M69.439-33.39c0.018,0.072,0.007,0.127-0.026,0.19c-0.053,0.101-0.112,0.062-0.165,0.128
					c-0.05,0.062-0.099,0.276-0.079,0.362c-0.169,0.058-0.01,0.227-0.015,0.35c-0.002,0.05-0.041,0.105-0.045,0.161
					c-0.01,0.119,0.017,0.266,0.068,0.37c0.097,0.198,0.268,0.413,0.435,0.544c0.19,0.148,0.365,0.572,0.608,0.631
					c0.177,0.042,0.384-0.104,0.543-0.143c0.18-0.043,0.397,0.01,0.571-0.053c0.222-0.079,0.127-0.337,0.288-0.45
					c0.104-0.074,0.287-0.01,0.406-0.051c0.2-0.069,0.339-0.263,0.376-0.46c0.016-0.082,0.01-0.145,0.039-0.221
					c0.039-0.103,0.111-0.16,0.09-0.293c-0.01-0.062-0.052-0.12-0.064-0.187c-0.022-0.114,0.002-0.224,0-0.337
					c-0.003-0.2,0.017-0.379-0.078-0.55c-0.38-0.688-1.236-0.929-1.975-0.789c-0.18,0.034-0.287,0.126-0.442,0.207
					c-0.17,0.088-0.139,0.166-0.318,0.224c-0.081,0.026-0.216,0.124-0.215,0.224c0.001,0.115,0.005,0.051,0.012,0.169
					c-0.021,0.011-0.021-0.005-0.03-0.025"/>
				<path fill="#FFFFFF" d="M61.778-33.39c0.018,0.072,0.007,0.127-0.026,0.19c-0.053,0.101-0.112,0.062-0.165,0.128
					c-0.05,0.062-0.099,0.276-0.079,0.362c-0.169,0.058-0.009,0.227-0.015,0.35c-0.002,0.05-0.041,0.105-0.045,0.161
					c-0.01,0.119,0.017,0.266,0.068,0.37c0.097,0.198,0.268,0.413,0.435,0.544c0.19,0.148,0.365,0.572,0.608,0.631
					c0.177,0.042,0.384-0.104,0.543-0.143c0.18-0.043,0.397,0.01,0.571-0.053c0.222-0.079,0.127-0.337,0.288-0.45
					c0.104-0.074,0.287-0.01,0.406-0.051c0.2-0.069,0.339-0.263,0.376-0.46c0.016-0.082,0.01-0.145,0.039-0.221
					c0.039-0.103,0.111-0.16,0.09-0.293c-0.01-0.062-0.052-0.12-0.064-0.187c-0.022-0.114,0.002-0.224,0-0.337
					c-0.003-0.2,0.017-0.379-0.078-0.55c-0.38-0.688-1.236-0.929-1.975-0.789c-0.18,0.034-0.287,0.126-0.442,0.207
					c-0.17,0.088-0.139,0.166-0.318,0.224c-0.081,0.026-0.216,0.124-0.215,0.224c0.001,0.115,0.005,0.051,0.012,0.169
					c-0.021,0.011-0.021-0.005-0.03-0.025"/>
				<path fill="#FFFFFF" d="M54.118-33.39c0.018,0.072,0.007,0.127-0.026,0.19c-0.053,0.101-0.112,0.062-0.165,0.128
					c-0.05,0.062-0.099,0.276-0.079,0.362c-0.169,0.058-0.009,0.227-0.015,0.35c-0.002,0.05-0.041,0.105-0.045,0.161
					c-0.01,0.119,0.017,0.266,0.068,0.37c0.097,0.198,0.268,0.413,0.435,0.544c0.19,0.148,0.365,0.572,0.608,0.631
					c0.177,0.042,0.384-0.104,0.543-0.143c0.18-0.043,0.397,0.01,0.571-0.053c0.222-0.079,0.127-0.337,0.288-0.45
					c0.104-0.074,0.287-0.01,0.406-0.051c0.2-0.069,0.339-0.263,0.376-0.46c0.016-0.082,0.01-0.145,0.039-0.221
					c0.039-0.103,0.111-0.16,0.09-0.293c-0.01-0.062-0.052-0.12-0.064-0.187c-0.022-0.114,0.002-0.224,0-0.337
					c-0.003-0.2,0.017-0.379-0.078-0.55c-0.38-0.688-1.236-0.929-1.975-0.789c-0.18,0.034-0.287,0.126-0.442,0.207
					c-0.17,0.088-0.139,0.166-0.318,0.224c-0.081,0.026-0.216,0.124-0.215,0.224c0.001,0.115,0.005,0.051,0.012,0.169
					c-0.021,0.011-0.021-0.005-0.03-0.025"/>
				<path fill="#FFFFFF" d="M46.458-33.39c0.018,0.072,0.007,0.127-0.026,0.19c-0.053,0.101-0.112,0.062-0.165,0.128
					c-0.05,0.062-0.099,0.276-0.079,0.362c-0.169,0.058-0.009,0.227-0.015,0.35c-0.002,0.05-0.041,0.105-0.045,0.161
					c-0.01,0.119,0.017,0.266,0.068,0.37c0.097,0.198,0.268,0.413,0.435,0.544c0.19,0.148,0.365,0.572,0.608,0.631
					c0.177,0.042,0.384-0.104,0.543-0.143c0.18-0.043,0.397,0.01,0.571-0.053c0.222-0.079,0.127-0.337,0.288-0.45
					c0.104-0.074,0.287-0.01,0.406-0.051c0.2-0.069,0.339-0.263,0.376-0.46c0.016-0.082,0.01-0.145,0.039-0.221
					c0.039-0.103,0.111-0.16,0.09-0.293c-0.01-0.062-0.052-0.12-0.064-0.187c-0.022-0.114,0.002-0.224,0-0.337
					c-0.003-0.2,0.017-0.379-0.078-0.55c-0.38-0.688-1.236-0.929-1.975-0.789c-0.18,0.034-0.287,0.126-0.442,0.207
					c-0.17,0.088-0.139,0.166-0.318,0.224c-0.081,0.026-0.216,0.124-0.215,0.224c0.001,0.115,0.005,0.051,0.012,0.169
					c-0.021,0.011-0.021-0.005-0.03-0.025"/>
				<path fill="#FFFFFF" d="M38.797-33.39c0.018,0.072,0.007,0.127-0.026,0.19c-0.053,0.101-0.112,0.062-0.165,0.128
					c-0.05,0.062-0.099,0.276-0.079,0.362c-0.169,0.058-0.009,0.227-0.015,0.35c-0.002,0.05-0.041,0.105-0.045,0.161
					c-0.01,0.119,0.017,0.266,0.068,0.37c0.097,0.198,0.268,0.413,0.435,0.544c0.19,0.148,0.365,0.572,0.608,0.631
					c0.177,0.042,0.384-0.104,0.543-0.143c0.18-0.043,0.397,0.01,0.571-0.053c0.222-0.079,0.127-0.337,0.288-0.45
					c0.104-0.074,0.287-0.01,0.406-0.051c0.2-0.069,0.339-0.263,0.376-0.46c0.016-0.082,0.01-0.145,0.039-0.221
					c0.039-0.103,0.111-0.16,0.09-0.293c-0.01-0.062-0.052-0.12-0.064-0.187c-0.022-0.114,0.002-0.224,0-0.337
					c-0.003-0.2,0.017-0.379-0.078-0.55c-0.38-0.688-1.236-0.929-1.975-0.789c-0.18,0.034-0.287,0.126-0.442,0.207
					c-0.17,0.088-0.139,0.166-0.318,0.224c-0.081,0.026-0.216,0.124-0.215,0.224c0.001,0.115,0.005,0.051,0.012,0.169
					c-0.021,0.011-0.021-0.005-0.03-0.025"/>
				<path fill="#FFFFFF" d="M31.137-33.39c0.018,0.072,0.007,0.127-0.026,0.19c-0.053,0.101-0.112,0.062-0.165,0.128
					c-0.05,0.062-0.099,0.276-0.079,0.362c-0.169,0.058-0.009,0.227-0.015,0.35c-0.002,0.05-0.041,0.105-0.045,0.161
					c-0.01,0.119,0.017,0.266,0.068,0.37c0.097,0.198,0.268,0.413,0.435,0.544c0.19,0.148,0.365,0.572,0.608,0.631
					c0.177,0.042,0.384-0.104,0.543-0.143c0.18-0.043,0.397,0.01,0.571-0.053c0.222-0.079,0.127-0.337,0.288-0.45
					c0.104-0.074,0.287-0.01,0.406-0.051c0.2-0.069,0.339-0.263,0.376-0.46c0.016-0.082,0.01-0.145,0.039-0.221
					c0.039-0.103,0.111-0.16,0.09-0.293c-0.01-0.062-0.052-0.12-0.064-0.187c-0.022-0.114,0.002-0.224,0-0.337
					c-0.003-0.2,0.017-0.379-0.078-0.55c-0.38-0.688-1.236-0.929-1.975-0.789c-0.18,0.034-0.287,0.126-0.442,0.207
					c-0.17,0.088-0.139,0.166-0.318,0.224c-0.081,0.026-0.216,0.124-0.215,0.224c0.001,0.115,0.005,0.051,0.012,0.169
					c-0.021,0.011-0.021-0.005-0.03-0.025"/>
				<path fill="#FFFFFF" d="M23.477-33.39c0.018,0.072,0.007,0.127-0.026,0.19c-0.053,0.101-0.112,0.062-0.165,0.128
					c-0.05,0.062-0.099,0.276-0.079,0.362c-0.169,0.058-0.009,0.227-0.015,0.35c-0.002,0.05-0.041,0.105-0.045,0.161
					c-0.01,0.119,0.017,0.266,0.068,0.37c0.097,0.198,0.268,0.413,0.435,0.544c0.19,0.148,0.365,0.572,0.608,0.631
					c0.177,0.042,0.384-0.104,0.543-0.143c0.18-0.043,0.397,0.01,0.571-0.053c0.222-0.079,0.127-0.337,0.288-0.45
					c0.104-0.074,0.287-0.01,0.406-0.051c0.2-0.069,0.339-0.263,0.376-0.46c0.016-0.082,0.01-0.145,0.039-0.221
					c0.039-0.103,0.111-0.16,0.09-0.293c-0.01-0.062-0.052-0.12-0.064-0.187c-0.022-0.114,0.002-0.224,0-0.337
					c-0.003-0.2,0.017-0.379-0.078-0.55c-0.38-0.688-1.236-0.929-1.975-0.789c-0.18,0.034-0.287,0.126-0.442,0.207
					c-0.17,0.088-0.139,0.166-0.318,0.224c-0.081,0.026-0.216,0.124-0.215,0.224c0.001,0.115,0.005,0.051,0.012,0.169
					c-0.021,0.011-0.021-0.005-0.03-0.025"/>
				<path fill="#FFFFFF" d="M15.816-33.39c0.018,0.072,0.007,0.127-0.026,0.19c-0.053,0.101-0.112,0.062-0.165,0.128
					c-0.05,0.062-0.099,0.276-0.079,0.362c-0.169,0.058-0.009,0.227-0.015,0.35c-0.002,0.05-0.041,0.105-0.045,0.161
					c-0.01,0.119,0.017,0.266,0.068,0.37c0.097,0.198,0.268,0.413,0.435,0.544c0.19,0.148,0.365,0.572,0.608,0.631
					c0.177,0.042,0.384-0.104,0.543-0.143c0.18-0.043,0.397,0.01,0.571-0.053c0.222-0.079,0.127-0.337,0.288-0.45
					c0.104-0.074,0.287-0.01,0.406-0.051c0.2-0.069,0.339-0.263,0.376-0.46c0.016-0.082,0.01-0.145,0.039-0.221
					c0.039-0.103,0.111-0.16,0.09-0.293c-0.01-0.062-0.052-0.12-0.064-0.187c-0.022-0.114,0.002-0.224,0-0.337
					c-0.003-0.2,0.017-0.379-0.078-0.55c-0.38-0.688-1.236-0.929-1.975-0.789c-0.18,0.034-0.287,0.126-0.442,0.207
					c-0.17,0.088-0.139,0.166-0.318,0.224c-0.081,0.026-0.216,0.124-0.215,0.224c0.001,0.115,0.005,0.051,0.012,0.169
					c-0.021,0.011-0.021-0.005-0.03-0.025"/>
				<path fill="#FFFFFF" d="M8.156-33.39c0.018,0.072,0.007,0.127-0.026,0.19c-0.053,0.101-0.112,0.062-0.165,0.128
					c-0.05,0.062-0.099,0.276-0.079,0.362c-0.169,0.058-0.009,0.227-0.015,0.35c-0.002,0.05-0.041,0.105-0.045,0.161
					c-0.01,0.119,0.017,0.266,0.068,0.37c0.097,0.198,0.268,0.413,0.435,0.544c0.19,0.148,0.365,0.572,0.608,0.631
					c0.177,0.042,0.384-0.104,0.543-0.143c0.18-0.043,0.397,0.01,0.571-0.053c0.222-0.079,0.127-0.337,0.288-0.45
					c0.104-0.074,0.287-0.01,0.406-0.051c0.2-0.069,0.339-0.263,0.376-0.46c0.016-0.082,0.01-0.145,0.039-0.221
					c0.039-0.103,0.111-0.16,0.09-0.293c-0.01-0.062-0.052-0.12-0.064-0.187c-0.022-0.114,0.002-0.224,0-0.337
					c-0.003-0.2,0.017-0.379-0.078-0.55c-0.38-0.688-1.236-0.929-1.975-0.789c-0.18,0.034-0.287,0.126-0.442,0.207
					c-0.17,0.088-0.139,0.166-0.318,0.224c-0.081,0.026-0.216,0.124-0.215,0.224c0.001,0.115,0.005,0.051,0.012,0.169
					c-0.021,0.011-0.021-0.005-0.03-0.025"/>
				<path fill="#FFFFFF" d="M0.495-33.39c0.018,0.072,0.007,0.127-0.026,0.19c-0.053,0.101-0.112,0.062-0.165,0.128
					c-0.05,0.062-0.099,0.276-0.079,0.362c-0.169,0.058-0.01,0.227-0.015,0.35c-0.002,0.05-0.041,0.105-0.045,0.161
					c-0.01,0.119,0.017,0.266,0.068,0.37c0.097,0.198,0.268,0.413,0.435,0.544c0.19,0.148,0.365,0.572,0.608,0.631
					c0.177,0.042,0.384-0.104,0.543-0.143c0.18-0.043,0.397,0.01,0.571-0.053c0.222-0.079,0.127-0.337,0.288-0.45
					c0.104-0.074,0.287-0.01,0.406-0.051c0.2-0.069,0.339-0.263,0.376-0.46c0.016-0.082,0.01-0.145,0.039-0.221
					c0.039-0.103,0.111-0.16,0.09-0.293c-0.01-0.062-0.052-0.12-0.064-0.187c-0.022-0.114,0.002-0.224,0-0.337
					c-0.003-0.2,0.017-0.379-0.078-0.55c-0.38-0.688-1.236-0.929-1.975-0.789c-0.18,0.034-0.287,0.126-0.442,0.207
					c-0.17,0.088-0.139,0.166-0.318,0.224c-0.081,0.026-0.216,0.124-0.215,0.224C0.5-33.416,0.503-33.48,0.51-33.362
					c-0.021,0.011-0.021-0.005-0.03-0.025"/>
			</g>
			<g>
				<path fill="#FFFFFF" d="M69.439-25.736c0.018,0.072,0.007,0.127-0.026,0.19c-0.053,0.101-0.112,0.062-0.165,0.128
					c-0.05,0.062-0.099,0.276-0.079,0.362c-0.169,0.058-0.01,0.227-0.015,0.35c-0.002,0.05-0.041,0.105-0.045,0.161
					c-0.01,0.119,0.017,0.266,0.068,0.37c0.097,0.198,0.268,0.413,0.435,0.544c0.19,0.148,0.365,0.572,0.608,0.631
					c0.177,0.042,0.384-0.104,0.543-0.143c0.18-0.043,0.397,0.01,0.571-0.053c0.222-0.079,0.127-0.337,0.288-0.45
					c0.104-0.074,0.287-0.01,0.406-0.051c0.2-0.069,0.339-0.263,0.376-0.46c0.016-0.082,0.01-0.145,0.039-0.221
					c0.039-0.103,0.111-0.16,0.09-0.293c-0.01-0.062-0.052-0.12-0.064-0.187c-0.022-0.114,0.002-0.224,0-0.337
					c-0.003-0.2,0.017-0.379-0.078-0.55c-0.38-0.688-1.236-0.929-1.975-0.789c-0.18,0.034-0.287,0.126-0.442,0.207
					c-0.17,0.088-0.139,0.166-0.318,0.224c-0.081,0.026-0.216,0.124-0.215,0.224c0.001,0.115,0.005,0.051,0.012,0.169
					c-0.021,0.011-0.021-0.005-0.03-0.025"/>
				<path fill="#FFFFFF" d="M61.778-25.736c0.018,0.072,0.007,0.127-0.026,0.19c-0.053,0.101-0.112,0.062-0.165,0.128
					c-0.05,0.062-0.099,0.276-0.079,0.362c-0.169,0.058-0.009,0.227-0.015,0.35c-0.002,0.05-0.041,0.105-0.045,0.161
					c-0.01,0.119,0.017,0.266,0.068,0.37c0.097,0.198,0.268,0.413,0.435,0.544c0.19,0.148,0.365,0.572,0.608,0.631
					c0.177,0.042,0.384-0.104,0.543-0.143c0.18-0.043,0.397,0.01,0.571-0.053c0.222-0.079,0.127-0.337,0.288-0.45
					c0.104-0.074,0.287-0.01,0.406-0.051c0.2-0.069,0.339-0.263,0.376-0.46c0.016-0.082,0.01-0.145,0.039-0.221
					c0.039-0.103,0.111-0.16,0.09-0.293c-0.01-0.062-0.052-0.12-0.064-0.187c-0.022-0.114,0.002-0.224,0-0.337
					c-0.003-0.2,0.017-0.379-0.078-0.55c-0.38-0.688-1.236-0.929-1.975-0.789c-0.18,0.034-0.287,0.126-0.442,0.207
					c-0.17,0.088-0.139,0.166-0.318,0.224c-0.081,0.026-0.216,0.124-0.215,0.224c0.001,0.115,0.005,0.051,0.012,0.169
					c-0.021,0.011-0.021-0.005-0.03-0.025"/>
				<path fill="#FFFFFF" d="M54.118-25.736c0.018,0.072,0.007,0.127-0.026,0.19c-0.053,0.101-0.112,0.062-0.165,0.128
					c-0.05,0.062-0.099,0.276-0.079,0.362c-0.169,0.058-0.009,0.227-0.015,0.35c-0.002,0.05-0.041,0.105-0.045,0.161
					c-0.01,0.119,0.017,0.266,0.068,0.37c0.097,0.198,0.268,0.413,0.435,0.544c0.19,0.148,0.365,0.572,0.608,0.631
					c0.177,0.042,0.384-0.104,0.543-0.143c0.18-0.043,0.397,0.01,0.571-0.053c0.222-0.079,0.127-0.337,0.288-0.45
					c0.104-0.074,0.287-0.01,0.406-0.051c0.2-0.069,0.339-0.263,0.376-0.46c0.016-0.082,0.01-0.145,0.039-0.221
					c0.039-0.103,0.111-0.16,0.09-0.293c-0.01-0.062-0.052-0.12-0.064-0.187c-0.022-0.114,0.002-0.224,0-0.337
					c-0.003-0.2,0.017-0.379-0.078-0.55c-0.38-0.688-1.236-0.929-1.975-0.789c-0.18,0.034-0.287,0.126-0.442,0.207
					c-0.17,0.088-0.139,0.166-0.318,0.224c-0.081,0.026-0.216,0.124-0.215,0.224c0.001,0.115,0.005,0.051,0.012,0.169
					c-0.021,0.011-0.021-0.005-0.03-0.025"/>
				<path fill="#FFFFFF" d="M46.458-25.736c0.018,0.072,0.007,0.127-0.026,0.19c-0.053,0.101-0.112,0.062-0.165,0.128
					c-0.05,0.062-0.099,0.276-0.079,0.362c-0.169,0.058-0.009,0.227-0.015,0.35c-0.002,0.05-0.041,0.105-0.045,0.161
					c-0.01,0.119,0.017,0.266,0.068,0.37c0.097,0.198,0.268,0.413,0.435,0.544c0.19,0.148,0.365,0.572,0.608,0.631
					c0.177,0.042,0.384-0.104,0.543-0.143c0.18-0.043,0.397,0.01,0.571-0.053c0.222-0.079,0.127-0.337,0.288-0.45
					c0.104-0.074,0.287-0.01,0.406-0.051c0.2-0.069,0.339-0.263,0.376-0.46c0.016-0.082,0.01-0.145,0.039-0.221
					c0.039-0.103,0.111-0.16,0.09-0.293c-0.01-0.062-0.052-0.12-0.064-0.187c-0.022-0.114,0.002-0.224,0-0.337
					c-0.003-0.2,0.017-0.379-0.078-0.55c-0.38-0.688-1.236-0.929-1.975-0.789c-0.18,0.034-0.287,0.126-0.442,0.207
					c-0.17,0.088-0.139,0.166-0.318,0.224c-0.081,0.026-0.216,0.124-0.215,0.224c0.001,0.115,0.005,0.051,0.012,0.169
					c-0.021,0.011-0.021-0.005-0.03-0.025"/>
				<path fill="#FFFFFF" d="M38.797-25.736c0.018,0.072,0.007,0.127-0.026,0.19c-0.053,0.101-0.112,0.062-0.165,0.128
					c-0.05,0.062-0.099,0.276-0.079,0.362c-0.169,0.058-0.009,0.227-0.015,0.35c-0.002,0.05-0.041,0.105-0.045,0.161
					c-0.01,0.119,0.017,0.266,0.068,0.37c0.097,0.198,0.268,0.413,0.435,0.544c0.19,0.148,0.365,0.572,0.608,0.631
					c0.177,0.042,0.384-0.104,0.543-0.143c0.18-0.043,0.397,0.01,0.571-0.053c0.222-0.079,0.127-0.337,0.288-0.45
					c0.104-0.074,0.287-0.01,0.406-0.051c0.2-0.069,0.339-0.263,0.376-0.46c0.016-0.082,0.01-0.145,0.039-0.221
					c0.039-0.103,0.111-0.16,0.09-0.293c-0.01-0.062-0.052-0.12-0.064-0.187c-0.022-0.114,0.002-0.224,0-0.337
					c-0.003-0.2,0.017-0.379-0.078-0.55c-0.38-0.688-1.236-0.929-1.975-0.789c-0.18,0.034-0.287,0.126-0.442,0.207
					c-0.17,0.088-0.139,0.166-0.318,0.224c-0.081,0.026-0.216,0.124-0.215,0.224c0.001,0.115,0.005,0.051,0.012,0.169
					c-0.021,0.011-0.021-0.005-0.03-0.025"/>
				<path fill="#FFFFFF" d="M31.137-25.736c0.018,0.072,0.007,0.127-0.026,0.19c-0.053,0.101-0.112,0.062-0.165,0.128
					c-0.05,0.062-0.099,0.276-0.079,0.362c-0.169,0.058-0.009,0.227-0.015,0.35c-0.002,0.05-0.041,0.105-0.045,0.161
					c-0.01,0.119,0.017,0.266,0.068,0.37c0.097,0.198,0.268,0.413,0.435,0.544c0.19,0.148,0.365,0.572,0.608,0.631
					c0.177,0.042,0.384-0.104,0.543-0.143c0.18-0.043,0.397,0.01,0.571-0.053c0.222-0.079,0.127-0.337,0.288-0.45
					c0.104-0.074,0.287-0.01,0.406-0.051c0.2-0.069,0.339-0.263,0.376-0.46c0.016-0.082,0.01-0.145,0.039-0.221
					c0.039-0.103,0.111-0.16,0.09-0.293c-0.01-0.062-0.052-0.12-0.064-0.187c-0.022-0.114,0.002-0.224,0-0.337
					c-0.003-0.2,0.017-0.379-0.078-0.55c-0.38-0.688-1.236-0.929-1.975-0.789c-0.18,0.034-0.287,0.126-0.442,0.207
					c-0.17,0.088-0.139,0.166-0.318,0.224c-0.081,0.026-0.216,0.124-0.215,0.224c0.001,0.115,0.005,0.051,0.012,0.169
					c-0.021,0.011-0.021-0.005-0.03-0.025"/>
				<path fill="#FFFFFF" d="M23.477-25.736c0.018,0.072,0.007,0.127-0.026,0.19c-0.053,0.101-0.112,0.062-0.165,0.128
					c-0.05,0.062-0.099,0.276-0.079,0.362c-0.169,0.058-0.009,0.227-0.015,0.35c-0.002,0.05-0.041,0.105-0.045,0.161
					c-0.01,0.119,0.017,0.266,0.068,0.37c0.097,0.198,0.268,0.413,0.435,0.544c0.19,0.148,0.365,0.572,0.608,0.631
					c0.177,0.042,0.384-0.104,0.543-0.143c0.18-0.043,0.397,0.01,0.571-0.053c0.222-0.079,0.127-0.337,0.288-0.45
					c0.104-0.074,0.287-0.01,0.406-0.051c0.2-0.069,0.339-0.263,0.376-0.46c0.016-0.082,0.01-0.145,0.039-0.221
					c0.039-0.103,0.111-0.16,0.09-0.293c-0.01-0.062-0.052-0.12-0.064-0.187c-0.022-0.114,0.002-0.224,0-0.337
					c-0.003-0.2,0.017-0.379-0.078-0.55c-0.38-0.688-1.236-0.929-1.975-0.789c-0.18,0.034-0.287,0.126-0.442,0.207
					c-0.17,0.088-0.139,0.166-0.318,0.224c-0.081,0.026-0.216,0.124-0.215,0.224c0.001,0.115,0.005,0.051,0.012,0.169
					c-0.021,0.011-0.021-0.005-0.03-0.025"/>
				<path fill="#FFFFFF" d="M15.816-25.736c0.018,0.072,0.007,0.127-0.026,0.19c-0.053,0.101-0.112,0.062-0.165,0.128
					c-0.05,0.062-0.099,0.276-0.079,0.362c-0.169,0.058-0.009,0.227-0.015,0.35c-0.002,0.05-0.041,0.105-0.045,0.161
					c-0.01,0.119,0.017,0.266,0.068,0.37c0.097,0.198,0.268,0.413,0.435,0.544c0.19,0.148,0.365,0.572,0.608,0.631
					c0.177,0.042,0.384-0.104,0.543-0.143c0.18-0.043,0.397,0.01,0.571-0.053c0.222-0.079,0.127-0.337,0.288-0.45
					c0.104-0.074,0.287-0.01,0.406-0.051c0.2-0.069,0.339-0.263,0.376-0.46c0.016-0.082,0.01-0.145,0.039-0.221
					c0.039-0.103,0.111-0.16,0.09-0.293c-0.01-0.062-0.052-0.12-0.064-0.187c-0.022-0.114,0.002-0.224,0-0.337
					c-0.003-0.2,0.017-0.379-0.078-0.55c-0.38-0.688-1.236-0.929-1.975-0.789c-0.18,0.034-0.287,0.126-0.442,0.207
					c-0.17,0.088-0.139,0.166-0.318,0.224c-0.081,0.026-0.216,0.124-0.215,0.224c0.001,0.115,0.005,0.051,0.012,0.169
					c-0.021,0.011-0.021-0.005-0.03-0.025"/>
				<path fill="#FFFFFF" d="M8.156-25.736c0.018,0.072,0.007,0.127-0.026,0.19c-0.053,0.101-0.112,0.062-0.165,0.128
					c-0.05,0.062-0.099,0.276-0.079,0.362c-0.169,0.058-0.009,0.227-0.015,0.35c-0.002,0.05-0.041,0.105-0.045,0.161
					c-0.01,0.119,0.017,0.266,0.068,0.37c0.097,0.198,0.268,0.413,0.435,0.544c0.19,0.148,0.365,0.572,0.608,0.631
					c0.177,0.042,0.384-0.104,0.543-0.143c0.18-0.043,0.397,0.01,0.571-0.053c0.222-0.079,0.127-0.337,0.288-0.45
					c0.104-0.074,0.287-0.01,0.406-0.051c0.2-0.069,0.339-0.263,0.376-0.46c0.016-0.082,0.01-0.145,0.039-0.221
					c0.039-0.103,0.111-0.16,0.09-0.293c-0.01-0.062-0.052-0.12-0.064-0.187c-0.022-0.114,0.002-0.224,0-0.337
					c-0.003-0.2,0.017-0.379-0.078-0.55c-0.38-0.688-1.236-0.929-1.975-0.789c-0.18,0.034-0.287,0.126-0.442,0.207
					c-0.17,0.088-0.139,0.166-0.318,0.224c-0.081,0.026-0.216,0.124-0.215,0.224c0.001,0.115,0.005,0.051,0.012,0.169
					c-0.021,0.011-0.021-0.005-0.03-0.025"/>
				<path fill="#FFFFFF" d="M0.495-25.736c0.018,0.072,0.007,0.127-0.026,0.19c-0.053,0.101-0.112,0.062-0.165,0.128
					c-0.05,0.062-0.099,0.276-0.079,0.362c-0.169,0.058-0.01,0.227-0.015,0.35c-0.002,0.05-0.041,0.105-0.045,0.161
					c-0.01,0.119,0.017,0.266,0.068,0.37c0.097,0.198,0.268,0.413,0.435,0.544c0.19,0.148,0.365,0.572,0.608,0.631
					c0.177,0.042,0.384-0.104,0.543-0.143c0.18-0.043,0.397,0.01,0.571-0.053c0.222-0.079,0.127-0.337,0.288-0.45
					c0.104-0.074,0.287-0.01,0.406-0.051c0.2-0.069,0.339-0.263,0.376-0.46c0.016-0.082,0.01-0.145,0.039-0.221
					c0.039-0.103,0.111-0.16,0.09-0.293c-0.01-0.062-0.052-0.12-0.064-0.187c-0.022-0.114,0.002-0.224,0-0.337
					c-0.003-0.2,0.017-0.379-0.078-0.55c-0.38-0.688-1.236-0.929-1.975-0.789c-0.18,0.034-0.287,0.126-0.442,0.207
					c-0.17,0.088-0.139,0.166-0.318,0.224c-0.081,0.026-0.216,0.124-0.215,0.224c0.001,0.115,0.005,0.051,0.012,0.169
					c-0.021,0.011-0.021-0.005-0.03-0.025"/>
			</g>
			<g>
				<path fill="#FFFFFF" d="M69.439-18.084c0.018,0.072,0.007,0.127-0.026,0.19c-0.053,0.101-0.112,0.062-0.165,0.128
					c-0.05,0.062-0.099,0.276-0.079,0.362c-0.169,0.058-0.01,0.227-0.015,0.35c-0.002,0.05-0.041,0.105-0.045,0.161
					c-0.01,0.119,0.017,0.266,0.068,0.37c0.097,0.198,0.268,0.413,0.435,0.544c0.19,0.148,0.365,0.572,0.608,0.631
					c0.177,0.042,0.384-0.104,0.543-0.143c0.18-0.043,0.397,0.01,0.571-0.053c0.222-0.079,0.127-0.337,0.288-0.45
					c0.104-0.074,0.287-0.01,0.406-0.051c0.2-0.069,0.339-0.263,0.376-0.46c0.016-0.082,0.01-0.145,0.039-0.221
					c0.039-0.103,0.111-0.16,0.09-0.293c-0.01-0.062-0.052-0.12-0.064-0.187c-0.022-0.114,0.002-0.224,0-0.337
					c-0.003-0.2,0.017-0.379-0.078-0.55c-0.38-0.688-1.236-0.929-1.975-0.789c-0.18,0.034-0.287,0.126-0.442,0.207
					c-0.17,0.088-0.139,0.166-0.318,0.224c-0.081,0.026-0.216,0.124-0.215,0.224c0.001,0.115,0.005,0.051,0.012,0.169
					c-0.021,0.011-0.021-0.005-0.03-0.025"/>
				<path fill="#FFFFFF" d="M61.778-18.084c0.018,0.072,0.007,0.127-0.026,0.19c-0.053,0.101-0.112,0.062-0.165,0.128
					c-0.05,0.062-0.099,0.276-0.079,0.362c-0.169,0.058-0.009,0.227-0.015,0.35c-0.002,0.05-0.041,0.105-0.045,0.161
					c-0.01,0.119,0.017,0.266,0.068,0.37c0.097,0.198,0.268,0.413,0.435,0.544c0.19,0.148,0.365,0.572,0.608,0.631
					c0.177,0.042,0.384-0.104,0.543-0.143c0.18-0.043,0.397,0.01,0.571-0.053c0.222-0.079,0.127-0.337,0.288-0.45
					c0.104-0.074,0.287-0.01,0.406-0.051c0.2-0.069,0.339-0.263,0.376-0.46c0.016-0.082,0.01-0.145,0.039-0.221
					c0.039-0.103,0.111-0.16,0.09-0.293c-0.01-0.062-0.052-0.12-0.064-0.187c-0.022-0.114,0.002-0.224,0-0.337
					c-0.003-0.2,0.017-0.379-0.078-0.55c-0.38-0.688-1.236-0.929-1.975-0.789c-0.18,0.034-0.287,0.126-0.442,0.207
					c-0.17,0.088-0.139,0.166-0.318,0.224c-0.081,0.026-0.216,0.124-0.215,0.224c0.001,0.115,0.005,0.051,0.012,0.169
					c-0.021,0.011-0.021-0.005-0.03-0.025"/>
				<path fill="#FFFFFF" d="M54.118-18.084c0.018,0.072,0.007,0.127-0.026,0.19c-0.053,0.101-0.112,0.062-0.165,0.128
					c-0.05,0.062-0.099,0.276-0.079,0.362c-0.169,0.058-0.009,0.227-0.015,0.35c-0.002,0.05-0.041,0.105-0.045,0.161
					c-0.01,0.119,0.017,0.266,0.068,0.37c0.097,0.198,0.268,0.413,0.435,0.544c0.19,0.148,0.365,0.572,0.608,0.631
					c0.177,0.042,0.384-0.104,0.543-0.143c0.18-0.043,0.397,0.01,0.571-0.053c0.222-0.079,0.127-0.337,0.288-0.45
					c0.104-0.074,0.287-0.01,0.406-0.051c0.2-0.069,0.339-0.263,0.376-0.46c0.016-0.082,0.01-0.145,0.039-0.221
					c0.039-0.103,0.111-0.16,0.09-0.293c-0.01-0.062-0.052-0.12-0.064-0.187c-0.022-0.114,0.002-0.224,0-0.337
					c-0.003-0.2,0.017-0.379-0.078-0.55c-0.38-0.688-1.236-0.929-1.975-0.789c-0.18,0.034-0.287,0.126-0.442,0.207
					c-0.17,0.088-0.139,0.166-0.318,0.224c-0.081,0.026-0.216,0.124-0.215,0.224c0.001,0.115,0.005,0.051,0.012,0.169
					c-0.021,0.011-0.021-0.005-0.03-0.025"/>
				<path fill="#FFFFFF" d="M46.458-18.084c0.018,0.072,0.007,0.127-0.026,0.19c-0.053,0.101-0.112,0.062-0.165,0.128
					c-0.05,0.062-0.099,0.276-0.079,0.362c-0.169,0.058-0.009,0.227-0.015,0.35c-0.002,0.05-0.041,0.105-0.045,0.161
					c-0.01,0.119,0.017,0.266,0.068,0.37c0.097,0.198,0.268,0.413,0.435,0.544c0.19,0.148,0.365,0.572,0.608,0.631
					c0.177,0.042,0.384-0.104,0.543-0.143c0.18-0.043,0.397,0.01,0.571-0.053c0.222-0.079,0.127-0.337,0.288-0.45
					c0.104-0.074,0.287-0.01,0.406-0.051c0.2-0.069,0.339-0.263,0.376-0.46c0.016-0.082,0.01-0.145,0.039-0.221
					c0.039-0.103,0.111-0.16,0.09-0.293c-0.01-0.062-0.052-0.12-0.064-0.187c-0.022-0.114,0.002-0.224,0-0.337
					c-0.003-0.2,0.017-0.379-0.078-0.55c-0.38-0.688-1.236-0.929-1.975-0.789c-0.18,0.034-0.287,0.126-0.442,0.207
					c-0.17,0.088-0.139,0.166-0.318,0.224c-0.081,0.026-0.216,0.124-0.215,0.224c0.001,0.115,0.005,0.051,0.012,0.169
					c-0.021,0.011-0.021-0.005-0.03-0.025"/>
				<path fill="#FFFFFF" d="M38.797-18.084c0.018,0.072,0.007,0.127-0.026,0.19c-0.053,0.101-0.112,0.062-0.165,0.128
					c-0.05,0.062-0.099,0.276-0.079,0.362c-0.169,0.058-0.009,0.227-0.015,0.35c-0.002,0.05-0.041,0.105-0.045,0.161
					c-0.01,0.119,0.017,0.266,0.068,0.37c0.097,0.198,0.268,0.413,0.435,0.544c0.19,0.148,0.365,0.572,0.608,0.631
					c0.177,0.042,0.384-0.104,0.543-0.143c0.18-0.043,0.397,0.01,0.571-0.053c0.222-0.079,0.127-0.337,0.288-0.45
					c0.104-0.074,0.287-0.01,0.406-0.051c0.2-0.069,0.339-0.263,0.376-0.46c0.016-0.082,0.01-0.145,0.039-0.221
					c0.039-0.103,0.111-0.16,0.09-0.293c-0.01-0.062-0.052-0.12-0.064-0.187c-0.022-0.114,0.002-0.224,0-0.337
					c-0.003-0.2,0.017-0.379-0.078-0.55c-0.38-0.688-1.236-0.929-1.975-0.789c-0.18,0.034-0.287,0.126-0.442,0.207
					c-0.17,0.088-0.139,0.166-0.318,0.224c-0.081,0.026-0.216,0.124-0.215,0.224c0.001,0.115,0.005,0.051,0.012,0.169
					c-0.021,0.011-0.021-0.005-0.03-0.025"/>
				<path fill="#FFFFFF" d="M31.137-18.084c0.018,0.072,0.007,0.127-0.026,0.19c-0.053,0.101-0.112,0.062-0.165,0.128
					c-0.05,0.062-0.099,0.276-0.079,0.362c-0.169,0.058-0.009,0.227-0.015,0.35c-0.002,0.05-0.041,0.105-0.045,0.161
					c-0.01,0.119,0.017,0.266,0.068,0.37c0.097,0.198,0.268,0.413,0.435,0.544c0.19,0.148,0.365,0.572,0.608,0.631
					c0.177,0.042,0.384-0.104,0.543-0.143c0.18-0.043,0.397,0.01,0.571-0.053c0.222-0.079,0.127-0.337,0.288-0.45
					c0.104-0.074,0.287-0.01,0.406-0.051c0.2-0.069,0.339-0.263,0.376-0.46c0.016-0.082,0.01-0.145,0.039-0.221
					c0.039-0.103,0.111-0.16,0.09-0.293c-0.01-0.062-0.052-0.12-0.064-0.187c-0.022-0.114,0.002-0.224,0-0.337
					c-0.003-0.2,0.017-0.379-0.078-0.55c-0.38-0.688-1.236-0.929-1.975-0.789c-0.18,0.034-0.287,0.126-0.442,0.207
					c-0.17,0.088-0.139,0.166-0.318,0.224c-0.081,0.026-0.216,0.124-0.215,0.224c0.001,0.115,0.005,0.051,0.012,0.169
					c-0.021,0.011-0.021-0.005-0.03-0.025"/>
				<path fill="#FFFFFF" d="M23.477-18.084c0.018,0.072,0.007,0.127-0.026,0.19c-0.053,0.101-0.112,0.062-0.165,0.128
					c-0.05,0.062-0.099,0.276-0.079,0.362c-0.169,0.058-0.009,0.227-0.015,0.35c-0.002,0.05-0.041,0.105-0.045,0.161
					c-0.01,0.119,0.017,0.266,0.068,0.37c0.097,0.198,0.268,0.413,0.435,0.544c0.19,0.148,0.365,0.572,0.608,0.631
					c0.177,0.042,0.384-0.104,0.543-0.143c0.18-0.043,0.397,0.01,0.571-0.053c0.222-0.079,0.127-0.337,0.288-0.45
					c0.104-0.074,0.287-0.01,0.406-0.051c0.2-0.069,0.339-0.263,0.376-0.46c0.016-0.082,0.01-0.145,0.039-0.221
					c0.039-0.103,0.111-0.16,0.09-0.293c-0.01-0.062-0.052-0.12-0.064-0.187c-0.022-0.114,0.002-0.224,0-0.337
					c-0.003-0.2,0.017-0.379-0.078-0.55c-0.38-0.688-1.236-0.929-1.975-0.789c-0.18,0.034-0.287,0.126-0.442,0.207
					c-0.17,0.088-0.139,0.166-0.318,0.224c-0.081,0.026-0.216,0.124-0.215,0.224c0.001,0.115,0.005,0.051,0.012,0.169
					c-0.021,0.011-0.021-0.005-0.03-0.025"/>
				<path fill="#FFFFFF" d="M15.816-18.084c0.018,0.072,0.007,0.127-0.026,0.19c-0.053,0.101-0.112,0.062-0.165,0.128
					c-0.05,0.062-0.099,0.276-0.079,0.362c-0.169,0.058-0.009,0.227-0.015,0.35c-0.002,0.05-0.041,0.105-0.045,0.161
					c-0.01,0.119,0.017,0.266,0.068,0.37c0.097,0.198,0.268,0.413,0.435,0.544c0.19,0.148,0.365,0.572,0.608,0.631
					c0.177,0.042,0.384-0.104,0.543-0.143c0.18-0.043,0.397,0.01,0.571-0.053c0.222-0.079,0.127-0.337,0.288-0.45
					c0.104-0.074,0.287-0.01,0.406-0.051c0.2-0.069,0.339-0.263,0.376-0.46c0.016-0.082,0.01-0.145,0.039-0.221
					c0.039-0.103,0.111-0.16,0.09-0.293c-0.01-0.062-0.052-0.12-0.064-0.187c-0.022-0.114,0.002-0.224,0-0.337
					c-0.003-0.2,0.017-0.379-0.078-0.55c-0.38-0.688-1.236-0.929-1.975-0.789c-0.18,0.034-0.287,0.126-0.442,0.207
					c-0.17,0.088-0.139,0.166-0.318,0.224c-0.081,0.026-0.216,0.124-0.215,0.224c0.001,0.115,0.005,0.051,0.012,0.169
					c-0.021,0.011-0.021-0.005-0.03-0.025"/>
				<path fill="#FFFFFF" d="M8.156-18.084c0.018,0.072,0.007,0.127-0.026,0.19c-0.053,0.101-0.112,0.062-0.165,0.128
					c-0.05,0.062-0.099,0.276-0.079,0.362c-0.169,0.058-0.009,0.227-0.015,0.35c-0.002,0.05-0.041,0.105-0.045,0.161
					c-0.01,0.119,0.017,0.266,0.068,0.37c0.097,0.198,0.268,0.413,0.435,0.544c0.19,0.148,0.365,0.572,0.608,0.631
					c0.177,0.042,0.384-0.104,0.543-0.143c0.18-0.043,0.397,0.01,0.571-0.053c0.222-0.079,0.127-0.337,0.288-0.45
					c0.104-0.074,0.287-0.01,0.406-0.051c0.2-0.069,0.339-0.263,0.376-0.46c0.016-0.082,0.01-0.145,0.039-0.221
					c0.039-0.103,0.111-0.16,0.09-0.293c-0.01-0.062-0.052-0.12-0.064-0.187c-0.022-0.114,0.002-0.224,0-0.337
					c-0.003-0.2,0.017-0.379-0.078-0.55c-0.38-0.688-1.236-0.929-1.975-0.789c-0.18,0.034-0.287,0.126-0.442,0.207
					c-0.17,0.088-0.139,0.166-0.318,0.224c-0.081,0.026-0.216,0.124-0.215,0.224c0.001,0.115,0.005,0.051,0.012,0.169
					c-0.021,0.011-0.021-0.005-0.03-0.025"/>
				<path fill="#FFFFFF" d="M0.495-18.084c0.018,0.072,0.007,0.127-0.026,0.19c-0.053,0.101-0.112,0.062-0.165,0.128
					c-0.05,0.062-0.099,0.276-0.079,0.362c-0.169,0.058-0.01,0.227-0.015,0.35c-0.002,0.05-0.041,0.105-0.045,0.161
					c-0.01,0.119,0.017,0.266,0.068,0.37c0.097,0.198,0.268,0.413,0.435,0.544c0.19,0.148,0.365,0.572,0.608,0.631
					c0.177,0.042,0.384-0.104,0.543-0.143c0.18-0.043,0.397,0.01,0.571-0.053c0.222-0.079,0.127-0.337,0.288-0.45
					c0.104-0.074,0.287-0.01,0.406-0.051c0.2-0.069,0.339-0.263,0.376-0.46c0.016-0.082,0.01-0.145,0.039-0.221
					c0.039-0.103,0.111-0.16,0.09-0.293c-0.01-0.062-0.052-0.12-0.064-0.187c-0.022-0.114,0.002-0.224,0-0.337
					c-0.003-0.2,0.017-0.379-0.078-0.55c-0.38-0.688-1.236-0.929-1.975-0.789c-0.18,0.034-0.287,0.126-0.442,0.207
					c-0.17,0.088-0.139,0.166-0.318,0.224c-0.081,0.026-0.216,0.124-0.215,0.224C0.5-18.11,0.503-18.175,0.51-18.057
					c-0.021,0.011-0.021-0.005-0.03-0.025"/>
			</g>
			<g>
				<path fill="#FFFFFF" d="M69.439-10.431c0.018,0.072,0.007,0.127-0.026,0.19c-0.053,0.101-0.112,0.062-0.165,0.128
					c-0.05,0.062-0.099,0.276-0.079,0.362C69-9.692,69.159-9.523,69.154-9.4c-0.002,0.05-0.041,0.105-0.045,0.161
					c-0.01,0.119,0.017,0.266,0.068,0.37c0.097,0.198,0.268,0.413,0.435,0.544c0.19,0.148,0.365,0.572,0.608,0.631
					c0.177,0.042,0.384-0.104,0.543-0.143c0.18-0.043,0.397,0.01,0.571-0.053c0.222-0.079,0.127-0.337,0.288-0.45
					c0.104-0.074,0.287-0.01,0.406-0.051c0.2-0.069,0.339-0.263,0.376-0.46c0.016-0.082,0.01-0.145,0.039-0.221
					c0.039-0.103,0.111-0.16,0.09-0.293c-0.01-0.062-0.052-0.12-0.064-0.187c-0.022-0.114,0.002-0.224,0-0.337
					c-0.003-0.2,0.017-0.379-0.078-0.55c-0.38-0.688-1.236-0.929-1.975-0.789c-0.18,0.034-0.287,0.126-0.442,0.207
					c-0.17,0.088-0.139,0.166-0.318,0.224c-0.081,0.026-0.216,0.124-0.215,0.224c0.001,0.115,0.005,0.051,0.012,0.169
					c-0.021,0.011-0.021-0.005-0.03-0.025"/>
				<path fill="#FFFFFF" d="M61.778-10.431c0.018,0.072,0.007,0.127-0.026,0.19c-0.053,0.101-0.112,0.062-0.165,0.128
					c-0.05,0.062-0.099,0.276-0.079,0.362c-0.169,0.058-0.009,0.227-0.015,0.35c-0.002,0.05-0.041,0.105-0.045,0.161
					c-0.01,0.119,0.017,0.266,0.068,0.37c0.097,0.198,0.268,0.413,0.435,0.544c0.19,0.148,0.365,0.572,0.608,0.631
					c0.177,0.042,0.384-0.104,0.543-0.143c0.18-0.043,0.397,0.01,0.571-0.053c0.222-0.079,0.127-0.337,0.288-0.45
					c0.104-0.074,0.287-0.01,0.406-0.051c0.2-0.069,0.339-0.263,0.376-0.46c0.016-0.082,0.01-0.145,0.039-0.221
					c0.039-0.103,0.111-0.16,0.09-0.293c-0.01-0.062-0.052-0.12-0.064-0.187c-0.022-0.114,0.002-0.224,0-0.337
					c-0.003-0.2,0.017-0.379-0.078-0.55c-0.38-0.688-1.236-0.929-1.975-0.789c-0.18,0.034-0.287,0.126-0.442,0.207
					c-0.17,0.088-0.139,0.166-0.318,0.224c-0.081,0.026-0.216,0.124-0.215,0.224c0.001,0.115,0.005,0.051,0.012,0.169
					c-0.021,0.011-0.021-0.005-0.03-0.025"/>
				<path fill="#FFFFFF" d="M54.118-10.431c0.018,0.072,0.007,0.127-0.026,0.19c-0.053,0.101-0.112,0.062-0.165,0.128
					c-0.05,0.062-0.099,0.276-0.079,0.362c-0.169,0.058-0.009,0.227-0.015,0.35c-0.002,0.05-0.041,0.105-0.045,0.161
					c-0.01,0.119,0.017,0.266,0.068,0.37c0.097,0.198,0.268,0.413,0.435,0.544c0.19,0.148,0.365,0.572,0.608,0.631
					c0.177,0.042,0.384-0.104,0.543-0.143c0.18-0.043,0.397,0.01,0.571-0.053c0.222-0.079,0.127-0.337,0.288-0.45
					c0.104-0.074,0.287-0.01,0.406-0.051c0.2-0.069,0.339-0.263,0.376-0.46c0.016-0.082,0.01-0.145,0.039-0.221
					c0.039-0.103,0.111-0.16,0.09-0.293c-0.01-0.062-0.052-0.12-0.064-0.187c-0.022-0.114,0.002-0.224,0-0.337
					c-0.003-0.2,0.017-0.379-0.078-0.55c-0.38-0.688-1.236-0.929-1.975-0.789c-0.18,0.034-0.287,0.126-0.442,0.207
					c-0.17,0.088-0.139,0.166-0.318,0.224c-0.081,0.026-0.216,0.124-0.215,0.224c0.001,0.115,0.005,0.051,0.012,0.169
					c-0.021,0.011-0.021-0.005-0.03-0.025"/>
				<path fill="#FFFFFF" d="M46.458-10.431c0.018,0.072,0.007,0.127-0.026,0.19c-0.053,0.101-0.112,0.062-0.165,0.128
					c-0.05,0.062-0.099,0.276-0.079,0.362c-0.169,0.058-0.009,0.227-0.015,0.35c-0.002,0.05-0.041,0.105-0.045,0.161
					c-0.01,0.119,0.017,0.266,0.068,0.37c0.097,0.198,0.268,0.413,0.435,0.544c0.19,0.148,0.365,0.572,0.608,0.631
					c0.177,0.042,0.384-0.104,0.543-0.143c0.18-0.043,0.397,0.01,0.571-0.053c0.222-0.079,0.127-0.337,0.288-0.45
					c0.104-0.074,0.287-0.01,0.406-0.051c0.2-0.069,0.339-0.263,0.376-0.46c0.016-0.082,0.01-0.145,0.039-0.221
					c0.039-0.103,0.111-0.16,0.09-0.293c-0.01-0.062-0.052-0.12-0.064-0.187c-0.022-0.114,0.002-0.224,0-0.337
					c-0.003-0.2,0.017-0.379-0.078-0.55c-0.38-0.688-1.236-0.929-1.975-0.789c-0.18,0.034-0.287,0.126-0.442,0.207
					c-0.17,0.088-0.139,0.166-0.318,0.224c-0.081,0.026-0.216,0.124-0.215,0.224c0.001,0.115,0.005,0.051,0.012,0.169
					c-0.021,0.011-0.021-0.005-0.03-0.025"/>
				<path fill="#FFFFFF" d="M38.797-10.431c0.018,0.072,0.007,0.127-0.026,0.19c-0.053,0.101-0.112,0.062-0.165,0.128
					c-0.05,0.062-0.099,0.276-0.079,0.362c-0.169,0.058-0.009,0.227-0.015,0.35c-0.002,0.05-0.041,0.105-0.045,0.161
					c-0.01,0.119,0.017,0.266,0.068,0.37c0.097,0.198,0.268,0.413,0.435,0.544c0.19,0.148,0.365,0.572,0.608,0.631
					c0.177,0.042,0.384-0.104,0.543-0.143c0.18-0.043,0.397,0.01,0.571-0.053c0.222-0.079,0.127-0.337,0.288-0.45
					c0.104-0.074,0.287-0.01,0.406-0.051c0.2-0.069,0.339-0.263,0.376-0.46c0.016-0.082,0.01-0.145,0.039-0.221
					c0.039-0.103,0.111-0.16,0.09-0.293c-0.01-0.062-0.052-0.12-0.064-0.187c-0.022-0.114,0.002-0.224,0-0.337
					c-0.003-0.2,0.017-0.379-0.078-0.55c-0.38-0.688-1.236-0.929-1.975-0.789c-0.18,0.034-0.287,0.126-0.442,0.207
					c-0.17,0.088-0.139,0.166-0.318,0.224c-0.081,0.026-0.216,0.124-0.215,0.224c0.001,0.115,0.005,0.051,0.012,0.169
					c-0.021,0.011-0.021-0.005-0.03-0.025"/>
				<path fill="#FFFFFF" d="M31.137-10.431c0.018,0.072,0.007,0.127-0.026,0.19c-0.053,0.101-0.112,0.062-0.165,0.128
					c-0.05,0.062-0.099,0.276-0.079,0.362c-0.169,0.058-0.009,0.227-0.015,0.35c-0.002,0.05-0.041,0.105-0.045,0.161
					c-0.01,0.119,0.017,0.266,0.068,0.37c0.097,0.198,0.268,0.413,0.435,0.544c0.19,0.148,0.365,0.572,0.608,0.631
					c0.177,0.042,0.384-0.104,0.543-0.143c0.18-0.043,0.397,0.01,0.571-0.053c0.222-0.079,0.127-0.337,0.288-0.45
					c0.104-0.074,0.287-0.01,0.406-0.051c0.2-0.069,0.339-0.263,0.376-0.46c0.016-0.082,0.01-0.145,0.039-0.221
					c0.039-0.103,0.111-0.16,0.09-0.293c-0.01-0.062-0.052-0.12-0.064-0.187c-0.022-0.114,0.002-0.224,0-0.337
					c-0.003-0.2,0.017-0.379-0.078-0.55c-0.38-0.688-1.236-0.929-1.975-0.789c-0.18,0.034-0.287,0.126-0.442,0.207
					c-0.17,0.088-0.139,0.166-0.318,0.224c-0.081,0.026-0.216,0.124-0.215,0.224c0.001,0.115,0.005,0.051,0.012,0.169
					c-0.021,0.011-0.021-0.005-0.03-0.025"/>
				<path fill="#FFFFFF" d="M23.477-10.431c0.018,0.072,0.007,0.127-0.026,0.19c-0.053,0.101-0.112,0.062-0.165,0.128
					c-0.05,0.062-0.099,0.276-0.079,0.362c-0.169,0.058-0.009,0.227-0.015,0.35c-0.002,0.05-0.041,0.105-0.045,0.161
					c-0.01,0.119,0.017,0.266,0.068,0.37c0.097,0.198,0.268,0.413,0.435,0.544c0.19,0.148,0.365,0.572,0.608,0.631
					c0.177,0.042,0.384-0.104,0.543-0.143c0.18-0.043,0.397,0.01,0.571-0.053c0.222-0.079,0.127-0.337,0.288-0.45
					c0.104-0.074,0.287-0.01,0.406-0.051c0.2-0.069,0.339-0.263,0.376-0.46c0.016-0.082,0.01-0.145,0.039-0.221
					c0.039-0.103,0.111-0.16,0.09-0.293c-0.01-0.062-0.052-0.12-0.064-0.187c-0.022-0.114,0.002-0.224,0-0.337
					c-0.003-0.2,0.017-0.379-0.078-0.55c-0.38-0.688-1.236-0.929-1.975-0.789c-0.18,0.034-0.287,0.126-0.442,0.207
					c-0.17,0.088-0.139,0.166-0.318,0.224c-0.081,0.026-0.216,0.124-0.215,0.224c0.001,0.115,0.005,0.051,0.012,0.169
					c-0.021,0.011-0.021-0.005-0.03-0.025"/>
				<path fill="#FFFFFF" d="M15.816-10.431c0.018,0.072,0.007,0.127-0.026,0.19c-0.053,0.101-0.112,0.062-0.165,0.128
					c-0.05,0.062-0.099,0.276-0.079,0.362c-0.169,0.058-0.009,0.227-0.015,0.35c-0.002,0.05-0.041,0.105-0.045,0.161
					c-0.01,0.119,0.017,0.266,0.068,0.37c0.097,0.198,0.268,0.413,0.435,0.544c0.19,0.148,0.365,0.572,0.608,0.631
					c0.177,0.042,0.384-0.104,0.543-0.143c0.18-0.043,0.397,0.01,0.571-0.053C17.933-7.969,17.839-8.227,18-8.34
					c0.104-0.074,0.287-0.01,0.406-0.051c0.2-0.069,0.339-0.263,0.376-0.46c0.016-0.082,0.01-0.145,0.039-0.221
					c0.039-0.103,0.111-0.16,0.09-0.293c-0.01-0.062-0.052-0.12-0.064-0.187c-0.022-0.114,0.002-0.224,0-0.337
					c-0.003-0.2,0.017-0.379-0.078-0.55c-0.38-0.688-1.236-0.929-1.975-0.789c-0.18,0.034-0.287,0.126-0.442,0.207
					c-0.17,0.088-0.139,0.166-0.318,0.224c-0.081,0.026-0.216,0.124-0.215,0.224c0.001,0.115,0.005,0.051,0.012,0.169
					c-0.021,0.011-0.021-0.005-0.03-0.025"/>
				<path fill="#FFFFFF" d="M8.156-10.431c0.018,0.072,0.007,0.127-0.026,0.19c-0.053,0.101-0.112,0.062-0.165,0.128
					C7.915-10.05,7.866-9.836,7.886-9.75C7.717-9.692,7.876-9.523,7.871-9.4C7.868-9.351,7.83-9.295,7.826-9.239
					c-0.01,0.119,0.017,0.266,0.068,0.37c0.097,0.198,0.268,0.413,0.435,0.544c0.19,0.148,0.365,0.572,0.608,0.631
					C9.114-7.652,9.321-7.799,9.48-7.837c0.18-0.043,0.397,0.01,0.571-0.053c0.222-0.079,0.127-0.337,0.288-0.45
					c0.104-0.074,0.287-0.01,0.406-0.051c0.2-0.069,0.339-0.263,0.376-0.46c0.016-0.082,0.01-0.145,0.039-0.221
					c0.039-0.103,0.111-0.16,0.09-0.293c-0.01-0.062-0.052-0.12-0.064-0.187c-0.022-0.114,0.002-0.224,0-0.337
					c-0.003-0.2,0.017-0.379-0.078-0.55c-0.38-0.688-1.236-0.929-1.975-0.789c-0.18,0.034-0.287,0.126-0.442,0.207
					c-0.17,0.088-0.139,0.166-0.318,0.224c-0.081,0.026-0.216,0.124-0.215,0.224c0.001,0.115,0.005,0.051,0.012,0.169
					c-0.021,0.011-0.021-0.005-0.03-0.025"/>
				<path fill="#FFFFFF" d="M0.495-10.431c0.018,0.072,0.007,0.127-0.026,0.19c-0.053,0.101-0.112,0.062-0.165,0.128
					C0.254-10.05,0.205-9.836,0.225-9.75C0.056-9.692,0.215-9.523,0.21-9.4c-0.002,0.05-0.041,0.105-0.045,0.161
					c-0.01,0.119,0.017,0.266,0.068,0.37C0.33-8.671,0.501-8.456,0.668-8.325c0.19,0.148,0.365,0.572,0.608,0.631
					C1.454-7.652,1.66-7.799,1.819-7.837C2-7.88,2.217-7.827,2.391-7.89c0.222-0.079,0.127-0.337,0.288-0.45
					c0.104-0.074,0.287-0.01,0.406-0.051c0.2-0.069,0.339-0.263,0.376-0.46C3.477-8.933,3.471-8.995,3.5-9.071
					c0.039-0.103,0.111-0.16,0.09-0.293c-0.01-0.062-0.052-0.12-0.064-0.187c-0.022-0.114,0.002-0.224,0-0.337
					c-0.003-0.2,0.017-0.379-0.078-0.55c-0.38-0.688-1.236-0.929-1.975-0.789c-0.18,0.034-0.287,0.126-0.442,0.207
					c-0.17,0.088-0.139,0.166-0.318,0.224c-0.081,0.026-0.216,0.124-0.215,0.224c0.001,0.115,0.005,0.051,0.012,0.169
					c-0.021,0.011-0.021-0.005-0.03-0.025"/>
			</g>
		</g>
		<g>
			<path fill="#FFFFFF" d="M69.439-2.778c0.018,0.072,0.008,0.127-0.026,0.19C69.361-2.487,69.3-2.525,69.248-2.46
				c-0.051,0.062-0.099,0.276-0.079,0.362C69-2.04,69.159-1.871,69.154-1.748c-0.002,0.05-0.041,0.105-0.045,0.161
				c-0.01,0.119,0.017,0.266,0.068,0.37c0.097,0.198,0.268,0.413,0.435,0.544c0.19,0.148,0.365,0.572,0.608,0.631
				C70.397,0,70.604-0.146,70.763-0.185c0.18-0.043,0.397,0.01,0.571-0.053c0.222-0.079,0.127-0.337,0.288-0.45
				c0.104-0.074,0.287-0.01,0.406-0.051c0.2-0.07,0.339-0.263,0.376-0.46c0.016-0.082,0.01-0.145,0.039-0.221
				c0.038-0.103,0.111-0.16,0.09-0.293c-0.01-0.062-0.051-0.12-0.064-0.187c-0.021-0.114,0.002-0.224,0-0.337
				c-0.003-0.2,0.017-0.379-0.078-0.55c-0.38-0.688-1.236-0.929-1.975-0.789c-0.18,0.034-0.287,0.126-0.442,0.207
				c-0.17,0.088-0.139,0.166-0.318,0.224c-0.081,0.026-0.215,0.124-0.215,0.224c0.002,0.115,0.005,0.051,0.012,0.169
				c-0.021,0.011-0.021-0.005-0.03-0.025"/>
			<path fill="#FFFFFF" d="M61.778-2.778c0.018,0.072,0.007,0.127-0.026,0.19C61.7-2.487,61.64-2.525,61.587-2.46
				c-0.05,0.062-0.099,0.276-0.079,0.362c-0.169,0.058-0.01,0.227-0.015,0.35c-0.002,0.05-0.041,0.105-0.045,0.161
				c-0.01,0.119,0.017,0.266,0.068,0.37c0.097,0.198,0.268,0.413,0.435,0.544c0.19,0.148,0.365,0.572,0.608,0.631
				C62.737,0,62.943-0.146,63.103-0.185c0.18-0.043,0.397,0.01,0.571-0.053c0.222-0.079,0.127-0.337,0.288-0.45
				c0.104-0.074,0.287-0.01,0.406-0.051c0.2-0.069,0.339-0.263,0.376-0.46c0.016-0.082,0.01-0.145,0.039-0.221
				c0.039-0.103,0.111-0.16,0.09-0.293c-0.01-0.062-0.052-0.12-0.064-0.187c-0.022-0.114,0.002-0.224,0-0.337
				c-0.003-0.2,0.017-0.379-0.078-0.55c-0.38-0.688-1.236-0.929-1.975-0.789c-0.18,0.034-0.287,0.126-0.442,0.207
				c-0.17,0.088-0.139,0.166-0.318,0.224C61.915-3.117,61.78-3.02,61.781-2.92c0.001,0.115,0.005,0.051,0.012,0.169
				c-0.021,0.011-0.021-0.005-0.03-0.025"/>
			<path fill="#FFFFFF" d="M54.118-2.778c0.018,0.072,0.007,0.127-0.026,0.19C54.04-2.487,53.98-2.525,53.927-2.46
				c-0.05,0.062-0.099,0.276-0.079,0.362c-0.169,0.058-0.01,0.227-0.015,0.35c-0.002,0.05-0.041,0.105-0.045,0.161
				c-0.01,0.119,0.017,0.266,0.068,0.37c0.097,0.198,0.268,0.413,0.435,0.544c0.19,0.148,0.365,0.572,0.608,0.631
				C55.077,0,55.283-0.146,55.442-0.185c0.18-0.043,0.397,0.01,0.571-0.053c0.222-0.079,0.127-0.337,0.288-0.45
				c0.104-0.074,0.287-0.01,0.406-0.051c0.2-0.069,0.339-0.263,0.376-0.46c0.016-0.082,0.01-0.145,0.039-0.221
				c0.039-0.103,0.111-0.16,0.09-0.293c-0.01-0.062-0.052-0.12-0.064-0.187c-0.022-0.114,0.002-0.224,0-0.337
				c-0.003-0.2,0.017-0.379-0.078-0.55c-0.38-0.688-1.236-0.929-1.975-0.789c-0.18,0.034-0.287,0.126-0.442,0.207
				c-0.17,0.088-0.139,0.166-0.318,0.224C54.255-3.117,54.12-3.02,54.121-2.92c0.001,0.115,0.005,0.051,0.012,0.169
				c-0.021,0.011-0.021-0.005-0.03-0.025"/>
			<path fill="#FFFFFF" d="M46.458-2.778c0.018,0.072,0.007,0.127-0.026,0.19c-0.053,0.101-0.112,0.062-0.165,0.128
				c-0.05,0.062-0.099,0.276-0.079,0.362c-0.169,0.058-0.01,0.227-0.015,0.35c-0.002,0.05-0.041,0.105-0.045,0.161
				c-0.01,0.119,0.017,0.266,0.068,0.37c0.097,0.198,0.268,0.413,0.435,0.544c0.19,0.148,0.365,0.572,0.608,0.631
				C47.416,0,47.623-0.146,47.782-0.185c0.18-0.043,0.397,0.01,0.571-0.053c0.222-0.079,0.127-0.337,0.288-0.45
				c0.104-0.074,0.287-0.01,0.406-0.051c0.2-0.069,0.339-0.263,0.376-0.46c0.016-0.082,0.01-0.145,0.039-0.221
				c0.039-0.103,0.111-0.16,0.09-0.293c-0.01-0.062-0.052-0.12-0.064-0.187c-0.022-0.114,0.002-0.224,0-0.337
				c-0.003-0.2,0.017-0.379-0.078-0.55c-0.38-0.688-1.236-0.929-1.975-0.789c-0.18,0.034-0.287,0.126-0.442,0.207
				c-0.17,0.088-0.139,0.166-0.318,0.224C46.594-3.117,46.459-3.02,46.46-2.92c0.001,0.115,0.005,0.051,0.012,0.169
				c-0.021,0.011-0.021-0.005-0.03-0.025"/>
			<path fill="#FFFFFF" d="M38.797-2.778c0.018,0.072,0.007,0.127-0.026,0.19c-0.053,0.101-0.112,0.062-0.165,0.128
				c-0.05,0.062-0.099,0.276-0.079,0.362c-0.169,0.058-0.01,0.227-0.015,0.35c-0.002,0.05-0.041,0.105-0.045,0.161
				c-0.01,0.119,0.017,0.266,0.068,0.37c0.097,0.198,0.268,0.413,0.435,0.544c0.19,0.148,0.365,0.572,0.608,0.631
				C39.756,0,39.962-0.146,40.122-0.185c0.18-0.043,0.397,0.01,0.571-0.053c0.222-0.079,0.127-0.337,0.288-0.45
				c0.104-0.074,0.287-0.01,0.406-0.051c0.2-0.069,0.339-0.263,0.376-0.46c0.016-0.082,0.01-0.145,0.039-0.221
				c0.039-0.103,0.111-0.16,0.09-0.293c-0.01-0.062-0.052-0.12-0.064-0.187c-0.022-0.114,0.002-0.224,0-0.337
				c-0.003-0.2,0.017-0.379-0.078-0.55c-0.38-0.688-1.236-0.929-1.975-0.789c-0.18,0.034-0.287,0.126-0.442,0.207
				c-0.17,0.088-0.139,0.166-0.318,0.224C38.934-3.117,38.799-3.02,38.8-2.92c0.001,0.115,0.005,0.051,0.012,0.169
				c-0.021,0.011-0.021-0.005-0.03-0.025"/>
			<path fill="#FFFFFF" d="M31.137-2.778c0.018,0.072,0.007,0.127-0.026,0.19c-0.053,0.101-0.112,0.062-0.165,0.128
				c-0.05,0.062-0.099,0.276-0.079,0.362c-0.169,0.058-0.01,0.227-0.015,0.35c-0.002,0.05-0.041,0.105-0.045,0.161
				c-0.01,0.119,0.017,0.266,0.068,0.37c0.097,0.198,0.268,0.413,0.435,0.544c0.19,0.148,0.365,0.572,0.608,0.631
				C32.095,0,32.302-0.146,32.461-0.185c0.18-0.043,0.397,0.01,0.571-0.053c0.222-0.079,0.127-0.337,0.288-0.45
				c0.104-0.074,0.287-0.01,0.406-0.051c0.2-0.069,0.339-0.263,0.376-0.46c0.016-0.082,0.01-0.145,0.039-0.221
				c0.039-0.103,0.111-0.16,0.09-0.293c-0.01-0.062-0.052-0.12-0.064-0.187c-0.022-0.114,0.002-0.224,0-0.337
				c-0.003-0.2,0.017-0.379-0.078-0.55c-0.38-0.688-1.236-0.929-1.975-0.789c-0.18,0.034-0.287,0.126-0.442,0.207
				c-0.17,0.088-0.139,0.166-0.318,0.224C31.273-3.117,31.139-3.02,31.14-2.92c0.001,0.115,0.005,0.051,0.012,0.169
				c-0.021,0.011-0.021-0.005-0.03-0.025"/>
			<path fill="#FFFFFF" d="M23.477-2.778c0.018,0.072,0.007,0.127-0.026,0.19c-0.053,0.101-0.112,0.062-0.165,0.128
				c-0.05,0.062-0.099,0.276-0.079,0.362c-0.169,0.058-0.01,0.227-0.015,0.35c-0.002,0.05-0.041,0.105-0.045,0.161
				c-0.01,0.119,0.017,0.266,0.068,0.37c0.097,0.198,0.268,0.413,0.435,0.544c0.19,0.148,0.365,0.572,0.608,0.631
				C24.435,0,24.642-0.146,24.801-0.185c0.18-0.043,0.397,0.01,0.571-0.053c0.222-0.079,0.127-0.337,0.288-0.45
				c0.104-0.074,0.287-0.01,0.406-0.051c0.2-0.069,0.339-0.263,0.376-0.46c0.016-0.082,0.01-0.145,0.039-0.221
				c0.039-0.103,0.111-0.16,0.09-0.293c-0.01-0.062-0.052-0.12-0.064-0.187c-0.022-0.114,0.002-0.224,0-0.337
				c-0.003-0.2,0.017-0.379-0.078-0.55c-0.38-0.688-1.236-0.929-1.975-0.789c-0.18,0.034-0.287,0.126-0.442,0.207
				c-0.17,0.088-0.139,0.166-0.318,0.224c-0.081,0.026-0.216,0.124-0.215,0.224c0.001,0.115,0.005,0.051,0.012,0.169
				c-0.021,0.011-0.021-0.005-0.03-0.025"/>
			<path fill="#FFFFFF" d="M15.816-2.778c0.018,0.072,0.007,0.127-0.026,0.19c-0.053,0.101-0.112,0.062-0.165,0.128
				c-0.05,0.062-0.099,0.276-0.079,0.362c-0.169,0.058-0.01,0.227-0.015,0.35c-0.002,0.05-0.041,0.105-0.045,0.161
				c-0.01,0.119,0.017,0.266,0.068,0.37c0.097,0.198,0.268,0.413,0.435,0.544c0.19,0.148,0.365,0.572,0.608,0.631
				C16.774,0,16.981-0.146,17.14-0.185c0.18-0.043,0.397,0.01,0.571-0.053c0.222-0.079,0.127-0.337,0.288-0.45
				c0.104-0.074,0.287-0.01,0.406-0.051c0.2-0.069,0.339-0.263,0.376-0.46c0.016-0.082,0.01-0.145,0.039-0.221
				c0.039-0.103,0.111-0.16,0.09-0.293c-0.01-0.062-0.052-0.12-0.064-0.187c-0.022-0.114,0.002-0.224,0-0.337
				c-0.003-0.2,0.017-0.379-0.078-0.55c-0.38-0.688-1.236-0.929-1.975-0.789c-0.18,0.034-0.287,0.126-0.442,0.207
				c-0.17,0.088-0.139,0.166-0.318,0.224c-0.081,0.026-0.216,0.124-0.215,0.224c0.001,0.115,0.005,0.051,0.012,0.169
				C15.81-2.74,15.809-2.756,15.8-2.776"/>
			<path fill="#FFFFFF" d="M8.156-2.778c0.018,0.072,0.007,0.127-0.026,0.19C8.077-2.487,8.018-2.525,7.965-2.46
				c-0.05,0.062-0.099,0.276-0.079,0.362c-0.169,0.058-0.01,0.227-0.015,0.35C7.868-1.698,7.83-1.643,7.826-1.587
				c-0.01,0.119,0.017,0.266,0.068,0.37c0.097,0.198,0.268,0.413,0.435,0.544c0.19,0.148,0.365,0.572,0.608,0.631
				C9.114,0,9.321-0.146,9.48-0.185c0.18-0.043,0.397,0.01,0.571-0.053c0.222-0.079,0.127-0.337,0.288-0.45
				c0.104-0.074,0.287-0.01,0.406-0.051c0.2-0.069,0.339-0.263,0.376-0.46c0.016-0.082,0.01-0.145,0.039-0.221
				c0.039-0.103,0.111-0.16,0.09-0.293c-0.01-0.062-0.052-0.12-0.064-0.187c-0.022-0.114,0.002-0.224,0-0.337
				c-0.003-0.2,0.017-0.379-0.078-0.55c-0.38-0.688-1.236-0.929-1.975-0.789C8.954-3.54,8.847-3.448,8.692-3.367
				c-0.17,0.088-0.139,0.166-0.318,0.224C8.292-3.117,8.158-3.02,8.159-2.92C8.16-2.805,8.164-2.869,8.17-2.751
				C8.15-2.74,8.149-2.756,8.14-2.776"/>
			<path fill="#FFFFFF" d="M0.495-2.778c0.018,0.072,0.008,0.127-0.026,0.19C0.417-2.487,0.356-2.525,0.304-2.46
				C0.253-2.397,0.205-2.184,0.225-2.098C0.056-2.04,0.215-1.871,0.21-1.748c-0.002,0.05-0.041,0.105-0.045,0.161
				c-0.01,0.119,0.017,0.266,0.068,0.37C0.33-1.019,0.501-0.804,0.668-0.673c0.19,0.148,0.365,0.572,0.608,0.631
				C1.454,0,1.66-0.146,1.819-0.185C2-0.228,2.217-0.175,2.391-0.237c0.222-0.079,0.127-0.337,0.288-0.45
				c0.104-0.074,0.287-0.01,0.406-0.051c0.2-0.07,0.339-0.263,0.376-0.46C3.477-1.28,3.471-1.343,3.5-1.419
				c0.038-0.103,0.111-0.16,0.09-0.293c-0.01-0.062-0.051-0.12-0.064-0.187c-0.021-0.114,0.002-0.224,0-0.337
				c-0.003-0.2,0.017-0.379-0.078-0.55c-0.38-0.688-1.236-0.929-1.975-0.789C1.293-3.54,1.187-3.448,1.031-3.367
				c-0.17,0.088-0.139,0.166-0.318,0.224C0.632-3.117,0.498-3.02,0.498-2.92C0.5-2.805,0.503-2.869,0.51-2.751
				C0.489-2.74,0.488-2.756,0.479-2.776"/>
		</g>
	</g>
</pattern>
<g>
	<g>
		<g>
			<path fill="#0094AA" d="M22.839,44.917H4.127V5.085h17.404c8.349,0,13.859,3.983,13.859,10.693c0,3.986-2.565,7.204-6,8.512
				c4.58,0.654,8.073,4.75,8.073,9.328C37.463,40.767,31.788,44.917,22.839,44.917z M18.586,13.979h-2.018v7.426h2.018
				c3.6,0,5.453-1.258,5.453-3.881C24.04,14.851,22.076,13.979,18.586,13.979z M20.606,28.603h-4.038v7.424h4.038
				c3.708,0,5.073-1.42,5.073-3.87C25.68,29.745,23.876,28.603,20.606,28.603z"/>
			<path fill="#0094AA" d="M74.397,44.917l-2.128-7.258H60.596l-2.125,7.258h-12.72L59.558,5.085h14.404l13.804,39.832H74.397z
				 M66.432,17.956l-3,10.1h6L66.432,17.956z"/>
			<path fill="#0094AA" d="M116.216,45.567c-11.024,0-19.315-5.67-19.315-18.982v-21.5h13.312v22.871c0,4.3,2.295,7.029,6.003,7.029
				s6.003-2.729,6.003-7.029V5.085h13.314v21.5C135.533,39.897,127.234,45.567,116.216,45.567z"/>
			<path fill="#0094AA" d="M162.832,45.567c-6.488,0-12.105-2.344-15.818-5.566l5.293-8.453c3.705,2.951,6.926,4.318,10.365,4.318
				c1.91,0,3.273-0.828,3.273-2.19c0-1.907-1.525-2.615-6.383-4.093c-7.256-2.235-10.914-5.346-10.914-11.895
				c0-8.62,6.766-13.256,16.424-13.256c5.184,0,10.256,1.908,12.93,4.035l-5.236,8.676c-2.728-1.962-5.24-2.997-8.184-2.997
				c-2.51,0-3.439,1.09-3.439,2.232c0,1.255,0.93,2.022,6.168,3.548c7.198,2.07,11.126,4.854,11.126,12.329
				C178.437,40.227,172.438,45.567,162.832,45.567z"/>
			<path fill="#0094AA" d="M210.318,45.567c-12.111,0-20.787-8.506-20.787-20.397c0-11.901,9.006-20.737,21.005-20.737
				c6.384,0,10.642,2.73,14.077,5.679l-6.547,8.888c-2.234-2.182-4.365-3.71-7.803-3.71c-4.421,0-7.696,3.823-7.696,9.551
				c0,5.729,3.168,9.868,8.464,9.868c2.943,0,5.673-1.305,8.016-3.484l6.389,8.674C221.612,43.224,217.302,45.567,210.318,45.567z"
				/>
			<path fill="#0094AA" d="M261.416,44.917V31.003H251.38v13.914h-13.31V5.085h13.31v14.68h10.036V5.085h13.322v39.832H261.416z"/>
			<path fill="#0094AA" d="M349.738,44.917V5.085h12.771v29.684h13.04v10.148H349.738z"/>
			<path fill="#0094AA" d="M404.278,45.567c-12.5,0-21.394-8.619-21.394-20.51c0-11.895,9.004-20.625,21.504-20.625
				c12.488,0,21.387,8.623,21.387,20.512C425.775,36.841,416.767,45.567,404.278,45.567z M404.278,15.017
				c-4.858,0-8.349,4.2-8.349,9.928c0,5.727,3.6,10.041,8.459,10.041c4.853,0,8.342-4.199,8.342-9.928
				C412.73,19.327,409.131,15.017,404.278,15.017z"/>
			<path fill="#0094AA" d="M466.627,44.917V25.495l-6.168,11.566H454.4l-6.331-11.566v19.422h-12.546V5.085h12.924l9.066,15.887
				l8.395-15.887h14.025v39.832H466.627z"/>
			<path fill="#0094AA" d="M511.252,44.917h-18.72V5.085h17.409c8.354,0,13.867,3.983,13.867,10.693
				c0,3.986-2.568,7.204-6.006,8.512c4.581,0.654,8.07,4.75,8.07,9.328C525.873,40.767,520.203,44.917,511.252,44.917z
				 M506.996,13.979h-2.018v7.426h2.018c3.605,0,5.461-1.258,5.461-3.881C512.457,14.851,510.491,13.979,506.996,13.979z
				 M509.02,28.603h-4.041v7.424h4.041c3.71,0,5.072-1.42,5.072-3.87C514.092,29.745,512.29,28.603,509.02,28.603z"/>
		</g>
	</g>
	<g>
		<rect x="305.795" y="18.538" fill="#0094AA" width="12.871" height="12.932"/>
		<g>
			<rect x="305.797" y="5.085" fill="#7EC49F" width="12.868" height="13.455"/>
			<rect x="305.797" y="31.468" fill="#7EC49F" width="12.868" height="13.453"/>
		</g>
		<g>
			<rect x="292.282" y="18.538" fill="#62C6E9" width="13.515" height="12.93"/>
			<rect x="318.665" y="18.538" fill="#62C6E9" width="13.448" height="12.93"/>
		</g>
	</g>
</g>
</svg>
