<svg version="1.1" id="Layer_1" xmlns:x="ns_extend;" xmlns:i="ns_ai;" xmlns:graph="ns_graphs;" xmlns="http://www.w3.org/2000/svg" xmlns:xlink="http://www.w3.org/1999/xlink" x="0px" y="0px" viewBox="0 0 356.8 177" style="enable-background:new 0 0 356.8 177;" xml:space="preserve">
 <style type="text/css">
  .st0{fill:#FFFFFF;}
 </style>
 <metadata>
  <sfw xmlns="ns_sfw;">
   <slices>
   </slices>
   <sliceSourceBounds bottomLeftOrigin="true" height="177" width="356.8" x="-301" y="-260.9">
   </sliceSourceBounds>
  </sfw>
 </metadata>
 <g>
  <g transform="translate(0 0)">
   <path class="st0" d="M236.6,92c-6.5,0-9.2,19.4-9.2,22.6c0,2.9,1,4.2,3.5,4.2c6.5,0,9.2-19.5,9.2-22.6C240.1,93,238.9,92,236.6,92
			z">
   </path>
   <path class="st0" d="M108.6,95.2c-3.3,3.9-5.3,12.9-5.3,18.7c0,3.2,0.9,4.5,3.1,4.5c2.4-0.7,4.4-2.4,5.5-4.8l4.3-20.3
			c-0.5-0.4-1.2-0.6-1.9-0.6C112.1,92.5,109.9,93.5,108.6,95.2z">
   </path>
   <path class="st0" d="M0,62.6L20.5,177l336.3-59.5V0L0,62.6z M59.6,128.6H22.1L35.4,66h36.4l-4,13.2H48.7l-2.2,10.5h15.6l-2.7,12.8
			H43.7L41,115.2h21.5L59.6,128.6z M76.3,129.8c-13.2,0-12-6.8-10.1-16.1l6.7-31.6c1.5-5.5,2.3-11.1,2.4-16.8l16.3-2.7
			c0,3.9-0.4,7.8-1.3,11.6l-7.4,34.4c-1.7,8.2-1.9,10.3,1.6,10.3c0.6,0,1.2-0.1,1.7-0.3l0.5,9.7C83.3,129.4,79.8,129.8,76.3,129.8
			L76.3,129.8z M116.5,130.4c-1.9-1.3-3.1-3.3-3.5-5.5c-3.2,3.2-7.5,5-12,5.1c-9.4,0-13.4-5.9-13.4-15.8c-0.1-9.7,3.5-19,10-26.1
			c5.3-5.3,11-7,19.1-7c6-0.2,12,0.8,17.7,2.8c-1.5,4.1-2.7,8.4-3.5,12.7l-3.5,16.7c-0.5,2.5,0.2,5.1,1.8,7L116.5,130.4z
			 M154.5,128.6l6.3-29.6c0.8-3.6,0.4-5.2-2.2-5.2c-2.8,0.1-5.3,1.8-6.5,4.3l-6.6,30.5h-15.6l6.2-29.2c1.4-5.1,1.8-10.4,1.3-15.7
			l13.8-2.6c0.4,1.6,0.7,3.3,0.8,5c4-3.3,9-5,14.1-5c11.6,0,12.8,6.6,11.3,13.3l-7.3,34.2L154.5,128.6z M192.9,129.8
			c-12.9,0-19.2-8.3-15.9-23.9c3.3-15.7,12.8-24.8,26.5-24.8c5.3-0.4,10.4,1.6,14,5.5l-9.2,9.4c-1.3-2-3.5-3.2-5.8-3.4
			c-3.6,0-6.3,2.9-8.3,12.3c-2,9.4-1.8,13.3,2.7,13.3c3.5-0.1,6.9-1.6,9.3-4.1l4.7,9.2C205.9,127.5,199.5,129.8,192.9,129.8
			L192.9,129.8z M228.3,129.8c-11,0-17.2-6-17.2-16.7c0-11.9,6.5-32,28.4-32c9.7,0,17.2,4.8,17.2,16.4
			C256.6,109.7,249.9,129.8,228.3,129.8L228.3,129.8z">
   </path>
  </g>
  <path class="st0" d="M345.4,126.8h1.8v4.9h0.8v-4.9h1.8V126h-4.5L345.4,126.8z">
  </path>
  <path class="st0" d="M352,131.7v-5.2h0l1.6,5.2h0.7l1.6-5.2h0v5.2h0.8V126h-1.5l-1.3,4.2h0l-1.3-4.2h-1.5v5.7H352z">
  </path>
 </g>
</svg>