<?xml version="1.0" encoding="utf-8"?><svg version="1.1" xmlns="http://www.w3.org/2000/svg" x="0px" y="0px" width="300px" height="64.94px">
<path fill="#005DAA" d="M74.83,64.18l-4.11-10.92H57.33l-4.11,10.92h-5.76l14.21-37h4.93l14.09,37H74.83z M68.84,48.33l-4.7-14.09
	h-0.12l-4.82,14.09H68.84z M88.57,27.19h9.63c10.57,0,11.63,7.63,11.63,10.22c0,4.11-2.11,5.87-3.29,7.05
	c1.53,0.94,5.52,3.29,5.52,9.04c0,3.76-2.11,10.81-12.33,10.81H88.57C88.57,64.3,88.57,27.19,88.57,27.19z M93.98,42.57h4.46
	c5.05,0,5.99-3.05,5.99-5.17c0-5.29-5.05-5.29-6.34-5.29h-4.11V42.57z M93.98,59.25h5.87c5.52,0,6.69-3.88,6.69-5.76
	c0-1.29-0.59-2.7-1.29-3.64c-1.64-2.23-4.23-2.23-6.11-2.23h-5.29v11.63H93.98z M121.22,27.19h5.4v37h-5.4V27.19z M155.29,64.89
	c-11.16,0-19.38-9.04-19.38-19.26c0-10.1,7.99-19.14,19.38-19.14c11.04,0,19.38,8.81,19.38,19.26
	C174.66,55.84,166.33,64.89,155.29,64.89 M155.29,31.41c-9.63,0-13.98,8.34-13.98,14.21c0,6.11,4.35,14.21,13.98,14.21
	s13.98-8.34,13.98-14.09C169.26,39.28,164.56,31.41,155.29,31.41 M218,64.18V32.94h-0.23l-12.45,31.24h-3.29l-12.57-31.24h-0.12
	v31.24h-5.52v-37h8.57l11.16,28.31l11.28-28.31h8.57v37H218z M236.44,64.18v-37h20.08v4.93h-14.68v10.92h14.68v4.93h-14.68v11.28
	h14.68v4.93H236.44z M268.63,27.19h12.1c7.75,0,12.33,2.94,15.15,6.81c2.7,3.76,3.88,8.22,3.88,11.75c0,5.05-1.88,10.34-4.7,13.04
	c-4.23,4.23-9.28,5.4-14.56,5.4h-11.86V27.19z M274.15,59.25h6.46c6.58,0,13.74-3.29,13.74-13.51c0-5.64-3.52-13.62-13.62-13.62
	h-6.58L274.15,59.25L274.15,59.25z M9.41,21.31c-3.88,0-7.05,3.29-7.05,7.28v5.05c0,3.99,3.17,7.28,7.05,7.28h3.17
	c3.88,0,7.05-3.29,7.05-7.28v-5.05c0-3.99-3.17-7.28-7.05-7.28C12.58,21.31,9.41,21.31,9.41,21.31z M5.42,33.76v-5.05
	c0-2.35,1.76-4.23,3.99-4.23h3.17c2.23,0,3.99,1.88,3.99,4.23v5.05c0,2.35-1.76,4.23-3.99,4.23H9.41
	C7.18,37.99,5.42,36.11,5.42,33.76 M6.94,0.05c-3.64,0-6.69,3.17-6.69,6.93v4.82c0,3.88,3.05,6.93,6.69,6.93h2.94
	c3.76,0,6.69-3.17,6.69-6.93V6.98c0.12-3.76-2.94-6.93-6.58-6.93H6.94z M3.3,11.8V6.98c0-2.11,1.64-3.88,3.64-3.88h2.94
	c2,0,3.64,1.76,3.64,3.88v4.82c0,2.11-1.64,3.88-3.64,3.88H6.94C4.95,15.68,3.3,13.91,3.3,11.8"/>
<path fill="#A30046" d="M30.55,22.49c-4.7,0-8.46,3.99-8.46,8.93v6.46c0,4.93,3.76,8.93,8.46,8.93h3.99c4.7,0,8.46-3.99,8.46-8.93
	v-6.46c0-4.93-3.76-8.93-8.46-8.93H30.55z M25.15,37.87v-6.46c0-3.17,2.47-5.87,5.4-5.87h3.99c2.94,0,5.4,2.58,5.4,5.87v6.46
	c0,3.17-2.47,5.87-5.4,5.87h-3.99C27.5,43.75,25.15,41.04,25.15,37.87 M25.97,1.23c-3.76,0-6.81,3.17-6.81,7.05v4.82
	c0,3.88,3.05,7.05,6.81,7.05h3.05c3.76,0,6.81-3.17,6.81-7.05V8.28c0-3.88-3.05-7.05-6.81-7.05H25.97z M22.33,13.09V8.28
	c0-2.11,1.64-3.88,3.76-3.88h3.05c2,0,3.76,1.76,3.76,3.88v4.82c0,2.11-1.64,3.99-3.76,3.99h-3.05
	C23.98,16.97,22.33,15.21,22.33,13.09"/>
</svg>
