<?xml version="1.0"?>
<svg xmlns="http://www.w3.org/2000/svg" xmlns:xlink="http://www.w3.org/1999/xlink" viewBox="0 0 1805.7369385 874.6264038" width="454" height="220"
 style="enable-background:new 0 0 1805.7369385 874.6264038;" xml:space="preserve">
<style type="text/css">
	.st0{fill:#FDFDFD;}
	.st1{fill:#2CA536;}
	.st2{fill:#2A6C88;}
	.st3{fill:#002F43;}
	.st4{fill:#31912F;}
	.st5{fill:#288E2D;}
	.st6{fill:#17536A;}
</style>
			<path class="st0" d="M1332.7972412,3.2960508c-5.5231934-1.028429-11.0214844-2.745286-16.5744629-2.9448032
				c-12.2998047-0.441925-24.635376-0.386899-36.9388428,0.0098419c-5.4036865,0.1742496-10.9468994,1.0910501-16.1086426,2.6949615
				c-12.4937744,3.8822324-19.9378662,13.6877365-25.46875,24.6593418
				c-6.1740723,12.2475624-11.2369385,25.0553627-16.7833252,37.619339"/>
			<path class="st1" d="M378.3615723,867.187439c-25.6715088,0-50.3262329,0.0233765-74.980896-0.0202637
				c-4.7914734-0.0084839-10.7965088,1.4171753-14.0339661-0.9014282
				c-3.2705078-2.3423462-3.8720398-8.4880981-5.5137939-13.0144653
				c-6.5732422-18.1228027-13.1885681-36.2315063-19.5524597-54.4279175
				c-1.1348572-3.2449951-2.6124268-4.2432861-6.0324097-4.2346802
				c-48.1602325,0.1206665-96.3210907,0.1422729-144.4810181-0.031311
				c-4.3953705-0.0158081-6.3739319,1.2710571-7.8004303,5.4511108
				c-7.6193466,22.3272705-15.5593948,44.5450439-23.4499588,66.9752197c-27.3389244,0-54.6331863,0-82.5166321,0
				c4.0311985-10.6968384,7.9085369-21.0980835,11.8661633-31.468811
				c26.2630348-68.8201294,52.5569916-137.62854,78.8131866-206.4512939
				c18.4290848-48.3063965,36.8273392-96.6245117,55.1852264-144.9579163
				c1.045166-2.751709,2.2743378-4.1885986,5.6400299-4.1636963c23.6622467,0.1748962,47.3269653,0.1790771,70.9892273,0.0084839
				c3.5077209-0.0252991,4.8881683,1.3035278,6.0698853,4.3527222
				c10.2732544,26.5078735,20.7185669,52.9490662,31.0805664,79.4226379
				c18.3561401,46.897644,36.6845093,93.8062134,55.0341797,140.7064819
				c19.0864258,48.7833252,38.1846924,97.5620117,57.2763977,146.3432617
				C373.999939,856.0009155,376.0361023,861.2296753,378.3615723,867.187439z M185.5716095,570.6021118
				c-17.8554993,52.6387329-35.6952362,105.230957-53.5831299,157.96521c35.780426,0,71.2573853,0,107.1679535,0
				C221.2165222,675.3862915,199.7551575,624.0036011,185.5716095,570.6021118z"/>
			<path class="st2" d="M981.8771973,3.1836526c22.9589233-4.1646013,46.0836182-3.411521,69.2059326-2.1995163
				c14.1999512,0.7443123,24.8155518,7.8723912,32.6094971,19.420042c3.2380371,4.7975197,6.060791,9.8753548,9.0723877,14.8256378
				l-0.0084229-0.0164719c3.3421631,7.9220352,6.7556152,15.8149643,10.012207,23.772171
				c7.3918457,18.061924,14.7064209,36.1554222,22.0524902,54.2360878
				c-0.1049805,0.3493423-0.0352783,0.6594391,0.2089844,0.9303055c2.3244629,6.0021439,4.5767822,12.0333633,6.9862061,18.0011978
				c8.2261963,20.3757019,16.5075684,40.7291412,24.7679443,61.0910492l-0.0257568-0.0407104
				c2.3502197,5.6177521,4.7005615,11.2355347,7.0509033,16.8533325c2.6136475,6.9704742,5.0806885,14.0001526,7.8669434,20.901001
				c10.9909668,27.2212677,21.8963623,54.4799042,33.2407227,81.5540314
				c3.7856445,9.0348816,8.949585,17.4406128,17.5402832,23.0092468c6.6053467,4.2815857,13.1853027,3.7348938,19.0563965-1.4315491
				c0.9387207-0.8261719,2.2080078-1.2767334,3.3243408-1.9009705
				c-6.3188477,11.7990112-11.9940186,24.0067139-19.1480713,35.2755432
				c-6.4052734,10.0892944-17.1634521,14.2419434-28.7821045,14.5371704
				c-20.9804688,0.5331116-41.9805908,0.5114746-62.970459,0.3815918
				c-17.0948486-0.1057434-30.4274902-7.7828979-38.3890381-22.7617798
				c-7.7016602-14.4899292-14.5845947-29.4873352-20.7963867-44.6831055
				c-18.1802979-44.4733276-35.8425293-89.1584625-53.736145-133.7491608
				c-0.5368652-1.3378601-1.3900146-2.5488129-2.095459-3.8195496c-0.5404053-2.07547-0.8643799-4.236969-1.6542969-6.2121582
				c-10.8309326-27.0837097-21.6552124-54.1705017-32.6356201-81.1937637
				c-5.4247437-13.350647-10.7511597-26.7528419-19.9025879-38.2232399
				c-6.1027832-7.6492538-13.8832397-9.0401306-21.7597046-3.3728447c-0.6015625,0.432888-1.5252686,0.4179535-2.2993774,0.6114044
				c8.3483276-20.1101875,18.888916-38.2482147,41.2020874-45.794239L981.8771973,3.1836526z"/>
			<path class="st1" d="M692.8668213,3.2120473c19.4050293-4.1879301,39.1138916-2.4273949,58.7061768-3.1599779
				c23.2765503-0.8703375,39.5293579,9.1676912,49.7109375,29.7840519c0.9417114,1.9068642,2.208313,3.6532593,3.3237305,5.4738655
				l0.0252686,0.0165749c4.112793,9.9644394,8.2481079,19.9200935,12.333313,29.8962173
				c6.5997314,16.1166229,13.1665649,32.2466888,19.7471924,48.3710938
				c0.1332397,0.5184708,0.2664795,1.0369415,0.3996582,1.5554199
				c11.5606689,29.0729828,23.1020508,58.1536865,34.7141724,87.2060852
				c1.0757446,2.6914063,2.6015625,5.2029266,3.918396,7.7979431c3.4481201,9.462677,6.7041626,19.0008392,10.3869629,28.3712616
				c6.3616333,16.1861572,12.9767456,32.2728119,19.5070801,48.3924713
				c6.0845947,15.0194397,11.1002197,30.5220032,22.0610962,43.1291199
				c8.9661865,10.3128357,20.9090576,10.9153748,27.5046997,1.5658264c0.3960571-0.5614014,1.3509521-0.7285461,2.0457764-1.0791321
				c-6.3027954,12.0393982-11.8880615,24.5314026-19.1138916,35.9887085
				c-6.979187,11.0661316-18.6658936,15.2546997-31.381958,15.4690857
				c-20.9801025,0.3536987-41.9744873,0.4589844-62.9530029,0.0971985
				c-13.9561157-0.2406616-25.2268677-6.3585205-33.5436401-17.8069153
				c-9.4920654-13.0661316-15.3765869-27.9049988-21.3252563-42.7103577
				c-15.6202393-38.8766785-31.1304321-77.7975311-46.7415161-116.6778717
				c-3.0218506-7.526001-6.3024292-14.9481049-9.4625854-22.4183197c-0.4382324-0.6742249-1.0221558-1.2945557-1.2952271-2.0302734
				c-5.2796631-14.2221985-10.3151855-28.5391235-15.8388672-42.6653137
				c-4.4868774-11.474762-9.7258911-22.653717-14.3119507-34.0918961
				c-5.2205811-13.0207672-8.8449097-26.7083282-16.4367676-38.722496
				c-2.9735718-4.7057762-5.1790771-10.1985893-9.067749-13.9512138c-5.3513184-5.1640854-8.6191406-8.2588806-17.5640869-4.3335533
				c-2.4042358,1.0550766-3.446228,0.0249176-3.3515625-2.4503021
				C662.6276855,26.0137825,673.187439,10.3881035,692.8668213,3.2120473z"/>
			<path class="st1" d="M1022.7484741,694.0311279c0-8.5767212,0.5362549-16.4431152-0.1083984-24.2115479
				c-1.4768066-17.7948608-12.6586914-28.3320313-31.1153564-30.6837158
				c-29.992981-3.8217163-56.5865479,4.6433716-80.8849487,21.7910156c-1.2228394,0.862915-2.4430542,1.7299194-3.6777344,2.5756836
				c-0.5261841,0.3603516-1.0866699,0.6705322-1.9615479,1.2051392
				c-11.2047729-15.5983887-22.3383179-31.0974731-33.6576538-46.8553467
				c12.4254761-11.1644897,26.0525513-19.6329346,40.9523315-26.0817871
				c32.8179932-14.2042236,67.0585327-17.1696777,102.2466431-12.9796143
				c16.0252075,1.9082642,31.4509888,5.6747437,45.4702759,13.8803101
				c21.1337891,12.369751,32.3878174,31.6769409,36.5877686,55.1218262
				c2.0721436,11.5674438,2.9625244,23.46698,3.1209717,35.2333984c0.4178467,30.9906006,0.2016602,61.9907227,0.1259766,92.9867554
				c-0.0742188,30.3656616,1.4989014,60.5770874,8.0792236,90.7858887c-25.4573975,0-50.6500244,0-76.6575928,0
				c-1.4530029-9.2642212-2.9384766-18.7357178-4.432373-28.2611084
				c-6.2044067,5.3363647-12.0681763,10.9411621-18.4906616,15.8085327
				c-32.1419678,24.3591309-81.5227051,26.7203979-113.2180786,5.4110107
				c-25.6879272-17.2705688-34.7410278-42.4466553-32.7252808-72.170105
				c2.5748901-37.9686279,24.9214478-61.5062866,57.9874878-76.367981
				c29.8740234-13.427002,61.6519775-17.241333,94.0652466-17.1889648
				C1017.086731,694.03479,1019.718811,694.0311279,1022.7484741,694.0311279z M1022.9942017,741.6533813
				c-19.6251221-0.0820923-38.3729858,0.1862183-56.3265991,6.8652954
				c-9.0111084,3.3522949-17.2788696,7.9937134-22.9043579,16.1056519
				c-7.8397827,11.3049316-9.9480591,23.8039551-4.4208984,36.4155273
				c5.1517944,11.7549438,15.9381714,15.7827148,28.0825195,16.5117188
				c21.8133545,1.3094482,39.3599854-7.5413208,54.053833-22.9910278c0.7392578-0.7772217,1.4464111-1.9875488,1.4519043-3.0001221
				C1023.0203247,775.1107788,1022.9942017,758.6605225,1022.9942017,741.6533813z"/>
			<path class="st1" d="M1237.1002197,867.1907959c-35.0083008-94.2033081-69.9678955-188.2749634-105.1068115-282.8295898
				c2.0955811-0.1237183,3.5352783-0.2819214,4.9750977-0.2827148c24.6646729-0.0142822,49.3297119,0.0628662,73.9934082-0.0872803
				c3.612793-0.0220337,5.0419922,1.111084,6.1311035,4.6120605
				c18.6102295,59.8215332,37.3935547,119.5892334,56.1534424,179.3642578
				c0.3270264,1.0421143,0.8330078,2.0281372,1.8052979,4.3574829c2.2277832-6.7785645,4.0767822-12.324585,5.8745117-17.887207
				c13.7462158-42.5351563,27.4797363-85.0744629,41.2233887-127.6104736
				c4.1876221-12.9603882,8.3066406-25.9447021,12.7049561-38.833374c0.5358887-1.5704956,2.6096191-3.7227173,3.9876709-3.7352295
				c24.8145752-0.2263794,49.6318359-0.1647339,75.1662598-0.1647339c-0.8691406,2.885437-1.4761963,5.3721924-2.3575439,7.7574463
				c-23.2838135,63.0108643-46.5936279,126.0120239-69.9039307,189.0130615
				c-10.2108154,27.5967407-20.3984375,55.2022095-30.7425537,82.7489014
				c-0.5461426,1.4544067-2.4471436,3.414978-3.7325439,3.4264526
				C1283.9506836,867.2470703,1260.6271973,867.1907959,1237.1002197,867.1907959z"/>
			<path class="st1" d="M1592.7811279,847.6575317c8.7910156-18.1928711,17.3676758-35.9421997,25.6700439-53.1240234
				c11.6243896,5.3287354,22.5037842,11.0652466,33.9197998,15.3824463
				c19.5872803,7.4072876,39.9075928,8.8792725,60.3594971,3.9932251c5.0400391-1.2041626,10.15979-3.5422974,14.3395996-6.5957642
				c11.208374-8.1873779,11.3789063-23.1542358-0.2753906-30.5873413
				c-9.7250977-6.2025757-20.5423584-10.8254395-31.1889648-15.4225464
				c-20.6027832-8.8960571-41.329834-17.3323975-60.189209-29.87323
				c-45.0201416-29.9364624-41.5289307-89.4872437-18.8035889-117.8776245
				c12.895874-16.1105957,29.5987549-26.3658447,49.2746582-31.1781616
				c43.8848877-10.7332153,86.1691895-5.6333618,126.5305176,14.8040161
				c1.1855469,0.6003418,2.3138428,1.3170776,3.4470215,2.0150757c0.2655029,0.1636353,0.4420166,0.4721069,0.9053955,0.9874878
				c-8.9412842,17.2564697-17.9388428,34.621521-26.6939697,51.5188599
				c-9.9156494-4.1235962-19.1799316-8.6552124-28.8822021-11.8619385
				c-17.201416-5.6853027-34.8922119-7.2012939-52.6168213-2.4941406
				c-13.4642334,3.5758057-20.3238525,14.1749878-17.8050537,26.3947144
				c1.3100586,6.355957,5.3103027,10.9926758,10.8037109,13.645813
				c10.2983398,4.9738159,20.8127441,9.5842896,31.5041504,13.6429443
				c21.65271,8.2196655,43.0699463,16.7988281,61.8824463,30.7050781
				c22.5153809,16.6436157,32.005127,39.2608643,30.6472168,66.8255615
				c-1.2457275,25.2884521-9.9429932,47.0205688-30.4625244,62.9912109
				c-14.84021,11.5502319-32.0357666,17.6737061-50.3496094,20.2471924
				c-41.088623,5.7738647-81.0018311,1.9963989-118.7203369-16.6702881
				C1601.6334229,852.9266968,1597.4134521,850.274292,1592.7811279,847.6575317z"/>
			<path class="st3" d="M1244.8382568,332.1885376c-1.116333,0.6242371-2.3856201,1.0747986-3.3243408,1.9009705
				c-5.8710938,5.1664429-12.4510498,5.7131348-19.0563965,1.4315491
				c-8.5906982-5.568634-13.7546387-13.9743652-17.5402832-23.0092468
				c-11.3443604-27.0741272-22.2497559-54.3327637-33.2407227-81.5540314
				c-2.7862549-6.9008484-5.2532959-13.9305267-7.8670654-20.9008484c3.02771-7.958847,6.0552979-15.9178314,9.0830078-23.8768158
				l-0.0112305,0.0288239c5.2247314-13.0199738,10.4493408-26.039917,15.6738281-39.0598907
				c0.1442871-0.493927,0.2884521-0.9878387,0.4327393-1.482254c10.5704346-26.5051575,21.1408691-53.0097885,31.7111816-79.5144196
				c0.2784424-0.2166901,0.3531494-0.4892426,0.2242432-0.8176422c5.5463867-12.5639763,10.6092529-25.3717766,16.7833252-37.619339
				c5.5308838-10.9716053,12.9749756-20.7771091,25.46875-24.6593418
				c5.1617432-1.6039114,10.7049561-2.5207119,16.1086426-2.6949615c12.3034668-0.3967409,24.6390381-0.451767,36.9388428-0.0098419
				c5.5529785,0.1995173,11.0512695,1.9163742,16.5744629,2.9448032
				c22.9715576,10.1690578,25.8707275,28.5726624,20.1987305,49.5122566
				c-4.9683838,18.3422813-12.2993164,36.0866814-19.204834,53.8549309
				c-27.8389893,71.6304932-55.9067383,143.1721344-83.9378662,214.7278442
				C1248.4084473,325.079071,1246.5201416,328.5933228,1244.8382568,332.1885376z"/>
			<path class="st1" d="M672.0736694,502.3006287c25.741333,0,50.9871826,0,76.6002197,0c0,27.1545715,0,54.0871277,0,81.5347595
				c22.0792236,0,43.8012695,0,65.8985596,0c0,19.3965454,0,38.2801514,0,57.7357178c-21.7870483,0-43.5253906,0-65.5280151,0
				c-0.0928955,2.0231323-0.2190552,3.4910889-0.2192383,4.9590454
				c-0.0042725,42.6480713-0.052124,85.2963257,0.0839233,127.9439697
				c0.0164185,5.1173096,0.5991211,10.3273926,1.6828003,15.3289795
				c3.2097168,14.8132935,11.1715088,21.0998535,26.4013062,21.0653076
				c13.0665283-0.0296631,25.2010498-3.838501,37.3416748-10.2861328c2.0678711,6.373291,4.0789185,12.409668,5.9845581,18.479126
				c3.6325684,11.5696411,7.0041504,23.2266235,10.918457,34.6991577c1.2540894,3.6755371,0.0953369,5.0123291-2.9187012,6.4310303
				c-13.197937,6.2124634-27.0314331,10.2704468-41.4431763,12.2713623
				c-19.2677002,2.6750488-38.512085,2.6678467-57.605835-1.4992065
				c-31.0735474-6.7814331-50.7463989-28.1103516-55.3853149-60.4093628
				c-1.1796875-8.2133789-1.8949585-16.5703735-1.9075928-24.8627319
				c-0.1415405-92.9591675-0.1044922-185.9185791-0.1065063-278.8778992
				C671.8707275,505.502655,671.9854736,504.1915588,672.0736694,502.3006287z"/>
			<path class="st1" d="M603.9440918,797.0155029c7.9315796,17.2654419,15.7481689,34.2804565,23.6711426,51.5271606
				c-10.8048706,7.5801392-22.1040039,13.5702515-34.4109497,17.2582397
				c-40.1079712,12.019165-80.2441406,12.4871826-119.4317017-3.1046143
				c-39.8601685-15.859436-65.1445313-45.6653442-76.9424438-86.6799927
				c-10.5084229-36.5318604-10.0070496-73.2196045,2.7415466-109.0346069
				c16.7442322-47.0401001,51.1469421-74.9000854,99.2695007-85.5269775
				c37.7979126-8.3468628,75.1271362-5.980957,110.9899292,9.8173218
				c5.2672119,2.3202515,10.2012939,5.3966675,15.5931396,8.2859497
				c-8.4346313,17.8850708-16.5744629,35.1450806-24.7642822,52.5110474
				c-6.9542236-3.2609253-13.5122681-6.7694092-20.387207-9.4716797
				c-15.3032837-6.0152588-31.3554077-7.8408203-47.6105347-6.2709961
				c-21.5440063,2.0805054-38.7845459,12.3392944-48.1182861,31.9370728
				c-18.4473267,38.7335205-18.1913147,78.008667,2.1714478,116.0074463
				c10.4745483,19.5463867,28.7432861,28.5810547,50.6149902,29.8103638
				c22.8549805,1.2846069,44.3064575-3.7564087,63.9918823-15.6997681
				C601.9996338,797.970459,602.7289429,797.6450195,603.9440918,797.0155029z"/>
			<path class="st4" d="M654.8632202,44.2293472c-0.0946655,2.4752197,0.9473267,3.5053787,3.3515625,2.4503021
				c8.9449463-3.9253273,12.2127686-0.8305321,17.5640869,4.3335533c3.8886719,3.7526245,6.0941772,9.2454376,9.067749,13.9512138
				c7.5918579,12.0141678,11.2161865,25.7017288,16.4367676,38.722496
				c4.5860596,11.438179,9.8250732,22.6171341,14.3119507,34.0918961
				c5.5236816,14.1261902,10.5592041,28.4431152,15.8388672,42.6653137
				c0.2730713,0.7357178,0.8569946,1.3560486,1.2952271,2.0302734
				c-9.2391357,24.405304-18.5087891,48.7985382-27.7072144,73.2186127
				c-10.9031372,28.9459381-21.3106079,58.089859-32.8579102,86.7756195
				c-3.8449707,9.5517578-9.9593506,18.3830261-16.1027222,26.7618408
				c-6.0689697,8.2773132-15.2095337,12.4976196-25.4832153,12.8919067
				c-14.8063965,0.5682678-29.6520386,0.9898682-44.4547119,0.5630188
				c-19.4425049-0.5606995-34.2445068-12.1177673-36.9434204-28.3055115
				c-1.6365967-9.8164673-0.8269653-19.7147827,2.4345093-29.1131897
				c8.3857422-24.1647949,17.0186768-48.2453918,25.7386475-72.2922821
				c23.1121826-63.7361908,46.2843018-127.4507294,69.5560913-191.1287384
				C649.1150513,55.810688,652.1912231,50.0938644,654.8632202,44.2293472z"/>
			<path class="st3" d="M957.2512817,330.5328369c-0.6948242,0.3506165-1.6497192,0.5177612-2.0457764,1.0791626
				c-6.5956421,9.3495483-18.5385132,8.7470093-27.5046997-1.5658264
				c-10.9608765-12.6071167-15.9765015-28.1096802-22.0610962-43.1291199
				c-6.5303345-16.1196594-13.1454468-32.2063141-19.5070801-48.3924713
				c-3.6828003-9.3704224-6.9388428-18.9085846-10.3865356-28.3726349
				c1.4193115-3.7043304,2.8153076-7.4162445,4.2611084-11.1086578
				c6.6380615-16.9528503,13.2900391-33.9002533,19.9370728-50.8496094c0.2943115-0.6985779,0.588623-1.3971863,0.8829346-2.0957947
				c5.4152222-13.5939026,10.8305664-27.1878052,16.2459106-40.7817078c0,0-0.0454102,0.051445-0.0457153,0.0510712
				c0.9471436-2.0857849,1.9591675-4.1445999,2.8317871-6.2608795
				c6.6067505-16.0221405,13.1862183-32.0555573,19.7741699-48.0854454c0.3414917-0.6743393,0.6829224-1.3486862,1.024292-2.0230408
				l0.0114746-0.0194473c0.7739868-0.1932411,1.6976929-0.1783066,2.2992554-0.6111946
				c7.8764648-5.6672859,15.6569214-4.2764091,21.7597046,3.3728447
				c9.1514282,11.4703979,14.4778442,24.8725929,19.9025879,38.2232399
				c10.9804077,27.023262,21.8046875,54.110054,32.6356201,81.1937637c0.789917,1.9751892,1.1138916,4.1366882,1.6542969,6.2121582
				c-19.0328369,47.7642365-38.0549927,95.5320282-57.12323,143.2814484
				c-1.1652222,2.9178162-2.694458,5.6902771-4.0540161,8.5298767c-0.1390381,0.4230042-0.2783813,0.8465271-0.4177246,1.2700195
				L957.2512817,330.5328369z"/>
			<path class="st1" d="M1537.734375,584.4204102c0,94.3649292,0,188.2991333,0,282.5161743
				c-25.7983398,0-51.3930664,0-77.3417969,0c0-94.0704346,0-188.1237183,0-282.5161743
				C1486.1164551,584.4204102,1511.6816406,584.4204102,1537.734375,584.4204102z"/>
			<path class="st1" d="M1499.092041,547.2666626c-26.5039063,0.0205688-47.1297607-20.2833862-47.1779785-46.4419861
				c-0.0466309-25.306488,21.2027588-45.5241089,47.7111816-45.3944092
				c25.6534424,0.1255188,47.074585,20.6407471,47.1833496,45.1881104
				C1546.9234619,526.5372314,1525.7404785,547.2459717,1499.092041,547.2666626z"/>
			<path class="st5" d="M957.3255615,330.450592c0.1394043-0.4234924,0.2787476-0.8470154,0.4177856-1.2700195
				C957.6038818,329.604248,957.4647217,330.0274048,957.3255615,330.450592z"/>
			<path class="st6" d="M939.6334229,51.0209389c0.3416138-0.6744385,0.6832275-1.3488731,1.0245361-2.0231781
				C940.3162842,49.6722374,939.9748535,50.3465843,939.6334229,51.0209389z"/>
</svg>