<?xml version="1.0" encoding="utf-8"?>
<!-- Generator: Adobe Illustrator 22.1.0, SVG Export Plug-In . SVG Version: 6.00 Build 0)  -->
<svg version="1.1" id="Layer_1" xmlns="http://www.w3.org/2000/svg" xmlns:xlink="http://www.w3.org/1999/xlink" x="0px" y="0px"
	 viewBox="0 0 32.9 32.9" style="enable-background:new 0 0 32.9 32.9;" xml:space="preserve">
<style type="text/css">
	.st0{fill:#0054A4;}
</style>
<path class="st0" d="M19,0c7.1,1.1,12.8,6.8,13.9,13.9V0H19"/>
<path class="st0" d="M13.9,0H0v13.9C1.1,6.8,6.8,1.1,13.9,0"/>
<path class="st0" d="M0,19v13.9h13.9C6.8,31.8,1.1,26.2,0,19"/>
<path class="st0" d="M19,32.9h13.9V19C31.8,26.2,26.2,31.8,19,32.9"/>
<polyline class="st0" points="24.2,15.6 24.2,13.2 19,13.2 19,19.7 24.2,19.7 24.2,17.3 21.4,17.3 21.4,15.6 24.2,15.6 "/>
<path class="st0" d="M29.1,17.3h-1.8v-1.8h1.8V17.3z M31.3,13.2h-4V9.6h-2.4v10.1h6.4V13.2z"/>
<polyline class="st0" points="18.2,13.2 16.6,13.2 16.6,0 16.4,0 16.4,13.2 15.9,13.2 15.9,17.3 14.2,17.3 14.2,13.2 12,13.2 
	12,19.7 16.4,19.7 16.4,32.9 16.6,32.9 16.6,19.7 18.2,19.7 18.2,13.2 "/>
</svg>
