<svg xmlns="http://www.w3.org/2000/svg" width="120" height="21.56" viewBox="0 0 1200 215.6" style="overflow:visible;fill:currentColor"><title>Hyperakt</title><path style="transform:translateY(0);transition:transform var(--transition-timing)" fill="#fff" d="M649 67.1c-12.4 0-22.9 4.9-30.3 13.6V69.8h-28.8v145.8h29.7v-45.5c7.2 7.8 17.5 12.1 29.4 12.1 29 0 49.4-22.9 49.4-57.5-.1-34.7-20.5-57.6-49.4-57.6zm-6.1 90c-14.2 0-23.3-9.5-23.3-24.9v-14.4c0-15.4 9.1-24.9 23.3-24.9 14.8 0 25.1 11.1 25.1 32.1s-10.3 32.1-25.1 32.1zM426.2 91.6h-63.9V34.4h-30.8v145.8h30.8v-60.6h63.9v60.6h30.7V34.4h-30.7zM525.7 136.1l-24.5-66.3h-32l41.2 105.7-15.4 40.1h28.4l54.2-145.8h-28.5zM953.3 67.1c-22.4 0-36.3 9.5-45.1 20.6l17.5 16.1c5.8-7.2 15.6-13.2 26.2-13.2 9.3 0 15.9 3.7 15.9 10.7v.6c0 5.6-6 8.2-24.1 12.8-28.8 7.4-40 15.7-40 36.5 0 19.4 13.6 30.7 34.8 30.7 14.6 0 24.3-5.4 31.3-15v13.2h27.8v-73.9c.1-25.1-13.9-39.1-44.3-39.1zm14.6 75.2c0 9.7-8.4 16.5-20.2 16.5-9.5 0-14-3.9-14-11.1 0-6.8 3.3-10.1 17.3-14.2 11.1-3.3 15-5.4 16.9-7.6v16.4zM767.7 67.1c-33.6 0-53.8 25.9-53.8 58.1 0 33 20.8 57.7 54.8 57.7 17.9 0 34.8-8.2 43.2-18.9l-18.7-17.3c-5.4 6.4-12.6 10.7-22.5 10.7-14.6 0-23.7-8-25.9-22.7h72.3c.6-3.9 1-8.2 1-12.8 0-30.7-18.9-54.8-50.4-54.8zm-22.9 45.8c1.9-12.8 9.5-21.8 22.5-21.8 13.2 0 19.6 8.6 21 21.8h-43.5zM1120.7 70.2v-.4h-34l-35.4 40.2V34.4h-29.7v145.8h29.7V146l12.8-14.4 26.7 48.6h34l-40.3-70.4zM864.1 84.4V69.8h-27.8v110.4H866v-63.6c0-13.8 6.8-20.6 17.5-20.6 3.7 0 8.2.8 11.7 2.1l8.2-26.8c-3.5-1.9-8.7-3.3-14.8-3.3-12.4 0-20.2 7-24.5 16.4zM1200 96V69.8h-28.4V42.2h-29.7v27.6H1126V96h15.9v47.6c0 26.4 10.9 36.5 39.1 36.5h19v-27.8h-16.1c-9.3 0-12.2-2.3-12.2-9.9V96h28.3z"/><g><path fill="#fff" d="M189.4 8.2c-3.6-4.5-11.2-8.2-17-8.2H10.5C4.7 0 0 4.7 0 10.5v194.6c0 5.7 4.7 10.5 10.5 10.5h161.9c5.8 0 13.4-3.7 17-8.2l72.4-91.4c3.6-4.5 3.6-11.9 0-16.4L189.4 8.2zm-29.3 160.1h-34l37.4-47.2H75.8v47.2H47.2v-121h28.6v47.4h87.7L126 47.3h34l47.7 60.5-47.6 60.5z"/></g></svg>