<svg xmlns="http://www.w3.org/2000/svg" viewBox="71.42 175.62 1170.07 248.87">
  <g fill="#435363">
    <path d="M177.39 178.47c2.73-1.5 5.97-4.3 9.06-1.94 35.36 20.29 70.6 40.79 105.94 61.1 2.06 1.02 3.87 2.81 3.45 5.32.01 41.03.02 82.07 0 123.1.43 2.51-1.52 4.21-3.52 5.26-30.28 17.4-60.47 34.98-90.77 52.34-2.65 2.08-7.11-.1-6.39-3.59-.02-39.7-.01-79.41 0-119.11-.56-2.87 2.12-4.31 4.22-5.48 14.86-8.43 29.56-17.15 44.42-25.55 2.44-1.75 6.44-.1 6.28 3.1.2 5.96.37 11.98-.11 17.94-.01 1.95-1.95 2.73-3.33 3.64-9.6 5.51-19.21 11.02-28.78 16.59-.2 25.5-.19 51.01 0 76.51 18.6-10.23 36.89-21.08 55.25-31.75.09-34.32.04-68.64.03-102.96-29.68-17.4-59.57-34.45-89.34-51.68-20.36 11.34-40.39 23.28-60.64 34.83-9.43 5.6-19.11 10.81-28.44 16.56-.78 2.33-.3 4.87-.42 7.29.02 31.94.06 63.88-.03 95.82 9.62 6.2 19.79 11.5 29.62 17.37 8.55 4.78 16.85 10.02 25.55 14.54.21-25.54.24-51.09-.01-76.63-9.28-5.21-18.43-10.65-27.7-15.88-1.95-1.23-4.79-2.45-4.52-5.23-.05-5.92-.3-11.88.15-17.79.48-3.02 4.36-3.73 6.57-2.07 14.19 8.1 28.28 16.39 42.49 24.47 2.4 1.56 6.3 2.82 5.88 6.38.06 39.02-.03 78.05.04 117.08-.11 1.94.23 4.59-1.78 5.72-2.06 1.58-4.47.02-6.38-.98-28.51-16.48-57.02-32.97-85.57-49.39-2.83-1.91-7.75-3.13-7.14-7.46.03-41.3-.06-82.6.04-123.89-.26-2.11 1.62-3.35 3.19-4.28 34.24-19.74 68.48-39.49 102.69-59.3m336.04 34.16c11.25-1.28 23.09 1.01 32.49 7.5 11.37 7.67 18.6 21.09 18.63 34.82.51 12.28-4.53 24.68-13.5 33.09-15.52 14.78-41.53 16.17-58.88 3.79-10.79-7.64-17.67-20.52-17.87-33.76-.56-11.43 3.54-23.05 11.37-31.42 7.13-7.87 17.26-12.75 27.76-14.02m-1.09 17.75c-3.59.96-6.92 2.8-9.72 5.22-8.95 7.76-11.24 21.54-6.45 32.18 3.19 7.21 9.78 12.94 17.56 14.58 9.55 2.38 20.41-1.42 26.14-9.49 7.88-10.6 6.81-26.8-2.64-36.09-6.34-6.44-16.24-8.79-24.89-6.4m585.09-17.67c10.58-1.31 21.68.45 30.88 5.99 10.95 6.47 18.73 18.03 20.39 30.66 2.16 13.66-2.35 28.32-12.37 37.97-16.14 16.24-44.73 17.2-62.17 2.47-10.98-9.03-16.64-23.79-15.06-37.87.88-10.62 5.96-20.82 13.85-27.98 6.77-6.12 15.43-10.09 24.48-11.24m-.11 17.59c-4.1 1.04-7.91 3.15-10.93 6.11-9.09 8.64-10.47 23.67-4.09 34.27 3.45 5.91 9.44 10.21 16.11 11.69 9.62 2.43 20.59-1.54 26.27-9.73 7.68-10.73 6.49-27.01-3.16-36.16-6.23-6.16-15.79-8.38-24.2-6.18m-210.11-17.14 17.32.1 36.32 85.51-19.56-.06-7.68-18.48-35.76-.61-8.07 19.11-18.89-.01zm-2.8 49.99 22.39.02-11.15-27.25zm-486.06-49.27 64.48-.13-.01 16.93-45.93.04.15 18.05 40.54.38-.01 16.56-40.68.13-.04 32.93-18.51-.03zm181.81-.13c6.16-.08 12.33-.26 18.49.13-.03 16.04 0 32.08-.03 48.12-.03 5.91 1.38 12.35 5.88 16.52 5.32 4.89 13.51 5.26 20.1 3.09 7.18-2.53 10.71-10.4 10.73-17.59.09-16.71.01-33.43.02-50.14 6.16-.38 12.32-.21 18.49-.13.03 16.77 0 33.53.01 50.3-.04 9.21-2.69 18.84-9.11 25.67-5.82 6.31-14.37 9.49-22.79 10.05-6.91.25-14.04.42-20.6-2.08-7.6-2.53-14.1-8.18-17.45-15.47-2.68-5.67-3.87-11.98-3.76-18.23.04-16.75-.02-33.49.02-50.24m93.01 0 16.72.07 3.05 3.23 33.21 43.77 3.93 4.61.18-51.64 18.39.09.01 84.85-16.04-.3-29.89-39.09-11-13.92-.16 53.29-18.41.06zm96 0c6.94-.16 13.88-.03 20.83-.07 8.82.07 17.83-.57 26.41 1.92 9.64 2.6 18.5 8.52 24.05 16.89 7.81 11.56 9.04 27.03 3.91 39.91-6.47 16.86-24.7 26.92-42.34 26.33-10.96.05-21.92-.03-32.87.04 0-28.34-.03-56.68.01-85.02m18.62 16.86c-.04 17.05-.18 34.11.07 51.16 9.49-.43 19.86 1.78 28.44-3.45 15.49-8.87 15.51-34.72.31-43.9-8.62-5.43-19.18-3.66-28.82-3.81m149.37-16.86 70.33.3.01 16.72-25.89.11-.04 67.83-18.64.02-.15-67.77-25.66-.09zm85.6.01h18.48l-.03 84.98h-18.42zm143.4-.01 16.83-.04 39.99 51.76.18-51.71 18.32.28v84.65l-16.08-.03-41.06-53.74-.13 53.82-18.06.03zm-241.73 123.8c11.43-4.18 25.15 3.66 27.31 15.64 3.09 12.23-7.05 25.6-19.71 25.66-10.51.95-20.73-7.39-22-17.84-1.75-9.96 4.7-20.54 14.4-23.46m2.99 1.05c-8.38 1.4-15.08 8.94-15.7 17.38-.99 8.95 5.07 18.11 13.81 20.44 8.73 2.78 18.98-1.78 22.8-10.09 4.03-7.82 1.87-18.18-4.97-23.7-4.39-3.64-10.37-5.05-15.94-4.03m-262.16 15.61c5.81-8.43 15.57-13.83 25.75-14.61 11.3-1.16 22.82 2.95 30.75 11.08-1.75 1.95-3.6 3.81-5.59 5.5-4.62-3.84-9.65-7.57-15.68-8.73-9.3-2.21-19.72.78-26.13 7.94-10.76 11.64-10.09 31.87 1.61 42.62 7.36 7.15 18.9 8.97 28.39 5.4 4.82-1.72 8.74-5.13 12.62-8.35 1.73 1.62 3.44 3.27 5.1 4.97-5.59 6.01-12.95 10.66-21.16 11.88-11.41 2.02-24-1.21-32.08-9.76-12.46-12.38-13.69-33.77-3.58-47.94m-266.91-13.33 8.8.063 24.92 38.047 25.91-38.34 7.76.13v70.45l-7.58.05-.18-56.7-25.99 37.52-25.96-37.39-.19 56.58-7.49-.16zm87.54-.11 50.86.02.05 7.05-43 .05v24.22l38.49.06-.01 7.07-38.36.07-.12 24.8 43.49.06v7.07l-51.41-.02zm67.55.18c7.83-.6 15.7-.12 23.56-.29 9.94-.18 20.21 2.87 27.58 9.75 11.83 10.68 14.15 29.74 6.14 43.34-3.94 6.97-10.56 12.18-18.02 14.94-6.9 2.65-14.41 2.74-21.7 2.63-5.86-.11-11.73.28-17.56-.27.05-23.37.05-46.74 0-70.1m7.88 7.13v55.84c7.42.36 14.92.57 22.31-.44 7.87-1.11 15.28-5.63 19.47-12.44 7.52-12.02 4.56-29.75-7.39-37.81-10.02-6.99-22.87-5.38-34.39-5.15m71.84-7.35h7.67v70.54h-7.67zm103.59 0 7.9.14v70.26l-7.9.14zm28.68.21 7.47-.21 44.28 55.87.17-55.73 7.49-.15v70.57l-5.83.09-45.76-57.57-.1 57.44-7.72-.19zm79.74-.19 50.68.01.06 7.1-43.01.04v24.2l38.58.03-.01 7.13-38.38.06-.19 24.78 43.58.03-.01 7.13-51.3-.01z"/>
    <path d="M922.79 346.27c4.66.22 9.58-.78 14.06.87 3.48 1.26 4.69 5.67 3.05 8.8-1.13 1.66-3.02 2.52-4.62 3.6 2.09 2.75 4.21 5.5 6.06 8.43-1.32-.1-2.63-.2-3.93-.29-1.85-2.53-3.6-5.16-5.78-7.41-1.67-1.07-3.87-.32-5.73-.53-.03 2.74-.09 5.48-.08 8.23-.76-.03-2.3-.09-3.06-.13-.13-7.19-.17-14.38.03-21.57m3.15 2.94c-.1 2.64-.12 5.29-.08 7.94 3.31-.08 6.93.45 9.97-1.21 2.24-1.43 2.01-5.28-.55-6.23-3.02-.92-6.24-.4-9.34-.5"/>
  </g>
</svg>