<svg id="Footer_Logo" data-name="Footer Logo" xmlns="http://www.w3.org/2000/svg" xmlns:xlink="http://www.w3.org/1999/xlink" width="252" height="253" viewBox="0 0 252 253">
 <defs>
  <linearGradient id="linear-gradient" y1="0.5" x2="1" y2="0.5" gradientUnits="objectBoundingBox">
   <stop offset="0" stop-color="#ffdf00">
   </stop>
   <stop offset="0.137" stop-color="#fbdd00">
   </stop>
   <stop offset="0.25" stop-color="#f1da02">
   </stop>
   <stop offset="0.353" stop-color="#e0d306">
   </stop>
   <stop offset="0.452" stop-color="#c8cb0c">
   </stop>
   <stop offset="0.547" stop-color="#a8bf12">
   </stop>
   <stop offset="0.64" stop-color="#82b21b">
   </stop>
   <stop offset="0.728" stop-color="#56a225">
   </stop>
   <stop offset="0.79" stop-color="#32952d">
   </stop>
  </linearGradient>
 </defs>
 <ellipse id="Ellipse_300" data-name="Ellipse 300" cx="126" cy="126.5" rx="126" ry="126.5" fill="#fff">
 </ellipse>
 <g id="Group_3750" data-name="Group 3750" transform="translate(34.158 37.546)">
  <path id="Path_115" data-name="Path 115" d="M314.941,100A90.4,90.4,0,0,0,226.61,209.37H403.273A90.4,90.4,0,0,0,314.941,100Z" transform="translate(-224.596 -100.001)" fill="#003b7c">
  </path>
  <path id="Path_116" data-name="Path 116" d="M245.982,382.308a90.376,90.376,0,0,0,160.745,0Z" transform="translate(-236.009 -250.665)" fill="url(#linear-gradient)">
  </path>
  <g id="Group_3348" data-name="Group 3348" transform="translate(11.217 70.461)">
   <path id="Path_117" data-name="Path 117" d="M248.65,261.361h6.525c3,0,5.82.727,5.82,4.034a3.576,3.576,0,0,1-3.108,3.748v.044c1.984.353,3.549,1.389,3.549,3.99,0,3.285-2.887,4.5-5.93,4.5H248.65Zm6.172,6.723c1.874,0,2.734-.706,2.734-1.962,0-1.278-.772-1.984-2.69-1.984h-2.689v3.946Zm.243,6.855c1.984,0,2.865-.794,2.865-2.182,0-1.433-1.036-2.138-3.02-2.138h-2.734v4.32Z" transform="translate(-248.65 -256.578)" fill="#fff">
   </path>
   <path id="Path_118" data-name="Path 118" d="M287.458,261.361h3.571v16.312h-3.571Z" transform="translate(-269.361 -256.578)" fill="#fff">
   </path>
   <path id="Path_119" data-name="Path 119" d="M305.75,269.164c0-5.731,3.747-8.465,7.693-8.465,3.924,0,7.671,2.734,7.671,8.465s-3.747,8.464-7.671,8.464C309.5,277.628,305.75,274.9,305.75,269.164Zm11.793,0c0-3.417-1.587-5.488-4.1-5.488-2.535,0-4.1,2.072-4.1,5.488s1.565,5.577,4.1,5.577C315.956,274.741,317.543,272.58,317.543,269.164Z" transform="translate(-279.124 -256.224)" fill="#fff">
   </path>
   <path id="Path_120" data-name="Path 120" d="M349,261.361h4.739l3.637,11.992h.044l3.394-11.992h4.85v16.312H362.2V266.541h-.044a29.225,29.225,0,0,1-.9,3.637l-2.447,7.495h-3.175l-2.424-7.495a28.887,28.887,0,0,1-.948-3.814h-.044v11.309H349Z" transform="translate(-302.206 -256.578)" fill="#fff">
   </path>
   <path id="Path_121" data-name="Path 121" d="M396.647,255.886h11.11v3H400.24v3.5h5.445v2.843H400.24v4.056h7.913v2.91H396.647Zm5.577-4.783H405.8l-3.284,3.814h-2.337Z" transform="translate(-327.634 -251.103)" fill="#fff">
   </path>
   <path id="Path_122" data-name="Path 122" d="M431.3,261.361h6.128c4.012,0,6.415,1.433,6.415,5.048a4.358,4.358,0,0,1-3.395,4.651l3.637,6.613H440.29l-3.395-6.15h-2.072v6.15H431.3Zm5.973,7.384c2.072,0,3.064-.6,3.064-2.249,0-1.609-.992-2.2-3.064-2.2h-2.447v4.453Z" transform="translate(-346.126 -256.578)" fill="#fff">
   </path>
   <path id="Path_123" data-name="Path 123" d="M469.725,261.361H473.3v16.312h-3.571Z" transform="translate(-366.635 -256.578)" fill="#fff">
   </path>
   <path id="Path_124" data-name="Path 124" d="M489.671,261.361h11.11v3h-7.517v3.5h5.445v2.844h-5.445v4.056h7.914v2.91H489.671Z" transform="translate(-377.28 -256.578)" fill="#fff">
   </path>
   <path id="Path_125" data-name="Path 125" d="M523.278,271.435V261.361h3.593v9.986c0,2.359.9,3.681,3.043,3.681,2.116,0,3-1.3,3-3.681v-9.986h3.527v10.052c0,4.012-2.029,6.525-6.57,6.525S523.278,275.424,523.278,271.435Z" transform="translate(-395.216 -256.578)" fill="#fff">
   </path>
   <path id="Path_126" data-name="Path 126" d="M565.513,269.054l-4.761-7.693h4.1l2.91,4.893,2.755-4.893h3.7l-4.651,7.715,5.291,8.6h-3.991l-3.46-5.709-3.351,5.709h-3.769Z" transform="translate(-414.968 -256.578)" fill="#fff">
   </path>
  </g>
 </g>
</svg>