<svg version="1.1" xmlns="http://www.w3.org/2000/svg" xmlns:xlink="http://www.w3.org/1999/xlink" x="0px" y="0px" viewBox="0 0 502.7 69.2" style="enable-background:new 0 0 502.7 69.2;" xml:space="preserve">
 <style type="text/css">
  .st0{fill:#FFFFFF;}
	.st1{fill:url(#SVGID_1_);}
	.st2{fill:none;stroke:#FFFFFF;stroke-width:1.533;}
 </style>
 <g id="Layer_1">
  <g>
   <rect x="0.8" y="0.8" class="st0" width="67.7" height="67.7">
   </rect>
   <linearGradient id="SVGID_1_" gradientUnits="userSpaceOnUse" x1="0.7665" y1="34.6129" x2="68.4599" y2="34.6129">
    <stop offset="0" style="stop-color:#0076C0">
    </stop>
    <stop offset="0.2156" style="stop-color:#005DA4">
    </stop>
    <stop offset="0.5587" style="stop-color:#003B7C">
    </stop>
    <stop offset="0.8323" style="stop-color:#002664">
    </stop>
    <stop offset="1" style="stop-color:#001E5B">
    </stop>
   </linearGradient>
   <path class="st1" d="M18.8,35.7c2.8-2,5.6-3.7,8.5-5.1c-2.6,2-5.2,4.2-7.5,6.6c-8.7,9.1-13.6,20-15.1,31.2h4
			c2.1-17.1,11.6-33,28.3-42.1c3-1.6,6-3,9.1-4c-2.8,1.7-5.6,3.6-8.1,5.7C25.3,38.6,19,53.4,18.6,68.5h49.9V0.8H0.8v56.1
			C4.7,48.8,10.7,41.5,18.8,35.7z M50,16l0.9-8.1l4,7.1l8-1.7l-5.5,6l4,7l-7.4-3.4l-5.5,6l1-8.1L42,17.5L50,16z">
   </path>
   <rect x="0.8" y="0.8" class="st2" width="67.7" height="67.7">
   </rect>
   <g>
    <g>
     <path class="st0" d="M82.9,34.9c0-9.3,7.2-15.8,16.8-15.8c3.1,0,5.9,0.4,8.2,1.5l1-1.2h1l0.6,10.5h-1.3
					c-0.4-2.1-1.3-5.6-2.3-6.9c-1.3-1.2-3.7-2.3-6.9-2.3c-8.5,0-11.3,7.1-11.3,13.9c0,8.5,4.4,14.3,10.6,14.3c2.7,0,5.4-1.1,6.8-2
					c1-1,2.7-5,3.2-7.1h1.4l-1.7,9c-2,0.9-5.7,1.8-9.8,1.8C88.5,50.6,82.9,43.2,82.9,34.9z">
     </path>
     <path class="st0" d="M114.6,38.6c0-6.9,4.9-12,11.5-12c6.6,0,11.4,4.7,11.4,11.9c0,7-4.8,12.1-11.4,12.1
					C119.4,50.6,114.6,46,114.6,38.6z M132.7,38.5c0-5.2-2.3-10.1-6.6-10.1c-3.9,0-6.7,3.5-6.7,10.2c0,5.4,2.3,10.5,6.7,10.5
					C130.1,49,132.7,45.6,132.7,38.5z">
     </path>
     <path class="st0" d="M139.5,48.9l1.8-0.4c1-0.2,1.6-0.4,1.6-1v-16c0-1-0.1-1.3-2-2.1l-1.3-0.5v-1l6.3-1.3h1.5v5
					c1.3-2.7,3.8-5,7.5-5c5,0,7.7,3.1,7.7,8v12.9c0,0.7,0.8,0.8,1.5,1l1.8,0.4V50h-11.1v-1.1l1.9-0.4c1.4-0.3,1.6-0.3,1.6-1V35.9
					c0-3.4-0.9-6.5-5-6.5c-3,0-5,2-5.8,3.8v14.4c0,0.7,0.7,0.8,1.5,1l1.8,0.4V50h-11.1V48.9z">
     </path>
     <path class="st0" d="M168.3,42h1.3c0.6,2.4,1.5,4,2.2,5.2c1.2,1.1,2.6,1.7,4.1,1.7c2.6,0,4.5-1.3,4.5-3.8c0-2.7-1.5-3.4-2.9-3.9
					l-3.9-1.5c-2.6-1-4.9-3-4.9-6.2c0-4.4,4-7,8.3-7c2.1,0,3.9,0.7,4.9,1.3l0.6-1.3h1.2V34h-1.3c-0.2-1.8-0.8-3-1.3-4
					c-0.7-0.8-2.2-1.9-3.9-1.9c-2.3,0-4.3,1.6-4.3,4c0,2.1,0.7,3.3,2.5,4l4.5,1.8c2.4,0.9,4.8,2.9,4.8,5.9c0,4.7-4.1,6.9-8.3,6.9
					c-2.7,0-4.7-0.5-6.1-1.3l-0.6,1.3h-1.2L168.3,42z">
     </path>
     <path class="st0" d="M189.5,44.7V30h-2.7v-1.6c0.8-0.3,2.1-0.7,3-1.4c0.7-1,2-4.5,2.4-5.8h1.6v6.6h6.9V30h-6.9v13.6
					c0,3.1,1.1,4.3,4,4.3c1.8,0,3-0.8,3.8-1.6l0.5,0.6c-1.3,2.2-3.6,3.7-6.6,3.7C191.9,50.6,189.5,48.6,189.5,44.7z">
     </path>
     <path class="st0" d="M202.3,38.6c0-6.8,4.4-12,11-12c4.9,0,8.5,3,8.5,7.8c0,0.7-0.2,2-0.3,2.7l-14.8-0.4c0,0.4,0,0.7,0,1
					c0,6.5,3.1,9.8,8.3,9.8c2.6,0,4.8-1.2,6.1-3.1l0.5,0.5c-1.8,3.5-4.5,5.8-9.1,5.8C206.2,50.6,202.4,45.5,202.3,38.6z M217.2,34.8
					c0.1-0.3,0.2-0.9,0.2-1.3c0-3.4-1.6-5.2-4.3-5.2c-3.7,0-5.9,3.4-6.2,7L217.2,34.8z">
     </path>
     <path class="st0" d="M223.1,48.9l1.8-0.4c0.7-0.2,1.5-0.3,1.5-1V20.7c0-1.4-0.2-1.7-1.3-2.2l-1.9-0.8v-1l6.5-1.2h1.5
					c-0.2,1.8-0.3,4.7-0.3,7v24.9c0,0.7,0.8,0.8,1.5,1l1.8,0.4V50h-11.1V48.9z">
     </path>
     <path class="st0" d="M237.1,48.9l1.8-0.4c0.7-0.2,1.5-0.3,1.5-1V20.7c0-1.4-0.2-1.7-1.3-2.2l-1.9-0.8v-1l6.5-1.2h1.5
					c-0.2,1.8-0.3,4.7-0.3,7v24.9c0,0.7,0.8,0.8,1.5,1l1.8,0.4V50h-11.1V48.9z">
     </path>
     <path class="st0" d="M250.2,44.8c0-4.2,4.9-5.8,9.4-6.9l4.3-1.1v-2.6c0-3.8-2-5.4-5.1-5.4c-1.2,0-2.9,0.3-3.9,1l0.8,1.2
					c0.3,0.6,0.5,1.2,0.5,1.7c0,1.3-0.8,2.7-2.5,2.7c-1.6,0-2.4-1-2.4-2.7c0-1.8,1.6-3.1,2.9-3.8l1.4-0.9c1.7-1,3.4-1.4,5-1.4
					c4.9,0,7.8,2,7.8,7V44c0,1.9,0,2.7,0.3,3.8c0.9,0.4,2.3,0.5,3.6,0.5v1c-1.5,0.9-3.5,1.4-4.6,1.4c-2.6,0-3.4-1.4-3.7-3.9
					c-1.6,2.5-4.1,3.9-7.2,3.9C252.7,50.6,250.2,48.5,250.2,44.8z M263.9,45.2v-6.9l-4.2,1.2c-2.4,0.7-5.1,1.8-5.1,4.7
					c0,2.6,1.6,3.7,4.1,3.7C261,47.9,263,46.4,263.9,45.2z">
     </path>
     <path class="st0" d="M274.2,44.7V30h-2.7v-1.6c0.8-0.3,2.1-0.7,3-1.4c0.7-1,2-4.5,2.4-5.8h1.6v6.6h6.9V30h-6.9v13.6
					c0,3.1,1.1,4.3,4,4.3c1.8,0,3-0.8,3.8-1.6l0.5,0.6c-1.3,2.2-3.6,3.7-6.6,3.7C276.6,50.6,274.2,48.6,274.2,44.7z">
     </path>
     <path class="st0" d="M287.8,48.9l1.9-0.4c0.7-0.1,1.6-0.3,1.6-1.1V31.5c0-1-0.1-1.3-2-2.1l-1.4-0.5v-1l6.3-1.3h1.5v20.8
					c0,0.8,0.2,0.8,1.5,1.1l1.8,0.4V50h-11.1V48.9z M290.7,18.6c0-1.6,1.3-3,2.9-3c1.6,0,2.8,1.4,2.8,3c0,1.7-1.3,3-2.8,3
					C292,21.7,290.7,20.3,290.7,18.6z">
     </path>
     <path class="st0" d="M299.8,38.6c0-6.9,4.9-12,11.5-12c6.6,0,11.4,4.7,11.4,11.9c0,7-4.8,12.1-11.4,12.1
					C304.6,50.6,299.8,46,299.8,38.6z M317.9,38.5c0-5.2-2.3-10.1-6.6-10.1c-3.9,0-6.7,3.5-6.7,10.2c0,5.4,2.3,10.5,6.7,10.5
					C315.2,49,317.9,45.6,317.9,38.5z">
     </path>
     <path class="st0" d="M324.7,48.9l1.8-0.4c1-0.2,1.6-0.4,1.6-1v-16c0-1-0.1-1.3-2-2.1l-1.3-0.5v-1l6.3-1.3h1.5v5
					c1.3-2.7,3.8-5,7.5-5c5,0,7.7,3.1,7.7,8v12.9c0,0.7,0.8,0.8,1.5,1l1.8,0.4V50h-11.1v-1.1l1.9-0.4c1.4-0.3,1.6-0.3,1.6-1V35.9
					c0-3.4-0.9-6.5-5-6.5c-3,0-5,2-5.8,3.8v14.4c0,0.7,0.7,0.8,1.5,1l1.8,0.4V50h-11.1V48.9z">
     </path>
     <path class="st0" d="M361.3,48.6l2.8-0.5c1.2-0.2,1.3-0.4,1.3-1V22.9c0-0.7-0.1-0.9-1.3-1l-2.9-0.6v-1.4h14.2
					c6.7,0,10.7,2.8,10.7,7.5c0,3.5-3,5.9-6.2,6.9c4.2,1,7.5,3.7,7.5,7.7c0,6.2-5.9,8.1-11.1,8.1h-15.1V48.6z M373.7,33.7
					c4.6,0,7.6-1.6,7.6-6.3c0-4.3-2.7-5.9-6.9-5.9h-1c-1,0-2.1,0.1-2.9,0.4v11.8H373.7z M375.4,48.4c4.5,0,6.9-2.3,6.9-6.6
					c0-4.3-3.9-6.5-8.7-6.5h-3V48c0.8,0.2,2.1,0.4,3.4,0.4H375.4z">
     </path>
     <path class="st0" d="M390.3,48.9l1.8-0.4c0.9-0.2,1.6-0.3,1.6-1v-16c0-1-0.1-1.3-2-2.1l-1.3-0.5v-1l6.3-1.3h1.5v5.3
					c1-3,3.6-5.3,6.2-5.3c1.5,0,2.9,1.1,2.9,2.4c0,2.2-2.3,3.4-2.3,3.4c-0.2-0.5-0.8-1.8-2.3-1.8c-1.9,0-4,1.4-4.5,2.7v14
					c0,0.6,0.6,0.9,1.5,1l3.5,0.6V50h-12.8V48.9z">
     </path>
     <path class="st0" d="M408.2,44.8c0-4.2,4.9-5.8,9.4-6.9l4.3-1.1v-2.6c0-3.8-2-5.4-5.1-5.4c-1.2,0-2.9,0.3-3.9,1l0.8,1.2
					c0.3,0.6,0.5,1.2,0.5,1.7c0,1.3-0.8,2.7-2.5,2.7c-1.6,0-2.4-1-2.4-2.7c0-1.8,1.6-3.1,2.9-3.8l1.4-0.9c1.7-1,3.4-1.4,5-1.4
					c4.9,0,7.8,2,7.8,7V44c0,1.9,0,2.7,0.3,3.8c0.9,0.4,2.3,0.5,3.6,0.5v1c-1.5,0.9-3.5,1.4-4.6,1.4c-2.6,0-3.4-1.4-3.7-3.9
					c-1.6,2.5-4.1,3.9-7.2,3.9C410.6,50.6,408.2,48.5,408.2,44.8z M421.8,45.2v-6.9l-4.2,1.2c-2.4,0.7-5.1,1.8-5.1,4.7
					c0,2.6,1.6,3.7,4.1,3.7C418.9,47.9,421,46.4,421.8,45.2z">
     </path>
     <path class="st0" d="M430.8,48.9l1.8-0.4c1-0.2,1.6-0.4,1.6-1v-16c0-1-0.1-1.3-2-2.1l-1.3-0.5v-1l6.3-1.3h1.5v5
					c1.3-2.7,3.8-5,7.5-5c5,0,7.7,3.1,7.7,8v12.9c0,0.7,0.8,0.8,1.5,1l1.8,0.4V50H446v-1.1l1.9-0.4c1.4-0.3,1.6-0.3,1.6-1V35.9
					c0-3.4-0.9-6.5-5-6.5c-3,0-5,2-5.8,3.8v14.4c0,0.7,0.7,0.8,1.5,1l1.8,0.4V50h-11.1V48.9z">
     </path>
     <path class="st0" d="M475.1,46.7c-1.5,2.2-4,3.9-7.4,3.9c-6,0-9.6-4.9-9.6-11.9c0-6.7,4.7-12.1,11.5-12.1c2,0,4.4,0.9,5.5,2.3
					v-8.3c0-1.7,0-1.9-2.1-2.5l-1.8-0.5v-0.9l7.2-1.1h1.5c-0.2,1.9-0.3,4.8-0.3,7v24.6c0,0.7,0.1,0.8,1.3,1.1l2.1,0.4v1l-7.8,1.1
					V46.7z M475.1,45.4V29.9c-0.8-0.4-2.3-1.3-4.7-1.3c-4.5,0-7.6,4-7.6,9.6c0,6.3,3,9.4,7.6,9.4C472.1,47.6,474.1,46.6,475.1,45.4z
					">
     </path>
     <path class="st0" d="M486.2,42h1.3c0.6,2.4,1.5,4,2.2,5.2c1.2,1.1,2.6,1.7,4.1,1.7c2.6,0,4.5-1.3,4.5-3.8c0-2.7-1.5-3.4-2.9-3.9
					l-3.9-1.5c-2.6-1-4.9-3-4.9-6.2c0-4.4,4-7,8.3-7c2.1,0,3.9,0.7,4.9,1.3l0.6-1.3h1.2V34h-1.3c-0.2-1.8-0.8-3-1.3-4
					c-0.7-0.8-2.2-1.9-3.9-1.9c-2.3,0-4.3,1.6-4.3,4c0,2.1,0.7,3.3,2.5,4l4.5,1.8c2.4,0.9,4.8,2.9,4.8,5.9c0,4.7-4.1,6.9-8.3,6.9
					c-2.7,0-4.7-0.5-6.1-1.3l-0.6,1.3h-1.2L486.2,42z">
     </path>
    </g>
   </g>
  </g>
 </g>
 <g id="Notes">
 </g>
</svg>