<?xml version="1.0" encoding="UTF-8" ?>
<!DOCTYPE svg PUBLIC "-//W3C//DTD SVG 1.1//EN" "http://www.w3.org/Graphics/SVG/1.1/DTD/svg11.dtd">
<svg width="1676pt" height="812" viewBox="0 0 1676 609" xmlns="http://www.w3.org/2000/svg">
  <g/>
  <path fill="#0164a2" d="M699.75 233.1c23.52-36.02 46.28-72.56 69.91-108.51-5.52 14.23-11.91 28.11-17.78 42.2-19.2 44.78-38.29 89.6-57.52 134.37-2.92-11.04-4.9-22.32-7.51-33.44-23.12 32.01-45.6 64.48-68.84 96.39 7.48-17.31 15.75-34.28 23.58-51.44 17.05-37 34.22-73.95 51.29-110.95.37-.67.79-1.32 1.26-1.93 1.93 11.09 3.54 22.24 5.61 33.31"/>
  <g fill="#69727b">
    <path d="M394.4 188.35c18.98-15.8 44.18-22.74 68.6-22.37 23.05-.33 45.68 6.11 66.55 15.52 2.98 1.63 6.82 1.55 8.73-1.6 1.31.76 2.6 1.57 3.89 2.39-6.2 11.3-12.85 22.35-19.23 33.55-1.41-.65-2.83-1.31-4.24-1.96 1.19-2.11 2.33-4.79.46-6.9-5.32-6.19-12.98-9.69-20.39-12.71-19.66-7.5-41.83-9.49-62.15-3.46-12.79 3.8-24.87 11.03-32.96 21.81-8.89 11.61-12.29 26.82-10.98 41.24 1.45 15.46 10.02 29.72 22.04 39.35 16.13 13.21 37.59 19.44 58.31 17.81 14.73-1.52 29.02-7.3 40.7-16.41 3.22-2.82 6.59-5.8 8.32-9.81 1-2.17-.46-4.37-1.1-6.42 1.38-.81 2.76-1.63 4.15-2.45 7.63 10.02 15.42 19.92 22.94 30.03-1.34.96-2.68 1.93-4.02 2.88-1.53-1.04-3.1-2.38-5.09-2.1-3.49 1.71-6.25 4.54-9.47 6.66-14.18 10.22-31.11 16.32-48.42 18.31-21.81 2.66-44.65.4-64.69-8.99-16.8-7.68-31.22-20.76-39.84-37.15-7.83-14.8-11.03-32.02-9.21-48.64 2.09-18.98 12.43-36.55 27.1-48.58m242.49-7.51c17.22-10.82 37.91-15.17 58.09-14.87 11.7-.11 23.49 1.33 34.72 4.7-4.22 6.25-8.11 12.72-12.1 19.12-16.7-3.47-34.48-3.81-50.77 1.77-11.98 4.05-22.71 12.13-29.16 23.1-8.25 13.78-9.83 30.56-7.99 46.25 1.31 10.84 4.76 21.85 12.13 30.15-3.06 7.71-6.67 15.19-9.95 22.81-13.95-9.56-23.73-24.6-27.57-41-4.21-17.61-3.75-36.5 2.08-53.7 5.33-15.81 16.4-29.49 30.52-38.33m-438.11-13.11c16.76-.03 33.51-.05 50.27.01-.01 1.28-.01 2.56-.02 3.84-1.82.5-4.53.2-5.24 2.42-.71 1.5.21 3.07.73 4.46 24.21 45.15 48.24 90.4 72.42 135.58 1.99 3.59 3.84 7.34 6.53 10.48 2.02 2.28 5.22 2.28 8.02 2.2.02 1.33.04 2.67.07 4.01-16 0-32.01.24-48-.12.05-.94.16-2.83.22-3.77 2.37-.23 5.6-.01 6.56-2.81.55-4.21-2.47-7.71-4.07-11.37-3.94-7.44-8.03-14.81-11.85-22.32-32.93-.08-65.87-.04-98.81-.02-3.64 7.44-7.28 14.89-10.98 22.31-1.57 3.7-4.07 7.12-4.63 11.19.46 2.73 3.68 2.71 5.81 3.14-.03 1.27-.05 2.55-.07 3.83-14.11-.06-28.23.08-42.34-.09.04-1.32.09-2.63.13-3.94 6.12.91 9.12-5.26 11.52-9.73 23.25-46.47 46.07-93.17 69.33-139.63 2.25-3.74-2.92-5.56-5.77-5.99.04-.92.13-2.76.17-3.68m-11.24 98.5c24.57.02 49.15-.13 73.72.07-12.55-24.11-25.59-47.98-38.43-71.93-11.67 24-23.62 47.86-35.29 71.86m-2.51 5.05c-.92 1.78-1.82 3.57-2.71 5.38 28.22.08 56.44-.02 84.66.05-.9-1.89-1.9-3.73-3.04-5.47-26.3.12-52.61.03-78.91.04M856 167.71c29-.01 58 0 87 0 13.02.12 26.21-.66 39.04 2.11 9.97 2.08 20.03 6.47 26.35 14.78 6.66 8.56 8.42 19.83 8.15 30.4-.25 10.65-3.17 21.9-10.94 29.58-8.37 8.84-20.6 12.54-32.33 14.13 11.48 17.87 23.01 35.71 34.46 53.61 2.85 4.09 5.07 8.7 8.68 12.22 1.94 2.06 4.95 2.16 7.6 2.27-.02 1.32-.03 2.65-.03 3.98-14.92-.04-29.85.03-44.77-.04-.03-1.26-.01-2.52.05-3.77 2-.66 4.79.21 6.11-1.93.4-1.78-1.08-3.21-1.81-4.68-12.77-19.88-24.79-40.3-37.8-59.99-18.73-.21-37.48-.03-56.21-.08.01 19.55-.01 39.11.01 58.66.15 2.4.27 5.45 2.67 6.77 1.38 1.03 3.18.88 4.83 1.06-.06 1.33-.1 2.66-.13 3.99-13.64-.01-27.28 0-40.92 0-.01-1.32-.02-2.64-.02-3.96 2.23-.16 4.88-.4 6.21-2.49 1.67-2.82 1.19-6.22 1.27-9.34-.03-43.33-.02-86.65 0-129.97-.2-3.68.72-7.83-1.5-11.06-1.31-1.97-3.9-1.98-5.97-2.37-.01-1.29-.01-2.58 0-3.88m33.55 21.32c.01 16.66 0 33.31 0 49.97 19.16-.03 38.31 0 57.46-.01 8.98-.01 18.19.37 26.88-2.28 6.51-1.95 12.57-6.38 15.07-12.87 2.44-6.77 2.77-14.4.59-21.29-1.24-4.02-4.31-7.31-8.04-9.15-7.54-3.87-16.23-3.98-24.5-4.38-22.48-.01-44.97-.03-67.46.01M1081.72 168c33.08 0 66.17.01 99.26 0 20.9.33 42.2 7.91 56.97 23.05 13.86 13.94 21.12 33.49 21.96 52.95.85 18.57-2.27 37.89-12.05 53.96-7.04 11.75-17.82 21.18-30.45 26.5-11.1 4.84-23.31 6.6-35.35 6.56-33.47-.06-66.93.06-100.4-.06.01-1.29.03-2.58.07-3.87 3.91.14 7.74-2.8 7.25-6.98-.01-47.38.07-94.77-.04-142.14.23-4.04-3.65-6.21-7.22-6.17-.02-1.27-.02-2.54 0-3.8m33.59 142.26c16.9-.07 33.8-.01 50.7-.03 11.27-.14 22.82.9 33.74-2.57 11.1-3 20.87-10.55 26.43-20.63 6.5-11.49 8.3-24.98 8.31-38-.05-11.88-2.1-24.07-8.03-34.51-5.49-9.97-14.79-17.64-25.44-21.54-11.13-4.34-23.27-4.57-35.05-4.44-16.87-.05-33.73.1-50.59-.07-.17 40.59-.03 81.19-.07 121.79m255.89-142.45c16.71-.26 33.44.01 50.16-.13.08 1.29.16 2.58.28 3.87-1.77.44-3.92.29-5.17 1.79-1.5 3.68 1.64 6.93 3.11 10.08 23.62 44.07 47.11 88.21 70.68 132.32 1.8 3.12 3.4 6.46 5.97 9.04 2.09 1.95 5.08 1.95 7.77 2.02-.02 1.33-.03 2.65-.01 3.98-15.99 0-31.99-.01-47.97.01-.03-1.33-.04-2.66-.02-3.98 2.21-.26 5.09.05 6.53-2.07 1.2-2.93-.79-5.8-1.91-8.4-4.57-8.73-9.22-17.4-13.93-26.05-32.81.07-65.63-.1-98.44.08-4.41 7.95-8.18 16.41-12.3 24.57-1.53 3.27-3.76 6.47-3.4 10.25 1.69 1.16 3.72 1.48 5.74 1.62-.04 1.33-.05 2.66-.05 3.99-14.08-.05-28.15-.02-42.22-.01-.03-1.32-.03-2.64-.02-3.95 6.27.75 9.21-5.56 11.64-10.16 23.11-46.26 45.9-92.69 69.01-138.94l1-2.95c-1.62-1.98-4-2.82-6.43-3.27-.03-1.24-.03-2.47-.02-3.71m23.99 26.85c-11.81 23.83-23.52 47.69-35.25 71.56 24.61 0 49.22-.03 73.83 0-12.86-23.85-25.32-47.94-38.58-71.56m-37.89 76.64c-.87 1.77-1.69 3.56-2.42 5.39 28.15.06 56.3-.13 84.45.09-.9-1.82-1.77-3.63-2.63-5.45-26.47-.07-52.94-.03-79.4-.03m166.17-102.7c8.45-2.58 17.91-.37 24.79 5.04 11.17 8.88 13.09 26.78 4.38 38.02-8.02 10.99-24.62 13.93-36.06 6.7-11.77-6.76-16.26-23-10.4-35.09 3.16-7.18 9.7-12.69 17.29-14.67m3.91 4.03c-10.75 1.5-19.12 11.54-19.02 22.33.04 8.09 4.63 16.1 11.87 19.86 7.22 3.97 16.65 3.5 23.4-1.27 5.87-3.83 9.29-10.72 9.78-17.61.26-7.34-3.16-14.83-9.12-19.19-4.88-3.34-11-5.25-16.91-4.12"/>
    <path d="M1518.97 180.22c5.73.23 11.57-.54 17.24.63 5.24 1.11 7.3 8.25 4.07 12.31-1.3 2.14-3.73 2.97-6.02 3.47 4.43 3.43 6.62 8.79 9.69 13.33-2.02.06-4.02.1-6 .15-2.29-3.7-4.07-7.76-7.01-11-1.76-1.86-4.53-1.63-6.83-1.96-.19 4.31-.05 8.62-.17 12.93-1.66-.01-3.3-.02-4.93-.02-.08-9.95.03-19.89-.04-29.84m4.54 4.33c0 2.8.02 5.6.04 8.41 3.53-.15 7.29.62 10.68-.76 2.85-1.36 2.61-5.98-.33-7.05-3.33-1.18-6.95-.42-10.39-.6m-780.26 19.56c3.09-7.65 6.1-15.33 9.35-22.92 14.85 9.46 26.06 24.31 31.01 41.2 4.47 15.16 4.85 31.45 1.76 46.9-3.64 17.93-13.81 34.63-28.78 45.3-18.49 13.61-42.01 18.48-64.61 18.15-13.11-.44-26.44-2.17-38.58-7.35 4.38-6.09 8.7-12.24 12.92-18.44 15.22 4.85 31.67 5.68 47.31 2.45 13.48-2.8 26.36-9.89 34.64-21.08 9.98-13.44 12.89-31.01 11.24-47.37-1.2-13.61-6.49-27.1-16.26-36.84M118.03 385.43c377.99.08 755.98.01 1133.97.04 85.58-.03 171.16.05 256.74-.04.01 2.18.02 4.36.04 6.55-463.6.06-927.2.01-1390.8.02-.01-2.19.01-4.38.05-6.57m45.05 54.69c1.72 1.3 3.73 2.13 5.94 1.89 8.48-.22 17.01.4 25.46-.35.71-.62 1.44-1.26 2.44-1.2-.18 3.47-.11 6.95-.27 10.43-3.26-3.44-8.45-1.65-12.63-2.1-.01 10.06-.06 20.13 0 30.2-.21 1.61 1.43 2.47 2.18 3.69-4.05-.05-8.22.63-12.18-.38.7-1.05 2.23-1.82 1.97-3.28.03-10.08.01-20.16-.01-30.24-3.43 0-6.86 0-10.29-.04-.91.72-1.81 1.44-2.71 2.16-.04-3.6-.06-7.19.1-10.78m261 1.85c1.77.18 3.14-.99 4.53-1.87.24 3.29.22 6.59.09 9.89-1.49-.64-3.01-1.36-4.67-1.23-5.17 0-10.33.03-15.49.03-.01 3.21-.01 6.43-.01 9.65 3.5-.01 7.01.03 10.53-.01.96-.58 1.93-1.15 2.9-1.71-.1 3.47.65 7.11-.63 10.45-.34-.44-1.03-1.32-1.37-1.76-3.81-.18-7.63-.15-11.44-.09.02 3.53.02 7.06-.02 10.6 6.17.06 12.35.19 18.52.01.62-.39 1.84-1.18 2.46-1.57.5 3.24.3 6.53.27 9.81-.91-.45-1.82-.9-2.72-1.34-9.74-.13-19.49-.01-29.23-.05.18-1.76 2.95-1.83 2.62-3.73-.01-11.71.1-23.43-.06-35.13-1.3-.14-2.33-.69-3.1-1.66 8.92-.58 17.88-.08 26.82-.29m463.92-.01c1.65.12 2.89-1.07 4.19-1.88.15 3.3.11 6.6.06 9.91-1.41-.46-2.76-1.26-4.26-1.21-5.4-.04-10.81.02-16.21.01-.01 3.22-.02 6.43.02 9.65 4.61-.24 9.64 1.04 13.76-1.68-.01 3.42.13 6.86-.29 10.27-3.59-3.38-9.06-1.08-13.48-1.73-.01 3.55-.02 7.12 0 10.68 5.76-.01 11.54.06 17.31 0 1.53.05 2.77-1.02 4.13-1.57.09 3.26.1 6.52.05 9.78-1.4-.53-2.7-1.51-4.24-1.41-8.38-.03-16.76.02-25.14.01-1.1.04-2.25 0-2.93-.98.67-.28 2.01-.86 2.68-1.15.1-12.2.04-24.39.03-36.59-1.07-.49-2.22-.84-2.96-1.8 9.07-.67 18.19-.04 27.28-.31m206.38-1.92c1.36 1 2.74 2.18 4.59 1.94 8.37.06 16.75.02 25.13-.04 1.47.02 2.61-1.12 3.88-1.76.02 3.6.04 7.2-.02 10.8-.75-.72-1.49-1.43-2.21-2.14-3.58-.09-7.16-.09-10.72-.06-.06 10.48 0 20.96-.04 31.43.83.6 1.67 1.2 2.51 1.81-3.84 1.66-8.36.46-12.45.58.75-1.18 2.19-2.12 2.14-3.64.09-10.05-.02-20.11.06-30.16-4.25.58-9.67-1.73-12.77 2.12-.43-3.61-.29-7.26-.1-10.88m-816.18 1.97c4.32.45 9.15-1.13 13.14.88-.63.26-1.9.77-2.54 1.02-.06 4.66.02 9.33-.07 13.99 5.39.23 10.79 0 16.18.15.1-4.66.18-9.33-.03-13.99a5.66 5.66 0 0 1-2.35-1.95c4.28-.14 8.55-.15 12.83-.11-.48.95-1.21 1.64-2.21 2.07-.35 11.3-.03 22.62-.16 33.92-.5 2.06 1.29 3.26 2.38 4.69-4.27.1-8.54.15-12.8 0 .69-.96 1.51-1.81 2.42-2.55.02-5.38 0-10.75 0-16.13-5.4-.01-10.8.01-16.2-.01-.02 5.38-.01 10.77-.02 16.15.89.71 1.8 1.48 2.37 2.51-3.98.36-8.08-.42-11.92.89-.18-.44-.52-1.33-.69-1.77.51-.35 1.53-1.06 2.04-1.41.29-11.96.09-23.96.09-35.93-.83-.81-1.65-1.62-2.46-2.42m235.09.07c6.87-.21 13.75-.04 20.62-.09 3.51-.1 7.14.93 9.81 3.27 5.94 5.87 3.31 18.03-5.34 19.68 3.24 5.89 5.45 12.44 9.75 17.69-4.14.22-8.3.2-12.44.06.55-.92 1.2-1.76 1.96-2.52-2.29-4.7-4.92-9.22-7.1-13.97-2.35-.16-4.69-.18-7.02-.1.01 4.63 0 9.26.04 13.9.81.84 1.63 1.71 2.39 2.62-3.9.29-7.83-.03-11.72.39l-.04-1.51c.29-.32.87-.95 1.16-1.27.29-11.86-.08-23.74.18-35.6zm10.26 6.69c0 3.48-.01 6.97-.01 10.46 4.04-.16 8.18.38 12.16-.58 4.49-1.28 3.99-9.11-.75-9.69-3.79-.42-7.61-.08-11.4-.19m117.06-6.62c4.67-.3 9.36-.11 14.04-.19-.68.9-1.35 1.81-2.02 2.72 3.37 9.9 6.75 19.8 10.15 29.68.96 2.77 1.61 5.81 3.83 7.91-2.74.99-5.71.22-8.53.65-1.04-.19-2.06-.38-3.07-.57q.885-.99 1.8-1.95c-.98-2.62-1.88-5.25-2.72-7.9-4.6.08-9.19-.02-13.77.12-.72 2.68-2.19 5.23-2.15 8.07.48.27 1.44.83 1.92 1.11-.43.76-1.09 1.08-1.99.96-3.07.14-6.14 0-9.19-.08 1-1.62 2.02-3.26 2.6-5.09 3.76-11.23 7.67-22.41 11.33-33.66-.56-.45-1.67-1.33-2.23-1.78m1.79 24.46c3.23.09 6.47.11 9.71.08-1.55-5.05-3.11-10.1-4.74-15.12-2.12 4.85-3.2 10.07-4.97 15.04m103.82-24.36c6.24-.57 12.51-.1 18.77-.28 3.83-.19 7.87.66 10.92 3.1 3.61 3.38 4.41 9.04 2.7 13.57-1.4 3.77-5.13 6.26-9 6.91-4.26.7-8.59.43-12.87.54.11 4.31-.04 8.62.05 12.94-.36 1.75 1.69 2.3 2.69 3.24-4.03 1-8.23.17-12.31.75l.04-1.52c1.1-.52 1.59-1.36 1.49-2.5-.03-11.55.04-23.1-.04-34.64-.83-.7-1.64-1.4-2.44-2.11m10.52 6.56c0 3.48.03 6.96.06 10.45 3.87-.16 7.88.35 11.65-.77 3.96-1.13 4.08-7.96.14-9.12-3.84-1.16-7.92-.39-11.85-.56m218.93-6.71c4.22-.18 8.45-.23 12.68-.02-.61.89-1.34 1.68-2.17 2.37-.37 6.83-.1 13.69-.18 20.54.12 2.83-.1 6.02 1.7 8.43 4 5.19 14.26 3.49 15.18-3.45.21-8.68.19-17.38-.03-26.05a4.9 4.9 0 0 1-2.12-1.65c4.13-.36 8.35-.61 12.45.24-.87.51-1.72 1.02-2.57 1.52-.18 8.01.02 16.02-.11 24.03-.07 4.54-1.33 9.51-5.22 12.27-5.16 3.57-12.03 3.53-17.9 2.05-5.1-1.3-8.71-6.17-9.11-11.32-.67-9 0-18.05-.4-27.06-1-.35-1.73-.98-2.2-1.9m234.51.2c4.64-.63 9.33-.2 14-.31-.37 1.15-1.22 1.78-2.57 1.9-.63 12.15-.23 24.37-.19 36.54 1.06.59 2.69.79 2.81 2.32-4.73-.28-9.68.8-14.24-.66.8-.38 2.41-1.15 3.21-1.54.04-12.19.12-24.38-.05-36.56-1.14-.34-2.13-.9-2.97-1.69m101.06 6c4.53-5.84 12.65-8.05 19.7-6.37 3.24.78 5.75 3.49 9.26 3.35-2.09 3.05-3.32 6.62-5.64 9.5-1.14-8.86-14.77-8.34-17.95-1.17-2.6 5.85-2.7 13.33 1.17 18.66 3.21 4.49 10.23 5.59 14.54 2.04 1.82-1.19 1.83-3.52 2.2-5.43 2.89 2.68 5.05 6.05 7.25 9.29-1.66-.15-3.29-.07-4.5 1.15-4.42 3.88-10.79 4.66-16.38 3.49-6.02-1.29-10.88-6.13-12.79-11.9-2.46-7.44-1.75-16.29 3.14-22.61m117.83-5.16c6.98-3.2 15.23-1.74 21.91 1.57.7-.26 2.09-.77 2.79-1.02-1.57 3.06-3.31 6.02-5.17 8.91-.41.74-1.03 1.18-1.85 1.33-.35-1.44-.21-3.23-1.7-4.05-3.51-2.41-8.51-3.22-12.36-1.17-2.51 1.56-2.2 5.89.72 6.82 6.22 2.61 13.73 2.32 19.06 6.95 4.92 5.26 3.03 14.38-3.06 17.9-7.79 4.56-17.59 3.28-25.4-.57-.62.34-1.84 1.01-2.46 1.34 1.23-3.82 2.56-8.08 5.57-10.87.15.75.45 2.25.61 3 4.72 3.23 11.08 4.07 16.47 2.08 3.08-1.03 4.37-6.11 1.26-7.85-6.51-3.66-15.37-2.36-20.69-8.28-3.84-5.1-1.62-13.56 4.3-16.09"/>
  </g>
</svg>
