<svg xmlns="http://www.w3.org/2000/svg" width="1024pt" height="416" viewBox="0 0 1024 312">
  <path d="M859.86 41.55c15.98-5.98 33.35-6.9 50.21-5.33 20.68 2.58 40.87 11.24 55.99 25.76 11.14 10.64 19.33 24.67 21.83 39.97 1.62 11.53.88 23.57-3.41 34.47-6.96 18.37-21.7 33.05-38.92 42.09-34.59 18.17-79.64 15.67-111.12-7.87-8.03-6.23-15.6-13.55-20.44-22.57 9.61 12.61 23.52 21.51 38.47 26.45 22.53 7.37 47.84 6.24 69.45-3.6 13.93-6.35 26.39-16.56 34.03-29.96 6.58-11.39 9.12-25.13 6.66-38.09-2.65-14.55-11.32-27.52-22.66-36.8-25.92-21.14-63.7-25.06-94.24-12.26-12.8 5.37-24.35 13.91-32.67 25.06 10.31-17.68 27.71-30.5 46.82-37.32M57.7 48.76c12.59-8.07 27.7-10.93 42.4-11.95 30.87-1.93 63.45 3.28 89.28 21.24-4.82 5.46-9.66 10.92-14.49 16.38-26.39-13.92-57.24-19.87-86.78-14.8-6.84 1.35-13.94 3.44-19.18 8.27-3.57 3.24-5.14 8.46-3.84 13.12 1.04 4.04 4.34 7.07 7.96 8.88 6.66 3.39 14.2 4.35 21.52 5.25 16.83 1.59 33.74 2.25 50.54 4.19 12.59 1.77 25.45 4.46 36.48 11.06 7.59 4.47 13.46 11.91 15.36 20.57 2.36 10.73 1.08 22.57-4.8 31.99-5.72 9.18-15.17 15.38-25.06 19.28-14.63 5.68-30.49 7.16-46.07 7.31-30.17.13-62.32-5.15-86.45-24.57 4.18-6 8.68-11.78 13.04-17.66 26.28 16.75 58.36 23.83 89.28 20.03 10.58-1.44 21.92-3.94 29.86-11.6 7.21-6.72 7.58-19.78-.28-26.13-7.92-6.51-18.66-6.88-28.37-8.05-22.67-2.51-45.74-2.22-68.05-7.47-8.51-2.03-17.34-5.11-23.3-11.85-7.26-8.08-8.52-19.93-6.35-30.21 2.09-9.82 8.95-18.01 17.3-23.28m176.3-8.7c7.96 0 15.92-.01 23.88 0-.01 30.99.01 61.97-.01 92.95-.02 4.81.88 9.67 3.06 13.97 3.23 6.58 9.22 11.37 15.74 14.46 9.15 4.34 19.33 5.89 29.35 6.57 12.42.67 25.03.27 37.15-2.69 8.63-2.21 17.27-6.12 23.04-13.14 4.42-5.3 6.42-12.27 6.39-19.11.06-31 0-62 .03-93.01h23.8c-.02 33.31.07 66.61-.04 99.92-.02 11.79-5.81 23.1-14.77 30.62-15.34 13.21-35.83 18.47-55.65 19.64-20.84 1.11-42.52-.56-61.63-9.61-11.12-5.36-21.64-13.48-26.83-24.98-2.54-5.53-3.55-11.64-3.51-17.68zm189.24.02 160.82-.02v21.88l-68.49.01.04 124.06-23.85.11-.01-124.17-68.5-.02zm188.7-.02c37.7 0 75.4-.01 113.09.01 11.58-.04 23.67 2.64 32.81 10.11 8.47 6.72 13.66 17.02 14.93 27.68 1.54 12.31-.07 25.86-8.03 35.84-6.88 8.9-17.72 13.78-28.61 15.55 12.79 18.96 25.61 37.91 38.4 56.87-9.24.02-18.48-.01-27.71.01-13.05-18.54-25.84-37.27-38.98-55.75-24.04.17-48.08-.06-72.12.12.07 18.54.01 37.08.03 55.62-7.94.01-15.87 0-23.81 0-.01-48.69 0-97.37 0-146.06m23.82 21.89c-.08 15.51.12 31.02-.11 46.53 26.77.34 53.55.04 80.33.15 7.97.07 16.51.17 23.61-3.99 4.99-2.77 8.14-8.12 8.92-13.7 1.08-7.53-.05-16.13-5.66-21.73-6.01-5.8-14.8-7.18-22.83-7.27-28.09 0-56.18-.01-84.26.01" fill="#0056b8"/>
  <path d="M799.35 95.54c9.31-3.39 20.2 3.59 21.39 13.32 1.76 9.16-5.41 18.85-14.78 19.47-8.92 1.09-17.49-6.39-18-15.28-.81-7.54 4.12-15.24 11.39-17.51M248.49 219.7c8.89-1.14 18.39-.12 26.2 4.54 6.26 3.7 11.57 9.55 13.31 16.74 1.79 7.45.78 15.82-3.76 22.14-5.32 7.43-14.14 11.98-23.15 12.91-7.05.38-14.4.61-21.07-2.06-8.11-3.07-15.46-9.39-18-17.89-2.19-7.59-1.4-16.31 3.21-22.88 5.33-7.59 14.15-12.32 23.26-13.5m-2.15 8.85c-4.47 1.17-8.66 3.57-11.74 7.04-5.99 6.57-6.08 17.57-.42 24.37 4.34 5.26 11.2 7.79 17.86 8.16 7.64.55 15.98-.91 21.73-6.33 7.6-6.77 7.9-20 .51-27.03-7.17-7.23-18.42-8.54-27.94-6.21m-200.15-7.6c14.61.02 29.23-.08 43.85.04 6.29-.03 13.21 3.14 15.36 9.43 2.37 6.1.01 13.37-5.69 16.67 8.98 2.94 11.46 15.53 5.77 22.47-4.13 4.48-10.67 5.22-16.42 5.36-14.29.05-28.58.01-42.87.01 0-17.99-.01-35.99 0-53.98m8.88 8.11c-.01 4.81-.01 9.62-.01 14.43 10.96.02 21.93-.01 32.89.02 2.58.07 5.37-.36 7.32-2.2 3.2-2.55 3.12-8.01-.07-10.53-2.02-1.59-4.69-1.73-7.15-1.73-11 .02-21.99.01-32.98.01m0 22.57q-.015 7.59 0 15.18c11.35-.02 22.7.04 34.04-.02 3.47-.09 7.7-.66 9.56-4 1.21-2.68.96-6.19-.93-8.5-2.18-2.43-5.71-2.63-8.76-2.67-11.3.01-22.61 0-33.91.01m105.37-30.57 8.87-.11v53.98l-8.83-.03zm179.81-.11c14.24 0 28.47-.07 42.71.04 6.68-.12 13.62 3.71 15.82 10.26 2.03 6.23 1.43 14.16-3.74 18.74-4.36 3.86-10.5 4.45-16.07 4.39-9.97-.02-19.93.01-29.89-.02-.05 6.86 0 13.72-.02 20.57-2.94.01-5.88.01-8.81 0 0-17.99-.01-35.99 0-53.98m8.82 8.11c-.01 5.73-.01 11.46 0 17.18 10.63 0 21.27.03 31.91 0 3.39.01 7.5-.91 9.02-4.32 1.19-2.94 1.08-6.59-.67-9.29-2.05-2.92-5.92-3.5-9.23-3.55-10.35-.06-20.69 0-31.03-.02m98.56-8.11h8.8v21.91l42.32.01.01-21.92 8.81.05v53.92l-8.82.01v-23.98l-42.35.08.03 23.91-8.8-.01zm135.47-.01 11-.03 28.08 54.03-9.83-.13-6.11-12-35.37.05-6.1 12.06-9.71.01zm5.53 7.92-13.48 25.89h26.94zm81-7.91c14.12.01 28.25-.06 42.37.03 6.17-.09 12.72 2.83 15.46 8.61 2.57 5.62 2.56 12.75-.92 17.99-2.48 3.68-6.74 5.52-10.94 6.42 4.71 6.98 9.42 13.95 14.13 20.93-3.48.01-6.96.06-10.43-.07-4.58-6.88-9.48-13.56-14.09-20.42-8.92-.15-17.85-.03-26.77-.06-.01 6.85.01 13.71-.01 20.56h-8.8c-.01-18-.01-36 0-53.99m8.79 8.14c.11 5.74-.16 11.49.14 17.23 10.8-.19 21.61.03 32.41-.11 3.31-.01 7.23-1.19 8.56-4.55 1.18-3.36.92-7.76-1.93-10.23-2.63-2.23-6.29-2.32-9.55-2.37-9.88.02-19.75-.03-29.63.03m102.02-8.03 11.23-.01 25.28 32.34 25.29-32.42 11-.02.01 53.98-8.83-.02.01-44.22-27.67 35.32-27.45-35.28v44.2l-8.88-.1zm120.26 53.88 28.09-54.03 11.01.04 28.03 53.98-9.66.01-6.1-12.05-35.79.16-6.04 11.96zm33.65-46.15-13.56 25.96 26.96-.02z" fill="#54565a"/>
</svg>
