<?xml version="1.0" encoding="UTF-8" standalone="no"?>
<!-- Created with Inkscape (http://www.inkscape.org/) -->

<svg
   xmlns:dc="http://purl.org/dc/elements/1.1/"
   xmlns:cc="http://creativecommons.org/ns#"
   xmlns:rdf="http://www.w3.org/1999/02/22-rdf-syntax-ns#"
   xmlns:svg="http://www.w3.org/2000/svg"
   xmlns="http://www.w3.org/2000/svg"
   xmlns:sodipodi="http://sodipodi.sourceforge.net/DTD/sodipodi-0.dtd"
   xmlns:inkscape="http://www.inkscape.org/namespaces/inkscape"
   width="242.10901"
   height="67.57003"
   viewBox="0 0 64.05801 17.877904"
   version="1.1"
   id="svg7740"
   inkscape:version="0.92.4 (5da689c313, 2019-01-14)"
   sodipodi:docname="united therapeutics.svg">
  <defs
     id="defs7734" />
  <sodipodi:namedview
     id="base"
     pagecolor="#ffffff"
     bordercolor="#666666"
     borderopacity="1.0"
     inkscape:pageopacity="0.0"
     inkscape:pageshadow="2"
     inkscape:zoom="5.9267796"
     inkscape:cx="120.55451"
     inkscape:cy="33.285014"
     inkscape:document-units="mm"
     inkscape:current-layer="layer1"
     showgrid="false"
     fit-margin-top="0"
     fit-margin-left="0"
     fit-margin-right="0"
     fit-margin-bottom="0"
     units="px"
     inkscape:window-width="1920"
     inkscape:window-height="1001"
     inkscape:window-x="-9"
     inkscape:window-y="-9"
     inkscape:window-maximized="1" />
  <metadata
     id="metadata7737">
    <rdf:RDF>
      <cc:Work
         rdf:about="">
        <dc:format>image/svg+xml</dc:format>
        <dc:type
           rdf:resource="http://purl.org/dc/dcmitype/StillImage" />
        <dc:title></dc:title>
      </cc:Work>
    </rdf:RDF>
  </metadata>
  <g
     inkscape:label="Layer 1"
     inkscape:groupmode="layer"
     id="layer1"
     transform="translate(508.90267,6.8926751)">
    <g
       transform="translate(-858.63499,-298.97341)"
       id="g7668">
      <g
         style="fill:#1d191b;fill-opacity:1"
         id="g7573">
        <path
           inkscape:connector-curvature="0"
           id="path5783"
           style="fill:#1d191b;fill-opacity:1;fill-rule:nonzero;stroke:none;stroke-width:0.35277778"
           d="m 368.29223,292.21303 v 3.10621 c 0,0.7807 -0.066,1.06574 0.66499,1.06574 0.73836,0 0.96414,-0.12277 0.96414,-1.06574 l 0.007,-3.10621 h 1.43475 v 3.52284 c 0,1.11125 -0.56938,1.8355 -2.40594,1.85737 -1.83586,-0.0219 -2.39783,-0.74612 -2.39783,-1.85737 v -3.52284 z" />
        <path
           inkscape:connector-curvature="0"
           id="path5787"
           style="fill:#1d191b;fill-opacity:1;fill-rule:nonzero;stroke:none;stroke-width:0.35277778"
           d="m 372.29562,297.42049 v -3.71016 h 1.56351 v 0.63147 h 0.0166 c 0.23142,-0.61525 0.78564,-0.78917 1.35714,-0.78917 0.65334,0 1.37266,0.42616 1.40546,1.32574 v 2.54212 h -1.58855 v -2.21827 c 0,-0.38664 -0.17322,-0.56021 -0.52847,-0.56021 -0.37253,0 -0.63817,0.31574 -0.63817,0.66252 v 2.11596 z" />
        <path
           d="m 377.62634,293.75379 h 1.81786 v 3.6636 h -1.81786 z m 0,-1.4993 h 1.81786 v 1.016 h -1.81786 z"
           style="fill:#1d191b;fill-opacity:1;fill-rule:nonzero;stroke:none;stroke-width:0.35277778"
           id="path5789"
           inkscape:connector-curvature="0" />
        <path
           inkscape:connector-curvature="0"
           id="path5801"
           style="fill:#1d191b;fill-opacity:1;fill-rule:nonzero;stroke:none;stroke-width:0.35277778"
           d="m 380.91257,293.52826 v -1.26682 h 1.72861 v 1.26682 h 0.95956 v 1.0414 h -0.95956 v 1.51271 c 0,0.28928 0.15381,0.42192 0.53481,0.42192 0.14394,0 0.22613,-0.008 0.33479,-0.0497 v 0.95885 c -0.45332,0.13159 -0.63394,0.16475 -1.10455,0.16475 -0.84173,0 -1.50318,-0.2473 -1.50318,-1.06574 v -1.94275 h -0.56974 v -1.0414 z" />
        <path
           inkscape:connector-curvature="0"
           id="path5805"
           style="fill:#1d191b;fill-opacity:1;fill-rule:nonzero;stroke:none;stroke-width:0.35277778"
           d="m 385.74044,295.07572 c 0.0579,-0.41028 0.35137,-0.73378 0.80821,-0.73378 0.44874,0 0.75071,0.3235 0.8001,0.73378 z m 1.53458,1.22379 c -0.0977,0.27693 -0.39193,0.45755 -0.70167,0.45755 -0.52211,0 -0.78352,-0.33126 -0.83291,-0.89147 h 3.06846 c 0.0815,-1.08162 -0.50624,-2.31281 -2.23555,-2.31281 -1.33879,0 -2.30152,0.70979 -2.30152,2.07539 0,1.28658 1.07738,1.95016 2.28494,1.95016 0.9144,0 1.85243,-0.39441 2.17099,-1.27882 z" />
        <path
           inkscape:connector-curvature="0"
           id="path5809"
           style="fill:#1d191b;fill-opacity:1;fill-rule:nonzero;stroke:none;stroke-width:0.35277778"
           d="m 392.55477,295.57705 c 0,0.68262 -0.30021,1.01212 -0.72072,1.01212 -0.41981,0 -0.71191,-0.3295 -0.71191,-1.01212 0,-0.68298 0.2921,-1.01212 0.71191,-1.01212 0.42051,0 0.72072,0.32914 0.72072,1.01212 m -0.34996,-1.56986 c -0.29421,-0.3369 -0.69426,-0.43145 -1.10066,-0.43145 -1.22696,0.0236 -1.58397,1.17722 -1.58397,2.04893 0,1.21568 0.85513,1.95334 1.61889,1.95334 0.50483,0 0.93239,-0.21167 1.14336,-0.5962 h 0.0138 v 0.43921 h 1.71556 v -5.15938 h -1.80693 z" />
        <path
           inkscape:connector-curvature="0"
           id="path5813"
           style="fill:#1d191b;fill-opacity:1;fill-rule:nonzero;stroke:none;stroke-width:0.35277778"
           d="m 367.43494,304.194 v -4.09504 h -1.29434 v -1.12537 h 3.80365 v 1.12537 h -1.29399 v 4.09504 z" />
        <path
           inkscape:connector-curvature="0"
           id="path5825"
           style="fill:#1d191b;fill-opacity:1;fill-rule:nonzero;stroke:none;stroke-width:0.35277778"
           d="m 370.32137,304.194 v -5.23169 h 1.42028 v 2.08491 h -0.0145 c 0.22331,-0.62053 0.72072,-0.79728 1.23437,-0.79728 0.58737,0 1.23472,0.43533 1.26435,1.3522 v 2.59186 h -1.42839 v -2.26201 c 0,-0.39441 -0.15593,-0.5715 -0.4759,-0.5715 -0.33408,0 -0.57221,0.32209 -0.57221,0.67663 v 2.15688 z" />
        <path
           inkscape:connector-curvature="0"
           id="path5829"
           style="fill:#1d191b;fill-opacity:1;fill-rule:nonzero;stroke:none;stroke-width:0.35277778"
           d="m 376.003,301.76841 c 0.0554,-0.42227 0.34361,-0.75494 0.79128,-0.75494 0.43956,0 0.73519,0.33267 0.78281,0.75494 z m 1.50319,1.25695 c -0.097,0.28434 -0.38383,0.4706 -0.68792,0.4706 -0.51153,0 -0.76729,-0.34078 -0.81527,-0.91651 h 3.00461 c 0.0804,-1.11161 -0.4946,-2.37773 -2.18934,-2.37773 -1.31092,0 -2.2539,0.73061 -2.2539,2.13431 0,1.32221 1.05551,2.00342 2.23802,2.00342 0.89465,0 1.81363,-0.40569 2.12549,-1.31409 z" />
        <path
           inkscape:connector-curvature="0"
           id="path5833"
           style="fill:#1d191b;fill-opacity:1;fill-rule:nonzero;stroke:none;stroke-width:0.35277778"
           d="m 379.44629,304.194 v -3.92606 h 1.17087 v 0.61524 h 0.013 c 0.24624,-0.62442 0.49989,-0.82691 1.27776,-0.82691 v 1.57021 c -0.14464,-0.0755 -0.29069,-0.10936 -0.44273,-0.10936 -0.57574,0 -0.80398,0.3803 -0.80398,1.10526 v 1.57162 z" />
        <path
           inkscape:connector-curvature="0"
           id="path5837"
           style="fill:#1d191b;fill-opacity:1;fill-rule:nonzero;stroke:none;stroke-width:0.35277778"
           d="m 384.83952,302.98397 c -0.0162,0.27587 -0.31574,0.54398 -0.69391,0.54398 -0.25259,0 -0.50518,-0.17921 -0.50518,-0.47977 0,-0.641 0.92251,-0.51153 1.24601,-0.86078 z m -1.08832,-1.53564 c 0.0159,-0.35701 0.26776,-0.48683 0.5835,-0.48683 0.2988,0 0.56021,0.11324 0.56021,0.4706 0,0.26 -0.29246,0.45438 -0.98602,0.45438 -1.26188,0 -1.75119,0.40605 -1.75119,1.25977 0,0.99906 0.93134,1.19309 1.4277,1.19309 0.35524,0 0.98566,-0.1785 1.30104,-0.69815 h 0.0155 c 0,0.13018 0.005,0.35596 0.005,0.53658 h 1.37019 c 0,-0.35878 0.005,-0.57644 0.005,-0.99977 v -1.38042 c 0,-0.97473 -0.44909,-1.6002 -2.07398,-1.6002 -0.89076,0 -1.75084,0.23601 -1.90888,1.25095 z" />
        <path
           inkscape:connector-curvature="0"
           id="path5841"
           style="fill:#1d191b;fill-opacity:1;fill-rule:nonzero;stroke:none;stroke-width:0.35277778"
           d="m 388.10973,302.19679 c 0,-0.69109 0.27023,-1.02447 0.64876,-1.02447 0.37853,0 0.6417,0.33338 0.6417,1.02447 0,0.69144 -0.26317,1.02482 -0.6417,1.02482 -0.37853,0 -0.64876,-0.33338 -0.64876,-1.02482 m 0,1.5808 c 0.29951,0.3496 0.70556,0.44485 1.11936,0.44485 1.24884,-0.0236 1.61255,-1.19133 1.61255,-2.07292 0,-1.23155 -0.8703,-1.97803 -1.64818,-1.97803 -0.51294,0 -0.94826,0.21484 -1.16275,0.60361 h -0.0141 v -0.51788 h -1.27671 v 5.23099 h 1.36984 z" />
        <path
           inkscape:connector-curvature="0"
           id="path5845"
           style="fill:#1d191b;fill-opacity:1;fill-rule:nonzero;stroke:none;stroke-width:0.35277778"
           d="m 392.46636,301.76841 c 0.0526,-0.42227 0.3235,-0.75494 0.7426,-0.75494 0.41345,0 0.69074,0.33267 0.73554,0.75494 z m 1.41076,1.25695 c -0.0907,0.28434 -0.36089,0.4706 -0.64594,0.4706 -0.47907,0 -0.71966,-0.34078 -0.76482,-0.91651 h 2.82116 c 0.0755,-1.11161 -0.46531,-2.37773 -2.05634,-2.37773 -1.23049,0 -2.11525,0.73061 -2.11525,2.13431 0,1.32221 0.9906,2.00342 2.10114,2.00342 0.83961,0 1.70215,-0.40569 1.99496,-1.31409 z" />
        <path
           inkscape:connector-curvature="0"
           id="path5849"
           style="fill:#1d191b;fill-opacity:1;fill-rule:nonzero;stroke:none;stroke-width:0.35277778"
           d="m 399.67082,300.23125 v 3.94123 h -1.41429 v -0.67133 h -0.0148 c -0.20849,0.65475 -0.70979,0.8382 -1.22661,0.8382 -0.5902,0 -1.24072,-0.45191 -1.27106,-1.40794 v -2.70016 h 1.43581 v 2.35656 c 0,0.41028 0.15769,0.59513 0.47942,0.59513 0.3362,0 0.57538,-0.33584 0.57538,-0.70485 v -2.24684 z" />
        <path
           inkscape:connector-curvature="0"
           id="path5853"
           style="fill:#1d191b;fill-opacity:1;fill-rule:nonzero;stroke:none;stroke-width:0.35277778"
           d="m 400.66047,300.25175 v -1.2894 h 1.54975 v 1.2894 h 0.86043 v 1.05198 h -0.86043 v 1.52683 c 0,0.29104 0.13864,0.42545 0.47907,0.42545 0.13018,0 0.20285,-0.009 0.30057,-0.0505 v 0.96802 c -0.4064,0.13264 -0.56762,0.16616 -0.9906,0.16616 -0.75494,0 -1.34796,-0.24977 -1.34796,-1.07527 v -1.96074 h -0.51118 v -1.05198 z" />
        <path
           d="m 403.59043,300.23397 h 1.3582 v 3.95993 h -1.3582 z m 0,-1.27142 h 1.3582 v 0.79693 h -1.3582 z"
           style="fill:#1d191b;fill-opacity:1;fill-rule:nonzero;stroke:none;stroke-width:0.35277778"
           id="path5855"
           inkscape:connector-curvature="0" />
        <path
           inkscape:connector-curvature="0"
           id="path5867"
           style="fill:#1d191b;fill-opacity:1;fill-rule:nonzero;stroke:none;stroke-width:0.35277778"
           d="m 408.12567,301.71087 c -0.0286,-0.16933 -0.0773,-0.30797 -0.15487,-0.40569 -0.0833,-0.0974 -0.19544,-0.1457 -0.34854,-0.1457 -0.35066,0 -0.57362,0.36512 -0.57362,1.0548 0,0.98955 0.29316,1.1684 0.58667,1.1684 0.40605,0 0.50377,-0.2674 0.53163,-0.60042 h 1.34197 c -0.0342,0.58384 -0.27164,0.97331 -0.62195,1.21743 -0.34925,0.24342 -0.80997,0.33973 -1.27952,0.33973 -1.1049,0 -1.97203,-0.74613 -1.97203,-2.09303 0,-0.95674 0.67169,-2.0447 1.9999,-2.0447 0.93733,0 1.73425,0.55139 1.8736,1.50918 z" />
        <path
           inkscape:connector-curvature="0"
           id="path5871"
           style="fill:#1d191b;fill-opacity:1;fill-rule:nonzero;stroke:none;stroke-width:0.35277778"
           d="m 411.25774,303.13094 c 0.0219,0.16228 0.0741,0.2921 0.15487,0.38171 0.0889,0.0804 0.21414,0.12982 0.37712,0.12982 0.31715,0 0.53199,-0.14676 0.53199,-0.45473 0,-0.75459 -2.31952,0 -2.31952,-1.55752 0,-1.0227 0.81245,-1.42875 1.93464,-1.42875 0.76799,0 1.59561,0.26035 1.63971,1.2499 h -1.31375 c 0.0145,-0.17851 -0.0233,-0.30798 -0.10407,-0.39688 -0.0811,-0.0981 -0.19861,-0.14676 -0.3623,-0.15487 -0.1912,0 -0.47942,0.0811 -0.47942,0.37324 0,0.8195 2.34103,0.0568 2.34103,1.70392 0,1.0869 -1.08585,1.36242 -1.92793,1.36242 -0.70132,0 -1.78647,-0.23424 -1.78647,-1.20826 z" />
      </g>
      <g
         style="fill:#bf3119;fill-opacity:1"
         id="g7597">
        <path
           inkscape:connector-curvature="0"
           id="path5933"
           style="fill:#bf3119;fill-opacity:1;fill-rule:nonzero;stroke:none;stroke-width:0.35277778"
           d="m 349.91889,301.85988 c -0.002,0.0243 -0.004,0.0455 -0.007,0.0684 h 6.9409 c 0.0123,-0.19756 -0.0169,-0.39617 -0.11113,-0.58561 -0.0367,-0.073 -0.0699,-0.14005 -0.10124,-0.20461 h -6.60541 c -0.0522,0.23883 -0.0942,0.48013 -0.11642,0.72178" />
        <path
           inkscape:connector-curvature="0"
           id="path5937"
           style="fill:#bf3119;fill-opacity:1;fill-rule:nonzero;stroke:none;stroke-width:0.35277778"
           d="m 349.88421,303.1392 h 6.52392 c 0.0536,-0.0818 0.0984,-0.16298 0.14005,-0.24412 0.0829,-0.16757 0.16722,-0.35278 0.22649,-0.5461 h -6.89646 c -0.0208,0.31503 -0.0169,0.49918 0.006,0.79022" />
        <path
           inkscape:connector-curvature="0"
           id="path5941"
           style="fill:#bf3119;fill-opacity:1;fill-rule:nonzero;stroke:none;stroke-width:0.35277778"
           d="m 355.18946,292.96777 c -0.14182,0.15487 -0.31926,0.32949 -0.48225,0.48436 h 1.66829 c -0.0564,-0.10618 -0.11712,-0.21237 -0.18309,-0.32279 -0.18592,-0.31044 -0.647,-0.54998 -1.00295,-0.16157" />
        <path
           inkscape:connector-curvature="0"
           id="path5945"
           style="fill:#bf3119;fill-opacity:1;fill-rule:nonzero;stroke:none;stroke-width:0.35277778"
           d="m 350.75921,298.98171 c -0.0663,0.16651 -0.13652,0.3429 -0.20743,0.52529 h 4.69053 c -0.26882,-0.25506 -0.47449,-0.4759 -0.71261,-0.79023 h -3.65937 c -0.0377,0.0861 -0.0741,0.17392 -0.11112,0.26494" />
        <path
           inkscape:connector-curvature="0"
           id="path5949"
           style="fill:#bf3119;fill-opacity:1;fill-rule:nonzero;stroke:none;stroke-width:0.35277778"
           d="m 350.13959,300.71759 h 6.27592 c -0.1323,-0.21449 -0.30304,-0.42545 -0.61101,-0.70097 -0.0363,-0.0314 -0.0674,-0.0593 -0.10055,-0.0892 h -5.30965 c -0.0921,0.25435 -0.17886,0.51823 -0.25471,0.79022" />
        <path
           inkscape:connector-curvature="0"
           id="path5953"
           style="fill:#bf3119;fill-opacity:1;fill-rule:nonzero;stroke:none;stroke-width:0.35277778"
           d="m 354.25181,293.87317 c -0.20779,0.21802 -0.4639,0.49071 -0.73342,0.78987 h 3.26107 c -0.0586,-0.31821 -0.127,-0.57115 -0.21131,-0.78987 h -2.31599 z" />
        <path
           inkscape:connector-curvature="0"
           id="path5957"
           style="fill:#bf3119;fill-opacity:1;fill-rule:nonzero;stroke:none;stroke-width:0.35277778"
           d="m 356.05384,303.55978 h -6.13339 c 0.0272,0.29845 0.0836,0.56056 0.1718,0.79022 h 4.90573 c 0.49389,-0.31362 0.82409,-0.56691 1.05586,-0.79022" />
        <path
           inkscape:connector-curvature="0"
           id="path5961"
           style="fill:#bf3119;fill-opacity:1;fill-rule:nonzero;stroke:none;stroke-width:0.35277778"
           d="m 350.72686,305.1585 c 0.51717,0.35595 1.06786,0.35595 1.61678,0.29104 0.46814,-0.0554 1.10208,-0.23072 1.93851,-0.67874 h -3.95851 c 0.10936,0.14499 0.24094,0.27587 0.40322,0.3877" />
        <path
           inkscape:connector-curvature="0"
           id="path5965"
           style="fill:#bf3119;fill-opacity:1;fill-rule:nonzero;stroke:none;stroke-width:0.35277778"
           d="m 352.50842,295.87388 h 4.40372 c -0.0141,-0.23142 -0.0356,-0.51999 -0.0684,-0.78987 h -3.69676 c -0.21943,0.25541 -0.43709,0.52141 -0.63853,0.78987" />
        <path
           inkscape:connector-curvature="0"
           id="path5969"
           style="fill:#bf3119;fill-opacity:1;fill-rule:nonzero;stroke:none;stroke-width:0.35277778"
           d="m 351.06387,298.29595 h 3.24979 c -0.078,-0.26423 -0.0688,-0.53516 -0.037,-0.79022 h -2.79471 c -0.15557,0.27446 -0.29245,0.53128 -0.41804,0.79022" />
        <path
           inkscape:connector-curvature="0"
           id="path5973"
           style="fill:#bf3119;fill-opacity:1;fill-rule:nonzero;stroke:none;stroke-width:0.35277778"
           d="m 352.02046,296.58924 c -0.10619,0.17674 -0.20214,0.33937 -0.29492,0.49601 h 2.61126 c 0.005,-0.0254 0.009,-0.0512 0.012,-0.0755 0.0501,-0.37641 0.25048,-0.59725 0.54187,-0.71473 h -2.68041 c -0.066,0.0981 -0.13193,0.19721 -0.18979,0.29422" />
        <path
           inkscape:connector-curvature="0"
           id="path5977"
           style="fill:#bf3119;fill-opacity:1;fill-rule:nonzero;stroke:none;stroke-width:0.35277778"
           d="m 358.23623,301.34271 c -0.0952,0.18944 -0.12382,0.38841 -0.11183,0.58596 h 6.9409 c -0.002,-0.0233 -0.005,-0.0444 -0.006,-0.0688 -0.0233,-0.24165 -0.0646,-0.48295 -0.11641,-0.72178 h -6.60542 c -0.0318,0.0646 -0.0649,0.13159 -0.10089,0.20461" />
        <path
           inkscape:connector-curvature="0"
           id="path5981"
           style="fill:#bf3119;fill-opacity:1;fill-rule:nonzero;stroke:none;stroke-width:0.35277778"
           d="m 358.20352,302.34894 c 0.0593,0.19332 0.14252,0.37853 0.22684,0.54645 0.0402,0.0808 0.0854,0.16228 0.13934,0.24377 h 6.52392 c 0.0226,-0.29104 0.0272,-0.47519 0.006,-0.79022 z" />
        <path
           inkscape:connector-curvature="0"
           id="path5985"
           style="fill:#bf3119;fill-opacity:1;fill-rule:nonzero;stroke:none;stroke-width:0.35277778"
           d="m 359.78803,292.96738 c -0.35595,-0.38876 -0.81633,-0.14852 -1.00224,0.16122 -0.0667,0.11077 -0.127,0.21731 -0.1845,0.3235 h 1.66899 c -0.16299,-0.15452 -0.34043,-0.32985 -0.48225,-0.48472" />
        <path
           inkscape:connector-curvature="0"
           id="path5989"
           style="fill:#bf3119;fill-opacity:1;fill-rule:nonzero;stroke:none;stroke-width:0.35277778"
           d="m 364.10754,298.71568 h -3.65972 c -0.23883,0.31538 -0.44344,0.53622 -0.71296,0.79057 h 4.69053 c -0.0705,-0.18203 -0.14076,-0.35877 -0.20743,-0.52458 -0.036,-0.091 -0.0734,-0.17885 -0.11042,-0.26599" />
        <path
           inkscape:connector-curvature="0"
           id="path5993"
           style="fill:#bf3119;fill-opacity:1;fill-rule:nonzero;stroke:none;stroke-width:0.35277778"
           d="m 359.27368,299.92737 c -0.0328,0.03 -0.0649,0.0579 -0.10054,0.0896 -0.30762,0.27587 -0.47872,0.48612 -0.61137,0.70061 h 6.27663 c -0.0759,-0.27128 -0.16405,-0.53587 -0.25471,-0.79022 z" />
        <path
           inkscape:connector-curvature="0"
           id="path5997"
           style="fill:#bf3119;fill-opacity:1;fill-rule:nonzero;stroke:none;stroke-width:0.35277778"
           d="m 358.19767,294.66301 h 3.26249 c -0.27023,-0.29916 -0.52705,-0.57185 -0.73448,-0.78987 v -7e-4 h -2.31634 c -0.084,0.21942 -0.15346,0.47236 -0.21167,0.79057" />
        <path
           inkscape:connector-curvature="0"
           id="path6001"
           style="fill:#bf3119;fill-opacity:1;fill-rule:nonzero;stroke:none;stroke-width:0.35277778"
           d="m 365.05704,303.55978 h -6.13339 c 0.23177,0.22331 0.56127,0.4766 1.05621,0.79022 h 4.90467 c 0.0896,-0.22966 0.14535,-0.49177 0.17251,-0.79022" />
        <path
           inkscape:connector-curvature="0"
           id="path6005"
           style="fill:#bf3119;fill-opacity:1;fill-rule:nonzero;stroke:none;stroke-width:0.35277778"
           d="m 364.25059,305.1585 c 0.16334,-0.11183 0.29386,-0.24271 0.40322,-0.3877 h -3.95887 c 0.83644,0.44802 1.47109,0.62336 1.93816,0.67874 0.55069,0.0649 1.09997,0.0649 1.61749,-0.29104" />
        <path
           inkscape:connector-curvature="0"
           id="path6009"
           style="fill:#bf3119;fill-opacity:1;fill-rule:nonzero;stroke:none;stroke-width:0.35277778"
           d="m 358.06442,295.87388 h 4.40514 c -0.20109,-0.26846 -0.41946,-0.53516 -0.63924,-0.79057 h -3.6964 c -0.0321,0.27022 -0.0543,0.5588 -0.0695,0.79057" />
        <path
           inkscape:connector-curvature="0"
           id="path6013"
           style="fill:#bf3119;fill-opacity:1;fill-rule:nonzero;stroke:none;stroke-width:0.35277778"
           d="m 360.70126,297.50569 c 0.0314,0.25541 0.0399,0.52599 -0.0381,0.78987 h 3.25049 c -0.12523,-0.25859 -0.26176,-0.51541 -0.41768,-0.78987 z" />
        <path
           inkscape:connector-curvature="0"
           id="path6017"
           style="fill:#bf3119;fill-opacity:1;fill-rule:nonzero;stroke:none;stroke-width:0.35277778"
           d="m 362.76745,296.294 h -2.68111 c 0.29175,0.11818 0.49283,0.33902 0.54328,0.71579 0.003,0.0243 0.007,0.0501 0.0102,0.0751 h 2.61232 c -0.0921,-0.15628 -0.18874,-0.31927 -0.29528,-0.49566 -0.0578,-0.0977 -0.12312,-0.19649 -0.18944,-0.29527" />
      </g>
      <g
         style="fill:#1d191b;fill-opacity:1"
         id="g7611">
        <path
           inkscape:connector-curvature="0"
           id="path5875"
           style="fill:#1d191b;fill-opacity:1;fill-rule:nonzero;stroke:none;stroke-width:0.35277778"
           d="m 352.06621,308.5253 c -0.0988,-0.24412 -0.36019,-0.37006 -0.66851,-0.37006 -0.42969,0 -0.75742,0.3436 -0.75742,0.75318 0,0.38523 0.2346,0.75282 0.75742,0.75282 0.33408,0 0.64875,-0.18626 0.69215,-0.44308 h 0.24094 c -0.11042,0.39511 -0.4766,0.60818 -0.93309,0.60818 -0.60361,0 -1.00789,-0.39758 -1.00789,-0.91792 0,-0.5207 0.48507,-0.91793 1.00789,-0.91793 0.47484,0 0.80574,0.19861 0.90099,0.53481 z" />
        <path
           inkscape:connector-curvature="0"
           id="path5879"
           style="fill:#1d191b;fill-opacity:1;fill-rule:nonzero;stroke:none;stroke-width:0.35277778"
           d="m 358.52318,308.90842 c 0,0.40922 -0.32808,0.75283 -0.75847,0.75283 -0.52247,0 -0.75812,-0.3676 -0.75812,-0.75283 0,-0.40957 0.32843,-0.75318 0.75812,-0.75318 0.52352,0 0.75847,0.36759 0.75847,0.75318 m -1.76671,0 c 0,0.52035 0.40428,0.91793 1.00824,0.91793 0.52352,0 1.00859,-0.39758 1.00859,-0.91793 0,-0.5207 -0.40428,-0.91793 -1.00859,-0.91793 -0.52247,0 -1.00824,0.39723 -1.00824,0.91793" />
        <path
           inkscape:connector-curvature="0"
           id="path5883"
           style="fill:#1d191b;fill-opacity:1;fill-rule:nonzero;stroke:none;stroke-width:0.35277778"
           d="m 363.59118,308.2084 h 0.63994 c 0.22331,0 0.39511,0.1016 0.39511,0.31221 0,0.21096 -0.1718,0.31291 -0.39511,0.31291 h -0.63994 z m 1.34267,1.56422 c -0.0783,-0.0723 -0.11042,-0.17181 -0.11042,-0.3048 v -0.19403 c 0,-0.25188 -0.0522,-0.30974 -0.30797,-0.37289 v -0.005 c 0.19826,-0.0603 0.33725,-0.19897 0.33725,-0.3803 0,-0.30762 -0.23812,-0.47237 -0.58667,-0.47237 h -0.90099 v 1.72897 h 0.22613 v -0.7747 h 0.6664 c 0.25541,0 0.33937,0.0631 0.33937,0.26176 v 0.25894 c 0,0.1404 0.0261,0.18626 0.0639,0.254 z" />
        <path
           inkscape:connector-curvature="0"
           id="path5887"
           style="fill:#1d191b;fill-opacity:1;fill-rule:nonzero;stroke:none;stroke-width:0.35277778"
           d="m 369.72578,308.2084 h 0.54645 c 0.26776,0 0.46532,0.10619 0.46532,0.36548 0,0.25964 -0.19756,0.36618 -0.46532,0.36618 h -0.54645 z m -0.22719,1.56422 h 0.22719 v -0.66816 h 0.52317 c 0.4191,0 0.71579,-0.18909 0.71579,-0.53058 0,-0.34114 -0.29669,-0.53023 -0.71579,-0.53023 h -0.75036 z" />
        <path
           inkscape:connector-curvature="0"
           id="path5891"
           style="fill:#1d191b;fill-opacity:1;fill-rule:nonzero;stroke:none;stroke-width:0.35277778"
           d="m 377.13933,308.90842 c 0,0.40922 -0.32879,0.75283 -0.75882,0.75283 -0.52282,0 -0.75848,-0.3676 -0.75848,-0.75283 0,-0.40957 0.32844,-0.75318 0.75848,-0.75318 0.52352,0 0.75882,0.36759 0.75882,0.75318 m -1.76671,0 c 0,0.52035 0.40322,0.91793 1.00789,0.91793 0.52352,0 1.00859,-0.39758 1.00859,-0.91793 0,-0.5207 -0.40393,-0.91793 -1.00859,-0.91793 -0.52282,0 -1.00789,0.39723 -1.00789,0.91793" />
        <path
           inkscape:connector-curvature="0"
           id="path5895"
           style="fill:#1d191b;fill-opacity:1;fill-rule:nonzero;stroke:none;stroke-width:0.35277778"
           d="m 382.2073,308.2084 h 0.63994 c 0.22295,0 0.39476,0.1016 0.39476,0.31221 0,0.21096 -0.17181,0.31291 -0.39476,0.31291 h -0.63994 z m 1.34232,1.56422 c -0.078,-0.0723 -0.11007,-0.17181 -0.11007,-0.3048 v -0.19403 c 0,-0.25188 -0.0526,-0.30974 -0.30797,-0.37289 v -0.005 c 0.19791,-0.0603 0.33655,-0.19897 0.33655,-0.3803 0,-0.30762 -0.23813,-0.47237 -0.58667,-0.47237 h -0.901 v 1.72897 h 0.22684 v -0.7747 h 0.66569 c 0.25541,0 0.34008,0.0631 0.34008,0.26176 v 0.25894 c 0,0.1404 0.0257,0.18626 0.0635,0.254 z" />
        <path
           inkscape:connector-curvature="0"
           id="path5899"
           style="fill:#1d191b;fill-opacity:1;fill-rule:nonzero;stroke:none;stroke-width:0.35277778"
           d="m 388.85942,308.25694 0.46461,0.95885 h -0.94157 z m -0.99766,1.51553 h 0.24483 l 0.19756,-0.39229 h 1.09502 l 0.18944,0.39229 h 0.24448 l -0.86396,-1.72896 h -0.20037 z" />
        <path
           inkscape:connector-curvature="0"
           id="path5903"
           style="fill:#1d191b;fill-opacity:1;fill-rule:nonzero;stroke:none;stroke-width:0.35277778"
           d="m 395.35102,308.04362 v 0.17427 h -0.64452 v 1.55505 h -0.22719 v -1.55505 h -0.64523 v -0.17427 z" />
        <path
           d="m 399.83546,309.77272 h 0.15099 v -1.72896 h -0.15099 z"
           style="fill:#1d191b;fill-opacity:1;fill-rule:nonzero;stroke:none;stroke-width:0.35277778"
           id="path5905"
           inkscape:connector-curvature="0" />
        <path
           inkscape:connector-curvature="0"
           id="path5917"
           style="fill:#1d191b;fill-opacity:1;fill-rule:nonzero;stroke:none;stroke-width:0.35277778"
           d="m 406.33603,308.90842 c 0,0.40922 -0.32808,0.75283 -0.75882,0.75283 -0.52282,0 -0.75883,-0.3676 -0.75883,-0.75283 0,-0.40957 0.32879,-0.75318 0.75883,-0.75318 0.52281,0 0.75882,0.36759 0.75882,0.75318 m -1.76671,0 c 0,0.52035 0.40393,0.91793 1.00789,0.91793 0.52281,0 1.00859,-0.39758 1.00859,-0.91793 0,-0.5207 -0.40358,-0.91793 -1.00859,-0.91793 -0.52282,0 -1.00789,0.39723 -1.00789,0.91793" />
        <path
           inkscape:connector-curvature="0"
           id="path5921"
           style="fill:#1d191b;fill-opacity:1;fill-rule:nonzero;stroke:none;stroke-width:0.35277778"
           d="m 411.1277,308.04362 h 0.22437 l 1.28305,1.40476 h 0.006 v -1.40476 h 0.22754 v 1.72932 h -0.22754 l -1.28164,-1.42664 h -0.005 v 1.42664 h -0.22719 z" />
        <path
           d="m 350.43599,306.47813 h 62.73447 v -0.10089 h -62.73447 z"
           style="fill:#1d191b;fill-opacity:1;fill-rule:nonzero;stroke:none;stroke-width:0.35277778"
           id="path6019"
           inkscape:connector-curvature="0" />
      </g>
    </g>
  </g>
</svg>
