<svg xmlns="http://www.w3.org/2000/svg" viewBox="0.899993896484375 0.48999977111816406 269.1300048828125 55.010406494140625"><g xmlns="http://www.w3.org/2000/svg" id="Page-1" stroke="none" stroke-width="0" fill="none" fill-rule="evenodd">
        <g id="Community-Hover-Header" transform="translate(-199.000000, -17.000000)" fill="#fff" fill-rule="nonzero">
            <g id="Layer_1" transform="translate(199.000000, 17.000000)">
                <g id="Layer_2-2">
                    <g id="Layer_1-2">
                        <g id="Horizontal">
                            <path d="M38.73,7.47 L37.73,7.47 C27.92,7.47 20.52,1.11 20.44,1.04 L20.32,0.93 L19.82,0.49 L19.32,0.93 L19.19,1.04 C19.12,1.1 11.71,7.47 1.9,7.47 L0.9,7.47 L0.9,33.63 C1,49 19.68,55.44 19.86,55.5 C20.04,55.56 38.73,49 38.73,33.63 L38.73,7.47 Z M36.83,33.62 C36.83,46.62 22.14,52.62 19.83,53.44 C17.56,52.6 2.83,46.63 2.83,33.62 L2.83,9.3 C9.00254909,8.94732351 14.9260916,6.74515945 19.83,2.98 C24.734211,6.74461241 30.6575791,8.94671161 36.83,9.3 L36.83,33.62 Z" id="Shape"></path>
                            <path d="M3.87,10.36 L3.87,33.31 C3.87,45.58 17.73,51.21 19.87,52.01 C22.01,51.21 35.87,45.58 35.87,33.31 L35.87,10.36 C30.0561384,10.0074814 24.4820998,7.91721691 19.87,4.36 C15.2572952,7.91612972 9.68360261,10.0062644 3.87,10.36 Z M24.07,36.61 L21.14,36.61 C21.14,36.93 21.14,40.12 21.14,40.67 C21.2184091,40.8100912 21.3123334,40.9409142 21.42,41.06 C21.5589415,41.2206652 21.7093348,41.3710585 21.87,41.51 C21.87,41.51 21.12,42.61 20.4,42.16 C20.4,42.16 21.31,42.7 19.88,45.35 C18.46,42.7 19.36,42.16 19.36,42.16 C18.64,42.62 17.89,41.51 17.89,41.51 C18.0506652,41.3710585 18.2010585,41.2206652 18.34,41.06 C18.4476666,40.9409142 18.5415909,40.8100912 18.62,40.67 C18.62,40.12 18.62,36.93 18.62,36.61 L15.69,36.61 C15.1573367,36.6048925 14.7128992,36.2017296 14.6560617,35.6720828 C14.5992242,35.1424359 14.9479985,34.6541518 15.4674496,34.5361396 C15.9869007,34.4181275 16.5124129,34.7077858 16.69,35.21 L17.78,35.21 L18.42,26.77 L19.91,25.62 L21.4,26.78 L22.04,35.22 L23.13,35.22 C23.3075871,34.7177858 23.8330993,34.4281275 24.3525504,34.5461396 C24.8720015,34.6641518 25.2207758,35.1524359 25.1639383,35.6820828 C25.1071008,36.2117296 24.6626633,36.6148925 24.13,36.62 L24.07,36.61 Z M12.17,28.88 L14.46,23 L19.78,23 L12.17,28.88 Z M20,23 L25.32,23 L27.61,28.87 L20,23 Z M20.44,15.41 C21.16,14.95 22.3,16.06 22.3,16.06 C22.1387563,16.1983183 21.9883183,16.3487563 21.85,16.51 C21.5099001,16.8727651 21.3081403,17.3435379 21.28,17.84 C21.2567114,18.3472078 21.3969294,18.8484871 21.68,19.27 C22.1022093,19.9272937 22.8024148,20.3547875 23.58,20.43 C23.7918068,20.4410389 24.0040847,20.420822 24.21,20.37 C24.8182973,20.2113488 25.3087423,19.7620861 25.52,19.17 C25.7138946,18.5180993 25.6382484,17.8156699 25.31,17.22 C25.2245603,17.0513478 25.1241576,16.8907035 25.01,16.74 C24.9133874,16.6083823 24.8027358,16.4876714 24.68,16.38 C24.4821787,16.2074898 24.250594,16.0780748 24,16 C24.853153,15.7091543 25.7946771,15.8548664 26.52,16.39 C26.52,16.39 29.27,13.72 30.74,13.56 L25.53,22.12 L25.48,22.24 L14.21,22.24 L14.16,22.12 L8.95,13.56 C10.41,13.71 13.17,16.39 13.17,16.39 C13.8953229,15.8548664 14.836847,15.7091543 15.69,16 C15.4745551,16.0770775 15.274713,16.1922407 15.1,16.34 C14.9775886,16.4480025 14.8669706,16.5686767 14.77,16.7 C14.6565581,16.8511955 14.5561956,17.0117755 14.47,17.18 C14.1406567,17.7753241 14.0649619,18.4782041 14.26,19.13 C14.4712577,19.7220861 14.9617027,20.1713488 15.57,20.33 C15.7758659,20.3811122 15.988187,20.4013332 16.2,20.39 C16.9775852,20.3147875 17.6777907,19.8872937 18.1,19.23 C18.3843823,18.809093 18.5247243,18.3073704 18.5,17.8 C18.4718597,17.3035379 18.2700999,16.8327651 17.93,16.47 C17.7908819,16.3094992 17.6405008,16.1591181 17.48,16.02 C17.48,16.02 18.62,14.92 19.34,15.37 C18.818395,13.7826283 19.0079675,12.0473104 19.86,10.61 C20.7120325,12.0473104 20.901605,13.7826283 20.38,15.37 L20.44,15.41 Z M62.2,18.9 L66.85,18.9 L74.25,36.41 L69,36.41 L67.73,33.3 L61.02,33.3 L59.78,36.41 L54.71,36.41 L62.2,18.9 Z M66.42,29.56 L64.48,24.62 L62.48,29.56 L66.42,29.56 Z M77.88,19 L86.1,19 C88.76,19 90.6,19.7 91.76,20.89 C92.8041996,21.9531266 93.361674,23.4011121 93.3,24.89 C93.3795242,27.2547529 91.9377338,29.4053564 89.72,30.23 L93.87,36.29 L88.31,36.29 L84.81,31.02 L82.7,31.02 L82.7,36.29 L77.88,36.29 L77.88,19 Z M85.88,27.35 C87.52,27.35 88.46,26.56 88.46,25.29 C88.46,23.92 87.46,23.23 85.85,23.23 L82.7,23.23 L82.7,27.4 L85.88,27.35 Z M97.74,19 L102.83,19 L107,25.76 L111.13,19 L116.22,19 L116.22,36.42 L111.43,36.42 L111.43,26.42 L107,33.24 L106.9,33.24 L102.48,26.48 L102.48,36.42 L97.76,36.42 L97.74,19 Z M119.74,27.74 C119.905143,22.6869359 124.049238,18.6760637 129.105,18.6760637 C134.160762,18.6760637 138.304857,22.6869359 138.47,27.74 C138.304857,32.7930641 134.160762,36.8039363 129.105,36.8039363 C124.049238,36.8039363 119.905143,32.7930641 119.74,27.74 Z M133.55,27.74 C133.610544,26.4983499 133.157037,25.2865737 132.296172,24.389761 C131.435308,23.4929483 130.243087,22.9902739 129,23 C127.791177,23.0066938 126.637593,23.5070856 125.806742,24.3851432 C124.975892,25.2632009 124.539949,26.4426512 124.6,27.65 C124.551342,28.8675949 124.99637,30.0532557 125.834172,30.9381248 C126.671973,31.8229939 127.831565,32.3321003 129.05,32.35 C130.26139,32.3458993 131.418506,31.8470089 132.253104,30.9689824 C133.087701,30.0909558 133.527303,28.9100412 133.47,27.7 L133.55,27.74 Z M142.44,19 L150.66,19 C153.32,19 155.16,19.7 156.32,20.89 C157.3642,21.9531266 157.921674,23.4011121 157.86,24.89 C157.939524,27.2547529 156.497734,29.4053564 154.28,30.23 L158.43,36.29 L152.87,36.29 L149.37,31.02 L147.26,31.02 L147.26,36.29 L142.44,36.29 L142.44,19 Z M150.44,27.35 C152.08,27.35 153.02,26.56 153.02,25.29 C153.02,23.92 152.02,23.23 150.41,23.23 L147.26,23.23 L147.26,27.4 L150.44,27.35 Z M176.7,36.69 C174.282947,36.7929954 171.93343,35.8779019 170.222764,34.1672361 C168.512098,32.4565702 167.597005,30.1070534 167.7,27.69 C167.627575,22.8025475 171.522797,18.7776346 176.41,18.69 L176.67,18.69 C179.1194,18.5742725 181.516897,19.4212923 183.35,21.05 L181.41,23.36 C180.097622,22.1186099 178.345779,21.4495283 176.54,21.5 C174.971887,21.559514 173.492889,22.2444229 172.433194,23.4018202 C171.373499,24.5592175 170.821345,26.0927301 170.9,27.66 C170.9,31.26 173.26,33.89 176.81,33.89 C178.314498,33.9061326 179.785227,33.4439035 181.01,32.57 L181.01,29.36 L176.56,29.36 L176.56,26.7 L184,26.7 L184,34 C181.987214,35.7447061 179.4137,36.7066679 176.75,36.71 L176.7,36.69 Z M207.56,36.39 L204.33,36.39 L202.57,32.19 L194.35,32.19 L192.56,36.39 L189.43,36.39 L197.08,18.88 L199.91,18.88 L207.56,36.39 Z M198.44,22.53 L195.44,29.53 L201.44,29.53 L198.44,22.53 Z M221.57,32.12 L221.47,32.12 L216,24 L216,36.42 L213,36.42 L213,19 L216.25,19 L221.54,27.22 L226.86,19 L230.11,19 L230.11,36.42 L227.05,36.42 L227.05,23.94 L221.57,32.12 Z M250,21.76 L240.16,21.76 L240.16,26.28 L248.88,26.28 L248.88,29 L240.16,29 L240.16,33.67 L250.16,33.67 L250.16,36.4 L237.16,36.4 L237.16,19 L250,19 L250,21.76 Z M264.44,26.33 C268.12,27.22 270.03,28.54 270.03,31.45 C270.03,34.73 267.47,36.67 263.82,36.67 C261.140671,36.6828362 258.553846,35.6909227 256.57,33.89 L258.41,31.7 C259.866084,33.1348264 261.816198,33.9578104 263.86,34 C265.75,34 266.94,33.13 266.94,31.79 C266.94,30.45 266.24,29.85 263.01,29.11 C259.31,28.22 257.22,27.11 257.22,23.89 C257.22,20.89 259.7,18.82 263.16,18.82 C265.455847,18.7719178 267.693452,19.5449729 269.47,21 L267.83,23.31 C266.494769,22.2131909 264.836755,21.5844101 263.11,21.52 C261.32,21.52 260.28,22.44 260.28,23.61 C260.28,24.98 261.07,25.61 264.4,26.37 L264.44,26.33 Z" id="Shape"></path>
                        </g>
                    </g>
                </g>
            </g>
        </g>
    </g></svg>