<svg width="827" height="98" viewBox="0 0 827 98" fill="none" xmlns="http://www.w3.org/2000/svg">
<path d="M0.0100098 48.91C0.0100098 23.16 8.27001 15.7 23.81 15.7C27.36 15.7 31 16.14 34.55 16.85V19.69C31.89 19.33 28.87 19.07 26.11 19.07C13.32 19.07 9.06001 24.93 9.06001 48.82C9.06001 72.8 13.32 78.66 26.11 78.66C28.95 78.66 31.79 78.39 34.55 77.95V80.97C31 81.68 27.45 82.12 23.81 82.12C8.27001 82.12 0.0100098 74.75 0.0100098 48.91Z" fill="#231F20"/>
<path d="M62.97 56.81L46.63 16.14H56.22L70.07 51.31L84.01 16.14H87.92L71.76 56.63V81.67H62.97V56.81Z" fill="#231F20"/>
<path d="M102.31 30.88V81.67H98.67V16.14H104.18L131.53 66.05V16.14H135.26V81.67H130.11L102.31 30.88Z" fill="#231F20"/>
<path d="M149.82 48.91C149.82 25.02 157.81 15.52 171.66 15.52C185.6 15.52 193.59 25.02 193.59 48.91C193.59 72.8 185.6 82.3 171.66 82.3C157.81 82.3 149.82 72.8 149.82 48.91ZM184.54 48.82C184.54 24.84 180.9 18.72 171.66 18.72C162.43 18.72 158.87 25.02 158.87 48.82C158.87 72.71 162.42 79.1 171.66 79.1C180.9 79.1 184.54 72.71 184.54 48.82Z" fill="#231F20"/>
<path d="M246.17 61.87V16.14H255.05V62.14C255.05 73.95 258.07 77.95 267.3 77.95C276.89 77.95 280.26 74.04 280.26 62.14V16.14H284.08V61.96C284.08 77.14 278.31 82.3 265.26 82.3C252.65 82.12 246.17 76.7 246.17 61.87Z" fill="#231F20"/>
<path d="M315.52 54.5H307.26V81.67H298.74V16.14H315.88C327.69 16.14 335.95 20.76 335.95 35.05C335.95 45.44 331.42 51.21 324.32 53.43L336.13 81.67H326.89L315.52 54.5ZM315.79 51.04C323.69 51.04 327.07 47.67 327.07 34.97C327.07 22.63 323.61 19.34 315.44 19.34H307.27V51.04H315.79Z" fill="#231F20"/>
<path d="M219.92 42.05C213.54 28.05 210.19 18.49 214.4 7.54001C215.54 4.59001 217.09 2.22001 218.95 0.450012C214.9 3.31001 211.57 7.56 209.35 13.22C203.86 27.16 207.74 39.08 214.6 54.07C222.25 70.59 223.71 78.43 219.7 88.63C218.02 92.75 215.91 95.52 213.47 97.22C218.93 94.37 223.18 89.27 225.88 82.24C230.79 69.49 228.59 61.07 219.92 42.05Z" fill="#231F20"/>
<path d="M350.51 16.14H382.83V19.34H359.21V46.42H379.99V49.53H359.21V78.48H382.83V81.68H350.51V16.14Z" fill="#231F20"/>
<path d="M772.85 49.41C772.85 23.54 781.15 16.05 796.76 16.05C800.33 16.05 803.99 16.49 807.55 17.21V20.07C804.87 19.71 801.84 19.45 799.08 19.45C786.23 19.45 781.95 25.34 781.95 49.33C781.95 73.42 786.23 79.3 799.08 79.3C801.93 79.3 804.79 79.03 807.55 78.59V81.62C803.98 82.33 800.41 82.78 796.76 82.78C781.15 82.77 772.85 75.37 772.85 49.41Z" fill="#231F20"/>
<path d="M717.23 16.04V66.18L689.75 16.04H684.22V81.88H687.88V30.85L715.8 81.88H720.97V16.04H717.23Z" fill="#231F20"/>
<path d="M752.75 16.04H744.06V82.01H752.75V16.04Z" fill="#231F20"/>
<path d="M657.62 49.5C657.62 25.41 653.96 19.26 644.68 19.26C635.4 19.26 631.84 25.59 631.84 49.5C631.84 73.5 635.41 79.92 644.68 79.92C653.96 79.92 657.62 73.49 657.62 49.5ZM622.74 49.59C622.74 25.59 630.77 16.05 644.68 16.05C658.69 16.05 666.72 25.59 666.72 49.59C666.72 73.59 658.69 83.13 644.68 83.13C630.77 83.13 622.74 73.58 622.74 49.59Z" fill="#231F20"/>
<path d="M587.22 51.1C595.16 51.1 598.55 47.71 598.55 34.95C598.55 22.55 595.07 19.25 586.86 19.25H578.65V51.1H587.22ZM586.95 54.58H578.65V81.88H570.09V16.04H587.31C599.17 16.04 607.47 20.68 607.47 35.04C607.47 45.48 602.92 51.28 595.78 53.51L607.65 81.88H598.37L586.95 54.58Z" fill="#231F20"/>
<path d="M469.16 61.99V16.05H478.08V62.26C478.08 74.12 481.11 78.14 490.39 78.14C500.02 78.14 503.41 74.21 503.41 62.26V16.05H507.25V62.08C507.25 77.34 501.45 82.51 488.34 82.51C475.67 82.32 469.16 76.88 469.16 61.99Z" fill="#231F20"/>
<path d="M425.15 16.04V81.88H459.63V77.66H433.89V49.58L433.9 16.04H425.15Z" fill="#231F20"/>
<path d="M519.57 16.04V19.07H533.12V82.52H542.95V19.07H556.49V16.04H519.57Z" fill="#231F20"/>
<path d="M401.43 21.7C401.43 24.98 398.8 27.63 395.5 27.63C392.19 27.63 389.54 24.98 389.54 21.7C389.54 18.39 392.2 15.77 395.5 15.77C398.8 15.76 401.43 18.42 401.43 21.7ZM400.49 21.7C400.49 18.9 398.33 16.62 395.5 16.62C392.67 16.62 390.48 18.89 390.48 21.7C390.48 24.5 392.63 26.78 395.5 26.78C398.33 26.77 400.49 24.5 400.49 21.7ZM396.27 22.24L397.78 24.21H396.8L395.36 22.26H394.54V24.21H393.72V19.07H395.91C397.02 19.07 397.64 19.67 397.64 20.68C397.64 21.61 397.13 22.14 396.27 22.24ZM394.54 19.91V21.52H395.86C396.44 21.52 396.8 21.23 396.8 20.7C396.8 20.2 396.46 19.91 395.86 19.91H394.54Z" fill="#231F20"/>
<path d="M826.86 21.46C826.86 24.74 824.23 27.39 820.93 27.39C817.62 27.39 814.97 24.74 814.97 21.46C814.97 18.15 817.63 15.53 820.93 15.53C824.23 15.53 826.86 18.18 826.86 21.46ZM825.92 21.46C825.92 18.66 823.76 16.38 820.93 16.38C818.1 16.38 815.91 18.65 815.91 21.46C815.91 24.26 818.06 26.54 820.93 26.54C823.76 26.53 825.92 24.26 825.92 21.46ZM821.7 22L823.21 23.97H822.23L820.79 22.02H819.97V23.97H819.15V18.83H821.34C822.45 18.83 823.07 19.43 823.07 20.44C823.07 21.38 822.56 21.9 821.7 22ZM819.97 19.67V21.28H821.29C821.87 21.28 822.23 20.99 822.23 20.46C822.23 19.96 821.89 19.67 821.29 19.67H819.97Z" fill="#231F20"/>
</svg>
