<?xml version="1.0" encoding="UTF-8" standalone="no"?>
<!-- Created with Inkscape (http://www.inkscape.org/) -->

<svg
   xmlns:dc="http://purl.org/dc/elements/1.1/"
   xmlns:cc="http://creativecommons.org/ns#"
   xmlns:rdf="http://www.w3.org/1999/02/22-rdf-syntax-ns#"
   xmlns:svg="http://www.w3.org/2000/svg"
   xmlns="http://www.w3.org/2000/svg"
   xmlns:sodipodi="http://sodipodi.sourceforge.net/DTD/sodipodi-0.dtd"
   xmlns:inkscape="http://www.inkscape.org/namespaces/inkscape"
   width="170.27448"
   height="26.22052"
   viewBox="0 0 45.051788 6.9375126"
   version="1.1"
   id="svg21745"
   inkscape:version="0.92.0 r15299"
   sodipodi:docname="bellin health.svg">
  <defs
     id="defs21739" />
  <sodipodi:namedview
     id="base"
     pagecolor="#ffffff"
     bordercolor="#666666"
     borderopacity="1.0"
     inkscape:pageopacity="0.0"
     inkscape:pageshadow="2"
     inkscape:zoom="3.016816"
     inkscape:cx="122.31738"
     inkscape:cy="-3.8060658"
     inkscape:document-units="mm"
     inkscape:current-layer="layer1"
     showgrid="false"
     fit-margin-top="0"
     fit-margin-left="0"
     fit-margin-right="0"
     fit-margin-bottom="0"
     units="px"
     inkscape:window-width="1280"
     inkscape:window-height="744"
     inkscape:window-x="-4"
     inkscape:window-y="-4"
     inkscape:window-maximized="1" />
  <metadata
     id="metadata21742">
    <rdf:RDF>
      <cc:Work
         rdf:about="">
        <dc:format>image/svg+xml</dc:format>
        <dc:type
           rdf:resource="http://purl.org/dc/dcmitype/StillImage" />
        <dc:title></dc:title>
      </cc:Work>
    </rdf:RDF>
  </metadata>
  <g
     inkscape:label="Layer 1"
     inkscape:groupmode="layer"
     id="layer1"
     transform="translate(-130.30878,-152.03586)">
    <path
       inkscape:connector-curvature="0"
       id="path20499"
       style="fill:#007dc3;fill-opacity:1;fill-rule:evenodd;stroke:none;stroke-width:0.35277778"
       d="m 132.363,158.02285 c -0.0328,0 -0.14711,0 -0.30233,-0.0363 0.18803,-0.82479 0.44944,-1.49577 0.72778,-1.96673 0.27764,-0.46249 0.57256,-0.71614 0.82585,-0.71614 0.28681,0 0.35172,0.25365 0.35172,0.43533 0,0.69814 -0.56409,2.28388 -1.59491,2.28388 z m -0.76906,-5.8547 -1.15287,6.36235 c 0.26176,0.0811 0.98178,0.29845 1.84044,0.29845 1.35749,0 2.20839,-0.59726 2.69875,-1.27741 0.50729,-0.70661 0.6544,-1.49578 0.6544,-1.91241 0,-0.84279 -0.49847,-1.46826 -1.31727,-1.46826 -0.69462,0 -1.29963,0.45332 -1.74978,1.26859 l 0.58879,-3.27131 z" />
    <path
       inkscape:connector-curvature="0"
       id="path20503"
       style="fill:#007dc3;fill-opacity:1;fill-rule:evenodd;stroke:none;stroke-width:0.35277778"
       d="m 139.12004,155.28575 c 0,0.58914 -0.83397,0.75247 -1.45556,0.86995 0.26141,-0.68862 0.73625,-1.17828 1.13665,-1.17828 0.15557,0 0.31891,0.0727 0.31891,0.29916 z m 0.37606,2.07539 c -0.76835,0.38982 -1.10384,0.49812 -1.41499,0.49812 -0.45755,0 -0.62971,-0.26211 -0.62971,-0.63464 0,-0.0268 0,-0.17145 0.049,-0.37995 0.62159,-0.0815 1.15358,-0.1905 1.72579,-0.37182 0.25364,-0.0815 1.12077,-0.43463 1.12077,-1.32327 0,-0.67028 -0.63006,-0.97861 -1.37442,-0.97861 -1.79105,0 -3.16477,1.6129 -3.16477,3.0092 0,0.82444 0.53128,1.64888 1.8482,1.64888 0.58032,0 1.15323,-0.127 2.20028,-0.69779 z" />
    <path
       inkscape:connector-curvature="0"
       id="path20507"
       style="fill:#007dc3;fill-opacity:1;fill-rule:evenodd;stroke:none;stroke-width:0.35277778"
       d="m 141.50771,152.16818 -1.18639,6.57013 h 1.5621 l 1.18639,-6.57013 z" />
    <path
       inkscape:connector-curvature="0"
       id="path20511"
       style="fill:#007dc3;fill-opacity:1;fill-rule:evenodd;stroke:none;stroke-width:0.35277778"
       d="m 146.08306,152.97343 c 0.0945,-0.44485 0.53128,-0.80504 0.97614,-0.80504 0.4445,0 0.72813,0.36019 0.63394,0.80504 -0.0946,0.4445 -0.53164,0.80469 -0.97614,0.80469 -0.44485,0 -0.72884,-0.36019 -0.63394,-0.80469" />
    <path
       inkscape:connector-curvature="0"
       id="path20515"
       style="fill:#007dc3;fill-opacity:1;fill-rule:evenodd;stroke:none;stroke-width:0.35277778"
       d="m 144.40175,158.7386 c 0.40534,-2.33221 0.30833,-4.48557 -0.89359,-4.48557 h 1.54517 l 0.39088,-2.08456 h -1.5621 l -1.18604,6.57013 z" />
    <path
       inkscape:connector-curvature="0"
       id="path20519"
       style="fill:#007dc3;fill-opacity:1;fill-rule:evenodd;stroke:none;stroke-width:0.35277778"
       d="m 147.27534,158.7386 c 0.61842,-3.12773 1.15006,-4.47675 2.39254,-4.47675 l -0.22049,1.20509 c 0.16334,-0.28081 0.74401,-1.29611 1.84821,-1.29611 0.32737,0 1.11266,0.127 1.11266,1.0153 0,0.20814 -0.0494,0.48965 -0.0903,0.69779 l -0.51541,2.85468 h -1.5621 l 0.49071,-2.73685 c 0.0247,-0.10866 0.0575,-0.30797 0.0575,-0.41698 0,-0.24448 -0.19685,-0.28117 -0.26987,-0.28117 -0.44203,0 -0.81774,0.75213 -0.8756,0.86149 -0.30268,0.65228 -0.48224,1.42275 -0.7112,2.57351 z" />
    <path
       inkscape:connector-curvature="0"
       id="path20523"
       style="fill:#007dc3;fill-opacity:1;fill-rule:evenodd;stroke:none;stroke-width:0.35277778"
       d="m 145.05316,154.25313 c 0.54645,0.5461 0.55069,2.15336 0.14534,4.48557 h 1.28059 c 0.55633,-3.09704 0.91546,-3.86115 1.56951,-4.4771 z" />
    <path
       inkscape:connector-curvature="0"
       id="path20527"
       style="fill:#007dc3;fill-opacity:1;fill-rule:evenodd;stroke:none;stroke-width:0.35277778"
       d="m 154.31093,152.18787 -1.18604,6.56237 h 0.72425 c 0.17992,-0.99589 0.36936,-1.95474 0.86043,-2.80599 0.254,-0.44344 0.93415,-1.31234 1.73073,-1.31234 0.19014,0 0.58843,0.0272 0.59725,0.48013 0.004,0.18063 -0.012,0.30727 -0.0695,0.60608 l -0.55703,3.03212 h 0.72354 l 0.54822,-3.05011 c 0.0487,-0.28999 0.0723,-0.45262 0.0706,-0.57927 -0.0123,-0.60642 -0.48895,-0.93239 -1.14971,-0.93239 -0.93239,0 -1.75224,0.67875 -2.2225,1.63795 l 0.6537,-3.63855 z" />
    <path
       inkscape:connector-curvature="0"
       id="path20531"
       style="fill:#007dc3;fill-opacity:1;fill-rule:evenodd;stroke:none;stroke-width:0.35277778"
       d="m 161.51719,155.03037 c 0.0169,0.89606 -1.70004,1.03152 -2.50543,1.04069 0.50659,-0.9592 1.3014,-1.50248 1.92582,-1.50248 0.33549,0 0.57326,0.15382 0.57926,0.45297 z m -0.18027,2.89666 c -0.32209,0.16263 -0.98601,0.4706 -1.53811,0.4706 -0.44344,0 -1.08091,-0.19014 -1.09679,-1.00471 -0.008,-0.43462 0.12947,-0.79657 0.1898,-0.95955 0.28928,-0.01 0.90523,-0.0183 1.68063,-0.16299 0.18909,-0.0363 1.62348,-0.29915 1.60479,-1.26717 -0.01,-0.50695 -0.44098,-0.81457 -1.12889,-0.81457 -1.62066,0 -3.17359,1.58397 -3.14431,3.12244 0.0187,0.95955 0.67204,1.53 1.66793,1.53 0.61525,0 1.20051,-0.17216 1.96286,-0.54328 z" />
    <path
       inkscape:connector-curvature="0"
       id="path20535"
       style="fill:#007dc3;fill-opacity:1;fill-rule:evenodd;stroke:none;stroke-width:0.35277778"
       d="m 162.57648,157.47406 c -0.0229,-1.20368 0.87701,-2.87831 2.44299,-2.87831 0.13546,0 0.37077,0 0.68015,0.0815 -0.19015,0.94156 -0.40287,1.63865 -0.67133,2.24472 -0.31292,0.70626 -0.97685,1.47532 -1.6824,1.47532 -0.60678,0 -0.76059,-0.46143 -0.76906,-0.91405 z m 3.8795,-3.01449 c -0.24589,-0.0811 -0.81104,-0.27093 -1.47179,-0.27093 -2.00907,0 -3.23392,1.7466 -3.20534,3.22192 0.0169,0.89641 0.5528,1.43016 1.38536,1.43016 0.71508,0 1.45979,-0.32561 2.12196,-1.65629 l -0.27729,1.56563 h 0.6791 z" />
    <path
       inkscape:connector-curvature="0"
       id="path20539"
       style="fill:#007dc3;fill-opacity:1;fill-rule:evenodd;stroke:none;stroke-width:0.35277778"
       d="m 167.83879,152.18787 -1.18674,6.56237 h 0.7246 l 1.18604,-6.56237 z" />
    <path
       inkscape:connector-curvature="0"
       id="path20543"
       style="fill:#007dc3;fill-opacity:1;fill-rule:evenodd;stroke:none;stroke-width:0.35277778"
       d="m 171.78616,152.18787 -1.18639,6.56237 h 0.7246 c 0.17992,-0.99589 0.36936,-1.95474 0.86008,-2.80599 0.25435,-0.44344 0.93415,-1.31234 1.73108,-1.31234 0.18979,0 0.58843,0.0272 0.59725,0.48013 0.004,0.18063 -0.012,0.30727 -0.0699,0.60608 l -0.55668,3.03212 h 0.72354 l 0.54751,-3.05011 c 0.0487,-0.28999 0.073,-0.45262 0.0709,-0.57927 -0.0123,-0.60642 -0.48859,-0.93239 -1.1497,-0.93239 -0.93239,0 -1.75189,0.67875 -2.22215,1.63795 l 0.65405,-3.63855 z" />
    <path
       inkscape:connector-curvature="0"
       id="path20547"
       style="fill:#007dc3;fill-opacity:1;fill-rule:evenodd;stroke:none;stroke-width:0.35277778"
       d="m 170.40758,158.20742 c -0.36795,0.15381 -0.47942,0.19015 -0.68792,0.19015 -0.15381,0 -0.41733,-0.0455 -0.42262,-0.30798 -0.001,-0.0723 -0.003,-0.14464 0.0635,-0.48859 l 0.52281,-2.9143 h 1.1497 l 0.0737,-0.40781 h -1.14935 l 0.21202,-1.18569 h -0.6791 l -0.21202,1.18569 h -0.87842 l -0.0737,0.40781 h 0.84243 l -0.52422,2.86879 c -0.0483,0.30762 -0.0635,0.45296 -0.0614,0.57044 0.0134,0.68791 0.71085,0.71508 0.91864,0.71508 0.27763,0 0.55421,-0.0554 0.81985,-0.14252 z" />
  </g>
</svg>
