<?xml version="1.0" encoding="UTF-8" standalone="no"?>
<!-- Created with Inkscape (http://www.inkscape.org/) -->

<svg
   xmlns:dc="http://purl.org/dc/elements/1.1/"
   xmlns:cc="http://creativecommons.org/ns#"
   xmlns:rdf="http://www.w3.org/1999/02/22-rdf-syntax-ns#"
   xmlns:svg="http://www.w3.org/2000/svg"
   xmlns="http://www.w3.org/2000/svg"
   xmlns:sodipodi="http://sodipodi.sourceforge.net/DTD/sodipodi-0.dtd"
   xmlns:inkscape="http://www.inkscape.org/namespaces/inkscape"
   width="689"
   height="104"
   viewBox="0 0 689.00001 104"
   id="svg3653"
   version="1.1"
   inkscape:version="0.91 r13725"
   sodipodi:docname="st jude medical.svg">
  <defs
     id="defs3655" />
  <sodipodi:namedview
     id="base"
     pagecolor="#ffffff"
     bordercolor="#666666"
     borderopacity="1.0"
     inkscape:pageopacity="0.0"
     inkscape:pageshadow="2"
     inkscape:zoom="0.98994949"
     inkscape:cx="369.76102"
     inkscape:cy="181.54097"
     inkscape:document-units="px"
     inkscape:current-layer="layer1"
     showgrid="false"
     units="px"
     inkscape:window-width="1280"
     inkscape:window-height="744"
     inkscape:window-x="-4"
     inkscape:window-y="-4"
     inkscape:window-maximized="1" />
  <metadata
     id="metadata3658">
    <rdf:RDF>
      <cc:Work
         rdf:about="">
        <dc:format>image/svg+xml</dc:format>
        <dc:type
           rdf:resource="http://purl.org/dc/dcmitype/StillImage" />
        <dc:title></dc:title>
      </cc:Work>
    </rdf:RDF>
  </metadata>
  <g
     inkscape:label="Layer 1"
     inkscape:groupmode="layer"
     id="layer1"
     transform="translate(0,-948.36215)">
    <path
       inkscape:connector-curvature="0"
       id="path3675"
       style="fill:#211c1d;fill-opacity:1;fill-rule:nonzero;stroke:none"
       d="m 206.19937,1008.9168 c -2.92625,0 -4.18,2.2389 -4.18,3.7891 0,1.7359 1.2475,3.789 4.10125,3.789 2.595,0 4.21875,-1.7787 4.21875,-3.9452 0,-2.1753 -1.81875,-3.6329 -4.14,-3.6329 z m 423.47625,-18.94527 c 0.14625,0 0.1875,0.24562 0.235,0.42962 l 4.60875,11.48435 c 0.0588,0.1427 -0.0187,0.2735 -0.27375,0.2735 l -9.41375,0 c -0.19625,0 -0.25,-0.124 -0.195,-0.3125 l 4.72625,-11.44535 c 0.0462,-0.184 0.1575,-0.42962 0.3125,-0.42962 z m -111.3275,-6.32813 c 3.99,0 9.79,0.55813 14.49125,4.64838 2.205,1.90675 4.9225,5.73937 4.9225,11.64062 0,4.7906 -1.02375,9.0064 -4.2975,11.5625 -3.0725,2.4146 -6.53875,3.3594 -11.7575,3.3594 -4.04375,0 -6.01375,-0.9829 -6.68,-1.875 -0.41,-0.5078 -0.535,-2.3544 -0.585,-3.5156 -0.0512,-0.8838 -0.0788,-4.4507 -0.0788,-9.375 l 0,-5.85942 c 0,-3.67575 -0.007,-7.75575 0.0388,-9.33588 0,-0.51175 0.16375,-0.71 0.625,-0.8985 0.415,-0.184 2.29375,-0.3515 3.32125,-0.3515 l 0,0 z m -201.71875,0 c 3.98875,0 9.82375,0.55813 14.53125,4.64838 2.2,1.90675 4.8825,5.73937 4.8825,11.64062 0,4.7906 -1.0325,9.0064 -4.2975,11.5625 -3.07125,2.4146 -6.54,3.3594 -11.7575,3.3594 -4.04,0 -6.01375,-0.9829 -6.68,-1.875 -0.40625,-0.5078 -0.535,-2.3544 -0.585,-3.5156 -0.0512,-0.8838 -0.0788,-4.4507 -0.0788,-9.375 l 0,-5.85942 c 0,-3.67575 -0.0112,-7.75575 0.0387,-9.33588 0,-0.51175 0.165,-0.71 0.625,-0.8985 0.40625,-0.184 2.2975,-0.3515 3.32125,-0.3515 l 0,0 z m 366.21,-1.875 0,4.64838 0.58625,0 0,-2.73438 c 0,-0.11375 0.0125,-0.31637 0,-0.54687 0,-0.23475 0,-0.395 0,-0.50775 l 0,-0.15625 1.32875,3.94525 0.625,0 1.3275,-3.94525 c 0,0.2515 0,0.48537 0,0.70312 -0.004,0.21775 0,0.41113 0,0.50775 l 0,2.73438 0.58625,0 0,-4.64838 -0.89875,0 -1.3275,3.90625 -1.32875,-3.90625 -0.89875,0 z m -4.335,0 0,0.54688 1.5625,0 0,4.1015 0.625,0 0,-4.1015 1.5625,0 0,-0.54688 -3.75,0 z m -23.28125,-0.3125 c -0.7675,0 -1.13375,0.10688 -1.13375,0.42963 0,0.32725 0.32875,0.42975 0.89875,0.42975 0.6575,0 1.27,0.0249 1.68,0.11712 1.68875,0.32725 2.0825,1.07626 2.1875,2.65625 0.0925,1.48838 0.1175,2.82038 0.1175,9.88288 l 0,8.16397 c 0,4.2794 -0.0225,7.9688 -0.27375,9.9219 -0.205,1.3501 -0.4575,2.3511 -1.485,2.5391 -0.4475,0.093 -1.06375,0.1953 -1.835,0.1953 -0.6175,0 -0.82125,0.1206 -0.82125,0.3516 0,0.3271 0.34625,0.4688 1.01625,0.4688 2.0375,0 5.2725,-0.1173 6.445,-0.1173 4.145,0 7.51875,0.2735 14.8825,0.2735 2.6575,0 2.93625,-0.227 3.2425,-1.25 0.41,-1.3535 0.7425,-4.8404 0.7425,-5.3516 0,-0.5567 -0.0312,-0.7813 -0.39125,-0.7813 -0.40625,0 -0.5275,0.2491 -0.585,0.6642 -0.10125,0.8798 -0.7125,2.2095 -1.32875,2.8125 -1.2775,1.2573 -3.265,1.289 -5.97625,1.289 -3.99125,0 -5.3,-0.3198 -6.1725,-1.0157 -1.0725,-0.8384 -1.09375,-4.0477 -1.09375,-10 l 0,-8.16397 c 0,-7.0625 0.0175,-8.3945 0.1175,-9.88288 0.0963,-1.63024 0.495,-2.42187 1.875,-2.65625 0.61625,-0.0922 1.42625,-0.11712 1.9925,-0.11712 0.61125,0 0.9375,-0.1025 0.9375,-0.42975 0,-0.32275 -0.37375,-0.42963 -1.09375,-0.42963 -1.995,0 -5.69875,0.15625 -6.91375,0.15625 -1.38375,0 -4.63125,-0.15625 -7.03125,-0.15625 l 0,0 z m -103.165,0 c -0.8125,0 -1.21,0.11813 -1.21,0.39063 0,0.3775 0.32,0.46875 0.82,0.46875 0.62,0 1.27,0.0528 1.83625,0.19525 1.11875,0.2305 1.6175,0.99813 1.71875,2.57812 0.1,1.48838 0.11625,2.8165 0.11625,9.88288 l 0,8.16397 c 0,4.5143 0.0175,8.2082 -0.23375,10.1563 -0.15875,1.3452 -0.50625,2.1167 -1.52375,2.3047 -0.45625,0.093 -1.065,0.1953 -1.83625,0.1953 -0.6025,0 -0.82,0.1206 -0.82,0.3516 0,0.3271 0.385,0.4688 1.055,0.4688 2.04875,0 5.26375,-0.1173 6.445,-0.1173 1.375,0 4.58625,0.1173 7.96875,0.1173 0.56125,0 0.97625,-0.1417 0.97625,-0.4688 0,-0.231 -0.2625,-0.3516 -0.82,-0.3516 -0.76625,0 -1.90125,-0.1025 -2.6175,-0.1953 -1.53375,-0.188 -1.87625,-1.0082 -2.03125,-2.2656 -0.205,-1.9946 -0.23375,-5.6811 -0.23375,-10.1954 l 0,-8.16397 c 0,-7.06638 0.0125,-8.3945 0.1175,-9.88288 0.1,-1.63024 0.53375,-2.42187 1.91375,-2.65625 0.61125,-0.0922 1.015,-0.11712 1.52375,-0.11712 0.51125,0 0.82,-0.0912 0.82,-0.46875 0,-0.2725 -0.42375,-0.39063 -1.09375,-0.39063 -1.945,0 -4.93375,0.15625 -6.21125,0.15625 -1.49125,0 -4.72625,-0.15625 -6.68,-0.15625 l 0,0 z m -48.125,0 c -0.76625,0 -1.1325,0.10688 -1.1325,0.42963 0,0.32725 0.29375,0.42975 0.86,0.42975 0.71625,0 1.59375,0.0249 1.99125,0.11712 1.69875,0.32725 2.0875,1.07626 2.1875,2.65625 0.1,1.48838 0.1175,2.82038 0.1175,9.88288 l 0,8.16397 c 0,4.2794 0.0138,7.9639 -0.23375,9.9219 -0.20625,1.3452 -0.4625,2.3511 -1.485,2.5391 -0.46125,0.093 -1.10375,0.1953 -1.875,0.1953 -0.62,0 -0.82,0.1172 -0.82,0.3516 0,0.3223 0.3875,0.4688 1.055,0.4688 2.03625,0 5.2275,-0.1173 6.40625,-0.1173 2.56375,0 7.15875,0.5469 10.8975,0.5469 9.46,0 14.80125,-3.2851 17.14875,-5.4688 2.87125,-2.6488 5.58625,-7.1527 5.58625,-13.00772 0,-5.53225 -2.40875,-9.37838 -4.96125,-11.79688 -5.575,-5.30225 -14.1125,-5.3125 -20.5075,-5.3125 -3.0725,0 -6.31125,0.15625 -7.89125,0.15625 -1.44125,0 -4.64,-0.15625 -7.34375,-0.15625 l 0,0 z m -201.7575,0 c -0.7675,0 -1.09375,0.10688 -1.09375,0.42963 0,0.32725 0.2975,0.42975 0.86,0.42975 0.71625,0 1.585,0.0249 1.99125,0.11712 1.69375,0.32725 2.0875,1.07626 2.1875,2.65625 0.105,1.48838 0.1175,2.82038 0.1175,9.88288 l 0,8.16397 c 0,4.2794 -0.0137,7.9639 -0.27375,9.9219 -0.205,1.3452 -0.465,2.3511 -1.48375,2.5391 -0.46125,0.093 -1.07375,0.1953 -1.83625,0.1953 -0.6125,0 -0.82,0.1172 -0.82,0.3516 0,0.3223 0.3575,0.4688 1.015,0.4688 2.05,0 5.2725,-0.1173 6.44625,-0.1173 2.55125,0 7.1675,0.5469 10.8975,0.5469 9.46375,0 14.7975,-3.2851 17.14875,-5.4688 2.8625,-2.6488 5.58625,-7.1527 5.58625,-13.00772 0,-5.53225 -2.4,-9.37838 -4.96125,-11.79688 -5.57375,-5.30225 -14.11625,-5.3125 -20.5075,-5.3125 -3.06875,0 -6.3025,0.15625 -7.89125,0.15625 -1.425,0 -4.675,-0.15625 -7.3825,-0.15625 l 0,0 z m -45.7425,0 c -0.77,0 -1.1325,0.10688 -1.1325,0.42963 0,0.32725 0.2975,0.42975 0.86,0.42975 0.71625,0 1.585,0.0249 1.99125,0.11712 1.6975,0.32725 2.0825,1.07626 2.1875,2.65625 0.0962,1.48838 0.1175,2.8165 0.1175,9.88288 l 0,6.75777 c 0,6.7432 1.96375,10.2066 4.57,12.3437 3.735,3.0714 8.61625,3.2032 11.32875,3.2032 3.3225,0 7.03,-0.5175 10.66375,-3.3594 4.29625,-3.3447 4.84375,-8.8208 4.84375,-13.9844 l 0,-4.96087 c 0,-7.06638 0.0125,-8.3945 0.1175,-9.88288 0.10375,-1.63075 0.49125,-2.42187 1.875,-2.65625 0.6075,-0.0922 0.92625,-0.11712 1.48375,-0.11712 0.61625,0 0.9375,-0.1025 0.9375,-0.42975 0,-0.32275 -0.3775,-0.42963 -1.09375,-0.42963 -1.995,0 -5.20375,0.15625 -5.82,0.15625 -0.05,0 -3.29625,-0.15625 -5.89875,-0.15625 -0.71625,0 -1.05375,0.10688 -1.05375,0.42963 0,0.32725 0.2975,0.42975 0.85875,0.42975 0.56125,0 1.42125,0.0249 1.83625,0.11712 1.68375,0.32725 2.12125,1.07626 2.22625,2.65625 0.10125,1.48838 0.0788,2.8165 0.0788,9.88288 l 0,5.78127 c 0,4.7905 -0.16125,8.9712 -2.96875,11.5234 -2.05,1.8603 -4.81625,2.5391 -7.07125,2.5391 -1.735,0 -4.06625,-0.2003 -6.36625,-1.9141 -2.51125,-1.8603 -3.985,-4.7061 -3.985,-11.4453 l 0,-6.48437 c 0,-7.06638 -0.0225,-8.3945 0.0788,-9.88288 0.10375,-1.63075 0.53,-2.42187 1.91375,-2.65625 0.61125,-0.0922 0.9225,-0.11712 1.48375,-0.11712 0.51125,0 0.82125,-0.1025 0.82125,-0.42975 0,-0.32275 -0.37,-0.42963 -1.13375,-0.42963 -1.84375,0 -5.065,0.15625 -6.28875,0.15625 -1.53375,0 -4.74875,-0.15625 -7.46125,-0.15625 l 0,0 z m 238.32125,-0.35162 c -0.25625,0 -0.57375,0.149 -0.82125,0.19537 -0.4025,0.0879 -1.21375,0.17675 -2.1875,0.27338 -0.9725,0.0416 -11.1475,0.0391 -12.7725,0.0391 -1.43375,0 -4.67125,-0.15625 -7.38375,-0.15625 -0.76625,0 -1.1325,0.10688 -1.1325,0.42963 0,0.32725 0.30125,0.42975 0.86,0.42975 0.72125,0 1.62375,0.0249 2.03125,0.11712 1.6975,0.32675 2.0825,1.07626 2.1875,2.65625 0.1075,1.48838 0.11625,2.8165 0.11625,9.88288 l 0,8.16399 c 0,4.2794 -0.0125,7.9639 -0.2725,9.9219 -0.20625,1.3452 -0.45875,2.3511 -1.485,2.5391 -0.46125,0.093 -1.06875,0.1953 -1.83625,0.1953 -0.6025,0 -0.82,0.1206 -0.82,0.3516 0,0.3271 0.3525,0.4687 1.01625,0.4687 2.04875,0 5.275,-0.1172 6.445,-0.1172 3.0225,0 6.46,0.2735 14.18,0.2735 1.94,0 2.37375,0.01 2.73375,-1.211 0.26375,-0.9268 0.70375,-4.0834 0.70375,-5.1563 0,-0.4647 -0.0237,-0.8593 -0.43,-0.8593 -0.36,0 -0.4475,0.192 -0.5475,0.7031 -0.365,1.9019 -0.97625,2.876 -2.30375,3.4375 -1.33375,0.5527 -3.46875,0.586 -4.805,0.586 -5.21375,0 -6.03625,-0.6909 -6.1325,-3.9063 -0.055,-1.3452 0,-5.6465 0,-7.2266 l 0,-3.67187 c 0,-0.27675 0.0213,-0.46875 0.2725,-0.46875 1.22875,0 6.28625,0.064 7.26625,0.15625 1.88625,0.1885 2.635,0.86187 2.89,1.79687 0.15875,0.5991 0.14875,1.2144 0.19625,1.6798 0,0.231 0.11625,0.4296 0.46875,0.4296 0.465,0 0.42875,-0.5254 0.42875,-0.8984 0,-0.3271 0.135,-2.19487 0.235,-3.12499 0.155,-2.36813 0.39,-3.11763 0.39,-3.3985 0,-0.28075 -0.14625,-0.3515 -0.35125,-0.3515 -0.25125,0 -0.46,0.21287 -0.82,0.58587 -0.44875,0.46488 -1.225,0.6065 -2.46125,0.70313 -1.16625,0.0924 -7.045,0.11725 -8.16375,0.11725 -0.30125,0 -0.35125,-0.1855 -0.35125,-0.50788 l 0,-11.79687 c 0,-0.32713 0.095,-0.46875 0.35125,-0.46875 1.0225,0 6.3975,0.0991 7.265,0.19537 2.55625,0.27638 3.0425,0.84125 3.39875,1.67963 0.255,0.55725 0.3125,1.35262 0.3125,1.67975 0,0.419 0.12125,0.664 0.46875,0.664 0.36,0 0.4525,-0.3125 0.5075,-0.54688 0.105,-0.5575 0.2275,-2.58587 0.27375,-3.04687 0.155,-2.1415 0.39125,-2.6855 0.39125,-3.00775 0,-0.231 -0.0575,-0.42975 -0.3125,-0.42975 l 0,0 z m -123.82875,0 c -0.26,0 -0.56375,0.149 -0.82,0.19537 -0.41,0.0879 -1.21625,0.17675 -2.1875,0.27338 -0.9725,0.0416 -11.17,0.0391 -12.8125,0.0391 -1.43,0 -4.63625,-0.15625 -7.34375,-0.15625 -0.7675,0 -1.1325,0.10688 -1.1325,0.42963 0,0.32725 0.2975,0.42975 0.85875,0.42975 0.71625,0 1.5825,0.0249 1.9925,0.11712 1.68375,0.32675 2.12625,1.07626 2.22625,2.65625 0.1,1.48838 0.0788,2.8165 0.0788,9.88288 l 0,8.16399 c 0,4.2794 0.0213,7.9639 -0.235,9.9219 -0.1925,1.3452 -0.4575,2.3511 -1.48375,2.5391 -0.45375,0.093 -1.07375,0.1953 -1.83625,0.1953 -0.615,0 -0.82,0.1206 -0.82,0.3516 0,0.3271 0.34875,0.4687 1.015,0.4687 2.04125,0 5.2675,-0.1172 6.445,-0.1172 3.0175,0 6.46,0.2735 14.18,0.2735 1.945,0 2.3775,0.01 2.735,-1.211 0.26,-0.9268 0.66375,-4.0834 0.66375,-5.1563 0,-0.4647 0.0188,-0.8593 -0.39125,-0.8593 -0.36,0 -0.45375,0.192 -0.54625,0.7031 -0.36,1.9019 -0.97625,2.876 -2.305,3.4375 -1.3275,0.5527 -3.515,0.586 -4.84375,0.586 -5.2175,0 -6.0325,-0.6909 -6.1325,-3.9063 -0.05,-1.3452 0,-5.6465 0,-7.2266 l 0,-3.67187 c 0,-0.27675 0.0563,-0.46875 0.3125,-0.46875 1.2325,0 6.28875,0.064 7.265,0.15625 1.89,0.1885 2.63125,0.86187 2.89125,1.79687 0.15125,0.5991 0.145,1.2144 0.195,1.6798 0,0.231 0.0663,0.4296 0.43,0.4296 0.46125,0 0.46875,-0.5254 0.46875,-0.8984 0,-0.3271 0.095,-2.19487 0.195,-3.12499 0.15875,-2.36813 0.43,-3.11763 0.43,-3.3985 0,-0.28075 -0.15,-0.3515 -0.35125,-0.3515 -0.2575,0 -0.465,0.21287 -0.82125,0.58587 -0.46125,0.46488 -1.22,0.6065 -2.46,0.70313 -1.17,0.0924 -7.0725,0.11725 -8.20375,0.11725 -0.30125,0 -0.35125,-0.1855 -0.35125,-0.50788 l 0,-11.79687 c 0,-0.32713 0.1,-0.46875 0.35125,-0.46875 1.035,0 6.40125,0.0991 7.26625,0.19537 2.56,0.27638 3.07625,0.84125 3.4375,1.67963 0.26,0.55725 0.3125,1.35262 0.3125,1.67975 0,0.419 0.10625,0.664 0.46875,0.664 0.36125,0 0.44875,-0.3125 0.5075,-0.54688 0.0962,-0.5575 0.22,-2.58587 0.27375,-3.04687 0.14625,-2.1415 0.39,-2.6855 0.39,-3.00775 0,-0.231 -0.0525,-0.42975 -0.3125,-0.42975 l 0,0 z m 223.555,-0.27338 c -7.62,0 -12.4875,1.8535 -16.1725,4.92188 -4.90875,4.09475 -5.97625,9.57425 -5.97625,12.73437 0,4.50975 1.31625,9.71185 6.32875,13.71085 4.65625,3.6759 10.53,5.0782 17.53875,5.0782 3.27375,0 7.1775,-0.3174 9.21875,-1.0547 0.87125,-0.3271 1.07625,-0.5786 1.3275,-1.3672 0.5075,-1.5844 1.13375,-5.6152 1.13375,-6.1719 0,-0.3735 -0.1175,-0.7031 -0.46875,-0.7031 -0.41625,0 -0.50625,0.1954 -0.665,0.9375 -0.20125,0.8375 -0.88625,2.1631 -1.7575,3.0469 -2.04125,2.1411 -4.78875,2.6172 -9.33625,2.6172 -6.85625,0 -16.1325,-5.502 -16.1325,-16.5625 0,-4.51412 1.00125,-8.9175 4.72625,-12.03125 2.26,-1.85687 5.15875,-2.89062 9.61,-2.89062 4.70125,0 8.70625,1.26025 10.39,2.89062 1.2875,1.21088 1.9375,2.81988 1.9925,4.25775 0,0.65388 0.105,1.05475 0.5075,1.05475 0.46125,0 0.575,-0.398 0.625,-1.09375 0.0962,-0.93012 0.06,-3.46187 0.15625,-5 0.10875,-1.626 0.235,-2.20512 0.235,-2.57812 0,-0.27638 -0.22,-0.5005 -0.78125,-0.54688 -1.535,-0.13862 -3.1675,-0.55025 -5.1175,-0.78125 -2.35125,-0.28075 -4.21,-0.46875 -7.3825,-0.46875 z m -425.07875,0 c -0.305,0 -0.47,0.25975 -0.625,0.85938 -0.105,0.373 -1.09375,4.606 -1.09375,5.3515 0,0.51125 0.1125,0.74225 0.46875,0.74225 0.30625,0 0.48125,-0.17388 0.58625,-0.54688 0.10125,-0.36862 0.3475,-0.94925 0.86,-1.64062 0.76625,-1.023 1.98875,-1.23588 4.96,-1.32813 l 7.6175,-0.19537 0,19.06247 c 0,4.2794 -0.0138,7.9688 -0.27375,9.9219 -0.15,1.3501 -0.46125,2.3545 -1.48375,2.5391 -0.465,0.093 -1.065,0.1953 -1.83625,0.1953 -0.61125,0 -0.82,0.1206 -0.82,0.3516 0,0.3271 0.38375,0.4688 1.055,0.4688 2.045,0 5.2275,-0.1173 6.40625,-0.1173 1.4325,0 4.6725,0.1173 8.04625,0.1173 0.56625,0 0.97625,-0.1417 0.97625,-0.4688 0,-0.231 -0.25375,-0.3516 -0.82,-0.3516 -0.7675,0 -1.905,-0.1025 -2.6175,-0.1953 -1.53375,-0.1846 -1.83625,-1.1962 -1.99125,-2.5 -0.25625,-1.9995 -0.235,-5.6816 -0.235,-9.961 l 0,-19.06247 6.445,0.15625 c 4.5525,0.088 5.915,1.37062 6.01625,2.57812 l 0.0388,0.50788 c 0.05,0.69575 0.18,0.9375 0.58625,0.9375 0.305,0 0.41875,-0.27738 0.46875,-0.74225 0,-1.21138 0.15625,-4.414 0.15625,-5.39063 0,-0.70012 -0.0737,-0.9765 -0.43,-0.9765 -0.41125,0 -1.64875,0.46875 -4.92125,0.46875 l -20.235,0 c -1.68875,0 -3.63375,-0.0912 -5.1175,-0.23437 -1.2775,-0.0879 -1.77625,-0.54688 -2.1875,-0.54688 l 0,0 z m 461.52375,-0.39062 c -0.515,0 -0.795,0.52537 -1.40625,1.875 l -12.85125,29.17962 c -1.03125,2.3219 -1.98,3.899 -4.33625,4.1798 -0.415,0.05 -1.145,0.1171 -1.60125,0.1171 -0.40625,0 -0.625,0.079 -0.625,0.3516 0,0.3775 0.31,0.4688 0.97625,0.4688 2.6575,0 5.50125,-0.1173 6.055,-0.1173 1.5875,0 3.795,0.1173 5.43,0.1173 0.56625,0 0.85875,-0.091 0.85875,-0.4688 0,-0.2725 -0.16125,-0.3516 -0.78125,-0.3516 l -0.78125,0 c -1.58,0 -2.03125,-0.6079 -2.03125,-1.4453 0,-0.5581 0.27,-1.687 0.78125,-2.8516 l 2.735,-6.6406 c 0.1,-0.2768 0.21625,-0.3515 0.46875,-0.3515 l 11.40625,0 c 0.2625,0 0.41125,0.078 0.5075,0.3125 l 4.10125,9.8437 c 0.25125,0.5533 -0.10375,1.001 -0.46875,1.0938 -0.50625,0.046 -0.7025,0.1171 -0.7025,0.3906 0,0.3223 0.60125,0.3359 1.5225,0.3906 4.0875,0.088 7.8525,0.078 9.6875,0.078 1.895,0 2.34375,-0.091 2.34375,-0.4687 0,-0.3223 -0.26125,-0.3516 -0.66375,-0.3516 -0.62,0 -1.385,-0.054 -2.14875,-0.1953 -1.07625,-0.231 -2.56,-0.8994 -4.49125,-5.0781 -3.27875,-7.0708 -11.4675,-26.03277 -12.69625,-28.59377 -0.51125,-1.06887 -0.8275,-1.48437 -1.28875,-1.48437 l 0,0 z m -398.2025,-10.625 c -1.02375,0 -1.485,0.11137 -1.485,0.54687 0,0.43163 0.3825,0.58588 1.1325,0.58588 0.95625,0 2.11125,0.0348 2.65625,0.15625 2.25125,0.43612 2.79125,1.4425 2.93,3.55475 0.13875,1.98688 0.15625,3.70312 0.15625,13.125 l 0,17.81247 c 0,12.1543 0.0675,18.3512 -5.1175,23.125 -1.3625,1.2329 -2.39625,1.9083 -3.28125,2.3438 -1.15625,0.5566 -1.48375,0.831 -1.48375,1.1327 0,0.315 0.27375,0.4688 0.54625,0.4688 0.34,0 0.89,-0.1049 1.3675,-0.3515 1.4325,-0.6201 2.51375,-1.1109 3.39875,-1.6016 6.54625,-3.663 10.16875,-7.9379 11.60125,-11.7188 1.3575,-3.4701 1.64125,-7.4438 1.64125,-10.9765 0,-3.1016 -0.235,-6.0889 -0.235,-8.75 l 0,-11.48437 c 0,-9.42188 0.0138,-11.13812 0.15625,-13.125 0.13375,-2.17088 0.695,-3.24463 2.53875,-3.55475 0.81375,-0.1215 1.20375,-0.15625 1.95375,-0.15625 0.8175,0 1.25,-0.15425 1.25,-0.58588 0,-0.4355 -0.49,-0.54687 -1.445,-0.54687 -2.6575,0 -6.96,0.19525 -8.59375,0.19525 -1.7775,0 -6.075,-0.19525 -9.6875,-0.19525 z m -82.11,-0.85938 c -9.47625,0 -15.7425,4.895 -15.7425,11.71875 0,5.0205 2.58,9.356 10.07875,14.6875 l 3.16375,2.2265 c 5.6625,3.96925 6.68,6.88285 6.68,9.92185 0,3.2863 -3.005,7.0704 -9.14125,7.0704 -4.22875,0 -8.265,-1.665 -9.765,-6.25 -0.34,-1.0556 -0.58625,-2.3599 -0.58625,-3.1641 0,-0.4985 -0.0825,-1.0546 -0.7025,-1.0546 -0.54125,0 -0.75375,0.6713 -0.82125,1.6015 -0.0712,0.9932 -0.35125,4.7168 -0.35125,8.125 0,1.3657 0.23875,1.6772 1.32875,2.1093 2.93375,1.1818 5.965,1.6017 9.92125,1.6017 3.6125,0 7.45625,-0.5484 10.86,-2.5392 4.91125,-2.9091 6.40625,-7.185 6.40625,-10.7812 0,-5.88865 -2.99125,-10.05315 -11.1725,-15.82027 l -1.91375,-1.28913 c -5.65875,-3.90625 -7.22625,-6.08687 -7.22625,-8.94525 0,-3.71775 3.0825,-6.36725 8.125,-6.36725 4.4375,0 6.39875,1.86925 7.42125,3.04688 1.43,1.61387 1.7575,3.501 1.7575,4.0625 0,0.73737 0.225,1.13287 0.70375,1.13287 0.54875,0 0.7425,-0.51275 0.7425,-1.875 0,-4.8325 0.2725,-6.61725 0.2725,-7.42187 0,-0.4355 -0.36,-0.62063 -0.97625,-0.74225 -1.7725,-0.43988 -4.6325,-1.05463 -9.0625,-1.05463 z m 260.46875,-0.50787 c -0.54875,0 -0.97,0.54937 -1.17125,1.60162 l -6.75875,40.42965 c -0.34375,2.1085 -0.8575,4.5483 -2.7725,4.9219 -1.01875,0.1841 -1.535,0.1562 -2.07125,0.1562 -0.6875,0 -1.05375,0.1198 -1.05375,0.4298 0,0.5493 0.52625,0.7031 1.21,0.7031 2.17875,0 5.46625,-0.1954 6.75875,-0.1954 1.23125,0 4.285,0.1954 7.1475,0.1954 1.02375,0 1.64125,-0.1538 1.64125,-0.7031 0,-0.31 -0.475,-0.4298 -1.01625,-0.4298 -0.6875,0 -1.6625,-0.066 -2.89,-0.3125 -1.165,-0.2514 -2.03125,-0.7754 -2.03125,-1.9531 0,-0.9975 0.0525,-1.8067 0.195,-2.9296 l 3.555,-24.68755 0.27375,0 c 2.38875,4.65238 6.46625,12.48538 7.07,13.789 0.825,1.73535 6.2125,11.21585 7.85125,14.06255 1.09,1.8652 1.76625,3.086 2.3825,3.086 0.6125,0 0.9675,-0.5592 2.54,-3.4767 l 14.84375,-28.12497 0.2725,0 4.1025,27.26567 c 0.27125,1.7481 0.0537,2.5391 -0.3525,2.6562 -0.47375,0.1929 -0.74125,0.3931 -0.74125,0.7031 0,0.377 0.42375,0.5469 1.99125,0.6642 2.72875,0.1928 12.11875,0.3906 13.82875,0.3906 0.955,0 1.79625,-0.2052 1.79625,-0.7031 0,-0.3776 -0.48125,-0.4298 -1.09375,-0.4298 -0.88875,0 -2.27125,-0.063 -4.2575,-0.625 -2.04125,-0.5615 -2.70875,-2.3437 -3.32,-6.25 l -6.21125,-38.32025 c -0.20125,-1.29937 -0.6075,-1.91412 -1.21125,-1.91412 -0.62,0 -1.04125,0.49075 -1.5225,1.48437 l -18.555,35.3906 -18.59375,-34.96085 c -0.87625,-1.61375 -1.29125,-1.91412 -1.83625,-1.91412" />
    <path
       inkscape:connector-curvature="0"
       id="path3677"
       style="fill:#006c56;fill-opacity:1;fill-rule:nonzero;stroke:none"
       d="m 73.347504,1021.7684 0,28.9063 28.867246,0 0,-28.9063 -28.867246,0 z m -35.859377,0 0,28.9063 28.867247,0 0,-28.9063 -28.867247,0 z m -35.7812505,0 0,28.9063 28.8672505,0 0,-28.9063 -28.8672505,0 z m 71.6406275,-35.85937 0,28.90627 28.867246,0 0,-28.90627 -28.867246,0 z m -71.6406275,0 0,28.90627 28.8672505,0 0,-28.90627 -28.8672505,0 z m 60.1953755,-3.00788 -27.30475,7.53913 7.539125,27.26562 27.265627,-7.5 -7.500002,-27.30475 z m 11.445252,-32.8515 0,28.86713 28.867246,0 0,-28.86713 -28.867246,0 z m -35.859377,0 0,28.86713 28.867247,0 0,-28.86713 -28.867247,0 z m -35.7812505,0 0,28.86713 28.8672505,0 0,-28.86713 -28.8672505,0" />
  </g>
</svg>
