<svg xmlns="http://www.w3.org/2000/svg" xmlns:xlink="http://www.w3.org/1999/xlink" width="517.4254377833956" height="193.26456083873856" viewBox="0 0 177.85213 66.405235">
<defs>
 <linearGradient id="linearGradient4578">
  <stop offset="0" style="stop-color:#ad8b41;stop-opacity:1"/>
  <stop offset="0.42466104" style="stop-color:#dfc38c;stop-opacity:1"/>
  <stop offset="0.82827055" style="stop-color:#b18d58;stop-opacity:1"/>
  <stop offset="1" style="stop-color:#b18d58;stop-opacity:1"/>
 </linearGradient>
 <linearGradient xlink:href="#linearGradient4578" id="linearGradient4568" gradientUnits="userSpaceOnUse" gradientTransform="matrix(0.49138202,0,0,0.49138202,-40.043538,196.5613)" x1="-163.72014" y1="677.93097" x2="-130.81737" y2="555.13617"/>
</defs>
<g transform="translate(142.73046,-469.18799)">
 <path d="m -46.570638,506.32095 c -0.509958,-0.89148 -0.641686,-1.47547 -0.575691,-2.5523 0.129966,-2.1209 1.549257,-3.72725 3.533507,-3.99923 l 0.596075,-0.0818 -0.635873,1.35019 c -0.833985,1.77084 -1.750568,3.92603 -2.12049,4.98595 -0.163084,0.46728 -0.338132,0.84963 -0.38898,0.84963 -0.05085,0 -0.234696,-0.24865 -0.408548,-0.55254 z m 5.245563,3.01355 c -1.271294,-0.22253 -1.581862,-0.3658 -1.485149,-0.68511 0.495761,-1.63663 3.350033,-7.88644 3.601736,-7.88644 0.06762,0 0.54537,0.42416 1.061646,0.94257 1.671804,1.67875 2.335268,3.70492 2.032225,6.20626 -0.08216,0.67832 -0.204055,1.28796 -0.270814,1.35472 -0.16782,0.16783 -4.063096,0.22144 -4.939644,0.068 z m -52.296406,7.32174 c -1.20826,-0.74918 -0.96733,-3.01434 0.67711,-6.36609 2.84013,-5.78884 7.729218,-10.95683 10.365902,-10.95722 0.958842,-1.4e-4 1.32792,0.34017 1.428001,1.31674 0.411342,4.01375 -6.031471,14.05907 -10.242533,15.96966 -0.70939,0.32186 -1.74132,0.33895 -2.22848,0.0369 z m 26.00681,0.49019 c -1.208759,-0.65889 -1.661101,-2.64744 -1.201605,-5.28239 0.535342,-3.0699 1.942992,-5.87833 3.914442,-7.80982 2.020602,-1.97965 4.38186,-2.49368 6.189414,-1.34736 0.595175,0.37745 1.395928,1.3814 1.395928,1.75016 0,0.32625 -0.825796,2.61709 -1.550643,4.30164 -1.748021,4.06239 -4.026681,7.13687 -6.014969,8.1157 -1.098005,0.54055 -2.063668,0.63668 -2.732567,0.27207 z m 24.237596,0.31512 c -0.886066,-0.62063 -1.000945,-2.57199 -0.334767,-5.6863 0.177742,-0.83091 0.254265,-0.99862 0.42423,-0.9298 0.677762,0.27451 2.801292,0.59621 4.400254,0.6666 1.018963,0.0448 1.852663,0.10573 1.852663,0.13521 0,0.0295 -0.204576,0.49641 -0.454602,1.0376 -0.988851,2.14023 -2.651257,4.17065 -3.866266,4.72214 -0.672875,0.3054 -1.626587,0.33112 -2.021512,0.0544 z m 65.896185,18.00988 c 0.228609,-0.12241 0.251476,-0.28656 0.251476,-1.80581 0,-0.98153 0.08504,-2.11976 0.206082,-2.75815 0.295463,-1.55847 1.175927,-4.14286 2.348256,-6.8928 1.122051,-2.63201 4.804601,-10.09641 7.077552,-14.34593 2.161378,-4.04093 2.719207,-5.47834 2.719207,-7.00689 0,-0.92722 -0.274431,-1.24886 -1.065601,-1.24886 -0.977712,0 -1.723224,0.73744 -3.614542,3.57532 -3.904274,5.85829 -8.311076,10.20593 -10.344862,10.20593 -0.694208,0 -1.387157,-0.54027 -1.627664,-1.26907 -0.500872,-1.51761 0.0596,-4.0238 1.884101,-8.42487 0.95821,-2.31141 1.095907,-3.6649 0.404871,-3.97976 -0.466159,-0.21239 -0.931548,-0.031 -1.65557,0.64532 -0.899914,0.84062 -1.479375,1.73351 -2.597772,4.00286 -0.525925,1.06717 -1.298609,2.46677 -1.717074,3.11021 -2.727037,4.19314 -6.2461987,7.34542 -8.2003529,7.34542 -1.4144467,0 -1.9277436,-0.85653 -1.6368554,-2.73133 0.2798604,-1.80378 0.9327647,-3.31262 2.8680939,-6.62808 1.5001531,-2.56992 1.7454192,-3.20208 1.7053507,-4.39522 -0.017833,-0.53109 -0.5183002,-1.06668 -0.9967489,-1.06668 -0.1892723,0 -0.9387232,0.31893 -1.6654383,0.70874 -2.072812,1.11185 -3.3073208,1.32731 -5.1732733,0.9029 l -0.91680297,-0.20851 0.08274,-0.40906 c 0.37268897,-1.84264 0.32850097,-3.1221 -0.132104,-3.82505 -0.222917,-0.34024 -0.914358,-0.67976 -1.381982,-0.67861 -1.66971203,0.004 -2.83539703,1.48332 -2.86808103,3.63959 -0.01699,1.12063 0.26071,1.88784 1.017807,2.81174 l 0.456629,0.55728 -0.46582,1.20824 c -2.074191,5.38015 -5.522408,9.38971 -8.0751048,9.38971 -1.496393,0 -2.388195,-1.42676 -2.388195,-3.82073 0,-1.24296 -0.0085,-1.22361 1.148186,-2.5933 1.499758,-1.77582 2.8760068,-4.17496 3.1632438,-5.51425 0.343723,-1.60274 -0.657143,-2.47751 -2.0815878,-1.81935 -0.649121,0.29994 -2.1584,1.8546 -2.938314,3.02668 -0.877174,1.31825 -1.70688,3.05042 -2.176651,4.5442 -0.215445,0.68507 -0.468212,1.4211 -0.561702,1.63562 -0.284036,0.65177 -1.838196,2.4777 -2.76502,3.2486 -1.264219,1.05151 -2.217502,1.49692 -3.202247,1.49634 -1.486212,-0.001 -2.079898,-0.67858 -2.066703,-2.35903 0.01728,-2.19922 0.885158,-4.36376 2.833262,-7.06632 2.467059,-3.42248 2.830208,-5.26548 1.037545,-5.26548 -0.942896,0 -1.780845,0.51862 -3.24597,2.00892 -1.927706,1.96086 -4.529955,3.55826 -7.491798,4.59891 l -1.121244,0.39393 -0.06173,-1.77822 c -0.05173,-1.49041 -0.119094,-1.94656 -0.416195,-2.81832 -0.801703,-2.3523 -2.101532,-3.91392 -4.272711,-5.13329 -0.709628,-0.39853 -0.742482,-0.43845 -0.575987,-0.69994 0.09709,-0.15251 0.489011,-0.80384 0.870921,-1.4474 1.128017,-1.90086 3.527211,-5.46498 4.900991,-7.28063 l 1.278792,-1.69018 1.182468,-0.58506 c 1.964227,-0.97182 3.166858,-2.05359 3.895211,-3.50369 0.183563,-0.36546 0.366541,-0.86653 0.406609,-1.11348 0.08468,-0.52188 -0.153945,-1.18858 -0.489791,-1.3683 -1.086818,-0.58167 -3.57455,0.82854 -6.662261,3.77653 l -1.358736,1.29727 -1.0228,0.15557 c -1.411261,0.21468 -6.981523,0.21333 -8.303456,-9.8e-4 -2.844392,-0.46334 -4.952402,-1.05873 -8.612539,-2.43255 -3.100319,-1.16369 -4.124346,-1.33914 -4.934098,-0.8454 -1.086713,0.6626 -1.118987,1.42961 -0.186357,4.42863 0.81724,2.62796 1.045832,3.76556 1.162029,5.783 0.141033,2.44853 -0.07008,4.94442 -0.646793,7.64666 l -0.133609,0.62603 -0.365408,-0.49602 c -0.917456,-1.24542 -2.400604,-1.85688 -4.510627,-1.8596 -2.161696,-0.004 -4.021582,0.80871 -5.908429,2.578 -1.880119,1.76298 -3.06228,3.5064 -4.222295,6.22699 -1.834325,4.302 -4.06255,7.55483 -5.766747,8.41839 -0.744699,0.37737 -1.637729,0.42927 -2.218521,0.12884 -0.813586,-0.42073 -1.159499,-1.8315 -0.907862,-3.70266 0.203039,-1.50976 0.394951,-2.23308 1.431523,-5.39547 1.213823,-3.70315 1.4733,-4.74635 1.471369,-5.91552 -0.0021,-1.17175 -0.168479,-1.82235 -0.668195,-2.61035 -1.059685,-1.67095 -3.898244,-2.26949 -6.496037,-1.36979 -2.971502,1.02919 -6.709502,4.05873 -9.723252,7.8805 -1.45836,1.84934 -4.32807,4.77951 -6.189459,6.31986 -6.89934,5.70937 -14.77032,8.88507 -22.03483,8.89042 -6.23627,0.004 -11.00602,-2.86444 -13.05779,-7.85424 -0.78589,-1.91125 -0.96236,-3.00281 -0.94759,-5.86093 0.0244,-4.7225 1.07442,-8.97056 3.37423,-13.65121 1.95079,-3.9703 4.14321,-7.03723 7.37798,-10.32084 6.60927,-6.70912 14.58406,-10.54542 23.26972,-11.19392 5.069419,-0.37853 8.680639,0.89848 10.611899,3.75263 2.7912,4.125 2.05278,10.79196 -1.80528,16.29937 -0.99903,1.42613 -3.66671,4.15329 -5.16226,5.27736 -4.572099,3.43643 -10.316309,5.41631 -14.325229,4.93751 -4.1817,-0.49943 -6.24818,-4.32026 -4.88354,-9.02942 1.31337,-4.53214 5.72183,-8.61045 12.14181,-11.2325 1.6027,-0.65458 1.89589,-0.89187 1.54076,-1.24701 -0.72537,-0.72537 -4.34791,0.0458 -7.37514,1.57056 -2.92061,1.47078 -6.18616,4.26992 -8.05155,6.90157 -1.11488,1.57286 -2.15246,3.72798 -2.56362,5.3248 -0.29686,1.15296 -0.32871,1.4914 -0.28144,2.99025 0.0423,1.34079 0.11557,1.86487 0.35433,2.53524 1.88729,5.29792 8.3735,6.86943 16.60174,4.02235 1.71979,-0.59507 5.36437,-2.44294 7.126189,-3.61313 2.19845,-1.4602 3.51526,-2.54366 5.46546,-4.49693 5.03122,-5.03916 7.494267,-10.64095 7.063223,-16.06408 -0.227647,-2.86415 -1.175882,-4.96682 -3.107403,-6.89053 -1.64653,-1.63986 -3.47542,-2.57551 -6.236,-3.19028 -1.29357,-0.28808 -5.985039,-0.4053 -7.956989,-0.19882 -11.43592,1.1974 -22.41302,7.26464 -30.47707,16.84522 -4.55002,5.40569 -7.80345,12.17209 -8.6942,18.08195 -0.22913,1.52015 -0.26082,5.35827 -0.0556,6.72533 0.79202,5.27439 3.58834,9.20877 8.10669,11.40597 7.05729,3.43185 16.37467,2.83497 25.29521,-1.62042 3.5895,-1.7928 6.98555,-4.14405 9.656479,-6.68567 0.82893,-0.78878 1.02936,-0.92748 0.96787,-0.66976 -0.44841,1.87969 -0.43912,3.86221 0.0238,5.08077 0.35824,0.94298 1.04702,1.73519 1.88072,2.1631 0.96706,0.49639 2.57326,0.56847 3.80827,0.17091 1.22741,-0.39511 2.38222,-1.02382 3.68531,-2.00642 1.0802,-0.81451 3.244758,-2.94188 4.179642,-4.10783 l 0.468779,-0.58466 -0.06305,0.65618 c -0.08035,0.83621 0.147294,2.31068 0.503899,3.2638 0.413369,1.10484 1.494706,2.16355 2.50743,2.45503 1.131525,0.32563 2.083052,0.19382 3.446838,-0.47746 0.902886,-0.44444 1.318128,-0.76214 2.340208,-1.79051 0.683403,-0.68761 1.621041,-1.79252 2.083636,-2.45537 l 0.841079,-1.20512 0.170209,1.01145 c 0.339958,2.0201 1.408766,3.57371 2.996181,4.35518 0.721307,0.3551 1.019324,0.42357 2.028833,0.4662 2.67394,0.11281 5.005777,-0.9599 7.438285,-3.42196 5.825077,-5.89582 9.348729,-18.86163 7.893319,-29.04462 -0.07443,-0.52073 -0.05976,-0.56558 0.157623,-0.48217 0.468125,0.17963 4.049633,0.853 5.585862,1.05023 2.035787,0.26134 6.011979,0.41976 8.385742,0.33412 1.036841,-0.0373 1.905502,-0.0575 1.93036,-0.0445 0.02484,0.0131 -0.301691,0.48098 -0.725646,1.0401 -1.404242,1.85194 -3.914971,5.781 -4.533593,7.09463 -0.222229,0.47189 -0.251378,0.48751 -0.909133,0.48751 -2.541436,0 -5.252892,1.32353 -6.455772,3.1512 -1.260295,1.91491 -1.41324,4.12391 -0.421095,6.08181 0.338974,0.66893 1.694804,2.16852 2.206022,2.43992 0.253481,0.13464 0.252132,0.1563 -0.1,1.6099 -0.534493,2.20644 -0.69768,3.97429 -0.493512,5.34656 0.411057,2.76297 1.927331,4.34193 4.306202,4.48423 1.320724,0.0791 2.277113,-0.14314 3.660307,-0.85008 2.637359,-1.34802 5.249317,-4.63923 6.525326,-8.22227 0.207875,-0.58372 0.21114,-0.58602 1.431375,-1.00251 1.349989,-0.46075 2.964341,-1.19728 4.201221,-1.91673 l 0.806212,-0.46896 -0.368467,0.81651 c -1.179529,2.61383 -1.573255,5.13941 -1.108567,7.11082 0.651449,2.76372 2.57879,3.8776 5.520118,3.19022 1.794886,-0.41943 4.227026,-1.97664 5.669137,-3.62971 0.611783,-0.70125 0.831438,-0.79084 0.831438,-0.33912 0,0.47313 0.924316,2.08191 1.459185,2.53973 1.09501,0.9373 2.933372,1.3118 4.560466,0.92904 3.0899178,-0.72687 5.8138408,-3.45385 8.1302938,-8.13939 0.477248,-0.96532 1.071698,-2.31822 1.32101203,-3.00641 l 0.453282,-1.25127 0.65115,0.19358 c 0.470418,0.13983 1.05705997,0.1781 2.11376397,0.13781 0.8044497,-0.0307 1.4626325,-0.0444 1.4626325,-0.0307 0,0.0144 -0.2079414,0.36861 -0.4621001,0.78844 -0.7524829,1.24299 -1.4869824,2.87437 -2.0120844,4.46897 -1.30700497,3.9691 -0.91095297,6.69728 1.10632,7.62081 1.8472815,0.8457 4.2215915,0.41146 6.698327,-1.22511 1.2564032,-0.8302 3.4152862,-2.93154 4.6804132,-4.55563 l 0.845074,-1.08489 0.0872,1.4099 c 0.247094,3.99464 2.083615,5.77737 5.057145,4.90903 1.554623,-0.454 3.429847,-1.81129 5.622817,-4.06981 1.119722,-1.1532 1.651085,-1.54557 1.64801,-1.21697 0,0.0536 -0.382884,0.82883 -0.849728,1.72264 -5.028271,9.62711 -6.815228,14.1448 -6.819051,17.23965 -0.0013,0.92659 0.169169,1.50776 0.619427,2.11372 0.541395,0.72861 1.747877,1.13131 2.378392,0.79385 z" style="fill:url(#linearGradient4568);fill-opacity:1;stroke-width:0.13001147"/>
</g>
</svg>