<?xml version="1.0" encoding="UTF-8" standalone="no"?>
<!-- Created with Inkscape (http://www.inkscape.org/) -->

<svg
   xmlns:dc="http://purl.org/dc/elements/1.1/"
   xmlns:cc="http://creativecommons.org/ns#"
   xmlns:rdf="http://www.w3.org/1999/02/22-rdf-syntax-ns#"
   xmlns:svg="http://www.w3.org/2000/svg"
   xmlns="http://www.w3.org/2000/svg"
   xmlns:sodipodi="http://sodipodi.sourceforge.net/DTD/sodipodi-0.dtd"
   xmlns:inkscape="http://www.inkscape.org/namespaces/inkscape"
   width="182.00002"
   height="49.822559"
   viewBox="0 0 48.15417 13.182218"
   version="1.1"
   id="svg1052"
   inkscape:version="0.92.0 r15299"
   sodipodi:docname="alnylam.svg">
  <defs
     id="defs1046" />
  <sodipodi:namedview
     id="base"
     pagecolor="#ffffff"
     bordercolor="#666666"
     borderopacity="1.0"
     inkscape:pageopacity="0.0"
     inkscape:pageshadow="2"
     inkscape:zoom="4.9833329"
     inkscape:cx="90.000008"
     inkscape:cy="23.91128"
     inkscape:document-units="mm"
     inkscape:current-layer="layer1"
     showgrid="false"
     fit-margin-top="0"
     fit-margin-left="0"
     fit-margin-right="0"
     fit-margin-bottom="0"
     units="px"
     inkscape:window-width="1280"
     inkscape:window-height="744"
     inkscape:window-x="-4"
     inkscape:window-y="-4"
     inkscape:window-maximized="1" />
  <metadata
     id="metadata1049">
    <rdf:RDF>
      <cc:Work
         rdf:about="">
        <dc:format>image/svg+xml</dc:format>
        <dc:type
           rdf:resource="http://purl.org/dc/dcmitype/StillImage" />
        <dc:title></dc:title>
      </cc:Work>
    </rdf:RDF>
  </metadata>
  <g
     inkscape:label="Layer 1"
     inkscape:groupmode="layer"
     id="layer1"
     transform="translate(-68.413686,-190.3586)">
    <g
       id="g264"
       transform="matrix(0.35277777,0,0,-0.35277777,70.54118,197.70053)"
       style="fill:#1f99d6;fill-opacity:1">
      <path
         d="m 0,0 c 0,0 2.102,-0.555 2.6,0.372 1.167,2.174 -2.175,9.122 -2.175,9.122 0,0 3.877,-8.994 8.328,-13.155 2.438,-2.279 5.238,-2.416 7.159,-1.378 3.925,2.123 9.175,12.677 9.759,13.737 C 26.254,9.76 21.852,-0.848 20.315,-3.234 18.776,-5.622 17.45,-8.379 12.464,-8.538 6.504,-8.729 0,0 0,0"
         style="fill:#1f99d6;fill-opacity:1;fill-rule:nonzero;stroke:none"
         id="path266"
         inkscape:connector-curvature="0" />
    </g>
    <g
       id="g268"
       transform="matrix(0.35277777,0,0,-0.35277777,68.678269,195.28679)"
       style="fill:#bcdcf5;fill-opacity:1">
      <path
         d="M 0,0 C 0,1.159 0.939,2.099 2.099,2.099 3.258,2.099 4.196,1.159 4.196,0 4.196,-1.159 3.258,-2.099 2.099,-2.099 0.939,-2.099 0,-1.159 0,0"
         style="fill:#bcdcf5;fill-opacity:1;fill-rule:nonzero;stroke:none"
         id="path270"
         inkscape:connector-curvature="0" />
    </g>
    <g
       id="g4852"
       style="fill:#1f3462;fill-opacity:1"
       transform="translate(0.26458336,-0.26457971)">
      <g
         transform="matrix(0.35277777,0,0,-0.35277777,73.607357,191.90287)"
         id="g272"
         style="fill:#1f3462;fill-opacity:1">
        <path
           inkscape:connector-curvature="0"
           id="path274"
           style="fill:#1f3462;fill-opacity:1;fill-rule:nonzero;stroke:none"
           d="m 0,0 c 0,0 1.538,0.531 1.751,0.266 0.443,-0.555 0.37,-1.113 -0.851,-2.494 -1.219,-1.378 -4.719,-5.038 -4.719,-5.038 0,0 7.175,6.427 9.174,5.781 1.647,-0.53 0.957,-2.863 0.69,-3.712 -0.264,-0.85 -3.499,-9.6 -15.221,-27.791 C -9.304,-33.189 8.055,-12.463 8.803,-3.66 9.44,3.819 5.781,2.865 5.515,2.81 2.408,2.19 0,0 0,0" />
      </g>
      <path
         d="m 84.322799,197.98694 -1.36737,-3.23603 -1.36772,3.23603 z m -1.48202,-4.22769 h 0.22895 l 3.1108,7.19173 h -0.60502 l -1.05445,-2.48426 h -3.13161 l -1.05374,2.48426 h -0.60572 z"
         style="fill:#1f3462;fill-opacity:1;fill-rule:nonzero;stroke:none;stroke-width:0.35277778"
         id="path278"
         inkscape:connector-curvature="0" />
      <path
         inkscape:connector-curvature="0"
         id="path280"
         style="fill:#1f3462;fill-opacity:1;fill-rule:nonzero;stroke:none;stroke-width:0.35277778"
         d="m 87.203519,193.8219 h 0.53234 v 7.12893 h -0.53234 z" />
      <g
         transform="matrix(0.35277777,0,0,-0.35277777,89.280985,196.24378)"
         id="g290"
         style="fill:#1f3462;fill-opacity:1">
        <path
           inkscape:connector-curvature="0"
           id="path292"
           style="fill:#1f3462;fill-opacity:1;fill-rule:nonzero;stroke:none"
           d="m 0,0 h 1.48 v -2.13 c 1.272,1.569 2.781,2.368 4.614,2.368 3.019,0 4.734,-1.954 4.734,-5.445 v -8.137 H 9.349 v 7.426 c 0,3.197 -1.094,4.793 -3.402,4.793 -1.835,0 -3.345,-0.947 -4.467,-2.809 v -9.41 H 0 Z" />
      </g>
      <path
         d="m 93.915149,196.24379 h 0.58455 l 1.670408,3.20428 1.565273,-3.20428 h 0.542568 l -3.465329,7.07707 h -0.53164 l 1.60726,-3.28824 z"
         style="fill:#1f3462;fill-opacity:1;fill-rule:nonzero;stroke:none;stroke-width:0.35277778"
         id="path296"
         inkscape:connector-curvature="0" />
      <path
         inkscape:connector-curvature="0"
         id="path298"
         style="fill:#1f3462;fill-opacity:1;fill-rule:nonzero;stroke:none;stroke-width:0.35277778"
         d="m 99.092129,193.8219 h 0.53304 v 7.12893 h -0.53304 z" />
      <g
         transform="matrix(0.35277777,0,0,-0.35277777,103.46593,198.52909)"
         id="g308"
         style="fill:#1f3462;fill-opacity:1">
        <path
           inkscape:connector-curvature="0"
           id="path310"
           style="fill:#1f3462;fill-opacity:1;fill-rule:nonzero;stroke:none"
           d="m 0,0 c -4.025,-0.06 -6.244,-1.6 -6.244,-3.67 0,-1.362 0.978,-2.22 2.604,-2.22 1.155,0 2.309,0.592 3.64,1.716 z m -4.055,-7.16 c -2.217,0 -3.698,1.419 -3.698,3.431 0,2.899 2.663,4.705 7.753,4.912 v 1.419 c 0,1.983 -0.889,2.87 -2.988,2.87 -1.362,0 -2.633,-0.562 -4.086,-1.628 v 1.451 c 1.453,0.977 2.813,1.479 4.204,1.479 3.136,0 4.349,-1.421 4.349,-4.526 v -6.983 c 0,-0.591 0.149,-0.859 0.474,-0.859 0.414,0 0.799,0.416 1.508,1.036 v -1.36 c -0.857,-0.8 -1.596,-1.215 -2.16,-1.215 -0.858,0 -1.214,0.474 -1.271,1.571 -1.391,-1.067 -2.605,-1.598 -4.085,-1.598" />
      </g>
      <g
         transform="matrix(0.35277777,0,0,-0.35277777,105.52225,196.24378)"
         id="g312"
         style="fill:#1f3462;fill-opacity:1">
        <path
           inkscape:connector-curvature="0"
           id="path314"
           style="fill:#1f3462;fill-opacity:1;fill-rule:nonzero;stroke:none"
           d="m 0,0 h 1.479 v -2.13 c 1.214,1.569 2.663,2.368 4.438,2.368 1.982,0 3.224,-0.799 4.142,-2.723 1.451,1.835 2.929,2.723 4.795,2.723 2.899,0 4.556,-1.954 4.556,-5.445 v -8.137 H 17.9 v 7.426 c 0,3.197 -1.035,4.793 -3.224,4.793 -1.746,0 -3.197,-0.947 -4.231,-2.809 v -9.41 H 8.964 v 7.426 c 0,3.197 -1.065,4.793 -3.254,4.793 -1.746,0 -3.167,-0.947 -4.231,-2.809 v -9.41 H 0 Z" />
      </g>
      <g
         transform="matrix(0.35277777,0,0,-0.35277777,96.393302,202.58857)"
         id="g316"
         style="fill:#1f3462;fill-opacity:1">
        <path
           inkscape:connector-curvature="0"
           id="path318"
           style="fill:#1f3462;fill-opacity:1;fill-rule:nonzero;stroke:none"
           d="m 0,0 h 0.572 c 0.643,0 0.945,0.238 0.945,0.758 0,0.484 -0.308,0.736 -0.89,0.736 H 0 Z m 0.609,1.746 c 0.821,0 1.238,-0.345 1.238,-1.004 0,-0.605 -0.429,-1.001 -1.104,-1.001 H 0 v -1.748 h -0.301 v 3.753 z" />
      </g>
      <path
         d="m 97.502089,201.97248 h 0.107241 v 0.61242 h 0.879829 v -0.61242 h 0.105839 v 1.32397 h -0.105839 v -0.61877 H 97.60933 v 0.61877 h -0.107241 z"
         style="fill:#1f3462;fill-opacity:1;fill-rule:nonzero;stroke:none;stroke-width:0.35277778"
         id="path322"
         inkscape:connector-curvature="0" />
      <path
         d="m 99.797148,202.74609 -0.253648,-0.60149 -0.254,0.60149 z m -0.274809,-0.78528 h 0.043 l 0.577491,1.33526 h -0.11253 l -0.195801,-0.46073 h -0.58208 l -0.19544,0.46073 h -0.112181 z"
         style="fill:#1f3462;fill-opacity:1;fill-rule:nonzero;stroke:none;stroke-width:0.35277778"
         id="path326"
         inkscape:connector-curvature="0" />
      <g
         transform="matrix(0.35277777,0,0,-0.35277777,100.59634,202.56901)"
         id="g336"
         style="fill:#1f3462;fill-opacity:1">
        <path
           inkscape:connector-curvature="0"
           id="path338"
           style="fill:#1f3462;fill-opacity:1;fill-rule:nonzero;stroke:none"
           d="m 0,0 h 0.23 c 0.379,0 0.665,0 0.873,0.093 0.275,0.121 0.413,0.341 0.413,0.66 0,0.428 -0.314,0.686 -0.891,0.686 H 0 Z m 0.609,1.692 c 0.813,0 1.236,-0.346 1.236,-0.939 0,-0.462 -0.235,-0.764 -0.714,-0.92 0.136,-0.076 0.247,-0.18 0.336,-0.312 L 2.499,-2.061 H 2.159 L 1.561,-1.139 C 1.319,-0.771 1.147,-0.539 1.049,-0.441 0.9,-0.292 0.67,-0.259 0.306,-0.259 H 0 v -1.802 h -0.304 v 3.753 z" />
      </g>
      <path
         d="m 101.81765,201.97248 h 0.10971 l 0.4946,0.61066 0.49248,-0.61066 h 0.11218 v 1.32397 h -0.1083 v -1.1691 l -0.49636,0.61665 -0.49812,-0.61665 v 1.1691 h -0.10619 z"
         style="fill:#1f3462;fill-opacity:1;fill-rule:nonzero;stroke:none;stroke-width:0.35277778"
         id="path342"
         inkscape:connector-curvature="0" />
      <path
         d="m 104.22684,202.74609 -0.25365,-0.60149 -0.25435,0.60149 z m -0.27552,-0.78528 h 0.0427 l 0.57855,1.33526 h -0.11289 l -0.19614,-0.46073 h -0.58173 l -0.19544,0.46073 h -0.11218 z"
         style="fill:#1f3462;fill-opacity:1;fill-rule:nonzero;stroke:none;stroke-width:0.35277778"
         id="path346"
         inkscape:connector-curvature="0" />
      <g
         transform="matrix(0.35277777,0,0,-0.35277777,105.52055,203.31953)"
         id="g356"
         style="fill:#1f3462;fill-opacity:1">
        <path
           inkscape:connector-curvature="0"
           id="path358"
           style="fill:#1f3462;fill-opacity:1;fill-rule:nonzero;stroke:none"
           d="m 0,0 c -0.434,0 -0.824,0.116 -1.159,0.336 -0.55,0.356 -0.867,0.956 -0.867,1.622 0,0.503 0.208,0.998 0.576,1.356 0.384,0.373 0.885,0.572 1.45,0.572 0.422,0 0.857,-0.122 1.314,-0.353 V 3.219 c -0.484,0.26 -0.912,0.397 -1.325,0.397 -0.359,0 -0.676,-0.1 -0.951,-0.28 -0.466,-0.312 -0.736,-0.818 -0.736,-1.392 0,-0.444 0.176,-0.872 0.479,-1.186 0.301,-0.313 0.731,-0.488 1.208,-0.488 0.407,0 0.835,0.137 1.325,0.396 V 0.345 C 0.869,0.116 0.434,0 0,0" />
      </g>
      <path
         d="m 106.44144,201.97248 h 0.71755 v 0.085 h -0.61136 v 0.52564 h 0.5916 v 0.085 h -0.5916 v 0.53869 h 0.62618 v 0.0896 h -0.73237 z"
         style="fill:#1f3462;fill-opacity:1;fill-rule:nonzero;stroke:none;stroke-width:0.35277778"
         id="path362"
         inkscape:connector-curvature="0" />
      <g
         transform="matrix(0.35277777,0,0,-0.35277777,108.17448,203.211)"
         id="g372"
         style="fill:#1f3462;fill-opacity:1">
        <path
           inkscape:connector-curvature="0"
           id="path374"
           style="fill:#1f3462;fill-opacity:1;fill-rule:nonzero;stroke:none"
           d="M 0,0 C 0.741,0 1.242,0.495 1.242,1.314 V 3.513 H 1.555 V 1.33 C 1.555,0.308 0.94,-0.313 0,-0.313 c -0.941,0 -1.55,0.621 -1.55,1.643 v 2.183 h 0.309 V 1.314 C -1.241,0.495 -0.741,0 0,0" />
      </g>
      <path
         d="m 109.61489,202.06702 h -0.49283 v -0.0945 h 1.09925 v 0.0945 h -0.49247 v 1.22943 h -0.11395 z"
         style="fill:#1f3462;fill-opacity:1;fill-rule:nonzero;stroke:none;stroke-width:0.35277778"
         id="path378"
         inkscape:connector-curvature="0" />
      <path
         inkscape:connector-curvature="0"
         id="path380"
         style="fill:#1f3462;fill-opacity:1;fill-rule:nonzero;stroke:none;stroke-width:0.35277778"
         d="m 110.63784,203.2961 h 0.10689 v -1.32397 h -0.10689 z" />
      <g
         transform="matrix(0.35277777,0,0,-0.35277777,111.95041,203.31953)"
         id="g390"
         style="fill:#1f3462;fill-opacity:1">
        <path
           inkscape:connector-curvature="0"
           id="path392"
           style="fill:#1f3462;fill-opacity:1;fill-rule:nonzero;stroke:none"
           d="m 0,0 c -0.434,0 -0.824,0.116 -1.158,0.336 -0.551,0.356 -0.869,0.956 -0.869,1.622 0,0.503 0.209,0.998 0.576,1.356 0.386,0.373 0.886,0.572 1.451,0.572 0.424,0 0.859,-0.122 1.314,-0.353 V 3.219 c -0.484,0.26 -0.913,0.397 -1.323,0.397 -0.359,0 -0.676,-0.1 -0.953,-0.28 -0.466,-0.312 -0.735,-0.818 -0.735,-1.392 0,-0.444 0.176,-0.872 0.477,-1.186 0.303,-0.313 0.732,-0.488 1.211,-0.488 0.405,0 0.833,0.137 1.323,0.396 V 0.345 C 0.868,0.116 0.434,0 0,0" />
      </g>
      <path
         d="m 113.51887,202.74609 -0.254,-0.60149 -0.254,0.60149 z m -0.27481,-0.78528 h 0.042 l 0.57785,1.33526 h -0.11254 l -0.19579,-0.46073 h -0.58138 l -0.19579,0.46073 h -0.1122 z"
         style="fill:#1f3462;fill-opacity:1;fill-rule:nonzero;stroke:none;stroke-width:0.35277778"
         id="path396"
         inkscape:connector-curvature="0" />
      <path
         d="m 114.2168,201.97248 h 0.11042 v 1.23437 h 0.62406 v 0.0896 h -0.73448 z"
         style="fill:#1f3462;fill-opacity:1;fill-rule:nonzero;stroke:none;stroke-width:0.35277778"
         id="path400"
         inkscape:connector-curvature="0" />
      <g
         transform="matrix(0.35277777,0,0,-0.35277777,115.68944,202.05154)"
         id="g410"
         style="fill:#1f3462;fill-opacity:1">
        <path
           inkscape:connector-curvature="0"
           id="path412"
           style="fill:#1f3462;fill-opacity:1;fill-rule:nonzero;stroke:none"
           d="m 0,0 c -0.465,0 -0.773,-0.314 -0.773,-0.703 0,-0.407 0.258,-0.55 0.742,-0.753 0.307,-0.128 0.582,-0.226 0.773,-0.441 0.159,-0.175 0.248,-0.406 0.248,-0.659 0,-0.594 -0.456,-1.028 -1.112,-1.028 -0.321,0 -0.642,0.11 -0.963,0.336 v 0.363 c 0.344,-0.27 0.658,-0.407 0.96,-0.407 0.49,0 0.797,0.285 0.797,0.749 0,0.437 -0.298,0.581 -0.813,0.795 -0.611,0.254 -0.935,0.488 -0.935,1.027 0,0.566 0.424,0.995 1.09,0.995 0.295,0 0.57,-0.082 0.85,-0.247 V -0.309 C 0.561,-0.105 0.287,0 0,0" />
      </g>
      <g
         transform="matrix(0.35277777,0,0,-0.35277777,113.11298,195.61513)"
         id="g414"
         style="fill:#1f3462;fill-opacity:1">
        <path
           inkscape:connector-curvature="0"
           id="path416"
           style="fill:#1f3462;fill-opacity:1;fill-rule:nonzero;stroke:none"
           d="m 0,0 v -0.747 h 0.401 c 0.424,0 0.606,0.079 0.606,0.386 C 1.007,-0.106 0.806,0 0.401,0 Z M 1.286,-0.371 C 1.286,-0.649 1.1,-0.86 0.803,-0.893 L 1.256,-1.832 H 0.943 L 0.509,-0.933 H 0 v -0.899 h -0.273 v 2.019 h 0.729 c 0.556,0 0.83,-0.167 0.83,-0.558 M 1.521,0.26 c -0.304,0.302 -0.696,0.463 -1.12,0.463 -0.425,0 -0.811,-0.161 -1.099,-0.453 -0.303,-0.309 -0.469,-0.705 -0.469,-1.118 0,-0.417 0.166,-0.807 0.464,-1.106 0.298,-0.298 0.688,-0.464 1.104,-0.464 0.41,0 0.812,0.166 1.12,0.469 0.292,0.288 0.453,0.669 0.453,1.101 0,0.424 -0.161,0.815 -0.453,1.108 M 1.643,0.383 C 1.97,0.054 2.145,-0.382 2.145,-0.848 2.145,-1.329 1.97,-1.749 1.643,-2.071 1.301,-2.409 0.861,-2.592 0.401,-2.592 c -0.466,0 -0.894,0.183 -1.226,0.516 -0.333,0.333 -0.515,0.762 -0.515,1.228 0,0.458 0.182,0.897 0.52,1.24 0.323,0.327 0.748,0.503 1.221,0.503 0.474,0 0.908,-0.181 1.242,-0.512" />
      </g>
    </g>
  </g>
</svg>
