<?xml version="1.0" encoding="UTF-8" standalone="no"?>
<!-- Created with Inkscape (http://www.inkscape.org/) -->

<svg
   xmlns:dc="http://purl.org/dc/elements/1.1/"
   xmlns:cc="http://creativecommons.org/ns#"
   xmlns:rdf="http://www.w3.org/1999/02/22-rdf-syntax-ns#"
   xmlns:svg="http://www.w3.org/2000/svg"
   xmlns="http://www.w3.org/2000/svg"
   xmlns:sodipodi="http://sodipodi.sourceforge.net/DTD/sodipodi-0.dtd"
   xmlns:inkscape="http://www.inkscape.org/namespaces/inkscape"
   width="400.72983"
   height="60.210388"
   viewBox="0 0 106.02643 15.930665"
   version="1.1"
   id="svg87982"
   inkscape:version="0.92.0 r15299"
   sodipodi:docname="biomarin.svg">
  <defs
     id="defs87976">
    <clipPath
       id="clipPath38277"
       clipPathUnits="userSpaceOnUse">
      <path
         inkscape:connector-curvature="0"
         id="path38275"
         d="m 50,648.508 h 299.047 v 43.658 H 50 Z" />
    </clipPath>
  </defs>
  <sodipodi:namedview
     id="base"
     pagecolor="#ffffff"
     bordercolor="#666666"
     borderopacity="1.0"
     inkscape:pageopacity="0.0"
     inkscape:pageshadow="2"
     inkscape:zoom="2.0113896"
     inkscape:cx="199.36479"
     inkscape:cy="29.105204"
     inkscape:document-units="mm"
     inkscape:current-layer="layer1"
     showgrid="false"
     fit-margin-top="0"
     fit-margin-left="0"
     fit-margin-right="0"
     fit-margin-bottom="0"
     units="px"
     inkscape:window-width="1280"
     inkscape:window-height="744"
     inkscape:window-x="-4"
     inkscape:window-y="-4"
     inkscape:window-maximized="1" />
  <metadata
     id="metadata87979">
    <rdf:RDF>
      <cc:Work
         rdf:about="">
        <dc:format>image/svg+xml</dc:format>
        <dc:type
           rdf:resource="http://purl.org/dc/dcmitype/StillImage" />
        <dc:title></dc:title>
      </cc:Work>
    </rdf:RDF>
  </metadata>
  <g
     inkscape:label="Layer 1"
     inkscape:groupmode="layer"
     id="layer1"
     transform="translate(-58.3764,-201.83557)">
    <g
       id="g88118"
       transform="translate(0.26458181,-0.26457884)">
      <path
         d="m 119.4877,202.36473 -6.61423,15.08831 h 1.41711 l 2.31598,-5.2892 h 5.76545 l 2.33186,5.2892 h 1.39912 z m -0.008,3.23603 2.32868,5.28214 h -4.64079 z"
         style="fill:#263d96;fill-opacity:1;fill-rule:nonzero;stroke:none;stroke-width:0.35277778"
         id="path38259"
         inkscape:connector-curvature="0" />
      <path
         inkscape:connector-curvature="0"
         id="path38261"
         style="fill:#263d96;fill-opacity:1;fill-rule:nonzero;stroke:none;stroke-width:0.35277778"
         d="m 143.54474,217.44976 h 1.27988 V 202.6779 h -1.27988 z" />
      <path
         d="m 103.37934,209.19891 -6.748639,-6.80156 0.0074,15.05233 h 1.281288 v -11.93165 l 5.445831,5.51144 5.54743,-5.53967 v 11.95988 h 1.27988 v -15.06114 z"
         style="fill:#263d96;fill-opacity:1;fill-rule:nonzero;stroke:none;stroke-width:0.35277778"
         id="path38265"
         inkscape:connector-curvature="0" />
      <path
         d="m 150.06517,204.47356 v 12.97622 h 1.28129 v -11.45257 l 9.89824,11.76902 v -15.08831 h -1.28129 v 11.5062 l -9.89824,-11.75526 z"
         style="fill:#263d96;fill-opacity:1;fill-rule:nonzero;stroke:none;stroke-width:0.35277778"
         id="path38269"
         inkscape:connector-curvature="0" />
      <path
         d="m 130.1823,203.97178 h 4.91949 v 0.003 c 1.43545,0 2.60103,1.15112 2.6289,2.58022 v 0.24412 c -0.0279,1.42875 -1.19345,2.57951 -2.6289,2.57951 v 0.005 h -4.91949 z m 7.99924,13.48387 1.44674,-3.5e-4 -3.54189,-6.91515 c 1.58891,-0.41134 2.78588,-1.79141 2.9217,-3.47451 h 0.004 v -0.0815 c 0.005,-0.0787 0.0123,-0.15734 0.0123,-0.23777 h -0.0123 v -0.13829 h 0.0123 c 0,-0.0808 -0.007,-0.1591 -0.0123,-0.23848 v -0.004 c -0.12558,-2.05317 -1.82562,-3.67947 -3.91018,-3.67947 h -6.20078 v 14.76763 h 1.28129 v -6.78921 h 4.51838 z"
         style="fill:#263d96;fill-opacity:1;fill-rule:nonzero;stroke:none;stroke-width:0.35277778"
         id="path38281"
         inkscape:connector-curvature="0" />
      <path
         d="m 67.522903,213.45406 h -0.01199 c 0,1.50177 -1.217437,2.71851 -2.719564,2.71851 v 0.001 H 59.65737 v -5.50051 l 5.311775,0.0205 v 0.004 c 0.924277,0 1.727905,0.44979 2.1971,1.17863 0.197202,0.41205 0.344664,0.82762 0.344664,1.31692 l 0.01199,0.001 z m -2.947105,-9.48231 v 0.003 c 1.438274,0 2.605616,1.15429 2.630663,2.58657 v 0.23107 c -0.02505,1.43192 -1.192389,2.59644 -2.630663,2.59644 H 59.65737 v -5.41725 z m 4.219222,9.126 c -0.01834,-0.71578 -0.197909,-1.35572 -0.550686,-1.92616 -0.337256,-0.5401 -0.792339,-0.97296 -1.329267,-1.27776 0.878417,-0.65652 1.474611,-1.67146 1.567744,-2.82822 h 0.0042 v -0.0815 c 0.0049,-0.0787 0.01199,-0.15734 0.01199,-0.23778 h -0.01199 v -0.13829 h 0.01199 c 0,-0.0808 -0.0071,-0.1591 -0.01199,-0.23847 v -0.004 h -3.53e-4 c -0.125942,-2.05317 -1.825978,-3.68053 -3.910894,-3.68053 v 0.006 l -6.199364,-0.008 v 14.77115 h 6.436783 v -0.002 c 2.177344,-0.012 3.941233,-1.7586 3.984978,-3.92783 h 0.0053 v -0.42616 z"
         style="fill:#263d96;fill-opacity:1;fill-rule:nonzero;stroke:none;stroke-width:0.35277778"
         id="path38285"
         inkscape:connector-curvature="0" />
      <path
         d="m 85.803776,216.40032 c -3.173589,0 -5.802136,-2.33186 -6.264628,-5.37669 h -0.0078 c -0.04657,-0.30797 -0.0702,-0.61312 -0.0702,-0.93486 0,-0.27869 0.01552,-0.53975 0.05045,-0.80892 h 0.0046 c 0.386291,-3.13019 3.053291,-5.55413 6.287558,-5.55413 3.234619,0 5.898444,2.41088 6.284383,5.54073 0.03598,0.27375 0.05151,0.5394 0.05151,0.82232 0,0.32526 -0.02364,0.63359 -0.07126,0.94509 -0.462845,3.04483 -3.091039,5.36646 -6.264628,5.36646 m -7.57308,-5.37669 c 0.472722,3.76308 3.681588,6.67491 7.57308,6.67491 3.891844,0 7.102828,-2.915 7.575903,-6.67808 0.03669,-0.30445 0.05821,-0.61701 0.05821,-0.93169 0,-0.28927 -0.01164,-0.55104 -0.04304,-0.83291 -0.392642,-3.8488 -3.63855,-6.82766 -7.591072,-6.82766 -3.944055,0 -7.1882,2.99121 -7.59213,6.82766 h -0.0056 c -0.0314,0.28187 -0.04304,0.54364 -0.04304,0.83291 0,0.31468 0.02152,0.62724 0.05856,0.93169"
         style="fill:#263d96;fill-opacity:1;fill-rule:nonzero;stroke:none;stroke-width:0.35277778"
         id="path38289"
         inkscape:connector-curvature="0" />
      <path
         d="m 162.81181,203.60712 c 0.16439,0 0.40428,0.0275 0.40428,-0.20779 0,-0.18027 -0.14711,-0.20214 -0.28927,-0.20214 h -0.33126 v 0.40993 z m 0.54434,0.64594 h -0.16969 l -0.33055,-0.5334 h -0.26035 v 0.5334 h -0.14217 v -1.15747 h 0.50659 c 0.30656,0 0.40922,0.11501 0.40922,0.30657 0,0.22683 -0.1584,0.31185 -0.36301,0.3175 z m 0.35277,-0.57997 c 0,-0.50341 -0.36618,-0.89711 -0.86959,-0.89711 -0.50589,0 -0.8756,0.3937 -0.8756,0.89711 0,0.5087 0.36971,0.90276 0.8756,0.90276 0.50341,0 0.86959,-0.39406 0.86959,-0.90276 m -1.90958,0 c 0,-0.56903 0.46496,-1.03434 1.03999,-1.03434 0.57114,0 1.03434,0.46531 1.03434,1.03434 0,0.57432 -0.4632,1.03964 -1.03434,1.03964 -0.57503,0 -1.03999,-0.46532 -1.03999,-1.03964"
         style="fill:#263d96;fill-opacity:1;fill-rule:nonzero;stroke:none;stroke-width:0.35277778"
         id="path38293"
         inkscape:connector-curvature="0" />
      <path
         d="m 72.596129,202.73928 -0.28575,0.16404 -0.250825,0.1905 -0.07796,0.17322 -0.104069,0.1471 -0.02434,0.0529 -0.0085,0.0529 0.01587,0.0586 0.09525,0.25964 0.164395,0.10407 0.190147,0.21625 0.138642,0.12983 0.198966,0.0952 0.19932,0.0607 h 0.27693 l 0.182034,0.0346 0.198614,0.0173 0.268463,0.0173 0.259292,0.0173 0.320322,-0.0258 0.242711,-0.0695 0.294217,-0.12136 0.130175,-0.14676 0.146756,-0.13864 0.121355,-0.1905 -0.0092,-0.19896 -0.05151,-0.28575 -0.311502,-0.45015 -0.276931,-0.20778 -0.136525,-0.067 -0.102658,-0.0402 -0.09843,-0.0138 -0.320322,0.0261 -0.31997,-0.0526 -0.15628,-0.0254 -0.198614,0.043 -0.259998,0.0349 -0.164394,0.0603 z"
         style="fill:#f15029;fill-opacity:1;fill-rule:evenodd;stroke:none;stroke-width:0.35277778"
         id="path38297"
         inkscape:connector-curvature="0" />
      <path
         d="m 72.189271,207.47388 1.540581,0.0349 0.230011,-0.048 0.296333,-0.006 0.295275,0.0307 0.225778,0.0635 0.172508,0.11889 0.06279,0.0787 0.03986,0.0864 0.0099,0.0921 -0.02646,0.0931 -0.0695,0.0924 -0.117828,0.0875 -0.179211,0.0353 -0.312561,7.1e-4 -0.845256,-0.0638 -1.291872,-0.14676 -0.04904,-0.0215 -0.02893,-0.0508 -0.0127,-0.15804 z"
         style="fill:#ed192e;fill-opacity:1;fill-rule:evenodd;stroke:none;stroke-width:0.35277778"
         id="path38301"
         inkscape:connector-curvature="0" />
      <path
         d="m 72.41459,209.72407 0.233539,0.0903 0.117828,0.0423 0.115711,-0.003 1.047044,-0.0473 0.419806,0.0363 0.329141,0.0808 0.147462,0.0392 0.08467,0.0346 0.06915,0.0515 0.07408,0.13052 0.01199,0.12806 -0.0314,0.10795 -0.05715,0.0702 v 0.0702 l -1.023761,-0.002 -0.3429,0.004 -0.338314,-0.0296 -0.340783,-0.06 -0.301978,-0.0487 -0.220486,-0.0335 -0.08573,-0.0236 -0.05962,-0.0557 -0.08643,-0.17992 -0.03881,-0.19438 0.276931,-0.20743 m 0.207433,-0.83079 0.132292,0.0822 0.08608,0.0501 0.09349,0.0254 0.06809,-0.0138 0.07726,-0.0384 0.07937,-0.0381 0.07585,-0.0155 0.135113,0.0476 0.143934,0.0494 0.12065,-0.0367 0.122061,-0.0367 0.145697,0.054 0.0702,0.0282 h 0.0695 l 0.448733,-0.061 0.343606,0.055 0.02223,0.0145 0.0081,0.0173 -0.0095,0.0423 -0.01517,0.0455 0.01376,0.0445 0.08537,0.0504 0.09666,0.0378 0.03845,0.0289 0.0254,0.0427 0.0071,0.0624 -0.01729,0.0871 -0.03175,0.0434 -0.06033,0.0335 -0.195086,0.042 -0.612775,0.024 -0.879122,-0.11466 -0.763764,-0.1404 -0.112183,-0.0473 -0.08572,-0.0995 -0.05362,-0.11994 -0.0187,-0.10795 z"
         style="fill:#ec047c;fill-opacity:1;fill-rule:evenodd;stroke:none;stroke-width:0.35277778"
         id="path38305"
         inkscape:connector-curvature="0" />
      <path
         d="m 72.41459,210.90143 0.467078,0.0607 0.153811,0.0159 0.135819,-0.0222 0.178859,-0.019 0.282575,0.0233 0.405694,0.006 0.409928,-0.0215 0.138289,-0.003 0.122061,0.049 0.211667,0.1778 0.06914,0.0861 0.04163,0.10407 0.01023,0.11077 -0.0261,0.11254 -0.123825,0.34783 -0.07126,0.1524 -0.103364,0.12242 -0.0575,0.0265 -0.07267,0.005 -0.172156,-0.0324 -0.180622,-0.0487 -0.155222,-0.0194 -0.110067,0.0282 -0.09948,0.0476 -0.102306,0.0434 -0.116769,0.013 -0.331611,-0.0868 -0.185914,-0.0275 -0.216253,0.0378 -0.05856,0.004 -0.05327,-0.0233 -0.05327,-0.0282 -0.05962,-0.0152 -0.131587,-0.004 -0.04939,-0.0145 -0.02716,-0.031 -0.155575,-0.24271 -0.17145,-0.19967 -0.06844,-0.091 -0.02399,-0.1076 0.04127,-0.12664 0.09172,-0.13441 z"
         style="fill:#aa118e;fill-opacity:1;fill-rule:evenodd;stroke:none;stroke-width:0.35277778"
         id="path38309"
         inkscape:connector-curvature="0" />
      <path
         d="m 73.020239,213.3254 0.17145,-0.009 0.174625,0.0169 0.993422,0.0981 0.278695,0.0427 0.265289,0.073 0.118886,0.073 0.105833,0.10901 0.08961,0.15628 0.0702,0.21167 0.05221,0.35983 -0.01729,0.17956 -0.06738,0.16616 -0.09031,0.10689 -0.121003,0.0914 -0.31997,0.13935 -0.844902,0.10689 -0.264936,-0.0346 -0.26035,-0.073 -0.255412,-0.0716 -0.25153,-0.0289 -0.353483,-0.0427 -0.263525,-0.13018 -0.177448,-0.18556 -0.09525,-0.21061 -0.02328,-0.236 0.05644,-0.20109 0.115006,-0.16686 0.1524,-0.13653 0.331964,-0.18309 0.226836,-0.0787 0.05574,-0.0282 0.03845,-0.0399 0.04233,-0.0413 z"
         style="fill:#3a3899;fill-opacity:1;fill-rule:evenodd;stroke:none;stroke-width:0.35277778"
         id="path38313"
         inkscape:connector-curvature="0" />
      <path
         d="m 73.827747,215.75918 0.324908,0.0296 0.33902,0.12418 0.09878,0.0921 0.08114,0.0751 0.171803,0.0367 0.07937,0.0226 0.05362,0.049 0.08643,0.38664 0.0071,0.2466 -0.03951,0.2032 -0.07408,0.12947 -0.103011,0.11112 -0.278342,0.17674 -0.349955,0.11677 -0.390878,0.0593 -0.403225,0.006 -0.384881,-0.0427 -0.337255,-0.0889 -0.259645,-0.13159 -0.08114,-0.0772 -0.05574,-0.0914 -0.06879,-0.20744 -0.02399,-0.23107 0.04763,-0.20108 0.103364,-0.17145 0.144286,-0.14429 0.348192,-0.20108 0.324203,-0.0903 0.326319,-0.0984 z"
         style="fill:#062849;fill-opacity:1;fill-rule:evenodd;stroke:none;stroke-width:0.35277778"
         id="path38317"
         inkscape:connector-curvature="0" />
    </g>
  </g>
</svg>
