<?xml version="1.0" encoding="UTF-8" standalone="no"?>
<svg
   xmlns:dc="http://purl.org/dc/elements/1.1/"
   xmlns:cc="http://creativecommons.org/ns#"
   xmlns:rdf="http://www.w3.org/1999/02/22-rdf-syntax-ns#"
   xmlns:svg="http://www.w3.org/2000/svg"
   xmlns="http://www.w3.org/2000/svg"
   version="1.1"
   id="svg43401"
   viewBox="0 0 300 42.472745"
   height="42.472744"
   width="300">
  <defs
     id="defs43403" />
  <metadata
     id="metadata43406">
    <rdf:RDF>
      <cc:Work
         rdf:about="">
        <dc:format>image/svg+xml</dc:format>
        <dc:type
           rdf:resource="http://purl.org/dc/dcmitype/StillImage" />
        <dc:title></dc:title>
      </cc:Work>
    </rdf:RDF>
  </metadata>
  <g
     transform="translate(-415.11081,-552.01839)"
     id="layer1">
    <g
       transform="matrix(0,2.0143711,2.0143711,0,560.96825,553.68916)"
       id="g43089">
      <path
         id="path43091"
         style="fill:#005bac;fill-opacity:1;fill-rule:nonzero;stroke:none"
         d="m 0,0 0,5.178 7.934,0 0,0.054 -7.934,5.842 0,6.235 9.043,-7.188 10.385,7.744 0,-6.601 -8.823,-6.032 0,-0.054 8.823,0 0,-5.178" />
    </g>
    <g
       transform="matrix(0,2.0143711,2.0143711,0,593.57897,592.82236)"
       id="g43093">
      <path
         id="path43095"
         style="fill:#005bac;fill-opacity:1;fill-rule:nonzero;stroke:none"
         d="m 0,0 0,5.256 -4.145,1.533 0,7.289 4.145,1.445 0,5.678 -19.428,-7.48 0,-6.348 L 0,0 Z m -7.818,12.85 0,-4.868 -7.6,2.512 0,0.053" />
    </g>
    <g
       transform="matrix(0,2.0143711,2.0143711,0,637.76615,583.17151)"
       id="g43097">
      <path
         id="path43099"
         style="fill:#005bac;fill-opacity:1;fill-rule:nonzero;stroke:none"
         d="m 0,0 c 0.729,1.332 1.285,3.203 1.285,5.344 0,1.644 -0.332,3.199 -1.894,3.199 -3.618,0 -1.33,-9.182 -8.399,-9.182 -4.68,0 -5.961,4.559 -5.961,8.457 0,1.868 0.276,3.705 0.729,5.012 l 3.998,-0.338 c -0.608,-1.338 -0.889,-2.842 -0.889,-4.303 0,-1.31 0.113,-3.494 1.811,-3.494 3.148,0 1.031,9.192 8.047,9.192 5.031,0 6.396,-4.237 6.396,-8.543 0,-1.813 -0.271,-4.069 -0.832,-5.791 L 0,0" />
    </g>
    <g
       transform="matrix(0,2.0143711,2.0143711,0,670.17744,553.68916)"
       id="g43101">
      <path
         id="path43103"
         style="fill:#005bac;fill-opacity:1;fill-rule:nonzero;stroke:none"
         d="m 0,0 0,13.682 3.676,0 0,-8.508 4.012,0 0,8.037 3.666,0 0,-8.037 4.402,0 0,8.818 3.672,0 0,-13.992" />
    </g>
    <g
       transform="matrix(0,2.0143711,2.0143711,0,-1042.8015,404.55924)"
       id="g43105">
      <path
         id="path43107"
         style="fill:#005bac;fill-opacity:1;fill-rule:nonzero;stroke:none"
         d="m 74.032,867.017 19.428,0 0,5.172 -19.428,0 0,-5.172 z" />
    </g>
    <g
       transform="matrix(0,2.0143711,2.0143711,0,416.11081,592.82236)"
       id="g43109">
      <path
         id="path43111"
         style="fill:#005bac;fill-opacity:1;fill-rule:nonzero;stroke:none"
         d="m 0,0 0,2.916 -4.9,1.984 0,9.512 4.9,1.977 0,3.039 -19.428,-8.219 0,-2.916 L 0,0 Z m -7.174,13.52 0,-7.733 -9.639,3.873" />
    </g>
    <g
       transform="matrix(0,2.0143711,2.0143711,0,458.25144,587.21234)"
       id="g43113">
      <path
         id="path43115"
         style="fill:#005bac;fill-opacity:1;fill-rule:nonzero;stroke:none"
         d="m 0,0 c 0.67,1.035 1.004,2.508 1.004,3.256 0,1.203 -0.506,2.672 -2.031,2.672 -2.594,0 -2.371,-6.149 -6.34,-6.149 -2.961,0 -4.375,2.203 -4.375,5.01 0,1.232 0.252,2.227 0.551,3.258 L -8.902,7.822 C -9.264,7.25 -9.631,5.68 -9.631,5.07 c 0,-1.341 0.568,-2.507 1.729,-2.507 2.898,0 2.058,6.152 6.591,6.152 3.034,0 4.428,-2.418 4.428,-4.955 0,-1.324 -0.138,-2.697 -0.781,-3.895 L 0,0" />
    </g>
    <g
       transform="matrix(0,2.0143711,2.0143711,0,483.81577,570.73881)"
       id="g43117">
      <path
         id="path43119"
         style="fill:#005bac;fill-opacity:1;fill-rule:nonzero;stroke:none"
         d="m 0,0 c -0.885,1.061 -1.453,2.646 -1.453,4.123 0,2.611 1.252,3.506 3.705,3.506 C 2.195,6.592 2.195,5.873 2.195,4.842 c 0,-2.696 1.118,-6.594 4.672,-6.594 3.092,0 4.428,2.148 4.428,5.207 0,2.391 -1.305,3.785 -2.17,4.397 l 0,0.056 1.838,0 0,2.449 C 10.545,10.297 9.799,10.236 8.178,10.236 l -5.865,0 c -3.874,0 -5.877,-1.634 -5.877,-5.697 0,-1.807 0.55,-3.365 1.335,-4.678 L 0,0 Z m 5.455,7.629 c 2.109,0 3.727,-1.367 3.727,-3.947 0,-1.203 -0.811,-2.653 -2.315,-2.653 -2.498,0 -2.724,3.51 -2.724,4.934 0,0.551 0.056,1.109 0.056,1.666 l 1.256,0" />
    </g>
    <g
       transform="matrix(0,2.0143711,2.0143711,0,512.21847,553.65693)"
       id="g43121">
      <path
         id="path43123"
         style="fill:#005bac;fill-opacity:1;fill-rule:nonzero;stroke:none"
         d="m 0,0 0,2.609 7.275,0 0,0.061 C 5.777,3.615 4.916,5.258 4.916,7.229 c 0,3.673 2.281,5.312 6.092,5.312 l 8.435,0 0,-2.613 -7.345,0 c -3.315,0 -4.924,-0.729 -5.071,-3.006 0,-2.977 2.399,-4.313 5.852,-4.313 l 6.564,0 L 19.443,0 0,0" />
    </g>
    <g
       transform="matrix(0,2.0143711,2.0143711,0,-1042.8015,404.55924)"
       id="g43125">
      <path
         id="path43127"
         style="fill:#005bac;fill-opacity:1;fill-rule:nonzero;stroke:none"
         d="m 74.002,791.158 2.951,0 0,-2.949 -2.951,0 0,2.949 z m 2.951,0 z m 16.507,-2.782 -14.193,0 0,2.623 14.193,0 0,-2.623 z" />
    </g>
  </g>
</svg>
