<?xml version="1.0" encoding="utf-8"?>
<!-- Generator: Adobe Illustrator 22.0.1, SVG Export Plug-In . SVG Version: 6.00 Build 0)  -->
<svg version="1.1" id="Logo" xmlns="http://www.w3.org/2000/svg" xmlns:xlink="http://www.w3.org/1999/xlink" x="0px" y="0px"
	 viewBox="0 0 288.1 80" style="enable-background:new 0 0 288.1 80;" xml:space="preserve">
<g>
	<polygon points="238.5,22.9 214.3,22.9 201.9,57.2 226.1,57.2 	"/>
	<polygon points="234.1,38.8 248.4,57.2 276.3,57.2 260.3,39.1 288.1,22.9 259.7,22.9 	"/>
	<path d="M206.6,29.5l2.4-6.6h-61.9l-8.5,23.6c-0.5,1.5-0.6,3.2,0.5,4.5c0.4,0.4,3.1,3.6,3.7,4.2c1,1.1,2.2,2,4.2,2h49.6l2.4-6.5
		h-34.7c-2.1,0-3.1-1.6-2.6-3.2l1.6-4.3h38.4l2.4-6.6h-38.4l2.6-7.1C168.3,29.4,206.6,29.4,206.6,29.5z"/>
	<path d="M135.5,22.9H73.9L61.5,57.2h23.6l10-27.7h17.6c1.9,0,2.6,1.4,2.2,2.7c-0.4,1.4-1,3.1-1.5,4.1c-0.6,1.4-2,2.5-4.1,2.5
		s-16.5,0-16.5,0L107.1,57h27.1L122,43.3c0,0,4.9,0,7.3,0c3.4,0,5.4-1.8,6.3-4.1c1-2.6,3.3-8.9,4-11C140.9,25,138.9,22.9,135.5,22.9
		"/>
	<polygon points="69.6,22.9 2.4,22.9 0,29.5 23.2,29.5 13.2,57.2 36,57.2 46,29.5 67.3,29.5 	"/>
</g>
</svg>
