<svg width="474.988" height="100" viewBox="0 0 474.988 100" xmlns="http://www.w3.org/2000/svg"><g fill-rule="evenodd" clip-rule="evenodd" transform="translate(-27.798778,-241.58463) matrix(2.8875029,0,0,2.8875029,-632.72906,-849.53919)"><path d="M246.66 391.258L228.951 391.258 228.951 412.115 246.66 412.115z"/><path d="m 286.21,391.652 c -3.739,-0.59 -7.674,-0.787 -11.806,-0.787 -14.167,0 -25.383,4.919 -25.383,10.823 0,6.1 10.822,10.625 24.792,10.625 3.148,0 9.641,-0.197 12.396,-0.787 l 0.59,-7.871 c -2.755,1.182 -6.1,1.969 -10.035,1.969 -5.313,0 -9.838,-1.771 -9.838,-3.936 0,-2.361 4.328,-4.133 9.445,-4.133 4.132,0 7.673,0.984 10.428,2.164 z"/><path d="m 316.315,390.865 c -14.758,0 -26.76,4.329 -26.76,10.823 0,6.689 12.002,10.822 26.76,10.822 14.955,0 26.958,-4.133 26.958,-10.822 0,-6.495 -12.2,-10.823 -26.958,-10.823 z m 0,6.887 c 5.706,0 9.052,1.967 9.052,4.131 0,2.363 -3.738,3.936 -9.052,3.936 -5.313,0 -9.051,-1.572 -9.051,-3.936 10e-4,-2.164 3.543,-4.131 9.051,-4.131 z"/><path d="m 344.454,410.346 c 5.509,1.18 12.593,1.967 18.692,1.967 10.429,0 21.055,-2.559 21.055,-7.477 0,-3.543 -5.51,-5.313 -12.79,-5.904 l -4.133,-0.393 c -1.377,-0.197 -3.542,-0.395 -3.542,-1.182 0,-0.787 2.361,-0.983 3.937,-0.983 3.738,0 7.083,0.591 10.231,1.575 l 4.723,-5.313 c -4.723,-1.377 -9.839,-1.771 -15.349,-1.771 -10.625,0 -21.054,2.755 -21.054,7.674 0,3.148 5.706,4.918 12.593,5.51 l 3.542,0.197 c 1.574,0.195 3.936,0.195 3.936,1.18 0,0.985 -2.755,1.18 -4.525,1.18 -3.936,0 -7.871,-0.787 -11.019,-1.77 l -0.788,-0.395 z"/><path d="m 311.2,382.797 c 0,-2.754 2.164,-4.919 4.919,-4.919 2.951,0 5.116,2.165 5.116,4.919 0,2.755 -2.165,5.117 -5.116,5.117 -2.755,0 -4.919,-2.362 -4.919,-5.117 z"/><path d="M246.66 387.716L228.754 387.716 228.754 382.404 246.66 382.404z"/><path d="m 387.546,387.52 h 0.59 v -2.362 h 0.984 l 1.574,2.362 h 0.59 l -1.573,-2.362 c 0.393,0 1.18,-0.393 1.18,-1.376 0,-0.394 0,-0.787 -0.394,-0.985 -0.394,-0.196 -0.786,-0.393 -1.771,-0.393 h -1.181 v 5.116 z m 0.59,-4.723 h 0.591 c 0.984,0 1.574,0.198 1.574,0.985 0,0.59 -0.394,0.983 -1.181,0.983 h -0.984 z m 0.984,-1.967 c -2.361,0 -4.329,1.771 -4.329,4.132 0,2.361 1.968,4.132 4.329,4.132 2.36,0 4.132,-1.771 4.132,-4.132 0,-2.361 -1.772,-4.132 -4.132,-4.132 z m 0,0.393 c 1.968,0 3.541,1.574 3.541,3.738 0,1.968 -1.573,3.739 -3.541,3.739 -2.165,0 -3.738,-1.771 -3.738,-3.739 0,-2.164 1.573,-3.738 3.738,-3.738 z"/></g></svg>