<?xml version="1.0" encoding="utf-8"?>
<!-- Generator: Adobe Illustrator 19.2.1, SVG Export Plug-In . SVG Version: 6.00 Build 0)  -->
<svg version="1.1" id="レイヤー_1" xmlns="http://www.w3.org/2000/svg" xmlns:xlink="http://www.w3.org/1999/xlink" x="0px"
	 y="0px" viewBox="0 0 3057.8 3000" style="enable-background:new 0 0 3057.8 3000;" xml:space="preserve">
<style type="text/css">
	.st0{fill:#054A97;}
	.st1{fill:#FFFFFF;}
	.st2{clip-path:url(#SVGID_2_);fill:url(#SVGID_3_);}
	.st3{clip-path:url(#SVGID_5_);fill:url(#SVGID_6_);}
</style>
<g>
	<polygon class="st0" points="1402.1,2520.1 1357.8,2547.8 1331.8,2506.8 1376.2,2478.8 	"/>
	<polygon class="st0" points="800.2,2520.1 755.8,2547.8 729.8,2506.8 774.1,2478.8 	"/>
	<path class="st0" d="M553.3,2740.4c0-34.8,1.1-61.9,2-81.8l0.8-27.4c0-39.6-20.5-55.7-71.3-55.7c-74.7,0-108.1,25.7-108.1,51.1
		c0,13.3,9.1,22.5,22.4,22.5c17.7,0,23.8-14.4,28.6-25.9c1.9-4.5,3.6-8.6,5.9-11.9c6.4-9,18.5-14.3,32.7-14.3
		c31.9,0,45.5,14.7,45.5,49.4c0,31.8-8.5,36.7-48.9,54.2c-58.1,25.4-93.7,43-93.7,81.3c0,32.8,33.3,60.7,72.5,60.7
		c30.2,0,54.6-15.9,69.9-43.7c0.9,15.2,3.1,28.4,6.9,39.1l0.5,1.3l57.2-3.9l-4.8-2.8C559.4,2825.1,553.3,2794.2,553.3,2740.4
		 M510,2702.1v36.6c0,45.8-15.7,67.3-49.2,67.3c-25.1,0-42-13.9-42-34.7C418.8,2738.8,453.1,2724.8,510,2702.1"/>
	<path class="st0" d="M170,2466.2c-17.5,0-35.8,1.5-55.2,3.1c-21.9,1.8-44.7,3.6-69.3,3.6h-45l2.9,3c13.4,13.9,13.4,73,13.4,170.9
		v22.9c0,95.1-0.5,149.6-13.4,163l-2.9,3h42.2l40.2,1.4l56.2,1.5c122.1,0,197.9-76.9,197.9-200.8
		C337.1,2530.5,274.6,2466.2,170,2466.2 M276.5,2655.7c0,99-51.7,155.7-141.8,155.7c-47.6,0-60.8-4.5-63.4-21.9
		c-1.6-12.4-2.8-46.9-2.8-94.6v-81.8c0-61.4,1.4-96.5,4.4-114c16.9-3.5,34.1-5.3,53.9-5.3C221.8,2493.9,276.5,2552.8,276.5,2655.7"
		/>
	<polygon class="st0" points="676.2,2520.1 631.7,2547.8 605.8,2506.8 650.2,2478.8 	"/>
	<path class="st0" d="M666.5,2764v-31.9c0-78.2,0.5-134.4,2.9-154.7l0.3-2.3l-2.4,0.4c-15.7,3.5-32.9,5.6-54.6,6.3H607l4.8,3.3
		c10.4,6.8,10.9,38,10.9,92.6v85.3c0,37.3-0.8,62.1-11,69.9l-4.4,3.1h74.4l-4-3.1C667.4,2824.5,666.5,2799.1,666.5,2764"/>
	<path class="st0" d="M790.6,2764v-31.9c0-78.2,0.5-134.4,2.9-154.7l0.1-2.3l-2.4,0.4c-15.5,3.5-32.8,5.6-54.6,6.3h-5.5l4.6,3.3
		c10.5,6.8,11,38,11,92.6v85.3c0,37.3-0.8,62.1-11.1,69.9l-4.3,3.1h74.4l-4.1-3.1C791.3,2824.5,790.6,2799.1,790.6,2764"/>
	<path class="st0" d="M973.3,2808.2c-47.8,0-81.3-40.1-81.3-97.4c0-67,33.2-112.1,82.4-112.1c25.8,0,43.8,15,53.7,44.8l3.5-0.6
		l1.6-60.3l-1.3-0.4c-16.5-4.5-33.9-6.8-54.9-6.8c-79.5,0-135.2,57-135.2,138.5c0,74.5,49.2,128.5,117.2,128.5
		c51.1,0,84.2-24.7,84.2-62.9v-6.4l-3.1,4.1C1025.6,2797.1,1001.3,2808.2,973.3,2808.2"/>
	<path class="st0" d="M1280.4,2775.2v-62.2c0-45.3-0.4-78.9-5.8-95.2c-8.6-27.3-29.8-42.2-59.4-42.2c-33.2,0-55.9,11.9-80,41.6
		c0.3-9.6,4.5-178.1,4.5-178.1l-2.1,0.4l-59.5,10.1l3.1,2.4c10.4,8.3,11.1,34.6,11.1,73.8v45.5l0.8,101.6l0.5,62
		c0,57.5-2.1,91.9-12,97.8l-5.8,3.3h75.8l-4.3-3.1c-10.4-7.6-11-32.6-11-69.9v-53.7c0-61.5,0-98.6,54.2-98.6
		c33.9,0,45.8,14.9,45.8,57.1c0,83.8-0.8,132.1-2.8,166.3l-0.1,1.9h61.4l-3.4-3.1C1281.1,2823.3,1280.4,2804.6,1280.4,2775.2"/>
	<path class="st0" d="M1392.7,2764v-31.9c0-78.2,0.4-134.2,2.8-154.7l0.1-2.3l-2.3,0.4c-15.7,3.5-32.9,5.6-54.6,6.3h-5.6l4.8,3.3
		c10.4,6.8,10.9,38,10.9,92.6v85.3c0,37.3-0.8,62.1-10.9,69.9l-4.5,3.1h74.4l-4-3.1C1393.4,2824.5,1392.7,2799.1,1392.7,2764"/>
	<path class="st0" d="M1477.2,2684.7l-26.4,34.2l1.8,1c3.3,2,6.9,2,10.4,2h119.2l26.7-37.2H1477.2"/>
	<path class="st0" d="M1778.4,2627.2l-3.8-1.9c-41-21.5-73.3-38.5-73.3-76.2c0-33.8,28.3-54.9,73.9-54.9c33.6,0,58.6,12.4,72.5,35.7
		l3.3,5.5V2469h-15.8l-6.4-0.5l-4.4-0.1l-16-0.8l-43.3-1.5c-69.6,0-118.4,39.2-118.4,95.4c0,54.6,40.1,76.4,95.3,106.6l7.6,4.3
		c42,22.8,59.1,44.3,59.1,74.7c0,39.3-29.6,66.6-71.6,66.6c-43.3,0-77.7-19.4-99.5-56.4l-3.3-5.4v68.6l1.1,0.5
		c39,14.5,70.6,21.4,99.8,21.4c73,0,130.1-48.6,130.1-110.6C1865.6,2690.5,1840.4,2660.1,1778.4,2627.2"/>
	<path class="st0" d="M2078.2,2740.4c0-34.8,1-61.9,1.9-81.8l0.9-27.4c0-39.6-20.7-55.7-71.4-55.7c-74.7,0-108.1,25.7-108.1,51.1
		c0,13.3,9.1,22.5,22.4,22.5c17.7,0,23.8-14.4,28.6-25.9c1.9-4.5,3.8-8.6,5.9-11.9c6.5-9,18.4-14.3,32.8-14.3
		c31.7,0,45.3,14.7,45.3,49.4c0,31.8-8.5,36.7-49,54.2c-57.9,25.4-93.6,43-93.6,81.3c0,32.8,33.3,60.7,72.5,60.7
		c30.2,0,54.7-15.9,70-43.7c0.9,15.2,3.1,28.4,6.8,39.1l0.5,1.3l57.4-3.9l-4.8-2.8C2084.2,2825.1,2078.2,2794.2,2078.2,2740.4
		 M2034.9,2702.1v36.6c0,45.8-15.7,67.3-49.4,67.3c-25.2,0-42-13.9-42-34.7C1943.5,2738.8,1977.9,2724.8,2034.9,2702.1"/>
	<path class="st0" d="M2335.4,2777.4v-72.9c0-79.9-3-129-65-129c-32.1,0-55.4,12-77.3,38.7v-2.6c0-10.5-1-20.4-2.9-28.6l-0.4-1.5
		l-57.2,6.4l4,2.6c10.4,7.4,10.9,41.5,10.9,101.2v71.1c0,37.3-0.6,62.1-11,69.9l-4.4,3.1h74.7l-4.3-3.1c-10.4-7.8-11-32.6-11-69.9
		v-53.7c0-61.6,0-98.7,54.2-98.7c43.8,0,45.8,22.9,45.8,70.5v13.5c0,55.5-0.8,98.6-2.8,139.4v2h61.5l-3.6-3.1
		C2336,2823.8,2335.4,2805.8,2335.4,2777.4"/>
	<path class="st0" d="M2445.8,2762.9v-62.8c2.1,0.1,6,2.9,10.6,10.5c0.1,0,82.9,125.3,82.9,125.3h59.2l0.8-3.5
		c-10.9-4.3-26.4-26.4-49.7-59.8c-17.4-24.9-39-55.7-67.4-91.9c8.3-6.9,14.9-13.4,20-18.5c0.3-0.1,75.3-80.4,75.3-80.4h-64l1.9,2.8
		c2.9,4.4,4.1,8.8,4.1,14.7c0,15.9-23,47.8-73.8,83.9v-244l-2.1,0.3l-61.8,9.1l3.9,2.5c14,9.3,16.5,37.5,16.5,89.3l-0.6,101.5
		l0.5,63.3l0.1,42.2c0,50.7-1.6,79.3-11.5,85.6l-5,3.1h75.4l-4.4-3.1C2446.6,2825.1,2445.8,2800.2,2445.8,2762.9"/>
	<path class="st0" d="M2820.1,2581.8h-65.3l1.6,2.6c3.3,5.9,4.9,12.4,4.9,19.9c0,20.4-16.7,85.9-53.5,185.9
		c-2.8-9.6-26.9-97.4-26.9-97.4c-21.9-80.9-30.8-114.4-44-114.4h-5.1c-0.1,0-38.8,4.5-38.8,4.5l-7,0.7l6.6,2.6
		c10.4,4.3,19.8,30.2,34.2,72.3c36.1,106.6,48.1,170.2,48.1,177.7c0,21.2-13.9,61-44.3,98.7c-17.4,21.7-33.9,24.1-64.9,24.1
		l-9.3-0.3l-15.4-0.4c-18.8,0-30.3,0.9-30.3,11.9c0,14,19.3,29.2,50,29.2c72.9,0,117.2-77.8,173.7-221.5l28.3-73.7
		c21.7-57.6,37.2-99.2,54.9-119.7L2820.1,2581.8"/>
	<path class="st0" d="M2943,2575.5c-76.7,0-127.9,55.7-127.9,138.5c0,81.8,42.5,128.6,116.6,128.6c76.4,0,125.6-58,125.6-147.6
		C3057.3,2620.1,3014.6,2575.5,2943,2575.5 M2944.1,2817.7c-49.4,0-80-44.3-80-116c0-66.6,23.9-101.8,69.3-101.8
		c44.3,0,75.2,45.1,75.2,109.7C3008.5,2781.3,2986.8,2817.7,2944.1,2817.7"/>
	<path class="st1" d="M767.8,297.4v0.3c0-0.1,0.1-0.3,0.3-0.3H767.8"/>
	<polygon class="st1" points="2422.5,442.3 2422.3,442.3 2422.5,442.6 	"/>
	<g>
		<defs>
			<path id="SVGID_1_" d="M405.2,1124.2c0,620.7,503.2,1123.8,1123.6,1123.8c620.9,0,1124-503.2,1124-1123.8
				c0-256.2-85.9-492.7-230.2-681.5c26.9,85.4,41.5,176.4,41.5,270.8c0,496.4-402.3,898.9-899.1,898.9
				c-496.4,0-898.9-402.5-898.9-898.9c0-150.1,36.8-291.6,101.6-415.7C544.8,502.9,405.2,797.2,405.2,1124.2"/>
		</defs>
		<clipPath id="SVGID_2_">
			<use xlink:href="#SVGID_1_"  style="overflow:visible;"/>
		</clipPath>
		
			<radialGradient id="SVGID_3_" cx="1259.4291" cy="1918.7428" r="125.2607" gradientTransform="matrix(8.9894 0 0 -8.9894 -9792.4727 18373.1191)" gradientUnits="userSpaceOnUse">
			<stop  offset="0" style="stop-color:#22A3D9"/>
			<stop  offset="0.65" style="stop-color:#22A3D9"/>
			<stop  offset="0.6952" style="stop-color:#21A0D6"/>
			<stop  offset="0.7396" style="stop-color:#1E99CF"/>
			<stop  offset="0.7837" style="stop-color:#188DC4"/>
			<stop  offset="0.8276" style="stop-color:#117CB4"/>
			<stop  offset="0.8715" style="stop-color:#0A66A1"/>
			<stop  offset="0.9146" style="stop-color:#084D8B"/>
			<stop  offset="0.95" style="stop-color:#0C377A"/>
			<stop  offset="1" style="stop-color:#0C377A"/>
		</radialGradient>
		<rect x="405.2" y="297.7" class="st2" width="2247.5" height="1950.3"/>
	</g>
	<g>
		<defs>
			<path id="SVGID_4_" d="M768,297.4c183-76.9,373.5-99.5,584.7-16.7c136.4,53.2,396.7,197.4,554.2,223.6
				c228,38.1,366.6,8.1,515.6-62C2217,173.7,1893.3,0.5,1528.8,0.5C1235.3,0.5,968.3,113,768,297.4"/>
		</defs>
		<clipPath id="SVGID_5_">
			<use xlink:href="#SVGID_4_"  style="overflow:visible;"/>
		</clipPath>
		
			<radialGradient id="SVGID_6_" cx="1259.4606" cy="1917.8763" r="125.2603" gradientTransform="matrix(9.0307 0 0 -9.0307 -9843.291 18452.498)" gradientUnits="userSpaceOnUse">
			<stop  offset="0" style="stop-color:#F5E529"/>
			<stop  offset="0.75" style="stop-color:#F5E529"/>
			<stop  offset="0.7745" style="stop-color:#E9DF2D"/>
			<stop  offset="0.8216" style="stop-color:#C6CD37"/>
			<stop  offset="0.8859" style="stop-color:#88B042"/>
			<stop  offset="0.95" style="stop-color:#15934A"/>
			<stop  offset="1" style="stop-color:#15934A"/>
		</radialGradient>
		<rect x="768" y="0.5" class="st3" width="1654.4" height="541.9"/>
	</g>
</g>
</svg>
