<?xml version="1.0" encoding="UTF-8"?>
<!-- Created with Inkscape (http://www.inkscape.org/) -->
<svg width="313.99" height="150" version="1.1" viewBox="0 0 313.99 150" xml:space="preserve" xmlns="http://www.w3.org/2000/svg" xmlns:cc="http://creativecommons.org/ns#" xmlns:dc="http://purl.org/dc/elements/1.1/" xmlns:rdf="http://www.w3.org/1999/02/22-rdf-syntax-ns#"><metadata><rdf:RDF><cc:Work rdf:about=""><dc:format>image/svg+xml</dc:format><dc:type rdf:resource="http://purl.org/dc/dcmitype/StillImage"/><dc:title/></cc:Work></rdf:RDF></metadata><defs><linearGradient id="linearGradient28" x2="1" gradientTransform="matrix(4.4434 -44.669 -44.669 -4.4434 242.23 118.78)" gradientUnits="userSpaceOnUse"><stop stop-color="#f79248" offset="0"/><stop stop-color="#ea3732" offset="1"/></linearGradient><linearGradient id="linearGradient48" x2="1" gradientTransform="matrix(4.4437 -44.671 -44.671 -4.4437 336.86 128.19)" gradientUnits="userSpaceOnUse"><stop stop-color="#f79248" offset="0"/><stop stop-color="#ea3732" offset="1"/></linearGradient></defs><g transform="matrix(1.3333 0 0 -1.3333 -319.19 264.52)"><g transform="matrix(1.7507 0 0 1.7507 -179.71 -64.473)"><path d="m239.4 86.081h3.176c0.394 6.717 2.799 13.862 6.927 20.779-4.919-6.803-8.358-13.876-10.103-20.779" fill="url(#linearGradient28)"/><path d="m299.23 144.21c27.225 8.787 51.325 3.236 59.49-13.42 6.091-12.425 1.927-29.449-10.176-44.711h14.349c10.846 15.204 14.31 31.732 7.575 44.721-6.605 12.744-21.6 19.346-39.724 19.346-9.861 0-20.646-1.954-31.514-5.936" fill="url(#linearGradient48)"/><g transform="translate(265.36 124.45)"><path d="m0 0c4.888 0 5.666 3.118 5.666 4.627 0 3.637-2.962 4.471-5.767 4.471h-3.693l1e-3 -9.092zm-13.36-20.794v36.7h15.856c6.601 0 12.788-3.325 12.788-10.968 0-2.235-0.884-11.178-14.348-11.178h-4.73v-14.554z" fill="#273e64"/></g><g transform="translate(321.5 122)"><path d="m0 0c0 7.485 5.355 12.371 12.684 12.371 2.022 0 3.698-0.388 5.074-0.889l3.66 6.297c-3.377 1.141-7.485 1.506-9.88 1.506-13.565 0-21.519-8.837-21.519-19.701 0-13.256 10.968-18.869 20.431-18.869 4.523 0 6.704 0.571 8.161 0.989l4.47 7.693c-2.495-1.092-6.186-1.975-9.513-1.975-9.513 0-13.568 6.392-13.568 12.578" fill="#273e64"/></g><g transform="translate(253.82 95.472)"><path d="m0 0h-1.843v1.659h5.591v-1.659h-1.843v-9.431h-1.905z" fill="#273e64"/></g><g transform="translate(259.46 86.041)"><path d="m0 0v11.091h1.905v-4.517h2.028v4.517h1.904v-11.091h-1.904v4.915h-2.028v-4.915z" fill="#273e64"/></g><g transform="translate(267.91 86.041)"><path d="m0 0v11.091h5.1v-1.66h-3.195v-2.857h2.458v-1.659h-2.458v-3.256h3.41v-1.659z" fill="#273e64"/></g><g transform="translate(277.4 92.154)"><path d="m0 0h0.676c1.029 0 1.413 0.384 1.413 1.705s-0.384 1.705-1.413 1.705h-0.676zm0-6.113h-1.905v11.09h2.673c2.135 0 3.226-0.906 3.226-3.272 0-1.782-0.691-2.504-1.337-2.796l1.614-5.022h-1.936l-1.352 4.592c-0.246-0.03-0.645-0.045-0.983-0.045z" fill="#273e64"/></g><g transform="translate(285.61 90.158)"><path d="m0 0h1.536l-0.752 4.762h-0.031zm-0.614-4.117h-1.844l2.043 11.091h2.366l2.043-11.091h-1.843l-0.338 2.458h-2.09z" fill="#273e64"/></g><g transform="translate(293.38 92.154)"><path d="m0 0h0.737c1.244 0 1.628 0.384 1.628 1.705s-0.384 1.705-1.628 1.705h-0.737zm-1.905-6.113v11.09h2.734c2.351 0 3.441-0.906 3.441-3.272 0-2.365-1.09-3.271-3.441-3.271h-0.829v-4.547z" fill="#273e64"/></g><g transform="translate(299.62 86.041)"><path d="m0 0v11.091h5.1v-1.66h-3.195v-2.857h2.458v-1.659h-2.458v-3.256h3.41v-1.659z" fill="#273e64"/></g><g transform="translate(307.21 97.132)"><path d="m0 0h1.905v-8.372c0-0.814 0.322-1.213 1.014-1.213s1.014 0.399 1.014 1.213v8.372h1.905v-8.295c0-1.905-1.107-2.949-2.919-2.949s-2.919 1.044-2.919 2.949z" fill="#273e64"/></g><g transform="translate(316.76 95.472)"><path d="m0 0h-1.843v1.659h5.591v-1.659h-1.843v-9.431h-1.905z" fill="#273e64"/></g><path d="m322.66 97.132h1.904v-11.091h-1.904z" fill="#273e64"/><g transform="translate(331.28 93.429)"><path d="m0 0v0.86c0 0.938-0.43 1.337-0.921 1.337-0.769 0-1.015-0.399-1.015-1.229v-5.622c0-0.83 0.246-1.229 1.015-1.229 0.69 0 0.921 0.399 0.921 1.121v1.337h1.904v-1.275c0-1.567-0.921-2.842-2.825-2.842-1.998 0-2.919 1.275-2.919 2.842v5.715c0 1.566 0.921 2.841 2.919 2.841 1.904 0 2.825-1.382 2.825-3.041v-0.815z" fill="#273e64"/></g><g transform="translate(339.35 94.397)"><path d="m0 0c-0.077 0.953-0.584 1.229-1.015 1.229-0.614 0-0.951-0.399-0.951-1.09 0-1.89 3.87-2.796 3.87-5.807 0-1.828-1.228-2.842-3.011-2.842-1.766 0-2.78 1.414-2.857 3.072l1.812 0.261c0.078-1.121 0.523-1.674 1.137-1.674 0.662 0 1.107 0.354 1.107 1.014 0 2.197-3.871 2.78-3.871 5.96 0 1.766 1.075 2.766 2.949 2.766 1.552 0 2.473-1.122 2.642-2.689z" fill="#273e64"/></g><g transform="translate(292.54 103.65)"><path d="m0 0v29.463h-10.496v7.223h30.503v-7.223h-10.392v-29.463z" fill="#273e64"/></g><g transform="translate(367.22 88.916)"><path d="m0 0h0.998v-2.836h0.577v2.836h1.013v0.467h-2.588z" fill="#273e64"/></g><g transform="translate(373.02 89.383)"><path d="m0 0-0.936-2.438-0.968 2.438h-0.864v-3.303h0.577v2.682l1.047-2.669 4e-3 -0.013h0.375l1.053 2.682v-2.682h0.576v3.303z" fill="#273e64"/></g></g></g></svg>
