<?xml version="1.0" encoding="UTF-8" standalone="no"?>
<!-- Generator: Adobe Illustrator 19.2.1, SVG Export Plug-In . SVG Version: 6.00 Build 0)  -->

<svg
   version="1.1"
   id="layer"
   x="0px"
   y="0px"
   viewBox="0 0 619.90002 239"
   xml:space="preserve"
   sodipodi:docname="coty-inc-vector-logo-2022.svg"
   width="619.90002"
   height="239"
   inkscape:version="1.1.1 (3bf5ae0d25, 2021-09-20)"
   xmlns:inkscape="http://www.inkscape.org/namespaces/inkscape"
   xmlns:sodipodi="http://sodipodi.sourceforge.net/DTD/sodipodi-0.dtd"
   xmlns="http://www.w3.org/2000/svg"
   xmlns:svg="http://www.w3.org/2000/svg"><defs
   id="defs9" /><sodipodi:namedview
   id="namedview7"
   pagecolor="#ffffff"
   bordercolor="#999999"
   borderopacity="1"
   inkscape:pageshadow="0"
   inkscape:pageopacity="0"
   inkscape:pagecheckerboard="0"
   showgrid="false"
   fit-margin-top="10"
   fit-margin-left="10"
   fit-margin-right="10"
   fit-margin-bottom="10"
   inkscape:zoom="1.1027607"
   inkscape:cx="309.67733"
   inkscape:cy="120.15299"
   inkscape:window-width="1920"
   inkscape:window-height="1001"
   inkscape:window-x="-9"
   inkscape:window-y="-9"
   inkscape:window-maximized="1"
   inkscape:current-layer="layer" />
<style
   type="text/css"
   id="style2">
	.st0{fill-rule:evenodd;clip-rule:evenodd;fill:#002554;}
</style>
<path
   class="st0"
   d="m 238.7,10 c 44.5,0 76.6,33.2 76.6,74.3 0,41 -32.1,74.2 -76.6,74.2 -44.5,0 -76.5,-33.2 -76.5,-74.2 C 162.1,43.1 194.2,10 238.7,10 Z M 87.4,10 c 21.4,0 40.3,8.1 53.3,20.7 L 122.3,50 C 113.7,41.4 101.3,35.4 87.2,35.4 60.1,35.4 39,57.2 39,84.3 c 0,27.6 22,48.9 49.4,48.9 14.8,0 26.7,-5.7 35.1,-13.6 l 18.1,19.1 c -13.1,12 -31.9,19.8 -53.8,19.8 C 42.9,158.5 10,125.7 10,84.3 10,42.8 42.4,10 87.4,10 Z m 242.3,3.5 H 448.9 V 37.4 H 403.7 V 154.9 H 375 V 37.4 h -45.3 z m 135.1,0 h 34.7 l 38.3,58.7 37.8,-58.7 h 34.3 l -58.3,86 V 155 H 523 V 99.8 Z M 238.7,35.3 c -26.8,0 -47.5,22.1 -47.5,48.9 0,26.8 20.8,48.9 47.5,48.9 26.8,0 47.6,-22.1 47.6,-48.9 0,-26.8 -20.8,-48.9 -47.6,-48.9 z m -63.6,158.4 c 3.5,0 6.7,0.9 9.9,3.3 l -3.5,4.6 c -1.4,-1.2 -3.6,-2.3 -5.9,-2.3 -2.5,0 -5.3,1.1 -5.3,3.8 0,5.5 15.8,4 15.8,15.6 0,6.1 -5.4,10.3 -11.6,10.3 -4.6,0 -8.9,-1.9 -12.4,-5.1 l 4.3,-4.3 c 1.9,2.2 4.9,3.7 8.1,3.7 3,0 5,-1.8 5,-4.3 0,-6.9 -15.8,-4.8 -15.8,-15.7 0,-6.1 5.7,-9.6 11.4,-9.6 z m 96.3,0 c 5.1,0 9.5,1.6 12.5,4.7 l -4.2,4.4 c -2,-2 -4.9,-3.5 -8.3,-3.5 -6.5,0 -11.3,5.5 -11.3,12 0,6.7 5,12.1 11.6,12.1 3.6,0 6.4,-1.4 8.4,-3.3 l 4.2,4.2 c -3.1,2.8 -7.5,4.7 -12.7,4.7 -10.7,0 -18.3,-7.8 -18.3,-17.6 0,-9.9 7.5,-17.7 18.1,-17.7 z m 132.4,0.3 c 8.6,0 11.9,7.8 11.9,17.4 0,9.6 -3.3,17.4 -11.9,17.4 -8.6,0 -11.9,-7.8 -11.9,-17.4 0,-9.6 3.3,-17.4 11.9,-17.4 z m -32.1,0.1 c 6.3,0 12.3,4.4 12.3,11.5 0,3.3 -1.5,6.3 -3.3,9.2 l -7.9,13.4 h -7.1 l 6.3,-10.7 h -0.4 c -6.4,0 -11.8,-4.8 -11.8,-11.6 -0.1,-6.6 5.4,-11.8 11.9,-11.8 z m 67.2,0.4 h 4.5 v 20.7 h 5.6 v 5.3 h -5.6 v 7.7 h -6.5 v -7.7 h -15.6 v -3.8 z m -242.2,0 h 6.6 v 33.6 h -6.6 z m 19.7,0 h 4.5 l 17.1,21.6 v -21.6 h 6.2 v 33.6 h -4.5 l -17.1,-21.6 v 21.6 h -6.2 z m 76.3,0 H 313 v 5.5 h -13.8 v 7.9 h 11.7 v 5.4 h -11.7 v 9.2 h 14.2 v 5.5 h -20.7 z m 52.1,0 h 4.6 v 33.6 h -6.5 v -26.2 l -6.3,3.5 v -6.1 z m 59,5.2 c -3.9,0 -5.3,5.3 -5.3,11.6 0,6.4 1.4,11.6 5.3,11.6 3.9,0 5.2,-5.3 5.2,-11.6 0.1,-6.3 -1.3,-11.6 -5.2,-11.6 z m -32,0.1 c -3.3,0 -5.7,2.7 -5.7,5.9 0,3.2 2.4,6 6,6 1.2,0 2.3,-0.2 3.6,-0.8 0.9,-1.2 2,-3.1 2,-5.3 0,-3.2 -2.7,-5.8 -5.9,-5.8 z m 65.1,6.4 -7.1,9 h 7.1 z"
   id="path4" />
</svg>
