<svg version="1.1" id="Layer_1" xmlns:x="ns_extend;" xmlns:i="ns_ai;" xmlns:graph="ns_graphs;" xmlns="http://www.w3.org/2000/svg" xmlns:xlink="http://www.w3.org/1999/xlink" x="0px" y="0px" viewBox="0 0 742.8 110" style="enable-background:new 0 0 742.8 110;" xml:space="preserve">
 <style type="text/css">
  .st0{fill:#FFFFFF;}
 </style>
 <metadata>
  <sfw xmlns="ns_sfw;">
   <slices>
   </slices>
   <sliceSourceBounds bottomLeftOrigin="true" height="110" width="742.8" x="-150.4" y="-293.4">
   </sliceSourceBounds>
  </sfw>
 </metadata>
 <g>
  <polyline class="st0" points="152.4,97.2 91.8,2.6 82,2.6 82,106.5 89,106.5 89,10.4 150.7,106.5 159.5,106.5 159.5,2.6 152.4,2.6 
			">
  </polyline>
  <path class="st0" d="M250.7,89.4c-7.4,7.5-16.4,10.7-31.1,10.7h-25.1V8.8h25.7c13,0,22.8,3.6,29.8,10.8c7.8,7.8,12.3,21,12.3,36.2
		C262.2,69.8,258.2,81.6,250.7,89.4 M223.1,2.6h-35.8v103.9h31.3c17,0,28-3.7,36.8-12.3c9.2-9.1,14-21.8,14-37.8
		C269.4,23.6,251.2,2.6,223.1,2.6">
  </path>
  <polyline class="st0" points="410.2,3 367.1,107 374,107 386,78.4 429.5,78.4 431.5,72.2 388.6,72.2 414.4,10.1 454.6,107 
		461.4,107 418.4,3 	">
  </polyline>
  <polyline class="st0" points="502.6,99.9 462.4,3 455.6,3 498.6,107 506.8,107 549.9,3 543,3 	">
  </polyline>
  <path class="st0" d="M705.2,50.6h-32V8.5h35.2c13.7,0,24.1,9.1,24.1,20.9C732.4,42.2,721.6,50.6,705.2,50.6 M717,55.5
		c6.9-2,9.5-3.3,13.3-6.5c6.1-5,9.2-11.8,9.2-19.5c0-16-12.7-27-31.1-27h-42.2v103.9h7.1V56.7h37l25.5,49.9h7.1L717,55.5z
		 M600.9,103.7c-22.2,0-37.9-20.2-37.9-48.9c0-28.8,15.1-48.3,37.9-48.3c23.9,0,39.2,19.5,39.2,49.7
		C640.2,68.1,634.7,103.7,600.9,103.7 M601.5,0c-27,0-45.8,22.8-45.8,54.9c0,32,19.2,55.1,45.8,55.1c26.5,0,45.8-22.8,45.8-54.2
		C647.4,22.9,628.5,0,601.5,0">
  </path>
  <path class="st0" d="M6.9,57.8h45.8v-6.5H6.9V9.1h52.5l2.2-6.5H0v103.9h62.4v-6.5H6.9 M295.8,57.8h45.8v-6.5h-45.8V9.1h52.5
		l2.2-6.5h-61.6v103.9h62.4v-6.5h-55.5V57.8z">
  </path>
 </g>
</svg>