<svg version="1.1" id="Layer_1" xmlns:x="ns_extend;" xmlns:i="ns_ai;" xmlns:graph="ns_graphs;" xmlns="http://www.w3.org/2000/svg" xmlns:xlink="http://www.w3.org/1999/xlink" x="0px" y="0px" viewBox="0 0 281.1 72" style="enable-background:new 0 0 281.1 72;" xml:space="preserve">
 <style type="text/css">
  .st0{fill:#FACF18;}
	.st1{fill:#EF6051;}
	.st2{fill:#5E85FE;}
	.st3{fill:#FA9BFA;}
	.st4{fill:#FFFFFF;}
 </style>
 <metadata>
  <sfw xmlns="ns_sfw;">
   <slices>
   </slices>
   <sliceSourceBounds bottomLeftOrigin="true" height="72" width="281.1" x="-175.6" y="1">
   </sliceSourceBounds>
  </sfw>
 </metadata>
 <g>
  <path class="st0" d="M9.4,58.5c5.2,0,9.4-4.2,9.4-9.4c0-5.2-4.2-9.4-9.4-9.4S0,44,0,49.2C0,54.3,4.2,58.5,9.4,58.5z">
  </path>
  <path class="st1" d="M22.6,45.3c5.2,0,9.4-4.2,9.4-9.4c0-5.2-4.2-9.4-9.4-9.4c-5.2,0-9.4,4.2-9.4,9.4
		C13.3,41.1,17.5,45.3,22.6,45.3z">
  </path>
  <path class="st2" d="M9.4,32c5.2,0,9.4-4.2,9.4-9.4c0-5.2-4.2-9.4-9.4-9.4S0,17.5,0,22.6C0,27.8,4.2,32,9.4,32z">
  </path>
  <path class="st2" d="M62.4,32c5.2,0,9.4-4.2,9.4-9.4c0-5.2-4.2-9.4-9.4-9.4c-5.2,0-9.4,4.2-9.4,9.4C53.1,27.8,57.3,32,62.4,32z">
  </path>
  <path class="st3" d="M49.2,45.3c5.2,0,9.4-4.2,9.4-9.4c0-5.2-4.2-9.4-9.4-9.4c-5.2,0-9.4,4.2-9.4,9.4C39.8,41.1,44,45.3,49.2,45.3z
		">
  </path>
  <path class="st0" d="M62.4,58.5c5.2,0,9.4-4.2,9.4-9.4c0-5.2-4.2-9.4-9.4-9.4c-5.2,0-9.4,4.2-9.4,9.4
		C53.1,54.3,57.3,58.5,62.4,58.5z">
  </path>
  <path class="st2" d="M22.6,18.7c5.2,0,9.4-4.2,9.4-9.4S27.8,0,22.6,0c-5.2,0-9.4,4.2-9.4,9.4S17.5,18.7,22.6,18.7z">
  </path>
  <path class="st1" d="M35.9,32c5.2,0,9.4-4.2,9.4-9.4c0-5.2-4.2-9.4-9.4-9.4s-9.4,4.2-9.4,9.4C26.5,27.8,30.7,32,35.9,32z">
  </path>
  <path class="st2" d="M49.2,18.7c5.2,0,9.4-4.2,9.4-9.4S54.3,0,49.2,0c-5.2,0-9.4,4.2-9.4,9.4S44,18.7,49.2,18.7z">
  </path>
  <path class="st0" d="M49.2,71.8c5.2,0,9.4-4.2,9.4-9.4c0-5.2-4.2-9.4-9.4-9.4c-5.2,0-9.4,4.2-9.4,9.4C39.8,67.6,44,71.8,49.2,71.8z
		">
  </path>
  <path class="st3" d="M35.9,58.6c5.2,0,9.4-4.2,9.4-9.4c0-5.2-4.2-9.4-9.4-9.4s-9.4,4.2-9.4,9.4C26.5,54.4,30.7,58.6,35.9,58.6z">
  </path>
  <path class="st0" d="M22.8,72c5.2,0,9.4-4.2,9.4-9.4s-4.2-9.4-9.4-9.4s-9.4,4.2-9.4,9.4S17.7,72,22.8,72z">
  </path>
  <path class="st4" d="M113.6,11.1c-6.6,0-11.6,5.1-11.6,11.9v2.1h-6v7.3h6v27h9.1v-27h6.9v-7.3H111V23c0-2.9,1.4-4.4,4.2-4.4
		c0.8,0,1.6,0.1,2.4,0.2l0.5,0.1v-7.4l-0.3-0.1C116.7,11.2,115.3,11.1,113.6,11.1z">
  </path>
  <path class="st4" d="M137.7,24.1c-10.4,0-18.2,7.8-18.2,18.2c0,10.3,7.8,18.1,18.2,18.1c10.4,0,18.2-7.8,18.2-18.1
		C155.9,31.9,148.1,24.1,137.7,24.1z M146.7,42.3c0,6.2-3.6,10.3-9,10.3c-5.3,0-9-4.2-9-10.3c0-6.1,3.7-10.4,9-10.4
		C143,31.9,146.7,36.2,146.7,42.3z">
  </path>
  <path class="st4" d="M179.5,24.7c-6.1,0-10.5,4.6-11.1,9.1l1.2-8.7h-8.6v34.3h9.1v-16c0-6.5,3.1-10.1,8.6-10.1
		c1.5,0,2.2,0.1,3.4,0.4l0.5,0.1v-8.6l-0.4-0.1C181.2,24.9,180.4,24.7,179.5,24.7z">
  </path>
  <path class="st4" d="M227.4,24.3c-0.1,0-0.3,0-0.4,0h-0.1c-2,0-3.8,0.4-5.4,1.2c-2.7,1.2-4.7,3.2-5.8,5.8c-2.1-4.7-5.5-7-10.4-7
		c-0.1,0-0.2,0-0.3,0h-0.1c-2.1,0-4,0.5-5.6,1.3c-2.4,1.5-3.7,3.6-4.3,5.3c-0.2,0.8-0.5,1.7-0.7,2.8c0,0,0-0.4,0.2-1.1l0.2-1.7
		l0.8-5.9h-9v34.3h9.1V41.1c0-6,2.4-9.2,6.9-9.2c4.2,0,6.4,2.7,6.4,7.8v19.8h9.1V41.1c0-6,2.4-9.2,6.6-9.2c3.9,0,6.1,2.7,6.1,7.8
		v19.8h9.1V38.5C239.9,29.9,235,24.3,227.4,24.3z">
  </path>
  <path class="st4" d="M272.2,24.3l1.2,5.7c-0.3-0.5-0.6-0.9-1-1.3c-0.3-0.3-0.6-0.6-1-0.9c0,0,0,0-0.1,0c-0.1-0.1-0.3-0.2-0.4-0.3
		c-0.8-0.6-1.6-1.1-2.2-1.4c-2.2-1.1-4.8-1.8-7.5-1.8c-9.8,0-16.6,7.3-16.6,17.8c0,10.6,6.8,18,16.6,18c4,0,8-1.5,10.6-4
		c0.6-0.5,1.1-1.2,1.5-1.9l-1.2,5.1h9v-35L272.2,24.3z M262.9,52.5c-5.3,0-9.1-4.3-9.1-10.4c0-6.1,3.7-10.2,9.1-10.2
		c5.5,0,9.2,4.1,9.2,10.2C272.1,48.2,268.3,52.5,262.9,52.5z">
  </path>
 </g>
</svg>