<?xml version="1.0" encoding="UTF-8" standalone="no"?>
<svg
   width="1000"
   height="153.66679"
   viewBox="0 0 1000 153.66679"
   fill="none"
   version="1.1"
   id="svg1"
   sodipodi:docname="Abbott 2025_logo.svg"
   inkscape:version="1.4.2 (f4327f4, 2025-05-13)"
   xmlns:inkscape="http://www.inkscape.org/namespaces/inkscape"
   xmlns:sodipodi="http://sodipodi.sourceforge.net/DTD/sodipodi-0.dtd"
   xmlns="http://www.w3.org/2000/svg"
   xmlns:svg="http://www.w3.org/2000/svg">
  <defs
     id="defs1" />
  <sodipodi:namedview
     id="namedview1"
     pagecolor="#ffffff"
     bordercolor="#000000"
     borderopacity="0.25"
     inkscape:showpageshadow="2"
     inkscape:pageopacity="0.0"
     inkscape:pagecheckerboard="0"
     inkscape:deskcolor="#d1d1d1"
     inkscape:zoom="0.5"
     inkscape:cx="406"
     inkscape:cy="9"
     inkscape:window-width="1366"
     inkscape:window-height="705"
     inkscape:window-x="-8"
     inkscape:window-y="-8"
     inkscape:window-maximized="1"
     inkscape:current-layer="svg1" />
  <path
     fill-rule="evenodd"
     clip-rule="evenodd"
     d="m 716.6406,0 c -45.15087,0 -76.6284,33.076027 -76.6284,76.833313 0,43.757617 31.4942,76.833477 76.6284,76.833477 45.1342,0 76.6284,-32.87002 76.6284,-76.833477 C 793.269,32.86961 761.7748,0 716.6406,0 Z m 0,136.82761 c -32.01003,0 -52.08254,-26.54002 -52.08254,-59.994297 0,-33.454361 20.27918,-59.994299 52.08254,-59.994299 31.80419,0 52.08338,26.539938 52.08338,59.994299 0,33.454277 -20.07335,59.994297 -52.08338,59.994297 z M 0,2.5800271 h 161.06515 l 0.0175,0.034408 c 14.12167,0 24.52752,10.7157429 24.52752,24.5790869 V 126.5251 c 0,13.86335 -10.32001,24.59586 -24.45919,24.59586 H 24.52787 C 10.406275,151.12096 0,140.45678 0,126.59344 V 77.022563 C 0,63.090385 10.389108,52.443459 24.52787,52.443459 H 136.07263 V 76.798896 H 31.941293 c -4.730087,0 -7.585423,3.113253 -7.585423,7.826173 v 34.245861 c 0,4.7125 2.838086,7.86001 7.585423,7.86001 H 153.63514 c 4.74667,0 7.61917,-3.14751 7.61917,-7.86001 V 34.796028 c 0,-4.712837 -2.8725,-7.860506 -7.61917,-7.860506 H 0 Z M 591.6105,71.484058 v 0.997585 0.01725 c 24.75168,1.376001 43.36253,11.317842 43.36253,37.238697 0,25.92002 -20.00418,41.36587 -49.31337,41.36587 h -67.52922 v -1.18667 c 4.7475,-5.14251 7.51667,-11.88501 7.51667,-21.98169 V 25.748688 c 0,-10.096509 -2.76917,-16.8390141 -7.51667,-21.9818349 v -1.186826 h 62.78172 c 26.93585,0 46.33753,10.2857339 46.33753,34.2455859 0,19.608266 -13.26084,32.28486 -35.63919,34.658445 z m -42.58837,63.967722 h 25.73169 c 19.19585,0 36.43086,-6.72584 36.43086,-27.72669 0,-22.962521 -20.58918,-27.520524 -37.61753,-27.520524 h -13.26168 v -15.65218 h 12.67668 c 15.44668,0 30.68586,-6.759672 30.68586,-24.26952 0,-17.509764 -14.84418,-22.067851 -29.89419,-22.067851 h -24.75169 z m -77.3334,-62.970137 v -0.997585 c 22.37752,-2.373585 35.6392,-15.050179 35.6392,-34.658445 0,-23.959852 -19.40252,-34.2455859 -46.33837,-34.2455859 h -62.78172 v 1.186826 c 4.7475,5.1428208 7.51667,11.8853259 7.51667,21.9818349 V 127.9351 c 0,10.09668 -2.76917,16.83918 -7.51667,21.98169 v 1.18667 h 67.52922 c 29.31003,0 49.31421,-15.44585 49.31421,-41.36587 0,-25.920855 -18.61168,-35.862696 -43.36254,-37.238697 z M 454.84955,135.45178 H 429.11703 V 18.215015 h 24.75169 c 15.05084,0 29.89419,4.558087 29.89419,22.067851 0,17.509848 -15.23918,24.26952 -30.68503,24.26952 h -12.67667 v 15.65218 h 13.26084 c 17.02918,0 37.61753,4.558003 37.61753,27.520524 0,21.00085 -17.23501,27.72669 -36.43003,27.72669 z M 787.02482,28.913524 V 2.5800271 H 1000 V 28.913524 h -1.18334 C 994.85833,22.962269 987.53332,18.215015 972.48331,18.215015 H 949.91662 V 127.9176 c 0,9.90751 2.76667,16.83918 7.51668,21.98252 v 1.18667 h -38.40837 v -1.18667 c 4.53334,-5.14334 7.51667,-12.07501 7.51667,-21.98252 V 18.215015 H 860.49155 V 127.9176 c 0,9.90751 2.76667,16.83918 7.32501,21.98252 v 1.18667 h -38.0142 v -1.18667 c 4.7475,-5.14334 7.33084,-12.07501 7.33084,-21.98252 V 18.215015 h -22.88002 c -15.05085,0 -22.15419,4.764504 -26.05919,10.698509 z M 309.05777,2.5800271 h 23.16918 0.035 L 379.78616,127.14427 c 3.7675,9.89001 7.12167,16.63251 13.26168,22.77252 v 1.18667 H 353.4353 l 0.20667,-1.18667 c 2.16667,-3.95584 3.165,-7.32667 3.165,-11.28334 0,-3.95584 -0.98083,-7.92918 -2.58,-12.28085 l -7.84417,-21.29335 h -58.44672 l -6.79417,17.92252 c -1.92667,5.10833 -3.95667,11.48917 -3.95667,17.04501 0,3.56084 0.79167,7.12084 3.165,9.89001 v 1.18667 h -32.87002 v -1.18667 c 4.1625,-4.36834 8.68667,-9.30501 15.44584,-26.93502 z m 7.98167,25.5423289 -23.16919,61.18105 h 46.69921 l -22.51585,-61.18105 z"
     fill="white"
     id="path1"
     style="fill:#000075;fill-opacity:1;stroke-width:8.33334" />
</svg>
