<?xml version="1.0" encoding="UTF-8"?> <svg xmlns="http://www.w3.org/2000/svg" width="173" height="46" viewBox="0 0 173 46" fill="none"><g clip-path="url(#clip0_1109_2178)"><path d="M71.2663 36.0737C67.7994 39.6976 62.917 41.9531 57.5086 41.9531C46.9954 41.9531 38.4707 33.431 38.4707 22.9152C38.4707 12.3993 46.9954 3.87988 57.5086 3.87988C62.7652 3.87988 67.5247 6.00974 70.9707 9.45572" stroke="#02267E" stroke-width="6.64338" stroke-linecap="round" stroke-linejoin="round"></path><path d="M86.3086 25.3803V3.94824H96.6256C107.045 3.94824 115.488 12.3944 115.488 22.8108C115.488 33.2299 107.042 41.6734 96.6256 41.6734H86.3086V35.5246" stroke="#02267E" stroke-width="6.64338" stroke-linecap="round" stroke-linejoin="round"></path><path d="M169.122 36.2676L169.677 41.464" stroke="#02267E" stroke-width="6.64338" stroke-linecap="round" stroke-linejoin="round"></path><path d="M128.2 42.0898L131.534 3.94859L149.044 40.6324L166.135 3.32324L168.403 26.3043" stroke="#02267E" stroke-width="6.64338" stroke-linecap="round" stroke-linejoin="round"></path><path d="M6.88435 16.3535C11.2252 23.6641 23.9154 21.2412 26.2075 30.5194C28.162 38.4371 18.8628 43.0055 12.2849 41.8909C8.44118 41.2394 4.62889 38.84 3.32324 35.0146" stroke="#02267E" stroke-width="6.64338" stroke-linecap="round" stroke-linejoin="round"></path><path d="M26.4973 8.11608C24.6056 5.37919 20.9974 3.5293 16.8528 3.5293C13.4199 3.5293 10.3533 4.79832 8.32812 6.7895" stroke="#02267E" stroke-width="6.64338" stroke-linecap="round" stroke-linejoin="round"></path></g><defs><clipPath id="clip0_1109_2178"><rect width="173" height="45.4126" fill="white"></rect></clipPath></defs></svg> 