<?xml version="1.0" encoding="UTF-8"?>
<svg xmlns="http://www.w3.org/2000/svg" xmlns:xlink="http://www.w3.org/1999/xlink" version="1.1" id="Layer_1" x="0px" y="0px" viewBox="0 0 397.2 176.1" style="enable-background:new 0 0 397.2 176.1;" xml:space="preserve">
<style type="text/css">
	.st0{fill:#FFB600;}
	.st1{fill:#FF9015;}
	.st2{fill:#1B538C;}
</style>
<path class="st0" d="M324.1,41C324.1,41.1,324.2,41.1,324.1,41c1.1,0.2,2.1-0.4,2.4-1.5L336,3.5c0.3-1.1-0.4-2.3-1.6-2.5l-5.6-1  c-1.2-0.2-2.2,0.6-2.4,1.8l-4,37.1C322.3,39.9,323,40.9,324.1,41C324.1,41,324.1,41,324.1,41z"></path>
<path class="st0" d="M303.7,42.7C303.7,42.7,303.8,42.7,303.7,42.7c1.1-0.4,1.6-1.4,1.4-2.4l-10-35.9c-0.3-1.1-1.5-1.8-2.6-1.4  l-5.4,1.9c-1.1,0.4-1.6,1.6-1.2,2.7l15.2,34.1C301.6,42.6,302.7,43.1,303.7,42.7C303.7,42.7,303.7,42.7,303.7,42.7z"></path>
<path class="st0" d="M286.9,54.2C286.9,54.2,286.9,54.2,286.9,54.2c0.7-0.9,0.7-2-0.1-2.8l-26.7-26.2c-0.8-0.8-2.2-0.8-3,0.1  l-3.7,4.3c-0.8,0.9-0.6,2.2,0.3,2.9l30.3,22C285,55.2,286.2,55.1,286.9,54.2C286.9,54.2,286.9,54.2,286.9,54.2z"></path>
<path class="st0" d="M278.1,72.6C278.1,72.6,278.1,72.5,278.1,72.6c0.2-1.1-0.4-2.1-1.5-2.4l-36.3-9.4c-1.1-0.3-2.3,0.4-2.5,1.6  l-1,5.6c-0.2,1.1,0.6,2.2,1.8,2.4l37.3,4C277,74.4,277.9,73.6,278.1,72.6C278.1,72.6,278.1,72.6,278.1,72.6z"></path>
<path class="st0" d="M347.1,105.1C347.1,105.1,347.1,105.1,347.1,105.1c-0.7,0.9-0.7,2,0.1,2.8l26.7,26.2c0.8,0.8,2.2,0.8,3-0.1  l3.7-4.3c0.8-0.9,0.6-2.2-0.3-2.9l-30.3-22C349,104.1,347.8,104.2,347.1,105.1C347.1,105,347.1,105.1,347.1,105.1z"></path>
<path class="st0" d="M355.9,86.7C355.9,86.7,355.9,86.7,355.9,86.7c-0.2,1.1,0.4,2.1,1.5,2.4l36.3,9.4c1.1,0.3,2.3-0.4,2.5-1.6  l1-5.6c0.2-1.1-0.6-2.2-1.8-2.4l-37.3-4C357,84.9,356.1,85.6,355.9,86.7C355.9,86.7,355.9,86.7,355.9,86.7z"></path>
<path class="st0" d="M354.2,66.5C354.2,66.5,354.2,66.5,354.2,66.5c0.4,1.1,1.4,1.6,2.5,1.3l36.2-9.9c1.1-0.3,1.8-1.5,1.4-2.6  l-1.9-5.3c-0.4-1.1-1.6-1.6-2.7-1.2l-34.3,15.1C354.3,64.3,353.9,65.4,354.2,66.5C354.2,66.5,354.2,66.5,354.2,66.5z"></path>
<path class="st0" d="M342.6,49.8C342.6,49.8,342.6,49.8,342.6,49.8c0.9,0.7,2.1,0.7,2.8-0.1l26.4-26.5c0.8-0.8,0.8-2.2-0.1-2.9  l-4.4-3.7c-0.9-0.8-2.2-0.6-2.9,0.3L342.2,47C341.6,47.9,341.8,49.1,342.6,49.8C342.6,49.7,342.6,49.7,342.6,49.8z"></path>
<path class="st1" d="M344.7,101l-7.5-5.4c-0.4,0.5-0.8,0.9-1.2,1.4l6.6,6.5c0.4,0.4,1.2,0.4,1.6-0.1c0.1-0.1,0.2-0.3,0.4-0.4  c0.1-0.1,0.2-0.3,0.3-0.4C345.3,102.1,345.2,101.3,344.7,101z"></path>
<path class="st0" d="M374.7,102.8l-34-13c-0.1,0.3-0.2,0.5-0.4,0.8c-0.1,0.3-0.3,0.6-0.4,0.8l31.7,17.9c1,0.6,2.3,0.2,2.8-0.8  c0.3-0.5,0.5-1,0.7-1.5c0.2-0.5,0.5-1,0.7-1.5C376.3,104.5,375.7,103.2,374.7,102.8z"></path>
<path class="st1" d="M351.8,84.4l-9.2-1c-0.1,0.6-0.2,1.2-0.3,1.8l9,2.3c0.6,0.2,1.2-0.2,1.3-0.8c0-0.2,0.1-0.4,0.1-0.5  c0-0.2,0.1-0.3,0.1-0.5C352.8,85,352.4,84.4,351.8,84.4z"></path>
<path class="st0" d="M381.1,74.5c0-0.5-0.1-1.1-0.2-1.6c-0.1-1.1-1.2-1.9-2.3-1.8l-36,5.6c0.1,0.6,0.1,1.2,0.1,1.8l36.4-0.2  c1.2,0,2.1-1,2-2.1C381.2,75.6,381.1,75.1,381.1,74.5z"></path>
<path class="st1" d="M351.3,68.1c-0.1-0.2-0.1-0.4-0.2-0.5c-0.1-0.2-0.1-0.3-0.2-0.5c-0.2-0.6-0.9-0.9-1.5-0.6l-8.5,3.7  c0.2,0.6,0.4,1.1,0.6,1.7l9-2.4C351.2,69.3,351.5,68.7,351.3,68.1z"></path>
<path class="st0" d="M370.9,44.8c-0.3-0.5-0.6-0.9-0.9-1.4c-0.3-0.5-0.6-0.9-1-1.3c-0.7-0.9-2-1.1-2.9-0.4l-28.3,22.7  c0.4,0.5,0.7,1,1,1.5l31.4-18.3C371.2,47,371.5,45.7,370.9,44.8z"></path>
<path class="st1" d="M334.4,60.7l6.5-6.6c0.4-0.4,0.4-1.2-0.1-1.6c-0.1-0.1-0.3-0.2-0.4-0.4c-0.1-0.1-0.3-0.2-0.4-0.3  c-0.5-0.4-1.2-0.3-1.6,0.2l-5.5,7.4C333.5,59.9,334,60.3,334.4,60.7z"></path>
<path class="st0" d="M346.1,22.7c-0.5-0.3-1-0.5-1.5-0.7c-0.5-0.2-1-0.5-1.5-0.7c-1.1-0.5-2.3,0.1-2.7,1.1l-13.1,33.7  c0.3,0.1,0.5,0.2,0.8,0.4c0.3,0.1,0.6,0.3,0.8,0.4l18-31.4C347.5,24.5,347.1,23.2,346.1,22.7z"></path>
<path class="st1" d="M322.6,54.6l2.3-8.9c0.2-0.6-0.2-1.2-0.8-1.3c-0.2,0-0.4-0.1-0.6-0.1c-0.2,0-0.3-0.1-0.5-0.1  c-0.6-0.1-1.2,0.3-1.3,0.9l-1,9.2C321.4,54.4,322,54.5,322.6,54.6z"></path>
<path class="st0" d="M314,54.2c0.6-0.1,1.2-0.1,1.8-0.1l-0.2-36.1c0-1.1-1-2.1-2.1-2c-0.6,0-1.1,0.1-1.7,0.1c-0.6,0-1.1,0.1-1.6,0.2  c-1.1,0.1-1.9,1.2-1.8,2.3L314,54.2z"></path>
<path class="st1" d="M307.5,55.8c0.6-0.2,1.1-0.4,1.7-0.6l-2.5-8.9c-0.2-0.6-0.8-0.9-1.4-0.7c-0.2,0.1-0.4,0.1-0.5,0.2  c-0.2,0.1-0.3,0.1-0.5,0.2c-0.6,0.2-0.9,0.9-0.6,1.4L307.5,55.8z"></path>
<path class="st0" d="M303.1,58.1l-18.4-31.2c-0.6-1-1.9-1.3-2.8-0.7c-0.5,0.3-0.9,0.6-1.4,0.9c-0.5,0.3-0.9,0.6-1.3,1  c-0.9,0.7-1.1,2-0.4,2.9l22.9,28.1C302.1,58.7,302.6,58.4,303.1,58.1z"></path>
<path class="st1" d="M298,62.3l-6.6-6.5c-0.4-0.4-1.2-0.4-1.6,0.1c-0.1,0.1-0.2,0.3-0.4,0.4c-0.1,0.1-0.2,0.3-0.3,0.4  c-0.4,0.5-0.3,1.2,0.2,1.6l7.5,5.4C297.2,63.3,297.5,62.8,298,62.3z"></path>
<path class="st1" d="M291.8,74.1l-9-2.3c-0.6-0.2-1.2,0.2-1.3,0.8c0,0.2-0.1,0.4-0.1,0.5c0,0.2-0.1,0.3-0.1,0.5  c-0.1,0.6,0.3,1.2,1,1.2l9.2,1C291.6,75.3,291.7,74.7,291.8,74.1z"></path>
<path class="st0" d="M293.7,68.7c0.1-0.3,0.3-0.6,0.4-0.8L262.4,50c-1-0.6-2.3-0.2-2.8,0.8c-0.3,0.5-0.5,1-0.7,1.5  c-0.2,0.5-0.5,1-0.7,1.5c-0.5,1,0.1,2.3,1.1,2.7l34,13C293.4,69.2,293.6,68.9,293.7,68.7z"></path>
<g>
	<path class="st2" d="M1,158.5h3.8c1.3,0,2.5,0.4,3.4,1.3s1.4,1.9,1.4,3.1c0,1.2-0.5,2.3-1.4,3.1c0.6,0.3,1.1,0.6,1.6,1.1   c1.1,1,1.7,2.3,1.7,3.7c0,1.5-0.6,2.7-1.7,3.7c-1.1,1-2.5,1.5-4.1,1.5H1c-0.3,0-0.5-0.1-0.7-0.3c-0.2-0.2-0.3-0.4-0.3-0.6v-15.8   c0-0.2,0.1-0.4,0.3-0.6C0.5,158.6,0.7,158.5,1,158.5z M1.9,160.3v5.3h2.9c0.8,0,1.5-0.3,2-0.8c0.6-0.5,0.8-1.1,0.8-1.9   c0-0.7-0.3-1.3-0.8-1.9c-0.6-0.5-1.2-0.8-2-0.8H1.9z M1.9,167.3v7h3.8c1.1,0,2-0.3,2.7-1c0.7-0.7,1.1-1.5,1.1-2.5   c0-1-0.4-1.8-1.1-2.5c-0.7-0.7-1.7-1-2.7-1H1.9z"></path>
	<path class="st2" d="M17.3,159.4c0-0.2,0.1-0.4,0.3-0.6c0.2-0.2,0.4-0.3,0.7-0.3s0.5,0.1,0.7,0.3c0.2,0.2,0.3,0.4,0.3,0.6v15.8   c0,0.2-0.1,0.4-0.3,0.6c-0.2,0.2-0.4,0.3-0.7,0.3s-0.5-0.1-0.7-0.3c-0.2-0.2-0.3-0.4-0.3-0.6V159.4z"></path>
	<path class="st2" d="M44.2,167.3c0,2.4-0.9,4.5-2.8,6.2c-1.9,1.7-4.1,2.6-6.8,2.6c-2.6,0-4.9-0.9-6.8-2.6c-1.9-1.7-2.8-3.8-2.8-6.2   c0-2.4,0.9-4.5,2.8-6.2c1.9-1.7,4.1-2.6,6.8-2.6c2.6,0,4.9,0.9,6.8,2.6C43.3,162.8,44.2,164.9,44.2,167.3z M34.6,160.3   c-2.1,0-3.9,0.7-5.4,2.1c-1.5,1.4-2.2,3-2.2,5c0,1.9,0.7,3.6,2.2,5c1.5,1.4,3.3,2.1,5.4,2.1c2.1,0,3.9-0.7,5.4-2.1   c1.5-1.4,2.2-3,2.2-5c0-1.9-0.7-3.6-2.2-5C38.6,160.9,36.8,160.3,34.6,160.3z"></path>
	<path class="st2" d="M51,158.5h3.8c1.7,0,3.2,0.6,4.4,1.7c1.2,1.1,1.8,2.5,1.8,4c0,1.6-0.6,2.9-1.8,4c-1.2,1.1-2.7,1.7-4.4,1.7H52   v5.3c0,0.2-0.1,0.4-0.3,0.6c-0.2,0.2-0.4,0.3-0.7,0.3c-0.3,0-0.5-0.1-0.7-0.3c-0.2-0.2-0.3-0.4-0.3-0.6v-15.8   c0-0.2,0.1-0.4,0.3-0.6C50.5,158.6,50.8,158.5,51,158.5z M52,160.3v7.9h2.9c1.2,0,2.2-0.4,3.1-1.2c0.8-0.8,1.3-1.7,1.3-2.8   c0-1.1-0.4-2-1.3-2.8c-0.8-0.8-1.9-1.2-3.1-1.2H52z"></path>
	<path class="st2" d="M67,159.4c0-0.2,0.1-0.4,0.3-0.6c0.2-0.2,0.4-0.3,0.7-0.3s0.5,0.1,0.7,0.3c0.2,0.2,0.3,0.4,0.3,0.6v7h9.6v-7   c0-0.2,0.1-0.4,0.3-0.6c0.2-0.2,0.4-0.3,0.7-0.3s0.5,0.1,0.7,0.3c0.2,0.2,0.3,0.4,0.3,0.6v15.8c0,0.2-0.1,0.4-0.3,0.6   c-0.2,0.2-0.4,0.3-0.7,0.3s-0.5-0.1-0.7-0.3c-0.2-0.2-0.3-0.4-0.3-0.6v-7h-9.6v7c0,0.2-0.1,0.4-0.3,0.6c-0.2,0.2-0.4,0.3-0.7,0.3   s-0.5-0.1-0.7-0.3c-0.2-0.2-0.3-0.4-0.3-0.6V159.4z"></path>
	<path class="st2" d="M89.5,169.9l-2.4,5.6c0,0.1-0.1,0.2-0.2,0.3c-0.2,0.2-0.4,0.3-0.7,0.3c-0.3,0-0.5-0.1-0.7-0.3   c-0.2-0.2-0.3-0.4-0.3-0.6c0-0.1,0-0.3,0.1-0.4l6.7-15.7c0-0.1,0.1-0.3,0.3-0.4c0.2-0.2,0.4-0.3,0.7-0.3s0.5,0.1,0.7,0.3   c0.1,0.1,0.2,0.2,0.2,0.4l6.7,15.7c0.1,0.1,0.1,0.2,0.1,0.4c0,0.2-0.1,0.4-0.3,0.6c-0.2,0.2-0.4,0.3-0.7,0.3s-0.5-0.1-0.7-0.3   c-0.1-0.1-0.2-0.2-0.2-0.3l-2.4-5.6H89.5z M95.6,168.2l-2.7-6.4l-2.7,6.4H95.6z"></path>
	<path class="st2" d="M106.4,158.5h4.8c1.6,0,2.9,0.5,4.1,1.5c1.1,1,1.7,2.3,1.7,3.7c0,1.5-0.6,2.7-1.7,3.7   c-0.5,0.5-1.1,0.8-1.7,1.1l4.2,6.1c0.1,0.1,0.2,0.3,0.2,0.5c0,0.2-0.1,0.4-0.3,0.6c-0.2,0.2-0.4,0.3-0.7,0.3   c-0.3,0-0.6-0.1-0.8-0.5l-4.5-6.6c-0.1,0-0.3,0-0.4,0h-3.8v6.2c0,0.2-0.1,0.4-0.3,0.6c-0.2,0.2-0.4,0.3-0.7,0.3s-0.5-0.1-0.7-0.3   c-0.2-0.2-0.3-0.4-0.3-0.6v-15.8c0-0.2,0.1-0.4,0.3-0.6C105.9,158.6,106.1,158.5,106.4,158.5z M107.3,160.3v7h3.8   c1.1,0,2-0.3,2.7-1c0.7-0.7,1.1-1.5,1.1-2.5c0-1-0.4-1.8-1.1-2.5s-1.7-1-2.7-1H107.3z"></path>
	<path class="st2" d="M131.5,175.6l-6.8-12.5v12.1c0,0.2-0.1,0.4-0.3,0.6c-0.2,0.2-0.4,0.3-0.7,0.3s-0.5-0.1-0.7-0.3   c-0.2-0.2-0.3-0.4-0.3-0.6v-15.8c0-0.2,0.1-0.4,0.3-0.6c0.2-0.2,0.4-0.3,0.7-0.3c0.4,0,0.7,0.2,0.9,0.5l7.8,14.3l7.8-14.3   c0.2-0.3,0.5-0.5,0.9-0.5c0.3,0,0.5,0.1,0.7,0.3c0.2,0.2,0.3,0.4,0.3,0.6v15.8c0,0.2-0.1,0.4-0.3,0.6c-0.2,0.2-0.4,0.3-0.7,0.3   s-0.5-0.1-0.7-0.3c-0.2-0.2-0.3-0.4-0.3-0.6v-12.1l-6.8,12.6c-0.2,0.3-0.4,0.4-0.8,0.4C131.9,176.1,131.6,175.9,131.5,175.6z"></path>
	<path class="st2" d="M151,169.9l-2.4,5.6c0,0.1-0.1,0.2-0.2,0.3c-0.2,0.2-0.4,0.3-0.7,0.3s-0.5-0.1-0.7-0.3   c-0.2-0.2-0.3-0.4-0.3-0.6c0-0.1,0-0.3,0.1-0.4l6.7-15.7c0-0.1,0.1-0.3,0.3-0.4c0.2-0.2,0.4-0.3,0.7-0.3s0.5,0.1,0.7,0.3   c0.1,0.1,0.2,0.2,0.2,0.4l6.7,15.7c0.1,0.1,0.1,0.2,0.1,0.4c0,0.2-0.1,0.4-0.3,0.6c-0.2,0.2-0.4,0.3-0.7,0.3s-0.5-0.1-0.7-0.3   c-0.1-0.1-0.2-0.2-0.2-0.3l-2.4-5.6H151z M157.2,168.2l-2.7-6.4l-2.7,6.4H157.2z"></path>
	<path class="st2" d="M180.9,172.6c0.3,0,0.5,0.1,0.7,0.3c0.2,0.2,0.3,0.4,0.3,0.6c0,0.2-0.1,0.4-0.3,0.6c-1.8,1.3-3.8,2-6,2   c-2.6,0-4.9-0.9-6.8-2.6c-1.9-1.7-2.8-3.8-2.8-6.2c0-2.4,0.9-4.5,2.8-6.2c1.9-1.7,4.1-2.6,6.8-2.6c2.3,0,4.3,0.7,6.1,2   c0.2,0.2,0.3,0.4,0.3,0.6c0,0.2-0.1,0.4-0.3,0.6c-0.2,0.2-0.4,0.3-0.7,0.3s-0.5-0.1-0.7-0.3c-1.4-1-2.9-1.5-4.7-1.5   c-2.1,0-3.9,0.7-5.4,2.1c-1.5,1.4-2.2,3-2.2,5c0,1.9,0.7,3.6,2.2,5c1.5,1.4,3.3,2.1,5.4,2.1c1.8,0,3.4-0.5,4.8-1.5   C180.5,172.7,180.7,172.6,180.9,172.6z"></path>
	<path class="st2" d="M187.6,158.5h11.5c0.3,0,0.5,0.1,0.7,0.3c0.2,0.2,0.3,0.4,0.3,0.6c0,0.2-0.1,0.4-0.3,0.6   c-0.2,0.2-0.4,0.3-0.7,0.3h-10.6v6.2h7.7c0.3,0,0.5,0.1,0.7,0.3s0.3,0.4,0.3,0.6c0,0.2-0.1,0.4-0.3,0.6s-0.4,0.3-0.7,0.3h-7.7v6.2   h10.6c0.3,0,0.5,0.1,0.7,0.3c0.2,0.2,0.3,0.4,0.3,0.6c0,0.2-0.1,0.4-0.3,0.6c-0.2,0.2-0.4,0.3-0.7,0.3h-11.5   c-0.3,0-0.5-0.1-0.7-0.3c-0.2-0.2-0.3-0.4-0.3-0.6v-15.8c0-0.2,0.1-0.4,0.3-0.6C187.1,158.6,187.3,158.5,187.6,158.5z"></path>
	<path class="st2" d="M204.9,159.4c0-0.2,0.1-0.4,0.3-0.6c0.2-0.2,0.4-0.3,0.7-0.3s0.5,0.1,0.7,0.3c0.2,0.2,0.3,0.4,0.3,0.6v10.6   c0,1.2,0.5,2.3,1.4,3.1c0.9,0.9,2.1,1.3,3.4,1.3c1.3,0,2.5-0.4,3.4-1.3c0.9-0.9,1.4-1.9,1.4-3.1v-10.6c0-0.2,0.1-0.4,0.3-0.6   c0.2-0.2,0.4-0.3,0.7-0.3s0.5,0.1,0.7,0.3c0.2,0.2,0.3,0.4,0.3,0.6v10.6c0,1.7-0.7,3.2-2,4.4c-1.3,1.2-2.9,1.8-4.8,1.8   s-3.4-0.6-4.7-1.8c-1.3-1.2-2-2.7-2-4.4V159.4z"></path>
	<path class="st2" d="M224.2,160.3c-0.3,0-0.5-0.1-0.7-0.3c-0.2-0.2-0.3-0.4-0.3-0.6c0-0.2,0.1-0.4,0.3-0.6c0.2-0.2,0.4-0.3,0.7-0.3   h12.5c0.3,0,0.5,0.1,0.7,0.3c0.2,0.2,0.3,0.4,0.3,0.6c0,0.2-0.1,0.4-0.3,0.6c-0.2,0.2-0.4,0.3-0.7,0.3h-5.3v15   c0,0.2-0.1,0.4-0.3,0.6c-0.2,0.2-0.4,0.3-0.7,0.3s-0.5-0.1-0.7-0.3c-0.2-0.2-0.3-0.4-0.3-0.6v-15H224.2z"></path>
	<path class="st2" d="M243.4,159.4c0-0.2,0.1-0.4,0.3-0.6c0.2-0.2,0.4-0.3,0.7-0.3s0.5,0.1,0.7,0.3c0.2,0.2,0.3,0.4,0.3,0.6v15.8   c0,0.2-0.1,0.4-0.3,0.6c-0.2,0.2-0.4,0.3-0.7,0.3s-0.5-0.1-0.7-0.3c-0.2-0.2-0.3-0.4-0.3-0.6V159.4z"></path>
	<path class="st2" d="M266.1,172.6c0.3,0,0.5,0.1,0.7,0.3c0.2,0.2,0.3,0.4,0.3,0.6c0,0.2-0.1,0.4-0.3,0.6c-1.8,1.3-3.8,2-6,2   c-2.6,0-4.9-0.9-6.8-2.6c-1.9-1.7-2.8-3.8-2.8-6.2c0-2.4,0.9-4.5,2.8-6.2c1.9-1.7,4.1-2.6,6.8-2.6c2.3,0,4.3,0.7,6.1,2   c0.2,0.2,0.3,0.4,0.3,0.6c0,0.2-0.1,0.4-0.3,0.6c-0.2,0.2-0.4,0.3-0.7,0.3s-0.5-0.1-0.7-0.3c-1.4-1-2.9-1.5-4.7-1.5   c-2.1,0-3.9,0.7-5.4,2.1c-1.5,1.4-2.2,3-2.2,5c0,1.9,0.8,3.6,2.2,5c1.5,1.4,3.3,2.1,5.4,2.1c1.8,0,3.4-0.5,4.8-1.5   C265.7,172.7,265.9,172.6,266.1,172.6z"></path>
	<path class="st2" d="M276,169.9l-2.4,5.6c0,0.1-0.1,0.2-0.2,0.3c-0.2,0.2-0.4,0.3-0.7,0.3s-0.5-0.1-0.7-0.3   c-0.2-0.2-0.3-0.4-0.3-0.6c0-0.1,0-0.3,0.1-0.4l6.7-15.7c0-0.1,0.1-0.3,0.3-0.4c0.2-0.2,0.4-0.3,0.7-0.3s0.5,0.1,0.7,0.3   c0.1,0.1,0.2,0.2,0.2,0.4l6.7,15.7c0.1,0.1,0.1,0.2,0.1,0.4c0,0.2-0.1,0.4-0.3,0.6c-0.2,0.2-0.4,0.3-0.7,0.3s-0.5-0.1-0.7-0.3   c-0.1-0.1-0.2-0.2-0.2-0.3l-2.4-5.6H276z M282.2,168.2l-2.7-6.4l-2.7,6.4H282.2z"></path>
	<path class="st2" d="M292,159.4c0-0.2,0.1-0.4,0.3-0.6c0.2-0.2,0.4-0.3,0.7-0.3s0.5,0.1,0.7,0.3c0.2,0.2,0.3,0.4,0.3,0.6v15h9.6   c0.3,0,0.5,0.1,0.7,0.3c0.2,0.2,0.3,0.4,0.3,0.6c0,0.2-0.1,0.4-0.3,0.6c-0.2,0.2-0.4,0.3-0.7,0.3H293c-0.3,0-0.5-0.1-0.7-0.3   c-0.2-0.2-0.3-0.4-0.3-0.6V159.4z"></path>
	<path class="st2" d="M307.5,173.7c-0.1-0.2-0.2-0.3-0.2-0.5c0-0.2,0.1-0.4,0.3-0.6c0.2-0.2,0.4-0.3,0.7-0.3c0.3,0,0.6,0.1,0.8,0.4   c0.1,0.1,0.2,0.3,0.3,0.4c0.7,0.7,1.6,1.2,2.6,1.2c1.1,0.1,2-0.2,2.8-0.8c0.8-0.6,1.3-1.4,1.3-2.4c0.1-1-0.2-1.8-0.9-2.6   c-0.7-0.7-1.6-1.1-2.6-1.2c-1.3-0.1-2.4-0.6-3.3-1.5c-0.9-0.9-1.2-2-1.1-3.2c0.1-1.2,0.7-2.2,1.7-3c0.9-0.7,1.9-1.1,3.1-1.1   c1.4,0,2.6,0.5,3.6,1.6c0.2,0.2,0.3,0.4,0.5,0.6c0.1,0.1,0.1,0.3,0.1,0.5c0,0.2-0.1,0.4-0.3,0.6c-0.2,0.2-0.4,0.3-0.7,0.3   c-0.3,0-0.5-0.1-0.7-0.3c-0.1-0.2-0.3-0.4-0.4-0.5c-0.5-0.6-1.2-0.9-2-0.9c-0.8-0.1-1.5,0.1-2.1,0.6c-0.6,0.5-0.9,1.1-1,1.8   c-0.1,0.7,0.2,1.4,0.7,1.9c0.5,0.6,1.2,0.9,1.9,0.9c1.6,0.1,2.9,0.7,3.9,1.8c0.9,1,1.4,2.1,1.4,3.3c0,0.2,0,0.3,0,0.5   c-0.1,1.5-0.8,2.6-2,3.6c-1.1,0.8-2.3,1.3-3.7,1.3c-1.7,0-3.2-0.6-4.4-1.9C307.8,174.1,307.6,173.9,307.5,173.7z"></path>
</g>
<g>
	<g>
		<path class="st2" d="M0.7,134.8c-0.4-0.4-0.6-0.9-0.6-1.6V80c0-0.7,0.2-1.2,0.6-1.6c0.4-0.4,0.9-0.6,1.6-0.6h13.3    c5.6,0,10.5,1.2,14.9,3.7c4.4,2.5,7.8,5.9,10.3,10.2c2.5,4.4,3.7,9.3,3.7,14.9c0,5.6-1.2,10.5-3.7,14.9    c-2.5,4.4-5.9,7.8-10.3,10.3c-4.4,2.5-9.4,3.7-14.9,3.7H2.3C1.6,135.4,1.1,135.2,0.7,134.8z M15.6,131.5c4.7,0,8.9-1.1,12.6-3.2    c3.7-2.1,6.6-5.1,8.7-8.9c2.1-3.8,3.1-8.1,3.1-12.8c0-4.7-1-9-3.1-12.7c-2.1-3.8-5-6.7-8.7-8.9s-7.9-3.2-12.6-3.2H4.5v49.7H15.6z"></path>
		<path class="st2" d="M84.5,97.3c3.2,1.8,5.6,4.3,7.4,7.4c1.8,3.2,2.7,6.7,2.7,10.6v17.9c0,0.6-0.2,1.2-0.6,1.6    c-0.4,0.4-0.9,0.6-1.6,0.6c-0.6,0-1.2-0.2-1.6-0.6c-0.4-0.4-0.6-0.9-0.6-1.6v-5.8c-1.6,2.6-3.9,4.7-6.7,6.2    c-2.8,1.5-6,2.3-9.5,2.3c-3.9,0-7.4-0.9-10.6-2.7c-3.2-1.8-5.6-4.3-7.4-7.4c-1.8-3.2-2.7-6.6-2.7-10.5c0-3.9,0.9-7.4,2.7-10.6    c1.8-3.2,4.3-5.6,7.4-7.4c3.2-1.8,6.7-2.7,10.6-2.7C77.8,94.6,81.3,95.5,84.5,97.3z M82.2,129.6c2.5-1.4,4.4-3.4,5.8-5.9    c1.4-2.5,2.1-5.3,2.1-8.4c0-3.1-0.7-5.9-2.1-8.4c-1.4-2.5-3.3-4.5-5.8-5.9c-2.5-1.5-5.2-2.2-8.3-2.2c-3.1,0-5.8,0.7-8.3,2.2    c-2.5,1.5-4.4,3.4-5.8,5.9c-1.4,2.5-2.1,5.3-2.1,8.4c0,3.1,0.7,5.9,2.1,8.4c1.4,2.5,3.4,4.5,5.8,5.9c2.5,1.4,5.2,2.1,8.3,2.1    C77,131.8,79.8,131,82.2,129.6z"></path>
		<path class="st2" d="M139.2,96.8c0,0.2-0.1,0.5-0.3,1l-24.8,53.8c-0.4,0.9-1,1.3-1.7,1.3c-0.3,0-0.6-0.1-1-0.2    c-0.9-0.4-1.4-1-1.4-1.7c0-0.2,0.1-0.5,0.3-1l7.4-16c0,0-0.1-0.2-0.3-0.5l-16.2-35.5c-0.2-0.4-0.3-0.8-0.3-1.2    c0-0.7,0.4-1.3,1.3-1.7c0.4-0.2,0.8-0.3,1.2-0.3c0.7,0,1.3,0.4,1.7,1.3l15,32.8l15.1-32.7c0.4-0.9,1-1.3,1.7-1.3    c0.3,0,0.7,0.1,1,0.2C138.7,95.5,139.2,96.1,139.2,96.8z"></path>
		<path class="st2" d="M180.5,132.3c-4.5-2.6-8-6.1-10.6-10.6c-2.6-4.5-3.9-9.5-3.9-15.1c0-5.5,1.3-10.5,3.9-15    c2.6-4.5,6.1-8.1,10.6-10.6c4.5-2.6,9.5-3.9,15.1-3.9c5.5,0,10.5,1.3,15,3.9s8,6.1,10.6,10.6c2.6,4.5,3.9,9.5,3.9,15    c0,5.6-1.3,10.6-3.9,15.1c-2.6,4.5-6.1,8.1-10.6,10.6s-9.5,3.9-15,3.9C190,136.2,185,134.9,180.5,132.3z M208.4,128.5    c3.8-2.2,6.9-5.2,9-9c2.2-3.8,3.3-8.1,3.3-12.9c0-4.7-1.1-8.9-3.3-12.8c-2.2-3.8-5.2-6.9-9-9c-3.8-2.2-8.1-3.3-12.8-3.3    c-4.7,0-9,1.1-12.9,3.3c-3.8,2.2-6.9,5.2-9,9c-2.2,3.8-3.3,8.1-3.3,12.8c0,4.7,1.1,9,3.3,12.9c2.2,3.8,5.2,6.9,9,9    c3.8,2.2,8.1,3.3,12.9,3.3C200.3,131.8,204.6,130.7,208.4,128.5z"></path>
		<path class="st2" d="M264.3,96.7c2.8,1.5,5,3.6,6.6,6.5c1.6,2.8,2.4,6.2,2.4,10.2v19.9c0,0.6-0.2,1.2-0.6,1.6    c-0.4,0.4-0.9,0.6-1.6,0.6c-0.6,0-1.2-0.2-1.6-0.6c-0.4-0.4-0.6-0.9-0.6-1.6v-19.9c0-4.7-1.3-8.2-4-10.7    c-2.6-2.5-6.1-3.7-10.3-3.7c-2.6,0-5,0.5-7.1,1.5c-2.1,1-3.8,2.4-5.1,4.2c-1.2,1.8-1.8,3.8-1.8,5.9v22.6c0,0.6-0.2,1.2-0.6,1.6    c-0.4,0.4-0.9,0.6-1.6,0.6c-0.6,0-1.2-0.2-1.6-0.6c-0.4-0.4-0.6-0.9-0.6-1.6v-36c0-0.7,0.2-1.2,0.6-1.6c0.4-0.4,0.9-0.6,1.6-0.6    c0.7,0,1.2,0.2,1.6,0.6c0.4,0.4,0.6,0.9,0.6,1.6v3.8c1.7-2.1,3.7-3.7,6.1-4.8c2.4-1.2,5-1.7,7.9-1.7    C258.3,94.5,261.5,95.3,264.3,96.7z"></path>
		<path class="st2" d="M312.3,97.2c2.8,1.7,5,4.1,6.6,7.1c1.6,3,2.4,6.4,2.4,10.3c0,0.6-0.2,1.1-0.6,1.5c-0.4,0.4-0.9,0.6-1.6,0.6    h-30.9c0.1,2.9,0.9,5.5,2.3,7.8c1.4,2.3,3.2,4.1,5.5,5.4c2.3,1.3,4.9,1.9,7.8,1.9c1.9,0,3.9-0.3,5.8-1c1.9-0.7,3.5-1.5,4.6-2.6    c0.5-0.4,1-0.6,1.6-0.6c0.5,0,1,0.1,1.3,0.4c0.5,0.4,0.8,1,0.8,1.6c0,0.5-0.2,1-0.7,1.4c-1.6,1.4-3.6,2.6-6.2,3.5    c-2.5,0.9-5,1.4-7.3,1.4c-3.9,0-7.3-0.9-10.4-2.6c-3-1.7-5.4-4.2-7.1-7.3c-1.7-3.1-2.6-6.7-2.6-10.6c0-4,0.8-7.5,2.4-10.7    c1.6-3.1,3.8-5.6,6.7-7.3c2.9-1.7,6.2-2.6,9.9-2.6C306.3,94.7,309.5,95.5,312.3,97.2z M293,102.7c-2.6,2.6-4.2,5.9-4.7,10.1H317    c-0.3-4.2-1.8-7.6-4.4-10.1c-2.6-2.6-5.9-3.8-9.9-3.8C298.9,98.8,295.6,100.1,293,102.7z"></path>
	</g>
</g>
</svg>
