<svg version="1.1" id="Layer_1" xmlns:x="ns_extend;" xmlns:i="ns_ai;" xmlns:graph="ns_graphs;" xmlns="http://www.w3.org/2000/svg" xmlns:xlink="http://www.w3.org/1999/xlink" x="0px" y="0px" viewBox="0 0 711.9 105" style="enable-background:new 0 0 711.9 105;" xml:space="preserve">
 <style type="text/css">
  .st0{fill:#FFFFFF;}
 </style>
 <metadata>
  <sfw xmlns="ns_sfw;">
   <slices>
   </slices>
   <sliceSourceBounds bottomLeftOrigin="true" height="105" width="711.9" x="-280.9" y="-40.6">
   </sliceSourceBounds>
  </sfw>
 </metadata>
 <desc>
  Created with Sketch.
 </desc>
 <g id="Page-1">
  <g id="Marketplace">
   <g id="Logo_x2F_BambooHR_x2F_Logo">
    <path id="BambooHR" class="st0" d="M710.6,44.8c0.8,1.8,1.2,3.8,1.2,5.9c0,2.2-0.4,4.2-1.2,6c-0.8,1.8-1.9,3.4-3.3,4.8
				c-1.4,1.4-3,2.4-4.8,3.2c-1.8,0.8-3.8,1.1-5.9,1.1c-2.1,0-4.1-0.4-5.9-1.1c-1.9-0.8-3.5-1.8-4.9-3.2c-1.4-1.4-2.5-3-3.3-4.8
				c-0.8-1.8-1.2-3.9-1.2-6c0-2.1,0.4-4.1,1.2-5.9c0.8-1.8,1.9-3.4,3.3-4.8c1.4-1.3,3-2.4,4.9-3.2c1.9-0.8,3.8-1.1,5.9-1.1
				c2.1,0,4.1,0.4,5.9,1.1c1.8,0.8,3.5,1.8,4.8,3.2C708.7,41.4,709.8,43,710.6,44.8z M708.1,55.9c0.6-1.6,1-3.3,1-5.1
				c0-1.8-0.3-3.5-1-5c-0.6-1.6-1.5-2.9-2.6-4.1c-1.1-1.1-2.4-2-4-2.7c-1.5-0.7-3.2-1-4.9-1c-1.8,0-3.5,0.3-5,1
				c-1.5,0.7-2.9,1.6-4,2.7c-1.1,1.1-2,2.5-2.6,4.1c-0.6,1.6-1,3.2-1,5c0,1.9,0.3,3.6,1,5.1c0.6,1.6,1.5,2.9,2.6,4.1
				c1.1,1.2,2.5,2.1,4,2.7c1.5,0.7,3.2,1,5,1c1.8,0,3.4-0.3,4.9-1c1.5-0.7,2.8-1.6,4-2.7C706.6,58.8,707.5,57.5,708.1,55.9z
				 M702.4,50.5c-0.9,0.7-2,1.2-3.3,1.3l5.1,7.8h-3l-4.8-7.6h-2.9v7.6h-2.8V42h6.9c2.1,0,3.7,0.4,4.7,1.2c1,0.8,1.5,2.1,1.5,3.8
				C703.8,48.6,703.3,49.8,702.4,50.5z M696.3,49.8c0.6,0,1.2,0,1.8-0.1c0.6,0,1.1-0.2,1.5-0.3c0.4-0.2,0.8-0.5,1-0.9
				c0.3-0.4,0.4-0.9,0.4-1.6c0-0.6-0.1-1.1-0.3-1.4c-0.2-0.4-0.5-0.6-0.9-0.8c-0.4-0.2-0.8-0.3-1.3-0.4c-0.5-0.1-0.9-0.1-1.4-0.1
				h-3.7v5.6H696.3z M200.7,44.8v-9.6h11v66.5h-11v-8.9h-0.3c-4.9,5.8-13.1,11.2-24.5,11.2c-18.2,0-34.4-14-34.4-35.7
				c0-20.5,15.1-35.4,35.1-35.4c12.2,0,19.3,6.4,23.9,11.8H200.7z M177.4,94.3c12.6,0,24.2-10.5,24.2-25.5
				c0-15.8-10.8-26.2-23.9-26.2c-16.8,0-24.8,13-24.8,25.8C153,81.1,160.9,94.3,177.4,94.3z M298,33c15.1,0,25.6,10.4,25.6,30v38.7
				h-11.1V62.1c0-10.3-4.8-19.3-16.1-19.3c-9.4,0-18.2,6.7-18.2,21.9v36.9h-11.2V62.1c0-11-6-19.3-15.9-19.3
				c-11.2,0-18.3,8-18.3,21.9v36.9h-11.1V35.2h11.1v8.3h0.3c4.5-6,11.3-10.5,20-10.5c10.5,0,19,6,21.8,13.7
				C278.3,40.1,286.4,33,298,33z M446.3,33c20.8,0,35.8,15.3,35.8,35.4c0,19.6-15.1,35.7-35.8,35.7c-20.3,0-35.8-15.5-35.8-35.7
				C410.5,47.8,426.1,33,446.3,33z M446.3,94c14.1,0,24.3-11.1,24.3-25.7c0-14-9.6-25.5-24.3-25.5c-14.3,0-24.3,10.8-24.3,25.5
				C421.9,83.3,433.4,94,446.3,94z M524.9,33c20.8,0,35.8,15.3,35.8,35.4c0,19.6-15.1,35.7-35.8,35.7c-20.3,0-35.8-15.5-35.8-35.7
				C489.1,47.8,504.8,33,524.9,33z M524.9,94c14.1,0,24.3-11.1,24.3-25.7c0-14-9.6-25.5-24.3-25.5c-14.3,0-24.3,10.8-24.3,25.5
				C500.6,83.3,512.1,94,524.9,94z M613.2,63.7V35.4h8.1v66.2h-8.1V71.1h-35.5v30.6h-8.1V35.4h8.1v28.3H613.2z M675.6,54.9
				c0,9.4-7.1,16.7-15.5,18.4l21,28.5h-10.3L650.8,74h-8.9v27.7h-8.1V35.4H653C669.7,35.4,675.6,45.7,675.6,54.9z M641.9,66.6H654
				c8.8,0,13.2-5.3,13.2-11.7c0-7.8-4.7-12-13.3-12h-12V66.6z M97.5,32.3c19.3,0,36,16.6,36,35.8c0,20.8-16,36.9-37.2,36.9
				c-19.2,0-35.9-13.4-35.9-35V0h11.1l0,42.8l1.3-1.4C77.7,36.7,84.6,32.3,97.5,32.3z M96.4,94.9c15.8,0,25.8-11.1,25.8-25.8
				c0-13.5-9.5-26.4-25.5-26.4c-16.1,0-26,12-26,26.7C70.6,84,82.4,94.9,96.4,94.9z M368.5,32.3c19.3,0,36,16.6,36,35.8
				c0,20.8-16,36.9-37.2,36.9c-19.2,0-35.9-13.4-35.9-35V6.6h11.1l0,36.2l1.3-1.4C348.7,36.7,355.6,32.3,368.5,32.3z M367.4,94.9
				c15.8,0,25.8-11.1,25.8-25.8c0-13.5-9.5-26.4-25.5-26.4s-26,12-26,26.7C341.6,84,353.4,94.9,367.4,94.9z M38.2,8.5
				c8.3,8.7,9.2,13.5,12.1,22l4.9,16c0,0-4.9-0.9-8.9-1.5c-4.6-0.7-6.7-1.4-12.6-3.8c-5.9-2.4-11.2-8.2-16.4-14.7
				C12.2,20.1,0,9.9,0,9.9s3.8,0.2,7.6,1.2c3.1,0.8,11.3,3.4,19.7,7.7c1.9,1,2.9,1.6,4.7,2.7c2.8,1.7,5.7,4.3,8.5,7.1
				c3.3,3.3,6.2,6,8.7,9c-2.7-4.9-9.7-22.6-23.3-37.2C24.6-1.1,35.3,5.5,38.2,8.5z">
    </path>
   </g>
  </g>
 </g>
</svg>