<?xml version="1.0" encoding="UTF-8" standalone="no"?>
<!-- Created with Inkscape (http://www.inkscape.org/) -->

<svg
   xmlns:dc="http://purl.org/dc/elements/1.1/"
   xmlns:cc="http://creativecommons.org/ns#"
   xmlns:rdf="http://www.w3.org/1999/02/22-rdf-syntax-ns#"
   xmlns:svg="http://www.w3.org/2000/svg"
   xmlns="http://www.w3.org/2000/svg"
   version="1.1"
   width="892.91339"
   height="162.28346"
   id="svg16749">
  <defs
     id="defs16751" />
  <metadata
     id="metadata16754">
    <rdf:RDF>
      <cc:Work
         rdf:about="">
        <dc:format>image/svg+xml</dc:format>
        <dc:type
           rdf:resource="http://purl.org/dc/dcmitype/StillImage" />
        <dc:title></dc:title>
      </cc:Work>
    </rdf:RDF>
  </metadata>
  <g
     transform="translate(52.487276,-371.84465)"
     id="layer1">
    <g
       transform="matrix(5.8785192,0,0,5.8785192,-1016.8752,-4036.9723)"
       id="g16776">
      <path
         d="m 164.65562,775.97054 12.2375,-20.365 -10.3175,0.0712 -1.21875,-4.07 19.39875,0 -11.945,20.33375 11.8725,-0.11375 0,4.14375 -20.0275,0"
         id="path16682"
         style="fill:#007ac1;fill-opacity:1;fill-rule:nonzero;stroke:none" />
      <path
         d="m 233.53437,775.97054 -10.57625,-13.5275 c -0.9225,-1.1825 -1.58625,-2.1525 -2.32375,-3.22125 l -0.075,0 c 0.075,0.81 0.075,2.2975 0.075,3.40375 l 0,13.345 -5.02375,0 0,-24.36375 5.09375,0 10.2075,13.01375 c 0.9625,1.22125 1.62875,2.1875 2.2925,3.18625 l 0.0712,0 c -0.0712,-1.1575 -0.0712,-2.74375 -0.0712,-3.77875 l 0,-12.42125 5.03875,0 0,24.36375 -4.70875,0"
         id="path16684"
         style="fill:#007ac1;fill-opacity:1;fill-rule:nonzero;stroke:none" />
      <path
         d="m 260.15312,755.75179 -6.5325,0 0,20.21875 -5.11625,0 0,-20.21875 -7.12625,0 0,-4.145 19.9175,0 -1.1425,4.145"
         id="path16686"
         style="fill:#007ac1;fill-opacity:1;fill-rule:nonzero;stroke:none" />
      <path
         d="m 263.75187,775.97054 5.061,0 0,-24.36375 -5.061,0 0,24.36375 z"
         id="path16688"
         style="fill:#007ac1;fill-opacity:1;fill-rule:nonzero;stroke:none" />
      <path
         d="m 285.15062,776.15554 -3.76625,0 -9.98249,-24.5125 5.5575,0 4.94124,12.93625 c 0.62875,1.59125 1.18376,3.1525 1.665,4.5175 l 0.0725,0 c 0.40625,-1.33 0.9575,-2.74375 1.61625,-4.36625 l 5.52751,-13.0875 5.1675,0 -10.79876,24.5125"
         id="path16690"
         style="fill:#007ac1;fill-opacity:1;fill-rule:nonzero;stroke:none" />
      <path
         d="m 309.89562,776.15554 -2.36625,-5.94875 -8.29,0 -2.24625,5.94875 -4.985,0 9.54375,-24.4775 3.8375,0 9.95501,24.4775 -5.44876,0 z m -5.5775,-14.7425 c -0.39999,-1.23375 -0.73249,-2.23 -0.88625,-3.005 l -0.0337,0 c -0.14625,0.81125 -0.48126,1.81 -0.88625,2.93 l -1.82876,4.79625 5.29876,0 -1.66376,-4.72125"
         id="path16692"
         style="fill:#007ac1;fill-opacity:1;fill-rule:nonzero;stroke:none" />
      <path
         d="m 206.75437,764.55054 -0.0225,0.19625 c -0.30625,2.61 -1.77125,4.8525 -4.01875,6.15625 -3.15875,1.825 -7.09375,1.34125 -9.7,-1.14625 0.485,-0.2825 17.9375,-10.43375 17.9375,-10.43375 l -0.065,-0.18125 c -0.2525,-0.6675 -0.56375,-1.325 -0.91875,-1.94875 -0.39,-0.67625 -0.84,-1.3225 -1.335,-1.9175 -1.95125,-2.3425 -4.6825,-3.9275 -7.67875,-4.47125 -3.05625,-0.5525 -6.20125,0.004 -8.8775,1.5575 -3.0275,1.7675 -5.2125,4.61 -6.11625,8.00875 -0.905,3.4075 -0.44,6.96625 1.32375,10.01375 1.75,3.0575 4.5725,5.23625 7.94625,6.14625 3.3775,0.91125 6.92375,0.44375 9.9475,-1.315 3.74,-2.18375 6.17375,-6.0725 6.5025,-10.42375 l 0.0212,-0.24125 -4.94625,0 z m -16.2875,-0.745 c 0,-2.88125 1.515,-5.64875 4.075,-7.135 3.0625,-1.77875 6.96375,-1.34875 9.56625,1.025 -0.485,0.285 -12.96875,7.535 -13.45625,7.8225 -0.12375,-0.57 -0.185,-1.145 -0.185,-1.7125"
         id="path16694"
         style="fill:#00ad8e;fill-opacity:1;fill-rule:nonzero;stroke:none" />
    </g>
  </g>
</svg>
