<svg class="wpconsent-icon wpconsent-icon-logo-mono" height="12" viewBox="0 0 57 9" width="80" xmlns="http://www.w3.org/2000/svg"><g clip-path="url(#a)" fill="#000000"><path d="M4.84 1.006a.34.34 0 0 0-.333-.34H2.564a.336.336 0 0 0-.292.172L.735 3.566a.336.336 0 0 0 .293.501h1.94a.342.342 0 0 0 .292-.173l1.531-2.713H4.79a.333.333 0 0 0 .05-.175ZM11.628 4.545a.33.33 0 0 0-.048-.171L9.76 1.144 8.403 3.547l.474.84a.33.33 0 0 1 .003.314L7.09 7.88a.341.341 0 0 0 .272.539h1.937a.336.336 0 0 0 .292-.17l2.005-3.558-.003-.002a.34.34 0 0 0 .034-.145h.002Z"></path><path d="M9.76 1.144 9.493.667 8.17 2.994l-.038.066-.294.518a.34.34 0 0 1 .569-.03L9.76 1.144ZM6.995.667h-.012a.336.336 0 0 0-.303.19l-2.636 4.66a.345.345 0 0 1-.299.175.348.348 0 0 1-.303-.183l-.447-.792a.337.337 0 0 0-.294-.171l-1.936.006a.336.336 0 0 0-.293.5l1.802 3.199c.06.105.171.17.293.17h2.314c.129 0 .239-.071.297-.178L6.832 5.34l1.002-1.762.294-.518.038-.066L9.49.667H6.995ZM13.896 1.921c0-.148.053-.274.157-.378a.518.518 0 0 1 .38-.155c.136 0 .247.038.334.114.087.077.144.161.17.253l1.065 3.843 1.041-3.825a.48.48 0 0 1 .188-.28.516.516 0 0 1 .627.002c.096.072.16.167.188.285l1.041 3.825 1.076-3.856a.523.523 0 0 1 .501-.36.51.51 0 0 1 .37.151.508.508 0 0 1 .154.374.505.505 0 0 1-.027.163L19.596 7.32a.518.518 0 0 1-.488.375.47.47 0 0 1-.31-.11.546.546 0 0 1-.182-.285l-1.057-3.747-1.053 3.749a.525.525 0 0 1-.19.283.51.51 0 0 1-.325.11.514.514 0 0 1-.315-.102.5.5 0 0 1-.19-.264l-1.564-5.242a.514.514 0 0 1-.027-.165h.002ZM21.94 7.167V1.992c0-.146.05-.27.154-.374a.514.514 0 0 1 .377-.154h1.745c.566 0 1.026.159 1.383.478.357.318.536.785.536 1.399s-.177 1.077-.533 1.398c-.355.321-.817.484-1.385.484H23v1.943a.512.512 0 0 1-.152.375c-.1.1-.226.151-.375.151a.514.514 0 0 1-.378-.154.506.506 0 0 1-.155-.374v.003Zm1.059-2.896h1.134c.287 0 .509-.08.668-.243.16-.162.239-.392.239-.686 0-.294-.081-.526-.242-.685-.16-.16-.382-.239-.666-.239h-1.135v1.855L23 4.27ZM26.842 4.549c0-1.064.249-1.866.749-2.404.5-.539 1.202-.81 2.107-.81.432 0 .828.088 1.191.26.362.173.651.41.869.712.042.06.063.123.063.192a.287.287 0 0 1-.29.295.303.303 0 0 1-.241-.12 1.81 1.81 0 0 0-.671-.553 2.018 2.018 0 0 0-.92-.215c-.714 0-1.264.22-1.645.662-.38.441-.571 1.103-.571 1.984 0 .88.187 1.593.56 2.01.375.418.927.626 1.656.626.318 0 .62-.063.905-.19.285-.128.513-.314.686-.562a.276.276 0 0 1 .241-.12c.084 0 .153.029.207.086a.287.287 0 0 1 .083.21c0 .063-.018.12-.054.174-.2.293-.49.527-.869.704-.38.177-.78.265-1.2.265-.919 0-1.623-.26-2.116-.781-.494-.521-.74-1.328-.74-2.422v-.003ZM33.042 7.19c-.337-.37-.507-.92-.507-1.654 0-.734.168-1.281.504-1.646.336-.365.809-.548 1.417-.548.607 0 1.083.183 1.42.548.334.365.502.914.502 1.646 0 .732-.168 1.285-.503 1.654-.334.369-.809.553-1.42.553-.61 0-1.075-.184-1.413-.553Zm.087-1.654c0 1.118.443 1.676 1.327 1.676.884 0 1.326-.558 1.326-1.676 0-1.118-.442-1.667-1.326-1.667-.884 0-1.327.555-1.327 1.667ZM37.29 7.404V3.686c0-.084.029-.153.086-.207a.293.293 0 0 1 .21-.083c.084 0 .153.027.207.083a.286.286 0 0 1 .083.207v.294c.093-.185.247-.338.465-.458.217-.12.47-.181.755-.181.271 0 .508.031.712.096.204.064.366.147.488.247.121.101.218.226.293.371.075.146.124.291.15.434.025.142.037.3.037.47v2.444a.276.276 0 0 1-.082.207.286.286 0 0 1-.207.082.29.29 0 0 1-.21-.082.277.277 0 0 1-.086-.207V5.078c0-.193-.015-.36-.047-.498a1.104 1.104 0 0 0-.165-.38.718.718 0 0 0-.337-.256 1.503 1.503 0 0 0-.545-.085c-.813 0-1.22.427-1.22 1.282v2.262a.276.276 0 0 1-.083.207.286.286 0 0 1-.206.082.29.29 0 0 1-.21-.082.277.277 0 0 1-.086-.207l-.002.001ZM41.584 6.899c0-.075.025-.137.076-.188a.254.254 0 0 1 .188-.076c.075 0 .14.03.2.09.3.3.69.451 1.162.451.287 0 .52-.052.7-.159.18-.106.27-.27.27-.493a.463.463 0 0 0-.104-.3.747.747 0 0 0-.273-.21 3.832 3.832 0 0 0-.387-.155c-.144-.05-.291-.1-.44-.153a3.603 3.603 0 0 1-.44-.186 2.328 2.328 0 0 1-.387-.242.974.974 0 0 1-.273-.344 1.08 1.08 0 0 1-.102-.48c0-.363.13-.638.392-.824.26-.186.597-.279 1.008-.279.635 0 1.099.195 1.39.586.045.06.067.118.067.174a.25.25 0 0 1-.078.187.263.263 0 0 1-.19.077.26.26 0 0 1-.193-.081 1.426 1.426 0 0 0-.43-.288 1.46 1.46 0 0 0-.566-.096c-.236 0-.43.043-.584.129-.153.087-.23.228-.23.424 0 .116.035.218.103.31a.749.749 0 0 0 .27.221c.113.057.242.113.387.164l.44.155c.147.052.294.114.44.186.145.072.274.15.388.232a.915.915 0 0 1 .275.33c.069.137.103.291.103.464 0 .269-.07.495-.21.681-.14.186-.324.321-.554.405-.23.083-.493.125-.79.125-.346 0-.66-.068-.938-.201-.28-.134-.49-.288-.626-.46a.303.303 0 0 1-.063-.175l-.002-.001ZM45.48 5.536c0-.7.166-1.24.496-1.622.33-.381.794-.572 1.39-.572.235 0 .446.029.635.087.19.059.346.138.47.239.123.1.23.211.317.33.088.119.154.25.2.389.044.14.076.268.095.387a2.447 2.447 0 0 1 .023.558 1.02 1.02 0 0 1-.038.177.26.26 0 0 1-.11.152.396.396 0 0 1-.21.05h-2.673c0 .455.123.817.369 1.087s.584.405 1.013.405c.238 0 .44-.034.607-.105.167-.07.33-.166.493-.288a.307.307 0 0 1 .165-.058.25.25 0 0 1 .187.078.263.263 0 0 1 .077.19.294.294 0 0 1-.1.21 1.61 1.61 0 0 1-.25.2 2.02 2.02 0 0 1-.48.207c-.22.072-.452.106-.7.106-.628 0-1.114-.181-1.458-.543-.343-.361-.516-.917-.516-1.664h-.002Zm.595-.339h2.462c0-.179-.018-.34-.054-.488a1.413 1.413 0 0 0-.177-.417.83.83 0 0 0-.362-.31 1.352 1.352 0 0 0-.579-.112c-.39 0-.696.118-.918.353-.222.236-.347.56-.374.974h.002ZM50.017 7.404V3.686c0-.084.028-.153.085-.207a.293.293 0 0 1 .21-.083c.085 0 .154.027.208.083a.287.287 0 0 1 .082.207v.294c.093-.185.248-.338.465-.458.218-.12.47-.181.755-.181.272 0 .509.031.713.096.204.064.366.147.488.247.121.101.217.226.292.371.075.146.125.291.15.434.026.142.038.3.038.47v2.444a.276.276 0 0 1-.083.207.287.287 0 0 1-.207.082.29.29 0 0 1-.21-.082.277.277 0 0 1-.085-.207V5.078c0-.193-.015-.36-.047-.498a1.106 1.106 0 0 0-.165-.38.718.718 0 0 0-.338-.256 1.504 1.504 0 0 0-.544-.085c-.814 0-1.22.427-1.22 1.282v2.262a.276.276 0 0 1-.083.207.287.287 0 0 1-.207.082.29.29 0 0 1-.21-.082.277.277 0 0 1-.085-.207l-.002.001ZM54.277 3.938a.263.263 0 0 1-.078-.195.27.27 0 0 1 .078-.196.26.26 0 0 1 .194-.081h.357v-.96a.27.27 0 0 1 .09-.203.284.284 0 0 1 .205-.087c.078 0 .149.028.206.085a.279.279 0 0 1 .085.206v.96h.6c.077 0 .142.027.193.081a.276.276 0 0 1 .078.197.264.264 0 0 1-.078.195.262.262 0 0 1-.194.078h-.599v2.525c0 .194.048.344.146.45.096.106.225.158.387.158.081 0 .149.026.204.078a.256.256 0 0 1 .083.195.251.251 0 0 1-.083.194.284.284 0 0 1-.204.078c-.354 0-.629-.105-.824-.317-.195-.211-.292-.49-.292-.836V4.018h-.357a.258.258 0 0 1-.194-.078l-.003-.002Z"></path></g><defs><path d="M0 0h55.857v7.753H0z" fill="#000000"></path></defs></svg>