<svg width="168" height="48" viewBox="0 0 168 48" fill="none" xmlns="http://www.w3.org/2000/svg">
<mask id="mask0_259_283" style="mask-type:luminance" maskUnits="userSpaceOnUse" x="0" y="1" width="168" height="46">
<path d="M167.7 1H0V46.5H167.7V1Z" fill="white"/>
</mask>
<g mask="url(#mask0_259_283)">
<path d="M17.0002 24.7999C17.0002 24.6999 16.9002 24.5999 16.8002 24.5999C9.60018 21.4999 6.0002 18.1999 6.1002 14.6999C6.3002 7.49992 22.1002 1.69992 22.2002 1.69992C22.4002 1.59992 22.5002 1.39992 22.4002 1.19992C22.3002 0.999924 22.1002 0.899924 21.9002 0.999924C9.60019 4.89992 3.3002 9.19992 3.2002 13.7999C3.2002 17.6999 7.6002 20.9999 11.4002 22.9999H11.5002C11.7002 23.1999 11.8002 23.1999 12.0002 23.2999C12.7002 23.5999 13.3002 23.8999 13.9002 24.1999C19.6002 27.0999 22.5002 30.1999 22.3002 33.1999C21.9002 40.3999 6.0002 45.6999 5.9002 45.6999C5.7002 45.6999 5.6002 45.9999 5.7002 46.1999C5.7002 46.3999 5.9002 46.4999 6.0002 46.4999C18.5002 42.9999 24.9002 38.8999 25.1002 34.2999C25.1002 30.2999 20.7002 26.9999 16.9002 24.7999H17.0002Z" fill="#234B82"/>
<path d="M19.5002 15.0998C19.7002 8.4998 6.70017 3.4998 6.10017 3.2998C6.00017 3.2998 5.80017 3.2998 5.70017 3.4998C5.60017 3.6998 5.70017 3.8998 5.90017 3.9998C13.2002 7.1998 16.8002 10.6998 16.6002 14.1998C16.2002 21.2998 0.300168 26.5998 0.200168 26.5998C0.000167981 26.6998 -0.099832 26.8998 0.000167981 27.0998C0.000167981 27.2998 0.200168 27.3998 0.300168 27.3998H0.400168C12.9002 23.7998 19.3002 19.6998 19.5002 15.0998Z" fill="#2A97D4"/>
<path d="M27.9002 18.5998C27.8002 18.3998 27.6002 18.2998 27.4002 18.3998C15.1002 22.2998 8.8002 26.5998 8.7002 31.1998C8.7002 37.8998 21.5002 42.4998 22.0002 42.6998H22.1002C22.2002 42.6998 22.4002 42.6998 22.4002 42.4998C22.5002 42.2998 22.4002 42.0998 22.2002 41.9998C15.0002 38.8998 11.4002 35.4998 11.5002 32.0998C11.7002 24.8998 27.5002 19.0998 27.6002 19.0998C27.9002 18.9998 28.0002 18.7998 27.9002 18.5998Z" fill="#2A97D4"/>
<path d="M25.7004 12.3C26.4004 13.8 25.8004 15.4 24.0004 16.1C22.5004 16.7 21.3004 15.4 21.0004 14.4C20.7004 12.9 22.4004 11.8 24.2004 11.5C24.9004 11.5 25.4004 11.7 25.7004 12.3Z" fill="#2A97D4"/>
<path d="M71.5006 11.6001H47.6006V33.6001H56.4006V25.8001H71.5006C75.2006 25.8001 77.4006 25.0001 77.4006 21.3001V16.0001C77.4006 12.4001 75.2006 11.6001 71.5006 11.6001ZM68.6006 20.4001C68.6006 22.2001 68.1006 23.0001 66.3006 23.0001H56.5006V17.0001C56.5006 15.3001 57.3006 14.5001 59.5006 14.5001H66.3006C68.1006 14.5001 68.7006 15.3001 68.6006 17.0001V20.4001Z" fill="#234B82"/>
<path d="M43.2004 33.6001H34.4004V11.6001H43.2004V33.6001Z" fill="#234B82"/>
<path d="M108.001 29.1002C108.001 31.6002 107.301 33.7002 102.201 33.7002H82.1006V30.9002H97.0006C98.3006 30.9002 99.1006 30.1002 99.1006 28.9002V26.4002C99.1006 24.8002 98.4006 24.0002 96.9006 24.0002H85.2006C81.3006 24.0002 80.1006 22.1002 80.1006 19.7002V15.7002C80.1006 13.3002 82.0006 11.7002 85.2006 11.7002H104.701C104.701 11.7002 104.501 14.5002 101.001 14.5002H91.2006C89.3006 14.5002 88.9006 15.6002 88.9006 16.8002V18.9002C88.9006 20.2002 89.4006 21.2002 91.1006 21.2002H102.401C106.801 21.2002 107.901 22.9002 107.901 26.1002V29.1002H108.001Z" fill="#234B82"/>
<path d="M110.7 33.6001V11.6001H134.8V14.5001H121.9C120.4 14.5001 119.6 15.0001 119.6 16.8001V21.1001H132.2C132.2 21.1001 132 23.9001 128.5 23.9001H119.6V28.4001C119.6 30.1001 120.5 30.7001 121.8 30.7001H134.8V33.5001H110.7V33.6001Z" fill="#234B82"/>
<path d="M160.3 33.6001C158.2 33.6001 156.6 32.7001 155.1 30.9001C153.9 29.7001 141.8 15.8001 141.8 15.8001H141.7V33.6001H137.7V11.6001H145.8C147.1 11.6001 148.6 11.8001 149.8 13.2001C150.9 14.5001 163.5 29.0001 163.5 29.0001H163.6V11.6001H167.7V33.6001H160.3Z" fill="#234B82"/>
</g>
</svg>
