<svg xmlns="http://www.w3.org/2000/svg" xmlns:xlink="http://www.w3.org/1999/xlink" width="158.62" height="52.133" viewBox="0 0 158.62 52.133">
  <defs>
    <clipPath id="clip-path">
      <rect id="Rectangle_47" data-name="Rectangle 47" width="158.619" height="52.133" transform="translate(0 0)" fill="#22372b"/>
    </clipPath>
  </defs>
  <g id="Group_284" data-name="Group 284" transform="translate(-174.447 -393.001)">
    <g id="Group_39" data-name="Group 39" transform="translate(174.447 393.001)" clip-path="url(#clip-path)">
      <path id="Path_30" data-name="Path 30" d="M203.525,419.52a15.246,15.246,0,0,1-1.137,5.879,14.763,14.763,0,0,1-18.231,8.319,14.081,14.081,0,0,1-4.088-2.158V434h-5.622V394.248l5.68-1.248v14.822a12.646,12.646,0,0,1,4.03-2.357,13.883,13.883,0,0,1,4.772-.823,14.178,14.178,0,0,1,5.735,1.165,14.425,14.425,0,0,1,7.723,7.866,15.034,15.034,0,0,1,1.137,5.846m-15.335-9.937a11.327,11.327,0,0,0-4.543.911,9.611,9.611,0,0,0-3.52,2.551V426.11a9.347,9.347,0,0,0,3.492,2.5,11.447,11.447,0,0,0,4.571.911,9.413,9.413,0,0,0,6.958-2.838,10.376,10.376,0,0,0-.028-14.231,9.4,9.4,0,0,0-6.93-2.865" transform="translate(-174.447 -393)" fill="#22372b"/>
      <path id="Path_31" data-name="Path 31" d="M316.915,473.878a3.284,3.284,0,0,1,2.442,1.054,3.5,3.5,0,0,1,0,4.941,3.3,3.3,0,0,1-2.442,1.049,3.522,3.522,0,0,1,0-7.044m-2.84-33.563h5.68v28.909h-5.68Z" transform="translate(-279.545 -428.789)" fill="#22372b"/>
      <path id="Path_32" data-name="Path 32" d="M361.412,455.309a14.921,14.921,0,0,1,1.165-5.874,14.557,14.557,0,0,1,3.207-4.775,15.243,15.243,0,0,1,4.8-3.18,14.955,14.955,0,0,1,20.869,13.828,15.109,15.109,0,0,1-1.162,5.935,15.131,15.131,0,0,1-19.707,7.954,15.236,15.236,0,0,1-4.8-3.18,14.557,14.557,0,0,1-3.207-4.774,15.07,15.07,0,0,1-1.165-5.935m15.049,10.052a8.829,8.829,0,0,0,6.674-2.925,10.561,10.561,0,0,0,0-14.226,8.88,8.88,0,0,0-6.674-2.893,8.972,8.972,0,0,0-6.7,2.893,9.86,9.86,0,0,0-2.782,7.1,9.995,9.995,0,0,0,2.755,7.127,8.89,8.89,0,0,0,6.729,2.925" transform="translate(-315.864 -428.789)" fill="#22372b"/>
      <path id="Path_33" data-name="Path 33" d="M506.877,469.793V440.883h5.68v2.727a11.126,11.126,0,0,1,3.633-2.44,11.543,11.543,0,0,1,4.488-.855,10.644,10.644,0,0,1,5.225,1.28,9.6,9.6,0,0,1,3.69,3.549,11.712,11.712,0,0,1,4.231-3.61,12.344,12.344,0,0,1,5.537-1.22,10.383,10.383,0,0,1,7.811,3.152,11.268,11.268,0,0,1,3.037,8.153v18.173h-5.678V452.581a7.665,7.665,0,0,0-1.789-5.366,6.262,6.262,0,0,0-4.857-1.96,7.588,7.588,0,0,0-3.8.966,8.642,8.642,0,0,0-2.953,2.9,11.4,11.4,0,0,1,.171,1.22c.037.435.055.864.055,1.28v18.173h-5.622V452.581a7.665,7.665,0,0,0-1.789-5.366,6.258,6.258,0,0,0-4.855-1.96,7.709,7.709,0,0,0-3.693.883,7.982,7.982,0,0,0-2.838,2.639v21.015Z" transform="translate(-425.892 -428.789)" fill="#22372b"/>
      <path id="Path_34" data-name="Path 34" d="M729.648,470.152v-2.727a13.406,13.406,0,0,1-4.09,2.357,13.858,13.858,0,0,1-4.77.823,14.181,14.181,0,0,1-5.736-1.165,14.37,14.37,0,0,1-7.725-7.894,15.24,15.24,0,0,1-1.135-5.879,15.027,15.027,0,0,1,1.135-5.847,14.629,14.629,0,0,1,3.1-4.714,14.82,14.82,0,0,1,15.078-3.577,14.956,14.956,0,0,1,4.088,2.1v-2.385h5.68v28.91Zm-17.891-14.54a9.818,9.818,0,0,0,2.84,7.154,9.4,9.4,0,0,0,6.986,2.9,11.071,11.071,0,0,0,4.515-.91,9.639,9.639,0,0,0,3.492-2.556V449.081a9.964,9.964,0,0,0-3.522-2.5,11.179,11.179,0,0,0-4.485-.906,9.486,9.486,0,0,0-6.986,2.838,9.64,9.64,0,0,0-2.84,7.1" transform="translate(-576.651 -429.148)" fill="#22372b"/>
    </g>
  </g>
</svg>
