<?xml version="1.0" encoding="UTF-8" standalone="no"?>
<!-- Created with Inkscape (http://www.inkscape.org/) -->

<svg
   xmlns:dc="http://purl.org/dc/elements/1.1/"
   xmlns:cc="http://creativecommons.org/ns#"
   xmlns:rdf="http://www.w3.org/1999/02/22-rdf-syntax-ns#"
   xmlns:svg="http://www.w3.org/2000/svg"
   xmlns="http://www.w3.org/2000/svg"
   xmlns:sodipodi="http://sodipodi.sourceforge.net/DTD/sodipodi-0.dtd"
   xmlns:inkscape="http://www.inkscape.org/namespaces/inkscape"
   width="148.55597"
   height="78.661362"
   viewBox="0 0 39.305435 20.812484"
   version="1.1"
   id="svg6590"
   inkscape:version="0.92.0 r15299"
   sodipodi:docname="vertex.svg">
  <defs
     id="defs6584">
    <clipPath
       id="clipPath5181"
       clipPathUnits="userSpaceOnUse">
      <path
         inkscape:connector-curvature="0"
         id="path5179"
         d="m 53.05523,49.95266 h 54.1119 v 28.43631 h -54.1119 z" />
    </clipPath>
  </defs>
  <sodipodi:namedview
     id="base"
     pagecolor="#ffffff"
     bordercolor="#666666"
     borderopacity="1.0"
     inkscape:pageopacity="0.0"
     inkscape:pageshadow="2"
     inkscape:zoom="5.4352255"
     inkscape:cx="73.777988"
     inkscape:cy="38.830681"
     inkscape:document-units="mm"
     inkscape:current-layer="layer1"
     showgrid="false"
     fit-margin-top="0"
     fit-margin-left="0"
     fit-margin-right="0"
     fit-margin-bottom="0"
     units="px"
     inkscape:window-width="1280"
     inkscape:window-height="744"
     inkscape:window-x="-4"
     inkscape:window-y="-4"
     inkscape:window-maximized="1" />
  <metadata
     id="metadata6587">
    <rdf:RDF>
      <cc:Work
         rdf:about="">
        <dc:format>image/svg+xml</dc:format>
        <dc:type
           rdf:resource="http://purl.org/dc/dcmitype/StillImage" />
        <dc:title></dc:title>
      </cc:Work>
    </rdf:RDF>
  </metadata>
  <g
     inkscape:label="Layer 1"
     inkscape:groupmode="layer"
     id="layer1"
     transform="translate(-90.097999,-193.95002)">
    <g
       id="g12463"
       transform="translate(0.13229058,-0.13228544)">
      <g
         id="g11938"
         transform="matrix(0.35277777,0,0,-0.35277777,115.45266,204.12342)">
        <path
           d="M 0,0 -16.913,28.088 -33.826,0 Z"
           style="fill:#3f125f;fill-opacity:1;fill-rule:nonzero;stroke:none"
           id="path11940"
           inkscape:connector-curvature="0" />
      </g>
      <g
         id="g11942"
         transform="matrix(0.35277777,0,0,-0.35277777,98.272073,212.83845)">
        <path
           d="M 0,0 -3.284,-5.453 66.86,-5.454 63.575,0 Z"
           style="fill:#3f125f;fill-opacity:1;fill-rule:nonzero;stroke:none"
           id="path11944"
           inkscape:connector-curvature="0" />
      </g>
      <g
         id="g11946"
         transform="matrix(0.35277777,0,0,-0.35277777,97.021263,205.5836)">
        <path
           d="m 0,0 c -1.433,0 -2.977,-4.631 -5.181,-9.537 -1.462,-3.225 -2.647,-6.312 -3.115,-7.249 -0.551,0.055 -1.102,0.111 -1.681,0.111 -0.662,0 -1.351,-0.056 -2.04,-0.111 -0.413,1.157 -1.654,4.603 -3.06,8.076 -1.681,4.134 -3.169,8.655 -4.548,8.71 v 0.248 c 1.407,-0.056 2.784,-0.111 4.162,-0.111 0.993,0 1.985,0.055 2.95,0.111 V 0 c -0.359,-0.111 -0.744,-0.138 -0.744,-0.993 0,-2.177 4.217,-11.769 4.658,-13.064 0.606,1.515 4.106,9.426 4.106,12.789 0,0.937 -0.385,1.157 -0.964,1.268 v 0.248 c 0.937,-0.056 1.902,-0.111 2.866,-0.111 0.854,0 1.736,0.055 2.591,0.111 z"
           style="fill:#5a5c61;fill-opacity:1;fill-rule:nonzero;stroke:none"
           id="path11948"
           inkscape:connector-curvature="0" />
      </g>
      <g
         id="g11950"
         transform="matrix(0.35277777,0,0,-0.35277777,102.5351,210.02741)">
        <path
           d="m 0,0 c -0.662,-1.516 -1.158,-2.673 -1.433,-4.437 -0.249,0.192 -1.103,0.275 -2.094,0.303 -0.994,0.055 -2.123,0.055 -3.033,0.055 h -3.252 c -2.205,0 -3.969,-0.083 -4.245,-0.11 v 0.248 c 1.351,0 1.351,2.342 1.351,8.269 0,6.366 -0.028,8.131 -1.351,8.269 v 0.247 c 0.579,0 1.268,-0.027 2.095,-0.055 0.854,-0.027 1.847,-0.055 3.032,-0.055 h 2.37 c 2.591,0 4.52,0.083 5.678,0.358 -0.193,-0.771 -0.469,-1.901 -0.469,-3.721 V 8.82 h -0.578 c 0,2.536 -2.094,2.921 -4.934,2.921 -0.579,0 -1.103,-0.054 -1.544,-0.164 -0.22,-1.764 -0.22,-5.43 -0.22,-6.12 0.359,-0.027 0.771,-0.082 1.571,-0.082 3.004,0 3.363,0.661 3.473,2.012 h 0.579 c -0.11,-1.047 -0.193,-2.095 -0.193,-3.17 0,-1.819 0,-0.689 0.027,-2.122 h -0.606 c 0,1.461 -0.579,2.26 -3.28,2.26 -0.661,0 -1.212,0 -1.571,-0.027 0,-0.883 0,-5.237 0.083,-7.056 0.606,-0.028 1.212,-0.11 1.846,-0.11 4.383,0 5.292,1.378 6.202,3.087 z"
           style="fill:#5a5c61;fill-opacity:1;fill-rule:nonzero;stroke:none"
           id="path11952"
           inkscape:connector-curvature="0" />
      </g>
      <g
         id="g11954"
         transform="matrix(0.35277777,0,0,-0.35277777,103.3665,211.41774)">
        <path
           d="m 0,0 c 1.351,0.027 1.351,2.425 1.351,8.269 0,5.843 0,8.214 -1.351,8.269 v 0.247 c 0.524,-0.027 1.13,-0.055 1.709,-0.082 0.578,0 1.157,-0.028 1.598,-0.028 0.827,0 1.792,0.083 2.894,0.193 1.075,0.083 2.288,0.166 3.529,0.166 0.772,0 5.264,0 5.264,-4.08 0,-3.252 -3.28,-4.355 -4.824,-4.63 C 10.749,7.662 12.376,5.182 14.167,2.922 15.738,0.937 16.455,0.055 17.227,0 v -0.248 c -0.276,0.027 -0.635,0.055 -0.965,0.083 -0.359,0.027 -0.717,0.027 -1.075,0.027 -1.13,0 -2.315,-0.055 -3.445,-0.22 C 11.411,0.165 10.364,1.929 9.096,3.831 7.91,5.595 6.973,7.359 5.898,7.359 5.512,7.359 5.733,7.359 5.43,7.304 5.43,2.729 5.43,0 6.835,0 v -0.248 c -1.102,0.083 -2.343,0.11 -3.417,0.11 -1.158,0 -2.343,-0.027 -3.418,-0.11 z m 6.229,8.324 c 2.453,0 4.355,0.578 4.355,3.583 0,2.508 -1.488,3.886 -3.253,3.886 -0.606,0 -1.212,-0.11 -1.791,-0.22 C 5.43,13.588 5.43,9.206 5.43,8.351 c 0.22,0 0.359,-0.027 0.799,-0.027"
           style="fill:#5a5c61;fill-opacity:1;fill-rule:nonzero;stroke:none"
           id="path11956"
           inkscape:connector-curvature="0" />
      </g>
      <g
         id="g11958"
         transform="matrix(0.35277777,0,0,-0.35277777,114.76154,206.84786)">
        <path
           d="m 0,0 c 0,1.93 -1.102,2.453 -4.079,2.453 -0.275,0 -0.524,-0.028 -0.799,-0.055 -0.139,-0.689 -0.139,-3.473 -0.139,-7.083 0,-5.843 0,-8.242 1.406,-8.269 v -0.248 c -1.075,0.083 -2.26,0.11 -3.418,0.11 -1.158,0 -2.342,-0.027 -3.417,-0.11 v 0.248 c 1.406,0.027 1.406,2.426 1.406,8.269 0,3.61 0,6.394 -0.138,7.083 -0.276,0.027 -0.524,0.055 -0.8,0.055 -3.224,0 -4.3,-1.46 -4.713,-3.28 l -0.689,0.166 c 0.358,1.213 0.689,2.95 0.689,4.741 0.166,-0.111 1.075,-0.166 2.261,-0.193 1.185,-0.056 2.645,-0.056 3.858,-0.056 h 3.005 c 3.307,0 5.595,0.028 6.752,0.249 C 1.02,3.28 0.745,2.123 0.745,-0.22 V -0.744 H 0 Z"
           style="fill:#5a5c61;fill-opacity:1;fill-rule:nonzero;stroke:none"
           id="path11960"
           inkscape:connector-curvature="0" />
      </g>
      <g
         id="g11962"
         transform="matrix(0.35277777,0,0,-0.35277777,120.82939,210.02741)">
        <path
           d="m 0,0 c -0.661,-1.516 -1.158,-2.673 -1.434,-4.437 -0.247,0.192 -1.102,0.275 -2.095,0.303 -0.991,0.055 -2.121,0.055 -3.031,0.055 h -3.253 c -2.205,0 -3.969,-0.083 -4.244,-0.11 v 0.248 c 1.35,0 1.35,2.342 1.35,8.269 0,6.366 -0.027,8.131 -1.35,8.269 v 0.247 c 0.578,0 1.268,-0.027 2.094,-0.055 0.854,-0.027 1.847,-0.055 3.033,-0.055 h 2.37 c 2.591,0 4.52,0.083 5.678,0.358 -0.193,-0.771 -0.469,-1.901 -0.469,-3.721 V 8.82 h -0.578 c 0,2.536 -2.095,2.921 -4.934,2.921 -0.579,0 -1.103,-0.054 -1.544,-0.164 -0.22,-1.764 -0.22,-5.43 -0.22,-6.12 0.358,-0.027 0.772,-0.082 1.571,-0.082 3.004,0 3.362,0.661 3.473,2.012 h 0.579 C -3.115,6.34 -3.197,5.292 -3.197,4.217 c 0,-1.819 0,-0.689 0.027,-2.122 h -0.607 c 0,1.461 -0.578,2.26 -3.279,2.26 -0.662,0 -1.213,0 -1.571,-0.027 0,-0.883 0,-5.237 0.082,-7.056 0.607,-0.028 1.213,-0.11 1.847,-0.11 4.382,0 5.292,1.378 6.201,3.087 z"
           style="fill:#5a5c61;fill-opacity:1;fill-rule:nonzero;stroke:none"
           id="path11964"
           inkscape:connector-curvature="0" />
      </g>
      <g
         id="g11966"
         transform="matrix(0.35277777,0,0,-0.35277777,121.17017,211.41766)">
        <path
           d="M 0,0 C 0.551,0 0.744,0.22 1.185,0.605 2.067,1.405 7.828,7.552 7.938,7.662 7.414,8.296 5.264,11.107 2.646,14.47 1.13,16.4 1.02,16.344 0.275,16.538 v 0.247 c 1.407,-0.055 2.812,-0.11 4.217,-0.11 1.185,0 2.453,0.055 3.612,0.11 V 16.538 C 7.772,16.482 7.386,16.4 7.386,15.986 c 0,-1.157 3.005,-4.823 3.584,-5.623 0.8,0.937 3.39,4.521 3.39,5.375 0,0.744 -0.496,0.744 -0.909,0.8 v 0.247 c 0.991,-0.028 1.984,-0.11 3.004,-0.11 0.909,0 1.874,0.055 2.756,0.11 V 16.538 C 18.935,16.51 18.604,16.4 18.219,16.234 17.557,15.959 13.946,11.631 11.687,9.509 12.238,8.848 15.022,5.346 17.86,1.957 19.349,0.164 19.514,0.082 20.203,0 v -0.249 c -1.489,0.111 -3.004,0.111 -4.493,0.111 -1.129,0 -2.286,-0.055 -3.417,-0.111 V 0 C 12.678,0 13.01,0.055 13.01,0.522 13.01,1.405 9.261,5.76 8.599,6.808 7.883,5.925 4.906,2.122 4.906,0.633 4.906,0 5.457,0 5.815,0 v -0.249 c -0.937,0.056 -1.847,0.111 -2.783,0.111 -1.02,0 -2.04,-0.055 -3.032,-0.111 z"
           style="fill:#5a5c61;fill-opacity:1;fill-rule:nonzero;stroke:none"
           id="path11968"
           inkscape:connector-curvature="0" />
      </g>
      <g
         id="g11970"
         transform="matrix(0.35277777,0,0,-0.35277777,128.77549,206.15626)">
        <path
           d="m 0,0 c -0.605,0 -1.035,0.453 -1.035,1.052 0,0.634 0.478,1.053 1.035,1.053 0.552,0 1.03,-0.419 1.03,-1.053 C 1.03,0.419 0.552,0 0,0 m 0,1.922 c -0.456,0 -0.81,-0.357 -0.81,-0.87 0,-0.478 0.309,-0.869 0.81,-0.869 0.45,0 0.805,0.354 0.805,0.869 0,0.513 -0.355,0.87 -0.805,0.87 M -0.208,0.45 H -0.4 V 1.615 H 0.042 C 0.324,1.615 0.467,1.517 0.467,1.28 0.467,1.069 0.338,0.982 0.164,0.962 L 0.49,0.45 H 0.273 l -0.301,0.498 h -0.18 z m 0.214,0.661 c 0.143,0 0.27,0.014 0.27,0.184 0,0.14 -0.138,0.157 -0.253,0.157 H -0.208 V 1.111 Z"
           style="fill:#5a5c61;fill-opacity:1;fill-rule:nonzero;stroke:none"
           id="path11972"
           inkscape:connector-curvature="0" />
      </g>
    </g>
  </g>
</svg>
