<svg xmlns="http://www.w3.org/2000/svg" xmlns:xlink="http://www.w3.org/1999/xlink" viewBox="0 0 93 47.88" width="279"  height="143.64000000000001" ><defs><style>.cls-1{fill:none;}.cls-2{clip-path:url(#clip-path);}.cls-3{fill:url(#linear-gradient);}.cls-4{clip-path:url(#clip-path-2);}.cls-5{fill:url(#linear-gradient-2);}</style><clipPath id="clip-path"><path class="cls-1" d="M50.36,47.52H54V33.13h-3.6ZM3.58,35.19h0V33.12H0v14.4H3.59V40.68c0-2,.2-2.69.77-3.38a2.59,2.59,0,0,1,2.1-.94,3.27,3.27,0,0,1,1.45.29l1.76-3.24a5.15,5.15,0,0,0-2.53-.63,3.62,3.62,0,0,0-3.56,2.41m12,.6c1.81,0,2.68,1.56,2.68,3.32h-5.7c.31-2.21,1.44-3.32,3-3.32m-6.65,4.6c0,4.77,2.74,7.48,7.51,7.48a11.78,11.78,0,0,0,5-1l-1.23-3a7.52,7.52,0,0,1-3.54.79c-2.35,0-3.66-1-4-2.93h9.1c.06-.66.08-1.29.08-2,0-3.63-1.49-6.92-5.95-6.92-4.72,0-6.9,3.73-6.9,7.61m14.15,0c0,4.76,2.91,7.48,7.29,7.48A9.72,9.72,0,0,0,34.68,47L33.46,43.9a5.53,5.53,0,0,1-2.93.74c-2.28,0-3.84-1.41-3.84-4.32,0-2.68,1.4-4.32,3.87-4.32a5.54,5.54,0,0,1,2.9.75l1.25-3.06a10,10,0,0,0-4.41-.91c-4.46,0-7.23,3.09-7.23,7.61m43.06-9.87v2.61H61.2V28l-3.58,2.5v2.62H55.4v3h2.22v7.06a4.09,4.09,0,0,0,4.66,4.66,7.58,7.58,0,0,0,3.2-.68l-1.21-3a3.09,3.09,0,0,1-1.54.43c-1.07,0-1.53-.58-1.53-1.61V36.16h4.93v7.06a4.09,4.09,0,0,0,4.66,4.66A7.56,7.56,0,0,0,74,47.2l-1.2-3a3.12,3.12,0,0,1-1.54.43c-1.07,0-1.53-.58-1.53-1.65V36.16H73.5v-3H69.71V28ZM49.91,29.26A2.25,2.25,0,1,0,52.16,27a2.25,2.25,0,0,0-2.25,2.25M36.2,28.88V47.52h3.62V40.79l4.57,6.73h4.53l-5.68-8L49,33.13H44.35L39.82,38.4V26.34Z"/></clipPath><linearGradient id="linear-gradient" x1="-138.71" y1="139.86" x2="-138.39" y2="139.86" gradientTransform="matrix(208.8, 0, 0, -208.8, 28964.05, 29240.45)" gradientUnits="userSpaceOnUse"><stop offset="0" stop-color="#c41974"/><stop offset="0.25" stop-color="#ff007f"/><stop offset="1" stop-color="#ff007f"/></linearGradient><clipPath id="clip-path-2"><path class="cls-1" d="M61.2,17.35a20.67,20.67,0,0,0,2.1,9.19l4.22-3a15.48,15.48,0,0,1-1.43-6.69c0-7.22,5.3-12.69,12.1-12.69,6.64,0,10.71,4.68,10.71,10.72,0,5.41-3.6,8.92-8.27,8.92-4.47,0-7.62-3.06-7.62-7.41,0-3.83,2.43-6.4,5.35-6.4,2.2,0,3.4,1,3.4,2.6,0,1.8-1.86,2.8-3.77,2.27l-2,1.42a27.5,27.5,0,0,0,5.78,5.44l2.14-1.49a37.47,37.47,0,0,1-3.44-2.95,4.71,4.71,0,0,0,4.25-4.7c0-3.23-2.3-5.52-6.31-5.52-4.77,0-8.77,3.93-8.77,9.52,0,6.21,4.54,10.8,11.07,10.8C87.9,27.42,93,22,93,14.8,93,6.25,87.07,0,78,0,68.74,0,61.2,7.21,61.2,17.35"/></clipPath><linearGradient id="linear-gradient-2" x1="-139.46" y1="139.98" x2="-139.14" y2="139.98" gradientTransform="matrix(103.63, 0, 0, -103.63, 14511.72, 14520.84)" gradientUnits="userSpaceOnUse"><stop offset="0" stop-color="#ff007f"/><stop offset="0.5" stop-color="#ff007f"/><stop offset="1" stop-color="#ff593d"/></linearGradient></defs><title>Alpha_logo_MASTER_RGB</title><g class="cls-2"><rect class="cls-3" x="0.51" y="7.07" width="72.95" height="60.07" transform="translate(-14.6 27.93) rotate(-35)"/></g><g class="cls-4"><rect class="cls-5" x="56.21" y="-6.64" width="41.78" height="40.7" transform="translate(6.08 46.7) rotate(-35)"/></g></svg>