<?xml version="1.0" encoding="utf-8"?>
<!-- Generator: Adobe Illustrator 13.0.2, SVG Export Plug-In  -->
<!DOCTYPE svg PUBLIC "-//W3C//DTD SVG 1.1//EN" "http://www.w3.org/Graphics/SVG/1.1/DTD/svg11.dtd" [
	<!ENTITY ns_flows "http://ns.adobe.com/Flows/1.0/">
]>
<svg version="1.1"
	 xmlns="http://www.w3.org/2000/svg" xmlns:xlink="http://www.w3.org/1999/xlink" xmlns:a="http://ns.adobe.com/AdobeSVGViewerExtensions/3.0/"
	 x="0px" y="0px" width="199px" height="58px" viewBox="-0.108 -0.527 199 58" enable-background="new -0.108 -0.527 199 58"
	 xml:space="preserve">
<defs>
</defs>
<path fill="#919090" d="M33.923,36.8c0-3.346-2.226-6.059-4.971-6.059s-4.971,2.713-4.971,6.059s2.226,6.058,4.971,6.058
	S33.923,40.146,33.923,36.8"/>
<path fill="#919090" d="M33.923,22.198c0-3.346-2.226-6.059-4.971-6.059s-4.971,2.713-4.971,6.059s2.226,6.058,4.971,6.058
	S33.923,25.543,33.923,22.198"/>
<path fill="#919090" d="M50.477,0.756c-2.994,1.491-4.431,4.692-3.207,7.15s4.645,3.24,7.64,1.749
	c2.994-1.492,4.431-4.693,3.206-7.15C56.892,0.047,53.472-0.735,50.477,0.756"/>
<path fill="#919090" d="M37.407,7.266c-2.995,1.491-4.431,4.693-3.207,7.15c1.224,2.458,4.645,3.24,7.639,1.749
	c2.995-1.492,4.432-4.693,3.207-7.15C43.822,6.557,40.401,5.774,37.407,7.266"/>
<path fill="#29817B" d="M3.722,9.722c3.017,1.447,6.425,0.614,7.612-1.862c1.187-2.475-0.297-5.655-3.313-7.102
	C5.004-0.69,1.596,0.145,0.41,2.62C-0.778,5.095,0.706,8.275,3.722,9.722"/>
<path fill="#919090" d="M16.888,16.036c3.017,1.447,6.425,0.614,7.612-1.861c1.188-2.476-0.297-5.656-3.313-7.103
	c-3.017-1.446-6.425-0.612-7.612,1.862C12.388,11.41,13.872,14.589,16.888,16.036"/>
<path fill="#29817B" d="M67.824,27.895l-1.676,2.308c-2.534-1.72-4.345-2.399-6.743-2.399c-3.622,0-6.474,1.675-7.741,5.251
	c-0.814,2.308-1.222,4.934-1.222,7.875c0,4.074,0.77,7.378,2.173,9.415s4.571,3.305,7.514,3.305c1.946,0,3.621-0.408,4.934-1.223
	v-9.46h-6.246l-0.725-3.077h10.456v14.485c-2.218,1.447-5.567,2.353-8.736,2.353c-3.893,0-7.196-1.357-9.55-3.893
	c-2.626-2.851-3.848-6.699-3.848-12.04c0-5.929,1.539-10.185,4.798-13.036c2.218-1.991,4.889-2.942,8.103-2.942
	C62.618,24.816,65.469,25.858,67.824,27.895"/>
<path fill="#29817B" d="M89.635,51.567l1.358,2.263c-1.992,1.811-4.707,2.808-7.604,2.808c-6.246,0-10.004-4.526-10.004-11.995
	c0-3.803,0.77-6.292,2.717-8.509c1.811-2.127,4.028-3.169,6.744-3.169c2.444,0,4.616,0.86,6.11,2.489
	c1.946,1.992,2.49,4.12,2.58,9.506v0.498H77.459V46c0,2.127,0.271,3.757,1.041,4.933c1.268,1.947,3.35,2.762,5.612,2.762
	C86.287,53.695,88.051,53.015,89.635,51.567 M77.459,42.787h10.32c-0.045-2.444-0.362-3.938-1.041-5.024
	c-0.77-1.223-2.354-1.992-4.074-1.992C79.451,35.77,77.64,38.124,77.459,42.787z"/>
<path fill="#29817B" d="M96.833,34.005l3.439-0.951c0.589,1.268,0.815,2.218,0.815,3.53c2.354-2.354,4.707-3.485,7.107-3.485
	c2.443,0,4.616,1.313,5.521,3.304c0.361,0.815,0.543,1.72,0.543,2.626v17.109h-3.576V40.885c0-2.399-0.135-3.033-0.815-3.757
	c-0.497-0.589-1.447-0.951-2.489-0.951c-1.811,0-4.616,1.448-6.246,3.168v16.793h-3.44V39.346
	C97.692,36.223,97.602,35.725,96.833,34.005"/>
<path fill="#29817B" d="M121.048,33.869l3.439-0.814c0.453,0.905,0.814,2.218,0.814,3.168v0.181
	c1.042-1.086,1.494-1.403,2.762-2.172c1.448-0.86,2.58-1.223,3.803-1.223c1.765,0,3.485,0.906,4.48,2.264
	c0.316,0.453,0.498,0.724,0.771,1.493c2.172-2.308,4.934-3.757,7.241-3.757c3.35,0,5.658,2.535,5.658,6.111v17.02h-3.621V39.482
	c0-2.173-0.996-3.304-2.896-3.304c-1.087,0-2.264,0.453-3.305,1.222c-0.679,0.498-1.448,1.132-2.263,1.901l-0.408,0.362v16.477
	h-3.576V40.116c0-1.946-0.044-2.263-0.633-2.897c-0.543-0.634-1.268-0.906-2.309-0.906c-1.72,0-3.395,0.86-5.748,2.988v16.838
	h-3.396V39.346C121.863,36.223,121.773,35.725,121.048,33.869"/>
<path fill="#29817B" d="M156.354,36.042c2.987-1.992,6.201-3.033,9.459-3.033c3.124,0,5.296,1.223,6.246,3.531
	c0.408,0.996,0.498,1.766,0.498,3.848c0,0.498,0,0.86,0,1.132l-0.181,7.423c-0.045,0.317-0.045,0.679-0.045,1.042
	c0,2.76,0.407,3.756,1.855,4.48L172.376,57c-1.539-0.498-2.671-1.721-3.078-3.305c-2.173,2.172-3.938,3.032-6.518,3.032
	c-2.852,0-4.255-0.724-5.432-1.81c-1.268-1.178-1.811-3.169-1.811-4.617c0-5.115,4.391-8.103,11.95-8.103
	c0.543,0,0.814,0,1.583,0.045v-1.584c0-1.992-0.091-2.806-0.724-3.53c-0.725-0.815-1.63-1.223-3.033-1.223
	c-1.312,0-2.67,0.272-4.345,0.996c-1.358,0.543-1.811,0.86-2.852,1.675L156.354,36.042 M168.981,44.687
	c-0.769-0.045-1.131-0.091-1.765-0.091c-3.439,0-5.341,0.634-6.473,1.811c-0.859,0.905-1.267,2.037-1.267,3.577
	c0,2.67,1.313,4.118,3.893,4.118c2.308,0,4.436-1.403,5.477-3.53L168.981,44.687z"/>
<path fill="#29817B" d="M182.968,23.006c0.453,1.946,0.589,3.259,0.589,5.613v5.024c0,1.132-0.046,2.218-0.091,2.49
	c2.218-2.173,4.073-3.033,6.473-3.033c5.386,0,8.736,4.391,8.736,11.452c0,7.243-3.576,12.131-8.962,12.131
	c-2.354,0-4.934-1.313-6.202-2.987c-0.136,1.177-0.226,1.584-0.634,2.444h-3.53c0.498-1.087,0.679-2.58,0.679-5.612V29.116
	c0-2.398-0.316-4.164-0.904-5.341L182.968,23.006 M183.511,39.256v11.587c1.178,1.539,3.44,2.716,5.567,2.716
	c1.539,0,3.259-0.815,4.074-1.992c0.814-1.222,1.584-3.44,1.584-7.242c0-2.988-0.361-4.752-1.313-6.066
	c-0.86-1.222-2.489-1.946-4.255-1.946c-1.448,0-2.67,0.408-4.073,1.403C184.009,38.486,184.055,38.531,183.511,39.256z"/>
</svg>
