<svg xmlns="http://www.w3.org/2000/svg" xml:space="preserve" viewBox="34.8 30.68 239.5 113.83">
  <path d="M73.8 129.7v-1.8h13.1v1.8h-5.5v14.4h-2v-14.4zm28.8 7.1h-9.3v7.3h-2v-16.2h2v7h9.3v-7h2v16.2h-2zm8.3-8.9h11.4v1.9h-9.4v5.1h9v1.9h-9v5.5h9.8v1.9h-11.8zm23 10.4H130v5.8h-2v-16.2h7.4c3.7 0 5.5 2.5 5.5 5.2 0 2.5-1.3 4.7-4.7 5l5.3 6H139zm4.8-5.1c0-1.6-1.1-3.4-3.5-3.4h-5.3v6.8h5.3c2.4-.1 3.5-1.6 3.5-3.4m15.4-5.3 7.3 16.2h-2.2l-1.6-3.6h-9.3l-1.6 3.6h-2.2l7.3-16.2zM153 130l-3.8 8.7h7.7zm14.9 14.1h-2v-16.2h7.4c7.5 0 7.5 10.9 0 11h-5.4zm5.4-14.3h-5.4v7.2h5.4c4.7 0 4.7-7.2 0-7.2m10.4-1.9h11.4v1.9h-9.4v5.1h9v1.9h-9v5.5h9.8v1.9h-11.8zm30.1.1v9.7c0 4.5-3 6.8-6.6 6.8-3.4 0-6.6-2.2-6.6-6.8V128h2v9.7c0 3.2 2.2 4.9 4.7 4.9s4.6-1.8 4.6-4.9V128zm4.3 1.7v-1.8h13.1v1.8h-5.5v14.4h-2v-14.4zm17.6-1.8h2v16.2h-2zm15.7 16.5c-5.7 0-8.4-4-8.4-8.3s2.8-8.4 8.4-8.4c2.2 0 4.3.8 5.9 2.4l-1.4 1.3c-1.2-1.2-2.9-1.8-4.5-1.8-4.4 0-6.5 3.1-6.4 6.5 0 3.3 2.1 6.4 6.4 6.4 1.6 0 3.4-.6 4.6-1.9l1.4 1.4c-1.6 1.6-3.8 2.4-6 2.4m16.4-15c-2.1 0-4.3.8-4.3 2.8 0 1.8 2 2.3 4.4 2.7 3.2.5 6.4 1.2 6.4 4.8s-3.5 4.8-6.6 4.8c-2.9 0-5.6-1-6.9-3.8l1.7-1c1 1.9 3.2 2.8 5.2 2.8s4.6-.6 4.6-3c0-2-2.2-2.6-4.7-3-3.1-.5-6.2-1.2-6.2-4.5 0-3.4 3.4-4.5 6.2-4.5 2.4 0 4.7.5 6.1 2.9l-1.5.9c-.7-1.2-2.6-1.9-4.4-1.9" style="fill:#b3b2b2"/>
  <path d="M96.9 64.7c9.6 0 17.7 4.8 17.7 14.8 0 4.8-2.8 8.9-7.8 10.9 6.4 1.8 9.5 7.7 9.5 12.6 0 11.2-9.4 14.6-19.4 14.6H73.8V64.7zM80.4 87.4h16.8c6.3 0 10.9-2.3 10.9-7.8 0-5.9-4.8-8.9-11.2-8.9H80.4zm0 23.9h16.5c5.5 0 12.8-1.4 12.8-8.6-.1-6.6-6.8-9.4-12.5-9.4H80.4zm77.6.3c-3.8 4.5-10.3 6.6-16.1 6.6-11.5 0-19.6-7.6-19.6-19.5 0-11.2 8.1-19.3 19.3-19.3 11.4 0 20.1 7 18.6 21.9h-31.7c.7 6.9 6.3 11.2 13.5 11.2 4.2 0 9.4-1.7 11.8-4.7zm-3.6-15.4c-.3-7.2-5.3-11.2-12.6-11.2-6.5 0-12.1 3.9-13.2 11.1zm45.1 21.5-.2-6.8c-2.9 5.1-8.6 7.5-13.7 7.5-10.7 0-19.1-7.4-19.1-19.5s8.5-19.3 19.2-19.2c5.6 0 11.1 2.6 13.8 7.4l.1-6.8h6v37.3h-6zm-13.6-32.2c-7.4 0-13.4 5.3-13.4 13.6s6 13.7 13.4 13.7c18 0 18-27.3 0-27.3m30-5.2h5.7l.4 5.4c2.3-4.4 6.8-6.1 11-6.1 5.1 0 10.4 2.2 12.5 8.1 2.7-5.7 7.8-8.1 13.1-8.1 9.8 0 15.7 6.4 15.7 16.6v21.3h-6.2V96.3c0-6.1-3.5-10.8-9.7-10.8-6.1 0-10.2 4.8-10.2 10.9v21.1H242V96.4c0-6.1-3.8-10.9-10-10.9-6.1 0-10.1 4.8-10.1 10.9v21.1h-6.2z" style="fill:#64666a"/>
  <linearGradient id="a" gradientUnits="userSpaceOnUse" x1="134.613" y1="238.236" x2="70.704" y2="191.288" gradientTransform="matrix(.9972 .07448 .07448 -.9972 -45.79 246.953)">
    <stop offset="0" style="stop-color:#fed900"/>
    <stop offset=".125" style="stop-color:#d9cf24"/>
    <stop offset=".384" style="stop-color:#93be6d"/>
    <stop offset=".504" style="stop-color:#77b88b"/>
    <stop offset=".641" style="stop-color:#62b894"/>
    <stop offset=".87" style="stop-color:#42b8a2"/>
    <stop offset="1" style="stop-color:#39b9a7"/>
  </linearGradient>
  <path d="m74.7 47.7-2-14.4c-2.3.7-4.5 1.6-6.6 2.6z" style="fill:url(#a)"/>
  <linearGradient id="b" gradientUnits="userSpaceOnUse" x1="135.508" y1="237.017" x2="71.599" y2="190.069" gradientTransform="matrix(.9972 .07448 .07448 -.9972 -45.79 246.953)">
    <stop offset="0" style="stop-color:#fed900"/>
    <stop offset=".125" style="stop-color:#d9cf24"/>
    <stop offset=".384" style="stop-color:#93be6d"/>
    <stop offset=".504" style="stop-color:#77b88b"/>
    <stop offset=".641" style="stop-color:#62b894"/>
    <stop offset=".87" style="stop-color:#42b8a2"/>
    <stop offset="1" style="stop-color:#39b9a7"/>
  </linearGradient>
  <path style="fill:url(#b)" d="m58.5 59.6-8.7-11.7c-1.6 1.7-3.2 3.6-4.6 5.5z"/>
  <path d="m68.4 56-10-24.5c-3.7 2.3-7.2 4.9-10.5 7.6z" style="fill:#5eb997"/>
  <path d="m126.3 67.8 14.4-2.9c-.9-2.2-1.9-4.4-3.1-6.4z" style="fill:#f9da04"/>
  <linearGradient id="c" gradientUnits="userSpaceOnUse" x1="142.667" y1="227.272" x2="78.758" y2="180.324" gradientTransform="matrix(.9972 .07448 .07448 -.9972 -45.79 246.953)">
    <stop offset="0" style="stop-color:#fed900"/>
    <stop offset=".125" style="stop-color:#d9cf24"/>
    <stop offset=".384" style="stop-color:#93be6d"/>
    <stop offset=".504" style="stop-color:#77b88b"/>
    <stop offset=".641" style="stop-color:#62b894"/>
    <stop offset=".87" style="stop-color:#42b8a2"/>
    <stop offset="1" style="stop-color:#39b9a7"/>
  </linearGradient>
  <path style="fill:url(#c)" d="m50 77.9-13.4-6.2c-.6 2.3-1.1 4.7-1.4 7.1z"/>
  <linearGradient id="d" gradientUnits="userSpaceOnUse" x1="138.333" y1="233.172" x2="74.424" y2="186.224" gradientTransform="matrix(.9972 .07448 .07448 -.9972 -45.79 246.953)">
    <stop offset="0" style="stop-color:#fed900"/>
    <stop offset=".125" style="stop-color:#d9cf24"/>
    <stop offset=".384" style="stop-color:#93be6d"/>
    <stop offset=".504" style="stop-color:#77b88b"/>
    <stop offset=".641" style="stop-color:#62b894"/>
    <stop offset=".87" style="stop-color:#42b8a2"/>
    <stop offset="1" style="stop-color:#39b9a7"/>
  </linearGradient>
  <path style="fill:url(#d)" d="M53.1 68.2 41.7 59c-1.2 2.1-2.2 4.3-3.1 6.5z"/>
  <linearGradient id="e" gradientUnits="userSpaceOnUse" x1="150.879" y1="216.093" x2="86.97" y2="169.145" gradientTransform="matrix(.9972 .07448 .07448 -.9972 -45.79 246.953)">
    <stop offset="0" style="stop-color:#fed900"/>
    <stop offset=".125" style="stop-color:#d9cf24"/>
    <stop offset=".384" style="stop-color:#93be6d"/>
    <stop offset=".504" style="stop-color:#77b88b"/>
    <stop offset=".641" style="stop-color:#62b894"/>
    <stop offset=".87" style="stop-color:#42b8a2"/>
    <stop offset="1" style="stop-color:#39b9a7"/>
  </linearGradient>
  <path style="fill:url(#e)" d="m113.4 52.4 11.1-9.4c-1.8-1.5-3.8-2.9-5.8-4.1z"/>
  <linearGradient id="f" gradientUnits="userSpaceOnUse" x1="136.476" y1="235.699" x2="72.567" y2="188.751" gradientTransform="matrix(.9972 .07448 .07448 -.9972 -45.79 246.953)">
    <stop offset="0" style="stop-color:#fed900"/>
    <stop offset=".125" style="stop-color:#d9cf24"/>
    <stop offset=".384" style="stop-color:#93be6d"/>
    <stop offset=".504" style="stop-color:#77b88b"/>
    <stop offset=".641" style="stop-color:#62b894"/>
    <stop offset=".87" style="stop-color:#42b8a2"/>
    <stop offset="1" style="stop-color:#39b9a7"/>
  </linearGradient>
  <path style="fill:url(#f)" d="m84.5 45.1 1.7-14.4c-2.4.2-4.7.5-7 .9z"/>
  <linearGradient id="g" gradientUnits="userSpaceOnUse" x1="144.869" y1="224.275" x2="80.959" y2="177.327" gradientTransform="matrix(.9972 .07448 .07448 -.9972 -45.79 246.953)">
    <stop offset="0" style="stop-color:#fed900"/>
    <stop offset=".125" style="stop-color:#d9cf24"/>
    <stop offset=".384" style="stop-color:#93be6d"/>
    <stop offset=".504" style="stop-color:#77b88b"/>
    <stop offset=".641" style="stop-color:#62b894"/>
    <stop offset=".87" style="stop-color:#42b8a2"/>
    <stop offset="1" style="stop-color:#39b9a7"/>
  </linearGradient>
  <path style="fill:url(#g)" d="m106.2 33.2-1.8 14.4 8.4-11.8c-2.1-1.1-4.3-1.9-6.6-2.6"/>
  <linearGradient id="h" gradientUnits="userSpaceOnUse" x1="148.263" y1="219.654" x2="84.354" y2="172.707" gradientTransform="matrix(.9972 .07448 .07448 -.9972 -45.79 246.953)">
    <stop offset="0" style="stop-color:#fed900"/>
    <stop offset=".125" style="stop-color:#d9cf24"/>
    <stop offset=".384" style="stop-color:#93be6d"/>
    <stop offset=".504" style="stop-color:#77b88b"/>
    <stop offset=".641" style="stop-color:#62b894"/>
    <stop offset=".87" style="stop-color:#42b8a2"/>
    <stop offset="1" style="stop-color:#39b9a7"/>
  </linearGradient>
  <path style="fill:url(#h)" d="m49.4 88-14.6-2.6c0 2.5.1 4.9.4 7.3z"/>
  <linearGradient id="i" gradientUnits="userSpaceOnUse" x1="158.07" y1="206.304" x2="94.161" y2="159.356" gradientTransform="matrix(.9972 .07448 .07448 -.9972 -45.79 246.953)">
    <stop offset="0" style="stop-color:#fed900"/>
    <stop offset=".125" style="stop-color:#d9cf24"/>
    <stop offset=".384" style="stop-color:#93be6d"/>
    <stop offset=".504" style="stop-color:#77b88b"/>
    <stop offset=".641" style="stop-color:#62b894"/>
    <stop offset=".87" style="stop-color:#42b8a2"/>
    <stop offset="1" style="stop-color:#39b9a7"/>
  </linearGradient>
  <path style="fill:url(#i)" d="M133.9 53c-1.4-1.9-2.9-3.7-4.6-5.5l-8.5 11.8z"/>
  <linearGradient id="j" gradientUnits="userSpaceOnUse" x1="154.846" y1="210.693" x2="90.937" y2="163.745" gradientTransform="matrix(.9972 .07448 .07448 -.9972 -45.79 246.953)">
    <stop offset="0" style="stop-color:#fed900"/>
    <stop offset=".125" style="stop-color:#d9cf24"/>
    <stop offset=".384" style="stop-color:#93be6d"/>
    <stop offset=".504" style="stop-color:#77b88b"/>
    <stop offset=".641" style="stop-color:#62b894"/>
    <stop offset=".87" style="stop-color:#42b8a2"/>
    <stop offset="1" style="stop-color:#39b9a7"/>
  </linearGradient>
  <path style="fill:url(#j)" d="m51.4 98-14.9 1.1c.6 2.4 1.4 4.7 2.3 7z"/>
  <linearGradient id="k" gradientUnits="userSpaceOnUse" x1="139.997" y1="230.907" x2="76.087" y2="183.96" gradientTransform="matrix(.9972 .07448 .07448 -.9972 -45.79 246.953)">
    <stop offset="0" style="stop-color:#fed900"/>
    <stop offset=".125" style="stop-color:#d9cf24"/>
    <stop offset=".384" style="stop-color:#93be6d"/>
    <stop offset=".504" style="stop-color:#77b88b"/>
    <stop offset=".641" style="stop-color:#62b894"/>
    <stop offset=".87" style="stop-color:#42b8a2"/>
    <stop offset="1" style="stop-color:#39b9a7"/>
  </linearGradient>
  <path style="fill:url(#k)" d="m94.6 45.1 5.2-13.5c-1.2-.2-2.3-.4-3.5-.5s-2.4-.2-3.5-.3z"/>
  <path d="m62.2 114.9-12.6 8.2c1.7 1.8 3.5 3.5 5.4 5z" style="fill:#39b9a7"/>
  <linearGradient id="l" gradientUnits="userSpaceOnUse" x1="162.907" y1="199.72" x2="98.998" y2="152.772" gradientTransform="matrix(.9972 .07448 .07448 -.9972 -45.79 246.953)">
    <stop offset="0" style="stop-color:#fed900"/>
    <stop offset=".125" style="stop-color:#d9cf24"/>
    <stop offset=".384" style="stop-color:#93be6d"/>
    <stop offset=".504" style="stop-color:#77b88b"/>
    <stop offset=".641" style="stop-color:#62b894"/>
    <stop offset=".87" style="stop-color:#42b8a2"/>
    <stop offset="1" style="stop-color:#39b9a7"/>
  </linearGradient>
  <path style="fill:url(#l)" d="m55.7 107.1-14.2 4.8c1.2 2.2 2.5 4.2 4 6.2z"/>
</svg>