<?xml version="1.0" encoding="UTF-8" standalone="no"?>
<!-- Created with Inkscape (http://www.inkscape.org/) -->

<svg
   xmlns:dc="http://purl.org/dc/elements/1.1/"
   xmlns:cc="http://creativecommons.org/ns#"
   xmlns:rdf="http://www.w3.org/1999/02/22-rdf-syntax-ns#"
   xmlns:svg="http://www.w3.org/2000/svg"
   xmlns="http://www.w3.org/2000/svg"
   xmlns:sodipodi="http://sodipodi.sourceforge.net/DTD/sodipodi-0.dtd"
   xmlns:inkscape="http://www.inkscape.org/namespaces/inkscape"
   width="116.90001"
   height="58.900021"
   viewBox="0 0 30.929794 15.583964"
   version="1.1"
   id="svg6530"
   inkscape:version="0.92.0 r15299"
   sodipodi:docname="csl.svg">
  <defs
     id="defs6524" />
  <sodipodi:namedview
     id="base"
     pagecolor="#ffffff"
     bordercolor="#666666"
     borderopacity="1.0"
     inkscape:pageopacity="0.0"
     inkscape:pageshadow="2"
     inkscape:zoom="6.919758"
     inkscape:cx="57.950003"
     inkscape:cy="28.950009"
     inkscape:document-units="mm"
     inkscape:current-layer="layer1"
     showgrid="false"
     fit-margin-top="0"
     fit-margin-left="0"
     fit-margin-right="0"
     fit-margin-bottom="0"
     units="px"
     inkscape:window-width="1280"
     inkscape:window-height="744"
     inkscape:window-x="-4"
     inkscape:window-y="-4"
     inkscape:window-maximized="1" />
  <metadata
     id="metadata6527">
    <rdf:RDF>
      <cc:Work
         rdf:about="">
        <dc:format>image/svg+xml</dc:format>
        <dc:type
           rdf:resource="http://purl.org/dc/dcmitype/StillImage" />
        <dc:title></dc:title>
      </cc:Work>
    </rdf:RDF>
  </metadata>
  <g
     inkscape:label="Layer 1"
     inkscape:groupmode="layer"
     id="layer1"
     transform="translate(286.71951,-254.30192)">
    <path
       id="path6534"
       d="m -275.71284,265.73192 0.15875,3.43958 c -1.24355,0.37042 -2.51355,0.58209 -3.65125,0.58209 -4.28625,0 -7.38188,-2.56646 -7.38188,-7.75229 0.0529,-4.39209 2.54,-7.56709 7.38188,-7.56709 1.93145,0 3.22791,0.52917 3.57187,0.68792 l -0.21167,3.25437 c -0.47625,-0.26458 -1.64041,-0.84666 -2.88395,-0.84666 -2.54,0 -3.73063,1.64041 -3.73063,4.52437 0,2.54 1.40229,4.49792 3.88938,4.49792 1.4552,0 2.48708,-0.58208 2.8575,-0.82021 z m 8.17562,-4.65667 -1.77271,-0.79375 c -1.32291,-0.58208 -1.69333,-0.92604 -1.69333,-1.69333 0,-0.89958 0.71437,-1.40229 1.905,-1.40229 1.13771,0 2.35479,0.37042 3.04271,0.74083 l 0.15875,-2.91041 c -1.19063,-0.47625 -2.59292,-0.58209 -3.70417,-0.58209 -3.14854,0 -5.37104,1.5875 -5.37104,4.39209 0,2.0902 0.74083,3.41312 3.175,4.36562 l 0.87312,0.34396 c 1.13771,0.44979 1.79917,0.71437 1.79917,1.69333 0,0.92604 -0.52917,1.5875 -2.03729,1.5875 -1.42875,0 -2.8575,-0.60854 -3.33375,-0.89958 l -0.23813,3.22792 c 0.74084,0.1852 2.16959,0.58208 3.9423,0.58208 3.43958,0 5.76791,-1.64042 5.76791,-4.89479 0,-2.19604 -1.16416,-3.14854 -2.51354,-3.75709 z m 7.27604,5.3975 V 254.6988 h -3.96875 v 14.7902 h 8.30792 v -3.01625 z m 2.03729,-11.35062 v 0 l 0.26459,0.79375 h 0.26458 l 0.26458,-0.79375 v 0 0.79375 h 0.3175 v -1.21708 h -0.44979 l -0.26458,0.71437 v 0 l -0.26458,-0.71437 h -0.47625 v 1.21708 h 0.3175 v -0.79375 z m -1.1377,0.79375 h 0.3175 v -0.9525 h 0.34395 v -0.26458 h -1.00541 v 0.26458 h 0.34396 z"
       class="st0"
       inkscape:connector-curvature="0"
       style="fill:#fc211a;stroke-width:0.26458332" />
  </g>
  <style
     id="style6532"
     type="text/css">
	.st0{fill:#FC211A;}
</style>
</svg>
