<svg height="329.535658" viewBox="0 0 332.24 360.81" width="303.457297" xmlns="http://www.w3.org/2000/svg"><path d="m283.13 185.06h-10.86v16.15h10.86a8.08 8.08 0 1 0 0-16.15zm-271.43 70.94h320.51v76.22h-332.21v-76.22-256h332.24v234.32h-11.67c-10.95 0-20.3-1-29.64-10.67l-11.21-11.65h-7.45v21.54h-11.67v-59.25h23.6a18.83 18.83 0 0 1 19 18.85 18.63 18.63 0 0 1 -9.6 16.42l5.92 6.1c7.54 7.81 16.8 8 21 8v-212h-308.82zm223-44h-11.97v21.54h-11.67v-59.25h23.61a18.85 18.85 0 1 1 0 37.69zm-1.08-26.92h-10.89v16.15h10.86a8.08 8.08 0 1 0 0-16.15zm-67.13 41.82 6.47-8.62c5.29 4.13 9.51 4.94 12.2 4.94 4.49 0 6.55-2.42 6.55-5.47 0-9.61-23.33-9.25-23.33-27.47 0-10.32 8.61-16.87 17.5-16.87 5.56 0 11.39 1.26 16.42 6.37l-6.91 8.8a14.8 14.8 0 0 0 -9.43-3.95 5.19 5.19 0 0 0 -5.47 5.12c0 8.7 23.33 8.88 23.33 27.19 0 10.41-8.16 17.5-19.74 17.5-6.91 0-14.27-3.5-17.59-7.54zm-6.73-52.59v59.23h-11.69v-59.25zm-57.46 10.75h-10.86v16.15h10.86a8.08 8.08 0 1 0 0-16.15zm7.81 38.59-11.22-11.65h-7.45v21.54h-11.66v-59.25h23.6a18.82 18.82 0 0 1 19 18.85 18.63 18.63 0 0 1 -9.6 16.42l5.92 6.1c7.54 7.81 16.78 8 21 8v10.77c-10.95 0-20.28-1.08-29.61-10.77zm-90-19.74a30.53 30.53 0 0 1 52.5-21.19l-8.35 7.72a18.6 18.6 0 0 0 -13.64-5.83c-10.68 0-18.85 8.62-18.85 19.3s8.17 19.29 18.85 19.29a18.6 18.6 0 0 0 13.64-5.83l8.35 7.72a30.53 30.53 0 0 1 -52.5-21.18z" fill="#231f20"/><g fill="#fff"><path d="m24.61 285.22h6.97v22.2h5.14v-22.2h7.01v-4.38h-19.12z"/><path d="m55.06 280.84h-5.1v26.58h5.1v-11.72h10.56v11.72h5.1v-26.58h-5.1v10.59h-10.56z"/><path d="m82.99 285.22h11.59v-4.38h-16.69v26.58h17.13v-4.35h-12.03v-7.25h10.56v-4.35h-10.56z"/><path d="m101.66 307.42h5.1v-10.13h3.67l5.46 10.13h5.94l-6.14-11a7.52 7.52 0 0 0 4.7-7.37 7.66 7.66 0 0 0 -3.78-6.9c-1.8-1-3.63-1.27-8.33-1.27h-6.62v26.58zm5.1-22.2h1.48c3.47 0 4.18.08 5.26.67a3.49 3.49 0 0 1 1.71 3.12c0 2.95-1.63 3.9-6.57 3.9h-1.88z" fill-rule="evenodd"/><path d="m125.18 307.42h5.22l1.68-5.54h9.36l1.63 5.54h5.31l-9-26.58h-5.18l-9 26.58zm8.17-9.89 3.39-10.84 3.43 10.84z" fill-rule="evenodd"/><path d="m153.14 307.42h5.18v-9.93h1.55a26.23 26.23 0 0 0 6.78-.56c3.19-.91 5.22-3.86 5.22-7.65a7.73 7.73 0 0 0 -7.65-8.25c-1.4-.11-2.51-.19-4.86-.19h-6.22zm5.1-22.2h1.87c4.94 0 6.54 1 6.54 4 0 2.76-1.6 3.91-5.38 3.91h-3v-7.93z" fill-rule="evenodd"/><path d="m182.34 285.22h11.6v-4.38h-16.7v26.58h17.14v-4.35h-12.04v-7.25h10.56v-4.35h-10.56z"/><path d="m199.55 296.18c0 3.86.2 5.14 1 6.81 1.56 3.15 5 4.95 9.49 4.95s8-1.8 9.48-4.95c.84-1.67 1-2.95 1-6.81v-15.34h-5.1v15.26a23.35 23.35 0 0 1 -.12 2.87c-.28 2.95-2.15 4.54-5.3 4.54a5.08 5.08 0 0 1 -4.51-2.07c-.75-1.12-.87-2.07-.87-5.34v-15.26h-5.14v15.34z"/><path d="m226.38 285.22h6.97v22.2h5.14v-22.2h7.01v-4.38h-19.12z"/><path d="m257.02 280.84h-5.1v26.58h5.1z"/><path d="m274.93 280.36c-7.06 0-11.72 5.5-11.72 13.83s4.7 13.75 12 13.75c5.94 0 9.17-3.51 9.49-10.36h-4.58c-.32 4-2 5.93-5.07 5.93-4 0-6.45-3.55-6.45-9.32s2.47-9.45 6.42-9.45c2.71 0 4.42 1.68 4.94 4.75h4.38c-.36-5.87-3.71-9.13-9.36-9.13z"/><path d="m307.65 284.94c-1.36-2.87-4.5-4.58-8.37-4.58-5.34 0-9 3.19-9 7.77a6.88 6.88 0 0 0 1.35 4.22c1 1.4 2.47 2.32 6 3.79l3.27 1.35c2.23 1 3.14 1.88 3.14 3.19 0 1.68-1.71 2.83-4.22 2.83-3.31 0-5.14-1.72-5.46-5.14h-4.94c.24 6.26 3.83 9.57 10.36 9.57 5.82 0 9.49-3.2 9.49-8.17a7 7 0 0 0 -1.2-4.19 6.36 6.36 0 0 0 -1.75-1.67 10.92 10.92 0 0 0 -2.24-1.2c-.39-.2-1.39-.6-3-1.24l-2.56-1c-2.39-1-3.14-1.67-3.14-2.87 0-1.63 1.67-2.87 3.86-2.87a4 4 0 0 1 4.35 3.91h4.9a8.28 8.28 0 0 0 -.8-3.71z"/></g><path d="m323.89 344.1a8.56 8.56 0 0 1 4.11 1.08 7.61 7.61 0 0 1 3.12 3.09 8.39 8.39 0 0 1 0 8.34 7.87 7.87 0 0 1 -3.09 3.1 8.42 8.42 0 0 1 -8.32 0 7.87 7.87 0 0 1 -3.09-3.1 8.39 8.39 0 0 1 -1.11-4.15 8.48 8.48 0 0 1 1.13-4.19 7.73 7.73 0 0 1 3.12-3.09 8.59 8.59 0 0 1 4.13-1.08zm0 1.39a7.11 7.11 0 0 0 -3.42.9 6.42 6.42 0 0 0 -2.61 2.58 7 7 0 0 0 0 6.95 6.49 6.49 0 0 0 2.59 2.58 6.92 6.92 0 0 0 6.93 0 6.41 6.41 0 0 0 2.58-2.58 7 7 0 0 0 0-6.95 6.36 6.36 0 0 0 -2.61-2.58 7.11 7.11 0 0 0 -3.46-.9zm-3.66 11.59v-9h3.09a7.42 7.42 0 0 1 2.29.25 2.17 2.17 0 0 1 1.13.87 2.29 2.29 0 0 1 .42 1.31 2.44 2.44 0 0 1 -.7 1.72 2.77 2.77 0 0 1 -1.87.82 2.25 2.25 0 0 1 .76.48 9.29 9.29 0 0 1 1.33 1.78l1.1 1.76h-1.78l-.8-1.42a7.21 7.21 0 0 0 -1.52-2.09 1.82 1.82 0 0 0 -1.16-.31h-.85v3.82zm1.45-5.06h1.76a2.85 2.85 0 0 0 1.72-.38 1.29 1.29 0 0 0 .24-1.71 1.29 1.29 0 0 0 -.62-.47 4.64 4.64 0 0 0 -1.45-.15h-1.65z" fill="#231f20"/></svg>