<?xml version="1.0" encoding="UTF-8" standalone="no"?>
<!-- Created with Inkscape (http://www.inkscape.org/) -->

<svg
   xmlns:dc="http://purl.org/dc/elements/1.1/"
   xmlns:cc="http://creativecommons.org/ns#"
   xmlns:rdf="http://www.w3.org/1999/02/22-rdf-syntax-ns#"
   xmlns:svg="http://www.w3.org/2000/svg"
   xmlns="http://www.w3.org/2000/svg"
   version="1.1"
   width="715.74799"
   height="246.96849"
   id="svg3320">
  <defs
     id="defs3322" />
  <metadata
     id="metadata3325">
    <rdf:RDF>
      <cc:Work
         rdf:about="">
        <dc:format>image/svg+xml</dc:format>
        <dc:type
           rdf:resource="http://purl.org/dc/dcmitype/StillImage" />
        <dc:title></dc:title>
      </cc:Work>
    </rdf:RDF>
  </metadata>
  <g
     transform="translate(-21.204457,-449.52686)"
     id="layer1">
    <g
       transform="matrix(5.2626217,0,0,5.2626217,-1334.0806,-2076.457)"
       id="g3363">
      <path
         d="m 352.13807,524.61318 -2.925,0 0,0.9 8.925,0 0,-0.9 -2.4,0 0,-15.675 -0.3,0.3 -0.375,0.225 -0.75,0.225 -0.825,0.15 -3.825,0 0,0.9 2.475,0 0,13.875"
         id="path3265"
         style="fill:#14315d;fill-opacity:1;fill-rule:nonzero;stroke:none" />
      <path
         d="m 295.43807,524.61318 -3,0 0,0.9 8.925,0 0,-0.9 -2.4,0 0,-15.675 -0.3,0.3 -0.375,0.225 -0.75,0.225 -0.825,0.15 -3.9,0 0,0.9 2.625,0 0,13.875"
         id="path3267"
         style="fill:#14315d;fill-opacity:1;fill-rule:nonzero;stroke:none" />
      <path
         d="m 362.56308,524.61318 -2.85,0 0,0.9 9.075,0 0,-0.9 -2.625,0 0,-13.875 6.45,0 0,13.875 -2.4,0 0,0.9 8.85,0 0,-0.9 -2.925,0 0,-15.675 -0.225,0.3 -0.375,0.225 -0.825,0.225 -0.9,0.15 -7.65,0 c 0.3875,-3.22625 -0.99375,-7.7725 1.8,-10.35 l 0.525,-0.375 0.45,-0.3 0.525,-0.15 0.6,-0.075 0.6,-0.15 0.75,-0.075 0.6,0 0.525,0.075 0.45,0.225 0.375,0.15 0.375,0.225 0.225,0.15 0.15,0.3 0.075,0.225 -0.075,0.225 -0.15,0.225 -0.45,0.225 -0.375,0.3 c -1.0775,0.9475 -0.635,2.22 0.525,2.775 1.05,0.54 2.2375,-0.2675 2.625,-1.275 0.73375,-2.45625 -1.665,-4.3775 -3.9,-4.65 -7.825,-0.96875 -10.445,5.6875 -9.825,12.3 l -3.225,0 0,0.9 3.225,0 0,13.875"
         id="path3269"
         style="fill:#14315d;fill-opacity:1;fill-rule:nonzero;stroke:none" />
      <path
         d="m 267.38807,514.11318 c 7.1675,0.87625 7.74625,10.06375 0.3,10.95 -5.23375,0.2725 -7.9975,-4.19625 -8.4,-8.925 l -0.975,0 0,9.675 0.975,0 0.15,-0.525 0.15,-0.375 0.3,-0.225 0.525,-0.075 c 1.36,0.12 2.95,0.8825 4.275,1.275 2.72,0.5075 5.85875,0.29875 8.1,-1.5 3.515,-2.7525 3.79,-9.78625 0.15,-12.525 -4.3625,-3.49125 -15.58625,-1.97375 -11.7,-10.725 4.625,-4.905 11.30625,-0.28875 11.7,5.775 l 0.975,0 0,-7.95 -0.9,0 c -0.6125,3.53625 -7.58875,-5.36375 -13.575,2.1 -1.56125,2.23375 -1.36625,4.8 -0.9,7.35 1.55625,4.115 4.9275,4.69125 8.85,5.7"
         id="path3271"
         style="fill:#14315d;fill-opacity:1;fill-rule:nonzero;stroke:none" />
      <path
         d="m 339.98807,522.51318 0.075,0.975 0.225,0.75 0.375,0.6 0.525,0.45 0.525,0.375 0.75,0.3 0.9,0.075 c 2.0025,0.44 4.3025,-0.415 5.1,-2.475 l -0.75,-0.45 -0.375,0.6 -0.6,0.6 -0.225,0.15 -0.375,0.225 -0.375,0.15 -0.825,0 -0.3,-0.075 -0.375,-0.075 -0.15,-0.225 -0.3,-0.225 -0.075,-0.375 -0.15,-0.525 -0.075,-0.45 0,-12.15 4.2,0 0,-0.9 -4.2,0 0,-4.8 -0.675,0 c -0.4625,3.45375 -2.3925,4.93 -5.85,4.8 l 0,0.9 3,0 0,11.775"
         id="path3273"
         style="fill:#14315d;fill-opacity:1;fill-rule:nonzero;stroke:none" />
      <path
         d="m 328.66307,524.61318 2.55,0 0,-12.3 -0.15,-0.525 -0.225,-0.525 -0.225,-0.225 -0.375,-0.3 -0.375,-0.225 -0.45,-0.15 c -2.325,-0.225 -4.15375,1.58625 -5.325,3.375 l 0,10.875 2.7,0 0,0.9 -9.15,0 0,-0.9 2.775,0 0,-13.875 -2.775,0 0,-0.9 4.125,0 0.9,-0.15 0.375,-0.075 0.375,-0.075 0.6,-0.6 0,3.225 c 1.70625,-2.26 4.07375,-3.62625 6.975,-3.075 l 0.975,0.225 0.975,0.525 0.6,0.6 0.6,0.675 0.375,0.825 0.225,0.9 0.15,0.975 0,10.8 2.775,0 0,0.9 -9,0 0,-0.9"
         id="path3275"
         style="fill:#14315d;fill-opacity:1;fill-rule:nonzero;stroke:none" />
      <path
         d="m 290.41307,520.33818 c -0.7875,3.65875 -4.87125,6.175 -7.95,3.3 l -0.375,-0.75 -0.375,-0.9 -0.15,-1.05 0,-6.15 0.15,-1.05 c 0.36875,-1.44625 1.33875,-3.2775 3,-3.45 1.00875,-0.375 2.55875,-0.15 3.375,0.6 l 0.15,0.225 0.225,0.3 0,0.525 -0.15,0.225 -0.375,0.3 -0.225,0.525 c -0.855,1.8225 1.77875,2.9875 2.925,1.65 3.55,-5.8175 -12.02375,-9.17125 -12.975,2.1 -1.36125,10.465 11.86625,13.175 13.65,3.6 l -0.9,0"
         id="path3277"
         style="fill:#14315d;fill-opacity:1;fill-rule:nonzero;stroke:none" />
      <path
         d="m 391.81308,520.33818 c -0.57625,3.8025 -5.135,6.04625 -7.8,3.225 l -0.525,-0.75 -0.225,-0.825 -0.225,-1.125 -0.075,-1.2 0,-3.6 0.075,-1.275 0.225,-1.05 c 0.13625,-1.64875 1.375,-3.1075 2.925,-3.6 1.7575,-0.11875 1.80125,-0.065 3.375,0.675 l 0.225,0.3 0.15,0.3 0,0.45 -0.075,0.3 -0.375,0.3 -0.3,0.525 c -0.43125,0.5925 -0.0325,1.6275 0.6,1.95 l 0.225,0.075 0.375,0.15 0.375,0 0.75,-0.15 0.3,-0.225 0.3,-0.15 c 2.3275,-3.44375 -3.1775,-6.08 -6,-5.4 -3.98375,0.31875 -6.67875,3.565 -7.05,7.425 -1.2275,9.76625 11.22625,13.7425 13.8,3.675 l -1.05,0"
         id="path3279"
         style="fill:#14315d;fill-opacity:1;fill-rule:nonzero;stroke:none" />
      <path
         d="m 315.38807,520.18818 c -0.21875,2.15375 -2.36625,4.87625 -4.725,4.65 -4.7225,0.30875 -4.1975,-5.6125 -4.05,-8.625 l 10.05,0 c 0.50625,-3.19375 -2.215,-6.2575 -5.25,-6.9 -3.59875,-0.8775 -7.17625,1.7325 -8.25,5.1 -1.21375,3.58125 -0.4825,7.98375 2.55,10.425 4.415,2.86375 9.895,0.75125 10.65,-4.65 l -0.975,0 z m -2.325,-5.175 0,0.15 -0.15,0.15 -6.15,0 c -0.965,-6.89375 7.2175,-7.085 6.3,-0.3"
         id="path3281"
         style="fill:#14315d;fill-opacity:1;fill-rule:nonzero;stroke:none" />
      <path
         d="m 281.93807,481.56318 c 8.78125,-1.00625 8.48375,10.45625 0,9.375 l 0,-9.375 z m -3.75,21.075 -2.4,0 0,0.975 c 4.9725,-0.17125 16.12,2.1525 17.325,-5.7 0.28625,-4.13625 -2.47125,-6.03 -6.375,-6.45 l 0,-0.15 c 3.61625,-0.24375 5.97625,-3.065 5.25,-6.6 l -0.075,-0.45 -0.3,-0.6 -0.3,-0.375 -0.3,-0.45 -0.375,-0.375 -0.9,-0.75 -0.525,-0.225 -0.675,-0.225 -0.675,-0.3 -1.5,-0.225 -1.65,-0.075 -9,0 0,0.9 2.475,0 0,21.075 z m 3.75,-10.875 c 9.85125,-1.48875 9.88625,12.57125 0,10.875 l 0,-10.875"
         id="path3283"
         style="fill:#14315d;fill-opacity:1;fill-rule:nonzero;stroke:none" />
      <path
         d="m 294.68807,496.71318 c 0.23875,9.8175 13.50375,9.8175 13.875,0 -0.3675,-10.01625 -13.765,-9.79625 -13.875,0 z m 10.275,0.825 c 0.0475,2.99625 -0.32875,5.905 -3.975,5.55 -3.7825,-0.5875 -2.65125,-5.67875 -2.85,-8.325 0.0137,-2.725 1.09,-4.8425 4.05,-4.5 l 0.45,0.15 0.525,0.075 0.375,0.3 0.375,0.15 0.225,0.375 0.225,0.3 c 1,1.9875 0.455,3.77 0.6,5.925"
         id="path3285"
         style="fill:#14315d;fill-opacity:1;fill-rule:nonzero;stroke:none" />
      <path
         d="m 330.31307,496.71318 c 0.23125,9.82 13.6225,9.82125 13.875,0 -0.1375,-9.8875 -13.7575,-9.89625 -13.875,0 z m 10.425,0.825 c 0.0163,2.80375 -0.4825,5.92625 -3.975,5.55 -3.91,-0.3975 -2.69875,-5.6225 -2.925,-8.25 -0.0825,-2.75875 0.95625,-4.90125 3.975,-4.575 l 0.525,0.15 0.45,0.075 0.375,0.3 0.375,0.15 0.225,0.375 0.225,0.3 c 1.04125,2.30625 0.6825,3.48375 0.75,5.925"
         id="path3287"
         style="fill:#14315d;fill-opacity:1;fill-rule:nonzero;stroke:none" />
      <path
         d="m 354.08807,502.63818 2.025,0 0,-10.2 -0.225,-0.6 -0.15,-0.375 c -0.51125,-0.4075 -1.1,-0.8975 -1.8,-0.825 l -0.525,0.15 -0.6,0.15 -0.525,0.3 -0.525,0.375 -0.45,0.375 -0.45,0.525 -0.375,0.45 -0.3,0.6 0,9.075 2.475,0 0,0.975 -8.4,0 0,-0.975 2.625,0 0,-12 -2.625,0 0,-0.825 3.6,0 0.975,-0.075 0.375,-0.075 0.375,-0.15 0.225,-0.15 0.3,-0.3 0,2.7 0.075,0 0.525,-0.525 0.525,-0.6 0.525,-0.375 c 1.3425,-0.995 1.96375,-0.915 3.45,-1.2 l 1.125,0.15 0.975,0.225 0.75,0.45 0.52501,0.6 0.45,0.675 0.3,0.6 0.15,0.75 0,10.125 1.875,0 0,0.975 -7.27501,0 0,-0.975"
         id="path3289"
         style="fill:#14315d;fill-opacity:1;fill-rule:nonzero;stroke:none" />
      <path
         d="m 315.16307,497.98818 c 2.6875,-0.0275 3.88375,3.57 1.35,4.875 -3.1,1.1075 -5.41375,-0.8575 -5.775,-4.05 l -0.75,0 0.15,5.1 0.75,0 0.15,-0.6 0.225,-0.075 0.45,0 0.3,0.075 0.675,0.375 0.975,0.225 c 1.5425,0.52625 4.0075,0.095 5.025,-1.2 2.42,-2.78875 1.43,-7.2325 -2.55,-7.8 -10.23125,-0.70125 0.0887,-9.4525 1.95,-1.5 l 0.75,0 -0.075,-3.975 -0.675,0 -0.075,0.225 -0.075,0.15 -0.075,0.225 c -0.67625,0.0475 -2.0325,-0.745 -2.7,-0.75 -1.93,-0.002 -3.0075,0.11625 -4.275,1.725 -2.055,3.48875 0.175,6.8225 4.275,6.975"
         id="path3291"
         style="fill:#14315d;fill-opacity:1;fill-rule:nonzero;stroke:none" />
      <path
         d="m 329.93807,501.43818 c -0.51375,0.865 -1.67,1.6975 -2.7,1.275 l -0.3,-0.075 -0.225,-0.15 -0.225,-0.3 -0.075,-0.3 -0.225,-0.375 0,-10.875 3.75,0 0,-0.825 -3.75,0 0,-4.65 -0.6,0 c -0.17125,2.57 -2.3625,4.90125 -5.025,4.65 l 0,0.825 2.325,0 0,10.35 0.075,0.825 0.15,0.675 0.375,0.525 1.05,0.75 0.675,0.15 0.75,0.15 c 1.74875,0.255 3.5525,-0.2875 4.5,-1.875 l -0.525,-0.75"
         id="path3293"
         style="fill:#14315d;fill-opacity:1;fill-rule:nonzero;stroke:none" />
    </g>
  </g>
</svg>
