<?xml version="1.0" encoding="UTF-8" standalone="no"?>
<svg
   xmlns:dc="http://purl.org/dc/elements/1.1/"
   xmlns:cc="http://creativecommons.org/ns#"
   xmlns:rdf="http://www.w3.org/1999/02/22-rdf-syntax-ns#"
   xmlns:svg="http://www.w3.org/2000/svg"
   xmlns="http://www.w3.org/2000/svg"
   xmlns:sodipodi="http://sodipodi.sourceforge.net/DTD/sodipodi-0.dtd"
   xmlns:inkscape="http://www.inkscape.org/namespaces/inkscape"
   id="Layer_2_copy"
   viewBox="0 0 512.34905 209.25985"
   version="1.1"
   sodipodi:docname="logo-schiff.svg"
   width="512.34906"
   height="209.25984"
   inkscape:version="1.0.2 (e86c870879, 2021-01-15, custom)">
  <metadata
     id="metadata13">
    <rdf:RDF>
      <cc:Work
         rdf:about="">
        <dc:format>image/svg+xml</dc:format>
        <dc:type
           rdf:resource="http://purl.org/dc/dcmitype/StillImage" />
        <dc:title></dc:title>
      </cc:Work>
    </rdf:RDF>
  </metadata>
  <defs
     id="defs11" />
  <sodipodi:namedview
     pagecolor="#ffffff"
     bordercolor="#666666"
     borderopacity="1"
     objecttolerance="10"
     gridtolerance="10"
     guidetolerance="10"
     inkscape:pageopacity="0"
     inkscape:pageshadow="2"
     inkscape:window-width="1366"
     inkscape:window-height="715"
     id="namedview9"
     showgrid="false"
     inkscape:zoom="1"
     inkscape:cx="447.33343"
     inkscape:cy="153.37296"
     inkscape:window-x="-8"
     inkscape:window-y="-8"
     inkscape:window-maximized="1"
     inkscape:current-layer="Layer_2_copy" />
  <style
     id="style2">.st0{fill:#AA142A;}</style>
  <path
     d="m 78.641197,194.74665 c -4.050191,0 -5.400253,-0.3375 -6.075286,-1.01254 -0.337516,-0.33752 -0.337516,-0.67503 -0.337516,-1.35007 0,-1.68757 2.025095,-2.70012 5.400254,-2.70012 3.375158,0 6.075286,0.67504 9.112928,2.36261 l 1.687579,-3.37517 c -3.375157,-2.02508 -7.087833,-2.70011 -10.800507,-2.70011 -4.72522,0 -9.78796,1.68757 -9.78796,6.7503 0,2.36262 1.012548,4.38771 3.037643,5.06274 1.350063,0.67504 2.025097,1.01255 8.437897,1.01255 3.375158,0 5.062739,0.33753 5.73777,1.35007 0.337516,0.33752 0.337516,1.01256 0.337516,1.68758 0,2.70013 -2.700128,3.37515 -6.750318,3.37515 -4.050191,0 -6.750319,-1.01253 -10.462992,-3.03765 l -2.025095,3.37516 c 3.375158,2.36262 7.425349,3.71269 12.825603,3.71269 6.750317,0 10.462993,-2.70013 10.462993,-7.42535 0.337513,-6.4128 -5.062738,-7.08784 -10.800509,-7.08784 z m 19.238404,-8.43788 h 4.050189 v 21.601 h -4.050189 z m 31.388979,15.52572 -13.16313,-15.52572 h -3.71265 v 21.601 h 3.71265 v -15.52573 l 13.16313,15.52573 h 3.71266 v -21.601 h -3.71266 z m 34.42661,0 c -3.03763,2.0251 -5.73776,3.03764 -9.11292,3.03764 -4.72522,0 -9.45044,-2.36262 -9.45044,-7.42536 0,-5.06273 4.3877,-7.42534 9.11292,-7.42534 3.37515,0 5.73777,1.01256 9.11293,3.37516 l 2.0251,-3.37516 c -3.37517,-2.70012 -7.08784,-4.05018 -11.13803,-4.05018 -6.41279,0 -12.82561,4.05018 -12.82561,11.47552 0,7.76287 7.08783,11.47555 13.50064,11.47555 4.05018,0 7.42536,-1.01255 10.80051,-3.37517 z m 13.50065,-3.03765 h 8.43789 v -4.05019 h -8.43789 v -4.38769 h 15.18821 v -4.05019 h -18.9009 v 21.601 h 19.23841 v -4.05018 h -15.52572 z m 38.13929,-12.15056 h 3.71267 v 21.26349 h -3.71267 z m 22.61355,-0.33751 c -1.68757,0 -3.03765,0.33751 -4.72522,0.67502 -3.03765,1.01254 -6.4128,3.03764 -6.4128,6.4128 0,4.3877 4.72523,6.07529 6.4128,6.4128 1.35006,0.33752 2.36262,0.33752 4.05019,0.33752 4.0502,0 6.07529,-0.67503 9.78796,-2.36262 -0.67502,4.3877 -5.06274,6.75033 -9.45044,6.75033 -3.03765,0 -5.40026,-1.01255 -7.76287,-2.70013 l -1.68757,3.37515 c 1.68757,1.35007 3.03765,2.0251 5.40024,2.70013 1.35006,0.33752 3.03766,0.67504 4.38771,0.67504 6.41279,0 13.16313,-4.3877 13.16313,-11.47555 -0.33752,-7.42534 -7.08784,-10.80049 -13.16313,-10.80049 z m -0.33751,3.71266 c 2.70013,0 6.4128,0.67504 8.10039,4.0502 -2.70013,1.35006 -5.40026,2.36262 -9.11293,2.36262 -1.01255,0 -2.02511,0 -2.70012,-0.33754 -1.6876,-0.3375 -3.7127,-1.35006 -3.7127,-2.70012 0,-1.68757 2.70014,-2.70012 4.38771,-3.03763 1.01256,-0.33753 2.02511,-0.33753 3.03765,-0.33753 z m 37.12674,6.41282 c 1.01256,-1.01256 2.36263,-2.36262 2.36263,-4.38772 0,-4.72522 -6.07529,-6.07528 -9.45046,-6.07528 -4.05018,0 -5.73777,0.67503 -9.45046,2.36261 l 1.68761,3.03763 c 2.36259,-1.01253 4.38769,-1.68757 7.08782,-1.68757 1.68758,0 5.73777,0.33751 5.73777,2.36261 0,1.01255 -1.35007,1.68758 -2.36262,2.0251 -1.68757,0.67502 -5.06273,0.67502 -5.06273,0.67502 v 3.71268 h 1.35006 c 1.01255,0 2.0251,0 3.03765,0.33751 1.68757,0.33753 4.38771,1.35007 4.38771,3.03765 0,2.36262 -5.40026,2.70013 -7.42536,2.70013 -3.37515,0 -6.07528,-0.33751 -9.11293,-2.36263 l -2.02509,3.03765 c 1.68758,1.35007 3.37517,2.0251 5.40025,2.70013 1.68758,0.33752 3.71269,0.67504 5.40026,0.67504 2.0251,0 11.81305,-0.33752 11.81305,-6.41282 0.33753,-2.3626 -1.01253,-4.3877 -3.37516,-5.73774 z m 22.95108,-2.0251 c -4.0502,0 -6.07529,0.3375 -9.78796,2.36261 0.67504,-5.06274 5.40026,-6.75033 9.11295,-6.75033 3.03762,0 4.72521,0.67504 7.76285,2.36261 l 1.68758,-3.03763 c -3.37516,-2.0251 -5.73777,-3.03764 -9.45043,-3.03764 -6.41283,0 -13.16313,4.05019 -13.16313,11.138 0,7.08785 6.41279,10.80052 12.8256,10.80052 1.35005,0 2.70013,0 4.05019,-0.33752 3.37516,-0.67503 7.08783,-3.03764 7.08783,-6.7503 0,-5.40026 -6.75032,-6.75032 -10.12548,-6.75032 z m -0.67501,10.12547 c -1.68761,0 -6.75034,-0.33751 -8.10041,-4.05019 3.37518,-1.68759 6.0753,-2.36262 9.11293,-2.36262 0.67504,0 1.6876,0 2.36263,0.33752 1.35006,0.33751 4.05019,1.35006 4.05019,2.70014 0,1.68756 -2.70013,2.70012 -4.38772,3.03764 -1.01254,0.33751 -2.0251,0.33751 -3.03762,0.33751 z"
     id="path4"
     style="stroke-width:3.37516" />
  <path
     class="st0"
     d="m 353.37911,27.676302 c -2.3626,-2.362612 -3.71267,-5.400255 -3.71267,-8.775413 0,-3.712675 1.35007,-6.412802 3.71267,-9.1129289 2.36262,-2.3626111 5.40026,-3.7126745 8.77541,-3.7126745 3.37517,0 6.4128,1.3500634 8.77541,3.7126745 2.36262,2.3626119 3.37516,5.4002539 3.37516,9.1129289 0,3.375158 -1.01254,6.412801 -3.37516,8.775413 -2.36261,2.362611 -5.06274,3.712673 -8.43789,3.712673 -3.71267,-0.337515 -6.75031,-1.350062 -9.11293,-3.712673 z m -1.35007,170.783028 c -5.06273,1.35006 -8.4379,0 -8.4379,-7.42534 0,-5.73778 1.68761,-6.75033 1.01255,-8.4379 -0.67502,-1.01255 -2.70011,-1.35006 -4.3877,-1.35006 -5.06274,0 -7.76285,3.37515 -8.43789,9.11293 -0.33752,3.37515 0.67504,8.77541 4.05019,12.48807 M 135.00636,6.7503174 h -7.76287 c -3.03765,0 -4.38772,3.3751586 -5.73777,6.0752856 -1.01256,2.025095 -2.02511,4.387706 -3.37516,4.387706 -0.33752,0 -1.01254,-0.337515 -1.68759,-0.675032 C 103.61737,5.4002539 90.454253,0 77.291133,0 63.115467,0 50.964896,4.7252221 41.176936,13.83815 c -9.78796,9.112929 -14.850698,20.250954 -14.850698,33.414071 0,6.750318 1.350063,12.825604 3.712675,17.888342 2.700127,5.062738 6.075284,9.450443 10.800507,12.825603 4.725221,3.375158 14.175666,7.762864 28.013817,12.825602 11.47554,4.387706 18.563372,7.425349 21.601016,9.450442 4.05019,2.70013 7.087832,5.73777 8.77541,9.11293 1.687567,3.37516 2.700127,7.08783 2.700127,11.13802 0,8.4379 -3.712673,15.52574 -10.800506,21.93854 -7.425349,6.07528 -16.538278,9.45044 -27.001269,9.45044 -8.100381,0 -15.863246,-2.0251 -22.951079,-6.07527 -7.087834,-4.05021 -12.150572,-9.78797 -15.188213,-16.87581 -3.37516,-7.08783 -4.725222,-17.21331 -4.725222,-30.376425 0,-0.337518 -0.337517,-1.01255 -1.012549,-1.01255 h -7.087834 c -0.337516,0 -0.675032,0.337517 -0.675032,0.675032 L 0,158.29494 c 0,0.33753 0,0.67504 0.33751587,0.67504 0,0.3375 0.33751587,0.3375 0.67503183,0.3375 h 6.7503172 c 0.3375158,0 0.3375158,0 0.6750319,-0.3375 L 18.900889,147.15692 c 2.362612,-2.70012 6.750317,0.33751 12.488087,3.71267 3.037642,2.02509 6.750316,4.38771 10.462992,6.07528 6.075286,2.70014 13.500634,4.05021 22.613563,4.05021 10.800508,0 20.925984,-2.36261 30.038912,-7.08783 9.112927,-4.72523 16.200767,-10.80052 20.925977,-18.22586 4.72523,-7.42536 7.08785,-15.86325 7.08785,-24.97619 0,-8.10038 -2.02511,-15.18821 -5.40025,-20.925979 -3.71268,-5.73777 -9.11295,-10.800508 -16.20079,-14.175666 C 96.529538,73.240943 87.416609,69.528268 74.25349,64.803048 64.803046,61.427888 58.390245,58.727759 55.352602,56.36515 c -3.037643,-2.025094 -5.400254,-4.725223 -7.087833,-8.100379 -1.687579,-3.037644 -2.36261,-6.750319 -2.36261,-10.800509 0,-7.762866 3.037641,-14.513183 9.112927,-19.913438 6.075286,-5.400252 13.838151,-8.1003798 23.288595,-8.1003798 8.437896,0 15.525729,2.3626118 21.601016,7.0878328 6.075293,4.725223 10.462993,11.475541 13.163123,19.575921 1.68757,5.73777 2.70012,13.83815 2.70012,23.626111 0,0.337516 0.33751,1.012546 1.01256,1.012546 h 7.08782 c 0.33752,0 0.67504,-0.337515 0.67504,-0.67503 l 10.463,-52.31496 z M 469.48458,155.59481 c -4.38771,0 -7.76287,-3.37516 -7.76287,-7.76287 0,-4.05019 3.37516,-7.76285 7.76287,-7.76285 4.05018,0 7.76284,3.37515 7.76284,7.76285 0,4.38771 -3.37514,7.76287 -7.76284,7.76287 z m 0,-13.83815 c -3.37517,0 -6.41282,2.70014 -6.41282,6.4128 0,3.37515 2.70014,6.4128 6.41282,6.4128 3.37514,0 6.4128,-2.70012 6.4128,-6.4128 0,-3.71266 -2.70012,-6.4128 -6.4128,-6.4128 z m 3.03762,6.4128 c -0.33751,0.33752 -0.67501,0.33752 -1.01254,0.33752 l 1.6876,3.37516 h -1.35007 l -1.68759,-3.03764 h -2.36262 v 3.03764 h -1.35005 v -8.10039 h 3.71267 c 1.35006,0 1.68759,0 2.3626,0.33752 0.67506,0.33753 1.01256,1.35007 1.01256,2.0251 0,1.01255 -0.3375,1.68757 -1.01256,2.02509 z m -1.68757,-3.03764 h -3.03765 v 2.36261 h 3.03765 c 0.67503,0 1.01256,0 1.01256,-0.33751 0.3375,-0.33753 0.3375,-0.67504 0.3375,-1.01255 0,-0.67503 -0.67503,-1.01255 -1.35006,-1.01255 z m -65.14055,53.32751 c -5.06274,1.35006 -8.4379,0 -8.4379,-7.42534 0,-5.73778 1.68757,-6.75033 1.01253,-8.4379 -0.67502,-1.01255 -2.70012,-1.35006 -4.3877,-1.35006 -5.06274,0 -7.76288,3.37515 -8.43789,9.11293 -0.33751,3.37515 0.67501,8.77541 4.05019,12.48807 3.03766,3.37516 7.42534,5.06274 12.8256,5.06274 2.70014,0 5.73778,-0.33752 9.11293,-1.35006 25.98873,-7.42534 39.15185,-56.70267 40.83941,-62.10291 L 471.17216,70.878332 H 499.861 c 0.67504,0 1.35006,-0.337515 1.35006,-1.012547 l 2.02509,-8.437897 c 0,-0.337515 0,-1.012548 -0.33752,-1.350063 -0.3375,-0.337516 -0.67502,-0.675031 -1.35005,-0.675031 h -28.01382 c 4.72522,-19.575921 8.77542,-33.076556 12.15057,-40.16439 1.35008,-3.037643 3.03765,-4.725221 4.72522,-4.725221 1.01256,0 1.68759,1.012547 2.02511,3.037641 1.01254,4.050193 2.0251,6.750318 3.71267,8.437898 1.68758,1.68758 3.71267,2.362611 6.07528,2.362611 3.03765,0 5.40024,-1.012547 7.42535,-3.375158 1.68758,-2.362612 2.70013,-5.062738 2.70013,-8.775414 0,-4.050189 -1.35007,-7.4253484 -4.0502,-10.1254754 -2.70012,-2.7001269 -6.41279,-4.0501905 -11.13801,-4.0501905 -5.06274,0 -9.78796,1.6875794 -14.51319,4.7252223 -4.72522,3.3751586 -10.8005,10.4629916 -16.20076,20.2509526 -5.06274,9.112928 -9.11293,19.57592 -13.16312,32.064008 h -33.41407 c 4.72522,-19.575921 8.77542,-33.076556 12.15057,-40.164389 1.35006,-3.037643 3.03765,-4.725223 4.72523,-4.725223 1.01255,0 1.68757,1.012548 2.0251,3.037643 1.01254,4.050191 2.02507,6.750318 3.71267,8.437897 1.68757,1.68758 3.71267,2.362612 6.07528,2.362612 3.03764,0 5.40024,-1.012548 7.42535,-3.37516 1.68758,-2.362611 2.70011,-5.062738 2.70011,-8.775412 0,-4.05019 -1.35005,-7.4253493 -4.05018,-10.1254762 -2.70013,-2.700127 -6.4128,-4.0501904 -11.13801,-4.0501904 -5.06275,0 -9.78797,1.6875793 -14.5132,4.725222 -4.72523,3.3751587 -10.80051,10.4629926 -16.20075,20.2509516 -5.06275,9.112929 -9.11293,19.575921 -13.16313,32.064006 h -16.53826 c -0.67504,0 -1.35007,0.337519 -1.35007,1.01255 l -2.36262,8.437896 c 0,0.337517 0,1.012547 0.33752,1.350063 0.33751,0.337517 0.67504,0.675033 1.35006,0.675033 h 15.52573 l -1.35006,4.387705 c -3.03765,11.47554 -6.75031,28.013814 -11.13803,45.227134 -4.05019,8.77541 -12.15057,17.88833 -20.58846,22.61356 -9.45045,5.40024 -14.8507,4.05018 -16.53828,4.05018 -2.0251,-0.33751 -6.41278,-3.37515 -4.72522,-10.46298 l 19.23839,-75.266045 c 0,-0.337515 0,-1.012546 -0.33751,-1.350061 -0.33751,-0.337516 -0.67501,-0.675035 -1.35005,-0.675035 l -34.76413,0.337519 c -0.67504,0 -1.35007,0.337516 -1.35007,1.012547 l -2.0251,6.750317 c 0,0.337516 0,1.012546 0.33752,1.350063 0.33751,0.337517 0.67504,0.675032 1.35006,0.675032 h 7.42533 c 3.7127,0 6.41283,0.675031 8.43792,1.68758 1.01254,0.675031 1.68757,1.687579 1.68757,2.700126 0,0.675032 0,1.350063 -0.33749,2.025097 l -10.46301,39.48936 c -3.03764,10.12546 -9.45045,20.25096 -22.95108,27.33878 -9.78796,5.40025 -18.9009,2.70013 -16.8758,-6.75031 l 10.463,-40.164396 c 1.68758,-7.087833 3.03764,-12.15057 3.03764,-17.550824 0,-6.412802 -2.70013,-11.813056 -6.4128,-15.52573 -3.71269,-3.712675 -8.77541,-5.73777 -15.18821,-5.73777 -11.47554,0 -23.28859,8.100382 -35.10166,24.638658 L 266.97505,5.7377698 c 0,-0.3375159 0,-1.0125477 -0.33752,-1.3500635 -0.33751,-0.337516 -0.67503,-0.6750318 -1.35006,-0.6750318 l -36.45172,2.0250953 c -0.67502,0 -1.35005,0.3375158 -1.35005,1.0125476 l -2.02511,7.4253486 c 0,0.337517 0,1.012548 0.33752,1.350064 0.33752,0.337516 0.67505,0.675031 1.35007,0.675031 h 5.73777 c 5.73778,0 8.10038,0.675033 9.11292,1.350063 1.35007,0.675033 1.68759,1.350065 1.68759,2.700127 0,1.012549 0,2.025096 -0.33752,3.037644 l -23.28859,88.091635 c -6.07529,14.5132 -28.68885,35.10165 -48.60229,35.10165 h -0.67503 c -5.73777,0 -10.12547,-2.02508 -13.16313,-6.07528 -3.37515,-4.05018 -5.06273,-10.463 -5.06273,-18.90089 0,-10.12548 2.0251,-19.91344 5.73777,-29.026363 3.71267,-9.112929 8.43789,-15.863245 13.83815,-19.913435 5.40025,-4.05019 10.80052,-6.075286 16.20076,-6.075286 3.03765,0 5.73777,0.675032 7.42536,2.025096 1.68757,1.350063 2.70013,2.36261 2.70013,3.375157 0,1.012548 -1.35007,1.687581 -2.70013,2.025096 -5.40025,1.68758 -8.10038,5.062738 -8.10038,10.462992 0,3.037643 1.01252,5.737769 3.37516,7.762866 2.36259,2.025094 5.06273,3.375157 8.10037,3.375157 3.71267,0 6.75032,-1.350063 9.11293,-4.387707 2.36262,-3.037642 3.71266,-6.750316 3.71266,-11.813054 0,-6.412802 -2.3626,-11.813055 -6.7503,-15.863246 -4.38771,-4.050189 -10.80051,-6.075284 -18.22587,-6.075284 -9.11292,0 -17.88832,2.700126 -26.66375,8.437895 -8.4379,5.400254 -15.86323,13.500635 -21.2635,23.288594 -5.40025,10.125476 -8.10037,20.250952 -8.10037,31.051452 0,11.47556 3.37514,20.58848 9.78795,27.6763 6.4128,7.08784 14.8507,10.80053 24.63867,10.80053 7.42535,0 19.91344,-3.37517 29.7014,-9.45045 6.07528,-3.71268 12.48807,-9.11293 18.90088,-15.18823 l -5.40025,20.58847 c 0,0.33752 0,1.01255 0.3375,1.35007 0.33753,0.33751 0.67504,0.67503 1.35007,0.67503 l 16.53828,-1.01255 c 0.67504,0 1.35007,-0.67503 1.35007,-1.01255 l 8.10038,-33.07655 c 2.36262,-8.77541 6.07529,-17.55082 11.47554,-26.326236 5.40025,-8.437895 11.47554,-15.188214 17.88832,-19.913434 7.08785,-5.062739 12.82563,-6.075288 16.20079,-2.025097 1.35006,1.687578 2.36259,4.387707 2.36259,7.762865 0,3.375159 -0.67502,6.750318 -1.35006,10.125475 l -10.46298,39.151847 c -1.01256,3.03764 -1.35006,6.07529 -1.35006,9.11291 0,5.73778 1.35006,10.12549 4.05017,13.50064 2.70014,3.03765 6.75034,4.72522 11.47556,4.72522 6.75031,0 17.2133,-2.02509 29.70138,-10.80051 1.68759,-1.35005 5.06273,-3.71266 8.77543,-6.7503 v 2.02509 c 0,5.06274 1.35006,9.11293 4.3877,12.15056 2.70013,3.03764 9.11293,4.72524 13.16311,4.72524 10.463,0 19.57592,-2.70014 29.02636,-9.45045 2.70013,-2.0251 9.11294,-6.75032 10.12549,-11.47554 -5.40027,19.91344 -11.47554,38.81432 -17.55083,50.28987 -4.05019,7.42535 -7.76287,10.46298 -11.47554,11.47553 -5.06274,1.35008 -8.4379,0 -8.4379,-7.42535 0,-5.73776 1.68758,-6.7503 1.01257,-8.4379 -0.67506,-1.01254 -2.70015,-1.35005 -4.38773,-1.35005 -5.06273,0 -7.76286,3.37516 -8.43788,9.11293 -0.33752,3.37515 0.67502,8.77541 4.05018,12.48809 3.03764,3.37514 7.42535,5.06273 12.8256,5.06273 2.70012,0 5.73778,-0.33752 9.11292,-1.35007 25.98873,-7.42534 39.15185,-56.70266 40.83942,-62.1029 l 18.90089,-73.578474 h 33.75159 l -1.35005,4.387706 c -7.42536,28.688848 -19.57593,87.079098 -32.73905,111.717758 -4.38771,5.73777 -8.10037,8.7754 -12.15056,10.12547 z"
     id="path6"
     style="stroke-width:3.37516" />
</svg>
