<?xml version="1.0" encoding="UTF-8" standalone="no"?>
<!-- Created with Inkscape (http://www.inkscape.org/) -->

<svg
   xmlns:dc="http://purl.org/dc/elements/1.1/"
   xmlns:cc="http://creativecommons.org/ns#"
   xmlns:rdf="http://www.w3.org/1999/02/22-rdf-syntax-ns#"
   xmlns:svg="http://www.w3.org/2000/svg"
   xmlns="http://www.w3.org/2000/svg"
   xmlns:sodipodi="http://sodipodi.sourceforge.net/DTD/sodipodi-0.dtd"
   xmlns:inkscape="http://www.inkscape.org/namespaces/inkscape"
   width="186.57014"
   height="34.436008"
   viewBox="0 0 49.363349 9.1111934"
   version="1.1"
   id="svg4021"
   inkscape:version="0.92.0 r15299"
   sodipodi:docname="zimmer biomet.svg">
  <defs
     id="defs4015">
    <clipPath
       id="clipPath3430"
       clipPathUnits="userSpaceOnUse">
      <path
         inkscape:connector-curvature="0"
         id="path3428"
         d="m 52.604,76.903 h 144.588 v 35.201 H 52.604 Z" />
    </clipPath>
  </defs>
  <sodipodi:namedview
     id="base"
     pagecolor="#ffffff"
     bordercolor="#666666"
     borderopacity="1.0"
     inkscape:pageopacity="0.0"
     inkscape:pageshadow="2"
     inkscape:zoom="4.8039607"
     inkscape:cx="96.325963"
     inkscape:cy="12.698564"
     inkscape:document-units="mm"
     inkscape:current-layer="layer1"
     showgrid="false"
     fit-margin-top="0"
     fit-margin-left="0"
     fit-margin-right="0"
     fit-margin-bottom="0"
     units="px"
     inkscape:window-width="1280"
     inkscape:window-height="744"
     inkscape:window-x="-4"
     inkscape:window-y="-4"
     inkscape:window-maximized="1" />
  <metadata
     id="metadata4018">
    <rdf:RDF>
      <cc:Work
         rdf:about="">
        <dc:format>image/svg+xml</dc:format>
        <dc:type
           rdf:resource="http://purl.org/dc/dcmitype/StillImage" />
        <dc:title></dc:title>
      </cc:Work>
    </rdf:RDF>
  </metadata>
  <g
     inkscape:label="Layer 1"
     inkscape:groupmode="layer"
     id="layer1"
     transform="translate(-81.131703,-134.01054)">
    <path
       inkscape:connector-curvature="0"
       id="path3434"
       style="fill:#4f4c4d;fill-opacity:1;fill-rule:nonzero;stroke:none;stroke-width:0.35277778"
       d="m 128.8818,136.93624 h -1.04422 v -0.35666 h 2.52518 v 0.35666 h -1.04422 v 3.23321 h -0.43674 z m -3.57928,-0.35666 h 2.09338 v 0.35666 h -1.65664 v 1.21991 h 1.33561 v 0.3563 h -1.33561 v 1.30034 h 1.74695 v 0.35666 h -2.18369 z m -4.29684,0 h 0.60749 l 1.10948,2.79682 1.07421,-2.79682 h 0.60255 v 3.58987 h -0.43674 v -3.02225 l -1.18992,3.02225 h -0.13547 l -1.23014,-3.02225 v 3.02225 h -0.40146 z m -1.17933,1.8027 v -0.0402 c 0,-0.80328 -0.47202,-1.45627 -1.30034,-1.45627 -0.83362,0 -1.31551,0.61278 -1.31551,1.46615 v 0.0402 c 0,0.86854 0.5775,1.46086 1.32539,1.46086 0.79833,0 1.29046,-0.60255 1.29046,-1.47073 m -3.06776,0.0148 v -0.0402 c 0,-1.01918 0.71297,-1.82245 1.76742,-1.82245 1.0541,0 1.75189,0.80327 1.75189,1.81257 v 0.0402 c 0,1.01389 -0.69779,1.82739 -1.74201,1.82739 -1.0594,0 -1.7773,-0.8135 -1.7773,-1.81751 m -1.18956,-1.81751 h 0.43673 v 3.28013 0.30974 h -0.43673 z m -1.92723,3.24838 c 0.52176,0 0.76271,-0.23107 0.76271,-0.66781 v -0.0197 c 0,-0.44204 -0.24589,-0.65264 -0.82303,-0.65264 h -0.73308 v 1.3402 z m -0.14076,-1.68169 c 0.52705,0 0.72778,-0.19086 0.72778,-0.63289 v -0.0197 c 0,-0.40675 -0.23565,-0.57256 -0.73801,-0.57256 h -0.64241 v 1.2252 z m -1.0795,-1.56669 h 1.0795 c 0.66746,0 1.15464,0.22119 1.15464,0.92887 v 0.0201 c 0,0.32632 -0.13052,0.61772 -0.54222,0.75812 0.52212,0.12559 0.71791,0.39159 0.71791,0.85866 v 0.0198 c 0,0.67804 -0.46179,1.00436 -1.17969,1.00436 h -1.23014 z m -3.37326,1.68205 c 0.51223,0 0.78846,-0.22084 0.78846,-0.66252 v -0.0201 c 0,-0.48719 -0.30127,-0.64805 -0.78846,-0.64805 h -0.67275 v 1.33068 z m -1.10949,-1.68205 h 1.0795 c 0.68757,0 1.25519,0.28117 1.25519,0.99942 v 0.0201 c 0,0.59231 -0.39688,0.88335 -0.88865,0.9786 l 1.09926,1.59174 h -0.48684 l -1.06962,-1.5614 h -0.5521 v 1.5614 h -0.43674 z m -2.84127,0 h 2.09374 v 0.35666 h -1.657 v 1.21991 h 1.33562 v 0.3563 h -1.33562 v 1.30034 h 1.74696 v 0.35666 h -2.1837 z m -4.29718,0 h 0.60783 l 1.10949,2.79682 1.07421,-2.79682 h 0.60254 v 3.58987 h -0.43674 v -3.02225 l -1.18992,3.02225 h -0.13546 l -1.23014,-3.02225 v 3.02225 h -0.40181 z m -4.296835,0 h 0.607484 l 1.109486,2.79682 1.074561,-2.79682 h 0.602544 v 3.58987 h -0.437091 v -3.02225 l -1.18992,3.02225 h -0.135466 l -1.229784,-3.02225 v 3.02225 h -0.401814 z m -1.365249,0 h 0.436738 v 3.32987 0.26 h -0.436738 z m -3.323167,3.51931 2.033411,-3.16265 h -1.852789 v -0.35666 h 2.454981 v 0.0656 l -1.978025,3.15277 h 1.948039 v 0.37148 h -2.605617 z" />
    <path
       inkscape:connector-curvature="0"
       id="path3438"
       style="fill:#1081c5;fill-opacity:1;fill-rule:evenodd;stroke:none;stroke-width:0.35277778"
       d="m 82.762602,141.47586 c 0.747536,0.75177 1.781175,1.21744 2.92488,1.21744 2.279298,0 4.127148,-1.84821 4.127148,-4.12786 0,-1.12395 -0.449086,-2.14312 -1.177925,-2.88784 l -2.958748,5.67973 c 1.411464,-0.0148 2.573867,-1.06998 2.759428,-2.43382 l 3.53e-4,2.55235 z m -0.07303,-0.0734 2.987322,-5.67266 -0.02893,-0.003 c -1.474611,0 -2.691341,1.14194 -2.811638,2.58551 v -2.70545 h 5.727699 c -0.743302,-0.72249 -1.758244,-1.1677 -2.87655,-1.1677 -2.472972,0 -4.127499,1.65418 -4.127499,4.12644 0,1.09926 0.42933,2.09727 1.129594,2.83704 m 2.997905,-7.25981 c 2.443339,0 4.423481,1.98014 4.423481,4.42277 0,2.44334 -1.980142,4.42384 -4.423481,4.42384 -2.442986,0 -4.42348,-1.9805 -4.42348,-4.42384 0,-2.63772 1.785056,-4.42277 4.42348,-4.42277" />
  </g>
</svg>
