<svg xmlns="http://www.w3.org/2000/svg" xmlns:sodipodi="http://sodipodi.sourceforge.net/DTD/sodipodi-0.dtd" xmlns:inkscape="http://www.inkscape.org/namespaces/inkscape" width="2354pt" height="1634pt" viewBox="0 0 2354 1634" sodipodi:docname="ariadlogotm.svg" inkscape:version="1.0.2 (e86c870879, 2021-01-15)">
  <sodipodi:namedview pagecolor="#ffffff" bordercolor="#666666" borderopacity="1" objecttolerance="10" gridtolerance="10" guidetolerance="10" inkscape:pageopacity="0" inkscape:pageshadow="2" inkscape:window-width="1920" inkscape:window-height="1001" showgrid="false" inkscape:zoom=".381" inkscape:cx="422.551" inkscape:cy="732.011" inkscape:window-x="-9" inkscape:window-y="-9" inkscape:window-maximized="1" inkscape:current-layer="svg21"/>
  <g/>
  <path fill="#e80909" d="M554.94 0h102.12c51.44 5.4 105.68 13.26 148.72 44.22 13.64 9.44 21.896 27.5 31.876 40.2l23.484 4.8c42.48 8.34 85.34 19.82 122.06 43.62 19.36 14.88 40.58 33.18 42.3 59.54 3.24 16.08-4.34 30.46-7.88 45.46 28.4 12.16 58.34 22.14 82.78 41.78 24.62 18.7 47.36 45.94 47.28 78.5 3.74 22.2-10.36 41.7-24.34 57.22-11.02 12.86-25.46 21.96-39.04 31.8 34.8 12.44 70.28 27.06 96.38 54.18 15.82 14.98 28.08 35.94 25.14 58.58.54 16.28-10.14 30.06-20.44 41.48-20.44 23.52-48.2 38.3-74.04 54.92 29.7 18.22 62.82 41.4 70.44 77.72 6.98 21.24-2.82 43.32-16.08 59.74-24.1 31.54-59.64 51.02-93.8 69.76 13.44 15.36 28.14 32.96 27.76 54.6 4.78 24.92-15.56 44.24-31.28 60.22-43.06 37.48-96.78 59.84-150.8 76.4 2.58 14.74 10.52 31.04 2.56 45.3-15.06 29.96-44.6 49.1-72.9 65.1-47.46 24.1-99.86 37.46-152.58 43.56-126.06 14.86-258.2.44-372.34-57.68-11.5 60.2-5.4 125.28 26.04 178.74 40.28 72.2 118.88 116.04 198.94 128.46 5.56.82 11.1 1.36 16.72 2.12 31.48 2.18 63.46 3.56 94.66-2.14 13.16-2.3 26.3-4.84 39.2-8.3 36.32-7.04 66.78-31.32 103.58-35.7-5.08 8.28-10.7 16.94-19.56 21.58-24.14 13.74-50.3 23.5-76.56 32.28-12.58 3.62-25.28 6.78-38.1 9.34-36.62 5.68-74.06 6.24-110.9 2.6-5.9-.74-11.82-1.6-17.66-2.48-53.78-9.38-107.58-28.58-149.16-65.02-29.94-24-50.82-57.36-65.92-92.2-21.36-56.14-30.54-118.9-15.42-177.8-42.14-28.64-85.86-60.42-110.02-106.56-7.3-12.2-12.412-38.456-12.412-38.456-25.32-18.62-55.588-34.764-77.408-57.824-28.94-28.94-54.44-67-52.08-109.64-.62-16.32 3.96-32.14 8.84-47.5C34.98 752.9 9.58 717.12 0 675.36v-46.28c6.16-33.96 24.28-64.2 47-89.66-13.56-24.56-25.98-50.76-26.92-79.38-.82-34.16 10.08-68.24 29.98-95.96 18.98-28.52 47.46-48.72 74.86-68.42-.06-19.84 1.02-40.1 7.72-58.94 9.48-24.34 25.36-45.94 44.88-63.2 32.72-28.92 72.6-48.34 113.82-61.9 10.84-3.88 27.156-10.06 27.156-10.06C378.176 38.06 471.16 9.58 554.94 0m-34.98 23.76c-59.9 7.28-118.6 30.06-164.48 69.86 115.58-24.94 234.88-26.44 352.54-21.4 35.2.94 70.1 6.18 105.24 7.76-15.08-26.42-45.3-38.02-73.04-46.04C668.6 14.98 593.1 14.4 519.96 23.76m-185.64 92.82c-13.12 9.24-18.76 26.58-22.02 41.62-2.48 23.24 5.58 46.22 17.52 65.84C438.18 201 549.58 197.1 660 195.88c113.42 2.46 224.458 4.138 334.518 34.378 3.14-8.64 5.76-18.544 7.28-27.604-1-22.56-13.018-37.374-30.338-50.094-40.14-27.92-89.16-36.4-136.02-46.5-7.32 25.16-32.54 38.8-55.06 48.38-36.34 14.04-66.77 22.546-113.276 21.81-67.114-3.812-130.148-18.8-156.764-39.03-13.646-15.124 4.42-11.28 4.42-11.28 6.172 1.16 18.24 6.58 27.3 9.9 63.12 24.46 133.62 27.14 199.18 11.28 27.42-7.42 56.92-18.42 71.8-44.5-87.02-18.24-176.64-15.02-264.98-14-71.76 3.86-143.82 10.9-213.74 27.96M167.9 217.88c-14.28 19.38-22 42.86-22.54 66.86 51.3-26.1 106.3-44.04 162.36-56.74-17.78-30.94-20.94-69.6-6.3-102.4-51.7 17.78-100.42 48.16-133.52 92.28m179.36 27.18c29.86 25.86 66.54 43.02 104.58 52.94 99.68 25.66 204.08 25.18 306.06 17.62 75.72-7.28 154.62-19.9 218.88-63.5-95.24-25.2-194.76-29.26-292.78-28.18-112.54.18-225.08 6.98-336.74 21.12m-198.9 61.8c15.88 53.48 66.574 104.02 116.574 127.54l21.946-5.22c115.68-26.46 234.9-31.54 353.12-33.26 123.52 1.94 247.94 5.8 369.32 30.8 19.78 3.6 58.912 12.978 58.912 12.978 20.44-10.06 38.208-28.038 49.648-47.718 14.28-23.8 10.26-56.88-8.94-76.84-23.16-25.2-55.42-39.46-87.1-50.76l-13.76-5.958c-31.6 26.74-85.18 48.238-123.94 61.858-103.82 35.4-215.22 43.48-324.06 35.52-71.34-6.92-144.48-25.18-202.02-69.88-14.04-10.16-24.54-24.24-38.02-34.98-59.76 9.28-117.9 28.28-171.68 55.92M43.66 452c-4.56 25.68 7.14 50.78 20.2 72.18 47.3-38.92 105-62.18 162.86-80.44-42.64-31.52-79.64-73.14-96.08-124.38C82.82 346.28 47.82 396.82 43.66 452m259.66-4.92c34.08 12.36 69.36 21 104.68 28.94C525.76 501.1 646.9 512.14 767.18 503c92.26-6.86 186.72-15.2 273.3-50.2a806 806 0 0 0-91.1-18.24C854.9 421.34 759.34 416.74 664 417.98c-120.72-1.7-242.08 5.6-360.68 29.1m-82.74 21.58c-51.44 16.18-101.16 39.46-143.08 73.82 41.2 45.42 107.49 80.124 164.188 101.864l34.22-12.938c158.32-46.52 323.392-46.746 486.932-42.446 95.24 5.3 191.52 12.86 283.16 41.04 14.56 3.8 44.512 16.434 44.512 16.434s17.948-8.194 27.148-12.714c24.24-14.62 49.22-32.58 60.76-59.44 8.7-20.34.14-44.7-14.78-59.92-26.06-27.46-61.76-43.7-97.76-53.68l-22.06 8.92c-49.46 24.36-103.24 38.08-156.98 49.22-108.44 21.2-219.56 23.94-329.68 20.18-89.72-5.84-180.64-19.58-263.06-57.12-14-6.2-28.714-16.098-42.874-21.838 0 0-20.026 6.058-30.646 8.618M26.42 685.84c9.9 28.08 29.18 51.86 50.22 72.46 29.48-43.14 71.98-75.88 119.32-97.38C145.1 636.1 98.08 602.5 61.54 558.98c-29.92 33.6-51.62 81.96-35.12 126.86m380.52-62.68c-45.84 7.14-91.76 15.78-135.58 31.38 103.1 32 211.08 44.6 318.6 49.06 99.36 1 199.1 2.32 297.94-9.72 59.88-7.1 120.28-16.28 177.06-37.24-16.54-6.76-33.62-12.28-50.94-16.64-94.54-24.74-192.76-30.02-289.98-33.68-105.84-1.38-212.28.76-317.1 16.84m681.62 44.66s-18.72 7.02-28 10.64c-40.42 16.88-82.72 28.92-125.42 38.52-109.08 24.86-221.5 32.64-333.16 30.92-126.74-3.36-258.994-22.988-376.234-73.508-49.894 26.41-105.8 60.246-129.766 100.688 47.36 34.6 106.616 62.474 162.536 79.934l13.644-8.714c31.04-17.52 65.28-28.34 99.84-36.36 91.22-22.2 185.66-25.82 279.14-27.1 74.48 1.22 149.26 1.94 223.14 12.7 58.22 8.08 123.984 23.522 175.644 52.962l12.156-6.202c35.52-17.5 71.34-38.96 93.48-72.78 13.84-22.08 3.48-50.48-13.96-67.1-15.7-13.92-53.04-34.6-53.04-34.6M85.52 799.68c-8.92 26.48-8.48 56.8 5.2 81.6 21.22 37.9 57.88 64.14 94.72 85.48 3.68-17 4.8-34.9 12.92-50.58 6.36-14.28 16.74-26.24 27.36-37.52-49.62-20.8-97.54-45.94-140.2-78.98m300.18 29.9c-33.88 7.88-68.1 16.84-98.54 34.16 106.72 30.88 218.14 41.28 328.82 44.1 107.2 1.58 215.08-3.92 320.32-25.42 28.72-6.7 57.76-13.16 84.92-24.88-33.78-16.76-70.68-25.88-107.52-33.04-65.84-12.34-132.94-15.6-199.76-17.94-109.66-1.78-220.42 1.22-328.24 23.02m479.66 97.78c-103.48 19.32-209.28 21.12-314.2 17.6-96.78-6.3-193.78-20.66-285.76-52.28l-16.392-5.332c-25.78 22.56-42.448 57.392-41.588 91.972 52.42 24.44 107.38 43.22 163.92 55.52l22.02 3.174c58.06-35.4 129.24-54.934 196.7-57.614 71.04-1.96 142.62.16 212.7 12.92 27.72 5 54.86 14.24 78.68 29.52l17.238 11.652c52.78-14.7 113.282-36.412 155.922-71.892 9.6-9.84 21.48-20.28 23.34-34.66 1.92-22.2-14-40.4-29.76-53.88-58.24 25.76-120.34 41.7-182.82 53.3m-318.02 75.92c-46.9 6.04-95.5 14.28-136.48 39.34 43.3 8.94 87.38 13.3 131.4 16.8 109.6 6.18 220.52 4.3 328.3-18.32-17.76-8-35.58-16.26-54.58-20.94-87.08-24.64-179.14-26.5-268.64-16.88m-335.6 8.38c22.82 45.54 64.22 78.7 107.26 104.14 10.88-19.26 23.78-37.28 38.9-53.44-50.34-11.86-98.9-29.9-146.16-50.7m641.48 59.46c-60.16 13.24-121.78 17.94-183.18 20.6-99.08 2.1-198.72-4.9-295.78-25.56-16.52 16.84-32.64 35.12-41.38 57.38 86.5 43.72 184.94 59.68 281.14 58.32 63.7-3 127.8-8.32 189.74-24.26 28.92-8.02 58.24-18.84 81.36-38.54 16.42-13.74 26.46-38.36 13.7-57.9-15.3 2.9-30.38 6.76-45.6 9.96" sodipodi:nodetypes="ccccccccccccccccccccccccccccccccccccccccccccccccccccccccccccccccccccccccccccccccccccccccccccccccccccccccccccccccccccccccccccccccccccccccccccccccccccccccccccccccccccccccccccccccccccccccccccccccccccccccccccccccccc"/>
  <g fill="#010101">
    <path d="M593.14 1343.2c9.96-22.9 14.5-49.92 35.38-66.06 26.48 56.16 47.04 114.88 69.36 172.76-12.9 3.46-26.04 6-39.2 8.3-14.18-38.92-28.82-77.84-45.6-115.7-17.82 38.64-32.42 78.68-49.06 117.84-5.62-.76-11.16-1.3-16.72-2.12 14.2-38.76 30.98-76.52 45.84-115.02"/>
    <path d="M902.76 1280.6c47.7-.5 95.46-1.9 143.16.08 37.32.96 75.78 23.12 87.68 59.92 7.76 30.76 0 67.04-25.54 87.46-19.62 17.86-45.8 25.64-71.56 29.22 41.92 43.42 63.74 100.92 99.66 148.66 11.34 16.54 32.92 18.28 50.84 22.26 0 1.92 0 3.84.02 5.8h-70.46c-40.48-53.92-72.86-113.48-113.16-167.5-8.82-9.86-22.94-11.58-35.16-13.92-.08 54.82-1.54 109.72 1.26 164.52 10.58 5.02 21.86 9.14 30.88 16.9H887.36c-.48-2.46-.92-4.9-1.36-7.32 10.32-2.54 21.98-1.82 31.18-7.62 11.4-12.88 7.8-31.38 9.04-47.02-.14-73.36-.5-146.7.08-220.06-.6-16.84 1-34.2-3.84-50.54-4.2-7.82-13.32-11.12-20.02-16.36zm70.52 14.74c-6.992 1.808-5.6 20.64-5.6 20.64.22 39.78.34 79.58.48 119.38 19.64 4.16 39.2 11.24 59.62 8.28 34.34-3.78 61.42-34.48 65.9-67.9 1.46-24.9-8.7-51.2-29.7-65.66-25.4-20.2-60.44-17.9-90.7-14.74" sodipodi:nodetypes="cccccccccccccccccccccccccccc"/>
    <path d="M1291.7 1280.06c39.14-.14 78.28-.4 117.42.54.24 1.32.74 3.96.98 5.3-16.4 7.22-42.6 12.84-39.66 36.12-1.44 83.32.18 166.68-.68 250.02 1.38 14.78-2.76 33.12 9.26 44.68 9.1 6.76 19.34 11.82 29.28 17.28h-118.36c9.98-8.18 23.24-9.68 34.06-16.22 9.28-5.74 4.5-18.98 6.24-27.7-.24-83.38-.4-166.76.02-250.12-1.3-15.18 3.12-34.14-11.04-44.86-8.1-4.2-17.54-4.44-26.32-6.36-.42-2.9-.82-5.8-1.2-8.68m384.76-4.56c16.16 18.28 22.64 42.2 31.84 64.24 30.46 77.46 59.06 155.66 88.42 233.54 5.64 14.7 10.26 29.96 18.78 43.36 5.68 7.32 16.22 7.4 24.28 10.18 1.56 2.4 3.12 4.78 4.8 7.18h-115.14c8.72-10.3 24.54-9.32 33.7-18.9 5.08-9.38.22-20.3-2.26-29.86-13.16-35.82-30.12-70.08-44.82-105.26-35.88.06-71.76-.2-107.62.18-12.66 35.64-27 70.68-40.28 106.1-2.98 9.88-7.1 22.26.22 31.12 8.28 6.26 17.84 10.86 26.54 16.62h-100.78c16.76-15.94 43.08-22.16 51.54-46.14 34.72-81.4 67.24-163.76 100.34-245.86 9.36-22.52 15.9-46.46 30.44-66.5m-60.84 182.32c31.04.28 62.08.3 93.12-.06-13.42-38.56-27.4-76.94-42.22-115-19.78 37-33.38 76.96-50.9 115.06m331.16-177.22c61.02-.64 122.1-1.62 183.12.06 64.8 3 128.32 45.34 149.52 107.7 14.02 35.68 12.58 75.26 5.3 112.32-8.42 37.62-24.76 75.76-55.38 100.62-19.8 18.42-46.18 27.6-72.26 32.7H1945.4c-.52-2.44-1-4.86-1.44-7.24 10.96-3.08 24.32-5.36 29.58-17.12 6.34-15.02 4-31.82 4.76-47.62-1.5-80.26 1.68-160.6-1.5-240.78 1.14-18.78-16.84-28.1-30.26-36.58zm82 16.38c-10.04 2.94-8.68 17.14-8.96 24.96.34 86.7.04 173.42.14 260.12.66 10.2-1.2 22.9 7.5 30.48 7.2 9.1 20 8.86 30.48 9.46 34.46.22 69.66 1.84 103.4-6.58 33.34-10.32 59.82-38.3 71.48-70.82 14.92-41.78 18.26-87.72 9.84-131.26-6.34-32.6-23.72-63.46-49.92-84.14-20.8-16.28-45.7-27.84-71.88-31.9-30.6-2.4-61.48-2.42-92.08-.32"/>
    <path d="M667.24 1477.4c12.82-2.56 25.52-5.72 38.1-9.34 12.06 35.56 26.2 70.38 39.02 105.66 6.1 15.88 10.82 37.772 21.54 46.3 8.522 4.7 14.78 4.36 21.96 6.6 1 2.46 1.98 4.92 3.06 7.38H680.98c-.08-2.62-.16-5.2-.22-7.78 10.38-2.5 25.208-2.296 31.06-10.96 6.86-15.212-13.84-55.16-23.1-81.98-7.22-18.62-14.6-37.16-21.48-55.88" sodipodi:nodetypes="ccccccccccc"/>
    <path d="M538.68 1477.52c5.84.88 11.76 1.74 17.66 2.48-12.12 30.7-24.82 61.16-36.46 92.06-3.6 13.88-13.096 29.022-6.212 45.102 3.888 10.48 18.84 10.964 29.952 16.838H441.56c13.84-14 36.68-17.44 46.1-36.2 19.82-38.8 34.2-80.12 51.02-120.28" sodipodi:nodetypes="cccccccc"/>
  </g>
</svg>
