<svg width="210" height="70" xmlns="http://www.w3.org/2000/svg" xmlns:xlink="http://www.w3.org/1999/xlink"><defs><path id="a" d="M.922.781H74v68.762H.922z"/><path id="c" d="M.473 0H27v29H.473z"/><path id="e" d="M.473 0H12v14H.473z"/></defs><g fill="none" fill-rule="evenodd"><path d="M50.113 39.027c0 7.926-6.484 14.352-14.48 14.352-7.992 0-14.477-6.426-14.477-14.352 0-7.922 6.485-14.347 14.477-14.347 7.996 0 14.48 6.425 14.48 14.347" fill="#6CADDF" fill-rule="nonzero"/><mask id="b" fill="#fff"><use xlink:href="#a"/></mask><path d="M44.715 48.809c-1.461 4.742-4.637 9.578-10.227 9.336a10.634 10.634 0 0 1-2.39-.407c-.16-3.05.965-6.16 2.199-8.886 2.496-5.524 7.027-8.782 12.379-10.602-.344 3.594-.91 7.152-1.961 10.559m26.8-15.368c-.96-1.23-3.242-4.734-5.003-4.976-3.688-.516-7.586-.934-11.496-1.02-.02-4.332-.399-8.68-1.696-12.73-1.351-4.235-4.336-7.922-7.48-10.996-2.313-2.262-4.625-3.606-7.875-2.606-4.285 1.32-7.7 5.438-10.313 8.828-3.468 4.504-6.144 9.59-8.8 14.594C12.523 36.48 6.168 48.273.98 60.777c-.511 1.239 2.372 4.125 3.032 4.907.176.207 4.129 4.347 4.351 3.812C14.13 55.598 21.211 42.38 28.426 29.18c3.031-5.547 6.383-11.055 11-15.457 1.531-1.457 4.46-3.903 7.16-4.309.324 1.602.516 3.23.656 4.856.363 4.125.278 8.289.09 12.421l-.047 1.094c-4.953.606-9.719 2.035-13.883 4.824-4.66 3.118-7.363 8.067-8.445 13.446-1.3 6.449 2.445 11.64 6.918 16.027 3.52 3.45 8.504 6.012 13.508 4.234 3.87-1.375 5.765-5.71 6.87-9.296 2.009-6.524 2.153-13.665 2.466-20.477 6.39-.695 13.09-.14 18.562.617 1.106.156-1.57-3.465-1.765-3.719" fill="#005DAA" fill-rule="nonzero" mask="url(#b)"/><path d="M34.297 48.852c-.606 1.336-1.184 2.761-1.598 4.23.946.195 1.93.297 2.934.297 7.996 0 14.48-6.426 14.48-14.352 0-.578-.039-1.152-.105-1.718-6.781 1.53-12.707 4.906-15.711 11.543" fill="#6CADDF" fill-rule="nonzero"/><g transform="translate(80 14)"><mask id="d" fill="#fff"><use xlink:href="#c"/></mask><path d="M15.52 18.195c-1.18-3.27-2.32-6.453-3.622-9.601a154.957 154.957 0 0 0-3.828 9.601h7.45zM26.3 28.84c-1.3-.078-2.437-.2-3.577-.2-1.141 0-2.32.122-3.461.2a159.755 159.755 0 0 0-2.809-8.266c-1.75-.043-3.457-.082-5.207-.082-1.426 0-2.809.04-4.23.082-1.102 2.742-1.996 5.485-2.77 8.266-.652-.078-1.262-.2-1.914-.2-.648 0-1.262.122-2.035.2C2.293 24.363 8.398 10.004 11.898.809c.528.082 1.016.203 1.547.203.528 0 1.016-.121 1.543-.203 3.461 9.195 8.223 21.457 11.313 28.03z" fill="#005DAA" fill-rule="nonzero" mask="url(#d)"/></g><path d="M114.605 26.344h.079c1.507-2.176 3.582-3.547 6.148-3.547 2.441 0 4.23 1.371 5.207 3.832 1.629-2.461 3.906-3.832 6.309-3.832 4.07 0 6.347 2.258 6.347 7.422 0 2.742-.164 4.676-.164 6.773 0 1.696.125 3.793.203 5.848-.691-.121-1.87-.2-3.05-.2-1.18 0-2.36.079-3.051.2.367-2.903.445-6.774.445-11.574 0-3.348-1.219-4.922-3.336-4.922-2.644 0-3.215 2.703-3.215 4.64v2.903c0 3.265.082 6.133.325 8.953-.692-.078-1.79-.2-3.051-.2-1.262 0-2.32.122-3.051.2.242-2.82.324-5.688.324-8.953v-2.461c0-3.227-.691-5.082-2.847-5.082-2.442 0-3.543 2.218-3.543 5.93v1.613c0 3.265.082 6.133.328 8.953-.692-.078-1.79-.2-3.051-.2-1.262 0-2.32.122-3.055.2.246-2.82.324-5.688.324-8.953v-1.614c0-3.265-.078-6.128-.324-8.953.977.082 1.914.203 2.89.203.977 0 1.911-.12 2.97-.203l-.16 3.024zm29.095 5.929c0-3.265-.083-6.128-.325-8.953.734.082 1.79.203 3.05.203 1.262 0 2.364-.12 3.055-.203-.246 2.825-.328 5.688-.328 8.953v1.614c0 3.27.082 6.133.328 8.953-.69-.078-1.792-.2-3.054-.2-1.262 0-2.317.122-3.051.2.242-2.82.324-5.684.324-8.953v-1.614zm2.726-19.761c1.793 0 3.219 1.41 3.219 3.187 0 1.774-1.426 3.184-3.22 3.184-1.788 0-3.214-1.41-3.214-3.184 0-1.777 1.426-3.187 3.215-3.187zm22.629 16.375c-.407-2.34-1.63-4.035-4.11-4.035-3.175 0-4.886 3.109-4.886 8.308 0 4.883 2.117 7.582 6.066 7.582 1.668 0 3.457-.926 4.191-1.894l.489.406a16.32 16.32 0 0 0-.895 2.379c-1.183.887-3.012 1.73-5.496 1.73-7.937 0-10.582-5.32-10.582-10.242 0-5.93 4.234-10.324 10.746-10.324 3.012 0 5.047.765 7 1.894-.652 1.047-1.262 2.782-1.547 4.196h-.976zm18.148 10.929h-.082c-1.504 2.18-3.582 3.551-6.144 3.551-4.07 0-6.348-2.262-6.348-7.422 0-2.742.164-4.68.164-6.777 0-1.691-.125-3.793-.207-5.848.695.121 1.875.203 3.055.203 1.18 0 2.359-.082 3.05-.203-.367 2.907-.445 6.778-.445 11.575 0 3.347 1.219 4.921 3.336 4.921 2.441 0 3.54-2.218 3.54-5.93v-1.613c0-3.265-.083-6.128-.325-8.953.691.082 1.789.203 3.05.203 1.262 0 2.321-.12 3.055-.203-.246 2.825-.328 5.688-.328 8.953v1.614c0 3.27.082 6.133.324 8.957-.976-.082-1.91-.203-2.886-.203-.977 0-1.914.12-2.973.203l.164-3.028zm10.66-2.058c.653 1.695 1.953 3.308 4.805 3.308 1.871 0 2.969-1.168 2.969-2.296 0-3.672-9.36-2.461-9.36-9.48 0-4.56 3.746-6.493 7.121-6.493 2.239 0 3.91.644 5.739 1.894-.489 1.051-.817 2.38-.977 3.551h-1.137c-.289-1.293-1.464-3.387-4.03-3.387-1.63 0-2.888.926-2.888 2.336 0 3.914 9.602 2.22 9.602 9.36 0 4.636-3.824 6.816-7.855 6.816-2.399 0-4.477-.969-5.614-1.734.325-1.293.528-2.582.61-3.875h1.015z" fill="#005DAA" fill-rule="nonzero"/><g transform="translate(80 49)"><mask id="f" fill="#fff"><use xlink:href="#e"/></mask><path fill="#005DAA" fill-rule="nonzero" mask="url(#f)" d="M11.398.297v1.566H6.801V13.47H4.92V1.863H.329V.297z"/></g><path d="M94.75 49.266h1.68v4.914c.394-.485.75-.825 1.066-1.02.54-.336 1.211-.504 2.02-.504 1.441 0 2.421.485 2.937 1.453.277.536.418 1.274.418 2.22v6.14h-1.71v-6.043c0-.7-.095-1.215-.282-1.547-.305-.527-.875-.793-1.715-.793-.691 0-1.324.23-1.89.691-.563.461-.844 1.332-.844 2.614v5.078h-1.68V49.266zm19.121 7.648c-.066-.703-.226-1.266-.473-1.684-.457-.785-1.218-1.175-2.285-1.175-.761 0-1.406.27-1.922.808-.52.543-.793 1.223-.824 2.051h5.504zm-.605-3.777c.66.32 1.16.738 1.504 1.246a4.15 4.15 0 0 1 .664 1.691c.097.45.148 1.153.148 2.106h-7.25c.031.972.27 1.754.711 2.343.445.586 1.133.883 2.062.883.868 0 1.563-.277 2.079-.828.293-.312.5-.68.62-1.101h1.645c-.047.351-.187.742-.433 1.171-.246.43-.52.782-.82 1.055-.505.477-1.13.797-1.872.961a6.19 6.19 0 0 1-1.355.137c-1.23 0-2.274-.434-3.13-1.301-.855-.871-1.284-2.086-1.284-3.652 0-1.54.43-2.79 1.293-3.75.859-.961 1.988-1.442 3.379-1.442.699 0 1.378.16 2.039.48zm6.336-.282h1.613v1.66c.129-.324.441-.714.945-1.171.504-.457 1.086-.688 1.742-.688.032 0 .082.004.157.012l.375.023v1.696a3.699 3.699 0 0 0-.274-.024 2.856 2.856 0 0 0-.27-.011c-.84 0-1.484.261-1.933.785a2.66 2.66 0 0 0-.676 1.804v5.528h-1.68v-9.614zm9.906 8.157c.36.261.781.394 1.265.394.594 0 1.172-.133 1.727-.39.938-.43 1.406-1.137 1.406-2.13v-1.292a2.987 2.987 0 0 1-.781.336c-.32.09-.637.156-.941.195l-1.008.133c-.602.086-1.067.21-1.387.37-.543.274-.816.712-.816 1.31 0 .453.18.812.535 1.074zm3.562-4.344c.387-.047.64-.203.774-.465.066-.14.097-.34.097-.61 0-.542-.203-.933-.601-1.175-.403-.242-.98-.363-1.727-.363-.863 0-1.476.222-1.84.668-.203.242-.335.605-.394 1.093H127.8c.031-1.18.426-2 1.191-2.464.766-.461 1.649-.696 2.66-.696 1.168 0 2.118.223 2.848.664.723.438 1.086 1.11 1.086 2.012v5.48c0 .172.035.31.105.407.07.101.223.152.454.152.074 0 .156-.004.25-.016a2.96 2.96 0 0 0 .296-.039V62.5a4.99 4.99 0 0 1-.593.14c-.137.02-.325.028-.559.028-.578 0-.996-.195-1.258-.59-.136-.207-.234-.504-.289-.89-.344.433-.832.808-1.472 1.132-.637.32-1.34.48-2.11.48-.926 0-1.683-.269-2.265-.812-.59-.543-.883-1.218-.883-2.027 0-.89.289-1.578.867-2.07.578-.489 1.332-.79 2.27-.899l2.671-.324zm13.184 3.785c.512-.633.77-1.574.77-2.828 0-.77-.118-1.426-.344-1.977-.43-1.062-1.215-1.593-2.36-1.593-1.148 0-1.937.558-2.36 1.68-.226.6-.343 1.363-.343 2.285 0 .738.117 1.367.344 1.89.43.996 1.215 1.496 2.36 1.496.773 0 1.417-.32 1.933-.953zm-6.277-7.527h1.64v1.265c.336-.43.7-.765 1.094-1.004.562-.351 1.223-.53 1.984-.53 1.121 0 2.078.417 2.864 1.245.78.832 1.175 2.02 1.175 3.567 0 2.09-.566 3.582-1.699 4.476-.719.57-1.555.856-2.504.856-.75 0-1.379-.16-1.886-.473-.297-.18-.625-.48-.993-.914v4.879h-1.675V52.926zm19.289 3.988c-.07-.703-.227-1.266-.473-1.684-.457-.785-1.219-1.175-2.285-1.175-.766 0-1.406.27-1.922.808-.52.543-.797 1.223-.824 2.051h5.504zm-.61-3.777c.66.32 1.164.738 1.508 1.246.332.48.55 1.043.664 1.691.098.45.149 1.153.149 2.106h-7.25c.03.972.27 1.754.71 2.343.446.586 1.133.883 2.063.883.867 0 1.559-.277 2.078-.828.29-.312.496-.68.617-1.101h1.645c-.043.351-.188.742-.43 1.171-.246.43-.52.782-.82 1.055-.504.477-1.13.797-1.871.961-.403.09-.852.137-1.356.137-1.23 0-2.273-.434-3.129-1.301-.855-.871-1.285-2.086-1.285-3.652 0-1.54.43-2.79 1.293-3.75.86-.961 1.988-1.442 3.375-1.442.703 0 1.383.16 2.04.48zm7.918-.282v6.41c0 .493.078.895.238 1.212.293.574.84.859 1.641.859 1.149 0 1.93-.504 2.344-1.516.226-.539.34-1.277.34-2.222v-4.743h1.68v9.614h-1.579l.02-1.383c-.215.355-.48.66-.801.906-.629.496-1.39.742-2.289.742-1.398 0-2.352-.457-2.86-1.375-.277-.488-.413-1.144-.413-1.964v-6.54h1.68zm11.102-2.66h1.676v2.664h1.613v1.328h-1.613v6.247c0 .336.12.558.359.671.133.067.351.098.66.098.082 0 .168 0 .262-.004a4.04 4.04 0 0 0 .332-.027v1.297a3.426 3.426 0 0 1-.602.125 5.29 5.29 0 0 1-.675.039c-.786 0-1.317-.192-1.594-.578-.278-.387-.418-.89-.418-1.504v-6.364h-1.344V52.86h1.344v-2.664zm7.347 2.731h1.676v9.543h-1.676v-9.543zm0-3.63h1.676v1.864h-1.676v-1.863zm12.067 4.087c.707.531 1.129 1.441 1.27 2.734h-1.61c-.102-.601-.328-1.101-.684-1.5-.355-.398-.925-.597-1.707-.597-1.07 0-1.836.503-2.297 1.511-.296.657-.449 1.469-.449 2.43 0 .973.215 1.789.637 2.45.422.663 1.09.995 1.996.995.7 0 1.25-.203 1.656-.61.41-.405.692-.956.848-1.651h1.61c-.184 1.261-.65 2.187-1.391 2.777-.746.586-1.696.879-2.856.879-1.3 0-2.34-.461-3.113-1.383-.777-.922-1.164-2.074-1.164-3.457 0-1.7.422-3.016 1.273-3.957.852-.941 1.93-1.414 3.243-1.414 1.125 0 2.035.265 2.738.793m5.765 6.027c.051.535.192.945.422 1.23.426.508 1.164.766 2.215.766.625 0 1.172-.129 1.649-.383.476-.253.714-.652.714-1.191 0-.406-.19-.715-.574-.926-.242-.129-.722-.281-1.441-.46l-1.344-.321c-.855-.203-1.488-.43-1.894-.684-.723-.433-1.09-1.035-1.09-1.804 0-.907.343-1.64 1.023-2.203.684-.563 1.606-.844 2.754-.844 1.512 0 2.598.426 3.266 1.277.418.543.62 1.13.61 1.75h-1.58a1.78 1.78 0 0 0-.401-.992c-.387-.426-1.063-.637-2.016-.637-.64 0-1.121.117-1.45.348-.327.23-.495.535-.495.914 0 .414.218.746.648.996.25.149.621.277 1.106.395l1.117.257c1.21.286 2.023.555 2.433.82.649.41.973 1.06.973 1.942 0 .856-.34 1.59-1.016 2.211-.672.621-1.703.93-3.086.93-1.488 0-2.539-.324-3.16-.973-.617-.652-.949-1.457-.992-2.418h1.61z" fill="#005DAA" fill-rule="nonzero"/></g></svg>