<?xml version="1.0" encoding="UTF-8" standalone="no"?>
<!-- Created with Inkscape (http://www.inkscape.org/) -->

<svg
   xmlns:dc="http://purl.org/dc/elements/1.1/"
   xmlns:cc="http://creativecommons.org/ns#"
   xmlns:rdf="http://www.w3.org/1999/02/22-rdf-syntax-ns#"
   xmlns:svg="http://www.w3.org/2000/svg"
   xmlns="http://www.w3.org/2000/svg"
   xmlns:sodipodi="http://sodipodi.sourceforge.net/DTD/sodipodi-0.dtd"
   xmlns:inkscape="http://www.inkscape.org/namespaces/inkscape"
   width="118.69276"
   height="35.76339"
   viewBox="0 0 31.404125 9.4623973"
   version="1.1"
   id="svg1820"
   inkscape:version="0.92.0 r15299"
   sodipodi:docname="shire.svg">
  <defs
     id="defs1814" />
  <sodipodi:namedview
     id="base"
     pagecolor="#ffffff"
     bordercolor="#666666"
     borderopacity="1.0"
     inkscape:pageopacity="0.0"
     inkscape:pageshadow="2"
     inkscape:zoom="6.8143533"
     inkscape:cx="58.846374"
     inkscape:cy="17.38169"
     inkscape:document-units="mm"
     inkscape:current-layer="layer1"
     showgrid="false"
     fit-margin-top="0"
     fit-margin-left="0"
     fit-margin-right="0"
     fit-margin-bottom="0"
     units="px"
     inkscape:window-width="1280"
     inkscape:window-height="744"
     inkscape:window-x="-4"
     inkscape:window-y="-4"
     inkscape:window-maximized="1" />
  <metadata
     id="metadata1817">
    <rdf:RDF>
      <cc:Work
         rdf:about="">
        <dc:format>image/svg+xml</dc:format>
        <dc:type
           rdf:resource="http://purl.org/dc/dcmitype/StillImage" />
        <dc:title></dc:title>
      </cc:Work>
    </rdf:RDF>
  </metadata>
  <g
     inkscape:label="Layer 1"
     inkscape:groupmode="layer"
     id="layer1"
     transform="translate(-44.90642,-154.55314)">
    <g
       id="g1853"
       transform="translate(0.13229213,-0.13228473)">
      <path
         d="m 57.378289,155.18877 h 1.714853 v 3.24838 h 0.03598 c 0.434975,-0.70027 1.183569,-1.03858 1.823861,-1.03858 1.823156,0 2.28212,1.02658 2.28212,2.57175 v 3.83999 h -1.71485 V 160.285 c 0,-1.02694 -0.301625,-1.53388 -1.099256,-1.53388 -0.929216,0 -1.327855,0.51929 -1.327855,1.78717 v 3.27202 h -1.714853 v -8.62154"
         style="fill:#1186c8;fill-opacity:1;fill-rule:nonzero;stroke:none;stroke-width:0.35277778"
         id="path862"
         inkscape:connector-curvature="0" />
      <path
         inkscape:connector-curvature="0"
         id="path864"
         style="fill:#1186c8;fill-opacity:1;fill-rule:nonzero;stroke:none;stroke-width:0.35277778"
         d="m 65.475171,156.60189 h -1.7145 v -1.41287 h 1.7145 z m -1.7145,0.96555 h 1.7145 v 6.24311 h -1.7145 z" />
      <path
         d="m 66.001338,157.56726 h 1.630892 v 1.15958 h 0.02328 c 0.313972,-0.78493 1.159933,-1.32821 1.993194,-1.32821 0.120298,0 0.265642,0.024 0.373592,0.0603 v 1.5942 c -0.156633,-0.0363 -0.409928,-0.0603 -0.615244,-0.0603 -1.255889,0 -1.690864,0.90523 -1.690864,2.00414 v 2.8134 h -1.714853 v -6.24311"
         style="fill:#1186c8;fill-opacity:1;fill-rule:nonzero;stroke:none;stroke-width:0.35277778"
         id="path868"
         inkscape:connector-curvature="0" />
      <path
         d="m 71.532118,161.10588 c 0.04833,1.08691 0.579967,1.58186 1.533525,1.58186 0.688269,0 1.243189,-0.42263 1.35255,-0.80892 h 1.509889 c -0.483306,1.47355 -1.509889,2.10079 -2.922764,2.10079 -1.968147,0 -3.1877,-1.3522 -3.1877,-3.28401 0,-1.87184 1.291872,-3.29706 3.1877,-3.29706 2.125486,0 3.152069,1.78717 3.031067,3.70734 h -4.504267 m 2.789767,-1.08691 c -0.157692,-0.86924 -0.531636,-1.32821 -1.36525,-1.32821 -1.086556,0 -1.400175,0.84491 -1.424517,1.32821 z"
         style="fill:#1186c8;fill-opacity:1;fill-rule:nonzero;stroke:none;stroke-width:0.35277778"
         id="path872"
         inkscape:connector-curvature="0" />
      <path
         d="m 56.932829,155.17289 c -0.344664,-0.4124 -1.311275,-0.48683 -2.715683,-0.11112 -0.280106,-0.0441 -0.698147,-0.0787 -0.992717,-0.0787 -1.336322,0 -2.750961,0.62265 -3.126669,1.9124 -0.164395,0.10548 -0.329142,0.21379 -0.494948,0.32773 -4.619624,3.17536 -5.019674,5.22464 -4.541661,5.91962 0.550687,0.80186 2.361848,0.78281 4.489098,-0.0279 l -0.03316,-0.0427 c -1.674283,0.52776 -3.062111,0.46567 -3.486502,-0.15205 -0.40005,-0.58138 -0.203906,-2.5848 3.813527,-5.34529 1.4224,-0.9779 3.002492,-1.73214 4.308123,-2.10537 -1.266473,0.49177 -2.77107,1.38923 -4.098573,2.49484 -0.0085,0.007 -0.01623,0.0141 -0.02469,0.0215 0.194733,1.30739 1.373717,1.74801 2.543528,2.05705 1.26753,0.33796 2.559755,0.49494 2.559755,1.42487 0,0.88159 -1.014236,1.07491 -1.678516,1.07491 -1.014236,0 -1.908175,-0.44697 -1.908175,-1.5942 h -1.835503 c -0.02399,2.12513 1.763183,3.06705 3.671358,3.06705 2.342445,0 3.586339,-1.18322 3.586339,-2.76507 0,-1.95651 -1.932164,-2.35515 -2.560108,-2.51214 -2.16147,-0.55527 -2.572103,-0.63958 -2.572103,-1.30386 0,-0.72461 0.700617,-0.9779 1.304219,-0.9779 0.905581,0 1.642181,0.26529 1.702859,1.30386 h 1.835502 c 0,-1.30563 -0.710141,-2.09267 -1.706386,-2.48038 1.006475,-0.22295 1.591734,-0.12276 1.862314,0.27094 0.1397,0.2032 0.159103,0.44485 0.02752,0.74083 l 0.03669,0.036 c 0.225072,-0.40569 0.311855,-0.82303 0.03457,-1.15499"
         style="fill:#1186c8;fill-opacity:1;fill-rule:nonzero;stroke:none;stroke-width:0.35277778"
         id="path876"
         inkscape:connector-curvature="0" />
    </g>
  </g>
</svg>
