<?xml version="1.0"?>
<svg width="320" height="54" viewBox="0 0 160 27" version="1.1" xmlns="http://www.w3.org/2000/svg">
<g stroke="none" fill="#BD1A8D" fill-rule="evenodd">
 <path d="M159.879976,0.913707317 L159.879976,26.4507805 L155.091439,26.4507805 L154.829244,24.4973659 C153.613878,25.9002927 151.450707,26.8490732 149.363878,26.8490732 C143.884366,26.8490732 139.92022,23.3507805 139.92022,17.4054146 C139.92022,11.4602927 143.884366,7.9617561 149.363878,7.9617561 C151.830707,7.9617561 153.512171,8.99492683 154.619244,10.2027317 L154.619244,10.2027317 L154.619244,0.913707317 L159.879976,0.913707317 Z M149.900707,12.6354146 C147.25461,12.6354146 145.109488,14.7805366 145.109488,17.4263902 C145.109488,20.0724878 147.25461,22.2176098 149.900707,22.2176098 C152.546805,22.2176098 154.691927,20.0724878 154.691927,17.4263902 C154.691927,14.7805366 152.546805,12.6354146 149.900707,12.6354146 Z"></path>
 <path d="M39.2292927,7.9617561 C41.8536829,7.9617561 43.5180732,9.09614634 44.6178293,10.4183415 L44.6178293,10.4183415 L44.9080732,8.40321951 L49.7456341,8.40321951 L49.7456341,26.4507805 L44.9570976,26.4507805 L44.6949024,24.4973659 C43.4792927,25.9002927 41.3163659,26.8490732 39.2292927,26.8490732 C33.7500244,26.8490732 29.785878,23.3507805 29.785878,17.4054146 C29.785878,11.4602927 33.7500244,7.9617561 39.2292927,7.9617561 Z M39.7663659,12.6354146 C37.1202683,12.6354146 34.9751463,14.7805366 34.9751463,17.4263902 C34.9751463,20.0724878 37.1202683,22.2176098 39.7663659,22.2176098 C42.4124634,22.2176098 44.5573415,20.0724878 44.5573415,17.4263902 C44.5573415,14.7805366 42.4124634,12.6354146 39.7663659,12.6354146 Z"></path>
 <polygon id="Fill-1" points="110.828927 8.40319512 104.349415 8.40319512 98.9877073 15.4907561 98.9877073 0.913682927 93.7269756 0.913682927 93.7269756 26.451 98.9877073 26.451 98.9877073 18.5231951 105.235024 26.451 111.891366 26.451 103.919902 16.9156341"></polygon>
 <polygon id="Fill-2" points="112.379756 26.4509756 117.640488 26.4509756 117.640488 8.40317073 112.379756 8.40317073"></polygon>
 <path d="M115.010268,0.243756098 C113.369537,0.243756098 112.039537,1.5737561 112.039537,3.2142439 C112.039537,4.85473171 113.369537,6.18473171 115.010268,6.18473171 C116.650756,6.18473171 117.980756,4.85473171 117.980756,3.2142439 C117.980756,1.5737561 116.650756,0.243756098 115.010268,0.243756098" id="Fill-6"></path>
 <path d="M20.9703902,7.96480488 C18.4694146,7.96480488 16.5862439,8.91480488 14.9789268,11.3623659 C13.8099024,8.73212195 11.690878,7.97187805 9.71795122,7.97187805 C8.18356098,7.97187805 6.33404878,8.65187805 5.12770732,10.4184634 L4.83746341,8.40309756 L-9.75609756e-05,8.40309756 L-9.75609756e-05,26.4509024 L5.26087805,26.4509024 L5.26087805,16.8113902 C5.26087805,14.4733415 6.58770732,12.6777317 8.56307317,12.7143171 C10.5977073,12.7143171 11.5706341,13.8157805 11.5706341,16.592122 L11.5706341,26.4509024 L16.8316098,26.4509024 L16.8316098,16.8113902 C16.8316098,14.4733415 18.158439,12.6777317 20.1340488,12.7143171 C22.168439,12.7143171 23.1413659,13.8157805 23.1413659,16.592122 L23.1413659,26.4509024 L28.4023415,26.4509024 L28.4023415,16.587 C28.4023415,9.86456098 24.7333171,7.96480488 20.9703902,7.96480488" id="Fill-12"></path>
 <path d="M63.1882683,7.94992683 C61.153878,7.94992683 58.8648537,8.8365122 57.4507073,10.4184634 L57.1602195,8.40309756 L52.3229024,8.40309756 L52.3226585,26.4509024 L57.5987561,26.4509024 L57.5987561,17.1199268 C57.5987561,14.7816341 59.2426585,12.6628537 61.6904634,12.699439 C64.2111951,12.699439 65.4168049,14.1240732 65.4168049,16.9006585 L65.4168049,26.4509024 L70.6777805,26.4509024 L70.6777805,16.8640732 C70.6777805,9.84968293 67.1748537,7.94992683 63.1882683,7.94992683" id="Fill-15"></path>
 <path d="M83.8645854,7.94992683 C81.8299512,7.94992683 79.5411707,8.8365122 78.1267805,10.4184634 L77.8365366,8.40309756 L72.9992195,8.40309756 L72.9989756,26.4509024 L78.2750732,26.4509024 L78.2750732,17.1199268 C78.2750732,14.7816341 79.9189756,12.6628537 82.3665366,12.699439 C84.8875122,12.699439 86.093122,14.1240732 86.093122,16.9006585 L86.093122,26.4509024 L91.3540976,26.4509024 L91.3540976,16.8640732 C91.3540976,9.84968293 87.8511707,7.94992683 83.8645854,7.94992683" id="Fill-17"></path>
 <path d="M131.047341,7.94992683 C129.012707,7.94992683 126.723927,8.8365122 125.30978,10.4184634 L125.019293,8.40309756 L120.181976,8.40309756 L120.181732,26.4509024 L125.457585,26.4509024 L125.457585,17.1199268 C125.457585,14.7816341 127.101488,12.6628537 129.549293,12.699439 C132.070268,12.699439 133.275878,14.1240732 133.275878,16.9006585 L133.275878,26.4509024 L138.536854,26.4509024 L138.536854,16.8640732 C138.536854,9.84968293 135.033927,7.94992683 131.047341,7.94992683" id="Fill-19"></path>
</g>
</svg>