<?xml version="1.0" encoding="UTF-8" standalone="no"?>
<!-- Created with Inkscape (http://www.inkscape.org/) -->

<svg
   xmlns:dc="http://purl.org/dc/elements/1.1/"
   xmlns:cc="http://creativecommons.org/ns#"
   xmlns:rdf="http://www.w3.org/1999/02/22-rdf-syntax-ns#"
   xmlns:svg="http://www.w3.org/2000/svg"
   xmlns="http://www.w3.org/2000/svg"
   xmlns:sodipodi="http://sodipodi.sourceforge.net/DTD/sodipodi-0.dtd"
   xmlns:inkscape="http://www.inkscape.org/namespaces/inkscape"
   width="340"
   height="70"
   id="svg3190"
   version="1.1"
   inkscape:version="0.48.2 r9819"
   sodipodi:docname="New document 2">
  <defs
     id="defs3192" />
  <sodipodi:namedview
     id="base"
     pagecolor="#ffffff"
     bordercolor="#666666"
     borderopacity="1.0"
     inkscape:pageopacity="0.0"
     inkscape:pageshadow="2"
     inkscape:zoom="0.98994949"
     inkscape:cx="138.99402"
     inkscape:cy="70.402694"
     inkscape:document-units="px"
     inkscape:current-layer="layer1"
     showgrid="false"
     fit-margin-top="0"
     fit-margin-left="0"
     fit-margin-right="0"
     fit-margin-bottom="0"
     inkscape:window-width="1268"
     inkscape:window-height="742"
     inkscape:window-x="125"
     inkscape:window-y="125"
     inkscape:window-maximized="0" />
  <metadata
     id="metadata3195">
    <rdf:RDF>
      <cc:Work
         rdf:about="">
        <dc:format>image/svg+xml</dc:format>
        <dc:type
           rdf:resource="http://purl.org/dc/dcmitype/StillImage" />
        <dc:title></dc:title>
      </cc:Work>
    </rdf:RDF>
  </metadata>
  <g
     inkscape:label="Layer 1"
     inkscape:groupmode="layer"
     id="layer1"
     transform="translate(-463.8473,-754.39872)">
    <path
       inkscape:connector-curvature="0"
       id="path99"
       d="m 485.04116,770.75095 16.21094,0 -11.93848,35.49805 18.16406,0 -4.00391,11.88965 -34.3506,0 15.91798,-47.3877 z m 0,0"
       style="fill:#000000;fill-opacity:1;fill-rule:nonzero;stroke:none" />
    <path
       inkscape:connector-curvature="0"
       id="path101"
       d="m 519.34291,780.80955 14.08691,0 -6.7871,20.23925 c -1.17187,3.4668 -0.38086,5.2002 2.39258,5.2002 2.14842,0 4.42381,-1.26954 6.83592,-3.8086 l 7.27539,-21.63085 14.11133,0 -7.83692,23.29101 c -0.89842,2.65625 -0.28808,3.97949 1.83107,3.97949 0.54687,0 1.29882,-0.14649 2.24608,-0.43945 l -6.958,9.86327 c -2.53905,0.42969 -4.56055,0.63478 -6.05467,0.63478 -2.73438,0 -4.6631,-0.42482 -5.78615,-1.29395 -1.16211,-0.85938 -1.63574,-2.52442 -1.44043,-5.00489 -2.5293,2.08985 -4.89746,3.65724 -7.1045,4.71192 -2.14843,1.06445 -4.46777,1.58692 -6.958,1.58692 -2.82227,0 -4.95606,-0.56153 -6.42089,-1.68458 -1.50392,-1.13281 -2.33888,-2.71972 -2.51466,-4.76074 -0.18555,-2.05078 0.18067,-4.44336 1.09863,-7.17773 l 7.9834,-23.70605 z m 0,0"
       style="fill:#000000;fill-opacity:1;fill-rule:nonzero;stroke:none" />
    <path
       inkscape:connector-curvature="0"
       id="path103"
       d="m 591.90638,780.7363 c 3.3496,0 5.57129,0.8252 6.66504,2.46582 1.08397,1.67969 1.6455,3.0664 1.68456,4.15039 1.13281,-1.08399 3.07619,-2.4707 5.81056,-4.15039 2.76368,-1.64062 5.8203,-2.46582 9.17969,-2.46582 2.4414,0 4.3457,0.60058 5.71289,1.78222 1.34766,1.19141 2.10937,2.84669 2.29492,4.95606 0.15625,2.11914 -0.21485,4.55567 -1.12305,7.2998 l -7.83691,23.29102 -14.11132,0 6.83593,-20.3125 c 1.15234,-3.42773 0.47363,-5.15137 -2.02637,-5.15137 -1.40625,0 -2.70508,0.47852 -3.90625,1.41602 -1.1914,0.92773 -2.06543,1.70898 -2.6123,2.34375 l -7.32421,21.77735 -14.08693,-0.0732 6.7871,-20.19043 c 1.17188,-3.51562 0.43945,-5.27344 -2.19726,-5.27344 -1.30859,0 -2.55859,0.47852 -3.75976,1.41602 -1.22071,0.9668 -2.09961,1.74805 -2.63673,2.34375 l -7.27538,21.7041 -14.11132,0 12.3291,-36.69434 14.11132,0 -1.63574,4.8584 c 2.22656,-1.57226 3.81835,-2.66113 4.78515,-3.24706 1.0254,-0.63478 2.20704,-1.15235 3.56445,-1.5625 1.3672,-0.44923 2.98829,-0.6836 4.88281,-0.6836 z m 0,0"
       style="fill:#000000;fill-opacity:1;fill-rule:nonzero;stroke:none" />
    <path
       inkscape:connector-curvature="0"
       id="path105"
       d="m 633.7472,780.49216 14.59961,0 -12.64648,37.64649 -14.5752,0 12.62207,-37.64649 z m 0,0"
       style="fill:#000000;fill-opacity:1;fill-rule:nonzero;stroke:none" />
    <path
       inkscape:connector-curvature="0"
       id="path107"
       d="m 681.19348,780.7363 c 4.08205,0 6.76757,1.19628 8.05665,3.58887 1.25,2.43164 1.18165,5.68359 -0.19533,9.76563 l -8.05663,24.04785 -14.18457,-0.0732 6.83594,-20.3125 c 1.15234,-3.42773 0.40039,-5.15137 -2.24609,-5.15137 -1.60156,0 -3.01757,0.48828 -4.24806,1.46484 -1.26952,0.97656 -2.17285,1.78224 -2.70996,2.417 l -7.22655,21.58203 -14.11133,0 12.3291,-36.69434 14.11134,0 -1.63575,4.78516 c 2.89062,-2.01172 5.18066,-3.40332 6.86035,-4.1748 1.75781,-0.83009 3.8916,-1.24512 6.4209,-1.24512 z m 0,0"
       style="fill:#000000;fill-opacity:1;fill-rule:nonzero;stroke:none" />
    <path
       inkscape:connector-curvature="0"
       id="path109"
       d="m 718.06848,780.17477 c 3.57422,0 6.45507,0.8252 8.64258,2.46583 2.19727,1.67968 3.56933,3.9502 4.12598,6.81152 0.5371,2.87109 0.2246,6.03028 -0.92773,9.49706 -0.47852,1.40625 -0.89356,2.36818 -1.24513,2.90528 l -23.38865,0 c -0.60548,2.41211 -0.11713,4.26759 1.46483,5.56641 1.5625,1.31836 3.56934,1.97754 6.03027,1.97754 3.37891,0 7.62208,-1.46485 12.71973,-4.39454 l 0.56152,6.05469 c -5.85937,4.72656 -12.12402,7.08009 -18.77441,7.08009 -3.02734,0 -5.6543,-0.46875 -7.86132,-1.41603 -2.23635,-0.95702 -3.9551,-2.2998 -5.17579,-4.02831 -1.25977,-1.70899 -1.97265,-3.7207 -2.14844,-6.05469 -0.18555,-2.30469 0.17579,-4.79492 1.07422,-7.4707 1.15234,-3.47656 3.00782,-6.68946 5.5664,-9.61915 2.53907,-2.89062 5.49317,-5.18066 8.86232,-6.86035 3.3789,-1.66992 6.86522,-2.51465 10.44921,-2.51465 l 0.0244,0 z m -2.66112,8.05665 c -4.07227,0 -7.02638,2.73438 -8.86231,8.20313 l 12.3291,0 c 1.83594,-5.46875 0.6836,-8.20313 -3.46679,-8.20313 l 0,0 z m 0,0"
       style="fill:#000000;fill-opacity:1;fill-rule:nonzero;stroke:none" />
    <path
       inkscape:connector-curvature="0"
       id="path111"
       d="m 740.04115,781.4199 17.50487,0 2.5879,9.47265 9.05761,-9.47265 14.16015,0 -18.87206,17.06542 7.91015,19.65333 -17.57813,0 -2.6123,-10.35157 -9.76562,10.35157 -14.11132,0 19.40918,-17.45607 -7.69043,-19.26268 z m 0,0"
       style="fill:#000000;fill-opacity:1;fill-rule:nonzero;stroke:none" />
    <path
       inkscape:connector-curvature="0"
       id="path113"
       d="m 788.80579,811.57126 2.63672,0 c 0.70801,0 1.07422,0.24414 1.07422,0.80566 0,0.1709 -0.0489,0.41504 -0.0732,0.63476 -0.29296,1.14747 -0.29296,1.1963 -0.29296,1.7334 0,0.19532 0,0.31739 0.0732,0.56153 l 1.53808,0 0.0976,-0.51269 c -0.17089,-0.14649 -0.24415,-0.29297 -0.24415,-0.58594 0,-0.21973 0.0489,-0.43946 0.14649,-1.09863 0.12212,-0.58594 0.14649,-0.92774 0.14649,-1.12305 0,-0.53712 -0.0976,-0.78125 -0.56153,-1.12305 0.68359,-0.43945 0.97656,-0.708 1.2207,-1.19629 0.21973,-0.43945 0.36621,-1.0498 0.36621,-1.5625 0,-1.24511 -0.75683,-1.80664 -2.36816,-1.80664 l -4.05273,0 -1.85546,9.00879 1.36719,0 0.78125,-3.73535 z m 0.26855,-1.29395 0.56153,-2.70995 2.53906,0 c 0.8789,0 1.24511,0.26855 1.24511,0.92772 0,0.43947 -0.14648,0.92774 -0.36621,1.22072 -0.31737,0.41503 -0.73241,0.56151 -1.41601,0.56151 l -2.56348,0 z m 3.46681,-7.15331 c -4.8584,0 -9.39941,4.49218 -9.39941,9.32617 0,3.54004 2.56348,6.12793 6.05469,6.12793 4.85839,0 9.375,-4.49219 9.375,-9.35059 0,-3.51563 -2.53906,-6.10351 -6.03028,-6.10351 z m -0.29297,1.24511 c 2.85645,0 4.95606,2.17285 4.95606,5.10254 0,4.07715 -3.73536,7.86133 -7.73926,7.86133 -2.83204,0 -4.93164,-2.17286 -4.93164,-5.12696 0,-4.05272 3.73535,-7.83691 7.71484,-7.83691 z m 0,0"
       style="fill:#000000;fill-opacity:1;fill-rule:nonzero;stroke:none" />
    <path
       inkscape:connector-curvature="0"
       id="path117"
       d="m 650.91029,767.79685 c -0.32715,-9.80469 -14.16016,-9.76074 -14.62402,0 0.53711,9.64843 14.20898,9.7168 14.62402,0"
       style="fill:#ff0000;fill-opacity:1;fill-rule:evenodd;stroke:none" />
    <path
       inkscape:connector-curvature="0"
       id="path119"
       d="m 650.72473,767.79685 -0.0927,-1.50392 0,0.0976 -0.47362,-1.40625 -0.65431,-1.21583 0.0976,0 -0.84474,-1.12792 0,0.0976 -1.12792,-0.84472 -1.21583,-0.65918 0.0927,0 -1.41112,-0.46875 -1.49415,-0.19042 0.0927,0 -1.40625,0.19042 -1.41112,0.46875 -1.21583,0.65918 -1.12792,0.84472 0.0976,-0.0976 -0.84472,1.12792 -0.74708,1.21583 -0.37597,1.40625 0,-0.0976 -0.19043,1.50392 0.19043,1.40625 0.37597,1.40625 0,-0.0928 0.74708,1.21582 0.84472,1.12793 -0.0976,0 1.12792,0.84472 1.21583,0.75195 0,-0.0976 1.41112,0.37598 1.40625,0.19042 -0.0927,0 1.49415,-0.19042 1.41112,-0.37598 -0.0927,0.0976 1.21583,-0.75195 1.12792,-0.84472 0.84474,-1.12793 -0.0976,0 0.65431,-1.21582 0,0.0928 0.47362,-1.40625 0.0927,-1.40625 0.37598,0 c -0.0489,8.06152 -10.89354,10.47851 -14.35058,2.90527 l -0.0879,0 c -0.74707,-2.51465 -0.75195,-3.27637 0,-5.81055 l 0.0879,-0.0927 0.75196,-1.2207 0.8496,-1.12305 1.12305,-0.84961 0,-0.0879 c 2.82226,-1.70898 5.52246,-1.75292 8.33985,0 l 0,0.0879 1.12304,0.84961 0.0976,0 0.84473,1.12305 0.6543,1.2207 0,0.0927 0.46875,1.40136 0.0976,1.50392"
       style="fill:#ff0000;fill-opacity:1;fill-rule:nonzero;stroke:none" />
    <path
       inkscape:connector-curvature="0"
       id="path121"
       d="m 650.72473,767.79685 0.37598,0"
       style="fill:#ff0000;fill-opacity:1;fill-rule:nonzero;stroke:none" />
  </g>
</svg>
