<?xml version="1.0" encoding="UTF-8" standalone="no"?>
<svg
   width="600"
   height="146.57271"
   viewBox="0 0 46.261441 11.301108"
   version="1.1"
   id="svg18"
   sodipodi:docname="SmithKline Beecham.svg"
   inkscape:version="1.1.1 (3bf5ae0d25, 2021-09-20)"
   xmlns:inkscape="http://www.inkscape.org/namespaces/inkscape"
   xmlns:sodipodi="http://sodipodi.sourceforge.net/DTD/sodipodi-0.dtd"
   xmlns="http://www.w3.org/2000/svg"
   xmlns:svg="http://www.w3.org/2000/svg">
  <defs
     id="defs22">
    <style
       type="text/css"
       id="style1140"><![CDATA[
    .fil1 {fill:#00817A}
    .fil0 {fill:#667378;fill-rule:nonzero}
   ]]></style>
  </defs>
  <sodipodi:namedview
     id="namedview20"
     pagecolor="#ffffff"
     bordercolor="#666666"
     borderopacity="1.0"
     inkscape:pageshadow="2"
     inkscape:pageopacity="0.0"
     inkscape:pagecheckerboard="0"
     showgrid="false"
     inkscape:zoom="0.125"
     inkscape:cx="2164"
     inkscape:cy="-444"
     inkscape:window-width="1366"
     inkscape:window-height="715"
     inkscape:window-x="-8"
     inkscape:window-y="-8"
     inkscape:window-maximized="1"
     inkscape:current-layer="g16" />
  <g
     fill-rule="evenodd"
     clip-rule="evenodd"
     id="g16"
     transform="translate(53.026356,-140.89176)">
    <g
       id="g11834"
       transform="matrix(0.23264245,0,0,0.23264245,-40.690175,108.11436)">
      <path
         style="clip-rule:evenodd;fill:#00817a;fill-opacity:1;fill-rule:evenodd;stroke-width:0.0708146;image-rendering:optimizeQuality;shape-rendering:geometricPrecision;text-rendering:geometricPrecision"
         d="m 37.079809,140.96258 h 3.823981 l 6.939817,4.8862 c 0,0 4.390496,2.33689 3.823981,6.44412 0,0 -0.212443,-0.0708 -0.283257,-0.14164 -0.566517,-1.34547 -1.628733,-2.26606 -4.248869,-4.03642 -2.761764,-1.91198 -10.055653,-7.15226 -10.055653,-7.15226 z"
         id="path7169" />
      <path
         style="clip-rule:evenodd;fill:#00817a;fill-opacity:1;fill-rule:evenodd;stroke-width:0.0708146;image-rendering:optimizeQuality;shape-rendering:geometricPrecision;text-rendering:geometricPrecision"
         d="m 42.532521,140.96258 h 3.823983 l 1.41629,0.84977 c 0,0 4.390496,2.33688 3.753165,6.44412 0,0 -0.141628,-0.0708 -0.212442,-0.14163 -0.566517,-1.34548 -1.699549,-2.33686 -4.248869,-4.03642 -2.761765,-1.912 -4.532127,-3.11584 -4.532127,-3.11584 z"
         id="path7167" />
      <path
         style="clip-rule:evenodd;fill:#00817a;fill-opacity:1;fill-rule:evenodd;stroke-width:0.0708146;image-rendering:optimizeQuality;shape-rendering:geometricPrecision;text-rendering:geometricPrecision"
         d="m 29.290216,165.81846 -7.931219,-5.31109 v 9.91403 h 11.89683 c 0,0 7.010633,0.14163 8.497735,-6.65656 0.920589,-4.53213 -0.778957,-8.49773 -3.753166,-10.7638 l -5.665158,-4.10724 c -0.637329,-0.49571 -1.062216,-1.27466 -1.062216,-2.12444 0,-1.55791 1.274659,-2.83258 2.832578,-2.83258 0.708145,0 1.345473,0.21245 1.841177,0.63734 1.699546,1.13303 6.727374,4.74456 6.727374,4.74456 v 21.10272 h 17.349544 c 0,0 6.514931,-0.14163 8.002036,-6.72738 1.416289,-6.65656 -4.10724,-8.8518 -5.098642,-9.84321 -0.07082,-0.0708 3.611537,-2.05362 3.257465,-6.23167 -0.07082,-1.34547 -1.203846,-5.94841 -6.160859,-6.65656 -0.07082,0 -11.755201,0 -11.755201,0 0,0 2.478506,1.34548 3.399094,3.68235 0,0 1.91199,0 1.91199,0 0,0 3.611539,0 3.682353,4.17805 0.07082,3.68236 -2.124433,4.39051 -2.974207,5.16946 0,0 2.974207,1.84118 3.96561,3.68236 0.991402,1.91198 0.849773,3.89479 0.424887,5.24026 -0.566515,1.912 -1.982805,3.11584 -3.894796,3.39911 0,0 -3.115837,0 -3.115837,0 v -10.1973 c 0,0 0.283257,-3.61153 -2.832579,-5.73596 -2.549319,-1.69954 -13.525563,-9.48915 -13.525563,-9.48915 h -8.143664 c 0,0 -6.160859,0.56652 -6.444116,7.57715 -0.141628,5.02783 4.957012,7.50633 4.957012,7.57715 l 6.869003,4.81538 c 0.778961,0.4957 1.345476,1.4163 1.345476,2.40769 0,1.62874 -1.345476,2.97422 -2.974208,2.97422 -0.566515,0 -1.13303,-0.14163 -1.628733,-0.42489 z"
         id="path1167" />
    </g>
    <g
       id="g11879"
       transform="matrix(0.23264245,0,0,0.23264245,-40.690175,108.11436)">
      <path
         id="path1562"
         d="m 64.407555,186.21271 0.661507,-3.05965 h 2.566824 c 0.871254,0.0601 1.257011,0.80231 1.091267,1.58703 -0.192145,0.88592 -1.042864,1.47262 -2.022657,1.47262 z m 1.931718,2.74284 h -6.119309 l 2.7135,-14.15567 h 6.612139 c 2.66363,0.0176 4.07025,1.21447 3.534884,3.70796 -0.378423,1.74397 -1.638367,2.8015 -3.291402,3.09485 l 0.633639,0.0411 c 1.325948,0 2.185467,1.42129 1.746907,3.44395 -0.885921,4.11572 -5.693949,3.86784 -5.830358,3.86784 z m -0.06014,-11.4143 -0.621905,2.88364 1.99919,-0.0191 c 1.063398,0 1.839313,-0.40629 2.07106,-1.49169 0.171611,-0.80232 -0.393091,-1.37435 -1.312747,-1.37435 h -2.135598 z"
         style="fill:#667378;fill-opacity:1;stroke-width:1.46676" />
      <path
         id="path1564"
         d="m 46.400183,182.78783 3.10219,0.0425 c 0.111474,-0.53243 0.240548,-1.06193 0.03374,-1.47409 -0.203879,-0.40629 -0.598436,-0.66737 -1.177805,-0.62484 -1.305414,0.0587 -1.6237,0.94313 -1.95812,2.05639 z m 5.915429,2.04026 h -6.459596 c -0.297752,1.27315 -0.249349,2.37762 1.145537,2.37762 1.034063,0 1.515159,-0.4943 1.848113,-1.41542 h 3.137393 c -0.393091,1.27461 -1.063399,2.19866 -2.125331,2.7487 -0.979793,0.54856 -1.739573,0.76564 -2.899778,0.76564 -3.75343,0 -5.022175,-1.68677 -4.190523,-5.5546 0.673241,-3.11833 2.954047,-4.88137 5.912496,-4.88137 4.004246,0 4.419338,2.29401 3.631689,5.95943 z"
         style="fill:#667378;fill-opacity:1;stroke-width:1.46676" />
      <path
         d="m 35.490446,179.16348 h -3.414609 c -0.126141,1.05606 -1.807045,9.84487 -1.807045,9.84487 h 3.279668 l 1.18074,-5.64701 c 0.02053,-0.12468 0.0059,-2.14 1.851046,-2.14 1.154338,0 1.177806,1.03846 1.010596,1.99625 l -1.126469,5.79076 h 3.411676 l 1.254077,-6.59161 c 0.469362,-2.1752 -0.607238,-3.54808 -2.726701,-3.54808 -1.25261,0 -2.025591,0.39016 -3.083123,1.37435 z"
         id="path1566"
         style="fill:#667378;fill-opacity:1;stroke-width:1.46676" />
      <path
         d="m 27.690234,189.00835 1.905317,-9.84487 h -3.438078 l -1.782109,9.84487 z"
         id="path1568"
         style="fill:#667378;fill-opacity:1;stroke-width:1.46676" />
      <path
         d="m 21.685332,189.00835 2.647496,-14.16154 h -3.411676 l -2.761903,14.16154 z"
         id="path1570"
         style="fill:#667378;fill-opacity:1;stroke-width:1.46676" />
      <path
         d="m 9.4921837,181.06146 h -0.052803 l 1.1235353,-6.21465 H 6.9854965 l -2.845508,14.16154 h 3.7754318 l 1.4154202,-7.53473 h 0.05427 l 2.6489625,7.53473 h 4.498543 l -3.137393,-7.92342 5.347795,-6.23812 h -4.117186 z"
         id="path1572"
         style="fill:#667378;fill-opacity:1;stroke-width:1.46676" />
      <path
         d="m -4.6033482,189.00835 1.036997,-5.64701 c 0.023468,-0.12468 0.1481425,-2.14 1.9889221,-2.14 1.16167133,0 1.09713403,1.03846 0.92845701,1.99625 l -1.09126701,5.79076 h 3.3266042 l 1.3406156,-6.59161 c 0.4664287,-2.1752 -0.8580526,-3.54808 -2.97458254,-3.54808 -1.25847726,0 -1.92145126,0.39016 -2.97604936,1.37435 l 1.0692657,-5.39473 h -3.2987359 l -2.8205731,14.16154 h 3.4703463 z"
         id="path1574"
         style="fill:#667378;fill-opacity:1;stroke-width:1.46676" />
      <path
         d="m -15.27547,179.16348 -0.507498,2.35268 h 1.924385 l -0.951925,4.40907 c -0.843385,3.01858 0.611638,3.3794 3.140326,3.3794 0.548567,0 0.840452,-0.0411 1.7161054,-0.20094 l 0.4150922,-2.21627 c -0.4414938,0.0587 -0.8463186,0.0587 -1.3406156,0.0587 -0.856586,0 -0.324153,-1.27315 -0.27135,-1.52689 l 0.711377,-3.90158 h 2.0475923 l 0.4326932,-2.35267 h -2.0490595 l 0.3593558,-1.45063 -3.3808738,-0.0411 -0.32122,1.49316 h -1.924385 z"
         id="path1576"
         style="fill:#667378;fill-opacity:1;stroke-width:1.46676" />
      <path
         d="m -18.731149,189.00835 2.049059,-9.84487 h -3.306069 l -2.117997,9.84487 z"
         id="path1578"
         style="fill:#667378;fill-opacity:1;stroke-width:1.46676" />
      <path
         d="m -35.26003,179.10481 h -3.240065 a 25.24435,25.24435 0 0 1 -0.426827,2.53455 l -1.576763,7.31032 h 3.558352 l 1.141136,-5.64848 c 0.02934,-0.11734 0.0073,-2.13413 1.853981,-2.13413 1.155804,0 1.013529,1.03699 0.847785,1.99919 l -1.069265,5.78342 h 3.520216 l 1.123535,-5.64848 c 0.0264,-0.11734 0.06454,-2.13413 1.906784,-2.13413 1.155804,0 1.041397,1.03699 0.87272,1.99919 l -1.091267,5.78342 h 3.46448 l 1.249676,-6.58574 c 0,-2.11066 -0.470829,-3.55542 -2.588825,-3.55542 a 4.8872333,4.8872333 0 0 0 -3.762231,1.88625 c -0.152543,-1.19687 -1.119136,-1.82171 -2.317476,-1.82171 -1.477024,0 -2.706166,0.5075 -3.687426,1.86278 z"
         id="path1580"
         style="fill:#667378;fill-opacity:1;stroke-width:1.46676" />
      <path
         d="m -40.792636,179.0036 c 0.969526,-3.41314 -1.41542,-4.69949 -4.3372,-4.69949 -2.959915,0 -5.616211,1.17928 -6.493332,4.53375 -0.218546,1.52249 0.0528,2.83084 1.267278,3.44394 2.785371,1.35089 5.450468,0.94313 5.007507,2.85871 -0.249348,1.0854 -1.36555,1.55183 -2.266139,1.55183 -1.409553,0 -1.978654,-0.85952 -1.669169,-2.20013 h -3.593554 c -0.770047,3.85023 1.532761,4.9767 4.82563,4.9767 3.278201,0 6.079706,-1.56796 6.659075,-4.56455 0.65124,-3.39994 -2.00799,-4.06145 -4.249194,-4.66282 -0.98126,-0.27721 -2.194268,-0.64243 -1.972788,-1.6809 0.152543,-0.70698 0.365223,-1.103 1.255544,-1.26141 0.704043,-0.13054 1.661835,0.0895 1.827579,0.44883 0.288951,0.29482 0.300685,0.70697 0.161343,1.25554 z"
         id="path1582"
         style="fill:#667378;fill-opacity:1;stroke-width:1.46676" />
      <path
         d="m 133.68981,179.10481 h -3.243 c -0.12908,1.06046 -0.23468,1.6501 -0.42683,2.53455 l -1.57236,7.31032 h 3.54662 l 1.14847,-5.64848 c 0.0235,-0.11734 0.009,-2.13413 1.84811,-2.13413 1.16021,0 1.02233,1.03699 0.85365,1.99919 l -1.06926,5.78342 h 3.52021 l 1.12354,-5.64848 c 0.0235,-0.11734 0.0601,-2.13413 1.90532,-2.13413 1.15727,0 1.03993,1.03699 0.86832,1.99919 l -1.0854,5.78342 h 3.46594 l 1.25261,-6.58574 c 0,-2.14 -0.47816,-3.55542 -2.59616,-3.55542 a 4.8828331,4.8828331 0 0 0 -3.75636,1.88625 c -0.15401,-1.19687 -1.1294,-1.82171 -2.32334,-1.82171 -1.46969,0 -2.70177,0.5075 -3.68156,1.86278 z"
         id="path1584"
         style="fill:#667378;fill-opacity:1;stroke-width:1.46676" />
      <path
         id="path1586"
         d="m 87.646848,182.78783 3.10219,0.0425 c 0.114407,-0.53243 0.237615,-1.06193 0.03374,-1.47409 -0.206813,-0.40629 -0.601371,-0.66737 -1.177806,-0.62484 -1.308347,0.0587 -1.6237,0.94313 -1.95812,2.05639 z m 5.91543,2.04026 h -6.462531 c -0.291884,1.27315 -0.246415,2.37762 1.142604,2.37762 1.03993,0 1.518093,-0.4943 1.851047,-1.41542 h 3.137392 c -0.39309,1.27461 -1.060465,2.19866 -2.122396,2.7487 -0.982727,0.54856 -1.742507,0.76564 -2.896845,0.76564 -3.757831,0 -5.028042,-1.68677 -4.196391,-5.5546 0.673241,-3.11833 2.954048,-4.88137 5.918363,-4.88137 4.001313,0 4.416405,2.29401 3.628757,5.95943 z"
         style="fill:#667378;fill-opacity:1;stroke-width:1.46676" />
      <path
         id="path1588"
         d="m 120.80288,185.80202 c -0.15401,0.70111 0.28309,1.28928 0.99446,1.28928 1.61344,0 1.92292,-1.50929 2.20894,-2.82351 -0.78765,0 -1.37728,-0.0352 -1.93905,0.21708 -0.61017,0.27869 -1.11767,0.63217 -1.26435,1.31715 z m 5.64115,3.09486 -2.97898,0.0601 c -0.0147,-0.31242 0.0513,-0.62484 0.20681,-1.33328 -0.64244,0.70844 -1.68677,1.6281 -3.52902,1.6281 -2.33214,0 -3.27967,-1.25554 -2.80737,-3.27233 0.5559,-2.39375 2.96432,-3.37208 6.18238,-3.37208 h 0.97099 c 0.18335,-0.86685 0.47523,-2.12239 -1.03113,-2.06372 -0.90499,0.0425 -1.34355,0.92552 -1.44915,1.50782 h -3.177 c 0.27722,-1.38462 0.90792,-2.1928 2.00506,-2.64016 1.1206,-0.47083 2.49495,-0.58964 3.59795,-0.58964 1.99332,0 3.67569,0.84339 3.1594,3.05379 -0.001,0 -1.03553,5.84796 -1.14994,7.02137 z"
         style="fill:#667378;fill-opacity:1;stroke-width:1.46676" />
      <path
         d="m 108.78868,188.95555 1.10887,-5.64262 c 0.0264,-0.1232 -0.0264,-2.14 1.81878,-2.14 1.15727,0 1.13673,1.03847 0.96512,1.99919 l -1.0854,5.78343 h 3.46888 l 1.20861,-6.58574 c 0.47229,-2.1752 -0.60431,-3.54809 -2.72377,-3.54809 -1.24968,0 -2.04759,0.39456 -3.10219,1.37436 l 0.90499,-5.39474 h -3.34567 l -2.68123,14.15567 h 3.46301 z"
         id="path1590"
         style="fill:#667378;fill-opacity:1;stroke-width:1.46676" />
      <path
         d="m 104.95604,182.56489 c 0.42976,-2.80738 -1.15433,-3.7857 -3.65222,-3.74317 -2.959916,0 -5.605945,1.48436 -6.374525,5.05298 -0.736312,3.41314 0.472295,5.31113 4.196391,5.31113 1.303944,-0.0411 2.206004,-0.30656 3.288464,-0.97246 1.07074,-0.68351 1.69557,-1.71024 1.99626,-3.09486 h -3.28847 c -0.18921,0.87859 -0.61897,1.88185 -1.933184,1.97426 -1.355283,0 -0.947525,-2.16934 -0.730445,-3.18873 0.222947,-1.0194 0.526566,-2.92472 1.878919,-2.92472 0.57057,0 0.99446,0.15401 1.1514,0.43123 0.15401,0.27135 0.10267,0.66591 0,1.1558 h 3.46741 z"
         id="path1592"
         style="fill:#667378;fill-opacity:1;stroke-width:1.46676" />
      <path
         id="path1594"
         d="m 76.740045,182.78783 3.105124,0.0425 c 0.111473,-0.53243 0.237614,-1.06193 0.0308,-1.47409 -0.203879,-0.40629 -0.598437,-0.66737 -1.177806,-0.62484 -1.303947,0.0587 -1.622233,0.94313 -1.95812,2.05639 z m 5.916896,2.04026 h -6.459596 c -0.294818,1.27315 -0.249349,2.37762 1.145537,2.37762 1.036997,0 1.512226,-0.4943 1.851047,-1.41542 h 3.140326 c -0.393091,1.27461 -1.069266,2.19866 -2.128264,2.7487 -0.979793,0.54856 -1.739573,0.76564 -2.899778,0.76564 -3.757831,0 -5.022175,-1.68677 -4.190524,-5.5546 0.670308,-3.11833 2.956982,-4.88137 5.912496,-4.88137 3.998379,0 4.419338,2.29401 3.628756,5.95943 z"
         style="fill:#667378;fill-opacity:1;stroke-width:1.46676" />
    </g>
  </g>
</svg>
