<svg fill="none" height="100%" viewBox="0 0 320 46" xmlns="http://www.w3.org/2000/svg">
<g clip-path="url(#clip0_1781_2065)">
<path d="M55.1162 31.5878H50.7812V14.377H57.6166C62.1385 14.377 64.5104 16.4966 64.5104 19.8266C64.5104 22.141 63.3127 23.9005 61.0226 24.7802L65.3809 31.5819H60.5027L57.0967 25.8017L55.1103 25.967V31.5819L55.1162 31.5878ZM57.2135 22.6665C59.0655 22.5307 60.0703 21.7573 60.0703 20.1041C60.0703 18.5867 59.0363 17.8487 56.8571 17.8487H55.0344V22.7256L57.2135 22.6724V22.6665Z" fill="#FFC629"></path>
<path d="M81.8785 31.5878H75.7734V14.377H82.1765C88.1706 14.377 91.5766 17.7365 91.5766 22.8555C91.5766 27.9744 88.118 31.5819 81.8785 31.5819M81.9077 17.8664H80.1083V28.0807H82.1239C85.2553 28.0807 87.2183 26.457 87.2183 23.0149C87.2183 19.5727 85.4481 17.8664 81.9077 17.8664Z" fill="#FFC629"></path>
<path d="M102.162 31.5878V14.377H114.612V17.9018H106.409V21.2082H113.005V24.7035H106.409V28.063H114.612V31.5878H102.162Z" fill="#FFC629"></path>
<path d="M141.773 31.5878H137.467L136.211 27.9272H129.89L128.663 31.5878H124.357L130.404 14.377H135.826L141.767 31.5878H141.773ZM133.08 17.766L130.819 24.5145H135.259L133.08 17.766Z" fill="#FFC629"></path>
<path d="M156.611 25.4947L154.298 25.5242V31.5761H152.557V14.3711H156.833C161.326 14.3711 163.476 16.5734 163.476 19.7381C163.476 23.5109 160.835 25.4357 156.611 25.4888M156.775 15.9948H154.298V23.8946L156.722 23.8415C159.935 23.7884 161.676 22.4953 161.676 19.8207C161.676 17.3705 159.965 15.9948 156.775 15.9948Z" fill="#15273C"></path>
<path d="M186.769 31.5761H184.999L183.199 26.6519H175.488L173.688 31.5761H171.918L178.374 14.3711H180.418L186.763 31.5761H186.769ZM179.361 16.1069L176.089 25.0519H182.597L179.355 16.1069H179.361Z" fill="#15273C"></path>
<path d="M199.276 31.5761H197.535V14.3711H202.11C206.304 14.3711 208.291 16.3254 208.291 19.3248C208.291 21.9108 206.55 23.4813 204.341 24.1662L209.056 31.5702H207.04L202.682 24.4674L199.276 24.6858V31.5643V31.5761ZM202.326 23.0149C204.587 22.9323 206.544 21.6687 206.544 19.4074C206.544 17.1461 204.885 15.9652 201.917 15.9652H199.276V23.1212L202.326 23.009V23.0149Z" fill="#15273C"></path>
<path d="M225.198 16.0243V31.5761H223.451V16.0243H217.457V14.3711H231.186V16.0243H225.198Z" fill="#15273C"></path>
<path d="M252.757 14.3711H254.451V31.7414H252.57L242.819 16.8509V31.5761H241.131V14.3711H243.094L252.757 29.1258V14.3711Z" fill="#15273C"></path>
<path d="M266.66 31.5761V14.3711H276.954V16.0007H268.401V22.1647H275.54V23.7588H268.401V29.9524H276.954V31.5761H266.66Z" fill="#15273C"></path>
<path d="M289.696 31.5761H287.955V14.3711H292.53C296.724 14.3711 298.711 16.3254 298.711 19.3248C298.711 21.9108 296.97 23.4813 294.761 24.1662L299.47 31.5702H297.454L293.096 24.4674L289.69 24.6858V31.5643L289.696 31.5761ZM292.746 23.0149C295.007 22.9323 296.964 21.6687 296.964 19.4074C296.964 17.1461 295.305 15.9652 292.337 15.9652H289.696V23.1212L292.746 23.009V23.0149Z" fill="#15273C"></path>
<path d="M318.341 27.1181C318.341 25.1107 316.705 24.3136 314.041 23.5106C311.646 22.7962 309.081 21.7512 309.081 18.6928C309.081 15.9709 311.371 14.0166 314.532 14.0166C316.489 14.0166 318.207 14.5657 319.65 15.5045L319.025 17.0455C317.745 16.1657 316.08 15.6167 314.561 15.6167C312.002 15.6167 310.775 16.9923 310.775 18.5629C310.775 20.464 312.464 21.1785 315.081 22.0051C317.535 22.749 320.012 23.8767 320.012 26.9882C320.012 29.8223 317.669 31.9419 314.263 31.9419C312.218 31.9419 310.343 31.3338 308.789 30.3418L309.414 28.7713C310.775 29.7042 312.382 30.3655 314.316 30.3655C316.688 30.3655 318.347 28.9366 318.347 27.1181" fill="#15273C"></path>
<path d="M29.707 24.5147H34.1471L31.968 17.7661L29.707 24.5147Z" fill="#FFC629"></path>
<path d="M22.7553 0C10.1888 0 0 10.297 0 23.003C0 35.7089 10.1888 46.0059 22.7553 46.0059C35.3219 46.0059 45.5165 35.7089 45.5165 23.003C45.5165 10.297 35.3277 0 22.7553 0ZM36.3559 31.5877L35.0999 27.9271H28.7786L27.5518 31.5877H23.2461L29.2927 14.3768H34.7143L40.6558 31.5877H36.3501H36.3559Z" fill="#FFC629"></path>
</g>
<defs>
<clipPath id="clip0_1781_2065">
<rect fill="white" height="46" width="320"></rect>
</clipPath>
</defs>
</svg>