<?xml version="1.0" encoding="UTF-8" standalone="no"?>
<!-- Created with Inkscape (http://www.inkscape.org/) -->

<svg
   xmlns:dc="http://purl.org/dc/elements/1.1/"
   xmlns:cc="http://creativecommons.org/ns#"
   xmlns:rdf="http://www.w3.org/1999/02/22-rdf-syntax-ns#"
   xmlns:svg="http://www.w3.org/2000/svg"
   xmlns="http://www.w3.org/2000/svg"
   version="1.1"
   width="715.74799"
   height="280.98425"
   id="svg4987">
  <defs
     id="defs4989">
    <clipPath
       id="clipPath4399">
      <path
         d="m 359.112,854.184 76.607,0 0,158.32 -76.607,0 0,-158.32 z"
         id="path4401" />
    </clipPath>
    <clipPath
       id="clipPath4405">
      <path
         d="m 359.112,854.184 0,158.544 77.28,0 0,-158.544 -77.28,0"
         id="path4407" />
    </clipPath>
    <clipPath
       id="clipPath4411">
      <path
         d="m 374.846,883.919 45.526,0 0,104.71 -45.526,0 0,-104.71"
         id="path4413" />
    </clipPath>
    <clipPath
       id="clipPath4417">
      <path
         d="m -3.1e-5,0 812.693001,0 0,1261.701 -812.693001,0 0,-1261.701 z"
         id="path4419" />
    </clipPath>
    <clipPath
       id="clipPath4423">
      <path
         d="m 0,1261.695 812.7,0 0,-1261.68 -812.7,0 0,1261.68 z"
         id="path4425" />
    </clipPath>
  </defs>
  <metadata
     id="metadata4992">
    <rdf:RDF>
      <cc:Work
         rdf:about="">
        <dc:format>image/svg+xml</dc:format>
        <dc:type
           rdf:resource="http://purl.org/dc/dcmitype/StillImage" />
        <dc:title></dc:title>
      </cc:Work>
    </rdf:RDF>
  </metadata>
  <g
     transform="translate(-11.175542,-340.85786)"
     id="layer1">
    <g
       transform="matrix(0,7.4249701,7.4249701,0,-6586.5919,-2473.5431)"
       id="g4395">
      <g
         clip-path="url(#clipPath4399)"
         id="g4397">
        <g
           clip-path="url(#clipPath4405)"
           id="g4403">
          <g
             clip-path="url(#clipPath4411)"
             id="g4409">
            <g
               clip-path="url(#clipPath4417)"
               id="g4415">
              <g
                 clip-path="url(#clipPath4423)"
                 id="g4421">
                <g
                   transform="translate(379.529,936.791)"
                   id="g4427">
                  <path
                     d="M 0,0 C 0,26.283 8.283,47.721 18.438,47.721 28.593,47.721 36.876,26.283 36.876,0 36.876,-26.284 28.593,-47.722 18.438,-47.722 8.283,-47.722 0,-26.284 0,0"
                     id="path4429"
                     style="fill:#2e3192;fill-opacity:1;fill-rule:evenodd;stroke:none" />
                </g>
                <g
                   transform="translate(380.613,936.791)"
                   id="g4431">
                  <path
                     d="m 0,0 c 0,18.518 7.796,33.622 17.354,33.622 9.557,0 17.353,-15.104 17.353,-33.622 0,-18.519 -7.796,-33.623 -17.353,-33.623 C 7.796,-33.623 0,-18.519 0,0"
                     id="path4433"
                     style="fill:#ffffff;fill-opacity:1;fill-rule:evenodd;stroke:none" />
                </g>
                <g
                   transform="translate(405.931,911.372)"
                   id="g4435">
                  <path
                     d="m 0,0 -15.932,0 0,4.043 6.459,1.865 c 0.713,0.214 1.449,0.416 2.205,0.606 0.76,0.191 1.562,0.381 2.411,0.569 C -5.652,6.974 -6.452,6.895 -7.251,6.845 -8.05,6.795 -8.976,6.772 -10.026,6.772 l -5.906,0 0,3.499 L 0,10.271 0,6.374 -6.851,4.306 C -7.567,4.087 -8.309,3.884 -9.076,3.698 -9.838,3.513 -10.64,3.344 -11.482,3.188 c 1.19,0.106 2.314,0.182 3.372,0.238 1.054,0.057 2.036,0.084 2.942,0.084 L 0,3.51 0,0"
                     id="path4437"
                     style="fill:#ed1c24;fill-opacity:1;fill-rule:evenodd;stroke:none" />
                </g>
                <g
                   transform="translate(400.182,927.035)"
                   id="g4439">
                  <path
                     d="M 0,0 0,1.73 -4.868,1.177 C -5.193,1.138 -5.541,1.1 -5.913,1.064 -6.284,1.028 -6.847,0.977 -7.601,0.914 -7.173,0.875 -6.728,0.829 -6.268,0.779 -5.806,0.726 -5.336,0.669 -4.849,0.612 L 0,0 z m 5.749,-4.421 -15.933,2.945 0,4.838 15.933,2.905 0,-3.837 -2.865,-0.362 0,-2.487 2.865,-0.357 0,-3.645"
                     id="path4441"
                     style="fill:#ed1c24;fill-opacity:1;fill-rule:evenodd;stroke:none" />
                </g>
                <g
                   transform="translate(405.931,935.079)"
                   id="g4443">
                  <path
                     d="m 0,0 -12.851,0 0,-2.351 -3.081,0 0,8.299 3.081,0 0,-2.35 L 0,3.598 0,0"
                     id="path4445"
                     style="fill:#ed1c24;fill-opacity:1;fill-rule:evenodd;stroke:none" />
                </g>
                <g
                   transform="translate(401.239,951.276)"
                   id="g4447">
                  <path
                     d="m 0,0 c 1.638,0 2.869,-0.394 3.694,-1.183 0.826,-0.793 1.24,-1.978 1.24,-3.558 0,-1.566 -0.414,-2.75 -1.243,-3.548 C 2.862,-9.089 1.631,-9.49 0,-9.49 l -6.549,0 c -1.632,0 -2.858,0.398 -3.681,1.194 -0.822,0.799 -1.233,1.983 -1.233,3.555 0,1.588 0.407,2.775 1.223,3.56 C -9.424,-0.394 -8.193,0 -6.549,0 l 1.234,0 0,-3.644 -1.817,0 c -0.518,0 -0.896,-0.089 -1.131,-0.265 -0.236,-0.179 -0.355,-0.461 -0.355,-0.849 0,-0.375 0.119,-0.65 0.355,-0.825 0.235,-0.176 0.613,-0.263 1.131,-0.263 l 7.722,0 c 0.521,0 0.895,0.087 1.128,0.263 0.235,0.175 0.351,0.454 0.351,0.842 0,0.384 -0.116,0.66 -0.351,0.836 -0.233,0.176 -0.607,0.261 -1.128,0.261 l -2.185,0 0,3.644 L 0,0"
                     id="path4449"
                     style="fill:#ed1c24;fill-opacity:1;fill-rule:evenodd;stroke:none" />
                </g>
                <g
                   transform="translate(394.691,952.792)"
                   id="g4451">
                  <path
                     d="m 0,0 c -1.632,0 -2.858,0.398 -3.681,1.194 -0.822,0.799 -1.234,1.982 -1.234,3.554 0,1.588 0.408,2.776 1.224,3.562 0.815,0.785 2.046,1.18 3.691,1.18 l 6.549,0 C 8.186,9.49 9.42,9.095 10.246,8.306 11.072,7.514 11.483,6.331 11.483,4.748 11.483,3.184 11.068,2 10.24,1.199 9.41,0.401 8.179,0 6.549,0 L 0,0 z m -0.583,3.644 7.725,0 c 0.518,0 0.892,0.086 1.128,0.261 0.232,0.177 0.347,0.454 0.347,0.843 0,0.385 -0.115,0.66 -0.347,0.835 C 8.034,5.759 7.66,5.846 7.142,5.846 l -7.725,0 c -0.519,0 -0.896,-0.09 -1.131,-0.265 C -1.951,5.402 -2.07,5.12 -2.07,4.732 c 0,-0.375 0.119,-0.65 0.356,-0.827 0.235,-0.175 0.612,-0.261 1.131,-0.261"
                     id="path4453"
                     style="fill:#ed1c24;fill-opacity:1;fill-rule:evenodd;stroke:none" />
                </g>
              </g>
            </g>
          </g>
        </g>
      </g>
    </g>
  </g>
</svg>
