<?xml version="1.0"?>
<svg xmlns="http://www.w3.org/2000/svg" xmlns:xlink="http://www.w3.org/1999/xlink" x="0px" y="0px"
	 viewBox="0 0 992.0562134 221.2500763" style="enable-background:new 0 0 992.0562134 221.2500763;" xml:space="preserve">
<style type="text/css">
	.st0{fill:#2D5696;}
	.st1{fill:#2E5696;}
	.st2{fill:#44AF2C;}
	.st3{fill:#3E86CA;}
	.st4{fill:#4087CA;}
	.st5{fill:#A3D235;}
	.st6{fill:#C5D506;}
	.st7{fill:#C5D507;}
	.st8{fill:#81ADE2;}
</style>
			<path class="st0" d="M752.9029541,83.0608063c0.8804321-2.8261414,1.8978271-5.1524658,2.2891235-7.5797119
				c0.515564-3.1986313,2.2015381-3.8089905,5.1505127-3.7152634c6.8421021,0.2174606,13.6958618,0.0692215,20.9294434,0.0692215
				c-1.2547607,9.8335419-2.4284668,19.3102951-3.6794434,28.7768021
				c-2.4193726,18.3067932-4.8301392,36.6149826-7.3442383,54.9088821
				c-1.8477173,13.4446411-6.1852417,25.7073517-17.1456909,34.6803894
				c-7.5874023,6.2116852-16.4445801,9.2869873-26.0299072,10.4403076
				c-16.5484009,1.9910583-32.0272827-1.1654053-46.2652588-9.9652863c-1.0353394-0.6398926-1.9694824-1.443512-3.2162476-2.3679047
				c3.7045288-6.1129761,7.2906494-12.0305023,10.9173584-18.015152c9.6550293,6.2650909,19.5314331,10.2638245,30.8918457,9.785614
				c11.8809204-0.5001526,19.1221313-5.9255676,22.2752686-17.3943787
				c1.1109619-4.0407715,1.7428589-8.2132568,1.9866943-12.6082764c-1.1929321,1.2075043-2.3659058,2.4355774-3.5819702,3.6193542
				c-13.9295044,13.559967-38.387207,12.3119659-50.0812988-2.5551758
				c-4.1288452-5.249054-6.381958-11.3370209-7.1404419-17.8560791c-2.1618652-18.58004,1.6628418-35.6301346,14.4708862-49.7783203
				c10.1918335-11.2583084,23.0440674-15.9260025,38.1763916-13.0938568
				C743.1464844,71.84198,747.6224976,75.2788544,752.9029541,83.0608063z M749.0680542,110.0770416
				c-0.1237793-1.0868759-0.2773438-2.700737-0.4951782-4.3058472
				c-1.7932739-13.2097473-13.7625732-19.1678391-25.2259521-12.314209
				c-2.8034058,1.6760635-5.4320679,4.1274109-7.2904053,6.8113174c-5.7024536,8.2358627-7.7073364,17.4968567-5.9174194,27.400177
				c2.2045898,12.1975479,12.8889771,17.7381973,23.859375,11.9067154c3.7686768-2.0032959,7.1065063-5.4965057,9.6158447-9.0359192
				C747.7495117,124.7066574,748.7945557,117.6856842,749.0680542,110.0770416z"/>
			<path class="st0" d="M386.067749,39.1160011c8.2174072,42.5734215,16.3647766,84.7839661,24.557251,127.2279053
				c-9.6536865,0-18.8710022,0-28.4997864,0c-1.4740295-8.4928436-2.9580688-17.042984-4.5046997-25.9541016
				c-1.1973267-0.0629578-2.3964844-0.1794739-3.5957642-0.1808014
				c-12.2444153-0.0134888-24.4903259,0.0955353-36.7320557-0.0850067
				c-2.8755493-0.0424042-4.1116333,1.0115967-5.1421204,3.5247803c-3.1203003,7.6098633-6.5003662,15.113205-9.8097839,22.7284546
				c-8.6935425,0-17.2943726,0-26.4710999,0c0.475647-1.271759,0.8151855-2.3759155,1.2892456-3.4188843
				c18.3161926-40.2941513,36.664856-80.573555,54.9185486-120.8959579c1.0325317-2.2808762,2.2301941-3.055748,4.7337646-3.0129128
				C366.4173584,39.2138138,376.0279541,39.1160011,386.067749,39.1160011z M342.4374084,118.2919006
				c10.9700928,0,21.3635254,0,31.9942627,0c-3.0212097-17.5780334-5.9866028-34.8314133-8.9520264-52.0847855
				c-0.2365112-0.0039291-0.4730225-0.0078659-0.7095642-0.0118027
				C357.3785706,83.4379349,349.9869995,100.6805649,342.4374084,118.2919006z"/>
			<path class="st0" d="M861.4248047,83.6513672c0.9835205-3.4904022,1.6646729-6.4906464,2.7240601-9.3507309
				c0.369873-0.9985275,1.6558228-2.3321915,2.5526733-2.3548737c7.4724121-0.1889267,14.9518433-0.1072159,23.0100098-0.1072159
				c-4.1295776,31.6928787-8.2138062,63.038147-12.3122559,94.4919434c-8.3366089,0-16.40625,0-24.9094238,0
				c0-3.8191071,0-7.4872742,0-11.8479767c-1.0947876,1.0301056-1.6380615,1.4705048-2.0985718,1.9850159
				c-9.536377,10.6549072-21.321228,14.5482635-35.1654053,11.0277863
				c-13.447876-3.4197083-20.2442017-13.2986298-22.7069702-26.1507874
				c-3.8911133-20.3061523-0.6655273-39.4025497,12.4422607-55.9113388
				c9.6459351-12.1485825,22.5197144-17.5519943,38.0671997-15.3200226
				c7.2696533,1.0436172,12.960083,4.9905014,16.8867798,11.3053284
				C860.2891846,82.019928,860.7075806,82.5937119,861.4248047,83.6513672z M857.2150879,112.8809814
				c0-1.7476349,0.1412964-3.5087433-0.0238647-5.2406387c-0.8121948-8.5171509-5.0958252-14.6287384-11.5502319-16.3211746
				c-6.7064819-1.758522-12.3039551,0.5720444-17.0515137,5.2133026
				c-9.3069458,9.0985641-13.1934814,29.3476028-8.0367432,41.3497162
				c2.7696533,6.4465942,7.7532349,9.6175537,14.7735596,9.1772461c7.293457-0.4574432,12.1791992-4.758606,15.8296509-10.6112671
				C855.6357422,129.2661591,857.3846436,121.2854233,857.2150879,112.8809814z"/>
			<path class="st0" d="M910.427002,71.9711151c8.4849243,0,16.4446411,0,24.7086182,0c0,3.9378891,0,7.751297,0,12.1767273
				c1.2815552-1.2260284,2.1538086-1.9858551,2.9413452-2.8251648
				c10.118103-10.7832565,22.6464844-13.7318726,36.6326904-10.5755234
				c11.0020142,2.4828873,17.7409058,11.6970673,17.3286743,24.0385895
				c-0.3242798,9.7064133-1.6818237,19.3909073-2.8411865,29.0538406
				c-1.6925049,14.1069183-3.6187744,28.1858063-5.468689,42.4560394c-8.9771118,0-17.7792969,0-26.8959351,0
				c1.1776733-9.1093597,2.3099976-17.9999542,3.4804688-26.8855438c1.336853-10.1482849,2.8452759-20.2763519,4.008667-30.4441681
				c0.6260986-5.4720688,0.3818359-11.1465988-5.1547852-14.2297211c-5.8363037-3.2498932-11.6807861-2.0185547-16.833374,1.9198151
				c-6.5771484,5.0272675-9.9528809,11.7160263-10.8696899,20.0665054
				c-1.7706299,16.1277084-4.0748291,32.1968307-6.1691895,48.2887497
				c-0.0463867,0.3574219-0.2276001,0.6972809-0.4188232,1.2595367c-8.7694702,0-17.5635986,0-26.732605,0
				C902.2436523,134.7924957,906.3190308,103.5067596,910.427002,71.9711151z"/>
			<path class="st1" d="M590.0599976,138.0840454c3.0600586,5.1834259,6.0940552,10.3225555,9.3570557,15.8496704
				c-2.0324707,1.6642609-3.8824463,3.5219879-6.0419312,4.8918457
				c-14.2547607,9.0425262-29.7828979,11.998703-46.2506104,8.5050507
				c-14.0795288-2.98703-23.305603-11.8272858-26.7716064-25.785965
				c-5.0265503-20.2437286-1.5404663-38.9671936,12.1147461-55.1388855
				c12.8389282-15.2049179,34.3175659-20.8783493,53.1708984-14.3845367
				c10.1016235,3.4793854,16.8154297,10.0527573,18.3873901,21.0312195
				c1.5259399,10.6569443-2.3790283,19.0981445-10.7687378,25.5374222
				c-8.9503784,6.8696518-19.3857422,10.1507339-30.3501587,11.8613205
				c-5.7753906,0.901062-11.6230469,1.3389435-17.4664917,1.9891205
				c-0.9855347,7.5513916,4.9762573,14.2932739,13.7192993,15.3248138
				c10.1870728,1.2019043,19.1849976-2.0739594,27.6085815-7.4392395
				C587.8198853,139.6561584,588.8311768,138.9234314,590.0599976,138.0840454z M546.0174561,114.1306076
				c3.104187-0.31073,6.2698364-0.2484818,9.2271729-1.0027771c6.1069946-1.5576401,12.4084473-2.8991089,18.0577393-5.549263
				c5.543457-2.6005173,7.2177734-8.7267456,5.1438599-13.7264328c-1.8598633-4.4838943-7.0620728-6.7518997-12.9734497-5.6559906
				C554.6124878,90.2095184,545.9028931,101.6373215,546.0174561,114.1306076z"/>
			<path class="st1" d="M448.8738403,166.3529205c-9.0184937,0-17.7149963,0-26.940033,0
				c5.678894-43.6855087,11.3299866-87.1576462,17.0048218-130.8120728c9.0014343,0,17.8000183,0,26.9410095,0
				C460.2087097,79.1628113,454.5678711,122.5534744,448.8738403,166.3529205z"/>
			<path class="st0" d="M496.402771,166.3050842c-9.0993958,0-17.9108887,0-26.9460754,0
				c5.6896667-43.7248688,11.3504333-87.2268372,17.0171204-130.7749634c9.0681763,0,17.756073,0,26.9277954,0
				C507.7280579,79.1775742,502.0881042,122.5669632,496.402771,166.3050842z"/>
			<path class="st0" d="M638.2288208,166.500885c-8.1778564,0-16.1697998,0-24.1617432,0c-0.6079102,0-1.2158813,0-2.4440308,0
				c4.1207886-31.6652374,8.1998291-63.0100327,12.2962646-94.488266c8.359436,0,16.4197998,0,24.8321533,0
				c0,4.4500275,0,8.732872,0,12.9068756c3.3183594-3.520462,6.2098999-7.2781906,9.7750244-10.2192993
				c6.4271851-5.3022079,13.9299316-6.3271027,21.8887329-3.9441833c2.3890991,0.7153397,3.3012695,1.9625244,2.5361938,4.7197495
				c-1.9953613,7.1910934-3.6295166,14.4824295-5.4569092,21.9344559c-1.9992676-0.4871826-3.7611694-1.0645981-5.5689087-1.3308792
				c-7.0232544-1.034523-13.0613403,0.8758621-18.0195313,6.101181
				c-6.7719116,7.1366272-9.5203247,15.7677002-10.4620361,25.4016342
				c-1.2260742,12.5427551-3.0791016,25.0242767-4.677124,37.5302277
				C638.7216797,165.4660645,638.5072632,165.7981262,638.2288208,166.500885z"/>
			<path class="st2" d="M90.0049973,50.6308403c-0.0020447-12.4763412,10.1195297-22.6761761,22.5841141-22.7587509
				c12.5331268-0.0830269,23.0103912,10.4245453,22.8537903,22.9199371
				c-0.1564636,12.4838791-10.4179382,22.6313438-22.8295517,22.5758476
				C100.1578293,73.3122025,90.0070343,63.1036301,90.0049973,50.6308403z"/>
			<path class="st2" d="M90.0054321,170.4451599c0.06427-12.432312,10.3605423-22.6315155,22.7800522-22.5652771
				c12.4250565,0.0662537,22.665947,10.3450928,22.6646194,22.7485962
				c-0.0013428,12.5592194-10.5177612,22.9457245-23.0325928,22.7480164
				C99.9329071,193.1792603,89.9407578,182.9556122,90.0054321,170.4451599z"/>
			<path class="st2" d="M108.7823257,110.7664108c-0.0467911,12.4625854-10.2729492,22.6374741-22.7240295,22.6101303
				c-12.4417191-0.0273285-22.6456223-10.2397537-22.6858215-22.7047729
				c-0.0405617-12.577179,10.4235001-22.9630356,22.9694214-22.7977524
				C98.8406296,88.0386887,108.8294067,98.228653,108.7823257,110.7664108z"/>
			<path class="st1" d="M232.5164948,110.5952682c0.012558-12.4323349,10.2324982-22.6785965,22.6617279-22.7200928
				c12.3925171-0.0413742,22.7085876,10.1603012,22.8478699,22.5944824
				c0.1396484,12.4666977-10.3868408,22.9899368-22.9122772,22.9051895
				C242.6671448,133.2906342,232.5039063,123.0454178,232.5164948,110.5952682z"/>
			<path class="st1" d="M206.0342865,50.8046494c-0.0831757-12.5770645,9.8414001-22.7545528,22.3610687-22.9309349
				c12.4398193-0.1752548,22.7935181,9.9361229,22.9221497,22.3856583
				c0.1317749,12.7520828-9.9194336,23.0494041-22.5656891,23.1182747
				C216.2790833,73.4455719,206.1172638,63.3483925,206.0342865,50.8046494z"/>
			<path class="st1" d="M251.3235931,170.66922c-0.0182648,12.5208435-10.1135254,22.6604614-22.6079407,22.7072449
				c-12.6162109,0.0472412-22.7920227-10.2661743-22.6806335-22.9872894
				c0.1098175-12.5388794,10.3113861-22.6269379,22.7713013-22.5179749
				C241.3159943,147.9806366,251.3418884,158.1315155,251.3235931,170.66922z"/>
			<path class="st3" d="M170.2485352,0.000605c12.4513245,0.0881367,22.5595245,10.3644247,22.4671936,22.8408051
				c-0.0920105,12.430563-10.3905945,22.6254749-22.8069916,22.5773525
				c-12.4296417-0.0481758-22.7314453-10.3538437-22.7063599-22.7148876
				C147.22789,10.1242342,157.5953369-0.0889622,170.2485352,0.000605z"/>
			<path class="st3" d="M170.0886993,221.25c-12.6102905,0.0362091-22.999527-10.3427124-22.8868256-22.8641052
				c0.1115723-12.3989716,10.5234375-22.6656647,22.8665009-22.5477448
				c12.5206757,0.1196136,22.6265869,10.2623901,22.6470337,22.7296295
				C192.7358398,211.0323181,182.578949,221.2141571,170.0886993,221.25z"/>
			<path class="st4" d="M209.0450897,123.0624924c-6.916626-0.0504074-12.4053497-5.4937897-12.4571838-12.3543167
				c-0.0527802-6.9840469,5.5751953-12.5460663,12.6705322-12.5220108
				c6.8543854,0.0232315,12.4278717,5.539032,12.4879303,12.3586655
				C221.8074341,117.4775009,216.0884247,123.1138306,209.0450897,123.0624924z"/>
			<path class="st4" d="M198.7048035,67.8244247c-0.0939789,6.9279251-5.9339142,12.5476379-12.8708801,12.3855057
				c-6.7591858-0.157959-12.361496-5.956192-12.2287292-12.6563416c0.1361389-6.8707275,5.6943207-12.3685074,12.4976044-12.3617744
				C193.1092834,55.1987495,198.7987213,60.9019928,198.7048035,67.8244247z"/>
			<path class="st4" d="M186.0970154,165.9519196c-7.0768585-0.0175323-12.6489716-5.6561127-12.4962158-12.6453247
				c0.147995-6.7713928,5.8461914-12.3124695,12.6156158-12.2677917
				c6.9368896,0.0457916,12.6060333,5.8395996,12.4869995,12.7615814
				C198.5861053,160.6205444,193.0373077,165.969101,186.0970154,165.9519196z"/>
			<path class="st5" d="M40.1392441,98.1838989c7.0687218,0.0636749,12.5061646,5.6681519,12.3663979,12.7462997
				c-0.1355858,6.8659744-5.6318398,12.1575165-12.6007233,12.1314011
				c-7.0906105-0.0265732-12.4244709-5.5484695-12.3046894-12.7384949
				C27.71562,103.3967972,33.1650963,98.1210785,40.1392441,98.1838989z"/>
			<path class="st5" d="M82.6114578,153.5906677c-0.0190964,7.0145264-5.2798386,12.3171844-12.273468,12.3713226
				c-7.1657104,0.0554504-12.6333656-5.3370209-12.6150169-12.4415894
				c0.0181351-7.0201569,5.6615524-12.5661926,12.6884117-12.4694824
				C77.243576,141.1449585,82.6302795,146.6816406,82.6114578,153.5906677z"/>
			<path class="st5" d="M82.6119461,67.7906113c-0.0255737,6.8782883-5.4990311,12.386467-12.3324127,12.4106216
				c-7.0280495,0.0248489-12.5883179-5.5568695-12.5560493-12.6044922
				c0.0316811-6.9203491,5.4058838-12.267292,12.3730354-12.310276
				C77.2748871,55.2421761,82.6386719,60.6011353,82.6119461,67.7906113z"/>
			<path class="st6" d="M39.8959122,89.1124268c-4.4734535-0.0563812-8.309557-3.950386-8.3052559-8.4306107
				c0.0042915-4.4718323,3.8466873-8.3534393,8.3279724-8.4129257c4.6323318-0.0615158,8.5887489,3.9548721,8.4911156,8.6197815
				C48.3161888,85.3590393,44.3719978,89.1688461,39.8959122,89.1124268z"/>
			<path class="st6" d="M48.4160385,140.5990448c-0.018364,4.4899445-3.8737526,8.3556671-8.36269,8.3851471
				c-4.4629402,0.0292969-8.3761578-3.8009949-8.4604206-8.2811432c-0.0867405-4.6118164,3.9538784-8.6671753,8.5392361-8.5703583
				C44.6245918,132.2275543,48.4343491,136.1212158,48.4160385,140.5990448z"/>
			<path class="st7" d="M0.0001158,110.5828857c0.0241688-4.5571671,3.7858431-8.3604736,8.2974033-8.3892288
				c4.7034883-0.0299835,8.4407587,3.8516464,8.3412848,8.6634979c-0.0951805,4.6042404-3.8830128,8.2893982-8.4302082,8.2017059
				C3.6673138,118.9712677-0.0241546,115.1595001,0.0001158,110.5828857z"/>
			<path class="st8" d="M159.4141083,85.5344238c-4.6622925-0.0408554-8.440979-3.6842117-8.5035095-8.1989594
				c-0.06427-4.6389771,3.8614044-8.4108734,8.70961-8.3684464c4.5622864,0.0399246,8.3442688,3.8792953,8.2624207,8.3878098
				C167.7996674,81.9246597,164.0206146,85.5747833,159.4141083,85.5344238z"/>
			<path class="st8" d="M189.1246338,110.7433167c-0.0391998,4.6485672-3.8160706,8.4884644-8.2418213,8.3793564
				c-4.4998779-0.1109314-8.3170624-3.9615936-8.3531799-8.4264374c-0.0372009-4.5977325,4.005249-8.6328583,8.5874634-8.5718994
				C185.5701294,102.1835709,189.1642151,106.0521011,189.1246338,110.7433167z"/>
			<path class="st8" d="M159.4230957,152.2836151c-4.6578979-0.037674-8.4409485-3.6787872-8.5122833-8.1929626
				c-0.0733795-4.6436462,3.8435974-8.4145508,8.7007904-8.3762512c4.5682678,0.0359955,8.3432007,3.859375,8.2710419,8.3772278
				C167.8097839,148.6547852,164.0240173,152.320816,159.4230957,152.2836151z"/>
</svg>