<?xml version="1.0" encoding="UTF-8" standalone="no"?>
<!-- Created with Inkscape (http://www.inkscape.org/) -->
<svg
   xmlns:svg="http://www.w3.org/2000/svg"
   xmlns="http://www.w3.org/2000/svg"
   version="1.0"
   width="814.96063"
   height="176.4567"
   id="svg3633">
  <defs
     id="defs3635"><clipPath
   id="clp6">
<path
   d="M 0,842.04 L 594.96,842.04 L 594.96,0 L 0,0 L 0,842.04 z "
   id="path37998" />

</clipPath>
<clipPath
   id="clp5">
<path
   d="M -0.138,838.94 L 595.14,838.94 L 595.14,-2.945 L -0.138,-2.945 L -0.138,838.94 z "
   id="path37993" />

</clipPath>
<clipPath
   id="clp4">
<path
   d="M 0,0 L 111.08,0 L 111.08,55.357 L 0,55.357 L 0,0 z "
   id="path25050" />

</clipPath>










</defs>
  <g
     transform="translate(-974.27732,-295.61594)"
     id="layer1">
    <g
       transform="matrix(5.2390069,0,0,5.2390069,-4112.2522,-1832.9775)"
       id="g45697">
      <path
         d="M 983.97617,427.89341 L 997.12437,427.89341 L 997.12437,435.66739 L 974.2774,435.66739 L 974.2774,410.24572 L 983.97617,410.24572 L 983.97617,427.89341"
         style="fill:#000000;fill-rule:nonzero;stroke:none"
         id="path38002" />
      <path
         d="M 1092.362,410.82065 L 1092.4495,410.70816 L 1065.278,410.70816 L 1065.278,417.71975 C 1065.278,417.71975 1076.9765,417.71975 1077.2889,417.71975 C 1077.2639,417.74474 1077.2389,417.78224 1077.2389,417.78224 C 1076.714,418.48215 1064.4656,434.94249 1064.0032,435.57991 L 1063.9157,435.67989 L 1091.5246,435.67989 L 1091.5246,428.35585 C 1091.5246,428.35585 1079.7011,428.35585 1079.4387,428.35585 C 1079.4637,428.31836 1080.4135,427.01853 1080.4135,427.01853 C 1083.3131,423.05655 1091.962,411.34558 1092.362,410.82065"
         style="fill:#000000;fill-rule:nonzero;stroke:none"
         id="path38004" />
      <path
         d="M 1014.0597,409.6833 C 1006.0233,409.6833 998.93667,414.57016 998.93667,423.15653 C 998.93667,431.74291 1006.0733,436.59227 1014.0597,436.59227 C 1022.0462,436.59227 1029.1952,431.74291 1029.1952,423.15653 C 1029.1952,414.57016 1022.0962,409.6833 1014.0597,409.6833 z M 1014.0597,429.36822 C 1010.5852,429.36822 1007.8605,426.63108 1007.8605,423.13154 C 1007.8605,419.632 1010.5852,416.88236 1014.0597,416.88236 C 1017.5343,416.88236 1020.2589,419.632 1020.2589,423.13154 C 1020.2589,426.63108 1017.5343,429.36822 1014.0597,429.36822"
         style="fill:#000000;fill-rule:nonzero;stroke:none"
         id="path38006" />
      <path
         d="M 1049.1676,409.98326 C 1046.418,410.03325 1043.4809,411.34558 1041.7561,413.93274 C 1041.7561,413.78276 1041.7561,410.68317 1041.7561,410.68317 L 1032.8823,410.68317 L 1032.8823,435.66739 L 1041.7561,435.66739 L 1041.7561,423.30651 C 1041.7311,418.76961 1045.5556,417.66975 1047.5053,417.83223 C 1050.6049,418.10719 1052.2297,419.99445 1052.2297,423.79395 C 1052.2297,423.79395 1052.2422,435.66739 1052.2422,435.66739 L 1061.1036,435.66739 L 1061.1036,421.21929 C 1061.1036,414.2202 1055.9667,409.88327 1049.1676,409.98326"
         style="fill:#000000;fill-rule:nonzero;stroke:none"
         id="path38008" />
      <path
         d="M 1114.3716,410.50819 C 1114.3716,410.63317 1114.3716,413.05786 1114.3716,413.05786 L 1114.2466,412.92037 C 1112.4968,411.04562 1109.4472,409.92077 1106.7601,409.92077 C 1103.0856,409.92077 1099.7485,411.1956 1097.3613,413.4953 C 1095.0491,415.745 1093.7618,419.16956 1093.7618,423.15653 C 1093.7618,430.71804 1099.3985,436.42979 1106.8601,436.42979 C 1109.1348,436.42979 1112.2594,435.87987 1114.2466,433.25521 L 1114.3716,433.09273 C 1114.3716,433.09273 1114.3716,435.54241 1114.3716,435.66739 C 1114.5091,435.66739 1122.9455,435.66739 1123.0704,435.66739 C 1123.0704,435.52991 1123.0704,410.64567 1123.0704,410.50819 C 1122.9455,410.50819 1114.5091,410.50819 1114.3716,410.50819 z M 1109.0848,429.36822 C 1105.6727,429.36822 1102.8856,426.59358 1102.8856,423.16903 C 1102.8856,419.74448 1105.6727,416.96984 1109.0848,416.96984 C 1112.5093,416.96984 1115.0965,419.74448 1115.0965,423.16903 C 1115.0965,426.59358 1112.5093,429.36822 1109.0848,429.36822"
         style="fill:#000000;fill-rule:nonzero;stroke:none"
         id="path38010" />
    </g>
  </g>
</svg>
