<?xml version="1.0" encoding="utf-8"?>
<!-- Generator: Adobe Illustrator 24.1.3, SVG Export Plug-In . SVG Version: 6.00 Build 0)  -->
<svg version="1.1" id="Layer_1" xmlns="http://www.w3.org/2000/svg" xmlns:xlink="http://www.w3.org/1999/xlink" x="0px" y="0px"
	 viewBox="0 0 352.6 75.7" style="enable-background:new 0 0 352.6 75.7;" xml:space="preserve">
<style type="text/css">
	.st0{fill:#00B8B5;}
	.st1{fill:#006788;}
</style>
<g>
	<path class="st0" d="M245,40.8h-24V67h27.9v7.7h-37.4V1.5h37.2v7.8h-27.7V33h24V40.8z"/>
	<path class="st0" d="M348.7,40.8h-24V67h27.9v7.7h-37.4V1.5h37.2v7.8h-27.7V33h24V40.8z"/>
	<g>
		<rect x="292.6" y="1.5" class="st0" width="9.5" height="31.2"/>
		<polygon class="st0" points="292.6,41.1 292.6,55.4 292.5,55.5 268.1,1.5 258.6,1.5 258.6,74.8 268.1,74.8 268.1,20.8 268.3,20.7 
			292.6,74.8 302.1,74.8 302.1,41.1 		"/>
	</g>
	<path class="st0" d="M180.2,37.4v7.4h10.7v16.7c-0.9,1.9-2.1,3.5-3.6,4.6c-1.6,1.2-3.9,1.7-7,1.7c-4.2,0-7.5-1.6-9.8-4.8
		c-2.3-3.2-3.5-8-3.5-14.5v-3.2h-9.5v3.2c0,8.8,2,15.5,6.1,20.1c4.1,4.6,9.6,6.9,16.7,6.9c5.4,0,9.7-1.1,12.9-3.4
		c3.2-2.3,5.7-4.9,7.2-7.9v-27H180.2z"/>
</g>
<g>
	<path class="st1" d="M34.9,56H14.3L9.6,74.8H0L20.1,1.5h9.2l19.9,73.2h-9.6L34.9,56z M16.3,48.2H33l-8.2-33.1h-0.2L16.3,48.2z"/>
	<path class="st1" d="M137.5,56h-20.6l-4.7,18.8h-9.6l20.1-73.2h9.2l19.9,73.2h-9.6L137.5,56z M118.9,48.2h16.6l-8.2-33.1h-0.2
		L118.9,48.2z"/>
	<path class="st1" d="M166.9,36.9V26.7c0-6.3,1.1-11,3.2-14.1c2.2-3.1,5.2-4.7,9.2-4.7c3.9,0,6.8,1.2,8.6,3.5
		c1.8,2.3,2.8,5.9,3,10.5h9.4c-0.4-7.2-2.3-12.6-5.7-16.3c-3.4-3.7-8.5-5.6-15.4-5.6c-6.7,0-12.1,2.3-16,6.9
		c-3.9,4.6-5.8,11.2-5.8,20v10.1H166.9z"/>
	<path class="st1" d="M92.3,9C88,4,81.8,1.5,73.6,1.5H57.2v35.4h9.5V9.4h6.6c5.7,0,9.8,1.7,12.2,5.2c2.4,3.5,3.6,9.1,3.6,17v13.2
		c0,7.8-1.2,13.4-3.7,17C83,65.3,78.8,67,72.8,67h-6.1V45.5h-9.5v29.3h16c8.4,0,14.8-2.4,19.1-7.3c4.3-4.9,6.4-12.5,6.4-22.7V31.7
		C98.6,21.5,96.5,13.9,92.3,9z"/>
</g>
</svg>
