<svg xmlns="http://www.w3.org/2000/svg" fill="none" viewBox="0 0 229 60" height="60" width="229">
<g clip-path="url(#clip0_3_1327)">
<path fill="#285E3E" d="M16.5707 36.7507L4.63774 48.7443V42.9329L0 47.5923V59.9966L16.5707 43.3447L33.1403 59.9966V53.4072L16.5707 36.7507Z"></path>
<path fill="#285E3E" d="M11.782 53.5491L16.5719 48.7352L21.3618 53.5491H11.782Z"></path>
<path fill="#003B87" d="M33.1403 35.5723V35.3104L28.5048 30.6497V30.9129V36.3033V36.4955L16.5707 24.5054L0 41.1561V47.749L4.63774 43.0872L16.5707 31.0936L33.1403 47.749V40.964V35.5723Z"></path>
<path fill="#26A2BE" d="M16.5707 12.2499L4.63774 24.2492V18.4732L0 23.1349V35.4992L16.5718 18.8427L33.1403 35.4969V28.9064L16.5707 12.2499Z"></path>
<path fill="#2D617B" d="M16.5707 0L0 16.6565V23.2459L16.5707 6.59281L33.1403 23.2482V16.6565L16.5707 0Z"></path>
<path fill="#221F1C" d="M125.829 53.3992C124.95 53.4104 124.078 53.2426 123.266 52.9061C122.52 52.5954 121.843 52.1392 121.276 51.5642C120.718 50.9937 120.277 50.3204 119.977 49.5817C119.664 48.815 119.505 47.9939 119.51 47.1656V47.1313C119.505 46.303 119.664 45.4819 119.977 44.7152C120.281 43.9716 120.728 43.2952 121.293 42.7246C121.891 42.1226 122.605 41.6475 123.391 41.3277C124.177 41.0079 125.02 40.8499 125.869 40.8634C126.747 40.8521 127.619 41.0199 128.431 41.3564C129.173 41.6639 129.846 42.1164 130.411 42.6872C130.975 43.2581 131.421 43.9358 131.72 44.6808C132.034 45.4472 132.192 46.2679 132.187 47.0958V47.1313C132.192 47.9592 132.033 48.7799 131.72 49.5462C131.417 50.2897 130.97 50.9661 130.405 51.5368C129.806 52.1387 129.093 52.6138 128.306 52.9336C127.52 53.2534 126.677 53.4125 125.829 53.3992ZM125.863 51.443C126.43 51.4476 126.991 51.3305 127.509 51.0998C127.995 50.8855 128.432 50.574 128.794 50.1846C129.156 49.7886 129.44 49.3274 129.63 48.8255C129.834 48.2951 129.936 47.7314 129.932 47.1633V47.129C129.935 46.558 129.833 45.9913 129.63 45.4576C129.441 44.9492 129.154 44.4829 128.786 44.0848C128.417 43.6935 127.975 43.379 127.484 43.1593C126.721 42.8115 125.868 42.712 125.045 42.875C124.222 43.038 123.472 43.4551 122.899 44.0677C122.537 44.464 122.253 44.9251 122.063 45.4267C121.86 45.9573 121.758 46.521 121.762 47.0889V47.1244C121.758 47.6949 121.86 48.2612 122.063 48.7946C122.252 49.3031 122.539 49.7694 122.908 50.1674C123.277 50.5588 123.719 50.8737 124.21 51.0941C124.729 51.3283 125.293 51.4474 125.863 51.443ZM124.376 55.8977C126.467 56.6793 128.678 57.0949 130.91 57.1263V55.098C128.833 55.1432 126.757 54.9478 124.725 54.5157L124.376 55.8977ZM72.4684 53.3637C71.5525 53.3674 70.6434 53.2062 69.7846 52.8878C68.9077 52.5564 68.1026 52.0597 67.4131 51.4247L68.6943 49.9009C69.2291 50.3741 69.8294 50.7675 70.4767 51.0689C71.1206 51.3497 71.8175 51.4886 72.5198 51.4761C73.0725 51.5054 73.6204 51.3601 74.086 51.0609C74.2683 50.9402 74.4172 50.7754 74.5188 50.5818C74.6204 50.3882 74.6714 50.1721 74.6671 49.9535V49.9192C74.6703 49.7199 74.6313 49.5223 74.5527 49.3392C74.4561 49.1477 74.3124 48.984 74.1352 48.8633C73.8787 48.686 73.5982 48.5462 73.3023 48.448C72.8493 48.294 72.3875 48.1676 71.9192 48.0693C71.3326 47.9377 70.7555 47.7669 70.1918 47.558C69.7365 47.3957 69.309 47.1642 68.9243 46.8716C68.588 46.6071 68.3201 46.2658 68.1429 45.8763C67.9524 45.4279 67.8607 44.9437 67.8741 44.4566V44.4086C67.8678 43.9265 67.9684 43.4489 68.1688 43.0104C68.3692 42.5718 68.6643 42.1831 69.033 41.8723C69.418 41.5533 69.8596 41.3095 70.3348 41.1539C70.87 40.9765 71.4309 40.8888 71.9948 40.8942C72.8123 40.8817 73.6256 41.0137 74.3971 41.2843C75.1207 41.5515 75.796 41.9344 76.3968 42.418L75.2528 44.0288C74.7459 43.6515 74.1932 43.3401 73.6078 43.1021C73.0846 42.8924 72.5264 42.7837 71.9627 42.7818C71.4449 42.7503 70.9318 42.8968 70.5087 43.1971C70.3478 43.3144 70.2169 43.4681 70.1266 43.6456C70.0363 43.8232 69.9893 44.0195 69.9893 44.2187V44.253C69.9856 44.4642 70.0273 44.6737 70.1117 44.8673C70.2112 45.0671 70.3646 45.2351 70.5545 45.3524C70.8307 45.5259 71.1284 45.6628 71.4399 45.7596C71.8151 45.8862 72.2926 46.0189 72.8722 46.1577C73.4475 46.2999 74.0131 46.4791 74.5653 46.6943C75.0105 46.8633 75.4239 47.1061 75.7882 47.4127C76.1031 47.6834 76.3546 48.0201 76.525 48.3988C76.701 48.8118 76.7872 49.2575 76.7778 49.7064V49.7407C76.7859 50.2659 76.6773 50.7864 76.4597 51.2645C76.254 51.707 75.9519 52.0979 75.5754 52.4085C75.1732 52.7329 74.7104 52.974 74.2141 53.1178C73.6465 53.2863 73.057 53.3696 72.4649 53.3649L72.4684 53.3637ZM83.4507 41.0716H85.4183L91.8979 49.4513V41.0716H94.0097V53.191H92.2296L85.5613 44.5687V53.191H83.4484L83.4507 41.0716ZM107.075 53.3992C106.196 53.4104 105.325 53.2427 104.513 52.9061C103.771 52.5986 103.098 52.1462 102.533 51.5753C101.968 51.0045 101.523 50.3267 101.224 49.5817C100.91 48.8151 100.751 47.9939 100.757 47.1656V47.1313C100.751 46.303 100.91 45.4818 101.224 44.7152C101.527 43.9716 101.974 43.2952 102.539 42.7246C103.138 42.1227 103.851 41.6476 104.638 41.3278C105.424 41.008 106.267 40.85 107.115 40.8634C107.994 40.8523 108.866 41.02 109.678 41.3564C110.424 41.6673 111.1 42.1235 111.668 42.6983C112.225 43.2689 112.666 43.9422 112.967 44.6808C113.28 45.4472 113.439 46.2679 113.434 47.0958V47.1313C113.439 47.9592 113.28 48.7799 112.967 49.5462C112.663 50.2897 112.216 50.9661 111.651 51.5368C111.053 52.1387 110.339 52.6138 109.553 52.9336C108.767 53.2534 107.924 53.4125 107.075 53.3992ZM107.11 51.443C107.676 51.4476 108.238 51.3305 108.756 51.0998C109.242 50.8855 109.678 50.5741 110.039 50.1846C110.402 49.7886 110.685 49.3274 110.876 48.8255C111.079 48.2951 111.181 47.7314 111.178 47.1633V47.129C111.181 46.558 111.078 45.9913 110.876 45.4576C110.686 44.9492 110.399 44.4828 110.03 44.0848C109.662 43.6933 109.219 43.3787 108.728 43.1593C107.965 42.8115 107.112 42.712 106.289 42.875C105.467 43.038 104.716 43.4551 104.143 44.0677C103.781 44.4639 103.497 44.925 103.307 45.4267C103.104 45.9572 103.001 46.5209 103.005 47.0889V47.1244C103.002 47.695 103.104 48.2612 103.307 48.7946C103.496 49.3032 103.783 49.7696 104.152 50.1674C104.521 50.559 104.963 50.8739 105.454 51.0941C105.974 51.3285 106.539 51.4475 107.11 51.443ZM143.946 53.382C143.222 53.3905 142.501 53.2744 141.816 53.0388C141.204 52.8284 140.647 52.4823 140.188 52.0264C139.723 51.5526 139.368 50.9819 139.149 50.355C138.894 49.6119 138.771 48.8298 138.785 48.0442V41.0658H140.902V47.9572C140.835 48.8902 141.128 49.8133 141.721 50.5369C142.013 50.8374 142.366 51.0717 142.757 51.2241C143.147 51.3764 143.565 51.4433 143.984 51.4201C144.397 51.4426 144.81 51.3787 145.197 51.2325C145.584 51.0864 145.936 50.8612 146.231 50.5713C146.824 49.8683 147.118 48.9604 147.049 48.043V41.0647H149.161V47.9378C149.176 48.744 149.05 49.5466 148.789 50.3093C148.567 50.947 148.21 51.529 147.742 52.015C147.282 52.4768 146.723 52.8264 146.106 53.0365C145.411 53.273 144.682 53.3894 143.948 53.3809L143.946 53.382ZM159.831 40.9869H161.805L167.137 53.1921H164.887L163.657 50.2658H157.927L156.68 53.1921H154.498L159.831 40.9869ZM162.879 48.3794L160.784 43.5323L158.707 48.3794H162.879ZM173.245 41.0727H175.358V51.2725H181.729V53.1944H173.245V41.0727ZM187.912 41.0727H190.18L193.869 46.8041L197.557 41.0727H199.824V53.191H197.712V44.4967L193.886 50.2109H193.817L190.026 44.5321V53.1887H187.92L187.912 41.0727ZM207.237 41.0727H209.349V53.191H207.237V41.0727ZM216.771 41.0727H225.739V42.9946H218.883V46.112H224.96V48.0339H218.883V51.2725H225.826V53.1944H216.771V41.0727ZM46.883 40.837H48.2272L51.8582 49.1481H50.3253L49.489 47.1542H45.5869L44.738 49.1458H43.2509L46.883 40.837ZM48.9582 45.8706L47.5317 42.5702L46.1165 45.8706H48.9582ZM55.63 42.235H53.0125V40.8965H59.7094V42.235H57.092V49.1436H55.63V42.235ZM59.0562 51.594H43.252V52.9462H59.0562V51.594Z"></path>
<path fill="#221F1C" d="M47.3441 36.2176H52.6751V21.6523H58.4465V16.9802H41.6035V21.6523H47.3464L47.3441 36.2176ZM61.8807 36.2176H67.2117V28.9075H74.0539V36.2176H79.3849V16.9802H74.0539V24.1805H67.2129V16.9802H61.8819L61.8807 36.2176ZM83.8923 36.2176H99.5009V31.6874H89.1683V28.6329H98.4015V24.4287H89.1683V21.4875H99.3636V16.9802H83.8923V36.2176ZM119.617 36.547C124.289 36.547 127.396 34.211 127.396 30.2814V30.2265C127.396 26.6263 124.65 25.1929 120.251 24.2354C117.558 23.6302 116.899 23.2459 116.899 22.3661V22.3066C116.899 21.5916 117.531 21.07 118.823 21.07C120.771 21.1313 122.652 21.7939 124.209 22.9667L126.874 19.2019C124.621 17.4423 121.817 16.5369 118.96 16.6462C114.343 16.6462 111.513 19.2293 111.513 22.802V22.8569C111.513 26.7865 114.672 27.9408 118.768 28.8754C121.406 29.5081 122.037 29.9199 122.037 30.7447V30.7996C122.037 31.6244 121.268 32.1186 119.811 32.1186C117.529 32.0862 115.327 31.2713 113.573 29.8101L110.606 33.3564C113.12 35.4843 116.326 36.6184 119.619 36.5447M139.735 36.5722C145.203 36.5722 148.748 33.8266 148.748 27.6411V16.9802H143.361V27.8081C143.361 30.501 141.96 31.7652 139.79 31.7652C137.646 31.7652 136.244 30.4461 136.244 27.6697V16.9802H130.858V27.7806C130.858 33.7992 134.29 36.5745 139.734 36.5745M153.004 36.2176H158.225V25.1975L163.117 32.6998H163.231L168.151 25.17V36.2176H173.454V16.9802H167.821L163.231 24.4276L158.643 16.9802H153.01L153.004 36.2176ZM177.956 36.2176H183.178V25.1975L188.07 32.6998H188.184L193.103 25.17V36.2176H198.407V16.9802H192.774L188.184 24.4276L183.596 16.9802H177.961L177.956 36.2176ZM203.046 36.2176H208.377V16.9802H203.046V36.2176ZM217.689 36.2176H223.02V21.6523H228.791V16.9802H211.953V21.6523H217.696L217.689 36.2176Z"></path>
</g>
<defs>
<clipPath id="clip0_3_1327">
<rect fill="white" height="60" width="228.798"></rect>
</clipPath>
</defs>
</svg>
