<?xml version="1.0" encoding="UTF-8" standalone="no"?>
<svg
   width="1843.0022"
   height="286.09464"
   viewBox="0 0 1843.0022 286.09464"
   version="1.1"
   xml:space="preserve"
   style="clip-rule:evenodd;fill-rule:evenodd;stroke-linejoin:round;stroke-miterlimit:2"
   id="svg7"
   xmlns="http://www.w3.org/2000/svg"
   xmlns:svg="http://www.w3.org/2000/svg">
    <g
   id="g7"
   transform="translate(-0.112888,-0.13824)"><g
     transform="translate(-236,-715)"
     id="g3">
        <g
   id="logo">
            <g
   transform="matrix(277.512,-277.512,-277.512,-277.512,146.199,917.722)"
   id="g1">
                <path
   d="M 0.574,0.156 C 0.548,0.182 0.504,0.18 0.478,0.154 L 0.442,0.118 C 0.433,0.109 0.436,0.093 0.448,0.088 0.463,0.082 0.466,0.082 0.483,0.065 l 0.363,-0.362 c 0.028,-0.029 0.075,-0.028 0.104,0 l 0.017,0.017 c 0.012,0.012 0.012,0.031 0,0.043 z M 0.435,0.017 C 0.409,0.043 0.365,0.041 0.339,0.015 L 0.303,-0.022 C 0.294,-0.031 0.297,-0.046 0.308,-0.051 0.323,-0.057 0.327,-0.057 0.344,-0.074 l 0.27,-0.27 c 0.029,-0.029 0.076,-0.028 0.105,0 l 0.017,0.018 c 0.011,0.011 0.011,0.03 0,0.042 z M 0.296,-0.122 C 0.269,-0.096 0.226,-0.098 0.2,-0.125 L 0.164,-0.161 C 0.155,-0.17 0.158,-0.185 0.169,-0.19 0.184,-0.196 0.188,-0.196 0.205,-0.213 L 0.383,-0.391 C 0.412,-0.42 0.459,-0.419 0.487,-0.39 l 0.017,0.017 c 0.012,0.011 0.012,0.03 0.001,0.042 z m -0.14,-0.14 C 0.13,-0.235 0.087,-0.238 0.061,-0.264 L 0.025,-0.3 C 0.016,-0.309 0.018,-0.324 0.03,-0.329 0.045,-0.335 0.049,-0.335 0.066,-0.352 l 0.085,-0.086 c 0.029,-0.028 0.076,-0.028 0.105,0.001 l 0.017,0.017 c 0.012,0.011 0.012,0.03 0,0.042 z"
   style="fill:url(#_Linear1);fill-rule:nonzero"
   id="path1" />
            </g>
            <g
   transform="matrix(4.16667,0,0,4.16667,2006.39,750.268)"
   id="g2">
                <path
   d="m 0,60.07 c 10.711,0 17.454,-5.316 17.454,-12.775 0,-7.856 -5.159,-10.709 -14.368,-13.009 -6.822,-1.747 -8.644,-2.619 -8.644,-4.672 0,-1.745 1.907,-3.018 5.479,-3.018 3.403,0 8.461,1.296 12.527,3.788 0.219,0.131 0.441,-0.019 0.492,-0.271 l 1.657,-7.968 c 0.062,-0.473 -0.288,-1.022 -0.765,-1.257 -3.468,-1.72 -7.905,-3.095 -13.44,-3.095 -10.711,0 -17.059,5.309 -17.059,12.608 0,7.617 5.878,10.39 14.123,12.533 7.299,1.906 8.882,2.853 8.882,4.992 0,1.913 -2.142,3.255 -5.632,3.255 -6.3,0 -10.846,-2.37 -15.981,-5.74 -0.19,-0.121 -0.33,0.029 -0.36,0.222 l -1.777,8.552 c -0.074,0.393 0.321,0.817 0.7,1.029 4.513,2.57 9.822,4.826 16.712,4.826 m -205.832,0 c 10.71,0 17.453,-5.316 17.453,-12.775 0,-7.856 -5.159,-10.709 -14.368,-13.009 -6.821,-1.747 -8.643,-2.619 -8.643,-4.672 0,-1.745 1.907,-3.018 5.479,-3.018 3.403,0 8.461,1.296 12.527,3.788 0.218,0.131 0.44,-0.019 0.492,-0.271 l 1.657,-7.968 c 0.062,-0.473 -0.288,-1.022 -0.765,-1.257 -3.468,-1.72 -7.905,-3.095 -13.44,-3.095 -10.711,0 -17.059,5.309 -17.059,12.608 0,7.617 5.878,10.39 14.123,12.533 7.299,1.906 8.882,2.853 8.882,4.992 0,1.913 -2.142,3.255 -5.633,3.255 -6.299,0 -10.845,-2.37 -15.981,-5.74 -0.19,-0.121 -0.329,0.029 -0.359,0.222 l -1.777,8.552 c -0.074,0.393 0.32,0.817 0.699,1.029 4.513,2.57 9.823,4.826 16.713,4.826 m 61.678,-24.517 c -0.053,-0.398 -0.135,-0.794 -0.206,-1.189 l -0.002,0.001 c -0.005,-0.032 0.003,-0.055 -0.002,-0.088 -0.014,-0.059 -0.033,-0.134 -0.046,-0.195 -0.369,-1.845 -0.934,-3.632 -1.522,-4.919 l -0.005,0.003 c -0.157,-0.399 -0.31,-0.789 -0.461,-1.117 -2.821,-6.207 -8.399,-10.593 -17.065,-10.593 -12.372,0 -20.549,9.915 -20.549,21.251 0,12.778 8.408,21.266 21.662,21.266 5.673,0 9.77,-1.378 13.696,-3.21 0.356,-0.164 0.631,-0.477 0.748,-0.85 l 2.012,-9.623 c 0.156,-0.529 -0.148,-0.911 -0.484,-0.738 -3.589,2.286 -8.203,5.02 -13.835,4.977 -5.699,-0.042 -10.352,-2.38 -11.815,-6.394 l 26.826,-7.138 c 0.786,-0.278 1.142,-0.719 1.048,-1.444 m -29.235,0.579 c -0.234,-6.459 4.601,-9.724 9.3,-10.028 3.292,-0.209 7.263,1.779 8.612,5.241 z m -56.467,-0.579 c -0.053,-0.398 -0.135,-0.794 -0.206,-1.189 l -0.002,0.001 c -0.005,-0.032 0.003,-0.055 -0.002,-0.088 -0.014,-0.059 -0.033,-0.134 -0.046,-0.195 -0.369,-1.845 -0.934,-3.632 -1.523,-4.919 l -0.005,0.003 c -0.156,-0.399 -0.309,-0.789 -0.46,-1.117 -2.821,-6.207 -8.399,-10.593 -17.065,-10.593 -12.372,0 -20.549,9.915 -20.549,21.251 0,12.778 8.408,21.266 21.663,21.266 5.672,0 9.769,-1.378 13.695,-3.21 0.356,-0.164 0.631,-0.477 0.748,-0.85 l 2.011,-9.623 c 0.157,-0.529 -0.147,-0.911 -0.483,-0.738 -3.588,2.286 -8.202,5.02 -13.835,4.977 -5.699,-0.042 -10.352,-2.38 -11.815,-6.394 l 26.826,-7.138 c 0.786,-0.278 1.142,-0.719 1.048,-1.444 m -29.235,0.579 c -0.234,-6.459 4.601,-9.724 9.3,-10.028 3.292,-0.209 7.263,1.779 8.611,5.241 z m 234.139,23.12 c 0.281,0 0.51,-0.228 0.51,-0.511 V 19.174 c 0,-0.282 -0.229,-0.51 -0.51,-0.51 h -10.974 c -0.282,0 -0.509,0.228 -0.509,0.51 v 26.495 c -1.697,1.431 -3.206,2.451 -4.528,3.059 -1.325,0.609 -2.728,0.913 -4.211,0.913 -2.171,0 -3.838,-0.661 -5.003,-1.985 -1.165,-1.324 -1.747,-3.204 -1.747,-5.641 V 19.174 c 0,-0.282 -0.229,-0.51 -0.51,-0.51 h -11.054 c -0.281,0 -0.509,0.228 -0.509,0.51 v 25.304 c 0,4.819 1.231,8.632 3.693,11.438 2.462,2.808 5.785,4.21 9.968,4.21 2.859,0 5.402,-0.649 7.625,-1.946 2.224,-1.298 4.421,-3.376 6.593,-6.235 v 6.796 c 0,0.283 0.228,0.511 0.51,0.511 h 10.656 m -90.594,-30.978 c 2.171,0 3.853,0.663 5.044,1.986 1.192,1.325 1.787,3.178 1.787,5.561 v 22.92 c 0,0.283 0.228,0.511 0.511,0.511 h 10.972 c 0.283,0 0.51,-0.228 0.51,-0.511 V 33.358 c 0,-4.818 -1.23,-8.63 -3.692,-11.438 -2.463,-2.806 -5.786,-4.209 -9.969,-4.209 -2.753,0 -5.256,0.649 -7.506,1.946 -2.251,1.298 -4.461,3.375 -6.632,6.234 v -7.204 c 0,-0.307 -0.27,-0.545 -0.575,-0.506 l -10.735,1.379 c -0.255,0.033 -0.445,0.249 -0.445,0.505 v 38.676 c 0,0.283 0.227,0.511 0.509,0.511 h 11.053 c 0.282,0 0.511,-0.228 0.511,-0.511 V 32.167 c 1.694,-1.429 3.19,-2.436 4.488,-3.019 1.296,-0.582 2.686,-0.874 4.169,-0.874 m -161.476,2.304 c 0.529,0 1.019,0.014 1.47,0.04 0.151,0.009 0.303,0.022 0.457,0.04 0.483,0.057 0.905,-0.321 0.878,-0.806 l -0.62,-10.808 c -0.023,-0.41 -0.331,-0.751 -0.736,-0.819 -0.28,-0.048 -0.523,-0.087 -0.734,-0.117 -0.371,-0.053 -0.768,-0.08 -1.192,-0.08 -2.172,0 -4.236,0.783 -6.195,2.343 -1.959,1.563 -4.342,4.33 -7.148,8.301 v -9.984 c 0,-0.308 -0.271,-0.546 -0.576,-0.506 l -10.735,1.378 c -0.254,0.033 -0.444,0.25 -0.444,0.506 v 38.71 c 0,0.263 0.213,0.476 0.476,0.476 h 11.12 c 0.264,0 0.477,-0.213 0.477,-0.476 V 35.503 c 2.593,-1.748 4.95,-3.005 7.068,-3.773 2.118,-0.768 4.262,-1.152 6.434,-1.152 m -35.475,-2.111 c 0,-0.281 -0.228,-0.51 -0.51,-0.51 h -17.963 c -0.282,0 -0.511,-0.228 -0.511,-0.511 V 15.282 c 0,-0.282 0.229,-0.511 0.511,-0.511 h 20.599 c 0.242,0 0.451,-0.169 0.5,-0.406 l 2.092,-10.1 c 0.066,-0.317 -0.176,-0.613 -0.5,-0.613 h -35.558 c -0.282,0 -0.511,0.228 -0.511,0.509 v 54.581 c 0,0.281 0.229,0.51 0.511,0.51 h 11.847 c 0.281,0 0.509,-0.229 0.509,-0.51 v -19.79 c 0,-0.282 0.229,-0.51 0.511,-0.51 h 17.963 c 0.282,0 0.51,-0.229 0.51,-0.511 V 28.467 M -80.354,13.081 c 3.924,0 6.939,-2.87 6.939,-6.572 0,-3.776 -3.015,-6.565 -6.939,-6.565 -3.931,0 -6.949,2.789 -6.949,6.565 0,3.702 3.018,6.572 6.949,6.572 m -5.63,5.637 h 11.177 c 0.223,0 0.399,0.176 0.399,0.395 V 58.85 c 0,0.216 -0.176,0.398 -0.399,0.398 h -11.177 c -0.221,0 -0.401,-0.182 -0.401,-0.398 V 19.113 c 0,-0.219 0.18,-0.395 0.401,-0.395"
   style="fill:#003d7b;fill-rule:nonzero"
   id="path2" />
            </g>
        </g>
    </g></g>
    <defs
   id="defs7"><linearGradient
     id="_Linear1"
     x1="0"
     y1="0"
     x2="1"
     y2="0"
     gradientUnits="userSpaceOnUse"
     gradientTransform="matrix(1,0,0,-1,0,-0.284324)"><stop
       offset="0"
       style="stop-color:rgb(0,61,123);stop-opacity:1"
       id="stop3" /><stop
       offset="0.11"
       style="stop-color:rgb(0,61,123);stop-opacity:1"
       id="stop4" /><stop
       offset="0.41"
       style="stop-color:rgb(0,114,187);stop-opacity:1"
       id="stop5" /><stop
       offset="0.69"
       style="stop-color:rgb(14,191,220);stop-opacity:1"
       id="stop6" /><stop
       offset="1"
       style="stop-color:rgb(129,201,156);stop-opacity:1"
       id="stop7" /></linearGradient></defs>
</svg>
