<svg version="1.1" id="Layer_1" xmlns="http://www.w3.org/2000/svg" xmlns:xlink="http://www.w3.org/1999/xlink" x="0px" y="0px" viewBox="0 0 464.3 46.5" style="enable-background:new 0 0 464.3 46.5;" xml:space="preserve">
 <style type="text/css">
  .st0{fill:#6D6E71;}
	.st1{fill:#D82C2A;}
	.st2{fill:#008D61;}
 </style>
 <g id="Layer_2_1_">
  <g id="Layer_1-2">
   <path class="st0" d="M290.4,5c3.9,0,5.9,1.5,5.9,4.3c0,1.6-0.9,3.1-2.4,3.6c1.9,0.4,3.1,2.1,3,4c0,2.5-1.7,4.8-5.9,4.8h-6V5H290.4
			z M287.8,11.9h2.7c2.1,0,3-0.9,3-2.3s-0.7-2.1-3.4-2.1h-2.3L287.8,11.9L287.8,11.9z M287.8,19.3h2.9c2.3,0,3.4-0.9,3.4-2.5
			s-1.2-2.5-3.6-2.5h-2.7L287.8,19.3L287.8,19.3z">
   </path>
   <polygon class="st0" points="302.4,19.3 309.9,19.3 309.9,21.7 299.6,21.7 299.6,5 302.4,5 		">
   </polygon>
   <path class="st0" d="M317.1,21.9c-3.7,0-6.3-2.3-6.3-7.5v-2.1c0-5.3,2.5-7.5,6.3-7.5c3.7,0,6.3,2.3,6.3,7.5v2.1
			C323.3,19.7,320.8,21.9,317.1,21.9 M313.7,14.4c0,3.6,1.2,5.1,3.4,5.1s3.5-1.5,3.5-5.1v-2.1c0-3.6-1.2-5.1-3.5-5.1
			c-2.2,0-3.4,1.5-3.4,5.1V14.4z">
   </path>
   <path class="st0" d="M331.9,21.9c-3.7,0-6.2-2.3-6.2-7.5v-2.1c0-5.3,2.5-7.5,6.2-7.5s6.3,2.3,6.3,7.5v2.1
			C338.2,19.7,335.7,21.9,331.9,21.9 M328.5,14.4c0,3.6,1.2,5.1,3.4,5.1s3.5-1.5,3.5-5.1v-2.1c0-3.6-1.2-5.1-3.5-5.1
			c-2.2,0-3.4,1.5-3.4,5.1V14.4z">
   </path>
   <path class="st0" d="M340.8,21.7V5h5.6c3.8,0,6.3,2,6.3,7.4v2c0,5.3-2.5,7.4-6.3,7.4L340.8,21.7z M349.9,14.3v-2
			c0-3.4-1.1-4.9-3.5-4.9h-2.8v11.9h2.8C348.9,19.3,350,17.8,349.9,14.3">
   </path>
   <path class="st0" d="M360.7,21.7L366.6,5h2.7l5.8,16.7h-3l-1.1-3.5h-6l-1.1,3.5H360.7z M365.7,15.8h4.5L367.9,9L365.7,15.8z">
   </path>
   <polygon class="st0" points="389,5 389,21.7 386.5,21.7 379.7,10.3 379.7,21.7 377,21.7 377,5 379.4,5 386.3,16.5 386.3,5 		">
   </polygon>
   <path class="st0" d="M392.3,21.7V5h5.7c3.8,0,6.3,2,6.3,7.4v2c0,5.3-2.5,7.4-6.3,7.4L392.3,21.7z M401.4,14.3v-2
			c0-3.4-1.1-4.9-3.5-4.9h-2.8v11.9h2.8C400.4,19.3,401.4,17.8,401.4,14.3">
   </path>
   <path class="st0" d="M423,10.2c-0.1-1.8-1.6-3.1-3.4-3c-2.2,0-3.4,1.5-3.4,5.1v2.1c0,3.6,1.2,5.1,3.4,5.1c1.9,0,2.9-0.9,3.4-3h2.7
			c-0.1,3.1-2.7,5.5-5.8,5.4c-0.1,0-0.2,0-0.3,0c-3.7,0-6.3-2.3-6.3-7.5v-2.1c0-5.3,2.5-7.5,6.3-7.5c3.1-0.2,5.9,2.2,6.1,5.3v0.1
			H423z">
   </path>
   <polygon class="st0" points="438.6,5 438.6,7.4 431.2,7.4 431.2,11.8 437.9,11.8 437.9,14.2 431.2,14.2 431.2,19.3 438.6,19.3 
			438.6,21.7 428.4,21.7 428.4,5 		">
   </polygon>
   <polygon class="st0" points="444.3,19.3 451.8,19.3 451.8,21.7 441.5,21.7 441.5,5 444.3,5 		">
   </polygon>
   <polygon class="st0" points="456.9,19.3 464.3,19.3 464.3,21.7 454.1,21.7 454.1,5 456.9,5 		">
   </polygon>
   <polygon class="st0" points="296.9,28.6 296.9,31 292.1,31 292.1,45.3 289.3,45.3 289.3,31 284.4,31 284.4,28.6 		">
   </polygon>
   <polygon class="st0" points="309.4,28.6 309.4,31 301.9,31 301.9,35.4 308.6,35.4 308.6,37.9 301.9,37.9 301.9,42.9 309.4,42.9 
			309.4,45.3 299.1,45.3 299.1,28.6 		">
   </polygon>
   <path class="st0" d="M321.1,33.8c-0.1-1.7-1.6-3.1-3.4-3c-2.2,0-3.4,1.5-3.4,5.1V38c0,3.6,1.2,5.1,3.4,5.1c1.9,0,2.9-0.9,3.4-3
			h2.7c-0.1,3.1-2.7,5.5-5.8,5.4c-0.1,0-0.2,0-0.3,0c-3.7,0-6.3-2.3-6.3-7.5v-2.2c0-5.3,2.5-7.5,6.3-7.5c3.1-0.2,5.9,2.1,6.1,5.3
			v0.1h-2.7V33.8z">
   </path>
   <polygon class="st0" points="329.3,35.4 335.7,35.4 335.7,28.6 338.5,28.6 338.5,45.3 335.7,45.3 335.7,37.9 329.3,37.9 
			329.3,45.3 326.5,45.3 326.5,28.6 329.3,28.6 		">
   </polygon>
   <polygon class="st0" points="354.2,28.6 354.2,45.3 351.7,45.3 344.9,33.9 344.9,45.3 342.2,45.3 342.2,28.6 344.6,28.6 
			351.5,40.1 351.5,28.6 		">
   </polygon>
   <path class="st0" d="M363.4,45.5c-3.7,0-6.3-2.3-6.3-7.5v-2.1c0-5.3,2.5-7.5,6.3-7.5s6.3,2.3,6.3,7.5V38
			C369.6,43.3,367.1,45.5,363.4,45.5 M360,38c0,3.6,1.2,5.1,3.4,5.1s3.5-1.5,3.5-5.1v-2.1c0-3.6-1.2-5.1-3.5-5.1
			c-2.2,0-3.4,1.5-3.4,5.1V38z">
   </path>
   <polygon class="st0" points="375.3,42.9 382.8,42.9 382.8,45.3 372.5,45.3 372.5,28.6 375.3,28.6 		">
   </polygon>
   <path class="st0" d="M390.1,45.5c-3.7,0-6.3-2.3-6.3-7.5v-2.1c0-5.3,2.5-7.5,6.3-7.5s6.3,2.3,6.3,7.5V38
			C396.3,43.3,393.8,45.5,390.1,45.5 M386.7,38c0,3.6,1.2,5.1,3.4,5.1s3.4-1.5,3.4-5.1v-2.1c0-3.6-1.2-5.1-3.4-5.1
			c-2.1,0-3.4,1.5-3.4,5.1V38z">
   </path>
   <path class="st0" d="M411.4,36.7V38c0,5.3-2.4,7.5-6.2,7.5c-3.8,0-6.2-2.3-6.2-7.5v-2c0-5.4,2.5-7.6,6.2-7.6
			c3.2-0.2,5.9,2.2,6.1,5.4l0,0h-2.7c-0.1-1.7-1.6-3.1-3.4-3c-2.2,0-3.4,1.5-3.4,5.1V38c0,3.6,1.2,5.1,3.4,5.1s3.2-1.3,3.4-3.9h-3.4
			v-2.5C405.2,36.7,411.4,36.7,411.4,36.7z">
   </path>
   <rect x="414.9" y="28.6" class="st0" width="2.8" height="16.7">
   </rect>
   <polygon class="st0" points="432.2,28.6 432.2,31 424.7,31 424.7,35.4 431.4,35.4 431.4,37.9 424.7,37.9 424.7,42.9 432.2,42.9 
			432.2,45.3 421.9,45.3 421.9,28.6 		">
   </polygon>
   <path class="st0" d="M443.6,32.6c-0.8-1.2-2.2-1.9-3.6-1.8c-1.7,0-2.7,0.8-2.7,2.2s1.3,2.2,3.6,2.7c3.4,0.7,5.1,2,5.1,5
			c0,2.5-1.7,4.8-5.7,4.8c-2.4,0.2-4.8-0.8-6.2-2.7l2.2-1.5c0.9,1.2,2.4,1.9,4,1.8c2.3,0,3-1,3-2.2s-0.8-2.2-3.7-2.8
			c-3.2-0.7-5.1-2.2-5.1-5.1c0-2.5,1.7-4.6,5.6-4.6c2.3-0.2,4.5,0.9,5.7,2.7L443.6,32.6z">
   </path>
   <path class="st1" d="M0,25.8h28.3C49.8,12.1,64.8,5,100.9,0.3V0C74.1-0.3,35.6,5.5,0,25.8">
   </path>
   <path class="st2" d="M86.2,39.1v-4.4h22.7v-5.9H86.2v-4.5h22.7v-6H80.3c-1.2,0-2.1,1-2.1,2.1l0,0v23.2c0,1.2,0.9,2.1,2.1,2.1h28.6
			V39L86.2,39.1z">
   </path>
   <path class="st2" d="M167,46.5L167,46.5c-6.8,0-8.8-0.2-11.3-1.1c-3.6-1.1-5.9-4.6-5.6-8.3V18.2h8.5v17.3c-0.1,1.4,0.9,2.7,2.3,3
			c4,0.7,8.1,0.7,12.1,0c1.5-0.2,2.6-1.5,2.5-3V18.2h8.5V37c0.3,3.8-2.1,7.2-5.7,8.3C175.8,46.2,173.8,46.5,167,46.5">
   </path>
   <path class="st2" d="M137.4,45.7h10l-8.3-10.2h0.6c3.4,0,6.3-3.1,6.3-8.7s-2.9-8.7-6.3-8.7h-23.4c-1.2,0-2.1,1-2.1,2.2v25.4h8
			V35.6h7L137.4,45.7z M136.4,24.3c0.4-0.1,0.8,0.1,1.2,0.3c0.4,0.3,0.6,0.7,0.6,2.2s-0.2,1.9-0.6,2.2c-0.3,0.3-0.7,0.4-1.2,0.3
			h-14.2v-5.1L136.4,24.3z">
   </path>
   <path class="st2" d="M254.3,17.5h-11.7c-7.1,0-11.9,2.5-11.9,9.2v10.6c0,6.8,4.8,9.2,11.9,9.2h11.7c7.1,0,11.9-2.5,11.9-9.2V26.7
			C266.1,19.9,261.3,17.5,254.3,17.5 M257.8,35.7c0,2.7-2,3.4-5.9,3.4h-7c-3.8,0-5.9-0.8-5.9-3.4v-7.5c0-2.7,2-3.4,5.9-3.4h7
			c3.8,0,5.9,0.8,5.9,3.4V35.7z">
   </path>
   <polygon class="st2" points="75.3,18.2 40.8,18.2 40.8,25.8 53.4,25.8 53.4,45.8 62.7,45.8 62.7,25.8 75.3,25.8 		">
   </polygon>
   <path class="st2" d="M203.5,45.7l-6.4-18l-0.2-0.1v18.1h-7.7V20.3c0-1.1,0.9-2,2.1-2.1h9.9l6.1,17.6l6.1-17.6h9.9
			c1.2,0,2.1,1,2.1,2.2v25.3h-7.7v-18l-0.2,0.1l-6.3,17.9H203.5z">
   </path>
  </g>
 </g>
</svg>