<svg xmlns="http://www.w3.org/2000/svg" xmlns:xlink="http://www.w3.org/1999/xlink" width="284" height="108" viewBox="0 0 284 108">
    <defs>
        <path id="a" d="M35.182.414C15.73.549 0 16.365 0 35.848c0 19.569 15.865 35.436 35.433 35.436 19.57 0 35.432-15.867 35.432-35.436C70.865 16.365 55.138.549 35.684.414h-.502zM16.265 18.268a6.99 6.99 0 0 1 6.996-6.992 6.99 6.99 0 0 1 6.992 6.992 6.991 6.991 0 0 1-6.992 6.995 6.99 6.99 0 0 1-6.996-6.995zm0 17.505a6.991 6.991 0 0 1 6.996-6.994 6.993 6.993 0 0 1 6.992 6.994c0 3.863-3.131 6.999-6.992 6.999a6.996 6.996 0 0 1-6.996-6.999zm0 17.595c0-3.86 3.127-7 6.996-7 3.861 0 6.992 3.14 6.992 7a6.992 6.992 0 0 1-6.992 6.995 6.99 6.99 0 0 1-6.996-6.995z"/>
        <radialGradient id="b" cx="31.115%" cy="23.028%" r="47.363%" fx="31.115%" fy="23.028%" gradientTransform="matrix(1 0 0 .99993 0 0)">
            <stop offset="0%" stop-color="#FCB813"/>
            <stop offset="100%" stop-color="#EB9200"/>
        </radialGradient>
        <path id="d" d="M.3.699h62.677v74.15H.3z"/>
        <path id="f" d="M.023.426h13.422v17.572H.023z"/>
    </defs>
    <g fill="none" fill-rule="evenodd">
        <g transform="translate(0 7.302)">
            <mask id="c" fill="#fff">
                <use xlink:href="#a"/>
            </mask>
            <path fill="url(#b)" d="M35.182.414C15.73.549 0 16.365 0 35.848c0 19.569 15.865 35.436 35.433 35.436 19.57 0 35.432-15.867 35.432-35.436C70.865 16.365 55.138.549 35.684.414h-.502zM16.265 18.268a6.99 6.99 0 0 1 6.996-6.992 6.99 6.99 0 0 1 6.992 6.992 6.991 6.991 0 0 1-6.992 6.995 6.99 6.99 0 0 1-6.996-6.995zm0 17.505a6.991 6.991 0 0 1 6.996-6.994 6.993 6.993 0 0 1 6.992 6.994c0 3.863-3.131 6.999-6.992 6.999a6.996 6.996 0 0 1-6.996-6.999zm0 17.595c0-3.86 3.127-7 6.996-7 3.861 0 6.992 3.14 6.992 7a6.992 6.992 0 0 1-6.992 6.995 6.99 6.99 0 0 1-6.996-6.995z" mask="url(#c)"/>
        </g>
        <path fill="#585854" d="M104.698 75.15c-9.903 0-17.478-3.836-22.518-11.396a.377.377 0 0 1 .103-.52l7.03-4.808c.082-.06.187-.082.287-.06.1.02.188.078.243.168 3.557 5.535 8.695 8.46 14.855 8.46 6.565 0 13.19-2.855 13.19-9.243 0-5.22-4.09-7.27-10.69-8.887l-7.89-1.845c-9.875-2.473-15.092-7.845-15.092-15.54 0-12.275 10.907-17.77 21.714-17.77 9.275 0 16.225 3.755 19.578 10.57a.374.374 0 0 1-.13.482l-7.278 4.813a.371.371 0 0 1-.537-.14c-2.605-4.95-6.798-7.568-12.125-7.568-5.77 0-11.59 2.553-11.59 8.256 0 5.26 3.722 7.077 11.055 8.76l8.27 1.974c8.715 2.01 14.35 8.356 14.35 16.155 0 13.388-12.295 18.138-22.825 18.138M164.056 22.327c-12.305 0-20.898 9.09-20.898 22.102 0 13.02 8.593 22.11 20.898 22.11 12.375 0 21.02-9.09 21.02-22.11 0-13.012-8.645-22.102-21.02-22.102m-.003 52.822c-17.942 0-30.964-12.92-30.964-30.72 0-17.799 13.022-30.717 30.964-30.717 18.015 0 31.093 12.918 31.093 30.717 0 17.8-13.078 30.72-31.093 30.72"/>
        <g transform="translate(203 .302)">
            <mask id="e" fill="#fff">
                <use xlink:href="#d"/>
            </mask>
            <path fill="#585854" d="M32.765 22.088c-12.635 0-22.158 9.476-22.158 22.04 0 12.566 9.523 22.04 22.158 22.04 12.337 0 20.952-9.062 20.952-22.04 0-12.977-8.615-22.04-20.952-22.04m-.878 52.76c-6.777 0-16.57-2.802-22.317-10.642v8.782c0 .21-.17.38-.378.38H.675a.377.377 0 0 1-.375-.38V1.076C.3.868.467.698.675.698h8.517c.208 0 .378.17.378.379v22.975c5.747-7.841 15.54-10.643 22.317-10.643 18.016 0 31.09 12.917 31.09 30.72 0 17.8-13.074 30.72-31.09 30.72" mask="url(#e)"/>
        </g>
        <path fill="#585854" d="M283.089 73.67h-8.518a.379.379 0 0 1-.377-.377V15.568c0-.208.17-.375.377-.375h8.518c.21 0 .375.167.375.375v57.725a.375.375 0 0 1-.375.377M143.294 91.695c0-.36-.193-.528-.528-.528h-1.034v-.912h1.177c.985 0 1.393.41 1.393 1.32v.84c0 .555-.048.987-.048.987h.048c.602-1.852 1.897-3.242 3.794-3.242.358 0 .695.072.695.072v1.008s-.287-.048-.55-.048c-1.875 0-3.05 1.585-3.58 3.363-.262.837-.36 1.727-.36 2.517v5.188h-1.007V91.695zM153.665 101.612c2.617 0 4.107-2.712 4.107-5.09v-.648h-.77c-2.04 0-6.41 0-6.41 3.12 0 1.273 1.035 2.618 3.073 2.618m3.312-6.675h.795v-.167c0-2.858-.985-3.866-3.482-3.866-.625 0-2.663.168-2.663 1.175v.818h-1.012v-1.105c0-1.418 2.715-1.825 3.7-1.825 3.672 0 4.465 1.995 4.465 4.538v6.315c0 .36.192.53.53.53h1.03v.91h-1.175c-.985 0-1.393-.386-1.393-1.463 0-.65.048-1.082.048-1.082h-.048c.023 0-1.035 2.834-4.155 2.834-1.945 0-4.08-1.082-4.08-3.482 0-4.08 5.305-4.13 7.44-4.13M163.006 91.695c0-.36-.193-.528-.528-.528h-1.032v-.912h1.177c.983 0 1.39.41 1.39 1.32v.84c0 .555-.047.987-.047.987h.048c.602-1.852 1.897-3.242 3.795-3.242.357 0 .694.072.694.072v1.008s-.287-.048-.55-.048c-1.875 0-3.05 1.585-3.577 3.363-.265.837-.362 1.727-.362 2.517v5.188h-1.008V91.695zM179.285 95.152c-.12-2.928-1.872-4.248-3.865-4.248-2.21 0-4.25 1.44-4.683 4.248h8.548zm-3.843-5.185c3.268 0 4.9 2.57 4.9 5.475 0 .265-.05.647-.05.647h-9.627c0 3.483 2.352 5.473 5.137 5.473 2.305 0 3.723-1.51 3.723-1.51l.55.84s-1.678 1.657-4.273 1.657c-3.385 0-6.192-2.45-6.192-6.267 0-4.058 2.76-6.315 5.832-6.315zM189.903 98.37s1.56 1.803 3.65 1.803c.937 0 1.657-.388 1.657-1.203 0-1.728-6.46-1.703-6.46-5.665 0-2.45 2.21-3.579 4.753-3.579 1.66 0 4.3.554 4.3 2.546v1.273h-2.69v-.6c0-.575-.865-.865-1.535-.865-1.083 0-1.825.385-1.825 1.105 0 1.92 6.507 1.538 6.507 5.617 0 2.305-2.042 3.748-4.707 3.748-3.363 0-5.09-2.185-5.09-2.185l1.44-1.995zM201.14 92.44h-1.584v-2.426h1.655v-3.337h2.98v3.337h2.785v2.425h-2.785v4.947c0 2.016 1.585 2.303 2.422 2.303.338 0 .553-.045.553-.045v2.663s-.383.075-.935.075c-1.705 0-5.09-.508-5.09-4.613v-5.33zM209.976 93.135c0-.36-.193-.527-.528-.527h-.962v-2.593h2.787c1.08 0 1.633.457 1.633 1.49v.72c0 .455-.05.765-.05.765h.05c.552-1.75 2.017-3.143 3.89-3.143.262 0 .55.048.55.048v3s-.313-.048-.745-.048c-1.295 0-2.783.745-3.338 2.571A7.444 7.444 0 0 0 213 97.41v4.847h-3.025v-9.122zM226.734 94.553c-.048-1.464-1.055-2.472-2.305-2.472-1.56 0-2.663.934-3 2.472h5.305zm-2.305-4.826c3.505 0 5.427 2.569 5.427 5.812 0 .357-.072 1.127-.072 1.127h-8.45c.24 2.16 1.822 3.29 3.672 3.29 1.97 0 3.436-1.37 3.436-1.37l1.269 2.113s-1.872 1.85-4.92 1.85c-4.057 0-6.58-2.93-6.58-6.41 0-3.77 2.545-6.412 6.218-6.412zM232.81 93.135c0-.36-.193-.527-.53-.527h-.96v-2.593h2.81c1.08 0 1.607.502 1.607 1.37v.357c0 .265-.047.528-.047.528h.047c.53-1.03 1.85-2.543 4.323-2.543 2.712 0 4.272 1.415 4.272 4.658v4.777c0 .338.195.528.531.528h.96v2.567h-2.905c-1.153 0-1.633-.477-1.633-1.63V95.01c0-1.49-.385-2.497-1.923-2.497-1.63 0-2.855 1.032-3.287 2.497-.17.503-.24 1.055-.24 1.63v5.617h-3.025v-9.122z"/>
        <g transform="translate(247 89.302)">
            <mask id="g" fill="#fff">
                <use xlink:href="#f"/>
            </mask>
            <path fill="#585854" d="M9.028 6.548c0-2.785-1.395-3.53-3.05-3.53-1.85 0-2.858 1.345-2.858 3.408 0 2.14 1.08 3.722 3.048 3.722 1.465 0 2.86-.84 2.86-3.6M5.448.426c2.835 0 3.77 1.727 3.77 1.727h.05V1.84c0-.552.382-1.127 1.345-1.127h2.832v2.593h-.935c-.312 0-.53.17-.53.482v8.427c0 4.2-3.265 5.785-6.457 5.785-1.54 0-3.17-.432-4.348-1.057l.935-2.4s1.515.815 3.388.815c1.847 0 3.457-.792 3.457-3v-.575c0-.288.023-.65.023-.65H8.93c-.72 1.032-1.775 1.585-3.407 1.585-3.508 0-5.5-2.833-5.5-6.195C.023 3.163 1.92.426 5.448.426" mask="url(#g)"/>
        </g>
        <path fill="#585854" d="M263.345 92.44h-1.585v-2.426h1.655v-3.337h2.98v3.337h2.785v2.425h-2.785v4.947c0 2.016 1.585 2.303 2.422 2.303.338 0 .553-.045.553-.045v2.663s-.383.075-.935.075c-1.705 0-5.09-.508-5.09-4.613v-5.33zM283.465 102.259h-3.025V95.01c0-1.49-.407-2.497-1.942-2.497-1.611 0-2.861 1.052-3.316 2.542-.144.483-.192 1.008-.192 1.585v5.618h-3.047V88.336c0-.362-.195-.53-.531-.53h-.96v-2.592h2.905c1.128 0 1.633.505 1.633 1.607v4.298c0 .6-.047 1.032-.047 1.032h.047c.578-1.177 2.088-2.425 4.202-2.425 2.738 0 4.273 1.418 4.273 4.66v7.873z"/>
    </g>
</svg>
