<?xml version="1.0" encoding="UTF-8" ?>
<!DOCTYPE svg PUBLIC "-//W3C//DTD SVG 1.1//EN" "http://www.w3.org/Graphics/SVG/1.1/DTD/svg11.dtd">
<svg width="986pt" height="135pt" viewBox="0 0 986 135" version="1.1" xmlns="http://www.w3.org/2000/svg">
<g id="#fb630fff">
<path fill="#fb630f" opacity="1.00" d=" M 432.19 8.67 C 454.15 8.64 476.10 8.57 498.06 8.60 C 511.15 8.62 524.82 9.24 536.72 15.28 C 543.84 19.02 547.15 27.34 547.35 35.03 C 547.53 40.83 546.38 46.96 542.60 51.55 C 537.73 57.66 530.54 61.11 523.78 64.67 C 534.80 67.78 547.31 72.53 552.17 83.84 C 557.03 97.32 552.58 115.46 538.72 121.72 C 528.37 127.04 516.45 127.25 505.08 127.65 C 480.73 127.70 456.37 127.64 432.01 127.67 C 432.01 122.65 431.99 117.64 432.15 112.62 C 437.52 111.92 444.98 113.98 448.46 108.68 C 450.61 92.19 448.91 75.52 449.40 58.96 C 449.12 47.67 450.63 36.17 447.76 25.09 C 442.60 23.98 437.31 23.83 432.06 23.54 C 432.08 18.58 432.17 13.62 432.19 8.67 M 483.48 58.15 C 492.19 57.61 501.59 57.96 509.33 53.30 C 515.64 47.03 515.99 35.56 510.22 28.83 C 502.67 22.84 492.41 24.27 483.42 23.71 C 483.38 35.19 483.41 46.67 483.48 58.15 M 483.47 73.06 C 483.52 86.20 483.40 99.35 483.42 112.49 C 492.58 112.15 502.24 112.80 510.77 108.86 C 522.88 101.97 521.36 80.52 508.20 75.64 C 500.30 72.69 491.73 73.31 483.47 73.06 Z" />
<path fill="#fb630f" opacity="1.00" d=" M 3.65 8.60 C 29.78 8.60 55.90 8.59 82.02 8.61 C 93.04 8.83 104.74 9.58 114.30 15.67 C 122.21 20.45 126.11 30.03 125.69 39.02 C 125.40 44.90 123.77 51.15 119.30 55.26 C 113.90 60.42 106.54 62.51 99.61 64.73 C 106.50 67.23 114.92 69.61 117.90 77.13 C 122.06 89.64 115.59 104.35 123.91 115.72 C 130.00 110.77 130.95 102.46 131.35 95.15 C 135.28 95.07 139.22 95.07 143.16 95.02 C 142.15 103.93 142.38 113.54 137.65 121.49 C 134.98 126.05 130.13 128.90 125.02 129.88 C 115.99 132.07 105.90 131.93 97.60 127.36 C 92.79 124.68 88.90 120.28 87.11 115.05 C 82.95 102.93 89.38 89.37 83.38 77.64 C 82.68 75.60 80.40 75.17 78.61 74.58 C 70.91 72.40 62.83 73.29 54.94 73.22 C 55.19 86.09 53.95 99.15 56.72 111.84 C 61.95 112.05 67.18 112.26 72.41 112.49 C 72.34 117.54 72.29 122.60 72.29 127.66 C 49.41 127.67 26.53 127.67 3.64 127.65 C 3.65 122.68 3.65 117.70 3.65 112.72 C 8.92 112.35 14.18 111.89 19.43 111.33 C 22.49 84.99 20.51 58.45 20.78 32.02 C 21.04 29.17 19.94 25.95 17.05 24.89 C 12.77 23.32 8.11 23.89 3.64 23.66 C 3.65 18.64 3.64 13.62 3.65 8.60 M 54.95 23.89 C 55.06 35.19 54.97 46.49 55.01 57.80 C 62.91 57.65 70.95 58.66 78.72 56.81 C 82.97 55.71 87.68 53.79 89.49 49.44 C 92.27 43.16 90.21 36.16 89.13 29.72 C 78.89 23.56 66.52 23.51 54.95 23.89 Z" />
<path fill="#fb630f" opacity="1.00" d=" M 195.26 8.54 C 206.98 8.54 218.71 8.65 230.43 8.60 C 240.40 39.00 249.72 69.61 259.86 99.96 C 261.07 103.21 261.47 107.18 264.49 109.36 C 268.45 112.21 273.52 112.40 278.17 113.07 C 278.18 117.92 278.15 122.77 278.20 127.62 C 256.22 127.73 234.23 127.63 212.25 127.67 C 212.18 122.70 212.14 117.74 212.09 112.77 C 217.52 111.71 224.03 113.35 228.34 109.02 C 227.53 102.10 224.86 95.63 222.67 89.08 C 211.21 89.15 199.76 89.12 188.30 89.14 C 186.15 95.66 183.67 102.12 182.50 108.91 C 186.66 113.13 192.93 111.92 198.24 112.82 C 198.23 117.76 198.23 122.71 198.24 127.66 C 180.91 127.68 163.57 127.66 146.24 127.67 C 146.22 122.65 146.28 117.63 146.18 112.61 C 150.30 112.31 154.42 112.01 158.55 111.69 C 164.92 101.51 167.80 89.73 171.64 78.48 C 179.44 55.14 187.02 31.73 195.26 8.54 M 205.60 36.67 C 201.68 49.06 197.68 61.42 193.56 73.74 C 201.56 73.86 209.56 73.78 217.55 73.79 C 213.72 61.36 209.77 48.98 205.60 36.67 Z" />
<path fill="#fb630f" opacity="1.00" d=" M 283.54 23.61 C 283.52 18.61 283.52 13.61 283.54 8.60 C 302.47 8.65 321.41 8.77 340.34 8.58 C 355.83 36.07 370.68 63.92 386.17 91.41 C 386.13 73.60 386.07 55.79 386.14 37.98 C 386.13 33.66 386.21 29.04 383.76 25.28 C 378.67 23.72 373.30 23.89 368.05 23.56 C 368.12 18.58 368.21 13.59 368.25 8.61 C 386.20 8.59 404.16 8.60 422.11 8.60 C 421.93 13.54 422.50 18.60 421.86 23.45 C 417.18 24.10 412.16 23.67 407.86 25.92 C 405.97 29.24 406.19 33.27 406.06 36.97 C 406.06 67.20 406.17 97.43 406.11 127.67 C 393.90 127.66 381.68 127.67 369.47 127.66 C 353.33 98.22 337.15 68.80 321.02 39.35 C 320.86 61.28 320.37 83.21 321.21 105.13 C 321.13 107.88 322.65 110.80 325.42 111.62 C 329.56 112.92 333.97 112.26 338.24 112.66 C 338.24 117.64 338.20 122.62 338.27 127.61 C 320.02 127.74 301.77 127.64 283.52 127.66 C 283.53 122.70 283.52 117.75 283.53 112.80 C 288.65 112.45 293.87 112.35 298.79 110.71 C 301.30 106.23 300.76 100.96 300.89 96.04 C 300.75 76.68 300.89 57.32 300.88 37.96 C 300.94 33.58 300.46 29.18 298.86 25.08 C 293.85 23.84 288.66 23.90 283.54 23.61 Z" />
<path fill="#fb630f" opacity="1.00" d=" M 612.14 8.61 C 623.95 8.58 635.76 8.62 647.57 8.59 C 657.14 38.10 666.45 67.70 675.90 97.25 C 677.33 101.24 678.41 105.52 681.06 108.92 C 684.85 112.62 690.60 111.92 695.41 112.97 C 695.44 117.86 695.34 122.76 695.35 127.65 C 673.31 127.68 651.27 127.67 629.23 127.66 C 629.33 122.68 629.32 117.71 629.43 112.73 C 634.93 112.20 640.40 111.48 645.87 110.68 C 644.54 103.36 642.23 96.29 640.03 89.20 C 628.49 89.22 616.96 89.06 605.42 89.09 C 602.86 96.22 600.78 103.56 599.83 111.09 C 605.01 111.65 610.21 112.19 615.40 112.75 C 615.31 117.72 615.36 122.69 615.36 127.66 C 598.02 127.68 580.69 127.66 563.36 127.66 C 563.36 122.67 563.34 117.67 563.37 112.68 C 568.12 111.82 574.31 113.01 577.55 108.57 C 581.58 101.96 583.30 94.29 585.90 87.07 C 594.55 60.88 603.35 34.75 612.14 8.61 M 610.95 73.72 C 618.86 73.79 626.77 73.89 634.68 73.85 C 630.74 61.40 626.90 48.91 623.09 36.42 C 618.80 48.77 614.75 61.21 610.95 73.72 Z" />
<path fill="#fb630f" opacity="1.00" d=" M 706.77 8.60 C 727.80 8.60 748.83 8.60 769.87 8.60 C 769.95 13.40 769.94 18.21 770.01 23.02 C 765.69 24.05 761.40 25.22 757.16 26.54 C 761.92 34.62 767.47 42.18 772.92 49.80 C 779.29 42.46 785.57 35.00 790.94 26.88 C 786.80 25.58 782.66 24.30 778.52 23.00 C 778.55 18.20 778.64 13.40 778.72 8.60 C 796.19 8.60 813.67 8.59 831.14 8.61 C 831.20 13.39 831.27 18.18 831.36 22.96 C 826.92 24.19 822.31 25.07 818.20 27.21 C 814.98 28.86 812.76 31.79 810.44 34.47 C 802.12 44.03 794.30 54.03 786.34 63.89 C 797.70 78.20 808.06 93.28 819.68 107.38 C 823.49 111.88 829.82 112.12 835.23 112.97 C 835.23 117.87 835.24 122.77 835.23 127.67 C 813.01 127.65 790.80 127.68 768.59 127.65 C 768.59 122.59 768.58 117.52 768.59 112.45 C 772.74 112.11 776.89 111.78 781.04 111.44 C 778.39 100.99 770.56 93.19 764.69 84.51 C 758.86 91.45 752.35 97.95 747.85 105.89 C 746.44 107.79 747.51 110.77 749.81 111.37 C 752.68 112.27 755.72 112.43 758.64 113.17 C 758.64 118.00 758.64 122.83 758.64 127.66 C 740.43 127.67 722.22 127.66 704.01 127.67 C 703.99 122.70 704.00 117.72 704.00 112.75 C 709.83 111.65 716.76 111.85 721.05 107.05 C 731.75 95.32 741.00 82.39 751.20 70.24 C 741.43 57.51 732.16 44.40 722.13 31.87 C 718.24 27.04 712.15 24.98 706.54 22.88 C 706.62 18.12 706.67 13.36 706.77 8.60 Z" />
<path fill="#fb630f" opacity="1.00" d=" M 849.89 8.60 C 872.53 8.60 895.18 8.60 917.82 8.61 C 917.81 13.51 917.83 18.42 917.81 23.33 C 913.06 24.07 908.34 25.01 903.66 26.09 C 908.74 37.29 915.89 47.36 922.56 57.64 C 928.46 48.83 935.46 40.69 940.15 31.11 C 940.59 29.82 941.71 28.56 941.48 27.14 C 938.11 24.01 933.29 24.02 929.05 23.16 C 929.08 18.31 929.16 13.46 929.22 8.61 C 946.04 8.59 962.86 8.60 979.68 8.61 C 979.73 13.40 979.81 18.19 979.89 22.99 C 974.80 24.50 969.47 25.85 965.18 29.12 C 961.84 31.59 960.08 35.46 957.78 38.80 C 949.37 52.01 940.14 64.74 932.66 78.52 C 930.71 89.53 931.64 100.93 933.65 111.89 C 939.49 112.61 945.37 112.95 951.25 113.31 C 951.16 118.09 951.19 122.88 951.10 127.67 C 927.37 127.67 903.64 127.67 879.91 127.67 C 879.88 122.87 879.83 118.07 879.82 113.27 C 885.12 112.68 891.11 114.10 895.80 110.93 C 899.12 105.24 898.76 98.39 898.58 92.05 C 898.27 87.07 899.42 81.76 897.11 77.10 C 894.75 72.24 891.58 67.84 888.76 63.25 C 882.04 52.97 876.16 42.12 868.64 32.39 C 864.07 26.63 856.52 24.98 849.83 23.00 C 849.79 18.20 849.89 13.40 849.89 8.60 Z" />
</g>
</svg>
