<svg version="1.1" id="Ebene_1" xmlns:x="ns_extend;" xmlns:i="ns_ai;" xmlns:graph="ns_graphs;" xmlns="http://www.w3.org/2000/svg" xmlns:xlink="http://www.w3.org/1999/xlink" x="0px" y="0px" viewBox="0 0 66.2 80" style="enable-background:new 0 0 66.2 80;" xml:space="preserve">
 <style type="text/css">
  .st0{fill:#FFFFFF;}
 </style>
 <metadata>
  <sfw xmlns="ns_sfw;">
   <slices>
   </slices>
   <sliceSourceBounds bottomLeftOrigin="true" height="80" width="66.2" x="-16.2" y="0.6">
   </sliceSourceBounds>
  </sfw>
 </metadata>
 <g id="XMLID_36_">
  <polygon id="XMLID_33_" class="st0" points="15.5,27.4 15.5,38.7 12.8,38.7 12.8,34.1 9.2,34.1 9.2,38.7 6.5,38.7 6.5,27.4 
		9.2,27.4 9.2,31.8 12.8,31.8 12.8,27.4 	">
  </polygon>
  <polygon id="XMLID_12_" class="st0" points="59.8,36.4 59.8,38.7 53.1,38.7 53.1,27.4 55.8,27.4 55.8,36.4 	">
  </polygon>
  <polygon id="XMLID_30_" class="st0" points="21.7,29.7 21.7,31.9 25.7,31.9 25.7,34 21.7,34 21.7,36.5 25.9,36.5 25.9,38.7 
		19.1,38.7 19.1,27.4 25.9,27.4 25.9,29.7 	">
  </polygon>
  <polygon id="XMLID_18_" class="st0" points="38.9,38.8 35.7,38.8 33.5,35 31.3,38.8 28.1,38.8 31.8,33.1 28.4,27.4 31.4,27.4 
		33.5,31.1 35.6,27.4 38.6,27.4 35.2,33.1 	">
  </polygon>
  <path id="XMLID_21_" class="st0" d="M49.9,36.7l-0.7-2.1l-2.4-7.1h-3.1l-2.4,7.1l-0.7,2.1L40,38.8h2.6l0.7-2.1h4.1l0.7,2.1h2.6
		L49.9,36.7z M44,34.5l1.3-4.1l1.3,4.1H44z">
  </path>
  <g id="XMLID_20_">
   <path id="XMLID_71_" class="st0" d="M20.5,6.7v13.8H6.7v2.7h13.8c1.5,0,2.7-1.2,2.7-2.7V6.7v0L20.5,6.7
			C20.5,6.7,20.5,6.7,20.5,6.7z">
   </path>
   <path id="XMLID_73_" class="st0" d="M45.7,6.7L45.7,6.7l-2.7,0v0v13.8c0,1.5,1.2,2.7,2.7,2.7h13.8v-2.7H45.7V6.7z">
   </path>
   <path id="XMLID_76_" class="st0" d="M64.8,18C64.8,18,64.8,17.9,64.8,18L48,1.2C46.8,0,44.8,0,44.8,0H33.1H21.4c0,0-2,0-3.2,1.2
			L1.4,17.9c0,0,0,0,0,0C1.2,18.2,0,19.6,0,21.6v11.5v11.5c0,2,1.2,3.4,1.4,3.6c0,0,0,0,0,0L18.2,65c1.2,1.2,3.2,1.2,3.2,1.2h11.7
			h11.7c0,0,2,0,3.2-1.2l16.7-16.7c0,0,0,0,0,0c0.2-0.2,1.4-1.6,1.4-3.6V33.1V21.6C66.2,19.6,65,18.2,64.8,18z M63.5,44.9
			c0,0.7-0.3,1.1-0.4,1.2c0,0,0,0,0,0L46.3,62.9c0,0,0,0,0,0c-0.6,0.6-1.4,0.6-1.4,0.6H33.1H21.3c0,0-0.8,0-1.4-0.6c0,0,0,0,0,0
			L3.1,46.1c0,0,0,0,0,0C3,46,2.7,45.6,2.7,44.9V33.1V21.3c0-0.7,0.3-1.1,0.4-1.2c0,0,0,0,0,0L19.9,3.3c0,0,0,0,0,0
			c0.6-0.6,1.4-0.6,1.4-0.6h11.8h11.8c0,0,0.8,0,1.4,0.6c0,0,0,0,0,0l16.8,16.8c0,0,0,0,0,0c0.1,0.1,0.4,0.5,0.4,1.2v11.8L63.5,44.9
			L63.5,44.9z">
   </path>
   <path id="XMLID_77_" class="st0" d="M20.5,43H6.7v2.7h13.8v13.8v0h2.7v0V45.7C23.2,44.2,22,43,20.5,43z">
   </path>
   <path id="XMLID_78_" class="st0" d="M43,45.7v13.8v0h2.7v0V45.7h13.8V43H45.7C44.2,43,43,44.2,43,45.7z">
   </path>
  </g>
  <g id="XMLID_2_">
   <path id="XMLID_5_" class="st0" d="M0.1,79.9l2.6-6.8h1l2.8,6.8h-1l-0.8-2.1H1.8l-0.7,2.1C1.1,79.9,0.1,79.9,0.1,79.9z M2.1,77.1
			h2.3l-0.7-1.9c-0.2-0.6-0.4-1-0.5-1.4c-0.1,0.4-0.2,0.9-0.4,1.3L2.1,77.1z">
   </path>
   <path id="XMLID_8_" class="st0" d="M9.3,77.7l0.9-0.1c0,0.3,0.1,0.6,0.3,0.8c0.1,0.2,0.4,0.4,0.7,0.5c0.3,0.1,0.7,0.2,1,0.2
			c0.3,0,0.6-0.1,0.9-0.2c0.3-0.1,0.5-0.2,0.6-0.4c0.1-0.2,0.2-0.4,0.2-0.6c0-0.2-0.1-0.4-0.2-0.6c-0.1-0.2-0.3-0.3-0.6-0.4
			c-0.2-0.1-0.6-0.2-1.2-0.3c-0.6-0.2-1.1-0.3-1.3-0.4c-0.3-0.2-0.6-0.4-0.7-0.6c-0.2-0.3-0.2-0.5-0.2-0.8c0-0.3,0.1-0.7,0.3-1
			c0.2-0.3,0.5-0.5,0.9-0.7c0.4-0.2,0.8-0.2,1.3-0.2c0.5,0,1,0.1,1.3,0.2s0.7,0.4,0.9,0.7c0.2,0.3,0.3,0.7,0.3,1.1l-0.9,0.1
			c0-0.4-0.2-0.8-0.5-1c-0.3-0.2-0.7-0.3-1.2-0.3c-0.5,0-0.9,0.1-1.2,0.3c-0.3,0.2-0.4,0.4-0.4,0.7c0,0.2,0.1,0.4,0.3,0.6
			c0.2,0.2,0.6,0.3,1.4,0.5c0.7,0.2,1.2,0.3,1.5,0.4c0.4,0.2,0.7,0.4,0.9,0.7c0.2,0.3,0.3,0.6,0.3,1c0,0.4-0.1,0.7-0.3,1
			c-0.2,0.3-0.5,0.6-0.9,0.7c-0.4,0.2-0.8,0.3-1.3,0.3c-0.6,0-1.1-0.1-1.6-0.3c-0.4-0.2-0.7-0.5-1-0.8C9.5,78.6,9.4,78.2,9.3,77.7z">
   </path>
   <path id="XMLID_10_" class="st0" d="M18.8,79.3c-0.3,0.3-0.6,0.4-0.9,0.6C17.6,79.9,17.3,80,17,80c-0.5,0-1-0.1-1.3-0.4
			c-0.3-0.3-0.4-0.6-0.4-1c0-0.2,0.1-0.5,0.2-0.7c0.1-0.2,0.3-0.4,0.4-0.5c0.2-0.1,0.4-0.2,0.6-0.3c0.2,0,0.4-0.1,0.7-0.1
			c0.7-0.1,1.2-0.2,1.5-0.3c0-0.1,0-0.2,0-0.2c0-0.3-0.1-0.6-0.2-0.7c-0.2-0.2-0.5-0.3-1-0.3c-0.4,0-0.7,0.1-0.9,0.2
			s-0.3,0.4-0.4,0.7l-0.8-0.1c0.1-0.4,0.2-0.6,0.4-0.8c0.2-0.2,0.4-0.4,0.7-0.5c0.3-0.1,0.7-0.2,1.1-0.2c0.4,0,0.8,0,1,0.1
			s0.5,0.2,0.6,0.4c0.1,0.2,0.2,0.3,0.3,0.6c0,0.1,0,0.4,0,0.8v1.1c0,0.8,0,1.3,0.1,1.5c0,0.2,0.1,0.4,0.2,0.6H19
			C18.9,79.7,18.9,79.5,18.8,79.3z M18.8,77.4c-0.3,0.1-0.8,0.2-1.4,0.3c-0.3,0.1-0.6,0.1-0.7,0.2c-0.1,0.1-0.3,0.2-0.3,0.3
			c-0.1,0.1-0.1,0.3-0.1,0.4c0,0.2,0.1,0.4,0.3,0.6s0.4,0.2,0.7,0.2c0.3,0,0.6-0.1,0.9-0.2c0.3-0.1,0.4-0.3,0.6-0.6
			c0.1-0.2,0.1-0.5,0.1-0.8L18.8,77.4L18.8,77.4z">
   </path>
   <path id="XMLID_14_" class="st0" d="M20.6,79.9v-4.9h0.8v0.7c0.4-0.5,0.9-0.8,1.6-0.8c0.3,0,0.6,0.1,0.8,0.2
			c0.2,0.1,0.4,0.2,0.6,0.4c0.1,0.2,0.2,0.4,0.3,0.6c0,0.2,0,0.4,0,0.8v3h-0.8v-3c0-0.3,0-0.6-0.1-0.8c-0.1-0.2-0.2-0.3-0.3-0.4
			c-0.2-0.1-0.4-0.2-0.6-0.2c-0.4,0-0.7,0.1-0.9,0.3c-0.3,0.2-0.4,0.7-0.4,1.3v2.7L20.6,79.9L20.6,79.9z">
   </path>
   <path id="XMLID_16_" class="st0" d="M28.9,79.9v-0.6c-0.3,0.5-0.8,0.7-1.4,0.7c-0.4,0-0.8-0.1-1.1-0.3c-0.3-0.2-0.6-0.5-0.8-0.9
			c-0.2-0.4-0.3-0.8-0.3-1.3c0-0.5,0.1-0.9,0.2-1.3c0.2-0.4,0.4-0.7,0.7-0.9c0.3-0.2,0.7-0.3,1.1-0.3c0.3,0,0.6,0.1,0.8,0.2
			s0.4,0.3,0.6,0.5v-2.4h0.8v6.8L28.9,79.9L28.9,79.9z M26.3,77.4c0,0.6,0.1,1.1,0.4,1.4c0.3,0.3,0.6,0.5,0.9,0.5
			c0.4,0,0.7-0.1,0.9-0.4c0.3-0.3,0.4-0.8,0.4-1.4c0-0.7-0.1-1.2-0.4-1.5c-0.3-0.3-0.6-0.5-1-0.5c-0.4,0-0.7,0.2-0.9,0.5
			S26.3,76.8,26.3,77.4z">
   </path>
   <path id="XMLID_24_" class="st0" d="M30.3,77.4c0-0.9,0.3-1.6,0.8-2c0.4-0.4,0.9-0.5,1.6-0.5c0.7,0,1.2,0.2,1.7,0.7
			c0.4,0.4,0.6,1.1,0.6,1.8c0,0.6-0.1,1.1-0.3,1.5c-0.2,0.4-0.5,0.6-0.8,0.8c-0.4,0.2-0.8,0.3-1.2,0.3c-0.7,0-1.3-0.2-1.7-0.7
			C30.5,78.9,30.3,78.2,30.3,77.4z M31.2,77.4c0,0.6,0.1,1.1,0.4,1.4s0.6,0.5,1,0.5c0.4,0,0.8-0.2,1-0.5c0.3-0.3,0.4-0.8,0.4-1.4
			c0-0.6-0.1-1.1-0.4-1.4c-0.3-0.3-0.6-0.5-1-0.5c-0.4,0-0.8,0.2-1,0.5C31.3,76.3,31.2,76.8,31.2,77.4z">
   </path>
   <path id="XMLID_27_" class="st0" d="M35.1,79.9v-0.7l3.1-3.6c-0.4,0-0.7,0-0.9,0h-2v-0.7h4v0.6l-2.7,3.1l-0.5,0.6
			c0.4,0,0.7,0,1.1,0h2.3v0.7L35.1,79.9L35.1,79.9z">
   </path>
   <path id="XMLID_29_" class="st0" d="M42.7,79.9v-6.8h2.6c0.5,0,0.9,0.1,1.3,0.2c0.3,0.1,0.6,0.4,0.7,0.6s0.3,0.6,0.3,0.9
			c0,0.3-0.1,0.6-0.2,0.8c-0.2,0.3-0.4,0.5-0.7,0.6c0.4,0.1,0.7,0.3,1,0.6c0.2,0.3,0.3,0.6,0.3,1c0,0.3-0.1,0.6-0.2,0.9
			c-0.1,0.3-0.3,0.5-0.5,0.6c-0.2,0.1-0.4,0.3-0.7,0.3c-0.3,0.1-0.7,0.1-1.1,0.1H42.7z M43.6,75.9h1.5c0.4,0,0.7,0,0.9-0.1
			c0.2-0.1,0.4-0.2,0.5-0.3c0.1-0.2,0.2-0.4,0.2-0.6c0-0.2-0.1-0.4-0.2-0.6C46.4,74.1,46.2,74,46,74s-0.5-0.1-1-0.1h-1.4V75.9z
			 M43.6,79.1h1.7c0.3,0,0.5,0,0.6,0c0.2,0,0.4-0.1,0.5-0.2c0.1-0.1,0.3-0.2,0.3-0.4c0.1-0.2,0.1-0.4,0.1-0.6c0-0.3-0.1-0.5-0.2-0.7
			c-0.1-0.2-0.3-0.3-0.5-0.4c-0.2-0.1-0.6-0.1-1-0.1h-1.6L43.6,79.1L43.6,79.1z">
   </path>
   <path id="XMLID_35_" class="st0" d="M48.7,79.9v-4.9h0.8v0.7c0.2-0.3,0.4-0.6,0.5-0.7c0.2-0.1,0.3-0.2,0.5-0.2
			c0.3,0,0.6,0.1,0.9,0.3l-0.3,0.8c-0.2-0.1-0.4-0.2-0.6-0.2c-0.2,0-0.3,0.1-0.5,0.2c-0.1,0.1-0.2,0.3-0.3,0.5
			c-0.1,0.3-0.1,0.6-0.1,1v2.6C49.5,79.9,48.7,79.9,48.7,79.9z">
   </path>
   <path id="XMLID_70_" class="st0" d="M54.9,79.3c-0.3,0.3-0.6,0.4-0.9,0.6c-0.3,0.1-0.6,0.2-0.9,0.2c-0.5,0-1-0.1-1.3-0.4
			s-0.4-0.6-0.4-1c0-0.2,0.1-0.5,0.2-0.7c0.1-0.2,0.3-0.4,0.4-0.5c0.2-0.1,0.4-0.2,0.6-0.3c0.2,0,0.4-0.1,0.7-0.1
			c0.7-0.1,1.2-0.2,1.5-0.3c0-0.1,0-0.2,0-0.2c0-0.3-0.1-0.6-0.2-0.7c-0.2-0.2-0.5-0.3-1-0.3c-0.4,0-0.7,0.1-0.9,0.2
			c-0.2,0.1-0.3,0.4-0.4,0.7l-0.8-0.1c0.1-0.4,0.2-0.6,0.4-0.8c0.2-0.2,0.4-0.4,0.7-0.5c0.3-0.1,0.7-0.2,1.1-0.2c0.4,0,0.8,0,1,0.1
			c0.3,0.1,0.5,0.2,0.6,0.4c0.1,0.2,0.2,0.3,0.3,0.6c0,0.1,0,0.4,0,0.8v1.1c0,0.8,0,1.3,0.1,1.5c0,0.2,0.1,0.4,0.2,0.6H55
			C55,79.7,54.9,79.5,54.9,79.3z M54.8,77.4c-0.3,0.1-0.8,0.2-1.4,0.3c-0.3,0.1-0.6,0.1-0.7,0.2c-0.1,0.1-0.3,0.2-0.3,0.3
			c-0.1,0.1-0.1,0.3-0.1,0.4c0,0.2,0.1,0.4,0.3,0.6c0.2,0.1,0.4,0.2,0.7,0.2c0.3,0,0.6-0.1,0.9-0.2c0.3-0.1,0.4-0.3,0.6-0.6
			c0.1-0.2,0.1-0.5,0.1-0.8L54.8,77.4L54.8,77.4z">
   </path>
   <path id="XMLID_80_" class="st0" d="M56.7,79.9v-4.9h0.8v0.7c0.4-0.5,0.9-0.8,1.6-0.8c0.3,0,0.6,0.1,0.8,0.2
			c0.2,0.1,0.4,0.2,0.6,0.4c0.1,0.2,0.2,0.4,0.3,0.6c0,0.2,0,0.4,0,0.8v3h-0.8v-3c0-0.3,0-0.6-0.1-0.8c-0.1-0.2-0.2-0.3-0.3-0.4
			c-0.2-0.1-0.4-0.2-0.6-0.2c-0.4,0-0.7,0.1-0.9,0.3c-0.3,0.2-0.4,0.7-0.4,1.3v2.7L56.7,79.9L56.7,79.9z">
   </path>
   <path id="XMLID_82_" class="st0" d="M64.9,79.9v-0.6c-0.3,0.5-0.8,0.7-1.4,0.7c-0.4,0-0.8-0.1-1.1-0.3c-0.3-0.2-0.6-0.5-0.8-0.9
			c-0.2-0.4-0.3-0.8-0.3-1.3c0-0.5,0.1-0.9,0.2-1.3c0.2-0.4,0.4-0.7,0.7-0.9c0.3-0.2,0.7-0.3,1.1-0.3c0.3,0,0.6,0.1,0.8,0.2
			c0.2,0.1,0.4,0.3,0.6,0.5v-2.4h0.8v6.8L64.9,79.9L64.9,79.9z M62.2,77.4c0,0.6,0.1,1.1,0.4,1.4c0.3,0.3,0.6,0.5,0.9,0.5
			c0.4,0,0.7-0.1,0.9-0.4c0.3-0.3,0.4-0.8,0.4-1.4c0-0.7-0.1-1.2-0.4-1.5c-0.3-0.3-0.6-0.5-1-0.5c-0.4,0-0.7,0.2-0.9,0.5
			C62.3,76.3,62.2,76.8,62.2,77.4z">
   </path>
  </g>
 </g>
</svg>