<?xml version="1.0" encoding="utf-8"?>
<!-- Generator: Adobe Illustrator 13.0.1, SVG Export Plug-In  -->
<!DOCTYPE svg PUBLIC "-//W3C//DTD SVG 1.1//EN" "http://www.w3.org/Graphics/SVG/1.1/DTD/svg11.dtd" [
	<!ENTITY ns_flows "http://ns.adobe.com/Flows/1.0/">
]>
<svg version="1.1"
	 xmlns="http://www.w3.org/2000/svg" xmlns:xlink="http://www.w3.org/1999/xlink" xmlns:a="http://ns.adobe.com/AdobeSVGViewerExtensions/3.0/"
	 x="0px" y="0px" width="86px" height="19px" viewBox="-0.384 -0.655 86 19" enable-background="new -0.384 -0.655 86 19"
	 xml:space="preserve">
<defs>
</defs>
<g>
	<defs>
		<rect id="SVGID_1_" width="85.039" height="17.747"/>
	</defs>
	<clipPath id="SVGID_2_">
		<use xlink:href="#SVGID_1_"  overflow="visible"/>
	</clipPath>
	<path clip-path="url(#SVGID_2_)" fill="#004186" d="M21.256,10.633l1.099,0.009l3.386,7.105l3.529-0.657l-3.958-7.275
		c1.573-0.948,2.813-2.409,2.813-4.938c0-2.896-2.145-4.453-5.341-4.453H16.99v17.032h3.361V2.71h1.74
		c1.335,0,2.672,0.657,2.672,2.579c0,1.233-0.731,3.044-3.012,3.065h-0.496V10.633z"/>
	<path clip-path="url(#SVGID_2_)" fill="#004186" d="M14.252,9.594v7.074c-1.699,0.611-3.488,1.052-5.302,1.052
		C3.466,17.72,0,13.804,0,8.762C0,4.087,3.444,0,9.041,0c1.744,0,3.489,0.587,4.531,1.32l-1.02,2.032
		c-0.86-0.49-2.197-0.906-3.422-0.906c-3.398,0-5.732,2.473-5.732,6.364c0,4.063,2.674,6.462,5.416,6.462
		c0.86,0,1.563-0.098,2.243-0.416V9.594H14.252z"/>
	<rect x="31.075" y="0.461" clip-path="url(#SVGID_2_)" fill="#004186" width="3.316" height="16.797"/>
	<polygon clip-path="url(#SVGID_2_)" fill="#004186" points="46.622,2.624 41.21,2.624 41.21,8.096 45.127,8.096 45.127,10.28 
		41.21,10.28 41.21,17.258 37.895,17.258 37.895,0.461 46.622,0.461 	"/>
	<path clip-path="url(#SVGID_2_)" fill="#004186" d="M47.357,8.614C47.357,3.817,50.71,0,55.266,0c4.555,0,7.907,3.817,7.907,8.614
		c0,5.116-3.036,9.105-7.907,9.105C50.394,17.72,47.357,13.73,47.357,8.614 M59.774,8.614c0-3.156-1.337-6.382-4.509-6.382
		c-3.173,0-4.51,3.226-4.51,6.382c0,3.28,1.179,6.872,4.51,6.872C58.596,15.486,59.774,11.895,59.774,8.614"/>
	<polygon clip-path="url(#SVGID_2_)" fill="#004186" points="65.452,0.461 68.768,0.461 68.768,14.701 73.121,14.701 73.121,17.258 
		65.452,17.258 	"/>
	<path clip-path="url(#SVGID_2_)" fill="#004186" d="M83.419,3.389c-0.707-0.504-1.642-0.96-2.577-0.96
		c-1.346,0-2.075,0.792-2.075,1.776c0,1.103,1.117,1.942,2.987,3.503c2.145,1.8,3.285,3.216,3.285,5.278
		c0,2.112-1.916,4.56-5.52,4.56c-1.665,0-3.514-0.528-4.699-1.679l1.163-1.921c0.844,0.648,1.825,1.345,3.262,1.345
		c1.323,0,2.486-0.744,2.486-2.328c0-1.847-2.145-3.071-3.421-4.127c-1.552-1.32-2.853-2.353-2.853-4.583
		c0-2.256,2.167-4.08,5.064-4.08c1.825,0,3.285,0.696,4.038,1.464L83.419,3.389z"/>
</g>
</svg>
