	            <svg xmlns="http://www.w3.org/2000/svg" xmlns:xlink="http://www.w3.org/1999/xlink" width="270" height="45" viewBox="0 0 270 45">
                    <defs>
                        <path id="prefix__a" d="M0.238 0.015L214.264 0.015 214.264 30.86 0.238 30.86z"></path>
                        <path id="prefix__c" d="M0.132 0.437L25.464 0.437 25.464 44.228 0.132 44.228z"></path>
                        <path id="prefix__e" d="M0 0.437L25.332 0.437 25.332 44.229 0 44.229z"></path>
                    </defs>
                    <g fill="none" fill-rule="evenodd">
                        <g transform="translate(55.543 9.257)">
                            <mask id="prefix__b" fill="#fff">
                                <use href="#prefix__a"></use>
                            </mask>
                            <path fill="#423C99" d="M200.02 15.368c.346-3.5 2.703-6.1 5.822-6.1 3.57 0 5.441 2.842 5.718 6.1h-11.54zm14.244 1.109c0-5.233-3.05-9.461-8.352-9.461-4.957 0-8.596 4.158-8.596 9.322v.07c0 5.545 4.02 9.323 8.942 9.323 3.396 0 5.58-1.352 7.382-3.362l-1.664-1.49c-1.455 1.524-3.188 2.53-5.649 2.53-3.189 0-5.927-2.184-6.308-6.065h14.21c.035-.313.035-.52.035-.867zm-25.61-9.461c-3.084 0-4.956 1.559-6.134 3.5v-3.12h-2.669v17.919h2.67V15.057c0-3.363 2.286-5.615 5.37-5.615 3.155 0 4.957 2.079 4.957 5.406v10.467h2.668V14.19c0-4.263-2.53-7.174-6.862-7.174zm-14.66 10.64c0 3.36-2.32 5.613-5.37 5.613-3.154 0-4.956-2.079-4.956-5.405V7.397h-2.67v11.125c0 4.262 2.53 7.174 6.864 7.174 3.084 0 4.92-1.56 6.133-3.501v3.12h2.635V7.397h-2.635v10.258zM151.61 7.015c-3.12 0-5.026 1.594-6.309 3.57-.97-2.011-2.842-3.57-5.752-3.57-3.016 0-4.61 1.628-5.788 3.396V7.397h-2.669v17.918h2.669V15.09c0-3.292 2.149-5.65 4.99-5.65 2.842 0 4.61 1.976 4.61 5.338v10.536h2.668V14.987c0-3.536 2.218-5.545 4.922-5.545 2.911 0 4.644 1.94 4.644 5.406v10.467h2.669v-11.09c0-4.437-2.53-7.21-6.654-7.21zm-30.184 0c-3.12 0-5.026 1.594-6.308 3.57-.971-2.011-2.842-3.57-5.753-3.57-3.016 0-4.61 1.628-5.788 3.396V7.397h-2.67v17.918h2.67V15.09c0-3.292 2.148-5.65 4.99-5.65s4.61 1.976 4.61 5.338v10.536h2.668V14.987c0-3.536 2.218-5.545 4.921-5.545 2.912 0 4.645 1.94 4.645 5.406v10.467h2.669v-11.09c0-4.437-2.53-7.21-6.654-7.21zM96.802 3.954h.104c.814 0 1.473-.66 1.473-1.473 0-.813-.66-1.473-1.473-1.473h-.104c-.813 0-1.473.66-1.473 1.473 0 .814.66 1.473 1.473 1.473zm-1.3 21.36h2.668V7.398h-2.668v17.918zM86.943 1.99h-2.668v5.407H81.78v2.356h2.495v10.813c0 3.64 2.183 5.06 5.06 5.06 1.281 0 2.287-.276 3.223-.761v-2.288c-.936.451-1.699.623-2.6.623-1.802 0-3.015-.797-3.015-2.98V9.754h5.685V7.397h-5.685V1.99zm-8.708 14.418c0 4.332-2.841 6.897-6.307 6.897-3.327 0-6.48-2.773-6.48-6.932v-.07c0-4.089 3.153-6.896 6.48-6.896 3.396 0 6.307 2.703 6.307 6.931v.07zm-5.822-9.392c-3.292 0-5.406 1.837-6.862 3.985V7.397h-2.669V30.86h2.67v-8.976c1.385 2.01 3.534 3.812 6.861 3.812 4.333 0 8.56-3.466 8.56-9.323v-.07c0-5.89-4.263-9.287-8.56-9.287zM57.696 18.729c0 2.843-2.704 4.853-5.995 4.853-2.427 0-4.506-1.318-4.506-3.57v-.069c0-2.253 1.871-3.708 5.234-3.708 2.182 0 3.95.38 5.267.762v1.732zM52.6 7.154c-2.599 0-4.54.59-6.515 1.49l.797 2.184c1.664-.763 3.327-1.317 5.441-1.317 3.362 0 5.337 1.663 5.337 4.887v.624c-1.594-.45-3.223-.763-5.51-.763-4.54 0-7.66 2.01-7.66 5.788v.07c0 3.673 3.362 5.579 6.69 5.579 3.154 0 5.233-1.456 6.48-3.085v2.704h2.565V14.363c0-2.288-.624-4.02-1.837-5.234-1.317-1.316-3.257-1.975-5.788-1.975zm-12.763 9.22c0 4.124-3.154 6.931-6.481 6.931-3.362 0-6.308-2.703-6.308-6.932v-.07c0-4.332 2.842-6.896 6.308-6.896 3.327 0 6.481 2.773 6.481 6.897v.07zm-.104-5.546c-1.386-2.01-3.535-3.812-6.862-3.812-4.298 0-8.56 3.466-8.56 9.322v.07c0 5.891 4.262 9.288 8.56 9.288 3.292 0 5.407-1.837 6.862-3.986v3.605h2.67V.015h-2.67v10.813zm-32.737 5.58l5.545-12.339 5.51 12.339H6.998zM11.294.88L.238 25.315h2.808l2.876-6.412h13.205l2.841 6.412h2.946L13.858.88h-2.564z" mask="url(#prefix__b)"></path>
                        </g>
                        <g transform="translate(25.2)">
                            <mask id="prefix__d" fill="#fff">
                                <use href="#prefix__c"></use>
                            </mask>
                            <path fill="#C2000B" d="M19.89 38.557c1.058-1.24 1.998-2.583 2.801-4.016-5.288-1.025-9.388-5.401-9.993-10.823H8.083c.566 6.978 5.358 12.779 11.806 14.84m5.17-20.712c.14 0 .27.028.405.04-.282-1.57-.712-3.084-1.272-4.537-4.13.4-7.46 3.545-8.088 7.598h4.69c.585-1.798 2.275-3.101 4.265-3.101m-.867 13.47c.56-1.453.99-2.968 1.272-4.537-.135.012-.266.04-.405.04-1.99 0-3.68-1.303-4.265-3.101h-4.69c.629 4.053 3.958 7.2 8.088 7.599m-19.521-7.6H.132c.18 3.323 1.003 6.473 2.345 9.333.063.134.125.269.19.401.026.052.053.102.08.153 2.27 4.479 5.836 8.194 10.218 10.624 1.537-.851 2.964-1.869 4.28-3.012-6.998-2.908-12.042-9.593-12.574-17.498M17.246 3.449c-1.317-1.144-2.744-2.161-4.28-3.013C8.577 2.87 5.01 6.59 2.738 11.074l-.068.134c-.069.137-.132.277-.199.416-1.338 2.857-2.16 6.004-2.34 9.323h4.539c.532-7.905 5.576-14.59 12.575-17.498m5.445 6.675c-.803-1.433-1.743-2.775-2.802-4.017-6.448 2.06-11.24 7.861-11.806 14.84h4.615c.605-5.422 4.705-9.798 9.993-10.823" mask="url(#prefix__d)" class="accent"></path>
                        </g>
                        <g>
                            <mask id="prefix__f" fill="#fff">
                                <use href="#prefix__e"></use>
                            </mask>
                            <path fill="#423C99" d="M4.67 20.947h4.69c-.628-4.053-3.958-7.2-8.088-7.598-.56 1.453-.99 2.968-1.272 4.537.135-.012.266-.04.405-.04 1.99 0 3.68 1.303 4.265 3.101m16.124 0h4.538c-.18-3.319-1.002-6.466-2.34-9.323-.067-.139-.13-.279-.199-.416-.021-.045-.045-.089-.068-.133C20.454 6.59 16.885 2.87 12.499.437c-1.537.85-2.964 1.868-4.281 3.012 7 2.907 12.043 9.592 12.576 17.498m-8.027 0h4.614c-.565-6.979-5.358-12.78-11.806-14.84-1.059 1.242-1.999 2.584-2.802 4.017 5.288 1.025 9.388 5.401 9.994 10.823m4.614 2.77h-4.614c-.606 5.423-4.706 9.799-9.994 10.824.803 1.433 1.743 2.776 2.802 4.016 6.448-2.06 11.24-7.86 11.806-14.84M8.218 41.217c1.317 1.143 2.744 2.16 4.28 3.013 4.384-2.431 7.948-6.146 10.22-10.625.026-.051.053-.1.078-.152.067-.133.128-.268.192-.401 1.341-2.86 2.165-6.01 2.344-9.333h-4.538c-.533 7.905-5.577 14.59-12.576 17.498M9.36 23.718H4.67c-.585 1.798-2.274 3.101-4.265 3.101-.139 0-.27-.028-.405-.04.281 1.569.712 3.084 1.272 4.538 4.13-.4 7.46-3.546 8.089-7.6" mask="url(#prefix__f)"></path>
                        </g>
                    </g>
                </svg>