<?xml version="1.0" encoding="UTF-8" standalone="no"?>
<!DOCTYPE svg PUBLIC "-//W3C//DTD SVG 1.1//EN" "http://www.w3.org/Graphics/SVG/1.1/DTD/svg11.dtd">
<svg width="100%" height="100%" viewBox="0 0 166 62" version="1.1" xmlns="http://www.w3.org/2000/svg" xmlns:xlink="http://www.w3.org/1999/xlink" xml:space="preserve" xmlns:serif="http://www.serif.com/" style="fill-rule:evenodd;clip-rule:evenodd;stroke-linejoin:round;stroke-miterlimit:1.41421;">
    <g transform="matrix(1,0,0,1,-58,-26)">
        <path d="M157.138,36.305C157.138,38.345 155.294,40.13 153.317,40.13C151.276,40.13 149.49,38.345 149.49,36.305C149.49,34.325 151.276,32.486 153.317,32.486C155.294,32.486 157.138,34.325 157.138,36.305Z" style="fill:rgb(27,94,168);fill-rule:nonzero;"/>
        <rect x="149.789" y="41.95" width="6.823" height="28.039" style="fill:rgb(27,94,168);fill-rule:nonzero;"/>
        <path d="M217.61,55.968C217.61,64.961 210.915,70.637 202.304,70.637C193.775,70.637 187.076,64.961 187.076,55.968C187.076,46.985 193.775,41.318 202.304,41.318C210.915,41.318 217.61,46.985 217.61,55.968ZM194.406,55.968C194.406,61.774 197.531,66.108 202.304,66.108C206.711,66.108 210.15,61.774 210.15,55.968C210.15,50.172 206.711,45.835 202.304,45.835C197.147,45.835 194.406,50.107 194.406,55.968Z" style="fill:rgb(27,94,168);fill-rule:nonzero;"/>
        <path d="M184.182,81.187C186.149,79.433 187.531,77.206 187.839,74.647C188.538,68.462 184.082,64.891 177.96,64.891L169.929,64.891C168.086,64.891 165.15,64.637 165.15,62.15C165.15,59.863 168.276,59.347 169.992,59.347L172.794,59.347C178.468,59.347 183.89,56.292 183.89,50.302C183.89,48.23 182.874,46.682 182.219,45.917C183.956,45.684 185.703,45.31 187.46,44.758L187.929,40.342C184.261,41.494 180.629,41.954 177.026,41.918C176.008,41.662 174.546,41.316 171.587,41.316C164.512,41.316 161.01,46.09 161.01,50.302C161.01,53.868 162.987,55.714 164.448,56.606C162.023,57.43 159.477,60.305 159.477,63.684C159.477,67.447 161.709,69.096 162.987,69.797C161.199,70.69 157.881,73.054 157.881,77.326C157.881,78.144 158.024,78.883 158.279,79.55C125.233,75.857 91.833,67.862 59.84,76.98L59.84,78.991C110.971,64.416 165.694,97.769 216.824,83.194L216.824,76.98C206.079,80.045 195.177,81.173 184.182,81.187ZM172.355,45.389C175.92,45.389 177.452,48.007 177.452,50.362C177.452,53.035 175.79,55.205 172.355,55.205C169.1,55.205 167.256,53.035 167.256,50.362C167.256,48.007 169.1,45.389 172.355,45.389ZM167.951,70.637L177.067,70.637C179.871,70.637 182.166,72.036 181.657,75.286C181.281,78.218 177.006,80.897 172.601,80.897C168.653,80.897 163.741,79.745 163.618,76.555C163.548,73.754 166.489,71.527 167.951,70.637Z" style="fill:rgb(27,94,168);fill-rule:nonzero;"/>
        <path d="M100.495,65.976C94.567,65.976 91.633,62.405 91.633,56.669L110.82,56.669C110.82,45.905 104.828,41.318 97.945,41.318C90.361,41.318 84.363,47.683 84.363,56.225C84.363,65.208 89.852,70.634 98.454,70.634C99.224,70.634 99.938,70.61 100.608,70.577C103.264,70.51 105.941,69.986 108.629,68.906C108.791,67.368 108.954,65.83 109.114,64.289C107.607,64.903 106.104,65.35 104.604,65.65C103.521,65.842 102.183,65.976 100.495,65.976ZM97.752,45.905C101.133,45.905 103.234,48.252 103.552,52.466L91.761,52.466C92.2,48.83 94.056,45.905 97.752,45.905Z" style="fill:rgb(27,94,168);fill-rule:nonzero;"/>
        <path d="M60.149,69.989L60.149,27.48L72.515,27.48C82.463,27.48 87.243,33.154 87.243,39.074C87.243,45.96 81.244,51.509 72.252,51.509L67.347,51.509L67.347,69.989L60.149,69.989ZM71.045,32.386L67.347,32.386L67.347,47.41C67.836,47.114 68.572,46.721 69.392,46.639C70.211,46.558 71.045,46.536 71.045,46.536C75.895,46.536 79.65,43.858 79.65,39.206C79.65,34.934 76.21,32.386 71.045,32.386Z" style="fill:rgb(27,94,168);fill-rule:nonzero;"/>
        <path d="M129.894,41.726C129.186,41.474 128.347,41.292 127.363,41.292C123.666,41.292 120.841,43.939 119.801,45.785L119.462,41.926L113.088,41.926L113.088,69.965L119.91,69.965L119.91,50.784C121.248,48.022 124.118,45.456 127.832,47.369" style="fill:rgb(27,94,168);fill-rule:nonzero;"/>
        <path d="M148.068,41.726C147.361,41.474 146.524,41.292 145.538,41.292C141.842,41.292 139.016,43.939 137.976,45.785L137.639,41.926L131.264,41.926L131.264,69.965L138.084,69.965L138.084,50.784C139.423,48.022 142.294,45.456 146.007,47.369" style="fill:rgb(27,94,168);fill-rule:nonzero;"/>
        <path d="M220.553,43.118C221.997,43.118 223.148,44.227 223.148,45.638C223.148,47.074 221.997,48.18 220.539,48.18C219.091,48.18 217.916,47.074 217.916,45.638C217.916,44.227 219.091,43.118 220.539,43.118L220.553,43.118ZM220.539,43.435C219.33,43.435 218.356,44.424 218.356,45.638C218.356,46.877 219.33,47.866 220.559,47.866C221.77,47.878 222.732,46.877 222.732,45.65C222.732,44.424 221.77,43.435 220.553,43.435L220.539,43.435ZM220.02,47.112L219.639,47.112L219.639,44.29C219.903,44.256 220.116,44.222 220.41,44.222C220.824,44.222 221.106,44.311 221.283,44.436C221.457,44.558 221.553,44.75 221.553,45.01C221.553,45.391 221.283,45.617 220.976,45.708L220.976,45.73C221.236,45.773 221.41,45.998 221.482,46.414C221.556,46.853 221.625,47.023 221.685,47.112L221.283,47.112C221.214,47.023 221.13,46.764 221.06,46.394C220.979,46.01 220.788,45.864 220.375,45.864L220.02,45.864L220.02,47.112ZM220.02,45.59L220.386,45.59C220.788,45.59 221.154,45.444 221.154,45.062C221.154,44.794 220.965,44.51 220.363,44.51C220.208,44.51 220.103,44.522 220.02,44.534" style="fill:rgb(27,94,168);fill-rule:nonzero;"/>
    </g>
</svg>
