<?xml version="1.0" encoding="UTF-8" standalone="no"?>
<svg
   xmlns:dc="http://purl.org/dc/elements/1.1/"
   xmlns:cc="http://creativecommons.org/ns#"
   xmlns:rdf="http://www.w3.org/1999/02/22-rdf-syntax-ns#"
   xmlns:svg="http://www.w3.org/2000/svg"
   xmlns="http://www.w3.org/2000/svg"
   xmlns:sodipodi="http://sodipodi.sourceforge.net/DTD/sodipodi-0.dtd"
   xmlns:inkscape="http://www.inkscape.org/namespaces/inkscape"
   sodipodi:docname="Aurobindo Pharma logo.svg"
   inkscape:version="1.0 (4035a4fb49, 2020-05-01)"
   id="svg1119"
   version="1.1"
   viewBox="0 0 43 19"
   height="19mm"
   width="43mm">
  <defs
     id="defs1113" />
  <sodipodi:namedview
     inkscape:window-maximized="0"
     inkscape:window-y="0"
     inkscape:window-x="30"
     inkscape:window-height="1030"
     inkscape:window-width="1375"
     showgrid="false"
     inkscape:document-rotation="0"
     inkscape:current-layer="layer1"
     inkscape:document-units="mm"
     inkscape:cy="55.654195"
     inkscape:cx="67.436697"
     inkscape:zoom="5.6"
     inkscape:pageshadow="2"
     inkscape:pageopacity="0.0"
     borderopacity="1.0"
     bordercolor="#666666"
     pagecolor="#ffffff"
     id="base" />
  <metadata
     id="metadata1116">
    <rdf:RDF>
      <cc:Work
         rdf:about="">
        <dc:format>image/svg+xml</dc:format>
        <dc:type
           rdf:resource="http://purl.org/dc/dcmitype/StillImage" />
        <dc:title></dc:title>
      </cc:Work>
    </rdf:RDF>
  </metadata>
  <g
     id="layer1"
     inkscape:groupmode="layer"
     inkscape:label="Layer 1">
    <path
       id="path122"
       style="fill:#2c6cbc;fill-opacity:1;fill-rule:evenodd;stroke:none;stroke-width:0.352777"
       d="m 2.369361,16.055125 0.01623,3.5e-4 h 0.01729 l 0.01799,3.4e-4 h 0.01834 l 0.0194,3.4e-4 h 0.02046 l 0.02081,3.5e-4 h 0.02223 0.02223 0.02328 l 0.02469,3.4e-4 h 0.574675 l 0.02434,-3.4e-4 h 0.02328 0.02328 0.02152 l 0.02187,-3.5e-4 h 0.02046 l 0.01976,-3.4e-4 h 0.0194 l 0.0187,-3.3e-4 h 0.01729 l 0.01693,-3.5e-4 0.01658,-3.4e-4 h 0.01552 l 0.01482,-3.5e-4 0.01411,-3.4e-4 0.01341,-3.4e-4 0.02611,-10e-4 0.02611,-0.001 0.02505,-0.001 0.02469,-10e-4 0.01764,-0.001 -0.695677,-1.44851 -0.69462,1.44886 0.0085,7.1e-4 0.02293,0.001 0.02258,0.001 0.02328,10e-4 0.02434,0.001 0.01235,3.5e-4 0.01341,3.4e-4 0.01376,3.4e-4 h 0.01517 z m -1.543403,1.83057 0.03246,-0.0388 0.03281,-0.0413 0.03316,-0.043 0.03387,-0.0452 0.03422,-0.0466 0.01729,-0.024 0.01658,-0.0247 0.01729,-0.0247 0.01729,-0.0254 0.01729,-0.0254 0.01729,-0.0265 0.01729,-0.0261 0.01729,-0.0268 0.01729,-0.0272 0.01729,-0.0275 0.01764,-0.0279 0.01729,-0.0282 0.01729,-0.0286 0.01729,-0.0293 0.01764,-0.0289 0.01729,-0.0296 0.01764,-0.0303 0.01729,-0.0303 0.01764,-0.0307 0.01764,-0.0314 0.01764,-0.0318 0.01729,-0.0314 0.01764,-0.0325 0.01764,-0.0328 0.01764,-0.0328 0.01764,-0.0335 0.01764,-0.0339 0.01764,-0.0339 0.01764,-0.0349 0.01764,-0.0346 0.01764,-0.0353 0.01799,-0.0356 1.4700251,-2.98345 h 0.109713 l 1.5621,3.00814 0.02681,0.0522 0.02681,0.0508 0.02611,0.0501 0.0254,0.0487 0.02505,0.0476 0.02434,0.0466 0.02469,0.0452 0.02328,0.0444 0.02363,0.043 0.02258,0.042 0.02223,0.0409 0.02187,0.0395 0.02152,0.0388 0.02046,0.0378 0.02081,0.0363 0.0194,0.0349 0.01976,0.0342 0.01905,0.0332 0.0187,0.0317 0.01764,0.0307 0.01799,0.0296 0.01693,0.0282 0.01693,0.0272 0.01587,0.0265 0.01588,0.0247 0.01517,0.024 0.01482,0.0226 0.01411,0.0219 0.01376,0.0201 0.01341,0.0194 0.0127,0.018 0.01199,0.0169 0.02434,0.0321 0.02434,0.0303 0.02364,0.0293 0.02434,0.0279 0.02328,0.0265 0.02363,0.0243 0.02363,0.0236 0.02293,0.0219 0.02293,0.0205 0.02258,0.0187 0.02258,0.0176 0.02223,0.0159 0.02222,0.0145 0.02152,0.0134 0.02152,0.0116 0.05433,0.0265 -0.01129,0.12524 -0.07161,-0.004 -0.02117,-10e-4 -0.02081,-0.001 -0.02046,-0.001 -0.02328,-10e-4 -0.03704,-0.002 -0.02011,-10e-4 -0.01905,-0.001 -0.0194,-0.001 -0.0194,-7.2e-4 -0.01905,-7.1e-4 -0.01834,-7.2e-4 -0.0187,-0.001 -0.01834,-3.4e-4 -0.01834,-7.1e-4 -0.01799,-7.2e-4 -0.01799,-7.1e-4 -0.01764,-3.5e-4 -0.01729,-3.4e-4 -0.01729,-7.2e-4 -0.01658,-3.4e-4 -0.01693,-3.4e-4 -0.01658,-3.5e-4 h -0.01622 l -0.01623,-3.4e-4 h -0.01623 -0.01587 l -0.01552,-3.5e-4 h -0.01552 -0.01517 -0.03563 -0.02152 -0.02187 l -0.02258,3.5e-4 h -0.02293 -0.02364 l -0.02469,3.4e-4 h -0.0247 l -0.0254,3.5e-4 -0.02646,3.4e-4 -0.02646,7.1e-4 -0.02716,3.5e-4 -0.02787,3.4e-4 -0.02858,3.5e-4 -0.02893,7.1e-4 -0.02963,7.2e-4 -0.03034,7.1e-4 -0.03105,7.1e-4 -0.0314,7.2e-4 -0.0321,7.1e-4 -0.03245,7.2e-4 -0.03316,10e-4 -0.03351,7.1e-4 -0.03422,0.001 -0.03457,10e-4 -0.03563,0.001 -0.03563,0.001 -0.03634,7.2e-4 -0.03669,0.001 -0.03739,0.001 -0.130175,0.004 v -0.12947 l 0.05362,-0.0194 0.0187,-0.007 0.01764,-0.007 0.01693,-0.007 0.01588,-0.007 0.01517,-0.008 0.01447,-0.007 0.01341,-0.008 0.01305,-0.007 0.01164,-0.008 0.01093,-0.008 0.01094,-0.007 0.0095,-0.008 0.0085,-0.008 0.0081,-0.007 0.0063,-0.007 0.01305,-0.0159 0.01129,-0.0166 0.0092,-0.0183 0.0078,-0.0198 0.006,-0.0219 0.0046,-0.0236 0.0028,-0.0254 7.14e-4,-0.0275 v -0.0116 l -7.14e-4,-0.0134 -0.0014,-0.0141 -0.0018,-0.0148 -0.0025,-0.0159 -0.0032,-0.0166 -0.0035,-0.018 -0.0042,-0.0183 -0.0046,-0.0198 -0.0056,-0.0198 -0.0056,-0.0212 -0.0071,-0.0219 -0.0067,-0.0229 -0.0081,-0.0233 -0.0085,-0.0243 -0.0092,-0.0254 -0.0049,-0.0127 -0.0053,-0.0138 -0.0053,-0.0141 -0.006,-0.0148 -0.0064,-0.0152 -0.006,-0.0162 -0.0071,-0.0166 -0.0071,-0.0169 -0.0078,-0.018 -0.0078,-0.0187 -0.0081,-0.0187 -0.0085,-0.0198 -0.0088,-0.0205 -0.0092,-0.0208 -0.0095,-0.0212 -0.0095,-0.0222 -0.01058,-0.0226 -0.01023,-0.0233 -0.01058,-0.0236 -0.01129,-0.0243 -0.01129,-0.025 -0.01164,-0.0258 -0.01199,-0.0261 -0.01235,-0.0268 -0.01305,-0.0275 -0.02611,-0.0561 -0.01376,-0.0296 -0.01376,-0.0296 -0.01447,-0.0307 -0.01447,-0.0307 -0.01482,-0.0318 -0.261408,-0.55422 -0.01411,-7.1e-4 -0.02258,-0.001 -0.02223,-10e-4 -0.02258,-0.001 -0.02258,-0.001 -0.02293,-7.2e-4 -0.02328,-0.001 -0.02364,-7.1e-4 -0.02505,-7.1e-4 -0.02611,-7.2e-4 -0.02716,-3.4e-4 -0.02858,-3.5e-4 h -0.03035 l -0.03104,7e-5 h -0.03281 -0.940153 -0.0194 l -0.01905,3.4e-4 h -0.01834 -0.01764 -0.01693 l -0.01623,3.5e-4 h -0.01587 l -0.01552,3.4e-4 h -0.01446 l -0.01376,3.5e-4 -0.01341,3.4e-4 -0.01235,3.4e-4 -0.0127,3.5e-4 -0.01305,3.4e-4 -0.03069,0.001 -0.02046,7.2e-4 -0.02046,0.001 -0.02011,0.001 -0.01976,10e-4 -0.0194,0.002 -0.0074,3.4e-4 -0.2229561,0.4893 -0.01976,0.043 -0.0194,0.0423 -0.01799,0.0413 -0.01799,0.0402 -0.01693,0.0395 -0.01658,0.0384 -0.01552,0.0374 -0.01552,0.0367 -0.01411,0.036 -0.01376,0.0346 -0.01341,0.0339 -0.01235,0.0328 -0.01164,0.0321 -0.01129,0.031 -0.01094,0.0303 -0.0099,0.0293 -0.0092,0.0282 -0.0092,0.0275 -0.0078,0.0265 -0.0078,0.0257 -0.0063,0.0247 -0.0067,0.024 -0.0053,0.0229 -0.0049,0.0222 -0.0046,0.0215 -0.0039,0.0201 -0.0028,0.0201 -0.0025,0.0183 -0.0021,0.018 -0.0014,0.0166 -0.0011,0.0162 v 0.0148 l 3.52e-4,0.0212 0.0011,0.0208 0.0018,0.0201 0.0025,0.0198 0.0032,0.0187 0.0032,0.0183 0.0049,0.0176 0.0049,0.0169 0.0053,0.0166 0.0067,0.0159 0.0067,0.0155 0.0074,0.0148 0.0081,0.0141 0.0092,0.0141 0.0092,0.0134 0.0095,0.0123 0.01094,0.0123 0.01199,0.012 0.0127,0.012 0.01341,0.012 0.01482,0.0116 0.01552,0.0113 0.01658,0.0113 0.01764,0.0109 0.01799,0.0106 0.01976,0.0106 0.02081,0.0102 0.02117,0.01 0.02258,0.01 0.02328,0.009 0.02434,0.01 0.06103,0.0208 v 0.13335 l -0.0702,-0.006 -0.01341,-0.001 -0.01341,-10e-4 -0.01411,-0.001 -0.01376,-0.001 -0.01446,-10e-4 -0.01411,-0.001 -0.01482,-0.001 -0.01446,-10e-4 -0.01482,-0.001 -0.01517,-7.1e-4 -0.01482,-7.2e-4 -0.01552,-7.1e-4 -0.01517,-10e-4 -0.01552,-3.4e-4 -0.01588,-7.2e-4 -0.01623,-7.1e-4 -0.01729,-7.2e-4 -0.01799,-3.4e-4 -0.0194,-3.4e-4 -0.02046,-3.5e-4 -0.02117,-7.1e-4 -0.02258,-3.5e-4 -0.02328,-3.4e-4 h -0.02469 l -0.0254,-3.4e-4 h -0.02646 -0.02752 l -0.02857,-3.5e-4 h -0.02962 -0.03069 -0.06174 -0.02928 -0.02893 l -0.02787,3.5e-4 h -0.02752 -0.02681 l -0.02611,3.4e-4 h -0.02575 l -0.02469,3.4e-4 -0.02399,3.5e-4 -0.02364,7.1e-4 -0.04198,7.2e-4 -0.02469,3.4e-4 -0.02081,7.1e-4 -0.02081,7.2e-4 -0.01976,7.1e-4 -0.02046,7.2e-4 -0.02046,7.1e-4 -0.03916,0.001 -0.02011,7.2e-4 -0.02117,10e-4 -0.0381,0.002 -0.02011,10e-4 -0.01976,0.001 -0.0194,0.001 -0.02011,10e-4 -0.0194,0.001 -0.0194,0.001 -0.07514,0.005 v -0.12276 l 0.05115,-0.0339 0.02787,-0.0198 0.02822,-0.0219 0.02893,-0.0236 0.02928,-0.0254 0.02963,-0.0275 0.02999,-0.0293 0.03034,-0.0318 0.03104,-0.0332 0.03175,-0.0353 z m 4.873625,-4.04213 0.04586,0.002 0.04374,0.002 0.04233,0.002 0.04057,10e-4 0.0381,0.002 0.03669,10e-4 0.03457,10e-4 0.03316,0.001 0.03104,7.1e-4 0.02928,3.5e-4 h 0.02716 l 0.0254,3.4e-4 h 0.02152 l 0.02293,-3.4e-4 0.02505,-3.5e-4 0.02646,-3.4e-4 0.02822,-7.2e-4 0.02999,-7.1e-4 0.03175,-10e-4 0.03316,-10e-4 0.03528,-0.001 0.03669,-10e-4 0.03845,-10e-4 0.04022,-0.002 0.04163,-0.002 0.04339,-0.002 0.04516,-0.002 0.04586,-0.002 0.01834,-0.002 0.01799,-10e-4 0.01693,-0.001 0.01552,-10e-4 0.01447,-7.1e-4 0.01305,-7.2e-4 0.01199,-3.4e-4 0.06244,-7.2e-4 v 0.14711 l -0.06491,0.0145 -0.02187,0.006 -0.02152,0.006 -0.02081,0.007 -0.01905,0.007 -0.0187,0.008 -0.01764,0.008 -0.01658,0.009 -0.01588,0.009 -0.01447,0.01 -0.01411,0.0106 -0.01305,0.0109 -0.01199,0.0116 -0.01129,0.012 -0.01094,0.0123 -0.0099,0.0134 -0.0092,0.0138 -0.0088,0.0148 -0.0081,0.0155 -0.0081,0.0162 -0.0071,0.018 -0.0067,0.0183 -0.006,0.0198 -0.0053,0.0205 -0.0049,0.0219 -0.0042,0.0226 -0.0039,0.0236 -0.0028,0.0243 -0.0025,0.0258 -0.0014,0.0268 -0.0011,0.0275 -3.44e-4,0.0289 v 1.4725 0.0342 0.0332 l 3.44e-4,0.0332 3.44e-4,0.0324 v 0.0325 l 3.44e-4,0.0318 3.44e-4,0.0314 7.14e-4,0.0314 v 0.0303 l 7.15e-4,0.0303 3.44e-4,0.03 7.14e-4,0.0296 7.14e-4,0.0289 0.0011,0.0289 7.15e-4,0.0282 0.0011,0.0279 7.14e-4,0.0275 0.0011,0.0272 0.0011,0.0268 0.0014,0.0265 0.0011,0.0258 0.0011,0.0258 0.0014,0.025 0.0014,0.0247 0.0011,0.0247 0.0014,0.024 0.0018,0.0236 0.0014,0.0233 0.0014,0.0226 0.0018,0.0226 0.0018,0.0222 0.0018,0.0215 0.0035,0.042 0.0042,0.0406 0.0046,0.0395 0.0046,0.0381 0.0046,0.0367 0.0049,0.0356 0.0053,0.0339 0.0053,0.0328 0.0056,0.0314 0.006,0.03 0.0063,0.0289 0.0063,0.0272 0.0063,0.0258 0.0071,0.025 0.0067,0.0229 0.0074,0.0219 0.01658,0.0459 0.01764,0.0441 0.01976,0.043 0.02152,0.0413 0.02258,0.0402 0.02469,0.0385 0.02611,0.0374 0.02857,0.0363 0.02963,0.0349 0.03104,0.0332 0.03316,0.0325 0.03528,0.0307 0.03634,0.03 0.03881,0.0282 0.04022,0.0272 0.04233,0.0261 0.02117,0.0123 0.02187,0.012 0.02258,0.0116 0.02222,0.0116 0.02328,0.0106 0.02293,0.0106 0.02363,0.0102 0.02399,0.01 0.02434,0.009 0.02469,0.009 0.02505,0.008 0.0254,0.008 0.0254,0.008 0.02611,0.007 0.02681,0.007 0.02646,0.007 0.02716,0.006 0.02716,0.006 0.02787,0.006 0.02822,0.005 0.02858,0.005 0.02858,0.004 0.02928,0.004 0.02963,0.004 0.02963,0.003 0.03034,0.003 0.03069,0.002 0.03069,0.002 0.0314,0.001 0.03175,0.001 0.03175,7.1e-4 h 0.0321 l 0.04904,-3.4e-4 0.04798,-0.001 0.04762,-0.002 0.04621,-0.003 0.04551,-0.004 0.0448,-0.005 0.04374,-0.005 0.04304,-0.006 0.04269,-0.007 0.04127,-0.007 0.04057,-0.008 0.03951,-0.009 0.03916,-0.01 0.03775,-0.0102 0.03775,-0.0113 0.03598,-0.0116 0.03598,-0.0127 0.03457,-0.0134 0.03422,-0.0141 0.03316,-0.0148 0.0321,-0.0155 0.0314,-0.0162 0.03105,-0.0173 0.02999,-0.0176 0.02928,-0.0187 0.02822,-0.019 0.02752,-0.0205 0.02716,-0.0205 0.02575,-0.0215 0.0254,-0.0222 0.02434,-0.0229 0.02399,-0.024 0.02258,-0.0243 0.02258,-0.0258 0.02152,-0.0261 0.02117,-0.0268 0.01976,-0.0282 0.01976,-0.0286 0.0187,-0.0293 0.01799,-0.0303 0.01729,-0.031 0.01658,-0.0321 0.01588,-0.0328 0.01517,-0.0335 0.01447,-0.0342 0.01376,-0.0356 0.0127,-0.036 0.0127,-0.037 0.01129,-0.0374 0.01094,-0.0388 0.0099,-0.0395 0.0095,-0.0406 0.0085,-0.0413 0.0081,-0.042 0.0067,-0.0427 0.0063,-0.0437 0.0056,-0.0448 0.0049,-0.0455 0.0042,-0.0466 0.0032,-0.0469 0.0028,-0.048 0.0018,-0.049 0.0011,-0.0497 3.44e-4,-0.0508 v -0.68298 -0.0699 l -3.44e-4,-0.0681 -3.44e-4,-0.0663 -0.0011,-0.0646 -0.0011,-0.0635 -0.0014,-0.0617 -0.0014,-0.06 -0.0014,-0.0582 -0.0021,-0.0571 -0.0025,-0.055 -0.0025,-0.0536 -0.0025,-0.0522 -0.0032,-0.0504 -0.0028,-0.049 -0.0035,-0.0473 -0.0039,-0.0455 -0.0039,-0.0441 -0.0035,-0.0423 -0.0046,-0.0409 -0.0046,-0.0392 -0.0046,-0.0378 -0.0053,-0.0356 -0.0053,-0.0346 -0.0049,-0.0325 -0.006,-0.031 -0.006,-0.0293 -0.0056,-0.0279 -0.0063,-0.0258 -0.0063,-0.0243 -0.0064,-0.0226 -0.0067,-0.0205 -0.0071,-0.0191 -0.01517,-0.0374 -0.01658,-0.0353 -0.01799,-0.0342 -0.01905,-0.0332 -0.02081,-0.0318 -0.02223,-0.03 -0.02363,-0.0289 -0.02505,-0.0275 -0.02646,-0.0265 -0.02787,-0.025 -0.02963,-0.0236 -0.03104,-0.0226 -0.03246,-0.0215 -0.03422,-0.0201 -0.03528,-0.019 -0.06809,-0.0321 v -0.14147 l 0.07867,0.006 0.02293,10e-4 0.0448,0.003 0.04233,0.003 0.02117,10e-4 0.02258,0.001 0.04022,0.002 0.02046,0.001 0.02011,10e-4 0.02046,7.2e-4 0.0194,0.001 0.02011,7.1e-4 0.0194,7.2e-4 0.01905,10e-4 0.01905,7.1e-4 0.01905,7.2e-4 0.01834,7.1e-4 0.01799,7.2e-4 0.01799,3.4e-4 0.01764,3.4e-4 0.01764,7.2e-4 0.01693,3.4e-4 0.01693,3.5e-4 0.01658,3.4e-4 h 0.01658 0.01623 l 0.01587,3.4e-4 h 0.01552 0.01552 0.02469 0.02399 l 0.02434,-3.4e-4 h 0.02363 0.02399 l 0.02328,-3.4e-4 0.02328,-3.5e-4 0.02328,-3.4e-4 0.02258,-7.2e-4 0.02293,-3.4e-4 0.022231,-3.4e-4 0.02222,-7.2e-4 0.02223,-7.1e-4 0.02187,-7.2e-4 0.04022,-0.001 0.02434,-10e-4 0.02187,-7.1e-4 0.04233,-0.002 0.04233,-0.002 0.02081,-0.001 0.02046,-10e-4 0.02081,-10e-4 0.02046,-0.001 0.02046,-10e-4 0.02046,-10e-4 0.02011,-0.001 0.02011,-10e-4 0.02011,-10e-4 0.07585,-0.006 v 0.14252 l -0.07055,0.0318 -0.03704,0.019 -0.03598,0.0205 -0.03387,0.0222 -0.0321,0.024 -0.03104,0.0254 -0.02928,0.0272 -0.02787,0.0289 -0.02646,0.0307 -0.02505,0.0321 -0.02328,0.0342 -0.02187,0.0356 -0.02011,0.0378 -0.01905,0.0395 -0.01764,0.0413 -0.01623,0.0434 -0.0071,0.0222 -0.0074,0.024 -0.0067,0.025 -0.0071,0.0272 -0.0064,0.0279 -0.0067,0.0293 -0.0063,0.0307 -0.0056,0.0321 -0.006,0.0335 -0.0053,0.0349 -0.0053,0.036 -0.0049,0.0374 -0.0046,0.0388 -0.0046,0.0399 -0.0046,0.0416 -0.0039,0.0423 -0.0039,0.0441 -0.0035,0.0455 -0.0035,0.0466 -0.0032,0.048 -0.0025,0.049 -0.0028,0.0508 -0.0021,0.0515 -0.0021,0.0533 -0.0021,0.0547 -0.0014,0.0557 -0.0018,0.0571 -7.14e-4,0.0582 -7.15e-4,0.06 -7.14e-4,0.061 -3.44e-4,0.0621 v 0.0639 0.6477 l -7.14e-4,0.0589 -0.0014,0.0586 -0.0021,0.0579 -0.0032,0.0564 -0.0042,0.0557 -0.0046,0.055 -0.006,0.054 -0.0067,0.0526 -0.0078,0.0522 -0.0085,0.0511 -0.0099,0.0504 -0.01023,0.0494 -0.01129,0.0483 -0.01199,0.0476 -0.01305,0.0466 -0.01411,0.0459 -0.01517,0.0448 -0.01588,0.0441 -0.01693,0.0427 -0.01799,0.042 -0.0187,0.0413 -0.0194,0.0402 -0.02082,0.0392 -0.02187,0.0388 -0.02222,0.037 -0.02328,0.0367 -0.02469,0.0356 -0.02505,0.0346 -0.02646,0.0335 -0.02681,0.0328 -0.02822,0.0318 -0.02893,0.0307 -0.02999,0.0296 -0.03069,0.0289 -0.03175,0.0279 -0.03316,0.0272 -0.03387,0.0261 -0.03422,0.0247 -0.03563,0.0243 -0.03634,0.0233 -0.03775,0.0219 -0.0381,0.0212 -0.03951,0.0201 -0.04022,0.0198 -0.04092,0.018 -0.04198,0.0176 -0.04269,0.0162 -0.0441,0.0155 -0.04445,0.0145 -0.04586,0.0138 -0.04657,0.0123 -0.04727,0.0116 -0.04798,0.0109 -0.04939,0.01 -0.05009,0.009 -0.0508,0.008 -0.05221,0.007 -0.05256,0.006 -0.05362,0.005 -0.05468,0.004 -0.05539,0.003 -0.05609,0.002 -0.05715,10e-4 -0.05785,7.1e-4 h -0.03387 l -0.03316,-7.1e-4 -0.03316,-7.1e-4 -0.03246,-7.2e-4 -0.03281,-7.1e-4 -0.0321,-0.001 -0.0321,-0.001 -0.0321,-0.002 -0.03104,-0.002 -0.0314,-0.002 -0.03104,-0.002 -0.03069,-0.003 -0.03069,-0.003 -0.02999,-0.003 -0.02999,-0.003 -0.02999,-0.004 -0.02963,-0.004 -0.02928,-0.004 -0.02893,-0.004 -0.02858,-0.005 -0.02858,-0.005 -0.02822,-0.005 -0.02787,-0.005 -0.02787,-0.005 -0.02716,-0.006 -0.02752,-0.006 -0.02716,-0.006 -0.02646,-0.007 -0.02646,-0.006 -0.02611,-0.007 -0.02646,-0.007 -0.02575,-0.007 -0.05009,-0.0152 -0.04939,-0.0162 -0.04833,-0.0169 -0.04727,-0.018 -0.04551,-0.0183 -0.04445,-0.0198 -0.04374,-0.0205 -0.04233,-0.0215 -0.04127,-0.0222 -0.03986,-0.0233 -0.03845,-0.024 -0.03775,-0.025 -0.03634,-0.0258 -0.03528,-0.0268 -0.03387,-0.0279 -0.03281,-0.0286 -0.02928,-0.0279 -0.02858,-0.0289 -0.02716,-0.0293 -0.02575,-0.0307 -0.02505,-0.0314 -0.02434,-0.0321 -0.02258,-0.0328 -0.02187,-0.0342 -0.02081,-0.0346 -0.01976,-0.0356 -0.01834,-0.0363 -0.01729,-0.0374 -0.01623,-0.0381 -0.01517,-0.0388 -0.01411,-0.0395 -0.01305,-0.0402 -0.0063,-0.0212 -0.006,-0.0215 -0.0056,-0.0222 -0.0056,-0.0229 -0.0053,-0.0236 -0.0053,-0.024 -0.0053,-0.0251 -0.0042,-0.0258 -0.0049,-0.0265 -0.0046,-0.0268 -0.0039,-0.0275 -0.0039,-0.0282 -0.0039,-0.0289 -0.0035,-0.0296 -0.0035,-0.0303 -0.0032,-0.031 -0.0028,-0.0318 -0.0028,-0.0325 -0.0028,-0.0332 -0.0025,-0.0335 -0.0018,-0.0346 -0.0021,-0.0353 -0.0018,-0.0356 -0.0018,-0.0363 -0.0014,-0.0374 -0.0014,-0.0381 -0.0011,-0.0385 -0.0011,-0.0392 -7.15e-4,-0.0399 -3.44e-4,-0.0406 -3.44e-4,-0.0416 v -0.0416 -0.0183 -0.0205 l 3.44e-4,-0.0222 v -0.024 l 3.44e-4,-0.0265 3.44e-4,-0.0279 3.44e-4,-0.0303 3.44e-4,-0.0317 3.44e-4,-0.0342 7.15e-4,-0.036 3.44e-4,-0.0381 7.14e-4,-0.0399 7.14e-4,-0.0423 7.15e-4,-0.0437 7.14e-4,-0.0455 7.14e-4,-0.048 0.0011,-0.0483 7.15e-4,-0.0469 7.14e-4,-0.0462 7.14e-4,-0.0452 7.15e-4,-0.0441 7.14e-4,-0.0427 3.44e-4,-0.042 3.44e-4,-0.0406 3.44e-4,-0.0402 3.44e-4,-0.0385 3.44e-4,-0.0377 3.44e-4,-0.0367 v -0.0353 -0.0346 -0.0335 -0.78776 -0.0272 l -0.0011,-0.0261 -0.0014,-0.025 -0.0025,-0.0243 -0.0032,-0.0233 -0.0035,-0.0226 -0.0039,-0.0215 -0.0053,-0.0208 -0.0056,-0.0198 -0.0056,-0.0187 -0.0067,-0.0183 -0.0071,-0.0169 -0.0081,-0.0162 -0.0081,-0.0155 -0.0088,-0.0145 -0.0095,-0.0141 -0.0099,-0.0138 -0.01094,-0.0131 -0.01164,-0.0123 -0.01235,-0.012 -0.01305,-0.0116 -0.01411,-0.0113 -0.01482,-0.0106 -0.01588,-0.0102 -0.01693,-0.01 -0.01799,-0.01 -0.0187,-0.009 -0.0194,-0.008 -0.02081,-0.008 -0.02152,-0.008 -0.02258,-0.007 -0.06174,-0.0176 v -0.14428 h 0.09243 l 0.05503,0.003 0.0508,0.003 0.04974,0.003 z m 6.075538,1.96532 0.02928,10e-4 0.02787,0.001 0.02505,10e-4 0.02082,3.5e-4 0.01834,7.1e-4 0.01446,3.5e-4 0.01093,3.4e-4 h 0.01164 0.08431 l 0.08184,-7.1e-4 0.08043,-10e-4 0.07832,-0.001 0.07655,-0.002 0.07479,-0.002 0.07267,-0.003 0.07091,-0.003 0.06914,-0.004 0.06738,-0.004 0.06526,-0.004 0.06385,-0.005 0.06174,-0.005 0.05962,-0.005 0.05821,-0.006 0.05574,-0.006 0.05433,-0.006 0.05256,-0.007 0.05009,-0.007 0.04868,-0.007 0.04692,-0.008 0.0448,-0.008 0.04304,-0.009 0.04092,-0.009 0.0388,-0.01 0.0374,-0.01 0.03563,-0.0102 0.03281,-0.0106 0.03175,-0.0106 0.02928,-0.0113 0.02752,-0.0116 0.02575,-0.0116 0.02434,-0.0123 0.02364,-0.0127 0.02293,-0.0134 0.02187,-0.0141 0.02152,-0.0145 0.02011,-0.0152 0.0194,-0.0152 0.01905,-0.0159 0.01799,-0.0166 0.01693,-0.0169 0.01623,-0.0173 0.01552,-0.0183 0.01482,-0.0183 0.01411,-0.019 0.01305,-0.0194 0.01305,-0.0201 0.01164,-0.0208 0.01094,-0.0212 0.01023,-0.0219 0.0095,-0.0226 0.0088,-0.0229 0.0078,-0.0233 0.0074,-0.0243 0.0067,-0.0247 0.0056,-0.0254 0.0053,-0.0261 0.0042,-0.0265 0.0032,-0.0272 0.0028,-0.0282 0.0021,-0.0282 0.0011,-0.0293 3.44e-4,-0.0296 -3.44e-4,-0.0268 -0.0011,-0.0261 -0.0021,-0.0258 -0.0028,-0.0251 -0.0032,-0.0247 -0.0042,-0.0243 -0.0049,-0.0236 -0.0056,-0.0229 -0.0063,-0.0226 -0.0074,-0.0226 -0.0078,-0.0215 -0.0085,-0.0215 -0.0095,-0.0208 -0.0099,-0.0201 -0.01093,-0.0201 -0.01199,-0.0194 -0.01235,-0.0194 -0.01305,-0.0183 -0.01376,-0.0183 -0.01482,-0.018 -0.01552,-0.0173 -0.01623,-0.0173 -0.01693,-0.0166 -0.01764,-0.0162 -0.0187,-0.0159 -0.01976,-0.0159 -0.01976,-0.0152 -0.02152,-0.0145 -0.02152,-0.0145 -0.02293,-0.0138 -0.02364,-0.0138 -0.02469,-0.0131 -0.02505,-0.0127 -0.02646,-0.0127 -0.02681,-0.012 -0.02822,-0.0116 -0.02893,-0.0113 -0.02999,-0.0109 -0.03104,-0.0102 -0.0321,-0.0102 -0.03281,-0.01 -0.03387,-0.009 -0.03457,-0.009 -0.03598,-0.008 -0.03634,-0.008 -0.03775,-0.008 -0.03845,-0.007 -0.03916,-0.007 -0.04092,-0.007 -0.04128,-0.006 -0.04198,-0.006 -0.04304,-0.005 -0.0441,-0.005 -0.04516,-0.005 -0.04586,-0.004 -0.04727,-0.004 -0.04727,-0.003 -0.04904,-0.003 -0.04974,-0.002 -0.05045,-0.002 -0.05186,-10e-4 -0.05221,-10e-4 -0.05362,-7.2e-4 h -0.05433 -0.02469 -0.02505 -0.02469 l -0.04974,3.5e-4 h -0.0254 -0.02505 l -0.02469,3.4e-4 -0.0254,3.4e-4 h -0.02505 l -0.02505,3.5e-4 -0.05045,7.1e-4 -0.0254,3.5e-4 -0.02505,3.4e-4 -0.02575,3.4e-4 -0.02505,3.5e-4 -0.0254,3.4e-4 -0.02575,7.2e-4 -0.02646,3.4e-4 -0.02611,7.1e-4 -0.02681,3.5e-4 -0.02681,7.1e-4 -0.02681,3.5e-4 -0.02716,7.1e-4 -0.02787,7.2e-4 -0.02787,7.1e-4 -0.02787,7.1e-4 -0.02822,10e-4 -0.02858,7.2e-4 h -0.0071 v 1.67499 h 7.15e-4 l 0.02611,7.1e-4 0.02716,0.001 0.02752,10e-4 0.02822,10e-4 z m 1.8669,0.84561 -0.01693,-0.0261 -0.01693,-0.0251 -0.01728,-0.0247 -0.01764,-0.0236 -0.01834,-0.0229 -0.01834,-0.0226 -0.01799,-0.0219 -0.01905,-0.0212 -0.01905,-0.0205 -0.0194,-0.0194 -0.0194,-0.0191 -0.01976,-0.0183 -0.02046,-0.0176 -0.02011,-0.0169 -0.02082,-0.0166 -0.02081,-0.0155 -0.02117,-0.0148 -0.02117,-0.0145 -0.02222,-0.0134 -0.02293,-0.0131 -0.02434,-0.013 -0.0254,-0.0127 -0.02646,-0.012 -0.02752,-0.0116 -0.02893,-0.0113 -0.02999,-0.0106 -0.03105,-0.0106 -0.03245,-0.01 -0.03351,-0.01 -0.03422,-0.009 -0.03598,-0.009 -0.03669,-0.008 -0.0381,-0.008 -0.03916,-0.007 -0.04022,-0.007 -0.04163,-0.007 -0.04269,-0.006 -0.04339,-0.006 -0.0448,-0.005 -0.04621,-0.005 -0.04657,-0.005 -0.04833,-0.004 -0.04939,-0.004 -0.05045,-0.003 -0.05151,-0.003 -0.05256,-0.002 -0.05397,-0.002 -0.05468,-0.001 -0.05609,-7.1e-4 -0.05715,-3.5e-4 h -0.0099 -0.01093 l -0.01093,3.5e-4 -0.02258,3.4e-4 -0.01411,3.4e-4 -0.01376,3.5e-4 -0.02787,10e-4 -0.01552,7.1e-4 -0.01587,7.2e-4 -0.01552,3.4e-4 -0.01658,0.001 -0.01764,7.1e-4 -0.01764,10e-4 -0.01834,0.001 -0.03563,0.002 -0.03351,0.002 -0.03069,0.002 -0.02787,0.002 -0.0254,0.001 -0.01199,7.2e-4 v 0.65969 0.0547 l 3.44e-4,0.0536 3.44e-4,0.0526 3.44e-4,0.0511 0.0011,0.0497 0.0011,0.0487 0.0011,0.0476 0.0014,0.0459 0.0018,0.0452 0.0018,0.0434 0.0018,0.0423 0.0021,0.0413 0.0021,0.0399 0.0025,0.0384 0.0025,0.0374 0.0028,0.036 0.0032,0.0349 0.0032,0.0335 0.0032,0.0321 0.0035,0.031 0.0035,0.0296 0.0042,0.0286 0.0035,0.0272 0.0042,0.0258 0.0042,0.0247 0.0042,0.0229 0.0046,0.0219 0.0049,0.0208 0.0046,0.019 0.0053,0.018 0.0053,0.0162 0.0046,0.0148 0.01164,0.0289 0.0127,0.0275 0.01376,0.0258 0.01482,0.0243 0.01623,0.0233 0.01729,0.0215 0.01834,0.0201 0.01976,0.0191 0.02117,0.0176 0.02187,0.0166 0.02328,0.0152 0.0254,0.0138 0.02611,0.0127 0.02787,0.0116 0.02893,0.0102 0.07197,0.0212 -0.0095,0.14464 -0.09737,-0.004 -0.03422,-0.002 -0.02646,-0.001 -0.02681,-10e-4 -0.02575,-0.001 -0.02575,-0.001 -0.0254,-10e-4 -0.0254,-0.001 -0.02505,-7.1e-4 -0.02434,-10e-4 -0.02505,-7.2e-4 -0.02434,-7.1e-4 -0.02364,-7.2e-4 -0.02434,-7.1e-4 -0.02364,-7.1e-4 -0.02293,-7.2e-4 -0.02363,-7.1e-4 -0.02258,-3.5e-4 -0.02293,-3.4e-4 -0.02258,-3.5e-4 -0.02258,-7.1e-4 -0.02187,-3.4e-4 -0.02258,-3.5e-4 h -0.02187 l -0.02187,-3.4e-4 h -0.02152 -0.02187 l -0.02117,-3.5e-4 h -0.02152 -0.02081 -0.04233 -0.02117 -0.02152 l -0.02117,3.5e-4 h -0.02152 -0.02152 l -0.02187,3.4e-4 h -0.02152 l -0.02187,3.5e-4 -0.02187,3.4e-4 -0.02187,7.1e-4 -0.02223,3.5e-4 -0.02187,3.4e-4 -0.02223,3.5e-4 -0.02223,7.1e-4 -0.02222,7.2e-4 -0.02293,7.1e-4 -0.02223,7.1e-4 -0.02258,7.2e-4 -0.04516,0.001 -0.02222,0.001 -0.02258,7.1e-4 -0.04516,0.002 -0.02258,10e-4 -0.02258,0.001 -0.02293,0.001 -0.02258,10e-4 -0.02293,0.001 -0.02258,0.001 -0.07408,0.004 -0.0099,-0.14534 0.07126,-0.0205 0.02822,-0.01 0.02681,-0.0109 0.0254,-0.0116 0.02434,-0.013 0.02258,-0.0145 0.02152,-0.0152 0.02011,-0.0166 0.0194,-0.0173 0.01799,-0.0187 0.01658,-0.0201 0.01587,-0.0212 0.01446,-0.0222 0.01341,-0.0236 0.0127,-0.025 0.01093,-0.0265 0.0053,-0.0131 0.0046,-0.0155 0.0049,-0.0169 0.0049,-0.018 0.0046,-0.0198 0.0046,-0.0215 0.0046,-0.0226 0.0039,-0.0243 0.0042,-0.0258 0.0042,-0.0272 0.0039,-0.0282 0.0035,-0.03 0.0032,-0.0314 0.0035,-0.0325 0.0032,-0.0342 0.0028,-0.0356 0.0028,-0.0367 0.0028,-0.0384 0.0025,-0.0392 0.0021,-0.0413 0.0021,-0.0423 0.0018,-0.0437 0.0018,-0.0452 0.0014,-0.0462 0.0014,-0.048 0.0011,-0.0494 0.0014,-0.0504 7.14e-4,-0.0522 7.15e-4,-0.0533 3.44e-4,-0.055 3.43e-4,-0.0561 v -0.0571 -2.04788 l -3.43e-4,-0.0536 -7.15e-4,-0.0512 -0.0018,-0.049 -0.0021,-0.0459 -0.0025,-0.0437 -0.0032,-0.0409 -0.0039,-0.0388 -0.0046,-0.0356 -0.0049,-0.0332 -0.0053,-0.0303 -0.0063,-0.0279 -0.006,-0.025 -0.0074,-0.0222 -0.0067,-0.0194 -0.0074,-0.0162 -0.0078,-0.0138 -0.0085,-0.0127 -0.0092,-0.0123 -0.0099,-0.0116 -0.01129,-0.0116 -0.01199,-0.0106 -0.01305,-0.0102 -0.01376,-0.01 -0.01517,-0.009 -0.01623,-0.009 -0.01693,-0.008 -0.01834,-0.008 -0.0194,-0.007 -0.02046,-0.006 -0.02152,-0.006 -0.02293,-0.005 -0.06703,-0.0127 v -0.14852 l 0.07902,10e-4 0.02646,7.2e-4 h 0.02611 l 0.02646,7.1e-4 0.05292,7.2e-4 h 0.02716 l 0.02681,3.4e-4 0.04374,3.4e-4 0.03704,3.5e-4 0.02681,3.4e-4 0.02787,3.5e-4 0.02716,3.4e-4 h 0.02752 l 0.02752,3.4e-4 h 0.02822 l 0.02928,3.5e-4 h 0.03069 l 0.03175,3.4e-4 0.03316,3.5e-4 h 0.03387 l 0.03563,3.4e-4 h 0.03634 0.03775 0.0388 0.04022 0.04163 0.04233 l 0.04339,3.4e-4 h 0.0448 0.04621 0.748242 0.04445 l 0.04374,3.5e-4 h 0.04269 l 0.04198,3.4e-4 h 0.04128 l 0.04022,3.5e-4 0.03986,3.4e-4 0.0388,3.4e-4 0.0381,7.2e-4 0.0374,3.4e-4 0.03634,7.2e-4 0.03598,3.4e-4 0.03492,7.1e-4 0.03387,7.2e-4 0.03351,7.1e-4 0.03281,7.2e-4 0.03175,7.1e-4 0.03069,10e-4 0.03034,7.2e-4 0.02928,0.001 0.02858,10e-4 0.02822,10e-4 0.02716,0.001 0.02611,10e-4 0.0254,10e-4 0.02469,0.001 0.02399,10e-4 0.02293,10e-4 0.02258,0.001 0.02152,10e-4 0.02081,10e-4 0.03986,0.003 0.03951,0.003 0.03881,0.004 0.03704,0.004 0.03704,0.004 0.03563,0.004 0.03528,0.005 0.03422,0.005 0.03281,0.005 0.03246,0.005 0.0314,0.006 0.03069,0.006 0.02963,0.006 0.02858,0.006 0.02822,0.007 0.02716,0.007 0.05327,0.0152 0.05186,0.0162 0.05045,0.0173 0.04833,0.0183 0.04727,0.0194 0.04586,0.0205 0.04445,0.0215 0.04269,0.0226 0.04128,0.024 0.04022,0.0247 0.0381,0.0258 0.03669,0.0272 0.03528,0.0279 0.03351,0.0293 0.03246,0.03 0.03034,0.0314 0.02928,0.0324 0.02681,0.0332 0.0254,0.0339 0.02293,0.0349 0.02187,0.0356 0.01976,0.0363 0.01764,0.037 0.01588,0.0378 0.01411,0.0384 0.01235,0.0395 0.01023,0.0399 0.0081,0.0406 0.0067,0.0413 0.0049,0.042 0.0021,0.0423 0.0011,0.043 -3.44e-4,0.0317 -0.0014,0.0307 -0.0018,0.0307 -0.0035,0.0303 -0.0039,0.0296 -0.0053,0.0296 -0.0053,0.0293 -0.0071,0.0286 -0.0078,0.0282 -0.0085,0.0282 -0.0095,0.0272 -0.01023,0.0272 -0.01164,0.0268 -0.01235,0.0261 -0.01305,0.0261 -0.01376,0.0254 -0.01517,0.0251 -0.01587,0.0243 -0.01658,0.0243 -0.01764,0.0236 -0.01834,0.0233 -0.01976,0.0226 -0.01976,0.0222 -0.02117,0.0219 -0.02222,0.0215 -0.02258,0.0208 -0.02364,0.0205 -0.02469,0.0201 -0.0254,0.0194 -0.02611,0.019 -0.02681,0.0187 -0.02787,0.0183 -0.02893,0.0176 -0.02928,0.0169 -0.02963,0.0166 -0.03034,0.0162 -0.0314,0.0155 -0.03175,0.0148 -0.03281,0.0148 -0.03351,0.0138 -0.03351,0.0134 -0.03492,0.0127 -0.03528,0.0127 -0.03563,0.0116 -0.03704,0.0113 -0.03704,0.0109 -0.0381,0.0102 -0.03845,0.01 -0.03916,0.009 -0.04022,0.009 -0.04057,0.008 -0.04128,0.008 -0.04163,0.007 -0.04269,0.007 -0.04339,0.006 -0.02187,0.003 0.01093,0.003 0.02893,0.008 0.02822,0.008 0.02787,0.009 0.02752,0.009 0.02716,0.009 0.02646,0.01 0.02646,0.01 0.02611,0.0102 0.02575,0.0109 0.0254,0.0109 0.02469,0.0113 0.02469,0.0113 0.02399,0.012 0.02399,0.012 0.02363,0.0127 0.02293,0.0127 0.02293,0.0134 0.02223,0.0131 0.02258,0.0141 0.04269,0.0286 0.04163,0.0303 0.04057,0.0314 0.03916,0.0332 0.0381,0.0342 0.03634,0.036 0.03492,0.0374 0.03422,0.0384 0.03246,0.0399 0.03069,0.0416 0.02999,0.0427 0.02858,0.0441 0.02716,0.0452 0.02575,0.0473 0.02399,0.048 0.02293,0.049 0.01129,0.0251 0.01129,0.0258 0.01129,0.0272 0.01235,0.0279 0.01199,0.0293 0.0127,0.0303 0.01305,0.0318 0.01305,0.0328 0.01376,0.0339 0.01376,0.0349 0.01411,0.0363 0.01447,0.0374 0.01517,0.0384 0.01517,0.0395 0.01552,0.0409 0.01552,0.042 0.01693,0.0434 0.01693,0.0427 0.01658,0.0409 0.01693,0.0399 0.01658,0.0384 0.01658,0.0374 0.01693,0.036 0.01658,0.0346 0.01693,0.0332 0.01658,0.0321 0.01693,0.0307 0.01623,0.0293 0.01658,0.0282 0.01658,0.0268 0.01658,0.0254 0.01658,0.0243 0.01623,0.0226 0.01658,0.0215 0.01623,0.0201 0.01623,0.019 0.01552,0.0173 0.01588,0.0162 0.01587,0.0148 0.01587,0.0138 0.01517,0.0124 0.01517,0.0109 0.01517,0.01 0.01482,0.008 0.01482,0.007 0.01447,0.006 0.01411,0.005 0.05362,0.0155 v 0.15734 h -0.06914 -0.01764 l -0.01729,-3.5e-4 h -0.01834 -0.0187 l -0.01905,-3.4e-4 h -0.0194 l -0.01976,-3.5e-4 -0.02046,-3.4e-4 h -0.02046 l -0.02117,-3.4e-4 h -0.02081 l -0.02223,-3.5e-4 -0.02187,-3.4e-4 -0.02293,-3.5e-4 -0.02293,-3.4e-4 -0.02293,-7.1e-4 -0.02117,-3.5e-4 -0.02046,-3.4e-4 -0.0194,-3.5e-4 -0.01834,-3.4e-4 -0.01728,-3.4e-4 h -0.01623 l -0.01552,-3.5e-4 -0.01446,-3.4e-4 h -0.01305 -0.01199 -0.01093 l -0.01023,-3.5e-4 h -0.0088 -0.0081 -0.05503 -0.02364 -0.02469 l -0.02399,3.5e-4 h -0.02399 l -0.02469,3.4e-4 -0.02399,3.5e-4 -0.02505,3.4e-4 -0.02575,7.1e-4 -0.0254,7.2e-4 -0.02575,7.1e-4 -0.02646,7.2e-4 -0.02611,7.1e-4 -0.02716,7.2e-4 -0.06244,0.002 -0.02293,-0.054 -0.0085,-0.0208 -0.0092,-0.0208 -0.0085,-0.0212 -0.0088,-0.0208 -0.0088,-0.0208 -0.0088,-0.0208 -0.0088,-0.0208 -0.0085,-0.0212 -0.0085,-0.0208 -0.0088,-0.0212 -0.0085,-0.0208 -0.0088,-0.0208 -0.0085,-0.0208 -0.0088,-0.0212 -0.0081,-0.0212 -0.0081,-0.0212 -0.0088,-0.0208 -0.0081,-0.0212 -0.0085,-0.0212 -0.0081,-0.0215 -0.0085,-0.0212 -0.0081,-0.0215 -0.0081,-0.0215 -0.0081,-0.0215 -0.0081,-0.0219 -0.0081,-0.0215 -0.0078,-0.0219 -0.0081,-0.0222 -0.0078,-0.0222 -0.0081,-0.0219 -0.0078,-0.0222 -0.179564,-0.50695 -0.01305,-0.036 -0.01305,-0.0349 -0.01341,-0.0346 -0.01341,-0.0339 -0.01411,-0.0325 -0.01411,-0.0325 -0.01446,-0.0314 -0.01517,-0.0311 -0.01517,-0.03 -0.01517,-0.0293 -0.01587,-0.0289 -0.01587,-0.0279 -0.01658,-0.0275 z m 2.511072,-0.58138 7.14e-4,0.0621 0.0014,0.0614 0.0021,0.0603 0.0032,0.0596 0.0039,0.0586 0.0049,0.0579 0.006,0.0568 0.0064,0.0561 0.0078,0.055 0.0081,0.0543 0.0099,0.0536 0.0099,0.0522 0.01094,0.0519 0.01199,0.0508 0.0127,0.0501 0.01411,0.049 0.01446,0.048 0.01517,0.0473 0.01658,0.0466 0.01729,0.0455 0.01799,0.0444 0.01905,0.0441 0.01976,0.043 0.02081,0.042 0.02117,0.0409 0.02258,0.0406 0.02328,0.0395 0.02434,0.0384 0.02505,0.0378 0.02575,0.037 0.02681,0.0363 0.02787,0.0353 0.02858,0.0342 0.02893,0.0332 0.02963,0.0321 0.03034,0.031 0.03034,0.03 0.03175,0.0289 0.0321,0.0275 0.03281,0.0265 0.03387,0.0258 0.03387,0.024 0.03493,0.0236 0.03528,0.0222 0.03598,0.0208 0.03669,0.0205 0.03739,0.019 0.03775,0.018 0.03916,0.0166 0.03916,0.0159 0.03986,0.0145 0.04127,0.0134 0.04127,0.0127 0.04198,0.0113 0.04304,0.0106 0.04339,0.009 0.04445,0.008 0.0448,0.007 0.04586,0.006 0.04621,0.005 0.04727,0.004 0.04763,0.003 0.04868,0.002 0.04939,3.5e-4 0.04763,-3.5e-4 0.04692,-0.002 0.04657,-0.003 0.04586,-0.004 0.04516,-0.005 0.0448,-0.006 0.04374,-0.007 0.04304,-0.008 0.04269,-0.009 0.04198,-0.0102 0.04092,-0.0116 0.04127,-0.0127 0.03986,-0.0138 0.03916,-0.0148 0.03881,-0.0159 0.03845,-0.0166 0.03739,-0.0183 0.0374,-0.0187 0.03598,-0.0205 0.03598,-0.0212 0.03528,-0.0226 0.03457,-0.0233 0.03422,-0.0247 0.03351,-0.0257 0.03246,-0.0268 0.03246,-0.0279 0.03175,-0.0293 0.03104,-0.03 0.03069,-0.0314 0.02999,-0.0324 0.02963,-0.0339 0.02858,-0.0346 0.02822,-0.0356 0.02681,-0.0363 0.02611,-0.0374 0.0254,-0.0381 0.02469,-0.0388 0.02363,-0.0395 0.02293,-0.0406 0.02152,-0.0409 0.02117,-0.0423 0.01976,-0.043 0.0194,-0.0437 0.01834,-0.0445 0.01729,-0.0452 0.01658,-0.0462 0.01552,-0.0469 0.01482,-0.048 0.01411,-0.0487 0.01305,-0.0494 0.01199,-0.0501 0.01129,-0.0511 0.01023,-0.0522 0.0095,-0.0526 0.0085,-0.054 0.0078,-0.054 0.0067,-0.0554 0.006,-0.0564 0.0046,-0.0568 0.0042,-0.0575 0.0032,-0.0589 0.0025,-0.0593 0.0011,-0.0603 7.15e-4,-0.061 -7.15e-4,-0.0624 -0.0011,-0.061 -0.0025,-0.0607 -0.0032,-0.0596 -0.0039,-0.0586 -0.0049,-0.0579 -0.0056,-0.0568 -0.0067,-0.0561 -0.0074,-0.055 -0.0085,-0.0543 -0.0095,-0.0533 -0.01023,-0.0526 -0.01093,-0.0515 -0.01164,-0.0504 -0.01305,-0.0501 -0.01376,-0.0487 -0.01446,-0.0483 -0.01552,-0.0473 -0.01623,-0.0462 -0.01693,-0.0452 -0.01799,-0.0445 -0.01905,-0.0437 -0.0194,-0.0427 -0.02081,-0.042 -0.02152,-0.0409 -0.02222,-0.0402 -0.02328,-0.0395 -0.02399,-0.0381 -0.02469,-0.0377 -0.02575,-0.0367 -0.02681,-0.036 -0.02752,-0.0349 -0.02858,-0.0339 -0.02893,-0.0332 -0.02963,-0.0318 -0.02999,-0.0307 -0.03104,-0.0296 -0.0314,-0.0286 -0.0321,-0.0275 -0.03281,-0.0265 -0.03351,-0.025 -0.03422,-0.0243 -0.03457,-0.0229 -0.03563,-0.0222 -0.03563,-0.0208 -0.03704,-0.0198 -0.03739,-0.0187 -0.03845,-0.0176 -0.03845,-0.0169 -0.03951,-0.0155 -0.04022,-0.0145 -0.04092,-0.0134 -0.04128,-0.0124 -0.04233,-0.0113 -0.04304,-0.0106 -0.04374,-0.009 -0.0441,-0.008 -0.04551,-0.007 -0.04551,-0.006 -0.04692,-0.005 -0.04727,-0.004 -0.04798,-0.002 -0.04868,-0.002 -0.04974,-7.1e-4 -0.04974,7.1e-4 -0.04939,0.002 -0.04868,0.002 -0.04727,0.004 -0.04692,0.005 -0.04657,0.006 -0.04551,0.007 -0.04445,0.008 -0.0441,0.009 -0.04339,0.01 -0.04233,0.0113 -0.04163,0.0123 -0.04092,0.0131 -0.04057,0.0141 -0.03951,0.0155 -0.03881,0.0162 -0.0381,0.0173 -0.03704,0.0187 -0.03704,0.0194 -0.03563,0.0205 -0.03563,0.0215 -0.03457,0.0229 -0.03351,0.0236 -0.03316,0.0247 -0.03281,0.0261 -0.03175,0.0268 -0.03104,0.0279 -0.02999,0.0289 -0.02999,0.0303 -0.02893,0.031 -0.02893,0.0325 -0.02752,0.0335 -0.02681,0.0339 -0.02575,0.0353 -0.02505,0.0363 -0.02469,0.037 -0.02328,0.0381 -0.02293,0.0388 -0.02152,0.0399 -0.02117,0.0409 -0.01976,0.0413 -0.0194,0.0427 -0.01834,0.0437 -0.01764,0.0444 -0.01693,0.0452 -0.01588,0.0462 -0.01482,0.0473 -0.01447,0.048 -0.01305,0.049 -0.01305,0.0501 -0.01164,0.0508 -0.01058,0.0519 -0.0099,0.0529 -0.0092,0.0536 -0.0081,0.0547 -0.0078,0.0554 -0.0064,0.0564 -0.0056,0.0579 -0.0046,0.0582 -0.0039,0.0593 -0.0032,0.0603 -0.0021,0.0614 -0.0014,0.0621 z m -0.800806,-0.006 7.15e-4,-0.0631 0.0021,-0.0621 0.0032,-0.0614 0.0049,-0.0607 0.0063,-0.0603 0.0071,-0.0596 0.0088,-0.0589 0.01058,-0.0579 0.01164,-0.0575 0.0127,-0.0571 0.01446,-0.0561 0.01552,-0.0554 0.01728,-0.055 0.01834,-0.054 0.01976,-0.0536 0.02117,-0.0526 0.02258,-0.0522 0.02399,-0.0515 0.0254,-0.0508 0.02646,-0.0497 0.02787,-0.0497 0.02963,-0.0483 0.03034,-0.048 0.03246,-0.0473 0.03351,-0.0466 0.03457,-0.0459 0.03634,-0.0448 0.03739,-0.0445 0.03881,-0.0437 0.04022,-0.043 0.04127,-0.0423 0.04304,-0.0413 0.04374,-0.0409 0.0448,-0.0392 0.04516,-0.0381 0.04657,-0.0367 0.04692,-0.0356 0.04763,-0.0342 0.04833,-0.0328 0.04904,-0.0318 0.05009,-0.0303 0.05045,-0.0293 0.05151,-0.0275 0.05221,-0.0265 0.05256,-0.0254 0.05398,-0.024 0.05433,-0.0226 0.05468,-0.0212 0.05645,-0.0201 0.05609,-0.0183 0.0575,-0.0176 0.05786,-0.0162 0.05856,-0.0148 0.05962,-0.0134 0.05997,-0.0123 0.06103,-0.0109 0.06103,-0.01 0.06244,-0.008 0.06315,-0.007 0.0635,-0.006 0.06456,-0.004 0.06491,-0.004 0.06562,-0.001 0.06668,-7.1e-4 0.06703,7.1e-4 0.06668,0.002 0.06562,0.003 0.06491,0.005 0.06421,0.006 0.0635,0.007 0.06279,0.008 0.06244,0.01 0.06103,0.0109 0.06068,0.0123 0.05997,0.0134 0.05927,0.0152 0.05856,0.0162 0.05786,0.0173 0.0568,0.0191 0.0568,0.0201 0.05539,0.0215 0.05468,0.0226 0.05433,0.024 0.05362,0.0254 0.05221,0.0268 0.05221,0.0279 0.0508,0.0293 0.05045,0.0307 0.04974,0.0317 0.04904,0.0332 0.04798,0.0346 0.04727,0.0356 0.04657,0.037 0.04586,0.0385 0.04516,0.0399 0.0441,0.0409 0.04339,0.042 0.04198,0.0423 0.04057,0.0434 0.03916,0.0441 0.03775,0.0444 0.03669,0.0452 0.03492,0.0459 0.03387,0.0469 0.03246,0.0473 0.03104,0.048 0.02963,0.0483 0.02822,0.0494 0.02681,0.0501 0.0254,0.0508 0.02469,0.0512 0.02258,0.0522 0.02152,0.0526 0.01976,0.0533 0.0187,0.0536 0.01729,0.0547 0.01588,0.055 0.01446,0.0561 0.01305,0.0564 0.01164,0.0572 0.01023,0.0579 0.0092,0.0582 0.0074,0.0589 0.0063,0.06 0.0049,0.0603 0.0032,0.0607 0.0021,0.0617 7.15e-4,0.0624 -7.15e-4,0.0617 -0.0021,0.061 -0.0032,0.0607 -0.0049,0.06 -0.0067,0.0596 -0.0074,0.0589 -0.0092,0.0582 -0.01058,0.0579 -0.01164,0.0572 -0.01341,0.0564 -0.01482,0.0561 -0.01587,0.0554 -0.01764,0.0547 -0.01905,0.054 -0.02011,0.0536 -0.02187,0.0533 -0.02293,0.0522 -0.02434,0.0519 -0.02646,0.0512 -0.02716,0.0504 -0.02858,0.0497 -0.03034,0.049 -0.03175,0.0487 -0.03246,0.048 -0.03457,0.0476 -0.03563,0.0466 -0.03704,0.0462 -0.03845,0.0455 -0.03986,0.0448 -0.04127,0.0441 -0.04233,0.0434 -0.0441,0.043 -0.0448,0.042 -0.04586,0.0406 -0.04621,0.0395 -0.04692,0.0378 -0.04727,0.0367 -0.04833,0.0353 -0.04904,0.0339 -0.04939,0.0332 -0.05045,0.031 -0.05115,0.03 -0.05151,0.0289 -0.05186,0.0272 -0.05292,0.0261 -0.05327,0.0247 -0.05468,0.0233 -0.05468,0.0222 -0.05539,0.0208 -0.05574,0.0194 -0.0568,0.018 -0.05715,0.0166 -0.05821,0.0152 -0.05891,0.0141 -0.05891,0.0127 -0.05962,0.0113 -0.06032,0.0102 -0.06138,0.009 -0.06174,0.007 -0.06209,0.006 -0.06279,0.004 -0.0635,0.004 -0.06456,0.002 -0.06421,3.5e-4 -0.06668,-3.5e-4 -0.06562,-0.002 -0.06526,-0.003 -0.06491,-0.005 -0.0635,-0.006 -0.06315,-0.007 -0.06244,-0.008 -0.06138,-0.01 -0.06103,-0.0113 -0.06032,-0.0123 -0.05962,-0.0138 -0.05891,-0.0152 -0.05821,-0.0162 -0.0575,-0.0176 -0.0568,-0.0194 -0.05644,-0.0201 -0.05503,-0.0219 -0.05468,-0.0229 -0.05398,-0.0243 -0.05327,-0.0258 -0.05221,-0.0268 -0.05221,-0.0282 -0.0508,-0.0296 -0.05045,-0.031 -0.04939,-0.0325 -0.04904,-0.0332 -0.04798,-0.0349 -0.04763,-0.0363 -0.04621,-0.0374 -0.04621,-0.0384 -0.0448,-0.0402 -0.04445,-0.0413 -0.04339,-0.0423 -0.04198,-0.0434 -0.04092,-0.0437 -0.03916,-0.0448 -0.03775,-0.0448 -0.03669,-0.0459 -0.03528,-0.0469 -0.03351,-0.0469 -0.03246,-0.048 -0.03104,-0.0487 -0.02999,-0.0494 -0.02822,-0.0497 -0.02681,-0.0508 -0.0254,-0.0512 -0.02434,-0.0519 -0.02293,-0.0526 -0.02117,-0.0533 -0.02011,-0.054 -0.0187,-0.0547 -0.01728,-0.055 -0.01588,-0.0561 -0.01446,-0.0564 -0.01305,-0.0571 -0.01164,-0.0579 -0.01058,-0.0586 -0.0088,-0.0593 -0.0074,-0.0596 -0.0063,-0.0603 -0.0049,-0.0614 -0.0032,-0.0614 -0.0021,-0.0624 z m 6.414911,1.00472 3.44e-4,0.0258 3.44e-4,0.025 v 0.0247 l 3.44e-4,0.0243 3.44e-4,0.0233 3.44e-4,0.0229 3.44e-4,0.0226 3.44e-4,0.0219 7.15e-4,0.0363 7.14e-4,0.0261 3.44e-4,0.0194 7.14e-4,0.0194 7.15e-4,0.0183 3.44e-4,0.018 7.14e-4,0.0173 7.14e-4,0.0169 7.15e-4,0.0162 7.14e-4,0.0159 7.14e-4,0.0148 7.15e-4,0.0148 0.0014,0.0279 0.0014,0.0272 0.0018,0.0257 0.0018,0.0251 0.0018,0.024 0.0021,0.0229 0.0021,0.0215 0.0025,0.0208 0.0021,0.0194 0.0025,0.0187 0.0025,0.0173 0.0028,0.0166 0.0025,0.0148 0.0032,0.0145 0.0025,0.0127 0.0028,0.0113 0.01058,0.0363 0.01376,0.0307 0.01588,0.0275 0.02011,0.0243 0.02363,0.0219 0.02716,0.0194 0.03175,0.0176 0.03634,0.0148 0.0088,0.003 0.01093,0.003 0.01129,0.003 0.0127,0.003 0.01376,0.003 0.01482,0.003 0.01623,0.003 0.01693,0.003 0.01764,0.002 0.01905,0.003 0.01976,0.002 0.02117,0.003 0.02152,0.002 0.02328,0.002 0.02364,0.002 0.02469,0.002 0.0254,0.002 0.02716,0.002 0.02752,10e-4 0.02858,0.001 0.02963,0.001 0.03034,10e-4 0.03175,0.001 0.0321,0.001 0.03316,7.1e-4 0.03457,7.1e-4 0.03492,7.2e-4 0.03634,7.1e-4 0.03669,3.5e-4 0.03845,3.4e-4 h 0.03881 l 0.03986,3.4e-4 0.05362,-3.4e-4 0.05221,-10e-4 0.05186,-0.001 0.0508,-0.002 0.05009,-0.002 0.04939,-0.003 0.04798,-0.003 0.04763,-0.004 0.04657,-0.005 0.04586,-0.005 0.0448,-0.005 0.0441,-0.006 0.04304,-0.007 0.04233,-0.007 0.04163,-0.008 0.04057,-0.008 0.03986,-0.008 0.03881,-0.009 0.03775,-0.01 0.0374,-0.01 0.03634,-0.0106 0.03563,-0.0109 0.03457,-0.0116 0.03351,-0.012 0.03316,-0.0127 0.0321,-0.0127 0.03104,-0.0138 0.03034,-0.0141 0.02963,-0.0145 0.02858,-0.0148 0.02787,-0.0152 0.02681,-0.0159 0.02575,-0.0166 0.02575,-0.0166 0.02399,-0.0173 0.02328,-0.0176 0.02293,-0.0183 0.02152,-0.0187 0.02082,-0.019 0.02011,-0.0194 0.01905,-0.0201 0.01834,-0.0201 0.01764,-0.0212 0.01658,-0.0212 0.01588,-0.0219 0.01517,-0.0226 0.01411,-0.0226 0.01341,-0.0229 0.01235,-0.0236 0.01164,-0.0247 0.01093,-0.0243 0.01023,-0.0254 0.0095,-0.0258 0.0081,-0.0261 0.0081,-0.0268 0.0067,-0.0275 0.0064,-0.0279 0.0053,-0.0282 0.0042,-0.0289 0.0039,-0.0296 0.0028,-0.03 0.0021,-0.0307 0.0014,-0.031 3.44e-4,-0.0318 -3.44e-4,-0.0317 -0.0014,-0.0314 -0.0021,-0.0303 -0.0032,-0.03 -0.0039,-0.0296 -0.0046,-0.0289 -0.0053,-0.0282 -0.0067,-0.0275 -0.0067,-0.0272 -0.0081,-0.0265 -0.0088,-0.0261 -0.0095,-0.0254 -0.01058,-0.0251 -0.01129,-0.0243 -0.01235,-0.024 -0.0127,-0.0229 -0.01376,-0.0229 -0.01482,-0.0222 -0.01517,-0.0219 -0.01623,-0.0212 -0.01729,-0.0208 -0.01799,-0.0201 -0.0187,-0.0198 -0.01976,-0.0194 -0.02081,-0.019 -0.02117,-0.018 -0.02258,-0.018 -0.02328,-0.0173 -0.02399,-0.0169 -0.02505,-0.0162 -0.02575,-0.0159 -0.02681,-0.0152 -0.02787,-0.0148 -0.02893,-0.0145 -0.02999,-0.0141 -0.03105,-0.0138 -0.0321,-0.0127 -0.03316,-0.0131 -0.03387,-0.012 -0.03563,-0.0116 -0.03598,-0.0116 -0.03775,-0.0106 -0.0381,-0.0106 -0.03986,-0.01 -0.04057,-0.01 -0.04127,-0.009 -0.04269,-0.008 -0.04374,-0.008 -0.0448,-0.008 -0.04586,-0.007 -0.04692,-0.006 -0.04798,-0.006 -0.04868,-0.005 -0.05009,-0.005 -0.05115,-0.005 -0.05221,-0.004 -0.05292,-0.004 -0.05433,-0.003 -0.05503,-0.003 -0.05644,-0.002 -0.05715,-0.002 -0.05821,-0.001 -0.05962,-7.1e-4 h -0.06032 -0.539044 -0.01023 -0.01129 l -0.02469,3.4e-4 -0.01447,3.4e-4 -0.01517,3.5e-4 -0.01658,3.4e-4 -0.01729,3.5e-4 -0.0187,3.4e-4 -0.01905,7.1e-4 -0.02082,7.2e-4 -0.02152,7.1e-4 -0.02293,7.2e-4 -0.02328,7.1e-4 -0.02469,7.2e-4 -0.02046,10e-4 -0.0381,0.001 -0.01764,7.1e-4 -0.01093,7.1e-4 v 0.71861 0.0314 0.0307 0.0303 0.0296 l 3.44e-4,0.0293 v 0.0286 0.0279 l 3.44e-4,0.0275 v 0.0268 z m 0.119945,-1.27071 0.02222,3.4e-4 0.02187,3.5e-4 0.02187,3.4e-4 h 0.02046 l 0.02046,3.5e-4 h 0.02011 0.0187 0.01905 0.01834 0.557037 0.04904 l 0.04727,-7.2e-4 0.04727,-0.001 0.04621,-0.002 0.04551,-0.002 0.04445,-0.002 0.0441,-0.003 0.04304,-0.004 0.04198,-0.004 0.04163,-0.004 0.04057,-0.005 0.04022,-0.005 0.03916,-0.006 0.0381,-0.006 0.03775,-0.006 0.03669,-0.007 0.03598,-0.007 0.03528,-0.008 0.03422,-0.008 0.03387,-0.009 0.03281,-0.009 0.03175,-0.01 0.03104,-0.01 0.03069,-0.0106 0.02963,-0.0106 0.02858,-0.0113 0.02787,-0.0116 0.02752,-0.012 0.02646,-0.0127 0.0254,-0.013 0.02469,-0.0131 0.02434,-0.0138 0.02293,-0.0141 0.02258,-0.0145 0.02117,-0.0152 0.02117,-0.0152 0.01976,-0.0159 0.0194,-0.0162 0.0187,-0.0162 0.01799,-0.0169 0.01658,-0.0173 0.01623,-0.0176 0.01552,-0.018 0.01482,-0.0187 0.01411,-0.0187 0.01341,-0.0194 0.0127,-0.0198 0.01199,-0.0201 0.01093,-0.0205 0.01023,-0.0208 0.01023,-0.0215 0.0088,-0.0219 0.0081,-0.0222 0.0078,-0.0226 0.0067,-0.0233 0.0064,-0.0236 0.0056,-0.0243 0.0046,-0.0243 0.0039,-0.0251 0.0035,-0.0254 0.0028,-0.0261 0.0018,-0.0265 7.14e-4,-0.0272 3.44e-4,-0.0272 -0.0011,-0.0519 -0.0046,-0.0497 -0.0071,-0.0476 -0.0099,-0.0455 -0.01305,-0.0441 -0.01552,-0.042 -0.01834,-0.0402 -0.02117,-0.0384 -0.02399,-0.0367 -0.02681,-0.0353 -0.02963,-0.0339 -0.03281,-0.0318 -0.03563,-0.0307 -0.03916,-0.0289 -0.04198,-0.0275 -0.04551,-0.0261 -0.02328,-0.012 -0.02434,-0.0123 -0.02575,-0.0116 -0.02611,-0.0109 -0.02716,-0.0113 -0.02787,-0.0106 -0.02893,-0.0102 -0.02999,-0.01 -0.03069,-0.009 -0.03175,-0.009 -0.03245,-0.009 -0.03281,-0.008 -0.03457,-0.008 -0.03492,-0.008 -0.03563,-0.007 -0.03704,-0.007 -0.03739,-0.006 -0.03881,-0.006 -0.03916,-0.006 -0.04022,-0.005 -0.04128,-0.005 -0.04198,-0.004 -0.04269,-0.004 -0.04374,-0.004 -0.04445,-0.003 -0.04551,-0.003 -0.04586,-0.002 -0.04727,-0.002 -0.04798,-0.002 -0.04868,-7.1e-4 -0.04939,-7.2e-4 -0.0508,-3.4e-4 -0.02152,3.4e-4 h -0.02469 l -0.02611,3.5e-4 -0.02928,3.4e-4 -0.03104,7.1e-4 -0.03351,7.2e-4 -0.03598,10e-4 -0.03845,7.1e-4 -0.04092,0.001 -0.04304,10e-4 -0.04551,10e-4 -0.04727,0.001 -0.05045,0.002 -0.05221,0.001 -0.05503,0.002 -0.0575,0.002 -0.02046,3.5e-4 -0.02011,7.1e-4 -0.0194,7.2e-4 -0.01834,7.1e-4 -0.01834,3.4e-4 -0.01799,7.2e-4 -0.01693,7.1e-4 -0.01658,7.2e-4 -0.01588,3.4e-4 -0.01552,7.2e-4 -0.01447,3.4e-4 -0.01411,7.1e-4 h -3.44e-4 v 1.67041 h 0.0011 l 0.0254,7.1e-4 0.02434,7.2e-4 0.02363,7.1e-4 0.02363,7.1e-4 z m -0.84702,2.04717 0.0046,-0.0187 0.0046,-0.0198 0.0042,-0.0212 0.0042,-0.0222 0.0039,-0.0236 0.0042,-0.0251 0.0035,-0.0257 0.0039,-0.0272 0.0028,-0.0286 0.0035,-0.0293 0.0028,-0.0307 0.0028,-0.0321 0.0028,-0.0332 0.0021,-0.0342 0.0025,-0.0356 0.0021,-0.0367 0.0021,-0.0377 0.0018,-0.0392 0.0014,-0.0399 0.0014,-0.0416 0.0014,-0.0423 7.15e-4,-0.0437 7.14e-4,-0.0448 7.14e-4,-0.0459 3.44e-4,-0.0473 3.44e-4,-0.048 v -0.0497 -2.40594 l -3.44e-4,-0.0325 -7.14e-4,-0.0314 -0.0014,-0.0296 -0.0025,-0.0286 -0.0028,-0.0275 -0.0032,-0.0258 -0.0042,-0.0251 -0.0046,-0.0236 -0.0053,-0.0222 -0.0056,-0.0208 -0.0064,-0.0198 -0.0071,-0.0187 -0.0071,-0.0169 -0.0078,-0.0159 -0.0081,-0.0145 -0.0088,-0.0134 -0.0088,-0.0127 -0.0099,-0.0116 -0.01058,-0.0113 -0.01199,-0.0106 -0.01235,-0.0102 -0.01305,-0.01 -0.01411,-0.009 -0.01517,-0.008 -0.01588,-0.008 -0.01729,-0.007 -0.01799,-0.007 -0.01905,-0.006 -0.02011,-0.006 -0.02081,-0.005 -0.02258,-0.004 -0.06738,-0.0113 v -0.14852 h 0.955675 0.01447 0.01517 0.01552 0.01623 l 0.01588,-3.5e-4 h 0.01693 0.01728 0.01799 l 0.01799,-3.4e-4 h 0.0187 0.01905 l 0.01976,-3.5e-4 h 0.01976 l 0.02046,-3.4e-4 h 0.02117 l 0.02082,-3.4e-4 h 0.02222 l 0.02187,-3.5e-4 0.02293,-3.4e-4 0.02293,-3.5e-4 0.02328,-3.4e-4 h 0.02434 l 0.02434,-3.4e-4 0.02469,-3.5e-4 0.0254,-3.4e-4 0.02611,-3.5e-4 0.02575,-3.4e-4 0.02681,-7.1e-4 0.02752,-3.5e-4 0.02752,-3.4e-4 0.02787,-3.5e-4 0.02858,-3.4e-4 0.02822,-3.4e-4 0.02787,-3.5e-4 0.02752,-3.4e-4 0.02681,-3.5e-4 0.02646,-3.4e-4 0.02646,-3.4e-4 0.02575,-3.5e-4 0.02505,-3.4e-4 0.02469,-3.4e-4 0.02434,-3.5e-4 0.02364,-3.4e-4 h 0.02363 l 0.02293,-3.5e-4 0.02258,-3.4e-4 h 0.02187 l 0.02187,-3.4e-4 h 0.02081 l 0.02081,-3.5e-4 0.02011,-3.4e-4 h 0.01976 l 0.01976,-3.5e-4 h 0.0187 0.01834 l 0.01799,-3.4e-4 h 0.01764 0.01729 0.01658 l 0.01588,-3.4e-4 h 0.01587 0.01552 0.02928 l 0.05468,3.4e-4 0.05398,7.1e-4 0.05292,10e-4 0.05256,0.002 0.05115,0.002 0.05115,0.003 0.04974,0.003 0.04904,0.004 0.04868,0.004 0.04727,0.005 0.04692,0.005 0.04586,0.006 0.04551,0.006 0.04445,0.007 0.04374,0.007 0.04269,0.008 0.04198,0.008 0.04127,0.009 0.04057,0.01 0.03986,0.01 0.03881,0.0106 0.03845,0.0109 0.03704,0.0113 0.03704,0.012 0.03563,0.0127 0.03528,0.013 0.03422,0.0134 0.03351,0.0141 0.03281,0.0148 0.0321,0.0152 0.03104,0.0159 0.03069,0.0162 0.02928,0.0169 0.02858,0.0173 0.02787,0.0176 0.02681,0.018 0.02575,0.0191 0.0254,0.019 0.02399,0.0198 0.02328,0.0205 0.02258,0.0208 0.02117,0.0212 0.02082,0.0219 0.01976,0.0222 0.0187,0.0229 0.01764,0.0233 0.01693,0.0236 0.01587,0.0243 0.01517,0.0251 0.01376,0.025 0.01305,0.0258 0.01199,0.0261 0.01093,0.0268 0.01058,0.0272 0.0088,0.0275 0.0085,0.0279 0.0071,0.0286 0.0064,0.0289 0.0049,0.0293 0.0046,0.0296 0.0035,0.03 0.0025,0.0307 0.0014,0.0307 3.44e-4,0.0318 -0.0014,0.0536 -0.0042,0.0529 -0.0074,0.0515 -0.0099,0.0501 -0.0127,0.0494 -0.01552,0.0476 -0.0187,0.0462 -0.02117,0.0452 -0.02434,0.0437 -0.02716,0.042 -0.02963,0.0406 -0.03281,0.0392 -0.03493,0.0378 -0.03845,0.036 -0.04057,0.0349 -0.04304,0.0328 -0.02258,0.0166 -0.02328,0.0155 -0.02399,0.0155 -0.02434,0.0148 -0.02575,0.0148 -0.02575,0.0141 -0.02646,0.0141 -0.02716,0.0134 -0.02787,0.0134 -0.02858,0.0127 -0.02928,0.0127 -0.02963,0.0124 -0.03069,0.0116 -0.0314,0.0116 -0.03175,0.0109 -0.03245,0.0109 -0.03351,0.0102 -0.03351,0.0106 -0.03457,0.01 -0.03528,0.009 -0.03563,0.009 -0.03669,0.009 -0.03704,0.008 -0.0021,3.5e-4 0.04516,0.007 0.04727,0.008 0.04657,0.008 0.04551,0.009 0.04515,0.009 0.0441,0.01 0.04339,0.0102 0.04269,0.0109 0.04163,0.0109 0.04092,0.0116 0.03951,0.012 0.03951,0.0127 0.0381,0.0127 0.03739,0.0134 0.03704,0.0141 0.03563,0.0141 0.03528,0.0148 0.03422,0.0152 0.03316,0.0155 0.03281,0.0159 0.03175,0.0166 0.03104,0.0173 0.02999,0.0173 0.02928,0.018 0.02822,0.0183 0.02752,0.019 0.02681,0.0191 0.02646,0.0201 0.02505,0.0201 0.02434,0.0208 0.02363,0.0212 0.02258,0.0215 0.02187,0.0222 0.02046,0.0226 0.02046,0.0233 0.01905,0.0236 0.01834,0.024 0.01729,0.0243 0.01658,0.0254 0.01588,0.0251 0.01482,0.0261 0.01376,0.0265 0.01305,0.0268 0.01199,0.0272 0.01129,0.0275 0.01023,0.0282 0.0095,0.0286 0.0085,0.0289 0.0074,0.0293 0.0071,0.03 0.0056,0.03 0.0049,0.0307 0.0039,0.031 0.0028,0.0314 0.0025,0.0314 0.0014,0.0321 3.44e-4,0.0328 -7.14e-4,0.0395 -0.0014,0.0392 -0.0032,0.0385 -0.0035,0.0377 -0.0053,0.0374 -0.006,0.037 -0.0074,0.0363 -0.0081,0.0356 -0.0095,0.0353 -0.01058,0.0342 -0.01164,0.0339 -0.01305,0.0335 -0.01446,0.0328 -0.01482,0.0321 -0.01623,0.0314 -0.01764,0.031 -0.0187,0.0303 -0.01976,0.0296 -0.02082,0.0289 -0.02187,0.0286 -0.02293,0.0275 -0.02399,0.0272 -0.0254,0.0265 -0.02646,0.0258 -0.02716,0.0251 -0.02858,0.0243 -0.02963,0.0236 -0.03034,0.0233 -0.03175,0.0226 -0.03281,0.0215 -0.03351,0.0212 -0.03492,0.0205 -0.03598,0.0201 -0.03669,0.019 -0.0381,0.0187 -0.03881,0.018 -0.03986,0.0173 -0.04057,0.0166 -0.04233,0.0159 -0.04304,0.0155 -0.04375,0.0145 -0.04516,0.0141 -0.04551,0.0134 -0.04727,0.0131 -0.04798,0.012 -0.04904,0.0113 -0.04974,0.0109 -0.05115,0.0102 -0.05186,0.01 -0.05327,0.009 -0.05398,0.008 -0.05503,0.008 -0.05574,0.007 -0.05715,0.006 -0.05821,0.006 -0.05927,0.005 -0.05997,0.005 -0.06103,0.004 -0.06209,0.003 -0.06315,0.003 -0.06385,0.002 -0.06526,0.001 -0.06597,10e-4 -0.06738,3.4e-4 h -0.01588 -0.01658 -0.01729 -0.01728 l -0.01834,-3.4e-4 h -0.0194 l -0.0194,-3.5e-4 h -0.02046 -0.02117 l -0.02152,-3.4e-4 -0.02258,-3.4e-4 h -0.02293 l -0.02363,-3.5e-4 h -0.02434 l -0.02505,-3.4e-4 -0.0254,-3.5e-4 -0.02681,-7.1e-4 -0.02681,-3.4e-4 h -0.02752 l -0.02822,-7.2e-4 -0.02893,-3.4e-4 -0.02963,-3.5e-4 -0.03034,-3.4e-4 -0.03104,-3.4e-4 -0.03175,-7.2e-4 -0.03175,-3.4e-4 -0.03316,-3.5e-4 -0.03351,-7.1e-4 -0.03457,-3.5e-4 -0.03457,-7.1e-4 -0.03563,-7.1e-4 -0.03598,-7.2e-4 -0.03669,-3.4e-4 -0.03563,-7.2e-4 -0.03563,-7.1e-4 -0.03528,-3.5e-4 -0.03422,-3.4e-4 -0.03422,-7.1e-4 -0.03351,-7.2e-4 -0.03281,-3.4e-4 -0.03281,-3.5e-4 -0.0321,-3.4e-4 -0.03175,-7.1e-4 -0.0314,-3.5e-4 -0.03069,-3.4e-4 -0.03034,-3.5e-4 -0.02999,-3.4e-4 -0.02928,-3.4e-4 -0.02858,-3.5e-4 -0.02858,-3.4e-4 -0.02787,-3.5e-4 h -0.02752 l -0.02681,-3.4e-4 -0.02646,-3.4e-4 h -0.02575 l -0.02611,-3.5e-4 h -0.02505 -0.02434 -0.02434 l -0.02363,-3.4e-4 h -0.02328 -0.02293 -0.02223 -0.103717 -0.01658 -0.01693 -0.01693 l -0.01728,3.4e-4 h -0.01693 -0.01693 -0.01764 -0.01729 l -0.01764,3.5e-4 h -0.01799 l -0.01764,3.4e-4 h -0.01764 l -0.01799,3.4e-4 -0.01834,3.5e-4 -0.01834,3.4e-4 -0.01834,3.5e-4 -0.0187,3.4e-4 -0.0187,3.4e-4 -0.0187,3.5e-4 -0.0194,3.4e-4 -0.01905,3.5e-4 -0.01976,3.4e-4 -0.01905,3.4e-4 -0.01976,3.5e-4 -0.01976,3.4e-4 -0.01976,3.5e-4 -0.07302,0.002 v -0.14782 l 0.07126,-0.0152 0.02787,-0.007 0.02646,-0.008 0.0254,-0.009 0.02363,-0.0109 0.02223,-0.0116 0.02152,-0.0127 0.01976,-0.0141 0.0187,-0.0152 0.01764,-0.0159 0.01658,-0.0173 0.01517,-0.0183 0.01447,-0.0194 0.01305,-0.0208 0.01199,-0.0219 0.01129,-0.0236 0.0049,-0.012 0.0053,-0.0134 0.0046,-0.0148 0.0049,-0.0159 z m 4.396317,0.47837 -0.0088,-0.14711 0.07514,-0.0183 0.03034,-0.01 0.02858,-0.0102 0.02752,-0.012 0.02575,-0.0134 0.02469,-0.0141 0.02258,-0.0159 0.02222,-0.0169 0.02011,-0.018 0.01905,-0.0194 0.01834,-0.0212 0.01658,-0.0222 0.01552,-0.0236 0.01446,-0.0254 0.01305,-0.0265 0.01199,-0.0282 0.0053,-0.0145 0.0049,-0.0162 0.0056,-0.018 0.0053,-0.019 0.0046,-0.0205 0.0049,-0.0219 0.0049,-0.0236 0.0042,-0.0243 0.0046,-0.0261 0.0042,-0.0275 0.0039,-0.0286 0.0039,-0.03 0.0039,-0.0314 0.0035,-0.0325 0.0032,-0.0339 0.0028,-0.0353 0.0032,-0.0367 0.0028,-0.0374 0.0025,-0.0395 0.0025,-0.0402 0.0021,-0.0416 0.0018,-0.043 0.0021,-0.0444 0.0014,-0.0455 0.0018,-0.0466 0.0011,-0.0483 0.0011,-0.0494 0.0011,-0.0504 7.14e-4,-0.0522 3.44e-4,-0.0533 3.44e-4,-0.0547 v -0.0557 -2.27436 l -3.44e-4,-0.0275 -0.0011,-0.0265 -0.0018,-0.0254 -0.0025,-0.0243 -0.0032,-0.0236 -0.0039,-0.0226 -0.0042,-0.0215 -0.0053,-0.0208 -0.0053,-0.0198 -0.0067,-0.0187 -0.0071,-0.018 -0.0071,-0.0169 -0.0085,-0.0166 -0.0088,-0.0152 -0.0092,-0.0148 -0.0099,-0.0138 -0.01058,-0.013 -0.01093,-0.0127 -0.01235,-0.0124 -0.0127,-0.0116 -0.01411,-0.0116 -0.01482,-0.0113 -0.01623,-0.0106 -0.01693,-0.0102 -0.01764,-0.0102 -0.01905,-0.01 -0.0194,-0.009 -0.02117,-0.009 -0.02152,-0.008 -0.02258,-0.007 -0.02399,-0.007 -0.0635,-0.0176 v -0.14393 h 0.06138 l 0.01023,3.4e-4 h 0.01129 l 0.01235,3.4e-4 0.01305,7.2e-4 0.01411,7.1e-4 0.01482,3.5e-4 0.01623,10e-4 0.05045,0.002 0.04904,0.002 0.04727,0.002 0.04516,0.002 0.04304,0.002 0.04092,0.002 0.03916,0.001 0.03775,10e-4 0.03528,10e-4 0.03351,10e-4 0.03175,0.001 0.02963,10e-4 0.02752,3.4e-4 0.02575,3.4e-4 0.02363,3.5e-4 h 0.02223 0.03845 l 0.03951,-3.5e-4 0.03881,-3.4e-4 0.0388,-3.4e-4 0.03916,-10e-4 0.03916,-0.001 0.03916,-10e-4 0.03916,-10e-4 0.03916,-10e-4 0.03916,-0.001 0.03951,-0.002 0.03916,-0.002 0.03951,-0.002 0.03951,-0.002 0.03951,-0.002 0.03986,-0.002 0.01411,-10e-4 0.01235,-3.5e-4 0.01164,-7.1e-4 0.0095,-3.5e-4 0.0081,-7.1e-4 h 0.0074 l 0.0064,-3.4e-4 h 0.0049 0.05891 v 0.1471 l -0.06632,0.0131 -0.02328,0.006 -0.02187,0.006 -0.02117,0.007 -0.02011,0.007 -0.01905,0.008 -0.01834,0.008 -0.01764,0.009 -0.01658,0.01 -0.01552,0.0102 -0.01482,0.0109 -0.01376,0.0109 -0.01341,0.012 -0.01199,0.0123 -0.01164,0.0131 -0.01058,0.0134 -0.0099,0.0141 -0.0092,0.0152 -0.0088,0.0159 -0.0085,0.0169 -0.0074,0.018 -0.0074,0.0183 -0.0064,0.0198 -0.006,0.0208 -0.0053,0.0215 -0.0042,0.0222 -0.0039,0.0233 -0.0032,0.0243 -0.0028,0.0254 -0.0018,0.0261 -7.15e-4,0.0272 -3.44e-4,0.0286 v 2.31317 0.0526 l 3.44e-4,0.0515 3.44e-4,0.0497 3.44e-4,0.049 0.0011,0.0476 0.0011,0.0466 0.0014,0.0455 0.0014,0.0444 0.0014,0.043 0.0021,0.042 0.0018,0.0406 0.0025,0.0399 0.0021,0.0381 0.0025,0.0374 0.0028,0.036 0.0028,0.0349 0.0035,0.0335 0.0028,0.0324 0.0035,0.031 0.0039,0.0303 0.0039,0.0286 0.0039,0.0279 0.0042,0.0265 0.0042,0.0251 0.0049,0.024 0.0046,0.0226 0.0049,0.0215 0.0049,0.0201 0.0049,0.019 0.0053,0.0176 0.0053,0.0162 0.0056,0.0148 0.01164,0.0289 0.01341,0.0275 0.01446,0.0258 0.01588,0.0247 0.01658,0.0229 0.01834,0.0215 0.0194,0.0205 0.02082,0.019 0.02222,0.0176 0.02328,0.0166 0.02469,0.0152 0.02646,0.0141 0.02787,0.0127 0.02928,0.0116 0.03069,0.0102 0.07161,0.0201 v 0.14605 l -0.08608,-0.004 -0.0314,-0.001 -0.03104,-0.001 -0.03069,-10e-4 -0.03034,-0.001 -0.02963,-0.001 -0.02963,-10e-4 -0.02858,-0.001 -0.02822,-0.001 -0.02787,-7.2e-4 -0.02752,-0.001 -0.02681,-7.1e-4 -0.02681,-7.2e-4 -0.02575,-7.1e-4 -0.0254,-7.1e-4 -0.02505,-7.2e-4 -0.02505,-7.1e-4 -0.02399,-7.2e-4 -0.02399,-3.4e-4 -0.02364,-3.4e-4 -0.02293,-3.5e-4 -0.02258,-7.1e-4 -0.02222,-3.5e-4 -0.02187,-3.4e-4 h -0.02152 l -0.02117,-3.5e-4 h -0.02046 -0.02011 l -0.02011,-3.4e-4 h -0.01905 -0.01905 -0.04092 -0.02258 -0.02223 l -0.02258,3.4e-4 h -0.02258 -0.02258 l -0.02258,3.5e-4 h -0.02293 l -0.02222,3.4e-4 -0.02293,3.5e-4 -0.02258,7.1e-4 -0.02258,3.5e-4 -0.02258,3.4e-4 -0.02258,3.4e-4 -0.02293,7.2e-4 -0.02258,7.1e-4 -0.02293,7.2e-4 -0.02258,7.1e-4 -0.02328,7.1e-4 -0.02293,7.2e-4 -0.02328,7.1e-4 -0.02328,0.001 -0.02328,7.2e-4 -0.02363,0.001 -0.02328,0.001 -0.02399,10e-4 -0.02328,0.001 -0.02399,0.001 -0.02399,10e-4 -0.02363,0.001 -0.02363,0.001 z m 2.325511,-0.68792 0.0071,-0.0279 0.0071,-0.0293 0.0064,-0.0307 0.0063,-0.0325 0.006,-0.0332 0.0056,-0.0349 0.0056,-0.0363 0.0053,-0.0378 0.0053,-0.0388 0.0046,-0.0402 0.0049,-0.042 0.0042,-0.043 0.0042,-0.0441 0.0039,-0.0459 0.0035,-0.0469 0.0035,-0.0487 0.0032,-0.0494 0.0028,-0.0512 0.0028,-0.0526 0.0024,-0.054 0.0021,-0.055 0.0019,-0.0564 0.0019,-0.0575 0.0013,-0.0593 0.0011,-0.0607 7.93e-4,-0.0617 7.94e-4,-0.0631 2.65e-4,-0.0642 2.64e-4,-0.066 v -1.48167 l -7.93e-4,-0.054 -0.0011,-0.0512 -0.0013,-0.049 -0.0028,-0.0466 -0.0035,-0.0444 -0.0039,-0.0416 -0.0049,-0.0392 -0.0056,-0.0367 -0.0064,-0.0346 -0.0067,-0.0318 -0.0078,-0.0296 -0.0078,-0.0268 -0.0088,-0.0243 -0.0092,-0.0215 -0.0095,-0.0191 -0.01024,-0.0169 -0.01093,-0.0159 -0.01236,-0.0159 -0.01341,-0.0159 -0.01447,-0.0152 -0.01587,-0.0148 -0.01728,-0.0148 -0.01834,-0.0145 -0.01939,-0.0141 -0.02082,-0.0138 -0.02188,-0.0134 -0.02363,-0.0134 -0.02434,-0.0123 -0.02574,-0.0127 -0.02717,-0.012 -0.02822,-0.0116 -0.0635,-0.0243 v -0.1404 h 0.06703 0.01588 l 0.01587,3.4e-4 h 0.01659 l 0.01693,3.5e-4 0.01693,3.4e-4 0.01728,3.4e-4 0.01799,3.5e-4 0.01799,7.1e-4 0.01834,3.5e-4 0.01905,3.4e-4 0.01871,7.1e-4 0.01976,7.2e-4 0.01976,7.1e-4 0.01976,7.2e-4 0.02082,7.1e-4 0.03881,0.002 0.03563,10e-4 0.03175,10e-4 0.02822,0.001 0.02434,7.2e-4 0.02117,7.1e-4 0.01659,3.4e-4 h 0.01341 0.0071 0.0088 l 0.01976,-3.4e-4 0.01164,-3.4e-4 0.01304,-3.5e-4 0.0141,-3.4e-4 0.01553,-3.5e-4 0.01622,-3.4e-4 0.01765,-7.1e-4 0.01905,-3.5e-4 0.01939,-7.1e-4 0.02117,-7.2e-4 0.02223,-7.1e-4 0.02294,-10e-4 0.02469,-7.2e-4 0.01799,-3.4e-4 0.01765,-3.4e-4 0.01693,-3.5e-4 0.01622,-3.4e-4 0.01588,-3.5e-4 0.01553,-3.4e-4 0.01516,-7.1e-4 0.01482,-3.5e-4 0.0141,-3.4e-4 0.0141,-3.5e-4 0.01376,-3.4e-4 0.0127,-7.1e-4 0.01236,-3.5e-4 0.01199,-3.4e-4 0.0113,-3.5e-4 0.03669,-10e-4 0.07408,0.0864 0.0575,0.0667 0.0568,0.0663 0.05644,0.0656 0.05609,0.0646 0.05574,0.0646 0.05574,0.0635 0.05468,0.0631 0.05433,0.0621 0.05433,0.0621 0.05362,0.061 0.05292,0.0607 0.05327,0.0596 0.05221,0.0596 0.05221,0.0586 0.05115,0.0582 0.05151,0.0571 0.05045,0.0572 0.05045,0.0561 0.04974,0.0557 0.04939,0.0547 0.04939,0.0547 0.04833,0.0536 0.04833,0.0533 0.04798,0.0522 0.04727,0.0519 0.04657,0.0515 0.04657,0.0504 0.04621,0.0501 0.04586,0.0497 0.04515,0.0487 0.04516,0.0483 0.04445,0.0476 0.04445,0.0473 0.04445,0.0473 0.04445,0.0473 0.0441,0.0469 0.04445,0.0466 0.04409,0.0462 0.04445,0.0462 0.0441,0.0459 0.0441,0.0459 0.0441,0.0455 0.0441,0.0452 0.0441,0.0448 0.04374,0.0452 0.0441,0.0444 0.04374,0.0445 0.04374,0.0437 0.04375,0.0441 0.04374,0.0437 0.04374,0.0434 0.04375,0.043 0.04339,0.043 0.04374,0.043 0.04339,0.0423 0.04339,0.0423 0.04339,0.042 0.04339,0.0423 0.04304,0.0413 0.04339,0.0413 0.04127,0.0399 v -1.35713 -0.0596 l -2.65e-4,-0.0582 -2.64e-4,-0.0568 -7.94e-4,-0.0557 -0.0011,-0.0543 -0.0013,-0.0529 -0.0013,-0.0522 -0.0019,-0.0504 -0.0021,-0.0494 -0.0024,-0.048 -0.0024,-0.0469 -0.0024,-0.0455 -0.0028,-0.0441 -0.0032,-0.043 -0.0035,-0.0416 -0.0035,-0.0402 -0.0039,-0.0388 -0.0042,-0.0381 -0.0042,-0.0363 -0.0042,-0.0353 -0.0049,-0.0342 -0.0053,-0.0325 -0.0046,-0.0314 -0.0056,-0.03 -0.006,-0.0286 -0.0056,-0.0272 -0.006,-0.0261 -0.006,-0.0247 -0.0067,-0.0233 -0.0064,-0.0219 -0.0067,-0.0205 -0.0071,-0.019 -0.01516,-0.0374 -0.01622,-0.036 -0.01799,-0.0346 -0.01939,-0.0332 -0.02082,-0.0318 -0.02223,-0.0307 -0.02363,-0.0293 -0.0254,-0.0282 -0.02646,-0.0268 -0.02787,-0.0254 -0.02963,-0.0247 -0.03105,-0.0233 -0.03281,-0.0219 -0.03387,-0.0212 -0.03563,-0.0194 -0.06703,-0.0335 v -0.13053 l 0.0628,7.1e-4 0.0127,3.5e-4 0.01376,3.4e-4 0.01447,7.2e-4 0.01588,0.001 0.01693,10e-4 0.01799,10e-4 0.01799,10e-4 0.04233,0.003 0.04163,0.002 0.04022,0.002 0.0381,0.002 0.03634,0.002 0.03493,0.002 0.03351,10e-4 0.03139,10e-4 0.02963,10e-4 0.02822,0.001 0.02611,7.1e-4 0.02469,10e-4 0.02294,3.4e-4 0.02082,3.5e-4 0.01939,3.4e-4 h 0.01765 0.01376 0.01447 l 0.01482,-3.4e-4 h 0.01553 l 0.01587,-3.5e-4 0.01622,-3.4e-4 0.01659,-3.4e-4 h 0.01693 l 0.01765,-7.2e-4 0.01834,-3.4e-4 0.01905,-7.2e-4 0.01871,-7.1e-4 0.01976,-3.4e-4 0.02011,-0.001 0.02045,-3.5e-4 0.02117,-10e-4 0.02117,-7.1e-4 0.02222,-7.2e-4 0.02257,-10e-4 0.02294,-0.001 0.02328,-10e-4 0.02434,-10e-4 0.024,-10e-4 0.02469,-0.001 0.0254,-10e-4 0.02612,-10e-4 0.02611,-0.001 0.02681,-10e-4 0.02681,-10e-4 0.02787,-0.001 0.02822,-10e-4 0.02999,-0.002 h 0.07585 v 0.13265 l -0.07126,0.03 -0.03669,0.0176 -0.03528,0.0194 -0.03387,0.0208 -0.03175,0.0226 -0.03034,0.024 -0.02928,0.0258 -0.02717,0.0272 -0.02612,0.0289 -0.02434,0.0307 -0.02294,0.0321 -0.02151,0.0339 -0.02011,0.0356 -0.01871,0.0374 -0.01693,0.0392 -0.01553,0.0413 -0.0074,0.0212 -0.0071,0.0229 -0.0071,0.0243 -0.0063,0.0261 -0.0071,0.0272 -0.0064,0.0289 -0.006,0.0307 -0.006,0.0318 -0.0053,0.0332 -0.0056,0.0349 -0.0053,0.036 -0.0049,0.0377 -0.0046,0.0395 -0.0046,0.0402 -0.0042,0.0423 -0.0039,0.0434 -0.0042,0.0448 -0.0035,0.0462 -0.0028,0.0476 -0.0032,0.049 -0.0032,0.0504 -0.0024,0.0522 -0.0024,0.0536 -0.0019,0.0547 -0.0019,0.0561 -0.0019,0.0575 -0.0013,0.0593 -0.0011,0.0603 -7.94e-4,0.0617 -7.93e-4,0.0635 -2.65e-4,0.0646 v 0.0663 2.58409 h -0.136525 l -0.07444,-0.0924 -0.06032,-0.0751 -0.06314,-0.0769 -0.06491,-0.0787 -0.06668,-0.0811 -0.06914,-0.0825 -0.07091,-0.0843 -0.07267,-0.0864 -0.07514,-0.0885 -0.0769,-0.0903 -0.07902,-0.0921 -0.08149,-0.0942 -0.0829,-0.096 -0.08537,-0.0981 -0.08714,-0.0998 -0.08925,-0.1016 -0.09137,-0.10371 -0.09349,-0.10548 -0.09525,-0.1076 -0.09737,-0.10901 -0.09984,-0.11148 -0.1016,-0.11289 -0.103362,-0.115 -0.105129,-0.11712 -0.10795,-0.11889 -0.109712,-0.12065 -0.11148,-0.12241 -0.113945,-0.12453 -0.115713,-0.1263 -0.117475,-0.12841 -0.119944,-0.13017 -0.12206,-0.1323 -0.02611,-0.0282 -0.02574,-0.0282 -0.0254,-0.0275 -0.02506,-0.0268 -0.02434,-0.0268 -0.02434,-0.0261 -0.02328,-0.0258 -0.02363,-0.0254 -0.02257,-0.025 -0.02257,-0.0243 -0.02188,-0.024 -0.02188,-0.0233 -0.02117,-0.0233 -0.02082,-0.0226 -0.02011,-0.0222 -0.01976,-0.0215 -0.01976,-0.0212 -0.01905,-0.0208 -0.01871,-0.0205 -0.01833,-0.0198 -0.01799,-0.0198 -0.01693,-0.019 -0.01693,-0.0187 -0.01659,-0.018 -0.01622,-0.0176 -0.0113,-0.0123 v 1.54059 0.0808 l 2.65e-4,0.0787 7.94e-4,0.0769 0.0011,0.0748 0.0011,0.0734 0.0011,0.0709 0.0013,0.0695 0.0021,0.0677 0.0021,0.0656 0.0024,0.0638 0.0024,0.0621 0.0032,0.06 0.0024,0.0582 0.0035,0.0564 0.0039,0.0543 0.0039,0.0526 0.0039,0.0508 0.0042,0.049 0.0046,0.0466 0.0046,0.0452 0.0049,0.0434 0.0056,0.0413 0.0049,0.0395 0.006,0.0374 0.006,0.0356 0.006,0.0335 0.0063,0.0321 0.0064,0.0296 0.0071,0.0279 0.0067,0.0257 0.0074,0.024 0.0067,0.0219 0.01588,0.0416 0.01693,0.0395 0.01799,0.0374 0.01976,0.0353 0.02082,0.0332 0.02222,0.031 0.02328,0.0293 0.02469,0.0268 0.02611,0.025 0.02752,0.0229 0.02858,0.0212 0.03034,0.0198 0.0314,0.0173 0.03281,0.0155 0.03493,0.0138 0.07338,0.0243 v 0.14217 h -1.425224 v -0.14359 l 0.07549,-0.0219 0.03457,-0.0127 0.03351,-0.0148 0.03175,-0.0169 0.03034,-0.0187 0.02928,-0.0212 0.02752,-0.0233 0.02646,-0.0258 0.0254,-0.0279 0.024,-0.0303 0.02257,-0.0328 0.02151,-0.0349 0.02011,-0.0378 0.01871,-0.0399 0.01765,-0.0427 0.01622,-0.0448 0.0071,-0.0236 0.0074,-0.0254 z m 5.74675,-0.7045 2.64e-4,0.0444 2.65e-4,0.0434 7.94e-4,0.042 7.94e-4,0.0416 0.0011,0.0399 0.0011,0.0392 0.0013,0.0378 0.0013,0.037 0.0013,0.0356 0.0019,0.0346 0.0013,0.0335 0.0021,0.0325 0.0019,0.0314 0.0019,0.03 0.0021,0.0289 0.0021,0.0275 0.0024,0.0265 0.0021,0.0247 0.0024,0.0236 0.0021,0.0226 0.0028,0.0212 0.0024,0.0194 0.0028,0.0187 0.0028,0.0169 0.0028,0.0155 0.0024,0.0145 0.0028,0.013 0.0035,0.012 0.0064,0.025 0.0067,0.0222 0.0078,0.0215 0.0088,0.0201 0.0092,0.019 0.01058,0.0183 0.01093,0.0173 0.01236,0.0162 0.0127,0.0152 0.01376,0.0148 0.01482,0.0134 0.01587,0.013 0.01659,0.012 0.01799,0.0109 0.01834,0.0102 0.02045,0.01 0.0099,0.004 0.0113,0.004 0.01164,0.004 0.01236,0.004 0.01341,0.004 0.0141,0.004 0.01482,0.004 0.01553,0.004 0.01622,0.004 0.01728,0.003 0.01799,0.004 0.01799,0.003 0.01939,0.003 0.02011,0.003 0.02045,0.003 0.02151,0.002 0.02188,0.003 0.02294,0.002 0.02328,0.002 0.02469,0.002 0.02469,0.002 0.0254,0.001 0.02611,0.002 0.02716,0.001 0.02787,0.001 0.02822,10e-4 0.02928,7.2e-4 0.02963,7.1e-4 0.03069,3.4e-4 0.03069,3.5e-4 0.03175,3.4e-4 h 0.03246 l 0.05962,-3.4e-4 0.05856,-0.001 0.0575,-0.003 0.0568,-0.004 0.05574,-0.005 0.05539,-0.006 0.05362,-0.007 0.05327,-0.008 0.05221,-0.009 0.05115,-0.01 0.05045,-0.0106 0.04974,-0.012 0.04833,-0.0127 0.04798,-0.0138 0.04692,-0.0152 0.04586,-0.0159 0.04515,-0.0169 0.0441,-0.0176 0.04339,-0.0191 0.04233,-0.0198 0.04163,-0.0212 0.04057,-0.0219 0.03986,-0.0229 0.03881,-0.024 0.0381,-0.0251 0.03739,-0.0261 0.03634,-0.0268 0.03563,-0.0279 0.03492,-0.0293 0.03352,-0.03 0.03352,-0.031 0.0321,-0.0321 0.0314,-0.0332 0.02999,-0.0335 0.02928,-0.0349 0.02822,-0.0356 0.02716,-0.0363 0.02646,-0.0374 0.02506,-0.0384 0.02468,-0.0388 0.02294,-0.0399 0.02257,-0.0409 0.02117,-0.042 0.02082,-0.0423 0.01905,-0.0437 0.01871,-0.0444 0.01728,-0.0455 0.01659,-0.0459 0.0155,-0.0473 0.0145,-0.048 0.0134,-0.0494 0.0127,-0.0497 0.0113,-0.0508 0.0106,-0.0519 0.01,-0.0526 0.009,-0.0536 0.007,-0.0547 0.006,-0.0554 0.006,-0.0564 0.005,-0.0571 0.003,-0.0582 0.002,-0.0589 0.002,-0.0603 2.6e-4,-0.0607 -2.6e-4,-0.0642 -0.002,-0.0624 -0.002,-0.0617 -0.003,-0.0607 -0.005,-0.0596 -0.006,-0.0582 -0.006,-0.0568 -0.008,-0.0557 -0.008,-0.055 -0.01,-0.0536 -0.0109,-0.0526 -0.0116,-0.0515 -0.0127,-0.0501 -0.0134,-0.049 -0.0148,-0.048 -0.0155,-0.0466 -0.01659,-0.0459 -0.01765,-0.0444 -0.01871,-0.0434 -0.01939,-0.0423 -0.02082,-0.0413 -0.02117,-0.0399 -0.02257,-0.0392 -0.02328,-0.0378 -0.02506,-0.037 -0.02506,-0.0353 -0.02646,-0.0346 -0.02752,-0.0335 -0.02822,-0.0325 -0.02928,-0.031 -0.03069,-0.0303 -0.0314,-0.0293 -0.03246,-0.0282 -0.03352,-0.0272 -0.03493,-0.0268 -0.03598,-0.0254 -0.03739,-0.0247 -0.03845,-0.024 -0.03986,-0.0229 -0.04127,-0.0219 -0.04233,-0.0215 -0.04374,-0.0205 -0.0448,-0.0194 -0.04621,-0.0183 -0.04798,-0.0176 -0.04833,-0.0169 -0.0501,-0.0162 -0.0515,-0.0148 -0.05292,-0.0141 -0.05362,-0.013 -0.05539,-0.0123 -0.05645,-0.0116 -0.05785,-0.0102 -0.05927,-0.01 -0.06033,-0.009 -0.06138,-0.008 -0.06315,-0.007 -0.06421,-0.006 -0.06526,-0.005 -0.06703,-0.004 -0.06809,-0.003 -0.06914,-0.002 -0.07056,-10e-4 -0.07232,-3.5e-4 h -0.02724 -0.02681 -0.02681 l -0.02681,3.5e-4 -0.02681,3.4e-4 h -0.02611 l -0.02681,7.2e-4 -0.0508,7.1e-4 -0.02574,7.1e-4 -0.0254,7.2e-4 -0.02506,3.4e-4 -0.02506,7.2e-4 -0.02469,7.1e-4 -0.02434,7.2e-4 -0.02506,0.001 -0.02434,7.1e-4 -0.024,7.2e-4 -0.02434,10e-4 -0.02363,0.001 -0.024,10e-4 -0.024,10e-4 -0.02363,0.001 -0.02363,10e-4 -0.02328,10e-4 -0.02294,0.001 -0.02363,10e-4 -0.02257,10e-4 -0.02328,0.001 -0.01871,10e-4 v 2.61267 0.049 l 2.64e-4,0.0473 2.65e-4,0.0469 z m -1.032227,1.21673 0.02681,-0.0106 0.0254,-0.0116 0.02434,-0.0127 0.02294,-0.0141 0.02151,-0.0148 0.02045,-0.0159 0.01905,-0.0166 0.01834,-0.018 0.01622,-0.019 0.01553,-0.0201 0.01447,-0.0212 0.01376,-0.0222 0.01236,-0.0236 0.0113,-0.0247 0.0046,-0.0127 0.0049,-0.0141 0.0049,-0.0159 0.0049,-0.0169 0.0042,-0.0187 0.0046,-0.0201 0.0046,-0.0215 0.0042,-0.0226 0.0039,-0.024 0.0042,-0.0254 0.0039,-0.0268 0.0035,-0.0282 0.0032,-0.0293 0.0035,-0.0307 0.0032,-0.0321 0.0028,-0.0332 0.0028,-0.0346 0.0028,-0.0356 0.0024,-0.037 0.0021,-0.0388 0.0021,-0.0395 0.0021,-0.0409 0.0011,-0.0423 0.0019,-0.0434 0.0013,-0.0448 0.0013,-0.0462 0.0011,-0.0473 7.94e-4,-0.0487 7.94e-4,-0.0501 2.64e-4,-0.0512 2.65e-4,-0.0526 v -0.0536 -2.30858 l -2.65e-4,-0.0325 -0.0011,-0.0314 -0.0013,-0.0296 -0.0024,-0.0286 -0.0028,-0.0275 -0.0028,-0.0261 -0.0042,-0.0247 -0.0046,-0.0236 -0.0049,-0.0226 -0.006,-0.0212 -0.0064,-0.0198 -0.0067,-0.0183 -0.0071,-0.0173 -0.0078,-0.0162 -0.0081,-0.0148 -0.0085,-0.0138 -0.0088,-0.0131 -0.0099,-0.012 -0.01024,-0.0113 -0.0113,-0.0113 -0.01199,-0.0102 -0.01341,-0.01 -0.01376,-0.01 -0.01482,-0.009 -0.01588,-0.009 -0.01622,-0.008 -0.01799,-0.007 -0.01871,-0.007 -0.01976,-0.006 -0.02045,-0.005 -0.02151,-0.005 -0.06668,-0.0116 v -0.14858 h 0.948618 0.02257 0.02328 l 0.02469,-3.5e-4 h 0.02611 0.02716 0.02857 0.02963 0.03105 l 0.03245,-3.4e-4 0.03352,-3.4e-4 0.03492,-3.5e-4 h 0.03563 l 0.03775,-7.1e-4 h 0.03845 l 0.03986,-3.5e-4 0.04092,-7.1e-4 0.04092,-3.4e-4 0.03951,-3.5e-4 0.03845,-3.4e-4 0.03704,-3.5e-4 0.03563,-3.4e-4 0.03387,-3.4e-4 0.03281,-3.5e-4 h 0.03175 l 0.02998,-3.4e-4 h 0.02858 l 0.02752,-3.5e-4 h 0.02574 l 0.02468,-3.4e-4 h 0.02294 0.02223 0.02011 0.04445 l 0.04374,3.4e-4 0.04374,7.2e-4 0.04269,7.1e-4 0.04268,7.2e-4 0.04198,10e-4 0.04127,10e-4 0.04057,0.002 0.04022,10e-4 0.03986,0.002 0.03916,0.002 0.03845,0.002 0.03845,0.002 0.0374,0.003 0.03739,0.003 0.03669,0.003 0.03598,0.003 0.03528,0.004 0.03528,0.004 0.03457,0.004 0.03387,0.004 0.03351,0.005 0.03281,0.005 0.03245,0.005 0.03175,0.005 0.0314,0.005 0.03104,0.005 0.03034,0.006 0.02963,0.006 0.02928,0.006 0.02893,0.006 0.02822,0.007 0.02787,0.007 0.02752,0.007 0.02787,0.007 0.02681,0.008 0.02716,0.008 0.02681,0.008 0.02646,0.008 0.02646,0.009 0.02681,0.009 0.02611,0.009 0.02574,0.01 0.0254,0.01 0.02612,0.009 0.02506,0.0102 0.0254,0.0106 0.02506,0.0106 0.02468,0.0109 0.02434,0.0113 0.02434,0.0113 0.02468,0.0116 0.024,0.012 0.024,0.0123 0.02363,0.0127 0.02328,0.0127 0.02328,0.013 0.02294,0.0134 0.02294,0.0134 0.02257,0.0138 0.02257,0.0141 0.0222,0.0145 0.0222,0.0145 0.0215,0.0152 0.0261,0.018 0.0261,0.0183 0.0251,0.0187 0.0251,0.0187 0.0243,0.0194 0.0243,0.0198 0.024,0.0198 0.0236,0.0198 0.0229,0.0205 0.0226,0.0208 0.0222,0.0208 0.0219,0.0212 0.0215,0.0215 0.0212,0.0215 0.0204,0.0222 0.0208,0.0222 0.0194,0.0226 0.0198,0.0229 0.019,0.0233 0.0191,0.0233 0.018,0.0236 0.018,0.024 0.0173,0.0243 0.0173,0.0247 0.0169,0.0247 0.0159,0.0254 0.0159,0.0251 0.0155,0.0261 0.0152,0.0258 0.0145,0.0261 0.0145,0.0265 0.0138,0.0268 0.0134,0.0272 0.0134,0.0272 0.0127,0.0275 0.012,0.0275 0.0116,0.0279 0.0113,0.0279 0.0109,0.0282 0.0106,0.0289 0.01,0.0286 0.01,0.0289 0.009,0.0289 0.009,0.0296 0.008,0.0293 0.007,0.03 0.008,0.03 0.007,0.0303 0.007,0.0303 0.006,0.0307 0.006,0.031 0.005,0.0307 0.005,0.0314 0.005,0.0318 0.004,0.0314 0.004,0.0321 0.003,0.0321 0.003,0.0325 0.002,0.0325 0.002,0.0328 0.001,0.0332 10e-4,0.0328 7.9e-4,0.0335 v 0.0339 0.0321 l -7.9e-4,0.0318 -8e-4,0.0318 -0.001,0.0318 -0.002,0.0314 -0.002,0.0314 -0.002,0.031 -0.003,0.0314 -0.003,0.031 -0.004,0.0307 -0.004,0.0303 -0.004,0.0307 -0.004,0.0303 -0.005,0.0303 -0.005,0.0303 -0.005,0.03 -0.006,0.03 -0.006,0.0296 -0.007,0.0296 -0.007,0.0296 -0.007,0.0293 -0.008,0.0289 -0.008,0.0289 -0.008,0.0289 -0.009,0.0289 -0.009,0.0286 -0.01,0.0286 -0.01,0.0282 -0.01,0.0282 -0.0106,0.0282 -0.0113,0.0279 -0.0109,0.0279 -0.012,0.0275 -0.012,0.0275 -0.012,0.0272 -0.013,0.0268 -0.013,0.0268 -0.013,0.0265 -0.0138,0.0261 -0.0138,0.0261 -0.0141,0.0254 -0.0145,0.0258 -0.0152,0.0251 -0.0148,0.0254 -0.0155,0.0247 -0.0159,0.0247 -0.0162,0.0243 -0.0162,0.024 -0.0166,0.024 -0.0169,0.0236 -0.0177,0.0233 -0.0177,0.0229 -0.018,0.0229 -0.018,0.0229 -0.0187,0.0222 -0.0191,0.0222 -0.019,0.0219 -0.0194,0.0219 -0.0201,0.0212 -0.0201,0.0212 -0.0204,0.0208 -0.0208,0.0208 -0.0208,0.0201 -0.0215,0.0205 -0.0219,0.0205 -0.0226,0.0198 -0.0222,0.0198 -0.0229,0.019 -0.0229,0.0187 -0.0236,0.0187 -0.0233,0.0183 -0.0236,0.018 -0.0243,0.0176 -0.024,0.0169 -0.02434,0.0166 -0.02506,0.0166 -0.02469,0.0162 -0.02506,0.0155 -0.02574,0.0155 -0.0254,0.0148 -0.02611,0.0148 -0.02574,0.0145 -0.02681,0.0138 -0.02611,0.0138 -0.02681,0.0134 -0.02681,0.0127 -0.02716,0.0123 -0.02752,0.0123 -0.02822,0.012 -0.02787,0.0113 -0.02787,0.0113 -0.02822,0.0106 -0.02857,0.0106 -0.02893,0.0102 -0.02893,0.009 -0.02928,0.01 -0.02963,0.009 -0.03034,0.009 -0.03069,0.008 -0.03104,0.008 -0.0314,0.008 -0.03175,0.008 -0.03245,0.007 -0.03281,0.007 -0.03351,0.007 -0.03352,0.006 -0.03422,0.006 -0.03493,0.006 -0.03493,0.006 -0.03563,0.005 -0.03598,0.005 -0.03669,0.005 -0.03669,0.005 -0.03775,0.004 -0.03739,0.004 -0.03845,0.004 -0.03881,0.003 -0.03916,0.003 -0.03986,0.003 -0.04022,0.002 -0.04022,0.002 -0.04127,0.002 -0.04198,0.001 -0.04163,10e-4 -0.04268,0.001 -0.04269,7.1e-4 -0.04339,7.2e-4 h -0.04375 -0.02328 l -0.02506,-3.5e-4 -0.02646,-3.4e-4 -0.02822,-3.5e-4 -0.03034,-7.1e-4 -0.03175,-7.2e-4 -0.03316,-7.1e-4 -0.03528,-7.1e-4 -0.03704,-0.001 -0.03881,-10e-4 -0.04022,-0.001 -0.04198,-0.002 -0.0441,-0.001 -0.04551,-0.002 -0.04727,-0.002 -0.04903,-0.002 -0.04904,-0.002 -0.04762,-0.001 -0.04657,-0.002 -0.04515,-0.001 -0.04339,-0.001 -0.04198,-10e-4 -0.04057,-0.001 -0.03916,-0.001 -0.03775,-10e-4 -0.03669,-7.2e-4 -0.03492,-7.1e-4 -0.03351,-7.2e-4 -0.0321,-3.4e-4 h -0.03104 l -0.02928,-3.5e-4 h -0.02752 -0.0388 -0.0381 -0.03669 l -0.03634,3.5e-4 h -0.03492 -0.03422 l -0.03316,3.4e-4 h -0.03188 l -0.0314,3.5e-4 -0.03034,3.4e-4 -0.02963,7.1e-4 -0.02858,3.5e-4 -0.02752,3.4e-4 -0.02681,3.5e-4 -0.02574,7.1e-4 -0.02469,7.2e-4 -0.02434,7.1e-4 -0.02434,7.1e-4 -0.024,7.2e-4 -0.04692,0.001 -0.02469,10e-4 -0.0254,0.001 -0.04516,0.002 -0.02328,0.001 -0.02294,10e-4 -0.02328,0.001 -0.02257,0.001 -0.02294,10e-4 -0.02222,0.001 -0.07408,0.004 -0.0095,-0.1457 0.07091,-0.0205 z m 5.976053,-2.07751 2.6e-4,0.0621 10e-4,0.0614 0.002,0.0603 0.003,0.0596 0.004,0.0586 0.005,0.0579 0.006,0.0568 0.006,0.0561 0.008,0.055 0.009,0.0543 0.009,0.0536 0.01,0.0522 0.0109,0.0519 0.012,0.0508 0.0127,0.0501 0.0138,0.049 0.0148,0.048 0.0152,0.0473 0.0166,0.0466 0.0173,0.0455 0.018,0.0444 0.0191,0.0441 0.0198,0.043 0.0208,0.042 0.0215,0.0409 0.0226,0.0406 0.0229,0.0395 0.0243,0.0384 0.0251,0.0378 0.0257,0.037 0.0268,0.036 0.0279,0.0356 0.0286,0.0342 0.0289,0.0332 0.0296,0.0321 0.0303,0.031 0.0303,0.03 0.0318,0.0289 0.0321,0.0275 0.0328,0.0265 0.0339,0.0258 0.0335,0.024 0.0349,0.0236 0.0353,0.0222 0.0363,0.0208 0.037,0.0205 0.037,0.0191 0.0381,0.018 0.0388,0.0166 0.0392,0.0159 0.0402,0.0145 0.0409,0.0134 0.0413,0.0127 0.0423,0.0113 0.0427,0.0106 0.0437,0.009 0.0441,0.008 0.0448,0.007 0.0459,0.006 0.0462,0.005 0.0469,0.004 0.048,0.003 0.0487,0.002 0.0494,3.5e-4 0.0476,-3.5e-4 0.0473,-0.002 0.0462,-0.003 0.0459,-0.004 0.0452,-0.005 0.0448,-0.006 0.0438,-0.007 0.043,-0.009 0.0427,-0.009 0.042,-0.0102 0.0413,-0.0116 0.0406,-0.0127 0.0402,-0.0138 0.0392,-0.0148 0.0388,-0.0159 0.0384,-0.0166 0.0374,-0.0183 0.0374,-0.0187 0.036,-0.0205 0.036,-0.0212 0.0349,-0.0226 0.0349,-0.0233 0.0342,-0.0247 0.0335,-0.0257 0.0325,-0.0268 0.0325,-0.0279 0.0317,-0.0293 0.031,-0.03 0.0307,-0.0314 0.03,-0.0324 0.0296,-0.0339 0.0289,-0.0346 0.0279,-0.0356 0.0272,-0.0363 0.0261,-0.0374 0.0251,-0.0381 0.0247,-0.0388 0.0236,-0.0395 0.0229,-0.0406 0.0215,-0.0409 0.0212,-0.0423 0.0198,-0.043 0.0194,-0.0437 0.0183,-0.0445 0.0173,-0.0452 0.0166,-0.0462 0.0155,-0.0473 0.0148,-0.0476 0.0138,-0.0487 0.0134,-0.0494 0.012,-0.0501 0.0113,-0.0511 0.0102,-0.0522 0.01,-0.0526 0.008,-0.054 0.008,-0.054 0.007,-0.0554 0.006,-0.0564 0.005,-0.0568 0.004,-0.0575 0.003,-0.0589 0.002,-0.0593 10e-4,-0.0603 2.7e-4,-0.061 -2.7e-4,-0.0624 -10e-4,-0.061 -0.002,-0.0607 -0.003,-0.0596 -0.004,-0.0586 -0.005,-0.0579 -0.006,-0.0568 -0.007,-0.0561 -0.007,-0.055 -0.008,-0.0543 -0.01,-0.0533 -0.01,-0.0526 -0.0109,-0.0515 -0.012,-0.0504 -0.013,-0.0501 -0.0138,-0.0487 -0.0145,-0.0483 -0.0155,-0.0473 -0.0162,-0.0462 -0.0169,-0.0452 -0.018,-0.0444 -0.019,-0.0437 -0.0198,-0.0427 -0.0204,-0.042 -0.0215,-0.0409 -0.0222,-0.0402 -0.0233,-0.0395 -0.024,-0.0381 -0.0247,-0.0378 -0.0257,-0.0367 -0.0268,-0.036 -0.0275,-0.0349 -0.0282,-0.0339 -0.0289,-0.0332 -0.0296,-0.0318 -0.0303,-0.0307 -0.031,-0.0296 -0.0314,-0.0286 -0.0321,-0.0275 -0.0328,-0.0265 -0.0335,-0.0251 -0.0342,-0.0243 -0.0346,-0.0229 -0.0356,-0.0222 -0.0356,-0.0208 -0.037,-0.0198 -0.037,-0.0191 -0.0384,-0.0173 -0.0388,-0.0169 -0.0395,-0.0155 -0.0402,-0.0145 -0.0409,-0.0134 -0.0413,-0.0123 -0.0423,-0.0113 -0.043,-0.0106 -0.0434,-0.009 -0.0448,-0.008 -0.0452,-0.007 -0.0455,-0.006 -0.0466,-0.005 -0.0476,-0.004 -0.0476,-0.002 -0.049,-0.002 -0.0494,-7.1e-4 -0.0497,7.1e-4 -0.0494,0.002 -0.0487,0.002 -0.0476,0.004 -0.0469,0.005 -0.0462,0.006 -0.0455,0.007 -0.0448,0.008 -0.0441,0.009 -0.043,0.01 -0.0427,0.0113 -0.0416,0.0123 -0.0413,0.0131 -0.0402,0.0141 -0.0392,0.0155 -0.0388,0.0162 -0.0384,0.0173 -0.0374,0.0187 -0.0367,0.0194 -0.0356,0.0205 -0.0356,0.0215 -0.0346,0.0229 -0.0335,0.0236 -0.0332,0.0247 -0.0328,0.0261 -0.0318,0.0268 -0.031,0.0279 -0.0303,0.0289 -0.0296,0.0303 -0.0289,0.031 -0.0286,0.0324 -0.0275,0.0335 -0.0268,0.0342 -0.0261,0.0349 -0.0251,0.0363 -0.0247,0.037 -0.0233,0.0381 -0.0226,0.0388 -0.0219,0.0399 -0.0212,0.0409 -0.0198,0.0413 -0.0194,0.0427 -0.0187,0.0437 -0.0177,0.0444 -0.0162,0.0452 -0.0162,0.0462 -0.0148,0.0473 -0.0145,0.048 -0.013,0.049 -0.013,0.0501 -0.0116,0.0508 -0.0106,0.0519 -0.01,0.0529 -0.009,0.0536 -0.008,0.0547 -0.008,0.0554 -0.006,0.0564 -0.006,0.0579 -0.005,0.0582 -0.004,0.0593 -0.003,0.0603 -0.002,0.0614 -10e-4,0.0621 z m -0.8008,-0.006 2.6e-4,-0.0631 0.002,-0.0621 0.003,-0.0614 0.005,-0.0607 0.006,-0.0603 0.007,-0.0596 0.008,-0.0589 0.0106,-0.0579 0.0113,-0.0575 0.013,-0.0571 0.0145,-0.0561 0.0155,-0.0554 0.0173,-0.055 0.0183,-0.054 0.0198,-0.0536 0.0215,-0.0526 0.0222,-0.0522 0.024,-0.0515 0.0251,-0.0508 0.0268,-0.0497 0.0279,-0.0497 0.0293,-0.0483 0.0311,-0.048 0.0321,-0.0473 0.0335,-0.0466 0.0346,-0.0459 0.0363,-0.0452 0.0374,-0.0441 0.0388,-0.0437 0.0402,-0.043 0.0413,-0.0423 0.043,-0.0413 0.0438,-0.0409 0.0448,-0.0392 0.0455,-0.0381 0.0462,-0.0367 0.0469,-0.0356 0.0476,-0.0342 0.0483,-0.0328 0.0494,-0.0318 0.0494,-0.0303 0.0508,-0.0293 0.0519,-0.0275 0.0519,-0.0265 0.0526,-0.0254 0.054,-0.024 0.0543,-0.0226 0.055,-0.0212 0.0557,-0.0201 0.0568,-0.0183 0.0571,-0.0176 0.0579,-0.0162 0.0586,-0.0148 0.0596,-0.0134 0.06,-0.0123 0.061,-0.0109 0.061,-0.009 0.0624,-0.009 0.0631,-0.007 0.0639,-0.006 0.0642,-0.004 0.0653,-0.004 0.0653,-10e-4 0.067,-7.1e-4 0.0667,7.1e-4 0.0667,0.002 0.0656,0.003 0.0649,0.005 0.0642,0.006 0.0635,0.007 0.0631,0.008 0.0621,0.01 0.061,0.0109 0.0607,0.0123 0.06,0.0134 0.0593,0.0152 0.0586,0.0162 0.0579,0.0173 0.0568,0.0191 0.0568,0.0201 0.0554,0.0215 0.055,0.0226 0.054,0.024 0.0536,0.0254 0.0522,0.0268 0.0522,0.0279 0.0508,0.0293 0.0508,0.0307 0.0494,0.0321 0.049,0.0328 0.048,0.0346 0.0473,0.0356 0.0466,0.037 0.0459,0.0385 0.0452,0.0399 0.0444,0.0409 0.043,0.042 0.042,0.0423 0.0406,0.0434 0.0392,0.0441 0.0377,0.0444 0.0367,0.0452 0.0349,0.0459 0.0339,0.0469 0.0325,0.0473 0.031,0.048 0.0296,0.0483 0.0286,0.0494 0.0265,0.0501 0.0257,0.0508 0.0243,0.0511 0.0226,0.0522 0.0215,0.0526 0.0198,0.0533 0.0187,0.0536 0.0173,0.0547 0.0159,0.055 0.0145,0.0561 0.0134,0.0564 0.0113,0.0572 0.0102,0.0579 0.009,0.0582 0.007,0.0589 0.006,0.06 0.005,0.0603 0.004,0.0607 0.002,0.0617 2.7e-4,0.0624 -2.7e-4,0.0617 -0.002,0.061 -0.003,0.0607 -0.005,0.06 -0.007,0.0596 -0.007,0.0589 -0.009,0.0582 -0.0106,0.0579 -0.0116,0.0572 -0.0134,0.0564 -0.0145,0.0561 -0.0162,0.0554 -0.0177,0.0547 -0.0191,0.054 -0.0201,0.0536 -0.0219,0.0533 -0.0229,0.0522 -0.0247,0.0519 -0.0261,0.0511 -0.0272,0.0504 -0.0289,0.0497 -0.03,0.049 -0.0318,0.0487 -0.0325,0.048 -0.0342,0.0476 -0.036,0.0466 -0.037,0.0462 -0.0385,0.0455 -0.0399,0.0448 -0.0409,0.0441 -0.0427,0.0434 -0.0437,0.043 -0.0452,0.042 -0.0459,0.0406 -0.0462,0.0395 -0.0469,0.0377 -0.0473,0.0367 -0.0483,0.0353 -0.049,0.0339 -0.0494,0.0332 -0.0505,0.031 -0.0512,0.03 -0.0515,0.0289 -0.0519,0.0272 -0.0529,0.0261 -0.0533,0.0247 -0.0547,0.0233 -0.0547,0.0222 -0.055,0.0208 -0.0561,0.0194 -0.0568,0.018 -0.0575,0.0166 -0.0582,0.0152 -0.0586,0.0141 -0.0589,0.0127 -0.0596,0.0113 -0.0607,0.0102 -0.0607,0.009 -0.0621,0.007 -0.0621,0.006 -0.0631,0.004 -0.0632,0.004 -0.0642,0.002 -0.0646,3.5e-4 -0.0667,-3.5e-4 -0.0656,-0.002 -0.0656,-0.003 -0.0642,-0.005 -0.0639,-0.006 -0.0631,-0.007 -0.0624,-0.008 -0.0617,-0.01 -0.0607,-0.0113 -0.0603,-0.0124 -0.0596,-0.0138 -0.0589,-0.0152 -0.0582,-0.0162 -0.0575,-0.0176 -0.0568,-0.0194 -0.0564,-0.0201 -0.0554,-0.0219 -0.0543,-0.0229 -0.054,-0.0243 -0.0533,-0.0258 -0.0522,-0.0268 -0.0522,-0.0282 -0.0508,-0.0296 -0.0504,-0.031 -0.0497,-0.0325 -0.0487,-0.0332 -0.048,-0.0349 -0.0476,-0.0363 -0.0466,-0.0374 -0.0455,-0.0384 -0.0452,-0.0402 -0.0444,-0.0413 -0.0434,-0.0423 -0.0423,-0.0434 -0.0406,-0.0437 -0.0392,-0.0448 -0.0377,-0.0448 -0.0367,-0.0459 -0.0353,-0.0469 -0.0335,-0.0469 -0.0325,-0.048 -0.031,-0.0487 -0.0296,-0.0494 -0.0286,-0.0497 -0.0268,-0.0508 -0.0254,-0.0511 -0.0243,-0.0519 -0.0226,-0.0526 -0.0215,-0.0533 -0.0201,-0.054 -0.0187,-0.0547 -0.0169,-0.055 -0.0162,-0.0561 -0.0145,-0.0564 -0.013,-0.0571 -0.0116,-0.0579 -0.0106,-0.0586 -0.009,-0.0593 -0.007,-0.0596 -0.006,-0.0603 -0.005,-0.0614 -0.003,-0.0614 -0.002,-0.0624 z" />
    <path
       id="path126"
       style="fill:#b8b7bd;fill-opacity:1;fill-rule:evenodd;stroke:none;stroke-width:0.352777"
       d="M 15.685344,0.7420321 C 21.290983,1.5943441 25.029016,6.1098991 25.0523,11.556785 24.228564,6.2566541 20.630936,2.8244801 15.685344,0.7420321" />
    <path
       id="path130"
       style="fill:#2c6cbc;fill-opacity:1;fill-rule:evenodd;stroke:none;stroke-width:0.352777"
       d="m 20.296257,2.9739521 c 4.87433,-1.297164 7.558264,1.024819 4.124677,3.455105 -1.153936,0.816681 -2.259541,1.12642 -3.692172,1.4305138 -1.664052,0.353483 -3.306939,0.562324 -4.929363,0.626534 3.231091,0.37077 7.371997,-0.15064 9.862608,-2.0616338 3.122789,-2.559403 0.131586,-6.232878 -5.429603,-3.587397 z" />
    <path
       id="path134"
       style="fill:#66c7a9;fill-opacity:1;fill-rule:evenodd;stroke:none;stroke-width:0.352777"
       d="m 16.580694,11.657475 c -0.426861,-3.3513901 0.645231,-6.1598569 2.695223,-7.9978289 2.595738,1.929694 4.42736,4.3860858 4.986866,7.9770089 C 23.287,9.0790149 21.675158,6.6621371 19.251222,5.0859261 17.73463,6.4222481 16.983214,8.8638249 16.580694,11.657475" />
    <path
       id="path138"
       style="fill:#b8b7bd;fill-opacity:1;fill-rule:evenodd;stroke:none;stroke-width:0.352777"
       d="m 15.685344,0.7420321 c 3.678414,0.559153 6.552847,2.696281 8.100836,5.6388 l -0.372533,0.57397 -0.257881,-0.412398 c -1.686983,-2.5781 -4.302477,-4.466519 -7.470422,-5.800372" />
  </g>
</svg>
