<svg fill="none" version="1.1" id="svg6" sodipodi:docname="Sandoz-Blue.svg" inkscape:version="1.3 (0e150ed6c4, 2023-07-21)" xmlns:inkscape="http://www.inkscape.org/namespaces/inkscape" xmlns:sodipodi="http://sodipodi.sourceforge.net/DTD/sodipodi-0.dtd" xmlns="http://www.w3.org/2000/svg" xmlns:svg="http://www.w3.org/2000/svg" viewBox="0 0 200 26.22">
  <defs id="defs6"/>
  <sodipodi:namedview id="namedview6" pagecolor="#ffffff" bordercolor="#000000" borderopacity="0.25" inkscape:showpageshadow="2" inkscape:pageopacity="0.0" inkscape:pagecheckerboard="0" inkscape:deskcolor="#d1d1d1" inkscape:zoom="3.78" inkscape:cx="97.883598" inkscape:cy="13.624339" inkscape:window-width="1920" inkscape:window-height="1001" inkscape:window-x="-9" inkscape:window-y="-9" inkscape:window-maximized="1" inkscape:current-layer="svg6"/>
  <path d="M 0.001291,21.531 3.38758,17.8085 c 1.5918,2.2468 3.58897,3.2865 5.61971,3.2865 1.86161,0 2.97961,-0.9732 2.97961,-2.5487 0,-1.5755 -1.0496,-2.3146 -3.89364,-3.4872 C 4.06406,13.4823 1.18643,11.7061 1.18643,7.5129 1.18643,3.31974 4.80897,0 9.81933,0 13.4754,0 16.0484,1.34145 17.9113,3.38752 L 14.6606,7.34538 C 13.611,6.00393 12.1547,5.13179 10.2596,5.13179 c -1.55699,0 -2.67499,0.83889 -2.67499,2.07932 0,1.24043 1.2187,1.87854 4.16479,3.08569 4.2654,1.6433 6.6693,3.7226 6.6693,8.0155 0,4.7955 -3.7917,7.8812 -9.00604,7.8812 -4.46943,0 -7.65174,-1.945 -9.41266,-4.6612 z" fill="#1c59b5" id="path1" style="--darkreader-inline-fill: #164791;" data-darkreader-inline-fill=""/>
  <path d="m 48.3233,25.7561 -1.6589,-4.7954 h -9.3443 l -1.7609,4.7954 H 28.8551 L 39.3173,0.469299 h 5.6546 L 55.2986,25.7561 h -6.974 z m -9.2771,-9.5244 h 5.9593 L 43.7532,12.6101 C 43.1774,10.9337 42.6365,9.2904 42.1278,7.64716 41.5856,9.2904 41.0111,10.9337 40.4018,12.5769 l -1.3543,3.6561 z" fill="#1c59b5" id="path2" style="--darkreader-inline-fill: #164791;" data-darkreader-inline-fill=""/>
  <path d="m 84.8817,0.469299 h 6.1284 V 25.7561 H 85.9313 L 73.1337,9.82622 73.2357,25.7561 h -6.162 V 0.469299 h 5.2144 L 85.0857,16.2982 84.883,0.469299 Z" fill="#1c59b5" id="path3" style="--darkreader-inline-fill: #164791;" data-darkreader-inline-fill=""/>
  <path d="M 106.39,25.7561 V 0.469299 h 7.313 c 8.668,0 14.728,4.225131 14.728,12.643401 0,8.4183 -5.959,12.6434 -14.321,12.6434 h -7.719 z m 6.264,-5.4668 h 1.354 c 4.808,0 7.99,-2.4821 7.99,-7.1766 0,-4.69443 -2.709,-7.00904 -7.99,-7.00904 h -1.354 z" fill="#1c59b5" id="path4" style="--darkreader-inline-fill: #164791;" data-darkreader-inline-fill=""/>
  <path d="m 140.075,13.0795 c 0,-7.47838 6.229,-13.0462358 13.745,-13.0462358 7.516,0 13.678,5.5333358 13.678,13.1127358 0,7.5794 -6.229,13.0462 -13.78,13.0462 -7.551,0 -13.645,-5.2648 -13.645,-13.1127 z m 20.956,0.0665 c 0,-4.15864 -3.08,-7.37863 -7.245,-7.37863 -4.165,0 -7.245,3.25324 -7.245,7.34413 0,4.3261 3.284,7.3441 7.178,7.3441 4.165,0 7.314,-3.119 7.314,-7.3109 z" fill="#1c59b5" id="path5" style="--darkreader-inline-fill: #164791;" data-darkreader-inline-fill=""/>
  <path d="M 177.79,25.7561 V 25.6896 L 189.742,5.97066 h -9.853 V 0.469299 H 200 V 0.535796 L 188.15,20.155 h 11.172 v 5.6011 z" fill="#1c59b5" id="path6" style="--darkreader-inline-fill: #164791;" data-darkreader-inline-fill=""/>
</svg>