<svg width="140" height="64" viewBox="0 0 140 64" fill="none" xmlns="http://www.w3.org/2000/svg">
<g clip-path="url(#clip0_277_1209)">
<path fill-rule="evenodd" clip-rule="evenodd" d="M71.7383 39.8344H77.907V23.1328H71.7383V39.8344Z" fill="#0a55a3"/>
<path fill-rule="evenodd" clip-rule="evenodd" d="M51.6684 31.0952H59.259C60.298 30.9967 61.0965 30.2967 61.0965 29.4545C61.0965 28.6124 60.3418 27.8795 59.3137 27.7702H51.6793V31.0952H51.6684ZM55.8793 35.5139H51.6684L51.6902 39.8561H45.5215V23.1545H51.6902C60.0574 23.1545 60.0355 23.1655 60.0355 23.1655H60.2105C64.3887 23.1655 67.7684 25.9327 67.7684 29.3561C67.7684 32.0139 65.6355 34.2561 62.7262 35.1311L67.9871 39.8452H59.3465L55.8793 35.5139Z" fill="#0a55a3"/>
<path fill-rule="evenodd" clip-rule="evenodd" d="M128.395 23.1765H134.564V39.8781H128.395L118.026 30.8546V39.8781H111.857V23.1765H118.026L128.395 32.0906V23.1765Z" fill="#0a55a3"/>
<path fill-rule="evenodd" clip-rule="evenodd" d="M20.9117 50.8155H26.282C27.0148 50.7389 27.5836 50.2467 27.5836 49.6561C27.5836 49.0655 27.0477 48.5405 26.3258 48.4639H20.9227V50.8155H20.9117ZM26.8398 53.9436H20.9117V57.017H16.5586V45.1936H20.9117H26.9602C29.9133 45.1936 32.3086 47.1514 32.3086 49.5795C32.3086 52.0077 29.793 53.9327 26.8398 53.9327V53.9436Z" fill="#0a55a3"/>
<path fill-rule="evenodd" clip-rule="evenodd" d="M46.2107 45.2812H50.5748V57.1047H46.2107V52.5766H38.9373V57.1047H34.5732V45.2812H38.9373V49.3719H46.2107V45.2812Z" fill="#0a55a3"/>
<path fill-rule="evenodd" clip-rule="evenodd" d="M54.0859 57.0828V50.7937C54.0859 46.4187 57.7719 44.8984 61.7859 44.8984C65.8 44.8984 69.475 46.4187 69.475 50.7937V57.0828H65.1109V55.0047H58.45V57.0828H54.0859ZM61.8187 48.4312C59.9484 48.4531 58.45 49.4047 58.45 50.9797V51.7672H65.1V50.9797C65.1 49.4047 63.6125 48.4531 61.8078 48.4312H61.8187Z" fill="#0a55a3"/>
<path fill-rule="evenodd" clip-rule="evenodd" d="M77.2732 50.8484H82.6435C83.3764 50.7718 83.9451 50.2796 83.9451 49.6781C83.9451 49.0765 83.4092 48.5625 82.6873 48.4859H77.2732V50.8375V50.8484ZM80.2482 53.9765H77.2842V57.05H72.9092V45.2156H77.2842C83.2123 45.2156 83.2014 45.2156 83.2014 45.2156H83.3217C86.2748 45.2156 88.6701 47.1734 88.6701 49.6015C88.6701 51.4828 87.1498 53.0687 85.0936 53.6812L88.8232 57.0281H82.6982L80.2373 53.9546L80.2482 53.9765Z" fill="#0a55a3"/>
<path fill-rule="evenodd" clip-rule="evenodd" d="M91.9072 45.2375H96.2713C100.592 49.5031 100.603 49.4922 100.603 49.4922L104.923 45.2266H109.287V57.05H104.923V50.7172L100.603 54.775L96.2713 50.7828V57.0609H91.9072V45.2375Z" fill="#0a55a3"/>
<path fill-rule="evenodd" clip-rule="evenodd" d="M81.6807 31.5437C81.6807 26.6547 87.5432 22.6953 94.7729 22.6953C102.003 22.6953 107.865 26.6547 107.865 31.5437C107.865 36.4328 102.003 40.3922 94.7729 40.3922C87.5432 40.3922 81.6807 36.4328 81.6807 31.5437ZM88.8447 31.5437C88.8447 29.7281 91.5025 28.2625 94.7838 28.2625C98.065 28.2625 100.723 29.7281 100.723 31.5437C100.723 33.3594 98.065 34.825 94.7838 34.825C91.5025 34.825 88.8447 33.3594 88.8447 31.5437Z" fill="#0a55a3"/>
<path fill-rule="evenodd" clip-rule="evenodd" d="M112.831 57.0828V50.7937C112.831 46.4187 116.517 44.8984 120.531 44.8984C124.545 44.8984 128.22 46.4187 128.22 50.7937V57.0828H123.856V55.0047H117.195V57.0828H112.831ZM120.564 48.4312C118.694 48.4531 117.195 49.4047 117.195 50.9797V51.7672H123.845V50.9797C123.845 49.4047 122.358 48.4531 120.553 48.4312H120.564Z" fill="#0a55a3"/>
<path fill-rule="evenodd" clip-rule="evenodd" d="M3.83867 25.8125C5.89492 20.6718 11.998 16.9203 16.1543 15.1265C25.123 11.2656 34.5512 8.99058 43.9684 7.40465C54.0965 5.6984 59.5652 5.49058 69.5949 5.15152C81.9762 4.72496 89.009 4.89996 101.357 6.16871C114.132 7.48121 124.556 9.86558 134.629 12.8515L135.745 16.1546C124.359 13.6062 115.445 12.2062 104.354 11.3312C92.4324 10.3906 86.2309 10.4234 74.8559 10.9703C56.2293 11.8671 42.5902 15.05 32.5715 18.7468C37.8871 20.9234 41.4637 24.7296 41.4637 29.0718C41.4637 35.7875 32.8887 41.2343 22.3012 41.2343C11.7137 41.2343 3.13867 35.7984 3.13867 29.0828C3.13867 27.9453 3.3793 26.8515 3.83867 25.8125ZM13.1574 28.689C13.1574 26.2718 17.248 24.3031 22.3012 24.3031C27.3543 24.3031 31.4449 26.2609 31.4449 28.689C31.4449 31.1171 27.3543 33.075 22.3012 33.075C17.248 33.075 13.1574 31.1171 13.1574 28.689Z" fill="#0a55a3"/>
</g>
<defs>
<clipPath id="clip0_277_1209">
<rect width="140" height="64" fill="white"/>
</clipPath>
</defs>
</svg>