<svg xmlns="http://www.w3.org/2000/svg" viewBox="0 0 283.66 69.11"><defs><style>.cls-1{fill:#95a7ae;}.cls-2{fill:#fab716;}.cls-3{fill:#3a495a;}.cls-4{fill:#010101;}</style></defs><title>logo1@8</title><g id="Layer_2" data-name="Layer 2"><g id="Layer_1-2" data-name="Layer 1"><path class="cls-1" d="M165.11,2.39H177c3.39,0,6.63,1.69,6.63,6.35,0,4.16-2.74,6.41-7.64,6.41h-8.57V24.4h-2.28Zm2.28,10.66h8.81c3.83,0,4.93-1.75,4.93-4.31,0-3.3-1.84-4.25-4.46-4.25h-9.28Z"/><path class="cls-1" d="M185.69,2.2H188v9.31H188c.68-1.69,3.08-3.63,6.63-3.63,5.33,0,6.93,2.77,6.93,6.59V24.4h-2.28V14.07c0-3.17-1.94-4.28-4.84-4.28-4.47,0-6.5,2.28-6.5,5.92V24.4h-2.28Z"/><path class="cls-1" d="M204.88,13.3c.34-3.36,2.16-5.42,7.64-5.42s7.34,1.66,7.34,4.74V21c0,1.32.37,1.78,1.26,1.78.4,0,.8,0,1.21-.06v1.54a9.26,9.26,0,0,1-1.92.25c-2.31,0-2.43-1.57-2.46-2.84h-.06c-.71,1.05-2.25,3.21-7.49,3.21-2.75,0-6.23-1.2-6.23-4.81,0-4.34,4.47-4.84,8-5,5-.28,5.61-.56,5.61-2.13,0-2.31-1.54-3.14-5.3-3.14-3.6,0-5.33,1-5.48,3.51Zm12.88,2.47c-1,.64-2.55.77-7.12,1.2-2.65.25-4.19,1.05-4.19,3,0,2.49,2.16,3.23,4.63,3.23,3.08,0,6.68-1.66,6.68-5Z"/><path class="cls-1" d="M223.94,8.37h2.28V12h.06a6.19,6.19,0,0,1,6.14-4.16,7,7,0,0,1,1.36.12v2.34a12.41,12.41,0,0,0-2.1-.18c-2.47,0-5.46,1.51-5.46,6.07V24.4h-2.28Z"/><path class="cls-1" d="M260.42,14.23c0-2.93-1.48-4.44-4.78-4.44-3.51,0-5.45,2-5.45,5.14V24.4H247.9V13.55c0-2-1.44-3.76-4.56-3.76s-5.67,1.88-5.67,5.58v9h-2.28v-16h2.28v3h.06c1-1.7,2.68-3.45,6.35-3.45s5.27,1.91,5.74,3.51a7.05,7.05,0,0,1,6.28-3.51c4.5,0,6.6,2.28,6.6,5.57v11h-2.28Z"/><path class="cls-1" d="M266,13.3c.34-3.36,2.16-5.42,7.64-5.42S281,9.54,281,12.62V21c0,1.32.37,1.78,1.26,1.78.4,0,.8,0,1.2-.06v1.54a9.06,9.06,0,0,1-1.91.25c-2.31,0-2.43-1.57-2.46-2.84H279c-.71,1.05-2.25,3.21-7.49,3.21-2.75,0-6.23-1.2-6.23-4.81,0-4.34,4.47-4.84,8-5,5-.28,5.61-.56,5.61-2.13,0-2.31-1.54-3.14-5.3-3.14s-5.33,1-5.49,3.51Zm12.88,2.47c-1,.64-2.56.77-7.12,1.2-2.65.25-4.19,1.05-4.19,3,0,2.49,2.16,3.23,4.62,3.23,3.09,0,6.69-1.66,6.69-5Z"/><ellipse class="cls-2" cx="21.07" cy="15.05" rx="3" ry="2.19"/><ellipse class="cls-2" cx="21.07" cy="20.96" rx="2.37" ry="1.98"/><circle class="cls-2" cx="21.07" cy="27.39" r="1.99"/><path class="cls-3" d="M69.08,17.71H57.49l-3,6.69H52l10-22h2.65l10,22H72Zm-5.77-13-4.9,10.94h9.74Z"/><path class="cls-3" d="M91.79,18.66c-.43,2.1-2.28,6.23-8.11,6.23s-9-3.48-9-8.51c0-4.81,3-8.5,9-8.5,5.49,0,7.61,3.42,8,5.73H89.38c-.71-2.74-2.86-3.82-5.7-3.82-4.59,0-6.75,2.89-6.75,6.59,0,4,2.4,6.6,6.75,6.6,3.36,0,5.24-1.82,5.83-4.32Z"/><path class="cls-3" d="M110.89,19.28c-.92,2.84-3.33,5.61-8.63,5.61-6.56,0-8.72-4.59-8.72-8.51,0-4.47,2.74-8.5,8.72-8.5,4.13,0,9,1.78,9,9.06H95.82c0,3.33,2.37,6,6.44,6,3.82,0,5.55-1.26,6.35-3.7ZM109,15.21c-.65-3.94-3.54-5.42-6.6-5.42s-6.07,1.51-6.59,5.42Z"/><path class="cls-3" d="M113.91,8.37h2.28V12h.07a6.16,6.16,0,0,1,6.13-4.16,7,7,0,0,1,1.36.12v2.34a12.41,12.41,0,0,0-2.1-.18c-2.47,0-5.46,1.51-5.46,6.07V24.4h-2.28Z"/><path class="cls-3" d="M128,3.31h2.28V8.37h4.54V10.1h-4.54V20.7c0,1.39.44,2,2.29,2a11.4,11.4,0,0,0,2.25-.18v1.91a19,19,0,0,1-2.5.18c-3.55,0-4.32-1.38-4.32-4V10.1h-3.48V8.37H128Z"/><path class="cls-3" d="M136.94,13.3c.33-3.36,2.15-5.42,7.64-5.42s7.34,1.66,7.34,4.74V21c0,1.32.36,1.78,1.26,1.78.4,0,.8,0,1.2-.06v1.54a9.06,9.06,0,0,1-1.91.25c-2.31,0-2.43-1.57-2.47-2.84h-.06c-.71,1.05-2.25,3.21-7.49,3.21-2.74,0-6.22-1.2-6.22-4.81,0-4.34,4.47-4.84,8-5,5-.28,5.61-.56,5.61-2.13,0-2.31-1.54-3.14-5.3-3.14s-5.33,1-5.49,3.51Zm12.88,2.47c-1,.64-2.56.77-7.12,1.2-2.65.25-4.19,1.05-4.19,3,0,2.49,2.15,3.23,4.62,3.23,3.08,0,6.69-1.66,6.69-5Z"/><ellipse class="cls-3" cx="21.07" cy="7.39" rx="3.14" ry="2"/><ellipse class="cls-3" cx="14.11" cy="12.05" rx="2.73" ry="1.83" transform="translate(-1.72 2.37) rotate(-9.06)"/><ellipse class="cls-3" cx="9.67" cy="17.31" rx="2.36" ry="1.77" transform="translate(-5.39 4.41) rotate(-20.21)"/><ellipse class="cls-3" cx="5.7" cy="22.95" rx="1.99" ry="1.52" transform="translate(-12.06 7.34) rotate(-34.74)"/><ellipse class="cls-3" cx="28.04" cy="12.05" rx="1.83" ry="2.73" transform="translate(11.72 37.85) rotate(-80.94)"/><ellipse class="cls-3" cx="32.48" cy="17.31" rx="1.77" ry="2.36" transform="translate(5.01 41.81) rotate(-69.79)"/><ellipse class="cls-3" cx="36.45" cy="22.95" rx="1.52" ry="1.99" transform="translate(-3.18 39.82) rotate(-55.26)"/><ellipse class="cls-3" cx="21.07" cy="0.57" rx="1.05" ry="0.57"/><ellipse class="cls-3" cx="15.52" cy="3.26" rx="1.56" ry="0.87" transform="translate(-0.18 1.05) rotate(-3.86)"/><ellipse class="cls-3" cx="13.89" cy="1.48" rx="0.99" ry="0.54" transform="translate(-0.08 1.56) rotate(-6.42)"/><ellipse class="cls-3" cx="1.65" cy="16.56" rx="1.75" ry="1.04" transform="translate(-6.69 2.16) rotate(-24.39)"/><ellipse class="cls-3" cx="2.44" cy="9.44" rx="1.4" ry="0.8" transform="translate(-2.37 0.96) rotate(-15.09)"/><ellipse class="cls-3" cx="7.32" cy="4.35" rx="1.1" ry="0.62" transform="translate(-0.74 1.62) rotate(-12.02)"/><ellipse class="cls-3" cx="26.63" cy="3.26" rx="0.87" ry="1.56" transform="matrix(0.07, -1, 1, 0.07, 21.59, 29.61)"/><ellipse class="cls-3" cx="28.26" cy="1.48" rx="0.54" ry="0.99" transform="translate(23.63 29.4) rotate(-83.58)"/><ellipse class="cls-3" cx="40.5" cy="16.56" rx="1.04" ry="1.75" transform="translate(8.69 46.61) rotate(-65.61)"/><ellipse class="cls-3" cx="39.71" cy="9.44" rx="0.8" ry="1.4" transform="translate(20.26 45.32) rotate(-74.91)"/><ellipse class="cls-3" cx="34.83" cy="4.35" rx="0.62" ry="1.1" transform="translate(23.33 37.51) rotate(-77.98)"/><ellipse class="cls-3" cx="7.53" cy="7.93" rx="1.84" ry="1.07" transform="translate(-1.46 1.71) rotate(-11.79)"/><ellipse class="cls-3" cx="34.62" cy="7.93" rx="1.07" ry="1.84" transform="translate(19.78 40.2) rotate(-78.21)"/><path class="cls-4" d="M4.86,53.71H7.12L11.8,65.86H9.52L8.38,62.64H3.53L2.39,65.86H.19ZM4.11,61H7.82L6,55.8h0Z"/><path class="cls-4" d="M16.36,57.06H18.2v1.23h.05a4.85,4.85,0,0,1,.48-.6,2.5,2.5,0,0,1,.56-.46,3.48,3.48,0,0,1,.73-.3,3.71,3.71,0,0,1,.93-.11,3.15,3.15,0,0,1,1.49.36,2,2,0,0,1,1,1.11,4,4,0,0,1,1.14-1.08,3.08,3.08,0,0,1,1.62-.39,3.21,3.21,0,0,1,2.17.68,2.91,2.91,0,0,1,.77,2.28v6.08H27.18V60.72q0-.53,0-1A1.88,1.88,0,0,0,27,59a1.13,1.13,0,0,0-.48-.49,2,2,0,0,0-.89-.17,1.66,1.66,0,0,0-1.43.62,3,3,0,0,0-.44,1.73v5.16H21.77V60.21a2.42,2.42,0,0,0-.33-1.39,1.41,1.41,0,0,0-1.22-.47,1.8,1.8,0,0,0-.72.16,1.76,1.76,0,0,0-.61.44,2.12,2.12,0,0,0-.43.72,2.61,2.61,0,0,0-.16,1v5.23H16.36Z"/><path class="cls-4" d="M32.68,62a3.64,3.64,0,0,0,.14,1,2.54,2.54,0,0,0,.44.83,2,2,0,0,0,.73.57,2.29,2.29,0,0,0,1,.22,2.4,2.4,0,0,0,1.38-.37,2.17,2.17,0,0,0,.77-1.1H39a3.64,3.64,0,0,1-1.43,2.22,3.82,3.82,0,0,1-1.18.58,4.85,4.85,0,0,1-1.38.2,4.74,4.74,0,0,1-1.83-.34,3.81,3.81,0,0,1-1.36-1A4,4,0,0,1,31,63.34a5.87,5.87,0,0,1-.28-1.87,5.24,5.24,0,0,1,.3-1.78,4.62,4.62,0,0,1,.85-1.48,4,4,0,0,1,1.33-1A4.1,4.1,0,0,1,35,56.82a3.94,3.94,0,0,1,1.87.44,4.13,4.13,0,0,1,1.37,1.15A4.72,4.72,0,0,1,39,60.05,5.09,5.09,0,0,1,39.15,62Zm4.53-1.27a3.29,3.29,0,0,0-.2-.89,2.59,2.59,0,0,0-.44-.74,2.29,2.29,0,0,0-.68-.51,2,2,0,0,0-.9-.2,2.25,2.25,0,0,0-.92.18,2.16,2.16,0,0,0-.72.5,2.36,2.36,0,0,0-.48.74,2.74,2.74,0,0,0-.19.92Z"/><path class="cls-4" d="M40.63,57.06h1.83v1.23h.06a4,4,0,0,1,.47-.6,2.8,2.8,0,0,1,.57-.46,3.27,3.27,0,0,1,.73-.3,3.71,3.71,0,0,1,.93-.11,3.15,3.15,0,0,1,1.49.36,2,2,0,0,1,1,1.11,4,4,0,0,1,1.14-1.08,3.08,3.08,0,0,1,1.62-.39,3.21,3.21,0,0,1,2.17.68,2.94,2.94,0,0,1,.77,2.28v6.08H51.45V60.72q0-.53,0-1a2.06,2.06,0,0,0-.2-.75,1.19,1.19,0,0,0-.48-.49,2,2,0,0,0-.89-.17,1.65,1.65,0,0,0-1.43.62A3,3,0,0,0,48,60.7v5.16H46V60.21a2.42,2.42,0,0,0-.33-1.39,1.41,1.41,0,0,0-1.22-.47,1.89,1.89,0,0,0-1.34.6,2.28,2.28,0,0,0-.42.72,2.61,2.61,0,0,0-.16,1v5.23H40.63Z"/><path class="cls-4" d="M55.48,53.71h1.94V58.2h0a2.7,2.7,0,0,1,.49-.58,3.12,3.12,0,0,1,.64-.43,3.21,3.21,0,0,1,.73-.27,2.89,2.89,0,0,1,.76-.1,4.23,4.23,0,0,1,1.81.37,3.56,3.56,0,0,1,1.29,1,4.37,4.37,0,0,1,.76,1.49,6.35,6.35,0,0,1,.26,1.82A6.55,6.55,0,0,1,64,63.22a4.55,4.55,0,0,1-.7,1.47,3.41,3.41,0,0,1-1.18,1,3.49,3.49,0,0,1-1.69.39,6.77,6.77,0,0,1-.89-.06,3.52,3.52,0,0,1-.86-.23,2.9,2.9,0,0,1-.74-.44,2,2,0,0,1-.55-.72h0v1.21H55.48Zm6.78,7.76a4.11,4.11,0,0,0-.16-1.16,3.2,3.2,0,0,0-.45-1,2.34,2.34,0,0,0-.77-.7,2.06,2.06,0,0,0-1.06-.27,2.13,2.13,0,0,0-1.84.86,3.69,3.69,0,0,0-.62,2.26,4.41,4.41,0,0,0,.16,1.23,2.89,2.89,0,0,0,.48,1,2.56,2.56,0,0,0,.78.65,2.19,2.19,0,0,0,1,.24A2.11,2.11,0,0,0,61,64.29a2.29,2.29,0,0,0,.75-.7,2.76,2.76,0,0,0,.43-1A5.36,5.36,0,0,0,62.26,61.47Z"/><path class="cls-4" d="M67.35,62a3.29,3.29,0,0,0,.14,1,2.52,2.52,0,0,0,.43.83,2.1,2.1,0,0,0,.74.57,2.26,2.26,0,0,0,1,.22,2.36,2.36,0,0,0,1.37-.37,2.19,2.19,0,0,0,.78-1.1h1.83a3.63,3.63,0,0,1-.52,1.28,3.54,3.54,0,0,1-.91.94,3.71,3.71,0,0,1-1.18.58,4.78,4.78,0,0,1-1.37.2,4.83,4.83,0,0,1-1.84-.34,3.86,3.86,0,0,1-1.35-1,3.82,3.82,0,0,1-.83-1.46,5.87,5.87,0,0,1-.28-1.87,5.23,5.23,0,0,1,.29-1.78,4.81,4.81,0,0,1,.85-1.48,4,4,0,0,1,3.11-1.39,3.93,3.93,0,0,1,1.86.44,4,4,0,0,1,1.37,1.15,4.39,4.39,0,0,1,.79,1.64A4.89,4.89,0,0,1,73.81,62Zm4.52-1.27a3.28,3.28,0,0,0-.19-.89,2.41,2.41,0,0,0-.45-.74,2.06,2.06,0,0,0-.68-.51,2,2,0,0,0-.89-.2,2.34,2.34,0,0,0-.93.18A2.12,2.12,0,0,0,68,59a2.36,2.36,0,0,0-.48.74,2.52,2.52,0,0,0-.19.92Z"/><path class="cls-4" d="M75.29,57.06h1.82v1.7h0a1.83,1.83,0,0,1,.33-.69,3,3,0,0,1,.6-.63,3.46,3.46,0,0,1,.77-.45,2.36,2.36,0,0,1,.87-.17l.47,0,.26,0v1.88L80,58.69l-.41,0a2.25,2.25,0,0,0-.93.2,2.21,2.21,0,0,0-.76.57,3.18,3.18,0,0,0-.51,1,4.22,4.22,0,0,0-.19,1.29v4.19H75.29Z"/><path class="cls-4" d="M88.52,66.1a4.81,4.81,0,0,1-1.88-.35,4,4,0,0,1-1.4-1,4.16,4.16,0,0,1-.87-1.47,5.56,5.56,0,0,1-.3-1.87,5.48,5.48,0,0,1,.3-1.85,4.16,4.16,0,0,1,.87-1.47,4,4,0,0,1,1.4-1,5.22,5.22,0,0,1,3.76,0,3.93,3.93,0,0,1,1.39,1,4.16,4.16,0,0,1,.87,1.47,5.48,5.48,0,0,1,.3,1.85,5.56,5.56,0,0,1-.3,1.87,4.16,4.16,0,0,1-.87,1.47,3.93,3.93,0,0,1-1.39,1A4.85,4.85,0,0,1,88.52,66.1Zm0-1.53a2.14,2.14,0,0,0,1.12-.28,2.32,2.32,0,0,0,.78-.71,2.93,2.93,0,0,0,.45-1A4.22,4.22,0,0,0,91,61.45a4.31,4.31,0,0,0-.15-1.12,2.76,2.76,0,0,0-.45-1,2.29,2.29,0,0,0-.78-.7,2.24,2.24,0,0,0-1.12-.28,2.28,2.28,0,0,0-1.13.28,2.39,2.39,0,0,0-.78.7,3.15,3.15,0,0,0-.45,1A4.3,4.3,0,0,0,86,61.45a4.22,4.22,0,0,0,.14,1.13,3.36,3.36,0,0,0,.45,1,2.42,2.42,0,0,0,.78.71A2.18,2.18,0,0,0,88.52,64.57Z"/><path class="cls-4" d="M93.71,57.06h1.44v-.73A3.61,3.61,0,0,1,95.36,55a1.85,1.85,0,0,1,.54-.8,1.78,1.78,0,0,1,.78-.38,4.46,4.46,0,0,1,.91-.09,5.5,5.5,0,0,1,1.36.12v1.51a2.57,2.57,0,0,0-.4-.07,3.63,3.63,0,0,0-.5,0,1.18,1.18,0,0,0-.68.19.83.83,0,0,0-.28.73v.9h1.65v1.45H97.09v7.35H95.15V58.51H93.71Z"/><path class="cls-4" d="M103.3,57.06h1.47V54.42h1.94v2.64h1.75v1.45h-1.75V63.2c0,.21,0,.39,0,.53a1.06,1.06,0,0,0,.12.38.58.58,0,0,0,.28.23,1.46,1.46,0,0,0,.51.07h.41a1.45,1.45,0,0,0,.41-.06v1.5l-.63.07q-.3,0-.63,0A4.16,4.16,0,0,1,106,65.8a1.72,1.72,0,0,1-.73-.42,1.46,1.46,0,0,1-.36-.71,5.41,5.41,0,0,1-.11-1V58.51H103.3Z"/><path class="cls-4" d="M109.86,53.71h1.94v4.51h0a2.85,2.85,0,0,1,1.06-1,3.25,3.25,0,0,1,1.58-.4,3.3,3.3,0,0,1,2.28.75,2.86,2.86,0,0,1,.83,2.25v6h-1.94V60.33a2.4,2.4,0,0,0-.44-1.51,1.61,1.61,0,0,0-1.27-.47,2.11,2.11,0,0,0-.89.18,1.93,1.93,0,0,0-.66.5,2.09,2.09,0,0,0-.43.74,2.66,2.66,0,0,0-.15.9v5.19h-1.94Z"/><path class="cls-4" d="M121.14,62a3.64,3.64,0,0,0,.14,1,2.54,2.54,0,0,0,.44.83,2.06,2.06,0,0,0,.73.57,2.33,2.33,0,0,0,1.06.22,2.38,2.38,0,0,0,1.37-.37,2.17,2.17,0,0,0,.77-1.1h1.84a3.64,3.64,0,0,1-1.43,2.22,3.82,3.82,0,0,1-1.18.58,4.83,4.83,0,0,1-1.37.2,4.75,4.75,0,0,1-1.84-.34,3.81,3.81,0,0,1-1.36-1,4.1,4.1,0,0,1-.83-1.46,5.87,5.87,0,0,1-.28-1.87,5.24,5.24,0,0,1,.3-1.78,4.62,4.62,0,0,1,.85-1.48,4,4,0,0,1,1.33-1,4.11,4.11,0,0,1,1.78-.38,3.93,3.93,0,0,1,1.86.44,4.13,4.13,0,0,1,1.37,1.15,4.55,4.55,0,0,1,.79,1.64,5.09,5.09,0,0,1,.13,1.91Zm4.53-1.27a3.29,3.29,0,0,0-.2-.89,2.38,2.38,0,0,0-.44-.74,2.29,2.29,0,0,0-.68-.51,2,2,0,0,0-.89-.2,2.3,2.3,0,0,0-.93.18,2.16,2.16,0,0,0-.72.5,2.34,2.34,0,0,0-.47.74,2.52,2.52,0,0,0-.2.92Z"/><path class="cls-4" d="M136.41,53.71h2.26l4.68,12.15h-2.28l-1.14-3.22h-4.85l-1.14,3.22h-2.2ZM135.66,61h3.71l-1.82-5.23h-.06Z"/><path class="cls-4" d="M145.7,63a1.47,1.47,0,0,0,.64,1.2,2.65,2.65,0,0,0,1.35.34,5,5,0,0,0,.62,0,2.29,2.29,0,0,0,.65-.16,1.17,1.17,0,0,0,.51-.35.83.83,0,0,0,.18-.6.9.9,0,0,0-.28-.61,2,2,0,0,0-.65-.39,6.29,6.29,0,0,0-.91-.24l-1-.22c-.36-.08-.71-.18-1.05-.29a3.81,3.81,0,0,1-.9-.46,2.17,2.17,0,0,1-.64-.74,2.38,2.38,0,0,1-.24-1.12,2,2,0,0,1,.35-1.2,2.79,2.79,0,0,1,.89-.78,3.82,3.82,0,0,1,1.19-.42,6.94,6.94,0,0,1,1.25-.12,5.51,5.51,0,0,1,1.3.15,3.34,3.34,0,0,1,1.13.47,2.66,2.66,0,0,1,.83.84,2.94,2.94,0,0,1,.42,1.25h-2a1.2,1.2,0,0,0-.64-.94,2.6,2.6,0,0,0-1.15-.24c-.13,0-.29,0-.48,0a1.87,1.87,0,0,0-.53.13,1.17,1.17,0,0,0-.42.27.66.66,0,0,0-.17.47.73.73,0,0,0,.25.57,1.85,1.85,0,0,0,.65.37,5.91,5.91,0,0,0,.91.25l1.05.22a9.44,9.44,0,0,1,1,.29,3.24,3.24,0,0,1,.91.46,2.18,2.18,0,0,1,.65.73,2.25,2.25,0,0,1,.25,1.09,2.38,2.38,0,0,1-.36,1.33,2.9,2.9,0,0,1-.93.88,4,4,0,0,1-1.27.49,5.91,5.91,0,0,1-1.38.16,5.8,5.8,0,0,1-1.54-.19,3.35,3.35,0,0,1-1.22-.57,2.68,2.68,0,0,1-.82-1,3,3,0,0,1-.31-1.36Z"/><path class="cls-4" d="M152.18,57.06h1.46V54.42h1.94v2.64h1.76v1.45h-1.76V63.2a3.89,3.89,0,0,0,0,.53,1.06,1.06,0,0,0,.12.38.58.58,0,0,0,.28.23,1.39,1.39,0,0,0,.51.07h.41a1.51,1.51,0,0,0,.41-.06v1.5l-.63.07q-.32,0-.63,0a4.28,4.28,0,0,1-1.24-.14,1.78,1.78,0,0,1-.73-.42,1.65,1.65,0,0,1-.36-.71,5.41,5.41,0,0,1-.11-1V58.51h-1.46Z"/><path class="cls-4" d="M158.73,57.06h1.82v1.7h0a1.69,1.69,0,0,1,.33-.69,3.18,3.18,0,0,1,.59-.63,3.77,3.77,0,0,1,.78-.45,2.36,2.36,0,0,1,.87-.17l.47,0,.26,0v1.88a3,3,0,0,0-.42-.06l-.41,0a2.25,2.25,0,0,0-.93.2,2.12,2.12,0,0,0-.76.57,2.79,2.79,0,0,0-.51,1,3.93,3.93,0,0,0-.19,1.29v4.19h-1.94Z"/><path class="cls-4" d="M172.09,63.9a1.05,1.05,0,0,0,.09.51.4.4,0,0,0,.37.16h.21a1.6,1.6,0,0,0,.27,0v1.35l-.27.07-.33.08-.34,0-.29,0a1.91,1.91,0,0,1-1-.24,1.2,1.2,0,0,1-.51-.83,3.37,3.37,0,0,1-1.42.81,5.58,5.58,0,0,1-1.62.26,4.24,4.24,0,0,1-1.14-.16,2.88,2.88,0,0,1-1-.48,2.37,2.37,0,0,1-.67-.8,2.51,2.51,0,0,1-.24-1.13,2.6,2.6,0,0,1,.29-1.33,2.17,2.17,0,0,1,.79-.8,3.64,3.64,0,0,1,1.09-.42,12.18,12.18,0,0,1,1.21-.19,9.88,9.88,0,0,1,1-.15,4,4,0,0,0,.84-.14,1.25,1.25,0,0,0,.58-.32.86.86,0,0,0,.21-.63,1,1,0,0,0-.18-.62,1.1,1.1,0,0,0-.44-.36,1.84,1.84,0,0,0-.59-.17,4.42,4.42,0,0,0-.61,0,2.44,2.44,0,0,0-1.35.35,1.29,1.29,0,0,0-.59,1h-1.94a2.83,2.83,0,0,1,.41-1.41,2.7,2.7,0,0,1,.91-.9,3.62,3.62,0,0,1,1.25-.48,7.46,7.46,0,0,1,1.43-.14,6.12,6.12,0,0,1,1.28.14,3.86,3.86,0,0,1,1.13.44,2.66,2.66,0,0,1,.81.79,2.24,2.24,0,0,1,.3,1.19Zm-1.94-2.45a2.38,2.38,0,0,1-1.09.35q-.65.06-1.29.18a4,4,0,0,0-.6.14,2,2,0,0,0-.51.26,1.31,1.31,0,0,0-.35.42,1.56,1.56,0,0,0-.12.64.85.85,0,0,0,.18.55,1.52,1.52,0,0,0,.45.35,2.62,2.62,0,0,0,.58.18,4.13,4.13,0,0,0,.57,0,3,3,0,0,0,.7-.09,2.09,2.09,0,0,0,.71-.29,1.82,1.82,0,0,0,.55-.52,1.29,1.29,0,0,0,.22-.77Z"/><path class="cls-4" d="M174.5,53.71h9.24v1.62L176.66,64h7.25v1.84H174V64.12L181,55.55H174.5Z"/><path class="cls-4" d="M186.59,62a3.3,3.3,0,0,0,.15,1,2.34,2.34,0,0,0,.43.83,2.06,2.06,0,0,0,.73.57,2.33,2.33,0,0,0,1.06.22,2.38,2.38,0,0,0,1.37-.37,2.17,2.17,0,0,0,.77-1.1h1.84a3.64,3.64,0,0,1-1.43,2.22,3.82,3.82,0,0,1-1.18.58,5,5,0,0,1-3.21-.14,3.69,3.69,0,0,1-1.35-1,4,4,0,0,1-.84-1.46,6.16,6.16,0,0,1-.28-1.87,5.24,5.24,0,0,1,.3-1.78,4.62,4.62,0,0,1,.85-1.48,4,4,0,0,1,1.34-1,4,4,0,0,1,1.77-.38,3.93,3.93,0,0,1,1.86.44,4,4,0,0,1,1.37,1.15,4.55,4.55,0,0,1,.79,1.64,4.89,4.89,0,0,1,.13,1.91Zm4.53-1.27a3,3,0,0,0-.2-.89,2.38,2.38,0,0,0-.44-.74,2.17,2.17,0,0,0-.68-.51,2,2,0,0,0-.89-.2,2.34,2.34,0,0,0-.93.18,2.16,2.16,0,0,0-.72.5,2.6,2.6,0,0,0-.67,1.66Z"/><path class="cls-4" d="M194.54,57.06h1.84v1.29l0,0a3.28,3.28,0,0,1,1.16-1.15,3,3,0,0,1,1.58-.42,3.26,3.26,0,0,1,2.28.75,2.86,2.86,0,0,1,.84,2.25v6h-1.94V60.33a2.4,2.4,0,0,0-.45-1.51,1.61,1.61,0,0,0-1.27-.47,2.11,2.11,0,0,0-.89.18,1.93,1.93,0,0,0-.66.5,2.25,2.25,0,0,0-.43.74,2.66,2.66,0,0,0-.15.9v5.19h-1.94Z"/><path class="cls-4" d="M205.82,62a3.3,3.3,0,0,0,.15,1,2.34,2.34,0,0,0,.43.83,2.06,2.06,0,0,0,.73.57,2.33,2.33,0,0,0,1.06.22,2.38,2.38,0,0,0,1.37-.37,2.17,2.17,0,0,0,.77-1.1h1.84a3.64,3.64,0,0,1-1.43,2.22,3.82,3.82,0,0,1-1.18.58,5,5,0,0,1-3.21-.14,3.78,3.78,0,0,1-1.35-1,4,4,0,0,1-.84-1.46,6.16,6.16,0,0,1-.28-1.87,5.24,5.24,0,0,1,.3-1.78,4.62,4.62,0,0,1,.85-1.48,4,4,0,0,1,1.34-1,4,4,0,0,1,1.77-.38,3.93,3.93,0,0,1,1.86.44,4,4,0,0,1,1.37,1.15,4.55,4.55,0,0,1,.79,1.64,4.89,4.89,0,0,1,.13,1.91Zm4.53-1.27a3,3,0,0,0-.2-.89,2.2,2.2,0,0,0-.44-.74,2.17,2.17,0,0,0-.68-.51,2,2,0,0,0-.89-.2,2.34,2.34,0,0,0-.93.18,2.16,2.16,0,0,0-.72.5,2.6,2.6,0,0,0-.67,1.66Z"/><path class="cls-4" d="M219.71,60a1.82,1.82,0,0,0-.66-1.24,2.09,2.09,0,0,0-1.35-.42,3,3,0,0,0-.8.13,2,2,0,0,0-.78.48,2.6,2.6,0,0,0-.6,1,4.54,4.54,0,0,0-.24,1.62,5,5,0,0,0,.13,1.09,2.93,2.93,0,0,0,.41,1,2.16,2.16,0,0,0,.72.69,2.06,2.06,0,0,0,1.08.27A2,2,0,0,0,219,64a2.45,2.45,0,0,0,.69-1.48h1.94a4.31,4.31,0,0,1-1.3,2.63,4,4,0,0,1-2.73.91,4.49,4.49,0,0,1-1.83-.35,3.84,3.84,0,0,1-1.34-1,4.28,4.28,0,0,1-.83-1.44,6.12,6.12,0,0,1,0-3.66,4.31,4.31,0,0,1,.81-1.51,3.91,3.91,0,0,1,1.36-1,4.62,4.62,0,0,1,1.89-.37,5.36,5.36,0,0,1,1.46.2,3.74,3.74,0,0,1,1.22.59,3.18,3.18,0,0,1,.88,1,3.43,3.43,0,0,1,.41,1.42Z"/><path class="cls-4" d="M230.6,63.9a1.05,1.05,0,0,0,.09.51.4.4,0,0,0,.37.16h.2a1.57,1.57,0,0,0,.28,0v1.35l-.27.07-.33.08-.34,0-.29,0a1.89,1.89,0,0,1-1-.24,1.2,1.2,0,0,1-.51-.83,3.44,3.44,0,0,1-1.42.81,5.58,5.58,0,0,1-1.62.26,4.24,4.24,0,0,1-1.14-.16,2.88,2.88,0,0,1-1-.48,2.37,2.37,0,0,1-.67-.8,2.51,2.51,0,0,1-.24-1.13,2.6,2.6,0,0,1,.29-1.33,2.17,2.17,0,0,1,.79-.8,3.64,3.64,0,0,1,1.09-.42,12.18,12.18,0,0,1,1.21-.19,9.88,9.88,0,0,1,1-.15,4.09,4.09,0,0,0,.84-.14,1.25,1.25,0,0,0,.58-.32.86.86,0,0,0,.21-.63,1,1,0,0,0-.18-.62,1.17,1.17,0,0,0-.44-.36,1.84,1.84,0,0,0-.59-.17,4.42,4.42,0,0,0-.61,0,2.44,2.44,0,0,0-1.35.35,1.29,1.29,0,0,0-.59,1h-1.94a2.83,2.83,0,0,1,.41-1.41,2.7,2.7,0,0,1,.91-.9,3.62,3.62,0,0,1,1.25-.48,7.46,7.46,0,0,1,1.43-.14,6,6,0,0,1,1.27.14,3.81,3.81,0,0,1,1.14.44,2.52,2.52,0,0,1,.8.79,2.15,2.15,0,0,1,.31,1.19Zm-1.94-2.45a2.38,2.38,0,0,1-1.09.35q-.65.06-1.29.18a4,4,0,0,0-.6.14,2,2,0,0,0-.51.26,1.19,1.19,0,0,0-.35.42,1.56,1.56,0,0,0-.12.64.85.85,0,0,0,.18.55,1.52,1.52,0,0,0,.45.35,2.62,2.62,0,0,0,.58.18,4.13,4.13,0,0,0,.57,0,3,3,0,0,0,.7-.09,2.09,2.09,0,0,0,.71-.29,1.82,1.82,0,0,0,.55-.52,1.29,1.29,0,0,0,.22-.77Z"/><path class="cls-4" d="M247.28,65.86h-1.36l-.33-1.43a4.34,4.34,0,0,1-3.65,1.72,5.83,5.83,0,0,1-2.45-.5,5.44,5.44,0,0,1-1.83-1.37,6.23,6.23,0,0,1-1.15-2,7.76,7.76,0,0,1,0-4.92,6.18,6.18,0,0,1,1.15-2,5.46,5.46,0,0,1,1.83-1.38,5.68,5.68,0,0,1,2.45-.51,6.88,6.88,0,0,1,1.88.26,5.15,5.15,0,0,1,1.59.79,4.24,4.24,0,0,1,1.15,1.3,4.49,4.49,0,0,1,.58,1.8h-2.07a2.74,2.74,0,0,0-.37-1,2.54,2.54,0,0,0-.71-.75,2.89,2.89,0,0,0-1-.46,4,4,0,0,0-1.1-.15,3.42,3.42,0,0,0-1.68.39,3.29,3.29,0,0,0-1.15,1,5.16,5.16,0,0,0-.66,1.49,7,7,0,0,0,0,3.41,5.16,5.16,0,0,0,.66,1.49,3.29,3.29,0,0,0,1.15,1,3.42,3.42,0,0,0,1.68.39,3.83,3.83,0,0,0,1.44-.21,2.85,2.85,0,0,0,1.07-.66,3,3,0,0,0,.65-1.07,4.35,4.35,0,0,0,.24-1.39H242.1V59.46h5.18Z"/><path class="cls-4" d="M249.32,57.06h1.82v1.7h0a1.85,1.85,0,0,1,.34-.69,3.18,3.18,0,0,1,.59-.63,3.31,3.31,0,0,1,.78-.45,2.35,2.35,0,0,1,.86-.17l.47,0,.27,0v1.88a3,3,0,0,0-.42-.06l-.42,0a2.21,2.21,0,0,0-.92.2,2.12,2.12,0,0,0-.76.57,2.79,2.79,0,0,0-.51,1,3.93,3.93,0,0,0-.19,1.29v4.19h-1.94Z"/><path class="cls-4" d="M259,66.1a4.85,4.85,0,0,1-1.88-.35,4,4,0,0,1-1.4-1,4.16,4.16,0,0,1-.87-1.47,5.82,5.82,0,0,1-.29-1.87,5.74,5.74,0,0,1,.29-1.85,4.16,4.16,0,0,1,.87-1.47,4,4,0,0,1,1.4-1,5.22,5.22,0,0,1,3.76,0,3.93,3.93,0,0,1,1.39,1,4.16,4.16,0,0,1,.87,1.47,5.48,5.48,0,0,1,.3,1.85,5.56,5.56,0,0,1-.3,1.87,4.16,4.16,0,0,1-.87,1.47,3.93,3.93,0,0,1-1.39,1A4.85,4.85,0,0,1,259,66.1Zm0-1.53a2.14,2.14,0,0,0,1.12-.28,2.32,2.32,0,0,0,.78-.71,3.15,3.15,0,0,0,.46-1,4.66,4.66,0,0,0,.14-1.13,4.77,4.77,0,0,0-.14-1.12,3,3,0,0,0-.46-1,2.29,2.29,0,0,0-.78-.7,2.24,2.24,0,0,0-1.12-.28,2.28,2.28,0,0,0-1.13.28,2.49,2.49,0,0,0-.78.7,3.15,3.15,0,0,0-.45,1,4.77,4.77,0,0,0-.14,1.12,4.66,4.66,0,0,0,.14,1.13,3.36,3.36,0,0,0,.45,1,2.52,2.52,0,0,0,.78.71A2.18,2.18,0,0,0,259,64.57Z"/><path class="cls-4" d="M272.82,65.86h-1.9V64.63h0a2.6,2.6,0,0,1-1.06,1.07,3,3,0,0,1-1.44.4,3.24,3.24,0,0,1-2.51-.86,3.76,3.76,0,0,1-.77-2.6V57.06H267v5.4a2.36,2.36,0,0,0,.44,1.63,1.6,1.6,0,0,0,1.24.48,2.51,2.51,0,0,0,1-.19,1.9,1.9,0,0,0,.67-.5,1.85,1.85,0,0,0,.36-.76,3.59,3.59,0,0,0,.11-.95V57.06h1.94Z"/><path class="cls-4" d="M274.92,57.06h1.83v1.19h0a2.43,2.43,0,0,1,1.14-1.1,3.79,3.79,0,0,1,1.58-.33,4.23,4.23,0,0,1,1.81.37,3.56,3.56,0,0,1,1.29,1,4.37,4.37,0,0,1,.76,1.49,6.35,6.35,0,0,1,.26,1.82,6.55,6.55,0,0,1-.23,1.72,4.35,4.35,0,0,1-.7,1.47,3.32,3.32,0,0,1-1.18,1,3.49,3.49,0,0,1-1.69.39A5,5,0,0,1,279,66a3.78,3.78,0,0,1-.81-.24,3.38,3.38,0,0,1-.73-.44,2.5,2.5,0,0,1-.55-.62h0v4.39h-1.94Zm6.77,4.41a4.5,4.5,0,0,0-.15-1.16,3.46,3.46,0,0,0-.46-1,2.34,2.34,0,0,0-.77-.7,2.05,2.05,0,0,0-1.05-.27,2.14,2.14,0,0,0-1.85.86,3.69,3.69,0,0,0-.62,2.26A4.41,4.41,0,0,0,277,62.7a2.89,2.89,0,0,0,.48,1,2.56,2.56,0,0,0,.78.65,2.2,2.2,0,0,0,1.05.24,2.09,2.09,0,0,0,1.12-.28,2.32,2.32,0,0,0,.76-.7,2.93,2.93,0,0,0,.42-1A4.78,4.78,0,0,0,281.69,61.47Z"/><rect class="cls-4" x="0.22" y="42.63" width="283.44" height="1.1"/></g></g></svg>