<svg xmlns="http://www.w3.org/2000/svg" width="639.655" height="110" viewBox="0 0 639.655 110"><path fill-rule="nonzero" d="m 156.5,29.3 v 0 H 155 c -0.3,0 -0.6,-0.3 -0.6,-0.6 V 1.9 c 0,-0.3 0,-0.6 0.3,-0.7 C 155,1 155.7,1 156.2,1 h 1.8 c 2.3,0 4.2,1.9 4.2,4.2 v 10.2 l 6.4,-6.5 c 1.3,-1.2 5.9,-5.9 5.9,-5.9 1.1,-1.2 2.7,-2 4.6,-2 h 1.1 c 0.8,0 1.4,0.2 1.8,0.8 0.1,0.2 0.4,0.5 0.5,0.9 0.1,0.5 0.1,1 0.1,1 0,1.3 -0.5,2.5 -1.4,3.5 l -7,7.1 c -1.9,1.8 -0.3,3.7 -0.3,3.7 0.8,0.8 2.4,1.9 3.8,2.4 l 1.7,0.7 c 2,0.9 3.2,2.8 3.2,4.8 v 2.9 c 0,0.4 -0.2,0.7 -0.6,0.7 h -1.2 c -1.6,0 -3.5,-0.9 -3.5,-0.9 l -7.9,-3.3 c -0.8,-0.4 -1.7,-0.7 -2.7,-0.8 -0.3,-0.1 -0.6,-0.1 -0.9,-0.1 h -0.6 c -0.9,0.1 -1.7,0.5 -2.3,1.1 -1,1 -1.8,1.8 -1.8,1.8 -1.1,1.1 -2.7,2 -4.6,2 z m -33.4,-3.4 c 0.2,0.1 0.4,0.4 0.8,0.7 v 2 c 0,0.5 -0.3,0.8 -0.7,0.8 H 117 c -1,0 -2,-0.3 -2.9,-1 L 104.7,21 c -0.6,-0.5 -1,-1.5 -1,-2.5 v -3 c 0,-0.5 0.2,-0.8 0.5,-0.8 0.3,0 0.8,0.2 1,0.3 0.5,0.1 1.1,0.3 1.1,0.3 0.9,0.3 1.9,0.5 2.8,0.5 2,0 3.5,-0.8 4,-2.2 0.4,-1.3 -0.8,-4.2 -5.1,-5.3 -3.3,-0.8 -6.2,-0.2 -7.1,1.4 0,0 -0.1,0.2 -0.2,0.5 -0.1,0.3 -0.1,0.6 -0.1,0.8 v 11.6 c 0,1.8 -0.3,3.4 -1.4,4.8 -0.6,0.8 -1.4,1.5 -2.4,1.8 -0.7,0.2 -1.4,0.3 -2,0.3 -0.5,0 -1.2,0 -1.6,-0.2 -0.3,-0.1 -0.3,-0.4 -0.3,-0.7 V 26.7 25.2 20.9 1.7 c 0,-0.3 0.3,-0.6 0.6,-0.6 h 11.4 c 1.9,0 3.8,0.4 5.7,1 2,0.6 3.7,1.5 5.3,2.6 1.6,1.1 2.8,2.4 3.8,3.9 1,1.5 1.5,3.1 1.5,4.8 0,1.8 -0.6,3.2 -1.6,4.4 -1.7,1.8 -3.5,2.6 -4,2.9 0.4,0.4 1.6,1.3 3.1,2.5 2.9,2.3 4.4,2.7 4.4,2.7 z M 85.7,22 c 1.4,0 2.5,0.4 3.3,1.4 0.8,0.8 1.2,1.8 1.2,3.2 V 29 c 0,0.3 -0.3,0.6 -0.6,0.6 H 77.9 c -2.2,0 -4.3,-0.4 -6.2,-1.3 -2,-0.9 -3.7,-2 -5.1,-3.5 -1.4,-1.5 -2.6,-3.2 -3.4,-5.1 -0.9,-2 -1.3,-4 -1.3,-6.2 V 1.8 c 0,-0.3 0.3,-0.6 0.6,-0.6 h 11.7 c 2.1,0 4.2,0.4 6.1,1.3 1.9,0.8 3.6,2 5.1,3.4 1.5,1.4 2.6,3 3.5,4.7 0.9,1.7 1.3,3.3 1.3,4.9 0,1 -0.2,1.7 -0.7,2.4 C 89,18.6 88,19 86.6,19 h -8 c -3.4,0 -5.1,-2.5 -5.4,-3.2 -0.4,-0.7 -0.5,-1.3 -0.5,-2.2 0,-0.5 0.3,-0.7 0.8,-0.7 h 8.6 C 81.1,11.7 79.8,10.5 78.5,9.7 77.6,9.2 76.7,8.8 75.8,8.6 75.3,8.5 74.8,8.4 74.2,8.4 c -0.6,0 -1.1,0.1 -1.6,0.2 -0.3,0 -0.8,0.2 -1.2,0.4 -0.4,0.2 -0.8,0.5 -0.9,0.6 -0.9,0.8 -1.3,1.9 -1.3,3.4 0,1.2 0.2,2.3 0.6,3.4 0.5,1.1 1,2.1 1.8,2.9 0.4,0.4 1.7,1.6 2.6,2 1.1,0.4 2.1,0.7 3.3,0.7 z M 59.2,5.2 c 0,0.2 0,23.3 0,23.3 0,0.4 -0.3,0.8 -0.8,0.8 h -0.9 -1.8 c -2.3,0 -4.2,-1.9 -4.2,-4.2 v -5 c 0,-2.1 -1.8,-3.9 -3.9,-3.9 -4,0 -6.8,3.4 -9.4,5.7 -3.2,2.8 -5.6,5.5 -8.6,5.5 -3,0 -5.4,-2.7 -8.6,-5.5 -2.6,-2.3 -5.4,-5.7 -9.4,-5.7 -2.1,0 -3.9,1.8 -3.9,4 v 8.3 c 0,0.4 -0.3,0.8 -0.8,0.8 H 5.8 4.2 C 1.9,29.3 0,27.4 0,25.1 V 1.8 C 0,1.4 0.4,1 0.8,0.9 h 5.3 c 1.9,0 3.7,0.8 4.9,2 0.1,0.1 6.6,6.2 6.6,6.2 3.1,3.1 7.3,4.8 12,4.8 4.5,0 8.6,-1.6 11.6,-4.4 L 50,1.2 C 50.2,1.1 50.4,1 50.6,1 H 55 c 2.3,0 4.2,1.9 4.2,4.2 z m 92.1,12.3 c 0.4,0 0.6,0.2 0.3,0.8 -0.1,1.6 -0.5,3.2 -1.1,4.6 -0.6,1.5 -1.4,2.7 -2.5,3.7 -1,1 -2.3,1.8 -3.7,2.4 -1.5,0.6 -3,0.9 -4.7,0.9 -2.1,0 -4.1,-0.5 -6.1,-1.4 -1.9,-0.9 -3.7,-2.1 -5.2,-3.6 -1.5,-1.6 -2.7,-3.3 -3.6,-5.3 -0.9,-2 -1.3,-4.1 -1.3,-6.3 V 1.8 c 0,-0.5 0.3,-0.8 0.7,-0.8 h 11.5 c 2.1,0 4,0.4 5.9,1.2 1.9,0.8 3.6,2 5.2,3.4 0.2,0.2 0.3,0.4 0.4,0.5 0,0.2 0,0.3 -0.2,0.5 L 144,9.5 c -0.7,0.7 -1.4,1.1 -2.1,1.1 -0.7,0 -1.3,-0.3 -1.9,-0.7 -1.4,-1.1 -2.8,-1.6 -4.3,-1.6 -1.3,0 -2.4,0.4 -3.2,1.3 -0.9,0.9 -1.3,2 -1.3,3.4 0,1.1 0.3,2.2 0.8,3.3 0.5,1.1 1.2,2.1 2,3 0.8,0.9 1.8,1.6 2.8,2.2 1,0.6 2,0.9 3,0.9 1.1,0 1.9,-0.3 2.6,-0.8 0.7,-0.5 1.2,-1.2 1.5,-2.1 0.5,-1.3 1.5,-2 3.1,-2 z" style="fill:#eb3c96;fill-opacity:1" transform="matrix(3.4482759,0,0,3.4482759,5,1.8965506)"/></svg>