<svg xmlns="http://www.w3.org/2000/svg" viewBox="0 0 306.64 51.21"><defs><style>.cls-1{fill:#fff;}</style></defs><g id="Layer_2" data-name="Layer 2"><g id="Layer_1-2" data-name="Layer 1"><path class="cls-1" d="M4.74,29.35V42.71H0V8c3.58-.16,5.75-.23,6.49-.23q15.1,0,15.11,10.11,0,11.7-13.36,11.7C7.7,29.59,6.54,29.51,4.74,29.35Zm0-17.07V25.09l3.17.24q8.81,0,8.81-6.94,0-6.36-9.4-6.35A18.84,18.84,0,0,0,4.74,12.28Z"/><path class="cls-1" d="M31.23,35.53V7h4.5V34.77A4.34,4.34,0,0,0,36.9,38,4.17,4.17,0,0,0,40,39.16v4Q31.23,43.18,31.23,35.53Z"/><path class="cls-1" d="M70.73,30.46H52.44a9.2,9.2,0,0,0,2.44,6.85,7.66,7.66,0,0,0,5.55,2.08,9.45,9.45,0,0,0,6.44-2.25l1.89,3.25a8.55,8.55,0,0,1-3.2,1.8,17.34,17.34,0,0,1-6,1,11.21,11.21,0,0,1-8.12-3.24,12.73,12.73,0,0,1-3.72-9.62,13.55,13.55,0,0,1,3.81-10.06,11.07,11.07,0,0,1,8.08-3.39c3.61,0,6.45,1,8.5,3.06a10.41,10.41,0,0,1,3,7.79A10.27,10.27,0,0,1,70.73,30.46Zm-10.92-9.8a7.12,7.12,0,0,0-7.25,6.54h14a6.4,6.4,0,0,0-1.71-4.55A6.64,6.64,0,0,0,59.81,20.66Z"/><path class="cls-1" d="M95.63,42.71l-6.92-9.24-6.18,9.24H77.27l9.21-13L78,17.34H83.1l5.68,8.72,6.37-8.72h5L90.91,29.73l10.09,13Z"/><path class="cls-1" d="M124.29,42.71l-6.92-9.24-6.18,9.24h-5.26l9.22-13-8.46-12.39h5.07l5.68,8.72,6.38-8.72h5l-9.21,12.39,10.09,13Z"/><path class="cls-1" d="M139.69,42.71V21.13h-3.48V17.34h8V42.71Zm2.46-35a2.8,2.8,0,0,1,2.8,2.77,2.66,2.66,0,0,1-.82,2,2.79,2.79,0,0,1-4.75-2,2.77,2.77,0,0,1,2.77-2.77Z"/><path class="cls-1" d="M172.1,42.71l-8-12.7-3.93,4.05v8.65h-4.5V7h4.5V29.14l9.71-11.8h5.25L167.05,27,177,42.71Z"/><path class="cls-1" d="M182.88,30A13.88,13.88,0,0,1,186,20.48a10.52,10.52,0,0,1,8.33-3.61q5.44,0,8.45,3.47t3,9.63q0,6.14-3.08,9.67a11.75,11.75,0,0,1-16.84,0Q182.88,36,182.88,30Zm4.74,0q0,9.54,6.75,9.54A5.67,5.67,0,0,0,199.3,37a11.93,11.93,0,0,0,1.79-7q0-9.43-6.72-9.43a5.8,5.8,0,0,0-4.92,2.51A11.54,11.54,0,0,0,187.62,30Z"/><path class="cls-1" d="M230.54,42.71V28q0-4.05-1.22-5.67a4.81,4.81,0,0,0-4.09-1.62,6.77,6.77,0,0,0-3.22.92,7.22,7.22,0,0,0-2.58,2.28V42.71h-4.5V17.34H218l1.42,3.27q2.23-3.73,7.27-3.74Q235,16.87,235,27v15.7Z"/><path class="cls-1" d="M281,0a25.61,25.61,0,1,0,25.61,25.61A25.61,25.61,0,0,0,281,0Zm8.9,32.83a7.3,7.3,0,0,1-3.64-1,1.38,1.38,0,0,0-1.54.13,1.27,1.27,0,0,0-.28,1.24c0,.06.06.19.06.2h0a3.88,3.88,0,0,1,.15,1,3.69,3.69,0,0,1-1.89,3.19,1.35,1.35,0,0,0-.86,1.18,1.22,1.22,0,0,0,.67,1.07,3.71,3.71,0,0,1,2.08,3.3,3.65,3.65,0,0,1-7.3,0,3.61,3.61,0,0,1,2.1-3.3,1.25,1.25,0,0,0,.66-1.07,1.36,1.36,0,0,0-.87-1.18A3.65,3.65,0,0,1,281,30.79a3.52,3.52,0,0,1,1,.15h0l.17.05a1.27,1.27,0,0,0,1.24-.28,1.32,1.32,0,0,0,.23-1.39,7.26,7.26,0,0,1,0-7.54,1.2,1.2,0,0,0-1.47-1.7,3.7,3.7,0,0,1-1.21.21,3.65,3.65,0,1,1,3.65-3.65,3.83,3.83,0,0,1-.14,1,1.23,1.23,0,0,0,1.64,1.68,7.27,7.27,0,1,1,3.75,13.5Z"/><path class="cls-1" d="M241.92,40.16a2.74,2.74,0,0,1,.8-1.93,2.85,2.85,0,0,1,.87-.57,2.8,2.8,0,0,1,2.08,0,2.85,2.85,0,0,1,.87.57,2.79,2.79,0,0,1,.58,3,2.67,2.67,0,0,1-.58.85,2.85,2.85,0,0,1-.87.57,2.68,2.68,0,0,1-2.08,0,2.85,2.85,0,0,1-.87-.57,2.67,2.67,0,0,1-.58-.85A2.74,2.74,0,0,1,241.92,40.16Zm.48,0a2.32,2.32,0,0,0,.18.92,2.41,2.41,0,0,0,.47.73,2.17,2.17,0,0,0,.71.48,2.2,2.2,0,0,0,2.44-.48,2.26,2.26,0,0,0,.48-.73,2.42,2.42,0,0,0,0-1.83,2.2,2.2,0,0,0-.48-.74,2.29,2.29,0,0,0-.7-.48,2.19,2.19,0,0,0-1.74,0,2.13,2.13,0,0,0-1.18,1.22A2.31,2.31,0,0,0,242.4,40.16Zm1.2-1.58h1.19q1.11,0,1.11.9a.79.79,0,0,1-.24.63,1.07,1.07,0,0,1-.6.23l.91,1.4h-.52l-.86-1.36h-.51v1.36h-.48Zm.48,1.41h.49l.31,0a.54.54,0,0,0,.27-.06.37.37,0,0,0,.19-.16.5.5,0,0,0,.08-.29.47.47,0,0,0-.07-.26.35.35,0,0,0-.17-.15A.57.57,0,0,0,245,39h-.88Z"/></g></g></svg>