<?xml version="1.0" encoding="UTF-8" standalone="no"?>
<!-- Generator: Adobe Illustrator 10.0, SVG Export Plug-In . SVG Version: 3.0.0 Build 76)  -->
<svg
   xmlns:ns0="http://ns.adobe.com/SaveForWeb/1.0/"
   xmlns:ns="http://ns.adobe.com/Variables/1.0/"
   xmlns:i="http://ns.adobe.com/AdobeIllustrator/10.0/"
   xmlns:dc="http://purl.org/dc/elements/1.1/"
   xmlns:cc="http://web.resource.org/cc/"
   xmlns:rdf="http://www.w3.org/1999/02/22-rdf-syntax-ns#"
   xmlns:svg="http://www.w3.org/2000/svg"
   xmlns="http://www.w3.org/2000/svg"
   xmlns:xlink="http://www.w3.org/1999/xlink"
   xmlns:sodipodi="http://sodipodi.sourceforge.net/DTD/sodipodi-0.dtd"
   xmlns:inkscape="http://www.inkscape.org/namespaces/inkscape"
   i:viewOrigin="7 80"
   i:rulerOrigin="0 0"
   i:pageBounds="0 141.7324 141.7324 0"
   width="129.598"
   height="22.348"
   viewBox="0 0 129.598 22.348"
   overflow="visible"
   enable-background="new 0 0 129.598 22.348"
   xml:space="preserve"
   id="svg2178"
   sodipodi:version="0.32"
   inkscape:version="0.45.1"
   sodipodi:docname="S-Pl3.svg"
   inkscape:output_extension="org.inkscape.output.svg.inkscape"
   sodipodi:docbase="C:\Users\Олег\Pictures\Wikipedia"><defs
   id="defs2226" /><sodipodi:namedview
   inkscape:window-height="575"
   inkscape:window-width="901"
   inkscape:pageshadow="2"
   inkscape:pageopacity="0.0"
   guidetolerance="10.0"
   gridtolerance="10.0"
   objecttolerance="10.0"
   borderopacity="1.0"
   bordercolor="#666666"
   pagecolor="#ffffff"
   id="base"
   inkscape:zoom="6.2963931"
   inkscape:cx="66.067203"
   inkscape:cy="11.174"
   inkscape:window-x="207"
   inkscape:window-y="207"
   inkscape:current-layer="svg2178" />
	<metadata
   id="metadata2180">
		<ns:variableSets>
			<ns:variableSet
   varSetName="binding1"
   locked="none">
				<ns:variables />
				<ns:sampleDataSets />
			</ns:variableSet>
		</ns:variableSets>
		<ns0:sfw>
			<ns0:slices />
			<ns0:sliceSourceBounds
   y="57.652"
   x="7"
   width="129.598"
   height="22.348"
   bottomLeftOrigin="true" />
		</ns0:sfw>
	<rdf:RDF><cc:Work
     rdf:about=""><dc:format>image/svg+xml</dc:format><dc:type
       rdf:resource="http://purl.org/dc/dcmitype/StillImage" /></cc:Work></rdf:RDF></metadata>
	<switch
   id="switch2182"
   transform="matrix(0.9717132,0,0,0.9717132,1.5882109,0.1556911)">
 <g id="Layer_1">
  <path
   d="M 33.003,13.334 C 33.034,14.855 33.914,15.424 35.362,15.424 C 36.587,15.424 38.08,15.067 38.08,13.557 C 38.08,12.512 37.214,12.08 36.317,11.901 C 34.542,11.514 31.585,11.111 31.585,8.692 C 31.585,6.348 33.721,5.481 35.735,5.481 C 37.572,5.481 39.378,6.302 39.378,8.392 L 37.811,8.392 C 37.751,7.184 36.736,6.765 35.661,6.765 C 34.6,6.765 33.153,7.153 33.153,8.438 C 33.153,9.662 34.019,9.737 34.959,10.035 C 36.945,10.677 39.647,10.677 39.647,13.395 C 39.647,15.842 37.453,16.708 35.273,16.708 C 33.019,16.708 31.376,15.755 31.436,13.335 L 33.003,13.335 L 33.003,13.334 z "
   id="path2191"
   style="fill:#878a8b" />
  <path
   d="M 45.248,11.404 C 45.173,10.463 44.725,9.806 43.71,9.806 C 42.351,9.806 41.829,10.986 41.829,12.748 C 41.829,14.51 42.351,15.689 43.71,15.689 C 44.65,15.689 45.233,15.078 45.307,14.001 L 46.726,14.001 C 46.607,15.689 45.352,16.718 43.695,16.718 C 41.292,16.718 40.336,15.017 40.336,12.808 C 40.336,10.613 41.441,8.775 43.814,8.775 C 45.397,8.775 46.591,9.776 46.666,11.403 L 45.248,11.403 L 45.248,11.404 z "
   id="path2193"
   style="fill:#878a8b" />
  <path
   d="M 47.411,16.398 L 47.411,5.619 L 48.83,5.619 L 48.83,9.904 L 48.86,9.904 C 49.397,9.068 50.204,8.68 51.293,8.68 C 53.249,8.68 53.861,9.979 53.861,11.322 L 53.861,16.398 L 52.442,16.398 L 52.442,11.964 C 52.442,10.65 52.099,9.798 50.771,9.768 C 50.204,9.754 49.337,10.186 49.069,10.813 C 48.74,11.589 48.83,12.127 48.83,12.545 L 48.83,16.397 L 47.411,16.397 L 47.411,16.398 z "
   id="path2195"
   style="fill:#878a8b" />
  <path
   d="M 59.893,12.089 C 59.923,10.835 59.355,9.865 57.982,9.865 C 56.802,9.865 56.1,10.865 56.1,12.089 L 59.893,12.089 z M 56.1,13.074 C 55.997,14.388 56.534,15.746 57.982,15.746 C 59.086,15.746 59.639,15.314 59.803,14.225 L 61.296,14.225 C 61.072,15.926 59.758,16.778 57.967,16.778 C 55.563,16.778 54.607,15.075 54.607,12.866 C 54.607,10.672 55.713,8.835 58.086,8.835 C 60.325,8.88 61.385,10.298 61.385,12.374 L 61.385,13.075 L 56.1,13.075 L 56.1,13.074 z "
   id="path2197"
   style="fill:#878a8b" />
  <path
   d="M 63.635,16.398 L 62.218,16.398 L 62.218,8.904 L 63.635,8.904 L 63.635,10.354 L 63.665,10.354 C 63.875,9.322 64.83,8.8 65.859,8.8 C 66.039,8.8 66.189,8.814 66.353,8.814 L 66.353,10.158 C 66.158,10.084 65.935,10.084 65.74,10.084 C 63.949,10.143 63.635,11.098 63.635,12.682 L 63.635,16.398 z "
   id="path2199"
   style="fill:#878a8b" />
  <path
   d="M 67.059,5.619 L 68.745,5.619 L 68.745,7.158 L 67.059,7.158 L 67.059,5.619 z M 67.193,8.904 L 68.611,8.904 L 68.611,16.399 L 67.193,16.399 L 67.193,8.904 z "
   id="path2201"
   style="fill:#878a8b" />
  <path
   d="M 71.035,10.009 L 71.064,10.009 C 71.543,9.068 72.587,8.68 73.334,8.68 C 73.857,8.68 76.172,8.814 76.172,11.219 L 76.172,16.399 L 74.752,16.399 L 74.752,11.682 C 74.752,10.442 74.231,9.769 73.035,9.769 C 73.035,9.769 72.26,9.725 71.662,10.322 C 71.453,10.531 71.064,10.859 71.064,12.322 L 71.064,16.398 L 69.646,16.398 L 69.646,8.904 L 71.035,8.904 L 71.035,10.009 L 71.035,10.009 z "
   id="path2203"
   style="fill:#878a8b" />
  <path
   d="M 80.432,15.24 C 81.969,15.24 82.536,13.927 82.536,12.478 C 82.536,11.029 81.97,9.716 80.432,9.716 C 78.776,9.716 78.327,11.298 78.327,12.478 C 78.327,13.658 78.775,15.24 80.432,15.24 z M 82.582,8.911 L 84.043,8.911 C 84,9.359 83.955,9.806 83.955,10.254 L 83.955,15.524 C 83.955,18.272 82.762,19.391 80.014,19.391 C 78.401,19.391 77.252,18.705 77.237,16.973 L 78.729,16.973 C 78.79,17.973 79.477,18.362 80.477,18.362 C 82.493,18.362 82.493,16.688 82.536,15.005 L 82.493,15.005 C 82.044,15.9 80.954,16.273 80.03,16.273 C 77.745,16.273 76.833,14.66 76.833,12.554 C 76.833,10.39 78.044,8.687 80.313,8.687 C 81.043,8.687 81.85,8.986 82.313,9.673 C 82.344,9.703 82.536,10.136 82.536,10.031 L 82.582,8.911 z "
   id="path2205"
   style="fill:#878a8b" />
  <path
   d="M 84.879,10.719 L 88.627,10.719 L 88.627,11.764 L 84.879,11.764 L 84.879,10.719 z "
   id="path2207"
   style="fill:#878a8b" />
  <path
   d="M 93.352,10.367 C 93.53,10.367 95.291,10.456 95.291,8.635 C 95.291,6.814 93.529,6.905 93.352,6.905 L 91.008,6.905 L 91.008,10.368 L 93.352,10.368 L 93.352,10.367 z M 89.516,5.619 L 93.127,5.619 C 95.127,5.53 96.859,6.277 96.859,8.635 C 96.859,10.891 95.023,11.608 93.037,11.653 L 91.008,11.653 L 91.008,16.399 L 89.516,16.399 L 89.516,5.619 z "
   id="path2209"
   style="fill:#878a8b" />
  <path
   d="M 97.543,5.619 L 98.963,5.619 L 98.963,16.398 L 97.543,16.398 L 97.543,5.619 z "
   id="path2211"
   style="fill:#878a8b" />
  <path
   d="M 103.514,15.496 C 105.2,15.496 105.752,14.152 105.752,12.557 C 105.752,10.957 105.199,9.614 103.514,9.614 C 101.826,9.614 101.274,10.957 101.274,12.557 C 101.273,14.152 101.826,15.496 103.514,15.496 z M 107.244,12.557 C 107.244,14.885 105.976,16.526 103.514,16.526 C 101.052,16.526 99.78,14.885 99.78,12.557 C 99.78,10.226 101.051,8.584 103.514,8.584 C 105.977,8.584 107.244,10.226 107.244,12.557 z "
   id="path2213"
   style="fill:#878a8b" />
  <path
   d="M 112.934,8.904 L 114.352,8.904 L 114.352,16.399 L 112.963,16.399 L 112.963,15.295 L 112.934,15.295 C 112.366,16.234 111.411,16.623 110.366,16.623 C 108.8,16.623 107.903,15.428 107.903,13.92 L 107.903,8.904 L 109.321,8.904 L 109.321,13.338 C 109.321,14.637 109.62,15.594 110.979,15.594 C 111.561,15.594 112.352,15.295 112.651,14.518 C 112.919,13.817 112.934,12.934 112.934,12.756 L 112.934,8.904 L 112.934,8.904 z "
   id="path2215"
   style="fill:#878a8b" />
  <path
   d="M 118.613,15.15 C 120.15,15.15 120.717,13.837 120.717,12.388 C 120.717,10.941 120.151,9.626 118.613,9.626 C 116.953,9.626 116.506,11.208 116.506,12.388 C 116.506,13.568 116.953,15.15 118.613,15.15 z M 120.762,8.82 L 122.225,8.82 C 122.18,9.268 122.135,9.716 122.135,10.164 L 122.135,15.434 C 122.135,18.182 120.942,19.301 118.194,19.301 C 116.583,19.301 115.432,18.613 115.419,16.883 L 116.911,16.883 C 116.97,17.883 117.657,18.272 118.657,18.272 C 120.673,18.272 120.673,16.6 120.718,14.911 L 120.673,14.911 C 120.226,15.807 119.136,16.181 118.21,16.181 C 115.925,16.181 115.017,14.57 115.017,12.464 C 115.017,10.3 116.224,8.598 118.494,8.598 C 119.226,8.598 120.031,8.896 120.494,9.583 C 120.525,9.613 120.719,10.045 120.719,9.941 L 120.762,8.82 z "
   id="path2217"
   style="fill:#878a8b" />
  <path
   d="M 123.148,16.398 L 123.148,5.619 L 124.566,5.619 L 124.566,9.904 L 124.595,9.904 C 125.134,9.068 125.939,8.68 127.029,8.68 C 128.986,8.68 129.597,9.979 129.597,11.322 L 129.597,16.398 L 128.179,16.398 L 128.179,11.964 C 128.179,10.65 127.835,9.798 126.505,9.768 C 125.939,9.754 125.073,10.186 124.804,10.813 C 124.476,11.589 124.566,12.127 124.566,12.545 L 124.566,16.397 L 123.148,16.397 L 123.148,16.398 z "
   id="path2219"
   style="fill:#878a8b" />
  <path
   d="M 0,11.042 C 0,7.859 2.59,5.619 5.356,5.619 C 6.388,5.619 10.201,5.619 10.201,5.619 L 8.159,8.978 C 8.159,8.978 6.542,8.978 5.444,8.978 C 2.795,8.978 2.561,13.014 5.4,13.018 C 6.488,13.02 6.815,12.53 7.552,11.35 C 7.92,10.758 11.838,4.364 12.337,3.557 C 12.623,3.096 13.545,1.296 15.301,0.505 C 16.949,-0.237 18.268,-0.17 19.055,0 C 21.456,0.516 22.589,2.042 22.589,2.042 L 20.57,5.312 C 20.154,3.49 18.572,3.226 17.979,3.226 C 16.311,3.226 15.872,4.193 15.367,4.983 C 15.266,5.141 11.355,11.639 11.108,12.053 C 10.2,13.574 8.745,16.377 5.313,16.377 C 2.744,16.377 0,14.225 0,11.042 z "
   id="path2221"
   style="fill:#a2001d" />
  <path
   d="M 18.841,5.685 C 16.755,5.685 15.152,6.849 14.318,8.188 C 13.567,9.393 5.69,22.348 5.69,22.348 L 9.62,22.348 C 9.62,22.348 16.689,10.735 16.996,10.23 C 17.303,9.724 17.699,9.045 18.796,9.045 C 19.96,9.045 20.904,9.769 20.904,11.02 C 20.904,12.074 20.201,13.106 18.796,13.106 C 17.391,13.106 16.112,13.106 16.112,13.106 L 14.107,16.399 L 18.796,16.399 C 21.496,16.399 24.196,14.489 24.218,11.262 C 24.247,7.024 20.925,5.685 18.841,5.685 z "
   id="path2223"
   style="fill:#a2001d" />
 </g>
	</switch>
</svg>