<?xml version="1.0" encoding="UTF-8"?>
<svg width="414" height="114" viewBox="0 0 138 38" xmlns="http://www.w3.org/2000/svg">
 <path d="M119.142405,0.379586207 C111.826326,0.379586207 105.512148,4.59475862 102.43488,10.7244138 C99.3576129,4.59475862 93.0420584,0.379586207 85.7273554,0.379586207 C78.3383356,0.379586207 71.9691079,4.68303448 68.9276228,10.9147586 C65.8875139,4.68303448 59.5169099,0.379586207 52.1292663,0.379586207 C44.8131871,0.379586207 38.4962564,4.59751724 35.4189891,10.7285517 C32.343098,4.59751724 26.0261673,0.379586207 18.7087119,0.379586207 C8.37729604,0.379586207 0.000137623762,8.77544828 0.000137623762,19.1313103 C0.000137623762,29.4871724 8.37729604,37.8830345 18.7087119,37.8830345 C26.0261673,37.8830345 32.343098,33.6664828 35.4189891,27.534069 C38.4962564,33.6664828 44.8131871,37.8830345 52.1292663,37.8830345 C59.5169099,37.8830345 65.8875139,33.5809655 68.9276228,27.3478621 C71.9691079,33.5809655 78.3383356,37.8830345 85.7273554,37.8830345 C93.0420584,37.8830345 99.3576129,33.6678621 102.43488,27.5382069 C105.512148,33.6678621 111.826326,37.8830345 119.142405,37.8830345 C129.476573,37.8830345 137.852355,29.4871724 137.852355,19.1313103 C137.852355,8.77544828 129.476573,0.379586207 119.142405,0.379586207" fill="#008579"/>
 <path d="M85.8009842,25.2907586 C82.3314891,25.2852414 79.5294693,22.4742069 79.5225881,19.0011034 C79.5294693,15.528 82.3314891,12.7197241 85.8009842,12.7114483 C89.2622218,12.7197241 92.0669941,15.528 92.072499,19.0011034 C92.0669941,22.4742069 89.2622218,25.2852414 85.8009842,25.2907586 M85.7996079,8.08524138 C79.782697,8.08524138 74.9053109,12.9721379 74.9053109,19.0011034 C74.9053109,25.030069 79.782697,29.9169655 85.7996079,29.9169655 C91.8096376,29.9169655 96.6911525,25.030069 96.6911525,19.0011034 C96.6911525,12.9721379 91.8096376,8.08524138 85.7996079,8.08524138" fill="#FFFFFF"/>
 <path d="M110.591978,29.9943448 L110.399305,29.9943448 L110.399305,10.5653793 C110.403434,8.9902069 111.454879,8.0577931 112.815978,8.05503448 C113.468315,8.06744828 114.390394,8.51434483 114.834919,9.11296552 L123.948364,21.2977931 L123.948364,10.5653793 C123.949741,8.9902069 125.001186,8.0577931 126.363661,8.05503448 C127.723384,8.0577931 128.773453,8.9902069 128.776206,10.5653793 L128.776206,27.4384828 C128.773453,29.0136552 127.723384,29.946069 126.363661,29.9474483 C125.708572,29.9377931 124.814018,29.484 124.343345,28.8922759 L115.231275,16.8508966 L115.231275,29.9943448 L110.591978,29.9943448 Z" fill="#FFFFFF"/>
 <path d="M59.5893,24.2757241 C59.1502802,23.6012414 58.4139931,23.2164138 57.6611911,23.2164138 C57.2524485,23.2136552 56.8340723,23.3295172 56.4652406,23.5708966 L56.7157158,23.9557241 L56.4088149,23.6136552 C55.2926861,24.6164138 53.8132307,25.2274483 52.2016564,25.2274483 C48.7335376,25.221931 45.9315178,22.4122759 45.9246366,18.9391724 C45.9315178,15.4674483 48.7335376,12.6564138 52.2016564,12.6495172 C54.5247455,12.6481379 56.6386465,13.884 57.7189931,15.746069 L58.0217653,16.2729655 L61.2352802,12.9515862 L61.0068248,12.6398621 C59.0291713,9.91848276 55.8197851,8.14606897 52.2016564,8.14606897 C46.1861218,8.14606897 41.3073594,13.0343448 41.3073594,19.0633103 C41.3073594,25.0922759 46.1861218,29.9777931 52.2016564,29.9777931 C54.7958644,29.9777931 57.1905178,29.0702069 59.0677059,27.5502069 C59.6938941,27.141931 60.0599733,26.4136552 60.0599733,25.6715862 C60.0599733,25.2495172 59.9429931,24.8205517 59.6938941,24.4398621 L59.5893,24.2757241 Z" fill="#FFFFFF"/>
 <path d="M18.6690762,7.72606897 L18.4750267,7.72606897 C17.2240267,7.72606897 16.2111158,8.74262069 16.2111158,9.99641379 L16.2111158,30.2612414 L20.9329871,30.2612414 L20.9329871,9.99641379 C20.9329871,8.74262069 19.9187,7.72606897 18.6690762,7.72606897" fill="#FFFFFF"/>
</svg>