<svg xmlns="http://www.w3.org/2000/svg" data-name="Group 1884" width="2012" height="786.18" viewBox="0 0 2012 786.18">
  <defs>
    <clipPath id="a">
      <path data-name="Rectangle 1655" fill="none" d="M0 0h2012v786.18H0z"/>
    </clipPath>
  </defs>
  <g data-name="Group 1883" clip-path="url(#a)">
    <path data-name="Path 1336" d="M111.154 216.404a118.63 118.63 0 0 0-63.188 17.406V107.889H0v211.374h.095q-.114 2.088-.095 4.119c0 64.365 49.731 104.719 111.154 104.719s111.742-40.183 111.742-104.719a106.105 106.105 0 0 0-111.742-107.054m0 173.165a62.64 62.64 0 0 1-64.346-66.7 63.663 63.663 0 0 1 64.346-67.744 64.156 64.156 0 0 1 64.934 67.858 63.13 63.13 0 0 1-64.934 66.7"/>
    <path data-name="Path 1337" d="M260.212 114.855a29.42 29.42 0 0 1 29.25-29.838 29.99 29.99 0 0 1 29.838 29.838 29.48 29.48 0 0 1-29.838 29.25 28.965 28.965 0 0 1-29.25-29.25m53.147 308.899H265.47V221.339h47.965Z"/>
    <path data-name="Path 1338" d="M466.253 428.423c-61.423 0-111.154-40.373-111.154-104.719a111.533 111.533 0 0 1 222.895 0c0 64.346-50.319 104.719-111.742 104.719m64.934-105.307a64.726 64.726 0 1 0-129.28 0 64.669 64.669 0 1 0 129.28 0"/>
    <path data-name="Path 1339" d="M904.09 466.993a171 171 0 0 1 1.196-20.044l-289.614-73.267c-21.069 60.91-80.29 97.278-149.552 97.278h-2.164l315.277 315.277L973.22 592.25a140.46 140.46 0 0 1-69.148-125.275m-92.096 163.029a8.086 8.086 0 1 1-8.181 7.991 8.086 8.086 0 0 1 8.181-7.991m-32.268 28.225a12.129 12.129 0 1 1-12.262 11.996 12.15 12.15 0 0 1 12.262-11.996m-31.642-28.946a8.086 8.086 0 1 1-8.181 7.991 8.086 8.086 0 0 1 8.181-7.991m-62.638 15.489a8.086 8.086 0 1 1 8.181-7.991 8.086 8.086 0 0 1-8.181 7.991m30.047 36.994a12.129 12.129 0 1 1 12.262-11.996 12.15 12.15 0 0 1-12.262 11.996m31.604 34.337a14.141 14.141 0 1 1 14.293-13.989 14.18 14.18 0 0 1-14.293 13.989m31.623 32.268a14.141 14.141 0 1 1 14.312-13.989 14.16 14.16 0 0 1-14.312 13.989m32.268-31.623a14.141 14.141 0 1 1 14.312-13.989 14.16 14.16 0 0 1-14.312 13.989m32.268-33.635a12.129 12.129 0 1 1 12.262-11.996 12.15 12.15 0 0 1-12.262 11.996m32.363-36.311a8.086 8.086 0 1 1 8.181-7.991 8.105 8.105 0 0 1-8.181 7.991"/>
    <path data-name="Path 1340" d="M779.251 0 571.465 207.786a145.4 145.4 0 0 1 52.483 115.272 171 171 0 0 1-1.348 20.879l289.178 73.172a151.28 151.28 0 0 1 149.609-101.587 182.2 182.2 0 0 1 37.241 3.796Zm-95.095 154.886a8.086 8.086 0 1 1 7.991-8.181 8.105 8.105 0 0 1-7.991 8.181m30.218-28.908a12.129 12.129 0 1 1 11.996-12.262 12.15 12.15 0 0 1-11.996 12.262m32.268 28.225a8.086 8.086 0 1 1 7.991-8.181 8.105 8.105 0 0 1-7.991 8.181m-.645-58.519a14.16 14.16 0 1 1 13.989-14.312 14.16 14.16 0 0 1-13.989 14.312m32.268 29.611a12.129 12.129 0 1 1 11.996-12.262 12.15 12.15 0 0 1-11.996 12.262m-.683-61.935a14.141 14.141 0 1 1 13.989-14.312 14.18 14.18 0 0 1-13.989 14.312m32.97 90.141a8.086 8.086 0 1 1 7.991-8.162 8.086 8.086 0 0 1-7.991 8.162m-.665-58.595a14.16 14.16 0 1 1 13.989-14.312 14.16 14.16 0 0 1-13.989 14.312m32.268 29.592a12.129 12.129 0 1 1 11.996-12.263 12.15 12.15 0 0 1-11.996 12.262m32.268 28.225a8.086 8.086 0 1 1 7.991-8.181 8.105 8.105 0 0 1-7.991 8.181"/>
    <path data-name="Path 1341" d="M950.993 466.328a105.535 105.535 0 0 1 112.33-106.484 115.03 115.03 0 0 1 66.681 17.558l-14.046 35.685a89.2 89.2 0 0 0-48.554-13.458 66.149 66.149 0 1 0 0 132.223 89.2 89.2 0 0 0 48.554-13.458l12.869 35.685a108.76 108.76 0 0 1-65.523 17.558c-65.523 0-112.33-43.884-112.33-105.307"/>
    <path data-name="Path 1342" d="M1259 405.475a45.745 45.745 0 0 0-47.453 44.473v117h-47.984V364.533h31.604l5.846 28.662h2.335a67.19 67.19 0 0 1 59.088-29.25 68.33 68.33 0 0 1 40.373 10.535l-16.969 37.45a50.3 50.3 0 0 0-26.915-6.435"/>
    <path data-name="Path 1343" d="m1346.597 679.354 62.011-125.788-91.261-188.957h52.065l58.519 130.457a53.2 53.2 0 0 1 3.512 15.185h2.923a53.2 53.2 0 0 1 3.512-15.185l57.342-130.457h49.142l-147.464 314.745Z"/>
    <path data-name="Path 1344" d="M1646.974 534.793c29.838 0 46.219-8.769 46.219-24.581 0-38.608-132.223-18.127-132.223-90.103 0-33.919 26.327-60.246 87.161-60.246a195.5 195.5 0 0 1 87.769 16.381l-16.381 37.45a119 119 0 0 0-66.111-16.969c-27.485 0-45.042 5.846-45.042 22.777 0 37.431 133.38 15.185 133.38 90.084 0 33.938-27.504 62.011-93.008 62.011a150.7 150.7 0 0 1-91.28-23.404l16.969-33.35a149.95 149.95 0 0 0 72.546 19.892"/>
    <path data-name="Path 1345" d="M1802.695 303.679h47.453v60.854h75.469v38.608h-75.469v79.569c0 33.938 14.046 48.554 40.961 48.554a55.05 55.05 0 0 0 27.485-8.181l15.811 32.761a80.48 80.48 0 0 1-50.319 15.792c-52.065 0-81.315-30.37-81.315-87.161v-81.334h-39.196v-38.608h39.196Z"/>
    <path data-name="Path 1346" d="M1972.728 302.787a39.253 39.253 0 1 0 39.253 39.272 39.29 39.29 0 0 0-39.253-39.272m0 69.452a30.199 30.199 0 1 1 30.199-30.199 30.18 30.18 0 0 1-30.199 30.199"/>
    <path data-name="Path 1347" d="M1958.606 321.123h16.21a28.5 28.5 0 0 1 6.055.626 15.2 15.2 0 0 1 5.03 2.069 10.44 10.44 0 0 1 3.436 3.891 13.3 13.3 0 0 1 1.272 6.112 12.34 12.34 0 0 1-2.316 7.592 10.44 10.44 0 0 1-6.738 3.929l10.648 17.671h-11.047l-8.731-16.722h-4.555v16.722h-9.225Zm9.225 17.311h8.086a7.6 7.6 0 0 0 2.506-.531 4.37 4.37 0 0 0 1.898-1.386 4.18 4.18 0 0 0 .74-2.657 4.56 4.56 0 0 0-.645-2.543 3.8 3.8 0 0 0-1.651-1.443 7.6 7.6 0 0 0-2.316-.683 19 19 0 0 0-2.524-.171h-6.036Z"/>
  </g>
</svg>
