<svg xmlns="http://www.w3.org/2000/svg" width="1600" height="350.03" viewBox="0 0 1600 350.03">
  <defs>
    <clipPath id="a">
      <path data-name="Clip 2" d="M0 0h263v331.11H0Z" fill="none"/>
    </clipPath>
    <clipPath id="b">
      <path data-name="Clip 11" d="M0 350h1600V0H0Z" fill="none"/>
    </clipPath>
  </defs>
  <g data-name="Group 3">
    <path data-name="Clip 2" d="M0 11.82h263v331.11H0Z" fill="none"/>
    <g data-name="Group 3" clip-path="url(#a)" transform="translate(0 1.182)">
      <path data-name="Fill 1" d="M63.39 331.11H0V0h148.53a118.6 118.6 0 0 1 81.71 30.75A103.2 103.2 0 0 1 263 106.9c0 61.21-49.21 107.37-114.47 107.37H63.39zm0-272.46v97h85.14a47.43 47.43 0 0 0 48.25-48.73 47.2 47.2 0 0 0-48.25-48.25Z" fill="#af0678"/>
    </g>
  </g>
  <path data-name="Fill 4" d="M398.25 350.02c-68.22 0-119.67-55.92-119.67-130.07S330.03 89.87 398.25 89.87a115 115 0 0 1 74.74 27V96.96h58.65v246h-58.65v-19.89a115 115 0 0 1-74.74 26.95m7.57-201a68 68 0 0 0-66.24 70.93 68 68 0 0 0 66.22 71 63.8 63.8 0 0 0 47.12-20.4 73.5 73.5 0 0 0 19.1-50.55 73.4 73.4 0 0 0-19.1-50.55 64 64 0 0 0-47.1-20.45Z" fill="#af0678"/>
  <path data-name="Fill 6" d="M572.77 219.95A127.1 127.1 0 0 1 702.85 89.87a127.4 127.4 0 0 1 121.56 81.35l-59.12 17.51A66.9 66.9 0 0 0 702.85 149a69 69 0 0 0-69.06 71 69 69 0 0 0 69.06 71 66.9 66.9 0 0 0 62.44-39.73l59.12 17.5a127.4 127.4 0 0 1-121.56 81.35 127.1 127.1 0 0 1-130.08-130.17" fill="#af0678"/>
  <path data-name="Fill 8" d="M1032.98 342.93H863.17V11.82h160.35a109.5 109.5 0 0 1 73.08 25.84 85 85 0 0 1 29.09 64.5 83.4 83.4 0 0 1-32.17 66.7 91.5 91.5 0 0 1 46.35 79.47 89 89 0 0 1-30.7 67.49 114.4 114.4 0 0 1-76.19 27.11M926.56 201.97v82.31h106.42a40.3 40.3 0 0 0 29-11.89 42.6 42.6 0 0 0 0-58.53 40.3 40.3 0 0 0-29-11.88Zm0-131.5v73.35h97a36.2 36.2 0 0 0 26-10.47 37 37 0 0 0 10.41-26.43 35.6 35.6 0 0 0-36.42-36.42Z" fill="#e31b92"/>
  <path data-name="Clip 11" d="M0 350h1600V0H0Z" fill="none"/>
  <g data-name="Mask Group 1" clip-path="url(#b)" fill="#e31b92">
    <path data-name="Fill 10" d="M1242.49 342.93h-59.17V97h59.17v246Zm-29.8-267.73a36.8 36.8 0 0 1-37.37-37.83A36.55 36.55 0 0 1 1212.69 0a36.8 36.8 0 0 1 37.84 37.37 38 38 0 0 1-10.76 27.07 38 38 0 0 1-27.08 10.76"/>
    <path data-name="Fill 12" d="M1600 193.57A156.47 156.47 0 1 1 1443.54 37.1 156.46 156.46 0 0 1 1600 193.57"/>
  </g>
</svg>
