<svg version="1.2" xmlns="http://www.w3.org/2000/svg" viewBox="0 0 1547 417" width="1547" height="417"><style>.a{fill:#ffa32b}.b{fill:#1d738b}.c{fill:#373a40}</style><path class="a" d="m288.3 181.4c14.9 25.8 6.1 58.8-19.8 73.7-25.9 14.9-58.9 6.1-73.7-19.8-15-25.7-6.2-58.8 19.7-73.7 25.9-14.9 58.9-6 73.8 19.8z"/><path class="b" d="m424.2 108.2h-161.5c-2.1 0-3.7 1.7-3.7 3.8 0 0.6 0.2 1.3 0.4 1.8l84.1 145.5c17.5 30 7.2 68.5-23 85.9-10.2 5.9-21.2 8.5-32.1 8.4h-196.9c-0.1 0-0.2 0-0.2 0-2 0-3.8 1.7-3.8 3.7 0 0.7 0.3 1.4 0.6 2.1l33.1 57.2h240.6l120.4-208.3zm-203.9 200.3h-161.6l-57.9-100.2 120.3-208.1h240.7l33.1 57.3c0.4 0.6 0.6 1.2 0.6 1.9 0 2.1-1.7 3.7-3.8 3.7q-0.1 0.1-0.2 0h-196.9v0.1c-10.9-0.1-22 2.5-32.1 8.3-30.1 17.4-40.5 55.9-23.1 86l84.2 145.5c0.2 0.5 0.4 1.1 0.4 1.8 0 2-1.6 3.7-3.7 3.7z"/><path class="c" d="m710.2 196.6c1.4 1.1 3.6 2.6 6.5 4.4 2.8 1.6 5.8 2.4 8.9 2.4q0.4 0.1 0.9 0 3.7 0 5.4-2.8c0.5-1 0.7-2.3 0.5-4.2-0.2-2-1.5-3.9-3.9-5.9-2.4-1.9-6-2.8-10.7-2.7-6.8 0.4-9.7 1.4-10.1 3.3-0.3 1.7-0.3 2.4 0 2.9 0.2 0.5 0.7 1.1 2.5 2.6z"/><path class="c" d="m701.1 164.4c-5.1-2.3-8.5-3.4-10.4-3.3-0.7-0.1-2 0.1-5.8 2.2q-3.8 2.1-6.2 2.6-2.4 0.5-5.3 0.5h-3.3-0.3c-1.4 0.5-2.3 1-2.4 1.7-0.5 4.4 7.1 7.9 20.4 7.5l0.9 8.4c0.6 5.7 0.9 16.9 1 33.2l0.2 19.3c0.1 2.3-0.3 5.4-1.2 9.4-1 4.9-2 6.6-2.6 7.3-0.8 0.8-1.8 1.3-3.1 1.4q-1.9 0.2-6.9-0.7l-5.9-0.8c-1.5-0.1-2.5 0.6-2.7 1.9-0.3 1.5 0.3 2.5 0.8 2.9l6.5 7.1c1.3 1.5 2.7 3.1 4 4.9l5.6 8.4c1.3 1.9 2.8 2.9 4.3 2.9q0.1 0 0.2 0c2.3-0.1 4.9-2.4 8.2-7.3 3.1-4.7 5.2-10.8 6.3-18.4q1.6-11.2 1.7-19c-0.2-2.1-0.4-7.3-0.7-15.5q-0.3-12.4-0.5-19.1-0.1-6.8-0.1-10.8c0-2.7 0.1-4.8 0.2-6.4q0.3-2.3 1.2-5.2 1-2.8 2.1-4.3c0.9-1.4 1.4-2.3 1.5-3 0.2-2.8-2.3-5.4-7.7-7.8z"/><path fill-rule="evenodd" class="c" d="m723.6 239.2c-1 1-2 1.2-2.8 1.2q-0.5 0-0.9-0.1c-2.6-0.2-5.3-2.1-7.9-5.6-3.5-4.7-3.9-6.2-3.8-7 0-2.6 3.7-3.4 4.9-3.7q3.9-0.8 6.1-1.9c1.5-0.8 4.7-2.8 9.5-5.8l9.3-5.9q1.3-0.7 2.6-0.3c1.5 0.4 1.6 1.4 1.6 1.8 0 0.7-0.2 1.4-0.7 2.3l-0.1 0.1-4.8 6.4c-5 6.6-8.2 11.2-9.5 13.5-1.4 2.5-2.5 4.1-3.5 5zm-44.3-14.1c-6.6 9.4-10.7 15.3-12 17.6q-2 3.7-4.1 5.7c-0.6 0.5-1.5 1.2-2.8 1.2-0.9 0-1.9-0.3-3.1-1.1q-4.9-3.3-7.5-6.6c-2.1-3-2.5-4-2.6-4.5q-0.2-1.1 0-1.8 0.3-1.1 1.5-1.8c0.7-0.3 2-0.8 4.1-1.5 2-0.6 5-2 8.8-4 3.9-2 7.5-4.4 10.6-7h0.1l4.8-3.8c3.5-2.8 4.8-3.1 5.7-2.7 0.3 0.1 0.9 0.5 0.9 1.6 0 1.9-0.2 2.6-0.4 2.9zm-27.1-33.1c0.8-0.9 2.3-1.3 4.8-1.3q8 0.3 11.7 0.6 4.1 0.5 7.3 4.5c2.2 2.7 2.7 5.8 1.4 9.2q-0.8 2-2.6 2.8-1 0.4-2.2 0.4-2.7 0-6.7-1.9c-5-2.2-8.7-4.6-10.8-7.1-2.9-3.3-3.4-4.6-3.4-5.4-0.1-0.6 0.1-1.3 0.5-1.8z"/><path class="c" d="m656.2 217.8c1.5-0.7 2.3-2 2.5-3.6 0.4-2.9-3.1-4.5-4.5-5-3.3-1.1-7.5-1.4-11.1-1.4-3.5 0-9.2 0.6-17.6 1.7l-1.1-14.9c2.9-1 9-1.4 10.4-1.1q2.4 0.4 3.5 0.2c3.9-0.2 6.9-2.7 8.9-7.2 1.9-4.2 5-10.5 9.2-18.8q6.4-12.7 7.4-14.6c0.6-1.3 1.5-2.7 2.8-4.4 1.3-2.5 1.3-5.5 0.2-7.2-0.6-1-2.1-4-9-7.9-5.2-2.9-7.2-3.9-12.6-3.4-0.6 0-10.4 2.9-16.6 3.9l5.3-19.7c9.1-2 16.1-3.9 20.7-5.7 5.3-2 7.8-4.3 7.7-6.9q-0.1-3.7-2.1-5.3c-1.3-1.1-3.5-1.6-6.8-1.6-2.9 0-7.8 0.7-14.9 2.3 2.1-8 3.6-13.2 4.5-15.5 1.3-3.3 1.6-4.2 1.6-4.6 0.4-3.1-2.3-6.1-8.4-9.3-5.7-3.1-9.9-4.6-12.8-4.7-1.7 0-2.4 0.6-2.9 1.6q-1 1.9 0.3 4.8c1.2 2.9 1.4 4.5 1.7 5.6q0.4 2.3 0.4 5.5 0 3.3-0.1 7.4-0.2 4.2-0.5 6.8-0.4 2.4-0.9 6l-21.6 3.7-8.5 1.2c-1.8 0.4-2.7 1.4-3 2.6-0.4 1.8 1.2 3.8 1.8 4.4 1 1.1 3.8 2.2 6.6 2.7 1.6 0.3 4.7 0.9 21.9 0.5l-4.6 21.3c0 0-12.7 2.2-17.4 2.7-3.1 0.4-16.1 0.1-16.1 0.1-2.2-0.4-4.1-0.2-5.2 1.1-1.6 1.8-2 3.2 0.8 8.2 1.8 3.1 9.4 18.5 11 23.4q2.4 7.5 4.5 13.5c1.4 3.9 2.4 6.9 3 8.8 0.6 2.1 1.5 3.5 2.6 4 1 0.5 1.8 0.7 2.7 0.7 0.2 0 0.7 0 5.4-1.3 2.4-0.7 4.3-1.3 5.8-1.7l0.2 15.2c-25.7 3.9-42.6 5.7-50.3 5.3l-4.8-0.3c-6.3-0.2-7.7 0.4-8.4 1-0.3 0.3-0.4 0.6-0.4 1 0 2.1-0.2 5.8 5.1 9.6 4.4 3.2 7.8 4.7 14.9 3.5 2-0.4 4-1.2 6.1-1.6l11.9-2.2q10.1-1.8 26.2-4.8l-4.9 39.6q-0.3 2.1-0.3 4 0 2 0.3 4.3c0.2 1.5 0.2 4.6 1.4 8.3 1.6 5.2 2.7 6 3.5 6.9 0.8 1.1 2.3 1.4 3.3 1.4q0.3 0 0.6 0c1.6-0.4 2.9-2 4.1-5.2 1.8-4.6 2.9-9.6 3.4-14.9 0.5-5.1 0.8-11.2 1-18.2 0.2-6.7 0.5-15.7 0.9-27.4l6.4-0.9 11.9-1.2q7.3-0.9 9.1-1.1 2-0.3 3.9-1.2zm-37.9-45.4c6.8-1.7 11.9-2.9 14.7-5.8q2.4-2.4 1.9-5.1-0.5-3-5.9-3.6c-2.5-0.2-5.7 0.3-10 1.3l-12.2 3.2q-2.1 0.6-5.9 1.5l-2.2-14.1c16.7-4.3 29.3-6.9 37.6-7.6 3.3-0.2 5.4 0.6 6.3 2.2 0.3 0.7 0.5 2.3 0.1 6.1q-0.7 4.9-1.3 8.8c-0.4 2.6-1.4 6.4-3 11.5-2.1 6.5-3.2 8.2-3.6 8.6-0.5 0.4-2.3 1.5-8.9 3.3-5 1.4-12.2 2.8-21.3 4l-1.6-11.2c5.2-1.3 9.2-1.5 15.3-3.1z"/><path class="c" d="m795 149.6l-10.9-5.3c-10.7-5.1-20.4-10.3-28.7-15.3-8.4-5-15.9-10.7-22.5-16.8-6.3-5.9-11.8-11.3-16.5-16.1l6.9-14.3q0.3-0.9 0.3-2.3c0-1.1-0.8-2.5-2.5-4.4-1.6-1.7-4.3-3.5-8.4-5.2q-5.9-2.5-10.4-2.6c-4.4 0.4-3.1 6.1-2.8 7.6 0.8 3.8 0.8 9.8-0.3 13.6-1.2 4-4 11.5-8.5 22.4-4.4 10.8-10.2 20.8-17.1 29.8l-4.9 6.3c-3.3 4.2-3.9 5.3-4 5.9-0.4 1.6 0.4 2.3 0.8 2.5q1 0.6 2.2 0.4c0.7-0.1 1.7-0.6 3-1.7l7.2-5.5c5.2-4 10.1-9.1 14.6-15 4.4-5.7 11-15.6 19.7-29.3 5.4 7.8 12.6 16.9 21.7 27.3 9.7 11.1 15.8 17.5 18.7 19.7 2.9 2.2 5.9 3.8 9.1 4.6 3.1 0.9 7.4 1.3 13 1.4q1.2 0 2.3 0c4.5 0 8.2-0.2 11.2-0.6l6.9-0.9c2.9-0.5 2.8-2.4 2.7-3q-0.3-2-2.8-3.2z"/><path fill-rule="evenodd" class="c" d="m760.8 234.3c0.7 7.3 1.2 13.4 1.3 18.1 0.2 4.7-0.5 9.9-2 15.4-1.1 4-2.5 7.6-4.1 10.4-1.7 2.9-3.5 5.1-5.3 6.5-1.7 1.2-3 1.8-4.1 1.8q-0.4 0-0.8-0.1c-1.1 0-2.3-0.6-3.4-1.7-0.6-0.6-1.8-2.1-4.7-7.8-2.1-3.9-6.3-9.2-12.6-15.5l-2.8-2.8c-0.4-0.3-0.8-0.8-1-1.4q-0.3-0.7-0.4-1.7c-0.1-0.5 0-0.9 0.4-1.3 0.5-0.5 1.3-0.7 2.8-0.5l4.2 0.9c0.3 0.1 2.2 0.6 5.8 1.6 3.5 0.9 6.2 1.3 8.2 1.2 0.5-0.1 1.5-0.1 1.9-2.4 0.3-2.1 0.6-6.9 1-14.3 0.3-7.3 0-17.2-0.8-29.3q-0.3-4.5-1.3-15.7l-1.5-16.8c-0.4-4.9-1.2-5.8-1.3-5.9-0.5-0.3-1.5-0.7-3.8-0.7q-3.2 0-5.8-0.1c-5.3-0.3-14.4-0.3-13.5-6.2 0.3-1.2 0.8-1.2 6-1.9 3.3-0.5 6.2-1.2 8.8-2.2q3.7-1.4 5.4-2.9 2.2-1.8 4.4-1.7c5.3 0.7 9.7 2.5 13.2 5.3 4.8 3.8 5.5 5.5 5.5 6.6v0.4q-0.1 0.3-0.2 0.9l-1.1 2.8c-0.9 2.9-1.3 5.7-1.1 8.4l0.6 26.8c0.6 9.8 1.3 18.5 2.1 25.8zm613.6-49.5l12.9-2.6q-0.5-1-0.7-1.7l-1.3-4.3c-0.6-1.3-0.8-2.6-0.7-3.9q0.2-1 0.9-1.5c0.8-0.5 2-0.4 3.8 0.4q7.2 4 11.3 8.2c2.9 2.9 4.4 5.8 4.5 8.6 0.1 2.7 0 4.4-0.3 5.4-1.1 3.3-3 4-4.4 4.1q-2.7 0.1-4.7-1.3c-0.9-0.6-2.4-2.2-5.5-8.3-13 5.3-21.1 9.1-24.1 11.5q-3.3 2.5-5.7 2.5-1.6 0-2.7-1.1c-0.6-0.4-1.2-1.4-1.8-3.4-0.6-1.7-1-3-1.1-3.8-0.1-1 0.2-2.1 0.9-3.5q0.5-1.3 2.1-2.9l3.6-3.5q3.6-3.6 5.7-6.9c1.3-2 4-7.1 7.9-15.1q-3.8 1.8-5.6 2.7c-1.6 0.8-3.9 2.2-7 4.2-4.3 2.8-5.7 3.1-6.5 3q-1.5 0-3.5-1.6-2-1.5-2.8-4.2c-0.6-1.8-0.6-3.2-0.2-4.3 0-0.5 0.5-1.3 1.2-2.3l2.8-3.5c3.2-4.4 5.9-9 7.9-13.6 2-4.6 3.2-7.9 3.6-9.8 0.2-1.2 0.1-2.5-0.3-3.8-0.7-1.9-0.8-2.6-0.7-3 0.1-2 1.5-3.2 3.8-3.3q3.3 0 7.4 2.1c2.8 1.3 4.6 2.6 5.7 3.9 1.2 1.4 1.7 2.5 1.7 3.4-0.1 1.1-0.6 2-1.6 3.1l-3 3.5-11.4 16 13.4-1.7q1.1-2.3 1.7-3.9 0.7-1.8 1.6-4.7 0.8-2.8 0.7-4.6-0.2-2.3 0.6-3.8c0.4-0.7 1.3-1.9 3.9-1.3 5.7 1.3 9.2 3 10.8 5.3 2 2.8 2.2 3.8 2.2 4.4-0.1 1-0.7 1.9-1.8 3q-1.3 1.3-2.5 2.7c-0.7 0.8-2.4 3.3-4.8 7.5-2.3 4-8.3 13.3-17.9 27.7zm96.4-17.6l16.8-1c-2.3-3.7-2.8-4.7-3-5.2q-0.4-1-0.8-2.4c-0.3-1.3-0.3-2.1 0-2.6 0.4-0.6 1.2-0.9 2.8-1 0.9 0.1 2.5 0.4 8.8 2.7 4.7 1.7 8.1 3.8 10 6.4 1.9 2.5 3 4.4 3.3 5.6q0.4 1.8 0.2 3.5c-0.3 1.5-0.9 3-2.1 4.8-0.9 1.6-3 3-7.4 1.1-1.8-0.8-4.2-3.1-7.4-7.1-23 7.1-28.6 8.9-29.2 9.2l-4.5 2.1q-1.8 0.8-3.2 0.8-1.6 0-2.6-1c-0.7-0.5-1.3-1.7-1.7-3.8q-0.5-2.7-0.5-5c0.1-2.4 0.6-3.9 1.6-4.9 0.8-0.8 2.5-2 5.3-3.7 2.6-1.6 6.1-4.6 10.2-8.8l9.9-10.5q-2.7 1-5.7 2c-3.5 1.1-6.8 2.6-9.9 4.6-3.5 2.2-6.3 2.5-8.3 0.7-1.2-0.9-1.9-2.4-2.3-4.3q-0.5-2.6-0.4-4.9c0-1.4 0.1-2.3 0.5-2.9 0.2-0.3 0.7-0.9 2.3-2.2 1.1-0.9 2.9-2.9 5.4-5.9 2.5-3.1 5-6.5 7.4-9.9 2.4-3.4 4-5.9 4.6-7.4q0.9-2.2 1.3-4.4l0.1-3.4q0-2 0.9-3.3 1.1-1.4 3.9-1.5c2.7-0.1 5.9 0.7 9.5 2.4 4.1 1.9 5.9 3.5 5.9 5.2q0 2.1-1.1 3.5c-0.5 0.6-1.5 1.2-3.1 2.1q-2.1 1.2-3.7 2.9c-1.1 1.2-3.3 3.8-7.2 8.3-3 3.5-5.9 6.8-8.7 9.8l17.8-0.9c3.3-3.9 5.5-6.7 6.4-8.3q1.4-2.3 1.8-4.2 0.6-2.2 1.8-3.7c1.7-2 5.1-0.3 6.2 0.2q2.7 1.4 5.8 3.8c2.4 1.8 3.5 3.5 3.4 5.3-0.1 1-0.4 1.7-0.8 2.1-0.3 0.3-0.7 0.6-2.2 1.2-0.5 0.3-2 1.2-6.5 4.8z"/><path class="c" d="m1349.4 108.8l2.6 2c1.7 1.6 3.1 2.6 4.2 3.1q1.7 0.7 4.4 0.7c1.6 0.1 4.7-0.3 9.3-1.3 4.6-0.9 9-1.7 13.1-2.3 4-0.6 8.2-1.4 12.6-2.2l1.4 2.5 1.1 2.3c0.4 1 1 1.8 1.6 2.3q1.8 1.8 3.8 1.8 0.1 0 0.3 0c1.4-0.1 2.5-0.8 3.1-2.1q0.9-1.5 1-3.6 0-0.8-0.1-2.5-0.1-1.2-0.1-2.6l36.9-5.9q-1.2 2.8-3.2 7.3l-1.6 3.3c-1.1 2.2-1.2 3-1.1 3.5 0.1 0.3 0.2 1.1 0.9 1.5 0.4 0.2 0.9 0.2 1.4 0.1 0.7 0 1.9-0.3 4.9-2.9l3.2-2.7q4.2-3.5 9.6-11.7c7.8-0.8 16-1.2 24.2-1.3q5 0 19.2 0.2 10.2 0.4 10.5-5.9c-0.1-1.6-1.4-3.6-4.1-6.4-2.7-2.7-7.6-4-15-3.9-2.2 0.2-6.1 0.7-11.5 1.4q-7.4 1-16.1 2.1l2.9-8.1q0.7-1.9 2-4.4c0.8-1.5 1.1-2.6 1.1-3.4q0-1.5-1.3-2.8c-0.5-0.5-1.7-1.3-5.9-2.3q-4.4-1.2-10.7-1.3c-4.2 0.1-5.2 0.7-5.7 1.4-0.5 0.8-0.8 1.6-0.8 2.3-0.1 1 0.2 2.1 0.8 3.2l1.5 2.9c0.5 1.3 0.8 2.7 0.9 4.1q-0.1 2.5-0.7 5.5-0.6 2.8-1.2 6l-43.6 6.5-1-4.1q-0.6-1.3-0.6-4.1c0-2.1-0.1-3.5-0.4-4.4-0.3-0.9-1-1.9-2.3-2.9-1.2-1.1-3.6-1.9-7.3-2.5-3.6-0.6-6.2-0.9-7.9-1-3.6 0.2-5.5 1.2-5.6 3.2-0.1 1.6 0.6 3.4 2.3 5.4q2.2 2.7 4 5.1c1.1 1.3 2.4 3.8 4.1 7.3-15.9 2.2-25 3.3-27.1 3.4l-8.6 0.5c-5.6 0.3-6.9 0.7-7.4 1-1.2 0.7-1.4 1.5-1.4 2 0 0.7 0.3 1.4 0.9 2.3q0.9 1.1 2.5 2.4z"/><path fill-rule="evenodd" class="c" d="m1546.6 258.6c-0.4 2.4-3.8 3-6.4 3.2l-7.6 0.9c-13 1.5-23 2.2-29.8 2.1-6.5 0-12.1-1.4-16.7-4.2-4.4-2.8-11.4-8.2-20.6-16.3-13.9-12-14-12.1-14-12.1l-8.7-8.2-11.1-10.1c-0.2 7.8-0.2 13-0.1 15.5q0.1 4.1 0.2 11c0.1 4.6 0.2 7.6 0.4 8.8l0.6 12.9c0 2.7 0 5.3-0.1 7.8q-0.3 3.6-0.6 6.3-0.4 2.7-1.9 6.8c-1.2 3-2.5 4.6-4.3 5q-0.3 0-0.6 0-2.3 0-4.6-3.3c-1.1-1.5-2.4-4.1-4-8-1.6-3.9-2.4-7.3-2.3-10 0-0.9 0.2-2.5 0.6-4.9l1-5.3c0.2-1.3 0.4-3.8 0.6-7.4l0.5-8.2 0.7-19.8c-15.5 11.6-29.6 20.7-41.8 27-12.8 6.5-25.5 11.3-37.7 14.3l-6.6 1.6c-2.9 0.7-3.9 0.7-4.4 0.5q-1.5-0.4-1.8-2.1c-0.1-1.1 0.7-2.2 5.3-4.4l7-3.2c12-5.5 24.3-12.3 36.5-20.2 10.8-7 19.5-13.7 25.8-19.9-4.9 0.8-9.5 1.5-13.7 2-4.8 0.6-8.1 1-9.1 1.1l-11.3 2.1-9.1 1.5q-3.7 0.6-9.4 1.7c-4 0.8-6.9 1.1-8.7 0.8q-3.6-0.5-6.8-2.8c-2.1-1.4-3.5-2.5-4.2-3.2-0.7-0.7-1.2-1.3-1.6-1.9q-0.7-1-0.7-2.1c0-0.9 0.6-1.6 1.5-2 0.4-0.1 1.4-0.3 5.9-0.5l6-0.2q3.6-0.2 7.3-0.5c2.5-0.3 7.9-1 16.1-2.3l12.2-1.6 19.2-2.7 22.3-2.9c-0.4-1.1-0.6-1.6-0.8-1.8 0-0.2-0.4-0.8-1.9-2.4q-2-2.1-2-4.8c0-0.6 0.2-1.1 0.4-1.5q-1.5-0.2-2.9-1.4c-1.5-1.2-2.5-3-2.8-5.2q-0.3-1-0.2-3.4 0.1-2.3 0.1-8.9l-0.1-10.4-0.7-7.7c-0.3-3.4-0.7-6.4-1.1-8.9q-0.6-3.7-1-5.5l-1-3q-0.5-1.5-0.3-2.7c0.1-1.3 0.8-3.5 4.4-3.6 0.3 0 1.2 0 8.1 0.7q0.7-1.9 1.6-3.9 1.1-2.3 2-4.8 0.8-2.5 0.9-5.7c-0.1-0.4-0.2-1.1-0.2-1.6l-1.4-4.5v-0.2c0.1-1.4 0.8-3.9 4.9-4.2 3.5-0.2 7.1 0.6 10.7 2.2q5.9 2.6 5.4 6c-0.3 1.1-0.9 2.3-2.2 3.5l-2.3 2.2c-2.3 2.4-5 5.7-7.8 9.9q5.7-1.1 7.6-1.7c1.6-0.5 2.7-0.8 3.2-0.9 1.8-0.2 4.5 0.7 8.3 2.4 4.2 1.9 6.2 3.9 6.2 6.1-0.1 0.5-0.3 1.2-1.3 2.8q-0.9 1.7-1.5 3.1-0.6 1.5-0.9 2.9c-0.2 0.6-0.4 2.4-0.6 7.2l-0.8 8.6q-0.3 3.2-0.4 8.6c-0.1 3.7-0.4 6.7-0.8 9-0.4 2.3-1.2 4.8-2.3 7.6-1.6 4.1-4.2 4.4-6.1 4-0.7-0.1-2-0.6-5.7-4.3-4.6 0-9.3 0.1-13.9 0.2q-1.2 2.5-2.1 3.9 0.5 0 1 0c2.5 0.1 5.6 0.7 9.4 1.8q6 1.6 7.2 4.5c0.4 0.9 0.5 1.5 0.5 2.2v1.9c20.2-2 36.2-3.8 47.6-5.2 12-1.5 18.5-2.3 20.1-2.5 6.7-0.1 12.3 0.7 16.9 2.7 4.6 2 7.6 3.9 9.3 5.9 1.8 2 2.6 3.6 2.5 4.8-0.6 3-3.1 4.5-7.6 4.8-1.1 0.1-3.4 0-7.2-0.4-3.6-0.3-11.9-0.6-25.2-1.1-9.3-0.2-25.2 0.4-47.4 1.7q8.6 6.3 20.4 13.5c9 5.5 16.9 9.9 23.3 13 6.5 3.1 13.2 5.8 20 8.1 6.9 2.3 15.5 4.7 25.7 7.3l8.5 2.2c4.2 1.3 5.2 1.7 5.7 2 0.7 0.6 1.2 1.3 1.2 2.3zm-128.8-81.7q3-0.3 5.1-0.6 2.5-0.3 3.4-0.6c1.4 0 2.9 0.2 4.8 0.6q0.3-2.9 0.5-5.7l0.6-8.4q0-1.6-0.1-3.8-0.2 0.5-0.5 0.9c-1 1.2-3.5 2.9-13.8 3.9zm14.3-22.2q0-0.7-0.1-1.5-0.1-5.6-0.1-8.5 0-2.7-0.3-4.5c-0.5-1.4-1.5-2.1-3-2.2-0.9 0-3.7 0.3-11.5 1.6l0.6 13.8c6.3-1.4 7.7-1.6 8.2-1.7q3.3 0 5 1.6 0.8 0.7 1.2 1.4zm-142.3 111.3c-3.6 0.5-7.2 1-10.7 1.3-11.9 1.1-22.8 1.1-33.3 0.1-7.8-0.8-13.8-4.8-19.2-9-9.1-7.3-18-15.2-26.6-22.8-4.5-4-9.3-8.2-14-12.3q-3-2.5-6-5c-2.5-2.1-5.1-4.3-7.6-6.5q-1.7-1.4-2.7-1.2c-0.7 0.1-2 1.5-3.2 2.9-2.8 3.2-2.7 4.6-0.9 8.4 2.2 4.2 1.5 12.5 1.1 17.1-0.5 6.4-2.4 19 1 21.5 1.4 1.1 3.5-0.9 4.8-1.9l0.8-0.5c5-3.5 10-7.5 16-9.6 5.3-1.9 5.4 1.6 3.8 4.3-3.1 5.5-6 8.5-9.6 12.1-6.7 6.7-13.4 13.4-19.6 20.7-1.3 1.6-4.1 1.8-5.6 1.9h-0.3q-2.3 0-4.7-2.3c-5.3-5-6.5-10.4-3.6-17 3.2-7.6 3.9-14.3 4.7-21.6 0.5-5.2 0.8-11.7 0.2-17.6 0-0.3-0.3-2.7-1-2.9-0.7-0.2-1.1 0.2-1.8 0.9q-0.3 0.4-0.6 0.6c-17.4 15.1-36.3 27.7-56.4 36.8-5.3 2.4-20.5 9.6-22.3 4.4-1.3-3.4 7-6.3 9.2-7.5q3-1.6 5.9-3.3c18.4-10.7 39.6-24.1 57.1-42.6 1.6-1.7 3.1-3.6 4.5-5.3q0.2-0.3 0.6-0.6c0.7-0.6 0.9-0.9 0.6-1.3-0.2-0.4-0.5-0.4-1.4-0.1q-0.5 0.1-0.9 0.2c-2.7 0.5-27.6 4.2-41.3 6.2-9 1.3-19.2-2.6-20.6-5.1-1.4-2.5-1.3-3.4-0.8-4.9 0.7-1.7 2.8-1.8 3.8-1.9q3.3-0.2 6.7-0.3c3.5-0.1 7.1-0.3 10.7-0.6 14.2-1.3 40.7-3.6 55.5-6.1l1.1-0.2q-0.9-0.8-1.7-1.6c-2.6-2.4-4.8-4.4-6.4-7l-0.3-0.5c-0.9-1.2-1.9-2.8-0.9-4.6 1.2-2 3.5-2 5.5-1.8 3.2 0.4 7 1 10.5 2.6 3.7 1.8 5.7 4.3 6 7.6q0.1 1.5 0.7 1.9c0.5 0.4 1.3 0.5 2.7 0.2l1-0.1c13.4-2.1 27-5.5 40.6-7.2 22-2.8 22.6 6 22.4 7.6-0.1 1-1.1 1.7-2.8 2.2-2.2 0.7-8.6 1.1-11 1.5q-0.8 0.2-1.7 0.3c3.5 1.8 7.1 3.8 10.3 6.4 2.4 1.9 3.4 3.4 3.2 4.9-0.1 1.4-1.4 2.7-4.2 4.1q-12.2 6.3-24.4 12.6c-1.4 0.8-2.9 1.5-2.9 1.8-0.1 0.4 1.4 1.3 2.8 2.2l0.2 0.1c22.2 14.3 44.4 23.8 67.7 29.2 2.6 0.7 5.3 1.6 7.9 2.4l1.9 0.7c5.2 1.8 2.1 4.8-0.5 5.1zm-68.7-67.8c-0.5-0.7-2.6-0.6-5.5-0.3q-0.2 0-0.4 0-0.2 0-0.4 0.1l-39.3 6-0.1 0.3c8 5.9 16.6 11.6 25.5 17.1 0.9 0.5 1.7 0.5 2.7-0.2 6.1-4.5 12.9-9.9 16.3-17.8 1.1-2.6 1.8-4.5 1.2-5.2z"/><path fill-rule="evenodd" class="c" d="m1071.8 130.7c0.2-1.1 1.6-1.9 2.8-2.1 3-0.5 6.1-0.9 9.1-1 17.6-0.5 35-3.9 52.7-7.7 2.3-0.5 3.2-1.6 3.2-4v-0.3c0.1-3.6 0.6-6.5-0.2-7.3-0.9-0.8-8.1 0.4-8.1 0.4-5 0.2-11.7 0.8-17.8 1-1.7 0.1-2.4 0.7-2.4 0.7-5.2 4.7-10.6 9.5-17.3 12.4q-0.6 0.3-1.2 0.6c-1.8 0.9-4.2 2.2-5.8-0.1-1.5-2.2 0.6-4 2.2-5.3q0.4-0.3 0.7-0.7c6.3-5.8 11.9-12.5 16.7-20 2.5-4 4.2-7.8 5.2-11.6 0.5-2.1 1.3-3.3 2.4-3.8 1.2-0.6 2.6-0.4 4.7 0.5 3.2 1.5 6 3.6 8.3 6.1q1.4 1.5 1.4 3.1-0.1 1.5-1.7 2.9l-0.5 0.4c-1.8 1.5-3.6 3-5.4 5.3 5.8-0.1 10.9-1.3 15.9-2.4l1.1-0.3q1.8-0.3 1.8-2.7v-0.5c0-9.1 1.4-16-4.1-23.7-1.7-2.4-0.4-6.5 3.7-6.9 5.7-0.6 9 1.1 12.8 3.5 3 1.9 3.9 4.7 2.4 8.4-1.6 4.2-1.8 8.7-2.1 13.1q-0.1 2.2-0.3 4.4-0.1 1 0.2 1.2c0.3 0.3 1.2 0.2 1.8 0q1.2-0.2 2.4-0.5c3.7-0.9 11.7-1.8 15.5-1.9h0.9c3-0.1 7-0.2 7.7 3.5 0.6 3.5-2.6 4.5-5.2 5.3q-0.8 0.2-1.4 0.4c-4.2 1.6-13.1 2.7-18.8 3.7-2.9 0.5-3.9 1.6-3.7 3.9q0.1 1-0.1 2.1c-0.5 2.5-0.8 5-0.2 5.6 0.5 0.5 1.8 0.2 3.6-0.1 0.8-0.1 17.2-2.7 21.6-3.7 4.7-1.2 11.1-2.1 14.3-0.3 1.7 1 3.1 2.6 2.8 5.1-0.3 2.5-2.7 2.9-4.7 3.2h-0.4c-5.7 1-15.7 2-21.4 2.9 0 0-6.4 1.1-6.6 1.1-10.2 1.9-10.3 3.7-9.7 12.7 0 0.8 1.6 1.7 2.5 1.5 1.7-0.6 12.4-2.9 14.7-3.4 10.1-1.9 11.4-0.7 15.8 2.8 2.2 1.8 2.8 4.1 2 5.7-2.4 4.7-2.8 9.8-3.3 14.8-0.1 2.3-0.3 4.6-0.7 6.9-0.8 4.7-3 9.1-6.5 13.1-1.6 1.9-3.1 2.8-4.6 2.7-1.4-0.1-2.7-1.1-4.1-3-2.3-3.3-5.5-6.1-10.3-8.9l-0.3-0.1c-1-0.6-2.4-1.4-1.9-3 0.5-1.4 2-1.4 3.1-1.4q0.2 0 0.5-0.1 0.3 0 0.5 0.1c4.9 0.7 7.6 0.6 9-0.5 1.6-1.2 1.9-3.8 2.3-7.6q0.1-1 0.2-2.1c0.6-4.9 0.7-8-0.7-9.3-1.4-1.4-4.8-0.1-10.1 0.9-8.1 1.4-8.1-0.4-8.1 7.4q0 2.4 0 4.6c0 9 0 18.2-1.5 27.3q-0.1 0.6-0.2 1.2c-0.3 2.4-0.7 5.3-3.6 5.9q-0.5 0.1-1 0.1c-2.3 0-3.5-2-4.5-3.7-0.3-0.5-0.6-1-0.9-1.4-3.6-4.9-0.4-26.2-0.3-31.8q0-2.1 0.1-4.1 0.1-1.3-0.4-1.7-0.6-0.4-1.9-0.2c-4.2 0.8-8.6 1.5-12.7 2.2l-2.5 0.4c-1.9 0.3-2.3 1.5-2.3 3.4 0.1 7.6 0.1 14.1 0 20.1 0 3.7-0.5 6.8-1.5 9.5-0.7 1.8-1.7 2.9-3 3.2-0.8 0.2-2.2 0.1-3.9-1.5-5.1-4.7-4.7-8.2-4.9-14.8-0.1-7 0.1-15.6-2.2-24.8-0.5-1.9 0.6-4.6 3.5-4.9 1.8-0.2 3.6 0 5.3 0.3 7.6 1.2 15.2-0.1 22.6-1.4q1.3-0.2 2.7-0.5c1.3-0.2 1.9-0.9 2.1-2.4 0.5-4.5 0.6-6.9-0.3-7.8-1-0.9-3.4-0.6-7.9 0.3l-5.6 1.1c-10.5 2-21.4 4.2-31.9 6.9-7.5 2-13.3-1.7-18.9-5.2q-0.9-0.6-1.8-1.2c-1.4-0.8-1.5-1.6-1.4-2.2zm148.3 24.6c0.7 0.1 4.6 1.1 6.2 1.5 1.1 0.2 2.8 0.9 3.9 1.1 2.2 0.5 5.4-0.5 6-2.6 0.7-2.3 0.3-24.3-0.2-37.4-0.5-11.6-0.8-24.5-3.4-36.2-1.1-5.2-4.1-9.7-4.8-13.4-0.7-3.7 2.4-4.7 5.4-5.1 3.1-0.5 10.6 2.5 15.4 6.1 2.4 1.8 1.6 6.4 1.6 9-0.4 12.1-1.2 18.4-0.8 28.7l0.1 2.3q0.4 9.4 0.8 18.9c0.4 8.9 0.8 18.2 1.1 27.3 0.2 7.5-1.2 13.7-4.3 18.7-1.1 1.9-2.5 3.5-4 4.9-1.6 1.5-3.1 2.2-4.5 2.2q-0.3 0-0.6 0c-1.5-0.3-2.8-1.4-4-3.5-3.1-5.5-7.9-9.7-12.6-13.7-0.9-0.8-3.6-3-4-3.4-2.8-2.6-3.1-6.1 2.7-5.4z"/><path fill-rule="evenodd" class="c" d="m1194.9 97c1.9 3.8 3.1 7.4 3.7 11 1.7 10.9 1.9 19.9 0.7 27.3v0.1c-0.1 4.1 0.4 7.1 1.6 9.9q0.3 0.7 0.6 1.4c0.9 2.5 2 5.5 5.3 5.5q0.3 0 0.6-0.1c4.4-0.4 4.8-4.7 5.2-7.7v-0.6q1.3-10.9 0.3-22.8c-0.4-5.3-0.6-11.5 1.4-17.4 1.2-3.5 0-6-3.6-7.8-3.7-1.8-7.7-2.7-11.8-3.4q-0.3-0.1-0.5-0.1c-1.2-0.3-2.6-0.6-3.7 0.6-1.2 1.4-0.5 2.8 0.1 3.9zm-600.6 248.1h-37.3v-29.5h-8.9v68.9h8.9v-31.6h37.3v31.6h8.6v-68.9h-8.6z"/><path fill-rule="evenodd" class="c" d="m660.7 315.6h-8.9l-27.8 68.3-0.3 0.7h9.3l8.2-20.8h30.5l8.6 20.8h9.3l-28.7-68.7zm-4.1 9.3q0.6 2 0.9 3.3l11 28.2h-24.2l11-28.2q0.5-1.3 1.3-3.3zm99.9 40.8c0 2.8 0.2 5.6 0.4 8.2q-0.7-1.5-1.8-3.3l-35.3-54.7-0.2-0.3h-9.7v69h8.6v-50.5q0-4.4-0.4-7.7 0.9 2 1.9 3.6l35.6 54.4 0.1 0.2h9.4v-69h-8.6zm62.4-20.8c-11.5-2.5-17.3-6.4-17.1-11.8 0.5-7.2 5.8-10.8 16.3-11 9 0 14.5 4.5 17 13.9l0.1 0.5 9.2-2.7-0.1-0.5c-2.8-12.6-11.8-19-26.9-19-15.3 0.7-23.5 7-24.4 18.8-1 9.7 7.5 16.4 25 19.9 13.6 2.6 19.9 7 18.8 13-0.5 8.2-6 12.2-17 12.5-12.3 0.4-19.1-5-20.7-16.6l-0.1-0.6-8.9 3.1 0.1 0.4c2.7 13.8 12.3 20.8 28.4 20.8q0.8 0 1.6 0 24-1.1 25.8-19.2c0.9-10.9-8.2-18.1-27.1-21.5zm84.2-30.3c-21.6 1.2-33.1 13.6-34 36.9 0.9 21.5 12 32.9 33 34.1h0.1c21.6-0.9 33.1-12.6 34-34.8-1.4-22.7-12.5-34.8-33.1-36.2zm-0.6 7.8c14.7 1.4 22.8 10.9 24.1 28.4-0.9 17.7-9 26.8-24.8 27.7-15.1-1.4-22.9-10.4-23.8-27.7 1.5-17.5 9.8-27 24.5-28.4zm104.7 22.8h-37.3v-29.6h-8.9v69h8.9v-31.6h37.3v31.6h8.6v-69h-8.6zm92.7-29.5h-29.9v68.9h8.5v-27.5h20.7c15.8-0.2 23.9-7.2 24.2-20.9-1.4-12.9-9.3-19.8-23.5-20.5zm-21.4 7.8h19.3c10.6 0.2 15.9 4.3 16.3 12.4-0.2 8.8-5.5 13.2-16.2 13.4h-19.4zm115.9 21.8h-37.3v-29.6h-8.9v68.9h8.9v-31.6h37.3v31.6h8.5v-68.9h-8.5zm66.4-29.6h-8.9l-27.9 68.3-0.3 0.7h9.3l8.3-20.7h30.4l8.5 20.4 0.1 0.3h9.3l-28.7-68.6zm-4.1 9.2q0.6 2 0.9 3.3l11 28.2h-24.2l11.1-28.2q0.5-1.3 1.2-3.3zm109.9 9.6c-1-11.8-9-18.2-23.8-18.9h-32.4v69h8.9v-30.6h17.4l23.5 30.4 0.1 0.2h12l-25.8-30.6c13.3-1.2 20.1-7.8 20.1-19.5zm-47.3-11.1h21.8c10.7 0.3 16 3.8 16.2 10.7 0 8-5.3 11.9-16.2 12.1h-21.8zm110.1 42.2c-1 2.5-1.8 5.1-2.4 7.9q-1.2-4.6-2.5-8.3l-19.9-49.6h-11.2v69h8.2v-48.1c0-2.8-0.1-6.3-0.4-10.5q0.5 2 1.2 4.6l21.5 53.7 0.2 0.3h5.1l22-53.7q0.7-1.7 1.3-3.9c-0.6 5-0.9 8.1-0.9 9.2v48.4h8.9v-69h-11.1zm88-49.6l-0.1-0.3h-8.9l-27.9 68.3-0.2 0.6h9.3l8.2-20.7h30.5l8.4 20.4 0.1 0.3h9.4zm-4.3 9q0.6 1.9 0.9 3.3l11.1 28.2h-24.3l11.1-28.2q0.5-1.2 1.2-3.3zm-663.8-162c0.2 0.5 0.6 2 2.1 2.1 3.4 0.2 4.5-0.3 8.8-2.3 1.5-0.8 3.5-1.7 6.1-2.9 8.9-4 17.4-11 27.5-20.2 7.4-6.8 12.6-11.8 15.7-15.3 0 9.3-0.5 16.3-1.3 20.9-1.3 7.8-2 12.4-1.9 14.1 0 0.4-0.1 1-0.1 1.6-0.2 2.3-0.6 5.7 1.2 9.1 2.2 4.5 6.1 5.2 8.4 5.2q0.1 0 0.3 0c1.9-0.1 3.4-1.2 4.4-15.3 0.7-9.2 0.8-18.1 0.5-26.7-0.1-3.6-0.1-7.7-0.1-12.1 21.1 16 32.9 25 36 27.6 3.8 3.2 7.5 4.8 11 4.8q0.2 0 0.4 0c3.2-0.2 10.3-0.9 21.7-2.2 16.5-2 18.1-3.5 18.5-5.2 0.1-0.4 0.2-0.9-0.2-1.5-0.8-1.2-4-2.9-21.9-6.7-14-2.9-29-8.4-44.5-16.3-8.2-4.2-14.9-7.1-19.8-8.8 6.3-1.2 12.4-2.3 18.4-3.3 11.1-2 18.2-3 21.3-3.2 5.5-0.1 6.3-2.9 6.2-4.6-0.1-2.5-2-4.6-5.9-6.4-3.3-1.4-6.3-2.2-8.9-2.2q-0.3 0-0.5 0c-1.6 0.1-6.6 0.8-30.8 6.7 0.7-12.6 1.5-20.6 2.3-23.5 1.1-4 0.7-7.2-1.1-8.8l-0.3-0.3c-1.4-1.3-2.5-2.3-8-3.7-2.8-0.7-6.9-1-9-0.6-3.8 0.6-4 2.6-4 4.9 0.1 1.2 0.5 2.6 1.3 4.8 1.7 5 4.5 13.4 6 30.3-14.7 3.4-25.9 5.7-33.5 6.7-14.2 1.9-15.2 3.2-15.2 4.9q0.1 0.2 0.1 0.4c0 1.5 0 4.1 5.7 6 4.9 1.7 8.1 1.1 9.5 0.9q0.4-0.1 0.5-0.1c0.4 0 1.5-0.1 19.5-3.7-11.6 13.6-21.7 23.6-30 29.6-17.4 12.7-17 13.8-16.5 15.2q0.1 0 0.1 0.1z"/><path class="c" d="m1026 238.2l-2.1-0.7c-13.4-4.5-26.5-11.4-38.8-20.6-9.9-7.4-19.3-14.6-28-21.4l-0.1-2.4c9.5-1.4 16.2-2.6 19.8-3.5q6.4-1.6 10.2-1.8c2.7 0 5.4-0.5 8-1.2 4.1-1.2 4.9-3.6 4.8-5.5 0-2.6-2.1-4.7-6.4-6.4q-5.7-2.3-11.3-2.1c-3.2 0.1-11.4 1.9-25.1 5.4 0.1-2 0.3-4.2 0.6-6.5 1.1-8 0.6-10.2 0-11.4-0.9-1.6-2.8-3.5-9.5-3.8-5.9-0.3-8.3 0.3-9.6 2.1-1.1 1.6 0.1 4.1 1.6 7 0.4 0.9 0.8 1.7 1.2 2.6q0.2 0.6 0.5 1.1c0.9 1.8 1.7 3.4 3.2 12.1-14.8 3.8-24.1 5.9-27.8 6-2.7 0.1-4.4 0.3-5.6 0.7-1.5 0.5-2.2 1.3-2.1 2.5v0.2c0 1.4 0.1 5.2 6.1 7.2 4.8 1.7 7.7 0.5 9 0 0.3-0.1 0.5-0.2 0.6-0.2 0.4 0 1.3 0 15.4-2.1-10.4 18.8-20.7 33.4-30.9 43.5-18.5 18.6-17.2 20.5-16.3 21.9q0.1 0.1 0.2 0.3c0.3 0.6 1 1.9 2.2 1.9h0.1 0.3c1.8 0 5.5-0.1 15.1-7.4 7.7-5.9 14-13.8 19.6-20.7q1.5-1.9 3-3.7c5.4-6.5 9.9-13.1 13.3-19.3 0.4 8.1 0.5 14.4 0.2 18.6-0.3 7.2-1.2 15.7-2.4 25.6-1.9 14.7-1.9 16-1.8 16.4q0 0.2-0.1 0.5c-0.1 1.3-0.5 4.4 2.8 9.3 3.1 4.6 6.1 5.1 7.7 5.1q0.3 0 0.6 0h0.2c1.7-0.1 3-1.5 5-8.9 1.5-5.3 1.5-19.9 0-44.5-0.6-8.9-1.1-17.5-1.6-25.6 7.9 7.4 14.7 14.2 20.3 20.3 2.7 2.9 5.2 5.6 7.5 8 3.6 3.8 6.8 7 9 9.9 9.2 12.1 25.2 13.3 36.2 10.6 13.3-3.2 16.2-4.3 16.1-9.1-0.1-3-1.7-3.5-20.9-10z"/><path class="c" d="m899 231.7c3.3-0.2 5.5-1.9 6.2-5.2 0.7-3.1-0.6-6.1-3.6-9-2.9-2.5-6.6-4.4-11-5.6q-3.9-1-8.2-1.1h-0.3q0.1-5.3 0.2-9.8c22.8-4.8 22.8-6.9 22.7-8.5q-0.1-3.5-5.1-5.1c-2.6-0.8-4.7-1.3-6.4-1.3q-0.2 0-0.4 0c-0.6 0.1-2.4 0.3-10.6 2.1 0.2-6.4 0.5-10.3 0.7-11.6 0.7-3.5-0.9-7.1-3.9-8.8-2.8-1.7-4.5-2.5-7.7-2.5q-0.4 0-0.8 0c-4 0.2-8 1.6-9 3.2-1.2 2 0.7 4.7 2.4 7.1q0.3 0.5 0.6 0.9c1.9 2.8 4.1 6.1 4.7 12.1q0.1 1.2 0.2 2.6h-0.2q-4.4 1.1-9.7 2.3c-25 6-32.3 7.3-34 7.3-1.4 0.1-5.4 0.2-5.3 3.2q0 0.3-0.1 0.7c-0.2 1.5-0.4 4.2 6 5.9 4.3 1.2 11.8 0.4 23.1-2.3 3.4-0.8 7.5-1.8 12.2-2.8-12.8 20.7-24.4 36.3-33.7 45.4q-2.9 2.7-5.1 4.8c-9 8.7-11.2 10.7-9.5 12.8 2.8 3.7 5.6 2.5 21.6-8.7 10.6-7.4 22.7-23.7 35.1-41.2v1.1c-0.1 14.3-1.3 25.8-3.6 34.3-2.3 9-2 16.2 0.9 21.5 4.1 7.4 5.6 8.2 6.9 8.2q0 0 0.1 0c1.7-0.1 2.9-1.1 4.9-14.3 1.3-8.5 2-15.1 2.2-19.6 0.2-4.2 0.3-14.6 0.5-29.6 11.5 10 15.1 11.5 16.9 11.5q0.1 0 0.1 0z"/></svg>