<svg xmlns:inkscape="http://www.inkscape.org/namespaces/inkscape" xmlns:sodipodi="http://sodipodi.sourceforge.net/DTD/sodipodi-0.dtd" xmlns="http://www.w3.org/2000/svg" xmlns:svg="http://www.w3.org/2000/svg" width="468.364259273783" height="213.5090328093222" viewBox="0 0 182.82704 83.276993" version="1.1" id="svg1" xml:space="preserve" inkscape:version="1.4 (86a8ad7, 2024-10-11)" sodipodi:docname="Aviron Pictures logo.svg"><sodipodi:namedview id="namedview1" pagecolor="#ffffff" bordercolor="#000000" borderopacity="0.25" inkscape:showpageshadow="2" inkscape:pageopacity="0.0" inkscape:pagecheckerboard="0" inkscape:deskcolor="#d1d1d1" inkscape:document-units="mm" inkscape:zoom="0.76167929" inkscape:cx="333.47368" inkscape:cy="584.89184" inkscape:window-width="1920" inkscape:window-height="1057" inkscape:window-x="-8" inkscape:window-y="-8" inkscape:window-maximized="1" inkscape:current-layer="layer1"/><defs id="defs1"/><g inkscape:label="Layer 1" inkscape:groupmode="layer" id="layer1" transform="translate(-13.493754,-105.87176)"><path style="fill:#000000" d="m 75.210058,188.99065 c -0.893922,-0.17238 -2.142707,-1.56772 -2.338868,-2.61335 -0.380159,-2.02642 1.282778,-4.08049 3.301793,-4.07839 1.171451,0.001 2.878763,0.95726 2.459034,1.37699 -0.202898,0.2029 -0.557981,0.15467 -1.238351,-0.16818 -2.38356,-1.13108 -4.428101,1.13534 -3.187825,3.53377 0.212899,0.4117 0.579824,0.82251 0.815389,0.91291 0.75644,0.29027 2.102949,0.17585 2.679038,-0.22766 0.473554,-0.33169 0.606161,-0.33601 0.861759,-0.028 0.242172,0.2918 0.07381,0.47449 -0.848924,0.92118 -1.145806,0.55468 -1.374035,0.58848 -2.503045,0.37076 z m 39.354522,-0.277 c -1.18464,-0.59179 -1.63575,-1.89204 -1.53187,-4.41537 0.0629,-1.52701 0.16006,-1.87837 0.53968,-1.95081 0.41276,-0.0788 0.46303,0.16589 0.46303,2.25342 0,2.88762 0.33181,3.51786 1.85208,3.51786 1.51761,0 1.85208,-0.6318 1.85208,-3.49845 0,-1.88795 0.0742,-2.32238 0.39688,-2.32238 0.32512,0 0.39687,0.4576 0.39687,2.53093 0,2.88065 -0.20957,3.44795 -1.468,3.97376 -1.14726,0.47935 -1.37967,0.47108 -2.50075,-0.089 z m 60.12941,-0.0573 c -0.807,-0.36633 -1.07738,-0.62446 -0.96388,-0.92023 0.19511,-0.50844 0.23594,-0.50832 1.01626,0.003 0.376,0.24636 1.04195,0.38031 1.64434,0.33073 0.8774,-0.0722 1.02338,-0.17835 1.09468,-0.79589 0.0752,-0.65118 -0.0369,-0.74795 -1.30076,-1.12328 -2.40298,-0.71361 -3.01302,-1.89419 -1.67181,-3.2354 0.58348,-0.58348 0.85002,-0.66259 1.85194,-0.54966 1.30964,0.14761 2.00266,0.58313 1.79384,1.12731 -0.11557,0.30117 -0.28724,0.29186 -1.01468,-0.055 -0.54209,-0.2585 -1.14451,-0.35004 -1.58165,-0.24032 -0.57897,0.14531 -0.69115,0.30651 -0.62323,0.89558 0.0717,0.62144 0.29034,0.78406 1.62066,1.20512 1.07545,0.34039 1.62253,0.67263 1.81952,1.10497 0.45074,0.98926 0.053,1.96412 -0.97702,2.39447 -1.15863,0.48411 -1.35271,0.47398 -2.70821,-0.14132 z M 37.04167,185.60521 v -3.30729 h 1.283434 c 2.396815,0 3.479066,0.69959 3.479066,2.24896 0,1.45527 -1.087743,2.24895 -3.082191,2.24895 -0.85793,0 -0.886559,0.0342 -0.886559,1.05834 0,0.76435 -0.110243,1.05833 -0.396875,1.05833 -0.331611,0 -0.396875,-0.54387 -0.396875,-3.30729 z m 2.860123,0.11018 c 0.939328,-0.32746 1.269523,-1.03496 0.849392,-1.81998 -0.230851,-0.43135 -0.551223,-0.53916 -1.602158,-0.53916 H 37.83542 v 1.14653 c 0,0.63059 0.07937,1.2259 0.176389,1.32291 0.256998,0.257 0.952827,0.21639 1.889984,-0.1103 z m 16.983626,-0.11018 c 0,-2.76343 0.06526,-3.30729 0.396875,-3.30729 0.331611,0 0.396875,0.54386 0.396875,3.30729 0,2.76342 -0.06526,3.30729 -0.396875,3.30729 -0.331611,0 -0.396875,-0.54387 -0.396875,-3.30729 z M 95.25,186.13438 v -2.77813 h -1.058333 c -0.888218,0 -1.058333,-0.0866 -1.058333,-0.53875 0,-0.51028 0.136303,-0.53474 2.579687,-0.46302 2.08301,0.0611 2.579687,0.15214 2.579687,0.4726 0,0.26763 -0.323128,0.42362 -0.992187,0.479 l -0.992188,0.0821 v 2.76216 c 0,2.58576 -0.03379,2.76215 -0.529166,2.76215 -0.495569,0 -0.529167,-0.17639 -0.529167,-2.77812 z m 38.62916,-0.56397 v -3.34208 l 2.03267,0.13045 c 1.79642,0.11528 2.10393,0.2133 2.64583,0.84329 0.82025,0.95359 0.77249,1.62306 -0.18399,2.57955 l -0.79716,0.79716 0.79716,1.0065 c 0.9295,1.17359 0.96572,1.32722 0.31285,1.32722 -0.27094,0 -0.86102,-0.52455 -1.33936,-1.19063 -0.7285,-1.01441 -0.98966,-1.19062 -1.76464,-1.19062 -0.90166,0 -0.90961,0.0104 -0.90961,1.19062 0,0.88195 -0.10289,1.19063 -0.39687,1.19063 -0.33183,0 -0.39688,-0.54773 -0.39688,-3.34209 z m 3.55943,-0.13996 c 0.72522,-0.33043 0.90357,-1.20954 0.35641,-1.7567 -0.17463,-0.17462 -0.94853,-0.3175 -1.71979,-0.3175 h -1.4023 v 1.19063 1.19062 h 1.04589 c 0.57523,0 1.34914,-0.13817 1.71979,-0.30705 z m 16.81349,0.17476 v -3.30729 h 2.40065 c 2.1436,0 2.39119,0.0496 2.3123,0.46302 -0.0727,0.38121 -0.42679,0.47675 -2.00378,0.54076 l -1.91542,0.0777 v 0.91445 0.91445 h 1.71979 c 1.35232,0 1.71979,0.0848 1.71979,0.39688 0,0.31207 -0.36747,0.39687 -1.71979,0.39687 h -1.71979 v 1.05834 1.05833 h 1.98438 c 1.5875,0 1.98437,0.0794 1.98437,0.39687 0,0.32338 -0.44097,0.39688 -2.38125,0.39688 h -2.38125 z m -16.08613,-7.41426 c -5.20385,-1.18724 -9.42249,-4.13994 -11.14316,-7.79928 -0.60407,-1.28469 -0.6827,-1.78075 -0.67102,-4.23334 0.0114,-2.40462 0.10397,-2.97377 0.68816,-4.23333 1.63067,-3.51586 4.81143,-6.11491 9.42498,-7.70132 2.53108,-0.87033 2.65018,-0.88507 7.20384,-0.8913 5.32546,-0.007 6.73145,0.26644 10.26548,1.99859 2.70138,1.32403 4.92723,3.41786 6.02538,5.66799 0.71968,1.47464 0.77476,1.80381 0.77476,4.63021 0,2.80772 -0.0581,3.16109 -0.7523,4.57566 -1.65144,3.36509 -4.85451,5.8697 -9.43416,7.37694 -2.30545,0.75876 -2.85305,0.83396 -6.61458,0.9083 -2.87773,0.0569 -4.5981,-0.0324 -5.76738,-0.29912 z m 10.0892,-2.24874 c 3.02878,-0.9355 5.21366,-2.79736 6.49934,-5.53847 0.60437,-1.28853 0.68822,-1.80573 0.68822,-4.24541 0,-2.48816 -0.0773,-2.94381 -0.74071,-4.36562 -1.30363,-2.79399 -3.68987,-4.80649 -7.0746,-5.96654 -2.33686,-0.80091 -6.25827,-0.80988 -8.73766,-0.02 -5.68766,1.81201 -8.61115,7.30122 -6.89598,12.94806 1.87397,6.16962 9.14817,9.38501 16.26139,7.18796 z m -134.761396,1.87831 c 0,-0.13424 0.435178,-0.38769 0.967061,-0.56322 1.56648,-0.51699 2.94233,-2.21107 6.338844,-7.80503 1.762675,-2.90307 4.475332,-7.35197 6.028126,-9.88643 1.692074,-2.7618 2.726978,-4.70441 2.582952,-4.84844 -0.132172,-0.13217 -0.697536,-0.3975 -1.256366,-0.58961 -2.070513,-0.71181 -1.397979,-0.95296 2.441706,-0.87552 l 3.657755,0.0738 2.414171,3.96875 c 1.327794,2.18282 4.178851,6.88578 6.335683,10.45104 4.768955,7.88312 5.214041,8.46403 7.116124,9.2876 0.805701,0.34885 1.466943,0.72358 1.469427,0.83272 0.0025,0.10914 -2.733922,0.19843 -6.080901,0.19843 -3.44065,0 -6.085416,-0.10374 -6.085416,-0.2387 0,-0.13128 0.379222,-0.37089 0.842715,-0.53247 1.124787,-0.3921 1.804138,-1.04076 1.798492,-1.71723 -0.0025,-0.30487 -0.765833,-1.80446 -1.696196,-3.33243 l -1.691569,-2.77812 -7.264175,-0.0703 -7.264174,-0.0703 -1.773314,2.90951 c -2.125279,3.487 -2.182957,4.07435 -0.480424,4.8923 0.618463,0.29713 1.124479,0.62966 1.124479,0.73896 0,0.1093 -2.143125,0.19872 -4.7625,0.19872 -2.731682,0 -4.7625,-0.10407 -4.7625,-0.24406 z m 23.768402,-10.81713 c -0.291042,-0.7038 -5.619498,-9.57631 -5.75113,-9.57631 -0.08818,0 -1.496567,2.20266 -3.129757,4.8948 l -2.969435,4.89479 h 5.969258 c 3.283092,0 5.929571,-0.096 5.881064,-0.21328 z m 14.579156,1.33776 c -7.705761,-12.70447 -7.645336,-12.61903 -9.552165,-13.50603 -0.845791,-0.39343 -1.539041,-0.80462 -1.540556,-0.91376 -0.0015,-0.10915 2.676151,-0.19844 5.95037,-0.19844 3.4587,0 5.953125,0.10226 5.953125,0.24406 0,0.13424 -0.402322,0.37684 -0.894049,0.53913 -0.491726,0.16228 -1.107559,0.53099 -1.368516,0.81934 -0.425502,0.47018 -0.43563,0.60373 -0.09814,1.29412 0.738818,1.51137 10.169056,17.45633 10.329937,17.4662 0.09021,0.006 1.592725,-2.34142 3.338913,-5.21546 8.651286,-14.23908 8.231709,-13.2803 6.220499,-14.2145 -0.618464,-0.28728 -1.12448,-0.6147 -1.12448,-0.72761 0,-0.1129 2.143125,-0.20528 4.7625,-0.20528 2.619375,0 4.7625,0.0611 4.7625,0.13571 0,0.0746 -0.6565,0.44656 -1.458888,0.82647 -0.820371,0.38843 -1.786581,1.11069 -2.207604,1.65022 -0.620436,0.79508 -9.71633,15.49837 -12.579831,20.33498 l -0.819301,1.38385 -1.888333,0.005 -1.888333,0.005 z m 30.179522,9.512 c 0,-0.11629 0.416639,-0.36209 0.925864,-0.54623 0.509225,-0.18413 1.041505,-0.55087 1.182844,-0.81497 0.298264,-0.55731 0.454554,-19.94704 0.167962,-20.83769 -0.105724,-0.32856 -0.642454,-0.783 -1.232005,-1.04311 -0.574566,-0.2535 -1.044665,-0.55705 -1.044665,-0.67457 0,-0.11751 2.143125,-0.21366 4.7625,-0.21366 2.619375,0 4.7625,0.10462 4.7625,0.23248 0,0.12787 -0.36193,0.3824 -0.804288,0.56563 -1.602599,0.66382 -1.576962,0.47613 -1.576962,11.54499 0,11.11867 -0.0655,10.66822 1.637642,11.26194 1.585589,0.55274 0.582347,0.73662 -4.018892,0.73662 -2.619375,0 -4.7625,-0.0951 -4.7625,-0.21143 z m 14.022916,-0.0481 c 0,-0.14275 0.299539,-0.33472 0.665643,-0.42661 0.366104,-0.0919 0.901885,-0.4674 1.190625,-0.83447 0.502469,-0.63879 0.524982,-1.0945 0.524982,-10.62702 0,-10.90556 0.0239,-10.73281 -1.576962,-11.39591 -0.442359,-0.18323 -0.804288,-0.43776 -0.804288,-0.56563 0,-0.3436 18.89439,-0.29199 20.78734,0.0568 3.48361,0.64185 5.9105,2.5333 6.44435,5.02255 0.86284,4.0233 -2.05441,6.88787 -7.84666,7.70499 l -2.4431,0.34466 4.72921,4.18372 c 5.34648,4.72979 5.93536,5.19509 7.42515,5.86689 0.58641,0.26444 1.06621,0.58177 1.06621,0.70519 0,0.12342 -1.63711,0.22112 -3.63802,0.2171 l -3.63802,-0.007 -3.96875,-3.59551 c -2.18281,-1.97753 -4.92125,-4.45849 -6.08542,-5.51325 -1.16417,-1.05476 -2.50362,-2.24205 -2.97656,-2.63842 -1.58046,-1.32457 -1.3387,-1.41671 3.96875,-1.51251 3.99551,-0.0721 4.97555,-0.16747 5.68007,-0.5526 1.26815,-0.69324 2.11508,-1.73038 2.42807,-2.97337 0.51252,-2.03541 -0.4187,-3.84099 -2.47475,-4.79841 -1.25943,-0.58647 -1.63012,-0.6213 -6.63881,-0.62374 -3.77629,-0.002 -5.39638,0.0889 -5.62239,0.31491 -0.39705,0.39705 -0.45606,18.86279 -0.0636,19.89509 0.14117,0.37131 0.72859,0.91002 1.32292,1.21322 0.58794,0.29995 1.06899,0.60248 1.06899,0.67228 0,0.0698 -2.14313,0.12691 -4.7625,0.12691 -2.936946,0 -4.7625,-0.0995 -4.7625,-0.25954 z m 66.14583,0.0128 c 0,-0.13571 0.26789,-0.32799 0.59531,-0.42728 0.32742,-0.0993 0.86321,-0.42573 1.19063,-0.72541 l 0.59531,-0.54488 v -10.08147 c 0,-11.03903 0.0253,-10.85407 -1.57696,-11.51776 -0.44236,-0.18323 -0.80429,-0.43776 -0.80429,-0.56563 0,-0.12786 1.60952,-0.23248 3.57671,-0.23248 h 3.57671 l 6.67589,5.74863 c 3.67175,3.16175 8.52137,7.34064 10.77694,9.28643 l 4.10104,3.53779 0.07,-8.13632 c 0.0779,-9.04732 0.0771,-9.05154 -1.65082,-9.67638 -0.51301,-0.18551 -0.93275,-0.43243 -0.93275,-0.54872 0,-0.11629 1.78594,-0.21143 3.96875,-0.21143 2.18281,0 3.96875,0.101 3.96875,0.22445 0,0.12344 -0.47544,0.4112 -1.05652,0.63946 -0.68702,0.26987 -1.14969,0.66006 -1.32292,1.11569 -0.16306,0.42888 -0.2664,4.90205 -0.2664,11.53137 v 10.83069 h -1.56882 -1.56883 l -2.97375,-2.57968 c -2.89512,-2.51148 -4.58924,-3.98428 -14.37899,-12.50049 -2.5922,-2.25499 -4.9359,-4.25603 -5.20822,-4.44678 -0.48083,-0.33678 -0.49513,-0.0914 -0.49513,8.49606 0,8.41874 0.0252,8.87487 0.52498,9.51027 0.28874,0.36707 0.82452,0.74259 1.19062,0.83447 0.36611,0.0919 0.66565,0.28386 0.66565,0.42661 0,0.15774 -1.50489,0.25954 -3.83646,0.25954 -2.19644,0 -3.83646,-0.10548 -3.83646,-0.24675 z m -57.73265,-29.36206 c -0.97531,-0.0863 -1.92185,-0.30564 -2.10344,-0.48754 -0.26398,-0.26444 -0.18698,-0.33073 0.38422,-0.33073 0.73256,0 0.89588,-0.23079 0.47743,-0.67469 -0.13774,-0.14612 -0.1395,-0.50548 -0.004,-0.85834 0.21732,-0.56679 0.36005,-0.60183 2.15517,-0.52917 1.36503,0.0553 1.90325,0.17372 1.85629,0.40856 -0.0482,0.24087 0.46871,0.33072 1.90261,0.33072 2.0499,0 2.84934,0.35869 1.47313,0.66096 -1.2573,0.27615 -0.9289,0.65913 0.59301,0.69155 l 1.38906,0.0296 -1.32292,0.25086 c -0.7276,0.13797 -1.43603,0.36278 -1.57427,0.49958 -0.26663,0.26383 -2.30225,0.2672 -5.22609,0.009 z m 14.22728,-1.05277 c -0.16527,-0.26743 0.712,-0.55029 1.72325,-0.55564 0.43278,-0.002 0.68351,0.14198 0.68351,0.39327 0,0.29087 -0.30204,0.39687 -1.13091,0.39687 -0.622,0 -1.19613,-0.10552 -1.27585,-0.2345 z m 9.24183,-0.0301 c 0.0936,-0.15144 1.45796,-0.26459 3.19061,-0.26459 1.84168,0 3.0271,0.10362 3.0271,0.26459 0,0.16176 -1.23993,0.26458 -3.19062,0.26458 -2.0597,0 -3.13265,-0.0938 -3.02709,-0.26458 z m -29.236457,-0.56797 c 0,-0.42247 0.63297,-0.53837 2.004387,-0.36702 2.01075,0.25123 1.8054,0.70224 -0.2846,0.62507 -0.945881,-0.0349 -1.719787,-0.15105 -1.719787,-0.25805 z m 5.423957,-2.27146 c -0.29104,-0.0727 -0.5887,-0.21102 -0.66146,-0.30735 -0.0728,-0.0963 -0.42994,-0.30646 -0.79375,-0.46695 l -0.66146,-0.29179 0.92605,-0.27234 0.92604,-0.27233 -1.12448,-0.0239 c -0.61846,-0.0131 -1.12448,-0.14292 -1.12448,-0.28844 0,-0.14552 -0.30468,-0.26458 -0.67707,-0.26458 -0.4008,0 -0.60777,0.11213 -0.50724,0.2748 0.11401,0.18448 -0.639568,0.2497 -2.292718,0.19843 -2.430042,-0.0754 -2.462553,-0.0851 -2.462333,-0.73782 l 2.23e-4,-0.66146 4.887798,-0.14135 4.8878,-0.14135 -4.69636,-0.0571 c -6.019396,-0.0732 -6.442861,-0.57116 -0.52916,-0.62229 2.29195,-0.0198 3.86953,-0.0894 3.50573,-0.1547 -0.36381,-0.0653 -0.76436,-0.21743 -0.89013,-0.33815 -0.12576,-0.12072 -1.09117,-0.15426 -2.14534,-0.0745 -1.287528,0.0974 -1.977534,0.0465 -2.102057,-0.15498 -0.101955,-0.16497 -0.773659,-0.29994 -1.492675,-0.29994 -0.719015,0 -1.307301,-0.11906 -1.307301,-0.26458 0,-0.14553 -0.327422,-0.26641 -0.727604,-0.26864 -0.400183,-0.002 -0.906198,-0.12897 -1.124479,-0.28165 -0.30069,-0.21033 -0.160909,-0.25481 0.576753,-0.18354 0.565356,0.0546 0.908953,-0.0106 0.819393,-0.15549 -0.09595,-0.15526 1.310717,-0.17833 3.722726,-0.0611 2.673504,0.12998 3.876964,0.10141 3.876964,-0.092 0,-0.18214 -1.13665,-0.28193 -3.241149,-0.28456 -2.190388,-0.003 -3.112482,-0.0872 -2.844271,-0.26053 0.301164,-0.19463 0.189501,-0.25746 -0.463021,-0.26054 -0.472942,-0.002 -0.859896,-0.12311 -0.859896,-0.26863 0,-0.16366 1.398881,-0.26458 3.667477,-0.26458 h 3.66748 l -0.13504,-0.72761 c -0.0743,-0.40018 -0.26611,-0.81508 -0.42633,-0.92199 -0.20171,-0.1346 -0.18958,-0.19563 0.0394,-0.19844 0.1819,-0.002 0.33073,-0.12311 0.33073,-0.26863 0,-0.14552 -0.23812,-0.26458 -0.52916,-0.26458 -0.29105,0 -0.52917,-0.11907 -0.52917,-0.26459 0,-0.14552 0.14883,-0.2664 0.33073,-0.26863 0.20482,-0.003 0.23,-0.0781 0.0661,-0.19844 -0.30848,-0.22664 -0.33491,-0.85355 -0.0548,-1.30058 0.10767,-0.17185 0.0747,-0.38723 -0.0731,-0.47864 -0.32042,-0.19803 -0.35318,-2.2383 -0.0438,-2.72602 0.56358,-0.88838 -0.64357,-3.49435 -1.61868,-3.49435 -0.851475,0 -16.703575,-2.64396 -17.722605,-2.95594 -0.777302,-0.23797 -0.992187,-0.43785 -0.992187,-0.92287 0,-0.34051 -0.04384,-0.61911 -0.09743,-0.61911 -0.05358,0 -5.501861,1.12511 -12.107281,2.50025 -6.605419,1.37514 -12.524074,2.58248 -13.152567,2.68298 -0.922165,0.14746 -1.264622,0.36706 -1.774348,1.13777 -0.347398,0.52527 -0.764148,1.33556 -0.926111,1.80064 -0.261655,0.75134 -0.461725,0.88135 -1.794934,1.16635 -0.825251,0.17641 -1.604027,0.41143 -1.730615,0.52227 -0.315346,0.2761 1.567111,0.76979 2.942138,0.7716 0.618464,8.1e-4 1.124479,0.12053 1.124479,0.26606 0,0.14552 -0.377031,0.26458 -0.837847,0.26458 -1.561672,0 -0.512278,0.33611 1.689954,0.54128 1.204831,0.11225 2.543111,0.38948 2.973956,0.61606 l 0.783355,0.41197 -1.577105,-0.0362 c -0.867407,-0.0199 -3.124917,-0.0114 -5.016688,0.0189 -1.89177,0.0303 -3.79677,-0.049 -4.233333,-0.17627 -0.769906,-0.22442 -0.775449,-0.23731 -0.184507,-0.42894 0.954584,-0.30955 0.215233,-0.94597 -1.10466,-0.95086 -0.802572,-0.003 -0.986871,-0.072 -0.695208,-0.26053 0.301989,-0.19516 0.195022,-0.25745 -0.447406,-0.26054 -1.23093,-0.006 -1.38178,-0.52668 -0.163521,-0.56452 0.964537,-0.03 0.973821,-0.0386 0.216267,-0.20065 -0.913953,-0.19554 -1.111582,-0.77333 -1.161535,-3.39587 l -0.0313,-1.64344 0.992188,-0.25061 c 1.966857,-0.49679 3.425775,-0.56811 6.484681,-0.31699 l 3.111243,0.25542 12.631464,-2.76545 c 6.947305,-1.521 12.958886,-2.83403 13.359068,-2.91784 0.400183,-0.0838 0.727605,-0.32153 0.727605,-0.52824 0,-0.44578 0.312244,-0.48695 0.706089,-0.0931 0.303009,0.30301 4.154886,-0.48696 5.741495,-1.17751 0.455651,-0.19831 1.388649,-0.37297 2.073327,-0.38812 0.684679,-0.0152 2.589679,-0.33194 4.233334,-0.70396 1.643654,-0.37202 3.754332,-0.78565 4.690396,-0.91917 1.893989,-0.27016 2.185419,-0.54388 2.399109,-2.25337 0.11175,-0.89402 0.25705,-1.09941 0.93588,-1.32292 0.44197,-0.14552 1.20436,-0.57954 1.69418,-0.96448 0.87417,-0.68699 0.88603,-0.72359 0.64285,-1.98438 -0.33302,-1.72658 -0.11097,-2.70764 0.75981,-3.35707 0.68669,-0.51212 0.77302,-0.51833 1.6163,-0.1162 0.72291,0.34474 0.92198,0.6194 1.0559,1.4569 0.0908,0.56765 0.048,1.44 -0.0949,1.93858 -0.33818,1.17913 -0.36174,1.07024 0.41218,1.90488 0.36969,0.39869 0.94255,0.7249 1.27303,0.7249 0.85326,0 1.75897,0.93906 1.75897,1.82375 0,1.52179 0.80074,1.94154 5.54238,2.90535 2.39347,0.48651 4.95331,0.90769 5.68855,0.93595 0.73523,0.0283 1.63444,0.18553 1.99824,0.34948 1.37698,0.62053 5.65627,1.49061 5.76258,1.17167 0.14978,-0.44935 0.852,-0.3753 0.852,0.0898 0,0.21828 0.0458,0.39687 0.10184,0.39687 0.056,0 6.12469,1.24252 13.48596,2.76116 l 13.38413,2.76115 3.77809,-0.13899 c 2.75227,-0.10126 4.20701,-0.0376 5.35774,0.23454 1.53322,0.36256 1.586,0.40407 1.79637,1.41274 0.11921,0.57156 0.18228,1.69404 0.14016,2.4944 -0.0756,1.43627 -0.0886,1.45734 -1.00262,1.61882 -0.82994,0.14663 -0.84891,0.16722 -0.18283,0.19844 1.3316,0.0624 0.49857,0.4968 -1.33485,0.69607 -2.45981,0.26737 -8.6389,0.18205 -9.38265,-0.12955 -0.43454,-0.18205 -0.13525,-0.20917 1.0446,-0.0947 1.1469,0.11131 1.65364,0.0689 1.65364,-0.13827 0,-0.20556 1.09363,-0.30722 3.50573,-0.32588 l 3.50573,-0.0271 -1.98437,-0.35337 c -4.55497,-0.81114 -4.31675,-0.72623 -4.89003,-1.74302 -1.43717,-2.54901 -1.40104,-2.52933 -6.48706,-3.53208 -14.64149,-2.88667 -22.28741,-4.37144 -22.51104,-4.37144 -0.13926,0 -0.18546,0.26991 -0.10266,0.5998 0.13125,0.52297 0.005,0.64164 -0.98715,0.92652 -1.15722,0.33234 -16.76082,2.9716 -17.56844,2.9716 -0.24305,0 -0.72606,0.30661 -1.07336,0.68135 -0.58673,0.63309 -0.63006,0.88144 -0.61172,3.50573 0.0386,5.52954 0.0606,5.33441 -0.60313,5.36861 -0.44799,0.0231 -0.48086,0.0607 -0.1326,0.15169 0.25466,0.0666 0.46302,0.23133 0.46302,0.36618 0,0.13762 1.47031,0.24519 3.35139,0.24519 1.84327,0 3.26233,0.0893 3.15348,0.19843 -0.10885,0.10914 -1.58721,0.26687 -3.28524,0.35051 l -3.08734,0.15207 3.09324,0.0464 c 1.72361,0.0258 3.16565,0.16352 3.25676,0.31095 0.10332,0.16716 3.17775,0.26458 8.34999,0.26458 5.28126,0 8.18647,0.0939 8.18647,0.26459 0,0.17237 -4.05417,0.26458 -11.63336,0.26458 -10.23206,0 -11.61502,0.0478 -11.48107,0.39687 0.12334,0.32143 0.78826,0.40283 3.49743,0.42818 2.11454,0.0198 3.05313,0.10561 2.55138,0.23328 -0.43657,0.11109 -0.58539,0.21606 -0.33073,0.23328 0.25466,0.0172 0.46302,0.15037 0.46302,0.29589 0,0.15897 -1.2409,0.28148 -3.10886,0.30693 -1.70986,0.0233 -2.69213,0.0913 -2.18281,0.15115 0.50933,0.0599 1.03915,0.21939 1.1774,0.35453 0.13824,0.13515 1.1703,0.24572 2.29346,0.24572 1.12316,0 2.22976,0.072 2.45911,0.16002 1.05381,0.40438 -0.14926,0.53354 -4.131,0.44349 -3.92332,-0.0887 -4.26616,-0.0607 -3.79892,0.31094 0.37374,0.29724 1.13739,0.40847 2.80435,0.40847 3.32203,0 6.6391,0.31513 5.81019,0.55199 -0.36381,0.10396 -1.13771,0.21028 -1.7198,0.23627 -0.58208,0.026 -0.9095,0.10732 -0.7276,0.18072 0.91439,0.36896 0.0871,0.61852 -2.05052,0.61852 -1.41111,0 -2.38125,0.10779 -2.38125,0.26458 0,0.15328 -0.8626,0.26629 -2.05052,0.26864 -1.21687,0.002 -1.90739,0.0948 -1.69845,0.22724 0.65666,0.41628 -1.91082,0.70656 -3.26249,0.36886 z m -4.2661,-20.32163 c 0.20049,-0.52247 0.08687,-0.55102 -3.554611,-0.89322 -5.280813,-0.49625 -5.747133,-0.29848 -1.175121,0.49838 2.328334,0.40581 4.309892,0.75221 4.403464,0.76979 0.09357,0.0176 0.240392,-0.15116 0.326268,-0.37495 z m 17.99608,-0.42283 c 2.16722,-0.33016 3.78186,-0.65314 3.58808,-0.71773 -0.35468,-0.11823 -7.77581,0.44061 -8.38391,0.63134 -0.49166,0.1542 -0.0746,0.9508 0.42375,0.80928 0.23742,-0.0674 2.20486,-0.39273 4.37208,-0.72289 z m -17.56644,-1.38355 c 0,-0.70903 1.08299,-1.73612 2.01495,-1.91096 1.08408,-0.20338 1.48969,-0.94808 1.30916,-2.4036 -0.11693,-0.94278 -0.41261,-1.55447 -0.41495,-0.85845 -7e-4,0.20615 -0.41135,0.82131 -0.91256,1.36701 -1.39117,1.51468 -2.641363,1.30298 -2.834875,-0.48005 l -0.08776,-0.80865 -4.624985,1.02228 c -2.543741,0.56225 -4.83126,1.20896 -5.083374,1.43712 -0.252394,0.22841 -0.654098,0.33973 -0.893887,0.24772 -0.431926,-0.16575 -2.777449,0.13806 -5.220294,0.67618 -0.951602,0.20961 -1.249632,0.38861 -1.187481,0.7132 0.07305,0.38154 0.873428,0.45587 6.694414,0.6217 5.377851,0.15321 9.691495,0.42576 11.043212,0.69776 0.10914,0.022 0.19843,-0.12261 0.19843,-0.32126 z m 16.00729,-0.0384 c 1.77805,-0.21454 5.53236,-0.38552 8.53282,-0.38862 5.11387,-0.005 5.35781,-0.0288 5.35781,-0.51595 0,-0.40652 -0.30031,-0.57275 -1.4754,-0.8167 -2.46814,-0.51238 -4.47265,-0.74244 -5.22157,-0.59927 -0.41628,0.0796 -0.71136,0.0177 -0.71136,-0.14924 0,-0.15688 -0.50602,-0.42517 -1.12448,-0.59619 -1.90862,-0.52781 -8.25684,-1.75829 -8.46667,-1.64111 -0.10914,0.061 -0.19844,0.404 -0.19844,0.76233 0,0.44754 -0.21886,0.75124 -0.69904,0.97002 -0.66194,0.3016 -0.76627,0.24227 -1.96521,-1.1176 l -1.26616,-1.43612 -0.087,1.04579 c -0.10239,1.23023 0.23762,2.50038 0.6699,2.50247 0.16766,8.2e-4 0.7432,0.12323 1.27897,0.27204 0.77744,0.21593 1.03534,0.45603 1.27729,1.18915 0.16674,0.50522 0.44276,0.91488 0.61337,0.91034 0.17062,-0.005 1.73896,-0.18065 3.48521,-0.39134 z m -18.65312,21.30167 c 0,-0.14552 0.602339,-0.26458 1.338532,-0.26458 0.824979,0 1.275798,0.10151 1.175008,0.26458 -0.0899,0.14552 -0.692274,0.26459 -1.33853,0.26459 -0.646255,0 -1.17501,-0.11907 -1.17501,-0.26459 z m 23.01875,0 c 0,-0.16712 1.82733,-0.26309 4.96094,-0.26053 3.30075,0.003 4.82812,0.0899 4.56406,0.26053 -0.53757,0.3474 -9.525,0.3474 -9.525,0 z m -32.146875,-1.21427 c -3.781129,-0.57228 -4.101041,-0.64566 -4.101041,-0.94071 0,-0.39014 8.418836,0.16928 8.850312,0.58809 0.156396,0.15181 0.08143,0.24398 -0.198437,0.24398 -0.247386,0 -0.449792,0.11906 -0.449792,0.26458 0,0.33803 -1.118178,0.29551 -4.101042,-0.15594 z m 34.398495,-1.43588 c 0.0914,-0.14789 0.29726,-0.18789 0.45746,-0.0889 0.19022,0.11757 0.22971,0.0196 0.11383,-0.28237 -0.11886,-0.30975 -0.0682,-0.42234 0.15347,-0.34106 0.182,0.0667 0.30893,0.23192 0.28206,0.3671 -0.0269,0.13517 0.78942,0.26188 1.81397,0.28159 2.85026,0.0548 2.50473,0.33253 -0.41372,0.33253 -1.67566,0 -2.51529,-0.0938 -2.40707,-0.2689 z m 19.70879,-0.26026 c 0,-0.14553 0.47625,-0.26459 1.05834,-0.26459 0.58208,0 1.05833,0.11906 1.05833,0.26459 0,0.14552 -0.47625,0.26458 -1.05833,0.26458 -0.58209,0 -1.05834,-0.11906 -1.05834,-0.26458 z m -10.24771,-0.33073 c 0.0976,-0.25286 -0.4095,-0.31015 -2.15375,-0.24329 -1.25477,0.0481 -2.21349,0.0195 -2.13049,-0.0635 0.24971,-0.24972 5.00431,-0.66986 5.4859,-0.48476 0.36665,0.14092 0.32808,0.20499 -0.21436,0.35609 -0.62794,0.1749 -0.63129,0.18558 -0.0661,0.21061 0.91574,0.0406 0.70556,0.55555 -0.22674,0.55555 -0.54934,0 -0.77971,-0.10972 -0.69441,-0.33073 z m -45.579366,-0.46302 c 0,-0.14553 0.297656,-0.26459 0.661458,-0.26459 0.363802,0 0.661458,0.11906 0.661458,0.26459 0,0.14552 -0.297656,0.26458 -0.661458,0.26458 -0.363802,0 -0.661458,-0.11906 -0.661458,-0.26458 z m 3.548828,-0.38101 c -0.484865,-0.35455 -0.477488,-0.37665 0.180879,-0.54189 0.377498,-0.0947 1.15126,-0.13421 1.719472,-0.0877 0.916107,0.075 0.973181,0.11787 0.503946,0.37868 -0.968252,0.53819 -1.881131,0.63345 -2.404297,0.25091 z m -14.820786,-0.28039 c 0.2761,-0.20899 0.633287,-0.29663 0.79375,-0.19474 0.160462,0.10189 0.887063,0.2599 1.614667,0.35115 1.171389,0.14689 1.080472,0.1692 -0.79375,0.19473 -1.892967,0.0258 -2.063613,-0.0113 -1.614667,-0.35114 z m 45.800084,0.14713 c -2.30117,-0.12802 -2.50805,-0.17621 -1.58811,-0.36991 0.58175,-0.1225 1.13359,-0.34548 1.22631,-0.4955 0.19105,-0.30913 8.14988,0.22255 8.51114,0.56858 0.11651,0.1116 -0.59786,0.27937 -1.5875,0.37283 -1.85458,0.17514 -2.09857,0.17231 -6.56184,-0.076 z m 14.41979,0.0589 c 0.3638,-0.0653 0.75986,-0.21294 0.88014,-0.32817 0.20193,-0.19346 2.26188,0.13315 2.52984,0.40111 0.0648,0.0648 -0.82478,0.10158 -1.97682,0.0818 -1.15204,-0.0198 -1.79696,-0.0894 -1.43316,-0.1547 z M 81.491668,138.9062 c 0,-0.16228 1.278819,-0.26458 3.307291,-0.26458 2.028472,0 3.307291,0.1023 3.307291,0.26458 0,0.16228 -1.278819,0.26459 -3.307291,0.26459 -2.028472,0 -3.307291,-0.10231 -3.307291,-0.26459 z m 53.445832,-0.29094 c 0,-0.13102 0.43656,-0.23822 0.97014,-0.23822 0.53357,0 0.88743,0.0827 0.78635,0.18378 -0.27986,0.27986 -1.75649,0.32563 -1.75649,0.0544 z m 9.06701,-0.157 c 0.25743,-0.0671 0.61462,-0.0627 0.79375,0.01 0.17913,0.0725 -0.0315,0.12736 -0.46805,0.12197 -0.43657,-0.005 -0.58313,-0.0647 -0.3257,-0.13178 z M 67.33646,138.1125 c 0.651022,-0.16566 0.508295,-0.21062 -0.79375,-0.25005 -2.559091,-0.0775 -0.95708,-0.43938 3.042708,-0.68733 4.985496,-0.30905 7.417138,-0.30529 7.340272,0.0113 -0.03533,0.14552 -0.838137,0.27008 -1.784022,0.2768 -2.839786,0.0202 -3.742853,0.10801 -3.593585,0.34953 0.174628,0.28255 -1.831075,0.57518 -3.653239,0.53299 -1.169128,-0.0271 -1.244703,-0.0586 -0.558384,-0.23328 z m 74.41406,0.0779 c 0.32742,-0.0631 0.8632,-0.0631 1.19062,0 0.32743,0.0631 0.0595,0.11466 -0.59531,0.11466 -0.65484,0 -0.92273,-0.0516 -0.59531,-0.11466 z m 5.16441,0.003 c 0.25743,-0.0671 0.61462,-0.0627 0.79375,0.01 0.17913,0.0725 -0.0315,0.12736 -0.46806,0.12197 -0.43656,-0.005 -0.58312,-0.0647 -0.32569,-0.13178 z m -6.87917,-0.26458 c 0.25743,-0.0671 0.61462,-0.0627 0.79375,0.01 0.17913,0.0725 -0.0315,0.12736 -0.46805,0.12197 -0.43657,-0.005 -0.58313,-0.0647 -0.3257,-0.13177 z M 57.679169,137.5191 c 0,-0.11019 0.803672,-0.18413 1.785937,-0.16432 1.850715,0.0373 1.644958,0.14832 -0.529166,0.28541 -0.691224,0.0436 -1.256771,-0.0109 -1.256771,-0.12109 z m 20.246979,0.0539 c 0.205635,-0.33272 5.446723,-0.30133 5.979007,0.0358 0.219308,0.13891 -0.933378,0.23257 -2.892123,0.23501 -2.18597,0.003 -3.200907,-0.0863 -3.086884,-0.27082 z m 7.735792,0.0877 c 0.329118,-0.0633 0.805368,-0.0609 1.058333,0.005 0.252965,0.0662 -0.01631,0.118 -0.598397,0.11507 -0.582084,-0.003 -0.789055,-0.0571 -0.459936,-0.12041 z m -23.534464,-0.2582 c 0.190996,-0.0764 0.419199,-0.067 0.507118,0.0209 0.08792,0.0879 -0.06835,0.15046 -0.347266,0.13897 -0.308224,-0.0127 -0.370919,-0.0754 -0.159852,-0.15986 z m 3.819921,-0.54116 c 0.545704,-0.0571 1.438672,-0.0571 1.984375,0 0.545703,0.0571 0.09922,0.10378 -0.992187,0.10378 -1.091406,0 -1.537891,-0.0467 -0.992188,-0.10378 z m 66.294663,0.012 c 0.19099,-0.0764 0.41919,-0.067 0.50711,0.0209 0.0879,0.0879 -0.0683,0.15045 -0.34726,0.13896 -0.30823,-0.0127 -0.37092,-0.0754 -0.15985,-0.15985 z m 5.87044,-0.11013 c -1.81469,-0.35496 -2.11873,-0.55356 -1.19063,-0.77772 1.20999,-0.29225 2.77813,-0.28646 2.77813,0.0103 0,0.14699 0.70555,0.26458 1.5875,0.26458 1.69547,0 2.12568,0.35538 0.76067,0.62838 -1.06041,0.21209 -2.43367,0.1683 -3.93567,-0.1255 z m -70.191684,-0.17158 c -2.273715,-0.051 -3.589103,-0.17867 -3.490114,-0.33884 0.100499,-0.16261 -1.547944,-0.25704 -4.48696,-0.25704 -2.920827,0 -4.645823,-0.0982 -4.645823,-0.26459 0,-0.16422 1.455208,-0.26458 3.836458,-0.26458 2.38125,0 3.836458,-0.10036 3.836458,-0.26458 0,-0.14553 0.446485,-0.26641 0.992188,-0.26864 0.668643,-0.003 0.873239,-0.0794 0.627418,-0.23509 -0.221575,-0.14034 0.71321,-0.23213 2.38125,-0.23381 2.760038,-0.003 2.632328,0.35475 -0.164398,0.46024 -2.630762,0.0992 -2.459786,0.46376 0.311986,0.66516 1.48128,0.10764 2.820733,0.1169 2.976562,0.0206 0.15583,-0.0963 0.432155,-0.0788 0.614056,0.0389 0.211056,0.1366 -0.05223,0.27227 -0.727604,0.37495 -0.882578,0.13417 -0.761746,0.16712 0.727604,0.19843 1.427798,0.03 1.785938,-0.042 1.785938,-0.35933 0,-0.42702 0.242329,-0.49033 0.904402,-0.23627 0.530914,0.20373 0.54559,0.63315 0.02164,0.63315 -0.218281,0 -0.396875,0.11906 -0.396875,0.26458 0,0.14552 -0.327422,0.23847 -0.727604,0.20655 -0.400182,-0.0319 -2.369644,-0.0948 -4.376581,-0.13983 z m 15.621372,0.0226 c 0.181901,-0.0734 0.479558,-0.0734 0.661459,0 0.181901,0.0734 0.03307,0.13345 -0.33073,0.13345 -0.363802,0 -0.51263,-0.06 -0.330729,-0.13345 z m 36.512502,-0.28076 c 0.47294,-0.0587 1.24685,-0.0587 1.71979,0 0.47294,0.0587 0.086,0.10672 -0.8599,0.10672 -0.94588,0 -1.33284,-0.048 -0.85989,-0.10672 z m 8.70383,-0.11929 c 0.38484,-0.18627 1.19502,-0.19193 2.51354,-0.0176 l 1.94565,0.25731 -2.51355,0.0176 c -1.91701,0.0134 -2.37876,-0.0477 -1.94564,-0.25731 z m -52.909957,-0.12894 c -0.465156,-0.46516 0.44672,-0.6187 3.674345,-0.6187 2.194451,0 3.556259,0.10132 3.556259,0.26458 0,0.14552 -0.74414,0.27806 -1.653645,0.29452 -0.909505,0.0165 -2.49964,0.0734 -3.533632,0.12644 -1.033992,0.0531 -1.953489,0.023 -2.043327,-0.0668 z m 18.343104,-0.0895 c 0,-0.14553 0.654844,-0.26459 1.455208,-0.26459 0.800365,0 1.455208,0.11906 1.455208,0.26459 0,0.14552 -0.654843,0.26458 -1.455208,0.26458 -0.800364,0 -1.455208,-0.11906 -1.455208,-0.26458 z m 50.006243,0.0277 c -0.73275,-0.13236 -0.82488,-0.20793 -0.44138,-0.36205 0.26657,-0.10712 0.70931,-0.19477 0.98389,-0.19477 0.31381,0 0.4476,-0.13452 0.36023,-0.36221 -0.1873,-0.48809 -2.43965,-0.70029 -4.73919,-0.4465 l -1.85209,0.20441 1.91823,0.0376 c 1.07739,0.0211 1.91823,0.15354 1.91823,0.30215 0,0.52465 -4.77747,0.0947 -4.95618,-0.44608 -0.0643,-0.1946 0.27937,-0.35357 0.90489,-0.41854 0.85646,-0.089 0.7891,-0.1161 -0.44663,-0.17993 -0.80036,-0.0414 -1.22956,-0.13295 -0.95378,-0.20357 0.40289,-0.10316 0.42889,-0.17433 0.13229,-0.36213 -0.23689,-0.15 0.15219,-0.22271 1.08608,-0.20296 1.26778,0.0268 1.33594,0.053 0.52916,0.20332 -0.71505,0.13322 -0.35917,0.21571 1.56201,0.36204 1.36842,0.10423 2.9545,0.18951 3.52462,0.18951 0.57012,0 1.21518,0.1786 1.43346,0.39688 0.21828,0.21828 0.7158,0.39505 1.10558,0.39282 0.55477,-0.003 0.6225,-0.0598 0.31183,-0.26053 -0.33916,-0.21919 -0.32955,-0.25707 0.0661,-0.26053 0.25466,-0.002 0.46302,-0.12312 0.46302,-0.26864 0,-0.14552 0.44649,-0.27867 0.99219,-0.29589 0.9798,-0.0309 0.98228,-0.0337 0.19844,-0.22282 -0.43657,-0.10534 -1.38907,-0.15484 -2.11667,-0.11 -1.08802,0.0671 -1.18198,0.0417 -0.52917,-0.14274 0.43656,-0.12335 1.87127,-0.23836 3.18823,-0.25558 1.31696,-0.0172 2.50759,-0.144 2.64583,-0.28174 0.15148,-0.15092 1.82841,-0.18168 4.22011,-0.0774 4.83013,0.21057 3.62057,0.54022 -2.11667,0.57687 -2.03729,0.013 -3.88276,0.13908 -4.10104,0.28015 -0.31487,0.20348 -0.26021,0.25815 0.26458,0.26458 0.36381,0.004 0.84006,0.12352 1.05834,0.26458 0.28704,0.1855 0.0491,0.2576 -0.8599,0.26053 -1.29279,0.004 -1.72017,0.42426 -0.66146,0.65017 0.32742,0.0699 0.83344,0.17739 1.12448,0.23893 0.29104,0.0615 -0.3243,0.12572 -1.36742,0.1426 -2.03787,0.033 -2.81741,0.21022 -2.58419,0.58758 0.16079,0.26016 -0.82555,0.26013 -2.2661,-7e-5 z m -95.977595,-0.2204 c 0.545703,-0.0571 1.438672,-0.0571 1.984375,0 0.545703,0.0571 0.09922,0.10379 -0.992187,0.10379 -1.091407,0 -1.537891,-0.0467 -0.992188,-0.10379 z m 103.721695,-0.51978 c 0.25743,-0.0671 0.61462,-0.0627 0.79375,0.01 0.17913,0.0725 -0.0315,0.12736 -0.46805,0.12197 -0.43657,-0.005 -0.58313,-0.0647 -0.3257,-0.13178 z m -98.490579,-0.27943 c -2.106975,-0.0449 -3.94649,-0.19727 -4.087812,-0.3386 -0.166211,-0.16621 1.905226,-0.25694 5.865768,-0.25694 3.367495,0 6.18603,0.10244 6.263411,0.22764 0.142312,0.23027 -2.627974,0.61528 -3.654004,0.50783 -0.306075,-0.032 -2.280389,-0.095 -4.387363,-0.13993 z m 40.677175,-0.25351 c 0.329118,-0.0633 0.805368,-0.0609 1.058333,0.005 0.252965,0.0662 -0.01631,0.11801 -0.598397,0.11507 -0.582083,-0.003 -0.789055,-0.0571 -0.459936,-0.12041 z m 63.088464,-0.27339 c 0.9759,-0.0508 2.64277,-0.0511 3.70416,-7.5e-4 1.0614,0.0504 0.26293,0.0919 -1.77436,0.0923 -2.03729,4.1e-4 -2.9057,-0.0408 -1.9298,-0.0916 z m -85.581131,-0.25537 c 0.327422,-0.0631 0.863203,-0.0631 1.190625,0 0.327422,0.0631 0.05953,0.11466 -0.595313,0.11466 -0.654843,0 -0.922734,-0.0516 -0.595312,-0.11466 z m 84.137491,-0.27159 c 0.61847,-0.0557 1.6305,-0.0557 2.24896,0 0.61847,0.0557 0.11245,0.10128 -1.12448,0.10128 -1.23692,0 -1.74294,-0.0456 -1.12448,-0.10128 z m -97.829678,-0.93075 c 0,-0.10914 0.833438,-0.19843 1.852083,-0.19843 1.018646,0 1.852084,0.0893 1.852084,0.19843 0,0.10914 -0.833438,0.19844 -1.852084,0.19844 -1.018645,0 -1.852083,-0.0893 -1.852083,-0.19844 z m 103.258678,0.14738 c 0.25743,-0.0671 0.61462,-0.0627 0.79375,0.01 0.17913,0.0725 -0.0315,0.12736 -0.46806,0.12197 -0.43656,-0.005 -0.58312,-0.0647 -0.32569,-0.13177 z m 1.51632,-0.0812 c 0,-0.32571 5.19516,-0.32571 5.95312,0 0.33588,0.14433 -0.65474,0.23418 -2.71198,0.24599 -1.99677,0.0114 -3.24114,-0.083 -3.24114,-0.24599 z m -90.815143,-0.18713 c 0.329119,-0.0633 0.805368,-0.0609 1.058333,0.005 0.252965,0.0662 -0.01631,0.118 -0.598397,0.11507 -0.582083,-0.003 -0.789055,-0.0571 -0.459936,-0.12041 z m 72.294303,-0.34204 c -0.27813,-0.17974 0.13279,-0.25769 1.37345,-0.26053 0.97368,-0.002 1.84391,0.11501 1.93385,0.26053 0.21412,0.34646 -2.77119,0.34646 -3.3073,0 z m -6.01128,-0.1948 c 0.69561,-0.0547 1.76717,-0.054 2.38125,10e-4 0.61407,0.0555 0.0449,0.10023 -1.26476,0.0994 -1.30968,-8.1e-4 -1.81211,-0.0462 -1.11649,-0.10089 z m -64.632462,-0.59064 c 0,-0.14096 0.178594,-0.18775 0.396875,-0.10399 0.218281,0.0838 0.396875,0.19909 0.396875,0.25628 0,0.0572 -0.178594,0.10399 -0.396875,0.10399 -0.218281,0 -0.396875,-0.11533 -0.396875,-0.25628 z m 76.464582,-0.008 c -0.27349,-0.17674 0.2612,-0.25196 1.71979,-0.24193 1.42545,0.01 1.94386,0.0888 1.5875,0.24193 -0.72743,0.31259 -2.8236,0.31259 -3.30729,0 z m 7.67291,-0.52916 c -0.51843,-0.16604 -0.35773,-0.21754 0.74322,-0.23821 0.87508,-0.0164 1.34303,0.0734 1.24116,0.23821 -0.1887,0.30532 -1.03101,0.30532 -1.98438,0 z m -5.95312,-0.26459 c 0.73901,-0.31756 2.18498,-0.31756 2.38125,0 0.1023,0.16553 -0.41191,0.25762 -1.37345,0.24599 -1.10335,-0.0134 -1.38768,-0.0828 -1.0078,-0.24599 z" id="path1"/></g></svg>