<svg xmlns="http://www.w3.org/2000/svg" width="1156.4" height="110" viewBox="0 0 1156.4 110"><g data-name="グループ 11" transform="translate(-0.009,96.058)"><g data-name="グループ 10"><g data-name="グループ 9" transform="matrix(4.1764116,0,0,4.1764116,4.9714123,-91.049647)"><path fill="#006846" d="m 57.914,37.468 -5.8,-4.353 -1.456,1.085 -2.9,-2.176 1.45,-1.088 -5.8,-4.353 -1.451,1.088 -1.457,-1.086 -5.8,4.353 1.451,1.088 -2.9,2.176 L 31.8,33.115 26,37.468 27.451,38.556 26,39.644 31.8,44 l 1.451,-1.088 2.9,2.176 -1.451,1.086 5.8,4.353 1.451,-1.088 1.449,1.088 5.8,-4.353 -1.45,-1.088 2.9,-2.176 1.459,1.09 5.8,-4.353 -1.451,-1.088 z m -18.864,1.088 2.9,-2.176 2.9,2.176 -2.9,2.176 z" data-name="パス 42" transform="translate(-25.991,-26.585)"/><g data-name="グループ 8" transform="translate(36.589,1.507)"><g data-name="グループ 7"><g fill="#006846" data-name="グループ 6"><path d="m 97.643,33.08 a 6.85,6.85 0 0 0 -4.722,-1.9 c -1.715,0 -3.881,0.662 -3.881,2.737 0,4.121 10.348,4.061 10.348,9.626 0,3.219 -3.369,6.227 -8.061,6.227 a 15.575,15.575 0 0 1 -5.384,-0.9 L 85.07,45.11 a 10.414,10.414 0 0 0 6.588,2.5 c 1.715,0 4.3,-1.023 4.3,-3.128 0,-4.693 -10.347,-3.85 -10.347,-10.227 0,-3.79 3.88,-5.235 7.55,-5.235 a 15.106,15.106 0 0 1 4.481,0.662 z" data-name="パス 43" transform="translate(-85.069,-29.019)"/><path d="m 121.232,39.173 c 0.782,0 1.714,0.12 2.256,-0.391 h 0.09 v 10.949 c 0,1.384 -0.18,2.5 1.143,3.188 v 0.09 h -3.88 v -1.954 a 4.528,4.528 0 0 1 -4.331,2.346 c -3.55,0 -5.235,-2.015 -5.235,-6.256 v -4.633 c 0,-1.384 0.18,-2.5 -1.143,-3.248 v -0.09 h 1.955 a 2.976,2.976 0 0 0 1.835,-0.391 h 0.09 v 7.851 c 0,2.768 0.782,4.482 3.4,4.482 1.985,0 3.429,-1.624 3.429,-3.941 v -4.633 c 0,-1.414 0.181,-2.5 -1.143,-3.279 v -0.09 z" data-name="パス 44" transform="translate(-94.61,-32.736)"/><path d="m 138.043,39.173 a 3.167,3.167 0 0 0 1.865,-0.391 H 140 v 2.376 a 4.528,4.528 0 0 1 4.241,-2.376 5.081,5.081 0 0 1 4.693,2.617 5.544,5.544 0 0 1 4.813,-2.617 c 4.271,0 5.384,2.436 5.384,6.256 v 4.633 c 0,1.293 -0.18,2.767 1.324,3.248 v 0.09 h -5.2 v -0.09 c 1.323,-0.752 1.143,-1.865 1.143,-3.248 V 45.79 c 0,-3.068 -0.962,-5.023 -3.369,-5.023 -2.707,0 -3.459,1.715 -3.459,4.542 v 4.362 c 0,1.384 -0.181,2.5 1.143,3.248 v 0.09 h -5.024 v -0.09 c 1.324,-0.752 1.143,-1.865 1.143,-3.248 V 45.52 c 0,-3.159 -1.564,-4.753 -3.429,-4.753 -2.285,0 -3.4,1.414 -3.4,4.3 v 4.6 c 0,1.384 -0.18,2.466 1.114,3.248 v 0.09 h -4.994 v -0.09 c 1.324,-0.752 1.143,-1.865 1.143,-3.248 v -7.185 c 0,-1.384 0.18,-2.467 -1.143,-3.219 v -0.09 z" data-name="パス 45" transform="translate(-104.502,-32.736)"/><path d="m 180.161,35.993 a 2.9,2.9 0 0 0 1.955,-0.481 h 0.09 v 10.979 c 0,1.384 -0.18,2.5 1.143,3.248 v 0.09 h -5.023 v -0.09 c 1.324,-0.752 1.143,-1.865 1.143,-3.248 V 39.3 c 0,-1.384 0.181,-2.467 -1.143,-3.219 v -0.09 z m 0.572,-1.8 a 1.939,1.939 0 0 1 -1.955,-1.986 1.878,1.878 0 0 1 1.955,-1.774 1.842,1.842 0 0 1 1.8,1.865 1.869,1.869 0 0 1 -1.8,1.89 z" data-name="パス 46" transform="translate(-120.569,-29.555)"/><path d="m 193.989,44.66 c 0,1.143 -0.361,4.241 2.858,4.241 a 3.369,3.369 0 0 0 1.2,-0.3 l -1.594,2.135 a 3.378,3.378 0 0 1 -0.962,0.15 c -4.662,0 -4.241,-4.813 -4.241,-5.986 v -6.257 h -2.046 v -1.082 c 2.828,-0.481 3.58,-2.587 3.58,-5.384 h 1.2 v 4.481 h 2.827 a 2.357,2.357 0 0 0 1.143,-0.18 h 0.09 v 2.737 h -0.09 c -0.482,-0.632 -1.384,-0.572 -2.166,-0.572 h -1.8 z" data-name="パス 47" transform="translate(-124.711,-30.221)"/><path d="m 205.041,46.211 c 0,-4.512 3.64,-7.429 7.971,-7.429 a 7.21,7.21 0 0 1 7.49,7.159 7.586,7.586 0 0 1 -7.851,7.46 c -4.121,-0.001 -7.61,-2.918 -7.61,-7.19 z m 12.423,0.361 c 0,-2.918 -1.564,-5.806 -4.783,-5.806 a 4.6,4.6 0 0 0 -4.6,4.9 c 0,2.767 1.654,5.745 4.722,5.745 a 4.617,4.617 0 0 0 4.661,-4.838 z" data-name="パス 48" transform="translate(-130.739,-32.736)"/><path d="m 234.069,39.173 a 3.169,3.169 0 0 0 1.865,-0.391 h 0.09 v 2.376 a 4.529,4.529 0 0 1 4.242,-2.376 5.081,5.081 0 0 1 4.692,2.617 5.545,5.545 0 0 1 4.813,-2.617 c 4.271,0 5.384,2.436 5.384,6.256 v 4.633 c 0,1.293 -0.18,2.767 1.324,3.248 v 0.09 h -5.2 v -0.09 c 1.324,-0.752 1.143,-1.865 1.143,-3.248 V 45.79 c 0,-3.068 -0.963,-5.023 -3.37,-5.023 -2.707,0 -3.459,1.715 -3.459,4.542 v 4.362 c 0,1.384 -0.181,2.5 1.143,3.248 v 0.09 h -5.026 v -0.09 c 1.324,-0.752 1.143,-1.865 1.143,-3.248 V 45.52 c 0,-3.159 -1.564,-4.753 -3.43,-4.753 -2.285,0 -3.4,1.414 -3.4,4.3 v 4.6 c 0,1.384 -0.18,2.466 1.114,3.248 v 0.09 h -4.994 v -0.09 c 1.323,-0.752 1.143,-1.865 1.143,-3.248 v -7.185 c 0,-1.384 0.18,-2.467 -1.143,-3.219 v -0.09 z" data-name="パス 49" transform="translate(-141.057,-32.736)"/><path d="m 273.09,46.211 c 0,-4.512 3.64,-7.429 7.971,-7.429 a 7.21,7.21 0 0 1 7.49,7.159 7.586,7.586 0 0 1 -7.851,7.459 c -4.121,0 -7.61,-2.917 -7.61,-7.189 z m 12.422,0.361 c 0,-2.918 -1.564,-5.806 -4.782,-5.806 a 4.6,4.6 0 0 0 -4.6,4.9 c 0,2.767 1.654,5.745 4.722,5.745 a 4.617,4.617 0 0 0 4.66,-4.838 z" data-name="パス 50" transform="translate(-156.644,-32.736)"/><path d="m 322.25,29.8 c 3.91,0 6.889,1.895 6.889,5.264 0,3.46 -3.219,5.655 -6.618,5.655 a 5.018,5.018 0 0 1 -2.2,-0.421 c 2.587,-0.151 5.384,-1.745 5.384,-4.633 0,-2.647 -1.865,-3.7 -4.271,-3.7 a 12.135,12.135 0 0 0 -2.106,0.181 v 13.563 c 0,1.684 -0.03,2.887 1.564,3.79 v 0.09 H 314.91 V 49.5 c 1.535,-0.541 1.354,-2.768 1.354,-4.121 V 34.038 c 0,-1.354 0.181,-3.55 -1.323,-4.151 V 29.8 Z" data-name="パス 51" transform="translate(-172.563,-29.315)"/><path d="m 341.346,29.5 a 2.338,2.338 0 0 0 1.835,-0.482 h 0.09 v 7.942 a 5.72,5.72 0 0 1 4.422,-1.9 c 4.151,0 5.144,2.5 5.144,5.414 v 5.475 c 0,1.384 -0.181,2.5 1.143,3.248 v 0.09 h -4.993 V 49.2 c 1.323,-0.752 1.113,-1.865 1.113,-3.248 v -4.57 c 0,-2.436 -0.782,-4.332 -3.369,-4.332 -2.647,0 -3.46,1.474 -3.46,4.151 v 4.753 c 0,1.384 -0.18,2.5 1.143,3.248 v 0.09 h -5.023 V 49.2 c 1.323,-0.752 1.142,-1.865 1.142,-3.248 V 32.84 c 0,-1.384 0.181,-2.5 -1.142,-3.249 V 29.5 Z" data-name="パス 52" transform="translate(-181.883,-29.019)"/><path d="m 377.952,53.4 c -1.986,-0.12 -3.97,-0.722 -3.97,-3.128 V 45.52 a 13.023,13.023 0 0 1 -2.888,0.933 c -1.444,0.331 -3.068,0.661 -3.068,2.5 0,1.865 1.684,2.466 3.278,2.466 a 7.89,7.89 0 0 0 2.166,-0.421 l -1.775,2.256 a 9.162,9.162 0 0 1 -1.564,0.15 c -3.038,0 -5.144,-1.925 -5.144,-4.422 0,-5.594 8.995,-3.008 8.995,-6.286 0,-1.444 -1.776,-1.925 -2.888,-1.925 A 9.352,9.352 0 0 0 367,41.97 l 2.015,-3.008 1.955,-0.18 c 3.248,0 5.716,0.932 5.745,4.572 v 4.512 c 0,2.376 0.06,3.278 2.557,3.549 z" data-name="パス 53" transform="translate(-191.626,-32.736)"/><path d="m 391.325,39.173 a 2.927,2.927 0 0 0 1.835,-0.391 h 0.09 v 2.286 a 4.025,4.025 0 0 1 3.549,-2.286 l 1.083,0.09 v 2.768 a 1.86,1.86 0 0 0 -1.384,-0.482 c -2.287,0 -3.248,1.2 -3.248,4.3 v 4.211 c 0,1.384 -0.18,2.5 1.143,3.248 v 0.09 h -5.023 v -0.09 c 1.323,-0.752 1.143,-1.865 1.143,-3.248 v -7.187 c 0,-1.384 0.18,-2.467 -1.113,-3.219 v -0.09 z" data-name="パス 54" transform="translate(-200.908,-32.736)"/><path d="m 407.179,39.173 a 3.167,3.167 0 0 0 1.865,-0.391 h 0.09 v 2.376 a 4.529,4.529 0 0 1 4.242,-2.376 5.081,5.081 0 0 1 4.692,2.617 5.546,5.546 0 0 1 4.813,-2.617 c 4.271,0 5.384,2.436 5.384,6.256 v 4.633 c 0,1.293 -0.18,2.767 1.324,3.248 v 0.09 h -5.2 v -0.09 c 1.324,-0.752 1.143,-1.865 1.143,-3.248 V 45.79 c 0,-3.068 -0.962,-5.023 -3.369,-5.023 -2.707,0 -3.459,1.715 -3.459,4.542 v 4.362 c 0,1.384 -0.181,2.5 1.143,3.248 v 0.09 h -5.024 v -0.09 c 1.324,-0.752 1.143,-1.865 1.143,-3.248 V 45.52 c 0,-3.159 -1.564,-4.753 -3.429,-4.753 -2.286,0 -3.4,1.414 -3.4,4.3 v 4.6 c 0,1.384 -0.18,2.466 1.114,3.248 v 0.09 h -4.993 v -0.09 c 1.324,-0.752 1.143,-1.865 1.143,-3.248 v -7.185 c 0,-1.384 0.18,-2.467 -1.143,-3.219 v -0.09 z" data-name="パス 55" transform="translate(-206.955,-32.736)"/><path d="m 459.115,53.4 c -1.986,-0.12 -3.971,-0.722 -3.971,-3.128 V 45.52 a 13.022,13.022 0 0 1 -2.888,0.933 c -1.444,0.331 -3.068,0.661 -3.068,2.5 0,1.865 1.684,2.466 3.279,2.466 a 7.886,7.886 0 0 0 2.166,-0.421 l -1.775,2.256 a 9.162,9.162 0 0 1 -1.564,0.15 c -3.038,0 -5.144,-1.925 -5.144,-4.422 0,-5.594 8.994,-3.008 8.994,-6.286 0,-1.444 -1.775,-1.925 -2.888,-1.925 a 9.352,9.352 0 0 0 -4.091,1.2 l 2.015,-3.008 1.955,-0.18 c 3.248,0 5.716,0.932 5.745,4.572 v 4.512 c 0,2.376 0.06,3.278 2.557,3.549 z" data-name="パス 56" transform="translate(-222.523,-32.736)"/></g></g></g></g></g></g></svg>