<?xml version="1.0" encoding="UTF-8" standalone="no"?>
<!-- Created with Inkscape (http://www.inkscape.org/) -->

<svg
   version="1.1"
   id="svg2"
   width="377.95334"
   height="196.44533"
   viewBox="0 0 377.95334 196.44533"
   sodipodi:docname="F. Hoffmann-La Roche 2024 logo.svg"
   inkscape:version="1.4 (86a8ad7, 2024-10-11)"
   xmlns:inkscape="http://www.inkscape.org/namespaces/inkscape"
   xmlns:sodipodi="http://sodipodi.sourceforge.net/DTD/sodipodi-0.dtd"
   xmlns="http://www.w3.org/2000/svg"
   xmlns:svg="http://www.w3.org/2000/svg">
  <defs
     id="defs6" />
  <sodipodi:namedview
     id="namedview4"
     pagecolor="#ffffff"
     bordercolor="#000000"
     borderopacity="0.25"
     inkscape:showpageshadow="2"
     inkscape:pageopacity="0.0"
     inkscape:pagecheckerboard="0"
     inkscape:deskcolor="#d1d1d1"
     inkscape:zoom="1"
     inkscape:cx="198"
     inkscape:cy="96.5"
     inkscape:window-width="1366"
     inkscape:window-height="705"
     inkscape:window-x="-8"
     inkscape:window-y="-8"
     inkscape:window-maximized="1"
     inkscape:current-layer="svg2" />
  <g
     id="g10"
     transform="matrix(0.13333333,0,0,-0.13333333,0,196.44533)"
     style="fill:#1f5ab1;fill-opacity:1">
    <path
       d="m 2182.92,833.785 c 21.74,0 40.9,-7.597 53.94,-24.176 11.8,-15 18.25,-37.527 19.38,-63.519 h -146.63 c 1.13,25.992 7.57,48.519 19.37,63.519 13.05,16.579 32.19,24.176 53.94,24.176 z m 133.33,-8.836 c -12.77,26.098 -30.71,46.199 -53.82,60.352 -23.11,14.121 -49.62,21.324 -79.51,21.324 -29.91,0 -56.41,-7.203 -79.51,-21.324 -23.11,-14.153 -41.05,-34.254 -53.82,-60.352 -12.79,-26.097 -19.17,-56.547 -19.17,-91.336 v -78.289 c 0,-34.797 6.38,-65.238 19.17,-91.336 12.77,-26.093 30.71,-46.215 53.82,-60.347 23.1,-14.129 49.6,-21.075 79.51,-21.075 29.89,0 56.4,6.946 79.51,21.075 23.11,14.132 37.08,30.156 49.85,56.25 6.09,12.445 11.18,28.023 14.31,43.957 l -72.97,16.8 c -3.07,-15.703 -8.65,-30.453 -16.76,-40.914 -13.04,-16.855 -32.2,-24.578 -53.94,-24.578 -21.75,0 -40.89,7.723 -53.94,24.578 -13.05,16.848 -19.57,40.926 -19.57,70.832 v 29.348 h 226.01 v 53.699 c 0,34.789 -6.4,65.239 -19.17,91.336"
       style="fill:#1f5ab1;fill-opacity:1;fill-rule:nonzero;stroke:none"
       id="path12" />
    <path
       d="m 1753.1,491.957 v 267.168 c 0,22.465 6.3,40.281 18.91,53.43 12.6,13.156 28.49,19.734 47.68,19.734 19.18,0 35.07,-6.578 47.68,-19.734 12.6,-13.149 18.91,-30.965 18.91,-53.43 V 491.957 h 78.91 v 283.961 c 0,41.102 -10.68,73.16 -32.06,96.18 -21.37,23.015 -50.42,34.527 -87.13,34.527 -20.28,0 -38.23,-3.824 -55.29,-12.137 -16.64,-8.101 -30.1,-18.832 -37.61,-30.175 V 1067.4 h -78.92 V 491.957 h 78.92"
       style="fill:#1f5ab1;fill-opacity:1;fill-rule:nonzero;stroke:none"
       id="path14" />
    <path
       d="m 1391.85,651.375 c 0,-29.895 6.65,-53.836 19.98,-70.426 13.31,-16.578 32.6,-24.176 54.35,-24.176 39.14,0 63.33,25.016 72.58,75.028 l 73.39,-17.125 c -5.98,-41.856 -21.2,-74.336 -45.67,-97.453 -24.46,-23.102 -57.89,-34.657 -100.3,-34.657 -46.22,0 -83.32,15.633 -111.32,46.887 -28,31.274 -41.99,73.539 -41.99,126.817 v 76.652 c 0,53.277 13.99,95.543 41.99,126.812 28,31.258 65.1,46.891 111.32,46.891 42.41,0 75.84,-11.559 100.3,-34.656 24.47,-23.117 39.69,-55.598 45.67,-97.453 l -73.39,-17.125 c -9.25,50.011 -33.44,75.023 -72.58,75.023 -21.75,0 -41.04,-7.594 -54.35,-24.176 -13.33,-16.586 -19.98,-40.527 -19.98,-70.422 v -86.441"
       style="fill:#1f5ab1;fill-opacity:1;fill-rule:nonzero;stroke:none"
       id="path16" />
    <path
       d="m 1099.51,482.438 c 29.89,0 56.4,6.949 79.51,21.078 23.11,14.132 41.05,34.254 53.83,60.347 12.76,26.098 19.16,56.539 19.16,91.336 v 78.289 c 0,34.789 -6.4,65.239 -19.16,91.336 -12.78,26.098 -30.72,46.199 -53.83,60.348 -23.11,14.125 -49.62,21.328 -79.51,21.328 -29.91,0 -56.41,-7.203 -79.51,-21.328 -23.113,-14.149 -41.051,-34.25 -53.82,-60.348 -12.785,-26.097 -19.168,-56.547 -19.168,-91.336 v -78.289 c 0,-34.797 6.383,-65.238 19.168,-91.336 12.769,-26.093 30.707,-46.215 53.82,-60.347 23.1,-14.129 49.6,-21.078 79.51,-21.078 m 0,74.085 c -21.75,0 -40.89,7.727 -53.94,24.582 -13.05,16.848 -19.57,40.926 -19.57,70.829 v 85.629 c 0,29.894 6.52,53.835 19.57,70.425 13.05,16.578 32.19,24.176 53.94,24.176 21.74,0 40.9,-7.598 53.94,-24.176 13.05,-16.59 19.58,-40.531 19.58,-70.425 v -85.629 c 0,-29.903 -6.53,-53.981 -19.58,-70.829 -13.04,-16.855 -32.2,-24.582 -53.94,-24.582"
       style="fill:#1f5ab1;fill-opacity:1;fill-rule:nonzero;stroke:none"
       id="path18" />
    <path
       d="m 676.445,491.957 v 256.484 h 67.743 c 19.453,0 32.23,-4.699 40.738,-13.457 8.496,-8.773 13.238,-22.996 15.433,-43.265 L 822.57,491.957 h 79.274 l -23.856,207.16 c -2.754,24.66 -5.922,41.11 -15.976,55.547 -9.164,13.16 -22.149,24.195 -37.496,29.125 24.125,11.508 43.187,27.535 57.172,48.09 13.988,20.551 20.98,48.91 20.98,85.082 0,46.574 -13.031,83.299 -39.078,110.149 -26.055,26.85 -61.836,40.29 -107.352,40.29 H 597.672 V 491.957 Z m 0,332.113 v 167.7 h 79.614 c 21.39,0 37.968,-6.864 49.765,-20.555 11.789,-13.699 17.688,-34.805 17.688,-63.293 0,-28.5 -5.899,-49.609 -17.688,-63.305 -11.797,-13.703 -28.375,-20.547 -49.765,-20.547 h -79.614"
       style="fill:#1f5ab1;fill-opacity:1;fill-rule:nonzero;stroke:none"
       id="path20" />
    <path
       d="M 2160.13,74.9297 2735.38,736.672 2160.13,1398.42 H 674.52 L 99.2734,736.672 674.52,74.9297 Z M 2834.65,736.672 2194.27,0 H 640.375 L 0,736.672 640.375,1473.34 H 2194.27 l 640.38,-736.668"
       style="fill:#1f5ab1;fill-opacity:1;fill-rule:nonzero;stroke:none"
       id="path22" />
  </g>
</svg>
