<svg version="1.1" id="Layer_1" xmlns:x="ns_extend;" xmlns:i="ns_ai;" xmlns:graph="ns_graphs;" xmlns="http://www.w3.org/2000/svg" xmlns:xlink="http://www.w3.org/1999/xlink" x="0px" y="0px" viewBox="0 0 579.2 109" style="enable-background:new 0 0 579.2 109;" xml:space="preserve">
 <style type="text/css">
  .st0{fill:#E71D2D;}
	.st1{fill:#FFFFFF;}
 </style>
 <metadata>
  <sfw xmlns="ns_sfw;">
   <slices>
   </slices>
   <sliceSourceBounds bottomLeftOrigin="true" height="109" width="579.2" x="-327.6" y="-209.7">
   </sliceSourceBounds>
  </sfw>
 </metadata>
 <g>
  <rect x="79.1" class="st0" width="44.1" height="12.1">
  </rect>
  <g>
   <path class="st1" d="M42.3,106.5c-2.4,1.3-6.6,2.5-12.2,2.5C12,109,0,95.6,0,70.6c0-22.8,12.6-39.9,32.8-39.9
			c4.5,0,7.4,1.1,9.5,2.2v13.3c-1.6-0.7-5.5-1.7-9.2-1.7c-10.9,0-16.5,11.8-16.5,25.8c0,15.6,6.3,25.1,16.5,25.1
			c3.1,0,6.7-0.6,9.1-1.8V106.5z">
   </path>
   <path class="st1" d="M106.8,95.6l0-26.9c-6.5,0.1-18.3,1.9-18.3,15.2c0,8.6,4.6,11.7,8.2,11.7L106.8,95.6z M123.2,89.6
			c0,5.9,0.4,13.4,1.2,18.5H91.7c-10.9,0-19.1-9-19.1-22.4c0-19.6,16.5-27.8,33.8-28v-1.3c0-7.9-3.1-13.5-11.4-13.5
			c-5.4,0-11.7,1.6-15.8,4.2V35.6c3.7-2.4,10.1-5.4,19.4-5.4c19.6,0,24.6,12.7,24.6,29V89.6">
   </path>
   <path class="st1" d="M196.6,95.6h-9.7c-7,0-11.1-10.6-11.1-25.8c0-13.6,3-25.6,11.5-25.6c4.9,0,8.3,5.4,9.1,11.5
			c0.2,1.5,0.2,3.2,0.2,4.7V95.6z M213.2,89.6l0-81.8h-16.6v30.6h-0.3c-2.4-5.3-7-8.3-13.3-8.3c-12.3,0-23.8,12.8-23.8,39.5
			c0,22.9,8.3,38.5,23,38.5l32.2,0C213.6,103.1,213.2,95.5,213.2,89.6">
   </path>
   <path class="st1" d="M286.1,62.5c0.1-12.2-3.9-19.5-9.8-19.5c-7.3,0-10.5,10.5-10.8,19.5H286.1z M265.4,74.4
			c0.2,17,8.1,21.6,17,21.6c5.6,0,11.4-1.2,14.8-2.7v12c-4.8,2.2-10.9,3.6-17.9,3.6c-19.6,0-30.2-14.2-30.2-37.8
			c0-25.2,12.1-40.5,28.3-40.5c16,0,24.1,14.5,24.1,34.9c0,4.3-0.2,6.8-0.4,8.9L265.4,74.4">
   </path>
   <path class="st1" d="M354.4,44.7v63.3h-16.7V53.4c0-8.6-0.4-15.3-0.7-22.1h32.9c12.7,0,20.3,9.2,20.3,26.9v49.9h-16.7V59.8
			c0-7.6-1.6-15.1-8.9-15.1L354.4,44.7z">
   </path>
   <path class="st1" d="M467.8,106.5c-2.4,1.3-6.6,2.5-12.2,2.5c-18.1,0-30.1-13.4-30.1-38.4c0-22.8,12.6-39.9,32.8-39.9
			c4.5,0,7.4,1.1,9.5,2.2v13.3c-1.7-0.7-5.5-1.7-9.2-1.7c-10.9,0-16.4,11.8-16.4,25.8c0,15.6,6.3,25.1,16.5,25.1
			c3.1,0,6.7-0.6,9.2-1.8V106.5z">
   </path>
   <path class="st1" d="M513.7,62.5c0.3-8.9,3.6-19.5,10.8-19.5c5.9,0,9.9,7.3,9.8,19.5H513.7z M549.8,65.5
			c0-20.4-8.1-34.9-24.1-34.9c-16.3,0-28.3,15.3-28.3,40.5c0,23.6,10.5,37.8,30.2,37.8c7,0,13.1-1.3,17.9-3.6v-12
			c-3.4,1.5-9.3,2.7-14.8,2.7c-8.9,0-16.8-4.6-17-21.6l35.8,0C549.6,72.3,549.8,69.8,549.8,65.5">
   </path>
   <path class="st1" d="M557.8,11.3c0-5.9,4.8-10.7,10.7-10.7c5.9,0,10.7,4.8,10.7,10.7c0,5.9-4.8,10.7-10.7,10.7
			C562.6,22,557.8,17.2,557.8,11.3 M576.6,11.3c0-5-3.6-8.6-8.1-8.6c-4.5,0-8.1,3.6-8.1,8.6c0,5,3.6,8.6,8.1,8.6
			C573,20,576.6,16.4,576.6,11.3 M564.4,5.2h4.5c2.9,0,4.5,1,4.5,3.6c0,2.1-1.2,3.1-3.2,3.3l3.3,5.3h-2.3l-3.1-5.2h-1.4v5.2h-2.2
			V5.2z M566.6,10.4h2c1.3,0,2.5-0.2,2.5-1.8c0-1.4-1.3-1.7-2.5-1.7h-2V10.4z">
   </path>
  </g>
 </g>
</svg>