<svg viewBox="0 0 168.28 84.48" xmlns="http://www.w3.org/2000/svg"><defs><style>.cls-1{fill:#695e4a;}.cls-2{fill:#73afb7;}.cls-3{fill:#78a22f;}.cls-4{fill:#949b50;}.cls-5{fill:#677718;}.cls-6{fill:#b2bb1e;}</style></defs><title>Asset 1</title><g data-name="Layer 2" id="Layer_2"><g data-name="Layer 1" id="Layer_1-2"><path class="cls-1" d="M7.57,78.07c9.51,0,14-5.34,14-13s-4.54-13-14-13H3.41v26ZM0,49H7.8c10.74,0,17.41,6.34,17.41,16.08S18.59,81.14,7.8,81.14H0Z"></path><path class="cls-1" d="M44.31,69.93a6.12,6.12,0,0,0-6.52-6,6.55,6.55,0,0,0-6.76,6Zm-6.05,8.79a8,8,0,0,0,6.2-2.6l2,2a10.39,10.39,0,0,1-8.23,3.41c-6.43,0-10.6-4.45-10.6-10.17A10,10,0,0,1,37.79,61.14c6.29,0,10.07,4.82,9.83,11.3H31c.43,3.74,3,6.29,7.29,6.29"></path><path class="cls-1" d="M64.37,69.65c7.29,0,10-3.74,10-8.8S71.6,52,64.37,52H60.72V69.65ZM78.17,81.14h-4L68,72.34a20.23,20.23,0,0,1-3.4.28H60.72v8.51h-3.4V49h7.24c8.79,0,13.33,4.92,13.33,11.87,0,4.82-2.27,8.61-6.72,10.41Z"></path><path class="cls-1" d="M81.79,73.58v-12H85.1V73.24c0,3.4,1.61,5.29,4.82,5.29,3.69,0,6.1-2.36,6.1-6.19V61.56h3.31V81.14H96l.1-4a7.46,7.46,0,0,1-7,4.4c-4.35,0-7.33-3-7.33-8"></path><rect class="cls-1" height="19.58" width="3.31" x="105.01" y="61.56"></rect><path class="cls-1" d="M113.3,78.14V51.35h3.26V61.56h5.49v2.79h-5.49V78.19c0,2.6.9,3.4,2.32,3.4a3.56,3.56,0,0,0,2.65-1.14l1.8,2.08a6.36,6.36,0,0,1-4.78,1.94c-3,0-5.25-1.7-5.25-6.34"></path><path class="cls-1" d="M139.77,69.93a6.12,6.12,0,0,0-6.52-6,6.56,6.56,0,0,0-6.77,6Zm-6.05,8.79a8,8,0,0,0,6.19-2.6l2,2a10.39,10.39,0,0,1-8.23,3.41c-6.43,0-10.6-4.45-10.6-10.17a10,10,0,0,1,10.12-10.21c6.29,0,10.07,4.82,9.83,11.3H126.43c.43,3.74,3,6.29,7.28,6.29"></path><path class="cls-1" d="M146.8,61.56h3.31L150,65.39c1.23-3,3.41-4.21,5.72-4.21a5.7,5.7,0,0,1,3.4.95L157.87,65a4.55,4.55,0,0,0-2.69-.76c-2.79,0-5.06,2-5.06,6.57V81.14H146.8Z"></path><path class="cls-2" d="M115,0a32,32,0,0,0-9.23,6.88l9.55,12,13.11-6.67A33.83,33.83,0,0,0,115,0"></path><path class="cls-3" d="M134,28.33a26.31,26.31,0,0,0-.37-2.71,38.37,38.37,0,0,0-3.94-11.24l-13.47,6.85V37.36Z"></path><path class="cls-4" d="M113.75,47.24V40.11L95.94,31.06c.51,12.88,13.13,15.62,17.81,16.19"></path><path class="cls-5" d="M134.07,31.06l-17.85,9.07v7.12c4.69-.56,17.34-3.29,17.85-16.2"></path><path class="cls-6" d="M104.12,8.75a36.85,36.85,0,0,0-7.74,16.87A25.73,25.73,0,0,0,96,28.33l6.59,3.35V23.91l3.27,1.63v7.8l7.88,4V20.9Z"></path><polygon class="cls-1" points="162.55 58.57 161.58 58.57 161.58 58.08 164.13 58.08 164.13 58.57 163.15 58.57 163.15 61.6 162.55 61.6 162.55 58.57"></polygon><polygon class="cls-1" points="164.61 58.08 165.54 58.08 166.44 61.09 167.35 58.08 168.28 58.08 168.28 61.6 167.71 61.6 167.71 58.53 166.76 61.6 166.07 61.6 165.13 58.53 165.13 61.6 164.61 61.6 164.61 58.08"></polygon></g></g></svg>