<svg xmlns="http://www.w3.org/2000/svg" xml:space="preserve" width="308.844" height="100.178" style="enable-background:new 0 0 308.844 100.178" viewBox="0 0 308.844 100.178"><switch><g><path d="M0 0 308.844 0 308.844 100.178 0 100.178 0 0z" style="fill-rule:evenodd;clip-rule:evenodd;fill:none"/><path d="M198.129,49.031h-30.77c0,11.637,6.215,18.441,16.768,18.441 c2.965,0,6.414-0.492,12.527-1.68l0.789,4.246c-9.369,3.156-15.879,4.531-21.203,4.531c-14.601,0-24.069-9.461-24.069-23.96 c0-15.39,10.359-26.137,25.151-26.137c8.281,0,14.4,2.957,17.461,8.283C197.344,37.192,197.936,40.347,198.129,49.031 L198.129,49.031L198.129,49.031z M183.24,42.817c-0.395-9.963-2.363-13.414-7.496-13.414c-5.818,0-8.086,4.045-8.287,14.692 L183.24,42.817L183.24,42.817L183.24,42.817z" style="fill-rule:evenodd;clip-rule:evenodd;fill:#db2128"/><path d="M209.5,30.88h-7.303v-3.943 c6.316-2.072,9.273-3.452,10.75-4.934c0.496-0.492,1.385-1.674,2.57-3.745c0.984-1.577,1.773-2.958,2.365-4.143 c0.096-0.197,0.297-0.492,0.396-0.888l5.762-0.002v11.735h15.287v5.919h-15.287v27.908c0,6.418,1.975,8.684,7.492,8.684 c1.383,0,2.262-0.074,3.117-0.176l0.504,5.422c-5.105,1.254-9.148,1.852-12.791,1.852c-9.365,0-12.863-3.742-12.863-12.32V30.88 L209.5,30.88L209.5,30.88z" style="fill-rule:evenodd;clip-rule:evenodd;fill:#db2128"/><path d="M295.494,66.683V41.333c0-6.605-1.082-10.153-4.041-13.216 c-2.369-2.562-6.018-4.141-9.668-4.141c-2.857,0-4.088,0.497-11.484,3.06c-1.283,0.494-3.156,1.081-5.623,1.973V3.661 l-22.924,4.438v3.055l8.383,2.568v52.961l-8.383,3.848v3.059h22.924V32.657c3.063-0.394,4.34-0.494,7.006-0.494 c7.002,0,9.168,2.762,9.168,11.933v22.588l-5.814,3.848v3.059h28.744v-3.059L295.494,66.683L295.494,66.683L295.494,66.683z" style="fill-rule:evenodd;clip-rule:evenodd;fill:#db2128"/><path d="m 135.012,24.963 v 3.057 l 6.51,3.847 -9.963,26.238 -12.198,-33.142 h -19.166 v 3.057 l 5.918,3.847 18.247,41.816 -2.468,6.219 c -2.858,7 -5.129,9.465 -9.761,10.453 l -1.776,-6.512 h -9.174 v 10.16 c 3.354,0.883 5.821,1.184 8.777,1.184 3.651,0 6.706,-0.691 9.471,-2.266 3.747,-2.07 6.311,-5.625 9.171,-12.332 l 20.313,-48.723 5.725,-3.847 v -3.057 h -19.626 z" style="clip-rule:evenodd;fill:#db2128;fill-rule:evenodd"/><path d="m 84.883,7.348 v 3.053 L 92.378,14.254 79.655,53.898 63.775,7.348 H 57.07 L 40.206,53.109 26.222,7.348 H 4.404 v 3.053 l 7.693,3.853 20.516,59.375 h 6.505 L 56.184,27.764 71.569,73.629 h 6.413 l 22.68,-59.375 7.795,-3.853 V 7.348 Z" style="clip-rule:evenodd;fill:#db2128;fill-rule:evenodd"/></g></switch></svg>