<?xml version="1.0" encoding="UTF-8" standalone="no"?>
<!-- Created with Inkscape (http://www.inkscape.org/) -->

<svg
   xmlns:dc="http://purl.org/dc/elements/1.1/"
   xmlns:cc="http://creativecommons.org/ns#"
   xmlns:rdf="http://www.w3.org/1999/02/22-rdf-syntax-ns#"
   xmlns:svg="http://www.w3.org/2000/svg"
   xmlns="http://www.w3.org/2000/svg"
   xmlns:sodipodi="http://sodipodi.sourceforge.net/DTD/sodipodi-0.dtd"
   xmlns:inkscape="http://www.inkscape.org/namespaces/inkscape"
   width="204.22678"
   height="79.847687"
   viewBox="0 0 54.035002 21.126366"
   version="1.1"
   id="svg3571"
   inkscape:version="0.92.4 (5da689c313, 2019-01-14)"
   sodipodi:docname="halozyme.svg">
  <defs
     id="defs3565" />
  <sodipodi:namedview
     id="base"
     pagecolor="#ffffff"
     bordercolor="#666666"
     borderopacity="1.0"
     inkscape:pageopacity="0.0"
     inkscape:pageshadow="2"
     inkscape:zoom="7.0663239"
     inkscape:cx="101.11339"
     inkscape:cy="38.923848"
     inkscape:document-units="mm"
     inkscape:current-layer="layer1"
     showgrid="false"
     fit-margin-top="0"
     fit-margin-left="0"
     fit-margin-right="0"
     fit-margin-bottom="0"
     units="px"
     inkscape:window-width="1920"
     inkscape:window-height="1001"
     inkscape:window-x="-9"
     inkscape:window-y="-9"
     inkscape:window-maximized="1" />
  <metadata
     id="metadata3568">
    <rdf:RDF>
      <cc:Work
         rdf:about="">
        <dc:format>image/svg+xml</dc:format>
        <dc:type
           rdf:resource="http://purl.org/dc/dcmitype/StillImage" />
        <dc:title></dc:title>
      </cc:Work>
    </rdf:RDF>
  </metadata>
  <g
     inkscape:label="Layer 1"
     inkscape:groupmode="layer"
     id="layer1"
     transform="translate(414.55649,-94.916276)">
    <g
       transform="translate(135.59336,48.790185)"
       id="g3521">
      <path
         style="fill:#77787b;stroke-width:0.26458332"
         inkscape:connector-curvature="0"
         id="Path_11"
         d="m -532.84749,52.472306 h 0.60537 v 2.54 h 3.08477 v -2.54 h 0.60537 v 6.058958 h -0.60537 v -2.924968 h -3.08477 v 2.92391 h -0.60537 z" />
      <path
         style="fill:#77787b;stroke-width:0.26458332"
         inkscape:connector-curvature="0"
         id="Path_12"
         d="m -523.22804,54.049752 v 4.480454 h -0.56832 v -0.769938 a 2.4712083,2.4712083 0 0 1 -0.81333,0.663046 2.2717125,2.2717125 0 0 1 -2.61091,-0.467254 2.3124583,2.3124583 0 0 1 -0.67337,-1.678252 2.2709187,2.2709187 0 0 1 0.67945,-1.655498 2.2153562,2.2153562 0 0 1 1.63487,-0.687916 2.1137562,2.1137562 0 0 1 0.99853,0.234685 2.2722416,2.2722416 0 0 1 0.78476,0.704056 v -0.823383 z m -2.30399,0.440531 a 1.7393708,1.7393708 0 0 0 -1.53644,0.900906 1.8155708,1.8155708 0 0 0 0.002,1.810015 1.7658291,1.7658291 0 0 0 0.65193,0.672571 1.7036521,1.7036521 0 0 0 0.87816,0.240771 1.8018125,1.8018125 0 0 0 0.89693,-0.238125 1.6689916,1.6689916 0 0 0 0.65194,-0.645584 1.844675,1.844675 0 0 0 0.22833,-0.91731 1.7830271,1.7830271 0 0 0 -0.51223,-1.299898 1.6965083,1.6965083 0 0 0 -1.26074,-0.523346 z" />
      <path
         style="fill:#77787b;stroke-width:0.26458332"
         inkscape:connector-curvature="0"
         id="Path_13"
         d="m -522.22579,52.319906 h 0.57652 v 6.209506 h -0.57652 z" />
      <path
         style="fill:#77787b;stroke-width:0.26458332"
         inkscape:connector-curvature="0"
         id="Path_14"
         d="m -518.70895,53.934394 a 2.2198541,2.2198541 0 0 1 1.71635,0.749564 2.4058562,2.4058562 0 0 1 -0.0352,3.259667 2.36855,2.36855 0 0 1 -3.36629,0 2.4005646,2.4005646 0 0 1 -0.0349,-3.254375 2.2182666,2.2182666 0 0 1 1.72006,-0.754856 z m -0.002,0.564091 a 1.6629062,1.6629062 0 0 0 -1.2356,0.531284 1.7750896,1.7750896 0 0 0 -0.51673,1.284816 1.8208625,1.8208625 0 0 0 0.23574,0.905933 1.666875,1.666875 0 0 0 0.63633,0.648494 1.8100146,1.8100146 0 0 0 1.7608,0 1.6697854,1.6697854 0 0 0 0.63659,-0.648494 1.8221854,1.8221854 0 0 0 0.23547,-0.905933 1.7727083,1.7727083 0 0 0 -0.51884,-1.284816 1.6650229,1.6650229 0 0 0 -1.23402,-0.531284 z" />
      <path
         style="fill:#77787b;stroke-width:0.26458332"
         inkscape:connector-curvature="0"
         id="Path_15"
         d="m -516.26155,54.049487 h 3.29036 l -2.53683,3.96875 h 2.45454 v 0.512762 h -3.44699 l 2.53444,-3.974041 h -2.29552 z" />
      <path
         style="fill:#77787b;stroke-width:0.26458332"
         inkscape:connector-curvature="0"
         id="Path_16"
         d="m -512.96353,54.049487 h 0.60854 l 1.53988,3.449637 1.49542,-3.450431 h 0.61357 l -2.67229,6.119813 h -0.60854 l 0.86254,-1.978555 z" />
      <path
         style="fill:#77787b;stroke-width:0.26458332"
         inkscape:connector-curvature="0"
         id="Path_17"
         d="m -508.314,54.049752 h 0.57653 v 0.774171 a 2.2336125,2.2336125 0 0 1 0.61833,-0.626004 1.7541875,1.7541875 0 0 1 0.91943,-0.264584 1.5300854,1.5300854 0 0 1 0.61833,0.127529 1.3287375,1.3287375 0 0 1 0.47837,0.339725 1.825625,1.825625 0 0 1 0.32173,0.608542 2.1256625,2.1256625 0 0 1 0.71887,-0.800894 1.7010062,1.7010062 0 0 1 0.92843,-0.273843 1.4528271,1.4528271 0 0 1 0.8202,0.234685 1.3991166,1.3991166 0 0 1 0.52917,0.654844 3.4925,3.4925 0 0 1 0.17251,1.26021 v 2.446073 h -0.59002 v -2.446073 a 3.1998708,3.1998708 0 0 0 -0.10266,-0.9906 0.89243957,0.89243957 0 0 0 -0.35084,-0.434446 1.0490729,1.0490729 0 0 0 -0.59319,-0.164571 1.2893146,1.2893146 0 0 0 -0.76544,0.247121 1.4208125,1.4208125 0 0 0 -0.50694,0.658813 4.1767124,4.1767124 0 0 0 -0.15875,1.375833 v 1.754452 h -0.57653 v -2.294202 a 3.935677,3.935677 0 0 0 -0.10081,-1.101725 0.92260207,0.92260207 0 0 0 -0.35216,-0.465137 1.0173229,1.0173229 0 0 0 -0.59716,-0.175155 1.2874625,1.2874625 0 0 0 -0.74745,0.241036 1.4261041,1.4261041 0 0 0 -0.51488,0.648494 3.4993791,3.4993791 0 0 0 -0.16669,1.247775 v 1.898385 h -0.57838 z" />
      <path
         style="fill:#77787b;stroke-width:0.26458332"
         inkscape:connector-curvature="0"
         id="Path_18"
         d="m -497.01417,57.043777 0.48604,0.255323 a 2.6500666,2.6500666 0 0 1 -0.55245,0.757766 2.1910146,2.1910146 0 0 1 -0.70485,0.438415 2.4579791,2.4579791 0 0 1 -0.88636,0.150548 2.1412729,2.1412729 0 0 1 -1.71476,-0.718873 2.4233187,2.4233187 0 0 1 -0.61833,-1.624542 2.3950083,2.3950083 0 0 1 0.52334,-1.519766 2.13995,2.13995 0 0 1 1.77642,-0.848254 2.2108583,2.2108583 0 0 1 1.83038,0.868891 2.4278166,2.4278166 0 0 1 0.49451,1.531938 h -4.03172 a 1.8237729,1.8237729 0 0 0 0.499,1.280318 1.5914687,1.5914687 0 0 0 1.19063,0.499269 1.9134666,1.9134666 0 0 0 0.66595,-0.119062 1.7491604,1.7491604 0 0 0 0.55034,-0.315648 2.6958395,2.6958395 0 0 0 0.49186,-0.636323 z m 0,-1.206765 a 1.9105562,1.9105562 0 0 0 -0.33602,-0.737129 1.5912041,1.5912041 0 0 0 -0.58209,-0.444764 1.7885833,1.7885833 0 0 0 -0.76279,-0.168805 1.6427979,1.6427979 0 0 0 -1.13374,0.423334 1.9166416,1.9166416 0 0 0 -0.52361,0.926041 z" />
      <path
         style="fill:#37b34a;stroke-width:0.26458332"
         inkscape:connector-curvature="0"
         id="Path_19"
         d="m -541.02047,50.016709 a 1.8277416,1.8277416 0 1 0 -1.47161,-2.124605 1.825625,1.825625 0 0 0 1.47161,2.124605 z" />
      <path
         style="fill:#37b34a;stroke-width:0.26458332"
         inkscape:connector-curvature="0"
         id="Path_20"
         d="m -542.35238,56.968899 v 0 c -1.583,3.995209 -3.2684,8.738659 -3.71978,10.018977 h 0.0759 l 5.55784,-9.588235 c 0.35136,-0.604044 0.96228,-1.789377 1.80101,-3.102504 -1.46182,0.298715 -2.96333,1.470819 -3.71501,2.671762 z" />
      <path
         style="fill:#0080c7;stroke-width:0.26458332"
         inkscape:connector-curvature="0"
         id="Path_21"
         d="m -545.28158,50.181015 c -2.72335,0.368035 -5.09772,3.183731 -4.51485,5.368131 0.5133,1.149614 2.02486,1.522941 4.09972,0.187325 l 0.032,-0.137319 c -2.76252,1.301221 -3.49779,0.228865 -3.5605,-0.365919 -0.26855,-2.54 4.96755,-5.165989 4.27011,-1.159139 -0.55113,3.166798 -1.85208,9.433718 -2.16588,10.929937 h 0.0667 c 0.66807,-1.629833 3.63352,-8.880475 4.13623,-10.390981 0.5416,-1.629304 0.5371,-4.823619 -2.36353,-4.432035 z" />
      <path
         style="fill:#37b34a;stroke-width:0.26458332"
         inkscape:connector-curvature="0"
         id="Path_22"
         d="m -539.81503,51.36476 a 15.139194,15.139194 0 0 0 -0.88767,1.687512 5.6599666,5.6599666 0 0 1 -1.11125,1.493838 c -0.0712,0.05292 -0.15875,0.116946 -0.15875,0.116946 l -0.0437,0.143139 c 0,0 0.65537,-0.236537 0.66278,-0.239712 1.38007,-0.502709 2.84348,-1.071827 4.40928,-0.519906 0.74084,0.260614 1.07897,0.749564 1.0414,1.382712 -0.0471,0.800365 -0.77972,1.814777 -2.11005,2.640542 h 0.20161 c 1.9222,-0.881592 2.9898,-2.167996 3.04774,-3.139811 a 1.5033625,1.5033625 0 0 0 -0.94827,-1.538023 4.5979291,4.5979291 0 0 0 -2.03464,-0.404548 c 1.91505,-2.624931 4.65455,-5.174456 7.98724,-4.312708 v -0.0889 c -3.63141,-2.146564 -8.17298,-0.15875 -10.05576,2.778919 z" />
    </g>
  </g>
</svg>
