<?xml version="1.0" encoding="UTF-8"?> <svg xmlns="http://www.w3.org/2000/svg" width="142.272" height="55.432" viewBox="0 0 142.272 55.432"><g id="VFS_White_" data-name="VFS(White)" transform="translate(13140.537 1985.117)"><g id="Group_58" data-name="Group 58" transform="translate(-13140.537 -1971.337)"><path id="Path_149" data-name="Path 149" d="M387.85,159.23l4.577,5.79H405.2a52.1,52.1,0,0,1-4.54-5.79Z" transform="translate(-387.85 -146.492)" fill="#fff" fill-rule="evenodd"></path><path id="Path_150" data-name="Path 150" d="M387.85,168.79l4.577-5.79H405.2a50.452,50.452,0,0,0-4.54,5.79Z" transform="translate(-387.85 -143.332)" fill="#fff" fill-rule="evenodd"></path><path id="Path_151" data-name="Path 151" d="M400.938,152.94l4.816,20.826,12.095-20.826h3.731l-17.168,28.933L397.28,152.94h3.658Z" transform="translate(-379.946 -151.764)" fill="#fff" fill-rule="evenodd"></path><path id="Path_152" data-name="Path 152" d="M420.6,164.918a4.444,4.444,0,0,0-4.191-4.632h-.2a6.773,6.773,0,0,0-6.029,4.632H420.6Zm-10.716,2.941c-.478,3.254,1.434,5.864,4.871,5.864,2.555,0,4.467-1.526,5.974-3.621l2.334,1.452a10.817,10.817,0,0,1-8.97,4.926c-5.275,0-8.033-3.989-7.224-9.025.827-5.184,4.577-9.485,10.11-9.485s7.959,4.669,6.82,9.889H409.888Z" transform="translate(-372.022 -147.548)" fill="#fff" fill-rule="evenodd"></path><path id="Path_153" data-name="Path 153" d="M419.387,180.074H416.17l4.889-27.774h3.217Z" transform="translate(-364.113 -152.3)" fill="#fff" fill-rule="evenodd"></path><path id="Path_154" data-name="Path 154" d="M424.518,162.814a7.845,7.845,0,0,0-2.243,5.349,5.428,5.428,0,0,0,1.268,3.86,4.649,4.649,0,0,0,3.676,1.6,5.935,5.935,0,0,0,4.467-1.967,8.673,8.673,0,0,0,2.132-5.386,5.415,5.415,0,0,0-1.195-3.787,4.749,4.749,0,0,0-3.64-1.562,6.263,6.263,0,0,0-4.467,1.893m-2.684,10.863a7.989,7.989,0,0,1-1.875-5.753,9.534,9.534,0,0,1,3.143-6.856,9.3,9.3,0,0,1,6.525-2.463,7.643,7.643,0,0,1,5.827,2.261,7.193,7.193,0,0,1,1.8,5.386,10.1,10.1,0,0,1-2.959,7.132,9.315,9.315,0,0,1-6.82,2.537,7.114,7.114,0,0,1-5.661-2.261" transform="translate(-360.954 -147.024)" fill="#fff" fill-rule="evenodd"></path><path id="Path_155" data-name="Path 155" d="M445.577,163.695H445.5a5.627,5.627,0,0,0-5.018-2.941,7.625,7.625,0,0,0-7.261,6.489c-.551,3.474,1.36,6.489,5.055,6.489a8.247,8.247,0,0,0,6.231-3.015h.074l-.643,3.989a10.943,10.943,0,0,1-5.882,1.783c-5.331,0-8.75-3.952-7.922-9.264a11.318,11.318,0,0,1,10.9-9.264,8.422,8.422,0,0,1,5.165,1.746l-.625,3.952Z" transform="translate(-352.511 -147.556)" fill="#fff" fill-rule="evenodd"></path><path id="Path_156" data-name="Path 156" d="M442.827,154.844a1.861,1.861,0,0,1,1.47-.643,1.412,1.412,0,0,1,1.066.4,1.447,1.447,0,0,1,.4,1.121,1.924,1.924,0,0,1-.588,1.36,1.817,1.817,0,0,1-1.379.57,1.54,1.54,0,0,1-1.14-.478,1.392,1.392,0,0,1-.368-1.048,1.958,1.958,0,0,1,.515-1.287h.018Zm1.783,7.445-2.757,16.194H438.82l2.757-16.194Z" transform="translate(-345.129 -150.708)" fill="#fff" fill-rule="evenodd"></path><path id="Path_157" data-name="Path 157" d="M448.148,163.869l-2.132,13.584H443.24l2.132-13.584h-1.709l.4-2.573h1.691l.9-5.845h2.776l-.9,5.845h2.776l-.4,2.573h-2.757Z" transform="translate(-341.425 -149.66)" fill="#fff" fill-rule="evenodd"></path><path id="Path_158" data-name="Path 158" d="M455.566,173.489,450.419,158.6h3.125l3.878,11.764,7.114-11.764h3.2l-18.859,30.072H445.75l9.816-15.2Z" transform="translate(-339.321 -147.02)" fill="#fff" fill-rule="evenodd"></path><path id="Path_159" data-name="Path 159" d="M418.844,177.776h-.864V170.35h4.136v.772h-3.272v2.72h3.088v.772h-3.088v3.162Zm4.522,0V170.35h.864v7.426Zm8.713,0h-.993l-4.062-6.231h-.037c.055.735.073,1.4.073,2.022v4.228h-.79v-7.426h.974l4.044,6.213h.037s-.018-.386-.037-.882-.037-.846-.018-1.066v-4.264h.809v7.408Zm5.22-6.764a2.4,2.4,0,0,0-1.93.827,3.261,3.261,0,0,0-.7,2.224,3.422,3.422,0,0,0,.68,2.261,2.419,2.419,0,0,0,1.948.79,6.925,6.925,0,0,0,1.783-.276v.754a5.291,5.291,0,0,1-1.912.294,3.216,3.216,0,0,1-2.537-.993,4.113,4.113,0,0,1-.882-2.831,4.674,4.674,0,0,1,.423-2.022,3.071,3.071,0,0,1,1.232-1.323,3.775,3.775,0,0,1,1.912-.46,4.758,4.758,0,0,1,2.04.423l-.368.735a4.071,4.071,0,0,0-1.691-.4Zm4.246,3.676v3.088h-.864V170.35h2.04a3.21,3.21,0,0,1,2.022.515,1.9,1.9,0,0,1,.662,1.581,1.96,1.96,0,0,1-1.489,1.985l2.022,3.345h-1.029l-1.8-3.088h-1.562Zm0-.735h1.176a2.053,2.053,0,0,0,1.342-.368,1.371,1.371,0,0,0,.423-1.085,1.261,1.261,0,0,0-.441-1.066,2.332,2.332,0,0,0-1.4-.331h-1.121v2.849Zm5.57,3.842v-7.426h.864v7.426Zm6.195,0-2.518-6.581h-.037a18.129,18.129,0,0,1,.074,1.857v4.724h-.79v-7.426h1.305l2.353,6.139h.037l2.371-6.139h1.287v7.426h-.864V173c0-.551.018-1.14.073-1.783h-.037l-2.537,6.581h-.717Zm10.257,0H459.43v-7.426h4.136v.772h-3.272v2.39h3.088v.754h-3.088v2.739h3.272v.772Zm19.374-1.985a1.8,1.8,0,0,1-.717,1.526,3.087,3.087,0,0,1-1.93.551,4.682,4.682,0,0,1-2.04-.349v-.827a5.683,5.683,0,0,0,.993.312,5.388,5.388,0,0,0,1.066.11,2.17,2.17,0,0,0,1.305-.331,1.208,1.208,0,0,0,.276-1.544,1.6,1.6,0,0,0-.515-.46,6.859,6.859,0,0,0-1.1-.478,3.322,3.322,0,0,1-1.489-.882,1.951,1.951,0,0,1-.441-1.323,1.649,1.649,0,0,1,.643-1.36,2.705,2.705,0,0,1,1.71-.515,5.055,5.055,0,0,1,2.04.4l-.276.754a4.59,4.59,0,0,0-1.783-.386,1.672,1.672,0,0,0-1.066.294,1,1,0,0,0-.386.827,1.333,1.333,0,0,0,.147.643,1.438,1.438,0,0,0,.478.46,6.479,6.479,0,0,0,1.029.46,3.8,3.8,0,0,1,1.6.9,1.744,1.744,0,0,1,.441,1.232Zm7.132-5.459v4.816a2.644,2.644,0,0,1-.772,2,2.983,2.983,0,0,1-2.114.735,2.785,2.785,0,0,1-2.077-.735,2.708,2.708,0,0,1-.735-2.022v-4.8h.864V175.2a1.877,1.877,0,0,0,.515,1.434,2.051,2.051,0,0,0,1.489.5,1.987,1.987,0,0,0,1.452-.5,1.949,1.949,0,0,0,.515-1.434v-4.834h.864Zm1.967,7.426V170.35h.864v7.426Zm5.2,0h-.864V171.1h-2.353v-.772h5.57v.772h-2.353Zm7.628,0h-4.136V170.35h4.136v.772H501.6v2.39h3.088v.754H501.6V177h3.272v.772Z" transform="translate(-362.597 -137.264)" fill="#fff"></path></g><g id="Group_820" data-name="Group 820" transform="translate(-13123.308 -1988.039)"><path id="Path_4540" data-name="Path 4540" d="M-28.992,1.216H-30.1l1.238-5.893h-1.777l.211-.961h4.679l-.2.961h-1.786Zm5.752,0,.666-3.15a3.55,3.55,0,0,0,.084-.6q0-.633-.6-.633a1.271,1.271,0,0,0-.982.586,3.858,3.858,0,0,0-.668,1.6L-25.2,1.216h-1.106l1.547-7.294h1.1l-.267,1.228q-.127.591-.342,1.374l-.089.352h.037a2.764,2.764,0,0,1,.79-.717,1.688,1.688,0,0,1,.832-.22,1.273,1.273,0,0,1,.977.363,1.464,1.464,0,0,1,.34,1.038,3.618,3.618,0,0,1-.108.816l-.652,3.061Zm5.485-4.435a1.178,1.178,0,0,0-.846.4,2.325,2.325,0,0,0-.57,1.064h.136A3.106,3.106,0,0,0-17.657-2a.776.776,0,0,0,.5-.71.473.473,0,0,0-.15-.373A.651.651,0,0,0-17.756-3.219Zm-.713,4.529A1.943,1.943,0,0,1-19.91.79a1.97,1.97,0,0,1-.518-1.453,4.125,4.125,0,0,1,.363-1.727,2.963,2.963,0,0,1,.984-1.235,2.363,2.363,0,0,1,1.39-.436,1.819,1.819,0,0,1,1.174.34,1.169,1.169,0,0,1,.42.963,1.492,1.492,0,0,1-.781,1.334A4.264,4.264,0,0,1-19.1-.945h-.2l-.009.145v.136a1.178,1.178,0,0,0,.265.816,1.007,1.007,0,0,0,.79.3,2.583,2.583,0,0,0,.67-.089,4.781,4.781,0,0,0,.788-.3V.93a4.351,4.351,0,0,1-.827.293A3.764,3.764,0,0,1-18.468,1.31Zm9.01-2h-2.274l-.98,1.9H-13.9l3.671-6.863h1.284l.778,6.863h-1.1Zm-.075-.975q-.188-1.95-.213-2.36t-.026-.654a15.854,15.854,0,0,1-.666,1.439l-.806,1.575Zm3.188,2.878h-1.1L-5.9-6.078h1.1Zm3.192.094A1.272,1.272,0,0,1-4.2.834,2.078,2.078,0,0,1-4.583-.5a4.781,4.781,0,0,1,.326-1.772,3.2,3.2,0,0,1,.9-1.306A1.91,1.91,0,0,1-2.1-4.062a1.4,1.4,0,0,1,.783.213,1.4,1.4,0,0,1,.511.621h.047l.291-.741H.373L-.734,1.216h-.853l.1-.825h-.028A2.1,2.1,0,0,1-3.153,1.31Zm.4-.891A1.086,1.086,0,0,0-1.995.056a2.744,2.744,0,0,0,.609-.973,3.614,3.614,0,0,0,.239-1.331.969.969,0,0,0-.22-.663.731.731,0,0,0-.577-.251,1.041,1.041,0,0,0-.75.361,2.568,2.568,0,0,0-.563.982A3.974,3.974,0,0,0-3.467-.532a1.129,1.129,0,0,0,.19.715A.638.638,0,0,0-2.75.419Zm5.658.891a1.948,1.948,0,0,1-1.425-.5A1.9,1.9,0,0,1,.977-.607a4.391,4.391,0,0,1,.345-1.765A2.914,2.914,0,0,1,2.29-3.615a2.367,2.367,0,0,1,1.416-.448A3.3,3.3,0,0,1,5.1-3.776l-.328.863a2.634,2.634,0,0,0-1.036-.248,1.372,1.372,0,0,0-1.172.72A3.192,3.192,0,0,0,2.093-.664a1.131,1.131,0,0,0,.263.8.945.945,0,0,0,.727.281,2,2,0,0,0,.649-.1A5.11,5.11,0,0,0,4.339.063V.977A3.116,3.116,0,0,1,2.909,1.31ZM8.122-3.219a1.178,1.178,0,0,0-.846.4,2.325,2.325,0,0,0-.57,1.064h.136A3.106,3.106,0,0,0,8.22-2a.776.776,0,0,0,.5-.71.473.473,0,0,0-.15-.373A.651.651,0,0,0,8.122-3.219ZM7.409,1.31A1.943,1.943,0,0,1,5.968.79,1.97,1.97,0,0,1,5.45-.664a4.125,4.125,0,0,1,.363-1.727A2.964,2.964,0,0,1,6.8-3.626a2.363,2.363,0,0,1,1.39-.436,1.819,1.819,0,0,1,1.174.34,1.169,1.169,0,0,1,.42.963A1.492,1.492,0,0,1,9-1.425a4.264,4.264,0,0,1-2.224.481h-.2L6.565-.8v.136A1.178,1.178,0,0,0,6.83.152a1.007,1.007,0,0,0,.79.3A2.583,2.583,0,0,0,8.29.358a4.781,4.781,0,0,0,.788-.3V.93a4.351,4.351,0,0,1-.827.293A3.764,3.764,0,0,1,7.409,1.31Zm6.376-5.372a2.02,2.02,0,0,1,.506.056l-.239,1.027a1.908,1.908,0,0,0-.478-.066,1.377,1.377,0,0,0-1.055.53,3.017,3.017,0,0,0-.647,1.388l-.5,2.344H10.269l1.106-5.185h.863l-.1.961h.042a2.869,2.869,0,0,1,.778-.809A1.518,1.518,0,0,1,13.785-4.062ZM20.146-2.5h2.4L21.81.949a6.207,6.207,0,0,1-1.024.274,6.565,6.565,0,0,1-1.118.087,2.547,2.547,0,0,1-1.9-.684,2.64,2.64,0,0,1-.675-1.936,5.275,5.275,0,0,1,.481-2.264,3.723,3.723,0,0,1,1.359-1.594,3.606,3.606,0,0,1,2-.567,5.058,5.058,0,0,1,1,.1,4.131,4.131,0,0,1,.961.326l-.422.952a3.532,3.532,0,0,0-1.566-.4,2.289,2.289,0,0,0-1.345.424,2.846,2.846,0,0,0-.954,1.209,4.25,4.25,0,0,0-.349,1.746,1.822,1.822,0,0,0,.417,1.3A1.555,1.555,0,0,0,19.86.354,3.373,3.373,0,0,0,20.868.2l.375-1.739h-1.3Zm6.61-1.561a2.02,2.02,0,0,1,.506.056l-.239,1.027a1.908,1.908,0,0,0-.478-.066,1.377,1.377,0,0,0-1.055.53,3.017,3.017,0,0,0-.647,1.388l-.5,2.344H23.24l1.106-5.185h.863l-.1.961h.042a2.869,2.869,0,0,1,.778-.809A1.518,1.518,0,0,1,26.756-4.062Zm4.13,1.988a1.215,1.215,0,0,0-.23-.785A.8.8,0,0,0,30-3.143a1.091,1.091,0,0,0-.781.335,2.21,2.21,0,0,0-.534.909A3.881,3.881,0,0,0,28.5-.673a1.209,1.209,0,0,0,.232.8A.846.846,0,0,0,29.414.4a1.079,1.079,0,0,0,.759-.319A2.1,2.1,0,0,0,30.7-.811,4.052,4.052,0,0,0,30.886-2.075ZM32-2.028A4.223,4.223,0,0,1,31.655-.3a2.761,2.761,0,0,1-.94,1.191,2.354,2.354,0,0,1-1.376.415,1.918,1.918,0,0,1-1.43-.537A1.988,1.988,0,0,1,27.38-.7a4.28,4.28,0,0,1,.335-1.711,2.822,2.822,0,0,1,.94-1.212,2.336,2.336,0,0,1,1.4-.434,1.876,1.876,0,0,1,1.43.544A2.065,2.065,0,0,1,32-2.028Zm2.817-1.941-.6,2.86a5.135,5.135,0,0,0-.145.9q0,.623.6.623a1.069,1.069,0,0,0,.67-.267,2.353,2.353,0,0,0,.591-.762,4.531,4.531,0,0,0,.4-1.16l.464-2.2h1.092L36.784,1.216h-.867l.1-.961h-.038a2.829,2.829,0,0,1-.8.8,1.693,1.693,0,0,1-.9.255,1.282,1.282,0,0,1-.97-.356,1.417,1.417,0,0,1-.342-1.022,3.041,3.041,0,0,1,.056-.584l.113-.579.577-2.738Zm6,5.279A1.337,1.337,0,0,1,39.554.485h-.047a6.751,6.751,0,0,1-.117.867l-.45,2.171H37.848l1.585-7.491h.863l-.1.881h.042a2.053,2.053,0,0,1,1.613-.975,1.262,1.262,0,0,1,1.05.483,2.118,2.118,0,0,1,.38,1.341A4.831,4.831,0,0,1,42.953-.45a3.11,3.11,0,0,1-.893,1.3A1.916,1.916,0,0,1,40.815,1.31Zm.623-4.472a1.087,1.087,0,0,0-.755.373,2.776,2.776,0,0,0-.612.987,3.5,3.5,0,0,0-.237,1.27,1.034,1.034,0,0,0,.218.7.773.773,0,0,0,.616.251,1.019,1.019,0,0,0,.745-.368,2.582,2.582,0,0,0,.548-.984,4.114,4.114,0,0,0,.2-1.287Q42.165-3.162,41.439-3.162Z" transform="translate(31 9)" fill="#fff"></path></g></g></svg> 