<?xml version="1.0" encoding="UTF-8"?><svg id="Ebene_1" xmlns="http://www.w3.org/2000/svg" viewBox="0 0 78.24 78.24"><circle cx="39.12" cy="39.12" r="38.98" transform="translate(-8.25 67.69) rotate(-76.1)" style="fill:#ff6e00; stroke:#ff6e00; stroke-miterlimit:3.86; stroke-width:.28px;"/><path d="M20.54,20.17c.36.83.56,1.76.56,2.73,0,3.79-3.07,6.86-6.86,6.86s-6.86-3.07-6.86-6.86,3.07-6.86,6.86-6.86c1.41,0,2.71.43,3.8,1.15v-1.78c0-3.27,2.65-5.92,5.92-5.92h16.78v9.98h-9.73c-.21,0-.37.17-.37.37v6.11c0,.21.17.37.37.37h9.73v8.42h-9.48c-.34,0-.62.28-.62.62v21.52h7.61v-15.28c0-1.21.98-2.18,2.18-2.18h2.81c1.2,0,2.18.98,2.18,2.18v15.28h7.61v-15.28c0-1.21.98-2.18,2.18-2.18h2.81c1.21,0,2.18.98,2.18,2.18v15.28h7.61v-21.52c0-.34-.28-.62-.62-.62h-24.26v-2.49h25.19c1.21,0,2.18.98,2.18,2.18v24.95h-12.6v-17.09c0-.21-.17-.37-.37-.37h-1.43c-.21,0-.37.17-.37.37v17.09h-12.6v-17.09c0-.21-.17-.37-.37-.37h-1.44c-.21,0-.37.17-.37.37v17.09H12.62v-2.49h5.43v-21.52c0-.34-.28-.62-.62-.62h-6.99v24.63h-2.49v-27.13h10.42c1.2,0,2.18.98,2.18,2.18v22.45h7.61v-22.45c0-1.21.98-2.18,2.18-2.18h7.92v-3.43h-7.92c-1.21,0-2.18-.98-2.18-2.18v-7.48c0-1.21.98-2.18,2.18-2.18h7.92v-4.99h-14.28c-1.89,0-3.43,1.54-3.43,3.43v4.75ZM9.87,22.9c0-2.41,1.96-4.37,4.37-4.37s4.37,1.96,4.37,4.37-1.95,4.37-4.37,4.37-4.37-1.95-4.37-4.37Z" style="fill:#fff; fill-rule:evenodd;"/><path d="M9.87,22.9c0-2.41,1.96-4.37,4.37-4.37s4.37,1.96,4.37,4.37-1.95,4.37-4.37,4.37-4.37-1.95-4.37-4.37ZM7.38,22.9c0-3.79,3.07-6.86,6.86-6.86s6.86,3.07,6.86,6.86-3.07,6.86-6.86,6.86-6.86-3.07-6.86-6.86Z" style="fill:#1d1d1b; fill-rule:evenodd; stroke:#1d1d1b; stroke-miterlimit:3.86; stroke-width:.28px;"/></svg>