<svg xmlns="http://www.w3.org/2000/svg" width="559.156" height="105" fill="none" viewBox="0 0 559.156 105"><path fill="#071d49" d="m 554.79282,99.30919 c 0,-6.04534 -3.40302,-8.227956 -8.99307,-8.227956 h -42.45277 c -19.9301,0 -26.97859,-12.762594 -27.86965,-21.578715 h 58.89924 c 17.1757,0 22.2796,-12.846348 22.2796,-21.074748 0,-8.816121 -5.50944,-21.074685 -22.2796,-21.074685 h -31.83942 c -29.0044,0 -38.48362,20.403022 -38.48362,37.027707 0,18.219963 10.85642,37.027897 38.40239,37.027897 h 52.3369 z M 503.42821,37.680542 h 29.48993 c 10.20843,0 12.63854,6.549118 12.63854,10.831234 0,3.778337 -2.26827,10.831234 -12.63854,10.831234 h -57.44081 c 0.72922,-7.472733 6.64295,-21.662468 27.95088,-21.662468 z M 383.2796,96.70655 c -2.99748,4.28211 -5.10391,5.79345 -7.77771,5.79345 -3.7267,0 -5.10391,-2.09887 -7.77708,-5.79345 -6.4005,-9.068011 -49.01574,-69.353464 -49.01574,-69.353464 h 6.56234 c 7.12972,0 9.15491,2.602833 12.07179,6.884949 1.29597,1.847167 38.32116,56.003149 38.32116,56.003149 0,0 37.02456,-54.071977 38.483,-56.255038 2.7544,-4.030227 4.86083,-6.63306 11.99055,-6.63306 h 5.75189 c 0,0 -43.34383,61.964924 -48.6102,69.353464 z m -279.34635,4.70214 c -4.45592,0 -7.291562,-2.267 -8.101386,-7.22103 L 94.373426,86.127204 C 91.942695,90.744962 83.030856,101.40869 63.667821,101.40869 H 41.388161 C 11.087783,101.40869 2.5,80.081864 2.5,64.380793 2.5,46.664547 12.789169,27.353086 41.388161,27.353086 h 22.27966 c 21.712532,0 33.703086,13.098236 36.619959,29.051196 2.4301,13.350126 8.10139,45.004408 8.10139,45.004408 z M 61.156297,37.680542 h -19.03898 c -21.388476,0 -28.680037,14.105793 -28.680037,26.700251 0,12.594648 7.291561,26.700441 28.680037,26.700441 h 19.03898 c 22.360706,0 28.841814,-14.693954 28.841814,-26.700441 0,-10.747292 -5.833124,-26.700251 -28.841814,-26.700251 z M 446.39232,18.872796 c 3.15932,0 5.59005,-2.015113 5.59005,-5.877393 v -2.43495 c 0,-3.862298 -2.51134,-5.877411 -5.59005,-5.877411 -3.07872,0 -5.59068,1.931146 -5.59068,5.877411 v 2.43495 c -0.0806,3.86228 2.43073,5.877393 5.59068,5.877393 z m -5.50945,8.48029 h 2.59257 c 5.10391,0 8.34446,2.350944 8.34446,9.571788 v 64.483816 h -2.75441 c -5.59005,0 -8.26385,-3.10705 -8.26385,-9.319899 0.0812,-0.923804 0.0812,-64.735705 0.0812,-64.735705 z m -315.72292,9.65573 c 4.69899,-4.617947 13.12468,-9.65573 26.41121,-9.65573 h 22.2796 c 30.30037,0 38.88853,21.326574 38.88853,37.027707 0,17.716184 -10.28967,37.027897 -38.88853,37.027897 h -22.2796 c -21.71222,0 -37.34887,-14.525818 -37.34887,-37.027897 V 2.5 h 3.40302 c 4.86084,0 7.53464,2.602853 7.53464,7.304786 z m 28.84194,54.072418 h 19.03904 c 21.38854,0 28.6801,-14.105793 28.6801,-26.700441 0,-12.594458 -7.29156,-26.700251 -28.6801,-26.700251 h -19.03904 c -22.36083,0 -28.84194,14.693513 -28.84194,26.700251 0,10.747041 5.75189,26.700441 28.84194,26.700441 z m 80.69269,-54.072418 c 4.699,-4.617947 13.12469,-9.65573 26.41184,-9.65573 h 22.2796 c 30.30038,0 38.88791,21.326574 38.88791,37.027707 0,17.716184 -10.28904,37.027897 -38.88791,37.027897 h -22.2796 c -21.71284,0 -37.34886,-14.525818 -37.34886,-37.027897 V 2.5 h 3.40239 c 4.86146,0 7.53463,2.602853 7.53463,7.304786 z m 28.84194,54.072418 h 19.03905 c 21.38854,0 28.6801,-14.105793 28.6801,-26.700441 0,-12.594458 -7.29156,-26.700251 -28.6801,-26.700251 h -19.03905 c -22.3602,0 -28.84194,14.693513 -28.84194,26.700251 0,10.747041 5.83313,26.700441 28.84194,26.700441 z" style="stroke-width:6.29723"/></svg>