<?xml version="1.0" encoding="UTF-8" standalone="no"?>
<svg
   width="120.69922pt"
   height="51.132812pt"
   viewBox="0 0 120.69921 51.132812"
   version="1.2"
   id="svg44"
   xmlns="http://www.w3.org/2000/svg"
   xmlns:svg="http://www.w3.org/2000/svg">
  <defs
     id="defs48" />
  <g
     id="surface32657"
     transform="translate(-142.26953,-396.38672)">
    <path
       style="fill:#e12319;fill-opacity:1;fill-rule:nonzero;stroke:none"
       d="m 202.61328,396.38672 c -33.30078,0 -60.34375,11.44531 -60.34375,25.57422 0,14.09765 27.04297,25.55859 60.34375,25.55859 33.34375,0 60.35547,-11.46094 60.35547,-25.55859 0,-14.12891 -27.01172,-25.57422 -60.35547,-25.57422"
       id="path29" />
    <path
       style="fill:#ffffff;fill-opacity:1;fill-rule:nonzero;stroke:none"
       d="m 248.81641,409.19922 c 1.63281,0.10937 2.80468,1.32422 2.53906,2.66797 -0.26563,1.33984 -1.89063,2.36328 -3.51172,2.2539 -1.63281,-0.10937 -2.73047,-1.35156 -2.46875,-2.66015 0.26172,-1.30469 1.8125,-2.3711 3.44141,-2.26172"
       id="path31" />
    <path
       style="fill:#ffffff;fill-opacity:1;fill-rule:nonzero;stroke:none"
       d="m 249.78516,415.78516 h -4.42579 c -0.11328,0 -0.22656,0.0937 -0.25,0.20312 l -3.41406,16.05078 c -0.0234,0.10938 0.0469,0.20703 0.16016,0.20703 h 4.42969 c 0.11328,0 0.22265,-0.0976 0.25,-0.20703 l 3.41406,-16.05078 c 0.0195,-0.10937 -0.0508,-0.20312 -0.16406,-0.20312"
       id="path33" />
    <path
       style="fill:#ffffff;fill-opacity:1;fill-rule:nonzero;stroke:none"
       d="m 236.125,415.35156 c -2.33984,0 -4.37109,1.06641 -5.55078,2.57422 -0.48047,-1.63672 -1.90235,-2.57422 -3.96485,-2.57422 -2.19531,0 -4.03515,0.78516 -5.36328,2.27735 0.0703,-0.33204 0.35547,-1.64063 0.35547,-1.64063 0.0273,-0.11328 -0.0469,-0.20312 -0.16015,-0.20312 h -4.21094 c -0.11328,0 -0.22266,0.0898 -0.2461,0.20312 l -3.35156,16.05078 c -0.0234,0.10938 0.0469,0.20703 0.16016,0.20703 h 4.39453 c 0.11328,0 0.22266,-0.0976 0.25,-0.20703 l 1.79297,-8.5625 c 0.43359,-1.96484 1.73437,-4.26562 3.94922,-4.26562 0.99218,0 1.73828,0.65234 1.73828,1.51953 0,0.23828 -0.0352,0.52734 -0.0859,0.86719 l -0.0352,0.26171 -2.12109,10.17969 c -0.0195,0.10938 0.0508,0.20703 0.16406,0.20703 h 4.42969 c 0.10938,0 0.22266,-0.0976 0.24609,-0.20703 l 1.79297,-8.5625 c 0.4375,-1.96484 1.73438,-4.26562 3.94922,-4.26562 0.9961,0 1.73828,0.65234 1.73828,1.51953 0,0.23828 -0.0391,0.52734 -0.082,0.86719 l -0.0391,0.26171 -2.11719,10.17969 c -0.0234,0.10938 0.0469,0.20703 0.16016,0.20703 h 4.39844 c 0.11328,0 0.21875,-0.0976 0.24609,-0.20703 l 2.12891,-10.0664 c 0.16796,-0.76954 0.32031,-1.51563 0.32031,-2.16016 0,-2.89063 -1.81641,-4.46094 -4.88672,-4.46094"
       id="path35" />
    <path
       style="fill:#ffffff;fill-opacity:1;fill-rule:nonzero;stroke:none"
       d="m 207.68359,415.35156 c -2.15234,0 -3.95312,0.77344 -5.37109,2.28516 0.0781,-0.32422 0.36719,-1.64844 0.36719,-1.64844 0.0273,-0.11328 -0.0469,-0.20312 -0.15625,-0.20312 h -4.21485 c -0.11328,0 -0.22265,0.0898 -0.24609,0.20312 l -3.35156,16.05078 c -0.0234,0.10938 0.0469,0.20703 0.16015,0.20703 h 4.39453 c 0.11329,0 0.22266,-0.0976 0.2461,-0.20703 l 1.79687,-8.5 c 0.26953,-1.30078 1.23438,-4.32812 4.32422,-4.32812 0.90625,0 1.92188,0.60156 1.92188,1.45703 0,0.40625 -0.14453,1.44531 -0.26953,1.91406 0,0 -0.49219,2.36719 -0.98438,4.71875 -0.49219,2.35938 -0.98437,4.73828 -0.98437,4.73828 -0.0195,0.10938 0.0469,0.20703 0.16406,0.20703 h 4.39453 c 0.10937,0 0.22266,-0.0976 0.24609,-0.20703 l 1.98047,-9.36719 c 0.32031,-1.42578 0.47266,-2.34375 0.47266,-2.80859 0,-2.91797 -1.73828,-4.51172 -4.89063,-4.51172"
       id="path37" />
    <path
       style="fill:#ffffff;fill-opacity:1;fill-rule:nonzero;stroke:none"
       d="m 188.375,425.57031 c -0.51172,1.60547 -3.0625,3.3711 -4.83203,3.50391 -1.24219,0.0937 -2.33985,-0.34375 -2.33985,-1.37891 0,-1.29687 1.64454,-2.22265 3.6875,-2.6875 1.47657,-0.33594 2.57422,-0.46094 3.76954,-0.48047 -0.0117,0.043 -0.0156,0.0742 -0.0156,0.0742 z m 4.63672,-8.64844 c -0.67969,-0.86718 -2.26563,-1.57031 -5.4961,-1.57031 -2.91406,0 -6.38671,1.08985 -7.28906,1.39453 -0.125,0.0352 -0.23828,0.16407 -0.26562,0.27344 l -0.69532,3.33203 c -0.0234,0.11328 0.0625,0.16797 0.1836,0.12891 0.84765,-0.30469 3.93359,-1.35938 6.59375,-1.53906 0.92969,-0.0625 3.53906,0.15625 3.38281,1.72656 -0.0156,0.20312 -0.0117,0.25 -0.0312,0.32422 -0.004,0.0195 -0.0391,0.20703 -0.10156,0.47265 -2.44141,-0.10156 -4.19922,0.0937 -6.16797,0.53516 -4.22656,0.94531 -6.29297,3.15625 -6.46094,6.26172 -0.12109,2.16015 1.67188,4.41797 5.41406,4.41797 2.10938,0 4.10938,-0.87891 5.27344,-1.86719 l -0.26172,1.22656 c -0.0234,0.10938 0.0508,0.20703 0.16016,0.20703 h 4.05469 c 0.10937,0 0.21875,-0.0976 0.24218,-0.20703 l 2.01954,-9.52344 c 0.2539,-1.22656 0.42578,-2.14843 0.42968,-2.74609 0.0156,-1.26562 -0.28906,-1.96094 -0.98437,-2.84766"
       id="path39" />
    <path
       style="fill:#ffffff;fill-opacity:1;fill-rule:nonzero;stroke:none"
       d="m 176.96094,410.70703 h -4.71875 c -0.11719,0 -0.22266,0.0859 -0.25,0.20313 l -1.71485,8.09375 h -8.51172 l 1.71094,-8.09375 c 0.0312,-0.11719 -0.0469,-0.20313 -0.16015,-0.20313 h -4.71875 c -0.11329,0 -0.22266,0.0859 -0.25,0.20313 l -4.46875,21.1289 c -0.0195,0.10938 0.0508,0.20703 0.16015,0.20703 h 4.72266 c 0.11328,0 0.22265,-0.0976 0.24609,-0.20703 l 1.80469,-8.55469 h 8.51562 l -1.80468,8.55469 c -0.0273,0.10938 0.0469,0.20703 0.16015,0.20703 h 4.71485 c 0.12109,0 0.23047,-0.0976 0.2539,-0.20703 l 4.46875,-21.1289 c 0.0234,-0.11719 -0.0508,-0.20313 -0.16015,-0.20313"
       id="path41" />
  </g>
</svg>
