<?xml version="1.0" encoding="UTF-8"?>
<svg xmlns="http://www.w3.org/2000/svg" version="1.1" viewBox="0 0 438 437.32414">
  <!-- Generator: Adobe Illustrator 28.6.0, SVG Export Plug-In . SVG Version: 1.2.0 Build 709)  -->
  <g>
    <g id="Layer_1">
      <path d="M436.16064,193.42782c-.86497-7.95523-8.81117-13.11195-16.4223-10.64124l-2.33831.75906v.01001l-59.76001,19.40997c-1.03003.33002-2.07001.48999-3.09003.48999-4.21997,0-8.13-2.69-9.51001-6.90997-1.69995-5.25,1.17004-10.89001,6.42004-12.60004l61.47998-19.96997.10339-.03363c9.39898-3.05717,14.3657-13.35042,10.871-22.59565-3.44575-9.11574-7.48377-17.94325-12.06442-26.43072-11.00118-20.38401-23.73772-35.87695-32.64299-45.4702-5.40737-5.82512-14.77687-5.27699-19.44796,1.15361l-1.71905,2.36658-37.65997,51.84003c-1.96002,2.69-5.01001,4.12-8.09998,4.12-2.04004,0-4.10004-.62-5.87006-1.91003-4.46997-3.25-5.45996-9.5-2.20996-13.96997l38.64996-53.19.02078-.02863c5.81883-8.01477,3.77072-19.29356-4.52855-24.69887-8.08653-5.26674-16.54422-10.01222-25.32219-14.19249-20.63149-9.8252-40.02254-14.80097-52.78785-17.27965-7.77265-1.50924-14.98234,4.46003-14.98232,12.37785l.00015,65.75177c0,2.76001-1.12,5.26001-2.92999,7.07001-1.96564,1.96561-4.74505,3.11753-7.78752,2.90484-5.28793-.36967-9.2825-4.98515-9.28249-10.28599l.00004-69.81754c0-6.5849-5.44889-11.87442-12.02997-11.65004-9.2289.31465-22.4096,1.20116-34.97007,3.56872-22.01474,4.14961-40.10703,11.24646-51.70488,16.61249-7.20537,3.33374-9.56457,12.41525-4.90078,18.84022l1.72566,2.37731,36.56,50.31c1.28998,1.77002,1.91003,3.82001,1.91003,5.85999,0,3.09003-1.43005,6.15002-4.13,8.10004-4.47003,3.25-10.72003,2.26001-13.97003-2.21002l-37.52997-51.64996-.00452-.00623c-5.82296-8.02625-17.19979-9.56253-24.90706-3.32349-7.52318,6.09002-14.63637,12.66872-21.28844,19.6897-10.89719,11.50149-24.59462,29.04713-33.21827,44.4947-3.86613,6.92542-.41866,15.65653,7.12445,18.10804l3.28382,1.06724,59.89996,19.46002c4.23004,1.38,6.91003,5.28998,6.91003,9.5,0,1.02997-.16003,2.07001-.48999,3.09998-1.70001,5.26001-7.34003,8.13-12.60004,6.41998l-61.46997-19.96997-5.77057-1.11125c-6.34959-1.22275-12.83366,2.22009-14.97986,8.31978-.09339.26542-.17801.53021-.25344.79337-3.01143,10.50544-5.25839,21.33748-6.67612,32.42809-1.17004,9.16998-1.77002,18.51001-1.77002,28,0,9.11203.762,18.29058,1.61087,25.66706.91065,7.91338,8.83639,13.00521,16.4128,10.54576l2.59632-.84282,58.78998-19.09998c1.03003-.33002,2.07001-.48999,3.10004-.48999,4.20996,0,8.12,2.67999,9.5,6.90997,1.70996,5.25-1.16998,10.89001-6.41998,12.59998l-60.49005,19.65002-.09465.03076c-9.40302,3.05602-14.37034,13.35523-10.86877,22.60159,3.45206,9.11561,7.4964,17.93981,12.08342,26.42765,12.55574,23.23321,21.38193,33.55872,31.04278,43.58663,5.44712,5.65408,14.67333,5.03345,19.28904-1.31754l1.59823-2.19909,36.29999-49.97003c1.95001-2.69,5-4.12,8.08997-4.12,2.04004,0,4.10004.62,5.88,1.91003,4.46002,3.23999,5.46002,9.5,2.21002,13.95996l-37.44,51.53003-.14685.20212c-5.77924,7.95425-3.80337,19.12899,4.36868,24.59593,8.06204,5.39335,16.39014,10.50064,25.27817,14.56194,20.82112,9.51399,39.25641,14.72204,51.52256,17.47933,7.8823,1.77185,15.36757-4.21859,15.36756-12.29758l-.0001-64.54173c0-2.76001,1.12-5.26001,2.92999-7.07001,1.78212-1.79204,4.25045-2.9077,6.98767-2.92964,5.54683-.04445,10.08236,4.79885,10.08236,10.34586l-.00003,67.24253c0,7.69167,6.38187,13.84849,14.06812,13.56002,10.40404-.39047,24.1202-1.2188,32.93188-2.74875,15.40147-2.67412,37.71158-9.29917,53.19005-15.98999,7.39643-3.19723,9.89384-12.44597,5.15652-18.9642l-1.88661-2.59586-36.35999-50.03998c-1.28998-1.78003-1.90997-3.83002-1.90997-5.87,0-3.09003,1.42999-6.14001,4.12-8.10004,4.46997-3.25,10.71997-2.25,13.96997,2.21002l37.44,51.53998.0993.13669c5.79446,7.97584,17.08041,9.53822,24.79646,3.40206,7.60789-6.05015,14.80499-12.59624,21.54424-19.58873,16.14177-16.74843,27.0627-33.6561,33.51091-45.10904,3.91089-6.9463.50334-15.72765-7.07835-18.19018l-2.74256-.89078v-.01001l-60.62-19.68994c-4.22998-1.37006-6.90997-5.29004-6.90997-9.5,0-1.03003.15997-2.07001.48999-3.10004,1.70001-5.25,7.33997-8.13,12.59998-6.41998l62.27002,20.22998.06952.02258c9.40912,3.05652,19.49801-2.35774,22.08384-11.90694,2.50914-9.26601,4.42331-18.7765,5.69662-28.48563,1.25-9.44,1.89001-19.08002,1.89001-28.87,0-6.55474-.90528-16.76699-1.83936-25.3578ZM419.90955,234.08624c-.30978,4.1249-4.36628,6.89117-8.3005,5.61338l-48.65904-15.80401c-3.90002-1.26996-7.85999-1.87-11.75-1.87-16.01001,0-30.91003,10.20001-36.13,26.26001-6.47998,19.96002,4.44,41.40002,24.39996,47.89001l51.40014,16.69599c2.81426.91414,4.08006,4.19524,2.5967,6.75558-6.32966,10.92526-13.65574,21.19864-21.85222,30.70198-2.68363,3.11151-7.5582,2.93331-9.97331-.39095l-29.25127-40.2626c-7.42999-10.23999-19.02002-15.67004-30.77002-15.67004-7.75,0-15.56,2.36005-22.29999,7.26001-16.97998,12.34003-20.75,36.10004-8.41003,53.08002l30.61641,42.1347c1.74404,2.40017.83105,5.80949-1.88718,6.99848-11.25012,4.92095-23.03733,8.83799-35.2446,11.64956-3.99384.91986-7.81459-2.08537-7.81459-6.18377v-50.20896c0-10.48999-4.25-19.98999-11.13001-26.87-6.8231-6.8231-16.22304-11.05952-26.60992-11.12913-21.04369-.14103-38.26007,17.62666-38.26007,38.67082v51.47226c0,2.97381-2.7564,5.19615-5.65879,4.54835-11.92288-2.66112-23.45085-6.37805-34.47735-11.05182-3.77166-1.59869-5.08945-6.2809-2.68161-9.59504l29.37775-40.43544c4.89996-6.75,7.26001-14.56,7.26001-22.29999,0-11.75-5.43005-23.34003-15.66003-30.78003-16.97998-12.33997-40.75-8.57001-53.08002,8.41003l-30.52554,42.0188c-1.74628,2.40377-5.27919,2.58617-7.24544.35873-7.64023-8.65511-14.54364-17.96595-20.61873-27.84471-2.1578-3.50882-.47587-8.11388,3.44177-9.38668l46.95795-15.25613c16.06-5.21002,26.27002-20.11005,26.27002-36.13,0-3.89001-.59998-7.85004-1.87-11.75-6.48999-19.96002-27.92999-30.88-47.89001-24.40002l-49.54247,16.09339c-2.81729.91517-5.77129-.99875-6.07188-3.94567-.69234-6.78754-1.04562-13.67803-1.04562-20.64772,0-4.83981.17032-9.63908.5058-14.39264.29168-4.13288,4.36316-6.90858,8.30365-5.62864l47.63054,15.47129c3.89996,1.26996,7.84998,1.87,11.73999,1.87,16.01996,0,30.91998-10.21002,36.14001-26.27002,6.47998-19.95996-4.44-41.39996-24.40002-47.88l-50.74647-16.4935c-2.80475-.91159-4.07379-4.17628-2.60717-6.73492,6.11276-10.66429,13.1714-20.71844,21.0682-30.04706,2.6685-3.15234,7.57969-2.98915,10.00726.35226l29.0482,39.98323c7.44,10.23004,19.01996,15.66003,30.76996,15.66003,7.75,0,15.56-2.35999,22.31-7.26001,16.98004-12.33002,20.74005-36.09998,8.41003-53.07001l-30.88948-42.5193c-1.73252-2.38481-.84401-5.7716,1.84523-6.97861,10.76036-4.82956,22.02465-8.73759,33.68761-11.6301,4.01554-.99589,7.90662,2.02562,7.90662,6.16282v49.83519c0,10.48999,4.25,19.98999,11.13001,26.87,7.08938,7.09971,16.97942,11.39876,27.87892,11.11695,20.69054-.53497,36.99107-17.90448,36.99107-38.60194V26.01629c0-2.9435,2.70331-5.15719,5.58647-4.56426,12.19144,2.50721,23.98012,6.117,35.2618,10.72521,3.82408,1.56201,5.187,6.28467,2.75921,9.62671l-30.17748,41.54166c-4.89996,6.73999-7.26001,14.54999-7.26001,22.29999,0,11.75,5.42999,23.34003,15.67004,30.77002,16.97998,12.33997,40.73999,8.58002,53.07996-8.40002l31.99675-44.04534c1.73417-2.38719,5.23275-2.58473,7.21295-.3973,8.35414,9.2284,15.8703,19.23507,22.41945,29.89883,2.15816,3.51406.48704,8.12134-3.43505,9.39549l-47.98408,15.58832c-16.04999,5.21002-26.26001,20.11005-26.26001,36.13,0,3.89001.59998,7.85004,1.87,11.75,6.47998,19.96002,27.91998,30.88,47.88,24.40002l50.50496-16.41049c2.819-.91597,5.77472,1.00074,6.0724,3.94983.68056,6.74241,1.03263,13.58403,1.03263,20.51064,0,5.14785-.19106,10.24898-.57043,15.30062Z"/>
    </g>
  </g>
</svg>