<?xml version="1.0" encoding="UTF-8" standalone="no"?>
<!-- Created with Inkscape (http://www.inkscape.org/) -->

<svg
   xmlns:dc="http://purl.org/dc/elements/1.1/"
   xmlns:cc="http://creativecommons.org/ns#"
   xmlns:rdf="http://www.w3.org/1999/02/22-rdf-syntax-ns#"
   xmlns:svg="http://www.w3.org/2000/svg"
   xmlns="http://www.w3.org/2000/svg"
   xmlns:sodipodi="http://sodipodi.sourceforge.net/DTD/sodipodi-0.dtd"
   xmlns:inkscape="http://www.inkscape.org/namespaces/inkscape"
   width="300.29999"
   height="93.5"
   viewBox="0 0 79.454375 24.738541"
   version="1.1"
   id="svg728"
   inkscape:version="0.92.0 r15299"
   sodipodi:docname="galapagos.svg">
  <defs
     id="defs722" />
  <sodipodi:namedview
     id="base"
     pagecolor="#ffffff"
     bordercolor="#666666"
     borderopacity="1.0"
     inkscape:pageopacity="0.0"
     inkscape:pageshadow="2"
     inkscape:zoom="2.6706628"
     inkscape:cx="150.14999"
     inkscape:cy="46.75"
     inkscape:document-units="mm"
     inkscape:current-layer="layer1"
     showgrid="false"
     fit-margin-top="0"
     fit-margin-left="0"
     fit-margin-right="0"
     fit-margin-bottom="0"
     units="px"
     inkscape:window-width="1280"
     inkscape:window-height="744"
     inkscape:window-x="-4"
     inkscape:window-y="-4"
     inkscape:window-maximized="1" />
  <metadata
     id="metadata725">
    <rdf:RDF>
      <cc:Work
         rdf:about="">
        <dc:format>image/svg+xml</dc:format>
        <dc:type
           rdf:resource="http://purl.org/dc/dcmitype/StillImage" />
        <dc:title></dc:title>
      </cc:Work>
    </rdf:RDF>
  </metadata>
  <g
     inkscape:label="Layer 1"
     inkscape:groupmode="layer"
     id="layer1"
     transform="translate(-42.936206,-155.09829)">
    <g
       id="g646"
       transform="matrix(0.26458333,0,0,0.26458333,42.883288,154.93954)">
      <g
         id="g598">
        <rect
           id="rect590"
           height="47"
           width="76.400002"
           y="2"
           x="221.89999"
           style="clip-rule:evenodd;fill:#f58800;fill-rule:evenodd" />
        <g
           id="g596">
          <g
             id="g594">
            <path
               id="path592"
               d="m 221,1.6 v 48.3 h 78.5 V 1.6 Z m 77.1,46.9 H 269 V 37.2 c -1.7,-0.1 -3.5,-0.3 -5.4,-0.6 -6.4,-1.3 -7.8,-1.6 -8.6,-1.9 -0.8,-0.3 -4.6,-1.8 -5.1,-2.1 -0.5,-0.3 -3.7,1.1 -6.2,1.8 -2.5,0.7 -4.3,1.1 -5.2,1.3 -0.9,0.1 -3.9,0.9 -5,0.7 -1.1,-0.2 -0.9,-1.1 -0.6,-1.4 0.4,-0.3 0.5,0 0.5,0.2 0,0.2 -0.2,0.4 0,0.5 0.2,0.1 1,0.1 1.3,0 0.3,-0.1 7.1,-0.9 13.4,-3.7 0,0 -4.9,-2.8 -7.3,-3.6 -2.4,-0.8 -2.2,-0.5 -2.4,-0.6 -0.2,-0.1 -4,-2.2 -4.7,-2.4 -0.6,-0.3 0,-1.1 0.9,-0.7 0.9,0.5 2.3,1.4 2.6,1.5 0.3,0.1 1.6,0.7 2.3,0.9 0.8,0.2 1.3,0.3 3.9,1.5 2.6,1.3 1.2,0.8 3.1,1.6 1.9,0.8 2.4,1.4 3,1.5 0,0 2.1,-1.1 3.5,-1.4 1.4,-0.3 2.3,-1 2.6,-1.1 0.3,-0.2 2.5,-1.2 4.5,-1.6 2,-0.4 0.9,-0.5 0.9,-0.5 0,0 -2.4,-0.3 -3.5,-1.1 -1.1,-0.8 -9.2,-9.6 -9.5,-9.9 -0.3,-0.3 -0.7,-1 -0.3,-1.3 0.4,-0.3 1.4,0.1 1.5,0.2 0.1,0.1 8.8,3.9 10.7,5 1.9,1 7.2,4.2 7.6,4.3 0.4,0.2 1.2,0.6 1.5,0.7 v -9.2 c -0.3,-0.7 -0.5,-1.4 -0.7,-2 -0.6,-2.1 -0.3,-2.6 -0.3,-3 0,-0.4 0.1,-1.2 0.8,-0.6 0,0 0.1,0.1 0.2,0.2 V 3 h 29.1 z M 267.8,26.8 c 0.4,0 0.8,0.1 1.2,0.1 v -0.7 c -0.1,0 -0.1,0 -0.1,0 -0.3,-0.1 -2.1,0.5 -1.1,0.6 z m -4.6,-0.6 c 2.8,0.1 3.8,-0.7 3.8,-0.7 0.4,-0.2 0.1,-0.6 -0.6,-0.9 -0.7,-0.3 -2.9,-1.7 -3.5,-2 -0.6,-0.3 -4.6,-2.6 -5.3,-3 -0.6,-0.4 -0.8,-0.2 -2.2,-0.9 -1.4,-0.8 -5.5,-2.4 -5.5,-2.4 -0.2,0.3 0.3,0.8 0.6,1.1 0.2,0.3 2.3,2.3 3.7,3.9 1.5,1.6 4.2,3.8 4.2,3.8 1.7,1.2 4.9,1.1 4.8,1.1 z m 2.1,1.5 c -1.2,-0.3 -2,-0.2 -2.4,-0.1 -0.4,0.1 -2.8,0.8 -3.7,1 -1,0.2 -3,1.2 -3.9,1.8 -0.9,0.6 -4.2,1.5 -4.2,1.5 1.8,1.1 6.6,2.4 7.7,2.7 1.1,0.3 2.6,0.6 4.8,0.9 1.3,0.2 3.1,0.5 5.5,0.6 v -8.4 c -1.6,0.2 -3.1,0.2 -3.8,0 z m 10.8,9.3 c 3.9,-0.2 6.7,-1.8 6.7,-1.8 1.2,-0.3 1.5,-0.7 1.7,-0.7 2.2,-1.1 5,-4.8 5.4,-5.4 0.2,-0.3 0.2,-1.3 0,-1.6 -0.2,-0.3 -0.8,-1.6 -1.3,-2.2 -0.5,-0.6 -1,-0.7 -1.4,-0.9 -0.4,-0.2 -1,-0.4 -1.7,-0.6 -0.6,-0.2 -0.6,-0.3 -3.4,-0.7 -2.9,-0.5 -7.2,0.8 -7.2,0.8 -0.6,0.1 -0.9,0 -0.9,0 -0.8,-0.8 -0.7,-3.9 -0.7,-3.9 -0.1,-2.5 -1.5,-5.5 -1.5,-5.5 -1,-2.8 -2.1,-3.9 -2.6,-4.3 v 5.4 c 0.7,1.8 1.7,3.7 1.7,3.7 1.2,2.3 1.7,5 1.7,5 -1,0.2 -3.1,0.6 -3.3,0.6 0,0 0,0 0,0 v 1.3 c 0.2,0.1 0.8,0.4 1,0.5 0.2,0.1 -0.4,0.2 -1,0.2 v 1 c 1.3,0 2.6,-0.1 3,-0.1 0.9,0.1 1.4,0.8 1.8,1 0.4,0.2 1.3,0.2 1,-0.3 -0.3,-0.5 -0.3,-0.7 -0.1,-0.8 0.3,-0.1 0.9,-0.9 0.2,-0.9 h -1.6 c 0,0 0,-1.1 0.1,-1.3 0,0 4.2,-1.1 6,-1.2 0,0 -0.1,1.1 0,1.3 0.1,0.2 3.3,7.7 3.2,8.3 -0.1,0.6 0.3,0.4 -0.4,0.7 -0.7,0.3 -2.5,1.2 -7.8,1.6 -2.1,0.2 -4,0.2 -5.5,0.1 v 1 c 3.8,0.1 6.9,-0.3 6.9,-0.3 z m -4.4,-17 c 0,0 -2.7,-5.6 -2.2,-7.6 0,0 2.6,4.2 2.7,7.4 0.1,0.1 -0.1,0.6 -0.5,0.2 z m 0.7,6.5 c -0.1,0.3 -0.5,0 -1.3,-0.7 0,0 0.8,-0.1 1.1,-0.1 0.3,-0.1 0.3,0.5 0.2,0.8 z m 8.1,-1.2 c 0,0 0,-0.7 0.1,-1.1 0,0 4.3,0 6.8,1.7 0,0 2.5,1.7 1.5,3.1 -1,1.4 -3.5,3.9 -4,4.2 -0.5,0.3 -0.6,0.1 -0.9,-0.2 -0.4,-0.3 -2.7,-4.7 -3.5,-7.7 z m 3.8,4.6 c 0.3,0.2 0.9,0.3 1.2,-0.1 0.3,-0.4 0.4,-1.4 0.2,-1.7 -0.2,-0.3 -0.7,-0.3 -0.9,-0.1 -0.3,0.3 0.2,0.8 -0.2,0.9 -0.3,0.1 -0.4,-0.3 -0.3,-0.7 0,0 -0.3,-0.8 -0.7,-0.3 -0.3,0.5 -0.2,1 0,1.3 0.2,0.3 0.4,0.5 0.7,0.7 z"
               inkscape:connector-curvature="0"
               style="clip-rule:evenodd;fill:#00463e;fill-rule:evenodd" />
          </g>
        </g>
      </g>
      <g
         id="g644">
        <g
           id="g608">
          <g
             id="g606">
            <g
               id="g604">
              <g
                 id="g602">
                <polygon
                   id="polygon600"
                   points="81.5,60 79.7,56.9 73.4,60.9 75,63.4 "
                   style="clip-rule:evenodd;fill:#f58800;fill-rule:evenodd" />
              </g>
            </g>
          </g>
        </g>
        <g
           id="g612">
          <path
             id="path610"
             d="m 12.9,70.6 h 11.3 v 4.5 l -1.5,0.2 v 7.4 C 19.2,83.9 17,84.3 14.1,84.3 5.5,84.3 1.2,79.8 1.2,71.8 1.2,65 6.2,59 14.5,59 c 4,0 6.3,0.4 8.2,1.1 v 7.6 H 17 l -0.3,-2.4 c 0,-0.1 -1,-0.2 -1.9,-0.2 -3.2,0 -6.2,2 -6.2,6.4 0,3.7 1.3,6.7 6.2,6.7 0.3,0 0.8,0 1.2,-0.1 V 75.4 L 12.9,75 Z"
             inkscape:connector-curvature="0"
             style="fill:#00463e" />
        </g>
        <g
           id="g616">
          <path
             id="path614"
             d="m 38.6,72.3 c 0,-2.2 -1.2,-2.9 -2.3,-2.9 -1.5,0 -1.9,0.2 -2.8,0.5 l -0.2,1.9 h -3.5 v -5.5 c 1.8,-0.8 3.7,-1.2 7,-1.2 4.9,0 7.6,1.7 7.6,7 0,3 -0.1,5 -0.2,7.6 l 3,0.3 v 3.8 l -3.4,0.3 h -4.5 v -1.3 c 0,-1.2 0,-0.8 0.1,-1.5 0,0 -1.7,3.1 -4.7,3.1 -4.1,0 -6.1,-2.5 -6.1,-5.3 0,-2.6 1.8,-4.3 3.7,-5 1.9,-0.7 2.9,-1.2 6.4,-1.2 v -0.6 z m -0.9,3.9 c -3.3,0 -4.3,0.7 -4.3,2 0,0.9 0.6,1.8 2.2,1.8 1.6,0 3.2,-1 3.2,-3.8 z"
             inkscape:connector-curvature="0"
             style="fill:#00463e" />
        </g>
        <g
           id="g620">
          <path
             id="path618"
             d="m 55.1,61.1 -3.2,-0.5 v -2.8 l 3.5,-0.4 h 4.4 v 23.2 l 3,0.4 v 3 H 51.9 v -3 l 3.2,-0.4 z"
             inkscape:connector-curvature="0"
             style="fill:#00463e" />
        </g>
        <g
           id="g624">
          <path
             id="path622"
             d="m 91.3,66.1 3.4,-0.4 h 3.5 c 0,1.3 -0.3,3.7 -0.3,3.7 0.9,-2.5 2.9,-4.1 6.1,-4.1 3.9,0 6.7,3.2 6.7,8.7 0,6 -3.3,10.4 -8.8,10.4 -1.3,0 -2.5,-0.2 -3.6,-0.6 l -0.1,9.1 h -3.8 l 0.1,-24 -3.2,-0.3 z m 7,14.4 c 0.7,0.5 1.8,0.8 3.2,0.8 3.3,0 5.1,-3.2 5.1,-6.7 0,-3.4 -1.2,-5.8 -3.8,-5.8 -2.7,0 -4.4,2.4 -4.4,6.7 v 5 z"
             inkscape:connector-curvature="0"
             style="fill:#00463e" />
        </g>
        <g
           id="g628">
          <path
             id="path626"
             d="m 118.7,69.5 -0.6,-2.7 c 2,-0.8 3.8,-1.3 6,-1.3 4.7,0 7.3,1.6 7.3,6.4 0,1.6 -0.1,6.2 -0.1,9.5 l 3.1,0.3 v 1.9 l -3.1,0.3 h -3 v -0.7 c 0,-1.1 0.1,-2.7 0.1,-2.7 -1.1,2.4 -3.2,3.8 -5.8,3.8 -2.1,0 -5.7,-0.8 -5.5,-5.2 0.2,-3.9 4.9,-5.8 10.9,-5.8 v -1.1 c 0,-3.4 -1.4,-4.3 -4.2,-4.3 -1,0 -2.8,0.3 -4,0.9 -0.8,0.5 -1.1,0.7 -1.1,0.7 z m 9.3,6.3 c -3.8,0 -7.7,0.7 -7.7,3.2 0,1.9 1.2,2.8 2.9,2.8 1.7,-0.1 4.8,-1 4.8,-6 z"
             inkscape:connector-curvature="0"
             style="fill:#00463e" />
        </g>
        <g
           id="g632">
          <path
             id="path630"
             d="m 158.2,68.1 h -1.6 c -0.5,0 -1.9,-0.1 -2.4,-0.2 1.4,1.4 1.7,2.9 1.7,4.3 0,4 -3.4,6.4 -7.6,6.4 -0.7,0 -3.3,0.4 -3.3,1.7 0,0.9 0.8,1.2 3.1,1.5 l 4.8,0.8 c 2.8,0.5 4.9,1.5 4.9,4.4 0,4.2 -4.3,6.1 -8.9,6.1 -4.3,0 -8.6,-1.4 -8.6,-4.9 0,-2.7 2.2,-3.9 4.6,-4.4 v -0.1 c -1.4,-0.3 -2.8,-1.1 -2.8,-2.8 0,-1.9 1.8,-2.3 3.3,-2.7 v -0.1 c -1.2,-0.3 -4.6,-1.5 -4.6,-6.1 0,-3.7 3.1,-6.5 7.5,-6.5 1,0 2.3,0.2 3.1,0.4 h 6.7 v 2.2 z M 147,84.3 c -0.4,0 -4,1 -4,3.4 0,2.8 4.2,3.2 6,3.2 2.2,0 5.9,-0.7 5.9,-3.6 0,-1.6 -1.5,-2.1 -3.1,-2.3 z M 143.6,72 c 0,2.5 2.1,4.4 4.7,4.4 3.1,0 5,-2 5,-4.6 0,-1.8 -1.3,-4.3 -4.8,-4.3 -2.8,0.1 -4.9,1.9 -4.9,4.5 z"
             inkscape:connector-curvature="0"
             style="fill:#00463e" />
        </g>
        <path
           id="path634"
           d="m 172.4,65.7 c 5.4,0 8.5,3.7 8.5,8.7 0,5.6 -3.2,9.7 -8.5,9.7 -5.4,0 -8.5,-3.7 -8.5,-8.7 -0.1,-5.6 3.1,-9.7 8.5,-9.7 z m 0,16.7 c 4,0 6,-3.3 6,-7.4 0,-4.1 -2,-7.4 -6,-7.4 -4,0 -6,3.3 -6,7.4 0,4.1 2,7.4 6,7.4 z"
           inkscape:connector-curvature="0"
           style="fill:#00463e" />
        <g
           id="g638">
          <path
             id="path636"
             d="m 187.9,81.4 c 1.1,0.7 2.8,1.3 4.7,1.3 3.3,0 4.8,-1.6 4.8,-3.5 0,-2.1 -1.5,-3.1 -4.4,-4 -3.4,-1 -5.1,-2.7 -5.1,-4.9 0,-2.5 2.1,-5 6.2,-5 1.5,0 2.7,0.4 3.8,0.8 0,0 0,1.9 0,1.9 -0.6,-0.4 -2,-1.2 -4.2,-1.2 -2.6,0 -4,1.5 -4,3.2 0,2 1.6,2.8 4.4,3.7 3.5,1.1 5.2,2.5 5.2,5.2 0,2.9 -2.5,5.2 -6.8,5.2 -1.7,0 -3.3,-0.4 -4.6,-1 0,0.2 0,-1.7 0,-1.7 z"
             inkscape:connector-curvature="0"
             style="fill:#00463e" />
        </g>
        <g
           id="g642">
          <path
             id="path640"
             d="m 78.8,72.3 c 0,-2.8 -1.2,-3.1 -3.5,-3.1 -0.7,0 -2.1,0.2 -3,0.5 -1,0.3 -2.3,0.7 -2.3,0.7 l -0.4,-3.7 c 0.4,-0.3 3.3,-1.3 6.5,-1.3 4.9,0 7.5,1.5 7.5,6.8 0,3 -0.1,5.5 -0.2,8.1 l 3.3,0.3 v 3 l -3.2,0.3 h -4.2 v -1.1 c 0,-1.2 0.2,-1.8 0.2,-1.8 -1,2.4 -3.7,3.4 -5.4,3.4 -4.1,0 -5.8,-2.5 -5.8,-5.3 0,-2.6 2.5,-4.5 4,-5 1.9,-0.6 2.9,-1.2 6.5,-1.2 z M 77.6,76 c -3.4,0 -4.8,1.3 -4.8,2.5 0,1.1 0.7,2.2 2.3,2.2 1.7,0 3.7,-1.4 3.7,-4.7 z"
             inkscape:connector-curvature="0"
             style="fill:#00463e" />
        </g>
      </g>
    </g>
  </g>
</svg>
