<?xml version="1.0" encoding="UTF-8" standalone="no"?>
<!-- Created with Inkscape (http://www.inkscape.org/) -->

<svg
   xmlns:dc="http://purl.org/dc/elements/1.1/"
   xmlns:cc="http://creativecommons.org/ns#"
   xmlns:rdf="http://www.w3.org/1999/02/22-rdf-syntax-ns#"
   xmlns:svg="http://www.w3.org/2000/svg"
   xmlns="http://www.w3.org/2000/svg"
   xmlns:sodipodi="http://sodipodi.sourceforge.net/DTD/sodipodi-0.dtd"
   xmlns:inkscape="http://www.inkscape.org/namespaces/inkscape"
   width="336.892"
   height="112.866"
   id="svg3479"
   version="1.1"
   inkscape:version="0.48.0 r9654"
   sodipodi:docname="New document 4">
  <defs
     id="defs3481">
    <clipPath
       clipPathUnits="userSpaceOnUse"
       id="clipPath3103">
      <path
         inkscape:connector-curvature="0"
         d="m 0,0 1225.125,0 0,783 L 0,783 0,0 z"
         id="path3105" />
    </clipPath>
    <clipPath
       clipPathUnits="userSpaceOnUse"
       id="clipPath3081">
      <path
         inkscape:connector-curvature="0"
         d="m 0,0 1225.125,0 0,783 L 0,783 0,0 z"
         id="path3083" />
    </clipPath>
  </defs>
  <sodipodi:namedview
     id="base"
     pagecolor="#ffffff"
     bordercolor="#666666"
     borderopacity="1.0"
     inkscape:pageopacity="0.0"
     inkscape:pageshadow="2"
     inkscape:zoom="1"
     inkscape:cx="248.04742"
     inkscape:cy="35.507699"
     inkscape:document-units="px"
     inkscape:current-layer="layer1"
     showgrid="false"
     showborder="false"
     inkscape:showpageshadow="false"
     fit-margin-top="0"
     fit-margin-left="0"
     fit-margin-right="0"
     fit-margin-bottom="0"
     inkscape:window-width="1300"
     inkscape:window-height="746"
     inkscape:window-x="-8"
     inkscape:window-y="-8"
     inkscape:window-maximized="1" />
  <metadata
     id="metadata3484">
    <rdf:RDF>
      <cc:Work
         rdf:about="">
        <dc:format>image/svg+xml</dc:format>
        <dc:type
           rdf:resource="http://purl.org/dc/dcmitype/StillImage" />
        <dc:title></dc:title>
      </cc:Work>
    </rdf:RDF>
  </metadata>
  <g
     inkscape:label="Layer 1"
     inkscape:groupmode="layer"
     id="layer1"
     transform="translate(-212.62844,-354.49618)">
    <path
       d="m 549.52044,467.36218 -336.892,0 0,-112.866 336.892,0 0,112.866 z"
       style="fill:#4d2587;fill-opacity:1;fill-rule:nonzero;stroke:none"
       id="path3299"
       inkscape:connector-curvature="0" />
    <path
       d="m 241.41999,419.59366 c -16.22708,0 -20.88757,-14.73228 -20.88757,-28.46355 0,-13.90028 4.66049,-28.7138 21.05969,-28.7138 7.81974,0 13.72823,3.57826 16.80922,10.82252 1.495,3.57506 1.911,6.82176 2.1645,10.64702 l -11.06948,0.83525 c -0.33149,-4.99204 -1.16999,-12.40205 -7.82598,-12.40205 -8.48586,0 -8.23886,13.98155 -8.23886,19.64306 0,5.82398 -0.1664,17.72553 8.23886,17.72553 5.82399,0 7.24073,-6.40901 7.82598,-11.06627 l 11.3196,0.66305 c -0.91962,11.31647 -7.3286,20.30924 -19.39596,20.30924"
       style="fill:#ffffff;fill-opacity:1;fill-rule:nonzero;stroke:none"
       id="path3311"
       inkscape:connector-curvature="0" />
    <path
       d="m 367.34082,453.98651 -4.77099,0 2.38238,-5.92803 2.38861,5.92803 z m -8.3296,4.42001 1.80362,0 1.21237,-3.01275 5.85649,0 1.222,3.01275 1.86549,0 -5.05049,-11.96654 -1.80387,0 -5.10561,11.96654 z"
       style="fill:#ffffff;fill-opacity:1;fill-rule:nonzero;stroke:none"
       id="path3377"
       inkscape:connector-curvature="0" />
    <path
       d="m 373.91569,378.72829 c 0,6.07427 -3.83162,6.90627 -8.9081,6.90627 l -3.90987,0 0,-13.3965 4.82636,0 c 4.66361,0 7.99161,1.32923 7.99161,6.49023 m 13.90346,24.71955 c 0,-3.83176 -1.17311,-7.32877 -3.74399,-10.15305 -1.83611,-1.91747 -3.16211,-2.58047 -5.66798,-3.41573 2.16137,-0.82877 3.83187,-1.66397 5.32686,-3.497 1.911,-2.41148 2.5805,-5.41126 2.5805,-8.48902 0,-4.32575 -1.50488,-9.65254 -5.32687,-12.23302 -3.83499,-2.5805 -8.3231,-2.4115 -12.73347,-2.4115 l -18.89208,0 0,55.51009 18.89208,0 c 4.66049,0 9.48998,0.25012 13.48097,-2.58053 4.08199,-2.82748 6.08398,-7.90399 6.08398,-12.73024 m -12.41159,-1.58601 c 0,5.58029 -3.15899,7.32549 -8.31686,7.32549 l -5.99298,0 0,-14.56322 5.99298,0 c 5.15787,0 8.31686,1.66725 8.31686,7.23773"
       style="fill:#ffffff;fill-opacity:1;fill-rule:nonzero;stroke:none"
       id="path3319"
       inkscape:connector-curvature="0" />
    <path
       d="m 467.46035,419.59366 c -10.49098,0 -16.47408,-5.24881 -19.22046,-15.23278 l 10.65348,-2.99648 c 1.2545,4.82626 3.49387,8.32324 8.90498,8.32324 3.66937,0 7.07536,-1.9955 7.07536,-5.98981 0,-4.32901 -4.25099,-5.74596 -7.65698,-6.99396 -4.24787,-1.58276 -8.07298,-2.66176 -11.57647,-5.66151 -3.5685,-3.07773 -5.14799,-6.98751 -5.14799,-11.64802 0,-10.48782 7.4911,-16.97803 17.72546,-16.97803 4.49149,0 8.8171,1.079 12.38897,3.90976 3.26299,2.58045 4.25099,5.161 5.50211,8.98946 l -10.15948,3.91306 c -1.31612,-3.91306 -3.32799,-6.90957 -7.81948,-6.90957 -3.07762,0 -5.83049,1.91431 -5.83049,5.16101 0,9.15527 24.88532,5.41131 24.88532,24.46935 0,11.48227 -8.90498,17.64428 -19.72433,17.64428"
       style="fill:#ffffff;fill-opacity:1;fill-rule:nonzero;stroke:none"
       id="path3333"
       inkscape:connector-curvature="0" />
    <path
       d="m 340.39214,446.43998 2.83062,0 3.74737,9.94501 3.69199,-9.94501 2.82099,0 0,11.96654 -1.70637,0 0,-10.34804 -0.039,0 -3.95849,10.34804 -1.68012,0 -3.95875,-10.34804 -0.0312,0 0,10.34804 -1.716,0 0,-11.96654 z"
       style="fill:#ffffff;fill-opacity:1;fill-rule:nonzero;stroke:none"
       id="path3373"
       inkscape:connector-curvature="0" />
    <path
       d="m 412.80198,363.24636 12.14847,0 0,55.51009 -12.14847,0 0,-55.51009 z"
       style="fill:#ffffff;fill-opacity:1;fill-rule:nonzero;stroke:none"
       id="path3321"
       inkscape:connector-curvature="0" />
    <path
       d="m 320.58045,410.10364 c -2.66187,6.99076 -9.98736,9.49002 -16.97796,9.49002 -3.82537,0 -8.40448,-0.66626 -11.73585,-2.58046 -7.49111,-4.329 -7.32211,-14.40077 -7.32211,-21.97328 l 0,-31.79164 12.14848,0 0,31.79164 c 0,6.08068 -0.58188,14.64769 7.90398,14.64769 8.48898,0 7.41336,-8.65474 7.41336,-14.64769 l 0,-31.79164 10.2341,0 0,31.21308 c 0,5.15449 0.2548,10.73152 -1.664,15.64228"
       style="fill:#ffffff;fill-opacity:1;fill-rule:nonzero;stroke:none"
       id="path3315"
       inkscape:connector-curvature="0" />
    <path
       d="m 530.21458,373.65158 0,45.11007 -12.15835,0 0,-45.11007 -11.05647,0 0,-10.40327 34.6158,0 0,10.40327 -11.40098,0 z"
       style="fill:#ffffff;fill-opacity:1;fill-rule:nonzero;stroke:none"
       id="path3337"
       inkscape:connector-curvature="0" />
    <path
       d="m 413.31885,453.45414 c 0,3.3605 -1.69337,5.15778 -4.64748,5.15778 -2.94138,0 -4.63137,-1.79728 -4.63137,-5.15778 l 0,-7.01351 1.70949,0 0,6.78926 c 0,2.29775 0.715,3.8772 2.92188,3.8772 2.21961,0 2.94449,-1.57945 2.94449,-3.8772 l 0,-6.78926 1.70299,0 0,7.01351 z"
       style="fill:#ffffff;fill-opacity:1;fill-rule:nonzero;stroke:none"
       id="path3405"
       inkscape:connector-curvature="0" />
    <path
       d="m 282.14578,447.95125 1.45912,0 c 1.05949,0 2.64211,0.54931 2.64211,2.05726 0,1.57625 -1.33562,2.10605 -2.40162,2.10605 l -1.69961,0 0,-4.16331 z m -1.7095,10.45527 1.7095,0 0,-4.77753 1.68349,0 c 2.158,0 4.23462,-0.94248 4.23462,-3.60423 0,-2.72351 -2.04412,-3.58476 -4.49149,-3.58476 l -3.13612,0 0,11.96652 z"
       style="fill:#ffffff;fill-opacity:1;fill-rule:nonzero;stroke:none"
       id="path3349"
       inkscape:connector-curvature="0" />
    <path
       d="m 293.93025,446.43998 1.71938,0 0,5.00825 5.7231,0 0,-5.00825 1.716,0 0,11.96654 -1.716,0 0,-5.45028 -5.7231,0 0,5.45028 -1.71938,0 0,-11.96654 z"
       style="fill:#ffffff;fill-opacity:1;fill-rule:nonzero;stroke:none"
       id="path3353"
       inkscape:connector-curvature="0" />
    <path
       d="m 317.00182,453.98651 -4.76761,0 2.38237,-5.92803 2.38524,5.92803 z m -8.3296,4.42001 1.79737,0 1.21524,-3.01275 5.86637,0 1.21549,3.01275 1.86862,0 -5.06011,-11.96654 -1.80387,0 -5.09911,11.96654 z"
       style="fill:#ffffff;fill-opacity:1;fill-rule:nonzero;stroke:none"
       id="path3357"
       inkscape:connector-curvature="0" />
    <path
       d="m 390.80603,446.43995 6.70148,0 0,1.51125 -4.98549,0 0,3.49701 4.53387,0 0,1.508 -4.53387,0 0,3.94226 4.98549,0 0,1.50805 -6.70148,0 0,-11.96657 z"
       style="fill:#ffffff;fill-opacity:1;fill-rule:nonzero;stroke:none"
       id="path3393"
       inkscape:connector-curvature="0" />
    <path
       d="m 433.47193,446.43995 1.69961,0 0,11.96657 -1.69961,0 0,-11.96657 z"
       style="fill:#ffffff;fill-opacity:1;fill-rule:nonzero;stroke:none"
       id="path3413"
       inkscape:connector-curvature="0" />
    <path
       d="m 422.55507,447.95125 -3.72111,0 0,-1.51125 9.15848,0 0,1.51125 -3.72137,0 0,10.45527 -1.716,0 0,-10.45527 z"
       style="fill:#ffffff;fill-opacity:1;fill-rule:nonzero;stroke:none"
       id="path3409"
       inkscape:connector-curvature="0" />
    <path
       d="m 450.24891,448.4199 c -0.7475,-0.45177 -1.5925,-0.66947 -2.4635,-0.66947 -2.75261,0 -4.5986,1.98573 -4.5986,4.67346 0,2.81128 2.02149,4.68328 4.51098,4.68328 0.86112,0 2.01162,-0.22412 2.6065,-0.585 l 0.1066,1.66725 c -0.91,0.37375 -2.03112,0.4225 -2.73312,0.4225 -3.77649,0 -6.30186,-2.43428 -6.30186,-6.23676 0,-3.68225 2.67799,-6.13926 6.32136,-6.13926 0.92612,0 1.83612,0.1365 2.69412,0.52003 l -0.143,1.66397 z"
       style="fill:#ffffff;fill-opacity:1;fill-rule:nonzero;stroke:none"
       id="path3425"
       inkscape:connector-curvature="0" />
    <path
       d="m 472.36784,446.43995 1.71261,0 0,10.45852 4.99537,0 0,1.50805 -6.70798,0 0,-11.96657 z"
       style="fill:#ffffff;fill-opacity:1;fill-rule:nonzero;stroke:none"
       id="path3433"
       inkscape:connector-curvature="0" />
    <path
       d="m 490.16532,448.24118 c -0.8775,-0.3445 -1.36188,-0.49075 -2.25212,-0.49075 -0.95238,0 -2.09637,0.34122 -2.09637,1.58925 0,2.30103 5.14798,1.77126 5.14798,5.71026 0,2.55451 -1.97261,3.56198 -4.36799,3.56198 -0.84499,0 -1.65749,-0.2405 -2.44711,-0.49725 l 0.1716,-1.59248 c 0.572,0.2405 1.60238,0.58501 2.47337,0.58501 0.988,0 2.34962,-0.55251 2.34962,-1.95976 0,-2.67475 -5.12849,-1.93375 -5.12849,-5.64526 0,-2.12875 1.66738,-3.26625 3.83187,-3.26625 0.78962,0 1.7225,0.1365 2.561,0.43227 l -0.2444,1.57298 z"
       style="fill:#ffffff;fill-opacity:1;fill-rule:nonzero;stroke:none"
       id="path3445"
       inkscape:connector-curvature="0" />
    <path
       d="m 327.75617,447.95125 1.64762,0 c 1.5795,0 2.40187,0.68576 2.40187,1.76476 0,1.1505 -0.96537,1.86875 -2.59037,1.86875 l -1.45912,0 0,-3.63351 z m -1.71599,10.45527 1.71599,0 0,-5.31376 1.03012,0 c 0.91,0 1.47238,0 2.00538,1.1635 l 1.83611,4.15026 1.95338,0 -2.2685,-4.76126 c -0.3705,-0.73777 -0.6305,-0.9945 -1.15699,-1.19925 l 0,-0.0359 c 1.38761,-0.2405 2.46349,-1.26422 2.46349,-2.72348 0,-2.86325 -2.2815,-3.24675 -4.64749,-3.24675 l -2.93149,0 0,11.96652 z"
       style="fill:#ffffff;fill-opacity:1;fill-rule:nonzero;stroke:none"
       id="path3369"
       inkscape:connector-curvature="0" />
    <path
       d="m 463.24836,453.98651 -4.76761,0 2.38549,-5.92803 2.38212,5.92803 z m -8.32648,4.42001 1.79399,0 1.2285,-3.01275 5.86637,0 1.20561,3.01275 1.86888,0 -5.05387,-11.96654 -1.80361,0 -5.10587,11.96654 z"
       style="fill:#ffffff;fill-opacity:1;fill-rule:nonzero;stroke:none"
       id="path3429"
       inkscape:connector-curvature="0" />
    <path
       d="m 384.73764,448.4199 c -0.75712,-0.4518 -1.60212,-0.66947 -2.47311,-0.66947 -2.76588,0 -4.59861,1.98573 -4.59861,4.67343 0,2.81131 2.02123,4.68331 4.51099,4.68331 0.86111,0 1.99861,-0.22438 2.60311,-0.585 l 0.1014,1.66725 c -0.90038,0.37375 -2.02175,0.4225 -2.72687,0.4225 -3.78637,0 -6.29849,-2.4343 -6.29849,-6.23676 0,-3.68225 2.665,-6.13926 6.32137,-6.13926 0.92611,0 1.83611,0.1365 2.69073,0.52003 l -0.13,1.66397 z"
       style="fill:#ffffff;fill-opacity:1;fill-rule:nonzero;stroke:none"
       id="path3389"
       inkscape:connector-curvature="0" />
  </g>
</svg>
