<svg enable-background="new -0.646 -0.502 124 19" height="123.784412" viewBox="-.646 -.502 124 19" width="807.856162" xmlns="http://www.w3.org/2000/svg"><g fill="#006cb7"><path d="m120.282 5.819c-1.153 0-2.08-.949-2.08-2.091s.927-2.093 2.08-2.093c1.15 0 2.082.94 2.082 2.093 0 1.152-.932 2.091-2.082 2.091m0-3.868c-.975 0-1.771.804-1.771 1.777s.796 1.778 1.771 1.778c.983 0 1.766-.805 1.766-1.778s-.783-1.777-1.766-1.777zm.468 2.806c-.159-.301.057-.951-.414-.951h-.502v.951h-.27v-2.125h.75c.357 0 .681.09.681.526 0 .269-.132.425-.39.503.547.123.201.795.447 1.096zm-.526-1.912h-.39v.75h.301c.279 0 .572-.045.572-.393.001-.302-.225-.357-.483-.357z"/><path d="m102.858 4.364h-6.493l-.877 3.047h6.194l-.775 2.67h-6.195l-.938 3.266h6.733l-.776 2.685h-10.991l4.141-14.396h10.755z"/><path d="m116.382 5.817h-4.204c.042-.238.061-.418.061-.578 0-.994-.794-1.492-1.893-1.492-1.154 0-2.21.658-2.21 1.713 0 2.686 7.03 1.414 7.03 5.775 0 2.926-2.609 5.095-7.391 5.095-1.592 0-2.965-.217-3.922-.595-1.892-.737-2.329-2.43-2.329-3.487 0-.236.02-.457.081-.695h4.34c-.06.299-.118.438-.118.695 0 1.099.796 1.674 2.089 1.674 1.234 0 2.47-.556 2.47-1.851 0-.756-.458-1.234-1.333-1.554-1.475-.538-2.767-.895-3.704-1.453-1.054-.638-1.733-1.575-1.733-2.948 0-1.494.858-2.748 2.292-3.604 1.295-.758 2.905-1.153 4.778-1.153 3.006 0 5.773.974 5.773 3.603 0 .033.02.437-.077.855"/><path d="m46.15 1.636s-3.863 5.429-4.08 5.734c-.218.305-.369.639-.369.639s.005-.298-.049-.639c-.056-.342-.938-5.734-.938-5.734h-4.5l2.368 8.962-1.592 5.435h4.541l1.434-5.058s6.158-7.56 6.394-7.849.474-.636.474-.636-.135.336-.221.636c-.088.301-3.714 12.906-3.714 12.906h3.763s2.749-9.895 2.856-10.273c.104-.379.139-.635.139-.635s.008.256.064.635 1.543 10.273 1.543 10.273h5.773l3.327-11.627h4.353l-3.347 11.627h4.401l3.345-11.627h4.337l-3.346 11.627h4.421l1.713-5.951h4.336l-1.713 5.951h4.422l4.14-14.396h-4.418l-1.662 5.775h-4.337l1.662-5.775h-21.275s-2.705 9.936-2.799 10.275c-.092.34-.139.636-.139.636s-.008-.279-.064-.636c-.057-.358-1.598-10.275-1.598-10.275h-9.645"/><path d="m36.045 5.817h-4.201c.039-.238.058-.418.058-.578 0-.994-.795-1.492-1.89-1.492-1.157 0-2.21.658-2.21 1.713 0 2.686 7.027 1.414 7.027 5.775 0 2.926-2.608 5.095-7.387 5.095-1.593 0-2.968-.217-3.923-.595-1.893-.737-2.331-2.43-2.331-3.487 0-.236.021-.457.081-.695h4.34c-.061.299-.118.438-.118.695 0 1.099.795 1.674 2.09 1.674 1.234 0 2.47-.556 2.47-1.851 0-.756-.457-1.234-1.334-1.554-1.474-.538-2.769-.895-3.703-1.453-1.058-.638-1.733-1.575-1.733-2.948 0-1.494.856-2.748 2.291-3.604 1.293-.758 2.905-1.153 4.778-1.153 3.007 0 5.775.974 5.775 3.603 0 .033.02.437-.08.855"/><path d="m17.642 8.822c0 4.86-3.959 8.817-8.823 8.817s-8.819-3.956-8.819-8.817c0-4.863 3.955-8.822 8.819-8.822s8.823 3.959 8.823 8.822m-7.928-2.889v2.002h-1.79s0-1.862 0-2.002c-.121 0-.671 0-.671 0-1.125 0-1.585.388-1.585 1.334 0 1.265 1.294 2.673 3.15 2.673 1.859 0 3.154-1.408 3.154-2.673 0-.946-.459-1.334-1.585-1.334h-.668s-.004 0-.005 0zm-4.549 9.047c-.043-.111-.087-.226-.088-.228l-1.499-4.91-.021-.071s.987-.3 1.147-.348c0-.001-.003-.005-.003-.005-.477-.7-.729-1.514-.729-2.352 0-1.285 1.24-2.718 3.02-2.718h.933c0-.136 0-2.441 0-2.604-.001 0-.003.002-.003.002-3.563.444-6.249 3.491-6.249 7.084 0 2.492 1.334 4.845 3.482 6.144 0 0 .009.005.01.006zm1.97.725c.013.017.026.037.048.068.018.008.026.01.035.014.511.119 1.049.179 1.601.179.555 0 1.095-.06 1.592-.176 0 0 .035-.017.057-.029.01-.015.022-.035.044-.065.043-.147.28-.929 1.599-5.266 0 0 .041-.101.076-.186-.01.01-.017.018-.017.018s-.168.164-.174.168c-.891.711-2.019 1.104-3.177 1.104-1.155 0-2.283-.393-3.18-1.107 0 0-.185-.182-.188-.184.006.014.01.022.01.022s.068.164.071.17c.001 0 1.599 5.258 1.603 5.27zm2.579-11.356h.936c1.779 0 3.02 1.433 3.02 2.718 0 .842-.25 1.654-.722 2.354 0 0-.004.006-.005.008.162.048 1.071.322 1.071.322l.071.021-.022.071s-1.499 4.913-1.501 4.919c0 0-.044.109-.087.218.001 0 .009-.005.009-.005 2.149-1.299 3.483-3.651 3.483-6.144 0 0 0 0 0-.002 0-3.592-2.686-6.638-6.25-7.083h-.003v.004c0-.001 0 2.459 0 2.599z"/></g></svg>