<svg height="206.805251" viewBox="0 0 1126.6667 481.772" width="483.546717" xmlns="http://www.w3.org/2000/svg" xmlns:xlink="http://www.w3.org/1999/xlink"><clipPath id="a"><path d="m592.253 419.936c4.584-30.575 51.474-63.715 101.718-71.361 56.241-8.521 91.167-1.835 91.167-1.835s-8.019 29.58-31.273 29.694c-36.807.148-62.75 3.877-62.75 3.877-78.514 11.879-98.862 39.625-98.862 39.625zm129.281-175.11c0-83.388-36.35-144.853-83.33-186.219 79.339 16.664 140.065 104.404 140.065 198.83.077 7.686-.049 15.446-.375 22.294l61.326 20.954c7.758 2.71 12.716 6.933 12.737 14.353.027 5.006.043 7.596.043 7.596-33.149.606-153.344 4.583-153.344 4.583 11.255-17.716 22.878-48.123 22.878-82.391"/></clipPath><linearGradient id="b" gradientUnits="userSpaceOnUse" spreadMethod="pad" x1="592.2813" x2="852.0251" y1="239.25" y2="239.25"><stop offset="0" stop-color="#00b2ee"/><stop offset=".2" stop-color="#00b2ee"/><stop offset=".8604" stop-color="#0058a9"/><stop offset=".9" stop-color="#0058a9"/><stop offset="1" stop-color="#0058a9"/></linearGradient><clipPath id="c"><path d="m0 427h856v-427h-856z"/></clipPath><g transform="matrix(1.33333 0 0 -1.33333 -9.3333 559.9147)"><g clip-path="url(#a)"><path d="m592.253 419.936c4.584-30.575 51.474-63.715 101.718-71.361 56.241-8.521 91.167-1.835 91.167-1.835s-8.019 29.58-31.273 29.694c-36.807.148-62.75 3.877-62.75 3.877-78.514 11.879-98.862 39.625-98.862 39.625zm129.281-175.11c0-83.388-36.35-144.853-83.33-186.219 79.339 16.664 140.065 104.404 140.065 198.83.077 7.686-.049 15.446-.375 22.294l61.326 20.954c7.758 2.71 12.716 6.933 12.737 14.353.027 5.006.043 7.596.043 7.596-33.149.606-153.344 4.583-153.344 4.583 11.255-17.716 22.878-48.123 22.878-82.391" fill="url(#b)"/></g><g clip-path="url(#c)" fill="#0058a9"><path d="m0 0v10.976c10.777 3.985 18.719 13.617 18.719 35.751v97.215h16.64v-96.094c0-29.313-17.215-45.768-35.359-47.848" transform="translate(7 121.124)"/><path d="m0 0c-25.706-3.207-41.038-8.696-41.038-29.311 0-14.763 9.08-20.8 24.224-20.8 6.429 0 12.673 1.135 16.814 3.408zm-18.144-59.767c-26.477 0-38.773 11.539-38.773 30.074 0 27.063 25.348 34.989 56.917 38.208v6.232c0 15.706-9.454 20.249-22.492 20.249-9.85 0-18.912-3.596-24.598-6.424l-3.956 9.824c5.85 3.231 17.202 7.562 31.198 7.562 18.917 0 35.562-8.133 35.562-33.078v-65.458c-7.756-4.354-19.678-7.189-33.858-7.189" transform="translate(122.1611 220.9863)"/><path d="m0 0v73.201c0 9.444-3.98 19.868-21.378 19.868-9.468 0-13.997-1.333-19.296-3.602v-89.467h-16.642v96.646c9.055 4.358 20.995 7.192 37.26 7.192 28.359 0 36.704-15.691 36.704-30.262v-73.576z" transform="translate(222.0454 163.1113)"/><path d="m0 0c-10.979 0-20.611 2.841-26.1 6.982l4.535 10.989c3.598-3.034 10.773-6.065 19.863-6.065 11.337 0 18.912 7.765 18.912 17.59 0 10.586-5.682 15.312-16.837 19.458-19.85 7.4-23.846 17.985-23.846 28.578 0 15.137 11.93 27.993 30.474 27.993 10.392 0 18.531-3.412 23.823-6.989l-4.347-10.015c-3.035 2.243-9.084 5.65-17.023 5.65-11.156 0-17.027-7.372-17.027-16.08 0-9.825 7.181-14.566 17.027-18.346 19.861-7.56 24.781-18.154 24.781-29.89 0-15.496-13.43-29.855-34.235-29.855" transform="translate(285.3945 161.6152)"/><path d="m0 0c-10.964 0-20.618 2.841-26.093 6.982l4.53 10.989c3.61-3.034 10.787-6.065 19.868-6.065 11.33 0 18.919 7.765 18.919 17.59 0 10.586-5.689 15.312-16.84 19.458-19.855 7.4-23.836 17.985-23.836 28.578 0 15.137 11.909 27.993 30.458 27.993 10.393 0 18.539-3.412 23.833-6.989l-4.362-10.015c-3.019 2.243-9.078 5.65-17.023 5.65-11.149 0-17.016-7.372-17.016-16.08 0-9.825 7.181-14.566 17.016-18.346 19.875-7.56 24.775-18.154 24.775-29.89 0-15.496-13.422-29.855-34.229-29.855" transform="translate(359.9014 161.6152)"/><path d="m0 0c-14.749 0-25.733-11.934-25.339-39.56l48.797 7.407c0 23.069-8.888 32.153-23.458 32.153m-24.782-48.434c1.888-23.069 12.679-34.424 31.023-34.424 11.544 0 19.855 2.835 25.159 5.869l4.35-10.975c-6.24-3.761-17.033-6.997-30.842-6.997-26.662 0-45.389 16.836-45.389 53.157 0 34.596 17.038 52.573 41.044 52.573 24.405 0 39.158-15.889 38.779-49.92z" transform="translate(452.959 256.1807)"/><path d="m0 0v73.201c0 9.444-3.978 19.868-21.369 19.868-9.466 0-13.993-1.333-19.298-3.602v-89.467h-16.646v96.646c9.084 4.358 20.991 7.192 37.26 7.192 28.362 0 36.692-15.691 36.692-30.262v-73.576z" transform="translate(572.4912 163.1113)"/></g></g></svg>