<svg width="600" height="62" viewBox="0 0 600 62" fill="none" xmlns="http://www.w3.org/2000/svg">
<path d="M6.69026 1.01562H0V60.3107H6.69026V1.01562Z" fill="#003B7F"/>
<path d="M22.7031 1.01562H29.4831L51.0794 33.3801L72.6857 1.01562H79.4557V60.3107H72.7654V12.2824L51.1691 44.0487H50.8301L29.2239 12.3622V60.3107H22.7031V1.01562Z" fill="#003B7F"/>
<path d="M96.0264 1.01562H102.806L124.403 33.3801L146.009 1.01562H152.789V60.3107H146.099V12.2824L124.492 44.0487H124.153L102.547 12.3622V60.3107H96.0264V1.01562Z" fill="#003B7F"/>
<path d="M192.611 61.2479C188.942 61.2479 185.592 60.6995 182.571 59.6028C179.55 58.506 176.948 56.8609 174.774 54.6873C172.6 52.5137 170.925 49.8117 169.739 46.6011C168.552 43.3806 167.954 39.6816 167.954 35.5039V1.01562H174.644V35.0652C174.644 41.5062 176.24 46.4516 179.43 49.8914C182.621 53.3413 187.068 55.0562 192.771 55.0562C198.474 55.0562 202.592 53.421 205.812 50.1407C209.033 46.8703 210.638 41.9848 210.638 35.4839V1.01562H217.328V34.9854C217.328 39.2728 216.73 43.0616 215.544 46.3319C214.357 49.6023 212.682 52.3442 210.509 54.5477C208.335 56.7512 205.733 58.4163 202.712 59.543C199.69 60.6696 196.32 61.238 192.591 61.238" fill="#003B7F"/>
<path d="M232.475 1.01562H238.746L276.096 48.5354V1.01562H282.627V60.3107H277.282L238.995 11.6842V60.3107H232.475V1.01562Z" fill="#003B7F"/>
<path d="M324.064 61.3291C319.548 61.3291 315.44 60.5115 311.741 58.8763C308.042 57.2411 304.861 55.0277 302.209 52.2259C299.557 49.4342 297.513 46.1838 296.067 42.4847C294.631 38.7856 293.903 34.907 293.903 30.839V30.6695C293.903 26.6015 294.641 22.703 296.107 18.974C297.573 15.245 299.636 11.9846 302.289 9.19288C304.941 6.40112 308.131 4.1677 311.86 2.50262C315.589 0.837529 319.707 0 324.234 0C328.761 0 332.858 0.817588 336.557 2.45276C340.257 4.08794 343.437 6.30141 346.089 9.10314C348.742 11.8949 350.786 15.1453 352.231 18.8444C353.677 22.5435 354.395 26.432 354.395 30.4901C354.445 30.5499 354.445 30.6097 354.395 30.6596C354.395 34.7275 353.657 38.6161 352.191 42.3451C350.726 46.0741 348.662 49.3345 346.01 52.1262C343.357 54.918 340.167 57.1514 336.438 58.8165C332.709 60.4816 328.591 61.3191 324.064 61.3191M324.234 55.1373C327.624 55.1373 330.745 54.4992 333.596 53.233C336.448 51.9667 338.891 50.2218 340.925 48.0183C342.959 45.8148 344.554 43.2524 345.711 40.3111C346.867 37.3698 347.445 34.2091 347.445 30.8191V30.6496C347.445 27.2596 346.867 24.0889 345.711 21.1177C344.554 18.1564 342.929 15.5741 340.845 13.3706C338.761 11.1671 336.278 9.4222 333.437 8.11606C330.585 6.81988 327.464 6.16182 324.074 6.16182C320.684 6.16182 317.564 6.79994 314.712 8.0662C311.86 9.33247 309.418 11.0773 307.384 13.2708C305.35 15.4743 303.754 18.0468 302.598 20.9781C301.441 23.9194 300.863 27.0801 300.863 30.4701V30.6396C300.863 34.0296 301.441 37.2003 302.598 40.1715C303.754 43.1328 305.379 45.7151 307.473 47.9186C309.557 50.1221 312.03 51.877 314.881 53.1731C317.733 54.4693 320.854 55.1174 324.244 55.1174" fill="#003B7F"/>
<path d="M392.921 61.3291C388.624 61.3291 384.676 60.5414 381.056 58.9561C377.447 57.3807 374.306 55.2171 371.654 52.4752C369.002 49.7333 366.928 46.5028 365.433 42.7738C363.937 39.0448 363.189 35.0665 363.189 30.8291V30.6596C363.189 26.4819 363.937 22.5236 365.433 18.7946C366.928 15.0656 369.002 11.8052 371.654 9.01341C374.306 6.22165 377.467 4.01815 381.136 2.40291C384.815 0.807618 388.834 0 393.181 0C395.893 0 398.336 0.229323 400.509 0.678C402.683 1.12668 404.707 1.76479 406.571 2.58238C408.436 3.39997 410.161 4.38706 411.736 5.54365C413.311 6.70023 414.837 7.98644 416.312 9.39229L411.736 14.3078C409.193 11.9348 406.472 9.99053 403.56 8.46503C400.649 6.93953 397.159 6.18176 393.101 6.18176C389.821 6.18176 386.79 6.79994 383.998 8.04626C381.206 9.28261 378.773 11.0075 376.709 13.211C374.645 15.4145 373.04 17.9969 371.884 20.9582C370.727 23.9194 370.149 27.1001 370.149 30.4901V30.6596C370.149 34.1094 370.727 37.3099 371.884 40.2712C373.04 43.2325 374.645 45.8248 376.709 48.0183C378.773 50.2218 381.196 51.9567 383.998 53.233C386.79 54.4992 389.831 55.1373 393.101 55.1373C397.169 55.1373 400.669 54.3895 403.61 52.894C406.541 51.3984 409.423 49.2946 412.254 46.5826L416.661 50.8998C415.136 52.4852 413.541 53.911 411.876 55.1772C410.21 56.4535 408.426 57.5403 406.541 58.4376C404.647 59.3449 402.593 60.0429 400.36 60.5514C398.126 61.0599 395.663 61.3091 392.951 61.3091" fill="#003B7F"/>
<path d="M454.649 61.3291C450.133 61.3291 446.025 60.5115 442.326 58.8763C438.627 57.2411 435.456 55.0277 432.794 52.2259C430.142 49.4342 428.098 46.1838 426.652 42.4847C425.216 38.7856 424.488 34.907 424.488 30.839V30.6695C424.488 26.6015 425.226 22.703 426.692 18.974C428.157 15.245 430.221 11.9846 432.874 9.19288C435.526 6.40112 438.716 4.1677 442.445 2.50262C446.164 0.837529 450.292 0 454.809 0C459.326 0 463.433 0.817588 467.132 2.45276C470.832 4.08794 474.002 6.30141 476.664 9.10314C479.317 11.8949 481.37 15.1453 482.806 18.8444C484.252 22.5435 484.97 26.432 484.97 30.4901C485.02 30.5499 485.02 30.6097 484.97 30.6596C484.97 34.7275 484.232 38.6161 482.766 42.3451C481.301 46.0741 479.237 49.3345 476.585 52.1262C473.932 54.918 470.742 57.1514 467.013 58.8165C463.284 60.4816 459.166 61.3191 454.649 61.3191M454.819 55.1373C458.209 55.1373 461.33 54.4992 464.181 53.233C467.033 51.9667 469.476 50.2218 471.51 48.0183C473.544 45.8148 475.139 43.2524 476.295 40.3111C477.452 37.3698 478.03 34.2091 478.03 30.8191V30.6496C478.03 27.2596 477.452 24.0889 476.295 21.1177C475.139 18.1564 473.514 15.5741 471.42 13.3706C469.336 11.1671 466.853 9.4222 464.012 8.11606C461.16 6.81988 458.039 6.16182 454.649 6.16182C451.259 6.16182 448.139 6.79994 445.287 8.0662C442.435 9.33247 439.993 11.0773 437.959 13.2708C435.925 15.4743 434.329 18.0468 433.173 20.9781C432.016 23.9194 431.438 27.0801 431.438 30.4701V30.6396C431.438 34.0296 432.016 37.2003 433.173 40.1715C434.329 43.1328 435.954 45.7151 438.048 47.9186C440.132 50.1221 442.605 51.877 445.456 53.1731C448.308 54.4693 451.429 55.1174 454.819 55.1174" fill="#003B7F"/>
<path d="M496.067 1.01562H521.562C525.231 1.01562 528.491 1.5341 531.343 2.58101C534.194 3.62792 536.547 5.08362 538.412 6.94812C539.888 8.4138 541.014 10.1387 541.802 12.1129C542.59 14.097 542.988 16.2607 542.988 18.6337V18.8032C542.988 21.236 542.59 23.4195 541.802 25.3738C541.014 27.318 539.898 29.013 538.452 30.4588C537.006 31.8945 535.301 33.081 533.327 34.0183C531.353 34.9455 529.209 35.6435 526.886 36.0921L545.102 60.3207H536.886L519.687 37.2786H502.747V60.3207H496.057V1.01562H496.067ZM521.013 31.2564C523.217 31.2564 525.261 30.9772 527.125 30.4089C528.99 29.8406 530.605 29.0429 531.971 27.996C533.327 26.9491 534.384 25.6829 535.162 24.1873C535.919 22.6917 536.308 20.9867 536.308 19.0624V18.8929C536.308 15.2237 534.982 12.3522 532.32 10.2982C529.658 8.23433 525.919 7.20736 521.113 7.20736H502.767V31.2664H521.023L521.013 31.2564Z" fill="#003B7F"/>
<path d="M556.708 1.01562H599.572V7.19739H563.398V27.2781H595.763V33.4599H563.398V54.1289H600V60.3107H556.708V1.01562Z" fill="#003B7F"/>
</svg>
