<?xml version="1.0" encoding="UTF-8" standalone="no"?>
<!DOCTYPE svg PUBLIC "-//W3C//DTD SVG 1.1//EN" "http://www.w3.org/Graphics/SVG/1.1/DTD/svg11.dtd">
<svg width="100%" height="100%" viewBox="0 0 128 34" version="1.1" xmlns="http://www.w3.org/2000/svg" xmlns:xlink="http://www.w3.org/1999/xlink" xml:space="preserve" xmlns:serif="http://www.serif.com/" style="fill-rule:evenodd;clip-rule:evenodd;stroke-linejoin:round;stroke-miterlimit:1.41421;">
    <g transform="matrix(1,0,0,1,-465,-49)">
        <path d="M498.354,72.482C496.849,72.482 495.872,72.089 495.86,70.834C495.872,70.106 495.86,61.308 495.86,61.308L502.143,61.308L502.143,56.71L495.86,56.71L495.86,50.381L491.274,50.381L491.274,56.71L475.383,56.71C475.383,56.71 468.903,56.434 468.903,62.964C468.903,69.473 475.383,69.197 475.383,69.197L483.082,69.197C484.429,69.197 484.71,70.308 484.71,70.838C484.71,71.35 484.424,72.487 483.082,72.487L466.002,72.487L466.002,77.083L483.013,77.083C483.013,77.083 489.596,77.371 489.596,70.824C489.596,64.464 483.013,64.598 483.013,64.598L475.35,64.598C474.01,64.603 473.72,63.468 473.722,62.954C473.727,62.436 474.001,61.313 475.35,61.308C476.718,61.313 491.281,61.308 491.281,61.308L491.278,70.834C491.278,70.834 490.726,77.083 497.278,77.083L502.143,77.083L502.143,72.482" style="fill-rule:nonzero;"/>
        <path d="M514.198,65.89L518.799,65.89L518.799,62.878C518.799,56.438 512.437,56.71 512.437,56.71L503.881,56.71L503.881,77.081L508.537,77.081L508.532,61.471L512.415,61.466C513.594,61.471 514.198,62.141 514.198,63.466" style="fill-rule:nonzero;"/>
        <path d="M587.401,65.89L591.999,65.89L591.999,62.878C591.999,56.438 585.639,56.71 585.639,56.71L577.083,56.71L577.083,77.081L581.737,77.081L581.732,61.471L585.618,61.466C586.796,61.471 587.401,62.141 587.401,63.466" style="fill-rule:nonzero;"/>
        <path d="M518.468,77.4L518.468,81.991L524.25,81.991C524.564,82.015 526.436,82.044 527.989,81.012C530.197,79.694 531.277,76.33 531.526,75.48C531.819,74.46 537.147,56.71 537.147,56.71L532.066,56.71L528.068,71.15L524.062,56.71L518.984,56.71L524.636,75.475L524.782,75.948C524.996,76.63 524.694,77.393 523.986,77.4" style="fill-rule:nonzero;"/>
        <path d="M543.162,64.43L543.162,50.381L538.568,50.381L538.568,77.081L543.162,77.081L543.162,71.352L545.768,68.105L550.822,77.081L556.083,77.081L549.044,64.543L555.512,56.71L549.529,56.71" style="fill-rule:nonzero;"/>
        <path d="M559.846,64.618C560.235,62.825 562.64,61.039 565.04,61.039C567.438,61.039 569.737,62.652 570.231,64.618L559.846,64.618ZM575.214,66.814C575.209,61.181 570.939,56.597 565.04,56.597C558.697,56.71 554.792,61.19 554.792,66.826C554.794,72.37 559.071,77.081 564.723,77.078L571.354,77.078L571.354,72.482L565.136,72.482C562.76,72.482 560.146,70.759 559.846,68.628L575.05,68.628C575.158,68.035 575.214,67.44 575.214,66.814Z" style="fill-rule:nonzero;"/>
    </g>
</svg>
