<?xml version="1.0" encoding="UTF-8"?>
<svg id="Layer_1" data-name="Layer 1" xmlns="http://www.w3.org/2000/svg" viewBox="0 0 97 52">
  <title>LillyLogo_RGB_Red_v3</title>
<metadata><?xpacket begin="﻿" id="W5M0MpCehiHzreSzNTczkc9d"?>
<x:xmpmeta xmlns:x="adobe:ns:meta/" x:xmptk="Adobe XMP Core 8.0-c001 1.000000, 0000/00/00-00:00:00        ">
   <rdf:RDF xmlns:rdf="http://www.w3.org/1999/02/22-rdf-syntax-ns#">
      <rdf:Description rdf:about=""
            xmlns:ns1="http://www.lilly.com/1.0"
            xmlns:dc="http://purl.org/dc/elements/1.1/"
            xmlns:tiff="http://ns.adobe.com/tiff/1.0/"
            xmlns:Iptc4xmpCore="http://iptc.org/std/Iptc4xmpCore/1.0/xmlns/">
         <ns1:contractedSpeakerOrAdvisor>No</ns1:contractedSpeakerOrAdvisor>
         <ns1:workfrontDocNumber>COMM-US-00210119-lilly-logos-202506-262101</ns1:workfrontDocNumber>
         <ns1:componentType>Source</ns1:componentType>
         <ns1:originatingCountry>United States</ns1:originatingCountry>
         <ns1:contentStatus>Ready for Use</ns1:contentStatus>
         <ns1:contentKind>New</ns1:contentKind>
         <ns1:therapeuticAreaRestrictions>No</ns1:therapeuticAreaRestrictions>
         <ns1:isPublic>Yes</ns1:isPublic>
         <ns1:rawImage>No</ns1:rawImage>
         <ns1:contractAssociated>No</ns1:contractAssociated>
         <ns1:containsAi>No</ns1:containsAi>
         <ns1:restrictedContent>No</ns1:restrictedContent>
         <ns1:geographicalExclusions>No</ns1:geographicalExclusions>
         <ns1:projectOwnerOrg>LMS US</ns1:projectOwnerOrg>
         <ns1:durationOfUse>In Perpetuity</ns1:durationOfUse>
         <ns1:portfolio>COMM | IMBU</ns1:portfolio>
         <ns1:contentClassification>Logo</ns1:contentClassification>
         <ns1:isThisForAnEvent>No</ns1:isThisForAnEvent>
         <ns1:attributionContentProvider>No</ns1:attributionContentProvider>
         <ns1:creativeOwnerOrg>LMS US</ns1:creativeOwnerOrg>
         <ns1:contentGroupName>COMM-US-00160650-Lilly Website Components-202505</ns1:contentGroupName>
         <ns1:contentProjectName>COMM-US-00210119-lilly-logos-202506</ns1:contentProjectName>
         <ns1:purchasingCountry>United States</ns1:purchasingCountry>
         <ns1:contentSubtype>Audio Visual Asset</ns1:contentSubtype>
         <ns1:persistentID>COMP-16488</ns1:persistentID>
         <ns1:name>COMM-US-00210119-lilly-logos-202506-262101</ns1:name>
         <ns1:transferableLicense>Yes</ns1:transferableLicense>
         <ns1:approvedForAllProducts>Yes</ns1:approvedForAllProducts>
         <ns1:contentType>Component</ns1:contentType>
         <ns1:licensor>Lilly</ns1:licensor>
         <ns1:otherRestrictionsOnUsage>No</ns1:otherRestrictionsOnUsage>
         <ns1:businessArea>COMM</ns1:businessArea>
         <ns1:requestedCompletionDate>2025-06-11T20:00:00.000-04:00</ns1:requestedCompletionDate>
         <ns1:brand>
            <rdf:Bag>
               <rdf:li>FORTEO</rdf:li>
            </rdf:Bag>
         </ns1:brand>
         <ns1:countryApprovedForUse>
            <rdf:Bag>
               <rdf:li>Global</rdf:li>
            </rdf:Bag>
         </ns1:countryApprovedForUse>
         <ns1:therapeuticArea>
            <rdf:Bag>
               <rdf:li>Osteoporosis</rdf:li>
            </rdf:Bag>
         </ns1:therapeuticArea>
         <ns1:licensedChannels>
            <rdf:Bag>
               <rdf:li>Unlimited</rdf:li>
            </rdf:Bag>
         </ns1:licensedChannels>
         <ns1:businessUnit>
            <rdf:Bag>
               <rdf:li>IMBU</rdf:li>
            </rdf:Bag>
         </ns1:businessUnit>
         <ns1:externalCustomerGroup>
            <rdf:Bag>
               <rdf:li>HCP</rdf:li>
            </rdf:Bag>
         </ns1:externalCustomerGroup>
         <ns1:indication>
            <rdf:Bag>
               <rdf:li>Osteoporosis</rdf:li>
               <rdf:li>Glucocorticoid Induced (GIOP)</rdf:li>
            </rdf:Bag>
         </ns1:indication>
         <ns1:diseaseState>
            <rdf:Bag>
               <rdf:li>Osteoporosis</rdf:li>
            </rdf:Bag>
         </ns1:diseaseState>
         <ns1:internalUserGroup>
            <rdf:Bag>
               <rdf:li>Brand Managers</rdf:li>
            </rdf:Bag>
         </ns1:internalUserGroup>
         <dc:modified>2025-06-26T14:18:00.802Z</dc:modified>
         <dc:format>image/svg+xml</dc:format>
         <dc:language>
            <rdf:Bag>
               <rdf:li>English</rdf:li>
            </rdf:Bag>
         </dc:language>
         <dc:title>
            <rdf:Alt>
               <rdf:li xml:lang="x-default">LillyLogo_RGB_Red_v3</rdf:li>
            </rdf:Alt>
         </dc:title>
         <tiff:ImageWidth>97</tiff:ImageWidth>
         <tiff:ImageLength>52</tiff:ImageLength>
         <Iptc4xmpCore:CreatorContactInfo>
            <rdf:Description/>
         </Iptc4xmpCore:CreatorContactInfo>
      </rdf:Description>
   </rdf:RDF>
</x:xmpmeta>
                                                                                                    
                                                                                                    
                                                                                                    
                                                                                                    
                                                                                                    
                                                                                                    
                                                                                                    
                                                                                                    
                                                                                                    
                                                                                                    
                                                                                                    
                                                                                                    
                                                                                                    
                                                                                                    
                                                                                                    
                                                                                                    
                                                                                                    
                                                                                                    
                     
<?xpacket end="w"?></metadata>
<defs>
    <style>
      .cls-1 {
        fill: #d52b1e;
      }
    </style>
  </defs>
  <path class="cls-1" d="M65.6,30.11c.52-.37,1.08-.8,1.61-1.22,4.05-3.24,7.14-6.79,7.75-8.75.02-.06.08-.24.08-.39,0-.2-.1-.35-.28-.35-1.86,0-7.82,5.93-9.26,10.74v.02l.11-.06M50.66,29.42c5.63-4.26,11.55-10.45,12.18-13,.02-.08.04-.16.04-.24,0-.17-.1-.32-.31-.32-1.78,0-10.04,7.61-11.91,13.56M16.06,33.16c-1.49-1.03-3.79-1.93-5.84-1.93s-3.27.78-3.27,1.77c0,1.14,1.55,1.63,3.28,1.63,2.1,0,4.01-.57,5.83-1.47M33.32,19.81c4.04-1.3,7.87-4,10.73-6.83,2.64-2.62,4.76-5.72,4.76-7.26,0-.35-.25-.56-.57-.56-1.22,0-3.54,1.62-6.67,4.75-2.43,2.44-5.26,5.77-8.25,9.91M93.45,29.58c-3.47,3.45-14.28,12.94-17.14,20.93l-3.54-.91c1.16-3.31,4.65-8.45,8.53-12.42-.83.31-1.69.43-2.38.43-1.05,0-1.87-.32-2.36-.91-.35-.43-.53-.99-.53-1.65,0-.14.01-.29.03-.45-3.41,2.08-6.16,3.02-8.85,3.02-2.09,0-3.86-.91-4.67-2.51-3.39,1.68-6.64,2.51-9.36,2.51-2.53,0-4.57-1-5.5-2.83-3.43,1.93-6.34,2.83-8.66,2.83-1.33,0-2.39-.37-3.07-1.07-.5-.51-.76-1.21-.8-2.01-2.2,1.45-5.4,3.08-8.7,3.08s-5.62-1.16-7.37-2.3c-2.79,1.55-5.87,2.3-9.12,2.3-2.46,0-6.42-1.02-6.42-4.54,0-2.84,2.97-4.77,6.93-4.77,3.38,0,6.63,1.42,8.67,2.9,1.94-1.54,3.97-3.7,6.37-6.75-.53.03-1.04.04-1.55.04-4.59,0-8.42-1.35-10.52-3.72-1.13-1.28-1.66-2.78-1.66-4.39,0-6.39,8.06-11.34,15.12-12.07.47,1.06.88,1.87,1.31,2.84-6.97.81-12.77,4.93-12.77,8.97,0,2.65,2.98,5.31,9.3,5.31,1.08,0,2.17-.1,3.24-.25C33.56,13.46,42.12,1.5,49.47,1.5c2.18,0,3.31,1.32,3.31,3.09,0,3.64-3.13,7.56-5.17,9.61-3.21,3.22-9,8.01-17.1,9.6-3.15,4.38-5.74,7.29-8.33,9.39,1.57.85,3.04,1.37,4.8,1.37,4.36,0,8.59-3.99,11.89-7.37l.12-.11,2.58,2.01-.12.14c-1.46,1.67-2.81,3.45-2.81,4.44,0,.75.64.9,1.18.9,1.67,0,4.24-1.08,7.27-2.94v-.03c.33-7.48,10.55-18.93,16.74-18.93,1.75,0,2.76.87,2.76,2.4,0,3.75-6.47,11.8-15.89,17.95h0c.49,1.05,1.61,1.56,3.51,1.56,1.49,0,4.39-.66,7.84-2.47.4-3.88,2.6-8.04,5.38-11.01,2.8-2.97,5.93-4.9,8.64-4.9,1.67,0,2.66.92,2.66,2.36,0,3.27-3.8,8.87-12.95,14.72.4.79,1.19,1.28,2.41,1.28,2.72,0,7.53-2.91,11.27-6.49l2.68,2.09c-1.15,1.39-2.31,2.92-2.27,3.8.01.28.2.47.65.47,2.76,0,7.1-3.64,10.35-6.85l2.56,1.99ZM43.56,22.07c1.22,0,2.2.99,2.2,2.2s-.98,2.21-2.2,2.21-2.21-.99-2.21-2.21.99-2.2,2.21-2.2"/>
</svg>