<svg height="36.39868" viewBox="0 0 158.15559 36.39868" width="158.15559" xmlns="http://www.w3.org/2000/svg">
<defs>
<style>
						  .svg-logo-cls-1 {
							fill: #fff;
						  }
						</style>
</defs>
<g data-name="Layer 1" id="Layer_1"></g>
<g data-name="Layer 2" id="Layer_2">
<g data-name="Layer 1" id="Layer_1-2">
<g>
<g>
<path class="svg-logo-cls-1" d="M97.31843,0c2.05158,0,3.64722,1.08547,3.64722,2.62601,0,1.54066-1.5501,2.62601-3.64722,2.62601-2.05158,0-3.69282-1.08535-3.69282-2.62601,0-1.54055,1.64125-2.62601,3.69282-2.62601Z"></path>
<path class="svg-logo-cls-1" d="M107.52405,7.9355c2.05158,0,3.64722,1.08547,3.64722,2.62601,0,1.54066-1.5501,2.62601-3.64722,2.62601-2.05158,0-3.69282-1.08535-3.69282-2.62601,0-1.54055,1.64125-2.62601,3.69282-2.62601Z"></path>
<path class="svg-logo-cls-1" d="M71.06202,13.18752c2.05158,0,3.64722,1.08547,3.64722,2.62601,0,1.54066-1.5501,2.62601-3.64722,2.62601-2.05158,0-3.69282-1.08535-3.69282-2.62601,0-1.54055,1.64125-2.62601,3.69282-2.62601Z"></path>
</g>
<g>
<path class="svg-logo-cls-1" d="M31.96005,36.39868c-6.24968,0-9.37375-3.04241-9.69441-6.95104-.0178-.217,.15284-.40398,.37057-.40398h5.17029c.17777,0,.32785,.12725,.36261,.30159,.27374,1.3729,1.59407,2.15005,3.92474,2.15005,2.09506,0,3.29861-.57946,3.29861-1.87218,0-1.3818-1.06984-2.1396-5.83942-2.94193-4.36845-.7578-6.90926-2.85286-6.90926-6.50814,0-3.7889,3.83353-6.99843,9.31627-6.99843,5.222,0,8.39658,2.59057,8.91706,6.59842,.02792,.21499-.13149,.40962-.34795,.42155l-4.93457,.272c-.18483,.01019-.34158-.11907-.38428-.29919-.27321-1.15235-1.57432-2.0894-3.25025-2.0894-1.78301,0-3.07573,.7578-3.07573,2.00589,0,1.24818,1.20355,1.91681,5.39376,2.76378,6.28517,1.29263,7.26585,3.52148,7.26585,6.41888,0,3.83353-3.69982,7.13214-9.58387,7.13214Z"></path>
<path class="svg-logo-cls-1" d="M54.69291,13.21926c4.49213,0,9.23544,2.67869,10.49864,7.46825,.06204,.23522-.11645,.46622-.35971,.46622h-5.80501c-.14243,0-.26979-.08299-.33377-.21025-.72466-1.44135-1.92377-2.3751-4.17849-2.3751-2.85286,0-5.39366,2.49618-5.39366,6.28517,0,3.74436,2.58544,6.196,5.48283,6.196,2.17567,0,3.28983-.97976,4.08485-2.39243,.0664-.11799,.18942-.19292,.32481-.19292h5.85945c.24503,0,.42373,.23372,.35894,.47003-1.13826,4.15135-5.38455,7.46445-10.58351,7.46445-7.44409,0-11.85717-4.76957-11.85717-11.50059,0-6.24063,4.50216-11.67884,11.9018-11.67884Z"></path>
<path class="svg-logo-cls-1" d="M97.31791,7.24854c-.93451,0-1.81699-.18536-2.60866-.51961-.24246-.10237-.50998,.07969-.50998,.34288v6.32476h-.0033v2.14063c-1.15901-1.20355-3.20953-2.31793-6.3298-2.31793-5.92859,0-10.92113,4.94791-10.92113,11.58967,0,6.77555,4.72504,11.58976,10.92113,11.58976,3.56602,0,5.70571-1.6493,6.77555-3.1649v2.34835c0,.20479,.16601,.3708,.3708,.3708h5.00866c.20479,0,.3708-.16601,.3708-.3708V7.06786c0-.26327-.26734-.44468-.5101-.34279-.77533,.32541-1.64024,.52347-2.56396,.52347Zm-8.33736,23.80102c-3.65519,0-5.70571-2.54081-5.70571-6.24063,0-3.65519,2.00589-6.24054,5.70571-6.24054,3.34324,0,5.43829,2.49618,5.43829,6.24054,0,3.65528-2.09506,6.24063-5.43829,6.24063Z"></path>
<path class="svg-logo-cls-1" d="M143.35639,14.03581v2.74947c1.47097-2.05043,4.10095-3.56602,7.17668-3.56602,5.21542,0,7.62252,3.74436,7.62252,8.38023v13.98265c0,.20479-.16601,.3708-.3708,.3708h-5.4545c-.20479,0-.3708-.16601-.3708-.3708v-13.09114c0-2.54081-1.47097-3.92261-3.74436-3.92261-2.67452,0-4.63587,1.69384-4.63587,5.03699v11.97676c0,.20479-.16601,.3708-.3708,.3708h-5.4545c-.20479,0-.3708-.16601-.3708-.3708V14.03581c0-.20479,.16601-.3708,.3708-.3708h5.23162c.20479,0,.3708,.16601,.3708,.3708Z"></path>
<path class="svg-logo-cls-1" d="M124.27264,13.21926c-5.89859,0-9.17126,3.83777-10.20258,7.05222-.07642,.23818,.10492,.48104,.35506,.48104h5.40127c.14877,0,.28223-.08896,.34002-.22604,.48845-1.15847,1.83983-2.18097,4.01707-2.18097,2.31793,0,3.20944,1.02521,3.20944,2.1396,0,1.15901-.624,1.78301-2.1396,1.96135l-4.76967,.62409c-4.85874,.624-6.99834,3.56602-6.99834,6.86463,0,3.56611,2.58535,6.46351,7.08751,6.46351,3.03119,0,5.66117-1.33726,6.95389-3.12027v2.30372c0,.20479,.16601,.3708,.3708,.3708h5.14236c.20479,0,.3708-.16601,.3708-.3708v-14.16089c0-4.8142-3.43232-8.20198-9.13803-8.20198Zm3.07573,13.64018c0,2.36256-1.73847,4.41299-4.76967,4.41299-1.87218,0-2.76369-.71317-2.76369-2.00589,0-1.11438,.62409-2.09506,2.62998-2.4071l3.07573-.49029c.7578-.1338,1.38189-.35667,1.82764-.62409v1.11438Z"></path>
<path class="svg-logo-cls-1" d="M10.78733,13.21926c-5.89859,0-9.17126,3.83777-10.20258,7.05222-.07642,.23818,.10492,.48104,.35506,.48104H6.34107c.14877,0,.28223-.08896,.34002-.22604,.48845-1.15847,1.83983-2.18097,4.01707-2.18097,2.31793,0,3.20944,1.02521,3.20944,2.1396,0,1.15901-.624,1.78301-2.1396,1.96135l-4.76967,.62409c-4.85874,.624-6.99834,3.56602-6.99834,6.86463,0,3.56611,2.58535,6.46351,7.08751,6.46351,3.03119,0,5.66117-1.33726,6.95389-3.12027v2.30372c0,.20479,.16601,.3708,.3708,.3708h5.14236c.20479,0,.3708-.16601,.3708-.3708v-14.16089c0-4.8142-3.43232-8.20198-9.13803-8.20198Zm3.07573,13.64018c0,2.36256-1.73847,4.41299-4.76967,4.41299-1.87218,0-2.76369-.71317-2.76369-2.00589,0-1.11438,.62409-2.09506,2.62998-2.4071l3.07573-.49029c.7578-.1338,1.38189-.35667,1.82764-.62409v1.11438Z"></path>
<path class="svg-logo-cls-1" d="M110.59759,35.58213V15.0236c0-.26327-.26734-.44468-.5101-.34279-.77533,.32541-1.64024,.52347-2.56396,.52347-.93451,0-1.81699-.18536-2.60866-.51961-.24246-.10237-.50998,.07969-.50998,.34288v20.55459c0,.20479,.16601,.3708,.3708,.3708h5.4511c.20479,0,.3708-.16601,.3708-.3708Z"></path>
<path class="svg-logo-cls-1" d="M74.13556,35.58234v-15.30671c0-.26327-.26734-.44468-.5101-.34279-.77533,.32541-1.64024,.52347-2.56396,.52347-.93451,0-1.81699-.18536-2.60866-.51961-.24246-.10237-.50998,.07969-.50998,.34288v15.30277c0,.20479,.16601,.3708,.3708,.3708h5.4511c.20479,0,.3708-.16601,.3708-.3708Z"></path>
</g>
</g>
</g>
</g>
</svg>