<svg xmlns="http://www.w3.org/2000/svg" xmlns:xlink="http://www.w3.org/1999/xlink" width="262.065" height="59.842" viewBox="0 0 262.065 59.842">
  <defs>
    <clipPath id="clip-path">
      <path d="M47.735,21.728s3.537.911,3.537,5.387c0,3.009-1.409,10.315-1.585,14.574-.192,4.575.308,8.312,2.364,11.158,2.956,4.1,6.145,4.774,6.145,4.774a13.025,13.025,0,0,1-2.522-6.8c-.326-3.119.341-6.448,1.114-10.033,1.248-5.759,2.306-10.573,2.306-13.005,0-5.764-3.924-6.057-3.924-6.057Z" transform="translate(-47.735 -21.728)" fill="none"/>
    </clipPath>
    <linearGradient id="linear-gradient" x1="-10.852" y1="-0.981" x2="-10.728" y2="-0.981" gradientUnits="objectBoundingBox">
      <stop offset="0" stop-color="#7fa2c6"/>
      <stop offset="0.225" stop-color="#7ca1c7"/>
      <stop offset="0.507" stop-color="#7da2c7"/>
      <stop offset="0.609" stop-color="#84a7ca"/>
      <stop offset="0.681" stop-color="#90afcf"/>
      <stop offset="0.74" stop-color="#a1bbd6"/>
      <stop offset="0.79" stop-color="#b7cbe0"/>
      <stop offset="0.835" stop-color="#d2dfeb"/>
      <stop offset="0.874" stop-color="#f2f5f9"/>
      <stop offset="0.888" stop-color="#fff"/>
      <stop offset="0.892" stop-color="#f6f8fb"/>
      <stop offset="0.917" stop-color="#cad9e8"/>
      <stop offset="0.94" stop-color="#a8c0da"/>
      <stop offset="0.963" stop-color="#8fafcf"/>
      <stop offset="0.983" stop-color="#81a4c9"/>
      <stop offset="1" stop-color="#7ca1c7"/>
    </linearGradient>
  </defs>
  <path d="M69.019,20.947h6.957L81.095,31.51l5.121-10.563h6.955v16.41H88.764V25.571h-.039L82.788,37.358H79.4L73.466,25.571h-.041V37.358H69.019Z" transform="translate(7.059 -11.103)" fill="#163e66"/>
  <path d="M88.34,30.119c0,2.379.449,3.286,2.59,3.286h5.793c2.143,0,2.592-.907,2.592-3.286V28.351c0-2.04-.449-3.286-2.835-3.286h-5.3c-2.386,0-2.835,1.246-2.835,3.286Zm-4.652-3.332c0-4.806,2.427-5.938,6.508-5.938h7.261c4.08,0,6.506,1.133,6.506,5.938v4.9c0,4.806-2.427,5.938-6.506,5.938H90.2c-4.082,0-6.508-1.133-6.508-5.938Z" transform="translate(19.275 -11.185)" fill="#163e66"/>
  <path d="M96.243,20.947h4.53v12.2H110.95v4.215H96.243Z" transform="translate(29.731 -11.103)" fill="#163e66"/>
  <path d="M105.313,20.947H121.47v3.808H109.843v2.629h11.015v3.4H109.843v2.628h11.892v3.944H105.313Z" transform="translate(37.284 -11.103)" fill="#163e66"/>
  <path d="M115.587,26.787c0-4.806,2.427-5.938,6.506-5.938h5.324c6.446,0,7.283,1.54,7.241,6.186h-4.527v-.453c0-1.177-.777-1.518-2.122-1.518h-4.936c-2.388,0-2.837,1.246-2.837,3.286v1.769c0,2.379.449,3.286,2.592,3.286h4.833c2.04,0,2.654-.227,2.654-2.267h4.529V32.68c0,2.766-.9,4.941-5.447,4.941h-7.3c-4.08,0-6.506-1.133-6.506-5.938Z" transform="translate(45.84 -11.185)" fill="#163e66"/>
  <path d="M127.585,20.947h4.529v9.474c0,2.086.673,2.9,2.529,2.9h4.487c1.857,0,2.529-.816,2.529-2.9V20.947h4.531V31.511c0,4.078-1.9,6.026-6.059,6.026h-6.488c-4.16,0-6.057-1.948-6.057-6.026Z" transform="translate(55.832 -11.103)" fill="#163e66"/>
  <path d="M139.242,20.947h4.528v12.2h10.063v4.215H139.242Z" transform="translate(65.539 -11.103)" fill="#163e66"/>
  <path d="M155.764,30.921h5.793l-2.938-6.165Zm-.082-9.974h5.9L169.7,37.358h-5.038l-1.408-2.9h-9.18l-1.327,2.9h-5.058Z" transform="translate(72.57 -11.103)" fill="#163e66"/>
  <path d="M165.1,29.016h7.487c1.222,0,1.672-.542,1.672-1.723v-.542c0-1.45-.652-1.723-2.078-1.723H165.1Zm-4.529-8.068h13.667c3.488,0,4.428,1.926,4.428,4.873v1.041c0,2.2-.449,3.491-2.529,4.036v.046c1.345.269,2.467.929,2.467,3.625v2.788h-4.529v-1.97c0-1.725-.447-2.291-1.855-2.291H165.1v4.261h-4.529Z" transform="translate(83.304 -11.102)" fill="#163e66"/>
  <path d="M84.214,41.312c0-2.654-.858-3.913-4.1-3.913h-4.58c-3.028,0-4.179,1.582-4.179,3.939v2.6c0,3.268,2.036,3.8,4.472,3.8h4.1c2.678,0,4.285-.59,4.285-3.75ZM69.053,35.737H71.2v2.172h.053c.671-1.66,2.546-2.384,4.58-2.384H80.2c3.268,0,6.321,1.047,6.321,5.759v2.412c0,4.419-1.956,5.92-6.7,5.92H75.427c-2.438,0-3.535-.616-4.017-2.036h-.053v6.591h-2.3Z" transform="translate(7.088 1.036)" fill="#163e66"/>
  <path d="M97.834,45.113c0-1.873-1.661-2.115-5.2-2.115H89.1c-2.973,0-3.8.427-3.8,2.143v.429c0,1.525.537,2.17,3.7,2.17h3.052c4.179,0,5.786-.3,5.786-2.011Zm0,2.921h-.053c-.616,1.23-1.338,1.58-4.875,1.58H87.389c-3.482,0-4.393-1.527-4.393-4.1v-.911c0-3.108,2.2-3.482,6.213-3.482h3.7c3,0,4.071.319,4.875,1.633h.053V40.185c0-2.465-1.552-2.786-5.088-2.786H89.37c-2.892,0-3.455.7-3.455,1.822V39.7h-2.3v-.671c0-2.489,1.58-3.508,5.705-3.508h3.642c4.287,0,7.179.641,7.179,4.714V49.4h-2.3Z" transform="translate(18.699 1.036)" fill="#163e66"/>
  <path d="M97.45,35.738h2.143V37.72h.053a4.264,4.264,0,0,1,4.179-2.2H106c4.313,0,5.731,1.393,5.731,4.741V41.9h-2.143v-.586c0-3.376-.7-3.913-4.795-3.913h-1.42a3.262,3.262,0,0,0-3.616,3.321V49.4h-2.3Z" transform="translate(30.736 1.036)" fill="#163e66"/>
  <path d="M111.542,38.988h-3V37.113h3v-3.24h2.3v3.24h9.135v1.875h-9.135v6.8c0,2.544.885,3.321,3.4,3.321h.724c3.055,0,3.535-.641,3.535-3.508V44.587h1.877v1.5c0,2.733-.269,4.9-5.251,4.9h-1.259c-4.313,0-5.332-2.091-5.332-4.313Z" transform="translate(39.975 -0.339)" fill="#163e66"/>
  <path d="M120.952,35.738h2.141V38.1h.055c.858-2.119,2.652-2.573,5.517-2.573h3.457c4.313,0,5.678,2.17,5.678,4.633V49.4h-2.3V40.72c0-2.009-.564-3.321-5.036-3.321h-.59c-5.383,0-6.616,1.019-6.616,4.232V49.4h-2.3Z" transform="translate(50.308 1.036)" fill="#163e66"/>
  <path d="M150.141,40.185c0-1.393-1.045-2.786-4.8-2.786h-3.374c-3.642,0-4.5.59-4.716,3.7h12.886Zm-15.188.858c0-4.956,3.429-5.518,6.7-5.518h3.695c4.127,0,7.1,1.045,7.1,5.92v1.527H137.255v.858c0,3.108,1.5,3.911,5.518,3.911h3.162c2.892,0,4.072-.378,4.206-2.463h2.3v.266c0,3.134-2.6,4.072-6.884,4.072h-4.179c-3,0-6.428-.563-6.428-5.6Z" transform="translate(61.968 1.036)" fill="#163e66"/>
  <path d="M149.349,35.738h2.143V37.72h.053a4.266,4.266,0,0,1,4.181-2.2h2.17c4.311,0,5.731,1.393,5.731,4.741V41.9h-2.143v-.586c0-3.376-.7-3.913-4.795-3.913h-1.42a3.262,3.262,0,0,0-3.616,3.321V49.4h-2.3Z" transform="translate(73.956 1.036)" fill="#163e66"/>
  <path d="M161.129,44.686h2.143v.669c0,1.686.883,2.384,3.242,2.384h4.928c3.455,0,4.553-.134,4.553-2.17v-.108c0-1.312-.374-2.034-3.134-2.034h-7.1c-3.242,0-4.448-1.045-4.448-3.645v-.8c0-2.223,1.261-3.455,6.939-3.455h3.535c5.2,0,5.918,1.5,5.918,3.429v.722h-2.141v-.134c0-2.089-1.395-2.143-3.911-2.143h-4.019c-3.294,0-4.017.321-4.017,1.877v.506c0,1.127.376,1.769,2.786,1.769h6.081c3.455,0,5.812.348,5.812,4.047v.053c0,3.829-3.534,3.964-6.347,3.964H167.72c-3.4,0-6.591,0-6.591-4.1Z" transform="translate(83.766 1.036)" fill="#163e66"/>
  <rect width="185.827" height="1.561" transform="translate(76.094 30.023)" fill="#7fa2c6"/>
  <path d="M87.351,45.5a29.921,29.921,0,1,1-29.92-29.922A29.92,29.92,0,0,1,87.351,45.5" transform="translate(-27.509 -15.576)" fill="#163e66"/>
  <path d="M33.852,21.73l7.732,0s3.834.293,3.834,6.057c0,2.643-2.5,10.505-3.028,16.07a26.52,26.52,0,0,0,.326,8.57,15.277,15.277,0,0,0,2.322,5.647,15.755,15.755,0,0,1-5.916-4.584c-2.044-2.788-3.684-5.753-3.684-11.757,0-4.265,1.679-11.71,1.679-14.719,0-4.474-3.266-5.282-3.266-5.282" transform="translate(-22.227 -10.453)" fill="#fff"/>
  <path d="M40.738,21.73l7.729,0s4.071.293,4.071,6.057c0,2.643-1.769,10.467-2.527,16.092a24.168,24.168,0,0,0,1.89,12.95A26.151,26.151,0,0,0,56.19,63.64s-6.09-2.692-9.6-6.913a18.8,18.8,0,0,1-4.05-13.771c.361-4.4,1.842-12.294,1.842-15.3a6.313,6.313,0,0,0-3.644-5.922" transform="translate(-16.492 -10.453)" fill="#fff"/>
  <g transform="translate(37.07 11.275)">
    <g clip-path="url(#clip-path)">
      <rect width="11.358" height="35.893" transform="translate(0.001 0)" fill="url(#linear-gradient)"/>
    </g>
  </g>
</svg>
