<svg xmlns="http://www.w3.org/2000/svg" viewBox="0 0 570 153"><defs><style>.cls-2{fill:#e3558b}.cls-5{fill:#fff}.cls-6{fill:#3b4754}</style></defs><g id="レイヤー_2" data-name="レイヤー 2"><g id="レイヤー_1-2" data-name="レイヤー 1"><path fill="#f0f3f2" d="M153 0h417v153H153z"/><path class="cls-2" d="M0 0h153v153H0z"/><circle class="cls-2" cx="77" cy="76.5" r="62"/><circle cx="77" cy="76.5" r="41.33" opacity=".1" fill="#fff"/><path class="cls-5" d="M77 14.5a62 62 0 1062 62 62 62 0 00-62-62zm0 103.33a41.33 41.33 0 1141.33-41.33A41.33 41.33 0 0177 117.83z" opacity=".3"/><circle class="cls-5" cx="25.59" cy="76.53" r="1.89"/><circle class="cls-5" cx="128.41" cy="76.53" r="1.89"/><path class="cls-5" d="M129.13 91.17L128 91l.72-3.62-1.55-.38v.21c-.44.72-.15 2-.62 2.69-.11.08-.1.06-.31.1l-.83-.31a23.94 23.94 0 00.62-2.89h-.21c-.68-.43-1.92-.17-2.58-.62-.08-.12-.08-.17-.1-.41a3 3 0 00.21-.83h.1c.46.3 1.13.15 1.76.31 1.49.37 3.39.41 4.86.93-.31 1.71-.71 3.37-.94 4.99zM23.94 87.25l1.14-.1a31.13 31.13 0 00.72 3.93 5.29 5.29 0 001.45-.41 15.64 15.64 0 01-.73-3.67h.21a1.94 1.94 0 01.93-.21 11.51 11.51 0 00.72 3.41c.11.08.1.06.31.1a3.55 3.55 0 011.45-.41L29.41 86l1.14-.21V86l1 4.75h-.21a5.74 5.74 0 01-1.45.41c-1.58.52-3.26 1.16-5 1.55-.03-1.84-.89-3.45-.95-5.46zM33 95.1c.06.49.23.66.31 1.14a23.21 23.21 0 00-4.24 3.2h.1c.85-.77 3.49-1.61 4.65-2.17a1.72 1.72 0 00.41.83c-.07.18 0 .1-.1.21a8.69 8.69 0 01-1.45.72 20.37 20.37 0 01-4.65 2.38c-.18-.76-.62-1.33-.83-2.07 1.28-.75 2.38-2.2 3.82-2.69v-.1c-1.58.16-2.94.67-4.65.72a15.45 15.45 0 01-.62-2.17 19.58 19.58 0 003.41-1.24c1-.42 2.05-.59 3-1V93a1.86 1.86 0 01.31.93 31.12 31.12 0 01-4.65 1.86v.1h.52zM127 93a40.79 40.79 0 00-5-1.65l-.31.93c.31.73 2 .69 2.58 1.14a1.29 1.29 0 01-.31.93c-.5 1.24-2.4.56-3.31 1.14-.27.17-.3.9-.52 1.14v.1c1.05 0 2.73-.08 3.31-.62.36.25.11.84.31 1.24a2.11 2.11 0 001.24.93c.38.28.82.16 1.34.1a7.29 7.29 0 001.67-2.87 6.45 6.45 0 01.52-1.76c-.19-.64-.94-.51-1.52-.75zm-.93 4a1.26 1.26 0 01-1.24-.31 19.17 19.17 0 01.62-2.89 15.65 15.65 0 011.65.52 22.55 22.55 0 01-1.1 2.74zM125.72 101c-.1.81-1.85 4.29-2.38 4.55-.24-.3-.65-.36-.83-.72a8.51 8.51 0 001.55-3h.1c.1-.1-.1-.1-.1-.1a2 2 0 00-1.24-.62 9.59 9.59 0 01-1.55 2.89c-.29-.27-.74-.34-.93-.72a6.87 6.87 0 001.45-2.89c-.52-.14-1.26-.78-1.65-.62-.56.63-1.06 2.68-1.86 2.89-.24-.3-.56-.33-.72-.72.62-.69 1.53-3.62 2.27-3.82a9.42 9.42 0 002.07 1c1.1.6 2.45 1.64 3.82 1.88zM33.55 101c-1 .66-2.18.66-2.89 1.65a3.25 3.25 0 001.45 4.86c4.1 1.17 7.64-6.67 1.44-6.51zm2.17 3.41c-.57.62-2.29 2.91-3.62 1.65-.81-.27-.92-1.27-.83-2.17a7.68 7.68 0 011-1.14c.44-.29 1-.32 1.45-.62l1 .1a5.48 5.48 0 00.83.72 6.44 6.44 0 01.17 1.45zM116.53 103.57l5.79 3.82a35.47 35.47 0 01-2.79 3.93h-.1v-.1a2 2 0 01-.83-.72 9.22 9.22 0 002.07-2.79 3.8 3.8 0 01-1-.72c-.18.07-.1 0-.21.1a8.41 8.41 0 00-1.76 2.38c-.18-.07-.1 0-.21-.1a1.79 1.79 0 01-.83-.62 8.79 8.79 0 001.86-2.58 3.6 3.6 0 01-1.45-1h-.1v.1a14.52 14.52 0 00-2 2.58h-.21c-.24-.34-.56-.39-.72-.83a12.31 12.31 0 002.49-3.45zM41.3 108.84c-.92.33-1.4 1.41-2.27 1.86a3 3 0 00-.62-.72c0-1.57.64-2.23.93-3.41-.31-.29-.47-.69-.83-.93-.32 1.16-1.13 1.88-1.14 3.31a3.57 3.57 0 00-1.86-.31c-.16.16-.32.17-.52.31-.35.26-.53.72-.83 1 0 2.34 1.7 2.88 2.58 4.34.67-.24.93-1 1.45-1.34a29.29 29.29 0 002.81-2.56c.27-.27.6-.39.83-.72h.1v-.1a2 2 0 01-.63-.73zm-4.3 3.72v.1h-.1a7 7 0 00-1.45-1.76 1.42 1.42 0 01.41-1.14h.72c.46.48 1.22 1 1.45 1.65h.1a2.38 2.38 0 01-1.13 1.15zM43.16 111.74l-1.34.41a4.57 4.57 0 00-2.48 4.34c.8.84 1.61 2.18 2.79 2.58.11.08 0 0 .21.1.61-1 1.51-1.7 2.17-2.58a13.08 13.08 0 012.06-2.59v-.21c-1.2-.72-1.72-1.79-3.41-2.05zm-1 5.79v.1H42a19.43 19.43 0 00-1.53-1.63c0-1.85 1.33-2.28 2.38-3.1 1.15.05 1.46.76 2.17 1.24a19.26 19.26 0 01-2.89 3.38zM114.15 113.91c-1.22-.92-2-2.46-3.31-3.31a10.07 10.07 0 01-2.17 2l-.62.93a2.2 2.2 0 001.34 2.38v.1h1c-.36 1 .32 1.5.72 2.07 2.39.55 3.18-1.49 4.65-2.48-.21-.76-1.04-1.26-1.61-1.69zm-3.62 1c-.92 0-1.2-.21-1.34-.93.54-.62 1.3-1.21 1.76-1.86.5.34.74.91 1.24 1.24-.43.64-1.19.98-1.66 1.58zm1.76 2.07a2.4 2.4 0 01-.83-.21c-.07-.18 0-.1-.1-.21 0-1.32 1-1.48 1.55-2.27.56.2.78.73 1.24 1a10.7 10.7 0 01-1.86 1.71zM48.12 115c.49.22.9.42.93 1.14-.42.65-.52 3.39-.52 4.44h.1v-.21c.9-.74 1.5-3 2.48-3.51a2.48 2.48 0 00.72.52 37.72 37.72 0 01-2.83 4.48c-.32.48-.38 1.2-1 1.34-.52-.49-.85-.34-.83-1.45a37.82 37.82 0 00.52-4.24h-.1a21.61 21.61 0 01-2.69 3.72c-.27-.28-.66-.44-.93-.72h.1c1.02-2 2.93-3.51 4.05-5.51zM104.74 115.66c2.53-.08 5.41 2.54 4.34 5.06-.55 1.3-3.81 2.78-4.55.72a2 2 0 00.72-.62 4.29 4.29 0 001.55.41c.18-.17.4-.16.62-.31s.39-.59.62-.83c.06-2-1.06-3.36-3.1-3.31-.27.26-.72.41-.93.72s-.14.44-.31.62a1.24 1.24 0 00.62.83c.21-.23 1-.72 1.14-.62a3.47 3.47 0 01.62.93c-.85.26-1.38 1-2.27 1.24-.28-1-1.25-1.47-1.34-2.69.41-.44.55-1.19 1-1.55s.91-.31 1.27-.6zM100.09 118.35c.21 0 .2 0 .31.1a11.82 11.82 0 011.14 2.07 16.57 16.57 0 012.17 3.82c-.71.17-1.16.63-1.86.83-.49-1.41-2.18-2.19-2.69-3.62h-.1v.31a13.31 13.31 0 011 4.13 7.31 7.31 0 01-1.86.72c-.52-2.22-2.19-4-2.58-6.3l.93-.31c.4 1.63 1.61 2.9 2.07 4.55h.1v-.31l-1.24-4.75a8.23 8.23 0 011-.31 20.63 20.63 0 003.2 3.93c-.68-1.51-1.81-2.9-2.27-4.55a1.18 1.18 0 00.68-.31zM53.49 126l-.1-3.1h-.1a6.33 6.33 0 01-2.58 1.76 2.43 2.43 0 00-1-.52c.09-.11 0 0 .1-.1 1-1 2.51-1.5 3.62-2.38l1.4-2.66a3.29 3.29 0 01.93.52 4.09 4.09 0 00-.52 1 10.79 10.79 0 00-.83 1.45l.31 4.44h-.21a2.13 2.13 0 00-1.02-.41zM61.14 123.93A1.88 1.88 0 0061 123c-.11-.34-.18-.4-.52-.52a1.75 1.75 0 00-1.14-.21c-.17.23-.29.21-.41.52a.89.89 0 00-.1.52c.55.51 1.15.87 1.76 1.34l.62.93a5.86 5.86 0 01-.21 1.65c-.32.21-.43.48-.83.62-1 .83-3-.3-3.2-1a1.81 1.81 0 010-1.65 3.48 3.48 0 01.93.41 3.58 3.58 0 01.21.93c.62.33 1.81.83 2-.31-.92-.81-3.41-2.14-2.07-4.13.26-.39.8-.61 1.14-.93a3.16 3.16 0 013 1.24 6.45 6.45 0 010 1.76H62a2 2 0 00-.86-.24zM92.66 127c-.31-.86-1.31-4.64-1.76-5.06-.62.45-1.59.32-2.38.62-.5.19-.82.66-1.24.93-.51 2.08-.28 5.06 1.65 5.58.61.42 3.54-.23 4-.62a4.61 4.61 0 00-.27-1.45zm-3.31 1l-.72-.52c-.37-.54-1-2.49-.41-3.2.27-.75 1.15-.53 1.76-.93h.41l1.24 4.24a5.34 5.34 0 01-2.28.47zM76.53 123.93c.28 2.47 1.87 4.47 2.27 6.82h-1.23l-1.65-5v.1a27.23 27.23 0 00-1.45 3.62c-.13.3-.15 1-.41 1.14h-1.25v-.21c.67-.77 1.52-3.47 2-4.55a11.3 11.3 0 01.62-2zM82.12 123.52c-.12.08-.17.08-.41.1-.59.54-1.23.82-1.55 1.65-1 2.64.74 6.19 3.72 5.17s2.12-7.03-1.76-6.92zm2.38 4.75c-.33.35-.41.75-.93.93s-.84.15-1.34.1c-.25-.25-.64-.41-.83-.72-.64-1.05-.43-3.38.62-3.72.09-.07.32-.14.41-.21a1.41 1.41 0 011 .31c1.08.36 1.15 2.09 1.06 3.31zM63.1 125.07c.86.05 1.4.36 2.27.41l-.21 1.24h-.1a5.44 5.44 0 00-2.17-.52zM71.68 123.62a3.84 3.84 0 00-.72 1.55 3.29 3.29 0 01-1.34-.21 1.58 1.58 0 01-.93-.21l-.1-1.45h-.1v-.1a.89.89 0 01-.52-.1h-.52l.52 3.82a18 18 0 01.62 3.2h.1v.1h.93c.33-.18.54-1.19.72-1.55.61-1.17 2.13-3.58 2.27-5a1.92 1.92 0 01-.93-.05zm-2.27 4.65v.21c-.4-.51-.31-1.7-.52-2.38a.89.89 0 01.52.1 3 3 0 01.93.1 4.35 4.35 0 01-.93 1.97zM24.87 61.93l1.14.21-.72 3.62 1.55.31v-.21c.44-.72.15-2 .62-2.69.11-.08.1-.06.31-.1l.83.31a23.94 23.94 0 00-.6 2.89h.21c.68.43 1.92.17 2.58.62.08.12.08.17.1.41a3 3 0 00-.21.83h-.1c-.46-.3-1.13-.15-1.76-.31-1.49-.37-3.39-.41-4.86-.93.28-1.68.68-3.34.91-4.96zM130.06 65.86l-1.14.1a31.13 31.13 0 00-.72-3.96 5.29 5.29 0 00-1.45.41 15.64 15.64 0 01.72 3.62h-.21a1.94 1.94 0 01-.93.21 11.51 11.51 0 00-.72-3.41c-.11-.08-.1-.06-.31-.1a3.55 3.55 0 01-1.45.41l.72 3.93-1.14.21v-.18l-1-4.75h.21a5.74 5.74 0 011.45-.41c1.58-.52 3.26-1.16 5-1.55.05 1.85.91 3.45.97 5.47zM121 58c-.06-.49-.23-.66-.31-1.14a23.21 23.21 0 004.24-3.2h-.1c-.85.77-3.49 1.61-4.65 2.17a1.72 1.72 0 00-.41-.83c.07-.18 0-.1.1-.21a8.69 8.69 0 011.45-.72 20.37 20.37 0 014.65-2.38c.18.76.62 1.33.83 2.07-1.28.75-2.38 2.2-3.82 2.69v.1c1.58-.16 2.94-.67 4.65-.72a15.45 15.45 0 01.57 2.17 19.58 19.58 0 00-3.41 1.24c-1 .42-2.05.59-3 1v-.21a1.86 1.86 0 01-.31-.93 31.12 31.12 0 014.65-1.86v-.1h-.52zM27 60.07a40.79 40.79 0 005 1.65l.31-.93c-.31-.73-2-.69-2.58-1.14a1.29 1.29 0 01.31-.93c.5-1.24 2.4-.56 3.31-1.14.27-.17.3-.9.52-1.14v-.1c-1.05 0-2.73.08-3.31.62-.36-.25-.11-.84-.31-1.24A2.11 2.11 0 0029 54.8c-.38-.28-.82-.16-1.34-.1A7.29 7.29 0 0026 57.59a6.45 6.45 0 01-.52 1.76c.19.65.94.51 1.52.72zM28 56a1.26 1.26 0 011.24.31 19.17 19.17 0 01-.62 2.89 15.65 15.65 0 01-1.65-.52A22.55 22.55 0 0128 56zM28.28 52.11c.1-.81 1.85-4.29 2.38-4.55.24.3.65.36.83.72a8.51 8.51 0 00-1.55 3h-.1c-.1.1.1.1.1.1a2 2 0 001.24.62 9.59 9.59 0 011.55-2.89c.29.27.74.34.93.72a6.87 6.87 0 00-1.45 2.89c.52.14 1.26.78 1.65.62.56-.63 1.06-2.68 1.86-2.89.24.3.56.33.72.72-.62.69-1.53 3.62-2.27 3.82a9.42 9.42 0 00-2.07-1c-1.1-.61-2.45-1.64-3.82-1.88zM120.45 52.11c1-.66 2.18-.66 2.89-1.65a3.25 3.25 0 00-1.45-4.86c-4.1-1.18-7.64 6.67-1.44 6.51zm-2.17-3.41c.57-.62 2.29-2.91 3.62-1.65.81.27.92 1.27.83 2.17a7.68 7.68 0 01-1 1.14c-.44.29-1 .32-1.45.62l-1-.1a5.48 5.48 0 00-.83-.72 6.44 6.44 0 01-.17-1.46zM37.47 49.53l-5.79-3.82a35.47 35.47 0 012.79-3.93h.1v.1a2 2 0 01.83.72 9.22 9.22 0 00-2.07 2.79 3.8 3.8 0 011 .72c.18-.07.1 0 .21-.1a8.41 8.41 0 001.76-2.38c.18.07.1 0 .21.1a1.79 1.79 0 01.83.62 8.79 8.79 0 00-1.86 2.58A3.6 3.6 0 0137 48h.1v-.1a14.52 14.52 0 002-2.58h.21c.24.34.56.39.72.83a12.31 12.31 0 00-2.56 3.38zM112.7 44.26c.92-.33 1.4-1.41 2.27-1.86a3 3 0 00.62.72c0 1.57-.64 2.23-.93 3.41.31.29.47.69.83.93.32-1.16 1.13-1.88 1.14-3.31a3.57 3.57 0 001.86.31c.16-.16.32-.17.52-.31.35-.26.53-.72.83-1 0-2.34-1.7-2.88-2.58-4.34-.67.24-.93 1-1.45 1.34a29.29 29.29 0 00-2.81 2.56c-.27.27-.6.39-.83.72h-.1v.1a2 2 0 01.63.73zm4.3-3.72v-.1h.1a7 7 0 001.45 1.76 1.42 1.42 0 01-.41 1.14h-.72c-.46-.48-1.22-1-1.45-1.65h-.1a2.38 2.38 0 011.13-1.15zM110.84 41.37l1.34-.41a4.57 4.57 0 002.48-4.34c-.8-.84-1.61-2.18-2.79-2.58-.11-.08 0 0-.21-.1-.61 1-1.51 1.7-2.17 2.58a13.08 13.08 0 01-2.07 2.58v.21c1.21.69 1.73 1.75 3.42 2.06zm1-5.79v-.1h.1a19.43 19.43 0 001.55 1.65c0 1.85-1.33 2.28-2.38 3.1-1.15-.05-1.46-.76-2.17-1.24a19.26 19.26 0 012.93-3.41zM39.85 39.2c1.22.92 2 2.46 3.31 3.31a10.07 10.07 0 012.17-2l.62-.93a2.2 2.2 0 00-1.34-2.38v-.1h-1c.36-1-.32-1.5-.72-2.07-2.39-.55-3.18 1.49-4.65 2.48.21.75 1.04 1.26 1.61 1.69zm3.62-1c.92 0 1.2.21 1.34.93-.54.62-1.3 1.21-1.76 1.86-.5-.34-.74-.91-1.24-1.24.43-.69 1.19-.99 1.66-1.59zm-1.76-2.1a2.4 2.4 0 01.83.21c.07.18 0 .1.1.21 0 1.32-1 1.48-1.55 2.27-.56-.2-.78-.73-1.24-1a10.7 10.7 0 011.86-1.69zM105.88 38.06c-.49-.22-.9-.42-.93-1.14.42-.65.52-3.39.52-4.44h-.1v.21c-.9.74-1.5 3-2.48 3.51a2.48 2.48 0 00-.72-.52 37.72 37.72 0 012.83-4.44c.32-.48.38-1.2 1-1.34.52.49.85.34.83 1.45a37.82 37.82 0 00-.52 4.24h.1a21.61 21.61 0 012.69-3.72c.27.28.66.44.93.72h-.1c-1.02 2.01-2.93 3.55-4.05 5.47zM49.26 37.44c-2.53.08-5.41-2.54-4.34-5.06.55-1.3 3.81-2.78 4.55-.72a2 2 0 00-.72.62 4.29 4.29 0 00-1.55-.41c-.18.17-.4.16-.62.31s-.39.59-.62.83C45.89 35 47 36.36 49 36.3c.27-.26.72-.41.93-.72s.14-.44.31-.62a1.24 1.24 0 00-.62-.83c-.21.23-1 .72-1.14.62a3.47 3.47 0 01-.62-.93c.85-.26 1.38-1 2.27-1.24.28 1 1.25 1.47 1.34 2.69-.41.44-.55 1.19-1 1.55s-.85.34-1.21.62zM53.91 34.75c-.21 0-.2 0-.31-.1a11.82 11.82 0 01-1.14-2.07 16.57 16.57 0 01-2.17-3.82c.71-.17 1.16-.63 1.86-.83.49 1.41 2.18 2.19 2.69 3.62h.1v-.31a13.31 13.31 0 01-1-4.13 7.31 7.31 0 011.86-.72c.52 2.22 2.19 4 2.58 6.3l-.93.31c-.4-1.63-1.61-2.9-2.07-4.55h-.1v.31l1.24 4.75a8.23 8.23 0 01-1 .31 20.63 20.63 0 00-3.2-3.93c.68 1.51 1.81 2.9 2.27 4.55a1.18 1.18 0 00-.68.31zM100.51 27.11l.1 3.1h.1a6.33 6.33 0 012.58-1.76 2.43 2.43 0 001 .52c-.09.11 0 0-.1.1-1 1-2.51 1.5-3.62 2.38l-1.45 2.69a3.29 3.29 0 01-.93-.52 4.09 4.09 0 00.52-1 10.79 10.79 0 00.83-1.45l-.31-4.44h.21a2.13 2.13 0 001.07.38zM92.86 29.17a1.88 1.88 0 00.1.93c.11.34.18.4.52.52a1.75 1.75 0 001.14.21c.17-.23.29-.21.41-.52a.89.89 0 00.1-.52c-.55-.51-1.15-.87-1.76-1.34l-.62-.93a5.86 5.86 0 01.25-1.65c.32-.21.43-.48.83-.62 1-.83 3 .3 3.2 1a1.81 1.81 0 010 1.65 3.48 3.48 0 01-.93-.41 3.58 3.58 0 01-.21-.93c-.62-.33-1.81-.83-2 .31.92.84 3.41 2.13 2.11 4.13-.26.39-.8.61-1.14.93a3.16 3.16 0 01-3-1.24 6.45 6.45 0 010-1.76H92a2 2 0 00.86.24zM61.34 26.07c.31.86 1.31 4.64 1.76 5.06.62-.45 1.59-.32 2.38-.62.5-.19.82-.66 1.24-.93.51-2.08.28-5.06-1.65-5.58-.61-.42-3.54.23-4 .62a4.61 4.61 0 00.27 1.45zm3.31-1l.72.52c.37.54 1 2.49.41 3.2-.27.75-1.15.53-1.76.93h-.41l-1.24-4.24a5.34 5.34 0 012.28-.48zM77.47 29.17c-.28-2.47-1.87-4.47-2.27-6.82h1.24l1.65 5v-.1a27.23 27.23 0 001.45-3.62c.13-.3.15-1 .41-1.14h1.24v.21c-.67.77-1.52 3.47-2 4.55a11.3 11.3 0 01-.62 2zM71.88 29.59c.12-.08.17-.08.41-.1.59-.54 1.23-.82 1.55-1.65 1-2.64-.74-6.19-3.72-5.17s-2.12 7.02 1.76 6.92zm-2.38-4.75c.33-.35.41-.75.93-.93s.84-.15 1.34-.1c.25.25.64.41.83.72.64 1.05.43 3.38-.62 3.72-.09.07-.32.14-.41.21a1.41 1.41 0 01-1-.31c-1.08-.37-1.15-2.1-1.06-3.32zM90.9 28c-.86-.05-1.4-.36-2.27-.41l.21-1.24h.1a5.44 5.44 0 002.17.52zM82.32 29.48a3.84 3.84 0 00.68-1.55 3.29 3.29 0 011.34.21 1.58 1.58 0 01.93.21l.1 1.45h.1v.1a.89.89 0 01.53.1h.52L86 26.18a18 18 0 01-.62-3.2h-.1v-.1h-.93c-.33.18-.54 1.19-.72 1.55-.61 1.17-2.13 3.58-2.27 5a1.92 1.92 0 01.96.05zm2.27-4.65v-.21c.4.51.31 1.7.52 2.38a.89.89 0 01-.52-.1 3 3 0 01-.93-.1 4.35 4.35 0 01.93-1.97zM52 48.67v-7.73h4.78v1.31H53.4v1.83h2.91v1.31H53.4v3.29zM57.94 48.67v-7.73h3a4.6 4.6 0 011.62.21 1.65 1.65 0 01.81.74 2.41 2.41 0 01.3 1.22 2.21 2.21 0 01-.46 1.44 2.14 2.14 0 01-1.38.72 3.36 3.36 0 01.75.65 8.87 8.87 0 01.8 1.26l.85 1.51h-1.7l-1-1.68a11 11 0 00-.74-1.14 1.08 1.08 0 00-.42-.32 2.11 2.11 0 00-.71-.09h-.29v3.23zm1.41-4.46h1a4.87 4.87 0 001.27-.09.77.77 0 00.39-.33 1.09 1.09 0 00.14-.58 1 1 0 00-.19-.63.84.84 0 00-.53-.3h-2.1zM65 48.67v-7.73h5.17v1.31h-3.79V44h3.5v1.3h-3.5v2.11h3.9v1.3zM71.47 48.67v-7.73h5.17v1.31h-3.76V44h3.5v1.3h-3.5v2.11h3.9v1.3zM80.68 40.94h2.79a7.28 7.28 0 011.23.06 1.72 1.72 0 01.73.32A1.92 1.92 0 0186 42a1.9 1.9 0 01.21.91 2 2 0 01-.26 1 1.7 1.7 0 01-.72.68 1.83 1.83 0 011 .7 2 2 0 01.34 1.17 2.51 2.51 0 01-.22 1 2 2 0 01-.6.8 1.87 1.87 0 01-.94.37q-.35 0-1.7.05h-2.43zm1.41 1.29V44H84a.89.89 0 00.57-.28.87.87 0 00.21-.6.91.91 0 00-.18-.58.78.78 0 00-.53-.27h-1.2zm0 3.08v2.07h1.3a5.75 5.75 0 001 0 .85.85 0 00.51-.31 1 1 0 00.2-.66 1.09 1.09 0 00-.15-.59.87.87 0 00-.44-.35 4.33 4.33 0 00-1.25-.11zM91 45.83v-1.3h3v3.08a3.76 3.76 0 01-1.28.84 4.27 4.27 0 01-1.7.36 3.52 3.52 0 01-1.91-.51 3.13 3.13 0 01-1.22-1.46 5.14 5.14 0 01-.41-2.06 4.85 4.85 0 01.46-2.15 3.25 3.25 0 011.34-1.44 3.31 3.31 0 011.67-.39 3.09 3.09 0 012 .6 2.78 2.78 0 01.94 1.67l-1.4.29a1.65 1.65 0 00-.55-.9 1.56 1.56 0 00-1-.33 1.82 1.82 0 00-1.47.65 2.93 2.93 0 00-.54 1.93 3.26 3.26 0 00.55 2.07 1.76 1.76 0 001.45.69 2.22 2.22 0 00.89-.19 3 3 0 00.76-.47v-1zM95.27 48.67v-7.73h2.11l1.27 5.28 1.25-5.28h2.1v7.74h-1.3v-6.1l-1.38 6.09H98l-1.38-6.09v6.09zM49.51 106.12h1.67a3 3 0 01.86.1 1.5 1.5 0 01.68.46 2.26 2.26 0 01.43.82 4.1 4.1 0 01.15 1.19 3.65 3.65 0 01-.14 1.07 2.27 2.27 0 01-.49.89 1.58 1.58 0 01-.64.4 2.51 2.51 0 01-.81.11h-1.71zm.92.85v3.34h.68a2.25 2.25 0 00.55 0A.82.82 0 0052 110a1.1 1.1 0 00.24-.49 3.63 3.63 0 00.09-.92 3.33 3.33 0 00-.09-.9 1.18 1.18 0 00-.26-.49.84.84 0 00-.42-.24 3.74 3.74 0 00-.75 0zM53.8 108.67a3.52 3.52 0 01.21-1.29 2.4 2.4 0 01.42-.69 1.77 1.77 0 01.59-.45 2.27 2.27 0 011-.2 2 2 0 011.6.69 3.36 3.36 0 010 3.83 2.21 2.21 0 01-3.2 0 2.78 2.78 0 01-.62-1.89zm.94 0a2 2 0 00.36 1.3 1.14 1.14 0 001.8 0 2.07 2.07 0 00.35-1.31 2 2 0 00-.34-1.29 1.18 1.18 0 00-1.82 0 2 2 0 00-.35 1.26zM59.85 111.16l-1.62-5h1l1.15 3.73 1.11-3.73h1l-1.62 5zM66.69 111.16h-1L65.3 110h-1.81l-.37 1.14h-1l1.77-5h1zm-1.68-2l-.62-1.87-.61 1.87zM66.69 109.19v-1h1.71v1zM68.89 109.52l.89-.1a1.26 1.26 0 00.33.73.92.92 0 00.66.23 1 1 0 00.67-.21.64.64 0 00.22-.49.49.49 0 00-.09-.3.75.75 0 00-.33-.22l-.73-.22a2.37 2.37 0 01-1-.5 1.38 1.38 0 01-.42-1 1.4 1.4 0 01.2-.72 1.27 1.27 0 01.57-.51 2.07 2.07 0 01.89-.18 1.78 1.78 0 011.28.42 1.54 1.54 0 01.45 1.11h-.92a.9.9 0 00-.25-.56.86.86 0 00-.58-.17 1 1 0 00-.62.18.38.38 0 00-.15.31.4.4 0 00.14.31 2.26 2.26 0 00.84.34 4.14 4.14 0 011 .36 1.34 1.34 0 01.5.51 1.63 1.63 0 01.18.8 1.6 1.6 0 01-.22.81 1.34 1.34 0 01-.61.56 2.34 2.34 0 01-1 .18 1.83 1.83 0 01-1.32-.44 2 2 0 01-.58-1.23zM74.35 111.16V109l-1.66-2.92h1.07l1.07 2 1-2h1.05L75.27 109v2.11zM77.27 111.16v-5h.89l1.84 3.32v-3.36h.85v5h-.92l-1.83-3.28v3.28zM81.83 106.12h1.67a3 3 0 01.86.1 1.5 1.5 0 01.68.46 2.26 2.26 0 01.43.82 4.1 4.1 0 01.15 1.19 3.65 3.65 0 01-.14 1.07 2.27 2.27 0 01-.49.89 1.58 1.58 0 01-.64.4 2.51 2.51 0 01-.81.11h-1.71zm.92.85v3.34h.68a2.25 2.25 0 00.55 0 .82.82 0 00.37-.21 1.1 1.1 0 00.24-.49 3.63 3.63 0 00.09-.92 3.32 3.32 0 00-.09-.9 1.18 1.18 0 00-.26-.49.84.84 0 00-.42-.24 3.74 3.74 0 00-.75 0zM86.38 111.16v-5h1.92a3 3 0 011.06.14 1.07 1.07 0 01.53.48 1.57 1.57 0 01.2.79 1.44 1.44 0 01-.3.94 1.39 1.39 0 01-.9.47 2.19 2.19 0 01.49.42 5.78 5.78 0 01.52.82l.55 1h-1.09l-.66-1.1a7.12 7.12 0 00-.48-.74.71.71 0 00-.28-.21 1.37 1.37 0 00-.46-.06h-.19v2.1zm.92-2.91h.7a3.16 3.16 0 00.82-.06.5.5 0 00.18-.19.71.71 0 00.09-.38.65.65 0 00-.12-.41.55.55 0 00-.34-.2L88 107h-.71zM90.61 108.67a3.52 3.52 0 01.21-1.29 2.4 2.4 0 01.42-.69 1.77 1.77 0 01.59-.45 2.27 2.27 0 011-.2 2 2 0 011.6.69 3.36 3.36 0 010 3.83 2.21 2.21 0 01-3.2 0 2.78 2.78 0 01-.62-1.89zm.94 0a2 2 0 00.36 1.3 1.14 1.14 0 001.8 0 2.07 2.07 0 00.35-1.31 2 2 0 00-.34-1.29 1.18 1.18 0 00-1.82 0 2 2 0 00-.34 1.26zM95.67 111.16v-5H97l.8 3.43.79-3.43H100v5h-.83v-4l-.88 4h-.86l-.88-4v4zM101 111.16v-5h3.36v.84H102v1.12h2.28v.85H102v1.37h2.53v.85zM104.92 78.29l-14.43-5.41-.75-.28-.56.56-3.71 3.71-1.36 1.36 1.81.67 10.32 3.85L78 89.55l-18.17-6.79 10.32-3.85 1.85-.67-1.36-1.36-3.71-3.71-.56-.56-.75.28-14.48 5.4-.8.3v14.95l.8.3 26.45 9.92.44.16.44-.16 26.45-9.92.8-.3V78.6zm.18 1.18v13.66l-.4.15-26.45 9.92-.22.08-.22-.08-26.45-9.92-.4-.15V79l.4-.15 14.43-5.41.37-.14.28.28 3.71 3.71.68.68-.9.34-11.88 4.47 20 7.45 20-7.45-11.92-4.43-.9-.34.68-.68 3.71-3.71.28-.28.37.14 14.43 5.41.4.15z"/><path class="cls-5" d="M77.16 80.33l.88.88.88-.88L92.14 67.1l2.11-2.1H82.58V51.76h-9.09V65H61.81l2.12 2.12zm-12.35-14.7h9.3V52.4H82v13.23h10.8l-1.1 1.06-13.23 13.22-.44.44-.44-.44-13.22-13.22-1.06-1.06z"/><path class="cls-5" d="M78 79.5l13.26-13.23h-9.92V53h-6.61v13.27h-9.92zm12-5.41l-3.71 3.71 13.44 5L78 90.92 56.28 82.8l13.44-5L66 74.09 51.58 79.5v13.22L78 102.64l26.45-9.92V79.5z"/><path class="cls-6" d="M257.76 39.09L257 40a4.19 4.19 0 01-1-.71 2.54 2.54 0 01-.8.5 2.83 2.83 0 01-1 .16 2.22 2.22 0 01-1.74-.65 1.68 1.68 0 01-.45-1.15 1.74 1.74 0 01.35-1.07 2.9 2.9 0 011.06-.82 3.36 3.36 0 01-.48-.71 1.5 1.5 0 01-.16-.64 1.21 1.21 0 01.45-1 1.9 1.9 0 011.28-.39 1.8 1.8 0 011.25.41 1.3 1.3 0 01.45 1 1.27 1.27 0 01-.22.71 3 3 0 01-.9.76l.86 1.13a2.89 2.89 0 00.26-.7l1.07.24a6.6 6.6 0 01-.28.93 2.23 2.23 0 01-.25.44 4.82 4.82 0 00.51.41 3.87 3.87 0 00.5.24zM254.07 37a1.6 1.6 0 00-.61.5 1 1 0 00-.2.59.83.83 0 00.25.63.93.93 0 00.67.24 1.35 1.35 0 00.54-.11 2.34 2.34 0 00.56-.36zm.46-1.29l.32-.24a.74.74 0 00.35-.54.51.51 0 00-.17-.39.75.75 0 00-.9 0 .42.42 0 00-.16.33.89.89 0 00.27.53zM195.55 37.49l1.66.53a3.71 3.71 0 01-1.27 2.06 4 4 0 01-5-.48 4.4 4.4 0 01-1.09-3.15 4.62 4.62 0 011.09-3.28A3.75 3.75 0 01193.8 32a3.53 3.53 0 012.53.92 3.34 3.34 0 01.87 1.56l-1.69.4a1.75 1.75 0 00-1.79-1.42 1.93 1.93 0 00-1.53.68 3.31 3.31 0 00-.59 2.19 3.54 3.54 0 00.58 2.29 1.88 1.88 0 001.5.68 1.71 1.71 0 001.17-.43 2.51 2.51 0 00.7-1.38zM199.63 40.61v-8.47h1.71v3.33h3.35v-3.33h1.71v8.46h-1.71v-3.7h-3.35v3.7zM216.76 40.61h-1.86l-.74-1.92h-3.39l-.7 1.92h-1.81l3.3-8.46h1.81zm-3.15-3.35l-1.17-3.14-1.14 3.14zM218.62 40.61v-8.47h3.6a6.17 6.17 0 012 .23 2 2 0 011 .81 2.44 2.44 0 01.37 1.33 2.26 2.26 0 01-.56 1.57 2.69 2.69 0 01-1.68.78 4 4 0 01.92.71 9.66 9.66 0 011 1.37l1 1.65h-2l-1.24-1.84a12 12 0 00-.9-1.24 1.32 1.32 0 00-.51-.35 2.84 2.84 0 00-.86-.1h-.35v3.53zm1.71-4.88h1.27a6.54 6.54 0 001.54-.1.92.92 0 00.48-.36 1.1 1.1 0 00.17-.63 1 1 0 00-.23-.69 1.05 1.05 0 00-.64-.33h-2.58zM232 37.49v-1.42h3.69v3.37a4.64 4.64 0 01-1.56.92 5.67 5.67 0 01-2.07.4 4.64 4.64 0 01-2.32-.56 3.54 3.54 0 01-1.49-1.59 5.14 5.14 0 01-.5-2.25 4.87 4.87 0 01.55-2.35 3.73 3.73 0 011.7-1.59 4.38 4.38 0 012-.42 4.05 4.05 0 012.46.66 3 3 0 011.14 1.83l-1.7.32a1.79 1.79 0 00-.67-1 2 2 0 00-1.23-.36 2.32 2.32 0 00-1.78.71 3 3 0 00-.66 2.11 3.31 3.31 0 00.67 2.26 2.24 2.24 0 001.76.75 2.94 2.94 0 001.08-.21 3.69 3.69 0 00.93-.51v-1.07zM238.25 40.61v-8.47h6.28v1.43H240v1.88h4.25v1.43H240v2.3h4.73v1.43zM265.06 40.61v-8.47h3.6a6.17 6.17 0 012 .23 2 2 0 011 .81 2.44 2.44 0 01.37 1.33 2.26 2.26 0 01-.56 1.57 2.69 2.69 0 01-1.68.78 4 4 0 01.92.71 9.66 9.66 0 011 1.37l1 1.65h-2l-1.24-1.84a12 12 0 00-.9-1.24 1.32 1.32 0 00-.51-.35 2.84 2.84 0 00-.86-.1h-.35v3.53zm1.71-4.88H268a6.54 6.54 0 001.54-.1.92.92 0 00.48-.36 1.1 1.1 0 00.17-.63 1 1 0 00-.23-.69 1.05 1.05 0 00-.64-.33h-2.58zM274.2 36.43a5.38 5.38 0 01.39-2.17 4 4 0 01.79-1.16 3.29 3.29 0 011.09-.76 4.65 4.65 0 011.83-.33 4 4 0 013 1.16 4.44 4.44 0 011.12 3.23 4.43 4.43 0 01-1.12 3.21 4 4 0 01-3 1.16 4 4 0 01-3-1.15 4.37 4.37 0 01-1.1-3.19zm1.76-.06a3.17 3.17 0 00.66 2.18 2.29 2.29 0 003.37 0 3.23 3.23 0 00.66-2.21 3.18 3.18 0 00-.64-2.17 2.37 2.37 0 00-3.4 0 3.2 3.2 0 00-.61 2.2zM286.92 40.61V37l-3.1-4.9h2l2 3.35 2-3.35h2l-3.11 4.91v3.55zM301.17 40.61h-1.86l-.74-1.92h-3.39l-.7 1.92h-1.81l3.3-8.46h1.81zM298 37.26l-1.17-3.14-1.14 3.14zM303.07 40.61v-8.4h1.71v7H309v1.43zM313.11 40.61v-7h-2.51v-1.47h6.73v1.43h-2.51v7zM321.6 40.61V37l-3.1-4.9h2l2 3.35 2-3.35h2l-3.11 4.91v3.55zM332.46 40.61v-8.47h5.81v1.43h-4.1v2h3.54V37h-3.54v3.6zM340.63 40.61v-8.47h3.6a6.17 6.17 0 012 .23 2 2 0 011 .81 2.44 2.44 0 01.37 1.33 2.26 2.26 0 01-.56 1.57 2.69 2.69 0 01-1.68.78 4 4 0 01.92.71 9.66 9.66 0 011 1.37l1 1.65h-2L345 38.76a12 12 0 00-.9-1.24 1.32 1.32 0 00-.51-.35 2.84 2.84 0 00-.86-.1h-.35v3.53zm1.71-4.88h1.27a6.54 6.54 0 001.54-.1.92.92 0 00.48-.36 1.1 1.1 0 00.17-.63 1 1 0 00-.23-.69 1.05 1.05 0 00-.64-.33h-2.58zM350.12 40.61v-8.47h6.28v1.43h-4.57v1.88h4.25v1.43h-4.25v2.3h4.73v1.43zM359 40.61v-8.47h6.28v1.43h-4.57v1.88h4.25v1.43h-4.25v2.3h4.73v1.43zM372 32.14h3.39a9.79 9.79 0 011.5.08 2.2 2.2 0 01.88.35 2.17 2.17 0 01.65.71 1.91 1.91 0 01.26 1 2 2 0 01-1.19 1.84 2.23 2.23 0 011.19.77 2 2 0 01.42 1.28 2.52 2.52 0 01-.27 1.12 2.27 2.27 0 01-.73.87 2.43 2.43 0 01-1.15.4q-.43 0-2.06.06H372zm1.71 1.41v2H376.07a1.13 1.13 0 00.69-.3.89.89 0 00.25-.66.93.93 0 00-.22-.64 1 1 0 00-.64-.3h-1.46zm0 3.37v2.26h1.58a7.76 7.76 0 001.17-.05 1.06 1.06 0 00.62-.34 1 1 0 00.24-.72 1.1 1.1 0 00-.18-.65 1 1 0 00-.53-.39 5.82 5.82 0 00-1.52-.12zM385.46 37.49v-1.42h3.69v3.37a4.64 4.64 0 01-1.56.92 5.67 5.67 0 01-2.07.4 4.64 4.64 0 01-2.32-.56 3.54 3.54 0 01-1.49-1.59 5.14 5.14 0 01-.5-2.25 4.87 4.87 0 01.55-2.35 3.73 3.73 0 011.62-1.58 4.38 4.38 0 012-.42 4.05 4.05 0 012.46.66 3 3 0 011.16 1.82l-1.7.32a1.79 1.79 0 00-.67-1 2 2 0 00-1.23-.36 2.32 2.32 0 00-1.78.71 3 3 0 00-.66 2.11 3.31 3.31 0 00.67 2.26 2.24 2.24 0 001.76.75 2.94 2.94 0 001.08-.21 3.69 3.69 0 00.93-.51v-1.07zM391.65 40.61v-8.47h2.56l1.54 5.77 1.52-5.77h2.57v8.46h-1.59v-6.65l-1.68 6.66h-1.65l-1.68-6.66v6.66zM280.72 68.01h6.84v3.17h-6.84zM200.63 79a6.81 6.81 0 002.72-1.54 8.73 8.73 0 002.07-3.46 13.31 13.31 0 00.6-4.24 15 15 0 00-.64-4.72 8.64 8.64 0 00-1.85-3.18 6.41 6.41 0 00-2.88-1.78 14.11 14.11 0 00-3.74-.37h-7.08v19.74h7.3a11.92 11.92 0 003.5-.45zm-7.1-2.28a.38.38 0 01-.39-.38V62.81a.38.38 0 01.39-.38h1.83a18.31 18.31 0 013.44.21 4.26 4.26 0 012.07 1.06 5.09 5.09 0 011.26 2.14 12.59 12.59 0 01.43 3.76 13.94 13.94 0 01-.43 3.86A4.65 4.65 0 01201 75.6a4.16 4.16 0 01-1.82.94 11.2 11.2 0 01-2.57.21zM221.48 59.38a10.66 10.66 0 00-4.21.78 7.52 7.52 0 00-2.49 1.76 9.33 9.33 0 00-1.81 2.7 12.87 12.87 0 00-.89 5.1 10.34 10.34 0 002.56 7.42 10.15 10.15 0 0013.73 0 10.5 10.5 0 002.56-7.5c0-3.22-.87-5.76-2.58-7.55a9.1 9.1 0 00-6.87-2.71zm4.34 15.73a5.8 5.8 0 01-8.62 0 8.12 8.12 0 01-1.68-5.52 8.19 8.19 0 011.64-5.59 6 6 0 018.71 0 8.15 8.15 0 011.62 5.5 8.28 8.28 0 01-1.66 5.61zM244.59 74.88a.39.39 0 01-.37-.26l-5-14.9h-3.61l7 19.72h3.81l7-19.72h-3.51L245 74.62a.39.39 0 01-.41.26zM263.83 59.72l-7.59 19.72h3.5l1.58-4.4a.39.39 0 01.36-.25h8.09a.39.39 0 01.36.25l1.67 4.41h3.61l-7.8-19.72zm4.95 12.22a.39.39 0 01-.32.16h-5.52a.39.39 0 01-.32-.16.37.37 0 010-.34l2.73-7.6a.39.39 0 01.36-.25.39.39 0 01.29.25l2.79 7.6a.37.37 0 01-.01.34zM308.61 77a5.74 5.74 0 00.91-3.1 5.82 5.82 0 00-.75-3.07 5.36 5.36 0 00-2.09-1.94 19.35 19.35 0 00-4.32-1.44 10.78 10.78 0 01-3.92-1.45 2 2 0 01-.74-1.53 1.86 1.86 0 01.8-1.57 5 5 0 013-.82 4.48 4.48 0 012.83.78 3.69 3.69 0 011.2 2.17l3.36-.15A5.57 5.57 0 00307 61a8.14 8.14 0 00-5.48-1.59 9.67 9.67 0 00-3.83.68 5.15 5.15 0 00-2.31 1.91 5.05 5.05 0 00.92 6.57 10.74 10.74 0 004.44 1.94c1.7.43 2.81.73 3.3.9a3.71 3.71 0 011.64 1 2.26 2.26 0 01.51 1.48 2.89 2.89 0 01-1.13 2.26 4.9 4.9 0 01-3.23.94 4.76 4.76 0 01-3.22-1 5.08 5.08 0 01-1.51-2.85l-3.23.32a7.32 7.32 0 002.28 4.61 8.36 8.36 0 005.64 1.7 11 11 0 004.25-.72 5.46 5.46 0 002.57-2.15zM324.57 79.45v-8.22a.37.37 0 01.06-.2l7.08-11.31h-3.79l-4.55 7.91a.31.31 0 01-.34.19.39.39 0 01-.34-.19L318 59.72h-3.88L321.21 71a.37.37 0 01.06.2v8.24zM349.33 73.39a.39.39 0 01-.43-.17l-8.17-13.49h-3.37v19.72h3v-13a.38.38 0 01.28-.36.39.39 0 01.43.17l8 13.17h3.49V59.72h-3V73a.38.38 0 01-.23.39zM374.49 61.88a6.4 6.4 0 00-2.88-1.78 14.11 14.11 0 00-3.74-.37h-7.07v19.72h7.3a11.91 11.91 0 003.5-.41 6.82 6.82 0 002.72-1.54 8.72 8.72 0 002.06-3.5 13.31 13.31 0 00.6-4.24 15 15 0 00-.64-4.72 8.62 8.62 0 00-1.85-3.16zm-1.39 11.58a4.66 4.66 0 01-1.18 2.15 4.15 4.15 0 01-1.82.94 11.21 11.21 0 01-2.57.21h-3a.38.38 0 01-.39-.38V62.81a.38.38 0 01.39-.38h1.84a18.31 18.31 0 013.44.21 4.26 4.26 0 012.07 1.06 5.09 5.09 0 011.26 2.14 12.79 12.79 0 01.43 3.76 14 14 0 01-.46 3.86zM388.42 70.9a6.92 6.92 0 012.19.25 3.52 3.52 0 011.38 1 28.71 28.71 0 012.19 3.06l2.82 4.24h4L398.89 76a23.16 23.16 0 00-2.28-3.27 9.21 9.21 0 00-2.1-1.65.38.38 0 01-.18-.4.38.38 0 01.32-.3 6 6 0 003.77-1.77 5.17 5.17 0 001.24-3.56 5.61 5.61 0 00-.83-3 4.25 4.25 0 00-2.16-1.81 14.31 14.31 0 00-4.57-.53h-8.21v19.74h3.31v-8.17a.38.38 0 01.39-.38zM387.2 68v-5.2a.38.38 0 01.39-.38h3.19a28.54 28.54 0 013 .07 2.89 2.89 0 011.78.94 2.84 2.84 0 01.64 1.91 3.07 3.07 0 01-.48 1.74 2.59 2.59 0 01-1.34 1 13.48 13.48 0 01-3.8.27h-3a.38.38 0 01-.38-.35zM415.51 59.38a10.65 10.65 0 00-4.21.78 7.51 7.51 0 00-2.49 1.76 9.32 9.32 0 00-1.81 2.7 12.87 12.87 0 00-.89 5.1 10.34 10.34 0 002.56 7.42 10.15 10.15 0 0013.73 0 10.5 10.5 0 002.56-7.5c0-3.22-.87-5.76-2.58-7.55a9.1 9.1 0 00-6.87-2.71zm4.34 15.73a5.8 5.8 0 01-8.62 0 8.12 8.12 0 01-1.68-5.52 8.2 8.2 0 011.64-5.59 6 6 0 018.71 0 8.15 8.15 0 011.62 5.5 8.28 8.28 0 01-1.66 5.61zM446.37 63.33a.38.38 0 01.34.38v15.74h3V59.72h-5.44l-3.55 13.68a.38.38 0 01-.37.29.39.39 0 01-.37-.28l-3.6-13.68H431v19.72h3V63.7a.38.38 0 01.34-.38.4.4 0 01.42.29l3.93 15.83H442l3.94-15.83a.4.4 0 01.43-.28zM457.22 79.45h14.62v-2.7h-10.92a.38.38 0 01-.39-.38V70.8a.38.38 0 01.39-.38h9.77v-2.69h-9.77a.38.38 0 01-.39-.38v-4.54a.38.38 0 01.39-.38h10.53v-2.71h-14.23z"/></g></g></svg>