<svg xmlns="http://www.w3.org/2000/svg" width="128" height="28" viewBox="0 0 128 28" fill="none"><g clip-path="url(#clip0_163_2431)"><path d="M23.5191 19.0477H31.2859V21.2644H20.9445V6.08997H31.1063V8.3067H23.5191V12.3532H30.9672V14.5699H23.5191V19.0477Z" fill="white"></path><path d="M33.041 16.6324H35.7168C35.9697 18.4887 37.4125 19.4068 39.2701 19.4068C41.6854 19.4068 43.0233 18.4495 43.0233 17.0712C43.0233 15.6334 41.9256 15.254 39.6887 14.7558L37.6528 14.3157C35.197 13.7771 33.5 12.5391 33.5 10.2035C33.5 7.68832 35.9962 5.85095 39.1702 5.85095C42.6237 5.85095 44.7607 7.58842 45.1995 10.0846H42.5238C42.085 8.58614 40.847 7.94755 39.1702 7.94755C37.453 7.94755 36.0759 8.7265 36.0759 9.96448C36.0759 11.2214 36.9737 11.6413 39.1904 12.1408L41.2061 12.5795C44.1613 13.2384 45.5789 14.4169 45.5789 16.7917C45.5789 19.647 43.0498 21.5034 39.2094 21.5034C35.8748 21.5084 33.4798 19.6673 33.041 16.6324Z" fill="white"></path><path d="M48.132 21.2644V6.08997H50.7078V21.2644H48.132Z" fill="white"></path><path d="M56.7562 19.0477H63.5239V21.2644H54.1803V6.08997H56.7562V19.0477Z" fill="white"></path><path d="M65.599 21.2644V6.08997H68.1736V21.2644H65.599Z" fill="white"></path><path d="M74.2219 19.0477H81.9886V21.2644H71.6473V6.08997H81.8091V8.3067H74.2219V12.3532H81.67V14.5699H74.2219V19.0477Z" fill="white"></path><path d="M95.8619 6.09123H98.4377V21.2656H93.3075L87.3768 6.39219V21.2644H84.8022V6.08997H89.9325L95.8619 20.9634V6.09123Z" fill="white"></path><path d="M101.07 13.6772C101.07 8.9263 104.165 5.85095 108.317 5.85095C111.852 5.85095 114.467 7.92732 115.265 11.1418H112.57C111.938 9.32589 110.614 7.94755 108.317 7.94755C105.543 7.94755 103.726 10.2642 103.726 13.6772C103.726 17.1116 105.643 19.4068 108.297 19.4068C110.534 19.4068 111.991 18.2295 112.69 16.1936H115.366C114.367 19.7672 111.771 21.5046 108.297 21.5046C104.205 21.5084 101.07 18.4293 101.07 13.6772Z" fill="white"></path><path d="M120.234 19.0477H128V21.2644H117.659V6.08997H127.82V8.3067H120.233V12.3532H127.68V14.5699H120.233L120.234 19.0477Z" fill="white"></path><path d="M14.9544 14.9176C16.8866 14.2613 18.0184 12.73 18.0184 10.7232C18.0184 7.91465 15.8295 6.09119 12.328 6.09119H6.49213V21.2656H9.08189V15.3223H12.2913L15.7928 21.2656H18.7467L14.9544 14.9176ZM12.4013 13.1309H9.08189V8.2801H12.4013C14.2614 8.2801 15.3553 9.19183 15.3553 10.7232C15.3553 12.2545 14.2614 13.1309 12.4013 13.1309Z" fill="white"></path><path d="M0 0V27.3557H22.3861L21.0785 25.168H2.58977V2.18891H7.35201L6.04448 0H0Z" fill="white"></path></g><defs><clipPath id="clip0_163_2431"><rect width="128" height="27.3557" fill="white"></rect></clipPath></defs></svg>