<?xml version="1.0" encoding="UTF-8" standalone="no"?>
<svg xmlns:rdf="http://www.w3.org/1999/02/22-rdf-syntax-ns#" xmlns="http://www.w3.org/2000/svg" height="361.73669" width="240.006" version="1.1" xmlns:cc="http://creativecommons.org/ns#" xmlns:dc="http://purl.org/dc/elements/1.1/" viewBox="0 0 240.006 361.73669"><defs><clipPath id="clip-path" transform="translate(0 -0.00006)"><path d="M63.86591,12.39c-.998.798-.363,1.651-.576,2.35-2.213,1.297-4.272,4.252-6.832,5.674-1.671.929-3.852.335-5.404,1.208a3.89721,3.89721,0,0,0-3.268-.382A135.484,135.484,0,0,0,6.9149,62.311V206.418a134.13292,134.13292,0,0,0,226.559.008V62.306a135.081,135.081,0,0,0-60.733-51.605c-.695-.297-1.865.75-2.285,1.066a5.41748,5.41748,0,0,1-5.392.606c-.365-.147-1.461-.75-1.824-.891a15.55961,15.55961,0,0,1-6.368-4.977,2.31532,2.31532,0,0,0-1.083-1.724,134.48521,134.48521,0,0,0-91.923,7.609" fill="none"/></clipPath><radialGradient id="radial-gradient" cx="-176.64515" cy="601.2289" r="1" gradientTransform="matrix(124.26897, 0, 0, -124.26895, 22054.40993, 74804.34758)" gradientUnits="userSpaceOnUse"><stop offset="0" stop-color="#fff"/><stop offset="1" stop-color="#f37920"/></radialGradient></defs><title>Ratiopharm Ulm logo</title><path d="M221.464,21.32477H18.536A18.55527,18.55527,0,0,0,0,39.85681v303.358a18.55053,18.55053,0,0,0,18.536,18.522H221.464a18.55245,18.55245,0,0,0,18.542-18.522V39.85681a18.55719,18.55719,0,0,0-18.542-18.532" transform="translate(0 -0.00006)"/><g clip-path="url(#clip-path)"><rect x="6.9149" width="226.55899" height="268.72595" fill="url(#radial-gradient)"/></g><path d="M156.87239,6.50562c6.767,21.131,6.166,64.646-1.379,97.953-.176.764-.236,1.553-.365,2.344-.237-.082-.473-.156-.717-.231a344.127,344.127,0,0,0-41.027-9.666c.98-4.912.791-9.931.697-15.207-.461-25.55-25.449-47.349-50.791-66.959l-12.237,6.883c30.159,21.029,47.928,43.856,49.868,61.522a35.67148,35.67148,0,0,1-.379,10.201c-.102.527-.217,1.047-.325,1.566-30.697-4.06-63.111-3.89-91.81.528,0,4.418-.027,8.857-.027,13.308,28.482-4.687,59.3-4.662,87.041-1.223-7.473,14.147-21.307,28.028-35.67,42.417-10.471,10.488-21.518,21.568-30.86,33.615H8.2124v8.66h223.175v-8.66h-27.267c-.082-1.819-.162-3.637-.244-5.432-.608-13.203-1.176-25.502.513-36.596q2.283,1.269,4.481,2.569a163.78935,163.78935,0,0,1,22.517,15.746v-16.713a202.04411,202.04411,0,0,0-23.591-14.744c3.931-10.059,11.064-18.754,23.591-25.766V87.8316c-18.093,8.385-28.484,19.369-34.306,31.834-.42.899-.824,1.817-1.197,2.729a292.39213,292.39213,0,0,0-27.772-11.342c7.885-32.447,8.074-76.824,2.344-99.285Zm7.471,124.258c.486-2.194.931-4.389,1.376-6.592,1.487.533,2.961,1.08,4.407,1.635l21.962,9.361c-2.797,13.861-2.116,28.803-1.426,43.565.068,1.607.148,3.209.215,4.824h-42.451a347.89617,347.89617,0,0,0,15.917-52.793m-50.938-20.51a328.20057,328.20057,0,0,1,39.385,9.602,344.22851,344.22851,0,0,1-18.862,63.701H45.9774c7.207-8.305,15.213-16.338,23.137-24.268,16.457-16.482,32.291-32.361,40.143-49.758,1.39.231,2.769.481,4.148.723" transform="translate(0 -0.00006)"/><path d="M69.1144,159.28088c-7.924,7.938-15.93,15.957-23.145,24.268h4.108c7.432-8.655,15.748-17.004,23.982-25.254,15.916-15.948,31.252-31.321,39.346-48.047-1.379-.25-2.758-.492-4.148-.729-7.852,17.403-23.686,33.282-40.143,49.762" transform="translate(0 -0.00006)" fill="#fff"/><path d="M152.9796,183.54849a347.00139,347.00139,0,0,0,16.309-53.783c.289-1.324.566-2.649.843-3.973q-2.18848-.82951-4.412-1.629-.66751,3.29549-1.377,6.592a348.86572,348.86572,0,0,1-15.916,52.793Z" transform="translate(0 -0.00006)" fill="#fff"/><path d="M204.3839,141.52307c-1.684,11.092-1.121,23.398-.508,36.594q.123,2.6955.244,5.426h4.987c-.088-2.151-.19-4.297-.285-6.413-.54-11.808-1.053-22.896.054-33.046q-2.208-1.299-4.492-2.561" transform="translate(0 -0.00006)" fill="#fff"/><path d="M195.89171,122.38049c.365-.912.77-1.824,1.189-2.723-7.602-3.437-15.633-6.654-24.017-9.605,5.898-30.738,8.257-72.641-.361-99.365,0,0-.149-.133-.586.002a3.21625,3.21625,0,0,0-.809.435,8.80878,8.80878,0,0,0-.852.643c6.02,24.521,5,68.951-2.343,99.277a294.63271,294.63271,0,0,1,27.779,11.336" transform="translate(0 -0.00006)" fill="#fff"/><path d="M114.03041,81.67346a49.34764,49.34764,0,0,1-.701,15.213,344.27616,344.27616,0,0,1,41.033,9.668c.242.074.473.148.717.223.121-.784.242-1.569.365-2.338a340.18513,340.18513,0,0,0-37.158-8.539,49.36972,49.36972,0,0,0,.689-15.215c-2.086-18.983-28.664-50.608-55.072-68.313a1.1967,1.1967,0,0,0-.613.746,6.17767,6.17767,0,0,0,0,1.627c25.711,20.071,48.64,47.924,50.74,66.928" transform="translate(0 -0.00006)" fill="#fff"/><path d="M221.464,26.519H200.196c1.493,1.11505,2.946,2.283,4.399,3.459h16.869a9.87732,9.87732,0,0,1,9.883,9.873v62.774c-12.504,7.002-19.639,15.689-23.557,25.746a202.096,202.096,0,0,1,23.557,14.72v49.217H8.659V95.97a332.06769,332.06769,0,0,1,91.553-1.074c.121-.527.231-1.047.318-1.568A328.65726,328.65726,0,0,0,8.659,95.39V39.851a9.87473,9.87473,0,0,1,9.877-9.873H35.79c1.445-1.176,2.899-2.344,4.391-3.459H18.536A13.35221,13.35221,0,0,0,5.2,39.851V343.205a13.3475,13.3475,0,0,0,13.336,13.322H221.464a13.34876,13.34876,0,0,0,13.342-13.322V39.851a13.35347,13.35347,0,0,0-13.342-13.332m-8.729,100.858c3.383-8.643,9.12-16.274,18.612-22.7v33.959a209.23494,209.23494,0,0,0-18.612-11.259m8.729,225.691H18.536a9.87391,9.87391,0,0,1-9.877-9.863V277.289H231.347v65.916a9.8765,9.8765,0,0,1-9.883,9.863" transform="translate(0 -0.00006)" fill="#fff"/><path d="M33.94881,227.70468c.088,1.404.141,2.541.162,3.4l.039,13.639h4.92v-8.453a6.40466,6.40466,0,0,1,.66-3.012,2.63783,2.63783,0,0,1,1.121-.879,3.7523,3.7523,0,0,1,1.272-.384h2.146v-4.506a6.79087,6.79087,0,0,0-3.33.582,4.87354,4.87354,0,0,0-2.316,2.701h-.069l-.093-3.088Z" transform="translate(0 -0.00006)"/><path d="M51.49989,232.52908a2.50294,2.50294,0,0,1,.459-1.526,1.869,1.869,0,0,1,1.744-.927,2.45172,2.45172,0,0,1,1.133.224,1.54652,1.54652,0,0,1,.689.528,2.51276,2.51276,0,0,1,.461,1.349v1.608a22.83916,22.83916,0,0,0-3.23.068,11.63114,11.63114,0,0,0-3.243.844,6.21731,6.21731,0,0,0-1.797,1.191,6.60406,6.60406,0,0,0-1.076,1.531,5.13811,5.13811,0,0,0-.531,1.487,7.44168,7.44168,0,0,0-.137,1.176,4.84391,4.84391,0,0,0,1.555,3.816,5.73235,5.73235,0,0,0,3.879,1.359,5.4601,5.4601,0,0,0,5.078-2.783h.068a16.13459,16.13459,0,0,0,.168,2.27h4.454c-.088-.453-.163-1.082-.231-1.879v-9.287a7.00156,7.00156,0,0,0-.635-3.184,4.613,4.613,0,0,0-1.621-1.937,8.83932,8.83932,0,0,0-4.824-1.258,9.81341,9.81341,0,0,0-4.883,1.095,4.157,4.157,0,0,0-1.588,1.553,5.94487,5.94487,0,0,0-.656,2.682Zm4.486,4.201c0,.5-.014,1.049-.041,1.631a5.14639,5.14639,0,0,1-.318,1.66,2.67851,2.67851,0,0,1-.825,1.297,2.44185,2.44185,0,0,1-1.668.547,2.22432,2.22432,0,0,1-1.703-.709,2.287,2.287,0,0,1-.695-1.75,2.18971,2.18971,0,0,1,.594-1.627,3.32538,3.32538,0,0,1,1.426-.785,6.8204,6.8204,0,0,1,1.709-.297,11.97262,11.97262,0,0,1,1.521.033" transform="translate(0 -0.00006)"/><path d="M63.0856,227.70468v3.393h3.316v8.39a7.78627,7.78627,0,0,0,.926,4.242c.644.993,1.9,1.508,3.777,1.528a15.74688,15.74688,0,0,0,2.015-.19c.444-.06.822-.129,1.147-.189a2.09812,2.09812,0,0,0,.73-.135v-2.98a12.35741,12.35741,0,0,1-1.582.101c-.836.022-1.385-.181-1.646-.615a3.936,3.936,0,0,1-.401-2.242v-7.91h3.725v-3.393h-3.725v-5.188l-4.966,1.825v3.363Z" transform="translate(0 -0.00006)"/><path d="M78.32089,244.75h4.951V227.713h-4.951Zm-.123-20.133h5.244V220.24h-5.244Z" transform="translate(0 -0.00006)"/><path d="M91.45418,236.23007a16.36608,16.36608,0,0,1,.134-2.08,5.92685,5.92685,0,0,1,.508-1.791,3.23745,3.23745,0,0,1,1.066-1.281,3.08969,3.08969,0,0,1,1.817-.487,3.27064,3.27064,0,0,1,1.865.487,2.99219,2.99219,0,0,1,1.068,1.281,6.61675,6.61675,0,0,1,.526,1.791c.041.689.068,1.379.068,2.08,0,.67-.027,1.338-.068,2.002a6.58617,6.58617,0,0,1-.526,1.797,3.23128,3.23128,0,0,1-1.068,1.289,3.05527,3.05527,0,0,1-1.865.547,2.89026,2.89026,0,0,1-1.817-.547,3.52123,3.52123,0,0,1-1.066-1.289,5.90777,5.90777,0,0,1-.508-1.797,15.23422,15.23422,0,0,1-.134-2.002m12.146,0a9.38819,9.38819,0,0,0-2.264-6.545,9.32615,9.32615,0,0,0-12.679,0,10.42039,10.42039,0,0,0,0,13.053,9.23678,9.23678,0,0,0,12.679,0,9.33876,9.33876,0,0,0,2.264-6.508" transform="translate(0 -0.00006)"/><path d="M111.53148,236.22971a8.5424,8.5424,0,0,1,.789-3.734,3.629,3.629,0,0,1,1.116-1.359,2.58,2.58,0,0,1,1.662-.545,3.50224,3.50224,0,0,1,1.912.478,2.8533,2.8533,0,0,1,1.047,1.33,5.43357,5.43357,0,0,1,.527,1.791c.039.682.067,1.358.067,2.039,0,.629-.028,1.272-.067,1.942a5.99356,5.99356,0,0,1-.527,1.822,2.90778,2.90778,0,0,1-1.047,1.316,3.08691,3.08691,0,0,1-1.912.555,2.38836,2.38836,0,0,1-1.662-.615,4.04042,4.04042,0,0,1-1.116-1.357,8.39347,8.39347,0,0,1-.789-3.663m-.109-8.525h-5.012c.082,1.129.141,2.264.162,3.4v20.157h4.959v-8.916h.067a5.48981,5.48981,0,0,0,5.033,2.912,6.137,6.137,0,0,0,5.41-2.92,11.23481,11.23481,0,0,0,1.703-6.108,10.60682,10.60682,0,0,0-1.896-6.281,6.98666,6.98666,0,0,0-5.846-2.758,4.84134,4.84134,0,0,0-2.478.684,5.42861,5.42861,0,0,0-1.926,1.803h-.067Z" transform="translate(0 -0.00006)"/><path d="M132.12169,244.74957v-10.248a4.77751,4.77751,0,0,1,.961-2.932,2.484,2.484,0,0,1,1.992-.978,3.33948,3.33948,0,0,1,1.506.297,2.47664,2.47664,0,0,1,.879.957,3.81614,3.81614,0,0,1,.459,1.23,10.02982,10.02982,0,0,1,.096,1.426v10.248h4.959v-11.105a15.14636,15.14636,0,0,0-.327-2.702,3.65882,3.65882,0,0,0-.836-1.675,4.655,4.655,0,0,0-1.474-1.143,6.73444,6.73444,0,0,0-3.108-.926,5.47428,5.47428,0,0,0-5.072,2.588l-.068-.068v-9.479h-4.926v24.51Z" transform="translate(0 -0.00006)"/><path d="M152.12007,232.52908a2.49307,2.49307,0,0,1,.472-1.526,1.87054,1.87054,0,0,1,1.743-.927,2.44127,2.44127,0,0,1,1.123.224,1.57307,1.57307,0,0,1,.701.528,2.53706,2.53706,0,0,1,.447,1.349v1.608a22.77191,22.77191,0,0,0-3.225.068,11.59712,11.59712,0,0,0-3.242.844,5.816,5.816,0,0,0-1.789,1.191,6.36461,6.36461,0,0,0-1.08,1.531,5.09567,5.09567,0,0,0-.535,1.487,6.664,6.664,0,0,0-.129,1.176,4.81436,4.81436,0,0,0,1.549,3.816,5.73524,5.73524,0,0,0,3.869,1.359,5.46025,5.46025,0,0,0,5.082-2.783h.066a17.148,17.148,0,0,0,.176,2.27h4.453a17.62258,17.62258,0,0,1-.236-1.879v-9.287a7.005,7.005,0,0,0-.629-3.184,4.57221,4.57221,0,0,0-1.629-1.937,8.81659,8.81659,0,0,0-4.816-1.258,9.84115,9.84115,0,0,0-4.885,1.095,4.04917,4.04917,0,0,0-1.58,1.553,5.75485,5.75485,0,0,0-.662,2.682Zm4.486,4.201c0,.5-.016,1.049-.035,1.631a5.34084,5.34084,0,0,1-.317,1.66,2.67291,2.67291,0,0,1-.826,1.297,2.43084,2.43084,0,0,1-1.66.547,2.24737,2.24737,0,0,1-1.715-.709,2.29861,2.29861,0,0,1-.691-1.75,2.12961,2.12961,0,0,1,.596-1.627,3.30107,3.30107,0,0,1,1.418-.785,6.91314,6.91314,0,0,1,1.716-.297,11.86937,11.86937,0,0,1,1.514.033" transform="translate(0 -0.00006)"/><path d="M165.0963,227.70468c.082,1.404.129,2.541.156,3.4l.028,13.639h4.931v-8.453a6.32251,6.32251,0,0,1,.662-3.012,2.64391,2.64391,0,0,1,1.121-.879,3.769,3.769,0,0,1,1.27-.384h2.148v-4.506a6.81267,6.81267,0,0,0-3.336.582,4.94528,4.94528,0,0,0-2.318,2.701h-.06l-.094-3.088Z" transform="translate(0 -0.00006)"/><path d="M183.3297,227.70468h-4.932v17.039h4.959v-10.242a4.72547,4.72547,0,0,1,1.028-2.932,2.68169,2.68169,0,0,1,2.121-.978,3.70122,3.70122,0,0,1,1.588.297,2.41025,2.41025,0,0,1,.937.964,3.56088,3.56088,0,0,1,.494,1.223,11.287,11.287,0,0,1,.102,1.426v10.242h4.96v-10.242a4.61185,4.61185,0,0,1,1.019-2.932,2.69714,2.69714,0,0,1,2.102-.978,3.75375,3.75375,0,0,1,1.613.297,2.42529,2.42529,0,0,1,.94.964,3.84853,3.84853,0,0,1,.486,1.223,10.13718,10.13718,0,0,1,.109,1.426v10.242h4.957v-10.236c0-.709-.013-1.397-.027-2.073a6.09549,6.09549,0,0,0-.471-2,3.97351,3.97351,0,0,0-.845-1.332,5.60485,5.60485,0,0,0-1.399-1.005,7.48621,7.48621,0,0,0-3.189-.907,6.62672,6.62672,0,0,0-5.801,3.244,3.76933,3.76933,0,0,0-.846-1.332,5.51057,5.51057,0,0,0-1.398-1.005,7.45933,7.45933,0,0,0-3.191-.907,6.62,6.62,0,0,0-3.173.684,6.06235,6.06235,0,0,0-2.082,1.836h-.061Z" transform="translate(0 -0.00006)"/><rect x="26.9489" y="209.29092" width="186.108" height="5.96301" fill="#f37920"/><rect x="26.9489" y="250.22192" width="186.108" height="5.965" fill="#f37920"/><path d="M97.14421,338.80038h-8.809v-4.857h-.138a14.90785,14.90785,0,0,1-11.725,5.689c-8.463,0-12.141-5.967-12.141-14.014v-22.547h9.295v19.079c0,4.371.071,10.265,6.038,10.265,6.728,0,8.185-7.283,8.185-11.863v-17.481h9.295Z" transform="translate(0 -0.00006)" fill="#fff"/><rect x="105.53889" y="289.54294" width="9.29501" height="49.258" fill="#fff"/><path d="M123.23009,303.07388h8.67v4.992h.141a12.58428,12.58428,0,0,1,10.613-5.828c4.994,0,8.533,1.875,10.545,6.315,2.15-4.303,6.797-6.315,11.168-6.315,8.81,0,11.308,6.037,11.308,14.016v22.547h-9.295v-21.297c0-3.332,0-8.049-5.343-8.049-6.174,0-6.936,7.355-6.936,12v17.346h-9.297v-21.297c0-3.332,0-8.049-5.342-8.049-6.175,0-6.937,7.355-6.937,12v17.346h-9.295Z" transform="translate(0 -0.00006)" fill="#fff"/></svg>