<svg xmlns="http://www.w3.org/2000/svg" xml:space="preserve" id="Livello_1" width="263.054" height="69.2" x="0" y="0" version="1.1" viewBox="0 0 263.054 69.2"><style id="style165" type="text/css">.st0{fill:#1c1c1a}.st1{fill:#af0061}</style><g id="g191" transform="translate(5.05,4.6999969)"><path id="path167" d="M 90.2,54 C 82.6,53.9 79,53 76.8,51.4 c -2.2,-1.6 -3.3,-4.2 -3.3,-7.8 0,-2.1 0.3,-4.9 0.9,-8.4 l 2.1,-10.7 c 0.7,-3.7 1.7,-6.8 2.9,-9.2 1.2,-2.4 2.7,-4.2 4.6,-5.6 1.8,-1.3 4,-2.3 6.5,-2.8 2.5,-0.5 5.6,-0.8 9.2,-0.8 3.2,0 5.7,0.1 7.5,0.2 1.8,0.1 3.4,0.5 4.8,1 1.4,0.5 2.5,1.4 3.2,2.7 0.8,1.2 1.2,2.9 1.2,5.1 0,1.3 -0.1,2.9 -0.4,4.6 l -0.5,2.6 h -9 l 0.5,-2.6 c 0.2,-1 0.3,-1.7 0.3,-2.4 0,-1.5 -0.7,-2.4 -1.9,-2.8 -1.3,-0.4 -3.7,-0.6 -7.2,-0.6 -2.5,0 -4.4,0.1 -5.7,0.4 -1.4,0.3 -2.5,0.8 -3.3,1.5 -0.9,0.7 -1.6,1.8 -2.1,3.1 -0.5,1.4 -1.1,3.2 -1.6,5.7 l -2,10.4 c -0.5,2.8 -0.8,4.8 -0.8,6.1 0,2 0.7,3.3 2,4 1.3,0.7 3.7,1 7.2,1 2.2,0 3.3,-0.1 4.5,-0.2 1.2,-0.1 2.3,-0.3 3.2,-0.7 0.9,-0.4 1.7,-1 2.2,-1.9 0.6,-0.9 1.1,-2.2 1.4,-3.9 l 0.5,-2.6 h 9 l -0.6,3.1 c -0.6,3.2 -1.5,5.8 -2.6,7.7 -1.2,1.9 -2.6,3.4 -4.2,4.2 -1.7,0.9 -3.5,1.4 -5.4,1.7 -2,0.3 -4.7,0.5 -8.4,0.4" class="st0"/><path id="path169" d="m 159.5,53.8 h -7.9 l 6,-30.6 c 0.3,-1.4 1.6,-2.5 3,-2.5 h 5.4 z" class="st0"/><path id="path171" d="m 197.9,43 c -0.5,2.5 -1.3,4.5 -2.3,6 -1,1.5 -2.3,2.6 -3.7,3.3 -1.5,0.7 -3.1,1.1 -4.9,1.3 -1.8,0.2 -4.1,0.3 -6.9,0.3 -4.7,0 -8,-0.6 -9.9,-1.9 -1.9,-1.3 -2.9,-3.5 -2.9,-6.7 0,-2 0.4,-4.7 1.1,-8.2 0.7,-3.2 1.4,-5.9 2.2,-7.9 0.8,-2.1 1.9,-3.8 3.2,-5.1 1.3,-1.3 3.1,-2.3 5.2,-3 2.1,-0.7 4.9,-1 8.2,-1 4.9,0 8.3,0.6 10.2,1.8 1.9,1.2 2.8,3.4 2.8,6.5 0,2.2 -0.5,5.6 -1.5,10.1 h -22.8 c -0.6,2.8 -0.9,4.6 -0.9,5.6 0,1.4 0.4,2.4 1.3,2.9 0.9,0.6 2.5,0.9 4.9,0.9 2.7,0 4.7,-0.3 6,-0.8 1.2,-0.5 2.1,-1.9 2.6,-4.1 z M 192,33 c 0.4,-1.9 0.6,-2.9 0.6,-3.7 0,-1.3 -0.4,-2.2 -1.3,-2.6 -0.9,-0.4 -2.6,-0.6 -5.2,-0.6 -1.8,0 -3.2,0.1 -4.2,0.3 -1,0.2 -1.8,0.6 -2.4,1.1 -0.6,0.5 -1,1.2 -1.4,2.1 -0.3,0.9 -0.7,1.7 -1,3.4 z" class="st0"/><path id="path173" d="m 227.2,30 c 0.1,-0.6 0.5,-1.7 0.5,-2.1 0,-0.7 -0.3,-1.1 -1.1,-1.4 -0.8,-0.3 -2.3,-0.4 -4.5,-0.5 -2.6,0 -4.6,0.2 -5.8,0.6 -1.2,0.4 -2.1,0.9 -2.6,2.9 -0.1,0.6 -0.2,1.1 -0.2,1.5 0,0.9 0.4,1.5 1.3,1.7 0.9,0.3 2.9,0.5 5.9,0.7 l 1.7,0.1 c 2,0.1 3.6,0.3 4.8,0.4 1.2,0.1 2.2,0.5 3.3,0.9 1,0.5 1.8,1.2 2.4,2.1 0.6,0.9 0.8,2.2 0.8,3.7 0,1.1 -0.2,2.3 -0.6,3.7 -0.5,2.2 -1.4,3.9 -2.5,5.2 -1.1,1.3 -2.5,2.3 -4,3 -1.6,0.7 -3.3,1.1 -5.1,1.3 -1.8,0.2 -4,0.2 -6.5,0.2 -2.5,0 -4.5,-0.1 -5.9,-0.2 -1.4,-0.1 -2.7,-0.4 -3.9,-0.8 -1.1,-0.4 -2,-1.2 -2.6,-2.1 -0.6,-1 -0.9,-2.3 -0.8,-3.9 0,-1.1 0.4,-2.4 0.8,-3.9 h 8 c -0.2,1 -0.5,1.8 -0.5,2.4 0,0.9 0.4,1.4 1.2,1.8 0.8,0.4 2.5,0.6 5,0.6 2.9,0.1 5,-0.2 6.2,-0.6 1.2,-0.5 2,-1 2.5,-3 0.2,-0.8 0.3,-1.4 0.3,-1.8 0,-0.9 -0.5,-1.6 -1.5,-2.1 -1,-0.4 -3,-0.7 -6,-0.8 -5,-0.2 -8.4,-0.7 -10.2,-1.5 -1.8,-0.8 -2.7,-2.4 -2.6,-4.7 0,-1.1 0.3,-2.6 0.8,-4.5 0.5,-2.2 1.4,-3.9 2.4,-5.2 1.1,-1.3 2.3,-2.2 3.8,-2.7 1.5,-0.5 3.1,-0.9 4.8,-1 1.7,-0.1 3.9,-0.2 6.5,-0.1 2,0 3.6,0.1 4.9,0.2 1.3,0.1 2.6,0.4 3.8,0.9 1.2,0.4 2.1,1.1 2.8,2.1 0.7,0.9 1,2.2 1,3.8 0,0.9 -0.5,2.2 -0.7,3.2 z" class="st0"/><path id="path175" d="m 243.8,53.8 h -7.9 l 6,-30.5 c 0.3,-1.5 1.6,-2.6 3.2,-2.6 h 5.3 z" class="st0"/><path id="path177" d="m 137.8,53.8 h 7.8 l 4.1,-21.5 c 0.3,-1.8 0.5,-3.7 0.5,-5 0,-2.4 -1.3,-3.9 -2.8,-5 -1.5,-1.1 -4.8,-1.8 -8.1,-1.8 -2.8,0 -6.4,-0.3 -9.8,1.8 l 3.2,-16.2 h -4.8 c -1.8,0 -3.4,1.3 -3.7,3.1 l -8.7,44.7 h 7.9 l 4.7,-24 c 1.2,-4.6 9.8,-3.4 11.2,-3.3 2.9,0.1 3.4,2.7 3.2,3.7" class="st0"/><g id="g185"><path id="path179" d="M 67.5,29.8 53.8,6 47.9,16.3 52.7,24.6 H 40 c 1.6,1.4 2.6,3.3 2.6,5.5 0,2.1 -1,4 -2.6,5.4 H 52.5 L 47.8,43.7 53.7,54 67.4,30.2 c 0.1,-0.1 0.1,-0.3 0.1,-0.4" class="st1"/><path id="path181" d="m 44.5,49.4 v 0 H 22.1 L 10.9,30 22.1,10.6 h 22.4 v 0 L 50.4,0.3 h -31 c -2,0 -3.8,1.1 -4.8,2.8 l -13.9,24 c -1,1.7 -1,3.9 0,5.6 l 13.9,24.1 c 1,1.7 2.8,2.7 4.7,2.7 h 31 z" style="fill:#bbb"/><path id="path183" d="m 38.4,30.1 c 0,2.8 -2.2,5 -5,5 -2.8,0 -5,-2.2 -5,-5 0,-2.8 2.2,-5 5,-5 2.7,0 5,2.2 5,5" class="st1"/></g><path id="path187" d="m 168.5,10.4 c 0.1,2.3 -1.9,4.4 -4.3,4.6 -2.4,0.2 -4.5,-1.4 -4.5,-3.8 -0.1,-2.3 1.9,-4.4 4.3,-4.6 2.5,-0.3 4.5,1.4 4.5,3.8" class="st0"/><path id="path189" d="m 253,10.3 c 0.1,2.3 -1.9,4.4 -4.3,4.6 -2.4,0.2 -4.5,-1.4 -4.5,-3.8 -0.1,-2.3 1.9,-4.4 4.3,-4.6 2.4,-0.2 4.4,1.5 4.5,3.8" class="st0"/></g></svg>