<?xml version="1.0" encoding="UTF-8" standalone="no"?>
<!-- Created with Inkscape (http://www.inkscape.org/) -->
<svg xmlns:rdf="http://www.w3.org/1999/02/22-rdf-syntax-ns#" xmlns="http://www.w3.org/2000/svg" xml:space="preserve" version="1.1" xmlns:cc="http://creativecommons.org/ns#" xmlns:dc="http://purl.org/dc/elements/1.1/" viewBox="0 0 971.24 208.83">
 <g transform="matrix(1.25,0,0,-1.25,0,208.83)">
  <g transform="translate(19.213,105.45)">
   <path fill-rule="nonzero" fill="#007f46" d="m0,0c0-24.889,17.491-45.467,43.22-45.467,11.931,0,22.434,3.9,30.878,12.757,7.597,8.026,12.738,20.367,12.738,31.473,0,25.323-19.944,44.234-45.072,44.234-23.433,0-41.764-19.928-41.764-42.997zm101.67-41.363c0-17.486-0.618-28.193-13.166-41.77-10.922-11.928-28.42-18.317-44.473-18.317-24.687,0-48.973,16.685-55.146,41.368h14.817c8.834-16.659,22.223-26.753,41.565-26.753,14.408,0,29.426,6.59,36.837,19.547,4.933,8.854,4.933,16.043,4.933,25.932v6.161c-7.175-16.848-26.519-24.887-44.018-24.887-14.828,0-29.843,6.384-40.553,16.458-11.939,11.329-17.679,25.727-17.679,42.195,0,15.838,6.568,30.242,10.693,34.778,14.808,18.725,30.637,24.26,46.707,24.26,17.897,0,36.206-8.017,44.85-24.26v21.805l14.633-0.02v-96.497"/>
  </g>
  <g transform="translate(221.742,112.656)">
   <path fill-rule="nonzero" fill="#007f46" d="M0,0c-3.92,19.944-22.231,35.791-43.013,35.791-21.2,0-39.918-15.009-43.624-35.791h86.637zm-86.637-13.781c0.803-21.405,21.624-38.892,42.386-38.892,16.66,0,33.538,9.241,40.331,24.683h15.828c-7.802-22.639-30.857-39.298-54.72-39.298-32.914,0-59.046,25.922-59.046,58.845,0,32.72,25.927,58.846,58.622,58.846,17.722,0,33.968-8.017,45.295-21.797,10.488-12.978,12.74-26.136,13.155-42.387h-101.85"/>
  </g>
  <g transform="translate(236.358,160.584)">
   <path fill-rule="nonzero" fill="#007f46" d="m0,0,14.406,0,0-16.232,0.406,0c8.221,12.137,19.751,18.707,34.558,18.707,15.015,0,29.841-6.57,39.93-18.707,8.649-10.914,10.276-22.862,10.276-37.046v-59.261h-15.207v59.261c0,9.665-0.844,18.704-6.605,26.769-6.775,9.439-17.484,14.372-28.995,14.372-10.504,0-21.412-5.13-27.592-13.771-5.947-8.039-5.765-17.909-5.947-27.37v-59.261h-15.23v112.54"/>
  </g>
  <g transform="translate(330.363,61.416)">
   <path fill-rule="nonzero" fill="#007f46" d="m0,0,60.917,85.396-58.851,0,0,13.771,77.386,0,0-13.771-60.506-84.987,64.425,0,0-13.781h-83.371v13.372"/>
  </g>
  <g transform="translate(503.626,160.584)">
   <path fill-rule="nonzero" fill="#007f46" d="m0,0-65.027-152.06-16.06,0.013,17.71,42.999l-43.223,109.05h16.252l36.01-89.719,38.075,89.719h16.263"/>
  </g>
  <g transform="translate(489.797,160.496)">
   <path fill-rule="nonzero" fill="#007f46" d="m0,0,14.414,0,0-14.614,0.428,0c5.142,11.744,17.065,17.089,29.605,17.089,14.829,0,27.375-6.186,36.449-17.089,1.018-1.439,1.827-2.868,2.862-4.315,0.616,1.447,1.44,2.672,2.267,4.315,7.809,10.903,22.421,17.089,35.609,17.089,12.134,0,23.855-5.985,34.979-17.089,9.049-9.042,10.49-20.571,10.49-33.744v-64.204h-15.216v62.745c0,8.25-0.636,17.306-5.571,24.302-6.176,8.634-15.007,13.375-25.525,13.375-9.668,0-19.308-4.946-24.878-12.768-4.944-6.994-4.746-16.659-4.746-24.909v-62.745h-15.225v64.407c0,8.43-0.419,15.026-5.353,22.436-5.777,8.237-15.232,13.579-25.321,13.579-9.432,0-18.912-4.117-24.689-11.938-5.14-7.416-5.338-15.445-5.338-24.077v-64.407h-15.241l0.011,112.56"/>
  </g>
  <g transform="translate(757.757,112.535)">
   <path fill-rule="nonzero" fill="#007f46" d="M0,0c-3.877,19.973-22.201,35.821-42.99,35.821-21.21,0-39.92-15.021-43.625-35.804l86.615-0.017zm-86.615-13.754c0.836-21.418,21.606-38.898,42.374-38.898,16.675,0,33.554,9.237,40.364,24.679h15.829c-7.825-22.638-30.876-39.295-54.731-39.295-32.923-0.009-59.087,25.919-59.087,58.847,0,32.726,25.941,58.857,58.65,58.857,17.713,0,33.97-8.03,45.286-21.829,10.502-12.953,12.77-26.115,13.169-42.361h-101.85"/>
  </g>
 </g>
</svg>
