
<svg xmlns="http://www.w3.org/2000/svg" width="4.26em" height="1em" viewBox="0 0 338 79.465"><title>Acadia logo</title><path fill="#084a51" d="m335.476 44.912-1.194-2.062c.04-.019.084-.028.123-.05q.397-.225.625-.61.23-.386.229-.857 0-.479-.229-.854-.228-.375-.625-.595c-.397-.22-.559-.221-.884-.221H331.2v5.242h1.086v-1.879h.828l1.059 1.879zm-3.19-4.276h1.041a.95.95 0 0 1 .434.094q.188.093.285.258.097.164.097.389 0 .21-.082.378a.6.6 0 0 1-.236.262.67.67 0 0 1-.356.094h-1.183zm.854 6.576c-2.68 0-4.86-2.18-4.86-4.86s2.18-4.86 4.86-4.86 4.86 2.18 4.86 4.86-2.18 4.86-4.86 4.86m0-8.64c-2.084 0-3.78 1.696-3.78 3.78s1.696 3.78 3.78 3.78 3.78-1.696 3.78-3.78-1.696-3.78-3.78-3.78m-208.354-.509-15.657 40h7.942l3.293-8.743h15.704l3.29 8.743h8.227l-15.542-40zm-1.903 24.572 2.475-6.571q.456-1.2.971-2.6.516-1.399 1-2.886.486-1.486.915-2.914l.03-.102c.29.939.6 1.919.941 2.959q.543 1.657 1.028 3.114t.771 2.257l2.537 6.743h-10.669Zm37.272-9.857q-.942 2.372-.942 5.228 0 2.972.913 5.372.914 2.4 2.6 4.086t4.058 2.6q2.37.915 5.286.914 1.827 0 3.571-.514a12.7 12.7 0 0 0 3.228-1.457 15.7 15.7 0 0 0 2.686-2.143l3.943 6.285q-1.372 1.544-3.686 2.8-2.314 1.257-5.143 1.971t-5.743.714q-4.343 0-7.972-1.514a18.7 18.7 0 0 1-6.314-4.286q-2.686-2.771-4.144-6.543-1.456-3.771-1.456-8.286 0-4.4 1.542-8.114a20.1 20.1 0 0 1 4.314-6.514q2.772-2.8 6.457-4.343 3.685-1.542 8.086-1.543 2.857 0 5.6.8a18.8 18.8 0 0 1 5.057 2.314q2.315 1.515 3.915 3.514l-5.086 5.6a16 16 0 0 0-2.886-2.486 13.3 13.3 0 0 0-3.172-1.543 11.1 11.1 0 0 0-3.486-.543q-2.57 0-4.77.914a11.4 11.4 0 0 0-3.858 2.629q-1.657 1.715-2.6 4.086Zm46.392-14.715-15.657 40h7.942l3.293-8.743h15.703l3.29 8.743h8.228l-15.543-40h-7.257Zm-1.903 24.572 2.475-6.571q.456-1.2.971-2.6.514-1.399 1-2.886.486-1.486.915-2.914l.03-.102c.29.939.6 1.919.941 2.959q.543 1.657 1.028 3.114t.771 2.257l2.537 6.743h-10.669Zm62.603-19q-2.571-2.657-6.114-4.114-3.545-1.457-7.886-1.457h-16.228v40h16.228q4.343 0 7.915-1.457 3.57-1.457 6.114-4.114t3.914-6.343q1.372-3.685 1.372-8.086 0-4.457-1.372-8.114-1.37-3.656-3.943-6.314Zm-3.599 19.714q-.801 2.372-2.285 4a10.1 10.1 0 0 1-3.601 2.514q-2.114.886-4.799.886h-7.942V45.377h7.942q2.685 0 4.799.886a9.94 9.94 0 0 1 3.601 2.543q1.484 1.658 2.285 4 .8 2.343.801 5.257c.001 2.914-.268 3.706-.801 5.286m26.756-25.286v40h-8v-40zm37.929 40h8.227l-15.542-40h-7.257l-15.657 40h7.942l3.293-8.743h15.704zm-16.475-15.428 2.475-6.571q.456-1.2.971-2.6.516-1.399 1-2.886.486-1.486.915-2.914l.03-.102c.29.939.601 1.919.942 2.959q.543 1.657 1.028 3.114t.771 2.257l2.537 6.743z"></path><path fill="#f79400" d="m27.538 19.305 23.593 12.003 6.767 11.721-32.321-20.327zm37.36 58.758 1.444-32.236-6.707 11.617 1.342 20.619h3.922Zm30.255-19.742L67.957 40.952l6.707 11.617 18.528 9.148zm26.579-52.556L64.543 37.116h13.792l45.358-27.955zM1.961 79.465l59.352-32.599H47.509L0 76.069zM60.957 0l-1.444 38.154 6.767-11.721L64.878 0z"></path></svg>