<?xml version="1.0" encoding="UTF-8" standalone="no"?>
<!DOCTYPE svg PUBLIC "-//W3C//DTD SVG 1.1//EN" "http://www.w3.org/Graphics/SVG/1.1/DTD/svg11.dtd">
<svg xmlns="http://www.w3.org/2000/svg" version="1.1" viewBox="0.00 0.00 2401.00 458.00">
<path fill="#7d3f98" d="
  M 1418.95 95.50
  L 1489.25 95.50
  Q 1489.75 95.50 1489.75 96.00
  L 1489.75 172.25
  Q 1489.75 172.50 1489.50 172.50
  L 1417.45 172.50
  A 0.44 0.44 0.0 0 0 1417.01 172.94
  Q 1416.97 242.51 1417.03 312.19
  C 1417.03 314.66 1417.29 317.04 1417.29 319.49
  Q 1417.32 334.86 1420.54 348.97
  C 1423.98 364.10 1432.92 374.13 1448.93 376.87
  C 1464.78 379.59 1481.88 377.93 1495.89 370.26
  Q 1496.39 369.99 1496.43 370.56
  L 1501.22 448.27
  Q 1501.26 449.02 1500.54 449.21
  Q 1492.37 451.29 1484.21 452.62
  Q 1455.46 457.34 1423.82 457.21
  C 1378.44 457.04 1331.07 445.10 1313.39 397.61
  Q 1305.48 376.34 1304.89 352.37
  Q 1304.48 335.57 1304.81 300.76
  Q 1305.41 236.86 1306.51 173.05
  A 0.54 0.54 0.0 0 0 1305.97 172.50
  L 1266.31 172.50
  Q 1265.76 172.50 1265.78 171.95
  C 1266.37 152.27 1265.54 132.95 1265.78 113.03
  Q 1265.79 112.45 1266.36 112.35
  C 1291.55 108.10 1314.70 98.77 1330.06 77.97
  Q 1339.14 65.67 1344.73 49.17
  Q 1351.64 28.81 1355.04 1.59
  Q 1355.11 1.00 1355.70 1.00
  L 1422.05 1.00
  Q 1422.66 1.00 1422.61 1.61
  Q 1420.05 33.73 1418.87 65.13
  Q 1418.23 82.16 1418.23 94.79
  Q 1418.23 95.50 1418.95 95.50
  Z"
/>
<path fill="#7d3f98" d="
  M 245.67 134.42
  Q 275.78 104.50 306.84 73.17
  Q 315.35 64.59 320.83 61.07
  C 339.85 48.84 364.07 48.85 383.19 61.24
  Q 388.23 64.50 394.92 71.22
  Q 435.72 112.20 472.08 148.40
  C 491.37 167.60 495.27 196.64 481.00 219.92
  Q 477.96 224.89 469.92 232.93
  C 416.61 286.25 362.46 340.28 307.74 395.24
  Q 276.63 426.49 245.49 457.62
  A 0.36 0.35 44.4 0 1 244.98 457.62
  Q 134.87 347.39 21.89 234.62
  Q 14.27 227.01 10.58 221.58
  C -2.48 202.36 -2.31 177.12 10.48 157.78
  Q 13.86 152.67 23.13 143.43
  Q 62.15 104.51 98.17 68.52
  C 117.38 49.31 147.76 46.44 170.46 61.61
  Q 175.48 64.97 184.31 73.86
  Q 215.52 105.32 244.82 134.42
  Q 245.24 134.85 245.67 134.42
  Z"
/>
<path fill="#7d3f98" d="
  M 1027.77 300.09
  Q 1027.47 309.24 1029.05 318.45
  C 1036.15 360.02 1067.86 380.33 1107.97 383.86
  C 1145.90 387.21 1184.70 377.62 1217.50 359.02
  Q 1217.89 358.79 1217.92 359.25
  L 1222.14 437.75
  Q 1222.17 438.39 1221.58 438.64
  C 1205.34 445.68 1187.24 449.81 1169.90 452.54
  Q 1117.41 460.80 1062.08 455.72
  C 1020.15 451.88 976.62 439.48 947.76 406.84
  C 922.18 377.91 911.79 337.44 908.68 299.43
  A 0.89 0.88 88.5 0 0 907.84 298.62
  Q 875.82 297.28 844.26 297.02
  Q 843.75 297.02 843.73 297.53
  Q 842.51 322.84 842.40 333.37
  Q 842.14 356.18 842.28 382.62
  Q 842.29 383.02 842.44 383.39
  Q 842.54 383.65 842.54 383.94
  Q 842.51 416.41 847.13 448.89
  Q 847.20 449.44 846.66 449.44
  Q 809.91 449.82 773.26 452.17
  Q 748.86 453.73 722.90 455.37
  Q 693.33 457.23 671.37 457.21
  Q 654.50 457.20 637.72 455.40
  C 620.54 453.56 603.19 449.64 587.55 442.36
  Q 547.45 423.69 537.14 379.89
  Q 532.52 360.27 533.29 337.18
  C 534.19 310.11 545.33 286.43 566.80 269.68
  C 587.34 253.65 613.71 245.19 639.86 240.53
  Q 664.93 236.06 693.13 234.99
  Q 714.83 234.16 732.16 234.77
  Q 732.76 234.79 732.76 234.19
  Q 732.77 227.95 732.73 222.06
  C 732.65 208.59 730.73 193.80 724.92 182.54
  C 715.67 164.60 696.91 158.61 676.99 157.60
  Q 654.33 156.46 632.12 161.10
  C 610.78 165.56 589.40 172.99 570.05 183.36
  Q 569.46 183.67 569.42 183.00
  L 565.20 104.69
  Q 565.17 104.15 565.67 103.95
  Q 572.82 100.99 580.32 98.78
  Q 603.29 92.05 629.32 88.60
  C 657.00 84.94 685.46 83.69 713.75 84.78
  C 737.44 85.69 761.96 88.93 783.84 97.92
  Q 815.17 110.78 830.00 138.85
  Q 837.01 152.11 840.65 168.58
  Q 845.38 190.06 845.48 215.04
  Q 845.52 225.30 845.48 235.15
  Q 845.48 235.72 846.05 235.72
  Q 877.41 235.78 908.78 237.29
  Q 909.36 237.32 909.42 236.75
  C 913.98 193.54 928.23 149.84 961.94 121.72
  C 987.70 100.23 1020.73 90.53 1054.12 86.82
  Q 1066.64 85.43 1077.89 85.13
  Q 1085.49 84.93 1092.39 84.71
  C 1093.53 84.67 1094.59 84.96 1095.65 84.95
  Q 1121.23 84.88 1146.28 89.83
  C 1174.54 95.41 1203.66 107.97 1221.35 131.76
  Q 1236.16 151.70 1238.98 178.11
  Q 1240.84 195.44 1238.11 212.23
  Q 1232.09 249.30 1202.26 270.76
  C 1182.60 284.89 1157.75 292.28 1133.17 296.10
  Q 1110.62 299.60 1088.05 300.08
  Q 1058.85 300.70 1028.33 299.56
  Q 1027.79 299.54 1027.77 300.09
  Z
  M 1130.63 185.90
  C 1128.68 156.17 1100.86 147.83 1075.81 152.28
  C 1044.08 157.92 1031.64 185.29 1028.36 214.76
  Q 1026.99 227.01 1027.03 238.42
  Q 1027.03 239.00 1027.60 239.03
  Q 1048.93 240.19 1068.37 239.63
  Q 1083.61 239.19 1097.15 235.16
  C 1120.76 228.14 1132.22 210.22 1130.63 185.90
  Z
  M 696.50 296.55
  C 671.04 299.09 645.97 309.65 644.11 338.25
  C 642.63 361.10 649.27 379.88 673.66 385.48
  Q 684.50 387.98 697.50 387.97
  Q 714.45 387.95 731.19 384.21
  A 0.76 0.75 -8.1 0 0 731.78 383.43
  Q 731.07 371.35 730.87 358.87
  Q 730.52 336.61 730.88 317.98
  Q 731.08 307.30 730.98 296.27
  Q 730.98 295.75 730.45 295.72
  Q 713.49 294.85 696.50 296.55
  Z"
/>
<path fill="#7d3f98" d="
  M 2116.93 234.20
  Q 2117.39 219.09 2115.76 205.83
  C 2113.12 184.38 2103.95 167.63 2082.66 161.20
  C 2070.99 157.68 2057.36 156.86 2044.68 157.55
  C 2013.11 159.26 1981.81 168.89 1954.26 183.33
  A 0.41 0.41 0.0 0 1 1953.66 182.99
  L 1949.46 104.99
  A 1.32 1.32 0.0 0 1 1950.32 103.67
  C 1974.39 94.61 2000.05 89.87 2025.74 87.15
  Q 2056.33 83.91 2089.08 84.52
  C 2114.20 84.99 2138.93 87.51 2162.24 95.67
  C 2173.04 99.44 2183.57 104.96 2192.33 112.09
  C 2213.98 129.70 2224.01 156.18 2227.53 183.69
  Q 2230.15 204.09 2229.70 230.50
  Q 2229.56 238.87 2229.38 247.25
  Q 2228.70 279.41 2226.83 324.25
  Q 2226.60 329.68 2226.35 347.49
  C 2226.20 357.92 2226.67 370.82 2226.44 382.50
  C 2226.42 383.38 2226.70 384.19 2226.71 385.07
  Q 2226.94 410.05 2229.55 435.67
  Q 2230.20 441.99 2231.40 448.89
  Q 2231.50 449.46 2230.92 449.47
  Q 2193.55 449.90 2166.37 451.60
  Q 2136.46 453.46 2106.72 455.41
  Q 2081.59 457.05 2055.58 457.19
  Q 2032.78 457.32 2011.06 453.89
  C 1981.32 449.19 1952.98 437.46 1935.67 412.81
  C 1920.73 391.53 1916.74 363.74 1917.49 338.37
  C 1919.88 257.72 2002.93 239.41 2066.62 235.54
  Q 2092.05 234.00 2116.33 234.76
  Q 2116.92 234.78 2116.93 234.20
  Z
  M 2031.48 324.75
  Q 2029.52 329.45 2028.90 333.86
  Q 2026.82 348.53 2030.37 361.12
  C 2035.01 377.56 2049.17 385.04 2065.81 386.98
  Q 2090.52 389.85 2115.65 384.13
  A 0.47 0.45 82.8 0 0 2116.01 383.65
  C 2114.33 355.78 2114.87 330.75 2115.28 296.33
  Q 2115.29 295.74 2114.70 295.71
  Q 2097.64 294.92 2081.16 296.48
  C 2061.52 298.33 2039.68 305.04 2031.48 324.75
  Z"
/>
<path fill="#7d3f98" d="
  M 2271.91 97.26
  L 2248.86 97.21
  A 0.34 0.34 0.0 0 1 2248.52 96.87
  L 2248.48 84.86
  A 0.34 0.34 0.0 0 1 2248.82 84.52
  L 2310.66 84.49
  A 0.34 0.34 0.0 0 1 2311.00 84.83
  L 2311.00 96.91
  A 0.34 0.34 0.0 0 1 2310.66 97.25
  L 2287.59 97.25
  A 0.34 0.34 0.0 0 0 2287.25 97.59
  L 2287.25 160.41
  A 0.34 0.34 0.0 0 1 2286.91 160.75
  L 2272.59 160.75
  A 0.34 0.34 0.0 0 1 2272.25 160.41
  L 2272.25 97.60
  A 0.34 0.34 0.0 0 0 2271.91 97.26
  Z"
/>
<path fill="#7d3f98" d="
  M 2401.00 84.54
  L 2401.00 160.77
  L 2387.83 160.69
  Q 2387.32 160.68 2387.31 160.17
  Q 2386.89 129.24 2388.21 99.36
  Q 2388.31 97.27 2387.77 99.29
  Q 2380.10 128.31 2369.65 160.47
  A 0.40 0.40 0.0 0 1 2369.27 160.75
  L 2356.72 160.75
  Q 2356.13 160.75 2355.95 160.19
  Q 2346.01 129.65 2337.94 99.40
  Q 2337.50 97.73 2337.56 99.46
  Q 2338.64 129.12 2338.16 160.15
  Q 2338.15 160.75 2337.56 160.75
  L 2325.25 160.75
  Q 2324.75 160.75 2324.75 160.25
  L 2324.75 84.75
  Q 2324.75 84.50 2325.00 84.50
  L 2345.21 84.50
  Q 2345.52 84.50 2345.61 84.80
  Q 2350.67 101.51 2355.64 118.08
  C 2358.37 127.16 2360.69 136.59 2362.87 145.79
  Q 2363.09 146.71 2363.30 145.78
  C 2367.89 125.11 2374.15 105.63 2380.47 85.03
  Q 2380.61 84.57 2381.09 84.57
  L 2401.00 84.54
  Z"
/>
<path fill="#7d3f98" d="
  M 1661.69 165.17
  Q 1660.74 201.12 1660.44 235.54
  Q 1660.44 235.88 1660.32 236.18
  Q 1660.20 236.47 1660.20 236.84
  Q 1660.25 250.24 1660.15 264.50
  Q 1659.49 352.94 1663.31 426.49
  Q 1663.86 437.22 1664.75 448.94
  Q 1664.80 449.51 1664.22 449.51
  L 1545.96 449.51
  Q 1545.36 449.51 1545.39 448.91
  Q 1548.61 381.29 1548.77 322.51
  Q 1548.77 320.73 1548.78 319.00
  Q 1549.14 266.02 1548.87 214.65
  Q 1548.56 157.16 1545.30 96.09
  Q 1545.27 95.57 1545.79 95.57
  Q 1580.38 95.51 1612.82 92.36
  Q 1641.90 89.53 1672.62 86.80
  Q 1699.58 84.40 1729.43 84.75
  Q 1758.08 85.09 1782.53 90.05
  C 1797.89 93.17 1812.91 98.33 1826.24 106.58
  C 1865.73 131.00 1873.16 176.78 1872.41 220.12
  Q 1872.04 241.61 1871.85 271.13
  Q 1871.35 349.14 1875.02 425.97
  Q 1875.39 433.76 1876.62 449.04
  Q 1876.66 449.51 1876.18 449.51
  L 1757.30 449.51
  Q 1757.09 449.51 1757.10 449.30
  Q 1758.70 418.04 1759.56 380.25
  Q 1760.45 341.29 1760.54 312.25
  Q 1760.54 309.80 1760.57 307.50
  Q 1761.03 272.86 1760.22 236.54
  Q 1760.12 232.19 1760.07 226.96
  Q 1759.96 214.53 1758.52 203.46
  C 1757.19 193.16 1754.28 182.28 1748.07 173.81
  C 1737.68 159.64 1719.65 157.16 1702.76 157.45
  Q 1681.42 157.81 1662.35 164.27
  Q 1661.71 164.49 1661.69 165.17
  Z"
/>
</svg>
