<svg height="215.148931" viewBox="0 0 1080 500" width="464.794315" xmlns="http://www.w3.org/2000/svg"><g fill-rule="evenodd"><path d="m258.51 471.32a19.52 19.52 0 0 1 -13.91-5.73l-202-201.7a19.65 19.65 0 0 1 0-27.78l202-201.7a19.74 19.74 0 0 1 27.81 0l202 201.7a19.65 19.65 0 0 1 0 27.78l-202 201.7a19.52 19.52 0 0 1 -13.9 5.73" fill="#4ca045"/><path d="m258.51 33.09a15.22 15.22 0 0 1 10.78 4.44l202 201.7a15.25 15.25 0 0 1 0 21.53l-202 201.71a15.31 15.31 0 0 1 -21.56 0l-202-201.71a15.25 15.25 0 0 1 0-21.53l202-201.7a15.2 15.2 0 0 1 10.78-4.44m0-8.83a24 24 0 0 0 -17 7l-202.04 201.74a24.06 24.06 0 0 0 0 34l202 201.71a24.15 24.15 0 0 0 34.07 0l202-201.71a24.06 24.06 0 0 0 0-34l-202-201.7a24 24 0 0 0 -17-7" fill="#fff"/><path d="m460.25 250-2.82-2.81-196.11-195.82-2.81-2.81-2.82 2.81-196.11 195.82-2.81 2.81 2.81 2.81 196.11 195.82 2.82 2.81 2.81-2.81 196.11-195.82zm-53.51-36a4.31 4.31 0 1 1 0 .73 1.36 1.36 0 0 0 0-.73zm-11.84-23.6a4.31 4.31 0 1 1 -4.52-4.51zm-72.16-72.05a4.3 4.3 0 1 1 -4.51-4.51zm-24.21-20.65a4.31 4.31 0 0 1 -3.95 4.29 1.36 1.36 0 0 0 -.36 0 1.5 1.5 0 0 0 -.37 0 4.3 4.3 0 1 1 4.68-4.29zm-75.74-4.3a4.3 4.3 0 0 1 .36 8.59 1.32 1.32 0 0 0 -.72 0 4.3 4.3 0 0 1 .36-8.59zm-24 20.41a4.3 4.3 0 1 1 -4.51 4.51zm-72.15 72.05a4.3 4.3 0 1 1 -4.52 4.51zm-16.36 28.84a4.31 4.31 0 1 1 0-.73 1.14 1.14 0 0 0 0 .37 1.12 1.12 0 0 0 0 .36zm0 71.32a4.3 4.3 0 1 1 0-.72 1.32 1.32 0 0 0 0 .72zm11.83 23.61a4.31 4.31 0 1 1 4.52 4.51zm72.16 72.05a4.31 4.31 0 1 1 4.51 4.51zm24.21 20.61a4.3 4.3 0 0 1 4-4.28 1.32 1.32 0 0 0 .72 0 4.3 4.3 0 1 1 -4.67 4.28zm40 43.53-36-35.93h.27a7.61 7.61 0 0 0 1.49-15.07v-28.72l28.1-28.05a1.49 1.49 0 0 0 .44-1.05v-12.69h2.81v-33.43h5.75v33.43h2.82v12.69a1.48 1.48 0 0 0 .43 1.05l28.1 28.05v28.73a7.61 7.61 0 0 0 1.49 15.07h.27zm35.71-39.23a4.3 4.3 0 0 1 -.37-8.58 1.5 1.5 0 0 0 .37.05 1.36 1.36 0 0 0 .36-.05 4.3 4.3 0 0 1 -.36 8.58zm24-20.4a4.3 4.3 0 1 1 4.51-4.51zm72.15-72.05a4.3 4.3 0 1 1 4.52-4.51zm16.36-28.84a4.3 4.3 0 1 1 0 .72 1.32 1.32 0 0 0 0-.72zm11.9.63c0-.09 0-.18 0-.27a7.63 7.63 0 0 0 -15.1-1.49h-28.72l-28.09-28.06a1.53 1.53 0 0 0 -1.06-.43h-12.71v-2.81h-20.55v8.6h20.55v-2.81h12.08l28.1 28a1.5 1.5 0 0 0 1.06.44h29.38a7.63 7.63 0 0 0 7.47 6.12h.28l-13.67 13.65a7.65 7.65 0 0 0 -6.31-4.64v-7.12a1.49 1.49 0 0 0 -1.49-1.49h-18.57l-24.34-24.3a1.46 1.46 0 0 0 -1.06-.44h-12.93v-2.78h-20.55v8.61h20.55v-2.81h12.32l24.34 24.3a1.48 1.48 0 0 0 1.05.44h17.71v5.94a7.61 7.61 0 0 0 -.69 14.29l-14.31 14.29v-21.45a1.49 1.49 0 0 0 -.44-1l-26.1-26.07a1.49 1.49 0 0 0 -1.06-.43h-12.82v-2.82h-20.55v8.61h20.55v-2.81h12.21l25.22 25.19v23.81l-11.28 11.27v-35.88a1.53 1.53 0 0 0 -.43-1.05l-12.73-12.7a1.48 1.48 0 0 0 -1.05-.44h-11.94v-2.81h-20.55v8.61h20.55v-2.82h11.32l11.85 11.83v37.23h-37.29l-11.8-11.82v-11.3h2.82v-20.53h-8.62v20.53h2.8v11.91a1.5 1.5 0 0 0 .44 1.06l12.69 12.72a1.53 1.53 0 0 0 1.05.43h35.88l-11.28 11.27h-23.86l-25.22-25.21v-12.18h2.81v-20.53h-8.61v20.53h2.81v12.79a1.5 1.5 0 0 0 .44 1.06l26.1 26.06a1.5 1.5 0 0 0 1.06.44h21.48l-14.32 14.34a7.63 7.63 0 0 0 -14.31.68h-5.94v-17.68a1.5 1.5 0 0 0 -.44-1.06l-24.34-24.3v-12.33h2.81v-20.53h-8.61v20.53h2.82v12.9a1.49 1.49 0 0 0 .43 1.06l24.34 24.3v18.55a1.49 1.49 0 0 0 1.49 1.49h7.14a7.62 7.62 0 0 0 4.64 6.3l-13.67 13.65c0-.09 0-.17 0-.27a7.62 7.62 0 0 0 -6.13-7.46v-29.34a1.49 1.49 0 0 0 -.43-1.06l-28.1-28.05v-12.07h2.83v-33.4h18.23c3.81-.11 8.23-3.09 8.34-7.4a19.68 19.68 0 0 0 -4.53-13c-3.32-4.08-23.09-31-23.09-31s.22-21.74.22-24.82 4.08-6.42 4.08-6.42h-29.16s4.09 3.32 4.09 6.42.21 24.82.21 24.82-19.77 26.92-23.09 31a19.72 19.72 0 0 0 -4.52 13c.11 4.31 4.52 7.29 8.33 7.4 2.07.05 10.55.05 17.9 0v33.4h2.82v12.07l-28.09 28.05a1.5 1.5 0 0 0 -.44 1.06v29.34a7.62 7.62 0 0 0 -6.13 7.46v.27l-13.67-13.65a7.6 7.6 0 0 0 4.64-6.3h7.14a1.49 1.49 0 0 0 1.49-1.49v-18.55l24.34-24.3a1.5 1.5 0 0 0 .44-1.06v-12.9h2.82v-20.53h-8.62v20.53h2.81v12.29l-24.33 24.3a1.5 1.5 0 0 0 -.44 1.06v17.67h-6a7.63 7.63 0 0 0 -14.31-.68l-14.32-14.29h21.54a1.5 1.5 0 0 0 1.06-.44l26.1-26.06a1.5 1.5 0 0 0 .44-1.06v-12.79h2.81v-20.53h-8.61v20.53h2.82v12.18l-25.23 25.19h-23.85l-11.24-11.27h35.87a1.51 1.51 0 0 0 1-.43l12.72-12.7a1.5 1.5 0 0 0 .44-1.06v-11.91h2.82v-20.53h-8.62v20.53h2.82v11.3l-11.85 11.82h-37.28v-37.23l11.85-11.83h11.32v2.82h20.55v-8.61h-20.55v2.81h-11.94a1.49 1.49 0 0 0 -1.05.44l-12.72 12.7a1.49 1.49 0 0 0 -.44 1.05v35.83l-11.28-11.27v-23.81l25.23-25.19h12.2v2.86h20.55v-8.61h-20.55v2.81h-12.82a1.51 1.51 0 0 0 -1.06.43l-26.1 26.07a1.45 1.45 0 0 0 -.43 1v21.45l-14.32-14.3a7.61 7.61 0 0 0 -.68-14.28v-5.94h17.7a1.5 1.5 0 0 0 1.06-.44l24.34-24.3h12.31v2.81h20.55v-8.6h-20.55v2.82h-12.93a1.46 1.46 0 0 0 -1.06.44l-24.34 24.3h-18.57a1.5 1.5 0 0 0 -1.5 1.49v7.12a7.64 7.64 0 0 0 -6.3 4.64l-13.67-13.65h.28a7.63 7.63 0 0 0 7.47-6.12h29.39a1.49 1.49 0 0 0 1.05-.44l28.1-28h12.09v2.81h20.55v-8.6h-20.56v2.81h-12.71a1.53 1.53 0 0 0 -1 .43l-28.1 28.06h-28.82a7.63 7.63 0 0 0 -15.1 1.49v.27l-35.97-35.97 36-35.93v.27a7.63 7.63 0 0 0 15.1 1.49h28.77l28.1 28a1.49 1.49 0 0 0 1 .44h12.71v2.81h20.55v-8.6h-20.53v2.81h-12.09l-28.1-28.06a1.49 1.49 0 0 0 -1.05-.44h-29.39a7.64 7.64 0 0 0 -7.47-6.12h-.27l13.67-13.65a7.61 7.61 0 0 0 6.3 4.63v7.13a1.5 1.5 0 0 0 1.5 1.49h18.57l24.34 24.3a1.5 1.5 0 0 0 1.06.44h12.93v2.81h20.55v-8.6h-20.55v2.81h-12.31l-24.34-24.3a1.5 1.5 0 0 0 -1.06-.44h-17.7v-5.94a7.61 7.61 0 0 0 .68-14.29l14.32-14.29v21.45a1.48 1.48 0 0 0 .43 1.05l26.1 26.06a1.52 1.52 0 0 0 1.06.44h12.82v2.81h20.55v-8.6h-20.55v2.81h-12.2l-25.23-25.19v-23.74l11.28-11.27v35.82a1.46 1.46 0 0 0 .44 1.05l12.72 12.7a1.49 1.49 0 0 0 1.05.44h11.94v2.82h20.55v-8.61h-20.55v2.81h-11.32l-11.85-11.83v-37.23h37.29l11.85 11.83v11.3h-2.82v20.52h8.62v-20.52h-2.86v-11.92a1.49 1.49 0 0 0 -.44-1.05l-12.68-12.72a1.45 1.45 0 0 0 -1-.43h-35.88l11.28-11.27h23.85l25.23 25.19v12.18h-2.86v20.52h8.61v-20.5h-2.81v-12.8a1.49 1.49 0 0 0 -.44-1l-26.1-26.06a1.5 1.5 0 0 0 -1.06-.44h-21.48l14.32-14.29a7.63 7.63 0 0 0 14.31-.69h6v17.59a1.46 1.46 0 0 0 .44 1.05l24.33 24.31v12.29h-2.81v20.52h8.62v-20.48h-2.82v-12.91a1.49 1.49 0 0 0 -.44-1.05l-24.34-24.3v-18.55a1.5 1.5 0 0 0 -1.49-1.5h-7.14a7.6 7.6 0 0 0 -4.64-6.29l13.67-13.65v.26a7.63 7.63 0 0 0 6.13 7.47v29.34a1.5 1.5 0 0 0 .44 1.06l28.09 28.05v12.07h-2.89v20.52h8.62v-20.52h-2.81v-12.69a1.49 1.49 0 0 0 -.44-1.05l-28.1-28v-28.78a7.61 7.61 0 0 0 -1.49-15.08h-.27l36-35.93 36 35.93h-.27a7.61 7.61 0 0 0 -1.49 15.08v28.73l-28.1 28a1.48 1.48 0 0 0 -.43 1.05v12.69h-2.82v20.52h8.6v-20.47h-2.82v-12.07l28.1-28.05a1.49 1.49 0 0 0 .43-1.06v-29.34a7.64 7.64 0 0 0 6.14-7.47c0-.09 0-.17 0-.26l13.67 13.65a7.62 7.62 0 0 0 -4.64 6.29h-7.14a1.5 1.5 0 0 0 -1.49 1.5v18.55l-24.34 24.3a1.48 1.48 0 0 0 -.43 1.05v12.91h-2.82v20.52h8.61v-20.52h-2.81v-12.29l24.34-24.31a1.46 1.46 0 0 0 .44-1.05v-17.68h5.94a7.63 7.63 0 0 0 14.31.69l14.32 14.29h-21.5a1.5 1.5 0 0 0 -1.06.44l-26.1 26.06a1.49 1.49 0 0 0 -.44 1v12.8h-2.81v20.52h8.61v-20.47h-2.81v-12.18l25.23-25.19h23.84l11.29 11.27h-35.88a1.48 1.48 0 0 0 -1.05.43l-12.72 12.7a1.49 1.49 0 0 0 -.44 1.05v11.92h-2.82v20.52h8.62v-20.52h-2.77v-11.3l11.85-11.83h37.29v37.23l-11.85 11.83h-11.37v-2.81h-20.55v8.61h20.55v-2.82h11.94a1.48 1.48 0 0 0 1.05-.44l12.73-12.7a1.49 1.49 0 0 0 .43-1.05v-35.82l11.28 11.27v23.81l-25.22 25.19h-12.21v-2.81h-20.55v8.6h20.55v-2.81h12.82a1.5 1.5 0 0 0 1.06-.44l26.1-26.06a1.49 1.49 0 0 0 .44-1.05v-21.45l14.31 14.29a7.61 7.61 0 0 0 .69 14.29v5.94h-17.71a1.48 1.48 0 0 0 -1.05.44l-24.34 24.3h-12.32v-2.81h-20.55v8.6h20.55v-2.81h12.93a1.5 1.5 0 0 0 1.06-.44l24.34-24.3h18.58a1.49 1.49 0 0 0 1.49-1.49v-7.13a7.62 7.62 0 0 0 6.31-4.63l13.67 13.65h-.28a7.64 7.64 0 0 0 -7.47 6.13h-29.38a1.46 1.46 0 0 0 -1.06.44l-28.11 28.03h-12.08v-2.81h-20.55v8.6h20.55v-2.81h12.71a1.5 1.5 0 0 0 1.06-.44l28.09-28h28.77a7.63 7.63 0 0 0 15.1-1.49c0-.09 0-.18 0-.27l36 35.93z" fill="#fff"/><path d="m270.88 105.32a7.62 7.62 0 1 0 -7.24-10h-10.27a7.63 7.63 0 1 0 .33 3.26h9.61a7.63 7.63 0 0 0 7.57 6.75m0-11.92a4.31 4.31 0 1 1 -4.31 4.3 4.31 4.31 0 0 1 4.31-4.3m-24.75 8.59a4.31 4.31 0 1 1 4.31-4.31 4.31 4.31 0 0 1 -4.31 4.31" fill="#fff"/><path d="m270.88 394.68a7.62 7.62 0 0 0 -7.57 6.74h-9.6a7.62 7.62 0 1 0 -.34 3.26h10.27a7.62 7.62 0 1 0 7.24-10m-24.74 11.91a4.3 4.3 0 1 1 4.3-4.3 4.32 4.32 0 0 1 -4.3 4.3m24.74 0a4.3 4.3 0 1 1 4.3-4.3 4.31 4.31 0 0 1 -4.3 4.3" fill="#fff"/><path d="m113.61 237.65a7.63 7.63 0 1 0 -10 7.22v10.26a7.62 7.62 0 1 0 3.27-.34v-9.58a7.63 7.63 0 0 0 6.75-7.56m-3.32 24.7a4.31 4.31 0 1 1 -4.3-4.3 4.31 4.31 0 0 1 4.3 4.3m-4.31-20.35a4.3 4.3 0 1 1 4.3-4.3 4.31 4.31 0 0 1 -4.3 4.3" fill="#fff"/><path d="m418.65 237.65a7.63 7.63 0 1 0 -8.49 7.56v9.58a7.63 7.63 0 1 0 3.26.34v-10.26a7.62 7.62 0 0 0 5.23-7.22m-3.31 24.7a4.31 4.31 0 1 1 -4.31-4.3 4.31 4.31 0 0 1 4.31 4.3m-4.34-20.35a4.31 4.31 0 1 1 4.31-4.3 4.31 4.31 0 0 1 -4.31 4.3" fill="#fff"/><path d="m1047.57 319.47a48 48 0 0 0 -1.92-13.92 30.78 30.78 0 0 0 -5.71-10.9 26.43 26.43 0 0 0 -9.3-7.13 30.17 30.17 0 0 0 -12.83-2.56 31.29 31.29 0 0 0 -13.09 2.63 29.52 29.52 0 0 0 -9.75 7 30.31 30.31 0 0 0 -6.09 10.2 35.31 35.31 0 0 0 -2.12 12.13 37 37 0 0 0 2.24 13.14 27.87 27.87 0 0 0 6.54 10.2 30 30 0 0 0 10.46 6.6 38.07 38.07 0 0 0 13.85 2.38 44.14 44.14 0 0 0 10.27-1.09 49.3 49.3 0 0 0 7.76-2.5 29.44 29.44 0 0 0 5.32-2.89c1.37-1 2.4-1.69 3.08-2.12l-7.56-11.64a40.66 40.66 0 0 1 -6.54 3.65 27.59 27.59 0 0 1 -11.68 2.12q-7.31 0-11.48-3.66a11.48 11.48 0 0 1 -4.3-8.53h42.85zm-42.85-8.72a10 10 0 0 1 .84-3.92 11.77 11.77 0 0 1 2.43-3.65 12.82 12.82 0 0 1 4-2.76 13.61 13.61 0 0 1 5.64-1.09 12.79 12.79 0 0 1 5.52 1.09 12.45 12.45 0 0 1 3.85 2.76 11.73 11.73 0 0 1 2.31 3.65 10.88 10.88 0 0 1 .77 3.92z"/><path d="m915.62 287h17.71l.51 6.54a21.12 21.12 0 0 1 7.76-5.77 24.05 24.05 0 0 1 10.07-2.18q10.4 0 16.49 6.16t6.09 18.25v37.21h-18.47v-34.67a11.85 11.85 0 0 0 -2.5-8 8.68 8.68 0 0 0 -7-3 12.42 12.42 0 0 0 -5.38 1.1 11.2 11.2 0 0 0 -3.85 2.88 12 12 0 0 0 -2.31 4.17 16.12 16.12 0 0 0 -.77 5.07v32.33h-18.35z"/></g><path d="m881.05 287.01h18.48v60.17h-18.48z"/><path d="m880.41 261.6h19.76v16.55h-19.76z"/><path d="m870.22 339.23a31.7 31.7 0 0 1 -9.82 7 32.74 32.74 0 0 1 -14.43 3 35.68 35.68 0 0 1 -13.28-2.37 29.33 29.33 0 0 1 -10.2-6.67 30.75 30.75 0 0 1 -6.61-10.2 34.47 34.47 0 0 1 -2.37-13 32 32 0 0 1 9.17-22.71 31.22 31.22 0 0 1 10.26-6.86 33.32 33.32 0 0 1 13-2.5 34.63 34.63 0 0 1 14.24 2.69 30.24 30.24 0 0 1 10.13 7.18l-11.16 12.06a22 22 0 0 0 -5-4.1 14.93 14.93 0 0 0 -7.83-1.8 12.85 12.85 0 0 0 -6 1.35 14.42 14.42 0 0 0 -4.49 3.53 15 15 0 0 0 -2.83 5.07 19.13 19.13 0 0 0 -1 6.09 18.42 18.42 0 0 0 1 5.84 15.85 15.85 0 0 0 2.9 5.17 14.81 14.81 0 0 0 4.49 3.66 12.4 12.4 0 0 0 6 1.41 15.65 15.65 0 0 0 8-1.86 20.44 20.44 0 0 0 5.13-4z" fill-rule="evenodd"/><path d="m781.76 287.01h18.48v60.17h-18.48z"/><path d="m781.12 261.6h19.76v16.55h-19.76z"/><path d="m747.45 261.61v26.17a48.77 48.77 0 0 0 -5-1.47 30.79 30.79 0 0 0 -6.8-.58 32.41 32.41 0 0 0 -11 2 31.1 31.1 0 0 0 -10.14 6 30.3 30.3 0 0 0 -7.44 10.08 32.65 32.65 0 0 0 -2.89 14.17 38.2 38.2 0 0 0 2 12.9 30.18 30.18 0 0 0 5.59 9.75 24.21 24.21 0 0 0 8.34 6.22 24.75 24.75 0 0 0 10.4 2.15 22.08 22.08 0 0 0 10.08-2.24 22.85 22.85 0 0 0 7.24-5.59l.77 6h17.2v-85.56zm0 58.38a19.48 19.48 0 0 1 -.64 5 11 11 0 0 1 -2.12 4.23 10.84 10.84 0 0 1 -3.72 2.89 12 12 0 0 1 -5.32 1.09q-6.42 0-9.63-4.17t-3.2-10.71q0-7.44 3.91-12.19t11-4.75a25.76 25.76 0 0 1 5.58.51 14.35 14.35 0 0 1 4.17 1.67z" fill-rule="evenodd"/><path d="m694.53 319.47a48 48 0 0 0 -1.92-13.92 30.94 30.94 0 0 0 -5.71-10.9 26.62 26.62 0 0 0 -9.3-7.13 30.17 30.17 0 0 0 -12.83-2.52 31.29 31.29 0 0 0 -13.09 2.63 29.52 29.52 0 0 0 -9.75 7 30.5 30.5 0 0 0 -6.1 10.2 35.3 35.3 0 0 0 -2.11 12.13 37.22 37.22 0 0 0 2.28 13.1 28 28 0 0 0 6.55 10.2 30.07 30.07 0 0 0 10.45 6.6 38.16 38.16 0 0 0 13.86 2.38 44 44 0 0 0 10.26-1.09 49.45 49.45 0 0 0 7.77-2.5 29.44 29.44 0 0 0 5.32-2.89c1.37-1 2.39-1.69 3.08-2.12l-7.61-11.64a40.66 40.66 0 0 1 -6.54 3.65 27.59 27.59 0 0 1 -11.68 2.12q-7.32 0-11.48-3.66a11.45 11.45 0 0 1 -4.3-8.53h42.85zm-42.85-8.72a10.19 10.19 0 0 1 .83-3.92 12 12 0 0 1 2.44-3.65 12.89 12.89 0 0 1 4-2.76 13.69 13.69 0 0 1 5.65-1.09 12.74 12.74 0 0 1 5.51 1.09 12.33 12.33 0 0 1 3.85 2.76 11.37 11.37 0 0 1 2.31 3.65 10.67 10.67 0 0 1 .77 3.92z" fill-rule="evenodd"/><path d="m535.89 261.6h18.35l22.32 40.16 21.81-40.16h18.48l3.98 85.58h-19.38l-2.44-55.94-17.7 33.36h-10.01l-18.73-32.97-2.18 55.55h-18.48z" fill-rule="evenodd"/><path d="m933.07 176.22a31.75 31.75 0 0 0 -6.61-10.2 30.65 30.65 0 0 0 -10.14-6.86 33.12 33.12 0 0 0 -13.08-2.5 33.69 33.69 0 0 0 -13.16 2.5 30.7 30.7 0 0 0 -10.2 6.86 31.56 31.56 0 0 0 -6.6 10.2 34.07 34.07 0 0 0 0 25 30.83 30.83 0 0 0 16.8 17.13 33 33 0 0 0 13.16 2.57 32.44 32.44 0 0 0 13.08-2.57 31.28 31.28 0 0 0 10.14-6.93 31.75 31.75 0 0 0 6.61-10.2 34.2 34.2 0 0 0 0-25zm-16.36 18.48a15.68 15.68 0 0 1 -2.76 5.2 13.67 13.67 0 0 1 -4.56 3.65 13.51 13.51 0 0 1 -6.15 1.35 14 14 0 0 1 -6.23-1.35 12.88 12.88 0 0 1 -4.55-3.65 17.3 17.3 0 0 1 -2.76-5.2 19 19 0 0 1 0-11.93 16.41 16.41 0 0 1 2.76-5.14 13.18 13.18 0 0 1 4.54-3.63 14 14 0 0 1 6.23-1.34 13.51 13.51 0 0 1 6.15 1.34 14 14 0 0 1 4.56 3.59 14.93 14.93 0 0 1 2.76 5.14 20.22 20.22 0 0 1 0 11.93z" fill-rule="evenodd"/><path d="m865.2 210.93a31.74 31.74 0 0 1 -9.82 7 32.74 32.74 0 0 1 -14.43 3 35.68 35.68 0 0 1 -13.28-2.37 29.33 29.33 0 0 1 -10.2-6.67 30.75 30.75 0 0 1 -6.61-10.2 34.51 34.51 0 0 1 -2.37-13 32.16 32.16 0 0 1 9.17-22.69 31 31 0 0 1 10.27-6.86 33.24 33.24 0 0 1 13-2.51 34.62 34.62 0 0 1 14.24 2.7 30.24 30.24 0 0 1 10.14 7.18l-11.17 12.06a21.55 21.55 0 0 0 -5-4.1 14.93 14.93 0 0 0 -7.83-1.8 12.85 12.85 0 0 0 -6 1.35 14.42 14.42 0 0 0 -4.49 3.53 15.19 15.19 0 0 0 -2.83 5.06 19.24 19.24 0 0 0 -1 6.1 18.42 18.42 0 0 0 1 5.84 16 16 0 0 0 2.83 5.13 15 15 0 0 0 4.49 3.66 12.4 12.4 0 0 0 6 1.41 15.65 15.65 0 0 0 8-1.86 20.44 20.44 0 0 0 5.13-4z" fill-rule="evenodd"/><path d="m776.74 158.71h18.48v60.17h-18.48z"/><path d="m776.1 133.3h19.76v16.55h-19.76z"/><path d="m742.3 133.3h18.48v85.58h-18.48z"/><path d="m707.86 158.71h18.48v60.17h-18.48z"/><path d="m707.22 133.3h19.76v16.55h-19.76z"/><path d="m649.81 200.28a23.79 23.79 0 0 0 7.76 4.49 26.71 26.71 0 0 0 9.3 1.79 19.37 19.37 0 0 0 6.8-1 3.91 3.91 0 0 0 2.7-4 4.09 4.09 0 0 0 -.58-2.12 5.35 5.35 0 0 0 -2.12-1.79 26.15 26.15 0 0 0 -4.3-1.74c-1.83-.59-4.17-1.28-7-2a46.83 46.83 0 0 1 -6.86-2.37 24.81 24.81 0 0 1 -6-3.66 16.82 16.82 0 0 1 -4.24-5.26 16.51 16.51 0 0 1 .32-14.82 19 19 0 0 1 5.33-5.9 25.34 25.34 0 0 1 8.08-3.9 36.21 36.21 0 0 1 10.07-1.35 46.87 46.87 0 0 1 13.48 1.74 38.16 38.16 0 0 1 10.64 5.06l-7.82 12.19a39.32 39.32 0 0 0 -6.74-3.46 22.39 22.39 0 0 0 -8.53-1.54c-2.82 0-4.88.41-6.16 1.22a3.71 3.71 0 0 0 -1.92 3.27q0 3 4 4.36t10.78 3.21q9.24 2.56 13.41 7.06t4.17 11.93a15.85 15.85 0 0 1 -2.25 8.59 18.5 18.5 0 0 1 -6 6 28.59 28.59 0 0 1 -8.59 3.53 41.93 41.93 0 0 1 -9.82 1.15 52.1 52.1 0 0 1 -15.27-2.18 27.37 27.37 0 0 1 -11.67-6.67z" fill-rule="evenodd"/><path d="m569.82 158.71h17.71l.51 6.54a21.12 21.12 0 0 1 7.76-5.77 24.05 24.05 0 0 1 10.07-2.18q10.39 0 16.49 6.15t6.09 18.22v37.21h-18.45v-34.64a12 12 0 0 0 -2.5-8 8.7 8.7 0 0 0 -7-2.95 12.54 12.54 0 0 0 -5.38 1.09 11.35 11.35 0 0 0 -3.85 2.89 12 12 0 0 0 -2.31 4.17 16.12 16.12 0 0 0 -.77 5.07v32.33h-18.37z" fill-rule="evenodd"/><path d="m533.33 133.3h19.37v85.58h-19.37z"/></svg>