<svg xmlns="http://www.w3.org/2000/svg" width="883.75" height="179.5" viewBox="0 0 883.75 179.5">
  <g id="Bernard-Marr-Logo-Black" transform="translate(-58.13 -410.25)">
    <circle id="Ellipse_1" data-name="Ellipse 1" cx="89.75" cy="89.75" r="89.75" transform="translate(58.13 410.25)"/>
    <path id="Path_1" data-name="Path 1" d="M209.3,508.61v-.67c-.34-12.94-10.27-24.63-23.47-25.53a26.36,26.36,0,0,0-17.87,5.46,25,25,0,0,0-2.21,1.91A24.27,24.27,0,0,0,150,482.44a25.85,25.85,0,0,0-20,7.43,25.6,25.6,0,0,0-27.9-5.31v-5.75c0-7.95-6.43-15-14.38-15h-1.2v45.36h0a25.57,25.57,0,0,0,39.89,20.19v.09a14,14,0,0,0,10,4.31h1.18V507.94a11.5,11.5,0,0,1,2.21-6.05h0a10.05,10.05,0,0,1,18,5.73q0,.195,0,.36v7.35c0,1.13.06,2.26.06,3.38a15.43,15.43,0,0,0,6.8,12.67,13.561,13.561,0,0,0,7.59,2.34h1.12V521.14l.05-.09V507.94h0a10.055,10.055,0,0,1,20.11,0v10.75c0,7.94,6.44,15,14.39,15h1.18C209.28,525.55,209.31,516.76,209.3,508.61Zm-97.23,9.46a9.94,9.94,0,1,1,7.089-2.911,9.95,9.95,0,0,1-7.089,2.911Z" fill="#fff"/>
    <path id="Path_2" data-name="Path 2" d="M256,499.73V442.67h8.57a37.61,37.61,0,0,1,9.13.89,13.76,13.76,0,0,1,5.8,3,15.679,15.679,0,0,1,3.81,5.44,16.439,16.439,0,0,1,1.44,6.65A13.47,13.47,0,0,1,280,469a13.82,13.82,0,0,1,7.17,5.44,16.08,16.08,0,0,1-2.07,20.25,15.51,15.51,0,0,1-6.39,4,37,37,0,0,1-9.72,1.07Zm8.61-32.55h2.69c3.21,0,5.55-.71,7-2.13a8.4,8.4,0,0,0,2.24-6.26,7.85,7.85,0,0,0-2.29-6.12q-2.29-2.09-6.65-2.09h-3Zm0,24.46h5.32q5.84,0,8.57-2.29a8.316,8.316,0,0,0,.11-12.49q-2.7-2.48-9.64-2.48h-4.36Z"/>
    <path id="Path_3" data-name="Path 3" d="M331.91,483.69h-25.8a11,11,0,0,0,2.89,7.06,8.77,8.77,0,0,0,6.54,2.59,8.45,8.45,0,0,0,5.13-1.48,21,21,0,0,0,4.55-5.47l7,3.92a27.567,27.567,0,0,1-3.44,4.75,18,18,0,0,1-3.88,3.25,15.739,15.739,0,0,1-4.47,1.87,22,22,0,0,1-5.21.59q-8.06,0-12.93-5.18t-4.88-13.82q0-8.53,4.73-13.82t12.64-5.21q7.93,0,12.56,5.06T332,481.74Zm-8.54-6.8q-1.74-6.64-8.39-6.65a8.759,8.759,0,0,0-2.84.46,8.261,8.261,0,0,0-2.42,1.33,8.52,8.52,0,0,0-1.87,2.09,9.729,9.729,0,0,0-1.18,2.77Z"/>
    <path id="Path_4" data-name="Path 4" d="M341,463.74h8.31V467a16.209,16.209,0,0,1,4.07-3.29,9.35,9.35,0,0,1,4.28-.92,13.51,13.51,0,0,1,6.88,2.14l-3.81,7.62a7.91,7.91,0,0,0-4.62-1.7q-6.8,0-6.8,10.27v18.66H341Z"/>
    <path id="Path_5" data-name="Path 5" d="M370.45,463.74h8.35v3.32a13.65,13.65,0,0,1,9.83-4.32q6.28,0,9.8,3.95,3,3.38,3,11v22.06h-8.35v-20.1c0-3.55-.5-6-1.48-7.36s-2.71-2.06-5.25-2.06q-4.14,0-5.88,2.73t-1.7,9.42v17.37h-8.35Z"/>
    <path id="Path_6" data-name="Path 6" d="M438.48,463.74h8.36v36h-8.36V496q-5.13,4.82-11,4.81a15.92,15.92,0,0,1-12.35-5.4,20.09,20.09,0,0,1-4.84-13.75,19.46,19.46,0,0,1,4.84-13.48,15.61,15.61,0,0,1,12.12-5.4q6.29,0,11.27,5.17Zm-19.73,17.88a12.59,12.59,0,0,0,2.77,8.43,9.1,9.1,0,0,0,7.17,3.29,9.55,9.55,0,0,0,7.47-3.18,13.7,13.7,0,0,0,0-16.7,9.39,9.39,0,0,0-7.39-3.22,9.21,9.21,0,0,0-7.17,3.25,12,12,0,0,0-2.85,8.13Z"/>
    <path id="Path_7" data-name="Path 7" d="M457.33,463.74h8.32V467a16,16,0,0,1,4.06-3.29,9.419,9.419,0,0,1,4.29-.92,13.5,13.5,0,0,1,6.87,2.14l-3.8,7.62a7.91,7.91,0,0,0-4.62-1.7q-6.81,0-6.8,10.27v18.66h-8.32Z"/>
    <path id="Path_8" data-name="Path 8" d="M511.65,437.32H520v62.41h-8.36V496a15.47,15.47,0,0,1-11.12,4.81,15.83,15.83,0,0,1-12.27-5.4,20,20,0,0,1-4.84-13.75,19.39,19.39,0,0,1,4.84-13.45,15.45,15.45,0,0,1,12.09-5.43q6.31,0,11.3,5.17Zm-19.73,44.3a12.54,12.54,0,0,0,2.77,8.43,9.1,9.1,0,0,0,7.17,3.29,9.55,9.55,0,0,0,7.47-3.18,13.7,13.7,0,0,0,0-16.7,9.4,9.4,0,0,0-7.4-3.22,9.21,9.21,0,0,0-7.16,3.25,12,12,0,0,0-2.85,8.13Z"/>
    <path id="Path_9" data-name="Path 9" d="M553.45,499.73l12-61.34,19.59,44.34,20.28-44.34,10.79,61.34h-8.83l-5.5-34.44L584.9,502.36l-16.41-37.11-6.13,34.48Z"/>
    <path id="Path_10" data-name="Path 10" d="M653.15,463.74h8.35v36h-8.35V496q-5.13,4.82-11,4.81a15.91,15.91,0,0,1-12.34-5.4,20,20,0,0,1-4.84-13.75,19.41,19.41,0,0,1,4.84-13.48,15.61,15.61,0,0,1,12.12-5.4q6.29,0,11.27,5.17Zm-19.73,17.88a12.54,12.54,0,0,0,2.77,8.43,9.1,9.1,0,0,0,7.17,3.29,9.52,9.52,0,0,0,7.46-3.18,13.66,13.66,0,0,0,0-16.7,9.38,9.38,0,0,0-7.39-3.22,9.24,9.24,0,0,0-7.17,3.25,12,12,0,0,0-2.84,8.13Z"/>
    <path id="Path_11" data-name="Path 11" d="M672,463.74h8.31V467a16.209,16.209,0,0,1,4.07-3.29,9.351,9.351,0,0,1,4.28-.92,13.51,13.51,0,0,1,6.88,2.14l-3.81,7.62a7.86,7.86,0,0,0-4.62-1.7q-6.79,0-6.8,10.27v18.66H672Z"/>
    <path id="Path_12" data-name="Path 12" d="M701.45,463.74h8.32V467a16,16,0,0,1,4.06-3.29,9.419,9.419,0,0,1,4.29-.92,13.5,13.5,0,0,1,6.87,2.14l-3.8,7.62a7.91,7.91,0,0,0-4.62-1.7q-6.81,0-6.8,10.27v18.66h-8.32Z"/>
    <path id="Path_13" data-name="Path 13" d="M777.13,468l10.28,12.41.33-.36q1.66-1.82,3.14-3.55t2.85-3.51l5.61,5.76a43.5,43.5,0,0,1-2.71,3.44c-1.12,1.31-2.46,2.81-4,4.51l10.57,13H792.47l-5.69-7q-7.83,8.08-16.3,8.09A18.33,18.33,0,0,1,757.62,496a15.89,15.89,0,0,1-5.17-12q0-8.54,8.2-14.19l3.73-2.55a1.21,1.21,0,0,0,.26-.18l.52-.41q-5.65-6-5.65-11.86a12.43,12.43,0,0,1,3.77-9.39,15.28,15.28,0,0,1,19.62-.11,12,12,0,0,1,1.74,15.56A36.132,36.132,0,0,1,777.13,468Zm-6.83,4.84-.48.33a41.161,41.161,0,0,0-7.21,5.88,7.12,7.12,0,0,0-1.88,4.69,9.74,9.74,0,0,0,9.35,9.35q5,0,11.49-6.54Zm1.84-10.9.71-.52c1.2-.91,2.2-1.71,3-2.38a11.1,11.1,0,0,0,1.7-1.72,5.15,5.15,0,0,0,1.11-3.36,4.749,4.749,0,0,0-1.52-3.66,5.72,5.72,0,0,0-4.06-1.41,5.63,5.63,0,0,0-3.92,1.44,4.44,4.44,0,0,0-1.59,3.51,7.82,7.82,0,0,0,2,5l2.14,2.58a4.532,4.532,0,0,0,.43.51Z"/>
    <path id="Path_14" data-name="Path 14" d="M875.54,445.74v10.2q-7.45-6.24-15.44-6.24a19.63,19.63,0,0,0-14.82,6.3,21.29,21.29,0,0,0-6.06,15.37,20.791,20.791,0,0,0,6.06,15.15,20,20,0,0,0,14.85,6.17,18.19,18.19,0,0,0,7.73-1.48,22.7,22.7,0,0,0,3.67-2,43.625,43.625,0,0,0,4-3v10.38A31,31,0,0,1,860,500.77a28.66,28.66,0,0,1-20.88-8.54,28.3,28.3,0,0,1-8.61-20.77A29.269,29.269,0,0,1,837.74,452q8.87-10.45,23-10.45a29.151,29.151,0,0,1,14.8,4.19Z"/>
    <path id="Path_15" data-name="Path 15" d="M883.12,481.48a17.9,17.9,0,0,1,5.58-13.27,19.68,19.68,0,0,1,27.27,0,19.27,19.27,0,0,1,0,27.08,19,19,0,0,1-13.78,5.44,18.26,18.26,0,0,1-13.56-5.55,18.6,18.6,0,0,1-5.51-13.7Zm8.5.14q0,5.4,2.88,8.54a11.21,11.21,0,0,0,15.6,0,13.55,13.55,0,0,0,0-16.78,11.07,11.07,0,0,0-15.53,0,11.56,11.56,0,0,0-2.95,8.24Z"/>
    <path id="Path_16" data-name="Path 16" d="M931.6,495.59a5.14,5.14,0,1,1,5.14,5.18,5.06,5.06,0,0,1-5.14-5.18Z"/>
    <path id="Path_17" data-name="Path 17" d="M271,520.44H258.48V533.8h12.14V536H258.48v19h-2.43V518.23H271Z"/>
    <path id="Path_18" data-name="Path 18" d="M283.33,532.53v13.58c0,1.6.05,4,1.43,5.63a6.4,6.4,0,0,0,8.94,0c1.38-1.65,1.44-4,1.44-5.63V532.53h2.21v14.19a9.75,9.75,0,0,1-1.71,6.18,8.81,8.81,0,0,1-12.81,0,9.69,9.69,0,0,1-1.71-6.18V532.53Z"/>
    <path id="Path_19" data-name="Path 19" d="M313,534.63v20.42h-2.21V534.63h-2.48v-2.1h2.48v-8.06H313v8.06h4v2.1Z"/>
    <path id="Path_20" data-name="Path 20" d="M328.93,532.53v13.58c0,1.6.06,4,1.44,5.63a6.4,6.4,0,0,0,8.94,0c1.38-1.65,1.44-4,1.44-5.63V532.53H343v14.19a9.75,9.75,0,0,1-1.71,6.18,8.81,8.81,0,0,1-12.81,0,9.69,9.69,0,0,1-1.71-6.18V532.53Z"/>
    <path id="Path_21" data-name="Path 21" d="M356.27,532.53h2.2v2.93a5.32,5.32,0,0,1,5-3.43,5.17,5.17,0,0,1,2.38.56l-1.11,2a2.57,2.57,0,0,0-1.65-.44c-4.53,0-4.59,6-4.59,8.83v12.09h-2.2Z"/>
    <path id="Path_22" data-name="Path 22" d="M376.86,544.07c0,5.74,4.2,9.49,8.95,9.49a8.58,8.58,0,0,0,7.83-5.13l1.88,1.1a10.87,10.87,0,0,1-9.88,6.13c-7,0-11.1-5.19-11.1-11.76,0-7.84,5.41-11.87,10.93-11.87,6.08,0,10.66,4.86,10.66,12Zm16.95-2.1c-.55-4.47-3.86-7.84-8.34-7.84s-7.83,3.48-8.44,7.84Z"/>
    <path id="Path_23" data-name="Path 23" d="M463.66,518.23h8.06c6.4,0,10.16,3.7,10.16,9.22a9,9,0,0,1-4.31,8.06c4.8.77,7.62,4.47,7.62,9.22,0,6.46-4.75,10.32-11.43,10.32h-10.1Zm2.43,16.67h5.85a7.09,7.09,0,0,0,5-1.54,6.92,6.92,0,0,0,2.43-5.63,7.13,7.13,0,0,0-2.48-5.74c-1.82-1.44-4.2-1.55-6.13-1.55h-4.69Zm0,18h6.18c2.49,0,5.52,0,8-2.21a7.18,7.18,0,0,0,2.37-5.63c0-3.32-1.16-5.58-3.92-6.85-1-.44-2.81-1-6.9-1h-5.74Z"/>
    <path id="Path_24" data-name="Path 24" d="M499.72,532.53v13.58c0,1.6,0,4,1.43,5.63a6.4,6.4,0,0,0,8.94,0c1.39-1.65,1.44-4,1.44-5.63V532.53h2.21v14.19A9.75,9.75,0,0,1,512,552.9a8.81,8.81,0,0,1-12.81,0,9.69,9.69,0,0,1-1.71-6.18V532.53Z"/>
    <path id="Path_25" data-name="Path 25" d="M536.65,536.67a4.1,4.1,0,0,0-3.91-2.54,3.63,3.63,0,0,0-3.81,3.59c0,2.21,1.76,2.93,4,3.81s4.36,1.49,5.8,3.31a5.42,5.42,0,0,1,1.16,3.64c0,5.14-3.87,7.18-7.35,7.18a7.71,7.71,0,0,1-7.78-6l2.15-.66a5.75,5.75,0,0,0,5.63,4.52,4.83,4.83,0,0,0,5-5c0-2.54-1.6-3.48-5-4.86-2.26-.94-3.92-1.66-4.91-3a4.75,4.75,0,0,1-1-2.93,5.72,5.72,0,0,1,6-5.8,6.08,6.08,0,0,1,5.91,3.65Z"/>
    <path id="Path_26" data-name="Path 26" d="M550,525a2,2,0,1,1,2,2A2,2,0,0,1,550,525Zm3.09,7.51v22.52h-2.2v-22.5Z"/>
    <path id="Path_27" data-name="Path 27" d="M566.36,532.53h2.21v3.53a7.53,7.53,0,0,1,6.9-4,7,7,0,0,1,6.24,3.15c1,1.6,1.1,3.7,1.1,5.69v14.18h-2.2V540.87a8.34,8.34,0,0,0-.89-4.53,4.78,4.78,0,0,0-4.41-2.21,5.91,5.91,0,0,0-5.52,3.15,12.141,12.141,0,0,0-1.22,6.07v11.7h-2.21Z"/>
    <path id="Path_28" data-name="Path 28" d="M597,544.07c0,5.74,4.19,9.49,8.94,9.49a8.6,8.6,0,0,0,7.84-5.13l1.88,1.1a10.9,10.9,0,0,1-9.89,6.13c-7,0-11.09-5.19-11.09-11.76,0-7.84,5.41-11.87,10.93-11.87,6.07,0,10.65,4.86,10.65,12Zm17-2.1c-.56-4.47-3.87-7.84-8.34-7.84s-7.84,3.48-8.45,7.84Z"/>
    <path id="Path_29" data-name="Path 29" d="M637.75,536.67a4.1,4.1,0,0,0-3.91-2.54,3.63,3.63,0,0,0-3.81,3.59c0,2.21,1.76,2.93,4,3.81s4.36,1.49,5.8,3.31a5.42,5.42,0,0,1,1.16,3.64c0,5.14-3.87,7.18-7.35,7.18a7.71,7.71,0,0,1-7.78-6L628,549a5.75,5.75,0,0,0,5.63,4.52,4.83,4.83,0,0,0,5-5c0-2.54-1.6-3.48-5-4.86-2.26-.94-3.92-1.66-4.91-3a4.75,4.75,0,0,1-1-2.93,5.72,5.72,0,0,1,6-5.8,6.07,6.07,0,0,1,5.91,3.65Z"/>
    <path id="Path_30" data-name="Path 30" d="M661.55,536.67a4.11,4.11,0,0,0-3.92-2.54,3.63,3.63,0,0,0-3.81,3.59c0,2.21,1.77,2.93,4,3.81s4.36,1.49,5.8,3.31a5.47,5.47,0,0,1,1.16,3.64c0,5.14-3.87,7.18-7.35,7.18a7.71,7.71,0,0,1-7.78-6l2.15-.66a5.74,5.74,0,0,0,5.63,4.52,4.83,4.83,0,0,0,5-5c0-2.54-1.61-3.48-5-4.86-2.26-.94-3.92-1.66-4.91-3a4.75,4.75,0,0,1-1-2.93,5.72,5.72,0,0,1,6-5.8,6.08,6.08,0,0,1,5.91,3.65Z"/>
    <path id="Path_31" data-name="Path 31" d="M748.18,524.47a7.86,7.86,0,0,0-7.23-4.53,6.54,6.54,0,0,0-6.84,6.85c0,4,2.76,5.3,6.46,7.12a53.16,53.16,0,0,1,7.34,3.86,8.11,8.11,0,0,1,3.92,7.13c0,6.18-5.19,10.76-11.48,10.76a10.52,10.52,0,0,1-8.56-3.86,12.239,12.239,0,0,1-2.38-4l2.1-1a13,13,0,0,0,2,3.54,8.84,8.84,0,0,0,6.9,3.14,8.56,8.56,0,0,0,8.89-8.5c0-2-.77-4.08-3.59-5.8-1.05-.6-3.2-1.71-6.24-3.2-3.64-1.76-5.46-2.76-6.73-4.86a7.891,7.891,0,0,1-1.16-4.19c0-4.25,2.87-9.17,9.44-9.17A9.87,9.87,0,0,1,750,523Z"/>
    <path id="Path_32" data-name="Path 32" d="M766.35,532.53v13.58c0,1.6.06,4,1.44,5.63a6.4,6.4,0,0,0,8.94,0c1.38-1.65,1.44-4,1.44-5.63V532.53h2.21v14.19a9.75,9.75,0,0,1-1.71,6.18,8.81,8.81,0,0,1-12.81,0,9.69,9.69,0,0,1-1.71-6.18V532.53Z"/>
    <path id="Path_33" data-name="Path 33" d="M811.74,537.83a10.3,10.3,0,0,0-7.79-3.7c-5.52,0-9.38,4.25-9.38,9.77a9.23,9.23,0,0,0,9.27,9.66,11.29,11.29,0,0,0,8.17-4v3a12.3,12.3,0,0,1-8.22,3.14c-6.79,0-11.54-5-11.54-11.7s4.47-12,11.75-12a11.87,11.87,0,0,1,7.79,2.87Z"/>
    <path id="Path_34" data-name="Path 34" d="M841.5,537.83a10.3,10.3,0,0,0-7.78-3.7c-5.53,0-9.39,4.25-9.39,9.77a9.23,9.23,0,0,0,9.28,9.66,11.33,11.33,0,0,0,8.17-4v3a12.33,12.33,0,0,1-8.23,3.14c-6.79,0-11.54-5-11.54-11.7s4.47-12,11.71-12a11.85,11.85,0,0,1,7.78,2.87Z"/>
    <path id="Path_35" data-name="Path 35" d="M854.09,544.07c0,5.74,4.2,9.49,8.94,9.49a8.58,8.58,0,0,0,7.84-5.13l1.88,1.1a10.87,10.87,0,0,1-9.88,6.13c-7,0-11.1-5.19-11.1-11.76,0-7.84,5.41-11.87,10.93-11.87,6.08,0,10.66,4.86,10.66,12ZM871,542c-.55-4.47-3.86-7.84-8.34-7.84s-7.84,3.48-8.44,7.84Z"/>
    <path id="Path_36" data-name="Path 36" d="M894.84,536.67a4.11,4.11,0,0,0-3.92-2.54,3.63,3.63,0,0,0-3.81,3.59c0,2.21,1.77,2.93,4,3.81s4.37,1.49,5.8,3.31a5.42,5.42,0,0,1,1.16,3.64c0,5.14-3.86,7.18-7.34,7.18a7.71,7.71,0,0,1-7.79-6l2.16-.66a5.74,5.74,0,0,0,5.63,4.52,4.82,4.82,0,0,0,5-5c0-2.54-1.6-3.48-5-4.86-2.26-.94-3.92-1.66-4.91-3a4.75,4.75,0,0,1-1-2.93,5.72,5.72,0,0,1,6-5.8,6.08,6.08,0,0,1,5.91,3.65Z"/>
    <path id="Path_37" data-name="Path 37" d="M918.64,536.67a4.12,4.12,0,0,0-3.92-2.54,3.63,3.63,0,0,0-3.81,3.59c0,2.21,1.77,2.93,4,3.81s4.37,1.49,5.8,3.31a5.42,5.42,0,0,1,1.16,3.64c0,5.14-3.86,7.18-7.34,7.18a7.71,7.71,0,0,1-7.79-6l2.16-.66a5.74,5.74,0,0,0,5.63,4.52,4.82,4.82,0,0,0,5-5c0-2.54-1.6-3.48-5-4.86-2.27-.94-3.92-1.66-4.92-3a4.81,4.81,0,0,1-1-2.93,5.72,5.72,0,0,1,6-5.8,6.08,6.08,0,0,1,5.91,3.65Z"/>
    <circle id="Ellipse_2" data-name="Ellipse 2" cx="5.82" cy="5.82" r="5.82" transform="translate(424.06 539.4)" fill="#c6ce00"/>
    <circle id="Ellipse_3" data-name="Ellipse 3" cx="5.82" cy="5.82" r="5.82" transform="translate(691.09 539.4)" fill="#c6ce00"/>
  </g>
</svg>
