<?xml version="1.0" encoding="UTF-8" standalone="no"?>
<!-- Created with Inkscape (http://www.inkscape.org/) -->

<svg
   xmlns:dc="http://purl.org/dc/elements/1.1/"
   xmlns:cc="http://creativecommons.org/ns#"
   xmlns:rdf="http://www.w3.org/1999/02/22-rdf-syntax-ns#"
   xmlns:svg="http://www.w3.org/2000/svg"
   xmlns="http://www.w3.org/2000/svg"
   version="1.1"
   width="892.91339"
   height="164.40944"
   id="svg3088">
  <defs
     id="defs3090">
    <clipPath
       id="clipPath3035">
      <path
         d="m 68,704 144,0 0,36 -144,0 0,-36 z"
         id="path3037" />
    </clipPath>
  </defs>
  <metadata
     id="metadata3093">
    <rdf:RDF>
      <cc:Work
         rdf:about="">
        <dc:format>image/svg+xml</dc:format>
        <dc:type
           rdf:resource="http://purl.org/dc/dcmitype/StillImage" />
        <dc:title></dc:title>
      </cc:Work>
    </rdf:RDF>
  </metadata>
  <g
     transform="translate(62.999821,-415.61419)"
     id="layer1">
    <g
       transform="matrix(7.0303927,0,0,7.0303927,-1005.041,-1921.26)"
       id="g3139">
      <path
         d="m 217.28452,355.28321 3.12375,0 0,-12.49625 -3.12375,0 0,12.49625 z"
         id="path3013"
         style="fill:#154396;fill-opacity:1;fill-rule:nonzero;stroke:none" />
      <g
         transform="matrix(1.25,0,0,-1.25,179.27627,353.20008)"
         id="g3015">
        <path
           d="m 0,0 -9.58,0 0,8.33 -2.499,0 0,-9.996 L 0,-1.666 0,0 z"
           id="path3017"
           style="fill:#154396;fill-opacity:1;fill-rule:nonzero;stroke:none" />
      </g>
      <g
         transform="matrix(1.25,0,0,-1.25,181.35877,355.28284)"
         id="g3019">
        <path
           d="m 0,0 0,9.997 12.08,0 0,-1.666 -9.581,0 0,-2.5 6.249,0 0,-1.666 -6.249,0 0,-2.499 9.581,0 L 12.08,0 0,0 z"
           id="path3021"
           style="fill:#154396;fill-opacity:1;fill-rule:nonzero;stroke:none" />
      </g>
      <g
         transform="matrix(1.25,0,0,-1.25,215.20202,342.78696)"
         id="g3023">
        <path
           d="M 0,0 -2.916,0 -6.664,-3.599 -10.413,0 l -2.916,0 5.207,-4.998 -5.207,-4.999 2.916,0 3.749,3.599 3.748,-3.599 2.916,0 -5.207,4.999 L 0,0 z"
           id="path3025"
           style="fill:#154396;fill-opacity:1;fill-rule:nonzero;stroke:none" />
      </g>
      <g
         transform="matrix(1.25,0,0,-1.25,257.37539,342.78696)"
         id="g3027">
        <path
           d="M 0,0 0,-7.69 -8.33,0 l -2.5,0 0,-9.997 2.5,0 0,7.69 8.33,-7.69 2.499,0 L 2.499,0 0,0 z"
           id="path3029"
           style="fill:#154396;fill-opacity:1;fill-rule:nonzero;stroke:none" />
      </g>
      <g
         transform="matrix(1.25,0,0,-1.25,49.499525,1235.2845)"
         id="g3031">
        <g
           clip-path="url(#clipPath3035)"
           id="g3033">
          <g
             transform="translate(149.8482,705.6675)"
             id="g3039">
            <path
               d="m 0,0 c 0.345,0 0.625,0.28 0.625,0.625 l 0,5.415 C 0.625,6.385 0.345,6.664 0,6.664 l -7.081,0 c -0.345,0 -0.625,-0.279 -0.625,-0.624 l 0,-5.415 C -7.706,0.28 -7.426,0 -7.081,0 L 0,0 z m -10.205,7.497 c 0,0.461 0.373,0.833 0.833,0.833 l 11.662,0 c 0.461,0 0.834,-0.372 0.834,-0.833 l 0,-8.33 c 0,-0.46 -0.373,-0.833 -0.834,-0.833 l -11.662,0 c -0.46,0 -0.833,0.373 -0.833,0.833 l 0,8.33 z"
               id="path3041"
               style="fill:#154396;fill-opacity:1;fill-rule:nonzero;stroke:none" />
          </g>
          <g
             transform="translate(75.3367,710.5162)"
             id="g3043">
            <path
               d="M 0,0 3.493,5.148 5.28,2.515 C 3.191,1.583 1.407,0.716 0,0 m 56.457,10.014 c 0,0 -3.809,1.382 -14.227,1.382 -13.269,0 -26.285,-4.323 -35.032,-8.045 L 3.493,8.48 -7.337,-6.515 l 2.916,0 1.339,1.973 c 1.257,0.754 4.781,2.809 9.636,5.179 l 4.853,-7.152 2.916,0 -5.834,8.078 c 9.176,4.311 22.152,9.208 33.741,9.208 10.396,0 14.019,-1.117 14.019,-1.117 0.1,-0.058 0.227,-0.024 0.285,0.076 0.057,0.099 0.023,0.227 -0.077,0.284"
               id="path3045"
               style="fill:#154396;fill-opacity:1;fill-rule:nonzero;stroke:none" />
          </g>
          <g
             transform="translate(135.4775,715.2473)"
             id="g3047">
            <path
               d="m 0,0 c -0.115,0 -0.208,0.093 -0.209,0.209 -0.001,0.27 0.338,0.817 -0.513,2.29 l 0,10e-4 c -0.85,1.473 -1.494,1.453 -1.727,1.59 -0.1,0.058 -0.134,0.185 -0.077,0.284 l 10e-4,0 0,0 C -2.467,4.474 -2.34,4.507 -2.24,4.45 -2.005,4.317 -1.701,3.749 0,3.749 l 0.001,0 c 1.701,0 2.006,0.568 2.24,0.701 0.101,0.057 0.228,0.024 0.285,-0.076 l 0,0 0,0 C 2.583,4.274 2.548,4.147 2.449,4.089 2.216,3.953 1.572,3.972 0.722,2.499 l -0.001,0 C -0.129,1.026 0.21,0.478 0.208,0.208 0.208,0.093 0.115,0 0,0 l 0,0 z"
               id="path3049"
               style="fill:#e1173d;fill-opacity:1;fill-rule:nonzero;stroke:none" />
          </g>
        </g>
      </g>
    </g>
  </g>
</svg>
