<?xml version="1.0" encoding="UTF-8" standalone="no"?>
<!-- Created with Inkscape (http://www.inkscape.org/) -->

<svg
   xmlns:dc="http://purl.org/dc/elements/1.1/"
   xmlns:cc="http://creativecommons.org/ns#"
   xmlns:rdf="http://www.w3.org/1999/02/22-rdf-syntax-ns#"
   xmlns:svg="http://www.w3.org/2000/svg"
   xmlns="http://www.w3.org/2000/svg"
   xmlns:sodipodi="http://sodipodi.sourceforge.net/DTD/sodipodi-0.dtd"
   xmlns:inkscape="http://www.inkscape.org/namespaces/inkscape"
   width="153.04517"
   height="33.306"
   viewBox="0 0 40.493202 8.8122127"
   version="1.1"
   id="svg6683"
   inkscape:version="0.92.4 (5da689c313, 2019-01-14)"
   sodipodi:docname="Arrowhead Pharmaceuticals.svg">
  <defs
     id="defs6677" />
  <sodipodi:namedview
     id="base"
     pagecolor="#ffffff"
     bordercolor="#666666"
     borderopacity="1.0"
     inkscape:pageopacity="0.0"
     inkscape:pageshadow="2"
     inkscape:zoom="9.398524"
     inkscape:cx="76.022576"
     inkscape:cy="16.153"
     inkscape:document-units="mm"
     inkscape:current-layer="layer1"
     showgrid="false"
     fit-margin-top="0"
     fit-margin-left="0"
     fit-margin-right="0"
     fit-margin-bottom="0"
     units="px"
     inkscape:window-width="1920"
     inkscape:window-height="1001"
     inkscape:window-x="-9"
     inkscape:window-y="-9"
     inkscape:window-maximized="1" />
  <metadata
     id="metadata6680">
    <rdf:RDF>
      <cc:Work
         rdf:about="">
        <dc:format>image/svg+xml</dc:format>
        <dc:type
           rdf:resource="http://purl.org/dc/dcmitype/StillImage" />
        <dc:title></dc:title>
      </cc:Work>
    </rdf:RDF>
  </metadata>
  <g
     inkscape:label="Layer 1"
     inkscape:groupmode="layer"
     id="layer1"
     transform="translate(47.328593,-144.29494)">
    <g
       transform="translate(656.74283,189.65387)"
       id="g6661">
      <path
         style="fill:#877f7a;stroke-width:0.26458332"
         inkscape:connector-curvature="0"
         d="m -692.0948,-38.278152 c 0.073,-0.127 0.22939,-0.201084 0.3855,-0.201084 0.31247,0 0.58341,0.243417 0.58341,0.624682 0,0.381264 -0.26062,0.614362 -0.58341,0.614362 -0.15611,0 -0.31221,-0.0635 -0.38523,-0.1905 v 0.751681 h -0.26062 v -1.779058 h 0.26035 z m 0.35428,0.783696 c 0.19791,0 0.35401,-0.137584 0.35401,-0.359834 0,-0.222514 -0.1561,-0.370946 -0.35401,-0.370946 -0.18759,0 -0.35428,0.137584 -0.35428,0.370682 0,0.232833 0.17727,0.360098 0.35428,0.360098 z m 1.20835,0.222514 h -0.26035 v -1.832239 h 0.26035 v 0.826029 c 0.0624,-0.148167 0.25003,-0.201084 0.37491,-0.201084 0.30216,0 0.46885,0.201084 0.46885,0.540015 v 0.667279 h -0.26062 v -0.656696 c 0,-0.1905 -0.11456,-0.296333 -0.26035,-0.296333 -0.14578,0 -0.32279,0.08467 -0.32279,0.3175 z m 2.14551,-0.169598 c -0.0728,0.127 -0.25003,0.1905 -0.39582,0.1905 -0.31247,0 -0.59373,-0.243416 -0.59373,-0.624416 0,-0.38153 0.28126,-0.614363 0.59373,-0.614363 0.13547,0 0.31247,0.0635 0.39582,0.1905 v -0.169333 h 0.25003 v 1.19671 h -0.25003 v -0.169333 z m -0.3646,-0.05292 c 0.18759,0 0.3646,-0.137584 0.3646,-0.370417 0,-0.233098 -0.18759,-0.360363 -0.3646,-0.360363 -0.19791,0 -0.35401,0.137584 -0.35401,0.360098 0,0.22225 0.1561,0.370682 0.35401,0.370682 z m 1.28138,0.222514 h -0.26035 v -1.186127 h 0.26035 v 0.275167 c 0.0624,-0.211667 0.17727,-0.296334 0.32279,-0.296334 0.0833,0 0.16669,0.02117 0.20849,0.04233 l -0.0418,0.243416 a 0.39158333,0.39158333 0 0 0 -0.17701,-0.04233 c -0.21881,0 -0.31247,0.22225 -0.31247,0.540279 v 0.423334 z m 1.8333,-0.635529 v 0.635529 h -0.26062 v -0.667279 c 0,-0.179917 -0.10398,-0.28575 -0.23945,-0.28575 -0.14578,0 -0.29157,0.08467 -0.29157,0.3175 v 0.635529 h -0.26061 v -1.186127 h 0.26035 v 0.179917 c 0.073,-0.169334 0.27093,-0.201084 0.36459,-0.201084 0.18759,0 0.30216,0.08467 0.3646,0.232834 0.11456,-0.201084 0.28125,-0.232834 0.39582,-0.232834 0.29183,0 0.44794,0.1905 0.44794,0.529432 v 0.677862 h -0.26035 v -0.656696 c 0,-0.1905 -0.0937,-0.296333 -0.25004,-0.296333 -0.1561,0 -0.27093,0.127 -0.27093,0.3175 z m 2.09364,0.465931 c -0.073,0.127 -0.25003,0.1905 -0.39581,0.1905 -0.31248,0 -0.59373,-0.243416 -0.59373,-0.624416 0,-0.38153 0.28125,-0.614363 0.59373,-0.614363 0.1352,0 0.31221,0.0635 0.39581,0.1905 v -0.169333 h 0.24977 v 1.19671 h -0.24977 v -0.169333 z m -0.36459,-0.05292 c 0.18732,0 0.36459,-0.137584 0.36459,-0.370417 0,-0.233098 -0.18759,-0.360363 -0.36459,-0.360363 -0.19791,0 -0.35428,0.137584 -0.35428,0.360098 0,0.22225 0.16669,0.370682 0.35428,0.370682 z m 1.57295,-0.98478 c 0.18732,0 0.35401,0.07408 0.45825,0.201084 l -0.1979,0.15875 a 0.33602083,0.33602083 0 0 0 -0.26035,-0.116417 c -0.19791,0 -0.3646,0.137583 -0.3646,0.360098 0,0.22225 0.17701,0.370681 0.36433,0.370681 0.10425,0 0.19817,-0.04233 0.26062,-0.116416 l 0.1979,0.15875 c -0.11456,0.127 -0.28125,0.211666 -0.46884,0.211666 -0.33337,0 -0.62494,-0.243416 -0.62494,-0.624416 0.0106,-0.370946 0.30215,-0.60378 0.63526,-0.60378 z m 1.85393,0.709613 h -0.9271 c 0.0212,0.179917 0.16669,0.296333 0.35428,0.296333 0.12488,0 0.26035,-0.0635 0.31247,-0.169333 0.0624,0.03175 0.14579,0.0635 0.20823,0.09525 -0.10398,0.211667 -0.32279,0.306917 -0.5416,0.306917 -0.33338,0 -0.60405,-0.243417 -0.60405,-0.624417 0,-0.381529 0.27067,-0.614363 0.60405,-0.614363 0.33337,0 0.5834,0.243417 0.5834,0.614098 0.0106,0.03175 0.0106,0.07408 0.0106,0.09525 z m -0.25003,-0.190765 c -0.0206,-0.1905 -0.1561,-0.296333 -0.33338,-0.296333 -0.177,0 -0.32279,0.105833 -0.34369,0.296333 h 0.67733 z m 1.36472,-0.497681 h 0.26035 v 1.186127 h -0.26035 v -0.169333 c -0.0627,0.137583 -0.22939,0.201083 -0.34396,0.201083 -0.28125,0 -0.45826,-0.1905 -0.44767,-0.519112 v -0.688182 h 0.26035 v 0.656432 c 0,0.1905 0.10424,0.296598 0.23945,0.296598 0.14578,0 0.30215,-0.08467 0.30215,-0.3175 v -0.646113 h -0.0106 z m 1.00992,0 h 0.25003 v 0.211667 h -0.25003 v 0.97446 h -0.26035 v -0.97446 h -0.20823 v -0.211667 h 0.20823 v -0.445029 h 0.26035 v 0.4445 z m 0.64637,-0.646112 c 0.0934,0 0.16669,0.07408 0.16669,0.169333 0,0.09525 -0.073,0.169598 -0.16669,0.169598 -0.0939,0 -0.17727,-0.07408 -0.17727,-0.169333 0.0106,-0.09525 0.0833,-0.169334 0.17727,-0.169334 z m 0.1352,0.646112 h -0.25003 v 1.186127 h 0.25003 z m 0.93742,-0.02117 c 0.18733,0 0.35402,0.07408 0.45826,0.201084 l -0.19791,0.15875 c -0.0521,-0.0635 -0.15637,-0.105834 -0.26035,-0.105834 -0.19791,0 -0.36459,0.137584 -0.36459,0.360098 0,0.22225 0.177,0.370682 0.36459,0.370682 0.10398,0 0.19791,-0.04233 0.26035,-0.116417 l 0.19791,0.15875 c -0.11456,0.127 -0.28125,0.211667 -0.46884,0.211667 -0.33338,0 -0.62495,-0.243417 -0.62495,-0.624417 0.0209,-0.381529 0.30216,-0.614363 0.63553,-0.614363 z m 1.65603,1.037696 c -0.073,0.127 -0.25003,0.1905 -0.39582,0.1905 -0.31247,0 -0.59372,-0.243416 -0.59372,-0.624416 0,-0.38153 0.28125,-0.614363 0.59372,-0.614363 0.13547,0 0.31248,0.0635 0.39582,0.1905 v -0.169333 h 0.25003 v 1.19671 h -0.25003 v -0.169333 z m -0.3646,-0.05292 c 0.18759,0 0.3646,-0.137584 0.3646,-0.370417 0,-0.233098 -0.18759,-0.360363 -0.3646,-0.360363 -0.1979,0 -0.35401,0.137584 -0.35401,0.360098 0,0.22225 0.16669,0.370682 0.35401,0.370682 z m 1.02103,-1.609725 h 0.26035 v 1.832239 h -0.26035 z m 0.62468,0.931862 c 0.0106,-0.179917 0.19791,-0.3175 0.41672,-0.3175 0.20823,0 0.40614,0.09525 0.42704,0.34925 h -0.25003 c -0.0103,-0.08467 -0.0937,-0.127 -0.16669,-0.127 -0.0624,0 -0.1352,0.02117 -0.16642,0.0635 a 0.12726458,0.12726458 0 0 0 -0.0106,0.105833 c 0.0106,0.04233 0.0833,0.07408 0.14579,0.09525 l 0.17727,0.0426 c 0.24977,0.0635 0.30189,0.22225 0.30189,0.34925 0,0.233098 -0.19791,0.360363 -0.46858,0.360363 -0.21881,0 -0.43762,-0.137584 -0.44794,-0.391848 h 0.23945 c 0.0106,0.105833 0.0939,0.169333 0.22913,0.169333 0.11483,0 0.20849,-0.05292 0.20849,-0.137583 0,-0.07408 -0.073,-0.116417 -0.16669,-0.137583 l -0.15636,-0.04233 c -0.23945,-0.0635 -0.33311,-0.190764 -0.31248,-0.381529 z m -15.99909,-1.863725 h -0.42703 v -0.518848 c -0.21855,0.381 -0.68739,0.582348 -1.11443,0.582348 -0.84376,0 -1.52082,-0.624681 -1.52082,-1.577975 0,-0.953029 0.67733,-1.567392 1.52082,-1.567392 0.42704,0 0.89588,0.179917 1.11443,0.561446 v -0.497946 h 0.42703 z m -1.54146,-0.370681 c 0.60404,0 1.11443,-0.402431 1.11443,-1.154377 0,-0.741363 -0.58315,-1.133211 -1.11443,-1.133211 -0.61463,0 -1.09379,0.434182 -1.09379,1.133211 0,0.677862 0.46884,1.154377 1.09379,1.154377 z m 3.97907,-2.170906 c -0.13547,-0.07408 -0.32279,-0.105834 -0.42704,-0.105834 -0.60431,0 -0.85434,0.719932 -0.85434,1.524794 v 1.122627 h -0.42704 v -3.018367 h 0.42704 v 0.688446 c 0.14579,-0.518848 0.41672,-0.751946 0.85408,-0.751946 0.20849,0 0.4273,0.0635 0.47916,0.116417 z m 2.12487,0 c -0.13547,-0.07408 -0.32279,-0.105834 -0.42704,-0.105834 -0.60431,0 -0.85407,0.719932 -0.85407,1.524794 v 1.122627 h -0.42704 v -3.018367 h 0.42704 v 0.688446 c 0.14552,-0.518848 0.41645,-0.751946 0.85407,-0.751946 0.20823,0 0.42704,0.0635 0.4789,0.116417 z m 0.0728,1.027112 c 0,-0.953029 0.70829,-1.567392 1.55204,-1.567392 0.84376,0 1.55205,0.60378 1.55205,1.567392 0,0.963877 -0.70829,1.577975 -1.55205,1.577975 -0.84402,0 -1.55204,-0.624681 -1.55204,-1.577975 z m 2.67679,0 c 0,-0.699029 -0.51012,-1.13321 -1.13506,-1.13321 -0.61463,0 -1.1356,0.434181 -1.1356,1.13321 0,0.699029 0.51065,1.154377 1.13533,1.154377 0.62521,0 1.13533,-0.465931 1.13533,-1.154377 z m 3.81264,1.514475 -0.9271,-2.425171 -0.88529,2.425171 h -0.35428 l -1.14564,-3.018367 h 0.44793 l 0.85408,2.329921 0.85407,-2.329921 h 0.45826 l 0.85408,2.329921 0.85407,-2.329921 h 0.44794 l -1.11442,3.018367 h -0.34396 z m 2.2913,0 h -0.42704 v -4.649258 h 0.42704 v 2.128837 c 0.18759,-0.391848 0.64584,-0.561446 0.98954,-0.561446 0.72919,0 1.14591,0.50853 1.14591,1.323711 v 1.758156 h -0.42704 V -41.7942 c 0,-0.550333 -0.26061,-0.900113 -0.71887,-0.900113 -0.46858,0 -0.98954,0.275432 -0.98954,1.006211 z m 2.63525,-1.514475 c 0,-0.953029 0.65643,-1.567392 1.49992,-1.567392 0.84375,0 1.45838,0.60378 1.45838,1.567392 0,0.0635 0,0.137583 -0.0103,0.201083 h -2.52095 c 0.073,0.593196 0.51065,0.953294 1.06257,0.953294 0.39582,0 0.73951,-0.1905 0.9271,-0.518848 0.12488,0.03175 0.29157,0.0635 0.42704,0.09525 -0.23972,0.540015 -0.76042,0.857779 -1.35414,0.857779 -0.83317,-0.01058 -1.4896,-0.635529 -1.4896,-1.588558 z m 2.52068,-0.201083 c -0.0833,-0.572029 -0.47889,-0.932127 -1.02076,-0.932127 -0.55192,0 -0.98954,0.360098 -1.0623,0.932127 z m 3.88541,1.715558 h -0.42704 v -0.518848 c -0.21881,0.381 -0.68739,0.582348 -1.11443,0.582348 -0.84375,0 -1.52082,-0.624681 -1.52082,-1.577975 0,-0.953029 0.67707,-1.567392 1.52082,-1.567392 0.42704,0 0.89562,0.179917 1.11443,0.561446 v -0.497946 h 0.42704 z m -1.54147,-0.370681 c 0.60405,0 1.11443,-0.402431 1.11443,-1.154377 0,-0.741363 -0.58314,-1.133211 -1.11443,-1.133211 -0.61462,0 -1.09378,0.434182 -1.09378,1.133211 0,0.677862 0.47916,1.154377 1.09378,1.154377 z m 5.0726,0.370681 h -0.42704 v -0.518848 c -0.21881,0.381 -0.68739,0.582348 -1.11443,0.582348 -0.84375,0 -1.52082,-0.624681 -1.52082,-1.577975 0,-0.953029 0.67707,-1.567392 1.52082,-1.567392 0.42704,0 0.89562,0.179917 1.11443,0.561446 v -2.128837 h 0.42704 z m -1.55205,-0.370681 c 0.60404,0 1.11469,-0.402431 1.11469,-1.154377 0,-0.741363 -0.58341,-1.133211 -1.11469,-1.133211 -0.61463,0 -1.09352,0.434182 -1.09352,1.133211 0.0103,0.677862 0.47889,1.154377 1.09352,1.154377 z"
         id="path6612" />
      <path
         style="fill:#4ca950;stroke-width:0.26458332"
         inkscape:connector-curvature="0"
         d="m -699.94816,-40.078377 c 0.58102,0 1.05198,-0.478896 1.05198,-1.069711 0,-0.59055 -0.47096,-1.06971 -1.05198,-1.06971 -0.58103,0 -1.05198,0.478896 -1.05198,1.06971 0,0.590815 0.47095,1.069711 1.05198,1.069711 z"
         id="path6614" />
      <path
         style="fill:#4681cf;stroke-width:0.26458332"
         inkscape:connector-curvature="0"
         d="m -694.43821,-37.589706 v 0.338666 h -3.39567 l 0.0625,-0.0635 c 0.57308,-0.3175 1.11469,-0.868362 1.52082,-1.51421 0.62495,-0.974196 0.89588,-2.096823 1.06257,-2.795852 l 0.0312,-0.04233 c 0,0 0.0521,2.266157 0.11456,3.547798 0.0728,0.254 0.26035,0.391584 0.60405,0.529167 z m -2.84348,-7.381346 c 0.0106,0.963612 -0.0624,2.117989 -0.28125,3.071019 -0.18759,0.815445 -0.42704,1.302543 -0.65617,1.641475 -0.32279,0.476779 -0.64585,0.720195 -0.97896,0.836612 -0.22939,0.105833 -0.47942,0.15875 -0.75009,0.15875 -1.03135,0 -1.86452,-0.846931 -1.86452,-1.895475 0,-1.048544 0.83344,-1.89574 1.86452,-1.89574 0.96837,0 1.76027,0.751946 1.85393,1.70524 l 0.0209,0.02117 c 0.27066,-0.794279 0.40613,-1.916907 0.42703,-3.15595 -0.50006,-0.402432 -1.47902,-0.730779 -2.42702,-0.730779 -1.04166,0 -2.04152,0.487097 -2.76013,1.239043 -0.71888,0.751946 -1.09379,1.747309 -1.09379,2.838186 0,1.080293 0.42704,2.086239 1.16681,2.859352 0.76015,0.794279 1.65603,1.239043 2.72891,1.239043 2.99985,0.09525 4.73922,-3.039268 4.85379,-7.656777 v -0.275166 z"
         id="path6616" />
      <path
         style="fill:none;stroke:#4681cf;stroke-width:0.06614583;stroke-miterlimit:10"
         inkscape:connector-curvature="0"
         stroke-miterlimit="10"
         d="m -699.89604,-37.060275 h -0.12515 c -1.02076,0 -1.93728,-0.41275 -2.71859,-1.228461 -0.74983,-0.794279 -1.16628,-1.800225 -1.16628,-2.848768 0,-1.101461 0.37491,-2.075657 1.0832,-2.817019 0.74983,-0.783696 1.74969,-1.239044 2.74955,-1.239044 0.88556,0 1.8751,0.296334 2.3958,0.730779 -0.0206,1.239044 -0.16668,2.298171 -0.40613,3.060436 -0.12515,-0.963348 -0.91705,-1.673225 -1.87484,-1.673225 -1.04166,0 -1.89574,0.857779 -1.89574,1.927489 0,1.059127 0.84349,1.92749 1.89574,1.92749 0.26035,0 0.5207,-0.05292 0.76015,-0.15875 0.37518,-0.148167 0.69797,-0.413015 0.98954,-0.84746 0.28125,-0.41275 0.48948,-0.942446 0.65617,-1.641475 0.26061,-1.11178 0.29183,-2.382838 0.28151,-3.049853 h 2.05185 v 0.243417 c -0.10425,4.681008 -1.89574,7.614708 -4.67678,7.614708 z"
         id="path6618" />
      <path
         style="fill:none;stroke:#4681cf;stroke-width:0.06614583;stroke-miterlimit:10"
         inkscape:connector-curvature="0"
         stroke-miterlimit="10"
         d="m -697.77117,-37.282525 0.0206,-0.02117 c 0.55218,-0.307181 1.09379,-0.84746 1.53114,-1.514475 0.62495,-0.97446 0.9062,-2.096823 1.05225,-2.742935 0.0103,0.465931 0.0624,2.329921 0.10398,3.441964 0.073,0.275167 0.29184,0.41275 0.60431,0.53975 v 0.296863 h -3.31258 z"
         id="path6620" />
    </g>
  </g>
</svg>
