<svg version="1.1" id="Layer_1" xmlns="http://www.w3.org/2000/svg" xmlns:xlink="http://www.w3.org/1999/xlink" x="0px" y="0px" viewBox="1613.8 -291.4 2662.4 692.9" style="enable-background:new 1613.8 -291.4 2662.4 692.9;" xml:space="preserve">
 <style type="text/css">
  .st0{fill:#7E8083;}
	.st1{fill:#005596;}
 </style>
 <g>
  <path class="st0" d="M1723.6,288l-8.7-43.2l-23.1,43.2L1723.6,288z M1714.5,349.2l-0.1-7.6l8.4-2.2c3.1-0.4,4.8-1,5.6-2
		c0.9-1.3,1-3.6,0.3-8l-5.1-30.1l-38.4,1.1c-1.5,4.1-5.9,13.1-10,21.2l-2.8,5.5c-2.2,4.4-4.1,8.8-3.2,10.5c0.5,0.9,2.2,1.5,5.3,1.9
		l7.2,0.9l-0.1,7.6l-48.6,1.1l-0.1-7.6c12.8-2.5,16-3.5,26.6-22l62.5-110l9.5-3.2l8.3,39.2c2.5,14.7,4.9,29.5,7.3,44.1l5.4,32.8
		c2.6,16.2,5,16.9,17.2,18.1l0.2,7.6l-0.2,1.1L1714.5,349.2L1714.5,349.2z M1953.9,349.4l-0.3-7.6c16.3-2.5,17.6-2.6,21.6-25.6
		l14.2-82l-66.1,112.1l-7.5,0.6l-27.1-108.2l-10,54.4c-3.9,17.8-6.3,30.6-7,38.1c-0.3,2.5,0,4.2,1,5.4c1.8,2.1,6,3.2,15,4l0.2,7.6
		l-51.7,1.1l-0.3-7.8c11.9-1.6,16.2-3.9,18.9-10.9c2.2-6.3,6-18.3,11.2-39.2l11.7-46.6c3.1-12.5,4.4-19.9,1.9-23.2
		c-1.9-2.6-6.3-3.4-14.3-4.1l0-7.6l39-1.1l27.4,100.1l61.5-99.4l40.8-0.6l0,7.6c-17.2,2.5-18.5,3.1-22,25.5l-11.6,74.5
		c-1.9,12.3-2.6,18-0.5,20.6c1.8,2.3,6.3,2.8,13.4,3.4l-0.1,7.6l-0.2,1.1L1953.9,349.4L1953.9,349.4z M2079.5,264.3
		c-2.2,0.2-4.4,0.9-6.3,2.2c-4,2.2-13.5,10-17.6,34c22-7.8,31.4-16.1,31.4-27.6c0-2.8-0.8-4.9-2.3-6.4
		C2083.3,265.1,2081.5,264.3,2079.5,264.3 M2054.5,351.9c-3.8,0-10.9-0.8-16.9-6.5c-5.9-5.6-8.9-14.3-8.9-25.8
		c0-20.9,10.5-43.1,25.6-54c6.9-5,20.6-13.4,34.5-13.4c13.1,0,21.9,7.4,21.9,18.4c0,14.9-19.3,28.5-57.3,40.5
		c0.8,0.1,0.6,1.9,0.6,2.9c0,4.6,0.7,13.1,5.3,17.7c2.3,2.3,5.5,3.5,8.7,3.3c9.1,0,19.9-5.3,30.4-14.9l5.6,5.3
		C2082.6,348.7,2063.8,351.9,2054.5,351.9 M2353.3,269.4c-4.9,0-15.9,8.2-24,17.9c-7.7,9-8.4,12.2-11.4,30
		c-1.6,10.1-1,16.6,1.8,19.9c1.6,1.8,3.8,2.7,7.2,2.7c3.4,0.1,6.8-0.8,9.7-2.6c10-5.7,22.2-32.3,22.2-55.3c0-5.8-0.9-9.7-2.6-11.4
		C2355.5,269.7,2354.4,269.3,2353.3,269.4 M2317.9,352.1c-12.7,0-21.9-4.8-24.6-12.8c-1.6-5.1-1.1-9.7,1.6-23l19.3-95.3
		c0.7-3.5,1.2-6.3,0.5-7.1c-0.6-0.7-2.8-0.8-5.1-0.8l-10,0l-1.4-6.4c9.3-2.8,18.6-5.4,28-7.6c7.4-1.8,10.7-2.6,11.7-2.6h0.7l2,1.2
		c1.4,1.7,1.4,5.1,0.2,10.4l-15.4,69.4c17.2-17.4,34.1-25.2,43.5-25.2c4.7,0,8.6,2,11.4,5.7c2.7,3.7,4.2,9,4.2,15.2
		c0,26-13.6,54.3-32.4,67.2c-14.9,10.1-27.8,11.6-34.2,11.6L2317.9,352.1L2317.9,352.1z M3228.3,220.5c-4.7,0-7.7,0.3-9.4,1
		c-0.9,0.4-1.3,1.8-2.1,5.1l-10.7,55.3l6.9-1.7c8.3,0,14.5-1.6,20.6-5.4c10.9-6.7,17.4-18.5,17.4-31.5
		C3251,228.7,3243,220.6,3228.3,220.5 M3273,351.9c-24.3-0.6-30.1-8.2-36.7-20.7c-5.5-11-10.6-22.3-15.1-33.8
		c-2.4-6.1-3.8-7.2-9.5-7.2h-8.3l-4.2,27.2c-2.3,11.7-3,17.7-0.9,20.5c1.7,2.2,5.5,2.9,13.4,3.5l0.2,7.6l-59.8,1.1l-0.1-7.6
		c16.7-2.3,18.3-3.1,22.7-25.7l14.2-74.5c2.3-11.7,3-17.8,0.9-20.6c-1.7-2.2-5.3-2.8-13-3.4l-0.2-7.5l53.7-1.1
		c31.3,0,47.1,11.8,47.1,35.1c0,21.4-19,34.5-36.8,39.7c2.8,2.9,8.8,17.3,13.8,26.8c5.2,10.1,9.8,18.2,13.4,23.4
		c4,5.5,7.8,8.2,13.8,9.6l-0.5,6.8l-0.3,1L3273,351.9L3273,351.9z M2447.3,264.5c-2.2,0.2-4.4,0.9-6.3,2.1c-4,2.3-13.5,10-17.7,34
		c22-7.8,31.4-16.1,31.4-27.6C2454.8,266.4,2450.1,264.5,2447.3,264.5 M2422.3,352.2c-6.3,0.1-12.3-2.3-16.9-6.6
		c-5.9-5.6-8.9-14.3-8.9-25.8c0-20.9,10.6-43.1,25.6-54c6.9-5,20.6-13.4,34.4-13.4c13.2,0,22,7.4,22,18.3
		c0,14.9-19.3,28.5-57.3,40.5c0.7,0.1,0.6,1.9,0.6,2.9c0,7.8,1.8,21,14.1,21.1c9.1,0,19.9-5.3,30.4-14.9l5.6,5.3
		C2450.4,349,2431.6,352.2,2422.3,352.2 M2658.5,264.5c-2,0-4,0.3-5.8,1.1c-6.4,2.7-19.5,18.3-19.5,49.6c0,7.9,1.3,14.4,3.8,18.8
		c2.4,4.3,5.8,6.5,10.1,6.5c1.6,0,3.2-0.3,4.7-0.8c6.9-2.3,19.8-24.9,19.4-53.3C2671,272.3,2666.6,264.5,2658.5,264.5 M2638.7,352.3
		c-10.8,0-19.1-3.8-24.5-11.3c-4.3-5.9-6.7-14.1-6.7-23.2c0-36.2,23.7-53,31-57.2c8.2-4.9,17.5-7.7,27.1-8c9.5,0,17.5,3.1,23,9.1
		c5.3,5.7,8.1,13.6,8.1,22.8c0,20-9,40.9-23,53.1C2664.4,346.1,2649.7,352.3,2638.7,352.3L2638.7,352.3L2638.7,352.3z M2851.2,352.4
		c-2.6,0.1-5.1-1.1-6.8-3.2c-3.6-4.5-4.2-13.3-1.5-25.6l12.1-56.1l-14.7,1.7l-2.9-3.4l6.6-7.7l14.3-0.3l2.5-14.7l21.8-15.4l4.4,2.2
		l-6.5,29.6l24.7-1.7h3.1l-8.9,9.9l-22.1,1.5l-10.8,54.2c-1.6,7.7-0.5,9.6-0.3,9.9h0.1c3.1,0,11.8-6.7,18.3-12.8l0.9-0.9l1.4,1.3
		l3.3,4.2C2882.9,335.6,2862.3,352.4,2851.2,352.4 M2192.2,280.5c0.4-1.8,1.7-7.4,0.3-9.2h-0.3c-8.3,0-28.5,19.8-36.8,34.3
		c-3.3,13-6,26.3-7.9,39.6l-23.9,6.8l-2.3,0.6l0.6-2.3c3.2-11.6,5.7-23,8.2-34.6l7.6-34.7c1-4.5,1.9-8.5,1.6-9.2
		c-5,2.7-9.7,6-13.9,9.9l-4.9-5.6c11.4-12.3,27.5-23.7,36.4-23.7c2.3,0,4.1,0.8,5.3,2.3c2.4,3,2.5,8.4,0.3,18.7l-3.4,15.5
		c15.7-22.4,31.9-31,36.4-33.1c4.7-2.2,8.5-3.3,12-3.3c2.7-0.1,5.3,1.1,6.9,3.2c3.2,4.1,3.5,11.7,0.9,22.6l-2.5,10.4
		c14.8-21,30.6-30,36.6-32.9c4.8-2.2,8.5-3.3,11.8-3.3c3.3,0,5.9,1.2,7.7,3.4c3.5,4.4,3.9,12.7,1.3,24.9c-1,4.2-2.3,9.4-3.8,15.1
		c-2.4,9.4-5.1,20.3-7.5,31.2c-0.9,3.7-1.3,5.6-1.2,6.1c0.8-0.5,7.8-4.2,13.8-8.9l4.8,5.8c-12.1,12.5-30.6,22-35.6,22
		c-3,0-5.2-0.9-6.7-2.8c-2.4-3.1-2.6-8.4-0.6-16.5l12.1-49.5c1.1-4.6,2.4-10.3,1.1-11.9h-0.4c-8.7,0-28.7,19.8-36.7,34.3
		c-1.7,6.3-6.9,27.7-8.3,39.5l-23.7,6.9l-2.2,0.5L2192.2,280.5L2192.2,280.5z M3066.4,264.9c-2.2,0-4.6,1.2-6.3,2.2
		c-4,2.3-13.5,10-17.6,34c22-7.8,31.4-16.1,31.4-27.6C3073.9,265,3066.7,264.9,3066.4,264.9 M3041.4,352.5
		c-12.4,0-25.7-8.5-25.7-32.3c0-20.9,10.5-43.1,25.6-54c5.6-4,20-13.4,34.5-13.4c13.1,0,21.9,7.4,21.9,18.4
		c0,14.9-19.3,28.5-57.3,40.5c0.8,0,0.6,1.9,0.6,2.9c0,4.6,0.7,13,5.3,17.7c2.3,2.3,5.5,3.5,8.7,3.4c9.1,0,19.9-5.3,30.4-14.9
		l5.7,5.3C3069.5,349.4,3050.8,352.5,3041.4,352.5L3041.4,352.5L3041.4,352.5z M3344.6,264.9c-2,0-4,0.4-5.8,1.1
		c-6.4,2.7-19.5,18.4-19.5,49.6c0,10.2,2.2,18.1,6.3,22.1c2.1,2.1,4.6,3.1,7.6,3.1c1.9,0,3.2-0.3,4.7-0.8
		c6.9-2.3,19.8-24.9,19.4-53.3c0-8.9-1.8-15.5-5.3-19C3350,265.9,3347.3,264.8,3344.6,264.9 M3324.9,352.7c-9.1,0-16.4-2.7-21.8-8.1
		c-8.2-8.2-9.4-20-9.4-26.3c0-36.2,23.7-53,31-57.3c8.2-4.9,17.5-7.7,27.1-8c9.1,0,16.8,2.9,22.3,8.4c5.7,5.7,8.8,14,8.8,23.5
		c0,20-9,40.9-22.9,53.1C3350.5,346.6,3335.8,352.7,3324.9,352.7L3324.9,352.7L3324.9,352.7z M2491.4,343.1c2-8.9,3.9-17.8,5.8-26.8
		l7-34.1c0.5-2.5,1.8-9.2,1.3-10.3c-4.8,2.9-9.4,6.2-13.6,9.9l-4.9-5.6c11.8-12.6,27.1-23.6,35.3-23.6c1.9,0,3.4,0.7,4.6,2.1
		c2.7,3.3,1.9,9.7,0.8,14.4l-3.8,16.1c8.3-19.3,20.8-32.6,27.7-32.6c5.4,0,10.3,2.5,12.6,6.4c2,3.3,1.2,8.1-0.7,11.2
		c-1.7,2.9-4,5.5-6.7,7.4c-1.1,0.9-2.5,1.4-4,1.4c-1.5,0-3-0.6-4.1-1.7c-1.7-1.3-3.7-2.1-5.9-2.2c-1.2,0-4.1,0-8.8,6.4
		c-5,6.5-8.8,13.9-11.3,21.8c-4.8,22.7-7,35.1-7.4,41.6l-26.1,8L2491.4,343.1L2491.4,343.1z M3421,352.8c-7.5,0-13.6-2.3-18.1-6.8
		c-5.5-5.5-8.2-13.9-8.2-24.9c0.2-15,6.3-37.8,23.2-52.5c8.1-7.2,22.8-15.6,37.3-15.6c10.1,0,18.9,5.8,18.9,12.5
		c0,3.4-2.2,6.9-6.4,10.4c-1.6,1.4-3.6,2.2-5.8,2.2c-2.2,0.1-4.3-0.9-5.6-2.7c-4.4-6-8.8-9-13.5-9c-4.4,0-9,3.8-12.8,10.7
		c-5.8,9.9-9.8,25.9-9.8,38.9c-0.1,7.8,1.5,13.6,4.6,16.8c2.1,2.1,4.9,3.2,7.8,3c10.8,0,20.2-7.3,25.9-11.7l1.1-0.9l2.1,0.2l3.6,4.9
		C3451.2,344.9,3431.9,352.8,3421,352.8 M3641,265.3c-2.2,0.2-4.4,0.9-6.2,2.2c-4,2.3-13.5,10-17.7,34c22-7.8,31.4-16.1,31.4-27.5
		C3648.5,267.1,3643.8,265.3,3641,265.3 M3616,352.9c-3.7,0-10.9-0.8-16.8-6.5c-5.9-5.6-8.9-14.3-8.8-25.8c0-20.9,10.5-43.1,25.6-54
		c6.9-5,20.6-13.4,34.5-13.4c13.1,0,21.9,7.4,21.9,18.4c0,14.9-19.3,28.5-57.3,40.5c0.7,0.1,0.5,1.9,0.5,2.9
		c0,7.9,1.8,21.1,14.1,21.1c9.1,0,19.9-5.3,30.4-14.9l5.6,5.3C3644.2,349.7,3625.4,352.9,3616,352.9L3616,352.9L3616,352.9z
		 M2909.4,318.9l19.3-97.4c0.7-3.4,1.2-6.3,0.6-7.1c-0.5-0.7-2.7-0.8-4.9-0.8h-10.2l-1.4-6.4c10.6-3.3,20.8-5.8,28.3-7.7
		c7.8-1.9,10.7-2.6,11.6-2.6h0.6l2,1.2c1.4,1.7,1.5,5,0.4,10.4l-16,75.4c17.1-18.4,31.3-25.9,35.4-27.9c4.2-2.1,8.7-3.3,12.2-3.3
		c3.5,0,6.3,1.2,8.1,3.5c3.1,3.8,3.6,10.6,1.5,20.1l-11.2,51c-0.6,2.8-1.2,5.4-1,6c1.1-0.3,8-4.1,13.9-8.8l4.8,5.8
		c-11.9,12.7-30.4,22-36,22c-2.6,0-4.7-0.9-6.1-2.6c-2.4-3.1-2.7-8.5-0.8-16.6l11.5-49.5c1.2-5.2,2.2-10.3,0.9-11.9l-0.5,0
		c-8.9,0-28.2,18.6-36.6,33.2l-0.6,3.3c-1.9,8.8-5.9,27.2-7,37.3l-23.7,6.9l-2.1,0.5L2909.4,318.9L2909.4,318.9z M4005.9,265.3
		c-2,0-4,0.4-5.8,1.2c-6.4,2.7-19.5,18.4-19.5,49.5c0,15.8,5.2,25.3,13.8,25.3c1.9,0,3.1-0.3,4.6-0.7c6.9-2.4,19.9-24.9,19.5-53.3
		C4018.5,273.1,4014,265.3,4005.9,265.3 M3986.2,353.2c-10.8,0-19.1-3.8-24.5-11.3c-4.3-5.9-6.7-14.1-6.7-23.1
		c0-36.2,23.7-53,31-57.3c10-5.9,20.6-8,27.2-8c18.8,0,31,12.5,31,31.9c0,20-9,40.9-22.9,53.1C4011.8,347,3997.1,353.2,3986.2,353.2
		 M4126.4,353.3c-2.3,0.1-4.6-0.9-6-2.7c-2.5-3.1-2.8-8.8-1-17.2l4.7-21.2c-9.4,17.9-23.4,30.1-32,35.4c-4.2,2.6-10.5,5.7-16.6,5.7
		c-3,0.1-5.9-1.3-7.7-3.6c-3.6-4.5-4.1-12.9-1.5-24.9l9.4-42.6c1-4.5,1.8-8.2,1.5-9c-1.1,0.3-8.7,4.7-14,9.6l-4.9-5.6
		c12-12.6,28.5-23.7,37.5-23.7c2.2,0,3.9,0.8,5.2,2.4c2.3,2.8,2.6,8,1,15.2l-11,48.9c-0.8,4.2-2.2,12.1-0.6,14.1
		c0.3,0.1,0.6,0.1,0.9,0.1c2.6,0,7.4-2.2,17.8-14.4c7.8-9,15.2-19.2,18.7-26.2c1.1-4.2,5.2-21.4,7.1-33.3l20.5-6.8l4.7,0l-0.6,2.6
		c-5.3,24-10.4,48-15.3,72.1c-0.6,3.4-1.1,5.6-0.9,6.1c0.8-0.5,7.9-4.4,13.5-8.9l5.1,5.7C4149.6,343.8,4130.7,353.3,4126.4,353.3
		 M3484,319.2l19.4-97.4c0.7-3.5,1.2-6.3,0.5-7.1c-0.6-0.6-2.7-0.8-4.9-0.8h-10.1l-1.4-6.4c10.6-3.3,20.7-5.8,28.2-7.6
		c8-1.9,10.8-2.6,11.7-2.6h0.6l2,1.2c1.4,1.7,1.5,5,0.4,10.4l-16,75.4c17.1-18.4,31.3-25.9,35.4-27.8c4.2-2.1,8.7-3.3,12.2-3.3
		c3.5,0,6.2,1.2,8.1,3.5c3,3.8,3.5,10.6,1.5,20.2l-11.3,51c-0.6,2.8-1.2,5.4-1,6c1.1-0.3,8-4.1,13.8-8.8l4.9,5.8
		c-11.8,12.7-30.4,22-36,22c-2.6,0-4.7-0.9-6.1-2.6c-2.5-3.1-2.7-8.5-0.8-16.6l11.5-49.5c1.2-5.2,2.2-10.3,0.9-11.9h-0.5
		c-8.8,0-28.1,18.6-36.6,33.2l-0.8,4c-2,9.4-5.8,26.7-6.9,36.5l-23.7,6.9l-2.1,0.5C3477,353.3,3482.9,324.7,3484,319.2
		 M3879.8,351.4c2.5-11.4,5-22.6,7.4-34.2l7-34.1c0.4-2.3,1.8-9.2,1.2-10.3c-0.9,0.4-8.6,5.3-13.6,9.9l-4.9-5.6
		c11.8-12.6,27.2-23.7,35.4-23.7c1.9,0,3.4,0.7,4.5,2.1c2.8,3.5,1.7,10.6,0.9,14.5l-3.8,16.1c8.3-19.3,20.7-32.6,27.7-32.6
		c5.4,0,10.3,2.5,12.6,6.4c2.1,3.3,1.2,8.2-0.7,11.2c-1.6,2.9-3.9,5.5-6.7,7.4c-1.1,0.9-2.5,1.4-4,1.4c-1.5,0-3-0.6-4.1-1.7
		c-1.7-1.3-3.7-2.1-5.8-2.2c-1.2,0-4.1,0-8.8,6.4c-5,6.5-8.6,13.4-11.2,21.8c-4.8,22.7-7,35.2-7.4,41.6l-26.1,8L3879.8,351.4
		L3879.8,351.4z M3803.1,353.7c-40.8,0-66.2-23.9-66.1-62.2c0-48.2,40.5-84.5,94.2-84.5c18.1,0,33.2,4.2,38.1,5.5l1.1,0.3l-0.3,3.2
		c-0.7,7.2-1.6,17.6-2.4,31.8l-7.8,1.9c-2.6-28.1-19.5-31.6-34-31.6c-39.7,0-60.5,36.7-60.5,72.9c0,32.6,15.3,51.4,42,51.4
		c11,0,17.3-3.6,18.6-10.8l4.3-22.5c1.1-5.8,1.6-9.5,0.3-11.3c-1.9-2.4-8.2-2.8-19.8-3.6l-0.2-8.4l59.8-1.1l0.3,8.4
		c-11.4,2-12.4,2-15.3,16.6l-3.8,19.2c-1,4.8-1.4,9.8-1.3,14.7l-5.3,2.6c-12.5,3.4-26.6,7.3-41.8,7.3L3803.1,353.7L3803.1,353.7z
		 M2691,401.1c-5.2,0-10.5-2.8-10.5-8.2c0-4,2.3-8.4,4.5-10.3c1.4-1.4,3.2-2.2,5.2-2.2l2.6,0.5c4.1,2,7.6,3.7,9.4,3.7
		c1.5,0,2.9-0.6,4.3-2.1c3.3-3.3,7.3-20.8,12.2-53.6l8.9-61.2l-15.4,1.6h-1l-0.9-3.1l6.5-7.9l13.9-0.4c1.9-18,7.9-32.7,16.6-42.6
		c8-8.9,21.8-18.4,36.6-18.4c8.7,0,15.2,4.6,15.2,10.7c0,5-3.6,8.9-5.8,10.8c-1.3,1.2-3.1,1.8-4.8,1.9c-1.7,0-3.4-0.7-4.7-1.9
		c-5-4.7-10-7.3-14.5-7.3c-5.7,0-10.2,14-15.6,48.5l23.4-1.6h2.8l-6.5,8.8l-22.4,2.7c-1.5,15.3-3.8,30.6-6.8,45.7
		c-6.8,35.6-16.1,59.8-27.5,72C2706.1,398.1,2695.6,401.1,2691,401.1 M4226.6,267.1c-3.5,0-6.5,0.4-10.4,1.4l-13,68.4
		c0.8,0.4,3.9,3.8,10.3,3.8c13.3,0,31.2-26.1,31.2-52.8c0-18.8-12.5-20.9-17.9-20.9L4226.6,267.1L4226.6,267.1z M4153.4,394.3
		c14.7-3.4,15.9-4.9,17.6-14l21.6-107c-5.1,1.2-10,2.8-14.9,4.6l-3.1-7c6.3-4.5,11.5-6.3,16.5-8.1l5.1-1.8l1.3-7.8
		c5.9-5.9,14.2-11.6,21.1-14.7l3.7,1.6l-2.8,16c5.4-1.5,10.9-2.3,16.4-2.4c11.8,0,20.8,2.8,26.7,8.1c5.6,5.1,8.4,12.5,8.4,21.9
		c0,14.7-7.2,31.6-19.4,45.2c-11.1,12.2-26.2,21.2-41.4,24.5h-0.3c-3.9,0.1-7.8-0.6-11.5-1.9l-3.4,26.7c-1,5.4-1.4,8.6-0.3,10
		c0.7,0.9,2.1,1.3,4.7,1.6l10.9,1.1l1.2,6.9l-58,4L4153.4,394.3L4153.4,394.3z">
  </path>
  <path class="st1" d="M3040.7-182.5c-46.1,0-76.7,7.4-97.1,17.2l-40.3,0.3l-0.1,241.6l75.7,0l0.1-187.1c0,0,0-30.8,61.7-30.8
		c62.1,0,62.1,30.4,62.1,30.4l-0.1,187.5l75.8,0l0.1-195.4C3178.6-118.7,3175.5-182.4,3040.7-182.5 M2438.9-182.9
		c-46.1,0-76.7,7.4-97.1,17.2l-40.3,0.3l-0.1,241.6l75.7,0l0.1-187.1c0,0,0-30.8,61.7-30.8c62.1,0,62.1,30.4,62.1,30.4l-0.1,187.5
		l75.8,0l0.1-195.4C2576.8-119.1,2573.7-182.8,2438.9-182.9 M4000.7,77.2l75.7,0l0.1-187.1c0,0,0-30.8,61.7-30.8
		c62.2,0,62.2,30.4,62.2,30.4l-0.1,187.5l75.8,0l0.1-195.4c0,0-3.1-63.7-137.9-63.8c-24.9,0-45,2.1-61.7,5.6
		c-0.4,0,0.1-111.2,0.1-110.8c0,0.8-75.7,0-75.7,0L4000.7,77.2L4000.7,77.2L4000.7,77.2z M2137.9-137.6c62.5,0,62.4,31.4,62.4,31.4
		l-0.3,27.7l-123.8-0.1l-0.1-27.7C2076.1-106.3,2076.2-137.7,2137.9-137.6 M2275.8-107.3c0,0,6.3-71.7-137.9-71.7
		c-143.1-0.1-137.4,71.1-137.4,71.1l-0.1,123.8c0,0-6.3,71,137.3,71.1c143.7,0.1,138-70.9,138-70.9l0-19.8l-75.8,0l0.1,20
		c0,0-0.1,30.7-62.3,30.7c-61.6,0-61.4-30.6-61.8-30.6c-0.4,0,0.2-44.7,0.2-44.7l199.6,0.1L2275.8-107.3L2275.8-107.3z
		 M2739.8-137.3c62.6,0,62.4,31.4,62.4,31.4l-0.2,27.7l-123.8-0.1l0-27.7C2678.1-105.9,2678.2-137.3,2739.8-137.3 M2877.7-106.9
		c0,0,6.3-71.7-137.9-71.8c-143.1-0.1-137.4,71.1-137.4,71.1l-0.1,123.8c0,0-6.3,71,137.4,71.1c143.7,0.1,138-70.9,138-70.9V-3.4
		l-75.7-0.1l0.2,20c0,0-0.2,30.7-62.4,30.7c-61.7,0-61.4-30.6-61.8-30.6c-0.3,0,0.2-44.6,0.2-44.6l199.6,0.1L2877.7-106.9
		L2877.7-106.9z M3195.8-128.4l24.1,0L3219.8,20c0,65.8,89.7,72.6,155.1,64.2c0.5,0,0.1-36.9,0.1-36.9
		c-75.3,10.4-79.4-27.2-79.4-27.2l0.1-148.4l83,0l0-40.7l-83,0l0-58l-75.8,0l0,58l-24.1,0L3195.8-128.4L3195.8-128.4z M3971.1-72.9
		l0-33.2c0,0,6.3-71.7-137.9-71.7c-143.1-0.1-137.5,71-137.5,71L3695.6,17c0,0-6.3,71,137.4,71.1c143.6,0.1,138-70.9,138-70.9
		l0-30.8l-75.7,0l0,30.9c0,0-0.1,30.7-62.3,30.7c-61.7,0-61.4-30.9-61.9-30.9c-0.3,0,0.3-122.2,0.3-122.2c0.3,0,1.1-31.4,64.8-31.3
		c60.1,0,59.1,30.9,59.1,30.9v32.5L3971.1-72.9z M3531.2-136.8c62.5,0,62.4,31.4,62.4,31.4l-0.2,27.7l-123.9-0.1l0-27.7
		C3469.5-105.4,3469.6-136.8,3531.2-136.8 M3669-106.4c0,0,6.4-71.7-137.8-71.7c-143.1-0.1-137.4,71.1-137.4,71.1l-0.1,123.8
		c0,0-6.3,71,137.3,71.1c143.6,0.1,137.9-70.9,137.9-70.9V-2.9l-75.6,0l0,19.9c0,0-0.1,30.7-62.3,30.7c-61.6,0-61.5-30.5-61.8-30.5
		c-0.4,0,0.2-44.7,0.2-44.7l199.5,0.1L3669-106.4L3669-106.4z M1879.3-155.6l0-35.5c0,0,7.4-54.3-83.6-54.4
		c-93,0-87.7,54.3-87.7,54.3l-0.1,178.7c0,0-5.3,51.2,87.7,51.3c79.4,0,83.6-22.9,83.6-22.9l0-79.4l-83.6-0.1l0-48l177.6,0.1
		l-0.1,127.4c0,0-35.6,71-177.7,70.9c-167.2-0.1-181.8-99.4-181.8-99.4l0.1-178.7c0,0,8.5-100.3,181.9-100.1
		c187.1,0.1,177.6,100.4,177.6,100.4l0,35.6L1879.3-155.6z">
  </path>
 </g>
</svg>