<svg width="143" height="32" viewBox="0 0 143 32" fill="none" xmlns="http://www.w3.org/2000/svg">
<g clip-path="url(#clip0_1282_6904)">
<path fill-rule="evenodd" clip-rule="evenodd" d="M19.9168 1.6373L18.4557 0.0864928C20.9818 -0.239086 27.6473 0.178421 34.0998 4.45308C34.1837 5.04347 34.1656 5.632 34.1656 5.632L34.6411 5.88946L34.6438 5.89354L34.6448 5.88749L34.6544 5.89337C34.9211 6.3515 35.1907 7.03458 35.363 7.83831C35.5714 8.8108 35.6307 9.9304 35.3878 11.001C35.143 12.0798 34.6783 12.9701 34.2234 13.6213C33.8872 14.1025 33.5666 14.4389 33.356 14.623C32.5318 14.6405 30.9974 15.1935 30.5588 17.1109C29.237 17.8676 27.1618 18.6239 24.4209 18.6239C21.8026 18.6239 19.1318 17.8654 17.124 16.3965C15.1244 14.9334 13.7814 12.7678 13.7814 9.91656C13.7814 7.6485 14.7975 5.87681 16.0862 4.57384C17.3791 3.26662 19.1465 2.20749 20.1715 1.85597L19.9168 1.6373ZM31.2394 5.35774C30.7314 5.91161 30.2565 6.17734 30.1209 6.24941C27.1545 5.58892 26.0858 3.98256 26.0858 3.98256C28.8838 3.9645 31.4092 4.66111 33.2569 5.83954C33.2569 5.83954 32.2567 5.50027 31.2394 5.35774Z" fill="white"/>
<path d="M18.4142 2.06592C12.0541 3.34724 7.20001 9.07628 7.20001 16.0041C7.20001 24.7628 14.5919 31.9998 23.7103 31.9998C30.5191 31.9998 36.1869 27.8302 39.1504 22.2516C35.2091 23.1877 30.5035 21.5232 30.4734 17.8849C29.0547 18.6153 27.0118 19.2637 24.4209 19.2637C21.6902 19.2637 18.8815 18.4748 16.7471 16.9131C14.6045 15.3455 13.1424 12.9975 13.1424 9.91636C13.1424 7.43866 14.2573 5.51343 15.6323 4.12324C16.4277 3.3265 17.5183 2.57038 18.4142 2.06592Z" fill="white"/>
<path d="M35.9877 7.70387C35.9015 7.30169 35.7913 6.92135 35.666 6.57568C37.3758 7.85536 38.7074 9.60171 38.5964 12.0351C38.4366 15.5398 36.3229 16.9187 34.9696 17.1486C35.6192 16.0569 35.0778 15.3675 34.8614 15.1376C34.756 15.0258 34.5385 14.8375 34.165 14.72C34.3498 14.5172 34.549 14.2714 34.747 13.9881C35.2399 13.2825 35.7444 12.3168 36.0109 11.1427C36.2791 9.96059 36.2106 8.74419 35.9877 7.70387Z" fill="white"/>
<path d="M99.2728 8.21045C101.612 8.21045 103.082 8.87285 104.474 10.0612L102.966 11.873C101.922 10.9768 100.878 10.4313 99.176 10.4313C96.7016 10.4313 94.7872 12.6133 94.7872 15.2239L94.7888 15.3861C94.8416 18.1285 96.6648 20.1333 99.3888 20.1333C100.684 20.1333 101.825 19.7242 102.656 19.1008V16.5681L104.957 14.4641V20.1917C103.603 21.3412 101.709 22.3152 99.3112 22.3152C95.0776 22.3152 92.2936 19.2761 92.2936 15.3018L92.2944 15.1385C92.356 11.3745 95.2184 8.21045 99.2728 8.21045ZM114.584 8.21045C118.741 8.21045 121.641 11.386 121.641 15.2239L121.64 15.3858C121.578 19.1505 118.658 22.3152 114.546 22.3152C110.389 22.3152 107.489 19.1397 107.489 15.3018L107.49 15.1399C107.552 11.3753 110.472 8.21045 114.584 8.21045ZM54.6505 8.34677L60.6052 22.0815L58.1845 22.0814L53.5098 11.2106L48.8693 22.0814L46.4918 22.0815L52.4465 8.34677H54.6505ZM85.321 8.34677L91.276 22.0815L88.8552 22.0814L84.1804 11.2106L79.5399 22.0814L77.1624 22.0815L83.117 8.34677H85.321ZM126.41 8.44421L133.661 17.8734V8.44421H136V22.0815H134.009L126.546 12.3796V22.0815H124.206V8.44421H126.41ZM114.546 10.4313C111.858 10.4313 109.982 12.5744 109.982 15.2239L109.984 15.3794C110.038 17.976 111.917 20.0944 114.584 20.0944C117.271 20.0944 119.146 17.9513 119.146 15.3018L119.146 15.1463C119.09 12.5496 117.212 10.4313 114.546 10.4313Z" fill="white"/>
<path d="M69.5173 8.21045C71.2218 8.21045 72.5585 8.72533 73.4301 9.59661C74.1469 10.3689 74.5537 11.3789 74.5537 12.5869L74.5532 12.7004C74.5251 14.8844 73.2544 16.2168 71.4598 16.7874L71.3381 16.8247L74.9992 22.0725H72.171L68.8393 17.2406L67.0904 17.2402L68.3176 15.0816L69.3429 15.0821C71.0088 15.0821 72.0826 14.231 72.1306 12.8615L72.1323 12.7651L72.1318 12.6727C72.1081 11.202 71.0847 10.4284 69.3235 10.4284H65.8561L65.8557 14.7135L65.8539 14.7133V17.8045L65.8557 17.8035L65.8561 22.0725H63.4735V8.21045H69.5173Z" fill="white"/>
</g>
<defs>
<clipPath id="clip0_1282_6904">
<rect width="128.8" height="32" fill="white" transform="translate(7.20001)"/>
</clipPath>
</defs>
</svg>
