<svg xmlns="http://www.w3.org/2000/svg" xmlns:xlink="http://www.w3.org/1999/xlink" version="1.1" id="Layer_1" x="0px" y="0px" viewBox="0 0 796.4 412" style="enable-background:new 0 0 796.4 412;" xml:space="preserve">
<style type="text/css">
	.st0{fill:#3E007A;}
	.st1{fill:#9C7CB8;}
</style>
<g class="logomark">
	<path class="st0" d="M417.6,129.5c-20.8,0.7-34.8-9-45.7-24.3c-5.2,5.6-9.8,11.5-15.4,16.2c-33.3,28.1-85.4,12.2-97.9-29.7   c-8-26.8,0.8-55.1,22.7-71.8c12.4-9.5,26.9-11.6,42.1-10.3c24.4,2.2,40.4,16.1,51.3,37c13.6,25.9,27.1,51.7,40.6,77.6   C416.1,125.7,416.6,127.2,417.6,129.5z M278.8,72.6c-1.4,26.6,21.3,39.4,39.4,39.5c21.2,0.1,38.2-18.2,38.6-40.1   c0.4-27-20.8-39.3-39.1-39.5C295.3,32.5,278.1,51.3,278.8,72.6z"/>
	<path class="st1" d="M376.5,14.8c20-0.2,34.2,9.2,45.3,25c1.9-2.5,3.4-4.6,5-6.7C454.7-3,513.5,2.4,532.6,43.9   c16.2,35.1-2.6,77.6-42.9,86.8c-27.3,6.2-53.8-5.2-67.4-29.4c-15.4-27.4-29.9-55.3-44.8-83.1C377.1,17.4,377,16.4,376.5,14.8z    M515.7,70.3c-0.2-22.9-17-39.2-40.2-39c-22.2,0.2-39.4,18-39.5,40.4c-0.2,26.6,22.9,38.7,40.4,38.5   C498.5,109.9,515.9,92.3,515.7,70.3z"/>
</g>
<g class="logotype">
	<path class="st0" d="M307,345.5c-6.6,0-12.9,0.1-19.2-0.1c-1,0-2.6-1.9-2.8-3c-0.4-2.7-0.1-5.6-0.1-9.5   c-19.1,13.5-39.1,16.7-60.3,8.6c-12.5-4.8-22.1-13.3-29.2-24.6c-14.2-22.9-11.2-55.3,7-75.1c10.7-11.5,24.6-16.9,39.8-18.2   c15.3-1.4,29.1,3.4,42.3,13c0.1-2.4,0.3-3.9,0.3-5.5c0-12.3,0.1-24.7-0.1-37c-0.1-3.8,0.9-5.5,5-5.2c5.6,0.3,11.2,0.1,17.2,0.1   C307,241.2,307,292.9,307,345.5z M246.6,322.7c22,0.5,37.4-14.6,38.1-37.2c0.6-20.4-15.9-38.6-35.4-39.1   c-23.8-0.6-39.4,13.9-40.1,37.3C208.5,305.4,226,323,246.6,322.7z"/>
	<path class="st0" d="M343.5,293.8c4.3,12.7,12.3,20.4,24,24.2c15.5,5,31.2,0,41.4-13.2c2.1-2.7,3.6-3.2,6.5-1.4   c3.8,2.4,7.7,4.6,11.7,6.5c3.9,1.8,3.8,3.9,1.6,6.9c-10.2,14-23.7,23.1-40.8,25.3c-19.1,2.4-36.7-1.9-51.3-15.3   c-10.3-9.4-15.6-21.6-17.5-35c-4.3-30.8,12-56.6,38.6-66.4c33.7-12.5,69.5,5.6,79.4,40.2c2.2,7.8,1.5,16.5,1.8,24.7   c0.2,3.7-3,3.4-5.4,3.4c-14.2,0-28.3,0-42.5,0c-13.8,0-27.7,0-41.5,0C347.8,293.8,346,293.8,343.5,293.8z M344.2,270.3   c23.2,0,46.4,0,69.6,0c-2.4-14.2-18.4-25.7-35.1-25.5C362,245,346.3,256.5,344.2,270.3z"/>
	<path class="st0" d="M754.1,325.9c-7.8,8-16.3,13.5-26.4,16.7c-25,8.1-53.4-1.6-68-23.7c-20.7-31.2-10.2-74.6,24.5-91.3   c20.2-9.8,40.5-6.6,59.1,5.5c13.7,8.9,21.5,22.1,25.8,37.7c6.2,22.8,12.8,45.6,19.2,68.4c1.5,5.3,0.6,6.4-4.6,5.6   C771.3,342.8,761.6,336.6,754.1,325.9z M747.9,282.6c2.3-18.5-18.2-37.5-38.2-37.2c-21.3,0.3-37.9,17.5-38.4,40.7   c-0.5,19,20.3,36.6,38,36.6C729.8,322.7,748.7,305.4,747.9,282.6z"/>
	<path class="st0" d="M145.2,342.5c-14.9-0.3-25.9-6.8-34.2-17.9c-6.5,4.2-12.5,8.9-19.2,12.3c-30.6,15.4-69.4-0.3-81.4-32.6   c-11.8-32,4-68.3,36.1-79.5c21-7.4,41-2.6,58.4,11.5c12.2,9.9,17.9,23.4,21.8,38.2c5.7,21.5,12,42.7,17.9,64.1   C144.9,339.5,144.9,340.7,145.2,342.5z M104.1,281c2.5-17.5-17.7-36.6-37.6-36.5c-21,0.2-37.6,17.1-38.4,39.1   c-0.6,18,16.9,36.9,38.3,36.8C89.3,320.3,104.9,301.6,104.1,281z"/>
	<path class="st0" d="M500.7,314.3c5.1-11.7,9.7-22,14.1-32.3c8.2-18.9,16.3-37.8,24.5-56.6c0.6-1.4,2.3-3.3,3.6-3.4   c7.3-0.3,14.5-0.2,22.8-0.2c-3,7.1-5.5,13.3-8.2,19.5c-16.8,38.6-33.1,77.5-50.8,115.7c-10.1,21.9-26.8,38.3-50.2,46.5   c-11,3.8-12.1,3.2-15.1-7.7c-0.8-2.9-1.7-5.7-2.5-8.6c-0.7-2.5-0.3-4.2,2.8-4.5c16.9-1.5,27.6-12.2,37.7-24.4   c7-8.5,7.7-16.2,3.4-26.7c-14.5-35.1-27.7-70.7-41.4-106.1c-0.3-0.9-0.7-1.8-1.4-3.7c8,0,15.4-0.1,22.8,0.2c1.1,0,2.5,2,3,3.3   c9.7,24.7,19.3,49.4,28.9,74.1C496.7,304,498.4,308.4,500.7,314.3z"/>
	<path class="st0" d="M573.9,342.6c0-40.5,0-80.3,0-120.3c7.7,0,15.1,0,22.7,0c0.2,1.8,0.4,3.4,0.7,5.1c18.8-7.4,37-7.4,55.6,2.9   c-4.2,6-7.9,11.8-12.1,17.2c-0.7,0.9-3.7,0.6-5.3,0c-8.1-3-16.3-3.1-24.4-0.4c-8.9,3-14,10.6-14.1,20.2c-0.1,23.3-0.1,46.6,0,69.9   c0,4-0.9,5.7-5.2,5.4C586,342.3,580.2,342.6,573.9,342.6z"/>
	<path class="st0" d="M153.9,189.2c7,0,13.8,0,20.9,0c0,51.9,0,103.7,0,156c-6.9,0-13.8,0-20.9,0   C153.9,293.1,153.9,241.3,153.9,189.2z"/>
</g>
</svg>