<?xml version="1.0" encoding="utf-8"?>
<!-- Generator: Adobe Illustrator 10.0, SVG Export Plug-In . SVG Version: 3.0.0 Build 77)  -->
<!DOCTYPE svg PUBLIC "-//W3C//DTD SVG 1.0//EN"    "http://www.w3.org/TR/2001/REC-SVG-20010904/DTD/svg10.dtd" [
	<!ENTITY ns_flows "http://ns.adobe.com/Flows/1.0/">
	<!ENTITY ns_extend "http://ns.adobe.com/Extensibility/1.0/">
	<!ENTITY ns_ai "http://ns.adobe.com/AdobeIllustrator/10.0/">
	<!ENTITY ns_graphs "http://ns.adobe.com/Graphs/1.0/">
	<!ENTITY ns_vars "http://ns.adobe.com/Variables/1.0/">
	<!ENTITY ns_imrep "http://ns.adobe.com/ImageReplacement/1.0/">
	<!ENTITY ns_sfw "http://ns.adobe.com/SaveForWeb/1.0/">
	<!ENTITY ns_custom "http://ns.adobe.com/GenericCustomNamespace/1.0/">
	<!ENTITY ns_adobe_xpath "http://ns.adobe.com/XPath/1.0/">
	<!ENTITY ns_svg "http://www.w3.org/2000/svg">
	<!ENTITY ns_xlink "http://www.w3.org/1999/xlink">
]>
<svg 
	 xmlns:x="&ns_extend;" xmlns:i="&ns_ai;" xmlns:graph="&ns_graphs;" i:viewOrigin="337.6157 329.7192" i:rulerOrigin="-125 122.7246" i:pageBounds="125 717.2754 717 -122.7246"
	 xmlns="&ns_svg;" xmlns:xlink="&ns_xlink;" xmlns:a="http://ns.adobe.com/AdobeSVGViewerExtensions/3.0/"
	 width="161.572" height="44.862" viewBox="0 0 161.572 44.862" overflow="visible" enable-background="new 0 0 161.572 44.862"
	 xml:space="preserve">
	<switch>
		<g>
			<g id="レイヤー_1">
				<path fill="#221814" d="M80.675,43.612c0,0.691,0.558,1.248,1.246,1.248h5.573
					c0.688,0,1.246-0.557,1.246-1.248V1.252c0-0.691-0.559-1.25-1.246-1.25h-5.573c-0.688,0-1.246,0.559-1.246,1.25V43.612z"/>
				<path fill="#221814" d="M153.509,43.612c0,0.691,0.557,1.248,1.246,1.248h5.574
					c0.688,0,1.242-0.557,1.242-1.248V1.252c0-0.691-0.555-1.25-1.242-1.25h-5.574c-0.689,0-1.246,0.559-1.246,1.25V43.612z"/>
				<path fill="#221814" d="M11.312,44.86c7.524,0,9.458-5.16,9.458-11.465c0-2.992-0.412-5.49-1.37-7.438
					c-2.38-4.84-7.768-7.2-9.76-9.235c-1.852-1.898-1.54-3.418-1.54-5.145c0-3.55,2.024-3.5,3.388-3.5h6.274
					c0.688,0,1.246-0.554,1.246-1.24V1.263c0-0.69-0.559-1.246-1.246-1.246H9.458C1.936,0.017,0,5.179,0,11.484
					c0.002,12.096,8.403,13.502,11.132,16.67c1.492,1.736,1.54,3.418,1.54,5.146c0,3.549-2.026,3.504-3.393,3.504H3.008
					c-0.688,0-1.246,0.547-1.246,1.238v5.568c0,0.691,0.558,1.248,1.246,1.248H11.312z"/>
				<path fill="#221814" d="M105.505,44.86c7.527,0,9.459-5.16,9.459-11.465c0-2.992-0.41-5.49-1.369-7.438
					c-2.379-4.84-7.766-7.2-9.762-9.235c-1.852-1.898-1.537-3.418-1.537-5.145c0-3.55,2.02-3.5,3.389-3.5h6.273
					c0.686,0,1.246-0.554,1.246-1.24V1.263c0-0.69-0.561-1.246-1.246-1.246h-8.307c-7.52,0-9.455,5.162-9.455,11.468
					c0,12.096,8.402,13.502,11.129,16.67c1.496,1.736,1.541,3.418,1.541,5.146c0,3.549-2.025,3.504-3.391,3.504h-6.27
					c-0.689,0-1.246,0.547-1.246,1.238v5.568c0,0.691,0.557,1.248,1.246,1.248H105.505z"/>
				<path fill="#221814" d="M136.873,44.852c4.949,0,7.5-3.854,8.289-10.932c0.1-0.894,0.588-4.68,0.588-11.49
					V1.253c0-0.694-0.557-1.25-1.246-1.25h-5.57c-0.688,0-1.248,0.556-1.248,1.25v21.178c0,3.664-0.123,8.434-0.764,11.5
					c-0.467,2.26-1.064,3.051-2.93,3.051h-2.008c-1.865,0-2.467-0.791-2.936-3.051c-0.635-3.066-0.762-7.835-0.762-11.5V1.253
					c0-0.694-0.557-1.25-1.246-1.25h-5.57c-0.691,0-1.25,0.556-1.25,1.25v21.178c0,6.81,0.492,10.596,0.592,11.49
					c0.787,7.078,3.34,10.932,8.289,10.932H136.873z"/>
				<path fill="#221814" d="M75.476,1.384c0.042-0.114,0.066-0.234,0.066-0.366c0-0.56-0.456-1.016-1.022-1.016
					L68.359,0c-0.516,0.01-0.994,0.342-1.162,0.863l-5.445,16.883c-0.143,0.365-0.496,0.628-0.912,0.628h-1.017
					c-0.443,0-0.804-0.36-0.804-0.804V1.254c0-0.694-0.556-1.25-1.246-1.25h-5.572c-0.688,0-1.248,0.556-1.248,1.25v42.358
					c0,0.689,0.561,1.248,1.248,1.248h5.572c0.69,0,1.246-0.559,1.246-1.248v-16.32c0-0.446,0.36-0.806,0.804-0.806h1.017
					c0.416,0,0.77,0.264,0.912,0.63l5.445,16.882c0.168,0.52,0.646,0.852,1.162,0.863l6.181-0.002c0.563,0,1.021-0.455,1.021-1.02
					c0-0.127-0.023-0.25-0.063-0.365L68.714,22.43L75.476,1.384z"/>
				<path fill="#1A4093" d="M80.675,43.612c0,0.691,0.558,1.248,1.246,1.248h5.573
					c0.688,0,1.246-0.557,1.246-1.248V1.252c0-0.691-0.559-1.25-1.246-1.25h-5.573c-0.688,0-1.246,0.559-1.246,1.25V43.612z"/>
				<path fill="#1A4093" d="M153.509,43.612c0,0.691,0.557,1.248,1.246,1.248h5.574
					c0.688,0,1.242-0.557,1.242-1.248V1.252c0-0.691-0.555-1.25-1.242-1.25h-5.574c-0.689,0-1.246,0.559-1.246,1.25V43.612z"/>
				<path fill="#1A4093" d="M11.312,44.86c7.524,0,9.458-5.16,9.458-11.465c0-2.992-0.412-5.49-1.37-7.438
					c-2.38-4.84-7.768-7.2-9.76-9.235c-1.852-1.898-1.54-3.418-1.54-5.145c0-3.55,2.024-3.5,3.388-3.5h6.274
					c0.688,0,1.246-0.554,1.246-1.24V1.263c0-0.69-0.559-1.246-1.246-1.246H9.458C1.936,0.017,0,5.179,0,11.484
					c0.002,12.096,8.403,13.502,11.132,16.67c1.492,1.736,1.54,3.418,1.54,5.146c0,3.549-2.026,3.504-3.393,3.504H3.008
					c-0.688,0-1.246,0.547-1.246,1.238v5.568c0,0.691,0.558,1.248,1.246,1.248H11.312z"/>
				<path fill="#1A4093" d="M105.505,44.86c7.527,0,9.459-5.16,9.459-11.465c0-2.992-0.41-5.49-1.369-7.438
					c-2.379-4.84-7.766-7.2-9.762-9.235c-1.852-1.898-1.537-3.418-1.537-5.145c0-3.55,2.02-3.5,3.389-3.5h6.273
					c0.686,0,1.246-0.554,1.246-1.24V1.263c0-0.69-0.561-1.246-1.246-1.246h-8.307c-7.52,0-9.455,5.162-9.455,11.468
					c0,12.096,8.402,13.502,11.129,16.67c1.496,1.736,1.541,3.418,1.541,5.146c0,3.549-2.025,3.504-3.391,3.504h-6.27
					c-0.689,0-1.246,0.547-1.246,1.238v5.568c0,0.691,0.557,1.248,1.246,1.248H105.505z"/>
				<path fill="#1A4093" d="M136.873,44.852c4.949,0,7.5-3.854,8.289-10.932c0.1-0.894,0.588-4.68,0.588-11.49
					V1.253c0-0.694-0.557-1.25-1.246-1.25h-5.57c-0.688,0-1.248,0.556-1.248,1.25v21.178c0,3.664-0.123,8.434-0.764,11.5
					c-0.467,2.26-1.064,3.051-2.93,3.051h-2.008c-1.865,0-2.467-0.791-2.936-3.051c-0.635-3.066-0.762-7.835-0.762-11.5V1.253
					c0-0.694-0.557-1.25-1.246-1.25h-5.57c-0.691,0-1.25,0.556-1.25,1.25v21.178c0,6.81,0.492,10.596,0.592,11.49
					c0.787,7.078,3.34,10.932,8.289,10.932H136.873z"/>
				<path fill="#1A4093" d="M75.476,1.384c0.042-0.114,0.066-0.234,0.066-0.366c0-0.56-0.456-1.016-1.022-1.016
					L68.359,0c-0.516,0.01-0.994,0.342-1.162,0.863l-5.445,16.883c-0.143,0.365-0.496,0.628-0.912,0.628h-1.017
					c-0.443,0-0.804-0.36-0.804-0.804V1.254c0-0.694-0.556-1.25-1.246-1.25h-5.572c-0.688,0-1.248,0.556-1.248,1.25v42.358
					c0,0.689,0.561,1.248,1.248,1.248h5.572c0.69,0,1.246-0.559,1.246-1.248v-16.32c0-0.446,0.36-0.806,0.804-0.806h1.017
					c0.416,0,0.77,0.264,0.912,0.63l5.445,16.882c0.168,0.52,0.646,0.852,1.162,0.863l6.181-0.002c0.563,0,1.021-0.455,1.021-1.02
					c0-0.127-0.023-0.25-0.063-0.365L68.714,22.43L75.476,1.384z"/>
				<path fill="#221814" d="M34.308,17.622c0.05-1.136,0.124-2.502,0.228-3.652
					c0.118-1.256,0.271-2.268,0.295-2.474c0.262-2.076,0.96-3.286,2.64-3.402h5.88c0.69,0,1.248-0.572,1.248-1.258V1.262
					c0-0.688-0.558-1.254-1.248-1.254H36c-6.566,0.264-8.71,4.305-9.265,10.932c-0.073,0.898-0.59,4.679-0.59,11.49
					c0,6.813,0.517,10.592,0.59,11.491C27.29,40.549,29.434,44.586,36,44.85h7.35c0.69,0,1.248-0.566,1.248-1.254v-5.568
					c0-0.689-0.558-1.244-1.248-1.244l-5.88,0.018c-1.68-0.111-2.378-1.324-2.64-3.401c-0.024-0.208-0.177-1.217-0.295-2.473
					c-0.104-1.153-0.228-2.514-0.228-3.653C34.308,27.274,33.958,20.91,34.308,17.622"/>
				<path fill="#1A4093" d="M34.308,17.622c0.05-1.136,0.124-2.502,0.228-3.652
					c0.118-1.256,0.271-2.268,0.295-2.474c0.262-2.076,0.96-3.286,2.64-3.402h5.88c0.69,0,1.248-0.572,1.248-1.258V1.262
					c0-0.688-0.558-1.254-1.248-1.254H36c-6.566,0.264-8.71,4.305-9.265,10.932c-0.073,0.898-0.59,4.679-0.59,11.49
					c0,6.813,0.517,10.592,0.59,11.491C27.29,40.549,29.434,44.586,36,44.85h7.35c0.69,0,1.248-0.566,1.248-1.254v-5.568
					c0-0.689-0.558-1.244-1.248-1.244l-5.88,0.018c-1.68-0.111-2.378-1.324-2.64-3.401c-0.024-0.208-0.177-1.217-0.295-2.473
					c-0.104-1.153-0.228-2.514-0.228-3.653C34.308,27.274,33.958,20.91,34.308,17.622"/>
				<path fill="#E51410" d="M40.341,27.556c2.8,0,5.072-2.272,5.072-5.072c0-2.804-2.272-5.073-5.072-5.073
					c-2.802,0-5.07,2.27-5.07,5.073C35.271,25.283,37.539,27.556,40.341,27.556"/>
			</g>
		</g>
	</switch>
</svg>
