<?xml version="1.0" encoding="UTF-8" standalone="no"?>
<!-- Created with Inkscape (http://www.inkscape.org/) -->

<svg
   xmlns:dc="http://purl.org/dc/elements/1.1/"
   xmlns:cc="http://creativecommons.org/ns#"
   xmlns:rdf="http://www.w3.org/1999/02/22-rdf-syntax-ns#"
   xmlns:svg="http://www.w3.org/2000/svg"
   xmlns="http://www.w3.org/2000/svg"
   xmlns:sodipodi="http://sodipodi.sourceforge.net/DTD/sodipodi-0.dtd"
   xmlns:inkscape="http://www.inkscape.org/namespaces/inkscape"
   width="165.00081"
   height="34.999989"
   viewBox="0 0 43.656463 9.2604139"
   version="1.1"
   id="svg4166"
   inkscape:version="0.92.0 r15299"
   sodipodi:docname="abcam.svg">
  <defs
     id="defs4160" />
  <sodipodi:namedview
     id="base"
     pagecolor="#ffffff"
     bordercolor="#666666"
     borderopacity="1.0"
     inkscape:pageopacity="0.0"
     inkscape:pageshadow="2"
     inkscape:zoom="5.4694853"
     inkscape:cx="82.000403"
     inkscape:cy="16.999994"
     inkscape:document-units="mm"
     inkscape:current-layer="layer1"
     showgrid="false"
     fit-margin-top="0"
     fit-margin-left="0"
     fit-margin-right="0"
     fit-margin-bottom="0"
     units="px"
     inkscape:window-width="1280"
     inkscape:window-height="744"
     inkscape:window-x="-4"
     inkscape:window-y="-4"
     inkscape:window-maximized="1" />
  <metadata
     id="metadata4163">
    <rdf:RDF>
      <cc:Work
         rdf:about="">
        <dc:format>image/svg+xml</dc:format>
        <dc:type
           rdf:resource="http://purl.org/dc/dcmitype/StillImage" />
        <dc:title></dc:title>
      </cc:Work>
    </rdf:RDF>
  </metadata>
  <g
     inkscape:label="Layer 1"
     inkscape:groupmode="layer"
     id="layer1"
     transform="translate(-115.88739,-325.4994)">
    <path
       d="m 150.10855,327.85419 h -2.17991 v 1.40229 h 0.83503 v 3.78354 h -0.83503 v 1.40229 h 3.17051 v -1.40229 h -0.84667 v -2.14312 c 0,-1.01865 0.53472,-1.66688 1.37001,-1.66688 0.87313,0 1.27847,0.52917 1.2917,1.69333 v 2.11667 h -0.83503 v 1.40229 h 3.15728 v -1.40229 h -0.86122 v -2.2225 c 0,-0.97896 0.54795,-1.5875 1.42213,-1.5875 0.84667,0 1.2917,0.5424 1.2917,1.5875 v 2.2225 h -0.83503 v 1.40229 h 3.15754 v -1.40229 h -0.83502 v -2.59292 a 2.9265562,2.9265562 0 0 0 -0.31327,-1.52135 2.4196146,2.4196146 0 0 0 -2.08756,-1.1774 2.3055792,2.3055792 0 0 0 -2.16588,1.38907 c -0.45667,-0.92604 -1.13506,-1.38907 -2.02248,-1.38907 -0.78263,0 -1.40917,0.38365 -1.87854,1.13771 v -1.03187 z m -3.75709,1.40229 h 0.83503 v -1.40229 h -2.32225 v 0.93927 a 2.3547917,2.3547917 0 0 0 -2.06216,-1.04511 c -1.81372,0 -3.31364,1.56105 -3.31364,3.43959 a 3.3234312,3.3234312 0 0 0 3.26204,3.36021 2.4714729,2.4714729 0 0 0 2.11376,-0.97896 v 0.87312 h 2.32225 v -1.40229 h -0.83503 z m -1.47426,1.87854 a 1.9542125,1.9542125 0 0 1 -1.97035,1.94469 1.9251083,1.9251083 0 1 1 1.97035,-1.94469 m -5.9764,-3.28083 h -1.27873 v 0.64823 a 2.4727958,2.4727958 0 0 0 -1.85209,-0.83344 c -1.78752,0 -3.28798,1.60073 -3.28798,3.47927 a 3.4573104,3.4573104 0 0 0 3.41816,3.47927 3.4030708,3.4030708 0 0 0 3.24882,-2.39448 h -1.65735 a 1.6917458,1.6917458 0 0 1 -1.56554,0.92604 1.9602979,1.9602979 0 0 1 -1.94416,-1.9976 1.9147896,1.9147896 0 0 1 3.53589,-1.11125 h 1.38298 z m -12.18195,-2.2225 h -2.32225 v 1.40229 h 0.83503 v 6.00604 h -0.83503 v 1.40229 h 2.32225 v -0.97896 a 2.4839083,2.4839083 0 0 0 2.15292,1.0848 c 1.74836,0 3.20966,-1.53459 3.20966,-3.38667 a 3.4017479,3.4017479 0 0 0 -3.3401,-3.41313 2.301875,2.301875 0 0 0 -2.02248,1.05834 z m 3.86292,5.47687 a 2.0092458,2.0092458 0 0 1 -1.95792,2.05052 2.0396729,2.0396729 0 0 1 -1.98437,-2.05052 1.9703521,1.9703521 0 0 1 3.94044,0 m -7.69806,-1.85208 h 0.83741 v -1.40229 h -2.32384 v 0.93927 a 2.3547917,2.3547917 0 0 0 -2.06136,-1.04511 c -1.81372,0 -3.31418,1.56105 -3.31418,3.43959 a 3.3234312,3.3234312 0 0 0 3.26205,3.36021 2.4709437,2.4709437 0 0 0 2.11349,-0.97896 v 0.87312 h 2.32384 v -1.40229 h -0.83635 v -3.78354 z m -1.47452,1.87854 a 1.9539479,1.9539479 0 0 1 -1.97009,1.94469 1.9248906,1.9248906 0 1 1 0.0265,-3.84969 1.9232562,1.9232562 0 0 1 1.94416,1.905"
       id="logo"
       inkscape:connector-curvature="0"
       style="fill:#919d9d;fill-rule:evenodd;stroke-width:0.26458332" />
  </g>
</svg>
