<svg class="float-left" fill="none" height="48" viewBox="0 0 184 48" width="184" xmlns="http://www.w3.org/2000/svg">
<path d="M8.51011 20.0412C7.43575 20.0412 6.36138 20.0036 5.28701 19.9283C4.2315 19.8718 3.12886 19.7213 1.9791 19.4767V0.508087C2.88383 0.338725 3.87337 0.216407 4.94774 0.141135C6.02211 0.047045 7.02108 0 7.94466 0C9.18866 0 10.329 0.09409 11.3657 0.28227C12.4212 0.451632 13.3259 0.752721 14.0799 1.18554C14.8338 1.61835 15.4181 2.1923 15.8328 2.90738C16.2663 3.60365 16.483 4.46928 16.483 5.50427C16.483 7.06617 15.7291 8.29875 14.2212 9.20201C15.4652 9.67246 16.3134 10.3123 16.7658 11.1215C17.2181 11.9306 17.4443 12.8433 17.4443 13.8595C17.4443 15.9106 16.6904 17.4537 15.1825 18.4887C13.6935 19.5237 11.4693 20.0412 8.51011 20.0412ZM6.27656 11.2626V16.3152C6.59699 16.3529 6.94568 16.3811 7.32265 16.3999C7.69963 16.4187 8.11429 16.4281 8.56666 16.4281C9.88605 16.4281 10.951 16.24 11.7615 15.8636C12.572 15.4872 12.9772 14.791 12.9772 13.7748C12.9772 12.8715 12.6379 12.2317 11.9594 11.8554C11.2808 11.4602 10.3101 11.2626 9.04729 11.2626H6.27656ZM6.27656 7.90357H8.42529C9.78239 7.90357 10.7531 7.73421 11.3374 7.39548C11.9217 7.03794 12.2138 6.4734 12.2138 5.70186C12.2138 4.9115 11.9123 4.35637 11.3091 4.03647C10.706 3.71656 9.82008 3.55661 8.65148 3.55661C8.2745 3.55661 7.86926 3.56602 7.43575 3.58483C7.00223 3.58483 6.61583 3.60365 6.27656 3.64129V7.90357Z" fill="#071939"></path>
<path d="M18.8544 12.4764C18.8544 11.1591 19.0523 10.0112 19.4481 9.03265C19.8628 8.0353 20.4 7.2073 21.0597 6.54867C21.7194 5.89004 22.4733 5.39136 23.3215 5.05264C24.1886 4.71392 25.0744 4.54455 25.9792 4.54455C28.0902 4.54455 29.7583 5.19377 30.9834 6.49222C32.2086 7.77184 32.8212 9.66306 32.8212 12.1659C32.8212 12.4105 32.8118 12.6833 32.7929 12.9844C32.7741 13.2667 32.7552 13.5208 32.7364 13.7466H23.1802C23.2744 14.6122 23.6796 15.2991 24.3959 15.8071C25.1121 16.3152 26.0734 16.5693 27.2797 16.5693C28.0525 16.5693 28.8064 16.5034 29.5415 16.3717C30.2955 16.2211 30.9081 16.0424 31.3793 15.8354L31.9447 19.2508C31.7185 19.3637 31.417 19.4767 31.04 19.5896C30.663 19.7025 30.2389 19.7966 29.7677 19.8718C29.3154 19.9659 28.8253 20.0412 28.2975 20.0977C27.7698 20.1541 27.242 20.1823 26.7143 20.1823C25.376 20.1823 24.2074 19.9847 23.2084 19.5896C22.2283 19.1944 21.4084 18.6581 20.7487 17.9806C20.1078 17.2844 19.6272 16.4658 19.3068 15.5249C19.0052 14.584 18.8544 13.5678 18.8544 12.4764ZM28.7499 10.8674C28.7311 10.5099 28.6651 10.1617 28.552 9.82301C28.4577 9.48428 28.2975 9.1832 28.0714 8.91974C27.864 8.65629 27.5907 8.43988 27.2514 8.27052C26.931 8.10116 26.5258 8.01648 26.0357 8.01648C25.5645 8.01648 25.1593 8.10116 24.82 8.27052C24.4807 8.42107 24.198 8.62807 23.9718 8.89152C23.7456 9.15497 23.5666 9.46547 23.4346 9.82301C23.3215 10.1617 23.2367 10.5099 23.1802 10.8674H28.7499Z" fill="#071939"></path>
<path d="M34.7998 1.24199L39.0125 0.56454V4.93973H44.0733V8.43989H39.0125V13.6619C39.0125 14.5463 39.1633 15.252 39.4648 15.7789C39.7853 16.3058 40.4167 16.5693 41.3591 16.5693C41.8115 16.5693 42.2733 16.5316 42.7445 16.4564C43.2346 16.3623 43.6775 16.24 44.0733 16.0894L44.667 19.3637C44.1581 19.5707 43.5927 19.7495 42.9707 19.9001C42.3487 20.0506 41.5853 20.1259 40.6806 20.1259C39.5308 20.1259 38.579 19.9753 37.825 19.6742C37.0711 19.3543 36.4679 18.9215 36.0156 18.3758C35.5632 17.8113 35.2428 17.1338 35.0543 16.3435C34.8847 15.5531 34.7998 14.6781 34.7998 13.7183V1.24199Z" fill="#071939"></path>
<path d="M46.2315 1.24199L50.4442 0.56454V4.93973H55.505V8.43989H50.4442V13.6619C50.4442 14.5463 50.595 15.252 50.8966 15.7789C51.217 16.3058 51.8484 16.5693 52.7908 16.5693C53.2432 16.5693 53.705 16.5316 54.1762 16.4564C54.6663 16.3623 55.1092 16.24 55.505 16.0894L56.0987 19.3637C55.5898 19.5707 55.0244 19.7495 54.4024 19.9001C53.7804 20.0506 53.017 20.1259 52.1123 20.1259C50.9625 20.1259 50.0107 19.9753 49.2567 19.6742C48.5028 19.3543 47.8996 18.9215 47.4473 18.3758C46.9949 17.8113 46.6745 17.1338 46.486 16.3435C46.3164 15.5531 46.2315 14.6781 46.2315 13.7183V1.24199Z" fill="#071939"></path>
<path d="M56.5456 12.4764C56.5456 11.1591 56.7435 10.0112 57.1393 9.03265C57.554 8.0353 58.0912 7.2073 58.7509 6.54867C59.4106 5.89004 60.1645 5.39136 61.0127 5.05264C61.8797 4.71392 62.7656 4.54455 63.6703 4.54455C65.7814 4.54455 67.4495 5.19377 68.6746 6.49222C69.8998 7.77184 70.5124 9.66306 70.5124 12.1659C70.5124 12.4105 70.5029 12.6833 70.4841 12.9844C70.4652 13.2667 70.4464 13.5208 70.4275 13.7466H60.8713C60.9656 14.6122 61.3708 15.2991 62.0871 15.8071C62.8033 16.3152 63.7646 16.5693 64.9709 16.5693C65.7437 16.5693 66.4976 16.5034 67.2327 16.3717C67.9866 16.2211 68.5992 16.0424 69.0704 15.8354L69.6359 19.2508C69.4097 19.3637 69.1081 19.4767 68.7312 19.5896C68.3542 19.7025 67.9301 19.7966 67.4589 19.8718C67.0065 19.9659 66.5165 20.0412 65.9887 20.0977C65.4609 20.1541 64.9332 20.1823 64.4054 20.1823C63.0672 20.1823 61.8986 19.9847 60.8996 19.5896C59.9195 19.1944 59.0996 18.6581 58.4399 17.9806C57.799 17.2844 57.3184 16.4658 56.998 15.5249C56.6964 14.584 56.5456 13.5678 56.5456 12.4764ZM66.4411 10.8674C66.4222 10.5099 66.3562 10.1617 66.2432 9.82301C66.1489 9.48428 65.9887 9.1832 65.7625 8.91974C65.5552 8.65629 65.2819 8.43988 64.9426 8.27052C64.6222 8.10116 64.2169 8.01648 63.7269 8.01648C63.2557 8.01648 62.8504 8.10116 62.5111 8.27052C62.1719 8.42107 61.8891 8.62807 61.663 8.89152C61.4368 9.15497 61.2577 9.46547 61.1258 9.82301C61.0127 10.1617 60.9279 10.5099 60.8713 10.8674H66.4411Z" fill="#071939"></path>
<path d="M81.5948 8.6657C81.2179 8.57161 80.7749 8.47752 80.266 8.38343C79.7571 8.27052 79.2105 8.21407 78.6262 8.21407C78.3623 8.21407 78.0419 8.2423 77.6649 8.29875C77.3068 8.33639 77.0335 8.38343 76.845 8.43989V19.7872H72.6324V5.73009C73.3863 5.46664 74.2722 5.222 75.29 4.99619C76.3267 4.75155 77.4764 4.62923 78.7393 4.62923C78.9655 4.62923 79.2388 4.64805 79.5592 4.68569C79.8796 4.70451 80.2001 4.74214 80.5205 4.7986C80.8409 4.83623 81.1613 4.89269 81.4818 4.96796C81.8022 5.02441 82.0755 5.09969 82.3017 5.19378L81.5948 8.6657Z" fill="#071939"></path>
<path d="M15.0977 47.6048C14.8903 46.9274 14.6547 46.2311 14.3909 45.516C14.1458 44.8009 13.9008 44.0859 13.6558 43.3708H6.02211C5.77707 44.0859 5.52262 44.8009 5.25874 45.516C5.01371 46.2311 4.78753 46.9274 4.58019 47.6048H0C0.735093 45.4972 1.43249 43.5495 2.09219 41.7618C2.75189 39.9741 3.39274 38.2899 4.01474 36.7092C4.65559 35.1285 5.27759 33.6324 5.88074 32.2211C6.50274 30.7909 7.14359 29.3984 7.80329 28.0435H12.0159C12.6568 29.3984 13.2882 30.7909 13.9102 32.2211C14.5322 33.6324 15.1542 35.1285 15.7762 36.7092C16.4171 38.2899 17.0673 39.9741 17.727 41.7618C18.3867 43.5495 19.0841 45.4972 19.8192 47.6048H15.0977ZM9.81066 32.4751C9.71642 32.7574 9.57505 33.1432 9.38657 33.6324C9.19808 34.1217 8.98133 34.6862 8.73629 35.3261C8.49126 35.9659 8.21796 36.6716 7.91638 37.4431C7.63365 38.2146 7.3415 39.0238 7.03993 39.8706H12.6097C12.3081 39.0238 12.0159 38.2146 11.7332 37.4431C11.4505 36.6716 11.1772 35.9659 10.9133 35.3261C10.6683 34.6862 10.4515 34.1217 10.263 33.6324C10.0745 33.1432 9.92375 32.7574 9.81066 32.4751Z" fill="#071939"></path>
<path d="M24.2287 40.0682C24.2287 41.3666 24.5208 42.411 25.1051 43.2014C25.6894 43.9918 26.5565 44.3869 27.7062 44.3869C28.0832 44.3869 28.4319 44.3775 28.7523 44.3587C29.0728 44.3211 29.3366 44.2834 29.544 44.2458V36.5963C29.2801 36.4269 28.9314 36.2858 28.4979 36.1729C28.0832 36.06 27.6591 36.0035 27.2256 36.0035C25.2277 36.0035 24.2287 37.3584 24.2287 40.0682ZM33.7566 47.125C33.3796 47.2379 32.9461 47.3508 32.4561 47.4637C31.966 47.5578 31.4477 47.6425 30.9011 47.7177C30.3733 47.793 29.8267 47.8495 29.2612 47.8871C28.7146 47.9435 28.1869 47.9718 27.678 47.9718C26.4528 47.9718 25.3596 47.793 24.3983 47.4355C23.437 47.0779 22.6266 46.5698 21.9669 45.9112C21.3072 45.2338 20.7982 44.4246 20.4401 43.4837C20.1009 42.524 19.9312 41.4513 19.9312 40.2658C19.9312 39.0614 20.082 37.9794 20.3836 37.0197C20.6852 36.0411 21.1187 35.2132 21.6841 34.5357C22.2496 33.8583 22.9376 33.3408 23.748 32.9832C24.5774 32.6257 25.5198 32.4469 26.5753 32.4469C27.1596 32.4469 27.678 32.5034 28.1303 32.6163C28.6015 32.7292 29.0728 32.8891 29.544 33.0961V26.3781L33.7566 25.7006V47.125Z" fill="#071939"></path>
<path d="M40.1608 40.0682C40.1608 41.3666 40.453 42.411 41.0373 43.2014C41.6216 43.9918 42.4886 44.3869 43.6384 44.3869C44.0154 44.3869 44.3641 44.3775 44.6845 44.3587C45.0049 44.3211 45.2688 44.2834 45.4761 44.2458V36.5963C45.2122 36.4269 44.8636 36.2858 44.43 36.1729C44.0154 36.06 43.5913 36.0035 43.1578 36.0035C41.1598 36.0035 40.1608 37.3584 40.1608 40.0682ZM49.6888 47.125C49.3118 47.2379 48.8783 47.3508 48.3882 47.4637C47.8982 47.5578 47.3798 47.6425 46.8332 47.7177C46.3055 47.793 45.7589 47.8495 45.1934 47.8871C44.6468 47.9435 44.119 47.9718 43.6101 47.9718C42.385 47.9718 41.2918 47.793 40.3305 47.4355C39.3692 47.0779 38.5587 46.5698 37.899 45.9112C37.2393 45.2338 36.7304 44.4246 36.3723 43.4837C36.033 42.524 35.8634 41.4513 35.8634 40.2658C35.8634 39.0614 36.0142 37.9794 36.3157 37.0197C36.6173 36.0411 37.0508 35.2132 37.6163 34.5357C38.1817 33.8583 38.8697 33.3408 39.6802 32.9832C40.5095 32.6257 41.452 32.4469 42.5075 32.4469C43.0918 32.4469 43.6101 32.5034 44.0625 32.6163C44.5337 32.7292 45.0049 32.8891 45.4761 33.0961V26.3781L49.6888 25.7006V47.125Z" fill="#071939"></path>
<path d="M56.715 47.6048H52.5024V32.7574H56.715V47.6048Z" fill="#071939"></path>
<path d="M58.8372 40.1811C58.8372 39.1085 59.0069 38.1017 59.3461 37.1608C59.7043 36.2011 60.2132 35.3731 60.8729 34.6768C61.5326 33.9618 62.3336 33.3972 63.2761 32.9832C64.2185 32.5692 65.2928 32.3622 66.4992 32.3622C67.2908 32.3622 68.0165 32.4375 68.6762 32.588C69.3359 32.7198 69.9767 32.9174 70.5987 33.1808L69.7223 36.5398C69.3264 36.3893 68.8929 36.2576 68.4217 36.1446C67.9505 36.0317 67.4227 35.9753 66.8384 35.9753C65.5944 35.9753 64.6614 36.361 64.0394 37.1326C63.4363 37.9041 63.1347 38.9203 63.1347 40.1811C63.1347 41.5172 63.4174 42.5522 63.9829 43.2861C64.5672 44.02 65.5756 44.3869 67.0081 44.3869C67.517 44.3869 68.0636 44.3399 68.6479 44.2458C69.2322 44.1517 69.7694 44.0012 70.2594 43.7942L70.8532 47.2379C70.3631 47.4449 69.7505 47.6236 69.0154 47.7742C68.2803 47.9247 67.4699 48 66.584 48C65.2269 48 64.0583 47.8024 63.0782 47.4072C62.098 46.9932 61.2875 46.4381 60.6467 45.7418C60.0247 45.0456 59.5629 44.227 59.2613 43.2861C58.9786 42.3264 58.8372 41.2914 58.8372 40.1811Z" fill="#071939"></path>
<path d="M72.4082 29.0597L76.6208 28.3822V32.7574H81.6816V36.2576H76.6208V41.4796C76.6208 42.364 76.7716 43.0697 77.0732 43.5966C77.3936 44.1235 78.025 44.3869 78.9675 44.3869C79.4198 44.3869 79.8816 44.3493 80.3528 44.274C80.8429 44.1799 81.2858 44.0576 81.6816 43.9071L82.2754 47.1814C81.7665 47.3884 81.201 47.5672 80.579 47.7177C79.957 47.8683 79.1936 47.9435 78.2889 47.9435C77.1392 47.9435 76.1873 47.793 75.4334 47.4919C74.6794 47.172 74.0763 46.7392 73.6239 46.1935C73.1715 45.6289 72.8511 44.9515 72.6626 44.1611C72.493 43.3708 72.4082 42.4957 72.4082 41.536V29.0597Z" fill="#071939"></path>
<path d="M88.1939 47.6048H83.9812V32.7574H88.1939V47.6048Z" fill="#071939"></path>
<path d="M104.933 40.1529C104.933 41.3196 104.764 42.3922 104.424 43.3708C104.085 44.3305 103.595 45.1585 102.954 45.8547C102.313 46.5322 101.54 47.0591 100.636 47.4355C99.7498 47.8118 98.7508 48 97.6388 48C96.5456 48 95.5466 47.8118 94.6419 47.4355C93.756 47.0591 92.9926 46.5322 92.3518 45.8547C91.7109 45.1585 91.2114 44.3305 90.8533 43.3708C90.4952 42.3922 90.3161 41.3196 90.3161 40.1529C90.3161 38.9862 90.4952 37.9229 90.8533 36.9632C91.2303 36.0035 91.7392 35.1849 92.38 34.5075C93.0397 33.83 93.8125 33.3031 94.6984 32.9268C95.6031 32.5504 96.5833 32.3622 97.6388 32.3622C98.7131 32.3622 99.6933 32.5504 100.579 32.9268C101.484 33.3031 102.257 33.83 102.898 34.5075C103.538 35.1849 104.038 36.0035 104.396 36.9632C104.754 37.9229 104.933 38.9862 104.933 40.1529ZM100.636 40.1529C100.636 38.8544 100.372 37.8383 99.844 37.1044C99.3351 36.3516 98.6 35.9753 97.6388 35.9753C96.6775 35.9753 95.933 36.3516 95.4052 37.1044C94.8775 37.8383 94.6136 38.8544 94.6136 40.1529C94.6136 41.4513 94.8775 42.4863 95.4052 43.2579C95.933 44.0106 96.6775 44.3869 97.6388 44.3869C98.6 44.3869 99.3351 44.0106 99.844 43.2579C100.372 42.4863 100.636 41.4513 100.636 40.1529Z" fill="#071939"></path>
<path d="M107.066 33.2655C107.782 33.0585 108.705 32.8703 109.836 32.7009C110.967 32.5128 112.155 32.4187 113.399 32.4187C114.661 32.4187 115.708 32.588 116.537 32.9268C117.385 33.2467 118.054 33.7077 118.544 34.3099C119.034 34.9121 119.383 35.6271 119.59 36.4551C119.798 37.2831 119.901 38.2052 119.901 39.2214V47.6048H115.689V39.7295C115.689 38.3746 115.51 37.4149 115.152 36.8503C114.793 36.2858 114.124 36.0035 113.144 36.0035C112.843 36.0035 112.522 36.0223 112.183 36.06C111.844 36.0788 111.542 36.107 111.278 36.1446V47.6048H107.066V33.2655Z" fill="#071939"></path>
<path d="M137.462 48C134.276 48 131.845 47.1156 130.167 45.3467C128.509 43.5778 127.679 41.0656 127.679 37.81C127.679 36.1917 127.934 34.7521 128.443 33.4913C128.952 32.2117 129.649 31.139 130.535 30.2734C131.421 29.389 132.476 28.7209 133.701 28.2693C134.927 27.8177 136.255 27.5919 137.688 27.5919C138.517 27.5919 139.271 27.6577 139.95 27.7894C140.628 27.9023 141.222 28.0435 141.731 28.2128C142.24 28.3634 142.664 28.5233 143.003 28.6927C143.342 28.8621 143.587 28.9938 143.738 29.0879L142.466 32.6445C141.863 32.3246 141.156 32.0517 140.345 31.8259C139.554 31.6001 138.649 31.4872 137.631 31.4872C136.953 31.4872 136.284 31.6001 135.624 31.8259C134.983 32.0517 134.408 32.4187 133.899 32.9268C133.409 33.416 133.013 34.0558 132.712 34.8462C132.41 35.6366 132.259 36.5963 132.259 37.7254C132.259 38.6286 132.354 39.4754 132.542 40.2658C132.75 41.0373 133.07 41.7054 133.503 42.2699C133.956 42.8344 134.54 43.2861 135.256 43.6248C135.973 43.9447 136.84 44.1047 137.857 44.1047C138.498 44.1047 139.073 44.067 139.582 43.9918C140.091 43.9165 140.543 43.8318 140.939 43.7377C141.335 43.6248 141.684 43.5025 141.985 43.3708C142.287 43.239 142.56 43.1167 142.805 43.0038L144.021 46.5322C143.399 46.9086 142.522 47.2473 141.392 47.5484C140.261 47.8495 138.951 48 137.462 48Z" fill="#071939"></path>
<path d="M151.406 44.6692C151.821 44.6692 152.216 44.6598 152.593 44.641C152.97 44.6222 153.272 44.5939 153.498 44.5563V41.3666C153.328 41.329 153.074 41.2914 152.735 41.2537C152.395 41.2161 152.084 41.1973 151.802 41.1973C151.406 41.1973 151.029 41.2255 150.671 41.282C150.332 41.3196 150.03 41.4043 149.766 41.536C149.502 41.6677 149.295 41.8465 149.144 42.0723C148.993 42.2981 148.918 42.5804 148.918 42.9191C148.918 43.5778 149.135 44.0388 149.568 44.3023C150.021 44.5469 150.633 44.6692 151.406 44.6692ZM151.067 32.3622C152.311 32.3622 153.347 32.5034 154.177 32.7856C155.006 33.0679 155.666 33.4725 156.156 33.9994C156.665 34.5263 157.023 35.1661 157.23 35.9188C157.437 36.6716 157.541 37.509 157.541 38.431V47.1814C156.938 47.3131 156.099 47.4637 155.025 47.633C153.95 47.8212 152.65 47.9153 151.123 47.9153C150.162 47.9153 149.285 47.8306 148.494 47.6613C147.721 47.4919 147.052 47.2191 146.486 46.8427C145.921 46.4475 145.487 45.9394 145.186 45.3184C144.884 44.6974 144.734 43.9353 144.734 43.032C144.734 42.1664 144.903 41.4325 145.242 40.8303C145.601 40.2282 146.072 39.7483 146.656 39.3908C147.24 39.0332 147.909 38.7792 148.663 38.6286C149.417 38.4593 150.2 38.3746 151.01 38.3746C151.557 38.3746 152.037 38.4028 152.452 38.4593C152.886 38.4969 153.234 38.5533 153.498 38.6286V38.2334C153.498 37.5184 153.281 36.9444 152.848 36.5116C152.414 36.0788 151.66 35.8624 150.586 35.8624C149.87 35.8624 149.163 35.9188 148.466 36.0317C147.768 36.1258 147.165 36.267 146.656 36.4551L146.119 33.0679C146.364 32.9926 146.665 32.9174 147.024 32.8421C147.401 32.748 147.806 32.6727 148.239 32.6163C148.673 32.541 149.125 32.4845 149.596 32.4469C150.087 32.3904 150.577 32.3622 151.067 32.3622Z" fill="#071939"></path>
<path d="M169.182 36.4834C168.805 36.3893 168.362 36.2952 167.853 36.2011C167.344 36.0882 166.798 36.0317 166.213 36.0317C165.949 36.0317 165.629 36.06 165.252 36.1164C164.894 36.1541 164.621 36.2011 164.432 36.2576V47.6048H160.219V33.5478C160.973 33.2843 161.859 33.0397 162.877 32.8139C163.914 32.5692 165.064 32.4469 166.326 32.4469C166.553 32.4469 166.826 32.4657 167.146 32.5034C167.467 32.5222 167.787 32.5598 168.108 32.6163C168.428 32.6539 168.748 32.7104 169.069 32.7856C169.389 32.8421 169.663 32.9174 169.889 33.0114L169.182 36.4834Z" fill="#071939"></path>
<path d="M170.033 40.294C170.033 38.9768 170.231 37.8289 170.627 36.8503C171.042 35.853 171.579 35.025 172.239 34.3663C172.898 33.7077 173.652 33.209 174.5 32.8703C175.367 32.5316 176.253 32.3622 177.158 32.3622C179.269 32.3622 180.937 33.0114 182.162 34.3099C183.387 35.5895 184 37.4807 184 39.9835C184 40.2282 183.991 40.501 183.972 40.8021C183.953 41.0844 183.934 41.3384 183.915 41.5642H174.359C174.453 42.4299 174.858 43.1167 175.575 43.6248C176.291 44.1329 177.252 44.3869 178.459 44.3869C179.231 44.3869 179.985 44.3211 180.72 44.1894C181.474 44.0388 182.087 43.86 182.558 43.653L183.124 47.0685C182.897 47.1814 182.596 47.2943 182.219 47.4072C181.842 47.5201 181.418 47.6142 180.947 47.6895C180.494 47.7836 180.004 47.8589 179.476 47.9153C178.949 47.9718 178.421 48 177.893 48C176.555 48 175.386 47.8024 174.387 47.4072C173.407 47.0121 172.587 46.4757 171.928 45.7983C171.287 45.102 170.806 44.2834 170.486 43.3425C170.184 42.4016 170.033 41.3855 170.033 40.294ZM179.929 38.6851C179.91 38.3275 179.844 37.9794 179.731 37.6407C179.637 37.302 179.476 37.0009 179.25 36.7374C179.043 36.474 178.77 36.2576 178.43 36.0882C178.11 35.9188 177.705 35.8341 177.215 35.8341C176.743 35.8341 176.338 35.9188 175.999 36.0882C175.66 36.2387 175.377 36.4457 175.151 36.7092C174.924 36.9726 174.745 37.2831 174.613 37.6407C174.5 37.9794 174.416 38.3275 174.359 38.6851H179.929Z" fill="#071939"></path>
<path d="M85.5166 27.5994C91.375 28.9995 94.5848 27.5994 94.5848 20.0081" stroke="#53B9EF" stroke-linecap="round" stroke-width="4.66679"></path>
<path d="M86.5214 29.0723C85.1191 23.2233 86.5214 20.0187 94.1251 20.0187" stroke="#71DFB5" stroke-linecap="round" stroke-width="4.66679"></path>
</svg>