<?xml version="1.0" standalone="no"?><!-- Generator: Gravit.io --><svg xmlns="http://www.w3.org/2000/svg" xmlns:xlink="http://www.w3.org/1999/xlink" style="isolation:isolate" viewBox="0 0 232.339 52.825" width="232.339" height="52.825"><defs><clipPath id="_clipPath_tJ4lZOxidwPvJOSb7AxDo2au7Zhgukkg"><rect width="232.339" height="52.825"/></clipPath></defs><g clip-path="url(#_clipPath_tJ4lZOxidwPvJOSb7AxDo2au7Zhgukkg)"><clipPath id="_clipPath_8LV0mUOhQBFNXn8E9VFzMpSx3EYgkvly"><path d=" M 0 0 L 0 52.825 L 232.339 52.825 L 232.339 0 L 0 0 Z " fill="rgb(255,255,255)"/></clipPath><g clip-path="url(#_clipPath_8LV0mUOhQBFNXn8E9VFzMpSx3EYgkvly)"><path d=" M 112.02 23.636 C 108.423 23.121 105.397 22.722 105.397 20.667 C 105.397 19.582 106.595 17.871 109.794 17.871 C 113.39 17.871 115.503 20.039 116.701 21.41 L 121.554 17.069 C 120.7 16.098 119.843 15.129 118.07 14.16 C 115.503 12.674 112.591 12.104 109.963 12.104 C 103.227 12.104 97.976 16.043 97.976 21.81 C 97.976 28.089 103.798 29.346 107.396 30.143 C 110.65 30.772 112.248 31.114 112.762 31.286 C 113.276 31.457 114.932 31.914 114.932 33.342 C 114.932 34.656 112.931 36.139 109.734 36.139 C 107.851 36.139 105.74 35.623 104.084 34.425 C 102.827 33.569 102.2 32.656 101.744 31.972 L 96.205 36.596 C 96.948 37.679 97.804 38.824 100.028 40.078 C 102.943 41.735 106.026 42.363 109.166 42.363 C 117.786 42.363 122.525 37.795 122.525 32.313 C 122.525 25.406 115.616 24.207 112.02 23.636 Z  M 143.01 27.405 C 142.954 29.687 142.839 33.228 139.7 34.997 C 138.956 35.398 138.1 35.623 137.188 35.623 C 135.415 35.623 133.134 34.54 132.677 31.23 C 132.618 30.544 132.618 29.802 132.618 29.06 L 132.618 12.96 L 125.197 12.96 L 125.197 31.343 C 125.197 33.742 125.197 36.881 127.425 39.394 C 128.793 40.935 131.362 42.363 135.13 42.363 C 139.642 42.363 141.868 40.137 143.24 38.764 L 143.24 41.506 L 150.432 41.506 L 150.432 12.96 L 143.01 12.96 L 143.01 27.405 Z  M 83.166 12.104 C 79.112 12.104 76.943 13.815 75.63 14.9 L 75.63 12.96 L 68.149 12.96 L 68.149 51.61 L 75.63 51.61 L 75.63 39.907 C 76.999 40.935 78.941 42.363 82.537 42.363 C 90.36 42.363 95.899 36.311 95.899 26.833 C 95.899 18.325 90.646 12.104 83.166 12.104 Z  M 81.454 35.34 C 75.572 35.34 75.572 28.489 75.572 26.775 C 75.572 25.292 75.572 18.897 81.511 18.897 C 85.62 18.897 88.076 22.436 88.133 27.061 C 88.247 32.028 85.391 35.34 81.454 35.34 Z  M 208.328 16.9 C 204.902 12.789 200.847 12.104 197.824 12.104 C 189.602 12.104 183.55 17.983 183.55 26.949 C 183.55 35.908 189.886 42.306 198.619 42.306 C 201.762 42.306 205.357 41.448 208.269 39.278 C 210.04 37.965 210.896 36.712 211.638 35.739 L 205.531 32.2 C 204.56 33.398 202.787 35.568 199.02 35.568 C 195.596 35.568 193.198 33.797 192.173 31.743 C 191.542 30.602 191.426 29.403 191.37 28.602 L 212.038 28.602 C 211.924 25.461 211.583 20.896 208.328 16.9 Z  M 191.37 23.35 C 191.597 22.379 191.94 20.78 193.71 19.354 C 194.855 18.44 196.223 18.04 197.652 18.04 C 199.42 18.04 200.905 18.725 201.818 19.639 C 202.846 20.667 203.303 21.865 203.419 23.35 L 191.37 23.35 Z  M 19.468 34.997 C 14.101 34.997 8.507 30.943 8.507 21.522 C 8.507 11.759 13.815 7.193 19.64 7.193 C 21.524 7.193 25.349 7.764 27.063 11.587 C 27.632 12.787 27.804 13.872 27.975 15.012 L 36.255 12.787 C 35.17 9.19 32.143 0 19.411 0 C 4.852 0 0 11.418 0 21.122 C 0 27.459 1.999 33.283 5.367 36.995 C 8.05 39.907 12.732 42.704 19.299 42.704 C 26.663 42.704 33.399 39.164 36.71 30.029 L 29.346 26.49 C 28.148 29.46 25.92 34.997 19.468 34.997 Z  M 214.557 41.506 L 221.98 41.506 L 221.98 1.197 L 214.557 1.197 L 214.557 41.506 Z  M 64.171 21.467 C 64.171 17.926 63.712 16.043 61.029 14.16 C 58.518 12.389 54.122 12.104 52.123 12.104 C 49.554 12.104 45.958 12.503 43.561 14.16 C 40.134 16.5 39.85 19.927 39.734 21.695 L 46.529 21.695 C 46.757 20.039 47.043 17.871 51.896 17.871 C 56.921 17.871 56.921 20.496 56.921 22.151 C 55.379 22.836 54.522 23.064 50.982 23.638 C 45.215 24.548 41.447 25.178 39.505 29.232 C 38.936 30.486 38.708 31.914 38.708 33.342 C 38.708 39.338 43.047 42.363 48.755 42.363 C 51.837 42.363 54.979 41.506 57.148 39.278 C 57.32 40.592 57.378 41.049 57.49 41.506 L 65.313 41.506 C 64.285 38.536 64.228 37.11 64.171 34.369 L 64.171 21.467 Z  M 55.264 34.369 C 54.008 35.454 52.237 36.082 50.468 36.082 C 47.443 36.082 46.243 34.542 46.243 32.999 C 46.243 30.203 49.269 29.631 51.896 29.174 C 55.093 28.546 55.891 28.315 56.921 27.918 C 56.921 31.745 56.921 32.885 55.264 34.369 Z  M 230.065 6.922 C 230.06 6.882 230.057 6.843 230.057 6.804 L 230.057 6.443 C 230.057 6.033 229.939 5.732 229.702 5.54 C 229.574 5.437 229.384 5.36 229.129 5.306 C 229.406 5.277 229.638 5.186 229.827 5.038 C 230.016 4.886 230.109 4.643 230.109 4.304 C 230.109 3.858 229.933 3.537 229.574 3.341 C 229.363 3.226 229.097 3.156 228.78 3.134 C 228.724 3.13 228.447 3.128 227.948 3.127 C 227.45 3.125 227.077 3.123 226.826 3.123 L 226.826 7.154 L 227.882 7.154 L 227.882 5.728 L 228.103 5.728 L 228.336 5.743 C 228.497 5.752 228.615 5.774 228.694 5.808 C 228.842 5.863 228.938 5.962 228.992 6.102 C 229.024 6.189 229.045 6.353 229.057 6.596 C 229.069 6.839 229.091 7.026 229.124 7.154 L 230.13 7.154 L 230.093 7.04 C 230.08 7 230.068 6.963 230.065 6.922 Z  M 228.868 4.855 C 228.73 4.953 228.538 5.004 228.291 5.004 L 227.882 5.004 L 227.882 3.834 L 228.138 3.834 C 228.401 3.834 228.604 3.862 228.75 3.917 C 228.967 4.004 229.074 4.157 229.074 4.376 C 229.074 4.599 229.005 4.756 228.868 4.855 Z  M 231.189 2.36 C 230.425 1.596 229.5 1.212 228.418 1.212 C 227.388 1.212 226.489 1.568 225.725 2.276 C 224.908 3.035 224.501 3.987 224.501 5.131 C 224.501 6.233 224.879 7.162 225.632 7.917 C 226.387 8.673 227.317 9.051 228.418 9.051 C 229.487 9.051 230.399 8.682 231.164 7.945 C 231.946 7.182 232.339 6.244 232.339 5.131 C 232.339 4.05 231.956 3.127 231.189 2.36 Z  M 230.535 7.272 C 229.949 7.864 229.244 8.16 228.418 8.16 C 227.591 8.16 226.883 7.866 226.3 7.276 C 225.709 6.688 225.416 5.973 225.416 5.131 C 225.416 4.319 225.703 3.617 226.283 3.026 C 226.872 2.419 227.583 2.117 228.418 2.117 C 229.244 2.117 229.951 2.419 230.541 3.026 C 231.123 3.62 231.414 4.322 231.414 5.131 C 231.414 5.962 231.122 6.676 230.535 7.272 Z  M 180.854 12.96 L 173.831 12.96 L 173.831 14.957 C 172.746 13.872 171.033 12.104 166.58 12.104 C 158.815 12.104 153.105 17.871 153.105 26.149 C 153.105 34.199 158.186 40.078 166.353 40.078 C 170.804 40.078 172.575 38.367 173.487 37.567 C 173.487 38.588 173.486 40.259 173.486 40.259 C 173.48 42.85 173.392 44.567 171.773 45.86 C 170.576 46.832 168.576 47.173 166.808 47.173 C 162.241 47.173 162.014 45.232 161.898 44.09 L 154.022 44.09 C 154.245 47.686 155.446 52.824 166.295 52.824 C 169.546 52.824 174.058 52.254 176.914 50.369 C 180.627 47.968 180.944 44.773 180.867 38.553 C 180.88 37.604 180.854 12.96 180.854 12.96 Z  M 172.347 31.743 C 171.604 32.771 170.118 33.968 167.549 33.968 C 165.494 33.968 162.124 32.999 160.985 29.06 C 160.758 28.201 160.642 27.232 160.642 26.092 C 160.642 20.953 163.783 18.611 167.264 18.611 C 169.948 18.611 171.604 19.811 172.461 21.067 C 173.487 22.551 173.601 24.548 173.66 25.804 C 173.716 27.29 173.66 29.974 172.347 31.743 Z " fill="rgb(243,125,68)"/></g></g></svg>