<?xml version="1.0" encoding="UTF-8" standalone="no"?>
<svg
   xmlns:dc="http://purl.org/dc/elements/1.1/"
   xmlns:cc="http://creativecommons.org/ns#"
   xmlns:rdf="http://www.w3.org/1999/02/22-rdf-syntax-ns#"
   xmlns:svg="http://www.w3.org/2000/svg"
   xmlns="http://www.w3.org/2000/svg"
   xml:space="preserve"
   enable-background="new 0 0 1477 139"
   viewBox="0 0 1477 139"
   height="139px"
   width="1477px"
   y="0px"
   x="0px"
   id="Layer_0_xA0_画像_1_"
   version="1.1"><metadata
   id="metadata8"><rdf:RDF><cc:Work
       rdf:about=""><dc:format>image/svg+xml</dc:format><dc:type
         rdf:resource="http://purl.org/dc/dcmitype/StillImage" /><dc:title></dc:title></cc:Work></rdf:RDF></metadata><defs
   id="defs6" />
<g
   id="g10"><path
     id="path14"
     d="M 4,70.5 V 2 h 734 734 V 70.5 139 H 738 4 Z m 375.70591,64.95648 c 23.17618,-4.4835 40.12829,-18.63311 46.79631,-39.060023 5.519,-16.907013 5.50105,-34.78619 -0.0526,-52.366577 C 419.72022,22.727529 401.5079,8.007182 377,4.0615669 368.44615,2.6844514 346.74423,2.7122458 337.69155,4.1119104 312.04897,8.0765969 293.5346,24.773251 287.53053,49.348179 c -4.74987,19.441453 -1.87245,44.195065 6.86367,59.045971 6.70162,11.39239 19.85642,20.9312 35.29451,25.59277 12.88077,3.88938 34.26139,4.51757 50.0172,1.46956 z M 349,105.24845 c -4.50264,-2.24932 -9.51231,-9.772044 -10.97613,-16.482176 -4.10685,-18.825784 -1.1486,-42.615607 6.29348,-50.611288 6.76078,-7.263701 20.44655,-7.140822 27.06744,0.243026 10.92588,12.184908 11.12298,51.728091 0.31636,63.468408 -4.77252,5.18487 -15.80275,6.82816 -22.70115,3.38203 z m -106.97369,9.96569 0.0263,-19.71414 3.83141,-7 c 2.10728,-3.85 7.32647,-13.525 11.5982,-21.5 4.27172,-7.975 13.30683,-24.650756 20.07802,-37.057235 6.77118,-12.40648 12.45265,-23.1204781 12.6255,-23.8088855 0.24541,-0.9774635 -5.038,-1.2425169 -24.11856,-1.2099588 -13.43804,0.02293 -24.77517,0.3869283 -25.19362,0.8088851 -0.68585,0.6916017 -7.31219,18.0875342 -16.3634,42.9583472 -1.83971,5.055134 -3.80046,10.005134 -4.35723,11 -0.92834,1.658808 -1.09122,1.601479 -1.96377,-0.691153 -0.52331,-1.375 -1.7216,-4.3 -2.66288,-6.5 C 214.58502,50.3 212.31612,44.225 210.48431,39 204.20725,21.095574 198.07017,5.661403 196.95349,4.9712546 196.33914,4.5915675 194.86078,4.3852782 193.66825,4.512834 192.47571,4.6403898 181.01684,4.8021841 168.2041,4.8723768 L 144.90819,5 l 3.9374,7.25 c 2.16556,3.9875 5.72408,10.625 7.90782,14.75 2.18373,4.125 7.46561,14.025 11.73751,22 4.2719,7.975 8.69775,16.3 9.83523,18.5 1.13748,2.2 4.90443,9.09716 8.371,15.327023 L 193,94.154047 V 114.5037 c 0,18.1396 0.17976,20.38477 1.65518,20.67298 0.91034,0.17782 11.93534,0.19468 24.5,0.0375 L 242,134.92828 l 0.0263,-19.71414 z m 384.5576,8.17095 C 627.93366,117.39829 631.23348,103.5 633.91683,92.5 649.01573,30.604396 654.96585,5.63252 654.68251,5.3491816 654.27318,4.9398447 612.00166,4.6699154 611.69347,5.0746705 611.51535,5.3086017 610.34384,11.125 609.09012,18 c -4.42744,24.278488 -7.17774,38.627859 -9.58334,50 -1.33796,6.325 -2.94122,14.135609 -3.56281,17.356908 -0.62158,3.2213 -1.47191,5.4713 -1.88961,5 C 593.63666,89.885609 590.71299,78.7 587.55732,65.5 c -3.15567,-13.2 -7.32653,-30.3 -9.26859,-38 -1.94205,-7.7 -3.96293,-15.9125 -4.49085,-18.25 -0.83389,-3.6922858 -1.3101,-4.2520139 -3.62886,-4.2653469 -7.10789,-0.040871 -41.86964,-0.06134 -43.30552,-0.0255 -0.98636,0.02462 -1.8284,1.1333505 -2.11954,2.790847 -0.26568,1.5125 -2.1389,9.2749999 -4.16273,17.2499999 -2.02383,7.975 -4.57159,18.1 -5.66169,22.5 -1.0901,4.4 -3.72439,14.75 -5.85397,23 -2.12957,8.25 -4.02802,16.125 -4.21876,17.5 -0.19075,1.375 -0.7615,2.402924 -1.26835,2.284275 C 502.62009,90.059928 497.13404,63.840112 491.90655,34.5 490.24067,25.15 488.3638,14.6875 487.73573,11.25 L 486.59377,5 H 463.79689 C 448.52993,5 441,5.3471079 441,6.0508704 c 0,0.5779787 1.53593,7.2154786 3.41318,14.7499996 1.87724,7.534522 3.93531,16.39913 4.57347,19.69913 0.63817,3.3 3.12526,13.875 5.52688,23.5 2.40161,9.625 5.28296,21.908471 6.40299,27.296602 1.12003,5.388131 3.92809,17.425628 6.24015,26.749998 L 471.3604,135 h 27.3198 C 523.36568,135 526,134.84141 526,133.35536 c 0,-1.58189 15.09894,-63.665227 20.09732,-82.635534 1.2259,-4.65264 2.5093,-4.074857 3.41053,1.535414 0.37504,2.334618 2.63409,11.44476 5.02012,20.24476 2.38603,8.8 6.38995,24.325 8.8976,34.5 2.50766,10.175 5.17455,20.525 5.92643,23 l 1.36705,4.5 25.89048,0.5 c 14.23976,0.275 26.25718,0.22329 26.70538,-0.11491 0.44819,-0.33819 1.91924,-5.51319 3.269,-11.5 z M 805,133.98592 c 0,-0.44006 -2.17724,-6.80441 -4.83831,-14.14301 C 795.8816,108.03944 792.02652,97.226881 783.28219,72.5 781.92069,68.65 779.73085,62.575 778.41588,59 774.14039,47.376295 763.30614,16.641407 761.49556,11 760.5247,7.975 759.6186,5.3650666 759.48199,5.2001481 759.12301,4.7667454 690.68967,4.9769965 690.25383,5.4128412 690.05295,5.6137165 687.48495,12.690504 684.54716,21.139035 681.60936,29.587566 676.42391,44.375 673.02392,54 c -3.39999,9.625 -8.36722,23.8 -11.03829,31.5 -2.67108,7.7 -7.58556,21.86467 -10.92107,31.47704 C 647.72905,126.5894 645,134.5769 645,134.72704 645,134.87717 655.94014,135 669.31143,135 h 24.31142 l 1.79963,-7.75 c 0.98979,-4.2625 2.76215,-10.675 3.93857,-14.25 L 701.5,106.5 h 21.93625 21.93626 l 3.73704,11.5 c 2.05537,6.325 4.00313,12.72951 4.32834,14.23225 l 0.59131,2.73226 24.2354,0.26774 c 24.62029,0.272 26.7354,0.1734 26.7354,-1.24633 z M 708,75.691403 c 0,-0.719728 1.40771,-5.107228 3.12824,-9.75 C 712.84878,61.298632 715.51512,53.45 717.05344,48.5 721.73876,33.423691 723.18806,29.788062 724.13519,30.735195 725.17544,31.775435 739,73.488707 739,75.587216 739,76.743496 736.18584,77 723.5,77 711.3965,77 708,76.713248 708,75.691403 Z M 987.84735,135.1155 c 1.08057,-0.6848 0.88257,-1.5414 -1,-4.32619 C 980.4681,121.35279 969.92429,106.01551 960.52486,92.5 943.77315,68.412578 943,67.23193 943,65.738308 c 0,-0.782516 4.35538,-7.456255 9.67861,-14.830532 C 958.00185,43.533499 964.30426,34.8 966.68396,31.5 c 2.37971,-3.3 6.04695,-8.537536 8.14942,-11.638968 2.10248,-3.101433 5.30432,-7.509685 7.1152,-9.796115 1.81089,-2.2864298 3.10867,-4.3409996 2.88396,-4.5657102 C 984.52231,5.1889737 937.38829,4.7080953 931.36473,4.9537088 930.74033,4.979169 928.2952,8.2625 925.93111,12.25 923.56702,16.2375 918.87212,24 915.49801,29.5 908.40249,41.066094 906.30004,44.528707 901.98808,51.75 900.26391,54.6375 898.43624,57 897.92661,57 897.38159,57 897,46.307412 897,31.035232 V 5.0704649 L 873.25,4.7852325 C 860.1875,4.6283546 849.1625,4.6390576 848.75,4.809017 848.3375,4.9789763 848,34.341476 848,70.059017 V 135 h 24.5 24.5 v -28 c 0,-15.4 0.37933,-28 0.84296,-28 0.46363,0 3.69349,4.8375 7.17748,10.75 3.48399,5.9125 8.72966,14.68269 11.65704,19.48931 2.92739,4.80663 5.32252,9.00537 5.32252,9.33054 0,0.32517 1.49662,2.91748 3.32583,5.76068 1.8292,2.84321 4.08477,6.39963 5.01236,7.90316 l 1.68654,2.73369 26.73764,0.28335 c 14.70569,0.15584 26.96263,0.38129 27.23763,0.501 0.275,0.1197 1.10631,-0.1666 1.84735,-0.63623 z M 1055.7701,70.232487 1056.0402,4.9649731 1031.2701,5.2324866 1006.5,5.5 1006.2671,69 c -0.1282,34.925 0.017,64.29543 0.3229,65.26761 0.5146,1.63597 2.3566,1.74769 24.733,1.5 L 1055.5,135.5 Z M 1138,113.5 V 91 h 9.5321 c 5.8733,0 10.8085,0.533283 12.8572,1.389312 4.6361,1.93707 7.6739,8.601468 8.8921,19.507358 0.5285,4.73183 1.4689,11.97833 2.0898,16.10333 l 1.1288,7.5 25.25,0.26717 c 13.8875,0.14695 25.25,-0.10735 25.25,-0.5651 0,-2.36772 -9.2492,-41.804416 -10.6594,-45.449489 -2.0421,-5.278516 -7.1001,-12.226412 -10.0906,-13.860823 -2.9984,-1.638748 -2.8469,-2.357896 1,-4.747225 8.354,-5.188727 15.1071,-15.550433 16.7622,-25.719264 2.3555,-14.47301 -5.0549,-27.065733 -20.1484,-34.238865 C 1187.1331,5.1362366 1185.707,5 1135.1057,5 H 1089 v 64.833333 c 0,35.658337 0.3,65.133337 0.6667,65.499997 0.3666,0.36667 11.3916,0.66667 24.5,0.66667 H 1138 Z m -2,-65.446138 V 32.803771 l 13.25,0.35113 c 18.476,0.489621 21.75,2.663531 21.75,14.441812 0,11.560726 -4.0007,14.219533 -22.75,15.119342 L 1136,63.303952 Z M 1293.7572,70.25 1294.0145,5 H 1269.5072 1245 v 65.517779 65.517781 l 24.25,-0.26778 L 1293.5,135.5 Z M 1370,86 c 0.4845,-47.968198 0.5511,-49.3298 2.1507,-44 3.1967,10.650974 19.2363,69.44373 23.1893,85 l 2.16,8.5 h 36.5 36.5 L 1470.7572,70.25 1471.0145,5 H 1450.0072 1429 l -0.03,47.25 c -0.022,33.745625 -0.3331,46.729594 -1.0893,45.429169 -1.1914,-2.048621 -8.6892,-28.211233 -11.3715,-39.679169 -0.9648,-4.125 -3.898,-15.15 -6.5182,-24.5 -2.6203,-9.35 -5.297,-19.5875 -5.9482,-22.75 L 1402.8582,5 H 1365.4291 1328 v 64.833333 c 0,35.658337 0.309,65.142387 0.6868,65.520107 0.3777,0.37773 9.7152,0.56523 20.75,0.41667 L 1369.5,135.5 Z M 54,106.91667 c 0,-22.02008 0.269878,-27.994246 1.25,-27.670693 0.6875,0.226953 4.4,5.804103 8.25,12.393666 C 73.545262,108.83286 75.766433,112.59806 80.820294,121 c 2.481234,4.125 5.224218,8.94785 6.09552,10.71743 l 1.584186,3.21744 29.30728,0.0326 29.30729,0.0326 -9.77106,-14.25 C 131.96942,112.9125 126.20615,104.63833 124.53622,102.36296 122.8663,100.08758 118.575,93.892791 115,88.596757 c -3.575,-5.296035 -8.4125,-12.314772 -10.75,-15.597193 -2.3375,-3.282422 -4.2459,-6.537633 -4.24088,-7.233802 0.005,-0.696169 2.95112,-5.315762 6.54689,-10.265762 6.49032,-8.93467 17.95183,-24.960403 26.29155,-36.761405 2.39116,-3.383575 5.6446,-7.725489 7.22987,-9.6486982 1.58527,-1.9232092 2.48542,-3.7427034 2.00032,-4.0433204 -0.48509,-0.300617 -12.96993,-0.4203352 -27.74408,-0.2660404 l -26.862097,0.280536 -2.77301,4.719464 c -1.525155,2.595705 -6.243759,10.381601 -10.485786,17.30199 -4.242028,6.920389 -8.585159,14.120389 -9.651405,16 C 60.318839,50.561399 55.888953,57 54.985875,57 54.413494,57 53.926784,46.592243 53.766603,30.927211 L 53.5,4.8544221 30,4.9143558 C 17.075,4.9473194 6.1625,4.9800744 5.75,4.9871448 5.3375,4.9942152 5,34.25 5,70 v 65 H 29.5 54 Z"
     style="fill:#fefcfb" /><path
     id="path12"
     d="M 345.68871,136.92467 C 323.31017,134.97641 303.57369,123.99879 294.3942,108.39415 285.65808,93.543244 282.78066,68.789632 287.53053,49.348179 293.5346,24.773251 312.04897,8.0765969 337.69155,4.1119104 346.74423,2.7122458 368.44615,2.6844514 377,4.0615669 401.5079,8.007182 419.72022,22.727529 426.44963,44.02988 c 5.55364,17.580387 5.57159,35.459564 0.0526,52.366577 -9.62933,29.498633 -38.89866,44.177293 -80.81351,40.528213 z m 20.59341,-31.29579 c 7.20121,-3.0684 11.12329,-10.746391 12.81445,-25.085985 2.02665,-17.184198 -1.21492,-34.899368 -7.71178,-42.144883 -3.15769,-3.521572 -8.21782,-5.540869 -13.88479,-5.540869 -8.51887,0 -13.65526,3.644965 -17.36801,12.32496 -4.22195,9.870448 -5.17308,29.534409 -2.10812,43.584171 1.46382,6.710132 6.47349,14.232856 10.97613,16.482176 4.21189,2.10407 12.79355,2.29298 17.28212,0.38043 z m -171.62694,29.5478 C 193.17976,134.88847 193,132.6433 193,114.5037 V 94.154047 L 186.69715,82.827023 C 183.23058,76.59716 179.46363,69.7 178.32615,67.5 177.18867,65.3 172.76282,56.975 168.49092,49 164.21902,41.025 158.93714,31.125 156.75341,27 154.56967,22.875 151.01115,16.2375 148.84559,12.25 L 144.90819,5 168.2041,4.8723768 c 12.81274,-0.070193 24.27161,-0.231987 25.46415,-0.3595428 1.19253,-0.1275558 2.67089,0.078734 3.28524,0.4584206 C 198.07017,5.661403 204.20725,21.095574 210.48431,39 c 1.83181,5.225 4.10071,11.3 5.04198,13.5 0.94128,2.2 2.13957,5.125 2.66288,6.5 0.87255,2.292632 1.03543,2.349961 1.96377,0.691153 0.55677,-0.994866 2.51752,-5.944866 4.35723,-11 9.05121,-24.870813 15.67755,-42.2667455 16.3634,-42.9583472 0.41845,-0.4219568 11.75558,-0.7859551 25.19362,-0.8088851 19.08056,-0.032558 24.36397,0.2324953 24.11856,1.2099588 C 290.0129,6.8222869 284.33143,17.536285 277.56025,29.942765 270.78906,42.349244 261.75395,59.025 257.48223,67 c -4.27173,7.975 -9.49092,17.65 -11.5982,21.5 l -3.83141,7 -0.0263,19.71414 -0.0263,19.71414 -22.84482,0.28586 c -12.56466,0.15722 -23.58966,0.14036 -24.5,-0.0375 z M 596.60953,135 570.71905,134.5 569.352,130 c -0.75188,-2.475 -3.41877,-12.825 -5.92643,-23 -2.50765,-10.175 -6.51157,-25.7 -8.8976,-34.5 -2.38603,-8.8 -4.64508,-17.910142 -5.02012,-20.24476 -0.90123,-5.610271 -2.18463,-6.188054 -3.41053,-1.535414 C 541.09894,69.690133 526,131.77347 526,133.35536 526,134.84141 523.36568,135 498.6802,135 h -27.3198 l -4.20373,-16.9534 C 464.84461,108.72223 462.03655,96.684733 460.91652,91.296602 459.79649,85.908471 456.91514,73.625 454.51353,64 452.11191,54.375 449.62482,43.8 448.98665,40.5 448.34849,37.2 446.29042,28.335392 444.41318,20.80087 442.53593,13.266349 441,6.6288491 441,6.0508704 441,5.3471079 448.52993,5 463.79689,5 h 22.79688 l 1.14196,6.25 c 0.62807,3.4375 2.50494,13.9 4.17082,23.25 5.22749,29.340112 10.71354,55.559928 11.67191,55.784275 0.50685,0.118649 1.0776,-0.909275 1.26835,-2.284275 0.19074,-1.375 2.08919,-9.25 4.21876,-17.5 2.12958,-8.25 4.76387,-18.6 5.85397,-23 1.0901,-4.4 3.63786,-14.525 5.66169,-22.5 2.02383,-7.975 3.89705,-15.7375 4.16273,-17.25 0.29114,-1.6574965 1.13318,-2.7662274 2.11954,-2.790847 1.43588,-0.03584 36.19763,-0.01537 43.30552,0.0255 2.31876,0.013333 2.79497,0.5730611 3.62886,4.2653469 C 574.3258,11.5875 576.34668,19.8 578.28873,27.5 c 1.94206,7.7 6.11292,24.8 9.26859,38 3.15567,13.2 6.07934,24.385609 6.49704,24.856908 0.4177,0.4713 1.26803,-1.7787 1.88961,-5 C 596.56556,82.135609 598.16882,74.325 599.50678,68 c 2.4056,-11.372141 5.1559,-25.721512 9.58334,-50 1.25372,-6.875 2.42523,-12.6913983 2.60335,-12.9253295 0.30819,-0.4047551 42.57971,-0.1348258 42.98904,0.2745111 C 654.96585,5.63252 649.01573,30.604396 633.91683,92.5 c -2.68335,11 -5.98317,24.89829 -7.33292,30.88509 -1.34976,5.98681 -2.82081,11.16181 -3.269,11.5 -0.4482,0.3382 -12.46562,0.38991 -26.70538,0.11491 z m 181.65507,0.23225 -24.2354,-0.26774 -0.59131,-2.73226 C 753.11268,130.72951 751.16492,124.325 749.10955,118 l -3.73704,-11.5 H 723.43625 701.5 l -2.13895,6.5 c -1.17642,3.575 -2.94878,9.9875 -3.93857,14.25 L 693.62285,135 H 669.31143 C 655.94014,135 645,134.87717 645,134.72704 c 0,-0.15014 2.72905,-8.13764 6.06456,-17.75 3.33551,-9.61237 8.24999,-23.77704 10.92107,-31.47704 2.67107,-7.7 7.6383,-21.875 11.03829,-31.5 3.39999,-9.625 8.58544,-24.412434 11.52324,-32.860965 2.93779,-8.448531 5.50579,-15.5253185 5.70667,-15.7261938 0.43584,-0.4358447 68.86918,-0.6460958 69.22816,-0.2126931 C 759.6186,5.3650666 760.5247,7.975 761.49556,11 c 1.81058,5.641407 12.64483,36.376295 16.92032,48 1.31497,3.575 3.50481,9.65 4.86631,13.5 8.74433,24.726881 12.59941,35.53944 16.8795,47.34291 2.66107,7.3386 4.83831,13.70295 4.83831,14.14301 0,1.41973 -2.11511,1.51833 -26.7354,1.24633 z M 739,75.587216 c 0,-2.098509 -13.82456,-43.811781 -14.86481,-44.852021 -0.94713,-0.947133 -2.39643,2.688496 -7.08175,17.764805 -1.53832,4.95 -4.20466,12.798632 -5.9252,17.441403 C 709.40771,70.584175 708,74.971675 708,75.691403 708,76.713248 711.3965,77 723.5,77 736.18584,77 739,76.743496 739,75.587216 Z m 219.76237,59.663514 -26.73764,-0.28335 -1.68654,-2.73369 c -0.92759,-1.50353 -3.18316,-5.05995 -5.01236,-7.90316 C 923.49662,121.48733 922,118.89502 922,118.56985 c 0,-0.32517 -2.39513,-4.52391 -5.32252,-9.33054 C 913.7501,104.43269 908.50443,95.6625 905.02044,89.75 901.53645,83.8375 898.30659,79 897.84296,79 897.37933,79 897,91.6 897,107 v 28 H 872.5 848 V 70.059017 c 0,-35.717541 0.3375,-65.0800407 0.75,-65.25 0.4125,-0.1699594 11.4375,-0.1806624 24.5,-0.023784 L 897,5.0704649 V 31.035232 C 897,46.307412 897.38159,57 897.92661,57 c 0.50963,0 2.3373,-2.3625 4.06147,-5.25 4.31196,-7.221293 6.41441,-10.683906 13.50993,-22.25 3.37411,-5.5 8.06901,-13.2625 10.4331,-17.25 2.36409,-3.9875 4.80922,-7.270831 5.43362,-7.2962912 6.02356,-0.2456135 53.15758,0.2352649 53.46781,0.545498 0.22471,0.2247106 -1.07307,2.2792804 -2.88396,4.5657102 -1.81088,2.28643 -5.01272,6.694682 -7.1152,9.796115 C 972.73091,22.962464 969.06367,28.2 966.68396,31.5 964.30426,34.8 958.00185,43.533499 952.67861,50.907776 947.35538,58.282053 943,64.955792 943,65.738308 c 0,1.493622 0.77315,2.67427 17.52486,26.761692 9.39943,13.51551 19.94324,28.85279 26.32249,38.28931 1.88257,2.78479 2.08057,3.64139 1,4.32619 -0.74104,0.46963 -1.57235,0.75593 -1.84735,0.63623 -0.275,-0.11971 -12.53194,-0.34516 -27.23763,-0.501 z M 1006.59,134.26761 C 1006.2843,133.29543 1006.1389,103.925 1006.2671,69 L 1006.5,5.5 1031.2701,5.2324866 1056.0402,4.9649731 1055.7701,70.232487 1055.5,135.5 l -24.177,0.26761 c -22.3764,0.24769 -24.2184,0.13597 -24.733,-1.5 z m 83.0767,1.06572 C 1089.3,134.96667 1089,105.49167 1089,69.833333 V 5 h 46.1057 c 50.6013,0 52.0274,0.1362366 64.7581,6.186404 15.0935,7.173132 22.5039,19.765855 20.1484,34.238865 -1.6551,10.168831 -8.4082,20.530537 -16.7622,25.719264 -3.8469,2.389329 -3.9984,3.108477 -1,4.747225 2.9905,1.634411 8.0485,8.582307 10.0906,13.860823 1.4102,3.645073 10.6594,43.081769 10.6594,45.449489 0,0.45775 -11.3625,0.71205 -25.25,0.5651 L 1172.5,135.5 1171.3712,128 c -0.6209,-4.125 -1.5613,-11.3715 -2.0898,-16.10333 -1.2182,-10.90589 -4.256,-17.570288 -8.8921,-19.507358 C 1158.3406,91.533283 1153.4054,91 1147.5321,91 H 1138 v 22.5 22.5 h -23.8333 c -13.1084,0 -24.1334,-0.3 -24.5,-0.66667 z m 74.5594,-74.772683 c 4.7234,-1.987068 6.7739,-5.911305 6.7739,-12.963934 0,-11.778281 -3.274,-13.952191 -21.75,-14.441812 L 1136,32.803771 v 15.250091 15.25009 l 12.25,-0.587897 c 7.629,-0.366126 13.6556,-1.179205 15.9761,-2.155408 z M 1245,70.517779 V 5 h 24.5072 24.5073 l -0.2573,65.25 -0.2572,65.25 -24.25,0.26778 -24.25,0.26778 z m 83.6868,64.835661 C 1328.309,134.97572 1328,105.49167 1328,69.833333 V 5 h 37.4291 37.4291 l 1.1842,5.75 c 0.6512,3.1625 3.3279,13.4 5.9482,22.75 2.6202,9.35 5.5534,20.375 6.5182,24.5 2.6823,11.467936 10.1801,37.630548 11.3715,39.679169 0.7562,1.300425 1.0676,-11.683544 1.0893,-45.429169 L 1429,5 h 21.0072 21.0073 l -0.2573,65.25 -0.2572,65.25 h -36.5 -36.5 l -2.16,-8.5 c -3.953,-15.55627 -19.9926,-74.349026 -23.1893,-85 -1.5996,-5.3298 -1.6662,-3.968198 -2.1507,44 l -0.5,49.5 -20.0632,0.27011 c -11.0348,0.14856 -20.3723,-0.0389 -20.75,-0.41667 z M 5,70 C 5,34.25 5.3375,4.9942152 5.75,4.9871448 6.1625,4.9800744 17.075,4.9473194 30,4.9143558 L 53.5,4.8544221 53.766603,30.927211 C 53.926784,46.592243 54.413494,57 54.985875,57 c 0.903078,0 5.332964,-6.438601 9.575497,-13.917474 1.066246,-1.879611 5.409377,-9.079611 9.651405,-16 4.242027,-6.920389 8.960631,-14.706285 10.485786,-17.30199 l 2.77301,-4.719464 26.862097,-0.280536 c 14.77415,-0.1542948 27.25899,-0.034577 27.74408,0.2660404 0.4851,0.300617 -0.41505,2.1201112 -2.00032,4.0433204 -1.58527,1.9232092 -4.83871,6.2651232 -7.22987,9.6486982 C 124.50784,30.539597 113.04633,46.56533 106.55601,55.5 c -3.59577,4.95 -6.54187,9.569593 -6.54689,10.265762 -0.005,0.696169 1.90338,3.95138 4.24088,7.233802 2.3375,3.282421 7.175,10.301158 10.75,15.597193 3.575,5.296034 7.8663,11.490823 9.53622,13.766203 1.66993,2.27537 7.4332,10.54954 12.80729,18.38704 L 147.11457,135 117.80728,134.96743 88.5,134.93487 86.915814,131.71743 C 86.044512,129.94785 83.301528,125.125 80.820294,121 75.766433,112.59806 73.545262,108.83286 63.5,91.639643 59.65,85.05008 55.9375,79.47293 55.25,79.245977 54.269878,78.922424 54,84.89659 54,106.91667 V 135 H 29.5 5 Z"
     style="fill:#f26f1f" /></g>
</svg>