<?xml version="1.0" encoding="UTF-8"?>
<svg version="1.1" width="206" height="240" xmlns="http://www.w3.org/2000/svg">
	<path d="m142.14 116.37s34.657 33.763 35.531 34.544c0.87222 0.78148 2.1481 2.9981 1.4444 4.6926-0.70555 1.6944-5.3407 11.961-5.8778 12.841-0.53703 0.87962-2.1481 2.6074-4.9352-0.29445-2.787-2.9-60.816-65.111-61.252-65.535-0.43704-0.42407-0.37037-0.94444 0.43518-0.94444 0.80741 0 89.978-0.97963 91.339-0.97963 1.363 0 2.0574-0.0741 2.5611 0.23333 0.50556 0.30556 2.0833 1.6222 1.4518 3.063-0.63148 1.4389-5.113 11.424-5.8704 12.618-0.75741 1.1944-2.0815 2.3259-3.7556 2.2963-1.6722-0.0315-51.072-2.5352-51.072-2.5352m0-33.278s34.657-33.763 35.531-34.544c0.87222-0.78148 2.1481-2.9981 1.4444-4.6926-0.70555-1.6944-5.3407-11.961-5.8778-12.841-0.53703-0.87963-2.1481-2.6074-4.9352 0.29444-2.787 2.9-60.816 65.111-61.252 65.535-0.43704 0.42407-0.37037 0.94444 0.43518 0.94444 0.80741 0 89.978 0.97963 91.339 0.97963 1.363 0 2.0574 0.07407 2.5611-0.23333 0.50556-0.30556 2.0833-1.6222 1.4518-3.063-0.63148-1.4389-5.113-11.424-5.8704-12.618-0.75741-1.1944-2.0815-2.3259-3.7556-2.2963-1.6722 0.03148-51.072 2.5352-51.072 2.5352m-78.296 33.278s-34.657 33.763-35.531 34.544c-0.87222 0.78148-2.1481 2.9981-1.4444 4.6926 0.70555 1.6944 5.3407 11.961 5.8778 12.841 0.53704 0.87962 2.1481 2.6074 4.9352-0.29445 2.787-2.9 60.816-65.111 61.252-65.535 0.43704-0.42407 0.37037-0.94444-0.43518-0.94444-0.8074 0-89.977-0.97963-91.339-0.97963-1.363 0-2.0574-0.0741-2.5611 0.23333-0.50555 0.30556-2.0833 1.6222-1.4518 3.063 0.63148 1.4389 5.1129 11.424 5.8704 12.618 0.75741 1.1944 2.0815 2.3259 3.7555 2.2963 1.6722-0.0315 51.072-2.5352 51.072-2.5352m0-33.278s-34.657-33.763-35.531-34.544c-0.87222-0.78148-2.1481-2.9981-1.4444-4.6926 0.70555-1.6944 5.3407-11.961 5.8778-12.841s2.1481-2.6074 4.9352 0.29444c2.787 2.9 60.816 65.111 61.252 65.535 0.43704 0.42407 0.37037 0.94444-0.43518 0.94444-0.8074 0-89.977 0.97963-91.339 0.97963-1.363 0-2.0574 0.07407-2.5611-0.23333-0.50555-0.30556-2.0833-1.6222-1.4518-3.063 0.63148-1.4389 5.1129-11.424 5.8704-12.618 0.75741-1.1944 2.0815-2.3259 3.7555-2.2963 1.6722 0.03148 51.072 2.5352 51.072 2.5352m38.074 110.59v-88.803c0-0.69074-0.4074-1.8463-1.3907-0.79259-0.98333 1.0537-53.591 57.829-55.039 59.587-1.45 1.7574-0.92222 3.2056 0.47037 4.1148 1.3926 0.90925 8.2944 4.6315 9.8 5.3204 1.5056 0.69074 2.7555 0.91111 4.0907-0.55s29.176-34.792 29.176-34.792-1.95 45.094-2.05 48.107c-0.1 3.013 1.1018 4.4722 2.137 5.0555 1.0685 0.80926 9.1815 5.0222 10.45 5.5407 1.1352 0.35555 2.3704-0.41852 2.3555-2.787m2.1667 0v-88.803c0-0.69074 0.40741-1.8463 1.3907-0.79259s53.591 57.829 55.039 59.587c1.45 1.7574 0.92222 3.2056-0.47036 4.1148-1.3926 0.90925-8.2944 4.6315-9.8 5.3204-1.5056 0.69074-2.7556 0.91111-4.0907-0.55s-29.176-34.792-29.176-34.792 1.95 45.094 2.05 48.107c0.1 3.013-1.1018 4.4722-2.137 5.0555-1.0685 0.80926-9.1815 5.0222-10.45 5.5407-1.1352 0.35555-2.3704-0.41852-2.3556-2.787m0-187.81v88.803c0 0.69074 0.40741 1.8463 1.3907 0.79259 0.98333-1.0537 53.591-57.829 55.039-59.587 1.45-1.7574 0.92222-3.2055-0.47036-4.1148-1.3926-0.90926-8.2944-4.6315-9.8-5.3204-1.5056-0.69074-2.7556-0.91111-4.0907 0.55-1.3352 1.4611-29.176 34.792-29.176 34.792s1.95-45.094 2.05-48.107c0.1-3.013-1.1018-4.4722-2.137-5.0555-1.0685-0.80926-9.1815-5.0222-10.45-5.5407-1.1352-0.35555-2.3704 0.41852-2.3556 2.787m-2.1667 0v88.803c0 0.69074-0.4074 1.8463-1.3907 0.79259-0.98333-1.0537-53.591-57.829-55.039-59.587-1.45-1.7574-0.92222-3.2055 0.47037-4.1148 1.3926-0.90926 8.2944-4.6315 9.8-5.3204 1.5056-0.69074 2.7555-0.91111 4.0907 0.55 1.3352 1.4611 29.176 34.792 29.176 34.792s-1.95-45.094-2.05-48.107c-0.1-3.013 1.1018-4.4722 2.137-5.0555 1.0685-0.80926 9.1815-5.0222 10.45-5.5407 1.1352-0.35555 2.3704 0.41852 2.3555 2.787" fill="#eb0c75"/>
	<path d="m196.27 235.92v-2.2185h1.5648v1.1667c0.33148 0.0741 0.88703 0.19074 1.5796 0.19074 0.97778 0 1.8963-0.23333 1.8963-1.1092 0-2.0296-4.9204-0.93519-4.9204-4.2056 0-1.8685 1.6241-2.5852 3.4296-2.5852 1.0389 0 2.1667 0.23333 2.9204 0.48148v2.1759h-1.5963v-1.1963c-0.3-0.0444-0.79629-0.11666-1.2778-0.11666-0.88889 0-1.7907 0.24814-1.7907 1.0648 0 1.8981 4.9204 0.87592 4.9204 4.263 0 1.9426-1.6407 2.5704-3.4759 2.5704-1.2037 0-2.3778-0.26296-3.25-0.48148m-11.707-1.037h1.2333v-6.2055h-1.2333v-1.3426h7.5537v2.613h-1.6111v-1.2704h-2.963v2.4093h3.4444v1.3426h-3.4444v2.4537h3.0092v-1.3278h1.6241v2.6704h-7.6129zm-12.293-3.0556c0-2.95 2.0315-4.6722 4.8889-4.6722 1.4759 0 2.8444 0.45185 3.4167 0.71481v2.5556h-1.6704v-1.6352c-0.43703-0.11666-1.0833-0.21852-1.6556-0.21852-1.8796 0-3.1741 1.1241-3.1741 3.1685 0 2.1018 1.3833 3.1963 3.2796 3.1963 1.2481 0 2.3926-0.46667 3.2055-0.93333v1.6204c-0.63333 0.32037-1.8204 0.77408-3.3555 0.77408-3.0092 0-4.9352-1.7093-4.9352-4.5704m-13.911 3.0556h1.2333v-6.2055h-1.2333v-1.3426h3.0241l4.3926 6.1463v-4.8037h-1.2333v-1.3426h4.1222v1.3426h-1.2333v7.5481h-1.55l-4.6333-6.4241v5.0815h1.2333v1.3426h-4.1222zm-11.574 0h1.2333v-6.2055h-1.2333v-1.3426h7.5537v2.613h-1.6111v-1.2704h-2.963v2.4093h3.4444v1.3426h-3.4444v2.4537h3.0092v-1.3278h1.6241v2.6704h-7.6129zm-8.2407 0h1.2333v-6.2055h-1.2333v-1.3426h4.213v1.3426h-1.2333v6.2055h1.2333v1.3426h-4.213zm-12.293-3.0556c0-2.95 2.0315-4.6722 4.8889-4.6722 1.4759 0 2.8444 0.45185 3.4167 0.71481v2.5556h-1.6704v-1.6352c-0.43703-0.11666-1.0833-0.21852-1.6556-0.21852-1.8796 0-3.1741 1.1241-3.1741 3.1685 0 2.1018 1.3833 3.1963 3.2796 3.1963 1.2481 0 2.3926-0.46667 3.2055-0.93333v1.6204c-0.63333 0.32037-1.8204 0.77408-3.3555 0.77408-3.0092 0-4.9352-1.7093-4.9352-4.5704m-10.648 4.0926v-2.2185h1.5648v1.1667c0.33148 0.0741 0.88703 0.19074 1.5796 0.19074 0.97778 0 1.8963-0.23333 1.8963-1.1092 0-2.0296-4.9204-0.93519-4.9204-4.2056 0-1.8685 1.6241-2.5852 3.4296-2.5852 1.0389 0 2.1667 0.23333 2.9204 0.48148v2.1759h-1.5963v-1.1963c-0.3-0.0444-0.79629-0.11666-1.2778-0.11666-0.88889 0-1.7907 0.24814-1.7907 1.0648 0 1.8981 4.9204 0.87592 4.9204 4.263 0 1.9426-1.6407 2.5704-3.4759 2.5704-1.2037 0-2.3778-0.26296-3.25-0.48148m-14.244-0.74071h1.3537v-6.8185h-1.3537v-1.037h4.0315v1.037h-1.3537v2.8463h4.9055v-2.8463h-1.3537v-1.037h4.0166v1.037h-1.3389v6.8185h1.3389v1.037h-4.0166v-1.037h1.3537v-2.8907h-4.9055v2.8907h1.3537v1.037h-4.0315zm-9.8148 0h1.4444v-6.8185h-2.2259v1.4741h-1.2037v-2.5111h8.1833v2.5111h-1.2185v-1.4741h-2.2111v6.8185h1.4444v1.037h-4.2129zm-11.907 0h1.3537v-6.8185h-1.3537v-1.037h4.213v1.037h-1.5352v6.8185h3.5518v-1.5907h1.2333v2.6278h-7.4629zm-13.685 0h1.1741l2.8426-6.8185h-1.3093v-1.037h3.2204l3.2796 7.8555h1.1889v1.037h-3.9259v-1.037h1.3685l-0.70741-1.7074h-3.9574l-0.69074 1.7074h1.3537v1.037h-3.837zm6.7259-2.7444-1.5648-3.8704-1.5648 3.8704zm-17.707 2.7444h1.3537v-6.8185h-1.3537v-1.037h7.4166v2.4963h-1.2185v-1.4593h-3.5204v2.8611h3.7926v1.037h-3.7926v2.9204h3.5518v-1.5037h1.2333v2.5407h-7.4629zm-14.222 0h1.3537v-6.8185h-1.3537v-1.037h4.0315v1.037h-1.3537v2.8463h4.9055v-2.8463h-1.3537v-1.037h4.0167v1.037h-1.3389v6.8185h1.3389v1.037h-4.0167v-1.037h1.3537v-2.8907h-4.9055v2.8907h1.3537v1.037h-4.0315zm-13.685-0.2963h1.0833l2.587-6.2055h-1.2481v-1.3426h3.7463l3.1444 7.5481h1.0981v1.3426h-4.1074v-1.3426h1.2037l-0.48148-1.2111h-3.7611l-0.48148 1.2111h1.2037v1.3426h-3.987zm6.5-2.5556-1.3537-3.3574-1.3389 3.3574zm-18.537 2.5556h1.2333v-6.2055h-1.2333v-1.3426h4.4241c2.7074 0 3.7296 1.4444 3.7296 2.8018 0 1.037-0.6 1.987-1.85 2.3815l1.3852 2.3648h1.1278v1.3426h-2.3167l-1.8815-3.2556h-1.6389v1.913h1.2333v1.3426h-4.213zm4.4537-3.2259c1.4593 0 1.9407-0.71666 1.9407-1.4907s-0.4963-1.4889-1.9407-1.4889h-1.4741v2.9796zm-16.102 3.2259h1.2333v-6.2055h-1.2333v-1.3426h4.2722c2.7093 0 3.7463 1.4592 3.7463 2.8907 0 1.4315-1.037 2.8907-3.7463 2.8907h-1.2926v1.7667h1.5333v1.3426h-4.5129zm2.9796-3.1092h1.3537c1.4593 0 1.9259-0.77407 1.9259-1.5481s-0.46667-1.5482-1.9259-1.5482h-1.3537z" fill="#eb0c75"/>
</svg>
