<svg xmlns="http://www.w3.org/2000/svg" viewBox="0 0 1062.25 103.21"><defs><style type="text/css">.cls-1{fill:#00a1e4;}.cls-2{fill:#494c4f;}</style></defs><title>Asset 1</title><g id="Layer_2" data-name="Layer 2"><g id="Layer_1-2" data-name="Layer 1"><polygon class="cls-1" points="703.17 46.57 654.43 46.57 654.43 4.36 641.22 4.36 641.22 101.17 654.43 101.17 654.43 59.23 703.17 59.23 703.17 101.17 716.38 101.17 716.38 4.36 703.17 4.36 703.17 46.57"/><path class="cls-1" d="M767.58,21.24c-24.1,0-39.21,16.2-39.21,40.85v1.63c0,24.11,13.07,39.49,38.8,39.49,19.2,0,32.41-9.12,36.9-25.19H789.78c-3,9.12-10.76,14-22.06,14-16.07,0-25.33-9.4-26.28-25.33h63.72V60.46C805.16,39.49,793.18,21.24,767.58,21.24Zm-26,35C743.21,41.12,752.74,32,767.72,32S790.86,41.53,792,56.24Z"/><path class="cls-1" d="M853.91,21.24c-22,0-35.26,12-36.49,28.87h13.21c.82-10.9,8.71-18.52,23.83-18.52,14,0,20.15,5.85,20.15,14,0,7.21-7.63,8.57-21.24,10.48-15.66,2.31-22.06,3.81-28.32,7.9A21.23,21.23,0,0,0,815,82.52c0,12.52,8.72,20.69,25.46,20.69,17.3,0,29.28-9.39,34.72-21.38l1.5,19.34h10.62l.14-53.51C887.41,32.13,877.06,21.24,853.91,21.24Zm20.84,43.17c0,13.07-12.4,28.32-30.23,28.32-10.21,0-15.39-4.63-15.39-11.85,0-4.49,1.77-7.76,5.72-10.35,4.22-2.86,9.53-4.08,21.38-6,8.44-1.36,15-2.86,18.52-5.85Z"/><polygon class="cls-1" points="904.02 50.26 904.02 101.17 917.23 101.17 917.23 49.82 917.23 0 904.02 0 904.02 50.26"/><path class="cls-1" d="M955.36,4.49H945.28c-.13,2.86-.54,10.08-1.22,12.4-1,4.89-2,6-6.4,6.53-2,.55-7.22.55-9.67.55V35.13h15V71.08c0,23.15,5.72,30.09,26.55,30.09h8.85V88.78h-5.86c-13.89,0-17.15-2.86-17.15-19.61v-34h23V23.42h-23Z"/><path class="cls-1" d="M1032.43,21.24c-13.75,0-23.42,7.08-28.19,17.84V0H991.58V101.17h12.66V60.32c0-16.07,8.58-27.51,23.42-27.51,15.25,0,21.38,9.95,21.38,24.11v44.25h13.21V53.65C1062.25,33.9,1052.31,21.24,1032.43,21.24Z"/><path class="cls-2" d="M71,50.25c9-3.51,13.91-10,13.91-21.33v-.14c0-17-12.42-25.38-41.18-25.38H0v96.81H46.85C74,100.21,87.5,90.89,87.5,72,87.5,60,81.69,53.49,71,50.25ZM26.87,24.33h17c10,0,13.91,2.29,13.91,8.23v.14c0,6.08-4.46,8.51-13.64,8.51H26.87ZM59.14,69c0,6.08-3.64,9-16.61,9H26.87v-18H42.8c12.29,0,16.34,2.43,16.34,8.78Z"/><path class="cls-2" d="M124.36,3.4,87,100.21h28.09l5.8-16.88h36.32l6.08,16.88h28.08L153.53,3.4Zm3.78,59,10.67-30.92L149.75,62.4Z"/><path class="cls-2" d="M248,54.44c0,16.47-4.32,22-14.85,22-10.26,0-15.26-5.94-15.26-22V3.4H189.55V55.25c0,32.81,14,47.26,43.61,47.26,27.55,0,43.34-14.32,43.34-47.26V3.4H248Z"/><path class="cls-2" d="M337,40.4c-15.26-2.16-22.69-3.52-22.69-9.86,0-4.73,3.65-8.24,13-8.24,10.39,0,15.52,3.24,16.47,11.34v.14H371.7v-.14C369.54,11.77,354.82,1.1,327.82,1.1c-26.74,0-41.05,12.56-41.05,30.79,0,20.66,15.39,26.19,34.43,29,16.07,2.16,24.44,3.51,24.44,10.67,0,5.53-4.46,8.77-14.18,8.77-11.34,0-17.28-4.45-18.09-13.23v-.4h-29.3v.13c1.62,23.22,13.5,35.65,46.31,35.65,28.49,0,42.8-13,42.8-32.41C373.18,49.17,357,43.23,337,40.4Z"/><path class="cls-2" d="M446.51,60.24c-1.08,11.08-6.35,17.42-18.23,17.42-12.83,0-19.45-7.42-19.45-22.82V49.31c0-16.07,6.76-23.63,19.58-23.63,11.62,0,17,5.94,18,16.47v.94h29.44v-2C473.92,14.2,456,1.37,428.41,1.37c-28.89,0-47.8,16.07-47.8,46.86v7.69c0,31.6,17.56,46.59,47,46.59s46.72-13.64,48.61-41.86V59h-29.7Z"/><polygon class="cls-2" points="574.52 39.31 574.52 3.4 547.38 3.4 547.38 39.31 547.37 39.31 514.02 39.31 514.02 3.4 486.61 3.4 486.61 100.21 514.02 100.21 514.02 64.7 547.37 64.7 547.38 64.7 547.38 64.7 547.38 100.21 574.52 100.21 574.52 64.7 574.52 64.7 574.52 64.7 607.87 64.7 607.87 39.31 574.52 39.31"/><rect class="cls-1" x="547.38" y="39.31" width="27.14" height="25.38"/></g></g></svg>
