<?xml version="1.0" encoding="UTF-8" standalone="no"?>
<!-- Created with Inkscape (http://www.inkscape.org/) -->

<svg
   xmlns:dc="http://purl.org/dc/elements/1.1/"
   xmlns:cc="http://creativecommons.org/ns#"
   xmlns:rdf="http://www.w3.org/1999/02/22-rdf-syntax-ns#"
   xmlns:svg="http://www.w3.org/2000/svg"
   xmlns="http://www.w3.org/2000/svg"
   xmlns:sodipodi="http://sodipodi.sourceforge.net/DTD/sodipodi-0.dtd"
   xmlns:inkscape="http://www.inkscape.org/namespaces/inkscape"
   width="160"
   height="160.00006"
   viewBox="0 0 42.333332 42.333351"
   version="1.1"
   id="svg615"
   inkscape:version="0.92.1 r15371"
   sodipodi:docname="Ono Pharmaceutical company logo.svg">
  <defs
     id="defs609" />
  <sodipodi:namedview
     id="base"
     pagecolor="#ffffff"
     bordercolor="#666666"
     borderopacity="1.0"
     inkscape:pageopacity="0.0"
     inkscape:pageshadow="2"
     inkscape:zoom="1"
     inkscape:cx="85.70717"
     inkscape:cy="-38.804687"
     inkscape:document-units="mm"
     inkscape:current-layer="layer1"
     showgrid="false"
     units="px"
     fit-margin-top="5"
     fit-margin-bottom="5"
     fit-margin-right="5"
     fit-margin-left="5"
     inkscape:window-width="1280"
     inkscape:window-height="972"
     inkscape:window-x="-8"
     inkscape:window-y="-8"
     inkscape:window-maximized="1" />
  <metadata
     id="metadata612">
    <rdf:RDF>
      <cc:Work
         rdf:about="">
        <dc:format>image/svg+xml</dc:format>
        <dc:type
           rdf:resource="http://purl.org/dc/dcmitype/StillImage" />
        <dc:title></dc:title>
      </cc:Work>
    </rdf:RDF>
  </metadata>
  <g
     inkscape:label="Layer 1"
     inkscape:groupmode="layer"
     id="layer1"
     transform="translate(-18.768685,-40.106301)">
    <path
       inkscape:connector-curvature="0"
       style="fill:#193a66;fill-opacity:1;fill-rule:nonzero;stroke:none;stroke-width:1.44195318"
       d="m 20.091602,81.116734 h 39.6875 V 41.429218 h -39.6875 z m 0,0"
       id="path576" />
    <path
       inkscape:connector-curvature="0"
       style="fill:#ffffff;fill-opacity:1;fill-rule:nonzero;stroke:none;stroke-width:1.44195318"
       d="m 33.01284,61.272976 c 0,-2.979669 -2.410755,-5.384805 -5.379147,-5.384805 -2.979664,0 -5.390442,2.405136 -5.390442,5.384805 v 12.915618 c 0,2.974029 2.410778,5.384801 5.390442,5.384801 2.968392,0 5.379147,-2.410772 5.379147,-5.384801 z m 0,0"
       id="path578" />
    <path
       inkscape:connector-curvature="0"
       style="fill:#ffffff;fill-opacity:1;fill-rule:nonzero;stroke:none;stroke-width:1.44195318"
       d="m 57.627448,61.272976 c 0,-2.979669 -2.416396,-5.384805 -5.3848,-5.384805 -2.979654,0 -5.38479,2.405136 -5.38479,5.384805 v 12.915618 c 0,2.974029 2.405136,5.384801 5.38479,5.384801 2.968404,0 5.3848,-2.410772 5.3848,-5.384801 z m 0,0"
       id="path580" />
    <path
       inkscape:connector-curvature="0"
       style="fill:#ffffff;fill-opacity:1;fill-rule:nonzero;stroke:none;stroke-width:1.44195318"
       d="M 45.320144,78.807358 V 61.272976 c 0,-2.979669 -2.410755,-5.384805 -5.384789,-5.384805 -2.974027,0 -5.3848,2.405136 -5.3848,5.384805 v 17.534382 h 4.613127 V 61.278613 c 0,-0.43935 0.34359,-0.777315 0.777298,-0.777315 0.416811,0 0.760416,0.337949 0.760416,0.777315 v 17.528745 z m 0,0"
       id="path582" />
    <path
       inkscape:connector-curvature="0"
       style="fill:#193a66;fill-opacity:1;fill-rule:nonzero;stroke:none;stroke-width:1.44195318"
       d="m 26.86202,74.188594 c 0,0.43371 0.337948,0.777299 0.766036,0.777299 0.422448,0 0.771674,-0.343589 0.771674,-0.777299 V 61.272976 c 0,-0.433713 -0.34923,-0.771678 -0.771674,-0.771678 -0.428088,0 -0.766036,0.337949 -0.766036,0.771678 z m 0,0"
       id="path584" />
    <path
       inkscape:connector-curvature="0"
       style="fill:#193a66;fill-opacity:1;fill-rule:nonzero;stroke:none;stroke-width:1.44195318"
       d="m 51.470986,74.188594 c 0,0.43371 0.34359,0.777299 0.771662,0.777299 0.422448,0 0.766036,-0.343589 0.766036,-0.777299 V 61.272976 c 0,-0.433713 -0.343588,-0.771678 -0.766036,-0.771678 -0.428076,0 -0.771662,0.337949 -0.771662,0.771678 z m 0,0"
       id="path586" />
  </g>
</svg>
