<svg width="1181pt" height="268" viewBox="0 0 1181 201" xmlns="http://www.w3.org/2000/svg">
  <path d="M0 0h25.76c0 65.58.01 131.16-.01 196.75-8.58.02-17.17 0-25.75.01zm101.5 0h5.99c7.19 1.19 13.5 6.53 15.7 13.5 1.47 5.04 1.17 10.72-1.36 15.38-3.06 5.83-9.2 9.95-15.8 10.35-7.13.67-14.55-2.85-18.29-9-4.28-6.55-4.03-15.63.46-22C91.3 3.83 96.22.9 101.5 0m81.74 0h25.8c-.01 65.59 0 131.17-.01 196.76-8.59-.01-17.19.02-25.78-.02-.02-65.58 0-131.16-.01-196.74m-78.7 96.34c15.99-18.11 32.11-36.12 48.14-54.2.18 51.53.03 103.06.07 154.59-32.17.07-64.33 0-96.5.04-.03-51.52.01-103.04-.02-154.55 16.21 17.94 31.94 36.32 48.31 54.12M527.19 63.8c8.81 1.09 17.74 1.16 26.54-.04-1.99 44.25-2.09 88.6.03 132.85-8.39-.53-16.85-.61-25.23.01q.84-7.125 1.44-14.28c-3.04 6.75-8.08 13.34-15.54 15.34-10.45 2.77-22.77 1.43-30.94-6.17-6.81-6.35-10.14-15.54-11.59-24.55-2.37-14.23-1.24-29.84 6.89-42.16 5.57-8.91 15.5-15.55 26.24-15.33 9.45-.27 18.83 4.82 23.56 13.05-.09-19.58-.65-39.16-1.4-58.72m-16.91 58.47c-4.09 1.1-6.96 4.54-8.64 8.26-3.5 7.65-4.4 16.21-4.41 24.54-.07 7.94.36 16.1 3.28 23.58 1.63 3.95 4.29 8.02 8.64 9.26 4.31 1.46 9.08-.48 11.93-3.83 5.43-5.98 6.43-14.43 7.12-22.14.54-10.05.78-20.55-2.83-30.11-2.27-5.88-8.35-11.64-15.09-9.56M248.9 75.63c4.8 1.12 9.75 1.05 14.56.02 12.74 28.29 26.49 56.1 40.38 83.83 14.57-27.45 28.19-55.42 40.78-83.84 5.05 1.09 10.24 1.07 15.29 0 2.67 24.01 5.55 47.99 8.3 71.98 2 16.37 3.99 32.74 6.76 49-9.7-.64-19.47-.5-29.17-.06-1.12-27.11-4.33-54.08-6.97-81.07-13.02 26.97-26.08 53.92-38.82 81.01-2.33-.24-4.66-.25-6.97.07-12.93-26.28-25.03-52.97-38.38-79.03-3.85 26.16-5.08 52.6-6.98 78.95-5.63-.35-11.29-.37-16.92.01 7.62-40.03 13.29-80.41 18.14-120.87m327.03-.01c9.68 1.24 19.47 1.14 29.15.02-1.63 23.41-1.51 46.88-1.58 70.33.34 16.88.24 33.79 1.56 50.64-9.68-.62-19.43-.51-29.11-.04 1.65-25.16 1.28-50.37 1.29-75.56.12-15.14-.49-30.27-1.31-45.39M393.3 124.38c5.72-8.02 15.02-12.99 24.68-14.34 8.68-1.23 17.9-.69 25.89 3.16 6.81 3.26 11.95 9.41 14.65 16.39 3.07 7.9 3.45 16.53 3.09 24.9-16.86.01-33.71.04-50.56-.01.27 8.58 1.38 17.7 6.62 24.82 3.67 5.22 9.93 8.39 16.29 8.43 8.09.19 16.07-2.83 22.23-8.03l2.23 1.96c-1.44 3.25-2.49 6.68-4.1 9.86-7.59 6.19-17.84 7.53-27.34 7.48-9.41-.3-19.27-2.2-26.86-8.1-8.89-6.81-13.98-17.73-14.96-28.75-1.32-12.94.34-26.97 8.14-37.77m22.58-.36c-3.58 6.81-4.36 14.68-4.72 22.25 8.89-.04 17.77-.03 26.65-.01-.26-7.5-.85-15.23-3.85-22.21-1.47-3.59-4.93-6.51-8.97-6.31-4.09-.24-7.28 2.95-9.11 6.28m235.48 1.02c4.4-6.71 10.82-12.48 18.71-14.57 7.14-1.78 15.38-1.51 21.49 3 4.32 2.99 7.19 7.56 9.26 12.3 5.34-7.98 13.42-14.82 23.24-16.06 8.22-.92 17.39.66 23.46 6.7 5.46 5.36 7.08 13.32 7.62 20.68.48 11.63-.42 23.26-.63 34.89.29 8.18.43 16.37 1.06 24.54-8.86-.38-17.77-.52-26.63.05 1.95-17.15 1.82-34.44 1.82-51.67-.19-5.32-.91-11.06-4.35-15.33-4.1-5.1-12.53-5.84-17.38-1.42-3.5 3.28-5 8.11-5.42 12.77-.92 11 .04 22.02-.11 33.03.15 7.54.52 15.08 1.31 22.59-8.86-.47-17.77-.45-26.63-.01 1.24-13.79 1.43-27.65 1.31-41.49-.08-8.2.74-16.9-2.87-24.54-3.83-7.23-15.3-6.7-19.85-.48-3.71 5.19-4.76 11.76-5.01 18-.04 16.2-.23 32.43 1.27 48.58-8.84-.64-17.74-.44-26.59-.1 1.09-10.46 1.38-20.98 1.31-31.49-.07-17.76.46-35.56-1.29-53.27 8.51 1.2 17.13 1.13 25.64-.02-.18 4.44-.52 8.88-.74 13.32m162.37-14.31c7.67-2.23 16.79-1.85 23.22 3.37 3.96 2.93 6.49 7.3 8.39 11.76 5.22-7.89 13.12-14.59 22.7-16.07 8.29-1.06 17.61.36 23.81 6.4 5.56 5.3 7.32 13.29 7.84 20.67.14 7.37.18 14.75-.23 22.12-.59 12.53-.07 25.08.58 37.6-8.84-.57-17.74-.46-26.59-.05 2.13-17.11 1.75-34.38 1.81-51.59-.07-5.01-.74-10.31-3.61-14.56-3.99-6.06-13.89-7.01-18.73-1.5-3.84 3.97-4.8 9.8-4.9 15.11.08 17.51-.45 35.06 1.33 52.51-8.89-.39-17.8-.4-26.68 0 1.79-16.13 1.2-32.37 1.32-48.56.05-6.48-.16-13.5-3.87-19.09-4.97-5.74-15.41-4.41-19.33 1.93-4.19 6.53-4.57 14.63-4.56 22.16-.03 14.55.03 29.12 1.39 43.61-8.83-.41-17.74-.62-26.55.1 1.84-22.11 1.53-44.34 1.1-66.5-.26-6.16-.54-12.31-1.14-18.44 8.53 1.24 17.19 1.17 25.73 0-.36 4.37-.62 8.76-.78 13.14 4.39-6.25 10.25-11.91 17.75-14.12m223.36 14.48c4.94-8.13 13.28-14.67 22.98-15.55 8.44-.84 17.96.82 23.89 7.39 5.98 6.48 6.98 15.77 7.25 24.19 0 13.23-1.21 26.44-.57 39.67.19 5.2.49 10.41.69 15.61-8.83-.39-17.73-.52-26.55.06 2.02-15.45 1.53-31.06 1.99-46.6-.16-6.86.05-14.57-4.46-20.24-4.84-6.23-15.69-5.95-20.12.62-3.49 5.14-4.47 11.55-4.68 17.63.02 16.18-.37 32.41 1.31 48.53-8.87-.43-17.77-.43-26.64.01 1.79-17.11 1.23-34.33 1.32-51.5.08-11.1-.31-22.21-1.3-33.28 8.5 1.2 17.1 1.08 25.62.01-.2 4.48-.5 8.97-.73 13.45m81.37-6.73c7.79-6.74 18.41-9.33 28.53-8.99 8.32.17 17.03 2.48 23.23 8.3 6.6 5.99 9.87 14.84 10.78 23.54v13.17c-16.78.01-33.57-.01-50.35.01.41 7.73 1.23 15.76 5.2 22.58 2.94 5.33 8.29 9.3 14.33 10.28 9.19 1.5 18.59-1.82 25.71-7.61.55.42 1.67 1.26 2.22 1.68-1.45 3.39-2.35 7.08-4.32 10.23-4.18 3.47-9.51 5.33-14.78 6.37-8.96 1.5-18.28 1.24-27.06-1.15-8.7-2.36-16.4-8.13-21-15.89-6.27-10.08-7.21-22.47-6.1-34.03 1.03-10.65 5.31-21.44 13.61-28.49m18 4.08c-4.49 7.01-5.05 15.62-5.74 23.7 8.95-.03 17.9 0 26.85-.02-.43-7.41-.88-15.04-3.83-21.95-1.35-3.22-4.16-6.18-7.79-6.47-3.81-.64-7.53 1.56-9.49 4.74m-220.19-10.77c8.81 1.18 17.75 1.21 26.56-.02-1.78 16.37-1.69 32.84-1.8 49.28 0 6.14.29 12.83 4.04 17.99 3.53 4.83 10.54 5.91 15.84 3.62 3.83-1.76 6.12-5.67 7.35-9.55 2.69-7.74 1.87-16.04 1.99-24.08.12-12.41-.24-24.84-1.34-37.21 8.81 1.23 17.76 1.14 26.57-.03-1.84 21.71-1.47 43.51-1.18 65.27.21 6.52.54 13.04 1.21 19.54-8.49-.5-17.02-.57-25.49.05.31-4.28.36-8.59.87-12.85-4.89 7.19-12.11 13.36-20.96 14.64-10.23 1.74-22.57-.56-28.61-9.8-5.51-9.14-4.95-20.32-4.7-30.6.88-15.41.72-30.85-.35-46.25" fill="#003865"/>
  <g/>
</svg>
