<?xml version="1.0" encoding="UTF-8" standalone="no"?>
<!-- Created with Inkscape (http://www.inkscape.org/) -->

<svg
   width="251.35446mm"
   height="61.217232mm"
   viewBox="0 0 251.35447 61.217232"
   version="1.1"
   id="svg1"
   xml:space="preserve"
   inkscape:version="1.3 (0e150ed6c4, 2023-07-21)"
   sodipodi:docname="Warner-Lambert 1988.svg"
   xmlns:inkscape="http://www.inkscape.org/namespaces/inkscape"
   xmlns:sodipodi="http://sodipodi.sourceforge.net/DTD/sodipodi-0.dtd"
   xmlns="http://www.w3.org/2000/svg"
   xmlns:svg="http://www.w3.org/2000/svg"><sodipodi:namedview
     id="namedview1"
     pagecolor="#ffffff"
     bordercolor="#000000"
     borderopacity="0.25"
     inkscape:showpageshadow="2"
     inkscape:pageopacity="0.0"
     inkscape:pagecheckerboard="0"
     inkscape:deskcolor="#d1d1d1"
     inkscape:document-units="mm"
     inkscape:zoom="1.9730807"
     inkscape:cx="512.39667"
     inkscape:cy="66.647045"
     inkscape:window-width="1920"
     inkscape:window-height="1009"
     inkscape:window-x="-8"
     inkscape:window-y="-8"
     inkscape:window-maximized="1"
     inkscape:current-layer="layer1" /><defs
     id="defs1" /><g
     inkscape:label="Layer 1"
     inkscape:groupmode="layer"
     id="layer1"
     transform="translate(-16.299364,-89.338289)"><path
       id="rect2"
       style="fill:#191a65;fill-opacity:1;stroke-width:0.0999999;stroke-linejoin:round;paint-order:stroke fill markers"
       d="m 22.115418,89.338617 -5.816054,29.405243 h 12.516764 l 10.960658,-17.80715 -3.566987,17.80715 H 48.865255 L 67.544808,89.338617 H 57.558134 L 45.65404,109.65155 49.361614,89.338617 H 38.751533 L 26.209414,109.14395 30.828109,89.338617 Z m 51.86936,0 -23.362972,29.405243 h 11.039746 l 3.019617,-4.2466 h 12.306578 l -0.163529,4.2466 h 16.593939 l 9.826373,-21.970111 h 8.38955 c 2.28026,0 2.88608,1.100284 2.63129,2.508649 -0.56383,3.116702 -3.81474,2.730982 -5.22142,2.730982 h -6.53362 c -2.18197,4.87851 -3.201899,7.72602 -1.53416,11.34715 0.7531,1.63519 1.64897,2.78194 2.85776,3.58316 2.60745,1.72829 5.42302,1.80017 11.56649,1.80017 l 3.27897,-7.2943 -5.13197,-0.0125 c -3.86709,-0.01 -4.47158,-0.20056 -4.83994,-2.26841 0,0 5.1816,-0.007 8.02006,-1.11599 3.50218,-1.36835 7.58032,-5.26994 7.43831,-11.279238 -0.14895,-6.302161 -5.59183,-7.435133 -8.88462,-7.435133 H 96.772029 l -11.394116,25.475621 0.39227,-25.475343 z m 56.248942,0 -13.15182,29.405243 h 9.35469 l 9.88521,-22.101663 2.03031,22.101663 h 31.04955 l 3.24486,-7.25498 h -16.82771 l 1.80086,-4.02642 h 15.87258 l 3.15854,-7.06193 h -15.87258 l 1.70271,-3.806934 h 16.82771 l 3.24485,-7.254979 h -26.50053 l -9.77778,21.861443 -2.02264,-21.861443 z m 54.43449,0 -13.15182,29.405243 h 9.79794 l 9.82637,-21.970111 h 8.38955 c 2.28027,0 2.88607,1.100284 2.63129,2.508649 -0.56387,3.116702 -3.81476,2.730982 -5.22144,2.730982 h -6.53361 c -2.18196,4.87851 -3.20187,7.72602 -1.53415,11.34715 0.7531,1.63519 1.64896,2.78194 2.85775,3.58316 2.60745,1.72829 5.42302,1.80017 11.5665,1.80017 l 3.27895,-7.2943 -5.13195,-0.0125 c -3.86709,-0.01 -4.47159,-0.20056 -4.83996,-2.26841 0,0 5.18161,-0.007 8.02008,-1.11599 3.50218,-1.36835 7.58032,-5.26994 7.4383,-11.279238 -0.14894,-6.302161 -5.59182,-7.435133 -8.88462,-7.435133 z M 77.692152,96.201112 77.258059,107.47677 H 69.674221 Z M 49.862936,121.15028 36.711123,150.55552 h 9.933769 9.1588 l 6.13983,-7.60244 h -11.89836 l 9.751543,-21.8028 z m 30.982351,0 -23.36297,29.40524 h 11.194168 l 3.019616,-4.24661 h 12.035624 l -0.158518,4.24661 h 17.678463 l 11.05071,-22.28111 -3.49118,22.28111 h 7.92771 l 0.003,-0.0208 2.45501,-0.008 14.08579,-22.2289 -6.60339,22.25751 h 33.5539 c 7.40375,0 10.69445,-6.71876 10.49713,-9.84156 -0.10639,-1.6819 -0.82037,-3.19297 -2.02889,-4.39242 5.60161,-2.04619 7.87094,-6.41931 6.4749,-10.39776 -1.37337,-3.91395 -4.73645,-4.77351 -8.96336,-4.77351 h -16.97428 l -12.77033,28.55234 6.95378,-28.55234 h -14.7744 l -10.14388,16.24791 2.17899,-16.24791 h -13.3861 l -14.864992,26.49983 0.199187,-26.49983 z m 100.923383,0 -13.15181,29.40524 h 26.35612 l 3.24486,-7.25499 h -16.49455 l 1.80054,-4.0257 h 15.54801 l 3.15851,-7.06193 h -15.54801 l 1.70303,-3.80765 h 16.49455 l 3.24488,-7.25497 z m 28.4301,0 -13.15182,29.40524 h 9.79794 l 9.82636,-21.97012 h 8.38955 c 2.28026,0 2.88608,1.10028 2.6313,2.50865 -0.56385,3.11671 -3.81475,2.73098 -5.22142,2.73098 h -6.53363 c -2.18195,4.87851 -3.2019,7.72603 -1.53413,11.34716 0.75305,1.63518 1.64896,2.78194 2.85774,3.58317 2.60743,1.72829 5.42301,1.80016 11.56649,1.80016 l 3.27897,-7.29431 -5.13196,-0.0125 c -3.86695,-0.01 -4.47158,-0.20057 -4.83997,-2.26842 0,0 5.18161,-0.007 8.02008,-1.11599 3.5022,-1.36836 7.58031,-5.26993 7.43831,-11.27924 -0.001,-0.0614 -0.006,-0.11953 -0.008,-0.18015 h 7.70895 l -9.90696,22.15027 h 9.81796 l 9.90695,-22.15027 h 9.29749 l 3.24485,-7.25499 h -28.41328 l -2.11774,4.7349 c -1.40925,-3.94073 -5.66197,-4.7349 -8.41441,-4.7349 z m -54.17995,6.7917 h 7.02393 c 2.14108,0 2.73185,1.11607 2.47118,2.18619 -0.33595,1.3791 -1.41162,2.19196 -3.4984,2.19196 h -7.95489 z m -71.620212,0.50474 -0.404436,10.8417 h -7.30502 z m 66.781032,10.3148 h 7.15631 c 1.2621,0 3.1147,1.1e-4 2.93464,2.15334 -0.0928,1.10927 -1.27774,2.71024 -3.95247,2.71024 h -8.31376 z"
       sodipodi:nodetypes="ccccccccccccccccccccccssscssccscssscccccccccccccccccccccccccccssscssccscssscccccccccccccccccccccccccccsscsscccccccccccccccccccccccccccssscssccscsccccccccccsccssscccccccssscc" /></g></svg>
