<?xml version="1.0" encoding="UTF-8"?>
<svg id="Laag_1" xmlns="http://www.w3.org/2000/svg" viewBox="0 0 1473.2 1473.2">
  <defs>
    <style>
      .cls-1 {
        fill: #28a1d9;
      }
    </style>
  </defs>
  <path class="cls-1" d="M736.6,0C329.79,0,0,329.79,0,736.6s329.79,736.6,736.6,736.6,736.6-329.79,736.6-736.6S1143.41,0,736.6,0ZM725.94,1218.46c-261.9,0-474.97-213.07-474.97-474.97.08-22.41,9.03-43.88,24.91-59.7,15.88-15.82,37.37-24.7,59.78-24.7s43.91,8.88,59.79,24.7c15.87,15.82,24.83,37.29,24.91,59.7,0,168.48,137.11,305.59,305.59,305.59s305.59-137.11,305.59-305.59c.07-22.41,9.03-43.88,24.9-59.7,15.88-15.82,37.38-24.7,59.79-24.7s43.91,8.88,59.78,24.7c15.88,15.82,24.83,37.29,24.91,59.7,0,261.9-213.07,474.97-474.97,474.97Z"/>
</svg>