<?xml version="1.0" encoding="UTF-8" standalone="no"?>
<svg
   xmlns:dc="http://purl.org/dc/elements/1.1/"
   xmlns:cc="http://creativecommons.org/ns#"
   xmlns:rdf="http://www.w3.org/1999/02/22-rdf-syntax-ns#"
   xmlns:svg="http://www.w3.org/2000/svg"
   xmlns="http://www.w3.org/2000/svg"
   xmlns:sodipodi="http://sodipodi.sourceforge.net/DTD/sodipodi-0.dtd"
   xmlns:inkscape="http://www.inkscape.org/namespaces/inkscape"
   sodipodi:docname="Sun_Pharma_svg_logo.svg"
   inkscape:version="1.0 (4035a4fb49, 2020-05-01)"
   id="svg8"
   version="1.1"
   viewBox="0 0 40 54"
   height="54mm"
   width="40mm">
  <defs
     id="defs2">
    <clipPath
       clipPathUnits="userSpaceOnUse"
       id="clipPath2820">
      <path
         d="M 0,0 H 595.276 V 779.528 H 0 Z"
         id="path2818" />
    </clipPath>
  </defs>
  <sodipodi:namedview
     inkscape:window-maximized="1"
     inkscape:window-y="-8"
     inkscape:window-x="-8"
     inkscape:window-height="1002"
     inkscape:window-width="1920"
     showgrid="false"
     inkscape:document-rotation="0"
     inkscape:current-layer="g2816"
     inkscape:document-units="mm"
     inkscape:cy="119.11786"
     inkscape:cx="190.77164"
     inkscape:zoom="3.0603482"
     inkscape:pageshadow="2"
     inkscape:pageopacity="0.0"
     borderopacity="1.0"
     bordercolor="#666666"
     pagecolor="#ffffff"
     id="base" />
  <metadata
     id="metadata5">
    <rdf:RDF>
      <cc:Work
         rdf:about="">
        <dc:format>image/svg+xml</dc:format>
        <dc:type
           rdf:resource="http://purl.org/dc/dcmitype/StillImage" />
        <dc:title></dc:title>
      </cc:Work>
    </rdf:RDF>
  </metadata>
  <g
     style="display:inline;mix-blend-mode:normal"
     id="layer1"
     inkscape:groupmode="layer"
     inkscape:label="Layer 1">
    <g
       style="display:inline;opacity:1"
       transform="matrix(0.35277777,0,0,-0.35277777,-164.50627,270.41453)"
       id="g2814">
      <g
         style="display:inline"
         id="g2816"
         clip-path="url(#clipPath2820)">
        <g
           id="g2826"
           transform="matrix(2.1589263,0,0,2.1589263,549.50139,750.40124)">
          <path
             d="m 0,0 c 4.508,-3.141 6.592,-8.199 5.815,-13.557 -0.642,-4.163 -3.53,-7.817 -7.235,-10.058 -2.922,-4.669 -8.334,-6.974 -13.909,-5.98 -3.911,0.72 -7.506,3.368 -9.551,6.916 -4.634,3.054 -6.841,8.177 -6.12,13.691 0.737,4.221 3.3,8.348 7.456,10.174 3.043,4.572 8.361,6.849 13.843,5.859 C -5.762,6.262 -2.1,3.735 0,0"
             style="fill:#000000;fill-opacity:1;fill-rule:nonzero;stroke:none"
             id="path2828" />
        </g>
        <g
           id="g2830"
           transform="matrix(2.1589263,0,0,2.1589263,547.28549,752.0729)">
          <path
             d="m 0,0 c -5.168,2.633 -11.151,1.815 -14.212,-0.461 -4.127,-2.78 -6.076,-7.113 -6.276,-11.907 0.13,-2.467 1.231,-4.659 3.091,-6.416 -4.139,2.175 -6.927,6.641 -7.013,11.229 -0.074,4.957 2.343,9.336 6.711,11.923 2.561,1.419 5.563,2.177 8.702,1.545 C -5.361,5.325 -2.057,3.21 0,0"
             style="fill:#f58220;fill-opacity:1;fill-rule:nonzero;stroke:none"
             id="path2832" />
        </g>
        <g
           id="g2834"
           transform="matrix(2.1589263,0,0,2.1589263,547.28549,752.0729)">
          <path
             d="m 0,0 c -5.168,2.633 -11.151,1.815 -14.212,-0.461 -4.127,-2.78 -6.076,-7.113 -6.276,-11.907 0.13,-2.467 1.231,-4.659 3.091,-6.416 -4.139,2.175 -6.927,6.641 -7.013,11.229 -0.074,4.957 2.343,9.336 6.711,11.923 2.561,1.419 5.563,2.177 8.702,1.545 C -5.361,5.325 -2.057,3.21 0,0 Z"
             style="fill:none;stroke:#000000;stroke-width:0.25;stroke-linecap:butt;stroke-linejoin:bevel;stroke-miterlimit:2.613;stroke-dasharray:none;stroke-opacity:1"
             id="path2836" />
        </g>
        <g
           id="g2838"
           transform="matrix(2.1589263,0,0,2.1589263,558.51427,738.3959)">
          <path
             d="m 0,0 c 2.063,-3.918 1.708,-9.599 -0.897,-13.171 -0.948,-1.382 -2.269,-2.814 -3.784,-3.592 1.341,2.877 1.88,6.736 0.874,9.879 -1.082,4.468 -5.433,8.528 -9.858,9.635 -3.65,1.081 -7.776,0.085 -10.205,-2.877 1.127,2.946 3.981,5.678 6.969,6.897 C -12.287,8.427 -6.555,7.49 -3.049,4.075 -1.758,2.892 -0.66,1.5 0,0"
             style="fill:#fdd1b0;fill-opacity:1;fill-rule:nonzero;stroke:none"
             id="path2840" />
        </g>
        <g
           style="display:inline"
           id="g2842"
           transform="matrix(2.1589263,0,0,2.1589263,558.51427,738.3959)">
          <path
             d="m 0,0 c 2.063,-3.918 1.708,-9.599 -0.897,-13.171 -0.948,-1.382 -2.269,-2.814 -3.784,-3.592 1.341,2.877 1.88,6.736 0.874,9.879 -1.082,4.468 -5.433,8.528 -9.858,9.635 -3.65,1.081 -7.776,0.085 -10.205,-2.877 1.127,2.946 3.981,5.678 6.969,6.897 C -12.287,8.427 -6.555,7.49 -3.049,4.075 -1.758,2.892 -0.66,1.5 0,0 Z"
             style="fill:none;stroke:#000000;stroke-width:0.25;stroke-linecap:butt;stroke-linejoin:bevel;stroke-miterlimit:2.613;stroke-dasharray:none;stroke-opacity:1"
             id="path2844" />
        </g>
        <g
           style="display:inline"
           id="g2846"
           transform="matrix(2.1589263,0,0,2.1589263,497.26618,751.08347)">
          <path
             d="m 0,0 c -2.284,-4.137 -2.192,-10.325 0.555,-14.175 2.933,-3.856 7.051,-6.615 12.058,-6.142 2.367,0.349 4.518,1.567 6.136,3.511 -1.81,-4.738 -6.884,-8.009 -11.933,-7.926 -4.866,-0.016 -9.243,2.444 -11.665,6.713 -2.351,3.651 -2.184,9.277 -0.1,13.021 C -3.855,-2.974 -2.114,-1.065 0,0"
             style="fill:#fdd1b0;fill-opacity:1;fill-rule:nonzero;stroke:none"
             id="path2848" />
        </g>
        <g
           style="display:inline"
           id="g2850"
           transform="matrix(2.1589263,0,0,2.1589263,497.26618,751.08347)">
          <path
             d="m 0,0 c -2.284,-4.137 -2.192,-10.325 0.555,-14.175 2.933,-3.856 7.051,-6.615 12.058,-6.142 2.367,0.349 4.518,1.567 6.136,3.511 -1.81,-4.738 -6.884,-8.009 -11.933,-7.926 -4.866,-0.016 -9.243,2.444 -11.665,6.713 -2.351,3.651 -2.184,9.277 -0.1,13.021 C -3.855,-2.974 -2.114,-1.065 0,0 Z"
             style="fill:none;stroke:#000000;stroke-width:0.25;stroke-linecap:butt;stroke-linejoin:bevel;stroke-miterlimit:2.613;stroke-dasharray:none;stroke-opacity:1"
             id="path2852" />
        </g>
        <g
           style="display:inline"
           id="g2854"
           transform="matrix(2.1589263,0,0,2.1589263,539.169,732.48971)">
          <path
             d="m 0,0 c 1.29,-2.968 0.353,-6.69 -1.925,-8.919 -1.7,-1.634 -3.771,-2.331 -6.038,-2.468 -2.936,0.225 -5.645,1.642 -7.165,4.249 -1.582,2.609 -1.53,6.731 0.414,9.125 0.56,0.935 1.51,1.517 2.339,2.166 2.38,1.579 5.981,1.762 8.472,0.321 C -2.17,3.522 -0.711,1.809 0,0"
             style="fill:#ffffff;fill-opacity:1;fill-rule:nonzero;stroke:none"
             id="path2856" />
        </g>
        <g
           style="display:inline"
           id="g2858"
           transform="matrix(2.1589263,0,0,2.1589263,539.169,732.48971)">
          <path
             d="m 0,0 c 1.29,-2.968 0.353,-6.69 -1.925,-8.919 -1.7,-1.634 -3.771,-2.331 -6.038,-2.468 -2.936,0.225 -5.645,1.642 -7.165,4.249 -1.582,2.609 -1.53,6.731 0.414,9.125 0.56,0.935 1.51,1.517 2.339,2.166 2.38,1.579 5.981,1.762 8.472,0.321 C -2.17,3.522 -0.711,1.809 0,0 Z"
             style="fill:none;stroke:#000000;stroke-width:0.25;stroke-linecap:butt;stroke-linejoin:bevel;stroke-miterlimit:2.613;stroke-dasharray:none;stroke-opacity:1"
             id="path2860" />
        </g>
        <g
           style="display:inline"
           id="g2862"
           transform="matrix(2.1589263,0,0,2.1589263,549.52602,722.56341)">
          <path
             d="m 0,0 c 0.109,-0.293 0.125,-0.34 0.166,-0.56 1.136,-5.609 -1.445,-11.12 -6.135,-14.066 -3.712,-2.425 -9.606,-2.559 -13.395,-0.151 -1.765,0.923 -3.353,2.486 -4.47,4.217 0.967,-0.282 1.781,-0.688 2.756,-0.957 5.866,-1.526 11.715,0.856 15.018,5.788 2.118,2.911 3.056,7.556 1.47,10.935 -0.574,1.312 -1.679,2.489 -2.79,3.513 l 0.033,0.06 C -3.772,7.301 -0.895,3.631 0,0"
             style="fill:#f58220;fill-opacity:1;fill-rule:nonzero;stroke:none"
             id="path2864" />
        </g>
        <g
           style="display:inline"
           id="g2866"
           transform="matrix(2.1589263,0,0,2.1589263,549.52602,722.56341)">
          <path
             d="m 0,0 c 0.109,-0.293 0.125,-0.34 0.166,-0.56 1.136,-5.609 -1.445,-11.12 -6.135,-14.066 -3.712,-2.425 -9.606,-2.559 -13.395,-0.151 -1.765,0.923 -3.353,2.486 -4.47,4.217 0.967,-0.282 1.781,-0.688 2.756,-0.957 5.866,-1.526 11.715,0.856 15.018,5.788 2.118,2.911 3.056,7.556 1.47,10.935 -0.574,1.312 -1.679,2.489 -2.79,3.513 l 0.033,0.06 C -3.772,7.301 -0.895,3.631 0,0 Z"
             style="fill:none;stroke:#000000;stroke-width:0.25;stroke-linecap:butt;stroke-linejoin:bevel;stroke-miterlimit:2.613;stroke-dasharray:none;stroke-opacity:1"
             id="path2868" />
        </g>
        <g
           transform="matrix(2.1589263,0,0,2.1589263,-628.01587,-814.30306)"
           style="display:inline;fill:#000000;fill-opacity:1"
           id="g90">
          <g
             transform="translate(543.464,678.928)"
             id="g2822"
             style="display:inline;mix-blend-mode:normal;fill:#000000;fill-opacity:1">
            <path
               id="path2824"
               style="fill:#000000;fill-opacity:1;fill-rule:nonzero;stroke:none"
               d="m 0,0 c 0,-1.472 0.156,-2.592 0.469,-3.359 0.313,-0.768 0.812,-1.257 1.49,-1.463 0.183,-0.057 0.433,-0.098 0.749,-0.124 0.46,-0.041 0.691,-0.168 0.691,-0.383 0,-0.13 -0.049,-0.226 -0.15,-0.28 C 3.152,-5.662 2.952,-5.688 2.65,-5.688 h -5.574 c -0.276,0 -0.462,0.026 -0.556,0.079 -0.095,0.054 -0.144,0.15 -0.144,0.28 0,0.215 0.198,0.339 0.594,0.371 0.137,0.009 0.234,0.015 0.298,0.025 0.657,0.133 1.159,0.616 1.503,1.45 0.344,0.834 0.517,1.98 0.517,3.432 v 10.612 c -0.331,0.618 -0.992,0.952 -1.971,1.002 -0.231,0.01 -0.411,0.022 -0.536,0.038 -0.176,0.007 -0.307,0.042 -0.398,0.105 -0.092,0.06 -0.137,0.149 -0.137,0.267 0,0.139 0.048,0.238 0.149,0.298 0.097,0.057 0.28,0.085 0.541,0.085 h 6.012 c 0.14,0 0.253,-0.012 0.332,-0.038 0.079,-0.025 0.146,-0.066 0.201,-0.124 0.018,-0.015 0.073,-0.161 0.167,-0.431 0.095,-0.273 0.21,-0.504 0.344,-0.695 l 7.977,-12.419 v 8.203 c 0,1.422 -0.155,2.506 -0.462,3.249 -0.31,0.742 -0.8,1.205 -1.476,1.389 -0.173,0.048 -0.426,0.086 -0.76,0.111 -0.466,0.032 -0.7,0.156 -0.7,0.372 0,0.139 0.055,0.238 0.161,0.298 0.107,0.057 0.301,0.085 0.588,0.085 h 5.668 c 0.261,0 0.444,-0.028 0.55,-0.085 0.107,-0.06 0.161,-0.159 0.161,-0.298 C 15.69,11.757 15.493,11.633 15.106,11.601 14.963,11.592 14.86,11.585 14.796,11.576 14.069,11.427 13.533,10.973 13.193,10.212 12.852,9.454 12.681,8.34 12.681,6.878 v -9.035 c 0.247,-0.324 0.575,-0.571 0.986,-0.742 0.411,-0.175 0.618,-0.321 0.618,-0.435 0,-0.083 -0.222,-0.235 -0.666,-0.454 -0.442,-0.218 -0.831,-0.457 -1.163,-0.71 -0.365,-0.273 -0.718,-0.616 -1.065,-1.031 -0.344,-0.413 -0.538,-0.619 -0.587,-0.619 -0.124,0 -0.301,0.178 -0.523,0.533 -0.04,0.06 -0.067,0.102 -0.082,0.124 L 0,10.535 Z" />
          </g>
          <g
             transform="translate(555.1248,663.8519)"
             id="g2870"
             style="display:inline;mix-blend-mode:normal;fill:#000000;fill-opacity:1">
            <path
               id="path2872"
               style="fill:#000000;fill-opacity:1;fill-rule:nonzero;stroke:none"
               d="M 0,0 V 0.909 H 1.441 L 0.01,4.342 0,4.32 V 5.457 H 0.706 L 4.151,-2.324 H 2.788 L 1.809,0 Z M 0,5.457 V 4.32 L -1.441,0.909 H 0 V 0 H -1.828 L -2.814,-2.324 H -4.115 L -0.68,5.457 Z M -18.924,1.008 v 0.898 h 0.012 c 0.775,0 1.322,0.107 1.643,0.318 0.319,0.211 0.48,0.562 0.48,1.056 0,0.462 -0.15,0.787 -0.452,0.978 -0.302,0.189 -0.859,0.285 -1.671,0.285 h -0.012 v 0.914 h 0.22 c 0.58,0 1.009,-0.022 1.283,-0.063 0.274,-0.044 0.521,-0.114 0.737,-0.211 0.39,-0.181 0.685,-0.431 0.889,-0.75 0.204,-0.321 0.304,-0.698 0.304,-1.131 0,-0.42 -0.107,-0.779 -0.319,-1.077 -0.214,-0.297 -0.531,-0.53 -0.953,-0.699 0.357,-0.085 0.615,-0.228 0.767,-0.428 0.152,-0.2 0.246,-0.541 0.285,-1.019 l 0.107,-1.284 c 0.021,-0.274 0.064,-0.479 0.128,-0.614 0.067,-0.136 0.163,-0.233 0.294,-0.289 v -0.216 h -1.451 c -0.117,0.162 -0.199,0.508 -0.244,1.04 v 0.025 l -0.077,1.021 c -0.043,0.521 -0.173,0.858 -0.396,1.013 -0.213,0.15 -0.739,0.228 -1.574,0.233 m 6.326,3.297 v -6.629 h -1.155 v 7.781 h 1.795 l 2.29,-5.953 c 0.067,-0.169 0.116,-0.301 0.146,-0.395 0.032,-0.092 0.056,-0.175 0.073,-0.245 0.034,0.13 0.066,0.247 0.101,0.348 0.034,0.103 0.068,0.2 0.107,0.292 l 2.374,5.953 h 1.799 V -2.324 H -6.285 V 4.305 C -6.315,4.193 -6.347,4.079 -6.385,3.964 -6.422,3.85 -6.463,3.737 -6.505,3.625 l -2.378,-5.949 h -1.187 l -2.321,5.949 c -0.042,0.097 -0.079,0.203 -0.113,0.315 -0.035,0.114 -0.064,0.235 -0.094,0.365 m -6.326,1.152 V 4.543 h -2.135 V 1.906 h 2.135 V 1.008 h -0.089 -2.033 v -3.332 h -1.243 V 5.457 Z M -27.395,0 v 0.909 h 1.441 l -1.431,3.433 -0.01,-0.022 v 1.137 h 0.706 l 3.445,-7.781 h -1.363 L -25.586,0 Z m -16.924,1.895 h 0.069 c 0.732,0 1.245,0.1 1.534,0.296 0.291,0.198 0.437,0.536 0.437,1.015 0,0.462 -0.144,0.794 -0.433,0.994 -0.289,0.2 -0.769,0.301 -1.444,0.301 h -0.163 v 0.956 h 0.107 c 0.553,0 0.973,-0.024 1.262,-0.069 0.287,-0.045 0.546,-0.12 0.771,-0.227 0.377,-0.173 0.667,-0.427 0.866,-0.766 0.201,-0.338 0.302,-0.734 0.302,-1.189 0,-0.432 -0.101,-0.815 -0.302,-1.147 -0.199,-0.33 -0.493,-0.595 -0.879,-0.791 -0.22,-0.114 -0.482,-0.193 -0.782,-0.24 -0.278,-0.046 -0.726,-0.069 -1.345,-0.072 z m 16.924,3.562 V 4.32 l -1.441,-3.411 h 1.441 V 0 h -1.828 l -0.986,-2.324 h -1.3 l 3.434,7.781 z m -12.38,-7.781 v 7.781 h 1.256 V 2.26 h 4.794 v 3.197 h 1.262 v -7.781 h -1.262 V 1.32 h -4.794 v -3.644 z m -6.584,4.219 h 2.04 V 0.956 h -0.133 -1.907 v -3.28 h -1.255 v 7.781 h 3.295 V 4.501 h -2.04 z" />
          </g>
          <g
             transform="translate(523.7449,685.498)"
             id="g2874"
             style="display:inline;mix-blend-mode:normal;fill:#000000;fill-opacity:1">
            <path
               id="path2876"
               style="fill:#000000;fill-opacity:1;fill-rule:nonzero;stroke:none"
               d="m 0,0 c 0,1.941 -0.097,3.185 -0.292,3.731 -0.195,0.545 -0.545,0.923 -1.05,1.139 -0.191,0.082 -0.502,0.139 -0.934,0.174 -0.432,0.032 -0.648,0.162 -0.648,0.384 0,0.13 0.046,0.225 0.137,0.279 0.091,0.054 0.265,0.079 0.517,0.079 H 6.228 C 6.529,5.786 6.73,5.761 6.833,5.707 6.937,5.653 6.989,5.558 6.989,5.428 6.989,5.212 6.724,5.082 6.192,5.031 5.924,5.006 5.705,4.977 5.537,4.946 4.816,4.822 4.32,4.473 4.053,3.902 3.782,3.334 3.648,2.03 3.648,0 v -7.338 c 0,-0.777 0.043,-1.376 0.131,-1.798 0.088,-0.422 0.231,-0.793 0.429,-1.117 0.331,-0.552 0.83,-0.971 1.497,-1.25 0.666,-0.282 1.482,-0.422 2.449,-0.422 1.798,0 3.1,0.451 3.903,1.352 0.807,0.9 1.208,2.369 1.208,4.412 v 6.519 c 0,1.406 -0.158,2.478 -0.474,3.224 -0.317,0.742 -0.807,1.189 -1.464,1.338 -0.198,0.048 -0.45,0.086 -0.76,0.111 -0.484,0.042 -0.728,0.175 -0.737,0.397 0,0.13 0.049,0.225 0.143,0.279 0.095,0.054 0.277,0.079 0.548,0.079 h 5.62 c 0.301,0 0.501,-0.025 0.599,-0.079 0.1,-0.054 0.149,-0.149 0.149,-0.279 C 16.889,5.222 16.7,5.104 16.32,5.082 16.143,5.063 16.013,5.047 15.927,5.031 15.301,4.917 14.82,4.457 14.482,3.654 14.144,2.855 13.977,1.77 13.977,0.409 v -6.953 c 0,-2.193 -0.535,-3.766 -1.603,-4.73 -1.071,-0.962 -2.827,-1.444 -5.267,-1.444 -1.189,0 -2.26,0.137 -3.215,0.409 -0.953,0.273 -1.75,0.67 -2.383,1.19 -0.554,0.454 -0.943,0.974 -1.171,1.561 C 0.113,-8.972 0,-8.077 0,-6.881 Z" />
          </g>
          <g
             transform="translate(520.5145,687.1752)"
             id="g2878"
             style="display:inline;opacity:1;mix-blend-mode:normal;fill:#000000;fill-opacity:1">
            <path
               id="path2880"
               style="fill:#000000;fill-opacity:1;fill-rule:nonzero;stroke:none"
               d="m 0,0 c 0.049,-0.13 0.079,-0.232 0.094,-0.301 0.016,-0.073 0.025,-0.13 0.025,-0.181 0,-0.133 -0.025,-0.235 -0.07,-0.304 C 0,-0.856 -0.07,-0.891 -0.167,-0.891 c -0.189,0 -0.518,0.387 -0.986,1.164 -0.253,0.412 -0.46,0.749 -0.618,1.003 -0.505,0.777 -1.199,1.421 -2.078,1.928 -0.882,0.508 -1.755,0.761 -2.629,0.761 -1.101,0 -1.992,-0.279 -2.674,-0.837 -0.681,-0.555 -1.022,-1.278 -1.022,-2.16 0,-0.422 0.088,-0.8 0.261,-1.136 0.174,-0.333 0.444,-0.641 0.81,-0.92 0.307,-0.241 1.667,-0.701 4.077,-1.377 0.633,-0.181 1.122,-0.323 1.472,-0.422 1.546,-0.444 2.69,-1.091 3.435,-1.932 0.746,-0.843 1.117,-1.909 1.117,-3.197 0,-1.793 -0.648,-3.265 -1.944,-4.416 -1.293,-1.152 -2.97,-1.729 -5.02,-1.729 -0.548,0 -1.132,0.05 -1.753,0.155 -0.624,0.102 -0.977,0.156 -1.065,0.156 -0.411,0 -0.77,-0.225 -1.068,-0.676 -0.301,-0.451 -0.496,-0.676 -0.584,-0.676 -0.07,0 -0.131,0.025 -0.177,0.08 -0.048,0.054 -0.103,0.164 -0.167,0.329 l -2.483,5.834 c -0.033,0.083 -0.066,0.172 -0.106,0.261 -0.039,0.092 -0.061,0.149 -0.061,0.174 0,0.124 0.028,0.222 0.082,0.298 0.058,0.073 0.131,0.111 0.228,0.111 0.15,0 0.451,-0.333 0.901,-1.002 0.453,-0.669 0.916,-1.257 1.391,-1.761 0.824,-0.891 1.646,-1.538 2.467,-1.941 0.818,-0.4 1.716,-0.6 2.693,-0.6 1.116,0 2.029,0.304 2.738,0.911 0.709,0.609 1.065,1.386 1.065,2.335 0,1.487 -1.725,2.743 -5.172,3.768 -0.244,0.073 -0.426,0.127 -0.545,0.162 -2.06,0.628 -3.487,1.332 -4.278,2.113 -0.794,0.78 -1.19,1.817 -1.19,3.115 0,1.596 0.618,2.938 1.853,4.026 1.239,1.091 2.778,1.637 4.625,1.637 0.548,0 1.168,-0.067 1.859,-0.204 0.694,-0.136 1.114,-0.205 1.256,-0.205 0.396,0 0.676,0.193 0.837,0.583 0.162,0.387 0.292,0.58 0.387,0.58 0.054,0 0.109,-0.034 0.161,-0.104 0.052,-0.07 0.106,-0.197 0.17,-0.378 z" />
          </g>
        </g>
      </g>
    </g>
  </g>
</svg>
