<?xml version="1.0" encoding="UTF-8" standalone="no"?>
<!DOCTYPE svg PUBLIC "-//W3C//DTD SVG 1.1//EN" "http://www.w3.org/Graphics/SVG/1.1/DTD/svg11.dtd">
<svg width="100%" height="100%" viewBox="0 0 1097 183" version="1.1" xmlns="http://www.w3.org/2000/svg" xmlns:xlink="http://www.w3.org/1999/xlink" xml:space="preserve" xmlns:serif="http://www.serif.com/" style="fill-rule:evenodd;clip-rule:evenodd;stroke-linejoin:round;stroke-miterlimit:2;">
    <g transform="matrix(1,0,0,1,-74,-110.009305)">
        <g transform="matrix(10.017973,0,0,10.017973,74.00001,110.009675)">
            <path d="M16.727,4.2C16.418,5.323 16.133,6.401 16.133,6.401C16.133,6.401 15.933,7.426 15.054,7.426L10.679,7.426L11.862,2.975L15.852,2.975C15.939,2.976 16.126,2.987 16.298,3.052C16.585,3.177 16.923,3.486 16.727,4.2M14.713,11.227C14.543,12.048 14.099,13.71 13.984,14.061C13.871,14.413 13.664,15.287 12.378,15.287L8.533,15.287L9.855,10.279L13.767,10.279C13.767,10.279 13.881,10.28 14.017,10.299C14.349,10.356 14.85,10.564 14.713,11.227M22.371,6.9C22.558,6.253 23.331,3.375 23.331,3.375C23.643,1.596 22.257,-0 20.175,-0L5.105,-0C5.223,0.412 5.34,0.934 5.176,1.55C5.145,1.662 1.189,16.159 0.979,16.787C0.77,17.408 -0,18.253 -0,18.253L17.41,18.253C19.299,18.253 20.169,16.676 20.313,16.209C20.456,15.726 20.999,13.834 21.422,12.064C21.995,9.703 19.72,8.815 19.72,8.815C21.607,8.678 22.223,7.397 22.371,6.9" style="fill:rgb(21,72,152);fill-rule:nonzero;"/>
        </g>
        <g transform="matrix(10.017973,0,0,10.017973,74.00001,110.009675)">
            <path d="M33.2,15.129C33.116,15.415 32.955,15.597 32.785,15.714C32.498,15.901 32.149,15.92 32.038,15.921L29.529,15.921C29.006,15.921 28.775,15.708 28.676,15.483C28.668,15.465 28.659,15.447 28.653,15.428C28.647,15.411 28.643,15.395 28.639,15.379C28.597,15.208 28.615,15.011 28.641,14.865C28.723,14.504 29.045,13.114 29.271,12.352C29.294,12.276 29.323,12.212 29.353,12.15C29.63,11.614 30.151,11.584 30.251,11.584L34.142,11.584C34.142,11.584 33.541,13.951 33.2,15.129M39.366,16.579C39.366,16.579 40.849,11.251 41.452,8.673C41.993,6.369 39.785,4.927 38.526,4.927L25.381,4.927L24.476,7.373C25.004,7.114 25.703,7.122 25.703,7.122L34.249,7.122C34.476,7.122 34.885,7.189 35.02,7.555C35.025,7.567 35.029,7.574 35.033,7.587C35.036,7.598 35.036,7.613 35.039,7.624C35.06,7.708 35.072,7.812 35.045,7.927C35.006,8.119 34.924,8.396 34.886,8.533C34.753,9.021 34.529,9.259 34.051,9.259L26.64,9.259C25.464,9.259 23.484,9.787 22.945,11.856C22.806,12.397 22.556,13.293 22.358,14.064C21.79,16.249 23.778,18.254 25.882,18.254L31.094,18.254C32.333,18.254 32.936,16.859 32.936,16.859C33.044,17.456 33.214,18.254 33.214,18.254L39.65,18.254C39.09,17.408 39.366,16.579 39.366,16.579" style="fill:rgb(21,72,152);fill-rule:nonzero;"/>
        </g>
        <g transform="matrix(10.017973,0,0,10.017973,74.00001,110.009675)">
            <path d="M59.142,17.408C59.035,17.239 55.295,10.852 55.295,10.852L63.612,4.905L58.858,4.905C58.807,5.421 57.63,6.189 57.63,6.189L54.048,8.765C54.048,8.765 52.451,6.078 52.154,5.534C52.01,5.259 52.015,4.9 52.015,4.9L43.739,4.9C44.102,5.162 44.27,5.368 44.479,5.682C44.538,5.769 48.613,12.682 48.613,12.682L40.864,18.261L45.08,18.261L49.878,14.848C49.878,14.848 51.04,16.787 51.249,17.202C51.458,17.632 51.595,18.261 51.595,18.261L59.871,18.261C59.871,18.261 59.496,17.992 59.142,17.408" style="fill:rgb(21,72,152);fill-rule:nonzero;"/>
        </g>
        <g transform="matrix(10.017973,0,0,10.017973,74.00001,110.009675)">
            <path d="M72.975,16.019L69.496,16.019C68.467,16.019 68.021,15.345 68.27,14.408C68.326,14.207 70.186,7.175 70.186,7.175L75.538,7.175L76.176,4.885L70.892,4.885L71.651,2.035L65.009,2.449C65.009,2.449 63.058,9.592 62.007,13.576C60.955,17.564 64.362,18.264 65.178,18.264L73.422,18.264C73.422,18.264 74.175,15.662 74.171,15.665C74.099,15.701 73.56,16.019 72.975,16.019" style="fill:rgb(21,72,152);fill-rule:nonzero;"/>
        </g>
        <g transform="matrix(10.017973,0,0,10.017973,74.00001,110.009675)">
            <path d="M82.956,10.318C82.956,10.318 83.207,9.344 83.438,8.375C83.665,7.424 84.152,7.059 84.811,7.159L87.004,7.159C87.681,7.159 88.069,7.764 87.935,8.445C87.78,9.203 87.495,10.318 87.495,10.318L82.956,10.318ZM83.147,16.037C81.842,16.037 81.71,15.102 81.935,14.339C81.991,14.146 82.431,12.664 82.431,12.664L93.308,12.664L94.284,8.744C94.774,4.76 90.613,4.9 90.613,4.9L80.813,4.9C77.716,4.9 77.112,7.97 77.112,7.97C77.112,7.97 76.567,10.009 75.57,13.99C74.747,17.313 77.448,18.264 79.134,18.264L91.273,18.264L92.464,15.702C92.464,15.702 91.879,16.037 91.163,16.037L83.147,16.037L83.147,16.037Z" style="fill:rgb(21,72,152);fill-rule:nonzero;"/>
        </g>
        <g transform="matrix(10.017973,0,0,10.017973,74.00001,109.911632)">
            <path d="M104.94,4.9C103.053,4.9 102.372,6.665 102.372,6.665L102.372,4.9L96.242,4.9C96.242,4.9 96.549,5.79 96.354,6.534C96.114,7.456 94.29,14.603 93.765,16.441C93.503,17.356 92.801,18.172 92.727,18.261C92.723,18.266 100.364,18.268 100.362,18.264C100.109,17.642 100.17,16.813 100.592,15.232C101.077,13.418 101.964,9.328 101.966,9.32C102.324,7.73 103.769,7.987 103.769,7.987L107.251,7.987C108.022,7.987 108.378,8.469 108.378,8.469L109.459,4.9L104.94,4.9L104.94,4.9Z" style="fill:rgb(21,72,152);fill-rule:nonzero;"/>
        </g>
    </g>
</svg>
