<svg xmlns="http://www.w3.org/2000/svg" viewBox="0.127 0.0 150.0 110.0" width="369.5041722813605" height="270.6329386826371"><path fill="#001965" d="M106.684 85.641h1.347c.356 0 .509.025.509.559v16.895c0 .941-2.795 1.906-4.752 1.906-4.091 0-6.784-2.388-6.784-7.316 0-3.303 2.135-7.292 6.302-7.292 1.244 0 2.058.305 2.896.763v-4.879c-.001-.484.025-.636.482-.636zm-25.536 4.674c1.245 0 2.516.305 3.48.991 1.576 1.092 2.592 3.15 2.592 6.377 0 3.201-1.016 5.258-2.592 6.352-.939.635-2.21.965-3.48.965-1.22 0-2.516-.305-3.455-.965-1.551-1.094-2.567-3.15-2.567-6.352 0-3.227 1.016-5.285 2.567-6.377.991-.635 2.261-.991 3.455-.991zm-32.776 0c1.27 0 2.565.305 3.505.991 1.55 1.092 2.592 3.15 2.592 6.377 0 3.201-1.042 5.258-2.592 6.352-.99.635-2.235.965-3.505.965-1.22 0-2.541-.305-3.481-.965-1.55-1.094-2.566-3.15-2.566-6.352 0-3.227 1.016-5.285 2.566-6.377.991-.635 2.261-.991 3.481-.991zm-24.443 0c1.27 0 2.489.305 3.48.991 1.55 1.092 2.592 3.15 2.592 6.377 0 3.201-1.042 5.258-2.592 6.352-.991.635-2.21.965-3.48.965-1.246 0-2.541-.305-3.481-.965-1.576-1.094-2.592-3.15-2.592-6.352 0-3.227 1.016-5.285 2.592-6.377.966-.635 2.261-.991 3.481-.991zm88.243.381h1.397c.407 0 .509.076.509.483v12.932c0 .457-.102.457-.509.482h-1.448c-.406 0-.406-.102-.406-.482V91.179c0-.33 0-.483.457-.483zm23.58-.076h1.244c.355 0 .483.076.483.305 0 .153-.026.28-.128.534-1.143 2.261-2.998 4.344-4.803 5.664l.051.053 5.082 6.758c.102.102.203.228.203.329 0 .306-.278.306-.405.331h-1.804c-.434 0-.535 0-.814-.407l-4.775-6.858c0-.051-.025-.127-.025-.152 0 0 .025-.078.102-.154 2.006-1.168 3.988-3.657 4.75-5.97.151-.458.329-.433.839-.433zm-104.988 0h1.652c.406 0 .457.051.609.432l3.583 10.214 3.507-10.265c.127-.254.152-.33.33-.381h1.322c.127 0 .355 0 .355.279 0 .076 0 .102-.076.407l-4.7 12.855c-.127.381-.178.432-.509.432h-1.042c-.229 0-.279-.102-.432-.432L30.51 91.356a.855.855 0 0 1-.102-.382c0-.354.254-.354.356-.354zm90.529-.228c1.855 0 3.608.584 3.608 1.626 0 .711-.583.939-.991.939-.813 0-1.219-1.016-2.77-1.016-1.523 0-2.311 1.016-2.311 2.032 0 3.023 6.58 2.287 6.58 6.835 0 2.896-2.49 4.191-4.93 4.166-2.16 0-4.318-.939-4.318-2.059 0-.686.583-.889 1.016-.889.914 0 1.447 1.398 3.354 1.398 1.88 0 2.744-1.246 2.744-2.363 0-1.423-1.422-2.033-2.973-2.693-1.982-.838-3.608-1.829-3.608-4.141 0-2.489 2.187-3.835 4.599-3.835zm-27.999-.077c1.88 0 3.506.406 3.506 1.397 0 .813-.508 1.219-1.169 1.193-.939 0-1.193-1.27-2.896-1.27-.813 0-1.372.482-1.372 1.219v11.23c0 .406-.152.432-.482.432h-1.347c-.406 0-.559-.025-.559-.432V91.813c0-.432.33-.864 1.27-1.093.711-.176 1.601-.405 3.049-.405zm-12.146 1.576c-.889 0-1.575.203-2.287.889-.736.712-1.27 2.363-1.27 4.904 0 2.566.533 4.166 1.27 4.878.712.685 1.348.864 2.287.864.966 0 1.651-.18 2.363-.864.762-.712 1.244-2.364 1.244-4.878 0-2.592-.482-4.192-1.244-4.904-.711-.686-1.397-.889-2.363-.889zm-13.517-1.576c5.336 0 5.387 2.82 5.387 4.446v9.273c0 .253 0 .508-.254.559H71.29c-.457 0-.61-.051-.61-.559v-8.969c0-1.271 0-3.303-3.125-3.303-1.854 0-2.871.635-2.871 1.219v11.053c0 .508-.177.559-.559.559h-1.321c-.432 0-.533-.051-.533-.508V92.093c0-.482.305-.813 1.219-1.118.737-.228 2.109-.66 4.141-.66zm-19.208 1.576c-.94 0-1.652.203-2.363.889-.737.712-1.245 2.363-1.245 4.904 0 2.566.508 4.166 1.245 4.878.762.685 1.423.864 2.363.864.915 0 1.6-.18 2.312-.864.763-.712 1.271-2.364 1.271-4.878 0-2.592-.508-4.192-1.271-4.904-.712-.686-1.347-.889-2.312-.889zm-24.494 0c-.915 0-1.601.203-2.313.889-.763.712-1.271 2.363-1.271 4.904 0 2.566.508 4.166 1.271 4.878.711.685 1.372.864 2.313.864.94 0 1.625-.18 2.337-.864.763-.712 1.246-2.364 1.246-4.878 0-2.592-.508-4.192-1.246-4.904-.737-.686-1.397-.889-2.337-.889zm-13.543-1.576c5.387 0 5.413 2.82 5.413 4.446v9.273c0 .253-.025.508-.279.559h-1.5c-.457 0-.609-.051-.609-.559v-8.969c0-1.271 0-3.303-3.126-3.303-1.88 0-2.896.635-2.896 1.219v11.053c0 .508-.177.559-.558.559H5.484c-.381 0-.482-.051-.482-.508V92.093c0-.482.305-.813 1.194-1.118.786-.228 2.132-.66 4.19-.66zm93.3 1.728c-2.465 0-4.243 2.186-4.243 5.463 0 3.734 1.829 5.895 4.421 5.895 1.194 0 2.338-.383 2.338-1.067h.025v-9.427c-.534-.432-1.169-.864-2.541-.864zm24.112-6.453h1.423c.305 0 .482 0 .482.406v18.19c0 .382-.152.382-.482.382h-1.423c-.354 0-.431-.051-.431-.406V86.047c0-.406.153-.457.431-.457zm-14.839-.152c.712 0 1.348.533 1.398 1.346.025.763-.534 1.475-1.449 1.5-.889 0-1.422-.636-1.422-1.398 0-.814.61-1.448 1.473-1.448zm28.025-6.582c2.339 0 4.27 1.956 4.27 4.319s-1.88 4.319-4.27 4.319c-2.361 0-4.268-1.905-4.268-4.319.001-2.388 1.907-4.319 4.268-4.319zm0 .763c-2.006 0-3.557 1.568-3.557 3.557 0 1.982 1.576 3.633 3.557 3.633 1.982 0 3.584-1.65 3.584-3.633 0-1.982-1.627-3.557-3.584-3.557zm-1.828 1.27h1.65c1.871 0 1.932.974 1.932 1.271 0 .644-.467 1.246-1.244 1.295.352.182.711.687.99 1.144l.559.915h-.889l-.406-.712c-.535-1.017-.764-1.245-1.372-1.245h-.433v1.982h-.787v-4.65zm.737.635v1.397h.914c.33 0 1.068 0 1.068-.686 0-.712-.713-.712-1.145-.712l-.837.001zM35.236 19.253c.229-.025.508.305.737.94.457 1.244 2.464 6.275 7.673 8.13 5.158 1.854 9.807.355 13.06-2.363 1.219-.966 1.625-.406.533 1.372-1.448 2.363-3.786 3.709-6.479 5.184-.533.305-1.168.559.076 1.143 7.191 3.354 16.567 5.717 24.9 5.717 6.199 0 12.196-.965 15.372-1.194 3.049-.229 8.868-.025 10.265 6.683.991 4.751.915 18.647.864 31.936 0 .939.076 1.499-.991 1.499-3.455-.025-3.582.127-3.887.991-.509 1.422-.636 2.134-1.017 3.607-.306 1.22-.534 1.651-1.347 1.651h-4.269c-.687 0-1.017-.788-.458-1.854 5.514-9.909 5.082-17.607 1.855-21.824-1.017 3.912-1.448 5.64-1.957 6.021-6.656 5.03-10.035 15.727-10.315 16.59-.305.788-.712 1.093-1.753 1.093h-4.727c-1.372 0-1.295-.966-.482-1.905 7.394-7.902 9.274-10.849 11.433-17.557 2.186-6.732-2.922-8.867-6.834-5.359-10.164-4.625-12.857 1.422-12.247 4.801.94 5.361 4.548 14.457 4.777 18.75.076 1.093-.864 1.321-1.449 1.321h-4.498c-1.397 0-.838-1.347-.736-1.956 2.287-11.053-2.389-17.354-7.089-20.301-2.795 2.059-6.504 14.127-6.961 20.707-.051.787-.483 1.499-1.144 1.499h-5.233c-.839 0-.991-.94-.355-2.083 2.692-4.854 6.911-12.449 6.834-20.504 0-.889 0-3.684-1.296-5.207-2.871-3.432-4.446-7.598-5.945-10.265-1.016-1.804-2.312-2.414-3.328-2.592-1.093-.203-1.905.102-2.82-.33-.915-.407-1.398-1.347-2.109-2.159-.609-.687-1.067-1.678-.355-2.592 1.295-1.601 2.134-2.541 2.363-3.201.229-.661.178-.94.229-1.525.025-.533 1.118-1.879 2.16-3.074.381-.457.051-1.27-.661-2.058-.71-.787-2.77-3.607-2.77-8.308-.001-.942.178-1.373.381-1.424zm19.081 18.293c-.432-.025-.61.178-.94.609-4.649 6.378-5.615 9.833-5.208 12.425.406 2.59 2.616 5.182 5.92 7.139 3.303 1.906 5.335 2.998 7.572 5.437.279.279.583.355.686-.178 1.143-7.47 7.393-8.563 15.55-8.409 11.484.178 13.695 3.938 15.117 3.354 1.373-.661 2.313-6.479 2.566-10.57.279-4.166.534-7.52-4.599-7.113 1.22 2.49 1.448 5.234-.788 6.784-2.261 1.575-3.887.813-3.887-.661 0-1.295-.203-3.379-1.83-5.284-.787.102-1.422.178-2.21.255.482 2.235 1.067 6.377-.636 8.053-1.702 1.678-6.53 1.83-11.509 1.449-.94-.076-2.109-.459-2.617-1.652-.254-.559-.636-2.008-.737-8.358-.864-.127-1.549-.229-2.413-.432-.89 6.123-2.947 8.384-5.108 8.917-2.159.534-4.624.025-4.167-2.186.406-2.133 1.473-4.547 1.677-8.789-1.321-.485-2.006-.765-2.439-.79zm34.962 2.896c-.991.102-1.932.229-2.846.381 1.041 1.499 1.626 3.15 1.677 5.36.305.127 1.728-.457 2.058-1.473.306-1.041.228-2.21-.889-4.268zm-30.566-1.473c-.306 2.414-.813 5.387-1.347 7.139-.559 1.754.965 1.602 1.651 1.322.915-.382 2.618-1.932 3.507-7.445a70.377 70.377 0 0 1-3.811-1.016zm9.858 2.108c.127 1.905.152 4.776.458 6.327.279 1.346.788 1.422 1.296 1.498 1.854.279 8.333.56 9.782-.889.89-.916.966-4.091.331-6.529-3.914.229-7.929.127-11.867-.407zm-27.238-9.654c-.33.051-.609.229-.915.482-1.042.94-2.134 2.414-2.312 2.896-.229.483-.102 1.651-.56 2.261-.406.585-1.473 2.008-1.473 2.008-.915 1.143-.483 1.22.508 2.414.889 1.117 2.973-.356 5.387 1.549 1.219.966 2.693 4.549 3.761 5.971.813-5.106 4.014-9.248 4.954-10.823 1.55-2.438.152-1.854-4.344-4.599-2.795-1.677-4.066-2.362-5.006-2.159zm.737 3.226c.381 0 .661.051.712.178.178.458-1.982 3.125-3.101 1.499-.812-1.169 1.246-1.702 2.389-1.677zm56.254 16.236c-.127.025-.229.102-.229.254-.279 3.658-1.093 8.053-.813 9.477.254 1.523 1.117 5.184 1.295 6.783.152 1.244.712.762.788.152.33-2.465.864-14.862-.687-16.488a.474.474 0 0 0-.354-.178zM48.423 5c5.844 0 10.544 4.725 10.544 10.568 0 5.818-4.7 10.596-10.544 10.596-5.793 0-10.544-4.727-10.544-10.596C37.878 9.777 42.579 5 48.423 5zm.305 2.489c-3.862 0-7.013 3.1-7.013 6.987 0 3.861 3.15 6.986 7.013 6.986a6.968 6.968 0 0 0 6.988-6.986 6.985 6.985 0 0 0-6.988-6.987z"/></svg>