<?xml version="1.0"?>
<svg xmlns="http://www.w3.org/2000/svg" width="200" height="120.07824">
<g transform="matrix(2.6959163,0,0,2.6959163,-68.945509,-155.43188)">
 <path d="M 62.667758,100.73756 C 74.147758,100.73756 83.454008,91.43131 83.454008,79.95131 C 83.454008,68.47131 74.147758,59.16506 62.667758,59.16506 C 51.187758,59.16506 41.880258,68.47131 41.880258,79.95131 C 41.880258,91.43131 51.187758,100.73756 62.667758,100.73756" style="fill:#ffffff;" />
 <path d="M 62.667758,100.53256 C 51.281508,100.53256 42.050258,91.30131 42.050258,79.91631 C 42.050258,68.53006 51.281508,59.29881 62.667758,59.29881 L 62.667758,58.76881 C 47.399008,58.76881 36.807758,65.51256 32.292758,69.26006 C 27.311508,73.39381 24.135258,84.11631 33.094008,91.22256 C 33.094008,91.22256 44.719008,101.08256 62.667758,101.08256 L 62.667758,100.53256" style="fill:#ec008c;" />
 <path d="M 62.667758,100.53256 C 74.054008,100.53256 83.284008,91.30131 83.284008,79.91631 C 83.284008,68.53006 74.054008,59.29881 62.667758,59.29881 L 62.667758,58.76881 C 77.936508,58.76881 88.526508,65.51256 93.042758,69.26006 C 98.022758,73.39381 101.19901,84.11631 92.240258,91.22256 C 92.240258,91.22256 80.616508,101.08256 62.667758,101.08256 L 62.667758,100.53256" style="fill:#00aeef;" />
 <path d="M 44.171508,73.46881 L 54.247758,73.46881 L 54.247758,76.21506 L 52.822758,76.21506 L 52.822758,74.77506 L 49.171508,74.77506 L 49.171508,78.32631 L 50.529008,78.32631 L 50.529008,77.12006 L 52.019008,77.12006 L 52.019008,80.90631 L 50.529008,80.90631 L 50.529008,79.86631 L 49.137758,79.86631 L 49.137758,83.72006 L 52.822758,83.72006 L 52.822758,82.07756 L 54.247758,82.07756 L 54.247758,84.99256 L 44.171508,84.99256 L 44.171508,83.72006 L 45.452758,83.72006 L 45.452758,74.77506 L 44.171508,74.77506 L 44.171508,73.46881" style="fill:#000000;" />
 <path d="M 55.202758,77.08756 L 59.490258,77.08756 L 59.490258,83.75381 L 60.361508,83.75381 L 60.361508,85.06006 L 55.169008,85.06006 L 55.169008,83.75381 L 56.207758,83.75381 L 56.207758,78.32631 L 55.202758,78.32631 L 55.202758,77.08756" style="fill:#000000;" />
 <path d="M 57.747758,73.40131 C 58.854008,73.40131 59.456508,74.33881 59.456508,75.00881 C 59.456508,75.68006 58.886508,76.61756 57.881508,76.61756 C 56.876508,76.61756 56.274008,75.78006 56.274008,74.94256 C 56.274008,74.10381 56.944008,73.40131 57.747758,73.40131" style="fill:#000000;" />
 <path d="M 66.325258,77.05256 L 67.496508,77.05256 L 67.496508,79.49881 L 66.391508,79.49881 C 66.006508,78.62756 65.286508,78.39381 64.917758,78.29256 C 64.539008,78.18881 64.114008,78.17506 63.761508,78.34256 C 63.410258,78.51006 63.644008,79.09631 63.996508,79.26381 C 64.347758,79.43131 66.441508,80.52006 66.826508,80.80506 C 67.212758,81.09006 68.184008,82.53006 67.412758,83.82006 C 66.471508,85.39631 65.470258,85.23506 64.884008,85.26131 C 64.130258,85.29506 62.761508,84.75256 62.455258,84.42381 C 62.472758,84.69131 62.455258,85.06006 62.455258,85.06006 L 61.097758,85.06006 L 61.097758,82.64756 L 62.355258,82.64756 C 62.405258,82.99881 63.196508,83.82381 64.046508,83.92006 C 64.934008,84.02131 65.185258,83.28506 64.399008,82.83256 C 63.610258,82.38006 62.622758,81.99381 62.002758,81.57506 C 61.382758,81.15631 60.144008,79.66631 61.332758,77.92381 C 62.522758,76.18131 65.821508,77.15256 66.325258,77.70631 C 66.325258,77.36881 66.325258,77.05256 66.325258,77.05256" style="fill:#000000;" />
 <path d="M 75.051508,83.87006 C 75.051508,83.21756 75.051508,78.97881 75.051508,78.97881 C 75.035258,78.37631 74.297758,77.37131 73.125258,77.15256 C 71.952758,76.93506 70.244008,77.60506 70.244008,77.60506 L 69.859008,77.79381 L 69.859008,77.10381 L 68.585258,77.10381 L 68.585258,79.51506 L 69.691508,79.51506 C 69.757758,79.16381 70.696508,78.52631 71.132758,78.54381 C 71.567758,78.56006 71.919008,78.69381 71.935258,79.11256 C 71.952758,79.53131 71.952758,79.91756 71.952758,79.91756 C 71.801508,79.91756 71.667758,79.90131 71.667758,79.90131 C 71.400258,79.61506 69.631508,79.27631 68.854008,80.32006 C 68.167758,81.24006 67.871508,81.83131 68.134008,83.25006 C 68.372758,84.54881 69.760258,85.22756 70.327758,85.26131 C 71.215258,85.31131 71.801508,84.92631 71.801508,84.92631 C 71.952758,84.99256 72.002758,85.16131 72.304008,85.16131 C 72.606508,85.16131 75.972758,85.16131 75.972758,85.16131 L 75.972758,83.87006 L 75.051508,83.87006 z M 71.567758,83.83631 C 71.081508,83.83631 70.964008,82.86506 70.964008,82.43006 C 70.964008,81.99381 71.249008,81.17381 71.601508,81.17381 C 72.036508,81.17381 71.969008,82.14506 71.969008,82.41256 C 71.969008,82.68131 72.052758,83.83631 71.567758,83.83631" style="fill:#000000;" />
 <path d="M 76.409008,77.07006 L 76.409008,78.34256 L 77.380258,78.34256 L 77.380258,83.86256 L 76.409008,83.86256 L 76.409008,85.11006 L 81.534008,85.11006 L 81.534008,83.86256 L 80.512758,83.86256 L 80.512758,77.07006 L 76.409008,77.07006" style="fill:#000000;" />
 <path d="M 78.837758,73.56881 C 80.076508,73.56881 80.462758,74.69131 80.462758,75.16006 C 80.462758,75.62881 80.094008,76.75131 78.837758,76.75131 C 77.581508,76.75131 77.262758,75.61131 77.262758,75.04256 C 77.262758,74.47381 77.749008,73.56881 78.837758,73.56881" style="fill:#000000;" />
</g>
</svg>