<?xml version="1.0" encoding="UTF-8" standalone="no"?>
<!-- Created with Inkscape (http://www.inkscape.org/) -->

<svg
   xmlns:dc="http://purl.org/dc/elements/1.1/"
   xmlns:cc="http://creativecommons.org/ns#"
   xmlns:rdf="http://www.w3.org/1999/02/22-rdf-syntax-ns#"
   xmlns:svg="http://www.w3.org/2000/svg"
   xmlns="http://www.w3.org/2000/svg"
   xmlns:sodipodi="http://sodipodi.sourceforge.net/DTD/sodipodi-0.dtd"
   xmlns:inkscape="http://www.inkscape.org/namespaces/inkscape"
   width="226.50002"
   height="52.799992"
   viewBox="0 0 59.92813 13.969997"
   version="1.1"
   id="svg4506"
   inkscape:version="0.92.0 r15299"
   sodipodi:docname="illumina.svg">
  <defs
     id="defs4500">
	
	
	
	
	
	
	
	
	
	
</defs>
  <sodipodi:namedview
     id="base"
     pagecolor="#ffffff"
     bordercolor="#666666"
     borderopacity="1.0"
     inkscape:pageopacity="0.0"
     inkscape:pageshadow="2"
     inkscape:zoom="3.5723831"
     inkscape:cx="112.25"
     inkscape:cy="25.399988"
     inkscape:document-units="mm"
     inkscape:current-layer="layer1"
     showgrid="false"
     fit-margin-top="0"
     fit-margin-left="0"
     fit-margin-right="0"
     fit-margin-bottom="0"
     units="px"
     inkscape:window-width="1280"
     inkscape:window-height="744"
     inkscape:window-x="-4"
     inkscape:window-y="-4"
     inkscape:window-maximized="1" />
  <metadata
     id="metadata4503">
    <rdf:RDF>
      <cc:Work
         rdf:about="">
        <dc:format>image/svg+xml</dc:format>
        <dc:type
           rdf:resource="http://purl.org/dc/dcmitype/StillImage" />
        <dc:title></dc:title>
      </cc:Work>
    </rdf:RDF>
  </metadata>
  <g
     inkscape:label="Layer 1"
     inkscape:groupmode="layer"
     id="layer1"
     transform="translate(328.30067,-304.86947)">
    <g
       id="g4614"
       transform="translate(0.26458452,-0.26457483)">
      <path
         id="path4554"
         d="m -328.00963,310.34634 h 1.56104 v 8.28146 h -1.56104 z"
         inkscape:connector-curvature="0"
         style="fill:#ffb441;stroke-width:0.26458332" />
      <path
         id="path4556"
         d="m -323.82921,305.39863 h 1.5875 v 13.22917 h -1.56104 z"
         inkscape:connector-curvature="0"
         style="fill:#616161;stroke-width:0.26458332" />
      <path
         id="path4558"
         d="m -319.54296,305.39863 h 1.5875 v 13.22917 h -1.56104 z"
         inkscape:connector-curvature="0"
         style="fill:#616161;stroke-width:0.26458332" />
      <path
         id="path4560"
         d="m -308.37755,318.6278 h -1.56104 v -1.27 h -0.0265 c -0.39687,0.87312 -1.4552,1.48166 -2.7252,1.48166 -1.61396,0 -3.01625,-0.9525 -3.01625,-3.175 v -5.34458 h 1.5875 v 4.89479 c 0,1.56104 0.89958,2.14313 1.87854,2.14313 1.32291,0 2.30187,-0.84667 2.30187,-2.75167 v -4.25979 h 1.5875 v 8.28146 z"
         inkscape:connector-curvature="0"
         style="fill:#616161;stroke-width:0.26458332" />
      <path
         id="path4562"
         d="m -306.36671,310.34634 h 1.48166 v 1.29646 h 0.0265 c 0.15875,-0.50271 1.16417,-1.50813 2.64584,-1.50813 1.21708,0 2.06375,0.52917 2.59291,1.53458 0.55563,-1.00541 1.64042,-1.53458 2.61938,-1.53458 2.54,0 3.14854,1.82563 3.14854,3.67771 v 4.81542 h -1.56104 v -4.60375 c 0,-1.27 -0.26459,-2.40771 -1.79917,-2.40771 -1.53458,0 -2.11667,1.03187 -2.11667,2.51354 v 4.52437 h -1.5875 v -4.33916 c 0,-1.56104 -0.23812,-2.69875 -1.74625,-2.69875 -1.1377,0 -2.14312,0.84666 -2.14312,2.72521 v 4.3127 h -1.53458 z"
         inkscape:connector-curvature="0"
         style="fill:#616161;stroke-width:0.26458332" />
      <path
         id="path4564"
         d="m -291.68234,310.34634 h 1.5875 v 8.28146 h -1.5875 z"
         inkscape:connector-curvature="0"
         style="fill:#616161;stroke-width:0.26458332" />
      <path
         id="path4566"
         d="m -287.79296,310.34634 h 1.56104 v 1.27 h 0.0265 c 0.39687,-0.87313 1.45521,-1.48167 2.72521,-1.48167 1.61395,0 3.01625,0.9525 3.01625,3.175 v 5.34458 h -1.5875 v -4.89479 c 0,-1.56104 -0.89959,-2.14312 -1.87855,-2.14312 -1.32291,0 -2.30187,0.84666 -2.30187,2.75166 v 4.2598 h -1.5875 v -8.28146 z"
         inkscape:connector-curvature="0"
         style="fill:#616161;stroke-width:0.26458332" />
      <path
         id="path4568"
         d="m -273.08213,314.63259 v 0.52916 c 0,1.11125 -0.60854,2.40771 -2.35479,2.40771 -1.08479,0 -1.77271,-0.39687 -1.77271,-1.34937 0,-1.32292 1.82563,-1.5875 3.30729,-1.5875 z m -4.36562,-2.30188 c 0.58208,-0.44979 1.16416,-0.9525 2.35479,-0.9525 1.34937,0 1.98437,0.89959 1.98437,1.74625 v 0.34396 h -1.16416 c -2.51355,0 -4.55084,0.74083 -4.55084,2.8575 0,1.61396 1.32292,2.48708 2.8575,2.48708 1.27,0 2.19604,-0.39687 2.91042,-1.48166 h 0.0265 c 0,0.42333 0.0265,0.84666 0.0529,1.27 h 1.4023 c -0.0529,-0.44979 -0.0794,-0.92604 -0.0794,-1.50813 v -4.23333 c 0,-1.42875 -1.00542,-2.75167 -3.46604,-2.75167 -1.16417,0 -2.40771,0.39688 -3.28083,1.21709 z"
         inkscape:connector-curvature="0"
         style="fill:#616161;stroke-width:0.26458332" />
      <path
         id="path4570"
         d="m -327.24234,306.37759 c -0.58208,0 -1.05833,0.47625 -1.05833,1.05833 0,0.58208 0.47625,1.05833 1.05833,1.05833 0.58209,0 1.05834,-0.47625 1.05834,-1.05833 0,-0.58208 -0.47625,-1.05833 -1.05834,-1.05833 z"
         inkscape:connector-curvature="0"
         style="fill:#ffb441;stroke-width:0.26458332" />
      <path
         id="path4572"
         d="m -270.48921,310.61092 h 0.23812 v -0.52917 h 0.18521 l 0.3175,0.52917 h 0.23813 l -0.34396,-0.55562 c 0.18521,-0.0265 0.3175,-0.1323 0.3175,-0.34396 0,-0.23813 -0.15875,-0.39688 -0.44979,-0.39688 h -0.50271 z m 0.23812,-1.11125 h 0.18521 c 0.15875,0 0.3175,0 0.3175,0.18521 0,0.15875 -0.15875,0.18521 -0.3175,0.18521 h -0.18521 z m -0.92604,0.47625 c 0,0.635 0.50271,1.13771 1.13771,1.13771 0.635,0 1.13771,-0.50271 1.13771,-1.13771 0,-0.635 -0.50271,-1.13771 -1.13771,-1.13771 -0.635,0 -1.13771,0.50271 -1.13771,1.13771 z m 0.18521,0 c 0,-0.50271 0.42333,-0.92604 0.92604,-0.92604 0.50271,0 0.92604,0.42333 0.92604,0.92604 0,0.50271 -0.42333,0.92604 -0.92604,0.92604 -0.50271,0 -0.92604,-0.42333 -0.92604,-0.92604 z"
         inkscape:connector-curvature="0"
         style="fill:#616161;stroke-width:0.26458332" />
    </g>
  </g>
</svg>
