<?xml version="1.0" encoding="UTF-8"?>
<svg id="Layer_2" data-name="Layer 2" xmlns="http://www.w3.org/2000/svg" viewBox="0 0 360.47 46.87">
  <defs>
    <style>
      .cls-1 {
        fill: #d048e8;
      }

      .cls-2 {
        fill: #272265;
      }

      .cls-3 {
        fill: #5a66f1;
      }

      .cls-4 {
        fill: #2b2457;
      }
    </style>
  </defs>
  <g id="HORIZTONAL_OUTLINED_TEXT" data-name="HORIZTONAL – OUTLINED TEXT">
    <g>
      <g>
        <path class="cls-2" d="M0,20h2.79l16.64,21.17v-21.17h2.91v26.42h-2.38L2.91,24.76v21.66H0v-26.42Z"/>
        <path class="cls-2" d="M40.38,46.84c-1.64,0-3.13-.25-4.47-.74-1.35-.49-2.5-1.22-3.47-2.19-.97-.97-1.72-2.17-2.25-3.6s-.79-3.08-.79-4.94v-15.36h2.98v15.17c0,2.87.71,5.07,2.13,6.6,1.42,1.53,3.4,2.3,5.94,2.3s4.38-.73,5.81-2.19c1.43-1.46,2.15-3.64,2.15-6.53v-15.36h2.98v15.13c0,1.94-.26,3.64-.79,5.1-.53,1.46-1.28,2.68-2.25,3.66-.97.98-2.13,1.72-3.47,2.21s-2.85.74-4.51.74Z"/>
        <path class="cls-2" d="M58.46,20h3.02l9.62,14.42,9.62-14.42h3.02v26.42h-2.98v-21.4l-9.62,14.15h-.15l-9.62-14.12v21.36h-2.91v-26.42Z"/>
        <path class="cls-2" d="M91.22,20h19.1v2.68h-16.12v9.1h14.42v2.68h-14.42v9.28h16.31v2.68h-19.29v-26.42Z"/>
        <path class="cls-2" d="M116.51,20h11.36c1.64,0,3.09.23,4.36.7,1.27.47,2.32,1.11,3.15,1.94.65.65,1.16,1.42,1.51,2.3.35.88.53,1.85.53,2.91v.08c0,1.11-.18,2.09-.53,2.96-.35.87-.85,1.62-1.49,2.26s-1.4,1.17-2.28,1.59c-.88.42-1.84.71-2.87.89l8.12,10.79h-3.66l-7.66-10.27h-7.55v10.27h-2.98v-26.42ZM127.63,33.48c.98,0,1.89-.13,2.72-.38.83-.25,1.55-.61,2.16-1.08.61-.47,1.08-1.03,1.42-1.7.34-.67.51-1.43.51-2.28v-.08c0-1.64-.59-2.91-1.78-3.83-1.19-.92-2.85-1.38-4.99-1.38h-8.17v10.72h8.14Z"/>
        <path class="cls-2" d="M144.06,20h2.98v26.42h-2.98v-26.42Z"/>
        <path class="cls-2" d="M167.05,46.87c-2.01,0-3.84-.37-5.49-1.09-1.65-.73-3.06-1.72-4.25-2.96-1.18-1.25-2.09-2.69-2.74-4.34-.64-1.65-.96-3.38-.96-5.19v-.08c0-1.81.33-3.55.98-5.21s1.57-3.11,2.75-4.36c1.18-1.25,2.6-2.24,4.27-2.98,1.66-.74,3.5-1.11,5.51-1.11s3.84.36,5.49,1.09c1.65.73,3.06,1.72,4.25,2.96s2.09,2.69,2.74,4.34c.64,1.65.96,3.38.96,5.19.02.02.02.05,0,.08,0,1.81-.33,3.55-.98,5.21s-1.57,3.11-2.75,4.36c-1.18,1.25-2.6,2.24-4.26,2.98-1.66.74-3.5,1.11-5.51,1.11ZM167.12,44.12c1.51,0,2.9-.28,4.17-.85,1.27-.57,2.36-1.34,3.26-2.32.91-.98,1.62-2.13,2.13-3.43.51-1.31.77-2.72.77-4.23v-.08c0-1.51-.26-2.92-.77-4.25-.52-1.32-1.24-2.47-2.17-3.45-.93-.98-2.03-1.76-3.3-2.34-1.27-.58-2.66-.87-4.17-.87s-2.9.28-4.17.85c-1.27.57-2.36,1.34-3.26,2.32-.91.98-1.62,2.13-2.13,3.43-.52,1.31-.77,2.72-.77,4.23v.08c0,1.51.26,2.93.77,4.25.51,1.32,1.24,2.47,2.17,3.45.93.98,2.03,1.76,3.3,2.34,1.27.58,2.66.87,4.17.87Z"/>
        <path class="cls-2" d="M186.86,20h2.79l16.64,21.17v-21.17h2.91v26.42h-2.38l-17.06-21.66v21.66h-2.91v-26.42Z"/>
        <path class="cls-3" d="M261.97,20h2.98v23.66h14.87v2.76h-17.85v-26.42Z"/>
        <path class="cls-3" d="M295.1,19.81h2.79l12.04,26.61h-3.21l-3.09-6.98h-14.38l-3.13,6.98h-3.06l12.04-26.61ZM302.46,36.76l-6-13.47-6.04,13.47h12.04Z"/>
        <path class="cls-3" d="M315.15,20h11.23c1.51,0,2.84.21,4.01.62,1.17.41,2.13.99,2.88,1.71,1.13,1.18,1.7,2.59,1.7,4.22v.08c0,.85-.12,1.61-.36,2.28-.24.67-.56,1.24-.96,1.73-.4.49-.85.9-1.34,1.24-.49.34-1,.62-1.53.85.78.23,1.51.52,2.2.89.69.37,1.29.8,1.79,1.3.5.5.9,1.1,1.21,1.8.3.69.45,1.49.45,2.4v.08c0,1.13-.23,2.15-.68,3.04-.45.9-1.1,1.65-1.94,2.27-.84.62-1.85,1.09-3.03,1.42-1.18.33-2.49.49-3.92.49h-11.72v-26.42ZM325.92,31.74c1.81,0,3.27-.39,4.38-1.18,1.12-.79,1.67-1.96,1.67-3.52v-.07c0-1.3-.5-2.34-1.5-3.12-1-.78-2.45-1.17-4.33-1.17h-8.02v9.06h7.79ZM326.97,43.74c2.01,0,3.59-.42,4.74-1.25,1.15-.83,1.73-1.99,1.73-3.47v-.08c0-1.43-.59-2.55-1.77-3.34-1.18-.79-2.92-1.19-5.23-1.19h-8.32v9.32h8.85Z"/>
        <path class="cls-3" d="M351.49,46.8c-2.11,0-4.04-.35-5.79-1.04-1.75-.69-3.42-1.75-5-3.19l1.85-2.19c1.38,1.26,2.78,2.2,4.19,2.81,1.41.62,3.03.92,4.87.92s3.21-.42,4.28-1.26c1.07-.84,1.6-1.92,1.6-3.23v-.08c0-.6-.1-1.15-.3-1.64-.2-.49-.56-.94-1.06-1.34-.5-.4-1.21-.77-2.1-1.09-.9-.33-2.04-.64-3.42-.94-1.51-.33-2.83-.7-3.95-1.13-1.12-.43-2.05-.94-2.78-1.55-.73-.6-1.27-1.31-1.63-2.11-.35-.81-.53-1.75-.53-2.83v-.08c0-1.03.21-1.99.64-2.87.43-.88,1.03-1.64,1.81-2.28.78-.64,1.7-1.14,2.75-1.51,1.06-.36,2.21-.55,3.47-.55,1.94,0,3.63.27,5.08.81,1.45.54,2.85,1.35,4.21,2.43l-1.74,2.3c-1.23-1.01-2.47-1.74-3.72-2.19-1.25-.45-2.55-.68-3.91-.68-1.74,0-3.11.41-4.11,1.23-1.01.82-1.51,1.83-1.51,3.04v.08c0,.63.1,1.19.3,1.68.2.49.57.94,1.09,1.36s1.26.79,2.19,1.13c.93.34,2.13.66,3.59.96,2.94.65,5.11,1.56,6.51,2.72,1.4,1.16,2.09,2.74,2.09,4.76v.08c0,1.13-.22,2.16-.67,3.08-.45.92-1.06,1.71-1.85,2.36-.79.65-1.73,1.16-2.84,1.51-1.11.35-2.32.53-3.62.53Z"/>
      </g>
      <g>
        <path class="cls-3" d="M228.99.33s15.29,11.75,18.03,25.85c0,0,2.14,7.35-24.85,18.1,0,0-1.8.73-1.14,0,.67-.73,3.81-2.87,3.81-2.87,11.86-8.18,15.83-21.38,4.34-39.94,0,0-1.63-2.31-.2-1.14Z"/>
        <path class="cls-1" d="M216.55,15.71s11.98,3,16.63,10.23c0,0,2.87,3.6-11.68,15.9,0,0-.97.83-.71.26s1.77-2.49,1.77-2.49c5.67-7.33,5.38-15.62-5.65-23.31,0,0-1.49-.91-.36-.59Z"/>
        <path class="cls-4" d="M221.1,46.1c-.06-.66,3.19-.85,9.62-3.51,4.63-1.91,7.57-3.72,8.87-4.56,3.6-2.32,5.86-3.82,7.48-6.71,1.38-2.47,1.41-4.39,1.94-4.36.86.05,1.38,5.12,1.1,9.57-.24,3.91-.38,6.12-1.95,7.8-1.81,1.93-4.39,1.96-9.05,2.02-15.77.2-17.95.27-18-.25Z"/>
      </g>
    </g>
  </g>
</svg>