<?xml version="1.0" encoding="UTF-8"?>
<!-- Generator: Adobe Illustrator 20.0.0, SVG Export Plug-In . SVG Version: 6.00 Build 0)  -->
<svg version="1.1" id="Layer_1" xmlns="http://www.w3.org/2000/svg" xmlns:xlink="http://www.w3.org/1999/xlink" x="0px" y="0px" viewBox="0 0 178.81 37" style="enable-background:new 0 0 178.81 37;" xml:space="preserve">
<style type="text/css">
	.st0{fill:#E57E3B;}
</style>
<g>
	<path class="st0" d="M8.12,0.22h-7.8c-0.07,0-0.12,0.05-0.12,0.12v36.32c0,0.07,0.05,0.12,0.12,0.12H7.6   c0.07,0,0.12-0.05,0.12-0.12V12.3h0.1l15.17,24.42c0.02,0.03,0.06,0.06,0.1,0.06h7.72c0.09,0,0.15-0.1,0.1-0.18l-7.47-11.85   L8.22,0.28C8.2,0.24,8.16,0.22,8.12,0.22z M39.18,21.06h17.48c0.07,0,0.12-0.05,0.12-0.12v-6c0-0.07-0.05-0.12-0.12-0.12H39.18   c-0.07,0-0.12-0.05-0.12-0.12V7.11c0-0.07,0.05-0.12,0.12-0.12h19.06c0.07,0,0.12-0.05,0.12-0.12V0.34c0-0.07-0.05-0.12-0.12-0.12   h-27.1c-0.07,0-0.12,0.05-0.12,0.12v36.32c0,0.07,0.05,0.12,0.12,0.12h27.52c0.07,0,0.12-0.05,0.12-0.12v-6.52   c0-0.07-0.05-0.12-0.12-0.12H39.18c-0.07,0-0.12-0.05-0.12-0.12v-8.72C39.06,21.11,39.12,21.06,39.18,21.06z M116.36,0.22H83.51   c-0.03,0-0.06,0.01-0.09,0.04l-14.05,14.9c-0.07,0.08-0.21,0.03-0.21-0.08V0.34c0-0.07-0.05-0.12-0.12-0.12h-7.8   c-0.07,0-0.12,0.05-0.12,0.12v36.32c0,0.07,0.05,0.12,0.12,0.12h7.8c0.07,0,0.12-0.05,0.12-0.12V25.05c0-0.03,0.01-0.06,0.03-0.08   l4.47-4.53c0.05-0.05,0.14-0.05,0.18,0.02l10.9,16.27c0.02,0.03,0.06,0.05,0.1,0.05h9.8c0.1,0,0.15-0.11,0.1-0.19L79.26,14.74   c-0.03-0.05-0.03-0.11,0.01-0.15l7.49-7.57c0.02-0.02,0.05-0.04,0.08-0.04h10.51c0.07,0,0.12,0.05,0.12,0.12v29.55   c0,0.07,0.05,0.12,0.12,0.12h7.81c0.07,0,0.12-0.05,0.12-0.12V7.11c0-0.07,0.05-0.12,0.12-0.12h10.71c0.07,0,0.12-0.05,0.12-0.12   V0.34C116.48,0.27,116.43,0.22,116.36,0.22z M122.15,0.22c-0.05,0-0.09,0.03-0.11,0.08c-0.34,0.89-3.62,9.55-6.91,18.2   c-3.2,8.43-6.4,16.87-6.87,18.12c-0.03,0.08,0.03,0.16,0.11,0.16h7.88c0.05,0,0.1-0.03,0.11-0.08l2.81-7.99   c0.02-0.05,0.06-0.08,0.11-0.08h13.5c0.05,0,0.1,0.03,0.11,0.08l2.72,7.99c0.02,0.05,0.06,0.08,0.11,0.08h8.09   c0.08,0,0.14-0.08,0.11-0.16c-0.47-1.25-3.62-9.69-6.78-18.12c-3.23-8.65-6.46-17.3-6.8-18.2c-0.02-0.05-0.06-0.08-0.11-0.08   H122.15z M121.46,22.65c-0.08,0-0.14-0.08-0.11-0.16l4.7-13.26h0.11l4.55,13.26c0.03,0.08-0.03,0.16-0.11,0.16H121.46z    M173.93,28.13c-0.27-3.69-1.38-7.53-5.33-8.55v-0.1c4.06-1.64,5.79-4.87,5.79-9.16c0-5.53-4.14-10.09-10.7-10.09H144.1   c-0.07,0-0.12,0.05-0.12,0.12v36.32c0,0.07,0.05,0.12,0.12,0.12h7.8c0.07,0,0.12-0.05,0.12-0.12V22.62c0-0.07,0.05-0.12,0.12-0.12   h7.92c4.04,0,5.53,1.69,6.09,5.52c0.4,2.9,0.32,6.38,1.25,8.69c0.02,0.05,0.06,0.07,0.11,0.07h7.74c0.09,0,0.15-0.1,0.1-0.18   C174.03,34.48,174.08,30.36,173.93,28.13 M160.83,16.77h-8.68c-0.07,0-0.12-0.05-0.12-0.12V6.59c0-0.07,0.05-0.12,0.12-0.12h8.68   c3.58,0,5.53,1.53,5.53,5.07C166.36,15.23,164.41,16.77,160.83,16.77"/>
	<g>
		<path class="st0" d="M176.63,4.22l-0.62-1.08l-0.53,0v1.08h-0.46V1.44h1.28c0.46,0,0.83,0.37,0.83,0.83    c0,0.36-0.23,0.68-0.57,0.79l-0.05,0.02l0.67,1.13H176.63z M175.48,2.66h0.83c0.21,0,0.37-0.17,0.37-0.38    c0-0.21-0.17-0.37-0.37-0.37h-0.83V2.66z"/>
		<path class="st0" d="M175.96,5.47c-1.45,0-2.63-1.18-2.63-2.63s1.18-2.63,2.63-2.63c1.45,0,2.63,1.18,2.63,2.63    S177.41,5.47,175.96,5.47z M175.96,0.66c-1.21,0-2.19,0.98-2.19,2.19s0.98,2.19,2.19,2.19s2.19-0.98,2.19-2.19    S177.17,0.66,175.96,0.66z"/>
	</g>
</g>
</svg>