<?xml version="1.0" encoding="UTF-8"?>
<svg id="Art" xmlns="http://www.w3.org/2000/svg" width="576.0078635" height="170.1" viewBox="0 0 576.0078635 170.1">
  <defs>
    <style>
      .st0 {
        fill: #ffdf00;
      }
    </style>
  </defs>
  <path id="Logo" class="st0" d="M272.9402666,118.4824387c-.1706379-22.2302728,4.9965801-43.9354354-13.7754805-43.9354354-10.1550005,0-21.6746763,15.7154248-27.5961712,27.8514865-.1189516-13.6356344-1.2206137-29.3378017-15.5318349-29.3378017-13.6020323,0-24.1152318,21.6168806-29.5708785,31.6630712,1.8401154-5.7292905,8.9814909-23.2148771,8.9814909-29.2358344,0-5.3994395-3.4208221-8.602153-11.3612569-10.4674395-6.0976313,18.9580944-13.5044638,43.423705-18.6680161,66.0183474-.2363148,1.033969-.4678643,2.3151888-.4678643,3.1345928,0,4.6989261,4.6942218,9.0739273,9.6685634,9.0739273,3.0667775,0,4.5387965-1.4808777,5.8503194-4.2286791,8.8389566-18.5190058,26.0850515-50.8382355,34.5674586-50.8382355,1.8971169,0,2.4497808,2.1544483,2.4567456,5.7974112.0075147,3.8940627-.461877,9.3630892-.7264787,11.6780948-.8533116,7.582358-2.2422416,16.1086312-2.4128795,23.5186407-.1706379,5.1698451,2.8018703,9.3566131,8.4334702,9.3566131,3.3226427,0,4.9987184-2.4877207,6.0471058-4.529449,4.4677432-8.7016154,17.7057113-34.3820969,23.845437-41.8773947,3.1522492-3.8482416,5.4609009-3.2743167,5.6315999,1.0339079.710594,19.9116626-5.2861086,57.7783646,17.1563466,57.7783646,5.3329072,0,9.1545725-2.7085785,9.7247706-6.2829319-7.3481815-2.8731069-12.0298788-4.8211768-12.2524473-26.1712563ZM552.9024683,142.9474995c-17.5472313,0-28.6985664-7.7005154-31.2789068-21.6177359,26.7580111-26.7858093,49.4899947-71.4837693,49.4899947-101.2184431,0-7.6669743-5.631661-12.5995271-12.4579092-12.5995271-15.3588754,0-30.5711842,27.9424567-35.8613251,38.6267828-9.5566376,19.300531-17.4543061,43.770907-17.4543061,65.8288312,0,2.4456263.1270773,5.2501237.3552054,7.366571-5.0256002,4.5511988-11.07014,8.2896529-16.4011533,8.2896529-5.6864019,0-7.4255886-4.6807809-7.4255886-10.7291087,0-8.3210557,2.9333464-17.6434557,2.9333464-24.1848799,0-6.9280323-3.2451744-10.5114278-9.4420237-11.8416456,2.2716282-.7148096,3.4074423-1.1356919,4.4672545-1.4413494,5.0086769-1.6856676,7.5118985-4.0767363,7.5118985-8.4425733,0-2.1807994-.4301426-4.5612011-1.2083068-6.8609575-31.9628215,3.5693248-59.0169512,28.9482401-63.9855218,57.5041172-9.2088247,5.7747451-18.150081,9.9795361-29.4725427,9.9795361-4.6051455,0-8.0309774-.9648097-10.4376863-2.7490844,15.0223039-9.4287051,34.864013-26.888693,34.864013-45.6747443,0-8.2717521-4.7782883-14.4755051-14.5056249-14.4755051-20.9905974,0-39.0800454,25.5044062-39.0800454,49.2855713,0,3.3567336.3567938,6.3841661,1.0486318,9.091095-2.8861201,1.3521509-5.3586892,2.3020534-8.5724609,2.3020534-17.5220603,0,4.3151894-55.4580438-23.3324236-55.4580438-8.41728,0-17.7055892,7.7005765-26.1886683,21.1310545,1.1526763-5.1436965,2.5234611-11.2949006,2.5234611-15.1515122,0-7.631127-5.0628063-9.723556-12.5545613-10.7222734-1.3581993,12.8208126-5.4402508,32.5947063-10.3379795,50.8707991-1.1543258,4.3073082-2.1419239,8.2904472-2.1419239,10.822095,0,4.6527384,5.143391,9.1841424,8.897852,9.1841424,2.5598126,0,4.0957368-2.6298883,6.1435746-7.7996723,6.6039242-16.8567375,20.0154016-42.8251589,29.951316-42.8251589,12.2862939,0-7.050894,53.0003818,23.1054563,53.0003818,5.9425726,0,11.8087155-2.3522734,17.6312978-5.7544005,4.6509666,4.9294369,12.1970954,7.6754054,21.8252751,7.6754054,11.1123566,0,22.7061844-4.5621347,31.2959963-10.5789375,1.768329,5.1027019,5.8858326,9.3530696,13.6068759,9.3530696,9.3293649,0,20.7110275-9.0281673,30.9164923-23.9758133.6367304,9.4739763,4.4632222,21.9078142,19.4267529,21.9078142,8.8040103,0,15.3445181-4.0898106,21.9818001-9.074966.0204057.0621945.0398949.1220064.0604839.1845675,5.7732177,14.3431737,19.6450447,21.736993,37.837743,21.736993,11.4202745,0,18.5177228-2.3942456,22.5755197-5.0809521,3.3223372-2.1995974,5.7690632-5.2304512,6.7941124-8.6786437-6.4004173,1.3500126-13.7485988,2.7953943-23.1053952,2.7953943ZM377.8481658,117.6483109c0-13.6608666,11.9738549-35.3270507,22.4035988-35.3270507,1.8771389,0,3.0241333,1.1942819,3.0241333,3.2742556,0,8.381173-12.0204702,23.466649-25.3981622,33.3088439-.0119135-.3189761-.0295699-.9274196-.0295699-1.2560487ZM440.5308573,127.7102029c-1.9119018,0-2.9641382-1.0809509-2.9641382-3.4152014,0-12.660011,16.5925634-35.7649785,34.5945236-42.3016373-2.1664229,15.8618081-22.7869078,45.7168386-31.6303854,45.7168386ZM555.0718237,23.3659647c.5120969-.5170456,1.5358631-1.5509535,1.5358631.1723485,0,19.8175766-22.7206199,63.8175892-35.861264,81.0502432,2.04796-24.2980275,17.2599634-61.9220608,34.3254009-81.2225918ZM169.0436092,85.9146752c4.9491094-2.412574,7.2146282-6.0080662,7.255073-12.0139331-5.4951751,1.6129648-19.6360638,5.4703095-25.812263,6.9185015,4.3049255-20.15928,12.3300378-49.2846549,15.1203611-60.4905477,3.0250497-12.1484639-2.9975571-18.6762028-14.2356468-20.328696-.9788004,2.024133-2.7132828,5.0844345-3.6830411,6.6697844-19.2672954,31.496771-49.8517983,70.5219533-69.4964765,91.2368297-8.0321382,2.3799494-18.7730992,4.5907882-24.2853198,4.820627C16.723062,99.4853047,0,108.3618958,0,114.8923228c0,5.7728511,9.2175002,7.4258941,18.8709732,7.4258941,14.6535355,0,27.7344288-3.435607,36.6167627-5.8976068,1.7368651.2150538,3.0755752.4701859,4.5207735.7851908-14.3688946,14.4336552-33.1203052,31.3908326-44.5541428,39.1455391-3.754461,2.5849225-8.710352,5.9552192-13.6048426,8.6868305,2.5394069,3.0053161,5.450026,5.0618294,10.1421706,5.0618294,17.4682968,0,47.7614995-30.2281367,64.3243709-47.2988894,19.899016,6.6876852,34.7855061,18.0542574,44.1520166,32.673091,1.4101299,2.037635,2.4750129,4.247252,4.6936108,5.2812821,1.332845.6375246,3.3240479.867119,5.36822.8429866,8.4764198-.1002566,9.4999416-2.9458097,9.4999416-5.9498429,0-1.8235587-.2157259-5.196849-.2157259-6.8883817,0-13.5373939,5.0061109-40.6996696,8.0207745-55.5823107,8.549306-2.5146635,16.4304177-5.022912,21.208706-7.2632597ZM122.3080752,136.706051c-10.1262859-12.1628212-24.9661606-19.8136054-36.5307412-23.7188485,2.4925471-2.7724226,5.0253558-5.5590803,5.0253558-5.5590803,12.6972177-2.9793508,24.3847822-5.8437211,37.7720661-9.354597-2.5832119,12.9845467-4.7435253,24.3696918-6.2666807,38.6325258ZM131.2813794,85.2762953c-3.0717262.8616816-21.7776822,5.6638579-27.4990915,6.8931471,12.4547934-14.9436749,26.4144137-33.2010726,38.7753044-52.2320531-3.4437938,12.515094-7.753057,30.466651-11.2762129,45.338906Z"/>
</svg>