<svg width="746" height="143" viewBox="0 0 746 143" fill="none" xmlns="http://www.w3.org/2000/svg">
<path d="M223.688 97.365L219.988 87.1965H190.066L186.469 97.365H167.549L198.5 25.4666H211.661L242.613 97.365H223.693H223.688ZM205.079 45.7995L195.209 72.9143H214.849L205.079 45.7995ZM269.372 84.6275C271.427 84.6275 273.072 84.3177 274.718 83.8056V97.1585C272.969 97.8771 268.239 98.5958 264.745 98.5958C252.304 98.5958 246.648 91.1986 246.648 79.7993V59.4622H237.701V45.5972H246.648V30.0883H263.509V45.5972H275.23V59.4622H263.509V78.7709C263.509 82.7772 265.361 84.6275 269.372 84.6275ZM305.202 44.3622C313.017 44.3622 319.185 48.0588 321.55 53.3V45.5972H338.105V97.365H321.86V89.6622C318.983 94.5937 313.017 98.6 305.202 98.6C290.189 98.6 279.291 86.8909 279.291 71.4852C279.291 56.0796 290.189 44.3705 305.202 44.3705M308.593 84.6275C315.998 84.6275 321.24 79.0807 321.24 71.4811C321.24 63.8815 315.998 58.3347 308.593 58.3347C301.187 58.3347 296.152 63.9848 296.152 71.4811C296.152 78.9774 301.291 84.6275 308.593 84.6275ZM361.139 97.365H344.278V45.5972H361.139V97.365ZM362.375 30.1874C362.375 35.631 358.158 39.7406 352.709 39.7406C347.259 39.7406 343.042 35.631 343.042 30.1874C343.042 24.7438 347.359 20.7375 352.709 20.7375C358.059 20.7375 362.375 24.9503 362.375 30.1874ZM428.074 77.2303C428.074 88.324 417.998 97.3609 403.498 97.3609H367.821V25.4625H402.059C412.648 25.4625 422.211 32.7564 422.211 43.7468C422.211 50.5245 418.304 56.4844 411.722 59.2557C422.005 61.2093 428.07 66.9585 428.07 77.2303M410.593 75.3841C410.593 70.5559 406.479 67.4748 400.823 67.4748H385.091V83.4999H401.336C406.785 83.4999 410.589 79.9067 410.589 75.3841M385.091 53.8121H397.019C402.159 53.8121 405.144 50.731 405.144 46.3158C405.144 42.3095 401.749 39.3317 396.507 39.3317H385.095V53.8163L385.091 53.8121ZM460.519 86.3745C465.559 86.3745 469.466 84.421 471.417 81.2407H486.943C483.755 91.0004 473.472 98.6 460.519 98.6C442.421 98.6 432.139 87.2997 432.139 71.382C432.139 55.4642 443.653 44.3664 459.799 44.3664C475.945 44.3664 487.356 54.8447 487.356 71.5844V76.619H448.694C449.723 82.2691 453.217 86.3787 460.519 86.3787M460.002 56.0713C453.626 56.0713 449.616 59.7678 448.689 66.2399H471.207C470.384 60.0776 466.373 56.0713 459.998 56.0713M520.623 44.3622C535.739 44.3622 546.121 54.221 548.284 65.5212H531.936C530.393 61.7214 526.999 58.3306 520.524 58.3306C512.71 58.3306 508.596 64.2863 508.596 71.477C508.596 78.6676 512.71 84.6234 520.524 84.6234C527.003 84.6234 530.393 81.2325 531.936 77.4327H548.284C546.126 88.7329 535.739 98.5917 520.623 98.5917C503.142 98.5917 491.937 87.0891 491.937 71.477C491.937 55.8648 503.146 44.3622 520.623 44.3622ZM571.045 97.365H554.184V22.3855H571.045V70.6592L587.496 45.5972H606.106L588.522 71.3778L607.028 97.365H587.389L571.041 72.8151V97.365H571.045ZM630.037 97.365H613.176V22.3855H630.037V97.365ZM663.577 86.3745C668.617 86.3745 672.525 84.421 674.476 81.2407H690.001C686.814 91.0004 676.535 98.6 663.577 98.6C645.48 98.6 635.197 87.2997 635.197 71.382C635.197 55.4642 646.712 44.3664 662.858 44.3664C679.003 44.3664 690.411 54.8447 690.411 71.5844V76.619H651.752C652.782 82.2691 656.275 86.3787 663.577 86.3787M663.064 56.0713C656.689 56.0713 652.678 59.7678 651.752 66.2399H674.269C673.451 60.0776 669.44 56.0713 663.064 56.0713ZM716.711 79.0807L727.821 45.5972H745.194L724.53 97.365L716.715 118.834H699.135L708.078 95.3123L688.232 45.5972H705.61L716.711 79.0807Z" fill="#00C9AD"/>
<path d="M71.5576 0C32.039 0 0 32.0049 0 71.4813C0 110.958 32.039 142.962 71.5576 142.962C111.076 142.962 143.115 110.958 143.115 71.4813C143.115 32.0049 111.08 0 71.5576 0ZM40.8664 84.8548C44.9845 84.8548 48.6684 82.9962 51.1244 80.072V80.0803C53.6919 76.8422 57.5041 75.1034 61.3451 75.0332H68.0101V97.8484H54.2543V95.0688C50.3016 97.3115 45.737 98.6001 40.8664 98.6001C25.8743 98.6001 13.7227 86.4615 13.7227 71.4854C13.7227 56.5093 25.8743 44.3707 40.8664 44.3707C45.737 44.3707 50.3016 45.6593 54.2543 47.902V45.1223H68.0101V67.9417H61.3451C57.5041 67.8714 53.6878 66.1244 51.1244 62.8946C48.6684 59.9704 44.9845 58.1118 40.8623 58.1118C33.4696 58.1118 27.4744 64.1006 27.4744 71.4854C27.4744 78.8702 33.4696 84.859 40.8623 84.859L40.8664 84.8548ZM102.212 98.596C97.341 98.596 92.7722 97.3073 88.8237 95.0647V97.8443H75.0679V75.0249H81.7328C85.5739 75.0952 89.3901 76.8422 91.9536 80.072C94.4095 82.9962 98.0935 84.8548 102.216 84.8548C109.608 84.8548 115.604 78.866 115.604 71.4813C115.604 64.0965 109.608 58.1077 102.216 58.1077C98.0976 58.1077 94.4137 59.9663 91.9577 62.8904V62.8822C89.3901 66.1202 85.578 67.8591 81.737 67.9293H75.072V27.9201H88.8278V47.8896C92.7805 45.6469 97.3451 44.3583 102.216 44.3583C117.208 44.3583 129.359 56.4969 129.359 71.473C129.359 86.4491 117.208 98.5877 102.216 98.5877L102.212 98.596Z" fill="#2B3D7A"/>
</svg>
