<?xml version="1.0" encoding="UTF-8" standalone="no"?>
<!-- Created with Inkscape (http://www.inkscape.org/) -->
<svg
   xmlns:svg="http://www.w3.org/2000/svg"
   xmlns="http://www.w3.org/2000/svg"
   version="1.0"
   width="744.09448"
   height="227.83464"
   id="svg2225">
  <defs
     id="defs2227" />
  <g
     transform="translate(-524.50091,-337.08012)"
     id="layer1">
    <g
       transform="matrix(1.2377773,0,0,1.2377773,-106.99786,-108.27764)"
       id="g8302">
      <path
         d="M 709.20371,529.61107 L 732.05891,529.61107 L 732.05891,474.27152 L 709.20371,474.27152 L 709.20371,529.61107 z "
         style="fill:#004481;fill-opacity:1;fill-rule:nonzero;stroke:none"
         id="path7728" />
      <path
         d="M 524.50089,474.62802 L 547.55407,474.62802 L 547.55407,392.33761 L 524.50089,392.33761 L 524.50089,474.62802 z "
         style="fill:#004481;fill-opacity:1;fill-rule:nonzero;stroke:none"
         id="path7730" />
      <path
         d="M 555.31772,474.62802 L 578.3709,474.62802 L 578.3709,392.33761 L 555.31772,392.33761 L 555.31772,474.62802 z "
         style="fill:#004481;fill-opacity:1;fill-rule:nonzero;stroke:none"
         id="path7732" />
      <path
         d="M 585.85725,474.62802 L 609.10851,474.62802 L 609.10851,392.33761 L 585.85725,392.33761 L 585.85725,474.62802 z "
         style="fill:#004481;fill-opacity:1;fill-rule:nonzero;stroke:none"
         id="path7734" />
      <path
         d="M 637.86559,460.35642 L 638.06363,460.76837 L 638.2617,461.28329 L 638.81624,461.63978 L 639.41038,462.20622 L 640.12338,462.36464 L 641.03441,462.76869 L 642.18312,462.76869 L 643.33181,462.92315 L 644.32206,462.76869 L 645.47078,462.76869 L 646.18374,462.36464 L 646.93634,462.20622 L 647.64934,461.63978 L 648.20387,461.28329 L 648.48114,460.76837 L 648.63959,460.35642 L 648.63959,409.58789 L 648.48114,409.17594 L 648.20387,408.61347 L 647.64934,408.24904 L 646.93634,407.6866 L 646.18374,407.53211 L 645.47078,407.12413 L 644.32206,407.12413 L 643.33181,406.86664 L 642.18312,407.12413 L 641.03441,407.12413 L 640.12338,407.53211 L 639.41038,407.6866 L 638.81624,408.24904 L 638.2617,408.61347 L 638.06363,409.17594 L 637.86559,409.58789 L 637.86559,460.35642 z M 670.5441,460.56239 L 670.34603,462.36464 L 669.94995,464.05602 L 669.39538,465.6444 L 668.44474,467.28823 L 667.33567,468.67456 L 665.83046,470.06093 L 664.28566,471.4473 L 662.66164,472.78215 L 660.56228,473.91503 L 658.38373,474.83396 L 656.16555,475.55092 L 653.7097,476.37482 L 651.25388,476.93729 L 648.63959,477.50373 L 646.02531,477.71364 L 643.13377,477.86416 L 640.36103,477.71364 L 637.62794,477.50373 L 635.01366,476.93729 L 632.5578,476.37482 L 630.14156,475.55092 L 627.84416,474.83396 L 625.78445,473.91503 L 623.7247,472.78215 L 621.98184,471.4473 L 620.43704,470.06093 L 619.01109,468.67456 L 617.82276,467.28823 L 616.87212,465.6444 L 616.27797,464.05602 L 615.92147,462.36464 L 615.76302,460.56239 L 615.76302,409.73841 L 615.92147,408.09458 L 616.27797,406.14971 L 616.87212,404.66037 L 617.82276,402.96109 L 619.01109,401.47172 L 620.43704,399.93486 L 621.98184,398.85744 L 623.7247,397.4711 L 625.78445,396.2907 L 627.84416,395.41926 L 630.14156,394.49635 L 632.5578,393.92992 L 635.01366,393.21299 L 637.62794,392.80104 L 640.36103,392.38909 L 646.02531,392.38909 L 651.25388,393.21299 L 653.7097,393.92992 L 656.16555,394.49635 L 658.38373,395.41926 L 660.56228,396.2907 L 662.66164,397.4711 L 664.28566,398.85744 L 665.83046,399.93486 L 667.33567,401.47172 L 668.44474,402.96109 L 669.39538,404.66037 L 669.94995,406.14971 L 670.34603,408.09458 L 670.5441,409.73841 L 670.5441,460.56239"
         style="fill:#004481;fill-opacity:1;fill-rule:nonzero;stroke:none"
         id="path7736" />
      <path
         d="M 883.84561,460.35642 L 884.00401,460.76837 L 884.40011,461.28329 L 884.83581,461.63978 L 885.39041,462.20622 L 886.30141,462.36464 L 887.17281,462.76869 L 888.16311,462.76869 L 889.07421,462.92315 L 890.22281,462.76869 L 891.17351,462.76869 L 892.12411,462.36464 L 893.07481,462.20622 L 893.66891,461.63978 L 894.06501,461.28329 L 894.38191,460.76837 L 894.58001,460.35642 L 894.58001,409.58789 L 894.38191,409.17594 L 894.06501,408.61347 L 893.66891,408.24904 L 893.07481,407.6866 L 892.12411,407.53211 L 891.17351,407.12413 L 890.22281,407.12413 L 889.07421,406.86664 L 888.16311,407.12413 L 887.17281,407.12413 L 886.30141,407.53211 L 885.39041,407.6866 L 884.83581,408.24904 L 884.40011,408.61347 L 884.00401,409.17594 L 883.84561,409.58789 L 883.84561,460.35642 z M 916.32601,460.56239 L 916.12801,462.36464 L 915.92991,464.05602 L 915.21691,465.6444 L 914.18711,467.28823 L 913.07801,468.67456 L 911.77091,470.06093 L 910.02801,471.4473 L 908.40401,472.78215 L 906.54231,473.91503 L 904.24491,474.83396 L 902.02671,475.55092 L 899.72931,476.37482 L 897.23391,476.93729 L 894.38191,477.50373 L 891.76761,477.71364 L 888.91571,477.86416 L 886.10341,477.71364 L 883.44951,477.50373 L 880.83521,476.93729 L 878.33971,476.37482 L 875.72551,475.55092 L 873.58651,474.83396 L 871.36831,473.91503 L 869.46711,472.78215 L 867.52611,471.4473 L 866.02091,470.06093 L 864.75341,468.67456 L 863.64431,467.28823 L 862.69371,465.6444 L 861.86191,464.05602 L 861.50541,462.36464 L 861.38651,460.56239 L 861.38651,409.73841 L 861.50541,408.09458 L 861.86191,406.14971 L 862.69371,404.66037 L 863.64431,402.96109 L 864.75341,401.47172 L 866.02091,399.93486 L 867.52611,398.85744 L 869.46711,397.4711 L 871.36831,396.2907 L 873.58651,395.41926 L 875.72551,394.49635 L 878.33971,393.92992 L 880.83521,393.21299 L 883.44951,392.80104 L 886.10341,392.38909 L 891.76761,392.38909 L 894.38191,392.80104 L 897.23391,393.21299 L 899.72931,393.92992 L 902.02671,394.49635 L 904.24491,395.41926 L 906.54231,396.2907 L 908.40401,397.4711 L 910.02801,398.85744 L 911.77091,399.93486 L 913.07801,401.47172 L 914.18711,402.96109 L 915.21691,404.66037 L 915.92991,406.14971 L 916.12801,408.09458 L 916.32601,409.73841 L 916.32601,460.56239"
         style="fill:#004481;fill-opacity:1;fill-rule:nonzero;stroke:none"
         id="path7738" />
      <path
         d="M 732.05891,406.71218 L 732.05891,437.8736 L 709.40181,437.8736 L 709.40181,415.5928 L 709.04531,414.46392 L 708.64921,413.53702 L 708.09471,412.76858 L 707.50051,411.84567 L 706.58941,411.43372 L 705.83691,411.07723 L 703.77711,411.07723 L 702.86611,411.43372 L 701.87581,411.84567 L 701.08361,412.76858 L 700.52911,413.53702 L 700.17261,414.46392 L 699.77651,415.5928 L 699.77651,474.62802 L 677.27784,474.62802 L 677.27784,392.38909 L 699.77651,392.38909 L 699.77651,406.71218 L 699.77651,405.22281 L 700.01411,403.88796 L 700.52911,402.40259 L 701.08361,401.0677 L 701.67781,399.78434 L 702.43041,398.44945 L 703.57911,397.32058 L 704.49011,396.34219 L 705.83691,395.3638 L 706.98561,394.44487 L 708.29271,393.87446 L 709.59981,393.16147 L 711.30311,392.54355 L 712.64981,392.23063 L 714.35311,392.0326 L 717.71991,392.0326 L 719.42321,392.23063 L 720.96801,392.54355 L 722.47321,393.16147 L 723.78031,393.87446 L 725.12711,394.44487 L 726.23621,395.3638 L 727.54331,396.34219 L 728.45431,397.4711 L 729.48421,398.59998 L 730.19721,399.78434 L 730.98941,401.0677 L 731.54401,402.40259 L 731.90051,403.88796 L 732.05891,405.22281 L 732.05891,406.71218"
         style="fill:#004481;fill-opacity:1;fill-rule:nonzero;stroke:none"
         id="path7740" />
      <path
         d="M 854.73201,406.71218 L 854.73201,474.88548 L 832.03531,474.88548 L 832.03531,415.5928 L 831.67881,414.46392 L 831.32231,413.53702 L 830.72821,412.76858 L 830.01521,412.00016 L 829.22301,411.43372 L 828.31191,411.07723 L 826.41061,411.07723 L 825.26191,411.6397 L 824.50931,412.00016 L 823.99441,412.76858 L 823.16261,413.53702 L 822.64771,414.46392 L 822.41001,415.5928 L 822.41001,474.62802 L 800.03021,474.62802 L 800.03021,374.06535 L 822.41001,374.06535 L 822.41001,406.71218 L 822.41001,405.42878 L 822.64771,403.88796 L 823.16261,402.40259 L 823.59831,401.0677 L 824.35091,399.78434 L 825.26191,398.44945 L 826.05421,397.32058 L 828.31191,395.3638 L 829.42101,394.44487 L 830.92621,393.87446 L 832.27291,393.16147 L 833.77821,392.80104 L 835.48141,392.38909 L 836.98661,392.0326 L 840.35351,392.0326 L 841.89831,392.38909 L 843.40341,392.80104 L 844.90871,393.16147 L 846.41381,393.87446 L 847.76061,394.44487 L 849.06771,395.3638 L 851.16711,397.4711 L 851.88011,398.59998 L 852.83071,399.78434 L 853.62291,401.0677 L 853.97941,402.60459 L 854.53391,403.88796 L 854.53391,405.42878 L 854.73201,406.71218"
         style="fill:#004481;fill-opacity:1;fill-rule:nonzero;stroke:none"
         id="path7742" />
      <path
         d="M 980.93041,462.41219 L 980.93041,392.38909 L 1003.5479,392.38909 L 1003.5479,453.53154 L 1003.944,454.86643 L 1004.3402,455.63487 L 1004.8947,456.55777 L 1005.4492,457.33019 L 1006.3999,457.68668 L 1007.3109,458.04715 L 1008.3012,458.30461 L 1009.4103,458.04715 L 1010.2025,457.68668 L 1011.1135,457.33019 L 1011.8661,456.55777 L 1012.4603,455.63487 L 1012.8168,454.66045 L 1013.2128,453.53154 L 1013.2128,392.54355 L 1035.7115,392.54355 L 1035.7115,497.52275 L 1013.2128,497.52275 L 1013.2128,462.41219 L 1013.2128,463.90153 L 1013.0148,465.38691 L 1012.4603,466.72179 L 1011.8661,468.21113 L 1011.3115,469.54601 L 1010.5589,470.67489 L 1007.3109,473.91503 L 1006.0434,474.62802 L 1004.6966,475.40437 L 1003.3499,475.96287 L 1001.6863,476.52931 L 1000.3395,476.89371 L 998.67591,477.09178 L 996.93301,477.29775 L 995.22981,477.09178 L 993.76421,476.89371 L 992.02131,476.52931 L 990.51611,475.96287 L 989.16941,475.40437 L 987.86231,474.62802 L 986.79281,473.91503 L 985.44601,472.73067 L 984.53501,471.8038 L 983.54471,470.67489 L 982.79211,469.34004 L 982.03951,468.21113 L 981.44541,466.72179 L 981.08891,465.38691 L 980.93041,463.90153 L 980.93041,462.41219"
         style="fill:#004481;fill-opacity:1;fill-rule:nonzero;stroke:none"
         id="path7744" />
      <path
         d="M 761.33091,455.63487 L 761.52901,456.04682 L 761.72701,456.60929 L 762.04391,456.96972 L 762.71721,457.33019 L 763.43021,457.68668 L 764.18281,457.68668 L 765.17311,457.84117 L 766.79711,457.84117 L 767.78741,457.68668 L 768.73801,457.68668 L 769.29261,457.33019 L 769.84711,456.96972 L 770.24321,456.60929 L 770.63931,456.04682 L 770.63931,412.61805 L 770.24321,412.20217 L 769.84711,411.6397 L 769.29261,411.22775 L 767.78741,410.81977 L 766.79711,410.81977 L 766.08411,410.66528 L 765.17311,410.81977 L 764.18281,410.81977 L 763.43021,411.07723 L 762.71721,411.22775 L 762.04391,411.6397 L 761.72701,412.20217 L 761.52901,412.61805 L 761.33091,412.92306 L 761.33091,455.63487 z M 761.33091,463.48958 L 761.33091,529.55562 L 738.11931,529.55562 L 738.11931,392.38909 L 761.33091,392.38909 L 761.33091,406.71218 L 761.52901,405.17132 L 761.72701,403.93944 L 762.04391,402.40259 L 762.71721,401.0677 L 763.43021,399.93486 L 764.18281,398.59998 L 765.17311,397.62556 L 766.28221,396.69869 L 767.35171,395.72823 L 768.73801,394.85285 L 770.08481,394.29038 L 771.39191,393.51797 L 773.01591,393.16147 L 774.40231,392.80104 L 776.02631,392.54355 L 777.72961,392.38909 L 779.47241,392.54355 L 780.97761,392.80104 L 782.52241,393.16147 L 783.98801,393.51797 L 785.53281,394.29038 L 786.87951,394.85285 L 788.14711,395.72823 L 789.09771,396.69869 L 790.20681,397.62556 L 791.19711,398.59998 L 792.10811,399.93486 L 792.70231,401.0677 L 793.25681,402.40259 L 793.65291,403.93944 L 793.81131,405.17132 L 794.04901,406.71218 L 793.81131,408.76796 L 793.81131,465.23638 L 793.41521,466.72179 L 793.09841,468.05664 L 792.54381,469.18555 L 791.94971,470.47288 L 791.19711,471.65328 L 790.20681,472.78215 L 789.09771,473.70509 L 788.02831,474.42205 L 786.87951,475.14294 L 785.53281,475.96287 L 783.98801,476.52931 L 782.52241,476.89371 L 780.97761,477.29775 L 779.47241,477.71364 L 776.02631,477.71364 L 774.40231,477.29775 L 773.01591,476.89371 L 771.39191,476.37482 L 770.08481,475.96287 L 768.73801,475.14294 L 767.35171,474.42205 L 766.28221,473.49911 L 764.18281,471.39582 L 763.43021,470.06093 L 762.71721,468.93599 L 762.04391,467.70018 L 761.72701,466.31381 L 761.52901,464.97892 L 761.33091,463.48958"
         style="fill:#004481;fill-opacity:1;fill-rule:nonzero;stroke:none"
         id="path7746" />
      <path
         d="M 976.77141,460.56239 L 976.57331,462.05173 L 976.21681,463.38661 L 975.42461,465.03044 L 974.47401,466.36529 L 973.36491,467.85463 L 972.05771,469.18555 L 970.31491,470.72637 L 968.61161,472.00977 L 966.55191,473.19017 L 964.45261,474.27152 L 962.23441,475.24591 L 959.73891,476.16885 L 957.12471,476.93729 L 954.62921,477.34924 L 951.81691,477.71364 L 949.00451,477.86416 L 946.19221,477.71364 L 943.49871,477.50373 L 940.84481,476.93729 L 938.42861,476.37482 L 935.97281,475.60241 L 933.71501,474.88548 L 931.57601,473.70509 L 929.55591,472.6277 L 927.85261,471.4473 L 926.10981,469.9619 L 924.80261,468.62308 L 923.53511,467.13374 L 922.78251,465.43842 L 922.18841,463.69556 L 921.79221,462.05173 L 921.59421,460.35642 L 921.59421,444.29046 L 944.05321,444.29046 L 944.05321,459.99992 L 944.29091,460.56239 L 944.64741,460.92282 L 945.00391,461.54075 L 945.55851,461.84576 L 946.54871,462.20622 L 947.30131,462.41219 L 948.21231,462.61817 L 950.31171,462.61817 L 951.81691,462.20622 L 952.37141,461.84576 L 952.96561,461.54075 L 953.32211,460.92282 L 953.52011,460.56239 L 953.71821,459.99992 L 953.71821,454.91791 L 953.52011,453.58306 L 953.52011,452.80668 L 953.32211,451.68174 L 952.96561,450.75884 L 952.17341,449.42396 L 951.26231,448.29508 L 950.11361,446.80574 L 949.00451,445.62535 L 948.05391,444.54399 L 946.90521,443.77554 L 945.55851,442.80112 L 944.40971,442.03268 L 943.14221,441.31178 L 941.79551,440.54334 L 940.32991,439.82244 L 938.98311,439.20845 L 937.63641,438.48756 L 936.32921,437.8736 L 935.02211,437.15268 L 933.71501,436.59024 L 932.36821,435.81386 L 931.21951,435.25536 L 929.91241,434.32849 L 928.92211,433.56004 L 928.20911,432.63711 L 927.29811,431.86866 L 926.50591,431.14777 L 925.59491,430.17335 L 925.04031,429.40097 L 924.44611,428.27206 L 923.85201,427.34916 L 923.25781,426.22025 L 922.78251,425.09134 L 922.54491,423.75252 L 922.18841,422.42557 L 921.79221,421.08676 L 921.79221,419.59742 L 921.59421,417.90207 L 921.59421,409.79386 L 921.79221,408.09458 L 922.18841,406.2012 L 922.78251,404.66037 L 923.69351,402.96109 L 924.80261,401.47172 L 926.34741,399.93486 L 927.85261,398.80595 L 929.55591,397.51862 L 931.57601,396.34219 L 935.97281,394.44487 L 938.42861,393.92992 L 940.84481,393.16147 L 943.49871,392.80104 L 946.19221,392.38909 L 949.00451,392.38909 L 954.62921,392.80104 L 957.12471,393.16147 L 959.73891,393.92992 L 962.23441,394.69836 L 964.45261,395.41926 L 966.55191,396.34219 L 968.45321,397.51862 L 970.31491,398.80595 L 971.82011,400.14477 L 973.36491,401.68166 L 974.47401,403.171 L 975.42461,404.86634 L 976.21681,406.55769 L 976.57331,408.09458 L 976.77141,409.94832 L 976.77141,423.39603 L 953.71821,423.39603 L 953.71821,410.92274 L 953.32211,409.79386 L 952.96561,409.4334 L 952.17341,409.02145 L 951.42081,408.66496 L 950.66821,408.45898 L 949.71751,408.24904 L 947.81621,408.24904 L 946.90521,408.45898 L 946.19221,408.66496 L 945.20201,409.02145 L 944.84551,409.4334 L 944.29091,409.79386 L 944.05321,410.35633 L 943.93441,410.92274 L 943.93441,414.30943 L 944.05321,415.08181 L 944.40971,416.00078 L 944.84551,416.92768 L 945.40001,417.90207 L 946.19221,418.82897 L 946.90521,419.59742 L 948.05391,420.31831 L 949.00451,421.28876 L 950.11361,422.06117 L 951.26231,422.98408 L 952.37141,423.75252 L 953.71821,424.47345 L 954.82731,425.24186 L 956.13441,426.22025 L 957.12471,426.98869 L 958.39221,427.70959 L 959.38241,428.63252 L 961.64021,430.17335 L 962.78891,431.30226 L 963.89801,432.22516 L 965.04671,433.19958 L 966.15581,434.32849 L 967.30451,435.25536 L 968.45321,436.38426 L 969.60191,437.3032 L 970.55251,438.48756 L 971.62201,439.41443 L 972.41421,440.54334 L 973.36491,441.72373 L 974.31551,442.64663 L 975.02851,443.77554 L 975.42461,444.54399 L 975.78111,445.47086 L 976.33561,446.19175 L 976.33561,447.36424 L 976.77141,448.44954 L 976.77141,450.75884 L 976.92981,451.88772 L 976.92981,454.14156 L 976.77141,455.27441 L 976.77141,460.56239"
         style="fill:#004481;fill-opacity:1;fill-rule:nonzero;stroke:none"
         id="path7814" />
      <path
         d="M 1096.8698,460.56239 L 1096.6322,462.05173 L 1096.2757,463.38661 L 1095.5627,465.03044 L 1094.5724,466.36529 L 1093.4633,467.85463 L 1092.1166,469.18555 L 1090.4133,470.72637 L 1088.7497,472.00977 L 1086.6108,473.19017 L 1084.551,474.27152 L 1082.1744,475.24591 L 1079.8374,476.16885 L 1077.2231,476.93729 L 1074.5692,477.34924 L 1071.9549,477.71364 L 1069.0634,477.86416 L 1066.2511,477.71364 L 1063.5575,477.50373 L 1060.7452,476.93729 L 1058.329,476.37482 L 1055.8732,475.60241 L 1053.6154,474.88548 L 1051.516,473.70509 L 1049.4563,472.6277 L 1047.7531,471.4473 L 1046.0102,469.9619 L 1044.7427,468.62308 L 1043.5939,467.13374 L 1042.6433,465.43842 L 1042.0492,463.69556 L 1041.6927,462.05173 L 1041.5738,460.35642 L 1041.5738,444.29046 L 1064.1913,444.29046 L 1064.1913,459.99992 L 1064.3498,460.56239 L 1064.5478,460.92282 L 1065.1023,461.54075 L 1065.6965,461.84576 L 1066.4491,462.20622 L 1067.4394,462.41219 L 1068.3504,462.61817 L 1070.2517,462.61817 L 1071.1627,462.41219 L 1071.9549,462.20622 L 1072.5095,461.84576 L 1073.064,461.54075 L 1073.4205,460.92282 L 1073.6582,460.56239 L 1073.6582,452.80668 L 1073.2225,451.68174 L 1072.866,450.75884 L 1072.3114,449.42396 L 1071.3212,448.29508 L 1070.2517,446.80574 L 1069.0634,445.62535 L 1067.9543,444.54399 L 1066.8056,443.77554 L 1065.6965,442.80112 L 1064.3498,442.03268 L 1063.003,441.31178 L 1061.7355,440.54334 L 1060.4283,439.82244 L 1058.8835,439.20845 L 1057.5764,438.48756 L 1056.4277,437.8736 L 1054.9621,437.15268 L 1053.7738,436.59024 L 1052.427,435.81386 L 1051.1595,435.25536 L 1050.0108,434.32849 L 1049.0602,433.56004 L 1047.3569,431.86866 L 1046.4459,431.14777 L 1045.6933,430.17335 L 1045.0992,429.40097 L 1044.3862,428.27206 L 1043.7524,427.34916 L 1043.1979,426.22025 L 1042.8414,425.09134 L 1042.4849,423.75252 L 1042.0492,422.42557 L 1041.6927,421.08676 L 1041.6927,419.59742 L 1041.5738,417.90207 L 1041.5738,409.79386 L 1041.6927,408.09458 L 1042.0492,406.2012 L 1042.6433,404.66037 L 1043.5939,402.96109 L 1044.7427,401.47172 L 1046.2082,399.93486 L 1047.7531,398.80595 L 1049.4563,397.51862 L 1051.516,396.34219 L 1053.7738,395.41926 L 1055.8732,394.44487 L 1058.329,393.92992 L 1060.7452,393.16147 L 1063.5575,392.80104 L 1066.2511,392.38909 L 1069.0634,392.38909 L 1071.9549,392.59507 L 1074.5692,392.80104 L 1077.2231,393.16147 L 1079.8374,393.92992 L 1082.1744,394.69836 L 1084.4322,395.41926 L 1086.6108,396.34219 L 1088.7497,397.51862 L 1090.4133,398.80595 L 1092.1166,400.14477 L 1093.4633,401.68166 L 1094.5724,403.171 L 1095.5627,404.86634 L 1096.2757,406.55769 L 1096.6322,408.09458 L 1096.8698,409.94832 L 1096.8698,423.39603 L 1073.6582,423.39603 L 1073.6582,410.35633 L 1073.2225,409.79386 L 1072.866,409.4334 L 1072.3114,409.02145 L 1071.5192,408.66496 L 1070.6082,408.45898 L 1069.6971,408.24904 L 1067.7166,408.24904 L 1066.8056,408.45898 L 1066.0926,408.66496 L 1065.34,409.02145 L 1064.7459,409.4334 L 1064.3498,409.79386 L 1064.1913,410.35633 L 1063.9933,410.92274 L 1063.9933,414.30943 L 1064.1913,415.08181 L 1064.3498,416.00078 L 1064.9043,416.92768 L 1065.5381,417.90207 L 1066.2511,418.82897 L 1067.1621,419.59742 L 1067.9543,420.31831 L 1069.0634,421.28876 L 1070.2517,422.06117 L 1071.3212,422.98408 L 1072.5095,423.75252 L 1073.8562,424.47345 L 1074.9257,425.24186 L 1076.114,426.22025 L 1077.3816,426.98869 L 1078.2926,427.70959 L 1079.4809,428.63252 L 1080.5504,429.40097 L 1081.7387,430.17335 L 1082.8874,431.30226 L 1083.9965,432.22516 L 1085.1452,433.19958 L 1086.2543,434.32849 L 1087.403,435.25536 L 1088.7497,436.38426 L 1089.6607,437.3032 L 1090.7698,438.48756 L 1091.7601,439.41443 L 1092.7504,440.54334 L 1094.3744,442.64663 L 1095.127,443.77554 L 1095.5627,444.54399 L 1095.9192,445.47086 L 1096.4737,446.19175 L 1096.6322,447.36424 L 1096.8698,448.44954 L 1096.8698,449.42396 L 1097.0283,450.75884 L 1097.0283,455.27441 L 1096.8698,456.45083 L 1096.8698,460.56239"
         style="fill:#004481;fill-opacity:1;fill-rule:nonzero;stroke:none"
         id="path7816" />
    </g>
  </g>
</svg>
