<svg xmlns="http://www.w3.org/2000/svg" width="1500" height="308.637" viewBox="0 0 1500 308.637">
  <path d="M1477.5 57.178c-3.599-14.849-13.932-40.032-45.879-40.032-16.634 0-37.31 7.198-37.31 28.328 0 25.636 38.661 38.671 63.863 53.076 22.944 12.601 41.826 25.202 41.826 58.923 0 38.681-32.824 60.728-82.755 60.728a193.3 193.3 0 0 1-58.026-8.115l-3.155-49.931h11.25c4.496 15.776 15.283 43.177 53.076 43.177 29.225 0 44.528-21.13 44.528-36.482 0-31.946-57.592-47.673-82.321-66.121a46.34 46.34 0 0 1-23.388-42.733c0-41.826 37.783-55.778 74.66-55.778a207 207 0 0 1 51.725 7.651l3.135 47.229h-11.231ZM698.738 76.957c0-52.159-36.413-74.64-76.908-74.64-64.78 0-91.323 36.413-91.323 102.09 0 75.567 39.124 113.804 108.854 113.804a151.8 151.8 0 0 0 49.3-6.596l3.412-15.529a75.4 75.4 0 0 1-30.655 5.492c-75.123 0-93.561-76.908-93.561-114.701h130.872zm-130.891-4.93c0-16.634 13.932-54.861 48.127-54.861 34.638 0 42.733 31.029 42.733 54.861Zm392.921 100.749V70.232c0-41.846-4.496-67.925-52.179-67.925-44.547-.01-64.77 42.733-71.071 59.347h-.907V2.317l-69.276 10.787v7.641c13.055.897 34.185 2.248 34.185 29.235v122.796c0 29.235-15.303 33.287-34.185 33.287v7.641h103.451v-7.641c-18.892 0-34.194-4.052-34.194-33.287v-55.324c0-42.723 32.38-93.552 58.923-93.552 29.679 0 30.112 17.551 30.112 56.202v92.684c0 29.245-15.283 33.297-34.155 33.297v7.632h89.775l2.209-8.509c-19.335-1.302-22.678-9.742-22.678-32.43m275.212-2.248V2.297l-69.276 10.846v7.632c13.498.897 34.175 2.248 34.175 29.225v62.118c0 40.929-25.636 83.208-54.861 83.208-23.378 0-35.979-17.551-35.979-54.881V2.405l-69.266 10.846v7.632c13.498.897 34.194 2.248 34.194 29.225v100.148c0 41.846 19.779 67.925 57.572 67.925 48.117 0 61.605-39.124 67.442-53.974h.897v53.974l65.007-10.126 1.873-8.48c-13.41-.986-31.779-3.619-31.779-29.048" fill="#808184"/>
  <path d="M176.701 193.532a23.66 23.66 0 0 1-12.246 2.544 12.82 12.82 0 0 1-10.491-10.225q-.108-1.39-.128-2.771V71.524C153.836 29.698 142.585 0 80.97 0 49.921 0 6.32 14.849 6.32 44.054a20.213 20.213 0 0 0 21.593 20.233 21.23 21.23 0 0 0 21.13-23.378c0-14.396 3.599-26.099 31.483-26.099 37.774 0 38.227 33.277 38.227 64.78v17.097c-.108 0-.108 14.79 0 14.79v26.543c0 30.566-18.882 58.933-48.127 58.933-15.303 0-30.566-15.776-30.566-39.144 0-32.439 34.618-42.142 60.018-45.09l4.26-14.967C65.332 100.71.03 107.671.03 164.977a51.025 51.025 0 0 0 53.974 50.848 71.68 71.68 0 0 0 63.834-32.745h.887c0 17.876 6.547 30.724 28.121 32.538a22.7 22.7 0 0 0 5.364.266h.237a9.9 9.9 0 0 0 2.958-.414 131 131 0 0 0 26.05-12.818l2.593-13.666a29.6 29.6 0 0 1-7.425 4.545" fill="#e81f76"/>
  <path d="M394.567 177.726h-53.076c-14.405 0-36.896 0-36.896-18.014a32.54 32.54 0 0 1 8.095-20.213 99.6 99.6 0 0 0 40.919 6.734c53.964 0 82.311-25.636 82.311-71.061a70.2 70.2 0 0 0-20.233-53.974 93.18 93.18 0 0 0-55.778-18.881c-42.723-.049-85.003 12.601-85.003 70.627 0 38.227 15.776 51.716 26.08 60.264-4.93 5.393-19.345 22.491-19.345 39.124a34.51 34.51 0 0 0 17.748 30.97 44.96 44.96 0 0 0 19.868 6.36h76.208c22.471 0 41.412 7.651 41.412 30.566 0 32.38-37.783 53.53-78.712 53.53-39.144 0-62.995-22.934-62.995-49.477a34.02 34.02 0 0 1 12.266-27.371l-17.245-6.606a46.84 46.84 0 0 0-24.246 41.175c0 40.426 45.888 57.129 89.953 57.129 59.821 0 110.195-28.801 110.195-80.073 0-49.921-49.941-50.809-71.524-50.809m-40.032-160.56c32.38 0 44.084 26.977 44.084 60.708 0 23.832-4.93 53.53-42.733 53.53-32.39 0-43.64-27.894-43.64-62.059 0-26.099 6.764-52.179 42.289-52.179" fill="#808184"/>
</svg>
