<?xml version="1.0" encoding="UTF-8" standalone="no"?>
<svg xmlns="http://www.w3.org/2000/svg" viewBox="0 0 234.33066 76.823464" height="76.82" width="234.33" version="1.1">
 <metadata id="metadata8"/>
 <g transform="matrix(1.3333333,0,0,-1.3333333,-11.684893,167.67133)" id="g10">
  <g transform="scale(0.1)" id="g12">
   <path id="path16" d="m 87.6367,681.359 1757.48,0 0,576.176 -1757.48,0 0,-576.176 z" fill="#231f20" fill-rule="evenodd"/>
   <path id="path18" d="m 827.973,1077.21 c 33.937,0 61.449,17.33 61.449,38.69 0,21.37 -27.512,38.7 -61.449,38.7 -33.942,0 -61.457,-17.33 -61.457,-38.7 0,-21.36 27.515,-38.69 61.457,-38.69" fill="#ffffff" fill-rule="evenodd"/>
   <path id="path20" d="m 1030.75,872.305 c 66.62,0 120.63,40.25 120.63,89.902 0,49.643 -54.01,89.903 -120.63,89.903 -66.617,0 -120.625,-40.26 -120.625,-89.903 0,-49.652 54.008,-89.902 120.625,-89.902" fill="#ffffff" fill-rule="evenodd"/>
   <path id="path22" d="m 258.758,939.676 c 0,-49.024 50.82,-82.199 110.527,-82.328 70.012,-0.16 110.93,33.304 110.93,82.328 l 0.121,173.804 c 0,11.68 10.863,12.88 16.094,12.88 l 3.222,0 0,24.95 -77.257,0 0,-24.95 6.441,0 c 5.23,0 13.277,-1.2 13.277,-12.88 l 0.082,-177.828 c 0,-26.714 -18.84,-42.734 -45.55,-42.734 -26.711,0 -45.551,16.02 -45.551,42.734 l 0.086,177.828 c 0,11.68 8.047,12.88 13.277,12.88 l 6.438,0 0,24.95 -131.973,0 0,-24.95 6.437,0 c 5.231,0 13.278,-1.2 13.278,-12.88 l 0.121,-173.804" fill="#ffffff" fill-rule="evenodd"/>
   <path id="path24" d="m 796.188,1007.27 c 0,11.66 -8.051,12.87 -13.278,12.87 l -6.441,0 0,24.95 99.383,0 0,-210.832 c 0,-30.578 -35.004,-43.453 -53.516,-43.453 l -81.273,0 0,26.558 27.761,0 c 14.485,0 27.364,16.895 27.364,31.379 l 0,158.528" fill="#ffffff" fill-rule="evenodd"/>
   <path id="path26" d="m 608.684,830.234 c 0,-11.671 8.05,-12.871 13.281,-12.871 l 4.023,0 0,-24.949 -115.074,0 0,24.949 4.828,0 c 5.227,0 13.278,1.2 13.278,12.871 l 0,177.036 c 0,11.66 -8.051,12.87 -13.278,12.87 l -4.828,0 0,24.95 97.77,0 3.218,-16.5 c 5.235,8.05 21.325,22.94 58.348,22.94 37.012,0 78.859,-19.32 78.055,-93.346 -0.809,-74.036 -62.77,-83.688 -79.668,-83.688 -16.899,0 -39.832,1.606 -59.953,18.504 l 0,-62.766" fill="#ffffff" fill-rule="evenodd"/>
   <path id="path28" d="m 1171.57,1126.36 0,24.95 96.98,0 0,-123.12 c 6.43,8.85 34.2,27.36 67.99,27.36 49.89,0 68.8,-31.38 68.8,-58.745 l 0,-78.051 c 0,-11.668 6.04,-12.879 11.27,-12.879 l 6.84,0 0,-24.941 -96.97,0 0,109.433 c 0,21.723 -18.91,27.363 -28.56,27.363 -9.66,0 -26.16,-10.06 -29.37,-25.753 l 0,-111.043 -96.98,0 0,24.941 4.84,0 c 5.23,0 13.27,1.211 13.27,12.879 l 0,194.726 c 0,11.68 -8.04,12.88 -13.27,12.88 l -4.84,0" fill="#ffffff" fill-rule="evenodd"/>
   <path id="path30" d="m 1465.7,918.754 c 0,-11.668 -8.05,-12.879 -13.28,-12.879 l -4.83,0 0,-24.941 96.97,0 0,111.043 c 0,16.903 19.72,25.753 29.37,25.753 9.66,0 28.57,-5.64 28.57,-27.363 l 0,-109.433 96.96,0 0,24.941 -4.02,0 c -5.23,0 -14.08,1.211 -14.08,12.879 l 0,78.051 c 0,27.365 -18.91,58.745 -68.8,58.745 -33.8,0 -57.14,-20.12 -63.58,-28.97 l -5.23,18.51 -96.16,0 0,-24.95 4.83,0 c 5.23,0 13.28,-1.21 13.28,-12.87 l 0,-88.516" fill="#ffffff" fill-rule="evenodd"/>
   <path id="path32" d="m 1062.07,926.801 c 0,-18.86 -12.46,-31.324 -31.32,-31.324 -18.85,0 -31.32,12.464 -31.32,31.324 l 0,70.808 c 0,18.861 12.47,30.521 31.32,30.521 18.86,0 31.32,-12.47 31.32,-31.325 l 0,-70.004" fill="#231f20" fill-rule="evenodd"/>
   <path id="path34" d="m 667.277,932.902 c 0,-17.738 -11.164,-32.121 -28.906,-32.121 -17.742,0 -29.707,14.383 -29.707,32.121 l 0,54.555 c 0,17.743 11.965,31.363 29.707,31.363 17.742,0 28.906,-14.37 28.906,-32.117 l 0,-53.801" fill="#231f20" fill-rule="evenodd"/>
  </g>
 </g>
</svg>
