<svg width="167" height="26" viewBox="0 0 167 26" fill="none" xmlns="http://www.w3.org/2000/svg">
<g clip-path="url(#clip0_5437_6066)">
<mask id="mask0_5437_6066" style="mask-type:luminance" maskUnits="userSpaceOnUse" x="0" y="0" width="167" height="26">
<path d="M167 0H0V26H167V0Z" fill="white"/>
</mask>
<g mask="url(#mask0_5437_6066)">
<mask id="mask1_5437_6066" style="mask-type:luminance" maskUnits="userSpaceOnUse" x="0" y="0" width="167" height="26">
<path d="M167 0H0V26H167V0Z" fill="white"/>
</mask>
<g mask="url(#mask1_5437_6066)">
<path d="M88.7802 18.0979H76.8692C76.8692 20.4249 78.0835 21.6859 80.4166 21.6859C81.6309 21.6859 82.5041 21.2829 83.1181 20.2039H88.5619C88.1935 21.9329 87.102 23.4409 85.5467 24.3899C84.0185 25.2999 82.2449 25.7679 80.4439 25.7419C75.1637 25.7419 71.207 22.6999 71.207 17.1359C71.207 11.7409 74.8499 8.50391 80.0346 8.50391C85.5739 8.50391 88.7666 11.9749 88.7666 17.4869L88.7802 18.0979ZM83.5274 15.3159C83.2409 13.7689 82.163 12.2349 80.3347 12.2349C78.37 12.2349 77.3194 13.6389 76.9784 15.3159H83.5274Z" fill="white"/>
<path d="M97.8264 11.2196H97.8946C99.2454 9.20463 100.883 8.51562 103.161 8.51562C107.582 8.51562 109.355 11.3496 109.355 15.4446V25.4806H103.721V17.6286C103.721 16.0296 103.775 13.2346 100.883 13.2346C98.5086 13.2346 97.8401 15.0286 97.8401 17.0956V25.4806H92.2598V9.07463H97.8264V11.2196Z" fill="white"/>
<path d="M125.551 23.4266H125.483C124.487 25.0386 122.523 25.7666 120.653 25.7666C115.919 25.7666 112.59 21.7626 112.59 17.1216C112.59 12.4806 115.864 8.50262 120.585 8.50262C122.427 8.50262 124.351 9.19162 125.538 10.6216V0.390625H130.818V25.4806H125.538V23.4266H125.551ZM117.652 17.1476C117.652 19.2016 118.989 20.7746 121.295 20.7746C123.6 20.7746 124.937 19.2016 124.937 17.1476C124.937 15.1586 123.6 13.4816 121.295 13.4816C118.989 13.4816 117.652 15.1586 117.652 17.1476Z" fill="white"/>
<path d="M151.747 18.0184H139.713C139.713 20.3714 140.941 21.6584 143.301 21.6584C144.529 21.6584 145.402 21.2424 146.03 20.1634H151.542C151.16 21.9054 150.069 23.4394 148.499 24.4014C146.958 25.3244 145.17 25.8054 143.342 25.7794C138.007 25.7794 134.01 22.7244 134.01 17.0824C134.01 11.6354 137.694 8.35938 142.933 8.35938C148.527 8.35938 151.76 11.8694 151.76 17.4334L151.747 18.0184ZM146.303 15.2624C146.016 13.7024 144.925 12.0904 143.206 12.0904C141.091 12.0904 140.013 13.5724 139.672 15.2624H146.303Z" fill="white"/>
<path d="M160.409 11.8055H160.477C161.596 9.7515 163.519 9.0625 165.798 9.0625H166.917V14.5355C166.166 14.1325 165.307 13.9375 164.447 13.9895C161.214 13.9895 160.395 16.1735 160.395 19.0335V25.4815H154.938V9.0755H160.409V11.8055Z" fill="white"/>
<path d="M16.2634 23.4514C17.696 21.8394 18.4328 19.8504 18.4464 17.4974C18.4328 15.1314 17.696 13.1424 16.2634 11.5434C14.8172 9.90541 12.8934 9.0604 10.5194 9.0344C9.60523 9.0344 8.70474 9.2034 7.85882 9.5154C6.98562 9.8664 6.20792 10.4124 5.59395 11.1014V0.441406H0V25.4794H5.59395V23.7114H5.64853C6.18064 24.4524 6.90376 25.0374 7.76332 25.4144C8.59559 25.8044 9.52337 26.0124 10.4511 25.9994C12.8661 25.9604 14.7899 25.1154 16.2634 23.4514ZM7.10841 20.0454C6.46716 19.3564 6.12606 18.4594 6.15335 17.5364C6.12606 16.6004 6.46716 15.6904 7.10841 15.0014C7.73603 14.3124 8.62288 13.9614 9.7826 13.9354C10.9423 13.9614 11.8292 14.3124 12.4841 15.0014C13.1117 15.7034 13.4391 16.6134 13.4118 17.5364C13.4528 18.4594 13.1117 19.3564 12.4841 20.0454C11.8428 20.7474 10.9423 21.0854 9.7826 21.0854C8.62288 21.0854 7.73603 20.7474 7.10841 20.0454Z" fill="white"/>
<path d="M26.633 10.2695H21.0391V25.4795H26.633V10.2695Z" fill="white"/>
<path d="M38.7207 8.89069C37.7383 8.89069 36.756 9.04669 35.8282 9.34569C31.0529 10.8017 28.2286 6.95369 27.3554 2.92369C27.3554 2.91069 27.3554 2.91069 27.3554 2.89769C27.1098 1.09069 25.3771 -0.196305 23.4669 0.0246943C21.5568 0.245695 20.2061 1.89669 20.438 3.71669C20.629 5.15969 21.7615 6.31669 23.2623 6.57669C23.2759 6.57669 23.2896 6.57669 23.3032 6.57669C25.9774 7.16169 31.8715 10.2427 30.6436 13.7267C28.5015 17.9777 30.3843 23.0737 34.8459 25.1147C39.3074 27.1557 44.6557 25.3617 46.7978 21.1107C48.9399 16.8597 47.0571 11.7637 42.5955 9.72269C41.3812 9.16369 40.0578 8.87769 38.7207 8.87769V8.89069ZM38.5843 20.9677C36.6196 20.9677 35.0232 19.4597 35.0232 17.5877C35.0232 15.7157 36.6059 14.1947 38.5706 14.1947C40.5353 14.1947 42.1316 15.7027 42.1316 17.5747C42.1453 19.4467 40.549 20.9677 38.5843 20.9677Z" fill="white"/>
<path d="M66.8142 14.2456C67.6601 13.0496 68.0967 11.6326 68.0557 10.1896C68.0421 7.82363 67.2917 6.09463 65.8045 5.00264C64.331 3.92363 62.4345 3.39062 60.0878 3.39062H51.4922V25.4776H57.2772V17.0016H57.3044L63.1303 25.4776H70.0341L63.0075 16.4426C64.6039 16.1046 65.9819 15.3766 66.8142 14.2456ZM62.2162 11.9576C61.9706 12.3476 61.6022 12.6466 61.1793 12.8416C60.7427 13.0496 60.2651 13.1926 59.774 13.2446C59.2419 13.3226 58.6961 13.3616 58.164 13.3616H57.2908V7.61563H58.9963C59.2555 7.61563 59.5147 7.64164 59.774 7.68064C60.2651 7.75864 60.7427 7.90163 61.1793 8.10963C61.6159 8.27863 61.9706 8.57763 62.2162 8.95463C62.5027 9.42263 62.6392 9.95563 62.6119 10.4886C62.6392 11.0086 62.5027 11.5156 62.2162 11.9576Z" fill="white"/>
</g>
</g>
</g>
<defs>
<clipPath id="clip0_5437_6066">
<rect width="167" height="26" fill="white"/>
</clipPath>
</defs>
</svg>
