<?xml version="1.0" encoding="UTF-8" standalone="no"?>
<!-- Created with Inkscape (http://www.inkscape.org/) -->
<svg
   xmlns:svg="http://www.w3.org/2000/svg"
   xmlns="http://www.w3.org/2000/svg"
   version="1.0"
   width="152.17999"
   height="56.150002"
   id="svg2"
   xml:space="preserve"><defs
     id="defs5"><clipPath
       id="clipPath17"><path
         d="M 0,0 L 649.134,0 L 649.134,850.394 L 0,850.394 L 0,0 z"
         id="path19" /></clipPath><clipPath
       id="clipPath89"><path
         d="M 0,0 L 649.134,0 L 649.134,850.394 L 0,850.394 L 0,0 z"
         id="path91" /></clipPath><clipPath
       id="clipPath125"><path
         d="M 0,0 L 649.134,0 L 649.134,850.394 L 0,850.394 L 0,0 z"
         id="path127" /></clipPath><clipPath
       id="clipPath169"><path
         d="M 0,0 L 649.134,0 L 649.134,850.394 L 0,850.394 L 0,0 z"
         id="path171" /></clipPath><clipPath
       id="clipPath185"><path
         d="M 0,0 L 649.134,0 L 649.134,850.394 L 0,850.394 L 0,0 z"
         id="path187" /></clipPath><clipPath
       id="clipPath205"><path
         d="M 0,0 L 649.134,0 L 649.134,850.394 L 0,850.394 L 0,0 z"
         id="path207" /></clipPath><clipPath
       id="clipPath225"><path
         d="M 0,0 L 649.134,0 L 649.134,850.394 L 0,850.394 L 0,0 z"
         id="path227" /></clipPath><clipPath
       id="clipPath241"><path
         d="M 0,0 L 649.134,0 L 649.134,850.394 L 0,850.394 L 0,0 z"
         id="path243" /></clipPath><clipPath
       id="clipPath257"><path
         d="M 0,0 L 649.134,0 L 649.134,850.394 L 0,850.394 L 0,0 z"
         id="path259" /></clipPath><clipPath
       id="clipPath277"><path
         d="M 0,0 L 649.134,0 L 649.134,850.394 L 0,850.394 L 0,0 z"
         id="path279" /></clipPath><clipPath
       id="clipPath301"><path
         d="M 0,0 L 649.134,0 L 649.134,850.394 L 0,850.394 L 0,0 z"
         id="path303" /></clipPath><clipPath
       id="clipPath477"><path
         d="M 0,0 L 649.134,0 L 649.134,850.394 L 0,850.394 L 0,0 z"
         id="path479" /></clipPath><clipPath
       id="clipPath493"><path
         d="M 46.057,495.118 L 288.634,495.118 L 288.634,519.657 L 46.057,519.657 L 46.057,495.118 z"
         id="path495" /></clipPath><clipPath
       id="clipPath1137"><path
         d="M 46.057,427.047 L 288.634,427.047 L 288.634,519.657 L 46.057,519.657 L 46.057,427.047 z"
         id="path1139" /></clipPath><clipPath
       id="clipPath1151"><path
         d="M 46.057,427.047 L 288.634,427.047 L 288.634,519.657 L 46.057,519.657 L 46.057,427.047 z"
         id="path1153" /></clipPath><clipPath
       id="clipPath1187"><path
         d="M 0,0 L 649.134,0 L 649.134,850.394 L 0,850.394 L 0,0 z"
         id="path1189" /></clipPath></defs><g
     transform="matrix(1.25,0,0,-1.25,-56.9455,1008.0711)"
     id="g11"><g
       transform="translate(1.2363469,-1.4424048)"
       id="g85"
       style="fill:#666666;fill-opacity:1"><g
         clip-path="url(#clipPath89)"
         id="g87"
         style="fill:#666666;fill-opacity:1"><path
           d="M 98.4432,783.7189 C 98.5632,780.5889 100.2112,779.2759 101.7942,779.2759 C 103.0662,779.2759 104.1932,779.9529 105.2312,781.5979 L 107.0402,780.5669 C 105.6252,778.4389 103.8502,777.3799 101.8512,777.3799 C 98.9152,777.3799 96.2122,779.7109 96.2122,784.0979 C 96.2122,788.2599 98.7792,790.6379 101.6902,790.6379 C 104.2812,790.6379 106.2652,788.8229 106.8642,786.0899 C 107.0662,785.1759 107.1122,784.4609 107.1212,783.7189 L 98.4432,783.7189 z M 104.9762,785.3959 C 104.7692,787.8079 103.2742,788.9849 101.7382,788.9849 C 99.9222,788.9849 98.5792,787.3699 98.4822,785.3959 L 104.9762,785.3959 z"
           id="path115"
           style="fill:#666666;fill-opacity:1;fill-rule:nonzero;stroke:none" /></g></g><path
       d="M 113.70175,776.1896 L 109.51375,788.9446 L 111.86275,788.9446 L 114.85675,779.2156 L 117.92775,788.9446 L 120.24775,788.9446 L 116.01775,776.1896 L 113.70175,776.1896 z"
       id="path119"
       style="fill:#666666;fill-opacity:1;fill-rule:nonzero;stroke:none" /><path
       d="M 121.26925,782.5596 C 121.26925,786.7286 123.71425,789.2196 126.88325,789.2196 C 130.28825,789.2196 132.67125,786.5656 132.67125,782.5186 C 132.67125,778.3086 130.01825,775.9376 127.10525,775.9376 C 123.79425,775.9376 121.26925,778.4956 121.26925,782.5596 M 130.40925,782.7046 C 130.40925,785.6546 129.06325,787.4126 127.01825,787.4126 C 124.72425,787.4126 123.53025,785.4136 123.53025,782.5676 C 123.53025,779.5986 124.87425,777.7446 126.97725,777.7446 C 128.94625,777.7446 130.40925,779.4866 130.40925,782.7046"
       id="path131"
       style="fill:#666666;fill-opacity:1;fill-rule:nonzero;stroke:none" /><path
       d="M 135.96805,788.9451 L 135.96805,793.4131 L 138.18105,793.4131 L 138.18105,788.9451 L 141.02505,788.9451 L 141.02505,787.1301 L 138.18105,787.1301 L 138.18105,779.6241 C 138.18105,778.5361 138.64005,777.9031 139.77105,777.8401 C 140.17705,777.8181 140.63505,777.8671 141.02505,777.9131 L 141.02505,775.9931 C 140.66705,775.9631 140.14205,775.8901 139.65405,775.8901 C 138.82305,775.8901 138.11605,775.9821 137.56905,776.2331 C 136.53005,776.7081 135.96805,777.7881 135.96805,779.3651 L 135.96805,787.1301 L 133.84305,787.1301 L 133.84305,788.9451 L 135.96805,788.9451 z"
       id="path135"
       style="fill:#666666;fill-opacity:1;fill-rule:nonzero;stroke:none" /><path
       d="M 144.66025,782.2765 C 144.78225,779.1465 146.42825,777.8335 148.01325,777.8335 C 149.28325,777.8335 150.41025,778.5105 151.44825,780.1555 L 153.26025,779.1245 C 151.84025,776.9965 150.06825,775.9375 148.06725,775.9375 C 145.13125,775.9375 142.42925,778.2685 142.42925,782.6555 C 142.42925,786.8175 144.99525,789.1955 147.90725,789.1955 C 150.49825,789.1955 152.48025,787.3805 153.08225,784.6475 C 153.28025,783.7335 153.32825,783.0185 153.33525,782.2765 L 144.66025,782.2765 z M 151.19525,783.9535 C 150.98525,786.3655 149.49125,787.5425 147.95325,787.5425 C 146.14025,787.5425 144.79625,785.9275 144.70125,783.9535 L 151.19525,783.9535 z"
       id="path139"
       style="fill:#666666;fill-opacity:1;fill-rule:nonzero;stroke:none" /><path
       d="M 164.17995,785.1321 C 163.41195,786.5501 162.51095,787.3901 161.19195,787.3901 C 159.39595,787.3901 157.86295,785.7691 157.86295,782.6551 C 157.86295,779.7841 159.28695,777.8581 161.19195,777.8581 C 162.54995,777.8581 163.59595,778.7121 164.30095,780.3721 L 166.13995,779.3911 C 165.00395,777.1551 163.51595,775.9371 161.20695,775.9371 C 157.99895,775.9371 155.55395,778.5281 155.55395,782.5601 C 155.55395,786.5171 158.06195,789.1881 161.25495,789.1881 C 163.41995,789.1881 164.95495,788.0751 166.08495,785.9281 L 164.17995,785.1321 z"
       id="path143"
       style="fill:#666666;fill-opacity:1;fill-rule:nonzero;stroke:none" /><path
       d="M 80.652747,788.1075 C 80.658747,783.7685 79.006747,779.4255 75.694747,776.1135 C 72.387747,772.8075 68.055747,771.1545 63.723747,771.1545 C 59.391747,771.1545 55.059747,772.8075 51.751747,776.1135 C 48.445747,779.4195 46.792747,783.7525 46.792747,788.0855 C 46.792747,792.4185 48.445747,796.7535 51.751747,800.0605 C 55.056747,803.3635 59.388747,805.0145 63.721747,805.0145 C 68.054747,805.0135 72.387747,803.3605 75.694747,800.0545 C 78.993747,796.7535 80.646747,792.4315 80.652747,788.1075"
       id="path147"
       style="fill:#01009a;fill-opacity:1;fill-rule:nonzero;stroke:none" /><path
       d="M 89.315747,770.113 C 89.315747,768.163 88.571747,766.213 87.083747,764.725 C 85.595747,763.238 83.646747,762.495 81.697747,762.495 C 79.747747,762.495 77.798747,763.238 76.309747,764.725 C 74.822747,766.213 74.078747,768.163 74.078747,770.113 C 74.078747,772.064 74.822747,774.015 76.309747,775.504 C 77.796747,776.989 79.746747,777.732 81.695747,777.732 C 83.645747,777.731 85.595747,776.988 87.083747,775.501 C 88.571747,774.012 89.315747,772.062 89.315747,770.113"
       id="path151"
       style="fill:#01009a;fill-opacity:1;fill-rule:nonzero;stroke:none" /></g></svg>