<?xml version="1.0" encoding="utf-8"?>
<!-- Generator: Adobe Illustrator 27.6.1, SVG Export Plug-In . SVG Version: 6.00 Build 0)  -->
<svg version="1.1" id="Слой_1" xmlns="http://www.w3.org/2000/svg" xmlns:xlink="http://www.w3.org/1999/xlink" x="0px" y="0px"
	 viewBox="0 0 311.81 86.7" style="enable-background:new 0 0 311.81 86.7;" xml:space="preserve">
<style type="text/css">
	.st0{fill:#296465;}
</style>
<g>
	<path class="st0" d="M245.84,22.96c-1.44,3.57-2.93,7.08-4.36,10.65c-2.75-4.74-7.51-6.91-12.9-6.56
		c-7.17,0.47-12.85,5.62-15.09,12.29c-2.29,6.44-0.41,13.76,3.72,18.61c3.73,4.63,10.56,7.2,16.92,5.62
		c4.07-0.7,7.92-2.46,11.07-4.97l-3.73,10.83c-7.45,4.91-19.16,3.45-26.61-0.65c-8.32-4.45-14.92-13.52-14.4-24.05
		c0.17-9.89,6.02-18.09,13.99-22.65c8.78-5.33,22.2-5.04,30.81,0.52L245.84,22.96"/>
	<path class="st0" d="M269.42,30.51l-5.27,17.73c3.56-0.06,7.63,0.06,11.36-0.12C273.43,42.33,271.71,36.24,269.42,30.51
		 M293.8,64.16c0.86,2.28,1.78,4.85,3.67,6.26l0.17,0.52h-16.63c-0.12-0.52,0.74-1.05,1.03-1.58c0.46-1.11,0.35-2.4-0.11-3.45
		c-1.21-3.22-2.07-6.56-3.56-9.6c-5.51-0.12-11.36-0.12-16.7,0l-0.58,1.05l-3.15,10.01c-0.12,1.34,0.4,2.57,1.38,3.22v0.35
		c0,0-13.77,0.12-13.83,0c1.15-0.87,2.13-2.4,2.59-3.51l14.29-44.36c-0.06-1.29-0.58-2.64-1.67-3.22c0-0.17,0-0.41,0.23-0.41h17.09
		L293.8,64.16z"/>
	<path class="st0" d="M155.96,19.5c0.05,0.06-1.74,2.09-1.95,3.32l0.06,45.09c0.23,1.17,0.92,2.46,1.66,3.15L144.77,71l-25.3-32.25
		v28.21c0.06,1.52,0.58,2.81,1.67,3.68l0.06,0.41h-12.68c-0.11-0.58,0.63-0.81,0.92-1.17c0.87-1.17,0.98-2.25,1.03-3.16l-0.12-43.89
		c-0.34-1.23-2.06-3.28-2.06-3.28l11.18-0.12c0,0,21.57,27.22,25.47,31.96V22.84c-0.23-1.29-2.01-3.34-2.01-3.34
		C142.93,19.5,155.96,19.5,155.96,19.5"/>
	<path class="st0" d="M101.12,19.56v9.78c-0.58,0.12-0.75-0.59-1.27-0.76c-1.54-0.76-3.44-0.59-5.27-0.59
		c-4.32,0-13.99,0.06-13.99,0.06v11.65H97.5c0.89-0.05,0.82-0.47,1.32-0.58v10.01c-0.63-0.06-0.92-0.7-1.49-1l-1.26-0.35H80.75
		v13.99h20.19c1.6-0.23,3.1-0.76,4.47-1.47c-1.2,3.63-2.81,7.08-4.25,10.71H66.3c-0.06-0.76,0.98-1,1.2-1.69l0.69-1.58l-0.17-44.48
		c-0.12-1.4-0.98-2.93-2.01-3.69H101.12"/>
	<path class="st0" d="M195.76,19.56v9.78c-0.57,0.12-0.74-0.59-1.26-0.76c-1.54-0.76-3.44-0.59-5.27-0.59c-4.32,0-14,0.06-14,0.06
		v11.65h16.92c0.9-0.05,0.83-0.47,1.32-0.58v10.01c-0.63-0.06-0.92-0.7-1.49-1l-1.27-0.35H175.4v13.99h20.19
		c1.6-0.23,3.1-0.76,4.47-1.47c-1.2,3.63-2.81,7.08-4.25,10.71h-34.87c-0.06-0.76,0.97-1,1.2-1.69l0.69-1.58l-0.17-44.48
		c-0.12-1.4-0.98-2.93-2.01-3.69H195.76"/>
	<path class="st0" d="M41.79,22.48H21.41c-2.64,0-5.91,1.27-6.51,2.28h-0.72l5.53-10.59h42.07l-14.1,25.44h10.15l-4.58,8.32H43.09
		l-7.66,13.89h23.04c2.5,0,4.84-0.46,5.75-1.38h0.83l-5.99,10.64L15,71.09l12.72-23.11H17.29l4.62-8.35c0,0,10.33,0,10.43,0
		L41.79,22.48"/>
</g>
</svg>
