<?xml version="1.0" encoding="UTF-8" standalone="no"?>
<!-- Created with Inkscape (http://www.inkscape.org/) -->

<svg
   xmlns:dc="http://purl.org/dc/elements/1.1/"
   xmlns:cc="http://creativecommons.org/ns#"
   xmlns:rdf="http://www.w3.org/1999/02/22-rdf-syntax-ns#"
   xmlns:svg="http://www.w3.org/2000/svg"
   xmlns="http://www.w3.org/2000/svg"
   xmlns:sodipodi="http://sodipodi.sourceforge.net/DTD/sodipodi-0.dtd"
   xmlns:inkscape="http://www.inkscape.org/namespaces/inkscape"
   width="223.39969"
   height="26.700029"
   viewBox="0 0 59.107833 7.0643827"
   version="1.1"
   id="svg4600"
   inkscape:version="0.92.0 r15299"
   sodipodi:docname="regeneron.svg">
  <defs
     id="defs4594">
	
	

		
		
	
			
			
			
			
			
			
			
			
			
		</defs>
  <sodipodi:namedview
     id="base"
     pagecolor="#ffffff"
     bordercolor="#666666"
     borderopacity="1.0"
     inkscape:pageopacity="0.0"
     inkscape:pageshadow="2"
     inkscape:zoom="3.6061203"
     inkscape:cx="111.19984"
     inkscape:cy="12.850016"
     inkscape:document-units="mm"
     inkscape:current-layer="layer1"
     showgrid="false"
     fit-margin-top="0"
     fit-margin-left="0"
     fit-margin-right="0"
     fit-margin-bottom="0"
     units="px"
     inkscape:window-width="1280"
     inkscape:window-height="744"
     inkscape:window-x="-4"
     inkscape:window-y="-4"
     inkscape:window-maximized="1" />
  <metadata
     id="metadata4597">
    <rdf:RDF>
      <cc:Work
         rdf:about="">
        <dc:format>image/svg+xml</dc:format>
        <dc:type
           rdf:resource="http://purl.org/dc/dcmitype/StillImage" />
        <dc:title></dc:title>
      </cc:Work>
    </rdf:RDF>
  </metadata>
  <g
     inkscape:label="Layer 1"
     inkscape:groupmode="layer"
     id="layer1"
     transform="translate(149.61801,-262.46053)">
    <g
       id="g4681"
       transform="translate(0.13229261,-0.13228895)">
      <path
         d="m -148.24226,262.88386 h 3.09562 c 1.16417,-0.0265 1.93146,0.4498 1.93146,1.69334 0,0.87312 -0.60854,1.61396 -1.48166,1.74625 v 0.0265 c 0.52916,0.15875 0.66145,0.635 0.66145,1.1377 0,0.29105 -0.0529,0.71438 -0.0529,1.13771 0,0.29104 0.0265,0.55563 0.0794,0.74084 h -1.40229 c -0.0265,-0.15875 -0.0529,-0.29105 -0.0529,-0.42334 0,-0.42333 0.0794,-0.87312 0.0794,-1.32291 0,-0.635 -0.37042,-0.79375 -0.92604,-0.79375 h -1.34938 l -0.52916,2.54 h -1.42875 z m 0.82021,2.93688 h 1.32291 c 0.74084,0 1.48167,-0.29104 1.48167,-1.03188 0,-0.68791 -0.50271,-0.79375 -1.05833,-0.79375 h -1.34938 z"
         class="st1"
         id="XMLID_83_"
         inkscape:connector-curvature="0"
         style="fill:#005c9e;stroke-width:0.26458332" />
      <polygon
         transform="matrix(0.26458333,0,0,0.26458333,-162.52976,256.61324)"
         points="93.5,43.7 92.5,48.2 73.6,48.2 78.8,23.7 97.5,23.7 96.5,28.2 83.2,28.2 82.1,33.5 94.4,33.5 93.5,37.7 81.2,37.7 80,43.7 "
         class="st1"
         id="XMLID_82_"
         style="fill:#005c9e" />
      <path
         d="m -132.10268,268.7047 v 0 c -0.44979,0.58208 -1.05833,0.82021 -1.64041,0.82021 -1.82563,0 -2.88396,-1.03188 -2.88396,-2.8575 0,-2.09021 1.34937,-3.91584 3.54541,-3.91584 1.50813,0 2.75167,0.71438 2.75167,2.30188 h -1.42875 c -0.0265,-0.79375 -0.52917,-1.11125 -1.32292,-1.11125 -1.4552,0 -2.11666,1.48166 -2.11666,2.72521 0,0.89958 0.42333,1.66687 1.48166,1.66687 1.0848,0 1.56105,-0.58208 1.79917,-1.40229 h -1.50812 l 0.23812,-1.05833 h 2.75167 l -0.74084,3.4925 h -0.92604 z"
         class="st1"
         id="XMLID_80_"
         inkscape:connector-curvature="0"
         style="fill:#005c9e;stroke-width:0.26458332" />
      <polygon
         transform="matrix(0.26458333,0,0,0.26458333,-162.52976,256.61324)"
         points="142.4,43.7 141.5,48.2 122.6,48.2 127.7,23.7 146.4,23.7 145.5,28.2 132.2,28.2 131.1,33.5 143.4,33.5 142.5,37.7 130.2,37.7 128.9,43.7 "
         class="st1"
         id="XMLID_79_"
         style="fill:#005c9e" />
      <polygon
         transform="matrix(0.26458333,0,0,0.26458333,-162.52976,256.61324)"
         points="154,31 150.5,48.2 145.4,48.2 150.6,23.7 156.2,23.7 162.8,41.1 162.9,41.1 166.4,23.7 171.4,23.7 166.2,48.2 160.8,48.2 154.1,31 "
         class="st1"
         id="XMLID_77_"
         style="fill:#005c9e" />
      <polygon
         transform="matrix(0.26458333,0,0,0.26458333,-162.52976,256.61324)"
         points="190.8,43.7 189.8,48.2 170.9,48.2 176,23.7 194.7,23.7 193.8,28.2 180.5,28.2 179.4,33.5 191.7,33.5 190.8,37.7 178.5,37.7 177.2,43.7 "
         class="st1"
         id="XMLID_73_"
         style="fill:#005c9e" />
      <path
         d="m -109.90414,262.88386 h 3.09563 c 1.16417,-0.0265 1.93146,0.4498 1.93146,1.69334 0,0.87312 -0.60854,1.61396 -1.48167,1.74625 v 0.0265 c 0.52917,0.15875 0.66146,0.635 0.66146,1.1377 0,0.29105 -0.0529,0.71438 -0.0529,1.13771 0,0.29104 0.0265,0.55563 0.0794,0.74084 h -1.40229 c -0.0265,-0.15875 -0.0529,-0.29105 -0.0529,-0.42334 0,-0.42333 0.0794,-0.87312 0.0794,-1.32291 0,-0.635 -0.37041,-0.79375 -0.92604,-0.79375 h -1.34937 l -0.52917,2.54 h -1.42875 z m 0.82021,2.93688 h 1.32292 c 0.76729,0 1.48167,-0.29104 1.48167,-1.03188 0,-0.68791 -0.50271,-0.79375 -1.05834,-0.79375 h -1.34937 z"
         class="st1"
         id="XMLID_65_"
         inkscape:connector-curvature="0"
         style="fill:#005c9e;stroke-width:0.26458332" />
      <path
         d="m -100.77601,262.72511 c 1.746249,0 2.883958,0.9525 2.883958,2.77813 0,2.14312 -1.27,4.02167 -3.545418,4.02167 -1.82562,0 -2.88396,-1.03188 -2.88396,-2.8575 0,-2.11667 1.34938,-3.9423 3.54542,-3.9423 m -0.66146,5.60917 c 1.40229,0 2.090209,-1.48167 2.090209,-2.72521 0,-0.89958 -0.396875,-1.69333 -1.455209,-1.69333 -1.45521,0 -2.11667,1.48167 -2.11667,2.72521 0.0265,0.89958 0.4498,1.69333 1.48167,1.69333"
         class="st1"
         id="XMLID_55_"
         inkscape:connector-curvature="0"
         style="fill:#005c9e;stroke-width:0.26458332" />
      <polygon
         transform="matrix(0.26458333,0,0,0.26458333,-162.52976,256.61324)"
         points="250.3,48.2 245.3,48.2 250.4,23.7 256,23.7 262.7,41.1 266.2,23.7 271.2,23.7 266,48.2 260.6,48.2 253.9,31 253.8,31 "
         class="st1"
         id="XMLID_46_"
         style="fill:#005c9e" />
    </g>
  </g>
  <style
     id="style4602"
     type="text/css">
	.st0{fill:#FFFFFF;}
	.st1{fill:#005C9E;}
</style>
</svg>
