<?xml version="1.0" encoding="utf-8"?>
<!-- Generator: Adobe Illustrator 19.0.1, SVG Export Plug-In . SVG Version: 6.00 Build 0)  -->
<svg version="1.1" id="Layer_1" xmlns="http://www.w3.org/2000/svg" xmlns:xlink="http://www.w3.org/1999/xlink" x="0px" y="0px"
	 viewBox="19 -11.7 78.4 46" style="enable-background:new 19 -11.7 78.4 46;" xml:space="preserve">
<style type="text/css">
	.st0{fill:#92C746;}
	.st1{fill:#D50F67;}
	.st2{fill:#3BA510;}
	.st3{fill:#9C9EA1;}
</style>
<g>
	<g>
		<path class="st0" d="M19.4,22.2c-0.9,1.8-0.1,4,1.7,4.9c1.8,0.9,4,0.1,4.9-1.7l1.5-3l-3.1-10.3L19.4,22.2z"/>
		<path class="st0" d="M39.9-11.3c-1.8-0.9-4-0.1-4.9,1.7L29.1,2.5l3.1,10.3l9.4-19.1C42.5-8.2,41.8-10.4,39.9-11.3z"/>
		<path class="st1" d="M30.3,31.7c0.6,1.9,2.7,3,4.6,2.4c1.9-0.6,3-2.7,2.5-4.6l-5.1-16.8l-4.8,9.7L30.3,31.7z"/>
		<path class="st1" d="M27-4.3c-0.6-1.9-2.7-3-4.6-2.5c-1.9,0.6-3,2.7-2.5,4.6l4.4,14.3l4.8-9.7L27-4.3z"/>
		<polygon class="st2" points="24.3,12.1 27.5,22.5 32.2,12.8 29.1,2.5 		"/>
	</g>
	<g>
		<path class="st3" d="M45.9,16.1h-6.7c0-0.1,0-0.3,0-0.4c0-1.7,0.7-2.8,2.3-3.8c0.8-0.6,1.4-0.9,1.6-1c0.2-0.2,0.4-0.4,0.5-0.6
			c0.1-0.2,0.2-0.5,0.2-0.8c0-0.7-0.5-1.2-1.2-1.2c-0.9,0-1.4,0.6-1.4,1.8h-2c0-1.3,0.3-2,1.1-2.6c0.6-0.5,1.4-0.8,2.3-0.8
			c2,0,3.3,1.1,3.3,2.7c0,1.3-0.7,2.2-2.5,3.4c-1.4,0.9-1.6,1.1-1.7,1.7h4.2L45.9,16.1L45.9,16.1z"/>
		<path class="st3" d="M48.7,13.3c0,0.9,0.6,1.5,1.5,1.5c0.9,0,1.4-0.5,1.4-1.2c0-0.9-0.6-1.3-2-1.3h-0.2v-1.6h0.2
			c1.4,0,1.9-0.3,1.9-1.2c0-0.7-0.5-1.2-1.3-1.2c-0.9,0-1.4,0.5-1.4,1.5v0h-2c0.1-1.2,0.3-1.8,1.1-2.4c0.6-0.5,1.4-0.7,2.4-0.7
			c2,0,3.3,1,3.3,2.6c0,1.1-0.6,1.9-1.8,2.2c0.4,0.1,0.5,0.1,0.8,0.3c0.7,0.4,1.1,1.1,1.1,2c0,1.7-1.3,2.7-3.4,2.7
			c-2.3,0-3.6-1.2-3.6-3.3h2C48.7,13.1,48.7,13.2,48.7,13.3z"/>
		<path class="st3" d="M57.8,8.8c1,0,1.9,0.3,2.4,0.8c0.5,0.5,0.7,1.1,0.7,2.4c0,0.1,0,0.4,0,1c0,0.2,0,0.5,0,0.7
			c0,1.1,0.1,1.9,0.2,2.4h-1.7c-0.1-0.4-0.1-0.5-0.1-0.8c0-0.1,0-0.1,0-0.3c-0.5,0.9-1.2,1.3-2.4,1.3c-1.5,0-2.6-0.9-2.6-2.2
			c0-0.5,0.2-1,0.5-1.4c0.4-0.4,0.9-0.6,1.9-0.8c0.8-0.1,1.6-0.3,2.2-0.3c0-1-0.4-1.4-1.2-1.4c-0.8,0-1.2,0.4-1.2,1h-2
			C54.7,9.7,55.9,8.8,57.8,8.8z M58.8,13l-0.7,0.1c-1.2,0.2-1.7,0.5-1.7,1c0,0.5,0.4,0.8,1.1,0.8c1,0,1.5-0.7,1.6-2L58.8,13z"/>
		<path class="st3" d="M64.1,9.9c0.5-0.7,1.2-1,2.1-1c1,0,1.9,0.5,2.2,1.4c0.2,0.4,0.2,0.8,0.2,1.9v4h-2V12c0-1.1-0.3-1.6-1.1-1.6
			c-0.9,0-1.3,0.7-1.3,2.1v3.7h-2V9h1.9L64.1,9.9L64.1,9.9z"/>
		<path class="st3" d="M76.4,16.1h-1.9v-0.9c-0.5,0.7-1.2,1.1-2.1,1.1c-1.7,0-2.9-1.5-2.9-3.7c0-2.2,1.1-3.7,2.8-3.7
			c1,0,1.6,0.3,2.1,1.1V6.3h2L76.4,16.1L76.4,16.1z M73,14.7c0.9,0,1.5-0.8,1.5-2.1c0-1.3-0.6-2.1-1.5-2.1c-0.9,0-1.5,0.8-1.5,2.1
			C71.5,13.8,72.1,14.7,73,14.7z"/>
		<path class="st3" d="M89,16.1h-2V8.2l-2.4,7.9h-2.1l-2.4-7.9v7.9h-2V6.3h3.3l2.3,7.4l2.2-7.4H89L89,16.1L89,16.1z"/>
		<path class="st3" d="M93.9,16.3c-2.2,0-3.6-1.5-3.6-3.8c0-2.2,1.4-3.7,3.6-3.7c2.2,0,3.5,1.5,3.5,3.9c0,0.1,0,0.2,0,0.5h-5
			c0,1,0.6,1.6,1.6,1.6c0.7,0,1.1-0.3,1.3-0.8h2.1C96.9,15.5,95.7,16.3,93.9,16.3z M95.3,11.8c0-0.9-0.6-1.5-1.5-1.5
			c-0.9,0-1.4,0.5-1.5,1.5H95.3z"/>
	</g>
</g>
</svg>
