<?xml version="1.0" encoding="UTF-8" standalone="no"?>
<!-- Created with Inkscape (http://www.inkscape.org/) -->

<svg
   xmlns:dc="http://purl.org/dc/elements/1.1/"
   xmlns:cc="http://creativecommons.org/ns#"
   xmlns:rdf="http://www.w3.org/1999/02/22-rdf-syntax-ns#"
   xmlns:svg="http://www.w3.org/2000/svg"
   xmlns="http://www.w3.org/2000/svg"
   xmlns:sodipodi="http://sodipodi.sourceforge.net/DTD/sodipodi-0.dtd"
   xmlns:inkscape="http://www.inkscape.org/namespaces/inkscape"
   width="234.50999"
   height="61.880001"
   viewBox="0 0 62.047435 16.372416"
   version="1.1"
   id="svg4375"
   inkscape:version="0.92.4 (5da689c313, 2019-01-14)"
   sodipodi:docname="exelixis.svg">
  <defs
     id="defs4369" />
  <sodipodi:namedview
     id="base"
     pagecolor="#ffffff"
     bordercolor="#666666"
     borderopacity="1.0"
     inkscape:pageopacity="0.0"
     inkscape:pageshadow="2"
     inkscape:zoom="6.1459723"
     inkscape:cx="116.255"
     inkscape:cy="29.940008"
     inkscape:document-units="mm"
     inkscape:current-layer="layer1"
     showgrid="false"
     fit-margin-top="0"
     fit-margin-left="0"
     fit-margin-right="0"
     fit-margin-bottom="0"
     units="px"
     inkscape:window-width="1920"
     inkscape:window-height="1001"
     inkscape:window-x="-9"
     inkscape:window-y="-9"
     inkscape:window-maximized="1" />
  <metadata
     id="metadata4372">
    <rdf:RDF>
      <cc:Work
         rdf:about="">
        <dc:format>image/svg+xml</dc:format>
        <dc:type
           rdf:resource="http://purl.org/dc/dcmitype/StillImage" />
        <dc:title></dc:title>
      </cc:Work>
    </rdf:RDF>
  </metadata>
  <g
     inkscape:label="Layer 1"
     inkscape:groupmode="layer"
     id="layer1"
     transform="translate(57.97342,-140.38255)">
    <g
       id="g4966"
       transform="translate(0.26458302,-0.26457568)">
      <path
         id="path4146"
         style="fill:#53585b;stroke-width:0px"
         d="m -42.79163,153.34448 v 0 c 0,0 1.71185,0 1.71185,0 l -3.51631,-4.51115 3.50044,-4.49262 h -2.27277 l -2.36538,3.03477 -2.04787,-2.62731 c -0.21167,-0.24871 -0.52653,-0.40746 -0.87842,-0.40746 v 0 c 0,0 -1.71186,0 -1.71186,0 l 3.50044,4.49262 -3.51631,4.51115 h 2.27277 l 2.3786,-3.05329 2.06111,2.64319 c 0.21167,0.25135 0.52652,0.4101 0.87842,0.4101 z"
         inkscape:connector-curvature="0" />
      <path
         id="path4148"
         style="fill:#53585b;stroke-width:0px"
         d="m -23.45588,153.34448 c 0.52652,0 0.95514,-0.42863 0.95514,-0.95779 v 0 -8.04598 h -1.00541 0.0503 c -0.52652,0 -1.00277,0.42862 -1.00277,0.95779 v 8.04862 c 0,0 1.00277,0 1.00277,0 v 0 z"
         inkscape:connector-curvature="0" />
      <path
         id="path4150"
         style="fill:#53585b;stroke-width:0px"
         d="m -9.04138,153.34448 c 0.52652,0 0.95514,-0.42863 0.95514,-0.95779 v 0 -8.04598 h -1.00541 0.0503 c -0.52652,0 -1.00277,0.42862 -1.00277,0.95779 v 8.04862 c 0,0 1.00277,0 1.00277,0 v 0 z"
         inkscape:connector-curvature="0" />
      <path
         id="path4152"
         style="fill:#53585b;stroke-width:0px"
         d="m -34.26676,153.34448 c 0.51859,0 0.94192,-0.41804 0.9525,-0.93663 v -0.74348 h -4.65931 v -1.95527 h 3.25173 c 0.48154,-0.0423 0.85989,-0.44185 0.87048,-0.93398 v -0.75406 h -4.12221 v -1.99231 h 3.7465 c 0.50006,-0.0212 0.90223,-0.42863 0.91281,-0.93398 v -0.75406 h -5.61181 c -0.52652,0 -0.9525,0.42862 -0.9525,0.95779 v 0 8.04862 h 5.61446 z"
         inkscape:connector-curvature="0" />
      <path
         id="path4154"
         style="fill:#53585b;stroke-width:0px"
         d="m -52.36161,153.34448 c 0.51858,0 0.94191,-0.41804 0.9525,-0.93663 v -0.74348 h -4.65667 v -1.95527 h 3.25173 c 0.48154,-0.0423 0.8599,-0.44185 0.87048,-0.93398 v -0.75406 h -4.12221 v -1.99231 h 3.7465 c 0.50006,-0.0212 0.90223,-0.42863 0.91281,-0.93398 v -0.75406 h -5.61445 c -0.52653,0 -0.9525,0.42862 -0.9525,0.95779 v 0 8.04862 h 5.61445 z"
         inkscape:connector-curvature="0" />
      <path
         id="path4156"
         style="fill:#53585b;stroke-width:0px"
         d="m -26.69438,153.34448 c 0.52652,0 0.95514,-0.42863 0.95514,-0.95779 h 0.003 v -0.73025 h -3.74121 v -7.31573 h -0.95515 c -0.52652,0 -0.9525,0.42862 -0.9525,0.95779 v 0 8.04862 h 4.69371 z"
         inkscape:connector-curvature="0" />
      <path
         id="path4158"
         style="fill:#53585b;stroke-width:0px"
         d="m -2.41357,147.78294 c -0.96838,-0.23019 -1.78858,-0.41805 -1.78858,-1.00013 0,-0.53975 0.45773,-0.90487 1.27793,-0.90487 0.62971,0 1.28323,0.14816 1.86796,0.45773 0.15081,0.0794 0.32279,0.12435 0.50271,0.12435 0.35454,0 0.67204,-0.16933 0.87048,-0.43392 v 0 c 0,0 0.42862,-0.5662 0.42862,-0.5662 -0.88635,-0.82286 -2.06904,-1.25678 -3.49514,-1.25678 -2.11138,0 -3.40254,1.2409 -3.40254,2.74109 0,2.05316 1.88118,2.45798 3.34698,2.794 0.9816,0.24341 1.81504,0.43127 1.81504,1.09273 0,0.51329 -0.51065,1.00012 -1.56104,1.00012 -0.80698,0 -1.50548,-0.23548 -2.06905,-0.58473 -0.16404,-0.0926 -0.35189,-0.14816 -0.55297,-0.14816 -0.36778,0 -0.69586,0.17991 -0.89694,0.45772 l -0.36777,0.51859 c 0.83343,0.84931 2.06904,1.43139 3.79148,1.43139 2.42093,0 3.59039,-1.24089 3.59039,-2.88925 0,-2.03993 -1.88119,-2.48443 -3.36021,-2.83633 z"
         inkscape:connector-curvature="0" />
      <ellipse
         id="ellipse4162"
         style="fill:#f47521;stroke-width:0px"
         ry="1.5954375"
         rx="1.5875"
         cy="143.09717"
         cx="-16.140133" />
      <path
         id="path4164"
         style="fill:#f47521;stroke-width:0px"
         d="m -9.83513,140.91171 c -0.17992,0.005 -0.36777,0.09 -0.48948,0.23548 l -5.98488,7.35806 -2.29923,-3.69888 c -0.20108,-0.27252 -0.51858,-0.45243 -0.88106,-0.46566 h -1.70656 l 2.78871,4.49527 -4.37092,7.91898 h 0.0159 c 0.18256,-0.005 0.35189,-0.0873 0.4736,-0.23548 l 5.96371,-7.34748 2.30452,3.71739 c 0.19314,0.25665 0.48948,0.42863 0.82814,0.45509 h 1.75419 l -2.79929,-4.51644 z"
         inkscape:connector-curvature="0" />
      <path
         id="path4170"
         style="fill:#53585b;stroke-width:0px"
         d="m 3.54485,145.25881 c 0,0.58473 -0.45244,1.0504 -1.016,1.0504 -0.56357,0 -1.02394,-0.46567 -1.02394,-1.0504 0,-0.58473 0.45508,-1.05304 1.02394,-1.05304 0.56885,0 1.016,0.46831 1.016,1.05304 z m -0.17463,0 c 0,-0.48418 -0.381,-0.87312 -0.84137,-0.87312 -0.46038,0 -0.84402,0.38629 -0.84402,0.87312 0,0.48683 0.3757,0.87577 0.84402,0.87577 0.46831,0 0.84137,-0.39423 0.84137,-0.87577 z m -0.64294,0.0926 0.30427,0.51594 c -0.0317,0.0106 -0.0635,0.0159 -0.10318,0.0159 -0.0317,0 -0.0794,0 -0.10319,-0.003 l -0.2884,-0.49477 h -0.0132 c -0.0688,0 -0.14287,-0.003 -0.21695,-0.0106 v 0.49742 c -0.0291,0.0106 -0.0529,0.0106 -0.082,0.0106 -0.0344,0 -0.0688,0 -0.10584,-0.0106 v -1.19857 c 0.11377,-0.0291 0.26988,-0.045 0.40217,-0.045 0.32014,0 0.45773,0.14288 0.45773,0.36248 0,0.17727 -0.10584,0.29898 -0.254,0.35719 z m -0.41804,-0.14816 c 0.0741,0.0106 0.14817,0.0106 0.21696,0.0106 0.21167,0 0.26988,-0.0926 0.26988,-0.21167 0,-0.12436 -0.0688,-0.20108 -0.26988,-0.20108 -0.0688,0 -0.14023,0.005 -0.21696,0.0159 z"
         inkscape:connector-curvature="0" />
    </g>
  </g>
</svg>
