<svg class="c-site-nav__logo" viewBox="0 0 364.15 116.73" xmlns="http://www.w3.org/2000/svg">
<g class="c-site-nav__logo-text">
<path d="m0 90.37 36.76-87.89h7.06l36.77 87.89h-9.29l-11.38-27.49h-39.49l-11.27 27.49zm40.36-77.74-18.08 43.45h35.65z"></path>
<path d="m121.61 91.6a25.7 25.7 0 0 1 -14.48-4.14 32.82 32.82 0 0 1 -10.13-10.46v39.73h-8.44v-90.86h7.55v12.51a31.22 31.22 0 0 1 10.27-9.85 26.35 26.35 0 0 1 13.74-3.77 27.38 27.38 0 0 1 12.32 2.79 31.37 31.37 0 0 1 9.72 7.45 35.6 35.6 0 0 1 8.66 23.21 39.13 39.13 0 0 1 -2.1 12.88 33 33 0 0 1 -6 10.64 28.7 28.7 0 0 1 -9.28 7.24 26.23 26.23 0 0 1 -11.82 2.66m-2.35-7.42a19.83 19.83 0 0 0 9.4-2.23 23.56 23.56 0 0 0 7.24-5.88 26.37 26.37 0 0 0 4.65-8.29 29.22 29.22 0 0 0 1.61-9.6 26.71 26.71 0 0 0 -1.86-9.9 27.37 27.37 0 0 0 -5.08-8.31 24.19 24.19 0 0 0 -7.62-5.7 21.66 21.66 0 0 0 -9.47-2.1 18.88 18.88 0 0 0 -6.68 1.3 29.24 29.24 0 0 0 -6.56 3.5 23 23 0 0 0 -5.27 5 13.7 13.7 0 0 0 -2.63 6.16v19.84a29.49 29.49 0 0 0 3.78 6.44 26.91 26.91 0 0 0 5.2 5.14 24.51 24.51 0 0 0 6.31 3.4 20.21 20.21 0 0 0 7 1.24"></path>
<path d="m190.74 91.6a31.35 31.35 0 0 1 -23.27-10 33.7 33.7 0 0 1 -6.74-10.71 34.78 34.78 0 0 1 -2.42-13 34.06 34.06 0 0 1 2.42-12.81 32.42 32.42 0 0 1 6.74-10.52 32.78 32.78 0 0 1 10.21-7.18 31.47 31.47 0 0 1 36 7.24 34 34 0 0 1 8.91 23.15q0 1-.06 2a6.81 6.81 0 0 1 -.19 1.36h-55.12a27.26 27.26 0 0 0 2.42 9.6 26.78 26.78 0 0 0 5.2 7.61 22.65 22.65 0 0 0 7.3 5 22 22 0 0 0 8.85 1.8 23.28 23.28 0 0 0 6.32-.87 24.66 24.66 0 0 0 5.69-2.27 20.06 20.06 0 0 0 4.64-3.65 16.37 16.37 0 0 0 3.16-4.77l7.3 2a21.29 21.29 0 0 1 -4.21 6.5 29.48 29.48 0 0 1 -6.31 5.08 31.34 31.34 0 0 1 -7.92 3.34 34.06 34.06 0 0 1 -8.92 1.17m23.77-36.88a26.07 26.07 0 0 0 -2.41-9.47 25.77 25.77 0 0 0 -5.2-7.37 23 23 0 0 0 -7.37-4.83 23.81 23.81 0 0 0 -17.82 0 23 23 0 0 0 -7.37 4.83 23.76 23.76 0 0 0 -5.07 7.43 27.9 27.9 0 0 0 -2.27 9.34z"></path>
<path d="m233 0h8.42v75.76a7.73 7.73 0 0 0 2 5.63 7.41 7.41 0 0 0 5.57 2 16.55 16.55 0 0 0 3.22-.37 20 20 0 0 0 3.47-1l1.48 6.81a27.59 27.59 0 0 1 -5.75 1.61 33.83 33.83 0 0 1 -5.88.62q-5.82 0-9.16-3.28t-3.37-9.17z"></path>
<path d="m263 0h8.41v75.76a7.69 7.69 0 0 0 2 5.63 7.37 7.37 0 0 0 5.56 2 16.55 16.55 0 0 0 3.22-.37 20 20 0 0 0 3.47-1l1.49 6.81a27.7 27.7 0 0 1 -5.76 1.61 33.83 33.83 0 0 1 -5.88.62q-5.82 0-9.16-3.28t-3.35-9.17z"></path>
<path d="m293.6 25.87h8.42v64.49h-8.42z"></path>
<path d="m339 91.6a44.93 44.93 0 0 1 -14.74-2.47 35.43 35.43 0 0 1 -12.35-7.13l3.84-5.69a41.73 41.73 0 0 0 11.08 6.68 32.45 32.45 0 0 0 12.07 2.23q7.8 0 12.44-3.16a10.19 10.19 0 0 0 4.66-9.06 7.82 7.82 0 0 0 -1.23-4.52 10.78 10.78 0 0 0 -3.66-3.16 28.38 28.38 0 0 0 -6.11-2.32c-2.44-.7-5.26-1.43-8.48-2.17q-5.57-1.35-9.66-2.72a29.34 29.34 0 0 1 -6.74-3.1 11 11 0 0 1 -4-4.27 13.84 13.84 0 0 1 -1.3-6.37 18.31 18.31 0 0 1 1.91-8.54 17.48 17.48 0 0 1 5.2-6.13 23.55 23.55 0 0 1 7.75-3.7 34.13 34.13 0 0 1 9.32-1.24 36.2 36.2 0 0 1 13.49 2.41 26.76 26.76 0 0 1 9.78 6.38l-4.09 5a22.57 22.57 0 0 0 -8.73-5.57 31.16 31.16 0 0 0 -10.7-1.86 26.8 26.8 0 0 0 -6.19.68 15 15 0 0 0 -5 2.17 10.62 10.62 0 0 0 -3.41 3.77 11.14 11.14 0 0 0 -1.24 5.39 8.84 8.84 0 0 0 .87 4.21 7.33 7.33 0 0 0 2.85 2.78 22.72 22.72 0 0 0 5 2.11c2 .62 4.47 1.26 7.37 1.92q6.18 1.49 10.89 3a34.89 34.89 0 0 1 7.86 3.46 13.64 13.64 0 0 1 4.76 4.83 13.83 13.83 0 0 1 1.61 6.94 16.82 16.82 0 0 1 -6.81 14.11q-6.76 5.11-18.31 5.11"></path>
</g>
<path class="c-site-nav__logo-dot" d="m307.33 9.6a9.61 9.61 0 1 1 -9.6-9.6 9.6 9.6 0 0 1 9.6 9.6"></path>
</svg>