<svg width="111" height="48" viewBox="0 0 111 48" fill="none" xmlns="http://www.w3.org/2000/svg">
<g clip-path="url(#clip0_4107_405)">
<path d="M4.5911 45.9596C4.19445 45.9841 3.79841 45.9038 3.4476 45.7278C3.09679 45.5518 2.80515 45.2871 2.60551 44.9635V48H1.63136C0.559322 48 0 47.4691 0 46.2448V42.3878C0 39.7551 1.53347 38.25 4.27881 38.25C6.54873 38.25 8.25 39.698 8.25 41.949C8.25 44.4326 6.70254 45.9596 4.5911 45.9596ZM3.96652 40.1631C3.23941 40.1631 2.64746 40.8301 2.64746 41.9183C2.64746 43.4716 3.35127 44.0157 4.26483 44.0157C5.17839 44.0157 5.57458 43.3093 5.57458 42.2255C5.57458 40.6414 5.06652 40.1631 3.96652 40.1631Z" fill="#231F20"/>
<path d="M15.5143 45.7326C14.1703 45.7326 13.9283 45.1177 13.9283 44.2195V41.7951C13.9283 40.766 13.552 40.3038 12.8217 40.3038C11.8181 40.3038 11.5762 40.8183 11.5762 41.8474V45.7326H10.707C9.47491 45.7326 9 45.2355 9 44.2195V36H9.82885C10.8952 36 11.5045 36.5015 11.5045 37.439V39.3096C11.8853 38.7296 12.5081 38.2936 13.6864 38.2936C15.1873 38.2936 16.5 39.4273 16.5 41.3895V45.75L15.5143 45.7326Z" fill="#231F20"/>
<path d="M21.1781 45.75C19.7457 45.75 18 45.104 18 43.4867C18 41.8695 19.1906 41.108 21.8987 41.108H22.2613V40.8127C22.2613 40.2266 21.7868 40.0854 20.7752 40.0854C19.3831 40.0854 18.8684 40.3977 18.3402 40.8641H18.273V40.0084C18.273 39.1527 19.2309 38.25 21.3571 38.25C23.4116 38.25 24.75 39.2469 24.75 41.339V42.4214C24.75 45.0141 23.8861 45.75 21.1781 45.75ZM22.315 42.6353H21.7868C20.8155 42.6353 20.4216 42.8664 20.4216 43.3456C20.4216 43.8247 20.7215 44.0301 21.4377 44.0301C21.5566 44.0407 21.6765 44.0255 21.7885 43.9858C21.9005 43.9461 22.0017 43.8828 22.0847 43.8006C22.1676 43.7185 22.2302 43.6195 22.2677 43.5111C22.3053 43.4027 22.3168 43.2877 22.3016 43.1744L22.315 42.6353Z" fill="#231F20"/>
<path d="M29.9471 40.3565C29.6654 40.252 29.3658 40.203 29.0652 40.2122C28.4523 40.2122 27.9717 40.5184 27.9717 41.402V45.75H27.2662C26.1771 45.75 25.5025 45.2513 25.5025 44.0353V40.8771C25.4869 40.5283 25.5446 40.1801 25.672 39.8546C25.7994 39.5291 25.9937 39.2336 26.2426 38.9867C26.4914 38.7398 26.7894 38.547 27.1174 38.4206C27.4455 38.2942 27.7965 38.237 28.1481 38.2525C29.4136 38.2525 30 38.7687 30 39.4423V40.3565H29.9471Z" fill="#231F20"/>
<path d="M41.1459 45.75C39.8518 45.75 39.5326 45.1843 39.5326 44.2809V41.5926C39.5326 40.6498 39.2177 40.3033 38.5016 40.3033C37.7856 40.3033 37.5742 40.8252 37.5742 41.5488V45.75H36.7115C35.7064 45.75 35.1715 45.4211 35.1715 44.2809V41.5225C35.1715 40.6454 34.848 40.3033 34.1966 40.3033C33.5452 40.3033 33.2303 40.6629 33.2303 41.5619V45.75H32.3676C31.259 45.75 30.75 45.2106 30.75 44.2809V41.7242C30.75 39.6061 31.9492 38.251 34.2311 38.251C34.6824 38.238 35.1281 38.3546 35.5171 38.5872C35.9062 38.8199 36.223 39.1593 36.4311 39.5666C36.676 39.1826 37.0071 38.8632 37.397 38.6345C37.7869 38.4058 38.2246 38.2744 38.6742 38.251C40.762 38.251 42 39.5096 42 41.79V45.7368L41.1459 45.75Z" fill="#231F20"/>
<path d="M46.6759 45.75C45.2401 45.75 43.5 45.104 43.5 43.4867C43.5 41.8695 44.6899 41.108 47.3917 41.108H47.7585V40.8127C47.7585 40.2266 47.2843 40.0854 46.2689 40.0854C44.8777 40.0854 44.3633 40.3977 43.8355 40.8641H43.7773V40.0084C43.7773 39.1527 44.7391 38.25 46.8593 38.25C48.9125 38.25 50.25 39.2469 50.25 41.339V42.4214C50.2411 45.0141 49.3777 45.75 46.6759 45.75ZM47.8032 42.6353H47.2888C46.3136 42.6353 45.9245 42.8664 45.9245 43.3456C45.9245 43.8247 46.2197 44.0301 46.9354 44.0301C47.0544 44.0405 47.1744 44.0253 47.2865 43.9856C47.3986 43.9459 47.4999 43.8827 47.5831 43.8007C47.6664 43.7186 47.7293 43.6198 47.7674 43.5114C47.8055 43.403 47.8177 43.2879 47.8032 43.1744V42.6353Z" fill="#231F20"/>
<path d="M56.9613 40.783C56.5065 40.4416 55.949 40.2656 55.3808 40.2841C54.1739 40.2841 53.4996 40.8991 53.4996 41.8968C53.4996 43.1181 54.1739 43.6901 55.2649 43.6901C55.8628 43.7122 56.4559 43.5741 56.9828 43.2901V44.0298C56.9828 44.9802 56.0122 45.75 54.7151 45.75C52.5676 45.75 51 44.2792 51 42.0473C51 40.0046 52.4173 38.25 54.9341 38.25C56.0637 38.25 57 38.9897 57 39.9143V40.7744L56.9613 40.783Z" fill="#231F20"/>
<path d="M61.5069 42.8896H60.3651C60.517 43.5962 61.1432 43.9325 62.2436 43.9325C63.4636 43.9325 64.2325 43.7537 64.6653 43.4813H64.762V44.0474C64.762 44.9498 63.9701 45.75 61.7832 45.75C59.1404 45.75 57.75 44.1027 57.75 42.149C57.75 40.0207 59.3246 38.25 61.6865 38.25C63.6892 38.25 65.25 39.2928 65.25 41.0934C65.25 42.515 64.0944 42.8896 61.5069 42.8896ZM61.6865 40.0846C61.5063 40.0751 61.326 40.1003 61.1569 40.1584C60.9877 40.2165 60.8334 40.3064 60.7037 40.4223C60.5739 40.5383 60.4716 40.6778 60.403 40.8321C60.3344 40.9864 60.3011 41.1522 60.3052 41.319H61.3366C62.5843 41.319 62.8099 41.1402 62.8099 40.8337C62.8099 40.5272 62.4507 40.0846 61.6865 40.0846Z" fill="#231F20"/>
<path d="M69.712 45.75C67.3088 45.75 66 44.5999 66 42.2515V38.25H66.9961C68.1173 38.25 68.6042 38.6173 68.6042 39.7281V42.3345C68.6042 43.406 69.1135 43.734 69.8192 43.734C70.4267 43.734 70.9092 43.3929 70.9092 42.2427V38.2675H71.9098C72.9372 38.2675 73.5 38.7048 73.5 39.7456V42.3345C73.5 44.6655 71.9902 45.75 69.712 45.75Z" fill="#231F20"/>
<path d="M75.8631 37.2328C76.2281 36.9344 76.6807 36.7648 77.1512 36.75H77.4132V38.4741H79.5V39.3362C79.4673 39.6334 79.3265 39.9081 79.1047 40.1077C78.8829 40.3073 78.5956 40.4178 78.2977 40.4181H77.4132V43.0043C77.402 43.1091 77.4141 43.2151 77.4486 43.3147C77.483 43.4143 77.5389 43.5051 77.6124 43.5804C77.6858 43.6558 77.7749 43.7139 77.8734 43.7507C77.9718 43.7875 78.0771 43.802 78.1818 43.7931C78.5591 43.8178 78.9375 43.765 79.2939 43.6379H79.3583V44.6034C79.3583 45.2026 78.813 45.75 77.5291 45.75C76.3096 45.75 75 45.1638 75 43.194V38.7543C75.0146 38.4504 75.1004 38.1543 75.2503 37.89C75.4003 37.6256 75.6102 37.4004 75.8631 37.2328Z" fill="#231F20"/>
<path d="M81.7775 38.3617C81.5832 38.3754 81.3875 38.3551 81.203 38.3021C81.0185 38.2491 80.8491 38.1645 80.7055 38.0537C80.5619 37.9429 80.4473 37.8083 80.3689 37.6584C80.2905 37.5086 80.25 37.3466 80.25 37.183C80.25 37.0193 80.2905 36.8573 80.3689 36.7075C80.4473 36.5576 80.5619 36.423 80.7055 36.3122C80.8491 36.2014 81.0185 36.1168 81.203 36.0638C81.3875 36.0108 81.5832 35.9905 81.7775 36.0042C82.1501 36.0042 82.5073 36.1283 82.7708 36.3494C83.0342 36.5705 83.1822 36.8703 83.1822 37.183C83.1822 37.4956 83.0342 37.7954 82.7708 38.0165C82.5073 38.2376 82.1501 38.3617 81.7775 38.3617ZM83.1228 45.75C81.6143 45.75 80.4323 45.1232 80.4323 43.492V38.9636H81.1346C82.7519 38.9636 83.2712 39.3538 83.2712 40.6239V43.1558C83.2712 43.7701 83.6174 43.9569 84.4087 43.9569H84.75V44.6625C84.75 45.4719 84.0032 45.75 83.1228 45.75Z" fill="#231F20"/>
<path d="M91.4355 40.7787C90.9798 40.4388 90.4219 40.2644 89.8539 40.2841C88.6418 40.2841 87.9713 40.8991 87.9713 41.8968C87.9713 43.1181 88.6418 43.6901 89.7378 43.6901C90.3362 43.7122 90.9297 43.5741 91.457 43.2901H91.4871V44.0298C91.4871 44.9802 90.5115 45.75 89.2135 45.75C87.043 45.75 85.5 44.2792 85.5 42.0473C85.5 40.0046 86.914 38.25 89.4327 38.25C90.563 38.25 91.5 38.9897 91.5 39.9143V40.7744L91.4355 40.7787Z" fill="#231F20"/>
<path d="M95.4281 45.75C93.9957 45.75 92.25 45.104 92.25 43.4867C92.25 41.8695 93.4406 41.108 96.1442 41.108H96.5113V40.8127C96.5113 40.2266 96.0368 40.0854 95.0207 40.0854C93.6286 40.0854 93.1139 40.3977 92.5857 40.8641H92.5186V40.0084C92.5186 39.1527 93.4809 38.25 95.6071 38.25C97.6616 38.25 99 39.2469 99 41.339V42.4214C99 45.0141 98.1316 45.75 95.4281 45.75ZM96.565 42.6353H96.0502C95.0744 42.6353 94.685 42.8664 94.685 43.3456C94.685 43.8247 94.9804 44.0301 95.7011 44.0301C95.8198 44.0398 95.9394 44.0241 96.051 43.9841C96.1626 43.9441 96.2634 43.8808 96.3462 43.7989C96.429 43.7169 96.4916 43.6183 96.5294 43.5103C96.5673 43.4022 96.5794 43.2875 96.565 43.1744V42.6353Z" fill="#231F20"/>
<path d="M102.466 45.75C101.008 45.75 99.75 44.9638 99.75 43.2661V36H100.706C101.907 36 102.485 36.4968 102.485 37.728V42.9118C102.485 43.5512 102.877 43.7456 103.643 43.7456H104.25V44.6095C104.259 45.4735 103.332 45.75 102.466 45.75Z" fill="#231F20"/>
<path d="M107.832 45.75C105.876 45.75 105.168 45.0414 105.168 44.0084V43.2998H105.233C105.881 43.7363 106.655 43.9535 107.439 43.9188C108.337 43.9188 108.626 43.7096 108.626 43.3638C108.626 43.0181 108.458 42.9114 106.968 42.7065C105.673 42.5229 105 41.9424 105 40.8112C105 39.1037 106.632 38.25 108.272 38.25C109.912 38.25 110.827 38.8818 110.827 39.9575V40.6917H110.763C110.108 40.2737 109.339 40.0664 108.561 40.0983C107.633 40.0983 107.331 40.3459 107.331 40.6404C107.331 40.935 107.491 41.0033 108.988 41.2466C110.193 41.4387 111 42.1003 111 43.287C111 44.781 109.796 45.75 107.832 45.75Z" fill="#231F20"/>
<path d="M4.14671 7.49856C1.86711 7.49856 0 5.83253 0 3.75C0 1.66747 1.86711 0.00143899 4.14671 0.00143899C4.67314 -0.0124033 5.19723 0.073736 5.68882 0.254901C6.18042 0.436067 6.62982 0.708682 7.01117 1.05707C7.39252 1.40545 7.69829 1.82272 7.9109 2.28488C8.1235 2.74704 8.23875 3.24496 8.25 3.75C8.23875 4.25504 8.1235 4.75296 7.9109 5.21512C7.69829 5.67728 7.39252 6.09455 7.01117 6.44294C6.62982 6.79132 6.18042 7.06393 5.68882 7.2451C5.19723 7.42626 4.67314 7.5124 4.14671 7.49856Z" fill="#231F20"/>
<path d="M7.47227 32.25C3.27945 32.25 0 30.1725 0 24.7631V9.75H1.94853C6.43711 9.75 7.88982 11.0566 7.88982 15.1986V23.6002C7.88982 25.6385 8.84233 26.2613 11.0475 26.2613H12V28.6089C12 31.3354 9.92534 32.25 7.47227 32.25Z" fill="#231F20"/>
<path d="M33.4877 32.25C30.0851 32.25 29.0217 31.06 29.0217 27.4988V19.3153C29.0217 16.176 28.0052 14.7773 25.4064 14.7773C23.1734 14.7773 21.9527 16.3492 21.9527 19.1865V32.25H19.354C16.0662 32.25 14.25 30.8913 14.25 27.4988V19.3153C14.25 12.6148 18.5033 8.25 25.6233 8.25C33.543 8.25 36.75 12.6148 36.75 19.5284V32.25H33.4877Z" fill="#DA291C"/>
<path d="M52.4201 8.25C58.7796 8.25 64.5 12.9711 64.5 20.0072C64.5 27.4812 59.8802 32.25 51.8299 32.25C45.1731 32.25 39.75 27.4465 39.75 20.7399C39.75 13.2182 45.0932 8.25 52.4201 8.25ZM51.9142 14.4754C49.6953 14.4754 47.7204 16.7514 47.7204 19.8555C47.7204 24.2428 49.4956 26.146 52.3402 26.146C54.8787 26.146 56.534 23.8699 56.534 20.7269C56.5562 16.6127 54.7101 14.4754 51.9142 14.4754Z" fill="#DA291C"/>
<path d="M80.0301 32.25H77.8827C75.2371 32.25 73.9673 30.9976 72.6224 28.9161C69.505 24.116 66.2597 15.7071 65.25 9H69.4212C72.0316 9 73.6718 10.8328 73.9673 12.2903C74.8191 16.1018 76.1045 19.8055 77.799 23.3305C79.2717 20.625 81.3264 14.123 82.1774 9H86.0047C88.0286 9 89.25 10.2088 89.25 12.1244C89.25 13.7914 88.7032 15.4583 88.1565 17.0424C86.6397 21.4148 82.808 29.2085 80.0301 32.25Z" fill="#DA291C"/>
<path d="M99.879 32.25C95.4218 32.25 90 30.183 90 25.0241C90 19.9862 93.6997 17.4262 102.112 17.4262H103.244V16.4749C103.244 14.6154 101.773 14.1614 98.6193 14.1614C94.2854 14.1614 92.6867 15.1516 91.0482 16.6392H90.8368V13.8716C90.8368 11.0651 93.823 8.25 100.43 8.25C106.82 8.25 111 11.4284 111 18.1181V21.6295C110.987 29.9105 108.296 32.25 99.879 32.25ZM103.402 22.3041H101.808C98.7779 22.3041 97.5579 23.0478 97.5579 24.5786C97.5579 26.023 98.4828 26.7668 100.711 26.7668C102.143 26.7668 103.402 26.0619 103.402 23.9992V22.3041Z" fill="#DA291C"/>
</g>
<defs>
<clipPath id="clip0_4107_405">
<rect width="111" height="48" fill="white"/>
</clipPath>
</defs>
</svg>
