<svg width="2800pt" height="800pt" viewBox="0 0 2800 800" xmlns="http://www.w3.org/2000/svg">
  <g/>
  <g fill="#2a799e">
    <path d="M969.8 195.16c48.68-36.14 96.86-72.92 144.62-110.28-25.98 51.02-52.38 101.8-78.28 152.86-18.86-18.64-42.22-31.98-66.34-42.58m-387.96 3.94c123.68-3.22 247.34-7.1 371.02-10.06-27.26 20.7-55.12 40.62-82.92 60.62-104.82-16.28-209.56-33.16-314.4-49.22 8.68-1.58 17.54-.66 26.3-1.34m221.9 115.18c28.8-20.22 57.62-40.4 86.22-60.88 39.08 12.68 78.18 30.5 106.42 61.24-13.24 26.48-26.9 52.76-40.46 79.06-27.42-34.5-68.86-53.84-109.76-67.5-13.96-4.56-28.16-8.38-42.42-11.92m556.82-19.8c36.56-7.92 78.04-.84 105.88 25.48-11.24 10.56-20.3 23.34-26.28 37.56-13.32-12.02-29.72-21.9-48.04-22.96-17.44-1.48-35.54 5.02-47.46 17.96-25.54 26.14-23.84 73.14 3.26 97.56 14.4 13.28 35.5 17.66 54.36 13.32 14.56-2.78 26.92-11.56 37.88-21.1 5.66 13.34 13.94 25.54 24.38 35.6-13.98 13.32-31.36 23.32-50.4 27.12-25.24 4.94-52.38 3.66-75.88-7.46-29.54-13.44-51.5-41.64-58-73.36-5.06-25.02-2.44-51.94 9.26-74.8 13.82-27.76 40.74-48.4 71.04-54.92"/>
    <path d="M1539.78 294.8c38.78-8.96 83.4-.58 111.48 29.12-9.82 11.48-19.78 22.84-29.76 34.18-13.58-12.46-30.44-22.76-49.32-23.56-18.5-1.54-37.46 6.3-49.32 20.62-22.62 26.48-20.52 70.56 5.12 94.32 13.72 12.94 33.74 17.94 52.14 14.52 16.74-2.36 30.74-12.74 43.04-23.68 9.84 10.04 19.88 19.88 29.76 29.88-13.62 14.84-30.54 27.22-50.1 32.76-23 6.38-48.02 6.72-70.9-.38-28.14-8.66-52.02-29.92-63.94-56.84-13.92-31.44-12.76-69.44 3.98-99.6 13.88-25.82 39.36-44.68 67.82-51.34m915.24-1.24c38.82-7.44 82.14 4.62 108.3 35.08 27.84 31.22 33.66 79.14 15.98 116.76-10.44 22.84-29.52 41.42-52.32 51.84-23.1 10.68-49.62 12.88-74.46 8.14-30.48-5.92-58.48-25.2-73.36-52.66-14.12-24.88-16.78-55.48-9.34-82.88 10.54-39.18 45.44-69.54 85.2-76.28m10.12 41.9c-19.94 3.48-37.44 17.7-45.1 36.4-11.92 27.18-4.4 62.42 19.8 80.42 23.58 18.42 60.58 16.66 81.62-4.92 25.48-24.7 25.34-70.04.02-94.82-14.32-14.78-36.26-20.94-56.34-17.08m-1309.2-41.94c14.26-.06 28.54.04 42.82-.06 30.36 70.06 60.1 140.4 90.28 210.54-16.3.02-32.6-.02-48.9.02-6.38-15.4-12.86-30.74-18.88-46.28-29.54-.56-59.08-.1-88.6-.22-6.34 15.5-12.64 31.02-19.1 46.48h-47.72c30.04-70.16 60.1-140.32 90.1-210.48m20.78 56.56c-9.04 22.16-18.28 44.24-27.34 66.4 18.3.04 36.62.04 54.92 0-9.26-22.1-18.04-44.42-27.58-66.4M2181 295c31.66-.02 63.3.02 94.96-.02 18.94.06 38.72 3.44 54.54 14.54 14 9.58 23.04 25.5 25.18 42.24 2.6 19.06-.14 39.96-12.32 55.46-7.86 10.44-19.18 17.64-31.22 22.32 16.48 25.12 34.04 49.56 50.88 74.44-18.28.04-36.56 0-54.82.02-14.76-22.22-29.9-44.2-44.64-66.44-12.02-.12-24.04-.06-36.04-.04-.04 22.14-.04 44.3 0 66.46-15.46.14-30.9-.18-46.34.16-.44-69.7-.08-139.42-.18-209.14m46.5 42.02c0 19.82-.02 39.64.02 59.46 11.46.04 22.92 0 34.4.02 11.74.04 24.58.86 34.88-5.84 15.26-9.22 16.72-33.52 3.8-45.28-7.84-6.74-18.64-8.38-28.62-8.4-14.82.04-29.66 0-44.48.04m-557.02 166.96c.14-69.7-.2-139.38.18-209.08 52.76.22 105.54.04 158.32.1.04 13.82.04 27.66 0 41.5-37.28-.06-74.56.12-111.84-.08-.28 14.02-.08 28.04-.12 42.08 32.82.02 65.64-.02 98.48 0v40.98c-32.84.04-65.66 0-98.48.02-.04 14.5-.02 29 0 43.48 37.82.08 75.66-.08 113.5.08-.06 13.64 0 27.28-.02 40.92-53.34.02-106.68.06-160.02 0m176-208.96c15.5-.06 31-.02 46.52-.02 0 55.66.04 111.3-.02 166.94 31.16.14 62.34 0 93.52.08v41.96c-46.68.02-93.34.04-140 0 0-69.66.02-139.3-.02-208.96m158.48 208.92c.1-69.66-.02-139.3.06-208.94 52.78-.06 105.56.08 158.36-.08.26 13.86.04 27.7.12 41.56-37.5.04-74.98.02-112.46 0-.06 14-.04 28-.02 42.02h98.96c.02 13.66.04 27.34 0 41.02-33-.04-65.98-.02-98.96-.02-.04 14.5-.02 28.98-.02 43.48 38 .04 76-.02 114 .02.02 13.66-.04 27.3.04 40.94q-80.04.15-160.08 0m601.54.04c.06-69.68-.12-139.34.08-209.02 14.4.2 28.8-.24 43.22.24 32.3 42.82 65.14 85.22 97.7 127.86 0-42.68-.02-85.36 0-128.04 15.28-.08 30.58.06 45.88-.1.28 69.68.02 139.38.14 209.06-13.34.04-26.64 0-39.94.04-33.8-43.86-67.38-87.88-101.08-131.78V504c-15.34 0-30.68.02-46-.02M281.54 319.24c167.22-2.94 334.46-5.64 501.68-8.76-31.96 22.06-63.62 44.72-97.08 64.44-42.16-4.38-84.22-10.28-126.34-15.2-101.2-12.54-202.42-24.9-303.64-37.44-5.02-.62-10.1-.8-15.16-1.1 13.38-2.66 27.02-1.18 40.54-1.94m429.2 58.9c41.72 6.98 83.34 16.38 122.5 32.66 31.7 13.4 62.98 31.98 82.54 61.12-13.58 26.84-27.48 53.52-41.12 80.32-21.38-37.2-59.96-60.24-98.94-75.34-51.86-20.16-107.16-29.54-162.22-35.76 32.42-21 65.24-41.36 97.24-63M5.56 440.84c67.48-.66 135.02-.22 202.52-.32 72.02-1.3 144.1.16 216.14-.82 54.86-.42 109.72-.12 164.6-.16-32.1 20.58-64.66 40.44-97.18 60.32-2.7 2.38-6.3.92-9.4.8-158.86-20.2-317.88-39.22-476.68-59.82m498.38 69c2.86-2.2 6.4-2.74 9.94-2.3 49.4 3.3 98.78 8.78 147.14 19.58 34.14 7.82 68.04 18.04 99.2 34.26 30.62 15.68 59.18 38.8 73.44 70.88-14.3 27.38-28.1 55-42.46 82.34-10.68-32.98-36.98-58.3-66.42-75.2-35.38-20.56-75.02-32.48-114.76-41.26-71.32-15.14-144.38-20.16-217.14-21.26 37-22.36 74.32-44.24 111.06-67.04"/>
  </g>
</svg>
