<svg fill="none" height="100%" viewBox="0 0 140 24" width="100%" xmlns="http://www.w3.org/2000/svg">
<g clip-path="url(#clip0_10051_25606)">
<path d="M52.5054 1.44238C46.6765 1.44238 41.9517 6.1676 41.9517 11.9961C41.9517 17.8246 46.6765 22.5499 52.5054 22.5499C58.3343 22.5499 63.0591 17.8246 63.0591 11.9961C63.0591 6.1676 58.3339 1.44238 52.5054 1.44238ZM52.5054 19.9339C48.4334 19.9339 45.1325 16.3801 45.1325 11.9961C45.1325 7.61212 48.4334 4.05838 52.5054 4.05838C56.5774 4.05838 59.8783 7.61212 59.8783 11.9961C59.8783 16.3801 56.5774 19.9339 52.5054 19.9339Z" fill="#202020"></path>
<path d="M37.1597 22.1929V1.79883H40.2216V22.1929H37.1597Z" fill="#202020"></path>
<path d="M64.7888 22.1929V1.79883H69.6643L74.3022 14.4635C74.4211 14.8204 74.5547 15.2267 74.7036 15.6823C74.8521 16.1383 74.9905 16.5741 75.1196 16.9905C75.2483 17.4068 75.3523 17.7835 75.4316 18.1202H75.6695C75.729 17.8034 75.8128 17.4364 75.922 17.0204C76.0305 16.604 76.1599 16.1731 76.3084 15.7272C76.457 15.2813 76.5804 14.8701 76.6799 14.4934L81.3175 1.79918H86.1634V22.1933H82.9822V10.3313C82.9822 9.71709 82.9919 9.05831 83.0121 8.35431C83.0316 7.651 83.0517 7.0117 83.0716 6.43674C83.091 5.86213 83.1011 5.43605 83.1011 5.15848H82.8931C82.8135 5.45587 82.6997 5.83778 82.5512 6.30318C82.4023 6.76926 82.2542 7.25448 82.1053 7.75987C81.9564 8.26526 81.8128 8.72613 81.6743 9.14213L76.858 22.1933H74.0041L69.1582 9.14213C69.0392 8.78561 68.9056 8.37448 68.7568 7.90839C68.6079 7.443 68.4691 6.97205 68.3404 6.49622C68.2114 6.02074 68.0879 5.57448 67.969 5.15848H67.7606C67.7801 5.61448 67.795 6.14978 67.8055 6.7637C67.8152 7.37831 67.8246 7.99744 67.835 8.62178C67.8448 9.24613 67.85 9.81622 67.85 10.3313V22.1933H64.7881L64.7888 22.1929Z" fill="#202020"></path>
<path d="M88.7585 22.1929V1.79883H103.772V4.41483H91.7613V10.4795H102.493V13.0364H91.7613V19.5769H103.772V22.1929H88.7585Z" fill="#202020"></path>
<path d="M124.117 22.1929V1.79883H139.13V4.41483H127.12V10.4795H137.852V13.0364H127.12V19.5769H139.13V22.1929H124.117Z" fill="#202020"></path>
<path d="M112.399 22.1929V4.41483H105.501V1.79883H122.388V4.41483H115.461V22.1929H112.399H112.399Z" fill="#202020"></path>
<path d="M26.641 10.7969L21.1002 1.19965C20.6717 0.457391 19.8797 0 19.0223 0H7.94017C7.08313 0 6.29078 0.457391 5.86226 1.19965L0.321391 10.7969C-0.10713 11.5391 -0.10713 12.4539 0.321391 13.1962L5.86226 22.7934C6.29078 23.5357 7.08278 23.993 7.94017 23.993H19.0223C19.8793 23.993 20.6717 23.5357 21.1002 22.7934L26.641 13.1962C27.0696 12.4539 27.0696 11.5391 26.641 10.7969ZM19.6219 18.225C19.6219 18.7318 19.2814 19.1757 18.792 19.3068L8.096 22.1729C7.71513 22.2751 7.34087 21.9878 7.34087 21.5934V5.76835C7.34087 5.26156 7.68139 4.81774 8.17078 4.68661L18.8668 1.82052C19.2477 1.71826 19.6219 2.00557 19.6219 2.4V18.2254V18.225Z" fill="#202020"></path>
</g>
<defs>
<clipPath id="clip0_10051_25606">
<rect fill="white" height="24" width="139.13"></rect>
</clipPath>
</defs>
</svg>