<svg width="167" height="60" viewBox="0 0 167 60" fill="none" xmlns="http://www.w3.org/2000/svg">
<path d="M14.3295 34.3521H26.7949C27.0915 34.7952 29.0507 37.7815 29.0507 37.7815H43.4754C48.697 37.7815 49.7935 35.2826 49.7935 33.1824C49.7935 31.3481 49.0835 29.9923 47.7354 29.1947C48.679 28.3706 49.1644 27.325 49.1644 26.04C49.1644 24.6045 48.6611 23.4259 47.6545 22.5575C46.6749 21.6979 45.3178 21.2637 43.6461 21.2637H30.8212V33.0938L22.9124 21.2814H18.239L7.27441 37.7815H12.0826L14.3295 34.3521ZM16.6841 30.905C17.502 29.6821 19.8926 26.0843 20.5757 25.0653C21.2587 26.0843 23.6583 29.691 24.4672 30.905H16.6841ZM43.9068 31.1709C45.8211 31.1709 46.0817 32.0038 46.0817 32.828C46.0817 33.2444 46.0817 34.3344 43.5203 34.3344H34.4881V31.1709H43.9068ZM34.4881 27.7149V24.7374H43.7989C44.3921 24.7374 44.8235 24.8703 45.138 25.145C45.4346 25.402 45.5784 25.7387 45.5784 26.2084C45.5784 26.6249 45.4166 26.9528 45.0751 27.2541C44.7066 27.5731 44.2573 27.7149 43.7001 27.7149H34.4881Z" fill="#32A4D4"/>
<path d="M0.0576172 29.9911C0.0576172 13.7037 13.4487 0.5 29.9764 0.5C46.4952 0.5 59.8953 13.7037 59.8953 30C59.8953 46.2963 46.4952 59.5 29.9764 59.5C13.4487 59.4911 0.0576172 46.2875 0.0576172 29.9911ZM12.2714 12.5339C7.7328 17.009 4.93774 23.1678 4.93774 29.9911C4.93774 36.8145 7.7328 42.9733 12.2714 47.4483C16.81 51.9234 23.0562 54.6793 29.9764 54.6793C36.8967 54.6793 43.1429 51.9234 47.6815 47.4483C52.2201 42.9733 55.0151 36.8145 55.0151 29.9911C55.0151 23.1678 52.2201 17.009 47.6815 12.5339C43.1429 8.06774 36.8967 5.30294 29.9764 5.30294C23.0562 5.30294 16.81 8.06774 12.2714 12.5339Z" fill="#32A4D4"/>
<path d="M67.0758 25.7811H65.7637L71.5335 11.9482H71.6324L77.4202 25.7811H76.0721L75.1195 23.4328H68.0465L67.0758 25.7811ZM71.5875 14.7839L68.5048 22.2808H74.6342L71.5875 14.7839Z" fill="#32A4D4"/>
<path d="M79.8735 12.2676H83.2977C87.8363 12.2676 90.5325 15.0324 90.5325 19.0289C90.5325 23.0255 87.8543 25.7903 83.2977 25.7903H79.8735V12.2676ZM83.1809 24.6117C87.2342 24.6117 89.1664 22.3077 89.1664 19.0289C89.1664 15.7502 87.2342 13.4462 83.1809 13.4462H81.1857V24.6205H83.1809V24.6117Z" fill="#32A4D4"/>
<path d="M91.4395 12.2676H92.8505L97.2902 23.1407L101.748 12.2676H103.096L97.3082 26.065H97.2273L91.4395 12.2676Z" fill="#32A4D4"/>
<path d="M103.502 25.7811H102.189L107.959 11.9482H108.058L113.846 25.7811H112.498L111.554 23.4328H104.481L103.502 25.7811ZM108.013 14.7839L104.931 22.2808H111.06L108.013 14.7839Z" fill="#32A4D4"/>
<path d="M117.53 15.1479V25.7818H116.299V11.9844H116.416L125.655 22.9018V12.2679H126.886V26.0653H126.769L117.53 15.1479Z" fill="#32A4D4"/>
<path d="M129.582 19.0205C129.582 15.0062 132.629 12.0996 136.52 12.0996C138.839 12.0996 140.672 13.0301 141.904 14.6251L140.897 15.3429C139.873 14.0314 138.417 13.2782 136.502 13.2782C133.321 13.2782 130.957 15.7417 130.957 19.0205C130.957 22.3435 133.357 24.7627 136.601 24.7627C138.578 24.7627 140.169 23.9475 141.257 22.5208L142.281 23.2385C140.933 24.9843 139.019 25.9413 136.556 25.9413C132.62 25.9413 129.564 23.0347 129.582 19.0205Z" fill="#32A4D4"/>
<path d="M144.862 12.2676H153.131V13.4196H146.174V20.1809H152.385V21.3063H146.174V24.6294H153.409V25.7814H144.862V12.2676Z" fill="#32A4D4"/>
<path d="M156.284 12.2676H159.708C164.246 12.2676 166.943 15.0324 166.943 19.0289C166.943 23.0255 164.264 25.7903 159.708 25.7903H156.284V12.2676ZM159.591 24.6117C163.644 24.6117 165.577 22.3077 165.577 19.0289C165.577 15.7502 163.644 13.4462 159.591 13.4462H157.596V24.6205H159.591V24.6117Z" fill="#32A4D4"/>
<path d="M66.9146 33.6865H71.3902C73.9696 33.6865 75.2368 35.1575 75.2368 37.0096C75.2368 38.3034 74.5897 39.2161 73.4843 39.7124C75.2188 40.1732 76.3243 41.4581 76.3243 43.2747C76.3243 45.4635 74.8683 47.2092 71.9115 47.2092H66.9146V33.6865ZM71.534 39.2693C73.2686 39.2693 73.9337 38.3388 73.9337 37.0273C73.9337 35.7956 73.1877 34.8385 71.3094 34.8385H68.2267V39.2693H71.534ZM71.7947 46.0483C74.0685 46.0483 75.0031 44.8343 75.0031 43.2304C75.0031 41.5821 73.9786 40.3681 71.7587 40.3681H68.2267V46.0572H71.7947V46.0483Z" fill="#32A4D4"/>
<path d="M79.0273 33.6865H80.3575V47.2003H79.0273V33.6865Z" fill="#32A4D4"/>
<path d="M83.1362 40.4394C83.1362 36.4429 86.2818 33.5186 90.1733 33.5186C94.0648 33.5186 97.2104 36.4429 97.2104 40.4394C97.2104 44.4359 94.0648 47.3603 90.1733 47.3603C86.2818 47.3603 83.1362 44.4359 83.1362 40.4394ZM95.8443 40.4394C95.8443 37.1606 93.4447 34.6971 90.1823 34.6971C86.9199 34.6971 84.5203 37.1606 84.5203 40.4394C84.5203 43.7182 86.9199 46.1817 90.1823 46.1817C93.4447 46.1817 95.8443 43.7182 95.8443 40.4394Z" fill="#32A4D4"/>
<path d="M101.137 36.5649V47.1988H99.9058V33.4014H100.023L109.253 44.3188V33.6849H110.484V47.4823H110.367L101.137 36.5649Z" fill="#32A4D4"/>
<path d="M114.179 33.6865H115.509V47.2003H114.179V33.6865Z" fill="#32A4D4"/>
<path d="M118.294 40.4394C118.294 36.4251 121.341 33.5186 125.232 33.5186C127.551 33.5186 129.384 34.449 130.616 36.0441L129.609 36.7619C128.585 35.4504 127.129 34.6971 125.214 34.6971C122.033 34.6971 119.669 37.1606 119.669 40.4394C119.669 43.7625 122.069 46.1817 125.313 46.1817C127.29 46.1817 128.881 45.3664 129.969 43.9397L130.993 44.6575C129.645 46.4032 127.731 47.3603 125.268 47.3603C121.332 47.3603 118.267 44.4537 118.294 40.4394Z" fill="#32A4D4"/>
<path d="M133.609 44.0543C134.337 45.4102 135.586 46.1811 137.195 46.1811C139.073 46.1811 140.178 45.2684 140.178 43.8594C140.178 42.3707 139.253 41.6883 137.599 40.9351L136.494 40.4211C134.516 39.5084 133.33 38.6311 133.33 36.7436C133.33 34.8118 134.84 33.5269 136.862 33.5269C138.579 33.5269 139.765 34.1649 140.61 35.5118L139.603 36.1499C138.974 35.1397 138.129 34.6611 136.88 34.6611C135.532 34.6611 134.624 35.5118 134.624 36.7081C134.624 38.0019 135.37 38.4804 137.042 39.2514L138.147 39.7654C140.34 40.8022 141.49 41.7947 141.49 43.8239C141.49 46.0482 139.774 47.3597 137.212 47.3597C134.975 47.3597 133.384 46.2874 132.494 44.6392L133.609 44.0543Z" fill="#32A4D4"/>
</svg>
