<?xml version="1.0" encoding="UTF-8" standalone="no"?>
<!-- Created with Inkscape (http://www.inkscape.org/) -->

<svg
   xmlns:dc="http://purl.org/dc/elements/1.1/"
   xmlns:cc="http://creativecommons.org/ns#"
   xmlns:rdf="http://www.w3.org/1999/02/22-rdf-syntax-ns#"
   xmlns:svg="http://www.w3.org/2000/svg"
   xmlns="http://www.w3.org/2000/svg"
   xmlns:sodipodi="http://sodipodi.sourceforge.net/DTD/sodipodi-0.dtd"
   xmlns:inkscape="http://www.inkscape.org/namespaces/inkscape"
   width="197.21281"
   height="52.579632"
   viewBox="0 0 52.179225 13.911694"
   version="1.1"
   id="svg3334"
   inkscape:version="0.92.0 r15299"
   sodipodi:docname="agios.svg">
  <defs
     id="defs3328">
    <clipPath
       id="clipPath2575"
       clipPathUnits="userSpaceOnUse">
      <path
         inkscape:connector-curvature="0"
         id="path2573"
         d="M 0,0 H 630 V 810 H 0 Z" />
    </clipPath>
  </defs>
  <sodipodi:namedview
     id="base"
     pagecolor="#ffffff"
     bordercolor="#666666"
     borderopacity="1.0"
     inkscape:pageopacity="0.0"
     inkscape:pageshadow="2"
     inkscape:zoom="3.8551987"
     inkscape:cx="117.32626"
     inkscape:cy="-0.34670118"
     inkscape:document-units="mm"
     inkscape:current-layer="layer1"
     showgrid="false"
     fit-margin-top="0"
     fit-margin-left="0"
     fit-margin-right="0"
     fit-margin-bottom="0"
     units="px"
     inkscape:window-width="1280"
     inkscape:window-height="744"
     inkscape:window-x="-4"
     inkscape:window-y="-4"
     inkscape:window-maximized="1" />
  <metadata
     id="metadata3331">
    <rdf:RDF>
      <cc:Work
         rdf:about="">
        <dc:format>image/svg+xml</dc:format>
        <dc:type
           rdf:resource="http://purl.org/dc/dcmitype/StillImage" />
        <dc:title></dc:title>
      </cc:Work>
    </rdf:RDF>
  </metadata>
  <g
     inkscape:label="Layer 1"
     inkscape:groupmode="layer"
     id="layer1"
     transform="translate(13.484103,-141.7452)">
    <g
       id="g3435"
       transform="translate(0.1322909,-0.13228692)">
      <path
         d="m 15.582528,151.60343 c -0.129117,0.28011 -0.304094,0.52211 -0.525286,0.72602 -0.221192,0.2039 -0.478367,0.36159 -0.77082,0.47237 -0.292805,0.11077 -0.602544,0.16651 -0.929569,0.16651 -0.322792,0 -0.631472,-0.0476 -0.926394,-0.14217 -0.29457,-0.0949 -0.553509,-0.23389 -0.77717,-0.41699 -0.223661,-0.18309 -0.402519,-0.40887 -0.535516,-0.67768 -0.134056,-0.26882 -0.200731,-0.57715 -0.200731,-0.92463 0,-0.31468 0.05997,-0.59514 0.179917,-0.84102 0.119239,-0.24518 0.279752,-0.45862 0.48013,-0.63924 0.200378,-0.18027 0.433211,-0.32984 0.698147,-0.44803 0.264937,-0.11818 0.544689,-0.2099 0.839259,-0.27446 l 2.094089,-0.45896 v -0.76412 c 0,-0.25964 -0.0381,-0.49565 -0.113948,-0.70908 -0.0762,-0.21308 -0.1905,-0.39617 -0.342194,-0.54928 -0.1524,-0.15275 -0.342195,-0.27093 -0.570442,-0.35418 -0.227894,-0.0833 -0.494241,-0.12524 -0.798336,-0.12524 -0.332316,0 -0.598311,0.0441 -0.798689,0.13194 -0.200377,0.0878 -0.364066,0.18591 -0.490714,0.29457 -0.127,0.10865 -0.228247,0.20708 -0.304094,0.29492 -0.07655,0.0878 -0.153458,0.13194 -0.231775,0.13194 -0.07726,0 -0.145344,-0.0258 -0.202847,-0.0765 -0.05786,-0.0508 -0.08678,-0.11536 -0.08678,-0.19403 0,-0.0649 0.01835,-0.12488 0.05539,-0.18062 0.03704,-0.0554 0.07408,-0.10372 0.111125,-0.14535 0.248708,-0.29104 0.544336,-0.5013 0.885825,-0.63041 0.341488,-0.12877 0.694972,-0.19368 1.059391,-0.19368 0.383117,0 0.723547,0.0572 1.021292,0.17039 0.297391,0.11325 0.547864,0.272 0.751064,0.4759 0.2032,0.20391 0.357716,0.44697 0.463902,0.72955 0.106187,0.28257 0.159103,0.59266 0.159103,0.93062 v 3.28648 c 0,0.3429 -0.06456,0.6544 -0.193322,0.93451 m -0.373944,-2.87196 -2.010481,0.4579 c -0.248708,0.0557 -0.478014,0.13194 -0.687917,0.22895 -0.20955,0.097 -0.390172,0.21273 -0.542219,0.34679 -0.152047,0.13405 -0.270933,0.28927 -0.355953,0.46496 -0.08502,0.17568 -0.127705,0.36759 -0.127705,0.57573 0,0.24518 0.04586,0.46567 0.138289,0.66252 0.09207,0.19649 0.221191,0.36406 0.386644,0.5027 0.165806,0.13865 0.364067,0.24518 0.594431,0.31927 0.230363,0.0737 0.481188,0.11077 0.75318,0.11077 0.262467,0 0.506589,-0.0427 0.732367,-0.12806 0.225777,-0.0857 0.421569,-0.20602 0.587375,-0.36089 0.165805,-0.15487 0.29598,-0.33867 0.390172,-0.55139 0.09454,-0.21273 0.141817,-0.44415 0.141817,-0.69391 z"
         style="fill:#000000;fill-opacity:1;fill-rule:nonzero;stroke:none;stroke-width:0.35277778"
         id="path2579"
         inkscape:connector-curvature="0" />
      <path
         d="m 22.523465,154.04822 c -0.138289,0.31856 -0.326319,0.5969 -0.564444,0.83538 -0.238125,0.23777 -0.516467,0.42615 -0.835731,0.56515 -0.318911,0.13864 -0.658989,0.20814 -1.019528,0.20814 -0.189794,0 -0.388408,-0.0198 -0.596547,-0.0586 -0.208139,-0.0399 -0.41275,-0.0995 -0.613833,-0.18027 -0.201436,-0.0808 -0.388761,-0.18345 -0.561975,-0.30763 -0.173567,-0.12523 -0.317853,-0.27058 -0.433564,-0.43709 -0.02787,-0.0554 -0.04163,-0.10654 -0.04163,-0.15275 0,-0.0787 0.02999,-0.1457 0.09031,-0.20108 0.05997,-0.0554 0.12947,-0.0833 0.208139,-0.0833 0.07832,0 0.137583,0.0254 0.176742,0.0762 0.03916,0.0511 0.07973,0.10195 0.121355,0.15275 0.221898,0.21273 0.47625,0.37007 0.763059,0.47167 0.286808,0.1016 0.582789,0.15275 0.887941,0.15275 0.28187,0 0.549275,-0.0543 0.801159,-0.16298 0.251883,-0.10901 0.470605,-0.25577 0.655461,-0.44062 0.184855,-0.18486 0.331964,-0.40252 0.440619,-0.65194 0.108656,-0.24976 0.162983,-0.51823 0.162983,-0.80433 v -1.3529 c -0.248355,0.30445 -0.547158,0.5468 -0.896408,0.72637 -0.349603,0.17956 -0.733425,0.26917 -1.151467,0.26917 -0.358774,0 -0.696736,-0.0688 -1.013883,-0.20779 -0.317147,-0.13864 -0.59443,-0.32667 -0.830791,-0.5648 -0.236714,-0.23812 -0.424039,-0.51646 -0.561975,-0.83537 -0.137937,-0.31892 -0.207081,-0.65829 -0.207081,-1.01883 v -2.34279 c 0,-0.36019 0.06914,-0.69956 0.207081,-1.01883 0.137936,-0.31855 0.325261,-0.5969 0.562327,-0.83502 0.236361,-0.23813 0.513645,-0.42616 0.831145,-0.5648 0.317147,-0.13899 0.655108,-0.20814 1.013883,-0.20814 0.358422,0 0.696383,0.0692 1.013883,0.20814 0.317148,0.13864 0.594431,0.32703 0.831145,0.56515 0.236714,0.23813 0.424391,0.51647 0.562328,0.83573 0.137936,0.31891 0.20708,0.65829 0.20708,1.01882 v 5.32519 c 0,0.36018 -0.0695,0.69955 -0.207786,1.01917 m -0.359481,-6.34577 c 0,-0.28187 -0.05433,-0.54857 -0.162277,-0.80045 -0.10795,-0.25224 -0.254,-0.47025 -0.437445,-0.65511 -0.183797,-0.18521 -0.400755,-0.33196 -0.651228,-0.44062 -0.250472,-0.10865 -0.516113,-0.16298 -0.796219,-0.16298 -0.285044,0 -0.551392,0.0543 -0.799747,0.16298 -0.248003,0.10866 -0.464256,0.25541 -0.6477,0.44062 -0.183797,0.18486 -0.329847,0.40287 -0.437797,0.65511 -0.10795,0.25188 -0.161925,0.51858 -0.161925,0.80045 v 2.34351 c 0,0.28222 0.05398,0.54786 0.161925,0.79763 0.10795,0.24976 0.254,0.46778 0.437797,0.65511 0.183444,0.18732 0.399697,0.33478 0.6477,0.44344 0.248355,0.10865 0.514703,0.16298 0.799747,0.16298 0.280106,0 0.545747,-0.0543 0.796219,-0.16298 0.250473,-0.10866 0.467431,-0.25612 0.651228,-0.44344 0.183445,-0.18733 0.329495,-0.40535 0.437445,-0.65511 0.10795,-0.24977 0.162277,-0.51541 0.162277,-0.79763 z"
         style="fill:#000000;fill-opacity:1;fill-rule:nonzero;stroke:none;stroke-width:0.35277778"
         id="path2583"
         inkscape:connector-curvature="0" />
      <path
         d="m 25.070768,143.6466 c -0.05786,0.0487 -0.123472,0.073 -0.19685,0.073 -0.0695,0 -0.133703,-0.0243 -0.194028,-0.073 -0.05997,-0.0487 -0.0896,-0.11959 -0.0896,-0.21202 v -1.13912 c 0,-0.0924 0.02963,-0.16228 0.0896,-0.20849 0.06032,-0.0462 0.124531,-0.0691 0.194028,-0.0691 0.07338,0 0.138994,0.0229 0.19685,0.0691 0.05786,0.0462 0.08678,0.11606 0.08678,0.20849 v 1.13912 c 0,0.0924 -0.02893,0.16334 -0.08678,0.21202 m 0,9.10096 c -0.05786,0.0487 -0.123472,0.073 -0.19685,0.073 -0.0695,0 -0.133703,-0.0243 -0.194028,-0.073 -0.05997,-0.0487 -0.0896,-0.11889 -0.0896,-0.21167 v -7.03368 c 0,-0.0924 0.02963,-0.16298 0.0896,-0.21167 0.06032,-0.0483 0.124531,-0.0727 0.194028,-0.0727 0.07338,0 0.138994,0.0243 0.19685,0.0727 0.05786,0.0487 0.08678,0.11924 0.08678,0.21167 v 7.03368 c 0,0.0928 -0.02893,0.16299 -0.08678,0.21167"
         style="fill:#000000;fill-opacity:1;fill-rule:nonzero;stroke:none;stroke-width:0.35277778"
         id="path2587"
         inkscape:connector-curvature="0" />
      <path
         d="m 32.048359,151.36372 c -0.137936,0.31962 -0.325614,0.59725 -0.562328,0.83361 -0.237066,0.23601 -0.513997,0.42369 -0.831144,0.56268 -0.3175,0.13865 -0.655461,0.2085 -1.013884,0.2085 -0.358774,0 -0.696736,-0.0699 -1.013883,-0.2085 -0.3175,-0.13899 -0.594783,-0.32667 -0.831497,-0.56268 -0.236714,-0.23636 -0.424039,-0.51399 -0.561975,-0.83361 -0.137936,-0.31962 -0.207081,-0.66005 -0.207081,-1.02164 v -2.63278 c 0,-0.3616 0.06914,-0.70168 0.207081,-1.0213 0.137936,-0.31961 0.325261,-0.59866 0.561975,-0.83714 0.236714,-0.23848 0.513997,-0.42721 0.831497,-0.56656 0.317147,-0.13864 0.655109,-0.20849 1.013883,-0.20849 0.358423,0 0.696384,0.0699 1.013884,0.20849 0.317147,0.13935 0.594078,0.32808 0.831144,0.56656 0.236714,0.23848 0.424392,0.51753 0.562328,0.83714 0.137936,0.31962 0.207081,0.6597 0.207081,1.0213 v 2.63278 c 0,0.36159 -0.06914,0.70202 -0.207081,1.02164 m -0.360186,-3.6576 c 0,-0.28257 -0.05433,-0.54998 -0.162278,-0.80222 -0.10795,-0.25223 -0.254,-0.47095 -0.437444,-0.65652 -0.183798,-0.18485 -0.400756,-0.33196 -0.651228,-0.44062 -0.250472,-0.10865 -0.516114,-0.16333 -0.79622,-0.16333 -0.285397,0 -0.551391,0.0547 -0.799747,0.16333 -0.248002,0.10866 -0.464255,0.25577 -0.6477,0.44062 -0.183797,0.18557 -0.329847,0.40429 -0.437797,0.65652 -0.10795,0.25224 -0.161925,0.51965 -0.161925,0.80222 v 2.63208 c 0,0.28292 0.05397,0.54927 0.161925,0.79904 0.10795,0.25012 0.254,0.46884 0.437797,0.65616 0.183445,0.18768 0.399698,0.3362 0.6477,0.44486 0.248356,0.10865 0.51435,0.16298 0.799747,0.16298 0.280106,0 0.545748,-0.0543 0.79622,-0.16298 0.250472,-0.10866 0.46743,-0.25718 0.651228,-0.44486 0.183444,-0.18732 0.329494,-0.40604 0.437444,-0.65616 0.10795,-0.24977 0.162278,-0.51612 0.162278,-0.79904 z"
         style="fill:#000000;fill-opacity:1;fill-rule:nonzero;stroke:none;stroke-width:0.35277778"
         id="path2591"
         inkscape:connector-curvature="0" />
      <path
         d="m 38.430533,150.86274 c 0,0.31997 -0.06667,0.60925 -0.200025,0.86854 -0.13335,0.26 -0.313267,0.48119 -0.540808,0.66393 -0.227189,0.18309 -0.490361,0.32455 -0.789164,0.42404 -0.29845,0.0991 -0.615245,0.14922 -0.950736,0.14922 -0.170392,0 -0.352778,-0.019 -0.547864,-0.0561 -0.195439,-0.0378 -0.386292,-0.0942 -0.571853,-0.17145 -0.186267,-0.0769 -0.35948,-0.17357 -0.520347,-0.28998 -0.16122,-0.11642 -0.291747,-0.2533 -0.392642,-0.41064 -0.04939,-0.0462 -0.07408,-0.097 -0.07408,-0.1524 0,-0.0787 0.02963,-0.1457 0.08961,-0.20108 0.05927,-0.0557 0.128059,-0.0833 0.206375,-0.0833 0.07796,0 0.136525,0.0229 0.175331,0.0692 0.03881,0.0462 0.07902,0.0949 0.12065,0.14569 0.193322,0.19897 0.423686,0.34573 0.691092,0.44062 0.267405,0.0945 0.539044,0.14217 0.815622,0.14217 0.28575,0 0.545747,-0.0406 0.78105,-0.12135 0.23495,-0.0811 0.437444,-0.19121 0.608189,-0.32985 0.170391,-0.13899 0.301977,-0.30233 0.394052,-0.48965 0.09207,-0.18733 0.138289,-0.38771 0.138289,-0.60078 0,-0.26812 -0.0568,-0.49636 -0.169333,-0.68369 -0.112889,-0.18732 -0.262114,-0.34925 -0.448733,-0.48577 -0.18662,-0.13653 -0.399698,-0.25471 -0.638881,-0.35419 -0.239536,-0.0995 -0.482247,-0.19826 -0.728486,-0.29528 -0.246592,-0.097 -0.489303,-0.20143 -0.728839,-0.31256 -0.239183,-0.11077 -0.451908,-0.24518 -0.638528,-0.40252 -0.186619,-0.15734 -0.336197,-0.34501 -0.449086,-0.56233 -0.112889,-0.21731 -0.16898,-0.48365 -0.16898,-0.79868 0,-0.3101 0.06103,-0.58209 0.183091,-0.81563 0.121709,-0.23354 0.284339,-0.43039 0.487187,-0.59019 0.202494,-0.15946 0.4318,-0.28011 0.687916,-0.3609 0.255411,-0.0811 0.518936,-0.1217 0.790928,-0.1217 0.189089,0 0.381705,0.024 0.577497,0.0727 0.195792,0.0487 0.384528,0.11747 0.566208,0.20743 0.182034,0.09 0.350662,0.19967 0.505178,0.32914 0.153811,0.12947 0.284692,0.27482 0.390878,0.43639 0.03704,0.0603 0.05574,0.11324 0.05574,0.15981 0,0.0783 -0.03246,0.1457 -0.09737,0.20108 -0.06456,0.0554 -0.131586,0.0833 -0.201083,0.0833 -0.08749,0 -0.150636,-0.0268 -0.189442,-0.0797 -0.03951,-0.0533 -0.08431,-0.1076 -0.134761,-0.16298 -0.18415,-0.21273 -0.402167,-0.37924 -0.655108,-0.49954 -0.252589,-0.12029 -0.523875,-0.18027 -0.813506,-0.18027 -0.220839,0 -0.427566,0.0303 -0.620889,0.0903 -0.192969,0.0603 -0.360538,0.14852 -0.503061,0.26423 -0.142522,0.11572 -0.255764,0.25506 -0.337961,0.41699 -0.0829,0.16192 -0.124178,0.34501 -0.124178,0.54857 0,0.2413 0.05609,0.4452 0.168628,0.61207 0.112536,0.16686 0.262114,0.31291 0.448381,0.43779 0.186266,0.12524 0.398991,0.23531 0.637822,0.3302 0.23883,0.0949 0.482247,0.19121 0.730603,0.28822 0.248355,0.097 0.490714,0.20638 0.727075,0.32632 0.236714,0.12065 0.44838,0.26564 0.634294,0.43498 0.186267,0.16898 0.336903,0.37183 0.451908,0.60783 0.114653,0.23637 0.172156,0.52353 0.172156,0.86184"
         style="fill:#000000;fill-opacity:1;fill-rule:nonzero;stroke:none;stroke-width:0.35277778"
         id="path2595"
         inkscape:connector-curvature="0" />
      <path
         d="m 25.720937,142.87444 c 0,0.47766 -0.38735,0.86466 -0.864658,0.86466 -0.477661,0 -0.864659,-0.387 -0.864659,-0.86466 0,-0.47766 0.386998,-0.86466 0.864659,-0.86466 0.477308,0 0.864658,0.387 0.864658,0.86466"
         style="fill:#000000;fill-opacity:1;fill-rule:nonzero;stroke:none;stroke-width:0.35277778"
         id="path2599"
         inkscape:connector-curvature="0" />
    </g>
    <g
       id="g3440"
       style="fill:#0380b7;fill-opacity:1"
       transform="translate(0.1322909,-0.13228692)">
      <path
         d="m -6.116693,148.7378 -0.2719917,-0.16157 -0.2719916,-0.14111 -0.086783,-0.0416 -0.094897,0.0621 -0.3019777,0.19191 -0.282575,0.1711 -0.2822223,0.17109 -0.2920999,0.14147 -0.2723445,0.15063 -0.2719916,0.12101 -0.2723445,0.12135 -0.2719916,0.10054 -0.2621139,0.1009 -0.2617611,0.0808 -0.2522361,0.0706 -0.2621135,0.0603 -0.242006,0.0504 -0.251883,0.03 -0.241653,0.0303 -0.242005,0.01 -0.231775,0.0102 -0.231775,-0.0201 -0.221897,-0.01 -0.231775,-0.0406 -0.221898,-0.0402 -0.211666,-0.0603 -0.211667,-0.0607 -0.221192,-0.0808 -0.201789,-0.0801 -0.201436,-0.11112 -0.191558,-0.1009 0.181328,0.16122 0.191205,0.16122 0.201436,0.13088 0.21202,0.13124 0.201436,0.11077 0.211667,0.11112 0.221897,0.0808 0.221544,0.0804 0.221898,0.0603 0.231775,0.0505 0.231775,0.0303 0.242005,0.03 h 0.242006 0.251883 l 0.241653,-0.0201 0.2621132,-0.0198 0.2518834,-0.0508 0.2723444,-0.0603 0.2617611,-0.0706 0.2723444,-0.0804 0.2822223,-0.10089 0.282575,-0.1009 0.2818694,-0.13088 0.2924528,-0.13123 0.2921,-0.15099 0.3023305,-0.16122 0.3023306,-0.18168 0.3129138,-0.18133 0.3019778,-0.21202 0.2113139,-0.13829 z"
         style="fill:#0380b7;fill-opacity:1;fill-rule:nonzero;stroke:none;stroke-width:0.35277778"
         id="path2603"
         inkscape:connector-curvature="0" />
      <path
         d="m -5.8444182,147.89128 0.2924528,0.1711 0.2818694,0.18168 0.043744,0.0275 0.3192638,-0.24941 0.3326695,-0.22154 0.3326694,-0.21202 0.3323167,-0.19121 0.3326694,-0.17145 0.3429,-0.16122 0.3425472,-0.14111 0.3429,-0.121 0.3425472,-0.11113 0.3425472,-0.0903 0.3531306,-0.0808 0.3527778,-0.0603 0.34219439,-0.0402 0.35277777,-0.0307 h 0.36300832 0.36300833 l 0.35277777,0.0205 0.36300833,0.0399 0.36265559,0.0607 0.3728861,0.0705 0.3626555,0.0808 0.3728861,0.11112 0.3732389,0.12065 0.3728861,0.14111 0.3728861,0.15099 0.3728861,0.1718 0.3831167,0.18098 0.3831166,0.21202 0.3824111,0.21167 0.3933472,0.242 0.3831167,0.25153 0.3929944,0.27235 -0.4131027,-0.33267 -0.4028723,-0.31256 -0.403225,-0.28187 -0.4032249,-0.27235 -0.403225,-0.25188 -0.3933472,-0.23213 -0.3929945,-0.22154 -0.3827639,-0.19156 -0.3831166,-0.19156 -0.3831167,-0.16122 -0.3831166,-0.14146 -0.3728861,-0.1203 -0.3827639,-0.11077 -0.36300835,-0.0808 -0.36300832,-0.0705 -0.36265555,-0.0505 -0.36300832,-0.0402 -0.36265555,-0.0106 H -1.0067766 l -0.352425,0.0205 -0.3425472,0.0402 -0.3429,0.0607 -0.3429,0.0702 -0.3425472,0.10124 -0.3326695,0.11042 -0.3323166,0.13159 -0.3330223,0.14076 -0.3220861,0.17109 -0.3326694,0.19156 -0.3125611,0.20179 -0.3125611,0.2219 -0.3122083,0.242 -0.3125611,0.24166 -0.3125611,0.23177 -0.00635,0.005 z"
         style="fill:#0380b7;fill-opacity:1;fill-rule:nonzero;stroke:none;stroke-width:0.35277778"
         id="path2607"
         inkscape:connector-curvature="0" />
      <path
         d="m 7.953883,149.83629 0.3023305,-0.2921 0.3125612,-0.30233 -0.3125612,0.25188 -0.3023305,0.25189 -0.1915583,0.14111 -0.1813278,0.14111 -0.3630083,0.26211 -0.1813278,0.121 -0.1813278,0.12065 -0.1813277,0.11113 -0.1816806,0.11077 -0.1813278,0.1009 -0.1816805,0.10054 -0.352425,0.19191 -0.1816806,0.091 -0.1710972,0.0801 -0.3531305,0.16122 -0.1710973,0.0603 -0.1813277,0.0709 -0.3425472,0.11077 -0.3527778,0.1009 -0.1718028,0.0402 -0.1710972,0.0406 -0.1816806,0.03 -0.1710972,0.0303 -0.3326694,0.0504 -0.1813278,0.0102 -0.1615722,0.0198 H 2.4808887 l -0.17145,0.0102 -0.17145,-0.0102 H 1.9668915 l -0.17145,-0.0198 -0.1612195,-0.0102 -0.3323166,-0.0504 -0.1718028,-0.0303 -0.16121945,-0.03 -0.16121944,-0.0406 -0.17109722,-0.0402 -0.16157221,-0.0505 -0.16086667,-0.0504 -0.32279166,-0.121 -0.17144999,-0.0607 -0.15098889,-0.0705 -0.33266944,-0.15099 -0.16121944,-0.0903 -0.15134166,-0.0808 -0.32243893,-0.19191 -0.1612194,-0.10054 -0.1513417,-0.1009 -0.3224388,-0.23177 -0.1612195,-0.12101 -0.1513416,-0.121 -0.3122084,-0.26176 -0.1612194,-0.14111 -0.1513417,-0.13123 -0.3224389,-0.30233 -0.3227916,-0.28223 -0.3224389,-0.27234 -0.3023305,-0.2413 -0.3125611,-0.23213 -0.3023306,-0.2219 -0.3023305,-0.19155 -0.2921,-0.18133 -0.2924528,-0.1711 -0.2822222,-0.15134 -0.2822222,-0.14076 -0.2822223,-0.11148 -0.2723444,-0.11042 -0.2617611,-0.0808 -0.2621139,-0.0706 -0.2621139,-0.0505 -0.2617611,-0.0406 -0.2420055,-0.0201 -0.2518834,-0.01 -0.2420055,0.01 -0.2420056,0.0303 -0.2317749,0.0406 -0.231775,0.0603 -0.2218973,0.0808 -0.2215444,0.0808 -0.2116667,0.12065 -0.2218968,0.12101 -0.201436,0.14075 -0.211667,0.16158 -0.191558,0.17145 -0.201437,0.19155 -0.18168,0.20179 0.191558,-0.14181 0.201789,-0.12065 0.211314,-0.11078 0.212019,-0.0907 0.211314,-0.091 0.2218975,-0.06 0.2215444,-0.0607 0.2218973,-0.0303 0.231775,-0.0303 0.2218972,-0.01 h 0.2420055 l 0.2416528,0.0197 0.2321278,0.0307 0.2518833,0.0501 0.2420055,0.0504 0.2617612,0.0808 0.2518833,0.0808 0.2621139,0.11077 0.2621138,0.11077 0.2719917,0.13088 0.2723444,0.14147 0.2723445,0.16122 0.2719916,0.17109 0.2921,0.19192 0.2822223,0.20108 0.2924527,0.21202 0.2921,0.23142 0.2924528,0.24201 0.3023305,0.25188 0.3023306,0.27234 0.3125611,0.29246 0.3125611,0.30233 0.2921,0.27199 0.1513417,0.13088 0.1509888,0.13123 0.3023306,0.23178 0.3023305,0.22154 0.1513417,0.10125 0.1509889,0.10054 0.1615722,0.0903 0.1608667,0.0808 0.31256107,0.16122 0.31256111,0.14146 0.16157221,0.0603 0.16086667,0.0607 0.15134166,0.0501 0.17145,0.0504 0.32243888,0.0808 0.16121944,0.0303 0.16121944,0.0201 0.17109722,0.0201 0.1615722,0.0205 0.17145,0.01 0.1710972,0.01 h 0.3326695 l 0.17145,-0.01 0.1710972,-0.01 0.1615722,-0.0205 0.17145,-0.0201 0.352425,-0.0709 0.17145,-0.0402 0.17145,-0.0402 0.17145,-0.0505 0.1813278,-0.0504 0.3527777,-0.121 0.352425,-0.15099 0.1816806,-0.0709 0.1813277,-0.09 0.1816806,-0.0811 0.180975,-0.0903 0.3630083,-0.21166 0.3728861,-0.2219 0.1816806,-0.12135 0.1813277,-0.12101 0.3831167,-0.26141 0.3725333,-0.28257 0.3728861,-0.30198 0.3831167,-0.32279 z"
         style="fill:#0380b7;fill-opacity:1;fill-rule:nonzero;stroke:none;stroke-width:0.35277778"
         id="path2611"
         inkscape:connector-curvature="0" />
    </g>
  </g>
</svg>
