<?xml version="1.0" encoding="UTF-8" standalone="no"?>
<!-- Created with Inkscape (http://www.inkscape.org/) -->

<svg
   xmlns:svg="http://www.w3.org/2000/svg"
   xmlns="http://www.w3.org/2000/svg"
   version="1.1"
   width="452.54099"
   height="72.714447"
   id="svg2"
   xml:space="preserve"><defs
     id="defs6" /><g
     transform="matrix(1.25,0,0,-1.25,-32.80882,186.0858)"
     id="g14" /><g
     transform="matrix(1.25,0,0,-1.25,-32.80882,186.0858)"
     id="g16" /><g
     transform="matrix(4.3788057,0,0,-4.3788057,-13.54802,460.86054)"
     id="g20"><path
       d="m 21.447,99.094 2.419,-0.003 c 1.032,-0.002 1.678,-0.482 1.567,-1.377 -0.123,-0.993 -0.708,-1.358 -1.583,-1.569 l 1.095,-2.483 -1.262,0.002 -1.11,3.004 c 0.149,-0.017 0.351,-0.05 0.462,-0.05 0.596,-10e-4 1.161,0.275 1.241,0.918 0.049,0.391 -0.08,0.757 -0.731,0.758 l -1.063,0.002 -0.575,-4.63 -1.135,0.001 0.675,5.427 z m 4.981,-0.006 1.198,-0.002 -0.267,-2.148 2.65,-0.003 0.267,2.147 1.198,-10e-4 -0.675,-5.426 -1.198,0.001 0.3,2.417 -2.649,0.003 -0.301,-2.416 -1.198,0.001 0.675,5.427 z m 9.373,0.671 -0.305,0.546 -0.456,-0.545 -0.706,10e-4 0.554,0.951 1.349,-0.001 0.287,-0.953 -0.723,0.001 z m 3.438,-0.688 1.459,-0.001 2.087,-4.088 0.016,0 0.507,4.084 1.056,-0.002 -0.675,-5.426 -1.436,0.002 -2.119,4.022 -0.016,10e-4 -0.499,-4.02 -1.055,0.002 0.675,5.426 z m 10.039,-0.875 -2.666,0.004 -0.176,-1.416 2.325,-0.003 -0.099,-0.797 -2.325,0.003 -0.185,-1.49 2.666,-0.003 -0.107,-0.862 -3.865,0.005 0.675,5.427 3.864,-0.005 -0.107,-0.863 z m 0.199,-2.099 2.039,-0.003 -0.1,-0.797 -2.039,0.002 0.1,0.798 z m 4.002,0.604 c 0.149,-0.016 0.344,-0.041 0.519,-0.041 0.794,-10e-4 1.038,0.56 1.078,0.886 0.073,0.586 -0.229,0.708 -0.658,0.709 l -0.952,0.001 -0.575,-4.629 -1.135,0.001 0.675,5.427 2.499,-0.003 c 1.143,-0.002 1.362,-0.857 1.276,-1.54 -0.127,-1.025 -0.998,-1.651 -2.045,-1.649 -0.183,0 -0.385,0.033 -0.558,0.049 l -0.124,0.789 z m 9.055,-0.369 c -0.242,-1.944 -1.73,-2.813 -3.357,-2.811 -1.627,0.002 -2.899,0.874 -2.657,2.819 0.242,1.944 1.73,2.805 3.356,2.803 1.627,-0.002 2.9,-0.867 2.658,-2.811 z m -4.816,0.006 c -0.153,-1.229 0.511,-1.954 1.566,-1.954 1.056,-0.001 1.899,0.721 2.052,1.95 0.152,1.228 -0.512,1.945 -1.567,1.946 -1.056,0.002 -1.898,-0.713 -2.051,-1.942 z m 7.175,2.701 -0.411,-3.311 c -0.106,-0.846 0.197,-1.352 1.101,-1.352 0.905,-0.001 1.332,0.503 1.437,1.349 l 0.412,3.31 1.198,-10e-4 -0.457,-3.677 c -0.158,-1.27 -1.23,-1.846 -2.697,-1.844 -1.468,0.002 -2.396,0.581 -2.238,1.85 l 0.457,3.677 1.198,-0.001 z m 4.831,-0.006 1.198,-0.002 -0.568,-4.564 2.492,-0.003 -0.107,-0.863 -3.69,0.005 0.675,5.427 z m 7.967,-0.873 -2.666,0.003 -0.176,-1.415 2.325,-0.003 -0.099,-0.797 -2.325,0.003 -0.185,-1.49 2.666,-0.003 -0.107,-0.862 -3.864,0.005 0.675,5.426 3.863,-0.004 -0.107,-0.863 z m 1.13,0.861 1.46,-0.001 2.087,-4.088 0.016,0 0.507,4.084 1.056,-0.001 -0.675,-5.427 -1.436,0.002 -2.119,4.022 -0.015,0 -0.5,-4.019 -1.055,0.002 0.674,5.426 z m 9.764,-5.39 c -0.47,-0.082 -0.938,-0.146 -1.438,-0.145 -1.627,10e-4 -2.899,0.874 -2.657,2.818 0.241,1.945 1.729,2.805 3.356,2.803 0.452,0 0.912,-0.066 1.353,-0.156 L 89.17,98.015 c -0.389,0.123 -0.805,0.23 -1.432,0.23 -1.055,10e-4 -1.897,-0.713 -2.05,-1.942 -0.153,-1.229 0.511,-1.953 1.566,-1.955 0.618,-0.001 1.092,0.104 1.553,0.234 l -0.222,-0.951 z m -55.387,2.738 c -0.153,-1.228 0.511,-1.953 1.566,-1.955 1.055,-0.001 1.899,0.722 2.052,1.951 0.152,1.228 -0.512,1.945 -1.568,1.946 -1.055,0.002 -1.897,-0.713 -2.05,-1.942 z m 4.816,-0.006 c -0.242,-1.944 -1.731,-2.813 -3.357,-2.811 -1.626,0.002 -2.899,0.874 -2.657,2.819 0.242,1.944 1.729,2.805 3.356,2.803 1.626,-0.002 2.9,-0.866 2.658,-2.811 z"
       id="path22"
       style="fill:#19599c;fill-opacity:1;fill-rule:evenodd;stroke:none" /></g><path
     d="m 24.72712,49.274687 c 0,0 3.78329,-16.849624 4.85171,-22.261862 1.83472,-9.252388 6.41495,-11.634487 14.02094,-11.634487 7.60161,0 11.26667,6.042774 10.62736,11.542562 -0.43788,3.748238 -2.5616,12.435788 -14.7522,12.462075 0,0 2.0668,-9.042237 2.20254,-10.995187 0,0 3.12647,-1.243588 1.27861,-2.474025 -0.82321,-0.551726 -1.97046,0.626175 -2.1062,1.830337 -0.0788,0.69185 -2.18503,11.14405 -2.31639,11.72205 -0.30652,1.326788 -0.55173,2.3558 -0.70499,2.938187 -1.00712,3.757013 -1.37494,7.05425 -1.37494,7.05425 l -11.72644,-0.183912 0,1.2e-5 z m -16.2191,0.271488 c 0,0 1.25672,-4.768525 2.38207,-10.1632 2.11059,-10.08 6.87035,-10.263938 16.95036,-10.171975 l -1.73839,10.08 c 0,0 -3.39357,-0.551725 -4.4007,3.200912 -1.00712,3.757025 -1.37057,7.054263 -1.37057,7.054263 l -11.82277,0 z M 65.65581,54.1702 c -6.01647,9.874208 -16.88467,16.468688 -29.29421,16.468688 -18.93395,0 -34.28167,-15.3521 -34.28167,-34.281663 0,-18.933975 15.34772,-34.281675 34.28167,-34.281675 2.36456,0 4.67657,0.2408625 6.90976,0.6962375 L 43.68734,0.74 C 41.32279,0.2539625 38.87066,0 36.3616,0 16.2804,0 0,16.2804 0,36.357225 c 0,20.081187 16.2804,36.357219 36.3616,36.357219 13.60495,0 25.46276,-7.470243 31.6938,-18.531106 l -2.39959,-0.01325 0,1.12e-4 z m 386.88519,13.171448 -375.02866,0 0.0203,-1.234822 375.00836,0 0,1.234822 -0.20303,-7.133073 -374.17916,0 1.13849,-4.834212 373.04067,0 0,4.834212 0.20303,7.133073 z"
     id="path26"
     style="fill:#00adef;fill-opacity:1;fill-rule:evenodd;stroke:none" /></svg>