<?xml version="1.0" encoding="UTF-8" standalone="no"?>
<!-- Created with Inkscape (http://www.inkscape.org/) -->

<svg
   xmlns:dc="http://purl.org/dc/elements/1.1/"
   xmlns:cc="http://creativecommons.org/ns#"
   xmlns:rdf="http://www.w3.org/1999/02/22-rdf-syntax-ns#"
   xmlns:svg="http://www.w3.org/2000/svg"
   xmlns="http://www.w3.org/2000/svg"
   xmlns:sodipodi="http://sodipodi.sourceforge.net/DTD/sodipodi-0.dtd"
   xmlns:inkscape="http://www.inkscape.org/namespaces/inkscape"
   width="275.6283mm"
   height="50.4482mm"
   viewBox="0 0 275.6283 50.4482"
   version="1.1"
   id="svg9927"
   inkscape:version="0.92.4 (5da689c313, 2019-01-14)"
   sodipodi:docname="neurocrine biosciences.svg">
  <defs
     id="defs9921">
    <linearGradient
       gradientTransform="matrix(0.26458333,0,0,-0.26458333,175.58502,349.33819)"
       y2="250.82249"
       x2="969.3703"
       y1="250.82249"
       x1="195.3304"
       gradientUnits="userSpaceOnUse"
       id="SVGID_1_">
      <stop
         id="stop9618"
         style="stop-color:#2B5F51"
         offset="0" />
      <stop
         id="stop9620"
         style="stop-color:#0BBAB4"
         offset="0.8" />
    </linearGradient>
    <linearGradient
       gradientTransform="matrix(0.26458333,0,0,-0.26458333,175.58502,349.33819)"
       y2="142.2547"
       x2="156.8035"
       y1="248.2347"
       x1="80.793503"
       gradientUnits="userSpaceOnUse"
       id="SVGID_00000030483460474263023360000011131767552742872483_">
      <stop
         id="stop9625"
         style="stop-color:#0BBAB4"
         offset="9.000000e-02" />
      <stop
         id="stop9627"
         style="stop-color:#528BA6"
         offset="0.37" />
      <stop
         id="stop9629"
         style="stop-color:#7C719E"
         offset="0.54" />
      <stop
         id="stop9631"
         style="stop-color:#A05998"
         offset="0.72" />
      <stop
         id="stop9633"
         style="stop-color:#C24392"
         offset="0.9" />
      <stop
         id="stop9635"
         style="stop-color:#CF3B91"
         offset="1" />
    </linearGradient>
    <linearGradient
       gradientTransform="matrix(0.26458333,0,0,-0.26458333,175.58502,349.33819)"
       y2="304.3125"
       x2="148.3903"
       y1="200.5125"
       x1="46.230301"
       gradientUnits="userSpaceOnUse"
       id="SVGID_00000032627490425178025540000005299035277136912035_">
      <stop
         id="stop9640"
         style="stop-color:#0BBAB4"
         offset="0.46" />
      <stop
         id="stop9642"
         style="stop-color:#0FACA5"
         offset="0.65" />
      <stop
         id="stop9644"
         style="stop-color:#1B8880"
         offset="1" />
      <stop
         id="stop9646"
         style="stop-color:#1C8880"
         offset="1" />
    </linearGradient>
    <linearGradient
       gradientTransform="matrix(0.26458333,0,0,-0.26458333,175.58502,349.33819)"
       y2="249.4716"
       x2="-62.43"
       y1="167.7417"
       x1="130.46001"
       gradientUnits="userSpaceOnUse"
       id="SVGID_00000052787601739642757060000005190557743847682216_">
      <stop
         id="stop9651"
         style="stop-color:#CF3B91"
         offset="0.36" />
      <stop
         id="stop9653"
         style="stop-color:#993366"
         offset="0.95" />
    </linearGradient>
  </defs>
  <sodipodi:namedview
     id="base"
     pagecolor="#ffffff"
     bordercolor="#666666"
     borderopacity="1.0"
     inkscape:pageopacity="0.0"
     inkscape:pageshadow="2"
     inkscape:zoom="1.3767321"
     inkscape:cx="518.9826"
     inkscape:cy="93.445427"
     inkscape:document-units="mm"
     inkscape:current-layer="layer1"
     showgrid="false"
     fit-margin-top="0"
     fit-margin-left="0"
     fit-margin-right="0"
     fit-margin-bottom="0"
     inkscape:window-width="1920"
     inkscape:window-height="1001"
     inkscape:window-x="-9"
     inkscape:window-y="-9"
     inkscape:window-maximized="1" />
  <metadata
     id="metadata9924">
    <rdf:RDF>
      <cc:Work
         rdf:about="">
        <dc:format>image/svg+xml</dc:format>
        <dc:type
           rdf:resource="http://purl.org/dc/dcmitype/StillImage" />
        <dc:title></dc:title>
      </cc:Work>
    </rdf:RDF>
  </metadata>
  <g
     inkscape:label="Layer 1"
     inkscape:groupmode="layer"
     id="layer1"
     transform="translate(698.23081,77.974097)">
    <g
       transform="translate(-873.8542,-344.79023)"
       id="g9919">
      <path
         style="fill:#6b6b6b;stroke-width:0.26458332"
         inkscape:connector-curvature="0"
         class="st0"
         d="m 242.47169,314.86298 h -5.68855 v -16.40416 h 5.5298 c 3.43958,0 5.10645,1.82562 5.10645,4.1275 0,2.16958 -1.34937,3.36021 -2.93687,3.81 1.82562,0.3175 3.30729,2.01083 3.30729,4.07458 0,2.46063 -1.85208,4.39208 -5.31812,4.39208 z m -0.26459,-15.02833 h -3.75708 v 5.87375 h 3.81 c 2.2225,0 3.46604,-1.13771 3.46604,-2.96333 0,-1.82563 -1.16417,-2.91042 -3.51896,-2.91042 z m 0.0794,7.22313 h -3.86292 v 6.40291 h 3.91583 c 2.38125,0 3.78355,-1.19062 3.78355,-3.175 0,-1.98437 -1.48167,-3.22791 -3.83646,-3.22791 z"
         id="path9596" />
      <path
         style="fill:#6b6b6b;stroke-width:0.26458332"
         inkscape:connector-curvature="0"
         class="st0"
         d="m 251.04419,298.45882 h 1.64041 v 16.40416 h -1.64041 z"
         id="path9598" />
      <path
         style="fill:#6b6b6b;stroke-width:0.26458332"
         inkscape:connector-curvature="0"
         class="st0"
         d="m 263.90294,315.02173 c -4.60375,0 -8.12271,-3.46604 -8.12271,-8.38729 0,-4.92125 3.51896,-8.38729 8.12271,-8.38729 4.60375,0 8.1227,3.46604 8.1227,8.38729 0,4.92125 -3.4925,8.38729 -8.1227,8.38729 z m 0,-1.42875 c 3.65125,0 6.42937,-2.64583 6.42937,-6.95854 0,-4.31271 -2.80458,-6.93208 -6.42937,-6.93208 -3.6248,0 -6.42938,2.61937 -6.42938,6.93208 0,4.31271 2.77813,6.95854 6.42938,6.95854 z"
         id="path9600" />
      <path
         style="fill:#6b6b6b;stroke-width:0.26458332"
         inkscape:connector-curvature="0"
         class="st0"
         d="m 279.77794,315.02173 c -3.28084,0 -5.45042,-1.87854 -5.5298,-4.39208 h 1.74625 c 0.1323,1.34938 1.16417,3.01625 3.81,3.01625 2.27542,0 3.6248,-1.34937 3.6248,-3.01625 0,-4.84187 -9.0223,-1.77271 -9.0223,-7.96396 0,-2.54 2.09021,-4.39208 5.26521,-4.39208 3.175,0 5.00063,1.74625 5.29167,3.99521 h -1.77271 c -0.18521,-1.13771 -1.29646,-2.56646 -3.57187,-2.59292 -1.93146,-0.0265 -3.51896,1.03188 -3.51896,2.93688 0,4.73604 9.02229,1.82562 9.02229,7.9375 -0.0529,2.2225 -1.85208,4.47145 -5.34458,4.47145 z"
         id="path9602" />
      <path
         style="fill:#6b6b6b;stroke-width:0.26458332"
         inkscape:connector-curvature="0"
         class="st0"
         d="m 295.25606,298.27361 c 3.65125,0 6.37646,1.82562 7.56708,4.97417 h -1.93145 c -0.92605,-2.16959 -2.83105,-3.54542 -5.63563,-3.54542 -3.59833,0 -6.35,2.64583 -6.35,6.95854 0,4.31271 2.75167,6.93208 6.35,6.93208 2.80458,0 4.70958,-1.34937 5.63563,-3.4925 h 1.93145 c -1.16416,3.09563 -3.88937,4.92125 -7.56708,4.92125 -4.55083,0 -8.04333,-3.43958 -8.04333,-8.36083 0,-4.92125 3.4925,-8.38729 8.04333,-8.38729 z"
         id="path9604" />
      <path
         style="fill:#6b6b6b;stroke-width:0.26458332"
         inkscape:connector-curvature="0"
         class="st0"
         d="m 305.91877,298.45882 h 1.64042 v 16.40416 h -1.64042 z"
         id="path9606" />
      <path
         style="fill:#6b6b6b;stroke-width:0.26458332"
         inkscape:connector-curvature="0"
         class="st0"
         d="m 320.04752,299.78173 h -6.93209 v 6.13834 h 6.21771 v 1.34937 h -6.21771 v 6.21771 h 6.93209 v 1.34938 h -8.5725 V 298.4059 h 8.5725 z"
         id="path9608" />
      <path
         style="fill:#6b6b6b;stroke-width:0.26458332"
         inkscape:connector-curvature="0"
         class="st0"
         d="m 335.18168,298.45882 v 16.40416 h -1.64041 l -9.07521,-13.81125 v 13.81125 h -1.64042 v -16.40416 h 1.64042 l 9.07521,13.78479 v -13.78479 z"
         id="path9610" />
      <path
         style="fill:#6b6b6b;stroke-width:0.26458332"
         inkscape:connector-curvature="0"
         class="st0"
         d="m 346.29418,298.27361 c 3.65125,0 6.37646,1.82562 7.56709,4.97417 h -1.93146 c -0.92604,-2.16959 -2.83104,-3.54542 -5.63563,-3.54542 -3.59833,0 -6.35,2.64583 -6.35,6.95854 0,4.31271 2.75167,6.93208 6.35,6.93208 2.80459,0 4.70959,-1.34937 5.63563,-3.4925 h 1.93146 c -1.16417,3.09563 -3.88938,4.92125 -7.56709,4.92125 -4.55083,0 -8.01687,-3.43958 -8.01687,-8.36083 0,-4.92125 3.46604,-8.38729 8.01687,-8.38729 z"
         id="path9612" />
      <path
         style="fill:#6b6b6b;stroke-width:0.26458332"
         inkscape:connector-curvature="0"
         class="st0"
         d="m 365.47648,299.78173 h -6.93209 v 6.13834 h 6.21771 v 1.34937 h -6.21771 v 6.21771 h 6.93209 v 1.34938 h -8.5725 V 298.4059 h 8.5725 z"
         id="path9614" />
      <path
         style="fill:#6b6b6b;stroke-width:0.26458332"
         inkscape:connector-curvature="0"
         class="st0"
         d="m 372.93773,315.02173 c -3.28084,0 -5.45042,-1.87854 -5.5298,-4.39208 h 1.74625 c 0.1323,1.34938 1.13771,3.01625 3.81,3.01625 2.27542,0 3.6248,-1.34937 3.6248,-3.01625 0,-4.84187 -9.0223,-1.77271 -9.0223,-7.96396 0,-2.54 2.09021,-4.39208 5.26521,-4.39208 3.175,0 5.00063,1.74625 5.29167,3.99521 h -1.77271 c -0.18521,-1.13771 -1.29646,-2.56646 -3.57187,-2.59292 -1.93146,-0.0265 -3.51896,1.03188 -3.51896,2.93688 0,4.73604 9.02229,1.82562 9.02229,7.9375 -0.0529,2.2225 -1.87854,4.47145 -5.34458,4.47145 z"
         id="path9616" />
      <path
         style="fill:url(#SVGID_1_);stroke-width:0.26458332"
         inkscape:connector-curvature="0"
         class="st1"
         d="m 257.31481,271.63007 v 22.78062 h -5.55625 l -9.28687,-14.04937 v 14.04937 h -5.55625 v -22.78062 h 5.55625 l 9.28687,14.12875 v -14.12875 z m 17.56833,4.445 h -8.41375 v 4.60375 h 7.4348 v 4.28625 h -7.4348 v 5.00062 h 8.41375 v 4.445 h -13.97 v -22.78062 h 13.97 z m 3.83646,-4.445 h 5.55625 v 13.62604 c 0,2.69875 1.32292,4.25979 3.96875,4.25979 2.64584,0 4.02167,-1.56104 4.02167,-4.25979 v -13.62604 h 5.55625 v 13.59958 c 0,6.29708 -4.41854,9.41917 -9.68375,9.41917 -5.26521,0 -9.41917,-3.12209 -9.41917,-9.41917 0,0 0,-13.59958 0,-13.59958 z m 31.53833,0 c 5.58271,0 8.3873,3.20146 8.3873,7.17021 0,2.8575 -1.56105,5.55625 -5.05355,6.58812 l 5.26521,9.02229 h -6.27062 l -4.73604,-8.59896 h -1.32292 v 8.59896 h -5.55625 v -22.78062 c -0.0265,0 9.28687,0 9.28687,0 z m -0.3175,4.60375 h -3.43958 v 5.63562 h 3.43958 c 2.09021,0 3.04271,-1.05833 3.04271,-2.8575 0,-1.66687 -0.97896,-2.77812 -3.04271,-2.77812 z m 22.0398,18.415 c -6.45584,0 -11.72105,-4.84188 -11.72105,-11.69459 0,-6.8527 5.26521,-11.64166 11.72105,-11.64166 6.45583,0 11.64166,4.81541 11.64166,11.64166 0,6.82625 -5.18583,11.69459 -11.64166,11.69459 z m 0,-5.08 c 3.62479,0 6.00604,-2.61938 6.00604,-6.61459 0,-3.9952 -2.38125,-6.61458 -6.00604,-6.61458 -3.6248,0 -6.0325,2.56646 -6.0325,6.61458 0,4.04813 2.32833,6.61459 6.0325,6.61459 z m 24.73854,-13.12334 c 2.11666,0 3.83646,0.97896 4.7625,2.91042 h 6.11187 c -1.29646,-4.92125 -5.3975,-7.99042 -10.82146,-7.99042 -6.72041,0 -11.45645,4.81542 -11.45645,11.61521 0,6.79979 4.73604,11.58875 11.45645,11.58875 5.42396,0 9.525,-3.01625 10.82146,-7.96396 h -6.11187 c -0.9525,1.95792 -2.67229,2.91042 -4.7625,2.91042 -3.41313,0 -5.74146,-2.54 -5.74146,-6.56167 0,-4.02166 2.32833,-6.50875 5.74146,-6.50875 z m 31.37958,2.3548 c 0,-3.96875 -2.77812,-7.17021 -8.38729,-7.17021 h -9.31333 v 22.78062 h 5.55625 v -8.59896 h 1.32291 l 4.73604,8.59896 h 6.29709 l -5.26521,-9.02229 c 3.51896,-1.03187 5.05354,-3.73062 5.05354,-6.58812 z m -8.67833,3.09562 h -3.43959 v -5.66208 h 3.43959 c 2.06375,0 3.04271,1.11125 3.04271,2.77812 0,1.79917 -0.97896,2.88396 -3.04271,2.88396 z m 12.35604,12.51479 h 5.55625 v -22.78062 h -5.55625 z m 23.62729,-8.65187 -9.28687,-14.12875 h -5.55625 v 22.78062 h 5.55625 v -14.04937 l 9.28687,14.04937 h 5.55625 v -22.78062 h -5.55625 z m 8.94292,8.65187 h 13.97 v -4.445 h -8.41375 v -5.00062 h 7.43479 v -4.28625 h -7.43479 v -4.60375 h 8.41375 v -4.445 h -13.97 z"
         id="path9623" />
      <path
         inkscape:connector-curvature="0"
         style="fill:url(#SVGID_00000030483460474263023360000011131767552742872483_);stroke-width:0.26458332"
         d="m 206.11794,316.15944 c 17.03916,-3.14854 27.83416,-28.09875 9.04875,-36.83 -6.87917,-3.12208 -18.17688,-0.87312 -19.84375,7.46125 23.44208,-5.97958 22.25145,22.46313 5.95312,28.44271 -1.29646,0.47625 -2.69875,0.82021 -4.18042,0.97896 -0.34395,0.0265 -0.71437,0.0794 -1.08479,0.0794 3.33375,0.68792 6.77334,0.60855 10.10709,-0.13229 z"
         id="path9638" />
      <path
         inkscape:connector-curvature="0"
         style="fill:url(#SVGID_00000032627490425178025540000005299035277136912035_);stroke-width:0.26458332"
         d="m 214.13481,276.68361 c 3.88938,1.21708 7.3025,3.65125 9.63083,6.95854 0.10584,0.13229 0.18521,0.26458 0.26459,0.39688 -4.55084,-16.0073 -30.1625,-23.91834 -39.58167,-8.14917 -6.29708,9.57792 2.19604,26.90812 14.39333,23.495 -13.335,-12.91167 -0.42333,-27.17271 15.29292,-22.70125 z"
         id="path9649" />
      <path
         inkscape:connector-curvature="0"
         style="fill:url(#SVGID_00000052787601739642757060000005190557743847682216_);stroke-width:0.26458332"
         d="m 211.0921,295.78653 c -0.23812,-2.24896 -1.37583,-4.31271 -3.14854,-5.74146 -7.06437,25.0825 -34.47521,5.47687 -26.3525,-13.14979 0.13229,-0.34396 0.29104,-0.66146 0.47625,-1.00542 -11.53583,11.93271 -5.715,37.86187 12.56771,38.33812 9.63083,0.23813 17.75354,-8.94291 16.45708,-18.44145 z"
         id="path9656" />
      <path
         style="fill:#0bbab4;stroke-width:0.26458332"
         inkscape:connector-curvature="0"
         class="st5"
         d="m 441.09439,276.4984 c 0,-2.80458 2.01083,-4.92125 4.84188,-4.92125 2.83104,0 4.81541,2.09021 4.81541,4.92125 0,2.83104 -2.01083,4.89479 -4.81541,4.89479 -2.80459,0 -4.84188,-2.09021 -4.84188,-4.89479 z m 0.87313,0 c 0,2.38125 1.56104,4.07458 3.96875,4.07458 2.38125,0 3.94229,-1.71979 3.94229,-4.07458 0,-2.35479 -1.56104,-4.07458 -3.94229,-4.07458 -2.38125,0 -3.96875,1.69333 -3.96875,4.07458 z m 4.78895,0.47625 1.45521,2.09021 -1.24354,0.0265 -1.34937,-2.06375 h -0.55563 v 2.06375 h -1.05833 v -5.26521 h 2.27541 c 1.0848,0 1.74625,0.60854 1.74625,1.5875 0.0265,0.84667 -0.44979,1.40229 -1.27,1.56104 z m -1.66687,-2.19604 v 1.34937 h 1.13771 c 0.44979,0 0.79375,-0.1852 0.79375,-0.68791 0,-0.47625 -0.34396,-0.66146 -0.79375,-0.66146 z"
         id="path9658" />
    </g>
  </g>
</svg>
