<?xml version="1.0" encoding="UTF-8" standalone="no"?>
<!DOCTYPE svg PUBLIC "-//W3C//DTD SVG 1.1//EN" "http://www.w3.org/Graphics/SVG/1.1/DTD/svg11.dtd">
<svg width="100%" height="100%" viewBox="0 0 228 24" version="1.1" xmlns="http://www.w3.org/2000/svg" xmlns:xlink="http://www.w3.org/1999/xlink" xml:space="preserve" xmlns:serif="http://www.serif.com/" style="fill-rule:evenodd;clip-rule:evenodd;stroke-linejoin:round;stroke-miterlimit:1.41421;">
    <g transform="matrix(0.1,0,0,0.0999334,-11,-113)">
        <path d="M454.24,1130.16C485.497,1130.16 513.992,1142.82 534.653,1163.28C555.997,1184.32 568.018,1213.03 568.024,1243C568.107,1273.17 556.141,1302.12 534.782,1323.43C513.437,1344.82 484.453,1356.82 454.24,1356.78C424.217,1356.85 395.42,1344.87 374.294,1323.54C353.098,1302.11 341.265,1273.14 341.39,1243C341.39,1211.77 353.997,1183.56 374.398,1163.15C395.56,1141.97 424.296,1130.09 454.24,1130.16ZM207.4,1357.08L310.016,1137.42L331.974,1137.42L287.579,1232.44L287.592,1232.48L238.034,1338.48L301.793,1337.97L311.119,1357.08L207.4,1357.08ZM297.15,1249.69L356.707,1357.07L336.15,1357.07L287.19,1272.74L297.15,1249.69ZM256.14,1216.77L231.03,1171.51L204.403,1221.82L229.033,1272.33L217.931,1295.08L192.86,1243.64L132.836,1357.07L110.295,1357.07L230.602,1129.72L266.788,1194.94L256.14,1216.77ZM429.273,1339.1C421.157,1329.95 414.204,1319.83 408.574,1308.97C402.672,1312.11 397.09,1315.82 391.907,1320.04C402.831,1329.03 415.582,1335.53 429.273,1339.1ZM381.337,1309.92C387.872,1304.45 394.977,1299.7 402.53,1295.76C396.965,1281.83 393.617,1267.12 392.608,1252.15L356.331,1252.15C358.166,1273.62 366.945,1293.89 381.337,1309.92ZM356.072,1237.64L392.4,1237.64C393.023,1221.18 396.447,1205.21 402.322,1190.33C395.015,1186.43 388.131,1181.79 381.778,1176.47C366.346,1193.25 357.254,1214.88 356.072,1237.64ZM392.413,1166.48C397.29,1170.44 402.633,1174.02 408.314,1177.11C413.68,1166.72 420.286,1157.01 427.989,1148.21C415.002,1151.79 402.892,1158.01 392.413,1166.48ZM478.481,1147.66C486.805,1156.9 493.929,1167.16 499.686,1178.19C505.842,1175 511.702,1171.26 517.195,1167.03C505.865,1157.82 492.649,1151.2 478.481,1147.66ZM527.843,1177.1C520.995,1182.56 513.577,1187.38 505.769,1191.39C511.722,1206.16 515.276,1221.84 516.041,1237.64L553.368,1237.64C552.129,1215.11 543.107,1193.71 527.843,1177.1ZM553.109,1252.15L515.937,1252.15C514.963,1267.16 511.596,1281.91 505.963,1295.85C513.577,1299.83 520.762,1304.67 527.364,1310.22C542.107,1294.23 551.157,1273.82 553.109,1252.15ZM516.702,1320.22C511.473,1315.96 505.844,1312.21 499.894,1309.04C494.269,1319.87 487.339,1329.96 479.259,1339.1C492.944,1335.55 505.711,1329.11 516.702,1320.22ZM421.855,1303.09C428.609,1315.94 437.414,1327.61 447.924,1337.64L447.924,1297.62C439.023,1298.23 430.25,1300.07 421.855,1303.09ZM407.16,1252.15C408.107,1265.08 411.064,1277.81 415.811,1289.87C426.121,1286.02 436.95,1283.73 447.937,1283.09L447.937,1252.15L407.16,1252.15ZM415.525,1196.37C410.428,1209.57 407.528,1223.51 406.939,1237.64L447.937,1237.64L447.937,1203.83C436.824,1202.95 425.902,1200.44 415.525,1196.37ZM447.937,1148.45C437.22,1158.43 428.278,1170.17 421.491,1183.15C429.98,1186.41 438.881,1188.46 447.937,1189.25L447.937,1148.45ZM486.353,1184.01C480.067,1172.14 472.012,1161.3 462.463,1151.86L462.463,1189.25C470.619,1188.54 478.649,1186.78 486.353,1184.01ZM501.489,1237.64C500.702,1223.76 497.657,1210.11 492.475,1197.21C482.829,1200.81 472.727,1203.04 462.463,1203.83L462.463,1237.64L501.489,1237.64ZM492.708,1289.95C497.481,1277.88 500.477,1265.12 501.359,1252.15L462.45,1252.15L462.45,1283.22C472.813,1284.02 483.007,1286.33 492.708,1289.95ZM462.45,1335.78C472.125,1326.19 480.282,1315.18 486.639,1303.12C478.839,1300.31 470.709,1298.51 462.45,1297.77L462.45,1335.78Z" style="fill-rule:nonzero;"/>
        <path d="M629.591,1346.7L629.591,1342C635.246,1342 639.02,1342 640.901,1339.17C641.848,1337.27 642.795,1333.5 642.795,1326.91L642.795,1259.99C642.795,1256.21 641.848,1251.5 639.967,1249.61C639.02,1247.72 635.246,1245.84 628.645,1245.84L628.645,1241.13L713.493,1241.13L721.975,1270.35L717.267,1272.24C712.552,1264.87 706.472,1258.47 699.356,1253.38C692.754,1249.61 685.219,1247.72 676.723,1247.72C672.015,1247.72 668.241,1247.72 667.294,1249.61C666.348,1251.5 666.348,1254.32 665.401,1259.99C665.401,1259.99 666.348,1261.88 666.348,1263.76L666.348,1290.15L672.002,1290.15C678.604,1290.15 682.378,1288.26 685.206,1286.38C688.98,1284.49 691.807,1279.78 692.754,1272.24L699.356,1272.24L699.356,1314.67L692.754,1314.67C692.754,1312.77 692.754,1309.96 691.807,1307.12C690.771,1305.1 689.504,1303.2 688.033,1301.46C686.139,1299.57 683.325,1298.64 681.431,1297.69C679.538,1296.76 676.71,1296.76 672.002,1296.76L666.348,1296.76L666.348,1325.04C666.348,1325.98 665.401,1326.92 665.401,1327.87C665.401,1333.53 666.348,1336.35 668.228,1339.18C670.109,1341.07 674.83,1342.01 680.485,1342.01L680.485,1346.72L629.591,1346.72L629.591,1346.7ZM758.744,1348.58C752.353,1348.64 745.992,1347.69 739.899,1345.76C733.298,1341.98 727.643,1337.27 724.815,1331.62C721.988,1326.9 720.094,1320.3 720.094,1312.76C720.094,1306.16 721.988,1300.5 724.815,1294.85C728.59,1288.25 734.244,1284.47 739.899,1280.7C746.035,1277.6 752.816,1275.99 759.691,1275.99C765.346,1275.99 771.001,1277.88 776.655,1280.7C782.31,1284.47 786.084,1288.25 788.912,1293.9C792.686,1299.57 793.62,1305.23 793.62,1311.83C793.62,1323.14 789.846,1332.57 783.257,1339.15C776.668,1345.74 768.186,1347.65 758.744,1348.58ZM756.864,1343.88C763.465,1343.88 768.186,1339.17 771.001,1331.63C772.894,1326.91 772.894,1320.31 772.894,1312.77C772.894,1303.35 771.947,1296.76 770.067,1290.15C767.239,1284.49 762.518,1281.67 756.864,1281.67C752.143,1281.67 749.315,1283.57 746.501,1286.38C744.519,1290.3 742.937,1294.4 741.78,1298.64C740.833,1302.4 739.899,1307.11 739.899,1312.77C739.899,1321.26 741.78,1327.86 743.673,1334.46C746.501,1341.05 750.275,1343.88 756.864,1343.88ZM835.123,1301.46L835.123,1331.63C835.123,1335.39 836.07,1339.17 837.951,1340.1C838.897,1342 841.725,1342 845.499,1342L845.499,1346.7L804.022,1346.7L804.022,1342C807.796,1342 810.623,1342 811.57,1341.06C813.464,1339.17 814.397,1336.35 814.397,1331.63L814.397,1305.24C814.397,1299.57 813.451,1295.8 813.451,1292.98C811.557,1290.15 809.676,1289.21 804.022,1288.27L804.022,1284.5L835.136,1275.07L835.136,1292.04C839.844,1286.38 843.618,1281.67 846.446,1278.83C849.273,1276 853.047,1275.07 856.822,1275.07C859.649,1275.07 862.476,1276 864.37,1277.9C866.251,1280.73 867.197,1283.57 867.197,1286.38C867.197,1289.19 866.251,1291.09 864.37,1292.98C862.69,1294.85 860.277,1295.88 857.768,1295.81C856.822,1294.88 853.994,1294.88 852.101,1293.92C849.273,1292.98 846.446,1292.02 845.499,1292.02C843.605,1292.02 841.725,1292.97 839.844,1294.86C838.884,1296.74 837.004,1298.64 835.123,1301.46ZM892.631,1310.88C892.631,1316.55 893.565,1321.26 895.459,1325.03C897.352,1329.74 900.167,1333.5 903.941,1335.39C907.715,1338.23 911.489,1339.17 916.197,1340.1C923.746,1340.1 931.281,1336.34 937.883,1329.74L940.71,1333.5C932.228,1342.94 921.852,1347.65 908.649,1347.65C898.286,1347.65 888.857,1344.81 882.255,1338.22C874.707,1331.62 870.946,1323.14 871.892,1312.76C872.778,1306.63 874.358,1300.62 876.6,1294.85C880.375,1288.25 885.083,1284.47 889.804,1280.7C895.459,1277.87 901.126,1275.99 907.715,1275.99C913.37,1275.99 919.958,1277.88 924.679,1280.7C930.334,1284.47 934.108,1288.25 936.002,1293.9C938.829,1298.62 940.71,1305.23 940.71,1310.88L892.631,1310.88ZM892.631,1306.17L921.852,1306.17C921.852,1299.57 920.918,1293.92 919.025,1289.19C917.131,1284.47 913.357,1282.59 907.715,1282.59C902.047,1282.59 898.286,1285.43 896.392,1290.14C893.565,1294.86 892.631,1299.57 892.631,1306.17ZM952.966,1325.03L957.674,1323.14C962.395,1329.74 967.103,1334.45 972.758,1337.27C977.466,1341.05 983.121,1343.88 988.789,1343.88C989.723,1343.88 991.616,1342.94 993.497,1341.98C995.391,1341.98 997.271,1341.05 999.152,1339.15C999.152,1338.22 1000.1,1336.33 1000.1,1334.45C1000.1,1329.74 996.324,1325.96 988.789,1323.14C986.895,1323.14 983.121,1322.19 974.652,1320.3C969.26,1319.35 964.309,1316.71 960.515,1312.76C956.741,1309.93 954.847,1305.23 954.847,1298.62C954.847,1292.96 956.741,1288.25 960.515,1283.54C965.223,1278.82 970.878,1275.99 978.426,1275.99C980.32,1275.99 983.134,1275.99 986.908,1277.88C990.683,1277.88 993.51,1279.78 993.51,1279.78C998.218,1279.78 1001.99,1277.88 1005.77,1275.07L1013.32,1298.64L1007.66,1300.52C997.284,1288.27 986.921,1281.67 979.373,1281.67C976.545,1281.67 972.771,1282.61 970.891,1284.5C969.01,1286.39 968.063,1288.27 968.063,1290.17C968.063,1293 969.01,1294.88 970.891,1295.82C971.837,1296.77 973.718,1298.66 975.612,1298.66C977.492,1299.6 981.266,1300.54 985.974,1300.54C991.629,1301.49 995.404,1302.44 996.35,1302.44C1002,1305.28 1006.71,1307.14 1010.49,1309.99C1014.26,1312.81 1016.14,1318.47 1016.14,1324.12C1016.14,1331.67 1014.25,1337.33 1009.54,1342.03C1004.52,1346.25 998.185,1348.58 991.629,1348.63C989.736,1348.63 986.921,1347.7 982.2,1347.7C977.479,1346.75 973.718,1346.75 971.824,1346.75C967.116,1346.75 963.342,1347.7 959.568,1349.6L952.966,1325.03ZM1034.04,1285.43L1023.68,1285.43L1023.68,1277.88C1032.16,1277.88 1037.82,1275.06 1040.64,1272.23C1043.47,1268.46 1046.31,1261.85 1049.12,1251.48L1054.78,1251.48L1054.78,1277.87L1075.53,1277.87L1075.53,1285.42L1054.78,1285.42L1054.78,1329.73C1054.78,1335.38 1057.61,1339.15 1063.26,1339.15C1067.04,1339.15 1070.81,1337.26 1075.52,1333.49L1078.35,1336.33C1075.52,1339.15 1071.74,1342.93 1067.04,1344.8C1063.26,1346.69 1057.61,1347.64 1052.9,1347.64C1048.18,1347.64 1043.47,1346.69 1039.69,1343.86C1035.94,1340.13 1033.88,1335.02 1034.03,1329.73L1034.03,1285.43L1034.04,1285.43ZM1118.89,1346.7L1118.89,1342C1124.54,1342 1127.37,1341.06 1129.25,1339.17C1132.08,1337.27 1132.08,1333.5 1132.08,1328.79L1132.08,1259.97C1132.08,1255.27 1132.08,1251.49 1130.2,1249.6C1128.31,1247.7 1124.53,1245.82 1118.88,1245.82L1118.88,1241.12L1168.85,1241.12L1168.85,1245.82C1165.07,1245.82 1161.3,1247.72 1158.47,1249.6C1156.59,1251.49 1155.64,1255.27 1155.64,1259.97L1155.64,1328.79C1155.64,1331.63 1155.64,1334.46 1156.59,1336.34C1156.59,1337.27 1157.53,1339.17 1158.47,1339.17C1160.37,1341.06 1163.19,1342 1166.95,1342C1181.09,1342 1195.24,1333.51 1210.33,1317.48L1214.1,1318.43L1204.67,1346.7L1118.89,1346.7ZM1265.01,1340.1C1258.42,1345.77 1249.92,1348.58 1240.49,1348.58C1234.84,1348.58 1229.17,1347.65 1225.41,1344.81C1221.63,1341.98 1219.76,1337.27 1219.76,1331.62C1219.76,1321.24 1226.36,1314.64 1238.61,1308.99C1247.1,1306.16 1255.58,1304.28 1265.01,1302.38L1265.01,1294.85C1265.01,1290.14 1265.01,1287.3 1263.12,1284.47C1262.17,1282.58 1259.35,1280.7 1255.56,1280.7C1252.74,1280.7 1250.86,1281.65 1248.96,1282.59C1248.03,1284.49 1247.08,1287.3 1245.19,1290.14C1244.65,1293.43 1242.98,1296.42 1240.48,1298.62C1239.53,1300.5 1236.71,1302.38 1234.83,1302.38C1228.22,1301.45 1225.4,1298.62 1224.45,1293.9C1225.4,1289.19 1227.28,1285.43 1231.05,1282.59C1234.83,1280.7 1238.6,1277.88 1244.25,1276.94C1248.96,1275.99 1253.7,1275.99 1258.4,1275.99C1264.99,1275.99 1271.61,1276.94 1275.36,1278.82C1279.13,1280.71 1281.97,1283.54 1283.84,1286.37C1285.73,1290.14 1285.73,1293.9 1285.73,1298.62L1285.73,1330.67C1285.73,1333.5 1285.73,1335.38 1286.67,1336.34C1287.6,1337.27 1288.55,1339.17 1290.44,1339.17C1292.32,1339.17 1293.25,1338.23 1294.21,1337.27L1296.1,1341.05C1293.25,1343.88 1291.39,1345.76 1288.55,1346.7C1285.73,1347.65 1282.89,1348.6 1279.12,1348.6C1273.49,1348.58 1268.78,1345.77 1265.01,1340.1ZM1265.01,1309C1259.35,1309.95 1252.75,1311.84 1248.98,1314.67C1244.27,1318.44 1241.44,1323.15 1241.44,1329.75C1241.44,1332.58 1242.37,1335.41 1244.27,1337.29C1246.16,1339.17 1248.98,1340.11 1250.87,1340.11C1256.54,1339.18 1261.23,1337.29 1265.01,1331.64L1265.01,1309ZM1328.18,1291.09L1328.18,1334.46C1332.89,1339.17 1336.64,1342 1343.25,1342C1348.91,1342 1353.62,1338.23 1355.51,1331.63C1358.32,1325.96 1359.28,1319.38 1359.28,1312.77C1359.28,1305.24 1359.28,1297.69 1356.44,1292.98C1354.56,1286.38 1349.85,1284.5 1344.19,1284.5C1338.55,1284.49 1333.84,1286.38 1328.18,1291.09ZM1326.29,1341.05L1312.15,1349.53L1308.38,1345.76L1308.38,1268.46C1308.38,1263.75 1307.44,1259.97 1305.54,1257.13C1304.6,1254.31 1301.76,1253.37 1298.01,1252.44L1298.01,1247.72L1328.18,1239.24L1328.18,1283.55C1335.7,1277.88 1342.32,1276 1350.8,1276C1359.28,1276 1366.81,1279.78 1372.49,1286.38C1377.19,1292.98 1380.01,1302.4 1380.01,1310.89C1380.01,1318.44 1379.08,1324.1 1376.26,1329.75C1373.42,1335.41 1369.65,1341.06 1364.94,1343.89C1360.23,1346.72 1354.58,1348.6 1347.96,1348.6C1340.42,1348.58 1333.84,1346.7 1326.29,1341.05ZM1430.93,1348.58C1424.54,1348.64 1418.18,1347.69 1412.08,1345.76C1405.47,1341.98 1399.83,1337.27 1396.99,1331.62C1394.17,1326.9 1391.33,1320.3 1391.33,1312.76C1391.33,1306.16 1394.17,1300.5 1396.99,1294.85C1400.76,1288.25 1406.44,1284.47 1412.08,1280.7C1418.22,1277.6 1424.99,1275.99 1431.86,1275.99C1437.54,1275.99 1443.18,1277.88 1448.84,1280.7C1454.49,1284.47 1458.27,1288.25 1461.1,1293.9C1464.87,1299.57 1465.8,1305.23 1465.8,1311.83C1465.8,1323.14 1462.03,1332.57 1455.44,1339.15C1448.84,1345.77 1440.36,1347.65 1430.93,1348.58ZM1429.06,1343.88C1435.65,1343.88 1440.36,1339.17 1443.2,1331.63C1445.08,1326.91 1445.08,1320.31 1445.08,1312.77C1445.08,1303.35 1444.14,1296.76 1442.26,1290.15C1439.42,1284.49 1434.71,1281.67 1429.06,1281.67C1424.35,1281.67 1421.51,1283.57 1418.67,1286.38C1415.86,1290.15 1414.92,1294.86 1413.96,1298.64C1412.75,1303.25 1412.12,1308 1412.08,1312.77C1412.08,1321.26 1413.96,1327.86 1415.86,1334.46C1418.67,1341.05 1422.45,1343.88 1429.06,1343.88ZM1507.31,1301.46L1507.31,1331.63C1507.31,1335.39 1508.24,1339.17 1510.12,1340.1C1511.06,1342 1513.9,1342 1517.67,1342L1517.67,1346.7L1476.18,1346.7L1476.18,1342C1479.95,1342 1482.79,1342 1483.73,1341.06C1485.62,1339.17 1486.57,1336.35 1486.57,1331.63L1486.57,1305.24C1486.57,1299.57 1485.63,1295.8 1485.63,1292.98C1483.74,1290.15 1481.86,1289.21 1476.18,1288.27L1476.18,1284.5L1507.31,1275.07L1507.31,1292.04C1512.02,1286.38 1515.79,1281.67 1518.6,1278.83C1521.44,1276 1525.22,1275.07 1528.99,1275.07C1531.81,1275.07 1534.65,1276 1536.52,1277.9C1538.41,1280.73 1538.41,1283.57 1538.41,1286.38C1538.41,1289.19 1538.41,1291.09 1536.52,1292.98C1534.84,1294.85 1532.43,1295.88 1529.93,1295.81C1528.99,1294.88 1526.15,1294.88 1524.27,1293.92C1521.43,1292.98 1518.59,1292.02 1517.66,1292.02C1515.78,1292.02 1513.88,1292.97 1512,1294.86C1511.06,1296.74 1509.17,1298.64 1507.31,1301.46ZM1589.33,1340.1C1582.02,1345.68 1573.06,1348.67 1563.87,1348.58C1558.19,1348.58 1553.48,1347.65 1548.77,1344.81C1545,1341.98 1543.12,1337.27 1543.12,1331.62C1543.12,1321.24 1549.7,1314.64 1562.9,1308.99C1570.44,1306.16 1579.87,1304.28 1589.32,1302.38L1589.32,1294.85C1589.32,1290.14 1588.36,1287.3 1587.42,1284.47C1585.54,1282.58 1583.65,1280.7 1579.87,1280.7C1577.06,1280.7 1574.22,1281.65 1573.28,1282.59C1571.39,1284.49 1570.44,1287.3 1569.51,1290.14C1567.63,1294.85 1565.74,1296.74 1564.8,1298.62C1562.91,1300.5 1561.03,1302.38 1558.19,1302.38C1552.53,1301.45 1548.76,1298.62 1548.76,1293.9C1548.76,1289.19 1550.65,1285.43 1555.37,1282.59C1559.15,1280.7 1562.9,1277.88 1567.63,1276.94C1572.34,1275.99 1577.99,1275.99 1581.77,1275.99C1589.32,1275.99 1594.97,1276.94 1598.74,1278.82C1603.45,1280.71 1606.27,1283.54 1608.17,1286.37C1609.11,1290.14 1610.05,1293.9 1610.05,1298.62L1610.05,1336.34C1610.99,1337.27 1611.95,1339.17 1614.76,1339.17C1616.65,1339.17 1617.6,1338.23 1618.54,1337.27L1619.47,1341.05C1617.65,1343.71 1615.01,1345.69 1611.95,1346.7C1609.11,1347.65 1606.27,1348.6 1603.47,1348.6C1597.78,1348.58 1592.14,1345.77 1589.33,1340.1ZM1589.33,1309C1582.71,1309.95 1577.07,1311.84 1572.35,1314.67C1567.64,1318.44 1565.74,1323.15 1565.74,1329.75C1565.74,1332.58 1565.74,1335.41 1567.63,1337.29C1569.67,1339.18 1572.37,1340.19 1575.15,1340.11C1579.86,1339.18 1585.54,1337.29 1589.32,1331.64L1589.32,1309L1589.33,1309ZM1631.74,1285.43L1622.31,1285.43L1622.31,1277.88C1630.79,1277.88 1635.51,1275.06 1639.29,1272.23C1641.17,1268.46 1644.94,1261.85 1646.84,1251.48L1653.42,1251.48L1653.42,1277.87L1673.23,1277.87L1673.23,1285.42L1652.48,1285.42L1652.48,1329.73C1652.48,1335.38 1655.32,1339.15 1660.96,1339.15C1665.67,1339.15 1669.44,1337.26 1673.22,1333.49L1676.03,1336.33C1673.22,1339.15 1669.44,1342.93 1665.67,1344.8C1661.16,1346.56 1656.37,1347.52 1651.53,1347.64C1645.85,1347.64 1641.14,1346.69 1637.37,1343.86C1634.55,1340.09 1631.71,1335.38 1631.71,1329.73L1631.71,1285.43L1631.74,1285.43ZM1716.6,1348.58C1709.99,1348.58 1703.4,1347.65 1697.73,1345.76C1691.14,1341.98 1685.5,1337.27 1682.66,1331.62C1679.82,1326.9 1677.95,1320.3 1677.95,1312.76C1677.95,1306.16 1679.83,1300.5 1682.66,1294.85C1686.43,1288.25 1692.09,1284.47 1697.73,1280.7C1703.87,1277.6 1710.65,1275.99 1717.53,1275.99C1723.19,1275.99 1728.86,1277.88 1734.51,1280.7C1740.17,1284.47 1743.94,1288.25 1746.77,1293.9C1750.52,1299.57 1751.48,1305.23 1751.48,1311.83C1751.48,1323.14 1747.7,1332.57 1741.09,1339.15C1734.5,1345.77 1726.95,1347.65 1716.6,1348.58ZM1714.69,1343.88C1721.31,1343.88 1726.02,1339.17 1728.86,1331.63C1730.74,1326.91 1730.74,1320.31 1730.74,1312.77C1730.74,1303.35 1729.8,1296.76 1727.9,1290.15C1725.08,1284.49 1720.37,1281.67 1714.69,1281.67C1709.99,1281.67 1707.14,1283.57 1704.33,1286.38C1702.35,1290.29 1700.77,1294.4 1699.62,1298.64C1698.69,1302.4 1697.73,1307.11 1697.73,1312.77C1697.73,1321.26 1699.62,1327.86 1701.5,1334.46C1704.33,1341.05 1708.11,1343.88 1714.69,1343.88ZM1792.94,1301.46L1792.94,1331.63C1792.94,1335.39 1793.87,1339.17 1795.78,1340.1C1796.71,1342 1799.56,1342 1803.3,1342L1803.3,1346.7L1761.84,1346.7L1761.84,1342C1765.61,1342 1768.45,1342 1769.39,1341.06C1771.27,1339.17 1772.2,1336.35 1772.2,1331.63L1772.2,1305.24C1772.2,1299.57 1771.27,1295.8 1771.27,1292.98C1769.39,1290.15 1767.49,1289.21 1761.84,1288.27L1761.84,1284.5L1792.94,1275.07L1792.94,1292.04C1797.65,1286.38 1801.42,1281.67 1804.26,1278.83C1807.08,1276 1810.85,1275.07 1814.63,1275.07C1817.47,1275.07 1820.28,1276 1822.17,1277.9C1824.06,1280.73 1824.99,1283.57 1824.99,1286.38C1824.99,1289.19 1824.06,1291.09 1822.17,1292.98C1820.49,1294.85 1818.07,1295.88 1815.56,1295.81C1814.63,1294.88 1812.75,1294.88 1809.9,1293.92C1807.06,1292.98 1804.25,1292.02 1803.29,1292.02C1801.31,1291.99 1799.48,1293.09 1798.58,1294.86C1796.48,1296.87 1794.59,1299.08 1792.94,1301.46ZM1874.03,1346.7L1835.38,1346.7L1835.38,1342C1839.15,1342 1841.03,1342 1842.93,1339.17C1843.86,1338.23 1844.81,1334.46 1844.81,1329.74L1844.81,1303.35C1844.81,1298.64 1843.87,1294.86 1842.93,1292.97C1841.97,1290.14 1839.15,1288.26 1834.44,1288.26L1834.44,1283.55L1865.55,1275.07L1865.55,1331.63C1865.55,1335.39 1865.55,1339.17 1867.43,1340.1C1868.36,1342 1871.2,1342 1874.04,1342L1874.04,1346.7L1874.03,1346.7ZM1854.22,1263.75C1851.41,1263.75 1847.63,1261.85 1844.79,1259.97C1842.91,1258.08 1841.95,1254.31 1841.95,1251.49C1841.95,1247.72 1842.91,1245.82 1844.79,1243.01C1847.63,1241.12 1851.41,1239.24 1854.22,1239.24C1857.06,1239.24 1859.9,1240.18 1862.7,1243.01C1865.55,1244.9 1865.55,1247.72 1865.55,1251.49C1865.55,1254.32 1865.55,1258.09 1862.7,1259.97C1859.89,1261.87 1857.06,1263.75 1854.22,1263.75ZM1902.3,1310.88C1902.3,1316.55 1903.26,1321.26 1905.14,1325.03C1907.02,1329.74 1909.85,1333.5 1912.69,1335.39C1916.46,1338.23 1921.17,1339.17 1925.89,1340.1C1933.42,1340.1 1940.96,1336.34 1947.58,1329.74L1950.39,1333.5C1940.96,1342.94 1930.61,1347.65 1918.35,1347.65C1907.98,1347.65 1898.54,1344.81 1891.95,1338.22C1884.4,1331.62 1880.63,1323.14 1881.59,1312.76C1881.59,1306.16 1884.4,1299.56 1886.3,1294.85C1890.05,1288.25 1893.82,1284.47 1899.5,1280.7C1904.67,1277.72 1910.51,1276.1 1916.48,1275.99C1923.07,1275.99 1929.68,1277.88 1934.39,1280.7C1939.1,1284.47 1942.87,1288.25 1945.68,1293.9C1948.53,1298.62 1949.46,1305.23 1949.46,1310.88L1902.3,1310.88ZM1902.3,1306.17L1931.54,1306.17C1931.54,1299.57 1930.6,1293.92 1928.69,1289.19C1926.81,1284.49 1923.04,1282.59 1916.46,1282.59C1911.73,1282.59 1907.98,1285.43 1906.08,1290.14C1903.26,1294.86 1902.3,1299.57 1902.3,1306.17ZM1961.7,1325.03L1967.36,1323.14C1972.07,1329.74 1976.79,1334.45 1982.46,1337.27C1986.2,1341.05 1991.88,1343.88 1998.46,1343.88C1999.39,1343.88 2001.3,1342.94 2003.17,1341.98C2005.06,1341.98 2006.94,1341.05 2008.85,1339.15C2008.85,1338.22 2009.78,1336.33 2009.78,1334.45C2009.78,1329.74 2006.01,1325.96 1998.46,1323.14C1996.58,1323.14 1991.87,1322.19 1984.32,1320.3C1978.93,1319.34 1973.98,1316.71 1970.18,1312.76C1965.48,1309.93 1963.57,1305.23 1963.57,1298.62C1963.57,1292.96 1965.46,1288.25 1970.18,1283.54C1973.96,1278.82 1979.61,1275.99 1988.1,1275.99C1989.98,1275.99 1991.87,1275.99 1996.58,1277.88C2000.35,1277.88 2002.23,1279.78 2003.17,1279.78C2007.88,1279.78 2011.65,1277.88 2015.42,1275.07L2022.97,1298.64L2016.36,1300.52C2006.93,1288.27 1996.58,1281.67 1989.03,1281.67C1986.19,1281.67 1982.44,1282.61 1980.55,1284.5C1978.67,1286.39 1977.71,1288.27 1977.71,1290.17C1977.71,1293 1977.71,1294.88 1979.6,1295.82C1981.48,1296.77 1983.38,1298.66 1985.26,1298.66C1987.15,1299.6 1990.94,1300.54 1995.64,1300.54C2000.35,1301.49 2004.13,1302.44 2006.01,1302.44C2011.66,1305.28 2016.37,1307.14 2020.14,1309.99C2023.92,1312.81 2025.83,1318.47 2025.83,1324.12C2025.83,1331.67 2022.99,1337.33 2019.21,1342.03C2013.91,1346.41 2007.23,1348.75 2000.37,1348.63C1999.41,1348.63 1996.59,1347.7 1991.88,1347.7C1986.2,1346.75 1983.4,1346.75 1981.5,1346.75C1976.79,1346.75 1973.01,1347.7 1969.26,1349.6L1961.7,1325.03ZM2043.72,1370.27L2040.88,1365.56C2046.54,1362.73 2049.37,1359.91 2051.25,1358.01C2053.14,1356.13 2053.14,1353.3 2053.14,1349.54C2050.3,1349.54 2047.49,1347.65 2045.59,1346.7C2043.71,1343.88 2042.75,1342 2042.75,1339.17C2042.75,1336.34 2043.71,1333.5 2043.71,1332.57L2048.42,1327.86C2050.3,1326.91 2053.13,1326.91 2055.01,1326.91C2058.78,1326.91 2061.62,1327.86 2063.49,1330.68C2066.33,1333.51 2067.26,1337.29 2067.26,1342C2067.26,1345.77 2065.38,1349.54 2063.49,1354.25C2061.61,1358.01 2058.78,1360.85 2055.01,1363.68C2051.23,1366.51 2047.5,1368.39 2043.72,1370.27ZM2163.45,1329.74C2163.45,1332.57 2164.38,1335.39 2166.29,1338.22C2168.17,1341.05 2171.94,1341.98 2177.59,1341.98L2177.59,1346.69L2125.73,1346.69L2125.73,1341.98C2131.41,1341.98 2135.19,1341.98 2137.05,1339.15C2138.93,1337.26 2139.89,1333.49 2139.89,1329.73L2139.89,1259.96C2139.89,1255.25 2138.93,1251.48 2137.05,1249.59C2135.17,1247.69 2131.4,1245.81 2125.73,1245.81L2125.73,1241.1L2177.59,1241.1L2177.59,1245.81C2171.93,1245.81 2168.16,1247.7 2166.29,1249.59C2164.39,1251.48 2163.45,1255.25 2163.45,1259.96C2163.45,1288.25 2163.45,1301.44 2162.51,1302.38L2162.51,1285.43C2163.45,1285.43 2163.45,1299.57 2163.45,1329.74ZM2222.85,1294.86L2222.85,1333.5C2222.85,1339.17 2225.66,1341.98 2231.33,1341.98L2231.33,1346.69L2192.68,1346.69L2192.68,1341.98C2196.46,1342.93 2198.34,1341.98 2200.23,1339.15C2201.16,1338.22 2202.11,1334.45 2202.11,1328.78L2202.11,1301.45C2202.11,1292.97 2198.34,1287.3 2191.75,1286.37L2191.75,1282.59L2222.85,1274.11L2222.85,1286.37C2232.28,1279.77 2239.83,1275.99 2246.4,1275.99C2252.08,1275.99 2256.79,1277.88 2260.54,1281.66C2264.31,1285.43 2267.15,1290.14 2267.15,1295.8L2267.15,1330.67C2267.15,1335.38 2268.09,1338.22 2269.03,1339.15C2269.99,1341.98 2272.81,1341.98 2276.58,1341.98L2276.58,1346.69L2237.93,1346.69L2237.93,1341.98C2240.77,1341.98 2243.61,1341.98 2244.55,1339.15C2245.48,1337.26 2246.43,1333.49 2246.43,1327.85L2246.43,1302.38C2246.43,1298.62 2245.49,1294.85 2244.55,1292.01C2242.74,1289.07 2239.52,1287.28 2236.07,1287.3C2230.4,1287.31 2225.66,1290.15 2222.85,1294.86ZM2347.27,1326.91L2351.98,1329.75C2347.27,1335.41 2341.61,1341.06 2335,1344.82C2329.34,1347.66 2321.8,1349.54 2315.22,1348.6C2308.61,1347.66 2302.96,1346.7 2299.19,1343.89C2294.48,1341.06 2290.71,1336.35 2287.89,1331.64C2285.05,1325.98 2284.12,1319.39 2284.12,1312.79C2284.12,1306.18 2286.93,1299.58 2289.77,1294.88C2293.55,1288.27 2298.26,1284.5 2303.91,1280.73C2309.76,1277.74 2316.21,1276.13 2322.78,1276.02C2329.37,1276.02 2335.01,1276.96 2340.69,1279.79C2346.35,1282.62 2349.18,1286.39 2349.18,1292.04C2349.18,1294.88 2348.22,1297.7 2345.4,1299.58C2343.51,1300.52 2341.63,1302.41 2338.79,1302.41C2335.01,1302.41 2333.13,1300.52 2332.2,1299.58C2331.26,1297.69 2329.36,1294.88 2329.36,1291.1C2328.42,1288.27 2327.48,1286.39 2325.58,1284.5C2323.91,1282.63 2321.5,1281.6 2318.99,1281.67C2310.51,1281.67 2305.79,1290.15 2304.86,1307.12C2304.86,1307.12 2305.79,1309.01 2305.79,1310.89C2306.72,1319.38 2307.67,1325.98 2311.45,1331.64C2314.29,1335.41 2318.99,1339.18 2323.7,1339.18L2325.58,1339.18C2325.58,1339.18 2326.52,1340.11 2327.48,1340.11C2331.25,1340.11 2335,1339.18 2337.84,1337.29C2340.69,1334.46 2344.47,1331.63 2347.27,1326.91ZM2366.15,1337.27C2366.15,1334.45 2368.03,1331.62 2369.9,1329.74C2372.74,1326.9 2374.63,1326.9 2378.38,1326.9C2381.22,1326.9 2385,1326.9 2386.87,1329.74C2388.76,1331.78 2389.78,1334.49 2389.7,1337.27C2389.7,1341.05 2388.77,1343.88 2386.87,1345.76C2384.98,1347.65 2381.21,1348.58 2378.38,1348.58C2374.63,1348.58 2372.73,1347.65 2369.9,1345.76C2367.56,1343.55 2366.21,1340.49 2366.15,1337.27Z"/>
    </g>
</svg>
