<?xml version="1.0" encoding="UTF-8"?>
<svg id="Layer_1" xmlns="http://www.w3.org/2000/svg" viewBox="0 0 2320 812"><g><path d="m680.68,239.33h154.64c61.26,0,93.38,35.08,93.38,83.99,0,32.61-15.32,57.81-42,71.15v.99c35.57,11.36,56.82,41.01,56.82,79.54,0,50.4-32.61,87.46-95.36,87.46h-167.49V239.33Zm146.74,130.93c26.19,0,38.54-15.81,38.54-36.07s-9.88-36.07-39.03-36.07h-83v72.13h83.5Zm9.88,133.9c29.64,0,41.5-17.3,41.5-38.54s-14.82-39.03-41.01-39.03h-93.87v77.57h93.38Z" style="fill:#0a2041;"/><path d="m969.71,440.42c0-74.11,54.35-128.46,131.42-128.46s130.44,54.35,130.44,128.46v20.75h-200.1c7.91,35.57,35.08,54.35,69.66,54.35,26.19,0,45.46-7.41,57.81-23.22h62.75c-18.28,46.44-62.75,76.58-120.55,76.58-77.07,0-131.42-54.35-131.42-128.46Zm199.61-26.18c-9.39-32.61-36.07-48.92-68.18-48.92s-58.79,16.8-68.18,48.92h136.36Z" style="fill:#0a2041;"/><path d="m1434.62,231.95c-101.37,0-172.92,71.55-172.92,168.94s71.55,168.94,172.92,168.94,172.91-71.55,172.91-168.94-71.55-168.94-172.91-168.94Zm101.42,168.94c0,60.88-41.7,103.41-101.42,103.41s-101.42-42.52-101.42-103.41,41.7-102.91,101.42-102.91,101.42,42.32,101.42,102.91Z" style="fill:#d32e27;"/><path d="m1886.88,435.47c0-82.48-48.7-124.22-121.24-124.22s-121.24,42.24-121.24,124.22v127.7h66.03v-127.7c0-40.09,19.61-62.17,55.21-62.17s55.21,22.08,55.21,62.17v127.7h66.03v-127.7Z" style="fill:#d32e27;"/><g><path d="m2173.63,390.22l-70.6,16.3-27.65,6.38-21.39,4.94c-12.63,2.92-20.51,15.52-17.59,28.15,2.92,12.63,15.52,20.51,28.15,17.59l48.53-11.21,70.91-16.37c-.32-7.92-1.35-15.92-3.2-23.92-1.76-7.63-4.2-14.91-7.17-21.87Z" style="fill:#0a2041;"/><path d="m2110.73,480.33c-12.39,17.14-32.52,28.34-55.32,28.34-37.68,0-68.23-30.48-68.23-68.07s30.55-68.07,68.23-68.07c17.04,0,32.58,6.27,44.53,16.57l64.4-14.7c-22.56-37.09-63.39-61.87-110.01-61.87-71.04,0-128.63,57.53-128.63,128.51s57.59,128.51,128.63,128.51c62.67,0,114.84-44.78,126.28-104.04l-69.87,14.83Z" style="fill:#d32e27;"/></g></g><g><rect x="136" y="194.45" width="412.76" height="412.76" rx="112.11" ry="112.11" style="fill:#fff;"/><path d="m493.27,573.76c-45.4-39.09-98.97-61.53-147.13-61.53-51.2,0-112.27,24.53-155.69,62.52l-9.76,9.78c18.78,14.18,42.07,22.69,67.41,22.69h188.55c25.33,0,48.62-8.5,67.39-22.67l-10.77-10.79Z" style="fill:#d32e27;"/><path d="m191.61,227.98c36.35,30.87,95,63.51,152.15,63.51,48.21,0,104.54-24.09,150.66-64.45l9.8-9.79c-18.8-14.25-42.16-22.8-67.57-22.8h-188.55c-25.32,0-48.59,8.49-67.36,22.65l10.87,10.88Z" style="fill:#d32e27;"/><path d="m158.63,562.45l10.81-10.8c40.88-47.69,65.26-103.98,65.26-150.79-.48-24.42-5.67-48.51-15.29-70.96,12.61,7.4,25.73,13.89,39.27,19.41,4.63,16.8,7.04,34.13,7.17,51.55,0,39.81-13.3,76.91-29.29,107.18,34.14-16.79,71.52-25.99,109.56-26.96,41.97,0,87.05,14.44,128.54,40.47,8.5,5.51,16.82,11.3,24.88,17.64,0,0,11.03,8.6,16.94,13.78l9.57,9.57c14.18-18.78,22.7-42.08,22.7-67.43v-188.55c0-25.24-8.44-48.45-22.51-67.18l-10.75,10.74c-40.88,47.69-65.32,103.93-65.32,150.73.56,24.54,5.91,48.73,15.72,71.23-12.69-7.51-25.93-14.05-39.61-19.57-4.65-16.83-7.08-34.2-7.23-51.66.91-36.65,10.54-72.55,28.08-104.75-31.99,16.6-67.35,25.7-103.38,26.63-54.78,0-110-25.36-150.33-53.87-2.76-1.99-5.46-4.02-8.12-6.12,0,0-11.02-8.6-16.93-13.78l-9.76-9.75c-14.15,18.76-22.64,42.04-22.64,67.35v188.55c0,25.31,8.49,48.58,22.63,67.34Zm139.01-206.27s21.02,17.97,44.8,17.97c22.94,0,44.8-17.97,44.8-17.97,0,0-18.04,20.95-18.04,44.71,0,23.76,18.04,44.77,18.04,44.77,0,0-21.02-17.97-44.8-17.97-22.95,0-44.8,17.97-44.8,17.97,0,0,17.98-21.01,17.98-44.77,0-23.76-17.98-44.71-17.98-44.71Z" style="fill:#d32e27;"/></g></svg>