<svg width="248" height="23" viewBox="0 0 248 23" fill="none" xmlns="http://www.w3.org/2000/svg">
<path d="M21.5429 22.2445V5.81272H21.4802L14.5133 22.2445H11.1204L4.31024 6.11886H4.24753V22.2445H0.638672V1.8501H6.23659L12.8621 17.422H12.9248L19.5504 1.8501H25.2737V22.2445H21.5429Z" fill="white"/>
<path d="M30.9104 13.6137H39.4657C39.1871 11.6496 37.5046 10.3872 35.2333 10.3872C33.1502 10.3872 31.3145 11.6772 30.9104 13.6137ZM30.9104 16.0388C31.3145 18.3434 33.307 19.6953 36.1983 19.6953C38.3441 19.6953 40.1485 19.0486 41.4548 17.8206H41.6116V21.0471C40.368 21.9999 38.3754 22.5537 36.0729 22.5537C30.9696 22.5537 27.5488 19.5439 27.5488 15.0585C27.5488 10.573 30.6909 7.53223 35.1393 7.53223C39.5877 7.53223 42.5138 10.2359 42.5138 14.4427V16.0388H30.9104Z" fill="white"/>
<path d="M56.9006 15.1068C56.9006 12.3722 55.0961 10.4975 52.4835 10.4975C49.8709 10.4975 48.0665 12.3722 48.0665 15.1068C48.0665 17.8414 49.8709 19.6852 52.4835 19.6852C55.0961 19.6852 56.9006 17.7795 56.9006 15.1068ZM57.3674 22.296L57.2733 20.239H57.2106C56.1516 21.7146 54.3193 22.6055 51.9541 22.6055C47.7844 22.6055 44.7363 19.4719 44.7363 15.1103C44.7363 10.7486 47.7844 7.58404 51.9541 7.58404C54.0372 7.58404 55.657 8.25823 56.7438 9.3968H56.8065V0.797363H60.1054V22.2994H57.3674V22.296Z" fill="white"/>
<path d="M66.305 22.196H63.0062V7.79021H66.305V22.196ZM66.7718 3.30474C66.7718 4.53274 65.9323 5.36173 64.6573 5.36173C63.3824 5.36173 62.5742 4.53274 62.5742 3.30474C62.5742 2.07674 63.4137 1.2168 64.6573 1.2168C65.9009 1.2168 66.7718 2.07674 66.7718 3.30474Z" fill="white"/>
<path d="M68.3008 22.1963L73.9928 14.7939L68.6108 7.79053H72.6238L76.2013 12.7644L79.7474 7.79053H83.6036L78.253 14.7939L83.9137 22.1963H79.9042L76.0445 16.789L72.157 22.1963H68.3008Z" fill="white"/>
<path d="M102.32 18.9595C104.685 18.9595 105.898 18.0996 105.898 16.2868C105.898 14.4741 104.654 13.5522 102.101 13.5522H96.7186V18.9595H102.317H102.32ZM101.355 10.3601C103.936 10.3601 105.18 9.50016 105.18 7.71836C105.18 5.93655 103.999 5.13852 101.602 5.13852H96.7186V10.3601H101.355ZM106.114 11.8667C108.447 12.5719 109.66 14.1714 109.66 16.6274C109.66 20.3423 107.173 22.248 102.411 22.248H92.9844V1.8501H101.634C106.424 1.8501 108.914 3.72478 108.914 7.37782C108.914 9.49672 107.981 11.0033 106.114 11.8014V11.8633V11.8667Z" fill="white"/>
<path d="M115.248 22.2443H111.949V7.83854H115.248V22.2443ZM115.655 3.41155C115.655 4.60515 114.84 5.4135 113.6 5.4135C112.36 5.4135 111.576 4.60859 111.576 3.41155C111.576 2.21451 112.391 1.38208 113.6 1.38208C114.809 1.38208 115.655 2.21795 115.655 3.41155Z" fill="white"/>
<path d="M149.676 8.76728V12.2999H149.519C148.491 11.01 147.091 10.4253 145.318 10.4253C142.301 10.4253 140.434 12.269 140.434 15.0311C140.434 17.7933 142.301 19.6095 145.318 19.6095C147.122 19.6095 148.523 18.9628 149.519 17.7038H149.676V21.2984C148.585 22.1274 147.032 22.5264 145.008 22.5264C140.25 22.5264 137.107 19.4237 137.107 15.0311C137.107 10.6385 140.25 7.50488 145.008 7.50488C147.028 7.50488 148.523 7.93486 149.676 8.76384" fill="white"/>
<path d="M166.329 13.7756V22.2237H163.03V14.1437C163.03 11.7771 161.755 10.4253 159.641 10.4253C157.307 10.4253 155.906 11.9904 155.906 14.6631V22.2203H152.607V0.72168H155.906V9.38303H155.969C156.965 8.18599 158.519 7.50836 160.48 7.50836C164.12 7.50836 166.329 9.84396 166.329 13.7756Z" fill="white"/>
<path d="M171.942 13.5903H180.497C180.218 11.6262 178.536 10.3638 176.265 10.3638C174.181 10.3638 172.346 11.6537 171.942 13.5903ZM171.942 16.0154C172.346 18.32 174.338 19.6718 177.229 19.6718C179.375 19.6718 181.18 19.0252 182.486 17.7972H182.643V21.0237C181.399 21.9765 179.407 22.5303 177.104 22.5303C172.001 22.5303 168.58 19.5205 168.58 15.035C168.58 10.5495 171.722 7.50879 176.171 7.50879C180.619 7.50879 183.545 10.2125 183.545 14.4193V16.0154H171.942Z" fill="white"/>
<path d="M208.525 13.7141V22.2241H205.226V14.0547C205.226 11.6881 204.167 10.4291 202.209 10.4291C200.001 10.4291 198.851 11.8738 198.851 14.7908V22.2241H195.552V14.0547C195.552 11.6881 194.494 10.4291 192.504 10.4291C190.327 10.4291 189.178 11.8738 189.178 14.5465V22.2276H185.879V7.82179H188.617L188.711 9.90973H188.774C189.645 8.34463 191.17 7.51221 193.347 7.51221C195.399 7.51221 197.019 8.40311 197.89 10.092H197.953C198.855 8.37215 200.471 7.51221 203.056 7.51221C206.571 7.51221 208.532 9.75494 208.532 13.7176" fill="white"/>
<path d="M214.784 22.2233H211.485V7.81755H214.784V22.2233ZM215.25 3.33208C215.25 4.56008 214.411 5.38907 213.136 5.38907C211.861 5.38907 211.053 4.56008 211.053 3.33208C211.053 2.10408 211.892 1.24414 213.136 1.24414C214.379 1.24414 215.25 2.10408 215.25 3.33208Z" fill="white"/>
<path d="M229.644 8.76728V12.2999H229.488C228.46 11.01 227.06 10.4253 225.287 10.4253C222.27 10.4253 220.403 12.269 220.403 15.0311C220.403 17.7933 222.27 19.6095 225.287 19.6095C227.091 19.6095 228.491 18.9628 229.488 17.7038H229.644V21.2984C228.554 22.1274 227.001 22.5264 224.977 22.5264C220.218 22.5264 217.076 19.4237 217.076 15.0311C217.076 10.6385 220.218 7.50488 224.977 7.50488C226.997 7.50488 228.491 7.93486 229.644 8.76384" fill="white"/>
<path d="M244.072 15.035C244.072 12.3004 242.268 10.4257 239.655 10.4257C237.043 10.4257 235.238 12.3004 235.238 15.035C235.238 17.7696 237.043 19.6133 239.655 19.6133C242.268 19.6133 244.072 17.7077 244.072 15.035ZM244.539 22.2241L244.445 20.1671H244.382C243.323 21.6428 241.488 22.5337 239.126 22.5337C234.956 22.5337 231.908 19.4001 231.908 15.0384C231.908 10.6768 234.956 7.51221 239.126 7.51221C241.491 7.51221 243.296 8.40311 244.351 9.87877H244.414L244.539 7.82179H247.277V22.2276H244.539V22.2241Z" fill="white"/>
<path d="M126.332 5.26221C121.469 5.26221 117.525 9.15603 117.525 13.958C117.525 18.7599 121.469 22.6537 126.332 22.6537C131.194 22.6537 135.138 18.7599 135.138 13.958C135.138 9.15603 131.194 5.26221 126.332 5.26221ZM126.332 7.16784C130.122 7.16784 133.204 10.212 133.204 13.958C133.204 17.7039 130.122 20.7446 126.332 20.7446C122.542 20.7446 119.455 17.7004 119.455 13.958C119.455 10.2155 122.538 7.16784 126.332 7.16784Z" fill="#DD0E0E"/>
</svg>
