<svg version="1.1" id="gnav" xmlns="http://www.w3.org/2000/svg" xmlns:xlink="http://www.w3.org/1999/xlink" x="0px" y="0px" viewBox="239 -11.5 538.8 109" style="enable-background:new 239 -11.5 538.8 109;" xml:space="preserve">
 <style type="text/css">
  .st0{fill:#7C878E;}
	.st1{fill:#418FDE;}
 </style>
 <g>
  <path id="シェイプ_87" class="st0" d="M517.9,11L517.9,11z M670.4,37c-8-5.6-6.5-15.7,1.7-20.1c2.3-1.1,4.9-1.6,7.5-1.6
		c5.2-0.2,10.3,1.9,13.7,5.9l2.5-8.3c-5.4-2.1-11-3.2-16.8-3.2c-12.6,0-24,7.2-24,19.4c0,16.6,18.5,19.9,27.5,27.4
		c11.3,9.5,3.8,24.9-10,24.9c-6-0.3-11.7-2.7-16.1-6.7l-2.1,8.6c6.2,2.8,12.9,4.3,19.7,4.4c12.8,0,24.7-7.4,24.7-22.4
		C698.7,49.6,680.5,44.1,670.4,37L670.4,37L670.4,37z M588,9.8c-22.4,0-34.2,17.9-34.2,38.9c0,22.8,13.1,39.2,34.2,39.2
		c20.6,0,34.7-14.6,34.7-39.2C622.6,25.9,609.9,9.8,588,9.8z M587.9,82.3c-14.6,0-22.8-14.5-22.8-33.7c0-19,8.8-33.1,22.9-33.1
		c16.4,0,23.2,16,23.2,33.1C611.3,68.3,602.9,82.3,587.9,82.3L587.9,82.3z M514.8,67.1c-6.6-7.1-18.7-20.7-18.7-20.7
		s10.7-12.2,16.7-18.5c6-6.4,17-16.8,17-16.8h0c-2,0.3-3.9,0.4-5.9,0.4c-2,0-4-0.1-5.9-0.4c0,0-10,11.4-16,17.6
		c-6.1,6.2-17,17.6-17.1,17.7c0-23.6,0.6-35.4,0.6-35.4c-2,0.2-4.1,0.4-6.1,0.4c-2,0-4.1-0.1-6.1-0.4c0,0,0.6,12.4,0.6,37.4
		c0,24.9-0.6,37.3-0.6,37.4c4.1-0.5,8.2-0.5,12.3,0c0-0.1-0.6-12.5-0.6-37.4v-2c0.1,0.1,11.5,12.3,18.1,19.8
		c6.3,7.2,16.9,19.7,16.9,19.7c2.2-0.3,4.4-0.4,6.6-0.4c2.3,0,4.6,0.1,6.9,0.4C533.2,85.9,521.4,74.2,514.8,67.1L514.8,67.1z
		 M777.8,79.2c0,0-7.7,0.5-20.8,0.5c-3.1,0-6.1,0-8.5-0.1c-0.1-3.6-0.2-8.8-0.3-15.4c-0.1-4-0.1-8.8-0.1-14c1,0,2.1,0,3.4,0
		c11.9,0,13.1,0,23.7,0.3c-0.2-1-0.3-2.1-0.3-3.2c0-1.1,0-2.1,0.2-3.2c-10.6,0.3-11.8,0.3-23.7,0.3c-1.2,0-2.3,0-3.3,0
		c0-4.3,0.1-8.4,0.2-11.9c0.1-6.5,0.2-11.7,0.3-15.2c2.3,0,5.1-0.1,7.9-0.1c12.7,0,20.2,0.5,20.2,0.5c-0.2-0.9-0.3-1.9-0.3-2.9
		c0-1.3,0.1-2.6,0.3-3.8c0,0-7.5,0.4-20.2,0.4c-8.4,0-14.5-0.2-17.6-0.3l-2.4-0.1v0l0,0v0.1c0,0.8,0.6,13.2,0.6,37.3
		c0,25-0.6,37.4-0.6,37.4s7.5-0.4,20.5-0.4c13.1,0,20.8,0.4,20.8,0.4c-0.2-1.2-0.3-2.5-0.3-3.7C777.5,81.2,777.6,80.2,777.8,79.2z
		 M755.6,2.5c-0.6-0.4-1.3-0.8-2-1.1c-1.2-0.5-2.4-0.9-2.4-0.9c4.1-2.8,7.8-6.1,11.1-9.8c0.8-0.9,1.9-1.6,3-2.1
		c2.3-0.7,4.8,0.6,5.5,2.9c0.2,0.8,0.3,1.6,0.1,2.4c-0.6,1.8-1.8,3.3-3.4,4.2c-1.7,1.1-3.6,1.9-5.5,2.6c-1.8,0.7-3.7,1.3-5.6,1.6
		C756.2,2.5,755.6,2.5,755.6,2.5z">
  </path>
  <path id="シェイプ_86" class="st1" d="M277.1-2.6c-15.2,0-19.9,0.9-23.9,2.7c-6.4,2.7-11,8.5-12,15.4
		c-1.6,10.5-2.3,21.1-2.2,31.8c-0.1,10.3,0.5,20.6,2,30.8c1.2,7.9,6.8,14.3,14.4,16.6c6.2,1.9,11.9,1.7,21.6,1.7
		c6.9,0.4,13.8-0.1,20.5-1.6c7.4-1.6,13.1-7.4,14.8-14.7c2.1-8.9,2.1-22.9,2.1-32.7c0.2-10.9-0.6-21.7-2.2-32.4
		c-1.2-7.4-6.5-13.5-13.7-15.6C294.8-1.9,289.6-2.6,277.1-2.6z M339,10c-11.1,10.2-13.8,14.1-15.5,18.1c-2.8,6.3-2.1,13.7,2,19.3
		c6.2,8.7,13,17,20.5,24.6c7.1,7.6,14.7,14.6,22.9,21.1c6.3,4.9,14.8,5.9,22,2.3c5.8-2.8,9.8-6.8,16.9-13.4c5.3-4.3,9.9-9.4,13.9-15
		c4.2-6.2,4.4-14.3,0.5-20.7c-4.7-8-14.4-18.1-21.3-25.3c-7.4-8-15.5-15.4-24.2-22.1c-6-4.6-14-5.4-20.8-2.1
		C352.3-1.5,348.1,1.5,339,10z">
  </path>
 </g>
</svg>