<svg version="1.1" xmlns="http://www.w3.org/2000/svg" xmlns:xlink="http://www.w3.org/1999/xlink" viewBox="0 0.48 85 32.03">
    <title>Zoetis logo</title>
    <g id="Symbols" stroke="none" stroke-width="1" fill="none" fill-rule="evenodd" style="--darkreader-inline-stroke: none;" data-darkreader-inline-stroke="">
        <g id="Symbols/Navigation/Products&amp;Science" transform="translate(-20.000000, -14.000000)" fill="#F65C00" fill-rule="nonzero" style="--darkreader-inline-fill: #c54a00;" data-darkreader-inline-fill="">
            <g id="Zoetis-logo-SVG-RGB" transform="translate(20.000000, 14.498932)">
                <path d="M34.2179487,23.7019231 L36.1976496,26.517094 C34.8899573,27.8429487 30.2767094,32.0021368 23.375,32.0021368 C13.6399573,32.0021368 13.0224359,24.8098291 3.34188034,24.8098291 L0.508547009,24.8098291 L0,21.8856838 L10.9519231,10.7339744 L2.45192308,10.7339744 L3.10576923,7.30128205 L17.0181624,7.30128205 L16.4188034,10.4433761 L5.79380342,21.2863248 C13.9487179,21.2863248 15.9465812,28.642094 23.9380342,28.642094 C28.8237179,28.6239316 32.8194444,25.2275641 34.2179487,23.7019231 Z" id="Path"/>
                <path d="M26.9348291,6.9017094 C20.9594017,6.9017094 16.8365385,12.0416667 16.8365385,17.9807692 C16.8365385,22.1581197 19.5608974,25.2094017 23.9925214,25.2094017 C29.9679487,25.2094017 34.1271368,20.1057692 34.1271368,14.1666667 C34.1271368,10.2799145 31.6570513,6.9017094 26.9348291,6.9017094 Z M24.5737179,21.9764957 C22.4487179,21.9764957 21.159188,20.2873932 21.159188,17.8717949 C21.159188,14.6025641 23.1025641,10.1346154 26.4444444,10.1346154 C29.0053419,10.1346154 29.7863248,12.3685897 29.7863248,14.1666667 C29.7863248,17.6538462 27.6976496,21.9764957 24.5737179,21.9764957 Z" id="Shape"/>
                <path d="M51.7628205,11.8237179 C51.7628205,8.91773504 49.5651709,6.9017094 46.1143162,6.9017094 C40.0662393,6.9017094 36.1976496,12.659188 36.1976496,17.9444444 C36.1976496,22.2307692 38.5405983,25.2094017 43.3899573,25.2094017 C45.5149573,25.2094017 47.857906,24.7008547 49.5833333,23.8108974 L49.1837607,20.7596154 C47.9305556,21.4134615 46.3504274,21.9038462 44.3707265,21.9038462 C42.7179487,21.9038462 41.4647436,21.2863248 40.7745726,20.1057692 C40.375,19.4155983 40.2297009,18.2350427 40.3023504,17.6175214 C47.0587607,17.7628205 51.7628205,16.3279915 51.7628205,11.8237179 Z M45.5876068,10.025641 C46.9134615,10.025641 47.8215812,10.715812 47.8215812,11.8237179 L47.8215812,11.8600427 C47.8215812,13.9487179 45.0608974,14.5480769 40.7382479,14.4935897 C41.2286325,12.3685897 42.9540598,10.025641 45.5876068,10.025641 Z" id="Shape"/>
                <path d="M80.6410256,10.025641 C82.0758547,10.025641 83.2745726,10.4615385 83.9102564,10.8247863 L85,7.80982906 C84.2008547,7.33760684 82.6933761,6.9017094 80.8589744,6.9017094 C76.7179487,6.9017094 73.775641,9.28098291 73.775641,12.659188 C73.775641,14.6752137 75.2104701,16.1463675 77.2264957,17.2179487 C78.9519231,18.107906 79.5331197,18.7980769 79.5331197,19.9059829 C79.5331197,21.0502137 78.534188,22.0309829 76.8450855,22.0673077 C75.2649573,22.0673077 73.5395299,21.3771368 72.6314103,20.8867521 L71.5598291,23.9017094 C72.4861111,24.5918803 74.3931624,25.1549145 76.4455128,25.1912393 C80.659188,25.1912393 83.892094,23.0299145 83.892094,19.1794872 C83.892094,16.9455128 82.1666667,15.5106838 80.2596154,14.4754274 C78.7884615,13.7126068 77.9893162,13.0405983 77.9893162,12.0598291 C77.9893162,10.8974359 79.0608974,10.025641 80.6410256,10.025641 Z" id="Path"/>
                <g id="Group" transform="translate(64.422009, 0.000000)">
                    <path d="M3.94123932,2.56089744 C3.94123932,1.0534188 5.08547009,0 6.46581197,0 C7.75534188,0 8.69978632,0.944444444 8.69978632,2.27029915 C8.66346154,3.81410256 7.51923077,4.79487179 6.1025641,4.79487179 L6.04807692,4.79487179 C4.79487179,4.7767094 3.94123932,3.85042735 3.94123932,2.56089744 Z" id="Path"/>
                    <polygon id="Path" points="0 24.8098291 4.17735043 24.8098291 7.51923077 7.30128205 3.36004274 7.30128205"/>
                </g>
                <path d="M59.9722222,21.849359 C58.7371795,21.849359 58.1014957,21.0865385 58.4102564,19.5245726 L60.1901709,10.534188 L64.1132479,10.534188 L64.767094,7.30128205 L60.8076923,7.30128205 L61.6794872,2.81517094 L57.3568376,4.06837607 L56.7029915,7.30128205 L54.2510684,7.30128205 L53.6153846,10.534188 L56.0673077,10.534188 L54.2510684,19.7788462 C53.6153846,23.1025641 55.2863248,25.1912393 59.1185897,25.1912393 C59.9903846,25.1912393 60.9529915,24.991453 61.8611111,24.7553419 L62.0064103,21.5042735 C61.3162393,21.7040598 60.6442308,21.849359 59.9722222,21.849359 Z" id="Path"/>
            </g>
        </g>
    </g>
</svg>