<svg width="66" height="62" viewBox="0 0 66 62" fill="none" xmlns="http://www.w3.org/2000/svg">
<path d="M24.522 55.4219C25.4231 53.5975 26.2008 51.732 26.8551 49.8254C30.4797 39.2435 32.8008 28.0776 34.9262 17.1105C35.1821 15.7768 35.9768 14.3077 37.3827 14.0006C40.2758 13.3714 41.9406 17.8661 42.6661 19.9222C45.8994 29.0862 48.1482 38.5782 50.6379 47.9619C51.1948 50.0632 52.5435 53.9648 54.5425 54.9432C54.6348 54.9894 54.7312 54.9964 54.8315 54.9643C58.2755 53.8564 60.2624 44.2801 60.5906 41.1943C61.9573 28.3546 59.7717 15.6142 54.69 3.65961C54.3388 2.83273 54.1933 2.18448 54.2535 1.71484C54.5154 -0.341319 57.4326 -0.645376 58.4019 1.33251C59.5198 3.60643 60.7411 6.9571 62.0657 11.3845C64.7611 20.3859 65.7947 29.5498 65.1665 38.8762C64.7631 44.8791 63.2819 52.1133 59.4947 56.8488C57.4717 59.3776 54.0518 60.1784 51.3875 58.1042C48.5848 55.9246 47.0374 51.4992 46.0921 47.7993C43.8462 38.9937 41.6095 30.0947 38.6773 21.4937C38.6695 21.4724 38.6551 21.4541 38.6361 21.4416C38.6171 21.4291 38.5946 21.4231 38.5719 21.4244C38.5492 21.4258 38.5276 21.4344 38.5102 21.4491C38.4929 21.4637 38.4807 21.4836 38.4756 21.5058C37.2132 27.8418 35.8012 34.1337 34.2398 40.3815C33.5414 43.1782 28.2369 65.519 22.1678 60.3892C20.8733 59.2964 20.1477 56.8398 19.8316 55.1178C18.8903 49.9699 18.2571 44.7738 17.932 39.5295C17.9304 39.4969 17.9174 39.4659 17.8951 39.442C17.8729 39.418 17.8429 39.4028 17.8105 39.3988C17.7781 39.3948 17.7453 39.4025 17.718 39.4203C17.6906 39.4382 17.6705 39.4651 17.6611 39.4964C16.6977 42.5641 13.323 53.1941 9.8579 53.9136C6.71495 54.5699 5.0923 50.4726 4.55342 48.0793C4.5447 48.0418 4.5236 48.0081 4.49355 47.9837C4.4635 47.9593 4.42627 47.9456 4.38791 47.9449C4.34955 47.9442 4.31231 47.9565 4.28224 47.9798C4.25217 48.0031 4.23103 48.0361 4.22227 48.0733C3.46363 51.0205 -0.916622 49.9879 0.173173 46.6975C0.709039 45.0748 2.07279 39.3549 3.32214 38.5571C4.95382 37.5185 6.28746 38.5782 6.71796 40.2099C7.46456 43.0177 8.29947 45.7863 9.22268 48.5158C9.22939 48.5343 9.24134 48.5505 9.25704 48.5623C9.27274 48.5742 9.29146 48.5813 9.31082 48.5826C9.33019 48.5838 9.34932 48.5793 9.36579 48.5696C9.38226 48.5599 9.39532 48.5453 9.40331 48.5279C12.2633 42.543 14.3706 35.9741 16.5773 29.616C17.2366 27.7194 19.5125 26.735 20.795 28.6376C21.1863 29.2186 21.4031 30.3385 21.4603 30.9797C22.2009 39.1141 22.6615 47.4019 24.3624 55.4038C24.3659 55.4213 24.3749 55.4373 24.388 55.4494C24.4012 55.4615 24.4178 55.4691 24.4356 55.4711C24.4533 55.4731 24.4713 55.4694 24.4868 55.4606C24.5023 55.4517 24.5146 55.4382 24.522 55.4219Z" fill="#141919"/>
<path d="M38.6712 50.298C40.7163 50.298 42.3741 48.6402 42.3741 46.5951C42.3741 44.5501 40.7163 42.8922 38.6712 42.8922C36.6262 42.8922 34.9683 44.5501 34.9683 46.5951C34.9683 48.6402 36.6262 50.298 38.6712 50.298Z" fill="#141919"/>
</svg>
