<svg version="1.2" xmlns="http://www.w3.org/2000/svg" viewBox="0 0 1534 785" width="1534" height="785">
	<title>hkex-eps_20230427_10713774_0-1-pdf-svg</title>
	<defs>
		<clipPath clipPathUnits="userSpaceOnUse" id="cp1">
			<path d="m-579.48-472.85h7615.48v10334.58h-7615.48z"/>
		</clipPath>
		<linearGradient id="g1" x1="313.8" y1="220.4" x2="944.9" y2="220.4" gradientUnits="userSpaceOnUse">
			<stop offset="0" stop-color="#f8a83e"/>
			<stop offset="1" stop-color="#f8e158"/>
		</linearGradient>
		<linearGradient id="g2" x1="234.5" y1="285.6" x2="911.6" y2="285.6" gradientUnits="userSpaceOnUse">
			<stop offset="0" stop-color="#f14e1f"/>
			<stop offset="1" stop-color="#fa9d39"/>
		</linearGradient>
		<linearGradient id="g3" x1="115.6" y1="361.7" x2="859.2" y2="361.7" gradientUnits="userSpaceOnUse">
			<stop offset="0" stop-color="#1f70b3"/>
			<stop offset="1" stop-color="#6dcde9"/>
		</linearGradient>
	</defs>
	<style>
		.s0 { fill: url(#g1) } 
		.s1 { fill: url(#g2) } 
		.s2 { fill: url(#g3) } 
		.s3 { fill: #38393b } 
	</style>
	<g id="Clip-Path: Page 1" clip-path="url(#cp1)">
		<g id="Page 1">
			<path id="Path 8" class="s0" d="m476.2 0.4c-66.5 0-122.1 32-159.9 85.1 67.2-22.4 142.6-3.2 207.9 27.5 120.2 56.2 212.2 141.9 293.5 214.8 39 35.8 79.9 73.6 129.8 116.4-47.4-89.5-169.5-301.2-326.1-397.8-51.8-31.9-101.1-46-145.2-46z"/>
			<path id="Path 9" class="s1" d="m234.5 240.9c157.3-53.8 378.5 42.2 675.9 207.2-81.2-72.9-295.4-275-459.8-322.4q-33.5-9.6-61.4-9.6c-86.9 0-137.4 62.7-154.7 124.8z"/>
			<path id="Path 10" class="s2" d="m297.2 267.1c-97.9 9.6-145.8 92.1-181.6 182.2 104.2-90.1 321.6-88.9 743.6-1.2-89.5-44.8-370.2-181.7-537.1-181.7q-12.8 0-24.9 0.7z"/>
			<path id="Path 11" fill-rule="evenodd" class="s3" d="m1269.1 526.7h51.1v46.1h-51.1zm-1010.9 257h-56.3l-74.8-184.1-68.4 184.1h-58.2l99.7-257h55zm407.3-138.8q0-23.7 19.2-40.3c33.3-24.3 92.1-14.7 127.3-10.9v33.9c0 0-69.1-11.5-88.3 1.9q-5.7 3.9-5.7 9.6c0 21.1 38.3 30.1 54.9 36.5 21.1 8.3 53.1 24.9 56.3 50.5 1.3 12.2-3.2 28.1-21.7 40.9-39.7 26.3-103.6 14.7-136.9 9v-33.9c0 0 76.1 8.9 97.9-1.3 3.8-1.9 5.7-5.7 5.7-10.2 0-23.7-55.6-33.9-76.7-42.9-16.6-7-32-24.3-32-42.8zm603.6-56.3h51.2v195.1h-51.2zm168.2 195c-53.4 0-96.5-43.6-96.5-97.5 0-53.9 43.1-97.5 96.5-97.5 53.4 0 96.6 43.6 96.6 97.5 0 53.9-43.2 97.5-96.6 97.5zm49.2-97.8c0-31.9-22-57.6-49.2-57.6-27.2 0-49.2 25.7-49.2 57.6 0 31.8 22 57.5 49.2 57.5 27.2 0 49.2-25.7 49.2-57.5zm-547.9 98.5c-53.4 0-96.6-43.6-96.6-97.6 0-53.9 43.2-97.5 96.6-97.5 53.4 0 96.5 43.6 96.5 97.5 0 54-43.1 97.6-96.5 97.6zm49.2-97.9c0-31.8-22-57.5-49.2-57.5-27.3 0-49.3 25.7-49.3 57.5 0 31.8 22 57.6 49.3 57.6 27.2 0 49.2-25.8 49.2-57.6zm260.9 0c0 53.7-43.5 97.9-96.6 97.9-53 0-96.5-44.2-96.5-97.9v-159.9h51.1v74.2c13.5-7.7 28.8-11.5 45.4-11.5 53.1 0 96.6 43.5 96.6 97.2zm-47.3 0c0-31.8-22-57.5-49.3-57.5-27.2 0-49.2 25.7-49.2 57.5 0 31.8 22 57.6 49.2 57.6 27.3 0 49.3-25.8 49.3-57.6zm-695.1 14.1c5.8 24.9 24.9 43.5 48 43.5 14.7 0 28.1-8.3 37.7-21.1h51.8c-14.7 35.8-49.3 61.4-89.5 61.4-53.1 0-96.6-44.2-96.6-97.9 0-53.7 43.5-97.2 96.6-97.2 53 0 96.5 43.5 96.5 97.2q0 7-1.3 14.1zm1.3-32.6h92.7c-7-22.4-24.9-39-46.6-39-21.1 0-39 16.6-46.1 39zm-132.3 5.7l102.9 110.7h-63.3l-81.8-88.3v88.3h-52.5v-257.8h52.5v127.9l79.2-65.2h65.9z"/>
		</g>
	</g>
</svg>