<?xml version="1.0" encoding="UTF-8" standalone="no"?>
<!-- Created with Inkscape (http://www.inkscape.org/) -->

<svg
   id="svg3355"
   version="1.1"
   inkscape:version="0.91 r13725"
   xml:space="preserve"
   width="841.76831"
   height="155.23218"
   viewBox="0 0 841.76831 155.23218"
   sodipodi:docname="GCC_WHITE_FLAT.svg"
   xmlns:inkscape="http://www.inkscape.org/namespaces/inkscape"
   xmlns:sodipodi="http://sodipodi.sourceforge.net/DTD/sodipodi-0.dtd"
   xmlns="http://www.w3.org/2000/svg"
   xmlns:svg="http://www.w3.org/2000/svg"
   xmlns:rdf="http://www.w3.org/1999/02/22-rdf-syntax-ns#"
   xmlns:cc="http://creativecommons.org/ns#"
   xmlns:dc="http://purl.org/dc/elements/1.1/"><metadata
     id="metadata3361"><rdf:RDF><cc:Work
         rdf:about=""><dc:format>image/svg+xml</dc:format><dc:type
           rdf:resource="http://purl.org/dc/dcmitype/StillImage" /></cc:Work></rdf:RDF></metadata><defs
     id="defs3359"><clipPath
       clipPathUnits="userSpaceOnUse"
       id="clipPath3371"><path
         d="M 0,0 H 595.2756 V 841.8898 H 0 Z"
         id="path3373"
         inkscape:connector-curvature="0" /></clipPath><clipPath
       clipPathUnits="userSpaceOnUse"
       id="clipPath3413"><path
         d="M 219.9634,0.1215228 H 375.1956 V 841.88972 H 219.9634 Z"
         id="path3415"
         inkscape:connector-curvature="0" /></clipPath><clipPath
       clipPathUnits="userSpaceOnUse"
       id="clipPath3425"><path
         d="M 0,0 H 595.2756 V 841.8898 H 0 Z"
         id="path3427"
         inkscape:connector-curvature="0" /></clipPath></defs><sodipodi:namedview
     pagecolor="#ffffff"
     bordercolor="#666666"
     borderopacity="1"
     objecttolerance="10"
     gridtolerance="10"
     guidetolerance="10"
     inkscape:pageopacity="0"
     inkscape:pageshadow="2"
     inkscape:window-width="1440"
     inkscape:window-height="851"
     id="namedview3357"
     showgrid="false"
     inkscape:zoom="0.87220106"
     inkscape:cx="523.8881"
     inkscape:cy="372.04724"
     inkscape:window-x="0"
     inkscape:window-y="1"
     inkscape:window-maximized="1"
     inkscape:current-layer="g3363"
     inkscape:showpageshadow="2"
     inkscape:pagecheckerboard="0"
     inkscape:deskcolor="#d1d1d1" /><g
     id="g3363"
     inkscape:groupmode="layer"
     inkscape:label="GCC_WHITE_FLAT"
     transform="matrix(1.25,0,0,-1.25,-105.29701,449.66333)"
     style="display:inline;opacity:1"><g
       id="g3488"
       transform="matrix(0,0.8,-0.8,0,757.74945,59.574191)"
       inkscape:export-xdpi="21.383556"
       inkscape:export-ydpi="21.383556"
       style="display:inline"
       inkscape:export-filename="GCC-logo-clipped.svg"><g
         id="g3365" /><g
         id="g3367"><g
           clip-path="url(#clipPath3371)"
           id="g3369"><path
             inkscape:connector-curvature="0"
             id="path3375"
             style="fill:#ffffff;fill-opacity:1;fill-rule:nonzero;stroke:none"
             d="m 226.8251,142.2769 h 3.0343 c 0,-0.9296 0.1366,-1.7327 0.4297,-2.5934 0.2844,-0.793 0.793,-1.5171 1.4395,-2.0947 0.6552,-0.6464 1.3706,-1.0874 2.3102,-1.3705 0.9396,-0.3621 1.8792,-0.5087 2.8188,-0.5087 0.9396,0 1.8003,0.1466 2.5933,0.431 0.8707,0.2931 1.5861,0.7241 2.2413,1.3004 0.5776,0.5099 1.0085,1.234 1.2917,2.0271 0.2944,0.7917 0.4409,1.6537 0.4409,2.5244 v 0.2844 h 2.9554 c 0,-0.1466 0,-0.3621 0,-0.4987 0,-1.3705 -0.2155,-2.6722 -0.5775,-3.9739 -0.3621,-1.224 -1.0073,-2.3791 -1.8003,-3.3187 -0.872,-1.0085 -1.8792,-1.7326 -3.0343,-2.2413 -1.1551,-0.4986 -2.4468,-0.7241 -3.9739,-0.7241 -1.3706,0 -2.7399,0.2255 -4.0328,0.7241 -1.3017,0.441 -2.4568,1.1551 -3.3964,2.1724 -0.9396,1.0085 -1.5848,2.1636 -2.0158,3.6031 -0.441,1.3693 -0.7241,2.7399 -0.7241,4.2571 z m 19.1931,-23.167 c 0,-1.0086 0,-1.7227 0,-2.1536 0,-0.441 0,-1.1651 0,-2.0947 l -11.1087,0.6464 c -0.1466,0 -0.2932,0 -0.431,0 -1.2328,0 -2.1724,-0.1466 -2.8188,-0.5099 -0.6552,-0.352 -1.0862,-0.8606 -1.3706,-1.5848 -0.2931,-0.6464 -0.4297,-1.4395 -0.4297,-2.3102 0,-0.5775 0.0676,-1.1551 0.2155,-1.6637 0.0676,-0.352 0.2142,-0.783 0.4297,-1.0762 0.1466,-0.2944 0.3621,-0.5099 0.5775,-0.7241 0.2945,-0.2844 0.5776,-0.5099 0.9397,-0.6464 0.362,-0.1466 0.7241,-0.2932 1.155,-0.3621 0.6465,-0.1466 1.8016,-0.2844 3.3864,-0.3621 l 4.8358,-0.2843 c 1.4483,-0.069 2.9554,-0.1466 4.6192,-0.1466 0,-1.0862 0,-1.8016 0,-2.3102 v -2.0158 l -6.6362,0.431 -5.2655,0.2142 c -1.3017,0.1478 -2.1724,0.2155 -2.8189,0.431 -0.4986,0.1466 -0.9396,0.362 -1.3706,0.5775 -0.4297,0.2944 -0.7917,0.5776 -1.0761,0.9396 -0.3621,0.5087 -0.7241,1.0085 -1.0186,1.655 -0.2831,0.6552 -0.5762,1.3693 -0.7241,2.1724 -0.2155,1.0761 -0.2831,2.1623 -0.2831,3.3174 0,1.1551 0.1466,2.2325 0.2831,3.2498 0.2155,0.8619 0.5099,1.6537 0.872,2.3779 0.4297,0.7253 0.8707,1.3029 1.3016,1.7326 0.4298,0.3621 0.8607,0.6464 1.5172,0.8619 0.6452,0.2243 1.2917,0.2932 2.0847,0.2932 0.2931,0 0.6552,0 1.0862,0 0.4309,0 1.0085,-0.0689 1.7326,-0.0689 l 1.9469,-0.1466 c 0.5775,-0.0777 1.5171,-0.0777 2.6722,-0.1466 l 3.0243,-0.1466 c 0.793,-0.0689 1.7327,-0.0689 2.6723,-0.1465 z M 227.1871,89.66878 c 1.6638,-0.21549 3.4641,-0.3533 5.5588,-0.43097 l 6.7827,-0.28439 c 2.448,-0.14658 4.6103,-0.22425 6.4896,-0.22425 0,-1.00852 0,-1.9381 0,-2.66223 0,-0.57754 0,-1.37057 0,-2.45676 -1.8003,-1.00852 -4.1794,-2.45677 -7.0659,-4.32596 -2.9667,-1.81157 -5.3445,-3.3187 -7.2926,-4.40489 l 12.8513,-0.50864 c 0.2844,-0.06891 0.783,-0.06891 1.5072,-0.06891 0,-0.86068 0,-1.51715 0,-1.94812 0,-0.14658 0,-0.79178 0,-1.94687 l -5.0501,0.36206 -8.662,0.43097 -5.119,0.14658 c 0,1.00726 0,1.80029 0,2.44674 0,0.57755 0,1.44825 0,2.60335 0.7931,0.50864 1.3706,0.86193 1.8003,1.07616 0.5776,0.36206 1.8793,1.15509 3.7585,2.45677 1.2929,0.79303 2.8777,1.80154 4.8358,3.03431 1.4383,0.86193 2.6623,1.65371 3.7484,2.31018 -1.5171,0.06891 -4.257,0.14658 -8.2998,0.28314 -1.6537,0.07893 -3.6119,0.14783 -5.8432,0.14783 0,0.93961 0,1.51716 0,1.94687 0,0.29441 0,0.93961 0,2.01703 z m 3.4641,-46.75621 c -1.0862,0.21549 -2.2413,0.36207 -3.3275,0.49988 -0.2155,1.08619 -0.2831,2.02579 -0.352,2.9654 -0.079,0.86069 -0.1466,1.58606 -0.1466,2.23126 0,1.37058 0.2155,2.67225 0.5775,3.97392 0.4297,1.224 1.0073,2.37909 1.8792,3.38635 0.7931,1.00852 1.8003,1.73264 3.0243,2.16361 1.1639,0.50864 2.4568,0.72413 3.9051,0.72413 1.5071,0 2.9553,-0.28439 4.2482,-0.86194 1.3017,-0.50864 2.3879,-1.30167 3.2486,-2.30893 0.9396,-1.01854 1.586,-2.24128 2.027,-3.61186 0.4297,-1.43823 0.6452,-2.88773 0.6452,-4.40489 0,-1.43823 -0.1465,-3.10196 -0.4986,-4.82458 -0.803,-0.07892 -1.4495,-0.07892 -1.7427,-0.14658 l -1.5071,-0.07892 c 0.2844,1.00851 0.4986,1.87922 0.5776,2.60334 0.0689,0.71536 0.1365,1.37058 0.1365,2.01578 0,0.9396 -0.1365,1.87921 -0.4297,2.81882 -0.2844,0.86194 -0.793,1.73264 -1.4395,2.37909 -0.6452,0.72413 -1.4482,1.224 -2.3878,1.58606 -0.9296,0.42972 -1.8692,0.57755 -2.8777,0.57755 -1.2328,0 -2.2413,-0.21548 -3.2498,-0.64645 -0.9396,-0.50864 -1.6638,-1.224 -2.3102,-2.24128 -0.5763,-1.00852 -0.8707,-2.31019 -0.8707,-3.81732 0,-1.37058 0.2944,-3.03431 0.8707,-4.98244 z m -3.4641,-11.91048 c 3.1709,-0.21548 6.4207,-0.43097 9.7382,-0.56878 3.3187,-0.15535 5.8431,-0.22425 7.6546,-0.22425 l 1.4383,0.0689 V 27.9778 c 0,-0.14783 0,-0.87196 0,-2.16361 -4.8346,0.43097 -11.1087,0.64646 -18.8311,0.71411 v 2.02579 c 0,0.3533 0,1.1551 0,2.448 z m 0,-17.16854 c 2.7399,-0.29316 5.8432,-0.50864 9.2395,-0.65522 3.3864,-0.21548 6.6362,-0.28439 9.5916,-0.28439 0,-0.93961 0,-1.73138 0,-2.38786 0,-0.43096 0,-1.076163 0,-2.015772 -1.6638,0.068905 -3.533,0.215484 -5.6277,0.293158 l -5.5499,0.284388 c -1.5949,0.067652 -3.1809,0.146579 -4.7657,0.215484 v -2.37909 c 0,-2.241281 0,-3.758437 0,-4.403635 0,-0.724125 0.0676,-1.439481 0.0676,-2.0947019 -0.8607,0.0776744 -1.8792,0.1465791 -2.9554,0.2154837 0,2.4555122 0,4.4825622 0,6.2051782 z m 19.1931,128.44335 h -2.9554 c 0,1.3016 -0.362,2.3778 -0.9396,3.3963 -0.6464,1.0086 -1.5171,1.8003 -2.6722,2.3102 -1.0762,0.4986 -2.3102,0.7918 -3.6018,0.7918 -1.1551,0 -2.2413,-0.2932 -3.2498,-0.7918 -1.0173,-0.441 -1.8003,-1.234 -2.3102,-2.3102 -0.5763,-1.0185 -0.7918,-2.1736 -0.7918,-3.3187 v -0.0776 h -3.0343 v 0.2154 c 0,1.4483 0.2155,2.8865 0.6552,4.2571 0.352,1.3017 1.0085,2.5257 1.9381,3.4653 0.8707,1.0072 1.8792,1.7326 3.0343,2.1724 1.1551,0.3533 2.3879,0.5675 3.7585,0.5675 1.4382,0 2.8088,-0.2142 4.1793,-0.793 1.3706,-0.4987 2.4568,-1.3005 3.3175,-2.309 0.8719,-1.0085 1.5171,-2.2312 2.027,-3.6018 0.3621,-1.224 0.5763,-2.6034 0.6452,-3.9739 z M 226.8251,324.199 h 3.0343 c 0,-0.862 0.1366,-1.7327 0.4297,-2.5257 0.2844,-0.8607 0.793,-1.5848 1.4395,-2.1624 0.6552,-0.5775 1.3706,-1.0874 2.3102,-1.3705 0.9396,-0.2932 1.8792,-0.441 2.8188,-0.441 0.9396,0 1.8003,0.1478 2.5933,0.3721 0.8707,0.2844 1.5861,0.7153 2.2413,1.2916 0.5776,0.5776 1.0085,1.224 1.2917,2.0947 0.2944,0.793 0.4409,1.5861 0.4409,2.5257 v 0.2155 h 2.9554 c 0,-0.1466 0,-0.2944 0,-0.431 0,-1.3706 -0.2155,-2.7399 -0.5775,-3.9739 -0.3621,-1.2917 -1.0073,-2.3779 -1.8003,-3.3864 -0.872,-0.9396 -1.8792,-1.7326 -3.0343,-2.1723 -1.1551,-0.4999 -2.4468,-0.7831 -3.9739,-0.7831 -1.3706,0 -2.7399,0.2155 -4.0328,0.7142 -1.3017,0.5086 -2.4568,1.2327 -3.3964,2.1636 -0.9396,1.0172 -1.5848,2.2412 -2.0158,3.6106 -0.441,1.3705 -0.7241,2.8188 -0.7241,4.2583 z m 19.1931,-23.0894 c 0,-1.0861 0,-1.8103 0,-2.1623 0,-0.5099 0,-1.1551 0,-2.0947 l -11.1087,0.6452 c -0.1466,0 -0.2932,0 -0.431,0 -1.2328,0 -2.1724,-0.2155 -2.8188,-0.5776 -0.6552,-0.2831 -1.0862,-0.8606 -1.3706,-1.5171 -0.2931,-0.7141 -0.4297,-1.5159 -0.4297,-2.3779 0,-0.5775 0.0676,-1.0861 0.2155,-1.586 0.0676,-0.4297 0.2142,-0.7918 0.4297,-1.1539 0.1466,-0.2843 0.3621,-0.5098 0.5775,-0.7253 0.2945,-0.2832 0.5776,-0.4297 0.9397,-0.6452 0.362,-0.1466 0.7241,-0.2944 1.155,-0.3621 0.6465,-0.1466 1.8016,-0.2155 3.3864,-0.3621 l 4.8358,-0.2843 c 1.4483,-0.0777 2.9554,-0.0777 4.6192,-0.1466 0,-1.0085 0,-1.8103 0,-2.3102 v -2.0258 l -6.6362,0.431 -5.2655,0.2931 c -1.3017,0.0789 -2.1724,0.2155 -2.8189,0.3621 -0.4986,0.1466 -0.9396,0.362 -1.3706,0.6464 -0.4297,0.2243 -0.7917,0.5776 -1.0761,0.9396 -0.3621,0.431 -0.7241,1.0073 -1.0186,1.5949 -0.2831,0.7153 -0.5762,1.4395 -0.7241,2.2312 -0.2155,1.0085 -0.2831,2.1636 -0.2831,3.2498 0,1.224 0.1466,2.3102 0.2831,3.3187 0.2155,0.8707 0.5099,1.6537 0.872,2.3779 0.4297,0.7241 0.8707,1.3016 1.3016,1.7326 0.4298,0.2831 0.8607,0.5775 1.5172,0.793 0.6452,0.2155 1.2917,0.3621 2.0847,0.3621 0.2931,0 0.6552,0 1.0862,-0.0689 0.4309,0 1.0085,0 1.7326,-0.0777 l 1.9469,-0.1378 c 0.5775,0 1.5171,-0.0777 2.6722,-0.1466 l 3.0243,-0.1466 c 0.793,0 1.7327,-0.0689 2.6723,-0.0689 z m -18.8311,-29.5187 c 1.6638,-0.1478 3.4641,-0.2844 5.5588,-0.3621 l 6.7827,-0.3533 c 2.448,-0.0776 4.6103,-0.1466 6.4896,-0.1466 0,-1.0861 0,-2.0257 0,-2.7399 0,-0.5775 0,-1.3705 0,-2.4567 -1.8003,-1.0085 -4.1794,-2.4568 -7.0659,-4.2583 -2.9667,-1.8792 -5.3445,-3.3175 -7.2926,-4.4726 l 12.8513,-0.5086 c 0.2844,0 0.783,0 1.5072,0 0,-0.8619 0,-1.5172 0,-1.9481 0,-0.2155 0,-0.8607 0,-1.9482 l -5.0501,0.2945 -8.662,0.4297 -5.119,0.2155 c 0,0.9396 0,1.7326 0,2.4467 0,0.5099 0,1.3806 0,2.6046 0.7931,0.4297 1.3706,0.7918 1.8003,1.0073 0.5776,0.4409 1.8793,1.234 3.7585,2.4567 1.2929,0.7931 2.8777,1.8016 4.8358,3.0343 1.4383,0.862 2.6623,1.6537 3.7484,2.3102 -1.5171,0.0689 -4.257,0.2155 -8.2998,0.3521 -1.6537,0.0789 -3.6119,0.0789 -5.8432,0.1465 0,0.872 0,1.5172 0,1.8793 0,0.2843 0,1.0085 0,2.017 z m 0,-35.2842 4.0416,-0.2944 5.991,-0.2832 5.9107,-0.2154 v 2.7399 l -0.1465,3.1721 c 1.3705,-0.0689 2.3878,-0.1378 3.0343,-0.1378 0,-2.6723 0,-5.4122 0,-8.2999 v -7.6534 c -1.2917,0.0776 -2.3102,0.1465 -3.0343,0.1465 0.1465,1.6638 0.1465,3.2498 0.1465,4.767 v 1.0761 l -2.5244,0.1466 -9.7393,0.431 h -1.5849 c -0.7241,0.0777 -1.3705,0.0777 -2.0947,0.0777 v 2.0859 c 0,0.2243 0,0.9396 0,2.2413 z m 0,-25.1151 c 1.0086,-0.0689 2.3102,-0.2155 3.974,-0.3533 1.6537,-0.0777 2.9554,-0.1566 3.9639,-0.1566 l 10.8932,6.2152 c 0,-1.0862 0,-1.8793 0,-2.4568 0,-0.5763 0,-1.3017 0,-2.2313 -0.9396,-0.4397 -2.1624,-1.0172 -3.6019,-1.8103 -1.4482,-0.793 -2.8188,-1.5171 -4.0415,-2.0157 l 6.6349,-4.1218 c 0.2154,-0.1366 0.5775,-0.352 1.0085,-0.6452 0,-0.8619 0,-1.6637 0,-2.3791 0,-0.3621 0,-1.0862 0,-2.2413 l -11.1776,7.5758 -3.543,0.1466 c -1.0085,0.0689 -2.3778,0.1478 -4.1105,0.1478 0,1.0073 0,1.7314 0,2.1624 0,0.4309 0,1.155 0,2.1636 z m 3.4641,-46.7562 c -1.0862,0.2154 -2.2413,0.362 -3.3275,0.4998 -0.2155,1.0862 -0.2831,2.0258 -0.352,2.8865 -0.079,0.9396 -0.1466,1.665 -0.1466,2.3102 0,1.3706 0.2155,2.6722 0.5775,3.9739 0.4297,1.224 1.0073,2.3791 1.8792,3.3864 0.7931,1.0085 1.8003,1.7326 3.0243,2.1636 1.1639,0.5086 2.4568,0.7241 3.9051,0.7241 1.5071,0 2.9553,-0.2844 4.2482,-0.8619 1.3017,-0.5087 2.3879,-1.3017 3.2486,-2.309 0.9396,-1.0185 1.586,-2.2413 2.027,-3.6118 0.4297,-1.4383 0.6452,-2.8878 0.6452,-4.4049 0,-1.4382 -0.1465,-3.102 -0.4986,-4.9035 -0.803,0 -1.4495,0 -1.7427,-0.0777 l -1.5071,-0.0689 c 0.2844,1.0085 0.4986,1.8792 0.5776,2.6033 0.0689,0.7154 0.1365,1.3706 0.1365,1.9482 0,1.0072 -0.1365,1.9468 -0.4297,2.8777 -0.2844,0.8707 -0.793,1.6637 -1.4395,2.3878 -0.6452,0.7242 -1.4482,1.224 -2.3878,1.5861 -0.9296,0.4297 -1.8692,0.5775 -2.8777,0.5775 -1.2328,0 -2.2413,-0.2154 -3.2498,-0.6464 -0.9396,-0.5087 -1.6638,-1.2328 -2.3102,-2.2413 -0.5763,-1.0085 -0.8707,-2.3102 -0.8707,-3.8173 0,-1.3806 0.2944,-3.0343 0.8707,-4.9824 z m 0,181.9221 c -1.0862,0.2154 -2.2413,0.4309 -3.3275,0.5675 -0.2155,1.0185 -0.2831,2.027 -0.352,2.8977 -0.079,0.8607 -0.1466,1.5861 -0.1466,2.2313 0,1.3706 0.2155,2.7412 0.5775,3.9639 0.4297,1.3017 1.0073,2.3891 1.8792,3.3964 0.7931,1.0085 1.8003,1.7326 3.0243,2.2312 1.1639,0.441 2.4568,0.6565 3.9051,0.6565 1.5071,0 2.9553,-0.2932 4.2482,-0.793 1.3017,-0.5776 2.3879,-1.3706 3.2486,-2.3879 0.9396,-1.0085 1.586,-2.2312 2.027,-3.6018 0.4297,-1.3706 0.6452,-2.8189 0.6452,-4.326 0,-1.5272 -0.1465,-3.1809 -0.4986,-4.9135 -0.803,-0.0689 -1.4495,-0.0689 -1.7427,-0.0689 l -1.5071,-0.1466 c 0.2844,1.0862 0.4986,1.9481 0.5776,2.5933 0.0689,0.7241 0.1365,1.3806 0.1365,2.0258 0,0.9396 -0.1365,1.9481 -0.4297,2.8188 -0.2844,0.9309 -0.793,1.7227 -1.4395,2.448 -0.6452,0.6452 -1.4482,1.2328 -2.3878,1.5849 -0.9296,0.362 -1.8692,0.5775 -2.8777,0.5775 -1.2328,0 -2.2413,-0.2831 -3.2498,-0.7141 -0.9396,-0.441 -1.6638,-1.234 -2.3102,-2.2413 -0.5763,-1.0085 -0.8707,-2.2413 -0.8707,-3.7484 0,-1.4495 0.2944,-3.1132 0.8707,-5.0513 z m 15.729,-22.1585 h -2.9554 c 0,1.3016 -0.362,2.4567 -0.9396,3.3863 -0.6464,1.0862 -1.5171,1.8103 -2.6722,2.3879 -1.0762,0.5086 -2.3102,0.7241 -3.6018,0.7241 -1.1551,0 -2.2413,-0.2155 -3.2498,-0.7241 -1.0173,-0.5087 -1.8003,-1.3017 -2.3102,-2.3102 -0.5763,-1.0862 -0.7918,-2.1624 -0.7918,-3.3951 v -0.0689 h -3.0343 v 0.2155 c 0,1.5171 0.2155,2.8864 0.6552,4.257 0.352,1.3706 1.0085,2.5257 1.9381,3.5329 0.8707,0.9397 1.8792,1.665 3.0343,2.0947 1.1551,0.431 2.3879,0.6465 3.7585,0.6465 1.4382,0 2.8088,-0.2844 4.1793,-0.783 1.3706,-0.5876 2.4568,-1.3017 3.3175,-2.3879 0.8719,-1.0085 1.5171,-2.2325 2.027,-3.6018 0.3621,-1.234 0.5763,-2.5257 0.6452,-3.9739" /><path
             inkscape:connector-curvature="0"
             id="path3377"
             style="fill:#ffffff;fill-opacity:1;fill-rule:nonzero;stroke:none"
             d="m 306.3498,654.4816 c -3.9689,0.0777 -7.8689,0.2155 -11.834,0.2932 -3.9727,0.0689 -7.8689,0.1415 -11.7639,0.357 -1.1551,0.0739 -2.3791,0.2205 -3.6119,0.3621 -1.1551,0.1428 -2.3778,0.357 -3.4653,0.793 -6.6349,2.2363 -11.1763,6.2791 -13.5654,11.9806 -0.9396,2.3829 -1.5848,4.9086 -2.0158,7.433 -0.431,2.5933 -0.6464,5.1979 -0.7241,7.7223 -0.2155,8.5843 0.793,17.2462 2.8188,26.0447 2.3779,0.079 5.0501,0.2205 7.7913,0.5099 -1.0086,-3.5342 -1.9482,-7.146 -2.6723,-10.7566 -0.7154,-3.6019 -1.1551,-7.3603 -1.3017,-11.11 -0.0689,-2.9553 0.1466,-5.9208 0.8018,-8.8035 0.5676,-2.9604 1.7226,-5.6276 3.5342,-8.1583 2.2413,-2.8088 5.0501,-4.6141 8.583,-5.4071 3.4653,-0.7191 6.8517,-1.229 10.1791,-1.4433 2.5257,-0.1478 5.0501,-0.2154 7.6447,-0.2894 2.5244,-0.0726 5.0551,-0.1415 7.6534,-0.2881 -2.4567,1.3017 -4.5514,2.5933 -6.4206,3.8261 -1.8793,1.2966 -3.6119,3.0293 -5.1967,5.2655 -2.6723,3.969 -4.1894,8.7309 -4.4738,14.2119 -0.2243,3.9013 0.1378,7.6547 1.1451,11.4031 0.9396,3.6796 2.8188,7.0033 5.56,9.8847 3.0343,3.0343 6.7138,5.129 10.9032,6.2102 4.257,1.0825 8.4364,1.5122 12.6258,1.229 4.0428,-0.2931 7.9378,-1.1551 11.7652,-2.5256 3.8223,-1.3694 7.2863,-3.4641 10.4622,-6.1363 3.8223,-3.3187 6.7101,-7.3603 8.6569,-11.9807 1.298,-3.0293 2.2376,-6.2051 2.7462,-9.4549 0.4986,-3.2436 0.793,-6.5623 0.793,-9.8121 0,-3.6055 -0.2154,-7.1397 -0.5775,-10.7516 -0.3621,-3.5329 -0.872,-7.0709 -1.4483,-10.6088 -1.3705,0 -2.7411,-0.0689 -4.1117,-0.1428 -1.3693,-0.0727 -2.8138,-0.2193 -4.1844,-0.2882 1.0824,3.895 1.9481,7.9379 2.5996,12.0483 0.7241,4.0429 0.9396,8.1583 0.7241,12.1949 -0.2205,4.4788 -1.0862,8.5154 -2.6033,12.1961 -1.5861,3.6795 -4.1117,6.9293 -7.6447,9.6016 -5.4911,4.1105 -12.0533,6.2052 -19.5551,6.1312 -6.1375,-0.1415 -11.1876,-1.8053 -15.0826,-4.9761 -3.8274,-3.2498 -5.9221,-8.0118 -6.1376,-14.3585 -0.0676,-6.0686 1.7327,-11.1187 5.4811,-15.0826 3.8273,-4.0428 8.5154,-6.5673 14.2896,-7.7223 v -9.9637 c -1.4383,0.1466 -2.8088,0.2193 -4.1782,0.2932 -1.3755,0.0689 -2.8188,0.0689 -4.1894,0.0689" /><path
             inkscape:connector-curvature="0"
             id="path3379"
             style="fill:#ffffff;fill-opacity:1;fill-rule:nonzero;stroke:none"
             d="m 288.3795,24.21936 h 6.2052 c -0.1466,-1.00851 -0.2155,-2.08467 -0.2155,-3.23977 0,-4.40489 1.1551,-9.88594 3.3187,-16.237696 -1.8792,0.362063 -4.326,0.79303 -7.2926,1.222745 -0.783,3.318699 -1.3693,6.205181 -1.6537,8.661941 -0.2932,2.37909 -0.431,4.83586 -0.431,7.21369 0,0.79303 0,1.58606 0.0689,2.37909 z m 29.6566,0 h 4.336 V 8.783466 c 2.1623,0 3.895,0.137809 5.05,0.35204 1.224,0.294411 2.5257,0.725378 3.8224,1.370574 1.2966,0.65648 2.3828,1.59609 3.3224,2.67225 0.9346,1.15509 1.7327,2.45677 2.1636,4.04283 0.5776,1.5848 0.7931,3.31744 0.7931,5.12776 0,0.64645 0,1.22399 -0.0689,1.87044 h 5.6965 c 0,-0.64645 0,-1.22399 0,-1.87044 0,-3.18089 -0.431,-6.13628 -1.3706,-9.02401 -0.8657,-2.88648 -2.3102,-5.265569 -4.1844,-7.144788 -1.8742,-1.948123 -4.1155,-3.386351 -6.9293,-4.403634 -2.7411,-1.0774188 -5.7015,-1.5860606 -8.9513,-1.5860606 -1.2917,0 -2.4468,0.1465791 -3.6795,0.3620628 z m 25.1151,0 h -5.6965 c -0.1466,1.30168 -0.3621,2.53444 -0.7981,3.75844 -0.5036,1.80029 -1.2966,3.38635 -2.2362,4.68802 -1.0086,1.37058 -2.0948,2.52442 -3.3914,3.46403 -1.2967,1.00851 -2.5983,1.73264 -3.7534,2.16361 -1.224,0.50864 -2.8878,0.93961 -4.9035,1.37057 V 24.21936 h -4.336 v 15.87439 c -1.8692,0.14783 -3.3187,0.2255 -4.326,0.2255 -3.6118,0 -6.9982,-0.80305 -10.0325,-2.31018 -3.0243,-1.51716 -5.3345,-3.75844 -6.9293,-6.71382 -1.1551,-2.16361 -1.8692,-4.47254 -2.1636,-7.07589 h -6.2052 c 0.1466,3.39513 0.6465,6.49834 1.5172,9.30715 1.0085,3.46527 2.8088,6.35301 5.4121,8.80852 2.5257,2.45676 5.4811,4.25831 8.7998,5.33447 3.3224,1.08744 6.8604,1.59609 10.5411,1.59609 5.119,0 9.9536,-1.01854 14.3585,-2.96666 4.4036,-1.94687 7.8689,-4.90351 10.3946,-8.86741 2.2312,-3.54295 3.459,-7.93782 3.7484,-13.21216 z M 288.3795,285.5184 h 6.2052 c -0.1466,-1.0085 -0.2155,-2.0947 -0.2155,-3.1709 0,-4.4738 1.1551,-9.8859 3.3187,-16.3066 -1.8792,0.431 -4.326,0.8607 -7.2926,1.224 -0.783,3.3175 -1.3693,6.2052 -1.6537,8.662 -0.2932,2.4467 -0.431,4.9035 -0.431,7.2813 0,0.8031 0,1.5861 0.0689,2.3102 z m 29.6566,0 h 4.336 v -15.4447 c 2.1623,0.0777 3.895,0.2155 5.05,0.4398 1.224,0.2154 2.5257,0.6464 3.8224,1.3705 1.2966,0.6465 2.3828,1.5172 3.3224,2.5934 0.9346,1.1551 1.7327,2.5256 2.1636,4.1117 0.5776,1.5171 0.7931,3.2485 0.7931,5.1278 0,0.5775 0,1.224 -0.0689,1.8015 h 5.6965 c 0,-0.5775 0,-1.224 0,-1.8015 0,-3.1709 -0.431,-6.2052 -1.3706,-9.0917 -0.8657,-2.8188 -2.3102,-5.1979 -4.1844,-7.146 -1.8742,-1.8793 -4.1155,-3.3964 -6.9293,-4.4037 -2.7411,-1.0085 -5.7015,-1.5171 -8.9513,-1.5171 -1.2917,0 -2.4468,0.0776 -3.6795,0.2931 z m -28.5804,-32.6909 c 19.9285,-1.2916 35.8717,-1.8692 47.7785,-1.8692 h 4.7619 c -0.0689,-1.7326 -0.0689,-3.1809 -0.0689,-4.336 0,-1.2916 0,-2.7411 0.0689,-4.3948 l -8.5843,0.4309 c 2.0897,-1.3016 3.7497,-2.4567 4.8359,-3.3963 1.0762,-1.0085 1.9469,-2.0947 2.6672,-3.3864 0.7191,-1.234 1.2278,-2.6033 1.6588,-4.1894 0.4309,-1.586 0.5775,-3.2498 0.5775,-4.9035 0,-1.4482 -0.1466,-2.8877 -0.5049,-4.336 -2.3089,0 -4.8346,-0.1365 -7.6484,-0.352 0.5775,2.1623 0.8657,4.0328 0.8657,5.7742 0,2.017 -0.3621,3.8173 -1.0123,5.481 -0.6464,1.655 -1.7326,3.1033 -3.1032,4.3949 -1.2967,1.3017 -2.9554,2.3102 -4.8346,3.1809 -1.5861,0.7241 -3.5329,1.224 -5.912,1.5861 -2.4568,0.362 -6.8604,0.6452 -13.2811,0.8606 -4.6204,0.1466 -9.6028,0.2255 -14.7995,0.2255 h -3.4652 c 0.0789,1.8692 0.0789,3.3175 0.0789,4.4726 0,1.0774 0,2.5946 -0.0789,4.7569 z m 0.9396,-34.8532 3.8273,0.2931 c 0.441,0 1.7327,0.1466 3.895,0.431 -2.3089,-5.3445 -3.454,-10.248 -3.454,-14.7205 0,-2.3791 0.3521,-4.4049 0.9296,-5.9897 0.6552,-1.6638 1.5948,-2.8878 2.8188,-3.6808 1.2228,-0.793 2.4568,-1.2227 3.8274,-1.2227 0.7191,0 1.4382,0.1365 2.1623,0.352 0.7191,0.2255 1.3706,0.5876 2.0947,1.0173 0.6465,0.431 1.4382,1.0774 2.2313,1.9481 0.793,0.9296 2.3102,2.7412 4.5514,5.55 2.2313,2.7499 4.0379,4.9135 5.2656,6.2828 1.3017,1.4395 2.5933,2.6723 3.8963,3.6808 1.3693,1.0761 2.671,1.8003 4.0415,2.3102 1.3706,0.4297 2.6723,0.7241 4.1105,0.7241 2.1686,0 4.336,-0.7241 6.4207,-2.0947 2.0947,-1.4483 3.6118,-3.4653 4.6203,-6.0686 1.0123,-2.6623 1.5172,-5.7742 1.5172,-9.3761 0,-3.8962 -0.431,-8.2999 -1.3706,-13.0568 -2.6722,-0.1466 -5.1966,-0.2931 -7.4342,-0.5086 1.5911,3.8261 2.3841,7.6534 2.3841,11.4707 0,2.0158 -0.2894,3.895 -0.793,5.6277 -0.5086,1.7326 -1.3706,3.0343 -2.3828,3.8273 -1.0825,0.8607 -2.3102,1.2227 -3.5392,1.2227 -0.8607,0 -1.6537,-0.1365 -2.3779,-0.362 -0.793,-0.2832 -1.586,-0.783 -2.5256,-1.5072 -0.8657,-0.7241 -1.7314,-1.586 -2.5984,-2.6033 -0.8657,-1.0085 -2.4517,-2.9554 -4.8346,-5.9897 -2.3841,-2.9566 -4.1844,-4.9724 -5.3395,-6.1275 -1.0862,-1.0862 -2.3101,-2.0258 -3.4652,-2.8188 -1.2228,-0.7931 -2.4568,-1.4383 -3.6796,-1.7327 -1.155,-0.4309 -2.379,-0.5775 -3.6118,-0.5775 -2.4467,0 -4.688,0.7254 -6.7827,2.1736 -2.0158,1.4382 -3.6795,3.5229 -4.757,6.4207 -1.1551,2.8088 -1.7326,5.9897 -1.7326,9.5226 0,1.5172 0.0689,3.2398 0.2844,5.2656 0.2155,1.9481 0.431,3.6807 0.6464,5.0513 0.2932,1.4483 0.6553,3.1809 1.1539,5.2656 z m -0.9396,-44.8757 22.5218,-1.303 30.8116,-1.2327 17.4655,-0.2832 -0.0727,-4.7669 c 0,-1.1551 0,-2.6723 0.0727,-4.6204 l -18.043,1.1651 -10.679,0.431 c 1.4445,-0.872 2.6723,-1.5172 3.5342,-2.1736 0.8707,-0.5676 1.7314,-1.3694 2.6033,-2.309 0.9397,-0.9308 1.6538,-1.9381 2.3102,-3.0255 0.5763,-1.0073 1.1539,-2.1624 1.5848,-3.464 0.5037,-1.224 0.862,-2.8088 1.224,-4.6204 0.2932,-1.7314 0.4348,-3.6106 0.4348,-5.6276 0,-2.9554 -0.3621,-5.6966 -1.0123,-8.4465 -0.6465,-2.6723 -1.7326,-4.9824 -3.2448,-6.8516 -1.5121,-1.9469 -3.3225,-3.2498 -5.4121,-3.9639 -2.1687,-0.7242 -4.2583,-1.0862 -6.4946,-1.0862 -0.8657,0 -1.9481,0.0689 -3.3914,0.0689 -2.1673,0.1466 -4.6204,0.2931 -7.5018,0.4309 l -19.1255,0.8708 c -2.0947,0.1465 -4.6191,0.1465 -7.5857,0.2154 0.0789,2.0258 0.0789,3.533 0.0789,4.6192 0,1.155 0,2.8088 -0.0789,4.9035 3.6807,-0.3521 9.6015,-0.7931 17.6183,-1.2917 8.0067,-0.5086 13.5654,-0.803 16.6686,-0.803 2.8088,0 5.0501,0.5099 6.9243,1.5171 1.8053,1.0085 3.1759,2.6723 4.1155,4.9824 1.0085,2.3102 1.5172,4.9136 1.5172,7.7224 0,2.5933 -0.436,5.0501 -1.2328,7.2914 -0.7204,2.017 -1.7326,3.7484 -3.0243,5.1878 -1.3756,1.4483 -2.9616,2.6034 -4.8358,3.4641 -2.0947,0.9396 -4.1155,1.586 -6.2052,1.9581 -3.2498,0.5675 -7.8,1.0085 -13.6444,1.224 -3.5329,0.1466 -9.4537,0.3621 -17.9014,0.6452 0.0789,1.8792 0.0789,3.3187 0.0789,4.326 0,0.8719 0,2.5357 -0.0789,4.8459 z m 63.8746,-66.899 c 3.2448,-0.1465 5.6965,-0.2154 7.3603,-0.2154 -0.079,-1.8793 -0.1466,-3.543 -0.1466,-4.9812 0,-1.87925 0.0676,-3.53421 0.1466,-4.98246 -1.0862,0.0689 -3.538,0.14657 -7.3603,0.29315 0,1.87045 0,3.45526 0,4.83581 0,1.3706 0,3.0243 0,5.0501 z m -63.8746,2.3102 13.0668,-0.8707 22.2963,-1.0085 17.1773,-0.431 -0.0689,-4.7669 0.0689,-4.68804 c -5.4121,0.43097 -11.041,0.79303 -16.9568,1.08619 -5.917,0.28439 -12.3377,0.56752 -19.3359,0.71535 -7.0082,0.21549 -12.4104,0.29316 -16.2477,0.29316 0.0789,2.16364 0.0789,3.74844 0.0789,4.68804 0,0.8619 0,2.5257 -0.0789,4.9824 z m 0,-23.52905 c 19.9285,-1.22399 35.8717,-1.87044 47.7785,-1.87044 l 4.7619,0.0689 c -0.0689,-1.73264 -0.0689,-3.18089 -0.0689,-4.32596 0,-1.30167 0,-2.81883 0.0689,-4.40489 l -8.5843,0.43097 c 2.0897,-1.30167 3.7497,-2.45676 4.8359,-3.46528 1.0762,-0.93961 1.9469,-2.09345 2.6672,-3.31745 0.7191,-1.22399 1.2278,-2.67224 1.6588,-4.2583 0.4309,-1.51591 0.5775,-3.17964 0.5775,-4.90351 0,-1.44825 -0.1466,-2.88648 -0.5049,-4.26708 -2.3089,-0.06765 -4.8346,-0.13656 -7.6484,-0.35204 0.5775,2.0947 0.8657,4.04283 0.8657,5.69654 0,2.0947 -0.3621,3.89499 -1.0123,5.55873 -0.6464,1.58606 -1.7326,3.10321 -3.1032,4.40488 -1.2967,1.224 -2.9554,2.31019 -4.8346,3.17087 -1.5861,0.64645 -3.5329,1.224 -5.912,1.58606 -2.4568,0.36206 -6.8604,0.64645 -13.2811,0.87071 -4.6204,0.14657 -9.6028,0.21548 -14.7995,0.21548 h -3.4652 c 0.0789,1.80029 0.0789,3.3187 0.0789,4.47254 0,1.00851 0,2.60459 -0.0789,4.68927 z m 53.6955,200.53765 h -5.6965 c -0.1466,1.3017 -0.3621,2.6033 -0.7981,3.7584 -0.5036,1.8003 -1.2966,3.3864 -2.2362,4.757 -1.0086,1.3693 -2.0948,2.5244 -3.3914,3.464 -1.2967,0.9396 -2.5983,1.6637 -3.7534,2.0947 -1.224,0.5086 -2.8878,0.9396 -4.9035,1.3706 v -15.4447 h -4.336 v 15.8756 c -1.8692,0.1466 -3.3187,0.2155 -4.326,0.2155 -3.6118,0 -6.9982,-0.793 -10.0325,-2.3102 -3.0243,-1.5071 -5.3345,-3.7484 -6.9293,-6.705 -1.1551,-2.0947 -1.8692,-4.4726 -2.1636,-7.0759 h -6.2052 c 0.1466,3.3964 0.6465,6.4983 1.5172,9.3084 1.0085,3.464 2.8088,6.4294 5.4121,8.8762 2.5257,2.4567 5.4811,4.1894 8.7998,5.2668 3.3224,1.0862 6.8604,1.5848 10.5411,1.5848 5.119,0 9.9536,-0.9296 14.3585,-2.9554 4.4036,-1.9481 7.8689,-4.9035 10.3946,-8.8674 2.2312,-3.5429 3.459,-7.9478 3.7484,-13.2134 z m -54.7717,132.7104 h 6.2052 c -0.1466,-1.0085 -0.2155,-2.0947 -0.2155,-3.1822 0,-4.4725 1.1551,-9.8846 3.3187,-16.3053 -1.8792,0.431 -4.326,0.793 -7.2926,1.2328 -0.783,3.3086 -1.3693,6.2051 -1.6537,8.6519 -0.2932,2.3891 -0.431,4.8358 -0.431,7.2926 0,0.793 0,1.5172 0.0689,2.3102 z m 29.6566,0 h 4.336 v -15.4459 c 2.1623,0 3.895,0.1478 5.05,0.4309 1.224,0.2155 2.5257,0.6565 3.8224,1.3017 1.2966,0.6465 2.3828,1.5861 3.3224,2.6723 0.9346,1.155 1.7327,2.5256 2.1636,4.0428 0.5776,1.5848 0.7931,3.3174 0.7931,5.119 0,0.6452 0,1.3016 -0.0689,1.8792 h 5.6965 c 0,-0.5776 0,-1.234 0,-1.8792 0,-3.1032 -0.431,-6.1376 -1.3706,-9.0153 -0.8657,-2.8965 -2.3102,-5.2756 -4.1844,-7.1448 -1.8742,-1.8792 -4.1155,-3.3963 -6.9293,-4.4048 -2.7411,-1.0862 -5.7015,-1.5848 -8.9513,-1.5848 -1.2917,0 -2.4468,0.1365 -3.6795,0.352 z m -27.6408,-30.4496 3.8273,0.2831 c 0.441,0 1.7327,0.1479 3.895,0.431 -2.3089,-5.3345 -3.454,-10.248 -3.454,-14.7206 0,-2.3778 0.3521,-4.3259 0.9296,-5.9896 0.6552,-1.5861 1.5948,-2.8089 2.8188,-3.6019 1.2228,-0.8707 2.4568,-1.2327 3.8274,-1.2327 0.7191,0 1.4382,0.0676 2.1623,0.2931 0.7191,0.2155 1.3706,0.5776 2.0947,1.0085 0.6465,0.5087 1.4382,1.1539 2.2313,2.0158 0.793,0.8707 2.3102,2.7399 4.5514,5.4911 2.2313,2.8088 4.0379,4.9035 5.2656,6.3517 1.3017,1.4395 2.5933,2.6623 3.8963,3.6808 1.3693,1.0073 2.671,1.8003 4.0415,2.2313 1.3706,0.5086 2.6723,0.7241 4.1105,0.7241 2.1686,0 4.336,-0.6552 6.4207,-2.0947 2.0947,-1.3706 3.6118,-3.3864 4.6203,-6.0586 1.0123,-2.6723 1.5172,-5.7066 1.5172,-9.3084 0,-3.9727 -0.431,-8.3776 -1.3706,-13.1345 -2.6722,-0.1466 -5.1966,-0.2932 -7.4342,-0.5086 1.5911,3.895 2.3841,7.7223 2.3841,11.4707 0,2.0258 -0.2894,3.9739 -0.793,5.7066 -0.5086,1.7326 -1.3706,3.0343 -2.3828,3.8261 -1.0825,0.793 -2.3102,1.224 -3.5392,1.224 -0.8607,0 -1.6537,-0.1466 -2.3779,-0.431 -0.793,-0.2932 -1.586,-0.793 -2.5256,-1.5172 -0.8657,-0.6452 -1.7314,-1.5171 -2.5984,-2.5244 -0.8657,-1.0185 -2.4517,-3.0343 -4.8346,-5.9909 -2.3841,-3.0331 -4.1844,-5.0501 -5.3395,-6.1363 -1.0862,-1.1551 -2.3101,-2.0847 -3.4652,-2.8877 -1.2228,-0.7918 -2.4568,-1.3694 -3.6796,-1.7314 -1.155,-0.3633 -2.379,-0.5776 -3.6118,-0.5776 -2.4467,0 -4.688,0.8018 -6.7827,2.1724 -2.0158,1.4382 -3.6795,3.6018 -4.757,6.4207 -1.1551,2.8088 -1.7326,6.0586 -1.7326,9.5238 0,1.5159 0.0689,3.2486 0.2844,5.2656 0.2155,2.0258 0.431,3.6795 0.6464,5.1278 0.2932,1.3705 0.6553,3.1032 1.1539,5.1979 z m 5.922,-71.0871 c -1.7326,0.3621 -3.9639,0.7918 -6.7827,1.2228 -0.5775,2.3102 -0.8619,4.1894 -1.0085,5.5599 -0.1466,1.4483 -0.2155,2.7399 -0.2155,3.974 0,3.1019 0.3621,5.5587 1.1451,7.4279 0.803,1.8792 2.027,3.3187 3.7584,4.336 1.665,1.0085 4.0428,1.5071 6.9982,1.5071 0.3621,0 1.0135,0 2.0271,-0.0676 0.9346,0 4.3259,-0.2155 10.1001,-0.4999 l 23.162,-1.2328 v 6.8516 c 1.5122,-0.1378 3.5392,-0.2154 6.2791,-0.3532 v -7.007 c 1.9481,-0.2155 5.1967,-0.3533 9.886,-0.5688 0.6502,-3.2485 1.2227,-5.9897 1.8053,-8.231 -5.124,0.2844 -9.019,0.3621 -11.6913,0.431 v -14.4274 c -2.1636,0.2155 -4.257,0.2844 -6.2791,0.3621 v 14.2808 l -29.1517,1.4482 -2.2412,0.0689 c -2.5257,0 -4.3949,-0.2844 -5.6966,-0.8619 -1.224,-0.5776 -2.1636,-1.4483 -2.6722,-2.6034 -0.5776,-1.155 -0.8607,-2.3101 -0.8607,-3.5329 0,-0.8719 0.0676,-1.8015 0.2142,-2.8088 0.1378,-1.0185 0.4999,-2.8188 1.224,-5.2756 z m 46.8339,101.5367 h -5.6965 c -0.1466,1.3017 -0.3621,2.4555 -0.7981,3.6795 -0.5036,1.8015 -1.2966,3.3863 -2.2362,4.7569 -1.0086,1.3017 -2.0948,2.5257 -3.3914,3.4653 -1.2967,0.9396 -2.5983,1.6637 -3.7534,2.0935 -1.224,0.5098 -2.8878,0.9396 -4.9035,1.3705 v -15.3657 h -4.336 v 15.7967 c -1.8692,0.1466 -3.3187,0.2205 -4.326,0.2205 -3.6118,0 -6.9982,-0.798 -10.0325,-2.3102 -3.0243,-1.5121 -5.3345,-3.7534 -6.9293,-6.7101 -1.1551,-2.1623 -1.8692,-4.4725 -2.1636,-6.9969 h -6.2052 c 0.1466,3.3174 0.6465,6.4207 1.5172,9.2345 1.0085,3.459 2.8088,6.4256 5.4121,8.8724 2.5257,2.4567 5.4811,4.1881 8.7998,5.2706 3.3224,1.0811 6.8604,1.5898 10.5411,1.5898 5.119,0 9.9536,-1.0123 14.3585,-2.9604 4.4036,-1.9531 7.8689,-4.9085 10.3946,-8.8774 2.2312,-3.538 3.459,-7.9328 3.7484,-13.1295 z m -54.8406,173.9793 h 6.4207 c 0.0689,-2.3841 0.4998,-4.6154 1.3016,-6.7828 0.862,-2.3101 2.3791,-4.3309 4.3949,-6.0636 2.0258,-1.7326 4.5515,-3.0293 7.5068,-3.8223 2.9617,-0.8657 6.0637,-1.2967 9.3084,-1.2967 3.0344,0 5.8482,0.431 8.5893,1.2967 2.5984,0.793 4.7607,2.0897 6.3468,3.8223 1.5948,1.6638 2.7499,3.6119 3.3963,5.7742 0.6465,2.1636 1.0086,4.326 1.0086,6.5673 0,0.1466 0,0.2844 0,0.5049 h 6.5672 c 0,-0.2894 0,-0.5049 0,-0.7204 0,-3.6106 -0.5049,-7.0759 -1.5172,-10.3933 -1.0774,-3.2498 -2.6672,-6.1325 -4.9774,-8.5154 -2.2362,-2.3791 -5.0501,-4.2583 -8.5153,-5.481 -3.3914,-1.2291 -7.0033,-1.8793 -10.8243,-1.8793 -4.1155,0 -8.0118,0.7242 -11.8341,2.0208 -3.7534,1.2967 -6.9243,3.1759 -9.5276,5.6327 -2.6623,2.3778 -4.6204,5.3344 -5.8432,8.7985 -1.155,3.2498 -1.7326,6.7839 -1.8015,10.5374 z m 1.1451,-86.4491 c 0.0789,1.6587 0.0789,3.102 0.0789,4.326 0,1.3706 0,2.8188 -0.0789,4.336 l 9.9648,-0.2945 c -1.5171,0.872 -2.7411,1.5861 -3.6118,2.1637 -0.793,0.6552 -1.655,1.3755 -2.4468,2.2412 -0.793,0.9396 -1.5171,1.8793 -2.027,2.8139 -0.5776,0.9345 -1.0762,2.0896 -1.5071,3.3187 -0.4398,1.2966 -0.8018,2.8138 -1.0862,4.5452 -0.2932,1.6649 -0.431,3.4652 -0.431,5.4134 0,4.257 0.6465,7.8689 1.8704,10.8243 1.3017,3.0343 3.112,5.2668 5.4899,6.7827 2.3791,1.586 5.5549,2.3102 9.6704,2.3102 0.5776,0 1.6537,0 3.1032,-0.0727 1.5122,-0.0739 3.4641,-0.1428 5.8432,-0.2894 l 17.2449,-0.8607 5.56,-0.2205 c 1.2967,0 2.9554,0 4.9035,0 l -0.0689,-4.7619 c 0,-1.0085 0,-2.5257 0.0689,-4.4726 -6.0586,0.431 -12.6997,0.9397 -19.8445,1.3706 -7.2187,0.3621 -11.8328,0.6452 -13.8549,0.6452 -3.033,0 -5.481,-0.5036 -7.2914,-1.5171 -1.8002,-1.0073 -3.1708,-2.5934 -4.1894,-4.9035 -1.0072,-2.3102 -1.4382,-4.9035 -1.4382,-7.7913 0,-2.6033 0.431,-5.0501 1.3017,-7.3603 0.793,-2.0258 1.8792,-3.7584 3.2498,-5.1277 1.4382,-1.4395 3.3863,-2.7412 5.7742,-3.7497 1.7276,-0.7241 3.9639,-1.2277 6.6361,-1.6637 2.0158,-0.2155 5.56,-0.4986 10.6778,-0.7191 6.2064,-0.2882 12.5581,-0.436 18.9788,-0.5776 l -0.0689,-4.8346 c 0,-1.0135 0,-2.4517 0.0689,-4.3309 -6.2741,0.5086 -15.729,1.0861 -28.3599,1.7326 -6.9982,0.3621 -15.0776,0.5775 -24.1805,0.7241 z m 7.8701,-52.6081 c -0.5775,0.0727 -1.586,0.2932 -3.1032,0.5763 -1.4382,0.2894 -2.9554,0.5099 -4.3948,0.7254 -0.5864,2.5244 -1.0173,4.9762 -1.2328,7.2864 -0.2155,2.3101 -0.2844,4.3998 -0.2844,6.1325 0,3.7584 0.4999,7.2174 1.5172,10.3933 1.0085,3.1721 2.6622,5.917 4.9035,8.2222 2.3101,2.3879 5.1979,4.1205 8.5842,5.1967 3.3964,1.1551 7.0033,1.6637 10.7567,1.6637 5.119,0 9.8847,-0.8707 14.505,-2.671 4.5415,-1.8015 8.0794,-4.6204 10.6778,-8.5154 2.5945,-3.8962 3.8962,-9.1618 3.8962,-15.8067 0,-4.9035 -0.6465,-9.7393 -1.9481,-14.3585 -2.9554,-0.2154 -5.3395,-0.4309 -7.2914,-0.5775 1.0862,3.2485 1.7326,5.9208 2.0947,8.0105 0.3621,2.0897 0.5776,4.0428 0.5776,5.7704 0,3.0343 -0.5776,5.7742 -1.655,8.1571 -1.0862,2.3841 -2.6723,4.4788 -4.6981,6.1325 -2.0896,1.7326 -4.4725,2.9604 -7.2813,3.6795 -2.8188,0.7254 -5.6326,1.0874 -8.5943,1.0874 -3.895,0 -7.2813,-0.5775 -10.2467,-1.8065 -2.9567,-1.2278 -5.198,-3.3225 -6.7828,-6.3468 -1.6549,-3.0343 -2.4467,-6.4256 -2.4467,-10.1791 0,-3.6807 0.7918,-7.9378 2.4467,-12.7724 z m -7.8701,188.2 c 10.61,-0.6502 23.2459,-1.2967 37.8199,-1.9519 10.61,-0.4999 21.5771,-0.793 32.979,-1.0085 l -0.0727,-4.8346 c 0,-1.0085 0,-2.5257 0.0727,-4.6204 l -30.4534,1.5911 -30.8116,1.1538 -9.5339,0.2155 c 0.0789,2.022 0.0789,3.5392 0.0789,4.5465 0,0.4309 0,2.0947 -0.0789,4.9085 z m 53.6955,-49.1428 h -6.5672 c -0.0689,3.3224 -0.9397,6.3467 -2.6723,9.2344 -1.7326,2.8865 -4.3949,5.1278 -7.9378,6.5673 -3.5329,1.3706 -7.4292,2.0947 -11.6186,2.0947 -3.6018,0 -6.9243,-0.5776 -9.8847,-1.8016 -2.8877,-1.155 -5.2655,-3.0343 -7.0671,-5.7742 -1.8103,-2.6722 -2.6722,-5.922 -2.6722,-9.7431 0,-0.2155 0,-0.436 0,-0.5775 h -6.4207 c 0,0.2192 0,0.4347 0,0.6502 0,3.6807 0.5775,7.1448 1.655,10.4635 1.0862,3.2485 2.8188,6.1362 5.1966,8.5153 2.3102,2.3779 5.1979,4.2571 8.5893,5.4811 3.464,1.2277 7.002,1.8792 10.7516,1.8792 5.6277,0 10.6778,-1.1551 15.2292,-3.4653 4.4726,-2.2363 7.8639,-5.6276 10.1002,-10.0325 2.0947,-4.2571 3.2498,-8.7308 3.3187,-13.4915" /><path
             inkscape:connector-curvature="0"
             id="path3381"
             style="fill:#ffffff;fill-opacity:1;fill-rule:nonzero;stroke:none"
             d="m 262.7658,635.4351 h 14.27955 v 6.42066 H 262.7658 Z" /><path
             inkscape:connector-curvature="0"
             id="path3383"
             style="fill:#ffffff;fill-opacity:1;fill-rule:nonzero;stroke:none"
             d="m 262.7695,622.585 h 14.27454 v 6.42693 H 262.7695 Z" /><path
             inkscape:connector-curvature="0"
             id="path3385"
             style="fill:#ffffff;fill-opacity:1;fill-rule:nonzero;stroke:none"
             d="m 262.7695,603.3268 h 14.27454 v 12.8313 H 262.7695 Z" /><path
             inkscape:connector-curvature="0"
             id="path3387"
             style="fill:#ffffff;fill-opacity:1;fill-rule:nonzero;stroke:none"
             d="m 262.7695,584.1237 h 14.27454 v 12.84383 H 262.7695 Z" /><path
             inkscape:connector-curvature="0"
             id="path3389"
             style="fill:#ffffff;fill-opacity:1;fill-rule:nonzero;stroke:none"
             d="m 262.7695,558.4398 h 14.27454 v 19.2695 H 262.7695 Z" /><path
             inkscape:connector-curvature="0"
             id="path3391"
             style="fill:#ffffff;fill-opacity:1;fill-rule:nonzero;stroke:none"
             d="m 277.0441,552.0116 v -19.2683 h -14.2746 v 19.2683 z" /><path
             inkscape:connector-curvature="0"
             id="path3393"
             style="fill:#ffffff;fill-opacity:1;fill-rule:nonzero;stroke:none"
             d="m 262.7695,500.6313 h 14.27454 v 25.69518 H 262.7695 Z" /><path
             inkscape:connector-curvature="0"
             id="path3395"
             style="fill:#ffffff;fill-opacity:1;fill-rule:nonzero;stroke:none"
             d="m 262.7695,468.5981 h 14.27454 V 494.282 H 262.7695 Z" /><path
             inkscape:connector-curvature="0"
             id="path3397"
             style="fill:#ffffff;fill-opacity:1;fill-rule:nonzero;stroke:none"
             d="m 262.7695,430.0591 h 14.27454 v 32.11083 H 262.7695 Z" /><path
             inkscape:connector-curvature="0"
             id="path3399"
             style="fill:#ffffff;fill-opacity:1;fill-rule:nonzero;stroke:none"
             d="m 262.7695,391.6767 h 14.27454 v 31.96676 H 262.7695 Z" /><path
             inkscape:connector-curvature="0"
             id="path3401"
             style="fill:#ffffff;fill-opacity:1;fill-rule:nonzero;stroke:none"
             d="m 262.7695,346.7108 h 14.27454 v 38.53901 H 262.7695 Z" /><path
             inkscape:connector-curvature="0"
             id="path3403"
             style="fill:#ffffff;fill-opacity:1;fill-rule:nonzero;stroke:none"
             d="m 262.7695,301.7573 h 14.27454 v 38.52648 H 262.7695 Z" /><path
             inkscape:connector-curvature="0"
             id="path3405"
             style="fill:#ffffff;fill-opacity:1;fill-rule:nonzero;stroke:none"
             d="m 262.7695,250.4547 h 14.27454 v 44.87573 H 262.7695 Z" /><path
             inkscape:connector-curvature="0"
             id="path3407"
             style="fill:#ffffff;fill-opacity:1;fill-rule:nonzero;stroke:none"
             d="m 277.0441,244.0278 v -44.9559 h -14.2746 v 44.9559 z" /></g></g><g
         id="g3409"><g
           clip-path="url(#clipPath3413)"
           id="g3411"><path
             inkscape:connector-curvature="0"
             id="path3417"
             style="fill:#ffffff;fill-opacity:1;fill-rule:nonzero;stroke:none"
             d="m 262.7695,128.5009 h 14.27454 v 64.14398 H 262.7695 Z" /><path
             inkscape:connector-curvature="0"
             id="path3419"
             style="fill:#ffffff;fill-opacity:1;fill-rule:nonzero;stroke:none"
             d="m 262.7695,0.1215228 h 14.27454 V 122.07402 H 262.7695 Z" /></g></g><g
         id="g3421"><g
           clip-path="url(#clipPath3425)"
           id="g3423"><path
             inkscape:connector-curvature="0"
             id="path3429"
             style="fill:#ffffff;fill-opacity:1;fill-rule:nonzero;stroke:none"
             d="m 291.0518,766.696 c 0,0.7254 -0.1466,1.0085 -0.5776,1.5171 -1.0862,1.5172 -4.1105,1.1551 -6.2052,0 l -0.7241,1.3706 c 2.0158,1.5172 5.9897,2.7412 8.4465,0.862 1.0085,-0.862 1.5848,-2.3052 1.5848,-3.7497 0,-1.5159 -0.5763,-2.9554 -1.5848,-3.7534 -2.4568,-1.8742 -6.4307,-0.7192 -8.4465,0.798 l 0.7241,1.3706 c 2.0947,-1.1551 5.119,-1.4483 6.2052,0 0.431,0.5036 0.5776,0.793 0.5776,1.5848" /><path
             inkscape:connector-curvature="0"
             id="path3431"
             style="fill:#ffffff;fill-opacity:1;fill-rule:nonzero;stroke:none"
             d="m 291.0518,782.2096 c 0,0.793 -0.1466,1.0085 -0.5776,1.586 -1.0862,1.4483 -4.1105,1.0862 -6.2052,0 l -0.7241,1.3756 c 2.0158,1.5121 5.9897,2.666 8.4465,0.7918 1.0085,-0.7918 1.5848,-2.2363 1.5848,-3.7534 0,-1.5172 -0.5763,-2.9554 -1.5848,-3.7485 -2.4568,-1.8792 -6.4307,-0.7241 -8.4465,0.7931 l 0.7241,1.3706 c 2.0947,-1.0875 5.119,-1.4445 6.2052,0 0.431,0.5775 0.5776,0.7917 0.5776,1.5848" /><path
             inkscape:connector-curvature="0"
             id="path3433"
             style="fill:#ffffff;fill-opacity:1;fill-rule:nonzero;stroke:none"
             d="m 286.5003,756.0183 c -0.2155,-0.436 -0.1366,-0.5087 -0.3621,-0.9396 -1.145,-2.5984 -1.3706,-5.4811 -1.3706,-8.0844 l -4.1104,9.024 h 5.8431" /><path
             inkscape:connector-curvature="0"
             id="path3435"
             style="fill:#ffffff;fill-opacity:1;fill-rule:nonzero;stroke:none"
             d="m 300.7899,758.6116 c 3.1809,-1.8742 6.6411,0.6515 9.8859,0.2155 -0.4999,1.8115 -0.9346,2.7461 -2.0897,4.336 -0.798,1.3705 -2.7449,0.9346 -3.895,1.0085 0,0 0.1416,0 0.2882,0 0.8619,0.362 1.586,0.9396 1.8015,2.0947 0.1466,1.0761 -0.6464,1.8003 -1.5171,2.2312 -1.224,-1.4382 -3.4603,0.5087 -4.4738,1.5898 0.1465,0.5776 -0.2155,1.4445 0.2154,1.5911 1.4483,-0.9396 2.0947,-1.9481 4.5515,-1.6637 0.6465,0.793 0.8607,1.8792 0.6465,2.6722 v 0.6452 c 3.1809,0.2944 5.1966,-0.7191 8.3725,-1.0072 l 0.793,-1.66 c -3.6807,-1.3693 -3.0293,-3.3914 -5.05,-6.1313 1.0811,-1.9481 2.9603,-5.486 2.7449,-7.7962 l -7.3603,-0.0727 -0.6552,-0.0689 -2.1636,-2.9604 -0.7931,0.2882 c -0.4297,0.0689 -1.3016,-0.1466 -1.3016,0.362 v 4.326" /><path
             inkscape:connector-curvature="0"
             id="path3437"
             style="fill:#ffffff;fill-opacity:1;fill-rule:nonzero;stroke:none"
             d="m 305.6257,754.2856 c -1.3706,-2.1623 -3.3863,-4.4725 -4.6204,-5.9897 -0.9396,-1.1551 -1.4382,-1.3016 -3.3174,-2.4567 0.6552,-2.0897 0.1466,-3.1032 -1.224,-4.5415 -0.9396,1.8742 -2.0258,2.5933 -4.1894,2.8088 -1.3693,0 -2.5933,-0.8607 -3.102,-2.0157 -0.4998,-1.8793 0.5087,-3.0344 1.8103,-3.8963 2.3102,-1.7314 5.119,-0.1466 7.3603,1.3706 2.9567,2.4517 5.1929,5.119 7.4981,8.1533 l 1.1538,6.5672 h -1.3693" /><path
             inkscape:connector-curvature="0"
             id="path3439"
             style="fill:#ffffff;fill-opacity:1;fill-rule:nonzero;stroke:none"
             d="m 304.7638,825.2161 0.0689,1.3017 c 2.8877,-0.7242 4.5515,-3.0331 6.2052,-5.0501 -0.862,3.2498 0.793,6.9982 2.5256,10.3896 0.1466,1.0135 0.1466,1.6587 0.2143,2.5306 2.4567,-1.234 3.7584,-2.8188 3.9739,-5.7065 0,-1.0762 -0.1466,-2.6723 -0.5776,-3.6069 1.66,0.7191 3.6808,2.0897 5.6966,1.9532 -0.7191,-6.6462 -8.3676,-7.4392 -8.9451,-14.6529 4.5465,2.1636 9.2395,8.3688 15.1553,6.8516 2.3841,2.0947 5.6276,3.9 8.7308,2.8877 1.4433,-0.4998 2.0208,-0.4309 3.3225,-0.793 -1.0862,-1.9481 -2.3879,-2.5933 -4.7657,-2.8877 -1.0085,0 -2.9567,-0.4297 -3.7484,-0.7918 1.7263,-0.1478 7.5018,-6.2064 7.4279,-10.3169 -4.8346,-2.0258 -5.7016,1.4395 -9.019,3.0293 l -1.5122,-5.6276 c -3.3963,2.5983 -2.3878,6.7827 -6.2101,8.0793 -2.4518,0.5087 -5.7016,-1.0085 -7.0722,-2.8088 -1.9468,-3.3224 -1.0072,-6.1362 0.6515,-9.6704 l -2.3102,1.1551 c -1.0812,0.1365 -1.1551,3.8173 -1.3743,4.8346 -0.4999,0.8619 -1.5134,1.2929 -2.3791,1.586 -0.1466,0.0689 0.0739,1.8016 0.1466,2.0158 0.8619,6.6412 -4.6192,8.8774 -6.2052,15.2981" /><path
             inkscape:connector-curvature="0"
             id="path3441"
             style="fill:#ffffff;fill-opacity:1;fill-rule:nonzero;stroke:none"
             d="m 325.6168,784.3043 2.309,1.8792 c 0.2894,-1.8792 0.5049,-3.464 0.2894,-4.9136 l -2.3829,-1.9468 c 0.2193,3.2485 -0.2894,4.7657 -0.2155,4.9812" /><path
             inkscape:connector-curvature="0"
             id="path3443"
             style="fill:#ffffff;fill-opacity:1;fill-rule:nonzero;stroke:none"
             d="m 323.4482,792.3887 c 0,0.4309 0.3621,1.2966 0.9396,1.5121 1.4445,0.1428 2.3841,-0.8657 2.5984,-2.8138 l -2.1674,-2.1624 c -0.2844,1.3694 -0.793,2.4518 -1.3706,3.4641" /><path
             inkscape:connector-curvature="0"
             id="path3445"
             style="fill:#ffffff;fill-opacity:1;fill-rule:nonzero;stroke:none"
             d="m 299.8503,802.2007 c -0.1366,1.586 0.5098,2.5257 1.6637,3.0982 2.3791,1.0862 6.7151,1.9531 9.0929,-0.0689 -1.2227,-1.9469 -2.0208,-2.4568 -4.0416,-3.7484 0,-0.7981 0.5087,-2.0947 -0.2155,-3.3225 -0.5086,2.2363 -3.7534,2.0897 -5.124,1.6587 l -1.3755,2.3829" /><path
             inkscape:connector-curvature="0"
             id="path3447"
             style="fill:#ffffff;fill-opacity:1;fill-rule:nonzero;stroke:none"
             d="m 265.0659,809.1989 c 8.0155,0.8669 12.919,6.6411 16.3154,13.5705 0,0.2843 0,0.4309 0.0689,0.5725 -0.1378,0.2205 -1.2916,1.229 -1.6637,1.229 -2.6623,-1.6637 -5.3345,-2.6723 -8.0757,-2.5257 l 1.5861,3.1032 c -2.0947,1.2228 -4.1794,1.7327 -5.4121,3.4641 1.8792,1.6599 4.257,1.3705 6.5672,1.3705 -0.1466,1.224 -0.4999,2.9554 0.9396,3.3914 0.7141,0.0739 1.3017,-0.0727 1.8792,-0.2881 0,-1.0875 -0.5086,-2.1636 1.0762,-2.9567 l 5.7754,-1.0862 0.7242,-0.2831 c 5.6276,-2.6722 2.1623,-4.1218 5.481,-6.7151 2.0947,-1.3706 4.1105,-0.793 5.9208,0.2155 0.2844,0.2882 0.431,0.5087 0.6465,0.6465 l -0.7242,-5.3345 c 2.3102,-1.0862 3.3275,-2.6034 3.6119,-5.3445 0,-0.2155 0,-0.3621 0,-0.3621 -2.8877,-0.9346 -4.9035,-0.2831 -7.9378,1.234 0,-1.234 -0.431,-2.3841 -1.5861,-3.3237 -0.0777,0 -0.2155,0 -0.4309,0 -2.0258,1.3706 -2.8865,3.4653 -2.2413,5.9171 0.1466,0.2881 0.2155,0.5086 0.2155,0.7241 l -2.0258,5.555 c -1.8016,-4.5465 -4.1794,-9.8121 -7.8602,-12.6309 l -1.0862,-0.0689 -2.5244,-0.1466 -2.8877,-0.2844 -4.326,-0.6552 c -1.1551,0.3621 -1.0862,0.5087 -2.0258,1.0123" /><path
             inkscape:connector-curvature="0"
             id="path3449"
             style="fill:#ffffff;fill-opacity:1;fill-rule:nonzero;stroke:none"
             d="m 305.5568,808.0438 c -1.3706,2.7462 -2.3102,6.353 -5.0501,7.5808 1.1551,-1.8793 1.2228,-3.3225 1.0073,-5.129 -0.7918,-0.2143 -1.3693,-0.3621 -1.8003,-0.4298 v -3.6118 c 1.8003,1.0123 3.8223,1.5171 5.8431,1.5898" /><path
             inkscape:connector-curvature="0"
             id="path3451"
             style="fill:#ffffff;fill-opacity:1;fill-rule:nonzero;stroke:none"
             d="m 268.5299,801.1884 c -0.0676,0.2932 -0.0676,0.6502 0.2155,1.0123 -0.0689,0.4309 -0.4986,-0.2193 -0.7141,-0.2882 l -1.8015,0.431 -1.5172,-0.2155 -0.362,0.5036 c 0,0.8657 1.6549,0.8657 2.017,1.5911 0.793,0.2832 1.5172,0.2832 2.3089,0.5037 0.1479,0.2154 0.3633,0.5036 0.7931,0.357 0.4409,-0.1416 0.6564,-0.357 0.8719,-0.7191 1.2228,-1.0812 3.2486,-1.8066 4.0416,-3.7534 l 0.352,-0.0689 c 0,-0.1466 0.1479,-0.3621 0.1479,-0.6503 l 0.2142,-0.3633 0.1478,-0.5036 0.0777,-0.2155 c 0.2155,0 1.1551,0.0689 1.1551,-0.8707 0,-0.793 -0.5776,-1.0085 -1.0173,-0.9346 v -0.2155 c 0.1466,-1.0135 -0.3633,-2.0208 -1.0774,-2.8877 -0.8707,-0.8657 -1.8792,-1.7326 -2.9654,-2.5244 -1.3706,-0.3571 -2.5933,-0.7204 -3.8173,-0.2894 -0.2255,0.1466 -0.2932,0.2155 -0.2932,0.2155 0,0.1465 0.0677,0.2894 0.2155,0.5086 l 1.9469,0.4999 -0.7242,0.2205 c -1.0761,0.6502 -2.0846,0.2881 -3.0932,0.5725 l -1.3016,1.1539 -0.7242,0.1478 c 0,0.0726 -0.0676,0.1466 -0.1465,0.2931 -0.0689,0 -0.0689,-0.1465 -0.2155,-0.2205 l -0.9396,0.5776 v 0.2894 h 1.4482 l 2.0947,-1.5861 c 0.7241,-0.1465 1.224,0.431 1.5072,0.9396 0.5875,0.7931 1.6649,0.9346 2.1736,1.5122 l -2.4568,-1.1551 -3.2498,2.1686 c 0,0 -0.1466,-0.0789 -0.1466,-0.2205 -0.4309,0 -0.7141,0.436 -0.9295,1.0123 l 4.1793,-1.7314 1.2328,0.9396 h 2.7412 c 0,0.1416 0,0.4986 0,0.5776 v 0.4986 c -0.079,0.2155 0.362,0.6514 0.2142,0.9396 -2.0158,-1.0812 -4.0416,0.793 -6.2052,0.2881 -1.2328,1.0825 -2.9554,-0.2881 -3.9739,0.7981 l 0.0789,0.1415 1.0762,0.1429 4.698,-0.0689 c -1.5848,0.0689 -3.2485,0.9396 -4.9135,0.7191 l -0.5086,0.436 v 0.1415 l 7.1447,-0.6502" /><path
             inkscape:connector-curvature="0"
             id="path3453"
             style="fill:#ffffff;fill-opacity:1;fill-rule:nonzero;stroke:none"
             d="m 349.7184,779.2542 c 2.0947,1.2966 4.6192,5.119 5.2656,8.7308 l 1.0135,-0.0739 3.538,-0.2881 -0.2932,-2.3102 -0.9396,0.2155 -0.431,-1.1551 1.0073,-0.5776 -1.1538,-2.5257 -1.224,0.5776 -1.0085,-1.6537 1.0085,-0.9396 -1.3706,-1.5861 -0.9396,0.9346 -1.9469,-1.5898 0.4297,-1.0085 -0.5775,-0.5037 -2.3779,3.7535" /><path
             inkscape:connector-curvature="0"
             id="path3455"
             style="fill:#ffffff;fill-opacity:1;fill-rule:nonzero;stroke:none"
             d="m 297.6879,785.1712 -1.5172,3.7534 1.5172,1.5848 v 16.2377 h -19.0465 v -48.8546 h 19.0465 z m -1.8015,18.4001 v -11.6174 h -15.2292 v 11.6174 z m 0,-15.5863 v -11.5497 h -15.2292 v 11.5497 z m 0,-15.5136 v -11.6173 h -15.2292 v 11.6173 z" /><path
             inkscape:connector-curvature="0"
             id="path3457"
             style="fill:#ffffff;fill-opacity:1;fill-rule:nonzero;stroke:none"
             d="m 302.6691,797.8697 c 0.9396,0.2894 2.0947,0.2155 2.8138,-0.7241 0.436,-0.5776 0.1428,-0.4986 0.5049,-1.1551 1.3693,0.5099 2.3089,1.1551 2.3828,2.4568 0,0.7241 -0.1415,1.3016 -0.1415,1.9481 0.6452,0.2881 1.2227,0.8657 1.8003,1.4432 l 2.7411,-5.6276 -4.2583,-3.107 c -2.671,1.5948 -3.8211,2.3089 -5.8431,4.7657" /><path
             inkscape:connector-curvature="0"
             id="path3459"
             style="fill:#ffffff;fill-opacity:1;fill-rule:nonzero;stroke:none"
             d="m 323.2327,776.513 -1.0811,0.431 c -0.9346,0.5036 -2.0208,0.8619 -2.8139,1.586 -0.7241,0.5776 -1.224,1.3706 -1.6587,2.1624 -0.5049,0.9396 -0.2205,2.3841 -0.6514,3.3237 l -1.1551,0.4347 -1.6537,9.0153 0.4309,5.9208 c 4.1105,-1.9469 5.0501,-5.9897 7.9378,-8.8775 1.5848,-3.9689 1.8003,-6.7138 2.0158,-10.6777 v -2.7411 c 0,-0.1466 -0.1416,-0.5087 -0.357,-0.6553 l -1.0136,0.0777" /><path
             inkscape:connector-curvature="0"
             id="path3461"
             style="fill:#ffffff;fill-opacity:1;fill-rule:nonzero;stroke:none"
             d="m 338.0272,791.7334 -1.0135,1.3706 c -1.2228,-2.81 -4.1794,-2.9566 -6.6362,-2.1636 l -0.5036,-1.3706 c 3.9689,-1.1551 5.8481,-0.4297 8.1533,2.1636" /><path
             inkscape:connector-curvature="0"
             id="path3463"
             style="fill:#ffffff;fill-opacity:1;fill-rule:nonzero;stroke:none"
             d="m 363.646,774.2717 v 0.1479 l 1.224,1.8742 0.4347,-1.229 -0.0727,-0.2832 c -0.2844,-0.362 -0.8619,-0.362 -1.2966,-0.362 0.2154,-0.2944 -0.1429,-0.2944 -0.2894,-0.1479" /><path
             inkscape:connector-curvature="0"
             id="path3465"
             style="fill:#ffffff;fill-opacity:1;fill-rule:nonzero;stroke:none"
             d="m 256.6971,751.6873 c 1.7327,2.2363 4.767,3.1032 6.4984,3.6068 l 3.6118,-0.7241 c -0.2155,-1.586 -1.0173,-3.5342 0.431,-5.119 0.4986,-0.5775 1.7326,-1.3016 2.5257,-1.3016 -1.0186,-2.0947 -4.2583,-1.9482 -6.0687,-1.2967 -1.0761,-1.5172 -2.2312,-2.8138 -4.6203,-3.1032 0.9396,3.3913 0.0789,5.3395 0.9396,7.7173 -1.4382,0.1466 -1.6537,0 -3.3175,0.2205" /><path
             inkscape:connector-curvature="0"
             id="path3467"
             style="fill:#ffffff;fill-opacity:1;fill-rule:nonzero;stroke:none"
             d="m 335.2134,799.3869 -0.3621,-1.7327 c -3.3863,1.0085 -5.1979,-1.3016 -6.0586,-3.1019 l -1.7326,0.7191 c 1.1551,1.8742 1.8015,3.6068 4.6204,4.1155 0.8606,0.2154 2.0157,0.2844 3.5329,0" /><path
             inkscape:connector-curvature="0"
             id="path3469"
             style="fill:#ffffff;fill-opacity:1;fill-rule:nonzero;stroke:none"
             d="m 304.6172,776.3664 c 0.6465,1.0086 2.1636,0.0689 3.4653,0.7242 2.8865,2.3791 5.6276,-0.6553 9.2345,-1.3017 -2.7412,2.5946 -4.6931,3.1032 -4.6931,5.481 0.2193,1.2341 -0.2844,1.7327 0.5087,2.6723 l -0.7242,3.7534 c -0.8619,0 -2.1636,0.0739 -3.0242,0.9346 -2.6034,-0.357 -3.543,-1.0761 -5.8482,-1.9469 l -1.229,2.74 c -0.2831,0.2931 -0.5036,0.5086 -0.793,0.8707 l -2.3778,-2.4568 1.8002,-4.8346 c 0.2894,-2.4518 1.8793,-0.8607 1.224,-3.895 l 1.2328,-1.0824 0.3583,-1.7314 0.8657,0.0726" /><path
             inkscape:connector-curvature="0"
             id="path3471"
             style="fill:#ffffff;fill-opacity:1;fill-rule:nonzero;stroke:none"
             d="m 329.1548,781.2023 c 3.1019,0.1466 6.8516,1.6587 7.8589,4.7607 0.5099,1.2979 0.9396,2.8877 2.027,3.5392 l 0.4297,0.5775 -0.793,0.8607 c -1.2227,-1.9481 -4.331,-3.0293 -6.5672,-2.7399 -1.2228,0.0727 -2.309,0.2882 -3.3914,0.7918 l 1.0824,3.1759 c 1.8053,-0.4348 4.0416,-1.2278 5.7742,0.2894 0.431,0.4309 0.6465,0.9396 0.9397,1.4432 l -0.5087,2.4518 -1.5171,-0.3621 0.4397,0.798 c -1.0173,0.5776 -2.6034,0.2155 -3.6845,-0.5036 -0.9346,-0.6515 -1.5911,-2.027 -2.1636,-3.0343 l -2.1674,0.9396 c 2.0258,-2.3102 2.6033,-11.3292 2.2413,-12.9879" /><path
             inkscape:connector-curvature="0"
             id="path3473"
             style="fill:#ffffff;fill-opacity:1;fill-rule:nonzero;stroke:none"
             d="m 291.0518,797.7231 c 0,0.7931 -0.1466,1.0862 -0.5776,1.5911 -1.0862,1.4432 -4.1105,1.1538 -6.2052,0 l -0.7241,1.3693 c 2.0158,1.5172 5.9897,2.6673 8.4465,0.7981 1.0085,-0.7981 1.5848,-2.2413 1.5848,-3.7585 0,-1.4382 -0.5763,-2.9554 -1.5848,-3.7484 -2.4568,-1.8792 -6.4307,-0.6514 -8.4465,0.8607 l 0.7241,1.3017 c 2.0947,-1.0812 5.119,-1.4383 6.2052,0.0739 0.431,0.5036 0.5776,0.7191 0.5776,1.5121" /><path
             inkscape:connector-curvature="0"
             id="path3475"
             style="fill:#ffffff;fill-opacity:1;fill-rule:nonzero;stroke:none"
             d="m 325.2598,774.2717 2.8815,2.4568 c -0.2882,-1.8792 -0.7192,-3.9739 -1.2967,-5.2706 -1.5172,-1.8053 -2.3829,-2.0897 -2.8188,-1.2277 1.0862,3.1019 1.0862,3.895 1.234,4.0415" /><path
             inkscape:connector-curvature="0"
             id="path3477"
             style="fill:#ffffff;fill-opacity:1;fill-rule:nonzero;stroke:none"
             d="m 268.5299,770.4457 c -0.0676,0.2931 -0.0676,0.6552 0.2155,1.0122 -0.0689,0.436 -0.4986,-0.2155 -0.7141,-0.2881 l -1.8015,0.362 -1.5172,-0.1465 -0.362,0.5086 c 0,0.793 1.6549,0.793 2.017,1.5861 0.793,0.2881 1.5172,0.2881 2.3089,0.4297 0.1479,0.2944 0.3633,0.5775 0.7931,0.436 0.4409,-0.1416 0.6564,-0.436 0.8719,-0.7192 1.2228,-1.0861 3.2486,-1.8065 4.0416,-3.7584 l 0.352,-0.0689 c 0,-0.1466 0.1479,-0.431 0.1479,-0.6465 l 0.2142,-0.362 0.1478,-0.5776 0.0777,-0.1465 c 0.2155,0 1.1551,0 1.1551,-0.8657 0,-0.867 -0.5776,-1.0136 -1.0173,-1.0136 v -0.1415 c 0.1466,-1.0135 -0.3633,-2.0208 -1.0774,-2.8827 -0.8707,-0.9397 -1.8792,-1.7327 -2.9654,-2.5245 -1.3706,-0.3633 -2.5933,-0.798 -3.8173,-0.2944 -0.2255,0.1466 -0.2932,0.2155 -0.2932,0.2155 0,0.1466 0.0677,0.2932 0.2155,0.436 l 1.9469,0.5775 -0.7242,0.2193 c -1.0761,0.5725 -2.0846,0.2844 -3.0932,0.4999 l -1.3016,1.155 -0.7242,0.2155 c 0,0.0777 -0.0676,0.1466 -0.1465,0.2932 -0.0689,0 -0.0689,-0.1466 -0.2155,-0.2155 l -0.9396,0.5775 v 0.2155 h 1.4482 l 2.0947,-1.5171 c 0.7241,-0.1466 1.224,0.362 1.5072,0.9396 0.5875,0.7191 1.6649,0.9396 2.1736,1.5171 l -2.4568,-1.1551 -3.2498,2.1637 c 0,0 -0.1466,-0.074 -0.1466,-0.2155 -0.4309,0 -0.7141,0.4297 -0.9295,1.0072 l 4.1793,-1.7314 1.2328,0.9397 h 2.7412 c 0,0.1465 0,0.4297 0,0.5036 0,0.1416 0,0.5036 0,0.5725 -0.079,0.2205 0.362,0.5826 0.2142,0.9396 -2.0158,-1.0761 -4.0416,0.7242 -6.2052,0.2932 -1.2328,1.0774 -2.9554,-0.2932 -3.9739,0.793 l 0.0789,0.1466 1.0762,0.1378 4.698,-0.0689 c -1.5848,0.0689 -3.2485,0.9396 -4.9135,0.6465 l -0.5086,0.5086 v 0.1466 l 7.1447,-0.6552" /><path
             inkscape:connector-curvature="0"
             id="path3479"
             style="fill:#ffffff;fill-opacity:1;fill-rule:nonzero;stroke:none"
             d="m 272.9348,783.0026 -20.5636,-17.0984 -1.9481,1.2228 18.6167,15.8756 z m -36.225,0 h 10.0325 l -6.8504,-5.7742 c -1.1551,1.8103 -2.2425,3.7584 -3.1821,5.7742 z m 14.7218,0 -9.8183,-8.1533 1.4495,-1.7327 11.7651,9.886 z m 8.8085,0 -14.6529,-12.3377 1.5861,-1.2967 16.3855,13.6344 z m 8.7997,0 -18.6167,15.9495 1.9481,1.1539 20.5636,-17.1034 z m -5.481,0 v 0 l -16.3855,13.712 -1.5861,-1.3017 14.6529,-12.4103 z m -8.7309,0 v 0 l -11.7651,9.8859 -1.4495,-1.6549 9.8183,-8.231 z m -8.0856,0 h -10.0325 c 0.9396,2.0947 2.027,4.0428 3.1821,5.7742 l 6.8504,-5.7742" /><path
             inkscape:connector-curvature="0"
             id="path3481"
             style="fill:#ffffff;fill-opacity:1;fill-rule:nonzero;stroke:none"
             d="m 235.0561,755.1476 c -0.2155,-1.0086 -0.2932,-2.2325 -0.2932,-3.2448 -0.0789,-1.1551 0,-2.3829 0.6452,-3.6808 0.1478,-0.1416 0.2155,-0.357 0.3621,-0.5036 0.9396,-0.1466 1.7326,0.1466 2.3101,0.5036 l 0.1466,0.0739 -0.2931,1.8742 2.0947,0.2894 0.2155,1.0862 c -1.655,0.9346 -3.5342,2.3052 -5.1879,3.6019 z m 8.8674,55.2064 c -0.0677,-0.0727 0,-0.1416 0,-0.2882 0.0789,-0.0689 0.1465,-0.1478 0.2944,-0.2154 0.0676,0 0.2142,0 0.4297,0.1465 l 0.2944,0.1366 -0.1466,0.2205 -0.2155,0.5036 -0.2944,-0.1416 c -0.2155,-0.0726 -0.2831,-0.1415 -0.362,-0.2881 z m -10.7467,-10.7517 -0.6464,0.3621 -0.2932,-0.3621 -0.0689,-0.2154 -0.0776,-0.0727 v -0.2205 l 0.1465,-0.2155 c 0.1466,-0.0689 0.2155,-0.0689 0.3621,-0.0689 0.0689,0.0689 0.1466,0.1428 0.2844,0.3621 z m 2.9567,3.969 c 0.2142,0.1415 0.2931,0.357 0.2142,0.5775 v 0.1416 c -0.0676,0.1466 -0.2142,0.362 -0.4297,0.5775 -0.2155,0.2944 -0.5099,0.3621 -0.7241,0.431 -0.2155,0 -0.431,-0.0689 -0.5776,-0.2844 -0.1378,-0.1466 -0.2155,-0.3621 -0.2155,-0.5775 v -0.1466 c 0.0777,-0.1416 0.2155,-0.3621 0.5087,-0.5776 0.2155,-0.2831 0.4309,-0.4297 0.6464,-0.4297 0.2143,0 0.4297,0.0677 0.5776,0.2882 z m 3.9726,-56.2839 c -0.2142,-0.2931 -0.4397,-0.5775 -0.7241,-0.7241 -0.5775,-0.2155 -1.1551,-0.3621 -1.8003,-0.431 1.8003,-1.3693 5.0501,-1.4482 7.1448,-2.5244 0.793,0 2.3002,-0.0789 2.5244,0.5776 0.3533,0.7141 -0.1465,2.1623 -1.0862,2.3051 -1.3016,0.6502 -2.7399,1.2967 -4.1881,1.7314 -0.7154,0.2894 -1.3706,0.436 -2.017,0.5776 v -0.5776 z m -1.0172,53.47 c -4.326,-4.6203 -6.9982,-11.1137 -6.9982,-17.7548 0,-6.6362 2.6722,-13.1345 6.9982,-17.7499 1.4482,1.7327 3.1119,2.1687 5.05,1.4433 0.9071,-0.3308 1.8116,-0.8118 2.7199,-1.2303 -3.8599,2.4856 -7.1761,5.5625 -9.5715,9.3159 -1.6637,2.5245 -3.2485,5.3333 -4.6191,8.221 3.5542,8.5354 9.113,13.9914 16.4707,18.3136 -1.6838,-0.3182 -3.34,-1.4708 -5,-2.0759 -1.9381,-0.7241 -3.6018,-0.2882 -5.05,1.5171 z m 0.8707,16.3793 c 0.6464,0.1416 1.3016,0.3571 2.017,0.5776 1.4482,0.5036 2.8865,1.0811 4.1881,1.8065 0.9397,0.0677 1.4395,1.5848 1.0862,2.2363 -0.2242,0.6502 -1.7314,0.6502 -2.5244,0.5725 -2.0947,-1.0774 -5.3445,-1.0774 -7.1448,-2.4467 0.6452,-0.079 1.2228,-0.2205 1.8003,-0.5099 0.2844,-0.1466 0.5099,-0.3621 0.7241,-0.6452 l -0.1465,-1.0135 z m 0.0689,-1.5898 -2.0947,0.2931 0.2931,1.8016 -0.1466,0.0727 c -0.5775,0.362 -1.3705,0.7191 -2.3101,0.5036 -0.1466,-0.1416 -0.2143,-0.2832 -0.3621,-0.5036 -0.6452,-1.2278 -0.7241,-2.5257 -0.6452,-3.6796 0,-1.0135 0.0777,-2.2375 0.2932,-3.1771 1.6537,1.229 3.5329,2.6723 5.1879,3.6119 z m 0.6452,-8.0806 -0.0677,0.0739 -0.4309,0.5036 -0.3621,-0.2881 c -0.0689,0 -0.1466,-0.069 -0.2155,-0.2155 l -0.0689,-0.2155 0.0689,-0.2155 c 0.0689,-0.0777 0.1466,-0.1466 0.2944,-0.1466 0.0677,0 0.2142,0.0689 0.3521,0.2155 z m 6.2841,-0.9346 c 0.362,-0.3621 0.9396,-0.6503 1.3016,-0.7918 v 1.5121 c -0.5086,-0.1428 -1.0085,-0.3583 -1.4482,-0.6514 z m -10.4623,-44.6014 v 0.1466 c 0,0.0739 -0.0689,0.1465 -0.2154,0.2881 l -0.2155,0.2205 -0.5776,-0.5086 v -0.0689 l 0.1366,-0.2155 c 0.2255,-0.1466 0.2944,-0.2932 0.441,-0.2932 0.1466,0 0.2155,0.0739 0.2831,0.1466 0.1478,0.0689 0.1478,0.1466 0.1478,0.2844 z m 15.5913,43.8096 c 0.4999,0.1415 0.6464,0.4297 0.7153,0.7918 0.0777,0.1428 0.0777,0.362 0,0.4998 0,0.2932 -0.2154,0.5087 -0.793,0.7242 -0.6464,0.2154 -1.8015,-0.069 -2.5946,-0.2894 v -1.7264 c 1.0775,-0.2944 2.0171,-0.2205 2.6723,0 z m -8.231,-50.1576 0.4297,-0.2155 c 0,0 0.1466,-0.0727 0.2944,-0.0727 h 0.2155 l 0.1466,0.1466 c 0.0677,0.1416 0.0677,0.2155 0.0677,0.2844 h -0.0677 c 0,0.1466 -0.1466,0.2193 -0.2944,0.2932 l -0.5087,0.2844 -0.2154,-0.5776 z m 3.102,3.7534 c 0.362,-0.2881 0.8619,-0.5086 1.3016,-0.6502 v 1.5121 c -0.4397,-0.1365 -1.0085,-0.4309 -1.4482,-0.8619 z m 108.2417,9.3773 c -0.7141,0.6552 -1.3706,1.3743 -2.0897,2.0258 -0.2205,0.2155 -0.357,0.3621 -0.5775,0.5776 l 2.0896,1.4382 0.6553,-0.2832 c -0.0777,-0.5775 -0.1466,-1.155 -0.2193,-1.7326 0,-0.1466 0,-0.2155 -0.0739,-0.3621 0.0739,-0.2154 0.1466,-0.362 0.1466,-0.5775 0,-0.3621 0,-0.7241 0.0689,-1.0862 z m -46.1098,-28.3549 c -1.3016,-2.3102 -3.1708,-4.5515 -6.1312,-4.6191 -0.5049,1.9469 -0.436,3.8261 0.7191,5.7742 -3.2498,-3.8273 -9.014,-8.5893 -15.0049,-6.4207 -3.6106,0.5776 -7.5069,2.2313 -10.6878,0.0689 l 0.8707,-4.3272 c -1.3693,-0.7241 -3.3174,-0.0776 -4.7657,0.7204 -0.793,0.6502 -1.4395,1.3693 -1.8015,2.3052 -2.6034,0.4347 -5.8431,1.5898 -7.5758,3.6106 1.4395,1.8015 3.3876,3.1721 5.9121,4.4738 l -1.8003,1.7314 c 0,0.1478 0.1465,0.2894 -0.079,0.5099 1.7427,1.3693 4.1205,1.5848 6.0687,0.9346 1.2916,-0.3571 2.3778,-1.0812 3.3174,-1.7327 l 0.5775,0.3621 c -1.3016,1.229 -2.6033,3.0293 -3.6795,4.7619 -1.8015,2.4568 -3.6118,4.4726 -5.7754,6.2052 -0.7918,-0.8657 -0.7918,-2.1636 -0.7918,-3.2498 0.5775,-1.6537 2.2413,-2.3778 3.7484,-2.4518 0.1466,0 0.2932,0 0.3721,-0.0726 0,-1.5122 -1.1651,-2.8101 -2.3102,-3.4653 -1.9581,-0.9346 -3.7584,-1.0762 -5.56,-0.7141 -1.5171,-2.3891 -5.0501,-4.0428 -8.152,-3.7584 1.3693,2.9604 0.2831,5.9897 1.2227,8.9501 l -4.9812,0.2154 -0.0689,0.1416 c 1.8003,4.1155 6.5673,5.7066 10.8932,7.2926 l 0.0689,1.0073 c -2.2588,0.5387 -4.5013,1.1989 -6.69,1.9757 0.4084,-1.4583 0.3245,-2.988 -0.6702,-4.3535 -2.0847,-1.5172 -3.8173,-3.3187 -5.2656,-5.7743 -3.0343,-2.017 -6.2741,-0.8619 -9.3084,0.1466 l -0.1478,-0.5099 c 1.234,-0.5763 2.8188,-1.0812 4.2683,-1.8742 0.9296,-0.5036 1.8003,-1.0812 2.3778,-1.8053 0.6465,-0.8619 0.7931,-2.0947 0.2155,-3.1709 -0.8707,-1.0861 -2.9554,-1.4495 -4.4049,-1.0861 -2.8864,1.5898 -6.7138,1.4482 -9.0916,3.826 -0.4999,0.7242 -0.8619,1.4445 -1.1551,2.2363 -0.9396,2.6673 -0.5086,5.6289 -0.2155,8.2272 -6.9982,6.5673 -11.5497,16.0912 -11.5497,26.5534 0,10.4635 4.5515,19.9911 11.5497,26.5584 -0.2931,2.5256 -0.7241,5.5549 0.2155,8.1533 0.2932,0.798 0.6552,1.591 1.1551,2.3101 2.3778,2.3829 6.2052,2.1674 9.0916,3.7535 1.4495,0.362 3.5342,0.0689 4.4049,-1.0085 0.5776,-1.0862 0.431,-2.309 -0.2155,-3.1809 -0.5775,-0.7931 -1.4482,-1.3706 -2.3778,-1.8742 -1.4495,-0.7192 -3.0343,-1.2278 -4.2683,-1.8053 l 0.1478,-0.5776 c 3.0343,1.0123 6.2741,2.1624 9.3084,0.2155 1.4483,-2.4468 3.1809,-4.326 5.2656,-5.8431 1.026,-1.4107 1.0824,-2.9379 0.6301,-4.425 0.7868,0.3496 1.5874,0.6954 2.4042,1.0374 1.7326,0.5775 3.1019,0.8619 4.7657,1.2929 -3.895,1.9519 -9.3072,3.6118 -10.3933,8.2999 v 0.9396 c 1.5848,0.362 3.2485,0.2154 4.8346,-0.7242 l -1.6538,9.5277 c 2.4468,-0.2155 5.9897,-0.7191 7.2814,-3.1759 0.793,-1.6587 0.7241,-3.2498 1.0862,-4.8346 0.1478,-0.1478 0.6464,-0.2155 1.0085,-0.1478 0,0.7241 -0.2932,1.8115 0.431,2.3891 1.8002,0.8607 3.895,-0.5776 5.3432,-1.5172 0.431,-0.362 0.793,-0.7241 1.1551,-0.8719 -1.8103,-0.3571 -3.6119,-1.1501 -4.326,-3.0243 -0.1566,-0.7242 -0.2255,-1.4483 0.2155,-1.9469 0.1366,-0.0789 0.2844,-0.2205 0.2844,-0.2205 3.9639,2.5294 6.9293,5.2706 9.2395,9.812 -2.6046,-1.0085 -6.1375,-2.5256 -9.0929,-1.4395 l 1.4382,3.6808 c -2.3102,1.2228 -4.1794,2.4518 -5.4121,4.6191 1.9481,1.7277 4.9811,2.7412 7.4379,2.7412 -0.1466,1.0085 0.2844,2.2363 1.2929,2.7399 1.5948,0.7254 3.102,0.1478 4.6981,-0.5036 -0.5876,-0.7192 -0.9397,-1.7327 -0.2945,-2.6673 0.3621,-0.2205 0.5099,-0.362 0.7931,-0.5086 0.5086,0 0.793,0.1466 1.3016,0.2155 4.6204,0.2931 9.5239,2.3101 14.143,0.5775 3.9639,-1.0824 6.2791,-3.7484 7.869,-7.5758 1.2929,-3.4652 4.3998,-5.7015 5.4134,-9.4549 0.2154,-0.431 0.0676,-1.0085 0.357,-1.0812 -0.5775,5.4861 -7.0032,9.6692 -5.124,15.5173 2.4568,-0.5775 4.767,-2.1673 6.1375,-3.9 -0.2154,3.9689 4.7557,8.1583 2.309,12.3377 3.3187,-1.1551 5.3344,-2.9566 6.9255,-6.2741 0.5776,-1.229 0.4347,-2.3101 0.5036,-3.5329 1.7327,0.7141 3.533,1.2917 5.4122,0.7918 0.2155,-3.102 -2.0158,-6.4984 -4.1844,-8.3726 -1.5898,-1.229 -2.8865,-2.3828 -3.9689,-4.2583 2.6722,2.9617 7.5757,6.2065 12.1222,5.4084 4.4776,3.3964 9.6705,2.7499 14.6479,1.0173 -0.5049,-2.3089 -1.8742,-3.464 -4.1844,-4.4775 -1.0812,-0.3571 -2.0208,-0.436 -3.0293,-0.5776 3.6068,-2.0208 5.481,-6.7088 6.4207,-11.0398 -5.2656,-2.3102 -7.4292,-0.8669 -10.3946,1.2278 l -1.4383,-4.9085 c -5.7015,0.2154 -3.9689,8.1583 -8.5153,8.9513 -2.5257,0.4297 -4.6204,-1.0135 -5.56,-3.6808 -0.7191,-4.9811 3.1032,-10.3945 5.7755,-14.3634 0.4297,1.5121 1.5159,2.5256 3.3913,1.5121 1.1539,2.9667 3.1759,5.129 6.2779,5.6326 1.586,0 2.4567,-0.0726 3.3187,-0.4347 0.2154,0.0727 0.5086,0.1466 0.793,0.3621 1.5159,0.362 2.9604,0 4.4036,-0.431 -0.362,-3.3964 3.1032,-5.0501 4.9035,-7.1448 h 2.1687 c 0.6502,1.5861 1.7313,3.0293 3.5379,3.4653 0.2155,0 0.431,0.0677 0.431,0.0677 1.1551,1.3016 2.9553,1.4495 4.5464,1.8065 1.6587,0.0727 3.107,0.5776 4.6191,0.4347 -1.0811,-0.362 -1.9531,-1.0862 -2.1673,-2.3828 0.9396,1.5121 2.9604,2.3828 4.9812,2.5257 0.362,0.1415 0.4309,0.357 0.793,0.2881 l 0.8657,1.6587 c 0.7203,-0.4347 0.5775,-1.5121 0.3633,-2.3039 0,-0.3633 -0.2205,-0.6565 -0.0739,-0.6565 l 1.8792,1.4483 c 0.2155,-1.0123 0,-2.309 -0.9396,-3.1809 -0.3621,-0.0677 -0.5776,-0.2155 -0.8657,-0.4297 l 1.2277,0.2142 c 0.069,-0.7191 -0.5086,-1.5848 -1.2277,-1.9469 -3.5392,0 -6.348,-0.2844 -8.8787,-3.0293 -0.6502,-0.4359 -1.2966,-0.798 -1.9469,-1.1551 l 0.5037,-0.5775 5.6276,-0.3571 -0.4297,-2.8188 2.3089,-2.1636 3.6069,0.0689 0.1428,-2.0158 c 1.0123,0.0677 2.3828,-0.3633 2.8865,-1.4444 0.2155,-0.7192 0.2155,-1.5122 0.5775,-1.9519 h -0.9396 c -2.0158,-1.0774 -1.4382,-4.6893 -3.895,-5.6966 -0.5775,-1.229 -1.6587,-1.8792 -3.0293,-2.5256 l -3.2448,3.1708 0.8607,-0.1415 c 0.5776,0.1415 0.793,1.0811 0.9396,1.6587 -0.1466,0.5099 -0.362,0.793 -0.6452,1.0862 l -1.4482,-2.3879 c 0,-1.9469 -1.1551,-4.252 0.5086,-6.0586 -1.0862,0.0689 -1.9481,0.867 -2.3102,1.8066 0,0.5036 0,1.0122 -0.0739,1.4432 0.0739,1.0085 0.2205,2.2363 0.5049,3.3864 l -0.2155,0.0789 -1.8792,0.7918 c 0,0.2154 0.2205,0.5048 0.1466,0.793 l -0.7242,0.1466 -0.8606,1.224 -0.431,-0.2882 0.7141,-1.1551 -2.5257,-1.6599 -2.8088,4.2583 c -6.2052,-1.4433 -13.4965,-3.4653 -19.1242,-7.0722 -0.4309,-0.7967 -0.362,-1.4432 0,-2.0897 0.1466,-0.362 0.5087,-0.362 0.5776,-0.5775 0.6452,-0.2932 1.6587,-0.0777 2.0934,0.5775 0.6465,1.0775 0.1429,1.9482 0,2.9567 l 2.2326,-0.1466 0.5086,-1.7326 -0.431,-0.7191 c 0.431,-0.2894 0.7191,0.6502 1.0774,1.0122 0.2932,1.5861 1.3017,2.5933 2.8189,3.1709 2.3089,0.793 4.688,0.8669 6.8504,-0.6452 -2.1624,0 -4.5415,-1.0135 -6.4884,-2.3841 3.3864,1.229 7.2125,2.5257 10.5312,0.0739 2.8877,-2.3828 5.1966,-6.2791 9.7431,-6.0636 -0.9346,-1.4432 -3.102,-2.7449 -5.124,-2.8138 -1.5172,2.5983 -2.671,4.8346 -5.2656,6.1375 3.2448,-3.0343 4.4738,-8.5943 9.8121,-10.1064 -1.6588,-1.1551 -3.6796,-1.1551 -5.4861,-0.6502 -2.8138,0.7917 -3.5329,4.1881 -3.7484,6.5672 0,1.1551 -0.7931,1.8792 -1.3706,2.7399 0.6464,-1.4382 0.793,-3.5329 1.0085,-5.2656 0.431,-1.5171 1.2967,-2.5983 1.9481,-4.0415 -1.8792,0.2142 -3.7484,1.6637 -4.7669,3.2485 -1.6537,2.5257 0.436,5.917 -1.9481,7.6497 -5.6277,0.9346 -11.5384,-6.7878 -16.7364,-2.3841 -0.5086,0.3633 -0.793,0.8719 -1.0861,1.4445 l -0.7192,0.7191 c -0.9346,-0.431 -1.8742,-0.3621 -2.8138,0.2205 l -0.7254,-0.3621 c -3.3863,-2.022 -6.4883,-6.0636 -6.3467,-10.605 0.1416,-1.9482 1.229,-3.7585 3.1032,-4.336 1.8053,-0.6465 4.0366,0 5.0501,1.4482 1.3756,2.4518 1.5121,5.6277 4.5465,6.4946 1.0861,0.1416 1.9468,0.2882 2.8138,0.3571 -1.229,-2.1636 0.6502,-4.2571 -0.1416,-6.4896 1.1538,2.2325 3.5329,4.9774 6.4207,4.326 1.9468,-0.3621 4.1104,-1.2228 5.1966,-2.5934 -3.3963,-2.5294 -3.1758,-9.386 -8.7308,-9.6704 -0.0777,-0.1466 -0.0777,-0.2932 0,-0.5776 2.017,0.4999 4.5414,0.2844 6.0586,-1.4482 1.3017,-1.2967 1.8792,-3.3175 3.6118,-4.1844 -2.1673,1.1551 -4.4775,-0.1416 -6.6461,-1.2967 -2.6673,-0.6452 -5.8431,0.431 -7.9328,2.2363 -5.4122,1.0824 -11.4758,3.8223 -14.0002,8.6569 -0.2894,0 0.1466,-0.2142 -0.0689,-0.362 2.5933,-5.4811 7.3603,-7.2814 10.0275,-12.909 -1.9481,-0.441 -4.2583,0.4297 -6.0636,1.6537 l -1.6587,1.4482 c 0.8657,-3.464 0.5036,-8.157 -2.3841,-10.9032 -1.5848,-1.5121 -3.533,-2.8827 -5.8432,-3.7484 1.5861,4.9824 -0.2154,10.0325 0,15.0826 z m 18.8361,60.5459 c -1.2967,-0.9396 -2.1674,-2.0258 -2.9604,-3.3964 -0.7191,0 -1.2228,-0.1415 -1.8742,-0.4309 -1.2278,1.9481 -2.3829,3.8962 -3.1759,6.0586 -0.1466,0.436 -0.2894,0.8719 -0.3621,1.3017 -0.2155,0.8619 -0.362,1.8015 -0.2844,2.7411 0.431,1.0085 1.1551,1.8053 2.2326,1.9481 0.7917,0 1.1538,-0.0689 1.5898,-0.7203 0.436,-0.7192 0.7191,-1.4433 1.0135,-2.2363 0.4297,-1.0073 0.9346,-2.0947 1.5121,-3.0343 0.5776,-0.9346 1.2967,-1.6537 2.309,-2.2313 z m 0,-38.2496 c -0.7191,-0.2894 -1.2967,-0.5775 -1.9519,-1.0085 l -1.0774,-1.0862 c -0.1466,-0.2155 -0.2932,-0.431 -0.4348,-0.6464 -0.2154,-0.2882 -0.4359,-0.6502 -0.5775,-1.0862 -0.5036,-1.0762 -0.9346,-2.2313 -1.4432,-3.3864 -0.2894,-0.5775 -1.0086,-0.793 -1.5861,-0.8707 -1.229,0 -1.8792,0.5087 -2.2413,1.5898 -0.4309,1.229 -0.1415,2.5996 0.2932,3.7535 0.1415,0.2843 0.2155,0.5048 0.362,0.793 0.862,1.8792 2.3102,3.4653 4.0379,4.6204 0.5775,-0.2155 1.155,-0.2944 1.8053,-0.2944 0.6464,-1.0073 1.7326,-1.8692 2.8138,-2.3779 z m -20.4948,-36.4393 -1.5898,-5.4121 5.3432,2.1623 c 2.8139,1.3017 5.56,3.1759 7.2137,5.7755 1.2278,1.8742 1.8053,3.895 1.9482,6.1313 1.3693,-0.5776 2.6033,-0.8657 3.9739,-0.9346 1.5848,0.0689 3.1019,0.4986 4.6191,0.793 -0.798,1.5171 -1.5172,3.1709 -2.4568,4.6191 0.7242,-0.1466 1.3706,-0.3621 2.0158,-0.5086 0.1478,-0.1466 0.3633,-0.2155 0.5826,-0.3621 2.5256,-1.7326 5.5549,-2.5933 8.6569,-2.0158 l 0.6515,0.0677 c 0.7191,0.4309 1.4432,0.793 2.1673,1.1551 0.7204,0.362 1.5861,0.6514 2.3791,0.4309 l 4.326,0.2205 -2.3052,4.0366 c -0.5036,0.3621 -0.8657,0.9396 -1.2278,1.5171 -0.8669,1.3706 -1.8015,2.5257 -3.1721,3.3964 0.862,1.224 1.5122,2.6673 2.1636,4.0378 0.5037,0.9396 0.9396,1.9532 1.7327,2.7449 l 2.0897,1.655 c -0.867,1.0123 -1.5861,2.0258 -2.5257,2.8188 l -0.793,0.6452 c -0.5037,0.2944 -0.9346,0.5099 -1.4433,0.7242 -1.0862,0.5048 -2.1636,0.793 -3.3913,1.0085 l -0.7192,0.1466 h -0.793 l -0.8707,-0.0727 c -0.7204,-0.1428 -1.2979,-0.3571 -1.9481,-0.6515 l 1.0085,2.0947 c 2.6033,0.8657 4.8346,2.3779 7.5069,3.0343 0.2881,0.0689 0.6502,0.1416 0.9396,0.1416 0.1465,-0.3621 0.0689,-0.8657 0.0689,-1.2277 0,-1.3706 0,-2.5946 0.362,-3.8963 l 0.2143,-0.5775 0.0789,-0.2143 c 0.6464,-1.3029 1.586,-2.3102 2.7399,-3.2498 0.8619,-0.6464 1.66,-1.1551 2.6722,-1.5171 0.6465,-0.2155 1.2929,-0.2844 2.0171,-0.431 l 0.9396,0.3621 c 1.9468,-0.7242 3.9689,-0.7242 5.9897,-0.1466 0.4309,0.2155 0.9396,0.3621 1.3705,0.6502 l 4.762,2.9617 -5.2718,1.5848 -0.4298,0.1478 -0.5048,0.2831 c 1.155,0.5776 2.022,1.3706 2.8827,2.3829 l 1.1551,1.7326 1.1551,1.7276 -0.5776,0.6565 -0.357,0.4297 c 0.7191,0.3621 1.4432,0.7254 2.1673,1.1551 1.0774,0.5776 1.9481,1.224 2.6673,2.3102 l 0.6514,0.431 0.5037,0.5775 c 0.4359,0.5776 0.793,1.0862 1.0811,1.7327 0.2894,0.7917 0.5099,1.5848 0.867,2.3778 l 4.4775,-0.2844 -2.5307,3.9639 c -0.0726,0.5099 -0.1415,1.0135 -0.2881,1.5172 l -0.5775,0.9396 c -0.6465,0.7254 -1.3706,1.3016 -2.3102,1.586 l -0.2155,2.4568 -4.9035,-0.0739 -0.7241,0.6514 0.793,4.762 c 0.8657,0.0726 1.7326,0 2.5983,0 l 0.9346,0.6502 0.872,0.8619 c 0.4297,0.5087 0.6452,1.0123 0.8607,1.6638 l 0.1465,0.6452 v 0.4359 c 0.6465,1.1551 0.7931,2.3829 0.6465,3.6808 l -0.793,3.8211 v 0.1478 l -0.2155,-0.1478 -1.5172,-1.2228 -1.4382,1.2228 -1.3017,1.0135 -0.5775,-1.0135 -1.1551,-2.1624 c -0.431,-0.0689 -0.7931,-0.1466 -1.1551,-0.2155 l -0.1416,0.0689 -1.2966,0.0777 c -1.5172,-0.0777 -2.8878,-0.436 -4.4049,-0.5086 -0.2882,-0.0689 -0.6465,-0.1466 -1.0085,-0.2155 -1.5849,-0.2882 -3.1759,-0.6515 -4.4037,-1.7326 l -0.793,-0.2882 -0.9396,-0.436 c -1.0085,-0.6464 -1.8016,-1.4382 -2.4518,-2.4517 -0.5775,0.5036 -1.1551,1.0135 -1.6587,1.5171 -0.872,0.7191 -1.6637,1.4433 -1.8066,2.5984 l 0.074,2.2312 c -1.224,0.441 -2.5257,0.7981 -3.8274,1.0875 0.7241,0.0676 1.3706,0.2154 2.0258,0.4297 1.4395,0.362 2.7412,1.0135 4.1117,1.5911 l -0.5775,2.7399 c -0.793,3.1082 -1.9481,5.9909 -3.8273,8.5153 1.2277,0.5776 2.1636,1.2967 3.1032,2.3102 0.5086,0.6515 0.7918,1.1551 1.1538,1.8742 0.431,1.229 0.7254,2.4568 1.0085,3.6808 -1.1551,0.362 -2.3102,0.7917 -3.5329,1.1551 -2.4568,0.7241 -4.8359,1.0862 -7.3603,1.0072 -1.1551,-0.0676 -2.2362,-0.2155 -3.3187,-0.4986 l -1.0862,-0.3621 c -1.0085,-0.4309 -1.9481,-0.8669 -2.8088,-1.4445 -0.7241,0 -1.4482,0 -2.0947,-0.0726 0.6465,1.5171 1.0085,3.0343 1.0085,4.6191 l -0.0689,2.1636 c -1.0861,0.2155 -2.0947,0.5087 -3.1019,0.5776 -0.872,0.0726 -1.665,0 -2.5257,-0.1466 -0.0789,0.362 -0.1466,0.7241 -0.2931,1.0862 -0.7931,1.8792 -2.0897,3.6068 -3.5342,5.0501 -0.5776,0.5086 -1.0812,0.8656 -1.7327,1.3016 -0.7917,0.5037 -1.6587,0.862 -2.5244,1.2967 l -6.4206,2.3102 3.1708,-5.9171 c 0.3621,-1.1551 -0.0689,-2.3089 -0.5036,-3.3963 -0.436,-1.0073 -0.9346,-2.0158 -1.3706,-3.102 -1.1551,0.798 -2.4517,1.3706 -3.7534,1.7326 l -2.7412,0.6503 -0.362,-1.2967 c -1.5848,1.6587 -3.6795,2.7411 -5.8431,3.3914 -1.5849,0.5036 -3.0344,0.7191 -4.6881,0.793 -1.0173,0 -1.9569,-0.0739 -2.9654,-0.2205 -2.2312,-0.2831 -4.3948,-0.7141 -6.5672,-1.0085 l 1.3017,1.586 -3.5342,1.4483 c -1.5848,0.5775 -2.8865,0.8619 -4.5502,0.6464 -0.7154,-0.1415 -1.2929,-0.362 -1.9482,-0.7191 -0.9396,-0.6514 -1.4394,-1.3756 -1.8792,-2.4517 -2.4467,-0.3621 -4.8258,-1.4495 -6.7727,-2.9617 l -1.6637,-1.5121 c 0.6452,-1.0123 1.2227,-2.0947 1.9469,-3.0343 0.9396,-1.1539 1.9481,-2.0208 3.1708,-2.8139 l 0.441,-0.2881 -0.3621,-0.8669 c -0.362,0 -0.6552,0 -1.0085,-0.0727 l -0.2155,0.6502 c -0.7241,1.5911 -1.8103,2.5996 -3.2485,3.3914 -1.8792,1.0085 -3.8962,1.3705 -5.9909,1.5171 l -3.2486,0.3621 1.5848,-8.9501 c -1.5171,0.0739 -2.8865,-0.3571 -4.3259,-0.7191 l -0.7242,-0.3621 c 0.8707,1.3693 1.0086,2.8865 0.6465,4.4037 -0.1378,0.4998 -0.3533,0.8619 -0.5776,1.2929 l -0.8619,0.8707 c -0.793,0.5775 -1.5861,0.9396 -2.5257,1.1551 -1.0861,0.2154 -2.0258,0.2154 -3.1019,0.0676 l -0.6465,-0.1466 c -0.6552,-0.357 -1.2327,-0.5725 -1.9581,-0.793 -0.7141,-0.2831 -1.5072,-0.4986 -2.309,-0.6452 -2.3101,-0.6465 -4.688,-1.5172 -6.1275,-3.5342 -0.7241,-1.0123 -1.155,-2.0258 -1.5171,-3.1809 -0.431,-1.5121 -0.5776,-3.0243 -0.4986,-4.688 0,-0.9396 0.1365,-1.8003 0.2155,-2.7399 -2.1737,-2.2413 -4.0529,-4.688 -5.7066,-7.2926 -3.6119,-6.0586 -5.7066,-12.9879 -5.7066,-20.2016 0.079,-4.4037 0.7242,-8.4465 1.9582,-12.1949 1.2916,-3.8273 3.2498,-7.4342 5.6965,-10.8255 1.1539,-1.5848 2.3779,-3.102 3.7585,-4.6192 -0.2945,-2.2362 -0.3721,-4.4048 0.0676,-6.6361 l 0.2155,-0.793 c 0.431,-1.5172 1.1551,-3.0343 2.2413,-4.1155 1.0085,-0.7981 1.9481,-1.3756 3.0932,-1.8053 1.6637,-0.6465 3.4652,-0.9396 5.129,-1.5861 0.5086,-0.1466 0.9396,-0.431 1.4482,-0.6514 l 1.0762,-0.2193 c 1.4495,-0.0689 2.6722,0.0777 3.9739,0.5826 0.6465,0.2881 1.0774,0.5725 1.655,1.0811 l 0.4309,0.5037 0.4398,0.9396 c 0.5675,1.5911 0.4309,3.3237 -0.5087,4.7619 0.2155,0.0739 0.5087,0.1466 0.7242,0.2882 l 1.224,-0.1416 2.4567,-0.0727 c -0.0789,-1.7326 0.1466,-3.6068 -0.362,-5.2705 -0.431,-1.224 -1.0875,-2.453 -1.5861,-3.6019 l 4.0428,-0.2944 c 3.2385,0 6.4207,1.3017 8.583,3.6119 h 0.9397 c -1.3017,-0.8707 -2.3779,-1.8053 -3.3175,-2.9604 l -1.5171,-1.8742 1.7326,-1.9482 c 1.9469,-2.0258 4.5414,-3.1032 7.2813,-3.7584 0.3621,-0.6464 0.8707,-1.224 1.4483,-1.7326 1.0085,-0.8607 2.2325,-1.2917 3.3863,-1.6537 0.872,-0.1466 1.5172,-0.2155 2.3891,-0.2155 0.5776,0.0689 1.0073,0.2155 1.5849,0.357 l 2.017,1.0136 -0.9396,4.257 c 0.5863,0.1416 1.1551,0.1416 1.7314,0.0689 2.027,-0.1466 3.9062,-0.7241 5.8531,-1.0085 1.3017,-0.431 2.5257,-0.6502 3.9639,-0.6502 l 1.3017,0.1416 c 2.7411,0.4347 5.119,1.5171 7.2926,3.1019 l 0.4986,-2.1623 2.6723,0.1465 c 1.155,0.2155 2.3101,0.5037 3.3174,1.224 0.2944,-2.6672 0.5775,-5.3344 0.0739,-8.0067 z m -55.4219,32.0344 c 0.5776,0.2205 0.793,0.436 0.793,0.7242 0.0777,0.0739 0.0777,0.2154 0,0.362 0,0.2894 -0.1478,0.793 -0.7153,0.9396 -0.6552,0.1428 -1.5948,0.2844 -2.6723,-0.0777 V 758.47 c 0.7931,-0.2205 1.9482,-0.436 2.5946,-0.2205 z m -6.1275,-2.0897 c 0.1366,-0.1415 0.2155,-0.2881 0.2155,-0.4347 l 0.0676,-0.1428 c 0,-0.1416 0,-0.3571 -0.1465,-0.5776 -0.0689,-0.2142 -0.2155,-0.357 -0.3621,-0.4347 -0.1366,-0.0689 -0.2844,-0.1428 -0.4986,-0.1428 h -0.431 c 0.1366,-0.0727 0.2155,-0.1416 0.2155,-0.2142 0,-0.074 0.0677,-0.1429 0.0677,-0.2894 0,-0.1466 0.0689,-0.2155 0.0689,-0.2882 v -1.229 l -1.2228,0.6515 v 1.2966 c 0,0.1466 0,0.2932 -0.0689,0.3621 0,0.0739 -0.0789,0.1466 -0.2155,0.2155 h -0.0789 l -0.7241,-1.3706 -1.0073,0.5775 0.7918,1.5861 0.9396,1.7314 1.7326,-0.8607 c 0.2944,-0.1466 0.5099,-0.2931 0.6565,-0.436 z m -8.7308,1.2967 2.3001,2.9616 2.4568,-1.8742 -0.5087,-0.6514 -1.5071,1.229 -0.3633,-0.5099 1.4395,-1.0812 -0.5087,-0.6502 -1.4394,1.0862 -0.431,-0.5776 1.5861,-1.229 -0.5087,-0.6502 z m -0.8707,3.0343 c -0.2945,0 -0.5776,0.1478 -0.9397,0.5049 l -0.4309,0.4347 -1.0085,-0.9396 -0.8018,0.8619 0.7241,0.7242 1.9469,1.8792 1.3806,-1.3706 c 0.1365,-0.2205 0.2844,-0.3621 0.352,-0.5086 0.0789,-0.1466 0.0789,-0.2844 0.0789,-0.431 0,-0.2932 -0.1465,-0.5775 -0.362,-0.793 -0.2944,-0.2932 -0.5776,-0.4348 -0.9396,-0.3621 z m -5.2756,3.6808 2.4655,1.5171 -2.8188,-0.9396 -0.5087,0.793 2.0258,2.1624 -2.3878,-1.5848 -0.4987,0.7918 3.1709,2.022 0.793,-1.2979 -1.586,-1.7314 2.2413,0.7241 0.783,-1.234 -3.1709,-2.0158 z m -4.0328,7.7223 3.5329,1.3706 1.1551,-2.8878 -0.7241,-0.2894 -0.7141,1.8066 -0.5876,-0.2155 0.6552,-1.6637 -0.7241,-0.2844 -0.6452,1.655 -0.7241,-0.2844 0.7917,-1.8792 -0.7917,-0.2882 z m -0.3621,2.5933 c -0.2155,0.1466 -0.3621,0.2944 -0.5775,0.5087 -0.1466,0.2154 -0.2155,0.5048 -0.2932,0.8619 -0.1378,0.5775 -0.0689,1.0862 0.0777,1.3706 0.2155,0.2931 0.4998,0.5086 0.8619,0.5775 l 0.2932,-1.0774 c -0.1466,-0.0727 -0.2932,-0.1466 -0.3621,-0.2155 -0.1466,-0.1466 -0.2155,-0.2931 -0.1466,-0.5775 0,-0.1466 0.0777,-0.2193 0.2155,-0.2932 0.0777,-0.0689 0.1466,-0.1416 0.2932,-0.1416 0.0689,0.0727 0.1365,0.0727 0.2154,0.2155 0.069,0.0727 0.069,0.2882 0.069,0.6502 0.0676,0.5049 0.1465,0.862 0.2931,1.1551 0.1466,0.2155 0.3621,0.3621 0.6465,0.431 0.1465,0.0727 0.362,0 0.5763,-0.0689 0.1478,-0.0777 0.3633,-0.2155 0.5098,-0.436 0.1366,-0.1415 0.2155,-0.4347 0.2832,-0.8657 0.0689,-0.4309 0.0689,-0.8657 -0.0677,-1.1551 -0.0789,-0.2155 -0.362,-0.4309 -0.7253,-0.5775 l -0.2832,1.0862 c 0.1366,0.0689 0.2832,0.1378 0.3621,0.2155 0,0.1428 0.0689,0.2843 0,0.4309 0,0.1466 -0.0789,0.2155 -0.1466,0.2894 l -0.2155,0.0727 -0.1466,-0.1466 c 0,-0.0689 -0.0789,-0.2155 -0.0789,-0.431 0,-0.5086 0,-0.8657 -0.0676,-1.0861 -0.0689,-0.2844 -0.2155,-0.431 -0.3634,-0.5776 -0.1365,-0.1416 -0.2831,-0.2155 -0.5086,-0.2831 -0.2155,0 -0.4986,0 -0.7141,0.0676 z m 0,5.4134 c 0,0.3621 0.2831,0.5763 0.6465,0.5763 0.2931,0 0.5762,-0.2142 0.5762,-0.5763 0,-0.3633 -0.2831,-0.6464 -0.5762,-0.6464 -0.3634,0 -0.6465,0.2831 -0.6465,0.6464 z m -1.5172,1.6638 v 1.0072 l 2.8878,-0.0676 -2.8878,0.7917 v 0.862 l 2.8878,0.7241 h -2.8878 l 0.079,0.9396 h 3.7484 v -1.5898 l -2.3102,-0.5049 2.3102,-0.6502 -0.0689,-1.5121 z m 1.8003,6.5672 c -0.2142,0.0689 -0.4297,0.1416 -0.6452,0.2831 -0.1465,0.074 -0.2944,0.2155 -0.362,0.436 -0.1466,0.1416 -0.2155,0.3571 -0.2155,0.5036 0,0.2894 0,0.5099 0.0689,0.867 0.0777,0.1416 0.0777,0.357 0.2142,0.5775 0.079,0.1416 0.1479,0.3571 0.2255,0.4348 0.1378,0.1428 0.2844,0.2844 0.431,0.3583 0.2155,0.0726 0.3621,0.0726 0.4986,0.1415 0.2155,0 0.441,-0.0689 0.6565,-0.0689 l 2.1623,-0.5775 -0.2931,-1.0862 -2.2313,0.5086 c -0.2155,0.0689 -0.362,0.0689 -0.5099,0 -0.1365,-0.0726 -0.2142,-0.2154 -0.2831,-0.4297 -0.0689,-0.2155 0,-0.3633 0.0689,-0.5099 0.0777,-0.1465 0.2142,-0.2155 0.4297,-0.2831 l 2.2413,-0.5776 -0.2831,-1.0861 z m 2.6723,5.1917 0.362,1.0135 c 0.1479,0 0.2945,0 0.431,0.0689 0.0789,0.0726 0.1466,0.1466 0.2155,0.2931 0.0777,0.1366 0.0777,0.2155 0.0777,0.3571 l -0.1466,0.1416 h -0.2155 c -0.0676,-0.0677 -0.1466,-0.1416 -0.2931,-0.3621 -0.2844,-0.4297 -0.4987,-0.7191 -0.7142,-0.8607 -0.1465,-0.1466 -0.362,-0.2894 -0.5775,-0.2894 -0.1466,0 -0.3621,0 -0.5775,0.0739 -0.2155,0.0689 -0.3621,0.2155 -0.5087,0.431 -0.1378,0.2155 -0.2155,0.431 -0.2155,0.7241 0,0.2155 0,0.5776 0.1466,0.8607 0.2831,0.5776 0.5776,1.0135 0.8607,1.0874 0.3621,0.1416 0.6565,0.2143 1.0085,0.0677 l -0.2831,-1.0812 c -0.2155,0.0739 -0.3633,0.0739 -0.5099,0.0739 -0.1366,-0.0739 -0.2832,-0.2154 -0.3621,-0.4309 -0.0676,-0.1466 -0.0676,-0.2944 -0.0676,-0.3621 0.0676,-0.1466 0.1465,-0.2155 0.2142,-0.2944 l 0.2944,0.0789 c 0.1466,0 0.2831,0.2155 0.431,0.431 0.2831,0.4297 0.5763,0.7241 0.8607,0.8657 0.2255,0.1416 0.5086,0.1416 0.803,0 0.1366,-0.0739 0.2831,-0.1416 0.4297,-0.3621 0.1479,-0.1415 0.1479,-0.357 0.2155,-0.5775 0,-0.2882 -0.0676,-0.5726 -0.2155,-0.9346 -0.2242,-0.436 -0.4297,-0.7241 -0.7241,-0.9396 -0.2155,-0.1466 -0.5776,-0.2155 -0.9396,-0.0739 z m 2.1636,4.5464 c -0.2155,0.0689 -0.352,0.2155 -0.431,0.3621 -0.0689,0.2155 -0.0689,0.362 -0.0689,0.5049 0,0.1415 0,0.2881 0.0689,0.4347 l -0.2931,-0.1466 -0.2055,-0.0727 c -0.1478,0 -0.2944,0 -0.2944,0 l -1.2228,0.1416 0.2155,0.2932 0.4297,0.793 1.3706,-0.0739 c 0.1466,-0.0727 0.2932,0 0.3621,0 0.0689,0 0.1466,0.0739 0.2155,0.2205 l 0.0689,0.0689 -1.2929,0.793 0.5775,1.0123 3.1721,-2.0208 -0.4309,-0.793 -0.5776,-0.8707 c -0.2155,-0.2844 -0.362,-0.4999 -0.5086,-0.6465 -0.2155,-0.1466 -0.3533,-0.2155 -0.5776,-0.2155 -0.2154,0 -0.362,0.0689 -0.5775,0.2155 z m 2.3102,4.9824 c -0.2844,0.3621 -0.4999,0.6452 -0.6465,0.9346 0,0.1416 -0.0776,0.3621 -0.0776,0.5037 0,0.1466 0.0776,0.2944 0.0776,0.436 0.0777,0.2881 0.2844,0.5725 0.5776,0.8656 0.2844,0.3621 0.5775,0.5776 0.8707,0.6465 0.2844,0.0777 0.6464,0.1466 0.9296,0 0.3633,-0.0689 0.6564,-0.2155 1.0085,-0.5776 0.441,-0.4309 0.6565,-0.8606 0.6565,-1.3705 0,-0.5037 -0.2155,-0.9396 -0.6565,-1.3694 -0.431,-0.4309 -0.8607,-0.6464 -1.3706,-0.6464 -0.4986,-0.0739 -0.9296,0.1416 -1.3693,0.5775 z m 4.5502,4.4726 0.0689,0.2155 0.1466,0.1465 c -0.1466,0 -0.2832,-0.0776 -0.3621,-0.0776 l -0.2155,0.0776 c -0.1466,0 -0.2931,0.069 -0.2931,0.069 l -1.1551,0.5086 1.0862,0.793 1.1551,-0.5086 c 0.1465,-0.0689 0.2843,-0.0689 0.362,-0.0689 0.1466,0 0.2155,0 0.2844,0.0689 l 0.0777,0.0726 -0.9396,1.2291 0.9396,0.7241 2.3102,-2.9654 -0.0777,-0.0689 -1.4395,-1.1551 c -0.2931,-0.2155 -0.5086,-0.3621 -0.7241,-0.431 -0.2155,-0.0727 -0.3621,-0.0727 -0.5776,0 -0.2154,0.0689 -0.362,0.1428 -0.4986,0.3621 -0.1478,0.1378 -0.2155,0.3583 -0.2155,0.4998 -0.0789,0.1466 0,0.3621 0.0677,0.5087 z m 5.0513,3.9639 0.5776,0.2944 -0.6465,1.2227 1.0762,0.5087 1.4495,-2.9604 0.2142,-0.436 -1.7314,-0.8607 c -0.362,-0.1466 -0.7241,-0.2155 -0.9396,-0.1466 -0.2944,0.1466 -0.5099,0.2882 -0.7241,0.6503 -0.1478,0.2894 -0.1478,0.5725 -0.1478,0.793 l 0.0789,0.1416 c 0.1366,0.2944 0.3621,0.5775 0.793,0.793 z m 8.8198,-48.8647 c -2.1235,-0.1441 -4.2382,0.9446 -6.2954,1.8166 -1.0861,0.5086 -2.7399,1.3016 -3.2485,1.3016 -0.5775,0.0727 -1.0085,0 -1.5172,-0.2154 -0.4998,-0.2944 -0.9396,-0.6515 -1.4394,-1.1551 1.4394,-1.4445 3.1708,-2.7412 5.3344,-3.974 2.0947,1.7327 4.6981,2.2413 7.4392,1.3756 0.9396,-0.4359 1.7327,-1.229 1.8793,-2.2375 v -0.2881 c -0.079,-1.1551 -0.8707,-1.5911 -1.8104,-2.1674 -2.1636,-0.4999 -4.3272,-0.0689 -6.353,0.8707 -1.0085,0.431 -1.9381,1.0085 -2.8777,1.5848 -1.2327,0.793 -2.3878,1.66 -3.3963,2.5257 -6.1363,5.6276 -9.6705,12.3427 -9.6705,21.1412 0,8.7308 3.5342,15.4447 9.6705,21.1462 0.9396,0.793 2.0257,1.5911 3.1708,2.3829 0.9396,0.5775 1.9481,1.155 3.1032,1.7326 2.0258,0.9346 4.1894,1.3706 6.353,0.793 0.9397,-0.5086 1.7314,-0.9396 1.8104,-2.0947 v -0.4309 c -0.2255,-1.0123 -1.0186,-1.7314 -1.8793,-2.0947 -2.7411,-0.8657 -5.3445,-0.4298 -7.4392,1.3705 -2.1636,-1.3016 -3.895,-2.5244 -5.3344,-4.0415 0.4998,-0.5049 0.9396,-0.862 1.4394,-1.0825 0.5087,-0.2881 0.9397,-0.2881 1.5172,-0.2881 0.5086,0.0726 2.1624,0.8657 3.2485,1.3017 2.2501,1.0185 4.5703,2.1736 6.8955,1.7414 0.8169,0.4109 1.655,0.813 2.5107,1.2077 0.4197,1.2904 0.8707,3.3963 0.0501,3.9025 -2.3791,1.4482 -3.8274,3.3174 -5.2756,5.6276 -2.1549,1.4483 -4.4638,0.793 -6.7051,0.2932 -13.2823,-6.3518 -19.8395,-19.0566 -19.9961,-31.4669 0.1566,-12.4793 6.7138,-25.1101 19.9961,-31.5358 2.2413,-0.4986 4.5502,-1.0762 6.7051,0.2944 1.4482,2.3778 2.8965,4.1832 5.2756,5.6276 0.7642,0.4698 0.4259,2.3754 0.0363,3.6908 -1.0849,0.416 -2.1523,0.8645 -3.1972,1.3443" /></g></g></g></g></svg>
