<?xml version="1.0" encoding="UTF-8" standalone="no"?>
<svg
   version="1.1"
   id="svg2"
   xml:space="preserve"
   width="340.15759"
   height="80.551994"
   viewBox="0 0 340.15759 80.551993"
   xmlns="http://www.w3.org/2000/svg"
   xmlns:svg="http://www.w3.org/2000/svg"
   xmlns:rdf="http://www.w3.org/1999/02/22-rdf-syntax-ns#"
   xmlns:cc="http://creativecommons.org/ns#"
   xmlns:dc="http://purl.org/dc/elements/1.1/"><metadata
     id="metadata8"><rdf:RDF><cc:Work
         rdf:about=""><dc:format>image/svg+xml</dc:format><dc:type
           rdf:resource="http://purl.org/dc/dcmitype/StillImage" /></cc:Work></rdf:RDF></metadata><defs
     id="defs6"><clipPath
       clipPathUnits="userSpaceOnUse"
       id="clipPath46"><path
         d="M 0,1190.55 H 841.89 V 0 H 0 Z"
         id="path44" /></clipPath></defs><g
     id="g10"
     transform="matrix(1.3333333,0,0,-1.3333333,-138.97813,1143.0273)"><g
       id="g40"><g
         id="g42"
         clip-path="url(#clipPath46)"><g
           id="g1816"
           transform="translate(251.2373,844.6196)"><path
             d="M 0,0 V 0 C 0,0.16 -0.117,0.29 -0.26,0.29 H -7.705 C -7.847,0.29 -7.964,0.16 -7.965,0 v -19.649 c 0,-0.088 -0.084,-8.754 -7.389,-8.754 -7.379,0 -7.464,8.423 -7.464,8.781 l -10e-4,19.621 c 0,0.16 -0.117,0.291 -0.26,0.291 h -7.444 c -0.143,0 -0.259,-0.13 -0.26,-0.29 v -20.349 c -0.002,-0.065 -0.129,-6.186 3.769,-10.537 2.684,-2.997 6.647,-4.516 11.778,-4.516 5.007,0 8.878,1.493 11.506,4.438 3.885,4.356 3.732,10.524 3.73,10.586 z"
             style="fill:#231f20;fill-opacity:1;fill-rule:nonzero;stroke:none"
             id="path1818" /></g><g
           id="g1820"
           transform="translate(287.981,844.9092)"><path
             d="M 0,0 H -7.512 C -7.654,0 -7.77,-0.129 -7.771,-0.288 v -11.379 c 0,-0.624 -0.127,-0.759 -0.713,-0.759 l -13.292,-10e-4 c -0.586,0.003 -0.713,0.137 -0.713,0.76 V -0.291 C -22.49,-0.131 -22.606,0 -22.75,0 h -7.464 c -0.144,0 -0.26,-0.131 -0.26,-0.292 l -0.003,-34.596 0.003,-0.131 c 0,-0.16 0.116,-0.291 0.26,-0.291 h 7.465 c 0.143,0 0.259,0.131 0.26,0.291 V -20.7 c 0,0.624 0.127,0.76 0.713,0.76 h 13.292 c 0.586,-10e-4 0.713,-0.136 0.713,-0.76 v -14.323 c 0.001,-0.157 0.117,-0.287 0.258,-0.287 H 0 c 0.143,0 0.259,0.13 0.26,0.289 L 0.261,-0.292 C 0.26,-0.131 0.144,0 0,0"
             style="fill:#231f20;fill-opacity:1;fill-rule:nonzero;stroke:none"
             id="path1822" /></g><g
           id="g1824"
           transform="translate(312.7373,823.3447)"><path
             d="M 0,0 C -0.121,-0.265 -0.391,-0.269 -0.506,-0.27 H -8.107 -8.109 C -8.224,-0.269 -8.494,-0.265 -8.615,0 -8.684,0.149 -8.666,0.358 -8.618,0.499 l 3.894,11.403 c 0.048,0.131 0.14,0.301 0.389,0.301 0.092,0 0.202,-0.025 0.289,-0.119 l 0.025,0.039 0.063,-0.182 c 0.008,-0.018 0.015,-0.038 0.021,-0.059 L -3.934,11.874 0.004,0.493 C 0.047,0.362 0.072,0.156 0,0 M 12.928,-13.401 0.992,21.406 c -0.037,0.096 -0.07,0.157 -0.259,0.157 l -9.898,0.001 C -9.355,21.563 -9.389,21.5 -9.428,21.395 l -11.954,-34.85 c -0.022,-0.079 -0.022,-0.156 0.004,-0.204 0.037,-0.072 0.143,-0.084 0.186,-0.087 h 7.104 c 0.458,0.004 0.612,0.231 0.766,0.708 l 1.642,4.712 c 0.244,0.709 0.482,0.935 0.64,1.043 0.04,0.028 0.08,0.05 0.121,0.068 0.089,0.039 0.192,0.061 0.288,0.061 H 2.008 c 0.098,0 0.195,-0.02 0.285,-0.06 0.039,-0.017 0.088,-0.044 0.125,-0.069 0.251,-0.172 0.461,-0.517 0.644,-1.055 l 1.61,-4.699 c 0.156,-0.478 0.31,-0.705 0.769,-0.709 h 7.321 c 0.038,0.003 0.144,0.015 0.181,0.087 0.026,0.051 0.025,0.136 -0.004,0.227 z"
             style="fill:#231f20;fill-opacity:1;fill-rule:nonzero;stroke:none"
             id="path1826" /></g><g
           id="g1828"
           transform="translate(216.7617,844.8745)"><path
             d="m 0,0 -7.986,0.033 c -0.329,0 -0.486,-0.175 -0.575,-0.306 l -9.679,-16.955 c -0.046,-0.076 -0.137,-0.227 -0.339,-0.227 -0.196,0 -0.276,0.128 -0.319,0.197 l -9.598,16.873 c -0.014,0.024 -0.029,0.052 -0.048,0.081 -0.09,0.142 -0.248,0.33 -0.587,0.334 l -7.994,-0.135 -0.059,0.001 c -0.046,-0.002 -0.13,-0.01 -0.158,-0.06 -0.071,-0.128 -0.02,-0.224 -0.014,-0.235 l 14.478,-24.765 -0.005,-0.003 c 0.149,-0.174 0.297,-0.653 0.297,-1.033 v -8.784 c 0,-0.16 0.117,-0.291 0.26,-0.291 h 7.49 c 0.143,0 0.26,0.13 0.26,0.291 v 8.784 c 0,0.579 0.262,0.997 0.315,1.075 L 0.095,-0.398 0.092,-0.396 0.155,-0.294 C 0.16,-0.285 0.211,-0.187 0.141,-0.059 0.112,-0.007 0.025,-0.001 0,0"
             style="fill:#231f20;fill-opacity:1;fill-rule:nonzero;stroke:none"
             id="path1830" /></g><g
           id="g1832"
           transform="translate(359.0908,844.9092)"><path
             d="m 0,0 h -7.333 c -0.14,0 -0.256,-0.128 -0.258,-0.287 l -0.011,-21.02 c -10e-4,-0.11 -0.004,-0.336 -0.235,-0.434 -0.19,-0.082 -0.406,-0.019 -0.515,0.149 l -13.341,21.28 C -21.788,-0.148 -21.912,0 -22.177,0 h -8.016 c -0.143,0 -0.26,-0.13 -0.261,-0.29 v -34.73 c 0.001,-0.159 0.118,-0.289 0.26,-0.29 h 7.312 c 0.141,0.001 0.257,0.132 0.257,0.291 l 0.015,20.348 c 0.004,0.159 0.038,0.349 0.276,0.436 0.108,0.04 0.315,0.068 0.478,-0.172 l 13.293,-20.641 c 0.072,-0.119 0.16,-0.262 0.534,-0.262 h 8.031 c 0.141,0.001 0.256,0.13 0.258,0.289 l 0.001,34.73 C 0.261,-0.13 0.144,0 0,0"
             style="fill:#231f20;fill-opacity:1;fill-rule:nonzero;stroke:none"
             id="path1834" /></g><g
           id="g1836"
           transform="translate(137.4238,800.1489)"><path
             d="M 0,0 C 16.523,0 29.906,12.048 29.906,26.915 29.906,41.784 16.523,53.807 0,53.807 -16.494,53.807 -29.893,41.784 -29.893,26.915 -29.893,12.048 -16.494,0 0,0"
             style="fill:#ffffff;fill-opacity:1;fill-rule:nonzero;stroke:none"
             id="path1838" /></g><g
           id="g1840"
           transform="translate(110.8296,827.0635)"><path
             d="M 0,0 C 0,13.006 11.925,23.609 26.594,23.609 41.252,23.609 53.187,13.006 53.187,0 53.187,-13.014 41.252,-23.609 26.594,-23.609 11.925,-23.609 0,-13.014 0,0 m -6.596,0 c 0,-16.647 14.888,-30.207 33.19,-30.207 18.314,0 33.191,13.56 33.191,30.207 0,16.646 -14.877,30.207 -33.191,30.207 C 8.292,30.207 -6.596,16.646 -6.596,0"
             style="fill:#ffffff;fill-opacity:1;fill-rule:nonzero;stroke:none"
             id="path1842" /></g><g
           id="g1844"
           transform="translate(137.4277,853.1162)"><path
             d="m 0,0 c -16.016,0 -29.044,-11.684 -29.044,-26.045 0,-14.372 13.028,-26.066 29.044,-26.066 16.01,0 29.036,11.694 29.036,26.066 C 29.036,-11.684 16.01,0 0,0 m 0,-53.79 c -16.94,0 -30.722,12.447 -30.722,27.745 0,15.287 13.782,27.723 30.722,27.723 16.936,0 30.714,-12.436 30.714,-27.723 C 30.714,-41.343 16.936,-53.79 0,-53.79"
             style="fill:#231f20;fill-opacity:1;fill-rule:nonzero;stroke:none"
             id="path1846" /></g><g
           id="g1848"
           transform="translate(145.9829,846.4883)"><path
             d="m 0,0 c 0,0 -0.017,-0.292 0.165,-0.292 0.175,0.015 0.304,0.208 0.249,0.546 -0.096,0.647 -0.669,1.196 -0.669,1.196 0,0 -0.423,0.478 -0.806,0.392 C -1.684,1.705 -1.554,1.46 -1.492,1.308 -1.428,1.158 -0.923,1.061 -0.654,0.861 -0.383,0.669 -0.282,0.399 -0.186,0.313 -0.09,0.234 0,0 0,0"
             style="fill:#231f20;fill-opacity:1;fill-rule:nonzero;stroke:none"
             id="path1850" /></g><g
           id="g1852"
           transform="translate(150.2583,843.3437)"><path
             d="m 0,0 c -0.255,0.007 -0.207,-0.168 -0.176,-0.264 0.032,-0.103 0.806,-0.332 0.886,-0.485 0.064,-0.152 0.382,-0.455 0.382,-0.455 0,0 0.994,-0.415 1.201,-1.487 0,0 0.033,-0.812 0.12,-0.934 0.175,-0.214 0.725,-0.177 0.797,-0.222 0.087,-0.064 0.215,-0.064 0.421,-0.152 0.217,-0.104 0.345,-0.062 0.463,-0.126 0.121,-0.074 0.524,-0.431 0.669,-0.472 0.36,-0.144 0.701,-0.801 0.812,-0.962 0.112,-0.159 0.344,-0.52 0.487,-0.996 0.054,-0.192 0.223,-0.431 0.223,-0.431 0,0 0.064,-0.129 0.213,-0.063 0.145,0.063 0.186,0.216 0.176,0.413 -0.022,0.193 -0.637,1.238 -0.637,1.238 0,0 -0.334,0.531 -0.517,0.594 C 5.351,-4.741 5.33,-4.619 5.13,-4.158 4.922,-3.705 3.743,-2.374 3.455,-2.182 3.18,-2 2.548,-1.913 2.143,-1.496 1.937,-1.274 1.793,-0.79 1.481,-0.596 1.173,-0.413 0.255,-0.01 0,0"
             style="fill:#231f20;fill-opacity:1;fill-rule:nonzero;stroke:none"
             id="path1854" /></g><g
           id="g1856"
           transform="translate(143.7114,827.2388)"><path
             d="m 0,0 c 0,0 -0.311,-0.265 -0.692,-0.317 -0.382,-0.065 -2.097,0.261 -1.602,-1.045 0,0 0.088,-0.302 0.383,-0.575 0.39,-0.382 1.219,-0.659 1.346,-0.891 0.119,-0.239 0.685,-0.516 0.898,-0.595 0.209,-0.08 0.059,-1.189 0.059,-1.189 0,0 0,-0.414 0.387,-0.357 0.383,0.065 1.093,0.542 1.18,0.622 0.19,0.19 0.329,1.806 0.169,2.213 C 1.959,-1.729 0.653,-1.145 0.462,-0.806 0.254,-0.473 0.28,-0.105 0.19,0 0.12,0.103 0,0 0,0"
             style="fill:#00953b;fill-opacity:1;fill-rule:nonzero;stroke:none"
             id="path1858" /></g><g
           id="g1860"
           transform="translate(145.4468,827.7085)"><path
             d="m 0,0 c 0,0 -0.509,-0.23 -0.319,-0.59 0.192,-0.342 1.1,-0.509 1.1,-0.509 0,0 1.156,-0.755 1.156,-1.33 0,-0.582 -0.072,-1.448 -0.072,-1.618 0,-0.175 0.126,-1.327 0.072,-1.512 -0.072,-0.167 -0.333,-0.576 -1.029,-0.51 0,0 -0.643,-0.066 -0.07,-0.406 0.579,-0.344 0.851,-0.285 0.972,-0.344 0.112,-0.063 0.175,-0.301 0.254,-0.35 0.065,-0.053 0.83,-0.468 1.217,-0.356 0.376,0.118 0.631,-0.249 1.094,0.477 0.286,0.447 0.078,2.517 -0.042,3.081 -0.197,0.884 -0.207,1.29 -0.223,1.461 -0.023,0.61 0.223,0.674 0.223,0.674 0,0 0.154,0.27 -0.19,0.249 C 3.786,-1.615 2.463,-1.562 2.145,-1.358 1.826,-1.163 1.115,-0.479 1.02,-0.367 0.924,-0.247 0,0 0,0"
             style="fill:#231f20;fill-opacity:1;fill-rule:nonzero;stroke:none"
             id="path1862" /></g><g
           id="g1864"
           transform="translate(132.3784,826.9214)"><path
             d="m 0,0 -0.287,-0.08 c 0,0 -0.391,-0.2 -0.615,-1.045 -0.079,-0.287 -0.159,-0.309 -0.238,-0.43 -0.07,-0.134 -0.112,-0.798 -0.112,-0.798 0,0 -0.165,-0.53 0.089,-0.53 0.254,0 0.621,0.293 0.621,0.293 0,0 0.733,0.7 0.765,1.035 C 0.245,-1.333 0.262,-0.041 0,0"
             style="fill:#00953b;fill-opacity:1;fill-rule:nonzero;stroke:none"
             id="path1866" /></g><g
           id="g1868"
           transform="translate(136.0493,827.6123)"><path
             d="m 0,0 c -0.054,-0.494 -0.262,-0.214 -0.198,-0.691 0.064,-0.478 0.286,-0.695 0.286,-0.695 0.421,-0.34 0.58,-2.66 0.58,-2.66 0,0 0.16,-0.804 0.519,-0.309 0.342,0.484 0.51,2.142 0.447,2.252 -0.064,0.112 0,0.541 0,0.541 0.734,2.335 0.23,2.374 0.127,2.606 C 1.666,1.274 1.187,1.529 0.732,1.417 0.286,1.306 0,0.759 0,0.759 -0.112,0.535 0.025,0.328 0,0 m 1.57,3.792 c 0,0 0.51,-0.112 0.828,0.176 0.326,0.279 0.581,0.279 0.581,0.279 l 1.29,0.196 c 0,0 0.382,-0.085 0.534,-0.317 C 4.953,3.88 4.746,3.435 5.042,2.867 5.33,2.293 6.451,1.594 6.514,1.306 6.579,1.014 6.451,1.417 6.769,0.902 7.088,0.382 6.579,0.328 6.579,0.328 c 0,0 -2.088,0.054 -2.412,-0.987 0,0 -0.813,-1.483 0.993,-2.66 0,0 0.647,-0.584 1.163,-0.749 0,0 1.02,-0.462 0,-1.109 L 5.871,-5.343 c 0,0 -0.52,-0.344 -0.902,-0.696 -0.382,-0.339 -0.891,-1.272 -0.636,-2.138 0.254,-0.862 0.636,-1.555 0.636,-1.784 0,-0.224 0.256,-1.397 0.256,-1.795 0,-0.415 -0.447,-2.151 -0.256,-3.122 0.191,-0.977 1.284,-2.205 1.674,-2.596 0.38,-0.416 0.573,-0.701 0.573,-0.701 0,0 4.692,-1.441 5.011,-1.498 0.325,-0.054 0.573,-0.063 0.707,-0.118 0.143,-0.057 0.573,-0.286 0.573,-0.574 0,-0.285 -0.605,-0.7 -0.7,-0.821 -0.095,-0.103 -0.08,-0.166 -0.199,-0.276 -0.11,-0.113 -0.986,-0.632 -1.219,-0.702 -0.212,-0.063 -0.27,-0.04 -0.388,-0.122 -0.105,-0.063 -0.25,-0.277 -0.25,-0.277 0,0 -0.318,-0.375 -0.573,-0.471 -0.261,-0.079 -0.532,-0.111 -0.644,-0.166 -0.11,-0.064 -0.254,-0.342 -0.391,-0.407 -0.133,-0.055 -0.452,-0.007 -0.573,-0.055 -0.23,-0.11 0,-0.75 -1.863,-0.462 -1.865,0.287 -1.792,-0.074 -1.792,-0.074 0,0 -0.653,-0.509 -1.48,-0.275 -0.839,0.228 -1.355,-0.457 -1.738,-0.52 -0.392,-0.065 -2.892,0.748 -2.892,0.748 l -0.516,0.287 c 0,0 -1.083,0.351 -1.338,0.296 -0.265,-0.058 -2.129,0.287 -3.186,0.595 -0.989,0.281 -2.448,0.703 -2.565,1.1 -0.127,0.399 0.117,0.743 0.373,0.862 0.255,0.11 0.965,0.11 1.411,0.294 0.446,0.177 1.774,1.711 2.294,1.936 0.51,0.247 0.638,0.525 0.898,1.284 0.248,0.753 1.752,2.696 1.794,2.945 0.255,1.329 -0.239,0.956 -0.127,2.955 0.127,2.365 0.898,2.484 0.382,2.817 -0.424,0.297 -0.765,0.697 -0.892,1.85 0,0 -0.075,0.301 -0.447,0.36 -0.39,0.055 -1.809,-0.526 -3.344,-0.234 0,0 -1.03,-0.35 -1.227,-0.292 -0.191,0.054 -0.574,0.526 -0.638,0.923 -0.056,0.398 -0.319,0.804 -0.056,1.339 0.248,0.51 0.694,1.025 0.694,1.025 0,0 0.134,0.424 0.325,0.933 0,0 0.456,0.511 0.392,0.867 -0.073,0.345 -0.128,0.807 -1.035,0.52 0,0 -0.175,-0.168 -0.376,-0.318 -0.214,-0.161 -1.059,-0.266 -1.377,-0.441 -0.328,-0.175 -1.259,-0.738 -1.259,-0.738 0,0 -0.605,-0.431 -0.78,-0.701 -0.169,-0.27 -0.504,-1.682 -0.504,-1.682 0,0 -0.324,-2.312 -0.397,-2.534 -0.055,-0.237 -0.055,-1.279 -0.055,-1.279 0,0 -0.265,-0.744 -0.71,-0.512 -0.445,0.223 -1.44,1.872 -1.44,1.872 0,0 0.08,0.121 0.23,0.121 0.199,-0.012 0.328,-0.09 0.637,0.254 0.414,0.478 0.248,1.568 0.064,1.966 -0.192,0.398 -1.009,0.527 -1.009,0.527 0,0 -0.17,0.025 -0.187,0.143 -0.032,0.185 0.537,0.445 0.823,0.566 0.356,0.164 0.882,1.083 0.977,1.337 0.192,0.517 1.323,2.343 1.125,4.308 0,0 -0.025,0.153 0.064,0.685 0.175,1.045 1.178,1.268 1.417,1.618 0.262,0.405 0.357,0.867 1.552,0.372 0.494,-0.196 1.242,0.026 1.242,0.026 0,0 1.221,-0.078 -0.021,-0.748 -0.511,-0.265 -1.673,-0.812 -2.24,-1.794 -0.208,-0.35 -0.739,-1.646 -0.341,-2.182 0.318,-0.431 0.669,-0.545 0.669,-0.545 0,0 0.765,-0.051 1.257,0.465 0.464,0.51 0.9,0.717 1.282,0.775 0.392,0.055 1.227,1.099 1.54,1.099 0,0 0.684,0.317 0.77,-0.121 0.095,-0.435 0.446,-1.036 -0.797,-2.969 0,0 -0.134,-0.582 -0.134,-0.812 0,-0.233 -0.254,-0.654 -0.254,-0.749 0,-0.097 -0.35,-0.472 -0.223,-0.702 0.127,-0.223 0.389,-0.439 0.573,-0.397 0.191,0.03 0.485,0.087 0.485,0.087 0,0 1.035,0.168 1.157,0.168 0.126,0 0.381,-0.034 0.381,-0.034 0,0 0.485,0.097 0.612,0.384 0.136,0.287 0.859,1.487 0.859,1.487 0,0 0.128,0.091 0.16,0.335 0.017,0.16 -0.309,2.224 -0.382,2.279 -0.054,0.055 0.041,0.55 0.106,0.699 0.069,0.139 0.642,0.957 0.701,1.619 0,0 -0.059,0.979 0.063,1.407 0.133,0.441 0.834,2.433 1.997,0.718 0,0 0.933,-0.718 1.316,-0.684"
             style="fill:#231f20;fill-opacity:1;fill-rule:nonzero;stroke:none"
             id="path1870" /></g><g
           id="g1872"
           transform="translate(131.645,819.2344)"><path
             d="M 0,0 C 0,0 0.128,0.318 0.223,0.359 0.32,0.381 0.542,0.408 0.511,0.173 0.479,-0.054 0.542,-0.289 0.67,-0.496 0.803,-0.677 0.511,-2.397 0.479,-2.652 0.453,-2.916 0.128,-2.996 0,-2.539 c -0.095,0.338 -0.255,0.54 -0.222,0.691 0.023,0.143 0.127,0.79 0.127,1.019 C -0.095,-0.607 0,0 0,0"
             style="fill:#00953b;fill-opacity:1;fill-rule:nonzero;stroke:none"
             id="path1874" /></g><g
           id="g1876"
           transform="translate(130.4355,819.3872)"><path
             d="m 0,0 c 0,0 -0.096,0.255 -0.567,0.334 -0.086,0.031 -1.307,-0.105 -1.696,-0.775 0,0 -0.319,-2.516 -0.158,-2.837 0.158,-0.317 0.181,-0.095 0.35,-0.285 0.181,-0.19 0.134,-0.484 0.26,-0.722 0.129,-0.233 0.352,-0.511 0.352,-0.511 0,0 0.127,-1.018 0.454,-1.195 0,0 0.511,-0.078 0.613,0.309 0.096,0.408 -0.102,0.822 -0.102,0.822 0,0 0.063,0.23 0.102,0.517 0.025,0.296 -0.064,0.55 -0.064,0.727 0,0.175 0.574,1.789 0.574,1.789 C 0.181,-0.408 0.094,-0.138 0,0"
             style="fill:#00953b;fill-opacity:1;fill-rule:nonzero;stroke:none"
             id="path1878" /></g><g
           id="g1880"
           transform="translate(127.0635,824.5059)"><path
             d="m 0,0 c -0.308,0.063 -1.465,-0.755 -1.496,-0.897 -0.033,-0.145 -0.176,-0.033 -0.462,-1.148 -0.166,-0.636 -0.071,-0.622 -0.59,-3.195 -0.515,-2.588 0.551,-4.047 0.551,-4.047 0,0 0.192,-0.229 0.351,0.168 0.159,0.405 -0.423,1.131 -0.201,1.394 0.232,0.253 0.774,0.168 0.838,-0.086 0.086,-0.329 0.095,-0.238 0.134,-0.462 0.033,-0.232 -0.055,-1.078 -0.119,-1.333 -0.063,-0.27 0.055,-1.432 0.534,-1.472 0.35,-0.032 0.413,1.028 0.413,1.028 0.01,0.699 0.096,1.161 0.096,1.161 -0.049,0.479 -0.197,0.384 -0.117,0.877 0.037,0.249 0.158,0.839 0.158,0.839 0,0 -0.031,2.309 -0.073,2.68 -0.033,0.393 -0.717,1.705 -0.717,2.257 -0.016,0.547 0.361,1.089 0.663,1.504 0.287,0.407 0.229,0.126 0.334,0.455 C 0.393,0.04 0.09,-0.005 0,0"
             style="fill:#00953b;fill-opacity:1;fill-rule:nonzero;stroke:none"
             id="path1882" /></g><g
           id="g1884"
           transform="translate(138.0176,846.0425)"><path
             d="m 0,0 c -0.217,0.048 -0.636,-0.038 -0.758,-0.207 -0.023,-0.037 -0.033,-0.086 -0.064,-0.148 -0.134,-0.345 -0.181,-0.734 -0.064,-1.079 0.048,-0.149 0.222,-0.132 0.376,-0.094 0.016,0.072 0.166,0.041 0.159,0.142 0.119,0.106 0.287,0.143 0.415,0.255 0.022,0.026 0.022,0.064 0.038,0.081 0.2,0.134 0.318,0.35 0.313,0.535 0,0.006 -0.01,0.031 -0.026,0.048 C 0.341,-0.42 0.334,-0.355 0.288,-0.324 0.239,-0.26 0.239,-0.176 0.229,-0.097 0.127,-0.101 0.127,0 0.032,0.009 0,0.009 -0.073,0.026 -0.064,0.089 m -3.679,-2.357 c -0.233,0.596 -0.989,0.724 -1.54,0.342 -0.206,-0.416 -0.525,-0.56 -0.356,-0.916 0.293,-0.572 0.43,-1.179 0.803,-1.698 0.232,-0.323 0.662,-0.749 1.051,-0.452 0.153,0.112 0.52,0.182 0.621,0.397 0.287,0.597 0.015,0.622 -0.128,1.578 -0.117,0.357 -0.022,0.405 -0.451,0.749 m -4.747,-4.98 c 0,0 0.222,-0.254 0.35,-0.287 0.127,-0.03 0.223,0 0.223,0 0,0 0.23,0.142 0.16,0.384 -0.058,0.231 -0.217,0.409 -0.217,0.409 0,0 -0.675,0.364 -0.516,-0.506 m -1.189,-0.653 c 0,0 -1.121,0.366 -1.417,0.081 -0.286,-0.288 -0.35,-0.575 -0.383,-0.661 -0.032,-0.096 -0.096,-0.772 0.457,-1.187 0,0 0.827,-0.373 1.503,-0.146 0,0 0.351,0.091 0.255,1.18 -0.095,1.099 -0.415,0.733 -0.415,0.733 m -12.75,-9.277 -0.509,0.112 c 0,0 -0.781,-0.112 -0.838,-0.759 -0.064,-0.627 -0.453,-1.848 -0.325,-2.071 0.133,-0.239 0.51,-1.216 0.77,-1.338 0.256,-0.111 0.838,-0.341 1.158,-0.053 0.318,0.292 0.387,1.678 0.318,2.363 -0.057,0.701 0,1.449 -0.574,1.746 m 1.929,3.983 -0.32,-0.52 c 0,0 -0.137,-0.813 0.446,-0.813 0.573,0 0.701,0.224 0.771,0.409 0.064,0.165 0.169,0.659 0,0.81 -0.477,0.432 -0.897,0.114 -0.897,0.114 m 24.339,3.558 c 0,0 -0.025,-0.48 0.288,-0.642 0.323,-0.17 0.292,-0.718 0.356,-0.814 0.063,-0.079 0.025,-0.303 0.223,-0.264 0.19,0.073 0.741,0.136 0.446,1.347 -0.256,1.026 -0.899,0.757 -0.899,0.757 0,0 -0.318,-0.072 -0.414,-0.384 m 3.983,-0.613 v -0.317 c 0,0 0.445,-0.632 0.706,-0.67 0.255,-0.025 0.766,0.065 1.03,0.47 0.245,0.407 0.7,2.255 0.7,2.255 0,0 -0.183,0.579 -0.455,0.692 C 9.558,-7.7 9.033,-7.445 8.528,-7.875 8.019,-8.304 7.822,-10.25 7.822,-10.25 m 4.523,-2.428 c 0,0 -0.223,-0.114 -0.089,-0.399 0.12,-0.277 0.375,-0.813 0.375,-0.813 0,0 0.135,-0.373 0.32,-0.294 0.197,0.097 0.324,0.352 0.324,0.352 l -0.159,1.04 c 0,0 -0.446,0.526 -0.771,0.114 m 7.901,-5.514 c 0,0 0.12,-0.462 0.223,-0.612 0.064,-0.088 0.462,-0.373 0.963,-0.167 0.319,0.126 0.297,0.461 0.297,0.604 0,0.144 -0.091,0.44 -0.297,0.669 -0.198,0.223 -0.511,0.345 -0.675,0.282 -0.16,-0.059 -0.671,-0.376 -0.511,-0.776 m -1.943,-1.288 c 0,0 -0.605,-1.728 -0.335,-2.677 0.224,-0.772 0.5,-0.66 0.574,-0.772 0.08,-0.127 0.069,-0.663 0.197,-0.844 0.122,-0.174 0.415,-0.366 0.679,-0.024 0,0 0.325,0.439 0.27,1.173 -0.094,0.476 -0.429,0.562 -0.429,0.562 0,0 -0.717,0.058 -0.392,1.906 0,0 0.311,1.519 -0.564,0.676 m -14.13,-7.701 c -1.035,0.976 -0.382,1.815 -0.382,1.815 0.288,0.398 0.223,0.467 1.122,0.753 1.449,0.48 2.134,-0.841 2.134,-0.841 3.339,-2.078 4.375,-1.553 4.375,-1.553 0,0 0.573,-0.056 1.28,0.342 0.701,0.407 0.573,1.045 0.573,1.045 l -0.192,2.013 c 0,0 0.065,0.983 0.065,1.163 0,0.175 -0.255,0.934 -0.255,0.934 0,0 -0.118,0.58 0.009,0.754 0.136,0.175 0.463,0.907 0.144,1.068 -0.318,0.191 -0.67,1.521 -0.86,1.99 -0.191,0.456 -0.742,0.033 -0.764,-0.127 -0.042,-0.159 0.063,-0.398 0,-0.802 -0.073,-0.408 -0.973,-0.177 -1.347,-0.058 -0.391,0.121 -0.655,0.758 -0.781,1.157 -0.128,0.404 0.175,0.796 0.216,1.004 0.048,0.206 0.15,0.827 -0.376,1.066 -0.399,0.191 -0.771,-0.088 -0.739,-0.685 0.032,-0.54 -0.063,-0.906 -0.137,-1.013 -0.144,-0.207 -0.638,0.09 -1.148,-0.022 -0.508,-0.12 -0.954,-0.822 -1.152,-0.701 -0.191,0.129 0,0.351 -0.191,0.978 -0.192,0.647 -1.482,1.601 -1.635,1.842 -0.159,0.229 -0.022,0.563 -0.102,0.875 -0.079,0.335 -0.383,0.755 -0.383,0.755 0,0 -0.47,0.669 -1.219,0.584 -0.431,-0.046 -1.864,-0.35 -1.864,-0.35 0,0 -0.707,-0.344 -1.154,-0.288 -0.455,0.054 -0.381,0.406 -0.518,0.573 -0.128,0.184 -1.6,0.989 -2.056,0.932 -0.452,-0.064 -1.216,-1.376 -1.471,-1.976 -0.256,-0.574 -0.383,-2.421 -0.383,-2.421 0,0 -0.136,-0.341 -0.582,-0.526 -0.453,-0.165 -0.708,0.232 -0.708,0.232 -1.22,1.043 -1.794,0.182 -2.319,-0.047 -0.501,-0.233 -0.851,-0.7 -1.218,-0.87 -0.797,-0.398 -0.955,-0.811 -0.955,-0.811 -1.094,-0.638 -0.582,0.349 -0.582,0.349 0,0.462 0.582,0.87 0.582,0.87 1.407,0.739 3.272,2.485 3.336,2.762 0.063,0.297 -0.51,0.701 -0.835,0.933 -0.328,0.23 -1.411,0.23 -1.609,0.129 -0.192,-0.129 -0.892,-0.185 -1.419,0.222 -0.502,0.406 -1.337,0.112 -1.337,0.112 0,0 -0.382,-0.519 -0.701,-0.695 -0.328,-0.175 -0.646,-0.286 -1.1,-0.747 -0.445,-0.464 -1.22,-1.34 -0.901,-2.604 0.329,-1.276 -0.254,-0.632 -0.254,-0.632 -1.928,1.323 -3.209,-0.579 -3.345,-1.735 -0.128,-1.164 1.29,-1.211 1.809,-1.043 0.516,0.175 0.835,0.324 0.764,0.055 -0.328,-1.184 -1.799,-2.203 -2.055,-2.245 -1.736,-0.399 -1.411,-1.281 -1.411,-1.281 0,0 0.106,-0.48 0.319,-0.685 0.216,-0.219 0.997,-0.414 0.971,-0.669 -0.054,-0.751 0.185,-0.904 0.185,-0.904 1.561,-1.211 1.306,-2.363 1.29,-2.77 -0.056,-1.154 -0.216,-1.473 -0.36,-1.848 -0.15,-0.382 0.01,-1.227 -0.117,-1.52 -0.128,-0.303 -0.43,-0.222 -0.43,-0.222 0,0 -0.127,0.126 -0.255,0.356 -0.128,0.232 0.191,0.638 0.064,2.023 -0.185,2.101 -0.918,2.145 -0.918,2.145 -1.09,-0.766 -0.749,-1.858 -0.692,-2.384 0.071,-0.515 -0.382,-1.026 -0.382,-1.616 0,-0.573 0.325,-1.507 0.325,-1.969 0,-0.452 -0.389,-0.859 -0.77,-0.562 -0.383,0.286 -1.402,1.982 -1.349,2.531 0.048,0.558 0.122,1.386 0.122,1.386 -0.447,1.513 -0.057,1.966 -0.057,1.966 1.155,2.484 0.446,2.431 0.446,2.431 -0.446,0.866 -0.836,-0.112 -0.836,-0.112 l -0.636,-1.848 c 0,0 -0.074,-1.506 -0.137,-1.793 -0.064,-0.286 -0.208,-0.563 -0.447,-0.59 -0.238,-0.015 -0.955,0.989 -0.899,1.396 0.16,0.922 -0.19,1.568 -0.19,1.789 0,0.235 0.134,0.176 0.134,0.926 0,0.749 -0.446,0.715 -0.51,0.366 -0.063,-0.341 -0.404,-0.643 -0.548,-0.479 -0.233,0.257 -0.319,0.377 -0.296,0.862 0.031,0.932 -0.484,2.262 -0.421,3.117 0.071,0.874 0.516,1.485 0.23,2.203 -0.214,0.508 -0.732,0.917 -0.596,1.45 0.262,0.923 0.303,2.421 0.246,2.653 -0.07,0.238 0.136,0.957 0.493,0.78 0.048,-0.008 0.159,-0.422 0.248,-0.492 0.319,-0.288 0.685,-0.362 0.893,-0.05 0.334,0.484 -0.033,1.849 -0.606,2.231 -0.382,0.239 -0.773,1.089 -0.551,2.103 0.145,0.684 0.892,0.914 1.03,1.386 0.127,0.462 0.509,1.328 1.534,2.364 1.029,1.045 1.227,0.461 1.419,0.408 0.184,-0.058 0.636,0.112 0.582,0.462 -0.073,0.342 0,1.561 0.128,1.789 0.118,0.233 0.893,0.289 1.09,0.87 0.191,0.573 0.764,1.148 1.22,1.393 0.445,0.222 2.252,0.806 2.627,0.343 0.39,-0.455 -0.127,-0.757 -0.127,-0.757 -3.147,-1.042 -3.147,-2.714 -3.409,-3.52 -0.254,-0.812 0.262,-0.988 0.708,-1.1 0.455,-0.111 1.226,0.632 1.545,1.157 0.319,0.527 1.029,0.47 1.673,0.167 0.184,-0.073 0.303,-0.56 -0.39,-1.498 -0.2,-0.272 -0.095,-0.304 -0.2,-0.739 -0.054,-0.232 0.138,-0.793 0.138,-0.793 0,0 0.062,-0.436 0.254,-0.666 0.198,-0.232 0.891,-0.277 1.163,-0.232 0.261,0.039 0.558,0.367 0.643,0.495 0.074,0.134 0.638,1.483 0.638,1.881 0,0.403 0.446,1.274 0.583,1.496 0.127,0.231 0.063,1.041 -0.073,1.45 -0.129,0.398 -1.138,1.312 -1.281,1.672 -0.143,0.35 -0.265,1.513 -0.265,2.024 0,0.51 0.981,2.953 1.682,3.695 0.685,0.765 1.472,1.164 1.472,1.164 1.801,1.099 1.428,-1.402 1.093,-1.969 -0.334,-0.574 -2.437,-1.551 -2.765,-2.198 -0.319,-0.639 0.2,-1.324 0.455,-1.44 0.262,-0.123 1.074,-0.139 1.472,0.054 1.029,0.518 0.797,0.7 1.817,1.274 0.757,0.414 1.241,1.092 1.337,1.267 0.064,0.15 -0.261,0.988 -0.261,0.988 l -0.838,0.802 c -0.77,1.222 1.099,1.879 1.412,1.801 0.754,-0.192 1.089,-0.644 1.36,-0.637 0.589,0.011 0.775,0.875 1.411,1.093 0.622,0.223 2.263,-0.6 2.693,-0.456 0.435,0.138 0.611,0.694 0.962,0.807 0.35,0.1 0.837,-0.191 1.029,-0.048 0.191,0.126 0.446,0.276 1.025,0 C 1.265,4.2 1.552,4.12 1.784,4.2 2.014,4.284 2.587,4.476 2.587,4.476 3.909,5.463 4.738,4.38 5.055,3.801 5.375,3.228 5.98,3.403 5.916,3.027 5.852,2.676 4.938,2.963 4.714,2.573 4.483,2.166 4.61,2.056 4.738,1.657 4.864,1.259 5.83,1.093 6.156,1.093 c 0.317,0 0.684,-0.488 0.684,-0.488 0,0 0.233,-0.914 0.827,-1.226 0.241,-0.126 0.926,-0.381 1.309,-0.038 0.39,0.35 0.349,1.021 0.318,1.217 C 9.261,0.773 8.958,1.459 8.846,1.778 8.735,2.086 8.953,2.75 9.5,2.431 9.764,2.278 10.232,2.017 10.393,1.753 10.631,1.37 10.791,1.347 10.902,1.196 11.014,1.052 11.078,0.717 11.03,0.615 10.981,0.525 10.753,0.471 10.71,0.328 c -0.174,-0.504 0.425,-0.782 0.456,-0.987 0.022,-0.192 -0.136,-0.684 -0.136,-0.684 0,0 -0.246,-0.575 -0.192,-0.823 0.064,-0.23 0.192,-0.23 0.192,-0.399 0,-0.159 -0.158,-0.254 -0.192,-0.397 -0.031,-0.15 0.271,-0.859 0.457,-1.041 0.181,-0.185 1.018,-0.558 1.28,-0.751 0.264,-0.191 0.558,-0.558 0.646,-0.811 0.071,-0.256 0.054,-1.093 0.182,-1.333 0.138,-0.238 0.472,-0.644 0.701,-0.748 0.255,-0.096 0.844,-0.111 0.844,-0.111 0,0 0.446,0.015 0.702,-0.063 0.264,-0.071 0.955,-0.877 1.034,-1.091 0.074,-0.223 0.033,-0.559 0.128,-0.757 0.09,-0.199 0.552,-0.787 0.764,-0.925 0.223,-0.134 0.919,-0.278 1.291,-0.239 0.376,0.042 0.812,0.253 0.891,0.352 0.091,0.095 0.192,0.23 0.266,0.582 0.062,0.34 0.222,0.532 0.096,0.764 -0.127,0.23 -0.336,0.717 -0.415,0.972 -0.08,0.238 -0.392,0.516 -0.519,0.802 -0.128,0.298 -0.239,0.589 -0.447,0.814 -0.206,0.215 -0.365,0.222 -0.579,0.398 -0.209,0.184 -0.424,0.925 -0.702,1.338 -0.286,0.414 -0.454,0.456 -0.454,0.456 l -0.835,0.579 c 0,0 -0.519,0.351 -0.711,0.407 -0.191,0.049 -0.764,0.516 -0.764,0.516 0,0 -0.452,0.526 -0.644,0.526 -0.191,0 -0.191,0.121 -0.775,0.287 -0.436,0.13 -0.237,0.232 -0.254,0.345 -0.006,0.128 -0.128,0.468 -0.128,0.468 0,0 -0.022,-0.08 0,0.399 0.016,0.477 0.966,0.407 1.285,0.285 0.324,-0.117 0.962,-0.572 1.162,-0.572 0.182,0 1.02,-0.229 1.216,-0.693 0.184,-0.461 1.412,-1.855 2.183,-2.196 0.775,-0.351 1.618,-2.119 1.715,-2.264 0.101,-0.153 0.531,-0.279 0.531,-0.279 0.902,-0.238 1.116,-1.935 1.348,-2.142 0.229,-0.201 0.756,-0.111 1.026,-0.296 0.28,-0.158 0.265,-0.452 0.456,-1.026 0.191,-0.583 0.702,-1.347 0.643,-1.624 -0.07,-0.287 -0.325,-1.849 -0.198,-2.081 0.128,-0.239 0.257,-3.409 0.257,-3.409 0,0 -0.257,-0.533 -0.257,-0.803 0,-0.296 0.9,-0.637 0.9,-0.637 0,0 0.206,-0.073 0.057,-0.637 -0.287,-0.997 0.493,-1.475 0.069,-3.01 -0.159,-0.574 -0.595,-0.845 -0.707,-0.982 -0.104,-0.142 -0.008,-0.246 -0.062,-0.35 -0.049,-0.102 -0.257,-0.112 -0.321,-0.23 -0.063,-0.12 0.151,-0.62 0.129,-1.036 -0.026,-0.423 -0.129,-0.932 -0.249,-1.099 -0.133,-0.184 -0.325,-1.508 -0.261,-1.729 0.054,-0.229 -0.265,-0.358 -0.456,-0.581 -0.191,-0.232 -0.446,-0.169 -0.446,0.055 0,0.223 0.255,1.002 0.191,1.274 -0.064,0.271 -0.118,0.297 -0.191,0.462 -0.071,0.159 -0.176,0.615 -0.176,0.615 -0.293,0.675 -0.653,-0.111 -0.605,-0.318 0.027,-0.075 0.074,-0.477 0.016,-1.004 -0.07,-0.503 0.058,-1.841 0.058,-2.302 0,-0.463 -0.319,-0.948 -0.574,-1.012 -0.255,-0.048 -0.711,0.406 -0.901,0.288 -0.19,-0.106 -0.469,-0.423 -0.516,-0.893 -0.042,-0.471 0.047,-1.203 -0.105,-1.769 -0.149,-0.583 -0.835,-0.365 -0.963,0 -0.128,0.352 -0.074,0.803 -0.154,1.242 -0.078,0.455 -0.132,0.799 -0.324,0.957 -0.174,0.135 -0.55,0.016 -0.764,0.16 -0.217,0.158 -0.057,1.392 -0.265,1.72 -0.198,0.335 -0.35,0.398 -0.636,0.351 -0.287,-0.058 -0.448,-0.583 -0.644,-1.22 -0.191,-0.638 0.196,-2.071 0.196,-2.071 l 0.059,-0.591 c 0,0 0.031,-0.148 0,-0.34 -0.033,-0.191 -0.383,-0.733 -0.446,-0.934 -0.073,-0.19 -0.138,-0.493 -0.138,-0.493 -0.309,-0.691 -0.733,-0.255 -0.764,-0.069 -0.032,0.18 -0.065,0.402 -0.065,1.034 0,0.637 -0.769,0.277 -0.96,0.924 -0.09,0.277 0.237,0.654 0.26,0.979 0.016,0.335 -0.198,0.748 -0.198,0.748 -0.445,0.526 0.039,0.557 -0.126,0.813 -0.169,0.265 -0.319,0.239 -0.775,0.35 -0.452,0.12 -0.182,-0.462 -0.182,-0.462 0,0 0.166,-0.209 0.182,-0.462 0.015,-0.262 -0.526,-1.88 -0.58,-2.309 -0.048,-0.437 0.293,-1.994 -0.016,-2.939 -0.176,-0.509 -0.854,-0.334 -1.003,-0.08 -0.153,0.272 -0.192,1.105 -0.192,1.105 0,0 -0.127,0.861 -0.127,1.277 0,0.407 0.118,0.748 0.127,1.045 0.007,0.275 -0.127,0.69 -0.127,0.914 -0.009,0.233 0.134,1.013 0.054,1.321 -0.063,0.328 -0.19,0.622 -0.453,0.934 -0.248,0.318 -1.592,0.923 -1.974,0.923 -0.393,0 -0.812,-0.207 -0.965,-0.343 -0.318,-0.277 -0.453,-1.393 -0.463,-1.673 -0.022,-0.676 0.264,-1.392 0.264,-1.392 0,0 0.087,-0.095 -0.126,-0.616 -0.234,-0.595 -0.726,-0.627 -0.902,-1.168 -0.128,-0.399 0,-0.472 -0.255,-0.701 -0.261,-0.222 -0.644,0.055 -0.644,0.055 l -0.327,0.414 c -0.511,1.49 0.136,2.542 0.19,2.716 0.074,0.167 0.074,0.629 0.074,0.629 -1.157,1.331 -0.956,2.476 -0.956,2.77 0,0.297 -0.186,0.155 -0.488,0 -0.229,-0.1 -0.341,0.123 -0.341,0.123"
             style="fill:#00953b;fill-opacity:1;fill-rule:nonzero;stroke:none"
             id="path1886" /></g><g
           id="g1888"
           transform="translate(128.0527,846.2812)"><path
             d="M 0,0 C 0.446,0.351 0.414,0.456 0.716,0.448 0.98,0.425 1.108,0.111 0.414,-0.415 -0.288,-0.93 -0.924,-1.592 -1.393,-1.805 -1.864,-2.029 -2.731,-1.963 -2.301,-1.37 -1.76,-0.636 -1.233,-0.986 0,0"
             style="fill:#231f20;fill-opacity:1;fill-rule:nonzero;stroke:none"
             id="path1890" /></g><g
           id="g1892"
           transform="translate(121.6274,816.1206)"><path
             d="m 0,0 c 0,0 -0.354,-1.141 -0.378,-1.369 -0.025,-0.221 0.005,-1.925 0.351,-2.36 0.344,-0.446 0.525,-0.373 0.525,-0.635 0,-0.259 0.234,-0.368 0.466,-0.315 0.237,0.056 0.439,0.852 0.379,1.274 -0.054,0.415 -0.476,0.611 -0.508,1.364 -0.031,0.758 0.353,1.544 0.353,1.544 0,0 0.101,0.865 -0.254,1.124 C 0.585,0.893 0.088,0.312 0.037,0.102 0.037,0.102 0.03,0.064 0,0"
             style="fill:#00953b;fill-opacity:1;fill-rule:nonzero;stroke:none"
             id="path1894" /></g><g
           id="g1896"
           transform="translate(120.355,821.8833)"><path
             d="m 0,0 c 0,0 -0.499,0.101 -0.499,-0.196 0,-0.32 0.256,-0.62 0.42,-0.7 0.423,-0.207 0.523,-0.179 0.766,0.109 0.251,0.28 -0.153,0.652 -0.153,0.652 z"
             style="fill:#231f20;fill-opacity:1;fill-rule:nonzero;stroke:none"
             id="path1898" /></g><g
           id="g1900"
           transform="translate(115.1719,828.2593)"><path
             d="m 0,0 c 0,0 -0.146,-0.032 -0.257,-0.26 -0.113,-0.22 -0.15,-1.743 -0.15,-1.743 0,0 -0.034,-0.676 0.111,-0.775 0.15,-0.099 0.337,-0.063 0.411,0.226 0.069,0.283 -0.074,1.151 -0.074,1.242 0,0.095 0.292,0.926 0.223,1.018 C 0.184,-0.195 0,0 0,0"
             style="fill:#231f20;fill-opacity:1;fill-rule:nonzero;stroke:none"
             id="path1902" /></g><g
           id="g1904"
           transform="translate(121.2593,827.7495)"><path
             d="M 0,0 C 0,0 0.469,0.034 0.361,-0.193 0.252,-0.418 -0.321,-1.095 -0.605,-1.04 -0.895,-0.967 -1.29,-1.13 -1.069,-0.645 -0.857,-0.156 0,0 0,0"
             style="fill:#231f20;fill-opacity:1;fill-rule:nonzero;stroke:none"
             id="path1906" /></g><g
           id="g1908"
           transform="translate(122.231,836.7793)"><path
             d="M 0,0 C -0.017,-0.525 -0.131,-0.619 0.269,-0.729 0.682,-0.845 0.65,-0.489 0.776,-0.09 0.904,0.303 0.904,1.059 0.998,1.23 1.091,1.402 1.983,3.02 1.425,3.671 0.857,4.32 -0.21,4.949 -1.387,4.305 -2.637,3.615 -2.857,2.899 -2.98,2.677 c -0.123,-0.224 0.028,-0.403 0.184,-0.18 0.161,0.227 0.491,0.654 0.646,0.826 0.158,0.164 0.857,0.416 0.951,0.388 C -1.106,3.684 1.652,3.657 0.776,1.371 0.776,1.371 0.015,0.528 0,0"
             style="fill:#231f20;fill-opacity:1;fill-rule:nonzero;stroke:none"
             id="path1910" /></g></g></g></g></svg>
