<svg xmlns="http://www.w3.org/2000/svg" viewBox="0 0 458.11 125.68"><path d="M443.08,105.09c-2.08-.53-3-1.58-3-3.39,0-2.16,1.78-3.47,4.82-3.47a11.73,11.73,0,0,1,3.32.43l1.1.32a.22.22,0,0,1,.15.31l-.3,1a.24.24,0,0,1-.28.15l-1.1-.31a9.88,9.88,0,0,0-2.84-.37c-2.06,0-3.24.8-3.24,2,0,1,.58,1.61,1.94,2l3.36.88c2.19.58,3.14,1.71,3.14,3.47,0,2.33-1.91,3.71-5.15,3.71a12.52,12.52,0,0,1-4.29-.65l-.73-.25a.21.21,0,0,1-.15-.3l.38-1a.19.19,0,0,1,.27-.13l.73.25a11.71,11.71,0,0,0,3.79.53c2.21,0,3.52-.8,3.52-2.18,0-1-.63-1.66-2-2Zm-10.47,6.2a12.89,12.89,0,0,1-2.89.45c-4.14,0-6.38-2.61-6.38-6.75s2.21-6.76,6.4-6.76a8.72,8.72,0,0,1,2.67.43l.85.25c.15,0,.2.13.15.28l-.32,1a.23.23,0,0,1-.28.15l-.81-.23a7.79,7.79,0,0,0-2.23-.37c-3.24,0-4.79,2-4.79,5.25s1.6,5.25,4.74,5.25a9.35,9.35,0,0,0,2.46-.41l.81-.22a.23.23,0,0,1,.3.17l.3,1c0,.15,0,.25-.18.27Zm-16,0c0,.16-.07.23-.22.23h-1.18a.2.2,0,0,1-.23-.23V98.71a.21.21,0,0,1,.23-.23h1.18c.15,0,.22.08.22.23Zm-8.16-11.52c0,.15-.07.23-.22.23h-4.67v11.29a.2.2,0,0,1-.23.23h-1.18a.2.2,0,0,1-.23-.23V100h-4.67c-.15,0-.22-.08-.22-.23v-1c0-.15.07-.23.22-.23h11c.15,0,.22.08.22.23Zm-17.8,6.6c0,3.37-2,5.35-5.42,5.35s-5.43-2-5.43-5.35V98.68c0-.15.08-.22.23-.22h1.18a.19.19,0,0,1,.22.22v7.66a3.8,3.8,0,1,0,7.59,0V98.68a.19.19,0,0,1,.22-.22h1.18c.15,0,.23.07.23.22Zm-19.16-2.18a.19.19,0,0,1,.22.22v1a.2.2,0,0,1-.22.22H365V110H373c.16,0,.23.07.23.23v1c0,.16-.07.23-.23.23h-9.48c-.16,0-.23-.07-.23-.23V98.71a.2.2,0,0,1,.23-.23H373c.18,0,.25.11.2.25l-.3,1a.24.24,0,0,1-.25.21H365v4.19Zm-23.31,1.15h2.34c2.94,0,4.67-1,4.67-2.81,0-1.6-1.2-2.53-3.24-2.53h-3.77ZM352,98.48c3.09,0,4.87,1.49,4.87,4,0,2.74-2.31,4.3-6.3,4.3h-2.34v4.46c0,.16-.07.23-.22.23h-1.18a.2.2,0,0,1-.23-.23V98.71a.21.21,0,0,1,.23-.23Zm-17.07,5.78a19.69,19.69,0,0,1-1.13-3.16c-.08-.23-.3-.23-.38,0a18.48,18.48,0,0,1-1.13,3.16l-1.4,3.06h5.44Zm-4.75,4.54L329,111.31a.23.23,0,0,1-.25.18h-1.25c-.18,0-.25-.1-.18-.28l3.69-8a31,31,0,0,0,1.66-4.5.23.23,0,0,1,.25-.2h1.33a.22.22,0,0,1,.25.2,33.5,33.5,0,0,0,1.66,4.5l3.69,8c.08.18,0,.28-.17.28h-1.26a.24.24,0,0,1-.25-.18L337,108.8Zm-15.24-4c2.61,0,4.09-.91,4.09-2.46s-1.13-2.36-3-2.36h-4.1v4.82ZM316,98.48c2.94,0,4.62,1.38,4.62,3.75,0,1.73-1.08,2.86-2.94,3.38-.27.11-.27.2,0,.31a4.06,4.06,0,0,1,2.09,2.13l1.55,3.16c.08.18,0,.28-.17.28h-1.26a.24.24,0,0,1-.25-.18l-1.3-2.61a4,4,0,0,0-4-2.41H311.9v5c0,.16-.08.23-.22.23H310.5c-.16,0-.23-.07-.23-.23V98.71a.2.2,0,0,1,.23-.23Zm-14.14,5.68c.15,0,.23.07.23.22v1a.2.2,0,0,1-.23.22H295.3V110h8.09c.15,0,.22.07.22.23v1c0,.16-.07.23-.22.23H293.9c-.16,0-.23-.07-.23-.23V98.71a.2.2,0,0,1,.23-.23h9.41c.18,0,.25.11.2.25l-.3,1a.23.23,0,0,1-.25.21H295.3v4.19Zm-15.57,7.1c0,.16-.07.23-.23.23h-1.17a.2.2,0,0,1-.23-.23v-5.62H277v5.62c0,.16-.08.23-.22.23h-1.18c-.16,0-.23-.07-.23-.23V98.71a.2.2,0,0,1,.23-.23h1.18a.2.2,0,0,1,.22.23v5.45h7.66V98.71a.21.21,0,0,1,.23-.23H286a.2.2,0,0,1,.23.23ZM268.81,99.74a.2.2,0,0,1-.23.23h-4.67v11.29c0,.16-.07.23-.22.23h-1.18a.2.2,0,0,1-.23-.23V100h-4.67a.21.21,0,0,1-.23-.23v-1a.21.21,0,0,1,.23-.23h11a.2.2,0,0,1,.23.23Z" style="fill:#863658"/><path d="M432.66,55.73A11.22,11.22,0,1,0,421.45,67a11.21,11.21,0,0,0,11.21-11.22m7.85,22.64a29.65,29.65,0,0,1-38.12,0l9.75-9.76a15.89,15.89,0,0,0,18.61,0Z" style="fill:#863658"/><path d="M39.61,37.22c-9.71-1.15-16.18-3.1-16.18-8.83S29.15,19,38.37,19c6,0,14.13,2.83,17.26,8.07a.63.63,0,0,0,.79.22l11.25-5.78a.6.6,0,0,0,.27-.81c-4.89-10-15.27-15.23-30-15.23S8.3,12.61,8.3,28c0,17.35,14.42,21.46,30,23.31,11.31,1.21,16.82,4.63,16.82,10.44,0,9.87-12.74,10.64-16.65,10.64-10,0-17.65-4.3-20.55-11.52a.6.6,0,0,0-.35-.33.52.52,0,0,0-.21,0,.55.55,0,0,0-.28.07L5.31,66.64A.61.61,0,0,0,5,67.4c5.14,12.66,16,18.81,33.23,18.81,15.52,0,32.11-6.44,32.11-24.49S55.58,39.19,39.61,37.22M235.67,55.75c0-11.87-7.94-16.1-15.38-16.1-9.5,0-15.17,6-15.17,16.1,0,7.89,5.21,15.88,15.17,15.88,8.34,0,15.38-7.27,15.38-15.88M248.46,95c0,14.56-11,23.87-27.88,23.87-16.36,0-27.78-9.76-27.78-23.87a3.67,3.67,0,0,1,3.68-3.67h5.05A3.67,3.67,0,0,1,205.2,95c0,8.6,8,11.67,15.38,11.67,4.68,0,15.58-1.14,15.58-11.67,0-10.07-10.87-11.39-14.71-11.54-.37,0-.73.05-1.1.05a27.48,27.48,0,0,1-9.84-1.83c-.43-.16-.85-.34-1.27-.52l-.4-.17a26,26,0,0,1-7.36-4.89h.05a28.26,28.26,0,0,1-8.09-13.52,32.21,32.21,0,0,1-.72-6.83,32.74,32.74,0,0,1,1.65-10.47,27.83,27.83,0,0,1,25.94-18A29.31,29.31,0,0,1,232,29.82a28.07,28.07,0,0,1,4.5,2.64v-1.2a3.41,3.41,0,0,1,3.41-3.41h4.62a3.41,3.41,0,0,1,3.41,3.41V53.64c0,.69.06,1.39.06,2.11a28,28,0,0,1-9.38,20.75A21.22,21.22,0,0,1,248.46,95M162.37,27.14h-.05a25.33,25.33,0,0,0-14,4.15A3.63,3.63,0,0,0,144.74,28h-4.81a3.65,3.65,0,0,0-3.64,3.64V81.16a3.64,3.64,0,0,0,3.64,3.64h4.91a3.64,3.64,0,0,0,3.64-3.64V53.62c0-8.4,5.65-14.31,13.72-14.39,4.5,0,8.13,1.17,10.48,3.5s3.48,5.64,3.48,10V81.16a3.64,3.64,0,0,0,3.64,3.64h4.91a3.64,3.64,0,0,0,3.64-3.64V52.62c0-7.67-2.54-14.13-7.34-18.71-4.66-4.43-11.1-6.77-18.64-6.77m203.93-.29a18.56,18.56,0,0,0-15,7.73,18.34,18.34,0,0,0-4.1-4.19,18.75,18.75,0,0,0-11.13-3.54A17.22,17.22,0,0,0,326,30a3.65,3.65,0,0,0-3.3-2.09h-3.8a3.64,3.64,0,0,0-3.64,3.64V81.67a3.64,3.64,0,0,0,3.64,3.64H323a3.64,3.64,0,0,0,3.64-3.64V51.92c0-7.66,3.86-13,9.4-13s9.48,5.35,9.48,13V81.67a3.64,3.64,0,0,0,3.64,3.64h4.05a3.64,3.64,0,0,0,3.64-3.64V51.92c0-7.73,3.9-13.12,9.48-13.12s9.4,5.15,9.4,12.81V81.67a3.65,3.65,0,0,0,3.64,3.64h4.05A3.64,3.64,0,0,0,387,81.67V51.61c0-7-1.94-13-5.61-17.54a19.17,19.17,0,0,0-15.12-7.22m-72,41.38a17.69,17.69,0,0,0,4.27-11.85,17.72,17.72,0,0,0-4.27-11.86c-3-3.45-7.49-5.27-12.83-5.27a16.65,16.65,0,0,0-11.82,4.64,17,17,0,0,0-4.85,12.44c0,10,7,17.17,16.67,17.17,5.34,0,9.78-1.82,12.83-5.27m12.41-40.38a3.64,3.64,0,0,1,3.65,3.64V81.16a3.64,3.64,0,0,1-3.65,3.64h-4.92a3.65,3.65,0,0,1-3.65-3.64V80.08a26.73,26.73,0,0,1-16.67,5.53,28.76,28.76,0,0,1-20.38-8.18,29.27,29.27,0,0,1-8.49-21.1c0-16.58,12.41-29.08,28.87-29.08a27.64,27.64,0,0,1,16.67,5.41V31.49a3.65,3.65,0,0,1,3.65-3.64ZM115.25,68.23a17.73,17.73,0,0,0,4.27-11.85,17.77,17.77,0,0,0-4.27-11.86c-3.06-3.45-7.49-5.27-12.83-5.27A16.63,16.63,0,0,0,90.6,43.89a17,17,0,0,0-4.85,12.44c0,10,7,17.17,16.67,17.17,5.34,0,9.77-1.82,12.83-5.27m12.41-40.38a3.64,3.64,0,0,1,3.64,3.64V81.16a3.64,3.64,0,0,1-3.64,3.64h-4.93a3.64,3.64,0,0,1-3.64-3.64V80.08a26.77,26.77,0,0,1-16.67,5.53A28.76,28.76,0,0,1,82,77.43a29.28,29.28,0,0,1-8.5-21.1c0-16.58,12.41-29.08,28.88-29.08a27.66,27.66,0,0,1,16.67,5.41V31.49a3.64,3.64,0,0,1,3.64-3.64ZM444,74.94l-9.76-9.76a15.89,15.89,0,1,0-25.54,0l-9.77,9.76a29.58,29.58,0,0,1-7-21h0a30,30,0,0,1,7.41-17.9l0,0a29.25,29.25,0,0,1,2.49-2.49l0,0a30,30,0,0,1,17.89-7.41v0a29.69,29.69,0,0,1,3.53,0v0a30,30,0,0,1,17.9,7.41l0,0a29.25,29.25,0,0,1,2.49,2.49l0,0A29.87,29.87,0,0,1,451,54h0a29.54,29.54,0,0,1-7,21" style="fill:#2a4a74"/></svg>