<?xml version="1.0" encoding="utf-8"?>
<!-- Generator: Adobe Illustrator 12.0.0, SVG Export Plug-In . SVG Version: 6.00 Build 51448)  -->
<!DOCTYPE svg PUBLIC "-//W3C//DTD SVG 1.1//EN" "http://www.w3.org/Graphics/SVG/1.1/DTD/svg11.dtd" [
	<!ENTITY ns_svg "http://www.w3.org/2000/svg">
	<!ENTITY ns_xlink "http://www.w3.org/1999/xlink">
]>
<svg  version="1.1" id="Layer_1" xmlns="&ns_svg;" xmlns:xlink="&ns_xlink;" width="583.138" height="177"
	 viewBox="0 0 583.138 177" overflow="visible" enable-background="new 0 0 583.138 177" xml:space="preserve">
<g>
	<path fill="#505E67" d="M91.329,144.111c0,3.088-1.692,5.66-5.083,7.752c-3.394,2.083-7.488,3.117-12.269,3.117H8.906V99.646
		h65.071c4.781,0,8.875,1.066,12.269,3.22c3.391,2.143,5.083,4.696,5.083,7.649v6.839c0,1.61-0.374,3.22-1.138,4.829
		c-0.761,1.61-6.221,3.076-7.897,4.43c1.676,1.334,7.137,2.811,7.897,4.41c0.765,1.619,1.138,3.229,1.138,4.85V144.111
		L91.329,144.111z M75.493,132.222H22.634v11.449h52.897L75.493,132.222L75.493,132.222z M75.531,110.946H22.634v10.048h52.859
		L75.531,110.946L75.531,110.946z"/>
	<polygon fill="#505E67" points="122.565,154.98 106.726,154.98 106.726,99.646 122.565,99.646 122.565,154.98 	"/>
	<path fill="#505E67" d="M227.563,144.111c0,3.088-1.699,5.66-5.083,7.752c-3.391,2.083-7.478,3.117-12.264,3.117h-53.597
		c-4.709,0-8.754-1.034-12.144-3.117c-3.384-2.092-5.088-4.664-5.088-7.752v-33.596c0-2.953,1.704-5.507,5.088-7.649
		c3.39-2.153,7.434-3.22,12.144-3.22h53.597c4.786,0,8.873,1.066,12.264,3.22c3.384,2.143,5.083,4.696,5.083,7.649V144.111
		L227.563,144.111z M211.593,142.482v-30.367h-56.328v30.367H211.593L211.593,142.482z"/>
	<polygon fill="#505E67" points="312.888,99.646 278.301,154.98 263.211,154.98 228.632,99.646 244.275,99.646 270.762,143.701 
		297.241,99.646 312.888,99.646 	"/>
	<path fill="#505E67" d="M397,154.98h-17.934l-9.577-12.448h-47.707l-9.694,12.448h-17.934l42.512-55.334h17.832L397,154.98
		L397,154.98z M360.743,131.217l-15.104-19.041l-15.231,19.041H360.743L360.743,131.217z"/>
	<polygon fill="#505E67" points="417.232,154.98 401.379,154.98 401.379,99.646 417.232,99.646 417.232,154.98 	"/>
	<polygon fill="#505E67" points="487.395,154.98 433.987,154.98 433.987,99.646 449.819,99.646 449.819,142.954 487.395,142.954 
		487.395,154.98 	"/>
	<path fill="#00A467" d="M574.209,103.44c-1.928-52.626-124.104-91.53-272.888-86.889C185.46,20.165,87.627,49.122,50.917,86.623
		c47.05-27.545,128.102-47.294,220.779-50.288c147.658-4.768,268.896,34.792,270.792,88.381
		c0.437,12.541-5.689,24.727-17.231,36.108C556.756,144.143,574.967,124.286,574.209,103.44z"/>
</g>
</svg>
