<?xml version="1.0" encoding="UTF-8"?> <svg xmlns="http://www.w3.org/2000/svg" xmlns:xlink="http://www.w3.org/1999/xlink" version="1.1" id="Calque_1" x="0px" y="0px" viewBox="0 0 213.5 81.9" style="enable-background:new 0 0 213.5 81.9;" xml:space="preserve"> <style type="text/css"> .st0{fill:#9ABFD2;} .st1{fill:url(#SVGID_1_);} .st2{fill:#FFFFFF;} </style> <g> <path d="M41.2,69h-2.8v9.9h-1V69h-2.8v-0.9h6.6V69z"></path> <path d="M50.2,73.5v5.4h-0.9v-5.2c0-1.2-0.2-2-1.2-2c-0.8,0-1.4,0.5-1.9,1.1v6.1h-0.9V68.1h0.9v3.8c0.6-0.6,1.3-1.1,2.1-1.1 C49.6,70.9,50.2,71.7,50.2,73.5z"></path> <path d="M59.8,74.4v0.8h-4.3c0,2.3,0.7,3.1,2,3.1c0.7,0,1.2-0.2,1.9-0.7l0.4,0.6c-0.7,0.6-1.5,0.8-2.4,0.8c-1.7,0-2.8-0.9-2.8-4.1 c0-3,1.2-4.1,2.8-4.1C59,70.9,59.8,71.9,59.8,74.4z M55.5,74.4h3.4c0-1.8-0.3-2.8-1.6-2.8C55.9,71.6,55.5,72.9,55.5,74.4z"></path> <path d="M73.6,71.8l-0.5,0.6c-0.5-0.5-1-0.7-1.6-0.7c-0.8,0-1.4,0.4-1.4,1.2c0,0.8,0.5,1.1,1.6,1.7c1.2,0.5,2,1.1,2,2.3 c0,1.4-0.9,2.2-2.5,2.2c-0.9,0-1.7-0.4-2.3-1l0.5-0.6c0.5,0.5,1.2,0.8,1.8,0.8c0.9,0,1.5-0.5,1.5-1.4c0-0.8-0.5-1.3-1.6-1.7 c-1.3-0.5-2-1.1-2-2.3c0-1.3,1-2,2.3-2C72.3,70.9,73,71.2,73.6,71.8z"></path> <path d="M82.9,73.5v5.4H82v-5.2c0-1.2-0.2-2-1.2-2c-0.8,0-1.4,0.5-1.9,1.1v6.1H78V68.1h0.9v3.8c0.6-0.6,1.3-1.1,2.1-1.1 C82.3,70.9,82.9,71.7,82.9,73.5z"></path> <path d="M92,73.3v5.6h-0.8v-1.5C90.8,78.5,90,79,89,79c-1.1,0-1.9-0.7-1.9-2.2c0-1.1,0.5-2.4,2.9-2.4c0.4,0,0.7,0,1,0.1v-1.1 c0-1.1-0.5-1.7-1.4-1.7c-0.7,0-1.3,0.3-1.9,0.8l-0.5-0.6c0.6-0.6,1.5-1,2.3-1C91.2,70.9,92,71.6,92,73.3z M88,76.9 c0,1,0.4,1.4,1.2,1.4c1,0,1.9-1.3,1.9-2.6v-0.6c-0.2,0-0.5-0.1-0.9-0.1C88.6,75,88,75.7,88,76.9z"></path> <path d="M99.8,71l-0.1,0.9c-0.2,0-0.3-0.1-0.5-0.1c-0.7,0-1.2,0.7-1.5,1.4v5.6h-0.9v-7.7h0.8v1.1c0.3-0.7,0.9-1.3,1.6-1.3 C99.3,70.9,99.6,70.9,99.8,71z"></path> <path d="M109.1,75c0,3-0.9,4.1-2.6,4.1c-1,0-1.7-0.6-2-1v3.8h-0.9V71.1h0.9V72c0.5-0.7,1.3-1.1,2.2-1.1 C108.3,70.9,109.1,72,109.1,75z M104.5,72.8v4.3c0.3,0.5,1,1.1,1.8,1.1c1.2,0,1.8-0.7,1.8-3.3c0-2.5-0.6-3.3-1.7-3.3 C105.6,71.7,105,72.2,104.5,72.8z"></path> <path d="M118.4,74.4v0.8h-4.3c0,2.3,0.7,3.1,2,3.1c0.7,0,1.2-0.2,1.9-0.7l0.4,0.6c-0.7,0.6-1.5,0.8-2.4,0.8c-1.7,0-2.8-0.9-2.8-4.1 c0-3,1.2-4.1,2.8-4.1C117.6,70.9,118.4,71.9,118.4,74.4z M114.1,74.4h3.4c0-1.8-0.3-2.8-1.6-2.8C114.5,71.6,114.1,72.9,114.1,74.4z "></path> <path d="M126.9,71.8l-0.5,0.6c-0.5-0.5-1-0.7-1.6-0.7c-0.8,0-1.4,0.4-1.4,1.2c0,0.8,0.5,1.1,1.6,1.7c1.2,0.5,2,1.1,2,2.3 c0,1.4-0.9,2.2-2.5,2.2c-0.9,0-1.7-0.4-2.3-1l0.5-0.6c0.5,0.5,1.2,0.8,1.8,0.8c0.9,0,1.5-0.5,1.5-1.4c0-0.8-0.5-1.3-1.6-1.7 c-1.3-0.5-2-1.1-2-2.3c0-1.3,1-2,2.3-2C125.6,70.9,126.3,71.2,126.9,71.8z"></path> <path d="M132.4,71.1h1.5v0.7h-1.5v5.8c0,0.5,0.1,0.7,0.6,0.7c0.3,0,0.6-0.1,0.8-0.2l0.2,0.7c-0.3,0.1-0.8,0.3-1.2,0.3 c-0.9,0-1.4-0.4-1.4-1.3v-5.9h-0.8v-0.6l0.9-0.1l0.1-2.1h0.8V71.1z"></path> <path d="M149,69h-4.6v4h4.2v0.8h-4.2v4.3h4.7v0.8h-5.7V68.1h5.6V69z"></path> <path d="M158.2,71.1l-2.4,8.3c-0.5,1.7-0.8,2.5-1.9,2.5c-0.5,0-0.8,0-1.2-0.2l0.2-0.7c0.2,0.1,0.5,0.1,0.8,0.1 c0.5,0,0.8-0.3,1.1-1.5l0.1-0.4l-2.3-8.1h1l1.8,6.7l1.8-6.7H158.2z"></path> <path d="M166.9,74.4v0.8h-4.3c0,2.3,0.7,3.1,2,3.1c0.7,0,1.2-0.2,1.9-0.7l0.4,0.6c-0.7,0.6-1.5,0.8-2.4,0.8c-1.7,0-2.8-0.9-2.8-4.1 c0-3,1.2-4.1,2.8-4.1C166.1,70.9,166.9,71.9,166.9,74.4z M162.6,74.4h3.4c0-1.8-0.3-2.8-1.6-2.8C163,71.6,162.6,72.9,162.6,74.4z"></path> <path d="M182,75c0,2.9-1.1,4.1-2.9,4.1c-1.8,0-2.8-1.2-2.8-4.1s1-4.1,2.8-4.1S182,72.1,182,75z M177.2,75c0,2.4,0.7,3.3,1.9,3.3 s1.9-0.9,1.9-3.3s-0.8-3.3-1.9-3.3S177.2,72.6,177.2,75z"></path> <path d="M191.3,73.5v5.4h-0.9v-5.2c0-1.3-0.4-2-1.3-2c-0.8,0-1.5,0.8-1.8,1.2v6h-0.9v-7.8h0.9V72c0.5-0.6,1.2-1.1,2.1-1.1 C190.9,70.9,191.3,72,191.3,73.5z"></path> <path d="M202.4,78.9h-1V68.1h1V78.9z"></path> <path d="M210.3,68.1c2,0,3,1,3,3.1c0,2.2-1.1,3.2-3.2,3.2h-1.6v4.4h-1V68.1H210.3z M208.5,69v4.7h1.6c1.4,0,2.2-0.7,2.2-2.4 c0-1.7-0.7-2.3-2-2.3C210.3,69,208.5,69,208.5,69z"></path> </g> <g> <g> <g> <path d="M80.7,51.8h10.8l13.3-33.5H94.5l-8.4,23.6L86,41.6l-8.2-23.2H67.5L80.7,51.8z"></path> </g> <g> <path d="M123.9,17.4c-10.4,0-18.3,7.6-18.3,17.6c0,10.4,8,17.7,19.5,17.7c4.8,0,8.9-1,12.3-3.1l-3.8-6.5c-1.9,1-5,2.1-8.1,2.1 c-4.9,0-8.7-2.5-9.8-6.4v-0.2h25.8c0.2-1.1,0.3-2.3,0.3-3.5C141.8,25,134.1,17.4,123.9,17.4z M132.4,31.8h-16.8v-0.1 c0.8-4.4,4-7.2,8.4-7.2C128.2,24.5,131.6,27.4,132.4,31.8L132.4,31.8z"></path> </g> </g> <g> <path class="st0" d="M197.7,4.8v17.1h-3.5V4.8H197.7z"></path> <path class="st0" d="M201,21.9V4.8h6.2c3.6,0,6.3,2.1,6.3,5.5s-2.7,5.5-6.3,5.5h-2.7v6L201,21.9L201,21.9z M204.5,12.8h2.7 c1.6,0,2.9-0.9,2.9-2.4s-1.2-2.5-2.9-2.5h-2.7V12.8z"></path> </g> <g> <radialGradient id="SVGID_1_" cx="48.2" cy="961.1" r="17.7" gradientTransform="matrix(1 0 0 1 0 -926)" gradientUnits="userSpaceOnUse"> <stop offset="0.6753" style="stop-color:#6B96B4"></stop> <stop offset="1" style="stop-color:#527287"></stop> </radialGradient> <circle class="st1" cx="48.2" cy="35.1" r="17.7"></circle> <circle cx="48.2" cy="35.1" r="8.2"></circle> <circle class="st2" cx="55.1" cy="28.7" r="4.8"></circle> </g> <path d="M21.6,9.4H28L33.5,0H21l0,0C12.6,0,7.2,6.1,7.2,15.5v2.9H3.6L0,26.6h7.1v25.3H17V26.5h10.4l0.1-8.2H17.1v-3.1 C17.1,11.5,18.7,9.4,21.6,9.4z"></path> </g> <path d="M173.6,18.3v2.4l-0.2-0.1c-2.8-2-6.3-3.1-9.9-3.1c-9.7,0-17.3,7.8-17.3,17.7s7.6,17.6,17.3,17.6c2.5,0,5-0.6,7.2-1.6l-3-7.3 c-0.7,0.2-1.5,0.3-2.3,0.3c-5,0-9.2-4.1-9.2-9.1c0-4.9,4.3-9,9.3-9c3.3,0,6.2,1.6,7.9,4.2l0.1,0.1v9.5l0,0v9.5l0,0v2.4h9.5V18.3 H173.6z"></path> </svg> 