<svg fill="none" height="158" viewBox="0 0 526 158" width="526" xmlns="http://www.w3.org/2000/svg"><path d="m316.359 9.85173 11.381 32.19287v.9554h-5.234l-2.492-7.4355h-14.082l-2.492 7.4355h-5.234v-.9554l11.382-32.19287zm-8.973 21.39267h11.174l-5.358-15.9926h-.416zm31.01 12.2956c-3.157 0-5.733-1.1492-7.727-3.4477-1.993-2.2985-2.99-5.414-2.99-9.3464 0-3.9323.983-7.0339 2.949-9.3047 1.966-2.2985 4.486-3.4478 7.56-3.4478s5.511 1.177 7.311 3.5308h.581v-11.67247h4.861v33.14827h-4.57l-.249-2.9908h-.623c-.776 1.0523-1.786 1.9108-3.032 2.5754-1.247.6369-2.604.9554-4.071.9554zm-4.03-6.5632c1.274 1.5231 2.977 2.2847 5.11 2.2847 2.132 0 3.835-.7616 5.109-2.2847 1.302-1.5231 1.952-3.6 1.952-6.2309 0-2.6308-.65-4.7077-1.952-6.2308-1.274-1.5508-2.977-2.3262-5.109-2.3262-2.133 0-3.836.7615-5.11 2.2846-1.246 1.5231-1.869 3.6139-1.869 6.2724 0 2.6309.623 4.7078 1.869 6.2309zm26.381 6.0232-8.432-23.2204v-1.2462h4.735l6.979 20.4373h.54l6.979-20.4373h4.693v1.2462l-8.432 23.2204zm37.974-4.1955h1.413v4.1955h-2.327c-2.52 0-4.098-1.0108-4.735-3.0324h-.374c-1.661 2.3816-4.181 3.5724-7.56 3.5724-2.769 0-5.012-.72-6.729-2.16-1.717-1.4677-2.576-3.4339-2.576-5.8986 0-2.3539.748-4.1678 2.243-5.4416 1.496-1.2739 3.683-1.9108 6.564-1.9108h7.975v-1.4124c0-1.4954-.471-2.6585-1.412-3.4893-.942-.8584-2.34-1.2877-4.196-1.2877-3.295 0-5.164 1.2877-5.608 3.8632h-4.86c.194-2.3262 1.163-4.2093 2.908-5.6494 1.745-1.44 4.251-2.16 7.519-2.16 3.489 0 6.106.7754 7.851 2.3262 1.744 1.5231 2.617 3.6416 2.617 6.3555v10.8417c0 .8585.429 1.2877 1.287 1.2877zm-12.96.5401c2.16 0 3.849-.5816 5.068-1.7447 1.218-1.1908 1.828-2.8108 1.828-4.8601v-.7477h-7.644c-2.907 0-4.361 1.1354-4.361 3.4062 0 1.2739.471 2.257 1.412 2.9493.942.6646 2.174.997 3.697.997zm16.361 3.6554v-24.4666h4.527l.291 2.7416h.54c1.662-2.1323 3.974-3.1985 6.937-3.1985 3.213 0 5.456.9554 6.73 2.8662 1.301 1.8831 1.952 4.5139 1.952 7.8924v14.1649h-4.86v-12.8356c0-1.2185-.069-2.2431-.208-3.0739-.111-.8308-.346-1.62-.706-2.3677s-.914-1.3016-1.662-1.6616c-.747-.3877-1.689-.5816-2.824-.5816-3.905 0-5.857 2.4232-5.857 7.2694v13.251zm34.964.54c-3.572 0-6.48-1.1492-8.723-3.4477-2.216-2.3262-3.323-5.4417-3.323-9.3464 0-3.9046 1.107-7.0062 3.323-9.3047 2.243-2.2985 5.151-3.4478 8.723-3.4478 3.129 0 5.719.8446 7.768 2.5339s3.254 4.0016 3.614 6.937h-4.819c-.304-1.6338-1.052-2.9215-2.243-3.8631-1.163-.9416-2.603-1.4123-4.32-1.4123-2.16 0-3.905.7615-5.234 2.2846s-1.994 3.6139-1.994 6.2724c0 2.6309.651 4.7217 1.953 6.2725 1.329 1.5231 3.087 2.2846 5.275 2.2846 1.717 0 3.171-.4846 4.362-1.4539 1.218-.9692 1.966-2.3123 2.243-4.0293h4.777c-.333 2.9909-1.537 5.3586-3.614 7.1032-2.077 1.7447-4.666 2.617-7.768 2.617zm36.106-13.0848c0 .6092-.014 1.1215-.041 1.5369h-19.316c.194 2.3539.942 4.1816 2.243 5.4832 1.302 1.3015 2.963 1.9523 4.985 1.9523 1.523 0 2.852-.3877 3.988-1.1631 1.163-.7754 1.952-1.8969 2.367-3.3646h5.276c-.72 2.7415-2.091 4.86-4.113 6.3555-2.021 1.4954-4.527 2.2431-7.518 2.2431-3.683 0-6.619-1.1354-8.806-3.4062-2.16-2.2985-3.241-5.414-3.241-9.3464 0-3.7939 1.094-6.8539 3.282-9.1801 2.216-2.3539 5.137-3.5309 8.765-3.5309 3.655 0 6.577 1.1631 8.765 3.4893 2.187 2.2985 3.309 5.2755 3.364 8.931zm-12.129-8.3909c-1.856 0-3.406.5123-4.653 1.5369-1.218 1.0246-2.021 2.5339-2.409 4.5278h14.082c-.36-1.9385-1.163-3.4339-2.409-4.4863-1.246-1.0523-2.783-1.5784-4.611-1.5784zm23.46 21.4757c-3.157 0-5.733-1.1492-7.727-3.4477-1.993-2.2985-2.99-5.414-2.99-9.3464 0-3.9323.983-7.0339 2.949-9.3047 1.966-2.2985 4.486-3.4478 7.56-3.4478s5.511 1.177 7.311 3.5308h.582v-11.67247h4.86v33.14827h-4.57l-.249-2.9908h-.623c-.775 1.0523-1.786 1.9108-3.032 2.5754-1.247.6369-2.604.9554-4.071.9554zm-4.03-6.5632c1.274 1.5231 2.977 2.2847 5.11 2.2847 2.132 0 3.835-.7616 5.109-2.2847 1.302-1.5231 1.952-3.6 1.952-6.2309 0-2.6308-.65-4.7077-1.952-6.2308-1.274-1.5508-2.977-2.3262-5.109-2.3262-2.133 0-3.836.7615-5.11 2.2846-1.246 1.5231-1.869 3.6139-1.869 6.2724 0 2.6309.623 4.7078 1.869 6.2309zm-178.881 46.0232v-33.1483h12.337c7.948 0 11.922 3.4201 11.922 10.2602 0 6.8678-3.974 10.3017-11.922 10.3017h-7.228v12.5864zm5.109-16.9895h6.273c.831 0 1.495-.0139 1.994-.0416.526-.0277 1.204-.1384 2.035-.3323.831-.2215 1.482-.5261 1.952-.9138.471-.3877.887-.9693 1.247-1.7447.387-.7754.581-1.7169.581-2.8247 0-.803-.097-1.5092-.291-2.1185-.193-.6369-.443-1.1492-.747-1.5369-.277-.4154-.665-.7616-1.163-1.0385-.471-.2769-.9-.4846-1.288-.6231-.388-.1384-.9-.2354-1.537-.2907-.609-.0831-1.08-.1247-1.412-.1247-.333-.0277-.79-.0415-1.371-.0415h-6.273zm21.526 16.9895v-24.4666h4.528l.29 2.2847h.582c.997-1.5231 2.423-2.2847 4.278-2.2847h3.947v4.6939h-4.57c-1.384 0-2.437.3601-3.157 1.0801s-1.08 1.7723-1.08 3.1569v15.5357zm24.66.54c-3.517 0-6.41-1.1492-8.681-3.4477-2.243-2.3262-3.365-5.4417-3.365-9.3464 0-3.9046 1.122-7.0062 3.365-9.3047 2.271-2.2985 5.164-3.4478 8.681-3.4478 3.545 0 6.453 1.1631 8.724 3.4893 2.271 2.2985 3.406 5.3862 3.406 9.2632s-1.135 6.9786-3.406 9.3048-5.179 3.4893-8.724 3.4893zm0-4.237c2.216 0 3.988-.7615 5.317-2.2846 1.33-1.5231 1.994-3.614 1.994-6.2725 0-2.6308-.664-4.7077-1.994-6.2308-1.329-1.5508-3.101-2.3262-5.317-2.3262-2.16 0-3.904.7615-5.233 2.2846-1.33 1.5231-1.994 3.6139-1.994 6.2724 0 2.6309.65 4.7217 1.952 6.2725 1.329 1.5231 3.088 2.2846 5.275 2.2846zm25.33-16.8649h-5.027v15.0787c0 .8585.43 1.2877 1.288 1.2877h3.739v4.1955h-4.777c-1.634 0-2.88-.4292-3.739-1.2877-.858-.8862-1.288-2.1462-1.288-3.7801v-15.4941h-3.987v-3.9047h3.987v-6.1893h4.777v6.1893h5.027zm24.652 8.0171c0 .6092-.014 1.1215-.042 1.5369h-19.315c.193 2.3539.941 4.1816 2.243 5.4832 1.301 1.3015 2.963 1.9523 4.984 1.9523 1.524 0 2.853-.3877 3.988-1.1631 1.163-.7754 1.953-1.8969 2.368-3.3646h5.275c-.72 2.7415-2.09 4.86-4.112 6.3555-2.022 1.4954-4.528 2.2431-7.519 2.2431-3.683 0-6.618-1.1354-8.806-3.4062-2.16-2.2985-3.24-5.414-3.24-9.3464 0-3.7939 1.094-6.8539 3.282-9.1801 2.215-2.3539 5.137-3.5309 8.764-3.5309 3.656 0 6.577 1.1631 8.765 3.4893 2.188 2.2985 3.309 5.2755 3.365 8.931zm-12.13-8.3909c-1.855 0-3.406.5123-4.652 1.5369-1.218 1.0246-2.022 2.5339-2.409 4.5278h14.082c-.36-1.9385-1.164-3.4339-2.41-4.4863-1.246-1.0523-2.783-1.5784-4.611-1.5784zm14.488-6.9371v-5.2755h4.818v5.2755zm0 27.8728v-24.4666h4.818v24.4666zm9.169 0v-24.4666h4.528l.291 2.7416h.54c1.661-2.1323 3.974-3.1985 6.937-3.1985 3.212 0 5.455.9554 6.729 2.8662 1.302 1.8831 1.953 4.5139 1.953 7.8924v14.1649h-4.86v-12.8356c0-1.2185-.07-2.2431-.208-3.0739-.111-.8308-.346-1.62-.706-2.3677s-.914-1.3016-1.662-1.6616c-.748-.3877-1.689-.5816-2.825-.5816-3.904 0-5.857 2.4232-5.857 7.2694v13.251zm-105.576 40v-28.6205h-10.717v-4.5278h26.626v4.5278h-10.841v28.6205zm35.264-12.545c0 .609-.013 1.122-.041 1.537h-19.316c.194 2.354.942 4.182 2.243 5.483 1.302 1.302 2.963 1.953 4.985 1.953 1.523 0 2.852-.388 3.988-1.163 1.163-.776 1.952-1.897 2.367-3.365h5.276c-.72 2.741-2.091 4.86-4.112 6.355-2.022 1.496-4.528 2.243-7.519 2.243-3.683 0-6.619-1.135-8.806-3.406-2.16-2.298-3.24-5.414-3.24-9.346 0-3.794 1.093-6.854 3.281-9.18 2.216-2.3541 5.137-3.5311 8.765-3.5311 3.655 0 6.577 1.1631 8.765 3.4891 2.187 2.299 3.309 5.276 3.364 8.931zm-12.129-8.391c-1.855 0-3.406.513-4.652 1.537-1.219 1.025-2.022 2.534-2.41 4.528h14.082c-.36-1.939-1.163-3.434-2.409-4.486-1.246-1.053-2.783-1.579-4.611-1.579zm24.665 21.476c-3.573 0-6.481-1.149-8.724-3.448-2.215-2.326-3.323-5.441-3.323-9.346s1.108-7.006 3.323-9.305c2.243-2.2983 5.151-3.4476 8.724-3.4476 3.129 0 5.718.8446 7.767 2.5336 2.05 1.69 3.254 4.002 3.614 6.937h-4.818c-.305-1.634-1.053-2.921-2.243-3.863-1.164-.941-2.604-1.412-4.32-1.412-2.161 0-3.905.761-5.234 2.285-1.33 1.523-1.994 3.613-1.994 6.272 0 2.631.65 4.722 1.952 6.272 1.329 1.523 3.088 2.285 5.276 2.285 1.716 0 3.17-.485 4.361-1.454 1.219-.969 1.966-2.312 2.243-4.029h4.777c-.332 2.991-1.537 5.358-3.614 7.103s-4.666 2.617-7.767 2.617zm13.799-.54v-33.1483h4.819v11.4233h.54c1.661-2.1323 3.974-3.1985 6.937-3.1985 3.212 0 5.455.9554 6.729 2.8665 1.302 1.883 1.953 4.514 1.953 7.892v14.165h-4.861v-12.836c0-1.218-.069-2.243-.207-3.074-.111-.83-.346-1.62-.706-2.367-.333-.748-.873-1.302-1.62-1.662-.748-.388-1.704-.581-2.867-.581-2.16 0-3.683.664-4.569 1.994-.858 1.329-1.288 3.157-1.288 5.483v13.043zm24.787 0v-24.4666h4.527l.291 2.7416h.54c1.662-2.1323 3.974-3.1985 6.937-3.1985 3.212 0 5.456.9554 6.729 2.8665 1.302 1.883 1.953 4.514 1.953 7.892v14.165h-4.86v-12.836c0-1.218-.07-2.243-.208-3.074-.111-.83-.346-1.62-.706-2.367-.36-.748-.914-1.302-1.662-1.662-.747-.388-1.689-.581-2.824-.581-3.905 0-5.857 2.423-5.857 7.269v13.251zm34.964.54c-3.517 0-6.411-1.149-8.682-3.448-2.243-2.326-3.365-5.441-3.365-9.346s1.122-7.006 3.365-9.305c2.271-2.2983 5.165-3.4476 8.682-3.4476 3.545 0 6.452 1.1631 8.723 3.4896 2.271 2.298 3.406 5.386 3.406 9.263s-1.135 6.979-3.406 9.305-5.178 3.489-8.723 3.489zm0-4.237c2.215 0 3.988-.762 5.317-2.285s1.994-3.614 1.994-6.272c0-2.631-.665-4.708-1.994-6.231-1.329-1.551-3.102-2.326-5.317-2.326-2.16 0-3.905.761-5.234 2.285-1.329 1.523-1.994 3.613-1.994 6.272 0 2.631.651 4.722 1.952 6.272 1.33 1.523 3.088 2.285 5.276 2.285zm14.57 3.697v-33.1483h4.777v33.1483zm19.305.54c-3.517 0-6.411-1.149-8.681-3.448-2.243-2.326-3.365-5.441-3.365-9.346s1.122-7.006 3.365-9.305c2.27-2.2983 5.164-3.4476 8.681-3.4476 3.545 0 6.453 1.1631 8.724 3.4896 2.27 2.298 3.406 5.386 3.406 9.263s-1.136 6.979-3.406 9.305c-2.271 2.326-5.179 3.489-8.724 3.489zm0-4.237c2.216 0 3.988-.762 5.317-2.285 1.33-1.523 1.994-3.614 1.994-6.272 0-2.631-.664-4.708-1.994-6.231-1.329-1.551-3.101-2.326-5.317-2.326-2.16 0-3.904.761-5.234 2.285-1.329 1.523-1.993 3.613-1.993 6.272 0 2.631.65 4.722 1.952 6.272 1.329 1.523 3.088 2.285 5.275 2.285zm16.939 12.088v-4.279h13.043c.803 0 1.205-.401 1.205-1.204v-6.397h-.499c-1.828 2.464-4.306 3.697-7.435 3.697-3.157 0-5.691-1.136-7.602-3.407-1.911-2.27-2.866-5.344-2.866-9.221s.955-6.937 2.866-9.18c1.938-2.2712 4.486-3.4066 7.643-3.4066 3.019 0 5.469 1.177 7.353 3.5306h.581l.291-2.9906h4.528v27.7896c0 1.634-.443 2.88-1.33 3.739-.858.886-2.104 1.329-3.738 1.329zm7.726-12.42c2.16 0 3.863-.748 5.109-2.243 1.246-1.524 1.869-3.559 1.869-6.107 0-2.547-.636-4.583-1.91-6.106-1.246-1.523-2.95-2.285-5.11-2.285s-3.877.748-5.15 2.244c-1.247 1.495-1.87 3.53-1.87 6.106 0 2.603.637 4.652 1.911 6.148 1.302 1.495 3.019 2.243 5.151 2.243zm31.947-20.4376h4.736v1.2462l-10.178 27.9144c-.886 2.465-2.713 3.697-5.483 3.697h-6.106v-4.279h6.148c.664 0 1.121-.304 1.371-.913l-9.721-26.4194v-1.2462h4.777l7.021 20.4376h.457z" fill="#33815d"/><g fill="#29c67d"><path d="m67.52 58.7499-2.91.48h-.06l-31.24 5.16c-7.65 1.21-13.93 3.2701-18.84 6.19-4.92 2.91-8.55 6.49-10.92 10.74-2.37 4.24-3.55 9.04-3.55 14.37 0 5.7101 1.39 10.6801 4.19 14.9301 2.79 4.25 6.7 7.52 11.73 9.83 5.04 2.3 10.89 3.45 17.57 3.45 5.46 0 10.49-.79 15.1-2.36 4.61-1.58 8.68-3.82 12.2-6.74 1.73-1.43 3.31-2.99 4.73-4.68v11.6h19.66v-65.1201l-17.66 2.14zm-2.91 22.02c0 4.98-1.18 9.49-3.55 13.56-2.36 4.06-5.64 7.3101-9.83 9.7401-4.18 2.42-9.01 3.63-14.47 3.63-4.49 0-8.16-1.18-11.01-3.54-2.85-2.37-4.27-5.4301-4.27-9.1901s1.27-6.92 3.82-9.47 6.55-4.3 12.01-5.28l27.3-4.6zm15.56-43.23c-3.34-5.15-8.01-9.19-14.01-12.1-6.01-2.91-12.9-4.37-20.66-4.37-6.31 0-12.23 1.04-17.74 3.1-5.53 2.06-10.32 4.97-14.38 8.73-4.07 3.77-7.07 8.07-9.01 12.92l17.29 8.56c1.94-4.61 4.94-8.31 9.01-11.1 4.06-2.79 8.76-4.19 14.1-4.19 5.95 0 10.74 1.55 14.38 4.64.03.03.07.06.1.09 5.91 5.11 14.13 6.59 21.28 3.44l3.36-1.48c-.83-2.95-2.07-5.68-3.72-8.23z"/><path d="m97.0801 157.43v-134.86h19.6599v20.38l-2.37-4.73c3.64-5.58 8.49-9.95 14.56-13.1s12.98-4.73 20.75-4.73c9.34 0 17.75 2.25 25.21 6.73 7.46 4.49 13.35 10.62 17.65 18.38 4.31 7.77 6.46 16.5 6.46 26.21s-2.16 18.44-6.46 26.21c-4.31 7.77-10.16 13.92-17.56 18.47s-15.83 6.83-25.3 6.83c-7.64 0-14.59-1.58-20.84-4.73s-11.07-7.7-14.47-13.65l3.28-3.82v56.42h-20.5699zm50.4099-53.33c5.82 0 11.01-1.39 15.56-4.19 4.55-2.79 8.1-6.64 10.65-11.56 2.55-4.91 3.82-10.46 3.82-16.65s-1.27-11.68-3.82-16.47-6.1-8.61-10.65-11.47c-4.55-2.85-9.74-4.28-15.56-4.28s-10.65 1.4-15.2 4.19-8.13 6.64-10.74 11.56c-2.61 4.91-3.91 10.41-3.91 16.47s1.3 11.74 3.91 16.65 6.19 8.77 10.74 11.56 9.61 4.19 15.2 4.19z"/><path d="m248.87 122.12c-10.31 0-18.32-2.91-24.02-8.74-5.7-5.82-8.55-14.01-8.55-24.57v-47.5h-17.47v-18.74h2.73c4.61 0 8.22-1.33 10.83-4s3.91-6.31 3.91-10.92v-7.65h20.57v22.57h-.05v18.75h.05v46.59c0 3.4.55 6.28 1.64 8.65s2.85 4.19 5.28 5.46 5.58 1.91 9.46 1.91c.97 0 2.06-.06 3.28-.18 1.21-.12 2.37-.24 3.46-.36v17.65c-1.7.24-3.58.48-5.64.73-2.06.24-3.88.36-5.46.36z"/></g><path d="m264.905 32.3533c-7.457 8.6489-19.04 10.88-23.899 10.9144-1.505-10.6019 4.596-21.1164 7.834-25.0485 7.845-8.91667 19.418-11.30862 24.035-11.17566.577 4.68996-.512 16.66086-7.97 25.30976z" fill="#194430"/></svg>