<?xml version="1.0" encoding="utf-8"?>
<!-- Generator: Adobe Illustrator 15.0.2, SVG Export Plug-In . SVG Version: 6.00 Build 0)  -->
<!DOCTYPE svg PUBLIC "-//W3C//DTD SVG 1.1//EN" "http://www.w3.org/Graphics/SVG/1.1/DTD/svg11.dtd">
<svg version="1.1" id="Layer_1" xmlns="http://www.w3.org/2000/svg" xmlns:xlink="http://www.w3.org/1999/xlink" x="0px" y="0px"
	 width="305px" height="136px" viewBox="0 0 305 136" enable-background="new 0 0 305 136" xml:space="preserve">
<g id="_x23_f06519ff">
	<path fill="#F06519" d="M39.766,1.781h2.53c1.942,0.172,3.861,0.65,5.622,1.496c4.539,2.162,7.864,6.18,10.395,10.418
		c4.011,6.847,6.404,14.498,8.299,22.162c2.521,10.48,3.969,21.191,4.951,31.918c0.981,11.29,1.489,22.627,1.38,33.958
		c-2.52-2.4-4.932-4.91-7.336-7.424c-8.948-9.449-17.483-19.311-25.244-29.764c-5.335-7.234-10.333-14.761-14.338-22.822
		c-2.537-5.201-4.711-10.658-5.594-16.408c-0.65-4.373-0.449-9.064,1.653-13.041c1.897-3.678,5.3-6.355,9.022-8.031
		C33.845,2.986,36.749,2.023,39.766,1.781 M33.397,9.242c-2.271,1.074-4.403,2.59-5.821,4.695c-1.734,2.437-2.387,5.478-2.38,8.426
		c0.081,4.219,1.229,8.342,2.778,12.242c1.787,4.565,4.114,8.896,6.626,13.096c4.227,6.962,9.017,13.566,14.088,19.933
		c4.756,6.009,9.791,11.798,14.979,17.439c1.418,1.383,2.606,2.996,4.143,4.254c0.107-1.289-0.002-2.58,0-3.871
		c-0.397-11.68-1.3-23.356-3.07-34.914c-1.388-8.729-3.175-17.458-6.336-25.735c-1.537-3.953-3.407-7.828-6.038-11.178
		c-2.24-2.798-5.183-5.255-8.767-6.02C40.136,6.804,36.536,7.738,33.397,9.242z"/>
	<path fill="#F06519" d="M122.905,50.017c1.474-0.365,3.101-0.271,4.472,0.418c1.593,0.836,2.894,2.33,3.28,4.112
		c0.286,1.341,0.208,2.808-0.452,4.033c-0.756,1.512-2.117,2.667-3.667,3.313c-2.083,0.782-4.595,0.278-6.174-1.305
		c-2.185-1.994-2.55-5.584-0.917-8.025C120.272,51.369,121.478,50.384,122.905,50.017z"/>
	<path fill="#F06519" d="M100.191,54.753c3.893-1.52,8.115-1.939,12.264-1.908c0.002,1.62,0,3.242,0.002,4.861
		c-3.429-0.014-7.101,0.432-9.944,2.516c-3.172,2.285-4.971,6.139-5.184,9.993c-0.179,3.34-0.047,6.688-0.085,10.033
		c5.089,0.002,10.179,0,15.266,0.002c0.002,1.285,0.002,2.57,0.002,3.857c-5.09,0-10.179-0.002-15.269,0
		c-0.002,9.229,0,18.455,0,27.682c-3.188,0.002-6.376,0-9.562,0.002c-0.002-12.512-0.002-25.023,0-37.537
		c0.05-4.066,0.868-8.22,3.022-11.717C92.874,58.968,96.294,56.218,100.191,54.753z"/>
	<path fill="#F06519" d="M211.97,56.696c4.736-3.081,10.544-3.911,16.09-3.849c0,1.62,0,3.24,0.003,4.859
		c-3.471-0.016-7.189,0.445-10.048,2.582c-3.26,2.396-5.016,6.443-5.13,10.426c-0.083,3.178-0.018,6.355-0.032,9.535
		c5.104-0.002,10.212-0.002,15.318,0c0.003,1.285,0,2.57,0.003,3.857c-5.109,0.006-10.222-0.016-15.331,0.008
		c0.012,9.225,0.002,18.447,0.004,27.674c-3.186,0.002-6.373,0-9.559,0c-0.003-10.795,0-21.588-0.003-32.385
		c0.036-3.875-0.246-7.83,0.808-11.611C205.218,63.286,208.068,59.23,211.97,56.696z"/>
	<path fill="#F06519" d="M235.67,52.958c3.168-0.002,6.336-0.002,9.504,0c0.014,13.149-0.019,26.304,0.017,39.455
		c-0.051,3.846,1.119,7.852,3.917,10.592c2.349,2.412,5.761,3.428,9.045,3.604c-0.002,1.617,0,3.234-0.002,4.854
		c-4.788-0.061-9.712-1.062-13.767-3.719c-2.964-1.941-5.385-4.729-6.81-7.979c-1.23-2.734-1.79-5.734-1.904-8.719
		C235.668,78.348,235.668,65.652,235.67,52.958z"/>
	<path fill="#F06519" d="M120.066,70.127c3.186-0.002,6.374-0.002,9.56,0c0.004,13.812-0.002,27.625,0.002,41.438
		c-3.186,0.008-6.374,0-9.56,0.004C120.062,97.754,120.066,83.941,120.066,70.127z"/>
	<path fill="#F06519" d="M260.838,70.184c3.187-0.002,6.374-0.002,9.561,0c0.002,6.209,0,12.414,0.002,18.623
		c0.021,2.982-0.176,6.018,0.541,8.947c0.627,2.773,2.043,5.502,4.438,7.141c3.459,2.42,8.403,2.438,11.864,0.014
		c3.229-2.146,5.009-6.018,5.078-9.836c0.009-8.295-0.002-16.594,0.004-24.889c2.854-0.008,5.71,0.01,8.565-0.01
		c0.378,0.002,0.792-0.041,1.107,0.229v42.475c-0.179,2.432-0.35,4.887-1.099,7.223c-1.263,4.295-4.131,8.092-7.934,10.455
		c-4.151,2.607-9.125,3.482-13.955,3.664h-1.846c0-1.641,0-3.279,0-4.92c3.565,0.094,7.407-0.441,10.288-2.717
		c3.052-2.373,4.712-6.219,4.889-10.031c0.087-2.779,0.002-5.562,0.042-8.348c-2.148,1.957-5.025,2.879-7.846,3.328
		c-4.442,0.631-9.123,0.236-13.219-1.688c-3.038-1.438-5.792-3.662-7.445-6.629c-2.107-3.684-2.931-7.967-3.038-12.17
		C260.836,84.092,260.836,77.137,260.838,70.184z"/>
	<path fill="#F06519" d="M150.341,71.838c3.004-1.191,6.275-1.479,9.479-1.488c0.049,1.379,0.083,2.754,0.063,4.133
		c-1.396-0.117-2.687,0.457-4.002,0.812c-2.602,0.811-4.956,2.486-6.438,4.787c-1.601,2.355-2.229,5.234-2.258,8.051
		c0.005,7.83,0,15.66,0.003,23.49c-3.188-0.002-6.376,0.002-9.564-0.002c0.002-6.787,0.002-13.574,0-20.361
		c0.085-3.854,0.939-7.768,2.962-11.084c1.13-1.922,2.683-3.555,4.367-4.998C146.563,73.799,148.359,72.607,150.341,71.838z"/>
	<path fill="#F06519" d="M159.862,80.203c3.723-5.844,10.622-9.482,17.546-9.266c3.712,0.152,7.381,1.279,10.49,3.32
		c4.016,2.58,6.895,6.787,8.025,11.41c0.698,2.613,0.535,5.328,0.479,8.002c-10.239,0-20.481-0.004-30.722,0.002
		c0.303,2.281,0.755,4.582,1.762,6.67c1.676,3.459,5.038,6.145,8.881,6.688c2.539,0.352,5.157,0.232,7.638-0.418
		c3.521-0.92,6.676-2.836,9.533-5.039c0.004,0.982-0.007,1.967,0.009,2.955c-2.563,2.469-5.499,4.637-8.891,5.811
		c-4.175,1.457-8.781,1.605-13.062,0.535c-4.116-1.074-7.891-3.488-10.497-6.859c-2.326-3.031-3.806-6.701-4.241-10.498
		C156.196,88.902,157.328,84.102,159.862,80.203 M174.61,75.766c-2.036,0.324-3.812,1.568-5.166,3.07
		c-2.298,2.68-3.271,6.232-3.662,9.674c7.181,0.012,14.364,0.059,21.543-0.021c-0.449-3.555-1.154-7.428-3.818-10.047
		C181.252,76.082,177.764,75.256,174.61,75.766z"/>
	<path fill="#F06519" d="M11.482,73.727c3.865-1.148,8.002-0.459,11.773,0.721c4.863,1.562,9.395,4,13.736,6.662
		c9.432,5.904,18.016,13.055,26.215,20.551c3.354,3.131,6.707,6.264,9.85,9.607c-5.938,0.031-11.879-0.23-17.805-0.637
		c-10.468-0.775-20.953-2.037-31.106-4.77c-5.625-1.582-11.28-3.555-16.029-7.049C4.973,96.496,2.329,93.113,2,89.1v-2.121
		c0.266-2.652,1.253-5.186,2.539-7.502C6.046,76.801,8.502,74.598,11.482,73.727 M12.115,77.645
		c-1.944,0.846-3.483,2.438-4.465,4.297c-0.964,1.844-1.714,3.869-1.719,5.977c-0.041,2.438,1.042,4.801,2.698,6.559
		c1.743,1.916,3.973,3.311,6.262,4.484c5.792,2.84,12.109,4.383,18.414,5.6c6.44,1.193,12.955,1.955,19.485,2.461
		c3.803,0.271,7.613,0.535,11.43,0.529c-1.166-1.365-2.517-2.561-3.834-3.775c-4.016-3.756-8.179-7.354-12.472-10.789
		c-5.302-4.199-10.799-8.197-16.745-11.443c-3.438-1.828-7.007-3.514-10.834-4.336C17.632,76.641,14.692,76.502,12.115,77.645z"/>
</g>
<g id="_x23_f79515ff">
	<path fill="#F79515" d="M33.397,9.242c3.139-1.503,6.737-2.438,10.202-1.633c3.584,0.765,6.526,3.222,8.767,6.02
		c2.63,3.35,4.501,7.225,6.038,11.178c3.161,8.277,4.948,17.006,6.336,25.735c1.771,11.558,2.673,23.234,3.071,34.914
		c-0.003,1.291,0.106,2.582,0,3.871c-1.537-1.258-2.726-2.871-4.144-4.254c-5.188-5.641-10.224-11.43-14.979-17.439
		c-5.072-6.366-9.861-12.971-14.088-19.933c-2.512-4.199-4.839-8.53-6.625-13.096c-1.549-3.899-2.698-8.022-2.779-12.242
		c-0.006-2.948,0.646-5.989,2.38-8.426C28.995,11.832,31.126,10.314,33.397,9.242 M36.695,14.126
		c-2.42,0.922-4.582,2.766-5.463,5.25c-1.078,2.969-0.664,6.23,0.104,9.225c1.393,5.205,3.922,10.018,6.638,14.642
		c4.048,6.743,8.717,13.09,13.628,19.222c3.478,4.275,6.998,8.526,10.792,12.526c-0.143-4.354-0.628-8.689-1.085-13.018
		c-1.071-9.302-2.539-18.588-5.061-27.615c-1.389-4.856-3.062-9.688-5.68-14.033c-1.626-2.608-3.689-5.147-6.57-6.409
		C41.679,12.89,38.979,13.119,36.695,14.126z"/>
	<path fill="#F79515" d="M12.115,77.645c2.577-1.143,5.517-1.004,8.219-0.438c3.828,0.82,7.396,2.508,10.834,4.334
		c5.946,3.246,11.443,7.244,16.745,11.443c4.293,3.438,8.457,7.033,12.472,10.791c1.317,1.213,2.668,2.408,3.834,3.775
		c-3.816,0.004-7.626-0.258-11.43-0.529c-6.53-0.506-13.045-1.268-19.485-2.461c-6.305-1.219-12.622-2.76-18.414-5.602
		c-2.289-1.174-4.519-2.566-6.262-4.484c-1.655-1.758-2.738-4.121-2.698-6.559c0.004-2.105,0.754-4.131,1.719-5.975
		C8.632,80.082,10.171,78.49,12.115,77.645 M14.341,81.246c-1.304,0.516-2.382,1.516-3.062,2.73
		c-0.966,1.736-1.481,3.846-0.866,5.787c0.631,1.922,2.156,3.391,3.767,4.529c3.022,2.051,6.505,3.285,9.987,4.311
		c4.445,1.281,9.002,2.127,13.572,2.805c5.472,0.76,10.979,1.379,16.503,1.549c-0.57-0.676-1.267-1.221-1.928-1.801
		c-2.729-2.363-5.52-4.658-8.388-6.852c-5.234-3.992-10.664-7.799-16.588-10.701c-2.371-1.146-4.843-2.135-7.436-2.637
		C18.068,80.631,16.106,80.547,14.341,81.246z"/>
</g>
<g id="_x23_ffcf02ff">
	<path fill="#FFCF02" d="M36.695,14.126c2.284-1.009,4.983-1.236,7.304-0.212c2.881,1.262,4.944,3.801,6.57,6.409
		c2.617,4.345,4.291,9.177,5.68,14.033c2.521,9.027,3.989,18.313,5.061,27.615c0.457,4.329,0.942,8.667,1.086,13.018
		c-3.795-4-7.315-8.25-10.793-12.526c-4.912-6.132-9.581-12.479-13.628-19.222c-2.716-4.624-5.245-9.437-6.638-14.642
		c-0.77-2.994-1.184-6.256-0.104-9.225C32.113,16.892,34.274,15.048,36.695,14.126z"/>
	<path fill="#FFCF02" d="M14.341,81.246c1.766-0.699,3.728-0.615,5.562-0.277c2.593,0.502,5.064,1.49,7.436,2.637
		c5.924,2.902,11.354,6.709,16.588,10.699c2.868,2.193,5.658,4.488,8.388,6.852c0.661,0.58,1.357,1.127,1.928,1.801
		c-5.523-0.17-11.031-0.789-16.503-1.547c-4.57-0.678-9.127-1.523-13.572-2.807c-3.481-1.023-6.964-2.26-9.987-4.309
		c-1.61-1.141-3.136-2.607-3.767-4.529c-0.615-1.941-0.102-4.053,0.866-5.787C11.959,82.76,13.037,81.76,14.341,81.246z"/>
</g>
</svg>
