<svg xmlns="http://www.w3.org/2000/svg" xmlns:xlink="http://www.w3.org/1999/xlink" viewBox="0 0 381.27821 116.44125"><defs><style>.cls-1{fill:url(#linear-gradient);}.cls-2{fill:url(#linear-gradient-2);}.cls-3{fill:url(#linear-gradient-3);}.cls-4{fill:url(#linear-gradient-4);}.cls-5{fill:#40474e;}</style><linearGradient id="linear-gradient" x1="78.76008" y1="34.20059" x2="30.49704" y2="102.97542" gradientUnits="userSpaceOnUse"><stop offset="0" stop-color="#fcb415"/><stop offset="0.59035" stop-color="#f17387"/><stop offset="1" stop-color="#bd679c"/></linearGradient><linearGradient id="linear-gradient-2" x1="49.5496" y1="13.70201" x2="1.28657" y2="82.47684" xlink:href="#linear-gradient"/><linearGradient id="linear-gradient-3" x1="78.94467" y1="34.33013" x2="30.68163" y2="103.10496" xlink:href="#linear-gradient"/><linearGradient id="linear-gradient-4" x1="49.7342" y1="13.83155" x2="1.47116" y2="82.60638" xlink:href="#linear-gradient"/></defs><title>Asset 1</title><g id="Layer_2" data-name="Layer 2"><g id="Layer_1-2" data-name="Layer 1"><polygon class="cls-1" points="64.391 70.17 80.488 62.664 80.488 16.245 64.391 23.751 64.391 70.17"/><polygon class="cls-2" points="32.195 53.925 48.293 46.419 48.293 0 32.195 7.506 32.195 53.925"/><polygon class="cls-3" points="32.195 116.441 48.293 108.935 48.293 62.516 32.195 70.022 32.195 116.441"/><polygon class="cls-4" points="0 100.196 16.097 92.69 16.097 46.271 0 53.777 0 100.196"/><polygon class="cls-5" points="140.292 54.055 122.463 54.055 122.463 38.879 114.414 38.879 114.414 77.562 122.463 77.562 122.463 61.31 140.292 61.31 140.292 77.562 148.341 77.562 148.341 38.879 140.292 38.879 140.292 54.055"/><path class="cls-5" d="M191.75243,43.79914a20.4165,20.4165,0,0,0-6.37082-4.344,20.34756,20.34756,0,0,0-15.79419-.00046,19.95209,19.95209,0,0,0-6.37416,4.3467A20.64222,20.64222,0,0,0,158.957,50.257a20.8968,20.8968,0,0,0,0,15.8706,20.7216,20.7216,0,0,0,4.2845,6.48417,20.15224,20.15224,0,0,0,6.37194,4.37387,20.27564,20.27564,0,0,0,15.76817,0,20.16689,20.16689,0,0,0,6.37267-4.37387,20.74689,20.74689,0,0,0,4.2845-6.48417,20.5567,20.5567,0,0,0-4.28635-22.32847Zm-3.36175,19.16931a12.648,12.648,0,0,1-2.34906,4.12776,11.29974,11.29974,0,0,1-17.0882,0,12.68344,12.68344,0,0,1-2.35017-4.12776,15.35011,15.35011,0,0,1,0-9.91842,12.425,12.425,0,0,1,2.34757-4.07026,11.10164,11.10164,0,0,1,3.6728-2.74661,12.26092,12.26092,0,0,1,9.72179.00088,11.03221,11.03221,0,0,1,3.69881,2.74573A12.405,12.405,0,0,1,188.3918,53.05a15.32736,15.32736,0,0,1-.00112,9.91842Z"/><path class="cls-5" d="M231.49023,57.14341a13.07723,13.07723,0,0,0,1.61733-6.539,11.80493,11.80493,0,0,0-.73434-3.94757,11.2561,11.2561,0,0,0-2.32937-3.8071,12.09764,12.09764,0,0,0-4.17709-2.8568,15.79184,15.79184,0,0,0-6.23964-1.11353H206.65619V77.56186h7.7648V62.66924h4.64423l7.64365,14.89262h9.09373l-8.8689-16.06863A11.4,11.4,0,0,0,231.49023,57.14341ZM223.5701,54.424a5.05,5.05,0,0,1-3.88686,1.44312H214.421V45.85141h5.26225a5.22208,5.22208,0,0,1,3.81736,1.40122,4.78034,4.78034,0,0,1,1.446,3.63494A4.91155,4.91155,0,0,1,223.5701,54.424Z"/><rect class="cls-5" x="244.85546" y="38.87939" width="8.04872" height="38.68247"/><polygon class="cls-5" points="293.674 45.791 293.674 38.879 261.957 38.879 261.957 46.078 283.656 46.078 261.957 70.704 261.957 77.562 294.127 77.562 294.127 70.419 272.414 70.419 293.674 45.791"/><path class="cls-5" d="M333.01452,43.79914a20.41792,20.41792,0,0,0-6.37119-4.344,20.34661,20.34661,0,0,0-15.79381-.00046,19.95794,19.95794,0,0,0-6.37454,4.3467A20.63461,20.63461,0,0,0,300.2191,50.257a20.89668,20.89668,0,0,0,0,15.8706,20.71485,20.71485,0,0,0,4.2845,6.48417,20.1523,20.1523,0,0,0,6.37193,4.37387,20.27472,20.27472,0,0,0,15.7678,0,20.15872,20.15872,0,0,0,6.37268-4.37387,20.74808,20.74808,0,0,0,4.28487-6.48417,20.55667,20.55667,0,0,0-4.28636-22.32847Zm-3.36174,19.16931a12.64862,12.64862,0,0,1-2.34944,4.12776,11.29943,11.29943,0,0,1-17.08782,0,12.68326,12.68326,0,0,1-2.35017-4.12776,15.35011,15.35011,0,0,1,0-9.91842,12.425,12.425,0,0,1,2.34757-4.07026,11.10164,11.10164,0,0,1,3.6728-2.74661,12.26089,12.26089,0,0,1,9.72178.00088,11.03235,11.03235,0,0,1,3.69882,2.74573,12.3978,12.3978,0,0,1,2.3472,4.07026,15.324,15.324,0,0,1-.00074,9.91842Z"/><polygon class="cls-5" points="373.4 38.879 373.4 64.696 355.808 38.879 347.918 38.879 347.918 77.562 355.796 77.562 355.796 51.41 373.421 77.362 373.558 77.562 381.278 77.562 381.278 38.879 373.4 38.879"/></g></g></svg>