<?xml version="1.0" encoding="UTF-8"?>
<svg width="287px" height="41px" viewBox="0 0 287 41" version="1.1" xmlns="http://www.w3.org/2000/svg" xmlns:xlink="http://www.w3.org/1999/xlink">
    <title>Group 36</title>
    <defs>
        <filter id="filter-1">
            <feColorMatrix in="SourceGraphic" type="matrix" values="0 0 0 0 0.000000 0 0 0 0 0.000000 0 0 0 0 0.000000 0 0 0 1.000000 0"></feColorMatrix>
        </filter>
        <polygon id="path-2" points="0 41 287 41 287 0 0 0"></polygon>
    </defs>
    <g id="Home" stroke="none" stroke-width="1" fill="none" fill-rule="evenodd">
        <g id="Group-36" transform="translate(-111.000000, -83.000000)" filter="url(#filter-1)">
            <g transform="translate(111.000000, 83.000000)">
                <path d="M49,17.0016559 C49,11.5768169 52.9388525,8 57.9608894,8 C61.057971,8 63.3450467,9.53670653 64.7585865,11.450966 L62.112567,13.1433303 C61.2104427,11.8881325 59.7365495,11.0104876 57.9608894,11.0104876 C54.7145126,11.0104876 52.3384951,13.5208832 52.3384951,17.0016559 C52.3384951,20.44931 54.7145126,22.9895124 57.9608894,22.9895124 C59.6761961,22.9895124 60.9690292,22.2377185 61.7218582,21.5157314 L61.7218582,19.0384545 L57.2684137,19.0384545 L57.2684137,16.2167433 L65,16.2167433 L65,22.8338546 C63.2561048,24.7448022 60.8483224,26 57.9608894,26 C52.9388525,26 49,22.3933763 49,17.0016559" id="Fill-1" fill="#FFFFFF"></path>
                <mask id="mask-3" fill="white">
                    <use xlink:href="#path-2"></use>
                </mask>
                <g id="Clip-4"></g>
                <polygon id="Fill-3" fill="#FFFFFF" mask="url(#mask-3)" points="68 26 71 26 71 9 68 9"></polygon>
                <polygon id="Fill-5" fill="#FFFFFF" mask="url(#mask-3)" points="87.7094552 26 79.2310582 14.2227343 79.2310582 26 76 26 76 9 79.4690044 9 87.7689418 20.4345238 87.7689418 9 91 9 91 26"></polygon>
                <polygon id="Fill-6" fill="#FFFFFF" mask="url(#mask-3)" points="105.827441 26 99.8652232 18.9819508 98.4533805 20.5585637 98.4533805 26 95 26 95 9 98.4533805 9 98.4533805 16.7590246 105.260716 9 109.466416 9 102.092355 17.0038402 110 26"></polygon>
                <path d="M110,17.0016559 C110,11.5768169 113.941247,8 118.962287,8 C122.058753,8 124.345375,9.53670653 125.758634,11.450966 L123.11314,13.1433303 C122.211195,11.8881325 120.737594,11.0104876 118.962287,11.0104876 C115.716554,11.0104876 113.337832,13.5208832 113.337832,17.0016559 C113.337832,20.44931 115.716554,22.9895124 118.962287,22.9895124 C120.677253,22.9895124 121.969829,22.2377185 122.722509,21.5157314 L122.722509,19.0384545 L118.269948,19.0384545 L118.269948,16.2167433 L126,16.2167433 L126,22.8338546 C124.256451,24.7448022 121.849146,26 118.962287,26 C113.941247,26 110,22.3933763 110,17.0016559" id="Fill-7" fill="#FFFFFF" mask="url(#mask-3)"></path>
                <path d="M129,17.0016559 C129,11.8583257 132.625523,8 137.985275,8 C143.345028,8 147,11.8583257 147,17.0016559 C147,22.1449862 143.345028,26 137.985275,26 C132.625523,26 129,22.1449862 129,17.0016559 M143.53154,17.0016559 C143.53154,13.5838086 141.362116,11.0104876 137.985275,11.0104876 C134.608435,11.0104876 132.439011,13.5838086 132.439011,17.0016559 C132.439011,20.3863845 134.608435,22.9895124 137.985275,22.9895124 C141.362116,22.9895124 143.53154,20.3863845 143.53154,17.0016559" id="Fill-8" fill="#FFFFFF" mask="url(#mask-3)"></path>
                <path d="M158,26 L158,9 L165.528777,9 C168.625462,9 170.619219,10.6680108 170.619219,13.3577189 C170.619219,15.3978495 169.196634,16.8177803 167.646454,17.2225422 C169.480216,17.6860599 171,19.4781106 171,21.3942012 C171,24.2079493 168.975848,26 165.6861,26 L158,26 Z M168.815519,13.5111367 C168.815519,11.719086 167.582991,10.5145929 165.368782,10.5145929 L159.740236,10.5145929 L159.740236,16.5109447 L165.368782,16.5109447 C167.616393,16.5109447 168.815519,15.1824117 168.815519,13.5111367 L168.815519,13.5111367 Z M169.162898,21.2701613 C169.162898,19.6021505 167.93037,18.0255376 165.495375,18.0255376 L159.740236,18.0255376 L159.740236,24.4854071 L165.495375,24.4854071 C167.773715,24.4854071 169.162898,23.2482719 169.162898,21.2701613 L169.162898,21.2701613 Z" id="Fill-9" fill="#FFFFFF" mask="url(#mask-3)"></path>
                <polygon id="Fill-10" fill="#FFFFFF" mask="url(#mask-3)" points="175 26 177 26 177 9 175 9"></polygon>
                <path d="M181,17.0016559 C181,11.951058 184.320212,8 189.5,8 C194.647615,8 198,11.951058 198,17.0016559 C198,22.0191352 194.647615,26 189.5,26 C184.320212,26 181,22.0191352 181,17.0016559 M196.26268,17.0016559 C196.26268,12.7061638 193.582702,9.53670653 189.5,9.53670653 C185.35617,9.53670653 182.73732,12.7061638 182.73732,17.0016559 C182.73732,21.2342226 185.35617,24.4632935 189.5,24.4632935 C193.582702,24.4632935 196.26268,21.2342226 196.26268,17.0016559" id="Fill-11" fill="#FFFFFF" mask="url(#mask-3)"></path>
                <polygon id="Fill-12" fill="#FFFFFF" mask="url(#mask-3)" points="214.17832 26 209.987074 11.6897081 205.824912 26 204.050823 26 199 9 200.835488 9 204.968566 23.5583717 209.250294 9 210.750029 9 215.002673 23.5877496 219.164835 9 221 9 215.952409 26"></polygon>
                <path d="M222,17.0016559 C222,11.951058 225.320212,8 230.5,8 C235.647615,8 239,11.951058 239,17.0016559 C239,22.0191352 235.647615,26 230.5,26 C225.320212,26 222,22.0191352 222,17.0016559 M237.26268,17.0016559 C237.26268,12.7061638 234.582702,9.53670653 230.5,9.53670653 C226.35617,9.53670653 223.73732,12.7061638 223.73732,17.0016559 C223.73732,21.2342226 226.35617,24.4632935 230.5,24.4632935 C234.582702,24.4632935 237.26268,21.2342226 237.26268,17.0016559" id="Fill-13" fill="#FFFFFF" mask="url(#mask-3)"></path>
                <path d="M252.974843,26 L248.27044,19.0766129 L244.638365,19.0766129 L244.638365,26 L243,26 L243,9 L249.490566,9 C252.824214,9 254.72956,11.1641705 254.72956,14.0072965 C254.72956,16.8798003 252.883648,18.8579109 250.025157,18.9819508 L255,26 L252.974843,26 Z M253.034591,14.0072965 C253.034591,11.9671659 251.723585,10.5145929 249.371069,10.5145929 L244.638365,10.5145929 L244.638365,17.56202 L249.371069,17.56202 C251.81478,17.56202 253.034591,16.0768049 253.034591,14.0072965 L253.034591,14.0072965 Z" id="Fill-14" fill="#FFFFFF" mask="url(#mask-3)"></path>
                <polygon id="Fill-15" fill="#FFFFFF" mask="url(#mask-3)" points="269.835513 26 262.560614 18.0875576 260.700528 20.0950461 260.700528 26 259 26 259 9 260.700528 9 260.700528 18.0875576 269.122736 9 271.290493 9 263.643184 17.0985023 272 26"></polygon>
                <path d="M274,23.2412144 L275.05494,22.0191352 C276.139037,23.2710212 278.124748,24.4964121 280.575025,24.4964121 C283.95935,24.4964121 285.198085,22.800736 285.198085,21.0454462 C285.198085,16.0279669 274.527142,18.849678 274.527142,12.7061638 C274.527142,9.88445262 277.164491,8 280.421371,8 C283.120968,8 285.135509,8.97368905 286.531502,10.4772769 L285.541759,11.6695492 C284.267641,10.1659614 282.376941,9.50689972 280.421371,9.50689972 C278.095262,9.50689972 276.296623,10.8548298 276.296623,12.6730451 C276.296623,16.9685373 287,14.4912603 287,21.0156394 C287,23.7114995 285.044103,26 280.545539,26 C277.629713,26 275.33309,24.8408464 274,23.2412144" id="Fill-16" fill="#FFFFFF" mask="url(#mask-3)"></path>
                <polygon id="Fill-17" fill="#FFFFFF" mask="url(#mask-3)" points="53.7287523 38 53.7287523 33.4460094 52 33.4460094 52 33 56 33 56 33.4460094 54.2676311 33.4460094 54.2676311 38"></polygon>
                <polygon id="Fill-18" fill="#FFFFFF" mask="url(#mask-3)" points="61.5387046 38 61.5387046 35.6458753 58.4707741 35.6458753 58.4707741 38 58 38 58 33 58.4707741 33 58.4707741 35.2099262 61.5387046 35.2099262 61.5387046 33 62 33 62 38"></polygon>
                <polygon id="Fill-19" fill="#FFFFFF" mask="url(#mask-3)" points="66 38 66 33 69 33 69 33.4460094 66.448345 33.4460094 66.448345 35.2099262 68.9608826 35.2099262 68.9608826 35.6559356 66.448345 35.6559356 66.448345 37.5539906 69 37.5539906 69 38"></polygon>
                <path d="M75,35.5 C75,34.0957584 75.978189,33 77.4983477,33 C79.0118969,33 80,34.0957584 80,35.5 C80,36.8946015 79.0118969,38 77.4983477,38 C75.978189,38 75,36.8946015 75,35.5 M79.4877726,35.5 C79.4877726,34.3078406 78.7012558,33.4273779 77.4983477,33.4273779 C76.2822208,33.4273779 75.5122274,34.3078406 75.5122274,35.5 C75.5122274,36.6760925 76.2822208,37.5726221 77.4983477,37.5726221 C78.7012558,37.5726221 79.4877726,36.6760925 79.4877726,35.5" id="Fill-20" fill="#FFFFFF" mask="url(#mask-3)"></path>
                <path d="M86.3260073,38 L84.7582418,35.9644534 L83.5457875,35.9644534 L83.5457875,38 L83,38 L83,33 L85.1648352,33 C86.2747253,33 86.9120879,33.6371563 86.9120879,34.4755198 C86.9120879,35.3205902 86.2967033,35.9007378 85.3443223,35.9376258 L87,38 L86.3260073,38 Z M86.3479853,34.4755198 C86.3479853,33.8752515 85.9084249,33.4460094 85.1245421,33.4460094 L83.5457875,33.4460094 L83.5457875,35.518444 L85.1245421,35.518444 C85.9377289,35.518444 86.3479853,35.082495 86.3479853,34.4755198 L86.3479853,34.4755198 Z" id="Fill-21" fill="#FFFFFF" mask="url(#mask-3)"></path>
                <path d="M90,35.5 C90,34.0186375 91.0057971,33 92.2869565,33 C93.0086957,33 93.5681159,33.3213368 93.9826087,33.8194087 L93.6695652,34.0957584 C93.3391304,33.6973008 92.8376812,33.4273779 92.2869565,33.4273779 C91.2492754,33.4273779 90.4492754,34.2789203 90.4492754,35.5 C90.4492754,36.7114396 91.2492754,37.5822622 92.2869565,37.5822622 C92.8666667,37.5822622 93.3246377,37.2673522 93.5681159,37.0167095 L93.5681159,35.901671 L92.1043478,35.901671 L92.1043478,35.4839332 L94,35.4839332 L94,37.1902314 C93.5913043,37.6786632 92.9855072,38 92.2869565,38 C91.0057971,38 90,36.9813625 90,35.5" id="Fill-22" fill="#FFFFFF" mask="url(#mask-3)"></path>
                <path d="M98.7964359,33 L101,38 L100.424263,38 L99.8827964,36.7927565 L97.1069225,36.7927565 L96.5860178,38 L96,38 L98.2035641,33 L98.7964359,33 Z M98.4982865,33.546613 L97.2748458,36.3467471 L99.7183002,36.3467471 L98.4982865,33.546613 Z" id="Fill-23" fill="#FFFFFF" mask="url(#mask-3)"></path>
                <polygon id="Fill-24" fill="#FFFFFF" mask="url(#mask-3)" points="107.534661 38 104.4749 33.7847082 104.4749 38 104 38 104 33 104.484462 33 107.5251 37.1549296 107.5251 33 108 33 108 38"></polygon>
                <polygon id="Fill-25" fill="#FFFFFF" mask="url(#mask-3)" points="110.759758 38 111.240242 38 111.240242 33 110.759758 33"></polygon>
                <path d="M114,37.2320051 L114.323944,36.8946015 C114.658451,37.2416452 115.267606,37.5822622 116.021127,37.5822622 C117.06338,37.5822622 117.443662,37.1098972 117.443662,36.6246787 C117.443662,35.2300771 114.161972,36.0141388 114.161972,34.3078406 C114.161972,33.5237789 114.971831,33 115.975352,33 C116.806338,33 117.426056,33.2699229 117.855634,33.6876607 L117.549296,34.0186375 C117.158451,33.6008997 116.577465,33.4177378 115.975352,33.4177378 C115.260563,33.4177378 114.704225,33.7937018 114.704225,34.2982005 C114.704225,35.4903599 118,34.8026992 118,36.6150386 C118,37.3637532 117.397887,38 116.014085,38 C115.116197,38 114.408451,37.6786632 114,37.2320051" id="Fill-26" fill="#FFFFFF" mask="url(#mask-3)"></path>
                <polygon id="Fill-27" fill="#FFFFFF" mask="url(#mask-3)" points="124.491814 38 124.491814 33.6841046 122.60573 38 122.39427 38 120.508186 33.6841046 120.508186 38 120 38 120 33 120.702592 33 122.493179 37.1113347 124.287176 33 125 33 125 38"></polygon>
                <path d="M132,35.4903599 C132,34.0186375 133.011765,33 134.311765,33 C135.035294,33 135.594118,33.340617 135.994118,33.8868895 L135.65,34.1246787 C135.355882,33.6876607 134.852941,33.4273779 134.311765,33.4273779 C133.267647,33.4273779 132.452941,34.2789203 132.452941,35.4903599 C132.452941,36.7017995 133.267647,37.5726221 134.311765,37.5726221 C134.852941,37.5726221 135.379412,37.3026992 135.65,36.8753213 L136,37.1098972 C135.585294,37.6690231 135.035294,38 134.311765,38 C133.011765,38 132,36.9717224 132,35.4903599" id="Fill-28" fill="#FFFFFF" mask="url(#mask-3)"></path>
                <path d="M139,35.5 C139,34.0957584 139.978189,33 141.498348,33 C143.011897,33 144,34.0957584 144,35.5 C144,36.8946015 143.011897,38 141.498348,38 C139.974884,38 139,36.8946015 139,35.5 M143.487773,35.5 C143.487773,34.3078406 142.701256,33.4273779 141.498348,33.4273779 C140.282221,33.4273779 139.512227,34.3078406 139.512227,35.5 C139.512227,36.6760925 140.282221,37.5726221 141.498348,37.5726221 C142.701256,37.5726221 143.487773,36.6760925 143.487773,35.5" id="Fill-29" fill="#FFFFFF" mask="url(#mask-3)"></path>
                <polygon id="Fill-30" fill="#FFFFFF" mask="url(#mask-3)" points="151.491814 38 151.491814 33.6841046 149.60573 38 149.394611 38 147.508186 33.6841046 147.508186 38 147 38 147 33 147.702933 33 149.496589 37.1113347 151.290587 33 152 33 152 38"></polygon>
                <path d="M155,38 L155,33 L156.664663,33 C157.557987,33 158,33.6841046 158,34.4755198 C158,35.2736419 157.557987,35.9644534 156.664663,35.9644534 L155.419476,35.9644534 L155.419476,38 L155,38 Z M157.566156,34.4755198 C157.566156,33.8819584 157.245281,33.4460094 156.633956,33.4460094 L155.419476,33.4460094 L155.419476,35.518444 L156.633956,35.518444 C157.259367,35.518444 157.566156,35.0757881 157.566156,34.4755198 L157.566156,34.4755198 Z" id="Fill-31" fill="#FFFFFF" mask="url(#mask-3)"></path>
                <path d="M162.796436,33 L165,38 L164.420836,38 L163.882796,36.7927565 L161.106923,36.7927565 L160.586018,38 L160,38 L162.200137,33 L162.796436,33 Z M162.498286,33.546613 L161.274846,36.3467471 L163.714873,36.3467471 L162.498286,33.546613 Z" id="Fill-32" fill="#FFFFFF" mask="url(#mask-3)"></path>
                <polygon id="Fill-33" fill="#FFFFFF" mask="url(#mask-3)" points="170.534661 38 167.4749 33.7847082 167.4749 38 167 38 167 33 167.484462 33 170.5251 37.1549296 170.5251 33 171 33 171 38"></polygon>
                <polygon id="Fill-34" fill="#FFFFFF" mask="url(#mask-3)" points="175.249284 38 175.249284 35.8638498 173 33 173.637536 33 175.52149 35.4178404 177.365688 33 178 33 175.786533 35.8638498 175.786533 38"></polygon>
                <path d="M16.1465005,0.86038531 C16.3703805,0.337069029 16.9247192,-0.0156006392 17.494005,0.000651419175 C19.4978777,0 21.5024003,0.000651419175 23.506273,0.000651419175 C24.0739341,-0.0172258451 24.6282728,0.334468699 24.8521528,0.857134898 C25.0698591,1.30926716 24.8934196,1.82900799 25.0441893,2.29674223 C25.2229034,2.89676823 25.6638399,3.43048583 26.2487225,3.66809092 C26.9366094,3.95120178 27.6228716,4.23691297 28.3091339,4.52359928 C28.9206611,4.78785775 29.6540389,4.71309828 30.2236495,4.37668067 C30.6008988,4.15727788 30.8299778,3.7444756 31.2364712,3.5676532 C31.7625406,3.31802158 32.4315813,3.43731169 32.8390495,3.85401447 C34.3090544,5.33002642 35.7992053,6.78881118 37.2532884,8.28107519 C37.6071423,8.70980449 37.6604316,9.35273592 37.3972345,9.84094775 C37.2058479,10.2088944 36.8233997,10.4260219 36.6190157,10.7864925 C36.2794589,11.3637656 36.2115475,12.1097351 36.4887169,12.7256881 C36.7675109,13.3890971 37.0430556,14.0531563 37.3166507,14.7191656 C37.548979,15.3172414 38.0841466,15.7735992 38.6933993,15.9572474 C39.1522072,16.1064413 39.6600802,15.9426206 40.1088151,16.1389454 C40.6404084,16.3511973 41.0108341,16.9044174 40.9981616,17.4784401 C41.0007611,19.482969 40.9981616,21.4881479 40.9988115,23.4926768 C41.0231816,24.0683247 40.6706274,24.6355216 40.139359,24.8604501 C39.6867249,25.0749772 39.1684539,24.9023804 38.7011977,25.0518993 C38.1013681,25.231322 37.5678252,25.6720779 37.3302979,26.2581271 C37.0482545,26.943964 36.7642615,27.6301259 36.4776691,28.3140125 C36.214147,28.9172889 36.2846578,29.6398554 36.607318,30.2060771 C36.826974,30.6058778 37.2675855,30.8376321 37.4433752,31.2666865 C37.6809025,31.7893527 37.5577523,32.4465859 37.1467098,32.8473617 C36.6518341,33.3414242 36.164432,33.8426377 35.6594833,34.326624 C32.8406742,31.4818637 29.9955453,28.6634317 27.172512,25.823222 C26.5814557,25.1435609 26.0823559,24.3104804 26.0505123,23.3880136 C26.0254923,23.004465 26.0823559,22.6183161 26.1853602,22.2503695 C26.2519718,22.0777726 26.3163089,21.9045257 26.3936434,21.7361544 C26.9099647,20.683346 27.8175076,19.9178741 28.6256203,19.0974702 C28.9281346,18.8839181 29.2413717,18.6840178 29.5552587,18.4867178 C30.281163,18.0267845 30.9004887,17.4092063 31.3394755,16.6684375 C31.5789525,16.2335324 31.6988534,15.741095 31.730697,15.2483326 C31.6774077,14.8144027 31.5727787,14.3879487 31.3817171,13.9930236 C30.9482541,13.237953 30.3403011,12.5833201 29.5646818,12.1747433 C29.4473804,12.1318379 29.3307288,12.0879574 29.2131024,12.0470022 C29.0399122,11.9715926 28.8605482,11.9104849 28.6847585,11.8445015 C28.6015752,11.8126475 28.5190417,11.7811185 28.437808,11.7492645 C28.3965413,11.7398383 28.3140079,11.721961 28.2730661,11.7131849 C27.5198673,11.3923693 26.8037111,10.9675404 26.2279267,10.3779158 C25.648243,9.76716341 24.9662049,9.21556855 24.1554927,8.94935983 C23.4796284,8.7185806 22.7085582,8.74523398 22.0772099,9.09432819 C21.5712865,9.36216211 20.9552101,9.26269952 20.4655334,9.0075422 C19.7562008,8.72800679 18.933466,8.58401356 18.2173098,8.92108125 C17.8465592,9.05142276 17.6116313,9.38003938 17.2831223,9.57668928 C17.2412057,9.58449027 17.1580224,9.598142 17.1167557,9.60594299 C16.6680208,9.7362845 16.1962155,9.75936242 15.7426065,9.86597592 C15.6542243,9.89392946 15.565842,9.92318317 15.4774598,9.95081167 C14.7697518,10.1867916 14.2063149,10.742612 13.912249,11.422273 C13.7601795,11.9030089 13.7621291,12.4331511 13.9574149,12.9015354 C13.966838,12.9428156 13.986659,13.025051 13.9960821,13.0673064 C14.5020056,14.1818726 15.3747804,15.0646844 16.2316334,15.914342 C16.4854074,16.1613733 16.701489,16.4454593 16.8798782,16.750998 C16.8506341,16.7870775 16.7934456,16.8598867 16.7648513,16.8959663 C16.0171764,16.4487097 15.441392,15.7846506 14.8204417,15.1859247 C14.4129735,14.8381307 13.991858,14.5020381 13.5242769,14.2377796 C13.3458877,14.1568444 13.1717226,14.0694083 13.0011319,13.9767716 C12.9598652,13.9673454 12.8792813,13.948493 12.8389894,13.9380917 C12.3002476,13.7255148 11.7117907,13.7810968 11.1902704,14.0144764 C10.7347119,14.2806851 10.3516138,14.659033 10.0897163,15.1179911 C9.80247399,15.7144417 9.7810283,16.3853266 9.62830896,17.0185068 C9.62051052,17.0571867 9.60523859,17.1345465 9.59744015,17.1738765 C9.41222733,17.6149574 8.99111187,17.9032689 8.85788862,18.3752287 C8.82539514,18.4662402 8.79387647,18.5569267 8.76203286,18.6479382 C8.72758977,19.1062463 8.7035446,19.5788561 8.85366446,20.019937 C8.98851239,20.5478038 9.33749234,21.0418664 9.25268436,21.6084132 C9.19354623,21.8889237 9.06292246,22.1489566 8.94627087,22.4089896 C8.91280259,22.4964256 8.87933431,22.5838617 8.84684083,22.6722729 C8.79095205,23.2505212 8.7792544,23.8563979 9.0278295,24.3962913 C9.31864612,25.159813 9.90612819,25.744237 10.4442202,26.3380872 C11.0908404,26.9566406 11.5207291,27.765668 11.8121956,28.6039492 C11.9899349,29.1480681 12.1845708,29.7022633 12.5455733,30.1563458 C12.9728626,30.6822624 13.4969823,31.1347197 14.0971369,31.4519599 C14.6755208,31.7113428 15.3403373,31.831283 15.9560887,31.6356082 C16.6836176,31.4314823 17.3061927,30.9611478 17.8218641,30.4206043 C18.4093462,29.8163528 18.7404547,29.0151263 19.3204633,28.4040489 C19.9534362,27.7780196 20.5487167,27.0964083 21.3214116,26.6358249 C22.0505652,26.1593146 22.9529091,25.9356863 23.815286,26.1047077 C24.263696,26.2083958 24.7030078,26.3741668 25.085456,26.6348498 C25.6137999,26.9745178 26.0891795,27.3925208 26.5232924,27.8462782 C29.130569,30.4472577 31.7238734,33.063514 34.3288754,35.6677439 C33.8213273,36.1731829 33.3193031,36.6834975 32.8081807,37.1856861 C32.3903146,37.5958881 31.710876,37.6891749 31.1909804,37.4249164 C30.8195799,37.2438685 30.6008988,36.8655206 30.2519189,36.6526186 C29.6745098,36.2983237 28.9196863,36.221289 28.2945118,36.4949737 C27.6277457,36.773859 26.963254,37.0533944 26.2948632,37.327079 C25.7054316,37.5529827 25.2398,38.0710983 25.0581615,38.6717744 C24.9980486,39.2028916 25.0484134,39.7648878 24.826483,40.2661013 C24.6643405,40.492655 24.4739288,40.7071822 24.2312025,40.8485751 C24.1411956,40.8914805 24.0528133,40.9369863 23.9650809,40.9841172 C21.8088138,41.0123958 19.6515718,40.9876927 17.4949798,40.9971189 C16.8473848,41.0426246 16.2296838,40.5430364 16.0727403,39.9264333 C15.9931312,39.4886028 16.088987,39.0254191 15.9268446,38.6012404 C15.7237603,38.0558213 15.3094685,37.5724851 14.7648778,37.350482 C14.0834896,37.0696464 13.4034011,36.7875107 12.7239625,36.5034247 C12.0984631,36.2219391 11.3403903,36.2905228 10.758757,36.6457928 C10.3883314,36.8707212 10.1592524,37.2799481 9.75178417,37.4515698 C9.21824128,37.6963258 8.54497643,37.5666344 8.14075758,37.1401804 C6.72631652,35.7259262 5.31447494,34.3093968 3.90003388,32.8954678 C3.49191581,32.5210203 3.32522427,31.9076676 3.5114119,31.3824011 C3.60239363,31.0768624 3.82984797,30.8454331 4.05372803,30.6309059 C4.68410148,30.0403061 4.85566704,29.0330035 4.49791386,28.2538799 C4.22691826,27.6102984 3.95852214,26.9670419 3.69402524,26.32086 C3.39638499,25.5261344 2.56780132,24.9514616 1.71614729,24.9797402 C1.42793014,24.9787651 1.12671561,24.9855909 0.8602691,24.8594749 C0.357270075,24.6459229 0.00146650064,24.1242318 0.00211637018,23.5758874 C-0.00210778184,21.5450301 0.00146650064,19.5138479 0.000491696327,17.4829907 C-0.0141303684,16.9034423 0.361494227,16.3450215 0.899586207,16.1340698 C1.32687543,15.9494464 1.80452954,16.0944148 2.24449122,15.9744746 C2.87583948,15.8035029 3.43960131,15.3409694 3.6777785,14.7240412 C3.95072371,14.0573818 4.22854293,13.3916975 4.50733697,12.7273133 C4.786131,12.1103852 4.71854457,11.3631155 4.3796376,10.7838922 C4.16355598,10.4039191 3.74731454,10.1799657 3.56892535,9.7749644 C3.31092714,9.23767135 3.43960131,8.55215952 3.87176456,8.14293269 C5.30342716,6.71242651 6.73249028,5.27964504 8.16577755,3.84978894 C8.57324576,3.43373624 9.24391112,3.31867167 9.76900571,3.56927841 C10.1738744,3.74772601 10.4019786,4.16052829 10.7802027,4.379281 C11.3550123,4.71732382 12.0971633,4.78850783 12.7119399,4.51417308 C13.3930032,4.22911198 14.0750413,3.94535104 14.7587041,3.66451547 C15.356584,3.41845931 15.8033693,2.8649142 15.9713606,2.24538573 C16.094186,1.79227834 15.9398419,1.29626552 16.1465005,0.86038531" id="Fill-35" fill="#FFFFFF" mask="url(#mask-3)"></path>
            </g>
        </g>
    </g>
</svg>