<?xml version="1.0" encoding="UTF-8"?> <svg xmlns="http://www.w3.org/2000/svg" xmlns:xlink="http://www.w3.org/1999/xlink" id="Layer_1" x="0px" y="0px" viewBox="0 0 483.3 144" style="enable-background:new 0 0 483.3 144;" xml:space="preserve"> <style type="text/css"> .st0{fill:#00B5AF;} </style> <g> <g> <path class="st0" d="M53.6,20.8h24.5l43.6,109h-24l-9.5-24.8H43.1l-9.3,24.8H11.1L53.6,20.8z M81.5,87.1l-14-38.6 c-1-2.8-1.3-3.9-2.1-7.2l-0.8,3.3c-0.7,2.8-1,3.8-1.6,5.7l-19.8,54.6L81.5,87.1z"></path> <path class="st0" d="M125.8,12.2h20.9v54.7c0,4.7-0.2,10.1-0.5,15.8c2.8-4.1,4.2-6.4,6.9-9.6l19.4-24.2h24.3l-30.1,36.3l34,44.6 h-26.5l-20.9-29.6c-3.6-5.1-5.2-7.8-7.2-11.6c0.5,4.2,0.5,5.4,0.5,10.6v30.5h-20.9V12.2z"></path> <path class="st0" d="M234.4,46.8c22.5,0,36.4,15.2,36.4,40c0,1.6-0.2,5.7-0.5,9.1H216c1,12.6,10.1,20.4,23.8,20.4 c8.3,0,15.2-2.3,25.3-8.3l0.3,18.1c-8.3,3.8-17.6,5.7-28.1,5.7c-26.5,0-42-15.7-42-42.8C195.4,63.3,210.6,46.8,234.4,46.8z M250.9,81.4c-0.2-12.6-6.5-19.9-17-19.9c-10.1,0-17,7.5-18.3,19.9H250.9z"></path> <path class="st0" d="M279.8,12.2h20.9v35.9c0,5.6-0.3,10.5-0.8,15c5.7-10.9,13.7-15.7,26.1-15.7c20.4,0,32.7,15.4,32.7,40.8 c0,27-12.4,42.8-33.5,42.8c-11.9,0-20.3-4.6-25.3-14l-0.5,12.7h-19.6V12.2z M319.2,114.6c10.5,0,17.8-10.1,17.8-25 c0-15.4-6.5-24.7-17.3-24.7c-11.3,0-18.8,10.1-18.8,25S308.3,114.6,319.2,114.6z"></path> <path class="st0" d="M367.7,14.4h21.6v19.8h-21.6V14.4z M368,48.9h20.9v80.9H368V48.9z"></path> <path class="st0" d="M437.6,79.6c3.1,0,6,0.2,11.8,0.7v-0.8c0-11.4-6-17.2-18-17.2c-8.3,0-18,3.4-25,8.8l-0.7-18 c8.7-3.8,18.1-5.7,27.9-5.7c13.6,0,24.3,4.2,29.7,11.8c3.9,5.7,5.1,11.9,5.1,29.4v11.8c0,8.3,0.3,19.4,0.8,29.4h-18.6l-0.3-11.9 c-5.2,8.7-13.9,13.2-25.8,13.2c-16.7,0-27.4-10-27.4-25.3C397.1,88.4,410.7,79.6,437.6,79.6z M430.4,116.9 c7.4,0,13.9-4.4,17.2-11.3c1.5-3.3,2.1-6.7,2.1-12.6c-2-0.2-4.1-0.3-5.7-0.3c-17.5,0-26.1,4.6-26.1,13.7 C417.9,112.6,422.9,116.9,430.4,116.9z"></path> </g> </g> </svg> 