<svg version="1.1" id="Layer_1" xmlns:x="ns_extend;" xmlns:i="ns_ai;" xmlns:graph="ns_graphs;" xmlns="http://www.w3.org/2000/svg" xmlns:xlink="http://www.w3.org/1999/xlink" x="0px" y="0px" viewBox="0 0 228 60" style="enable-background:new 0 0 228 60;" xml:space="preserve">
 <style type="text/css">
  .st0{fill:#FFFFFF;}
 </style>
 <metadata>
  <sfw xmlns="ns_sfw;">
   <slices>
   </slices>
   <sliceSourceBounds bottomLeftOrigin="true" height="60" width="228" x="86.3" y="-230.2">
   </sliceSourceBounds>
  </sfw>
 </metadata>
 <g>
  <path class="st0" d="M40.8,44.2c0.9-0.5,3.4-2.3,3.4-2.3l4.5,9.8c0,0-1.8,2.1-5.5,4c-4.4,2.3-8.9,3-14,3C12.8,58.7,0,46.1,0,29.3
		C0,12.6,12.7,0,29.4,0c7.8,0,15.6,2.8,21.3,8.1l-5.6,10.8c-4.4-4.6-9.8-7.1-15.7-7.1c-10.1,0-17.6,7.2-17.6,17.6S19.2,47,29.3,47
		C32.4,47,36.6,46.7,40.8,44.2z M216.9,42v-1.7l-10.4,1.3c-3.3,0.4-5.2,2.1-5.2,4.6c0,2.9,2.3,4.6,6,4.6
		C212.8,50.8,216.9,46.9,216.9,42z M209.6,15.8C222,15.8,228,21.5,228,33v26h-11.1v-5.7c-2.7,4.1-7.3,6.7-12.9,6.7
		c-8.3,0-14.2-5.5-14.2-13.2c0-7.3,5.3-12.5,13.4-13.2l11.5-1c1.5-0.2,2.2-0.7,2.2-1.7v-0.7c0-2.7-2.6-4.3-7.3-4.3
		c-5.4,0-9.2,2-10.5,5.5l-8.2-5.9C193.5,19.3,200.1,15.8,209.6,15.8L209.6,15.8z M154.6,59h-13.4l16.4-21.6l-15.7-20.6h13.4l9,11.8
		l9-11.8h13.4L171,37.4L187.4,59H174l-9.8-12.7L154.6,59z M124.5,59V16.9h11.1V59C135.6,59,124.5,59,124.5,59z M124.2,6
		c0-3.4,2.5-6,5.9-6c3.4,0,6,2.5,6,6c0,3.4-2.5,5.9-6,5.9C126.7,11.9,124.2,9.4,124.2,6L124.2,6z M103.9,59V0h11.2v59H103.9z
		 M83.4,42v-1.7L73,41.5c-3.3,0.4-5.2,2.1-5.2,4.6c0,2.9,2.3,4.6,6,4.6C79.3,50.8,83.4,46.9,83.4,42L83.4,42z M76.1,15.8
		c12.4,0,18.4,5.6,18.4,17.2v26H83.4v-5.7c-2.7,4.1-7.3,6.7-12.9,6.7c-8.3,0-14.2-5.5-14.2-13.2c0-7.3,5.3-12.5,13.4-13.2l11.5-1
		c1.5-0.2,2.2-0.7,2.2-1.7v-0.7c0-2.7-2.6-4.3-7.3-4.3c-5.4,0-9.2,2-10.5,5.5l-8.2-5.9C60,19.3,66.6,15.8,76.1,15.8L76.1,15.8z">
  </path>
 </g>
</svg>