<?xml version="1.0" encoding="UTF-8" standalone="no"?>
<!-- Created with Inkscape (http://www.inkscape.org/) -->

<svg
   xmlns:dc="http://purl.org/dc/elements/1.1/"
   xmlns:cc="http://creativecommons.org/ns#"
   xmlns:rdf="http://www.w3.org/1999/02/22-rdf-syntax-ns#"
   xmlns:svg="http://www.w3.org/2000/svg"
   xmlns="http://www.w3.org/2000/svg"
   xmlns:sodipodi="http://sodipodi.sourceforge.net/DTD/sodipodi-0.dtd"
   xmlns:inkscape="http://www.inkscape.org/namespaces/inkscape"
   width="165.92065"
   height="146.27213"
   viewBox="0 0 43.89984 38.701167"
   version="1.1"
   id="svg6165"
   inkscape:version="0.92.0 r15299"
   sodipodi:docname="celgene.svg">
  <defs
     id="defs6159">
    <clipPath
       id="clipPath3075"
       clipPathUnits="userSpaceOnUse">
      <path
         inkscape:connector-curvature="0"
         id="path3073"
         d="M 684.54,625.296 H 807.48 V 733.5 H 684.54 Z" />
    </clipPath>
    <clipPath
       id="clipPath3043"
       clipPathUnits="userSpaceOnUse">
      <path
         inkscape:connector-curvature="0"
         id="path3041"
         d="M 684.54,625.295 H 807.48 V 733.5 H 684.54 Z" />
    </clipPath>
    <clipPath
       id="clipPath3027"
       clipPathUnits="userSpaceOnUse">
      <path
         inkscape:connector-curvature="0"
         id="path3025"
         d="M 684.54,625.296 H 807.48 V 733.5 H 684.54 Z" />
    </clipPath>
    <clipPath
       id="clipPath3011"
       clipPathUnits="userSpaceOnUse">
      <path
         inkscape:connector-curvature="0"
         id="path3009"
         d="M 684.54,625.295 H 807.48 V 733.5 H 684.54 Z" />
    </clipPath>
  </defs>
  <sodipodi:namedview
     id="base"
     pagecolor="#ffffff"
     bordercolor="#666666"
     borderopacity="1.0"
     inkscape:pageopacity="0.0"
     inkscape:pageshadow="2"
     inkscape:zoom="3.6944209"
     inkscape:cx="81.96061"
     inkscape:cy="72.136332"
     inkscape:document-units="mm"
     inkscape:current-layer="layer1"
     showgrid="false"
     fit-margin-top="0"
     fit-margin-left="0"
     fit-margin-right="0"
     fit-margin-bottom="0"
     units="px"
     inkscape:window-width="1280"
     inkscape:window-height="744"
     inkscape:window-x="-4"
     inkscape:window-y="-4"
     inkscape:window-maximized="1" />
  <metadata
     id="metadata6162">
    <rdf:RDF>
      <cc:Work
         rdf:about="">
        <dc:format>image/svg+xml</dc:format>
        <dc:type
           rdf:resource="http://purl.org/dc/dcmitype/StillImage" />
        <dc:title></dc:title>
      </cc:Work>
    </rdf:RDF>
  </metadata>
  <g
     inkscape:label="Layer 1"
     inkscape:groupmode="layer"
     id="layer1"
     transform="translate(99.548507,37.091293)">
    <g
       id="g6327"
       transform="translate(0.26458249,-0.26459156)">
      <path
         d="m -79.471022,-31.221769 c -2.002367,0.147814 -3.955697,0.370769 -5.760508,0.963789 -1.952978,0.568678 -3.7084,1.606903 -5.512858,2.546703 2.620433,-3.362678 6.007452,-6.5024 9.493602,-8.850842 0.667103,1.706386 1.260828,3.535539 1.779764,5.34035"
         style="fill:#26326f;fill-opacity:1;fill-rule:nonzero;stroke:none;stroke-width:0.35277778"
         id="path3015"
         inkscape:connector-curvature="0" />
      <path
         d="m -79.248348,-30.381593 c 0.642408,1.928636 1.359606,3.807883 1.903236,5.760508 -1.606903,-0.988836 -3.411361,-1.779764 -5.389033,-2.027061 -4.326467,-0.420158 -8.405636,0.494595 -11.990564,2.199922 4.128558,-2.867377 8.3312,-5.537552 13.473994,-5.982758 l 2.002367,0.04939"
         style="fill:#26326f;fill-opacity:1;fill-rule:nonzero;stroke:none;stroke-width:0.35277778"
         id="path3019"
         inkscape:connector-curvature="0" />
      <path
         d="m -82.141302,-25.807935 c -3.806825,-0.345722 -7.465836,1.706386 -9.196564,5.093405 -2.175933,5.364339 0.09878,11.0998002 2.843036,15.5500918 -2.224969,-1.9529778 -4.1783,-4.3014194 -5.710766,-6.6996028 -1.681339,-2.571397 -2.200628,-6.897864 -0.222603,-9.617427 2.867731,-3.881261 7.491236,-5.439128 12.286897,-4.326467"
         style="fill:#26326f;fill-opacity:1;fill-rule:nonzero;stroke:none;stroke-width:0.35277778"
         id="path3031"
         inkscape:connector-curvature="0" />
      <path
         d="m -91.041356,-25.213963 c -2.596092,1.383947 -4.894792,4.029075 -5.166783,6.946547 -0.519289,4.277078 1.829153,7.490883 4.450291,10.5561693 -3.164769,-1.8542 -7.886699,-4.7212253 -7.787922,-9.1475273 -0.123472,-4.05377 3.955697,-6.649861 7.120114,-8.009467 0.469547,-0.09842 0.865364,-0.370769 1.3843,-0.345722"
         style="fill:#26326f;fill-opacity:1;fill-rule:nonzero;stroke:none;stroke-width:0.35277778"
         id="path3035"
         inkscape:connector-curvature="0" />
      <path
         d="m -77.129212,-14.592989 c 0.02575,0.421217 0.92075,0.361244 0.50165,0.781403 l -2.373842,-0.0028 c 0,-0.395112 0.593725,-0.466725 0.642761,-0.886884 v -6.82378 c -0.02469,-0.246945 -0.148166,-0.519642 -0.419805,-0.642761 l -0.4699,-0.04939 c 0.09878,-0.667456 1.062567,-0.22225 1.48343,-0.543631 0.197203,-0.07444 0.416984,-0.379589 0.639587,-0.232127 l -0.0039,8.399991"
         style="fill:#26326f;fill-opacity:1;fill-rule:nonzero;stroke:none;stroke-width:0.35277778"
         id="path3047"
         inkscape:connector-curvature="0" />
      <path
         d="m -61.795832,-19.70174 c 0.279047,0.324556 0.378531,0.813153 0.378531,0.813153 l -0.0039,4.351514 c 0.123472,0.320675 0.442383,0.250119 0.738011,0.348897 l 0.109008,0.03069 c 0.02399,0.147814 0.01446,0.315737 -0.157338,0.340078 h -2.323748 c -0.04621,-0.09172 -0.04833,-0.207786 -0.0039,-0.2667 0.158397,-0.07232 0.357364,-0.171803 0.407458,-0.3429 l -0.0018,-4.307064 c -0.08502,-0.587022 -0.797983,-0.720372 -1.292225,-0.546452 -0.624769,0.271286 -0.906639,0.421922 -0.97155,1.111602 -0.01341,0.819856 0.01058,2.254956 -0.0018,3.668536 0.198967,0.271639 0.453673,0.334434 0.751417,0.358423 v 0.327377 h -2.686755 l -0.0039,-0.239536 c 0,0 0.632531,-0.189441 0.632531,-0.513644 0,-0.324556 0.01164,-4.589286 0.01164,-4.589286 -0.123472,-0.297392 -0.698147,-0.07444 -0.574675,-0.494242 0.643114,-0.07444 1.236134,-0.272344 1.8542,-0.470605 l 0.03387,0.841375 c 0.815975,-0.643114 2.318808,-1.410053 3.104797,-0.421217"
         style="fill:#26326f;fill-opacity:1;fill-rule:nonzero;stroke:none;stroke-width:0.35277778"
         id="path3051"
         inkscape:connector-curvature="0" />
      <path
         d="m -74.674796,-19.404242 c -0.494594,0.197203 -0.716492,0.716492 -0.766939,1.186039 0.05045,0.643114 0.247297,1.384653 0.9398,1.606903 0.494595,0.09948 1.038225,0.02505 1.359958,-0.420159 0.296334,-0.494241 0.220839,-1.063272 0.07408,-1.606902 -0.224014,-0.618067 -0.939447,-1.038225 -1.606903,-0.765881 m 3.978628,-0.766939 c 0.123825,0.296686 -0.17145,0.569031 -0.37077,0.816328 -0.247297,0.271286 -0.567619,0.02399 -0.888294,0.07408 0.221897,0.543984 0.618066,1.458384 0.123472,2.07645 -0.692503,1.038225 -1.928283,1.285522 -3.140428,1.31057 -0.247297,0.197908 -0.295627,0.54363 -0.171802,0.815975 1.357488,0.790927 3.410655,-0.445206 4.276372,1.309511 0.197555,0.618066 -0.0755,1.162755 -0.494595,1.606902 -1.014236,1.112661 -2.571044,1.31057 -4.029075,1.063273 -0.395816,-0.147814 -0.890411,-0.37077 -1.06433,-0.840317 -0.221897,-0.618067 0.09948,-1.211792 0.544689,-1.582561 -0.07444,0.593725 0.197202,1.385005 0.890411,1.582561 0.739775,0.321733 2.002014,0.469547 2.669116,-0.09913 0.295628,-0.296686 0.542925,-0.716491 0.346075,-1.13665 -1.013177,-1.088319 -3.015191,-0.04939 -4.103511,-1.137708 -0.222955,-0.197908 -0.296333,-0.56903 -0.09948,-0.815975 0.123472,-0.346075 0.693208,-0.518583 0.594078,-0.963789 -0.470606,-0.247297 -1.017059,-0.633589 -1.088672,-1.236133 -0.02716,-0.602544 0.07161,-1.164872 0.371122,-1.607256 0.618066,-0.69215 1.093964,-1.046691 2.250016,-1.236133 1.137709,0 2.323748,0.519642 3.385609,0"
         style="fill:#26326f;fill-opacity:1;fill-rule:nonzero;stroke:none;stroke-width:0.35277778"
         id="path3055"
         inkscape:connector-curvature="0" />
      <path
         d="m -69.755416,-19.231346 c -0.296333,0.345722 -0.482953,0.917575 -0.407458,1.337381 1.476375,-0.02681 1.869722,0.09666 2.138186,-0.200731 0.148519,-0.271286 0.01164,-0.598664 -0.0755,-0.840317 -0.27058,-0.643114 -1.186039,-0.667102 -1.655233,-0.296333 m 2.530475,-0.390172 c 0.445911,0.519641 0.741539,1.161697 0.593725,1.8542 0,0 -0.03387,0.296686 -0.296333,0.296686 -0.26282,0 -2.07645,0.01058 -3.316464,0.0067 -0.09843,1.093963 0.175683,2.218266 1.189919,2.762602 0.469195,0.247298 1.06292,0.09878 1.483078,-0.09913 0.346075,-0.247297 0.68968,-0.484011 0.9398,-0.889353 0.05891,0.135819 -0.0056,0.435328 -0.234597,0.831144 -0.595842,0.853017 -1.446742,1.442862 -2.608439,1.121481 -0.642408,-0.198261 -1.335617,-0.716844 -1.656292,-1.359958 -0.593019,-1.236134 -0.469194,-3.040945 0.345722,-4.104217 0.815975,-1.062214 2.646187,-1.606903 3.559881,-0.420158"
         style="fill:#26326f;fill-opacity:1;fill-rule:nonzero;stroke:none;stroke-width:0.35277778"
         id="path3059"
         inkscape:connector-curvature="0" />
      <path
         d="m -82.042278,-19.058414 c -0.172861,0.345722 -0.355953,0.782108 -0.296333,1.167342 l 1.557161,-0.01129 c 0.605366,0.0085 0.707319,-0.282222 0.534105,-0.800806 -0.277636,-0.91828 -1.349727,-0.948266 -1.794933,-0.355247 m -2.126192,-2.855736 c -0.07726,0.216253 0.240595,1.674636 -0.123472,2.306108 -0.321733,-0.07408 -0.321733,-0.594078 -0.4699,-0.890411 -0.518936,-0.568678 -1.161697,-0.766586 -1.952978,-0.667455 -0.667455,0 -1.137355,0.642408 -1.359958,1.187097 -0.345722,1.383947 -0.444853,3.238147 0.297039,4.449939 0.4699,0.642408 1.087967,1.211086 1.953331,1.062213 0.9144,0.0254 1.705327,-0.567619 2.199922,-1.359605 -0.247298,-1.630892 0.197908,-3.337631 1.656644,-4.152547 0.543631,-0.297392 1.3843,-0.421217 1.952978,-0.123472 0.890058,0.494241 1.310216,1.383947 1.186744,2.372783 0,0 -0.06562,0.265289 -0.359128,0.265289 -0.293863,0 -3.154186,-0.0028 -3.154186,-0.0028 -0.204963,0.188383 -0.06244,1.236133 0.07655,1.640769 0.247297,0.445205 0.593372,1.013883 1.112309,1.187097 0.643466,0.172508 1.286227,0 1.730727,-0.420158 0.39617,-0.282222 0.513292,-0.422981 0.717197,-0.766939 0.169687,0.470253 -0.395463,1.013883 -0.717197,1.359605 -0.518936,0.470606 -1.087261,0.865717 -1.829152,0.791987 -0.939448,-0.02505 -1.730375,-0.766587 -2.200275,-1.557514 -0.964142,1.161697 -2.249664,1.977672 -3.807531,1.606902 -1.260828,-0.321733 -2.002367,-1.681338 -2.249664,-2.843036 -0.123472,-1.408994 -0.148166,-2.917472 0.717197,-3.980744 0.494595,-0.741892 1.600553,-1.406172 2.125839,-1.48343 0.524934,-0.07726 2.017536,0.06456 2.496961,0.01834"
         style="fill:#26326f;fill-opacity:1;fill-rule:nonzero;stroke:none;stroke-width:0.35277778"
         id="path3063"
         inkscape:connector-curvature="0" />
      <path
         d="m -86.492322,-9.1442302 c 2.274711,1.13665 5.537905,0.7658805 7.614708,-0.5196417 l 2.07645,-1.7307281 -2.07645,6.353528 -0.297039,0.2233084 c -4.400197,0.3707694 -8.529108,-1.2121444 -10.803466,-5.0934055 -1.211439,-1.8291529 -1.532467,-4.0297809 -1.606903,-6.3535279 0.296333,2.917472 2.299406,5.93337 5.0927,7.1204668"
         style="fill:#26326f;fill-opacity:1;fill-rule:nonzero;stroke:none;stroke-width:0.35277778"
         id="path3067"
         inkscape:connector-curvature="0" />
      <path
         d="m -79.298231,-4.1012367 c -0.667103,1.8792472 -1.062919,3.88126103 -1.8542,5.7111193 -3.881261,-2.57174992 -6.9469,-6.4777054 -8.776405,-10.5071331 2.422877,3.5849277 6.403269,5.0182638 10.630605,4.7960138"
         style="fill:#26326f;fill-opacity:1;fill-rule:nonzero;stroke:none;stroke-width:0.35277778"
         id="path3079"
         inkscape:connector-curvature="0" />
      <path
         d="m -59.341028,-19.231346 c -0.296333,0.345722 -0.480836,0.917575 -0.408517,1.337381 1.477434,-0.02681 1.870781,0.09666 2.139245,-0.200731 0.148872,-0.271286 0.0134,-0.598664 -0.07444,-0.840317 -0.271286,-0.643114 -1.187098,-0.667102 -1.656292,-0.296333 m 2.532239,-0.390172 c 0.443089,0.519641 0.741539,1.161697 0.591961,1.8542 0,0 -0.03387,0.296686 -0.296333,0.296686 -0.26282,0 -2.077509,0.01058 -3.316464,0.0067 -0.09842,1.093963 0.177447,2.218266 1.189919,2.762602 0.470959,0.247298 1.06292,0.09878 1.483078,-0.09913 0.347839,-0.247297 0.68968,-0.484011 0.9398,-0.889353 0.05891,0.135819 -0.0071,0.435328 -0.234597,0.831144 -0.5969,0.853017 -1.446742,1.442862 -2.608439,1.121481 -0.643114,-0.198261 -1.333853,-0.716844 -1.656292,-1.359958 -0.594078,-1.236134 -0.470253,-3.040945 0.345722,-4.104217 0.815975,-1.062214 2.645128,-1.606903 3.561645,-0.420158"
         style="fill:#26326f;fill-opacity:1;fill-rule:nonzero;stroke:none;stroke-width:0.35277778"
         id="path3083"
         inkscape:connector-curvature="0" />
    </g>
  </g>
</svg>
