<svg xmlns="http://www.w3.org/2000/svg" width="425" height="111" xmlns:xlink="http://www.w3.org/1999/xlink" viewBox="0 0 425.04 110.92"><defs><style>.cls-1{fill:#62bb46;}.cls-2{fill:#00aae7;}.cls-3{fill-rule:evenodd;fill:url(#linear-gradient);}.cls-4{fill:#fff;}</style><linearGradient id="linear-gradient" x1="147.22" y1="352.51" x2="195.79" y2="352.51" gradientUnits="userSpaceOnUse"><stop offset="0" stop-color="#c1e2f7"/><stop offset="0.08" stop-color="#9cd7f4"/><stop offset="0.18" stop-color="#73cbf1"/><stop offset="0.29" stop-color="#4fc1ee"/><stop offset="0.4" stop-color="#32b9eb"/><stop offset="0.52" stop-color="#1cb2e9"/><stop offset="0.65" stop-color="#0caee8"/><stop offset="0.8" stop-color="#03abe7"/><stop offset="1" stop-color="#00aae7"/></linearGradient></defs><g id="Back_Panel" data-name="Back Panel"><path class="cls-1" d="M212.94,290a64.45,64.45,0,0,0,8.2.4c1,0,2.92-.06,5.88-.19s4.55-.21,4.72-.21q18.63,0,18.63,14.31,0,8.54-6.21,13.21t-17.1,4.68a51.71,51.71,0,0,1-6.5-.24v6.21q0,6.52.7,20.28a29.57,29.57,0,0,0-4.17-.42,18.54,18.54,0,0,0-4.15.42q.7-14.11.71-20.33V310.41q0-10.26-.71-20.41m7.62,28.36a25.32,25.32,0,0,0,5.91.7q16.08,0,16.07-14.16c0-4.35-1.1-7.42-3.31-9.16s-5.77-2.6-10.68-2.6H221q-.41,15.41-.41,25.22" transform="translate(-98.35 -284.03)"/><path class="cls-1" d="M256.36,348.46q.7-7.38.71-15.95v-8.94q0-2.44-.71-15.69a21.81,21.81,0,0,0,3.88.41,22.57,22.57,0,0,0,3.75-.41,48.83,48.83,0,0,0-.72,8.45q4.61-9.27,11.38-9.28a5.09,5.09,0,0,1,2.61.5,24.89,24.89,0,0,0-.66,6.92l-.49.4a5.68,5.68,0,0,0-4.22-1.36,7.21,7.21,0,0,0-6.17,3.36,14.25,14.25,0,0,0-2.36,8.53v6.94a126.21,126.21,0,0,0,.7,16.12,19.75,19.75,0,0,0-3.77-.43,18.75,18.75,0,0,0-3.93.43" transform="translate(-98.35 -284.03)"/><path class="cls-1" d="M279.37,328.33q0-9.94,5.63-15.6c3.74-3.79,8.75-5.68,15-5.68s11.12,1.89,14.91,5.68,5.72,8.84,5.72,15.27q0,9.88-5.68,15.62c-3.74,3.77-8.68,5.66-14.78,5.66q-9.78,0-15.28-5.76t-5.5-15.19m7.45-.16c0,5.84,1.1,10.38,3.32,13.58s5.49,4.8,9.84,4.8,7.61-1.63,9.81-4.9,3.35-7.78,3.35-13.48-1.11-10.34-3.35-13.54a11.12,11.12,0,0,0-9.73-4.84q-13.24,0-13.24,18.38" transform="translate(-98.35 -284.03)"/><path class="cls-1" d="M329.11,290a64.56,64.56,0,0,0,8.2.4c1,0,2.93-.06,5.89-.19s4.55-.21,4.72-.21q18.63,0,18.62,14.31,0,8.54-6.2,13.21t-17.11,4.68a51.62,51.62,0,0,1-6.49-.24v6.21q0,6.52.7,20.28a29.71,29.71,0,0,0-4.17-.42,18.63,18.63,0,0,0-4.16.42q.7-14.11.71-20.33V310.41q0-10.26-.71-20.41m7.63,28.36a25.19,25.19,0,0,0,5.91.7q16.08,0,16.07-14.16c0-4.35-1.1-7.42-3.31-9.16s-5.77-2.6-10.69-2.6h-7.57q-.42,15.41-.41,25.22" transform="translate(-98.35 -284.03)"/><path class="cls-1" d="M373,348.46q.69-6.88.7-22.65v-17.6q0-19.06-.7-24.18a25,25,0,0,0,3.84.41,15.44,15.44,0,0,0,3.86-.41,133.33,133.33,0,0,0-.72,14.91V315a18.73,18.73,0,0,1,5.92-5.88,15,15,0,0,1,8-2.07q13.6,0,13.62,15.36c0,.94-.05,3.57-.16,7.91s-.18,6.78-.18,7.45a91.16,91.16,0,0,0,.7,10.69,16.24,16.24,0,0,0-3.88-.43,27.62,27.62,0,0,0-3.82.43q.72-7,.72-17.94V325q0-6.31-2.21-9.94c-1.43-2.42-3.79-3.65-7.08-3.65q-6.19,0-8.89,3.74c-1.79,2.45-2.7,6.18-2.7,11.17q0,14.36.72,22.12a19.77,19.77,0,0,0-3.86-.43,20.85,20.85,0,0,0-3.84.43" transform="translate(-98.35 -284.03)"/><path class="cls-1" d="M418.77,316.32v-4.44c4.47-3.21,9-4.84,13.53-4.84,4.21,0,7.5,1.19,9.9,3.53s3.65,5.65,3.65,9.89v18.17a16.54,16.54,0,0,0,.62,5.56,2.48,2.48,0,0,0,2.47,1.41,4.13,4.13,0,0,0,1.62-.34v1.86a13.79,13.79,0,0,1-5.17,1.21c-3.39,0-5.34-1.68-5.84-5q-5.71,6-12.75,6a12.59,12.59,0,0,1-8.4-2.85,9.62,9.62,0,0,1-3.36-7.7,10.63,10.63,0,0,1,2-6.51,11.94,11.94,0,0,1,6.46-4.1,56.09,56.09,0,0,1,8.23-1.65,23.91,23.91,0,0,0,6.13-1.45c1.31-.61,1.95-1.82,1.95-3.65,0-3.44-.82-6.09-2.49-7.94a8.46,8.46,0,0,0-6.78-2.81c-5,0-8.6,1.91-10.8,5.7Zm20.78,10.81a30.74,30.74,0,0,1-5.17,1.32,59,59,0,0,0-6,1.42c-4.27,1.41-6.41,4-6.41,7.78a8.22,8.22,0,0,0,2.07,5.83,7.08,7.08,0,0,0,5.41,2.23c4.27,0,7.61-1.95,10.07-5.86Z" transform="translate(-98.35 -284.03)"/><path class="cls-1" d="M479,309.5a17.65,17.65,0,0,0-2.07,6.17h-1q-1.83-5.48-7.37-5.47a7.24,7.24,0,0,0-5.23,2,6.91,6.91,0,0,0-2,5.17c0,3,1.54,5.13,4.63,6.25,2.3.78,4.82,1.59,7.54,2.45a13.51,13.51,0,0,1,5.84,3.56,9,9,0,0,1,1.86,6.07,12.29,12.29,0,0,1-4.51,9.7A15.82,15.82,0,0,1,466,349.28a21.19,21.19,0,0,1-10.76-2.9A12,12,0,0,0,456.8,340H458c2,4.07,5.11,6.12,9.35,6.12a8.3,8.3,0,0,0,5.92-2.07,7.25,7.25,0,0,0,2.23-5.55,5.62,5.62,0,0,0-1.51-4.05,11,11,0,0,0-4.77-2.61,73.61,73.61,0,0,1-7.37-2.53c-4.15-1.92-6.21-5-6.21-9.22a12.52,12.52,0,0,1,3.68-9.4c2.49-2.43,5.88-3.66,10.22-3.66a17.63,17.63,0,0,1,3.77.46,34.8,34.8,0,0,1,5.76,2" transform="translate(-98.35 -284.03)"/><path class="cls-1" d="M493.15,327.59c-.06,1.05-.08,1.73-.08,2.06,0,4.78,1.29,8.65,3.88,11.64s6.29,4.42,11,4.42a17.85,17.85,0,0,0,12.91-5.7l.37.33-.5,3.93a20.24,20.24,0,0,1-6,3.31,22.69,22.69,0,0,1-8.4,1.7,20.86,20.86,0,0,1-14.74-5.55,18.81,18.81,0,0,1-6-14.41q0-10.41,5.14-16.35t14.36-5.92c5.55,0,9.89,1.62,13,4.83s4.72,7.4,4.72,12.56a25.23,25.23,0,0,1-.21,3.15c-8.56-.18-13.54-.26-15-.26h-4.55c-1.47,0-4.79.08-10,.26m.21-3.23c1.79.16,4.72.26,8.77.26h5c2.18,0,5.12-.1,8.81-.26q0-7.2-2.85-10.89a9.16,9.16,0,0,0-7.7-3.68,10.07,10.07,0,0,0-8.41,4,19.27,19.27,0,0,0-3.59,10.56" transform="translate(-98.35 -284.03)"/><polygon class="cls-2" points="340.02 73.49 343.13 73.49 343.13 92.25 354.88 92.25 354.88 94.76 340.02 94.76 340.02 73.49"/><path class="cls-2" d="M456.57,378.79l8.77-21.27h3.55l8.25,21.27h-3.4l-2.23-6.2h-9.3l-2.43,6.2Zm6.65-8.72h7.18L467,360.61Z" transform="translate(-98.35 -284.03)"/><path class="cls-2" d="M482.26,378.79V357.52h10.13a7.14,7.14,0,0,1,4.7,1.5,4.75,4.75,0,0,1,1.78,3.87q0,2.88-3.06,4.36a6.4,6.4,0,0,1,3.21,2.11,5,5,0,0,1,.91,3.08,5.88,5.88,0,0,1-2,4.54,8.39,8.39,0,0,1-5.77,1.81Zm3.12-12.36H491c3.2,0,4.8-1.1,4.8-3.33,0-2-1.59-3.05-4.74-3.05h-5.65Zm0,9.85H492a5.73,5.73,0,0,0,3.49-1,3.33,3.33,0,0,0,1.34-2.93q0-3.57-5.38-3.57h-6.07Z" transform="translate(-98.35 -284.03)"/><path class="cls-2" d="M508,372c.17,3.25,2.34,4.89,6.5,4.89a8.66,8.66,0,0,0,4.35-.9,3.1,3.1,0,0,0,1.48-2.83,2.77,2.77,0,0,0-.83-2.05c-.55-.54-1.89-1.05-4-1.53l-4.75-1a7.62,7.62,0,0,1-3.56-1.72,4.38,4.38,0,0,1-1.29-3.36,5.83,5.83,0,0,1,2.11-4.71,9.15,9.15,0,0,1,6.06-1.78,10.52,10.52,0,0,1,6,1.58,6.13,6.13,0,0,1,2.6,5.12h-2.91c-.3-2.78-2.21-4.18-5.71-4.18a6.79,6.79,0,0,0-3.72.92,3,3,0,0,0-1.39,2.72,2.37,2.37,0,0,0,.66,1.73,4.84,4.84,0,0,0,2.55,1.06l6,1.35a7.08,7.08,0,0,1,3.9,1.93,5.12,5.12,0,0,1,1.33,3.74,5.36,5.36,0,0,1-2.48,4.75,12,12,0,0,1-6.73,1.64c-3,0-5.23-.67-6.75-2a6.76,6.76,0,0,1-2.3-5.38Z" transform="translate(-98.35 -284.03)"/><path class="cls-3" d="M171.51,313.76c4.74,16.7,16.51,25.54,22.17,40.85a32.63,32.63,0,0,1,2,13.53,25.35,25.35,0,0,1-3.65,12c-3.81,6.29-10.44,11.09-20.43,11.09s-16.56-4.53-20.56-10.95a25.68,25.68,0,0,1-3.79-12.05,32.59,32.59,0,0,1,2-13.39c2.72-7.54,7.37-14.08,11.35-20.15,2.77-4.2,5.93-8.68,8.13-13.67l.27-.67a37.24,37.24,0,0,0,2.29-6.22Z" transform="translate(-98.35 -284.03)"/><path class="cls-4" d="M160,363c-.77,4.87.3,18.26,13.2,21.7l0,0c-12.57,5-23.35-9.4-21.28-21.2,2.15-12.18,17.25-30.92,17.46-36.33l.07,0c-.67,17.86-7.64,22.15-9.46,35.81Z" transform="translate(-98.35 -284.03)"/><path class="cls-1" d="M98.35,395a401.33,401.33,0,0,1,46.5-14.67,30.41,30.41,0,0,1-1.62-4.57A287.34,287.34,0,0,0,98.35,395Z" transform="translate(-98.35 -284.03)"/><path class="cls-1" d="M201.21,369.61A557.42,557.42,0,0,1,273.29,365c46,0,89.39,5.45,128,15.14-38.89-14.87-85.32-23.51-135.2-23.51a415.29,415.29,0,0,0-65,5.05,37.66,37.66,0,0,1,.23,7.29C201.25,369.19,201.23,369.4,201.21,369.61Z" transform="translate(-98.35 -284.03)"/></g></svg>