<?xml version="1.0" encoding="UTF-8" standalone="no"?>
<!-- Created with Inkscape (http://www.inkscape.org/) -->
<svg
   xmlns:svg="http://www.w3.org/2000/svg"
   xmlns="http://www.w3.org/2000/svg"
   version="1.0"
   width="956.69287"
   height="430.51181"
   id="svg2">
  <defs
     id="defs4" />
  <g
     transform="translate(813.6266,93.410495)"
     id="layer1">
    <g
       transform="translate(35.43305,35.515748)"
       id="g2555">
      <path
         d="M -791.14324,196.10069 L -764.96816,196.10069 C -758.59812,196.10069 -751.99644,197.02725 -751.99644,207.80565 C -751.99644,218.92427 -760.111,219.15591 -767.0529,219.15591 L -791.14324,219.15591 L -791.14324,196.10069 z M -813.6266,263.75344 L -791.14324,263.75344 L -791.14324,234.21237 L -756.28898,234.21237 C -738.09817,234.21237 -728.82541,223.78866 -728.82541,206.18418 C -728.82541,195.06557 -734.50054,181.04423 -758.01903,181.04423 L -813.6266,181.04423"
         id="path2400"
         style="fill:#231f20;fill-opacity:1;fill-rule:nonzero;stroke:none" />
      <path
         d="M -700.34843,226.10504 L -700.34843,225.8734 C -700.34843,224.36776 -696.98244,212.09095 -680.87636,212.09095 C -665.93572,212.09095 -661.6649,222.51465 -661.6649,225.8734 L -661.6649,226.10504 L -700.34843,226.10504 z M -663.51077,245.22241 C -666.399,250.54284 -672.19719,253.32249 -680.41309,253.32249 C -694.32584,253.32249 -700.34843,244.28862 -700.34843,238.38185 L -700.34843,238.15021 L -640.57137,238.15021 L -640.57137,236.29711 C -640.57137,212.89445 -653.5431,199.34362 -680.41309,199.34362 C -704.97395,199.34362 -721.42747,209.31129 -721.42747,232.70672 C -721.42747,256.10939 -704.97395,266.06982 -680.41309,266.06982 C -661.76624,266.06982 -647.63633,259.93141 -641.72956,245.22241"
         id="path2402"
         style="fill:#231f20;fill-opacity:1;fill-rule:nonzero;stroke:none" />
      <path
         d="M -628.29456,201.66724 L -608.59086,201.66724 L -608.59086,213.821 L -608.3737,213.821 C -600.96129,204.32384 -595.15586,200.03854 -583.58121,200.03854 C -581.25759,200.03854 -578.47794,200.15436 -576.1688,200.61763 L -576.1688,219.72776 C -579.86776,218.69263 -583.58121,217.88189 -587.39599,217.88189 C -601.29426,217.88189 -607.91043,224.94685 -607.91043,236.99202 L -607.91043,263.75344 L -628.29456,263.75344"
         id="path2404"
         style="fill:#231f20;fill-opacity:1;fill-rule:nonzero;stroke:none" />
      <path
         d="M -563.90647,179.6544 L -543.50785,179.6544 L -543.50785,224.83103 L -516.50756,201.66724 L -488.14639,201.66724 L -517.67299,225.29431 L -486.28605,263.75344 L -513.27186,263.75344 L -533.54019,237.91857 L -543.50785,245.91732 L -543.50785,263.75344 L -563.90647,263.75344"
         id="path2406"
         style="fill:#231f20;fill-opacity:1;fill-rule:nonzero;stroke:none" />
      <path
         d="M -475.40631,201.66724 L -455.02217,201.66724 L -455.02217,263.75344 L -475.40631,263.75344 L -475.40631,201.66724 z M -475.40631,179.6544 L -455.02217,179.6544 L -455.02217,194.01595 L -475.40631,194.01595"
         id="path2408"
         style="fill:#231f20;fill-opacity:1;fill-rule:nonzero;stroke:none" />
      <path
         d="M -387.61554,228.53724 C -387.61554,219.9594 -392.12524,215.79716 -401.28218,215.79716 C -410.77209,215.79716 -418.77084,220.54573 -418.77084,233.74909 L -418.77084,263.75344 L -439.16221,263.75344 L -439.16221,201.66724 L -419.46576,201.66724 L -419.46576,210.70112 L -419.23411,210.70112 C -415.52791,205.48927 -405.79188,200.03854 -393.86976,200.03854 C -383.323,200.03854 -367.2314,204.0922 -367.2314,222.39883 L -367.2314,263.75344 L -387.61554,263.75344"
         id="path2410"
         style="fill:#231f20;fill-opacity:1;fill-rule:nonzero;stroke:none" />
      <path
         d="M -349.22156,181.04423 L -271.95584,181.04423 L -271.95584,196.7956 L -326.74544,196.7956 L -326.74544,213.94405 L -274.74274,213.94405 L -274.74274,229.00051 L -326.74544,229.00051 L -326.74544,247.99482 L -271.49257,247.99482 L -271.49257,263.75344 L -349.22156,263.75344"
         id="path2412"
         style="fill:#918f90;fill-opacity:1;fill-rule:nonzero;stroke:none" />
      <path
         d="M -258.06481,263.75344 L -237.66619,263.75344 L -237.66619,179.6544 L -258.06481,179.6544 L -258.06481,263.75344 z"
         id="path2414"
         style="fill:#918f90;fill-opacity:1;fill-rule:nonzero;stroke:none" />
      <path
         d="M -125.22047,226.4525 C -125.22047,218.11353 -131.82215,215.79716 -137.72891,215.79716 C -146.1837,215.79716 -153.1256,220.42991 -153.1256,230.1587 L -153.1256,263.75344 L -173.51697,263.75344 L -173.51697,226.4525 C -173.51697,218.11353 -180.11141,215.79716 -185.79378,215.79716 C -194.47296,215.79716 -201.43658,220.42991 -201.43658,230.1587 L -201.43658,263.75344 L -221.80624,263.75344 L -221.80624,201.66724 L -202.13149,201.66724 L -202.13149,210.70112 L -201.89985,210.70112 C -198.18641,205.48927 -188.46485,200.03854 -176.52102,200.03854 C -164.70025,200.03854 -158.22887,204.67129 -155.09452,211.74349 C -149.41939,204.32384 -140.83431,200.03854 -129.49853,200.03854 C -116.98285,200.03854 -104.82185,205.37345 -104.82185,221.70392 L -104.82185,263.75344 L -125.22047,263.75344"
         id="path2416"
         style="fill:#918f90;fill-opacity:1;fill-rule:nonzero;stroke:none" />
      <path
         d="M -72.747245,226.10504 L -72.747245,225.8734 C -72.747245,224.36776 -69.381259,212.09095 -53.275182,212.09095 C -38.334536,212.09095 -34.063712,222.51465 -34.063712,225.8734 L -34.063712,226.10504 L -72.747245,226.10504 z M -35.909577,245.22241 C -38.812288,250.54284 -44.595997,253.32249 -52.811907,253.32249 C -66.710178,253.32249 -72.747245,244.28862 -72.747245,238.38185 L -72.747245,238.15021 L -12.970188,238.15021 L -12.970188,236.29711 C -12.970188,212.89445 -25.941908,199.34362 -52.811907,199.34362 C -77.372767,199.34362 -93.826292,209.31129 -93.826292,232.70672 C -93.826292,256.10939 -77.372767,266.06982 -52.811907,266.06982 C -34.165054,266.06982 -20.035146,259.93141 -14.128375,245.22241"
         id="path2418"
         style="fill:#918f90;fill-opacity:1;fill-rule:nonzero;stroke:none" />
      <path
         d="M -1.2797155,201.66724 L 18.409507,201.66724 L 18.409507,213.821 L 18.641144,213.821 C 26.060801,204.32384 31.84451,200.03854 43.426406,200.03854 C 45.742781,200.03854 48.529673,200.15436 50.85329,200.61763 L 50.85329,219.72776 C 47.125371,218.69263 43.426406,217.88189 39.60438,217.88189 C 25.706102,217.88189 19.104427,224.94685 19.104427,236.99202 L 19.104427,263.75344 L -1.2797155,263.75344"
         id="path2420"
         style="fill:#918f90;fill-opacity:1;fill-rule:nonzero;stroke:none" />
      <path
         d="M -455.17418,-93.20057 L -455.17418,-89.899728 C -430.15729,-72.078091 -413.81234,-44.744817 -413.81234,-11.685744 C -413.81234,21.36609 -430.15729,49.64763 -455.17418,67.462032 L -455.17418,69.763934 L -316.74158,0.69964558"
         id="path2442"
         style="fill:#2a3d91;fill-opacity:1;fill-rule:nonzero;stroke:none" />
      <path
         d="M -542.41481,145.23446 L -618.04459,145.23446 L -587.77965,-93.410495 L -512.15711,-93.410495"
         id="path2444"
         style="fill:#2a3d91;fill-opacity:1;fill-rule:nonzero;stroke:none" />
      <path
         d="M 54.697035,190.88884 C 54.697035,186.34295 58.627637,182.61502 63.47032,182.61502 C 68.291282,182.61502 72.200172,186.34295 72.200172,190.88884 C 72.200172,195.47817 68.291282,199.20609 63.47032,199.20609 C 58.627637,199.20609 54.697035,195.47817 54.697035,190.88884 z M 70.803104,190.88884 C 70.803104,186.84966 67.733908,183.9397 63.47032,183.9397 C 59.185019,183.9397 56.094103,186.84966 56.094103,190.88884 C 56.094103,194.97146 59.185019,197.88141 63.47032,197.88141 C 67.733908,197.88141 70.803104,194.97146 70.803104,190.88884 z M 61.472446,195.58675 L 60.191198,195.58675 L 60.191198,186.10407 L 64.498211,186.10407 C 67.10414,186.10407 67.987258,187.03063 67.987258,188.73171 C 67.987258,190.55586 66.640865,191.24354 64.889099,191.37384 L 67.871439,195.58675 L 66.43094,195.58675 L 63.615093,191.37384 L 61.472446,191.37384 L 61.472446,195.58675 z M 63.238682,190.27355 C 64.635749,190.27355 66.59019,190.49071 66.59019,188.70276 C 66.59019,187.37808 65.424768,187.20435 64.215906,187.20435 L 61.472446,187.20435 L 61.472446,190.27355"
         id="path2446"
         style="fill:#231f20;fill-opacity:1;fill-rule:nonzero;stroke:none" />
    </g>
  </g>
</svg>
