<svg version="1.1" id="Layer_1" xmlns="http://www.w3.org/2000/svg" xmlns:xlink="http://www.w3.org/1999/xlink" x="0px" y="0px" viewBox="0 0 177.9 72" style="enable-background:new 0 0 177.9 72;" xml:space="preserve">
 <style type="text/css">
  .st0{fill:#FFFFFF;}
 </style>
 <g>
  <g>
   <path class="st0" d="M15,57.7V42h20.4c2.3,0,4.3,0.8,5.8,2.2c1.5,1.4,2.4,3.3,2.4,5.6c0,2.2-0.9,4.2-2.4,5.6
			c-1.5,1.4-3.5,2.3-5.8,2.3H25.2H15z M15,29.4V14.3h17.1c2.2,0,4.1,0.8,5.5,2.1c1.4,1.3,2.2,3.2,2.2,5.4c0,2.2-0.8,4.1-2.2,5.4
			c-1.4,1.4-3.3,2.2-5.5,2.2h-8.5H15z M177.9,36c0-1,0-2-0.1-3c-0.1-1-0.2-2-0.4-3h-14h-14l-4.2,6.7l-4.2,6.7h21.5
			c-1.3,4.3-3.7,8.1-7.1,10.8c-3.3,2.7-7.5,4.2-12.4,4.2c-6.1,0-11.5-2.5-15.4-6.6c-3.9-4.1-6.3-9.7-6.3-15.8c0-6,2.4-11.5,6.4-15.6
			c4-4,9.5-6.5,15.6-6.5c2.7,0,5.1,0.4,7.4,1.2c2.3,0.8,4.3,1.9,6.2,3.3l3.7-6l3.8-6c-2.9-2-6.1-3.6-9.6-4.7S147.5,0,143.4,0
			c-5.4,0-10.3,1-14.6,2.8c-4.3,1.8-8.1,4.4-11.3,7.6c-7.6,7.6-9.8,15.4-11.3,22.5c-1.5,7.1-2.4,13.6-7.6,18.8
			c-2.2,2.2-4.6,3.8-7.2,4.9c-2.6,1.1-5.4,1.7-8.5,1.7c-6.3,0-11.9-2.6-16-6.6c-4.1-4.1-6.6-9.6-6.6-15.7c0-5.9,2.5-11.4,6.6-15.5
			c4.1-4.1,9.7-6.6,16-6.7c2.6,0,5.1,0.4,7.3,1.2c2.2,0.7,4.3,1.8,6.1,3.2l3.8-6l3.8-6c-2.9-2-6.1-3.6-9.6-4.6
			C90.7,0.5,86.9,0,82.9,0c-6.2,0-12,1.5-17.1,4.1c-5.1,2.6-9.4,6.4-12.6,10.9c-1.3-3.9-3.9-7.3-7.5-9.7C42,2.9,37.4,1.5,32.3,1.5
			H16.1H0V36v34.5h35.6c4.5,0,8.5-1.1,11.8-2.9c3.3-1.8,6-4.5,7.8-7.6c3.3,3.6,7.3,6.6,11.9,8.7c4.6,2.1,9.7,3.2,15.2,3.2
			c6.5,0,12.4-1.5,17.5-4.2c5.1-2.7,9.4-6.6,12.7-11.3c3.2,4.7,7.5,8.6,12.6,11.3c5.1,2.7,11.1,4.2,17.6,4.2c9.9,0,18.7-4,25-10.6
			C174.1,54.9,177.9,45.9,177.9,36">
   </path>
  </g>
 </g>
</svg>