<svg width="173" height="46" viewBox="0 0 173 46" fill="none" xmlns="http://www.w3.org/2000/svg">
<path fill-rule="evenodd" clip-rule="evenodd" d="M97.2398 25.3681H93.2737L89.5504 29.3342V20.876H86.6769V36.3762H89.5504V33.4221L90.8048 32.1269L93.7593 36.3762H97.4826L92.9095 29.9009L97.2398 25.3681Z" fill="#03305C"/>
<path fill-rule="evenodd" clip-rule="evenodd" d="M52.8837 20.876H55.7168V26.0965C56.4856 25.2466 57.3758 24.8824 59.0352 24.8824C62.3136 24.8824 63.9322 27.3916 63.9322 30.7507C63.9322 34.1505 62.1111 36.7001 58.9138 36.7001C57.6594 36.6598 56.4856 36.1334 55.6761 35.2025V36.4573H52.8837V20.876ZM58.4689 27.5538C56.9309 27.5538 55.7572 28.6868 55.7572 30.7104C55.7572 32.734 56.9309 33.9077 58.4689 33.9077C60.0064 33.9077 60.9374 32.7743 60.9374 30.7104C60.9374 28.6465 60.0064 27.5538 58.4689 27.5538Z" fill="#03305C"/>
<path fill-rule="evenodd" clip-rule="evenodd" d="M78.7851 36.3764H75.7499V25.1661H78.704V26.5419C79.3518 25.4896 80.4848 24.8826 81.6988 24.9233C84.4105 24.9233 85.746 26.9062 85.746 29.3751V36.4171H82.7108V29.8607C82.7108 28.6059 82.1038 27.5943 80.6469 27.5943C79.3114 27.5943 78.7447 28.6059 78.7447 29.9418L78.7851 36.3764Z" fill="#03305C"/>
<path fill-rule="evenodd" clip-rule="evenodd" d="M69.7194 24.5181C66.8867 24.5181 65.2677 26.1774 64.8631 27.8368C64.7821 28.201 64.7417 28.5249 64.7417 28.8891H67.5341C67.6152 27.7557 68.6268 26.9466 69.7194 27.0273C71.0146 27.0273 71.6624 27.7154 71.6624 28.5249C71.6624 28.9295 71.4599 29.2534 70.8125 29.334L67.9794 29.739C66.0772 30.0221 64.5392 31.1555 64.5392 33.2195C64.5392 35.0406 66.0369 36.7 68.5054 36.7C69.8412 36.781 71.136 36.1333 71.9052 35.0003V36.3761H74.7379V28.8891C74.7379 26.582 73.3621 24.5181 69.7194 24.5181V24.5181ZM71.6624 31.7218C71.6624 33.7454 70.4483 34.3932 69.1531 34.3932C68.1411 34.3932 67.6555 33.7454 67.6555 33.0577C67.6555 32.1671 68.3033 31.7218 69.0721 31.6004L71.6624 31.1959V31.7218Z" fill="#03305C"/>
<path fill-rule="evenodd" clip-rule="evenodd" d="M40.459 30.1437C40.459 35.8906 35.8048 40.5448 30.0583 40.5448V44.6727C38.0712 44.5513 44.4659 37.9142 44.3445 29.9009C44.2231 22.0497 37.9095 15.7362 30.0583 15.6147V19.7426C35.8048 19.7833 40.459 24.3968 40.459 30.1437Z" fill="#03305C"/>
<path fill-rule="evenodd" clip-rule="evenodd" d="M5.12784 15.6147H9.29643V19.7426H5.12784V15.6147Z" fill="#03305C"/>
<path fill-rule="evenodd" clip-rule="evenodd" d="M13.465 23.9111H17.6336V28.039H13.465V23.9111Z" fill="#03305C"/>
<path fill-rule="evenodd" clip-rule="evenodd" d="M21.7615 32.2075H25.9301V36.3761H21.7615L21.7615 32.2075Z" fill="#03305C"/>
<path fill-rule="evenodd" clip-rule="evenodd" d="M13.465 15.6147H25.9301V19.7426H13.465V15.6147Z" fill="#03305C"/>
<path fill-rule="evenodd" clip-rule="evenodd" d="M30.0583 23.9111H21.7615V28.0394H30.0583C31.1913 28.0394 32.1626 28.9699 32.1626 30.1437C32.1626 31.3174 31.2317 32.2483 30.0583 32.2483V36.3762C33.4981 36.2955 36.2098 33.4221 36.1287 29.9819C36.0476 26.6632 33.3767 23.9922 30.0583 23.9111Z" fill="#03305C"/>
<path fill-rule="evenodd" clip-rule="evenodd" d="M172.111 19.7836H169.278V18.5288C168.469 19.4597 167.295 20.0265 166.04 20.0265C162.843 20.0265 161.022 17.4765 161.022 14.1174C161.022 10.7583 162.601 8.24912 165.919 8.24912C167.578 8.24912 168.469 8.65408 169.238 9.4636V4.24268H172.111V19.7836ZM163.976 14.1174C163.976 16.1818 164.907 17.3147 166.445 17.3147C167.983 17.3147 169.157 16.141 169.157 14.1174C169.157 12.0942 167.983 10.9608 166.445 10.9608C164.907 10.9608 163.976 12.0535 163.976 14.1174Z" fill="#E8742C"/>
<path fill-rule="evenodd" clip-rule="evenodd" d="M57.0116 19.7427V8.53248H59.9258V9.90829C60.5328 8.81562 61.9897 8.20859 63.2038 8.20859C64.7417 8.20859 65.9558 8.85637 66.5225 10.0704C67.251 8.81562 68.6268 8.12751 70.0841 8.20859C72.148 8.20859 74.1309 9.4634 74.1309 12.4583V19.7427H71.1767V13.1056C71.1767 11.8916 70.5697 11.001 69.1935 11.001C67.8983 11.001 67.1296 12.013 67.1296 13.227V19.7834H64.1347V13.1056C64.1347 11.8916 63.5277 11.001 62.1514 11.001C60.7756 11.001 60.0875 11.9726 60.0875 13.227V19.7834H57.0116L57.0116 19.7427Z" fill="#E8742C"/>
<path fill-rule="evenodd" clip-rule="evenodd" d="M86.677 4.16162H89.5504V19.7833H86.677V4.16162Z" fill="#E8742C"/>
<path fill-rule="evenodd" clip-rule="evenodd" d="M114.238 19.7429V8.53265H117.151V9.90847C117.758 8.8158 119.216 8.20876 120.43 8.20876C121.968 8.20876 123.182 8.85654 123.748 10.0706C124.517 8.85654 125.853 8.12769 127.31 8.20876C129.374 8.20876 131.357 9.46358 131.357 12.4584V19.7429H128.402V13.1058C128.402 11.8917 127.795 11.0011 126.42 11.0011C125.124 11.0011 124.355 12.0131 124.355 13.2272V19.7836H121.36V13.1058C121.36 11.8917 120.753 11.0011 119.378 11.0011C118.001 11.0011 117.273 11.9728 117.273 13.2272V19.7836H114.238V19.7429Z" fill="#E8742C"/>
<path fill-rule="evenodd" clip-rule="evenodd" d="M146.655 8.53242H148.921V11.2034H146.655V15.8979C146.655 16.8692 147.1 17.1931 147.991 17.1931C148.314 17.1931 148.598 17.1528 148.921 17.112V19.6212C148.355 19.8237 147.788 19.9048 147.221 19.9048C145.036 19.9048 143.66 18.6096 143.66 16.4243V4.64697H146.655V8.53242Z" fill="#E8742C"/>
<path fill-rule="evenodd" clip-rule="evenodd" d="M155.073 17.5169C153.575 17.5573 152.321 16.4243 152.24 14.9674H160.253C160.253 14.9266 160.293 14.4813 160.293 14.0365C160.293 10.4346 158.23 8.2085 154.749 8.2085C151.876 8.2085 149.245 10.556 149.245 14.1171C149.245 17.8812 151.957 20.1068 155.032 20.1068C157.784 20.1068 159.565 18.4882 160.132 16.5457H157.218C156.692 17.1931 155.882 17.5573 155.073 17.5169ZM154.83 10.6774C156.57 10.6774 157.299 11.7701 157.339 12.9031H152.321C152.402 11.6083 153.535 10.6366 154.83 10.6774Z" fill="#E8742C"/>
<path fill-rule="evenodd" clip-rule="evenodd" d="M99.0609 8.53256V9.86804C98.6564 9.09926 97.6448 8.33008 95.864 8.33008C92.7881 8.33008 90.6431 10.8393 90.6431 13.7938C90.6431 16.9504 92.8691 19.2572 95.864 19.2572C97.4826 19.2572 98.535 18.5287 98.9803 17.8003V18.6098C98.9803 20.7548 97.9279 21.726 95.9854 21.726C95.1759 21.7664 94.4474 21.4022 93.9211 20.8359H90.7241C91.2501 22.7784 93.2334 24.397 96.0661 24.397C100.275 24.397 101.934 21.6046 101.934 18.5287V8.53256H99.0609ZM96.39 16.6265C94.8117 16.6265 93.719 15.5339 93.719 13.7938C93.719 12.0534 94.8927 10.9607 96.39 10.9607C97.8876 10.9607 99.0206 12.0534 99.0206 13.7938C99.0206 15.5339 97.9279 16.6673 96.39 16.6265Z" fill="#E8742C"/>
<path fill-rule="evenodd" clip-rule="evenodd" d="M50.6984 7.88477C47.8653 7.88477 46.2467 9.54414 45.8417 11.2035C45.761 11.5677 45.7203 11.8916 45.7203 12.2558H48.5131C48.5937 11.2438 49.3629 10.394 50.6984 10.394C52.0339 10.394 52.6409 11.0821 52.6409 11.8916C52.6409 12.2962 52.4384 12.6201 51.7911 12.7011L48.958 13.1057C47.0558 13.3888 45.5182 14.5222 45.5182 16.5862C45.5182 18.4073 47.0154 20.0667 49.4843 20.0667C50.8198 20.1477 52.115 19.5 52.8837 18.367V19.7428H55.7168V12.2558C55.7168 9.9491 54.3406 7.88477 50.6984 7.88477V7.88477ZM52.6813 15.089C52.6813 17.1121 51.4672 17.7599 50.172 17.7599C49.1604 17.7599 48.6748 17.1121 48.6748 16.4244C48.6748 15.5338 49.3222 15.089 50.0914 14.9675L52.6813 14.5626V15.089Z" fill="#E8742C"/>
<path fill-rule="evenodd" clip-rule="evenodd" d="M80.3634 7.88477C77.5306 7.88477 75.9116 9.54414 75.5071 11.2035C75.426 11.5677 75.3856 11.8916 75.3856 12.2558H78.178C78.2591 11.2438 79.0279 10.394 80.3634 10.394C81.6988 10.394 82.3063 11.0821 82.3063 11.8916C82.3063 12.2962 82.1038 12.6201 81.456 12.7011L78.6233 13.1057C76.7211 13.3888 75.1832 14.5222 75.1832 16.5862C75.1832 18.4073 76.6808 20.0667 79.1493 20.0667C80.4848 20.1477 81.7799 19.5 82.5491 18.367V19.7428H85.3818V12.2558C85.3818 9.9491 84.0463 7.88477 80.3634 7.88477V7.88477ZM82.3466 15.089C82.3466 17.1121 81.1325 17.7599 79.8374 17.7599C78.8254 17.7599 78.3398 17.1121 78.3398 16.4244C78.3398 15.5338 78.9875 15.089 79.7563 14.9675L82.3466 14.5626V15.089Z" fill="#E8742C"/>
<path fill-rule="evenodd" clip-rule="evenodd" d="M108.127 7.88477C105.293 7.88477 103.675 9.54414 103.27 11.2035C103.189 11.5677 103.148 11.8916 103.148 12.2558H105.941C106.022 11.2438 106.791 10.394 108.127 10.394C109.462 10.394 110.069 11.0821 110.069 11.8916C110.069 12.2962 109.867 12.6201 109.219 12.7011L106.386 13.1057C104.484 13.3888 102.946 14.5222 102.946 16.5862C102.946 18.4073 104.444 20.0667 106.912 20.0667C108.248 20.1477 109.543 19.5 110.312 18.367V19.7428H113.145V12.2558C113.145 9.9491 111.769 7.88477 108.127 7.88477ZM110.069 15.089C110.069 17.1121 108.855 17.7599 107.56 17.7599C106.548 17.7599 106.063 17.1121 106.063 16.4244C106.063 15.5338 106.71 15.089 107.479 14.9675L110.069 14.5626V15.089Z" fill="#E8742C"/>
<path fill-rule="evenodd" clip-rule="evenodd" d="M137.589 7.88477C134.756 7.88477 133.138 9.54414 132.733 11.2035C132.652 11.5677 132.611 11.8916 132.611 12.2558H135.404C135.485 11.2438 136.254 10.394 137.589 10.394C138.925 10.394 139.532 11.0821 139.532 11.8916C139.532 12.2962 139.329 12.6201 138.682 12.7011L135.849 13.1057C133.906 13.3888 132.409 14.5222 132.409 16.5862C132.409 18.4073 133.906 20.0667 136.375 20.0667C137.711 20.1477 139.006 19.5 139.775 18.367V19.7428H142.608V12.2558C142.608 9.9491 141.232 7.88477 137.589 7.88477ZM139.572 15.089C139.572 17.1121 138.358 17.7599 137.063 17.7599C136.051 17.7599 135.566 17.1121 135.566 16.4244C135.566 15.5338 136.213 15.089 136.982 14.9675L139.572 14.5626V15.089Z" fill="#E8742C"/>
<path fill-rule="evenodd" clip-rule="evenodd" d="M15.529 9.38232C12.0892 9.38232 9.29645 12.1747 9.29645 15.6148V23.9113L13.4247 28.0395V15.6148C13.465 14.4814 14.4363 13.5913 15.61 13.6316C16.7027 13.6723 17.5526 14.5625 17.5929 15.6148H21.7212C21.7615 12.1747 18.9691 9.38232 15.529 9.38232Z" fill="#E8742C"/>
<path fill-rule="evenodd" clip-rule="evenodd" d="M30.0583 44.673L25.9301 40.5451V28.0801H30.0583V44.673Z" fill="#E8742C"/>
<path fill-rule="evenodd" clip-rule="evenodd" d="M30.0583 15.615C29.9365 7.6017 23.2994 1.20744 15.2861 1.32885C7.435 1.45026 1.12141 7.76344 1 15.615L5.12785 19.7428V15.615C5.24926 9.86811 9.98456 5.33529 15.7314 5.4567C21.3166 5.53777 25.8087 10.0298 25.9301 15.615V23.9114H30.0583V15.615Z" fill="#E8742C"/>
<path fill-rule="evenodd" clip-rule="evenodd" d="M21.7615 36.3766L17.5929 32.2487V19.7837H21.7615V36.3766Z" fill="#E8742C"/>
</svg>
