<svg height="126.427" preserveaspectratio="xMinYMid meet" viewBox="0 0 568.668 126.427" width="568.668" xmlns="http://www.w3.org/2000/svg">
<g id="logo" transform="translate(-697.603 -939.292)">
<g id="word_avenzeo">
<path d="M913.462,993.679H876.493l-7.962,17.726h-7.3l30.333-66.354h6.92l30.333,66.354h-7.394Zm-2.559-5.688L894.978,952.35l-15.925,35.641Z" fill="#cc943a" id="Path_1"></path>
<path d="M991.569,945.051l-29.385,66.354h-6.919l-29.386-66.354h7.584l25.4,57.633,25.593-57.633Z" fill="#cc943a" id="Path_2"></path>
<path d="M1048.065,1005.338v6.067h-46.922V945.051h45.5v6.066h-38.485v23.6h34.314v5.972h-34.314v24.646Z" fill="#cc943a" id="Path_3"></path>
<path d="M1120.01,945.051v66.354h-5.782l-42.656-53.842v53.842h-7.014V945.051h5.782l42.751,53.841V945.051Z" fill="#cc943a" id="Path_4"></path>
<path d="M1189.491,1005.338v6.067h-54.41v-4.835l43.983-55.453h-43.319v-6.066h52.608v4.834l-43.888,55.453Z" fill="#cc943a" id="Path_5"></path>
<path d="M1213.615,1007.565A32.173,32.173,0,0,1,1201.1,995.48a35.3,35.3,0,0,1,0-34.5,32.169,32.169,0,0,1,12.512-12.086,38.411,38.411,0,0,1,35.641-.048,32.3,32.3,0,0,1,12.466,12.087,35.167,35.167,0,0,1,0,34.6,32.271,32.271,0,0,1-12.466,12.086,38.411,38.411,0,0,1-35.641-.048Zm32.087-5.4a25.737,25.737,0,0,0,9.953-9.859,29.307,29.307,0,0,0,0-28.153,25.748,25.748,0,0,0-9.953-9.858,30.307,30.307,0,0,0-28.485,0,25.973,25.973,0,0,0-10.048,9.858,28.976,28.976,0,0,0,0,28.153,25.962,25.962,0,0,0,10.048,9.859,30.315,30.315,0,0,0,28.485,0Z" fill="#cc943a" id="Path_6"></path>
</g>
<g id="word_therapeutics">
<g id="Group_3">
<path d="M870.971,1035.871H861.2v-2.541h22.478v2.541h-9.77v25.258h-2.938Z" fill="#0e4b84" id="Path_7"></path>
<path d="M919.538,1033.33v27.8h-2.9V1048.3H899.245v12.827h-2.938v-27.8h2.938v12.39h17.394v-12.39Z" fill="#0e4b84" id="Path_8"></path>
<path d="M956.192,1058.587v2.542H936.535v-27.8H955.6v2.541H939.473v9.889h14.376v2.5H939.473v10.325Z" fill="#0e4b84" id="Path_9"></path>
<path d="M990.027,1061.129l-6.354-8.936a20,20,0,0,1-2.224.12h-7.466v8.816h-2.939v-27.8h10.4q5.32,0,8.34,2.541a8.655,8.655,0,0,1,3.018,6.99,9.038,9.038,0,0,1-1.648,5.5,9.134,9.134,0,0,1-4.706,3.237l6.791,9.531Zm-2.343-13.145a7.171,7.171,0,0,0,0-10.306q-2.184-1.806-6.314-1.807h-7.387v13.94h7.387Q985.5,1049.811,987.684,1047.984Z" fill="#0e4b84" id="Path_10"></path>
<path d="M1025.132,1053.7h-15.488l-3.335,7.427h-3.058l12.708-27.8h2.9l12.708,27.8h-3.1Zm-1.072-2.382-6.672-14.932-6.671,14.932Z" fill="#0e4b84" id="Path_11"></path>
<path d="M1062.859,1035.871a9.58,9.58,0,0,1,0,13.959q-3.018,2.523-8.34,2.522h-7.466v8.777h-2.938v-27.8h10.4Q1059.841,1033.33,1062.859,1035.871Zm-2.1,12.093a6.251,6.251,0,0,0,2.184-5.1,6.348,6.348,0,0,0-2.184-5.183q-2.184-1.806-6.314-1.807h-7.387v13.9h7.387Q1058.57,1049.771,1060.754,1047.964Z" fill="#0e4b84" id="Path_12"></path>
<path d="M1099.831,1058.587v2.542h-19.658v-27.8h19.062v2.541h-16.123v9.889h14.376v2.5h-14.376v10.325Z" fill="#0e4b84" id="Path_13"></path>
<path d="M1117.463,1058.269q-3.02-3.1-3.019-9.014V1033.33h2.939v15.806q0,4.845,2.184,7.227a9.611,9.611,0,0,0,12.669,0q2.183-2.382,2.184-7.227V1033.33h2.859v15.925q0,5.917-3,9.014t-8.4,3.1Q1120.481,1061.367,1117.463,1058.269Z" fill="#0e4b84" id="Path_14"></path>
<path d="M1158.922,1035.871h-9.769v-2.541h22.477v2.541h-9.769v25.258h-2.939Z" fill="#0e4b84" id="Path_15"></path>
<path d="M1184.258,1033.33h2.939v27.8h-2.939Z" fill="#0e4b84" id="Path_16"></path>
<path d="M1208.82,1059.54a13.362,13.362,0,0,1-5.2-5.063,14.861,14.861,0,0,1,0-14.495,13.336,13.336,0,0,1,5.222-5.064,15.293,15.293,0,0,1,7.466-1.826,15.471,15.471,0,0,1,5.718,1.032,11.866,11.866,0,0,1,4.448,3.018l-1.866,1.867a11.077,11.077,0,0,0-8.221-3.3,12.076,12.076,0,0,0-6,1.509,11.015,11.015,0,0,0-4.23,4.13,12.061,12.061,0,0,0,0,11.755,11.024,11.024,0,0,0,4.23,4.13,12.077,12.077,0,0,0,6,1.509,10.924,10.924,0,0,0,8.221-3.336l1.866,1.866a12,12,0,0,1-4.468,3.038,15.349,15.349,0,0,1-5.738,1.053A15.166,15.166,0,0,1,1208.82,1059.54Z" fill="#0e4b84" id="Path_17"></path>
<path d="M1242.258,1060.374a10.893,10.893,0,0,1-4.389-2.621l1.152-2.263a11.023,11.023,0,0,0,4.011,2.442,14.662,14.662,0,0,0,5.163.933,9.441,9.441,0,0,0,5.6-1.37,4.22,4.22,0,0,0,1.866-3.554,3.557,3.557,0,0,0-1.012-2.661,6.846,6.846,0,0,0-2.482-1.529,40.419,40.419,0,0,0-4.09-1.172,42.806,42.806,0,0,1-5-1.528,8.215,8.215,0,0,1-3.2-2.244,5.965,5.965,0,0,1-1.33-4.091,6.935,6.935,0,0,1,1.111-3.832,7.622,7.622,0,0,1,3.416-2.76,13.981,13.981,0,0,1,5.718-1.032,16.839,16.839,0,0,1,4.667.655,13.422,13.422,0,0,1,3.951,1.807l-.993,2.343a13.664,13.664,0,0,0-3.733-1.728,13.967,13.967,0,0,0-3.892-.575,8.987,8.987,0,0,0-5.5,1.409,4.375,4.375,0,0,0-1.847,3.634,3.626,3.626,0,0,0,1.013,2.681,6.622,6.622,0,0,0,2.542,1.548q1.528.537,4.11,1.172a41.382,41.382,0,0,1,4.944,1.489,8.124,8.124,0,0,1,3.2,2.224,5.885,5.885,0,0,1,1.311,4.031,6.849,6.849,0,0,1-1.132,3.832,7.608,7.608,0,0,1-3.475,2.74,14.52,14.52,0,0,1-5.758,1.013A17.846,17.846,0,0,1,1242.258,1060.374Z" fill="#0e4b84" id="Path_18"></path>
</g>
</g>
<g id="mark">
<path d="M782.471,989.721l28.1,28.979c-1.44-.284-2.908-.616-4.4-.986a112.7,112.7,0,0,1-51.193-28.682l-4.467-4.339-12.228,12.775H748.4c-2.5,1.516-7.592,4.592-10.108,6.111l.169.179,5.553,5.938H709.988c6.463-5.118,32.855-26.023,39.786-31.513l8.436,7.252,34.316-24.266,53.839,48.527-55.322-43.341-.289,6.947-4.586,8.583,4.286,5.47Z" fill="#cc943a" id="Path_19"></path>
<path d="M697.6,1016.981c65.342-29.941,90.736,52.908,148.764-3.337C809.88,1049.01,752.911,975.129,697.6,1016.981Z" fill="#cc943a" id="Path_20"></path>
<path d="M825.139,1036.845q-1.143,1.9-2.448,3.7-2.667,2.676-5.247,4.833c-36.556,30.666-60.411-13.5-96.244-19.317a45.705,45.705,0,0,0-6.593-.606,63.932,63.932,0,0,1-2.327-7.28,48.018,48.018,0,0,1,5.912-.982C758.263,1013.106,796.822,1058.748,825.139,1036.845Z" fill="#0e4b84" id="Path_21"></path>
<path d="M825.139,1036.845q-1.143,1.9-2.448,3.7c-1.1,1.53-2.274,3.008-3.51,4.44a60.864,60.864,0,0,1-25.217,17.152,62.295,62.295,0,0,1-40.949.237,63.227,63.227,0,0,1-32.589-25.512,61.366,61.366,0,0,1-5.819-11.407,63.932,63.932,0,0,1-2.327-7.28,48.018,48.018,0,0,1,5.912-.982,58.257,58.257,0,0,0,7.06,16.6,58.6,58.6,0,0,0,12.667,14.456,59.452,59.452,0,0,0,7.949,5.507,58.187,58.187,0,0,0,8.741,4.186,60.6,60.6,0,0,0,38.431,1.379,60.864,60.864,0,0,0,17.782-8.584,61.6,61.6,0,0,0,6.622-5.363c.363-.33.721-.67,1.073-1.016A64.669,64.669,0,0,0,825.139,1036.845Z" fill="#0e4b84" id="Path_22"></path>
<path d="M830.8,978.835a62.378,62.378,0,0,0-27.211-28.27,60.225,60.225,0,0,0-37.981-6.034,58.753,58.753,0,0,0-9.383,2.411,59.863,59.863,0,0,0-8.856,3.865A59.146,59.146,0,0,0,716.7,996.65l-6.336,5.022q.027-2.626.273-5.24a63.091,63.091,0,0,1,17.385-37.8,62.43,62.43,0,0,1,77.028-10.667A60.905,60.905,0,0,1,826.5,969.652,58.64,58.64,0,0,1,830.8,978.835Z" fill="#0e4b84" id="Path_23"></path>
<path d="M825.139,1036.845q-1.143,1.9-2.448,3.7c-1.1,1.53-2.274,3.008-3.51,4.44a60.864,60.864,0,0,1-25.217,17.152,62.295,62.295,0,0,1-40.949.237,63.227,63.227,0,0,1-32.589-25.512,61.366,61.366,0,0,1-5.819-11.407,63.932,63.932,0,0,1-2.327-7.28,48.018,48.018,0,0,1,5.912-.982C758.263,1013.106,796.822,1058.748,825.139,1036.845Z" fill="#0e4b84" id="Path_24"></path>
</g>
</g>
</svg>