<?xml version="1.0" encoding="UTF-8" standalone="no"?>
<!-- Created with Inkscape (http://www.inkscape.org/) -->

<svg
   xmlns:dc="http://purl.org/dc/elements/1.1/"
   xmlns:cc="http://creativecommons.org/ns#"
   xmlns:rdf="http://www.w3.org/1999/02/22-rdf-syntax-ns#"
   xmlns:svg="http://www.w3.org/2000/svg"
   xmlns="http://www.w3.org/2000/svg"
   version="1.1"
   width="156.8125"
   height="44.40625"
   id="svg3770">
  <defs
     id="defs3772">
    <clipPath
       id="clipPath3044">
      <path
         d="m 45.706,709.771 123.856,0 0,46.075 -123.856,0 0,-46.075 z"
         id="path3046" />
    </clipPath>
  </defs>
  <metadata
     id="metadata3775">
    <rdf:RDF>
      <cc:Work
         rdf:about="">
        <dc:format>image/svg+xml</dc:format>
        <dc:type
           rdf:resource="http://purl.org/dc/dcmitype/StillImage" />
        <dc:title></dc:title>
      </cc:Work>
    </rdf:RDF>
  </metadata>
  <g
     transform="translate(-313.03125,-442.5625)"
     id="layer1">
    <path
       d="m 369.53125,453.74995 c -8.3075,0 -12.09375,5.46875 -12.09375,10.53125 0,2.9425 1.06375,5.6325 2.96875,7.40625 2.09625,1.965 4.89375,2.9375 8.53125,2.9375 3.1575,0 5.73,-0.7875 7,-1.25 l 0.3125,-0.0937 0,-9.625 -3.5,0 0,7.46875 c -0.5,0.1875 -1.595,0.46875 -3.59375,0.46875 -4.91125,0 -8.0625,-2.9225 -8.0625,-7.4375 0,-4.485 3.265,-7.375 8.34375,-7.375 1.90875,0 3.38125,0.29625 4.8125,0.9375 l 0.46875,0.1875 0.9375,-2.9375 -0.34375,-0.15625 c -1.0375,-0.48755 -3.1775,-1.06255 -5.78125,-1.06255 z m 80.40625,0.0312 0,2.9375 6.6875,0.0312 c 3.06375,0 5.35625,0.755 6.8125,2.21875 1.17875,1.1825 1.76625,2.825 1.75,4.84375 0,2.2475 -0.6975,4.13875 -2.03125,5.46875 -1.5525,1.55875 -3.9975,2.3575 -7.03125,2.34375 -0.92,0 -1.94875,-0.0163 -2.6875,-0.0937 l 0,-9.25 -3.5,0 0,12.0625 0.40625,0.0312 c 1.5325,0.15375 3.19875,0.25 5.3125,0.25 4.33625,0 7.9125,-1.135 10.0625,-3.1875 2.0125,-1.975 3.125,-4.715 3.125,-7.71875 0,-2.8825 -1.00625,-5.2625 -2.96875,-7.0625 -2.0225,-1.90125 -5.16125,-2.875 -9.34375,-2.875 l -6.59375,0 z m -67.5625,0.15625 0,20.46875 3.53125,0 0,-20.46875 -3.53125,0 z m 27.53125,0 0,20.46875 12.96875,0 0,-3.03125 -9.4375,0 0,-6.09375 8.46875,0 0,-3.03125 -8.46875,0 0,-5.25 8.96875,0 0,-3.0625 -12.5,0 z m 24.625,0 -7.71875,20.46875 3.5625,0 2.25,-6.25 7.1875,0 2.375,6.25 3.625,0 -7.8125,-20.4687 -3.46875,0 z m -41.90625,0.0312 0,20.4375 12.84375,0 0,-3.09375 -9.3125,0 0,-17.34375 -3.53125,0 z m 43.5625,4 c 0.20125,0.62125 2.14875,5.79 2.71875,7.28125 l -5.375,0 c 0,0 2.465,-6.66 2.65625,-7.28125 z"
       id="path3050"
       style="fill:#646569;fill-opacity:1;fill-rule:nonzero;stroke:none" />
    <path
       d="m 345.75,443.5625 c -26.45749,2.51875 -29.80624,20.76625 -21.15625,26.59375 -1.495,6.5875 -0.125,6.4375 -0.125,6.4375 0.27251,-1.96875 0.6525,-3.92875 1.15625,-5.84375 3.37625,-12.83875 11.73125,-24.00875 20.15625,-26.9375 l 0,-0.0312 c 0.0537,-0.004 0.125,-0.0337 0.125,-0.0937 0,-0.08 -0.0637,-0.125 -0.125,-0.125 l -0.0312,0 z m -1.375,4.1875 c -0.0462,0 -0.10125,0.0462 -0.125,0.0937 -2.1875,4.28625 -2.80625,10.42125 -4.46875,15.125 -1.91125,5.3675 -5.30375,9.00625 -10.53125,8.65625 l 0,13.0625 c 0,0 -13.96875,-6.34125 -13.96875,-16.5 l 0,-19.03125 11.40625,-1.0625 0.0312,0 c 0.0613,0 0.0937,-0.0288 0.0937,-0.0937 0,-0.0738 -0.0337,-0.11875 -0.0937,-0.125 l -12.6875,0 0,20.3125 c 0,11.425 15.21875,17.78125 15.21875,17.78125 0,0 15.25,-6.4575 15.25,-17.78125 l 0,-20.3125 c 0,-0.0537 -0.0638,-0.125 -0.125,-0.125 z"
       id="path3072"
       style="fill:#c6093b;fill-opacity:1;fill-rule:nonzero;stroke:none" />
  </g>
</svg>
