<?xml version="1.0" encoding="UTF-8" standalone="no"?>
<!DOCTYPE svg PUBLIC "-//W3C//DTD SVG 1.1//EN" "http://www.w3.org/Graphics/SVG/1.1/DTD/svg11.dtd">
<svg width="100%" height="100%" viewBox="0 0 190 42" version="1.1" xmlns="http://www.w3.org/2000/svg" xmlns:xlink="http://www.w3.org/1999/xlink" xml:space="preserve" xmlns:serif="http://www.serif.com/" style="fill-rule:evenodd;clip-rule:evenodd;stroke-linejoin:round;stroke-miterlimit:1.41421;">
    <g id="Group" transform="matrix(1,0,0,1,0,-73)">
        <path d="M34.304,76.089L34.612,76.089L34.612,75.721L34.612,75.354L24.472,75.354L24.472,76.089C25.732,76.089 26.807,76.303 27.568,76.754C28.328,77.206 28.774,77.894 28.774,78.843L28.774,96.531L19.556,85.912L10.338,75.293L2.78,75.293L2.78,75.966L3.886,76.272C4.347,76.486 4.961,76.884 5.591,77.412C6.221,77.94 6.866,78.598 7.389,79.333L7.45,79.424L7.511,79.516L7.511,101.611C7.511,103.08 7.173,104.013 6.536,104.579C5.898,105.146 4.961,105.344 3.763,105.344L3.64,105.344L3.517,105.344L3.517,106.079L4.193,106.079C4.531,106.079 5.207,106.048 5.998,106.018C6.789,105.987 7.696,105.957 8.495,105.957L13.595,106.079L13.595,105.712L13.595,105.344C12.243,105.344 11.229,105.069 10.553,104.334C9.877,103.6 9.539,102.407 9.539,100.571L9.539,82.025L28.712,104.426C29.204,105.008 29.573,105.39 29.849,105.628C30.126,105.865 30.31,105.957 30.433,105.957C30.556,105.957 30.648,105.88 30.709,105.742C30.771,105.604 30.802,105.406 30.802,105.161L30.771,103.57L30.74,101.978L30.74,79.149C30.74,78.016 30.925,77.252 31.462,76.77C32,76.288 32.891,76.089 34.304,76.089Z" style="fill:rgb(55,53,53);"/>
        <path d="M67.621,103.85C66.883,103.514 66.515,103.269 66.33,101.525C66.146,99.78 66.146,96.537 66.146,90.202L66.146,88.335L66.146,86.469L66.146,86.132L66.146,85.795L59.263,85.856L59.14,85.856L59.018,85.856L59.018,86.346C59.048,86.438 59.064,86.484 59.102,86.507C59.14,86.53 59.202,86.53 59.325,86.53C60.646,86.53 61.445,86.759 61.914,87.31C62.382,87.861 62.52,88.733 62.52,90.018L62.52,101.586C61.537,102.565 60.769,103.223 60.024,103.636C59.279,104.049 58.557,104.218 57.666,104.218C56.375,104.218 55.53,103.728 55.008,102.734C54.486,101.739 54.286,100.24 54.286,98.22L54.286,85.795L47.403,85.734L47.403,86.346C47.434,86.438 47.465,86.484 47.526,86.507C47.588,86.53 47.68,86.53 47.833,86.53C48.97,86.53 49.692,86.683 50.13,87.234C50.568,87.784 50.722,88.733 50.722,90.324L50.722,99.872C50.722,102.014 51.183,103.805 52.097,105.059C53.011,106.314 54.378,107.033 56.191,107.033C56.867,107.033 57.789,106.742 58.864,106.1C59.939,105.457 61.168,104.463 62.459,103.055L62.551,102.963L62.644,102.871L62.644,106.85L66.115,105.595L69.587,104.34L69.587,104.126L69.587,103.912C69.495,103.881 69.434,103.866 69.38,103.858C69.326,103.85 69.28,103.85 69.219,103.85L68.42,103.85L67.621,103.85Z" style="fill:rgb(55,53,53);"/>
        <path d="M163.605,102.62L163.605,89.768C163.605,88.39 163.052,87.182 162.138,86.317C161.223,85.453 159.948,84.932 158.504,84.932C157.644,84.932 157.214,84.932 156.361,85.384C155.508,85.835 154.233,86.738 151.683,88.543L151.621,88.605L151.56,88.666L151.56,86.738L151.56,84.81L148.303,86.248L145.046,87.687L145.046,88.237C145.876,88.237 146.644,88.283 147.205,88.551C147.766,88.819 148.119,89.308 148.119,90.196L148.119,102.62C148.119,103.569 148.027,104.242 147.781,104.686C147.535,105.13 147.135,105.344 146.521,105.375L145.999,105.405L145.476,105.436L145.476,106.048L154.387,106.048L154.387,105.742L154.387,105.436C153.342,105.436 152.635,105.329 152.19,105C151.744,104.671 151.56,104.12 151.56,103.232L151.621,90.196C153.496,88.819 154.433,88.13 155.078,87.786C155.724,87.442 156.077,87.442 156.783,87.442C157.89,87.442 158.75,87.855 159.334,88.62C159.917,89.385 160.224,90.502 160.224,91.91L160.224,102.62C160.224,103.814 160.224,104.411 159.871,104.763C159.518,105.115 158.811,105.222 157.398,105.436L157.398,106.048L166.431,106.048L166.431,105.742L166.431,105.436C166.37,105.405 166.324,105.39 166.285,105.382C166.247,105.375 166.216,105.375 166.185,105.375C165.141,105.375 164.496,105.252 164.112,104.847C163.728,104.441 163.605,103.753 163.605,102.62Z" style="fill:rgb(55,53,53);"/>
        <path d="M109.793,88.048C107.958,86.005 105.469,84.766 102.857,84.766C100.276,84.766 97.833,85.99 96.036,87.964C94.239,89.938 93.086,92.661 93.086,95.66C93.086,98.782 94.269,101.536 96.105,103.51C97.941,105.484 100.43,106.677 103.041,106.677C105.715,106.677 108.157,105.529 109.932,103.64C111.706,101.75 112.812,99.118 112.812,96.15C112.812,92.937 111.629,90.091 109.793,88.048ZM107.682,103.024C106.791,104.417 105.5,105.258 103.902,105.258C102.059,105.258 100.261,103.973 98.925,101.915C97.588,99.857 96.713,97.026 96.713,93.935C96.713,91.916 97.158,90.049 98.011,88.687C98.864,87.325 100.123,86.468 101.752,86.468C103.841,86.468 105.669,87.769 106.975,89.797C108.281,91.824 109.064,94.578 109.064,97.485C109.064,99.689 108.573,101.632 107.682,103.024Z" style="fill:rgb(55,53,53);"/>
        <path d="M128.739,102.806C127.694,101.994 126.189,101.612 124.345,101.612L121.979,101.642L119.613,101.673C118.446,101.673 117.677,101.581 117.201,101.375C116.725,101.168 116.541,100.847 116.541,100.388C116.541,100.082 116.648,99.715 116.856,99.363C117.063,99.011 117.37,98.674 117.77,98.429L117.862,98.368L117.954,98.307C118.599,98.429 119.137,98.506 119.59,98.552C120.043,98.598 120.412,98.613 120.719,98.613C122.809,98.613 124.591,97.94 125.851,96.746C127.11,95.553 127.848,93.839 127.848,91.758C127.848,91.452 127.848,91.314 127.756,90.909C127.663,90.503 127.479,89.83 127.11,88.453L130.121,88.453L130.121,86.556L125.267,86.556C124.222,85.913 123.439,85.5 122.717,85.247C121.994,84.995 121.334,84.903 120.535,84.903C118.538,84.903 116.679,85.714 115.319,87.007C113.96,88.3 113.1,90.075 113.1,92.003C113.1,92.952 113.438,94.176 114.029,95.239C114.62,96.303 115.465,97.205 116.479,97.511L116.11,98.001L115.742,98.49C114.943,99.256 114.39,99.868 114.037,100.434C113.683,101 113.53,101.52 113.53,102.102C113.53,103.295 113.975,103.8 114.42,104.06C114.866,104.32 115.311,104.335 115.311,104.55C115.311,104.734 114.436,105.483 113.56,106.439C112.684,107.396 111.809,108.559 111.809,109.568C111.809,110.701 112.731,111.741 114.213,112.499C115.696,113.256 117.739,113.731 119.982,113.731C122.716,113.731 125.313,112.92 127.226,111.619C129.138,110.318 130.367,108.528 130.367,106.57C130.367,104.856 129.784,103.616 128.739,102.806ZM117.665,87.619C118.172,86.839 118.925,86.38 119.908,86.38C121.107,86.38 122.167,87.191 122.927,88.438C123.688,89.685 124.148,91.368 124.148,93.112C124.148,94.306 123.857,95.346 123.296,96.088C122.735,96.83 121.905,97.274 120.83,97.274C119.755,97.274 118.771,96.616 118.057,95.476C117.343,94.336 116.897,92.714 116.897,90.787C116.897,89.501 117.158,88.4 117.665,87.619ZM127.135,109.93C126.028,110.679 124.4,111.169 122.311,111.169C120.037,111.169 118.24,110.817 117.011,110.259C115.781,109.7 115.121,108.935 115.121,108.109C115.121,106.793 115.413,105.967 116.027,105.469C116.642,104.972 117.579,104.804 118.869,104.804C123.355,104.804 125.844,104.788 127.212,105.072C128.579,105.355 128.825,105.936 128.825,107.129C128.825,108.17 128.241,109.18 127.135,109.93Z" style="fill:rgb(55,53,53);"/>
        <path d="M181.752,103.74C181.445,103.916 181.322,103.916 181.076,103.916C180.738,103.916 180.477,103.748 180.3,103.365C180.123,102.983 180.031,102.386 180.031,101.529L180.093,91.92C180.093,89.533 179.509,87.773 178.372,86.611C177.236,85.448 175.545,84.882 173.333,84.882C171.551,84.882 169.692,85.417 168.279,86.312C166.865,87.207 165.897,88.462 165.897,89.9C165.897,90.665 166.082,91.201 166.389,91.545C166.696,91.89 167.127,92.043 167.618,92.043C168.171,92.043 168.663,91.859 169.016,91.553C169.369,91.247 169.585,90.818 169.585,90.329C169.585,89.717 169.539,89.319 169.492,89.059C169.446,88.799 169.4,88.676 169.4,88.615C169.4,87.789 169.784,87.131 170.399,86.68C171.013,86.228 171.858,85.983 172.78,85.983C173.763,85.983 174.624,86.35 175.238,87.047C175.853,87.743 176.221,88.768 176.221,90.084L176.191,91.43L176.16,92.777L173.917,93.664L171.674,94.552C169.646,95.348 168.064,96.327 166.988,97.452C165.913,98.576 165.344,99.846 165.344,101.223C165.344,102.753 165.821,104.069 166.612,105.003C167.403,105.936 168.509,106.487 169.769,106.487C170.752,106.487 171.735,106.273 172.788,105.813C173.84,105.355 174.962,104.651 176.221,103.671L176.283,103.61L176.344,103.549C176.498,104.375 176.774,105.125 177.22,105.668C177.666,106.211 178.28,106.548 179.11,106.548C179.755,106.548 180.431,106.319 181.145,105.867C181.859,105.416 182.612,104.742 183.411,103.855L183.473,103.763L183.534,103.671L183.534,103.09L183.534,102.509C182.551,103.212 182.06,103.564 181.752,103.74ZM176.106,102.211L176.044,102.303L175.983,102.395C175.491,102.885 174.908,103.283 174.301,103.558C173.694,103.833 173.064,103.986 172.48,103.986C171.558,103.986 170.714,103.527 170.099,102.831C169.484,102.135 169.101,101.202 169.101,100.253C169.101,98.907 169.561,97.927 170.675,97.009C171.789,96.091 173.556,95.234 176.167,94.133L176.106,102.211Z" style="fill:rgb(55,53,53);"/>
        <path d="M49.363,98.553C49.324,98.43 49.247,98.338 49.094,98.338C48.909,98.338 48.479,99.578 47.519,100.817C46.559,102.057 45.069,103.296 42.764,103.296C40.46,103.296 38.739,102.195 37.587,100.481C36.435,98.767 35.851,96.441 35.82,93.993L35.82,93.779L35.82,93.565L41.566,93.534L47.312,93.504C48.018,93.504 48.402,93.504 48.61,93.435C48.817,93.366 48.848,93.228 48.848,92.953C48.848,90.841 48.049,88.837 46.705,87.36C45.361,85.883 43.471,84.935 41.29,84.935C38.708,84.935 36.542,86.113 35.021,88.064C33.501,90.015 32.625,92.738 32.625,95.829C32.625,98.798 33.623,101.598 35.206,103.656C36.788,105.714 38.954,107.03 41.29,107.03C42.211,107.03 43.102,106.831 43.947,106.448C44.792,106.066 45.591,105.499 46.329,104.765C46.82,104.275 47.588,103.204 48.234,102.064C48.879,100.924 49.401,99.716 49.401,98.951C49.401,98.828 49.401,98.675 49.363,98.553ZM36.097,91.674L36.128,91.49C36.373,89.96 36.911,88.751 37.672,87.925C38.432,87.099 39.416,86.655 40.552,86.655C41.443,86.655 42.365,87.099 43.064,87.818C43.763,88.537 44.239,89.532 44.239,90.633C44.239,91.215 44.086,91.506 43.625,91.666C43.164,91.827 36.066,91.857 36.066,91.857L36.097,91.674Z" style="fill:rgb(55,53,53);"/>
        <path d="M145.762,98.553C145.723,98.43 145.647,98.338 145.493,98.338C145.308,98.338 144.878,99.578 143.911,100.817C142.943,102.057 141.437,103.296 139.102,103.296C136.982,103.296 135.261,102.347 134.071,100.802C132.88,99.257 132.22,97.115 132.22,94.728C132.22,94.33 132.235,94.039 132.281,93.848C132.327,93.656 132.404,93.565 132.526,93.565L138.118,93.534L143.711,93.504C144.448,93.504 144.832,93.504 145.032,93.435C145.232,93.366 145.247,93.228 145.247,92.953C145.247,90.811 144.448,88.806 143.104,87.337C141.76,85.868 139.87,84.935 137.689,84.935C135.138,84.935 132.972,86.098 131.443,88.033C129.915,89.969 129.024,92.677 129.024,95.768C129.024,98.736 130.007,101.552 131.582,103.625C133.156,105.698 135.323,107.03 137.689,107.03C138.58,107.03 139.486,106.815 140.346,106.425C141.206,106.035 142.021,105.469 142.728,104.765C143.25,104.245 144.018,103.158 144.656,102.019C145.293,100.879 145.8,99.685 145.8,98.951C145.8,98.828 145.8,98.675 145.762,98.553ZM132.496,91.674L132.527,91.49C132.772,89.991 133.31,88.782 134.071,87.948C134.831,87.114 135.815,86.655 136.952,86.655C137.812,86.655 138.733,87.083 139.44,87.795C140.147,88.506 140.638,89.501 140.638,90.633C140.638,91.215 140.515,91.506 140.07,91.666C139.625,91.827 132.465,91.857 132.465,91.857L132.496,91.674Z" style="fill:rgb(55,53,53);"/>
        <path d="M89.828,87.998C90.474,87.998 90.766,88.319 91.119,88.64C91.472,88.962 91.887,89.283 92.778,89.283C93.392,89.283 93.853,89.115 94.161,88.778C94.468,88.441 94.622,87.937 94.622,87.263C94.622,86.682 94.406,86.085 94.015,85.634C93.623,85.182 93.055,84.876 92.348,84.876C91.672,84.876 91.334,84.876 90.689,85.32C90.043,85.764 89.091,86.651 87.186,88.426L87.063,88.518L86.94,88.61L86.94,86.651L86.94,84.693L83.683,85.978L80.426,87.263L80.426,87.692C80.488,87.753 80.519,87.783 80.549,87.799C80.58,87.814 80.611,87.814 80.672,87.814C81.717,87.814 82.454,87.875 82.93,88.089C83.406,88.303 83.622,88.671 83.622,89.283L83.683,102.993C83.683,103.819 83.437,104.37 82.953,104.714C82.469,105.058 81.747,105.196 80.795,105.196C80.672,105.196 80.595,105.196 80.519,105.211C80.442,105.227 80.365,105.257 80.242,105.319L80.242,105.992L90.873,105.992L90.873,105.716L90.873,105.441C90.873,105.38 90.842,105.334 90.773,105.303C90.704,105.273 90.597,105.257 90.443,105.257C89.337,105.257 88.461,104.966 87.862,104.347C87.263,103.727 86.94,102.779 86.94,101.463L86.94,90.324C87.739,89.314 88.215,88.732 88.615,88.403C89.014,88.074 89.337,87.998 89.828,87.998Z" style="fill:rgb(55,53,53);"/>
        <path d="M79.665,102.309C79.481,102.309 79.282,102.753 78.844,103.197C78.406,103.641 77.73,104.084 76.593,104.084C75.917,104.084 75.348,103.809 74.949,103.251C74.55,102.692 74.319,101.85 74.319,100.718L74.319,86.947L78.314,86.947L78.314,85.417L74.319,85.417L74.319,79.541L73.797,79.541L73.274,79.541C72.906,80.643 72.614,81.439 72.299,82.097C71.984,82.755 71.646,83.275 71.185,83.826C70.478,84.713 69.649,85.279 68.927,85.677C68.205,86.075 67.59,86.304 67.314,86.519L67.314,86.947C68.604,87.008 69.403,87.039 69.879,87.07C70.356,87.1 70.509,87.131 70.509,87.192L70.509,100.718C70.509,102.554 70.909,104.084 71.638,105.156C72.368,106.227 73.428,106.839 74.749,106.839C75.395,106.839 76.701,106.441 77.845,105.729C78.989,105.018 79.973,103.993 79.973,102.738C79.973,102.646 79.942,102.539 79.888,102.455C79.834,102.37 79.758,102.309 79.665,102.309Z" style="fill:rgb(55,53,53);"/>
        <path d="M183.92,85.618C182.654,85.618 181.583,86.588 181.583,87.903C181.583,89.23 182.654,90.2 183.92,90.2C185.173,90.2 186.244,89.23 186.244,87.903C186.244,86.588 185.173,85.618 183.92,85.618ZM183.92,89.818C182.867,89.818 182.046,89.006 182.046,87.903C182.046,86.818 182.867,86 183.92,86C184.96,86 185.782,86.818 185.782,87.903C185.782,89.006 184.96,89.818 183.92,89.818Z" style="fill:rgb(55,53,53);"/>
        <path d="M184.291,88.067C184.681,88.018 184.979,87.812 184.979,87.339C184.979,86.818 184.669,86.588 184.042,86.588L183.032,86.588L183.032,89.23L183.434,89.23L183.434,88.085L183.896,88.085L184.595,89.23L185.046,89.23L184.291,88.067ZM183.434,87.745L183.434,86.927L183.981,86.927C184.261,86.927 184.559,86.988 184.559,87.315C184.559,87.721 184.255,87.745 183.914,87.745L183.434,87.745Z" style="fill:rgb(55,53,53);"/>
    </g>
</svg>
