<?xml version="1.0" encoding="UTF-8" standalone="no"?>
<!-- Created with Inkscape (http://www.inkscape.org/) -->
<svg
   xmlns:svg="http://www.w3.org/2000/svg"
   xmlns="http://www.w3.org/2000/svg"
   version="1.0"
   width="744.09448"
   height="259.7244"
   id="svg3383">
  <defs
     id="defs3385" />
  <g
     transform="matrix(2.1324648,0,0,2.1324648,-20.06337,-61.39374)"
     id="g2208">
    <path
       d="M 70.359878,55.92679 L 93.246136,55.92679 C 92.010377,58.49717 90.280314,63.19306 88.599682,68.72926 L 65.663992,68.72926 L 55.481333,99.96925 C 55.481333,100.41412 55.481333,100.80957 55.481333,101.25444 C 55.481333,102.09476 55.92621,102.93507 56.766528,103.37995 L 77.131837,103.37995 C 77.131837,103.37995 75.451205,108.07583 72.485383,117.4676 C 70.75532,117.91247 68.629815,118.35734 66.504309,118.35734 L 59.732349,118.35734 C 57.211406,118.35734 53.35583,117.91247 47.42419,117.91247 C 36.84609,117.07216 30.46958,114.0569 27.8992,107.68039 C 27.8992,107.23551 27.8992,106.3952 27.8992,105.50545 C 27.8992,102.09476 28.73951,97.84374 30.46958,92.70299 C 30.86502,91.4178 32.1502,87.11735 35.11603,80.29597 C 35.5609,78.5659 36.84609,74.75976 38.9716,68.72926 C 33.83084,68.72926 26.66344,68.72926 17.71654,68.72926 L 21.12724,55.92679 L 42.33286,55.92679 C 42.77773,55.48193 43.61805,53.80129 44.45837,50.78603 C 44.90324,49.94572 45.74355,47.37534 46.58387,44.36009 C 51.23033,43.12433 60.572665,40.55395 75.006331,37.09383 C 73.770572,40.94939 72.04051,47.37534 70.359878,55.92679"
       style="fill:#0e6cb0;fill-rule:evenodd;stroke:none;stroke-width:0.036;stroke-linecap:butt;stroke-linejoin:miter;stroke-miterlimit:3.86400008;stroke-dasharray:none"
       id="path290" />
    <path
       d="M 119.14765,103.37995 L 133.58131,103.37995 C 134.02619,103.37995 134.02619,102.93507 134.42163,102.93507 C 134.8665,102.93507 135.26195,103.37995 135.70682,103.37995 C 136.54714,103.37995 137.38745,103.37995 137.38745,102.93507 C 140.35327,97.39887 143.76397,90.13261 146.72979,80.74084 C 147.17466,79.45565 149.69561,71.74451 153.94662,57.65686 L 154.78694,55.92679 L 181.13333,55.92679 L 150.9808,142.28164 C 145.04916,142.28164 136.10226,142.28164 124.68385,141.83677 C 125.07929,140.60101 127.64967,132.88987 132.29612,119.19766 L 131.01093,118.35734 L 93.691009,118.35734 L 90.725187,116.62728 C 89.884872,116.23184 89.044555,115.34209 88.599682,114.94665 L 88.154809,114.94665 C 87.759365,113.66146 87.314492,111.9314 87.314492,109.80589 C 87.314492,107.68039 87.759365,105.50545 88.599682,103.37995 C 92.40582,92.70299 97.942021,76.88527 105.5543,55.92679 L 131.90068,55.92679 L 117.02214,100.41412 C 117.02214,101.25444 117.86246,102.09476 119.14765,103.37995"
       style="fill:#0e6cb0;fill-rule:evenodd;stroke:none;stroke-width:0.036;stroke-linecap:butt;stroke-linejoin:miter;stroke-miterlimit:3.86400008;stroke-dasharray:none"
       id="path294" />
    <path
       d="M 182.81396,117.91247 C 181.52877,117.4676 179.84814,117.4676 178.56295,117.07216 C 177.27776,116.62728 176.43744,115.78697 175.59712,114.94665 C 174.75681,113.66146 173.91649,112.37627 173.91649,110.64621 C 174.31193,109.80589 174.75681,106.79064 176.43744,101.69931 C 177.72263,99.52438 179.84814,92.70299 183.65427,81.58115 C 186.22465,73.87002 188.7456,67.88895 191.31598,63.19306 C 194.67725,58.94205 199.76857,56.37167 207.43028,55.48193 L 259.18387,55.92679 C 261.75425,56.37167 263.43488,57.65686 265.16494,58.94205 L 265.56039,58.94205 C 266.4007,60.62268 266.84558,61.90787 266.84558,64.03337 C 266.84558,66.20831 266.00526,68.72926 264.2752,72.18939 L 261.30938,80.29597 L 237.53337,80.29597 C 237.53337,80.29597 237.97824,78.5659 239.26343,75.99553 C 239.65888,74.31489 240.10375,73.0297 240.10375,71.74451 C 240.10375,70.90419 239.65888,70.01445 239.26343,69.17413 C 238.81856,68.72926 235.01242,68.72926 228.63591,68.72926 L 216.32774,68.72926 C 213.36192,68.72926 211.23642,70.01445 210.3961,72.58483 L 200.21345,100.80957 C 200.21345,102.09476 201.05376,102.93507 202.33895,103.37995 L 227.35072,103.37995 C 228.63591,102.53963 230.31654,99.96925 231.60173,95.27337 L 255.37773,95.27337 C 254.53742,99.96925 252.85678,103.82482 251.12672,106.79064 C 247.76546,112.37627 242.22926,116.23184 234.17211,117.91247 L 186.62009,117.91247 C 184.09915,117.91247 182.81396,117.91247 182.81396,117.91247"
       style="fill:#0e6cb0;fill-rule:evenodd;stroke:none;stroke-width:0.036;stroke-linecap:butt;stroke-linejoin:miter;stroke-miterlimit:3.86400008;stroke-dasharray:none"
       id="path298" />
    <path
       d="M 321.56499,68.72926 C 322.00987,68.72926 322.45473,69.61901 322.45473,70.90419 C 322.45473,70.90419 322.45473,71.29964 322.45473,71.74451 C 322.45473,73.47457 319.04405,82.86634 312.22265,100.80957 C 311.82721,102.09476 310.98689,102.93507 309.7017,102.93507 C 305.00582,102.93507 298.67873,102.93507 290.1767,102.53963 C 289.3364,102.53963 288.49608,102.09476 288.49608,100.80957 L 288.49608,97.84374 C 293.14253,85.43672 296.10835,76.44039 298.23386,70.01445 C 299.07417,69.17413 299.96392,68.72926 301.19968,68.72926 L 321.56499,68.72926 z M 338.56904,55.92679 L 291.01702,55.92679 C 281.67468,56.76711 276.18792,60.22724 274.06241,65.76344 L 260.91393,102.53963 C 260.46906,104.22026 260.46906,105.50545 260.46906,107.68039 C 260.46906,109.80589 260.46906,111.09108 261.30938,112.37627 C 263.87975,116.23184 266.00526,117.91247 268.52621,117.91247 L 322.85018,117.91247 C 327.94151,117.91247 332.63739,114.50178 336.44353,107.68039 C 338.96448,102.09476 341.53486,94.82849 344.0558,85.43672 L 349.592,67.4935 C 350.03688,66.20831 350.03688,65.31857 350.03688,64.92312 C 350.03688,58.94205 346.18132,55.92679 338.56904,55.92679"
       style="fill:#0e6cb0;fill-rule:evenodd;stroke:none;stroke-width:0.036;stroke-linecap:butt;stroke-linejoin:miter;stroke-miterlimit:3.86400008;stroke-dasharray:none"
       id="path302" />
  </g>
</svg>
