<svg xmlns="http://www.w3.org/2000/svg" xmlns:xlink="http://www.w3.org/1999/xlink" version="1.1" id="Artwork" x="0px" y="0px" style="enable-background:new 0 0 359.1071 128.1175;" xml:space="preserve" viewBox="37.82 42.71 283.46 42.71">
<style type="text/css">
	.st0{fill:#0460A9;}
	.st1{fill:url(#XMLID_00000160165363169347252960000000418253976236476826_);}
</style>
<g>
	<path class="st0" d="M275.2321,54.6608l0.6789,7.3482h-1.3179l-2.0767-5.0319h-6.9089v25.0798l4.1533,0.9585v1.4776h-13.099   v-1.4776l4.1534-0.9585V56.9771h-6.9089l-2.0767,5.0319h-1.3179l0.6789-7.3482H275.2321z M217.0044,83.0153v1.4776H204.225v-1.4776   l4.1535-0.9185l-2.8354-7.7875h-11.1024l-2.9152,7.8674l3.7537,0.8387v1.4776h-9.7439v-1.4776l3.5541-0.9984l0.1198-0.3595   l10.1437-26.9967l3.4742-0.8786l10.6233,28.2347L217.0044,83.0153z M204.7041,71.993l-4.6726-12.7396l-4.7125,12.7396H204.7041z    M301.7174,83.5345c2.3562,1.1182,5.6709,1.877,8.5463,1.877c6.4297,0,11.0223-3.5144,11.0223-8.5064   c0-3.9537-1.8371-6.3099-7.0686-9.0655l-3.5144-1.8371c-3.3946-1.7971-4.7923-3.3147-4.7923-5.7108   c0-2.9153,2.3962-4.5926,5.7508-4.5926c1.3179,0,2.7157,0.2796,4.1134,0.8786l2.4361,5.2316h1.278l-0.7188-6.9489   c-1.6773-0.599-4.9121-1.1182-6.9888-1.1182c-6.1102,0-9.9041,3.0751-9.9041,8.0671c0,3.3546,2.3163,6.1901,7.0687,8.6661   l2.9952,1.5575c3.3946,1.7572,4.8322,3.5942,4.8322,6.1102c0,3.3945-2.9553,5.3514-6.7092,5.3514   c-1.7971,0-3.5143-0.5591-5.631-1.877l-2.3163-5.3115h-1.238L301.7174,83.5345 M294.8554,84.4929v-1.4776l-4.1933-0.9585v-24.96   l4.1933-0.9585v-1.4776h-13.099v1.4776l4.1932,0.9585v24.96l-4.1932,0.9585v1.4776H294.8554z M249.7573,83.0552v1.4377h-7.8274   l-8.866-13.698h-3.4742v11.2619l4.0332,0.9585v1.4776H221.363v-1.4776l3.4742-0.9585v-24.96l-3.4742-0.9585v-1.4776   c0.6788,0,5.9503-0.1597,11.1818-0.1597c8.5061,0,11.9409,3.4744,11.9409,8.0271c0,5.591-5.9108,7.1086-6.9489,7.3882   l7.9472,12.0607L249.7573,83.0552z M239.6535,62.8476c0-5.1916-3.6743-6.0702-10.0638-6.0702v11.861h1.917   C236.4987,68.6384,239.6535,66.6815,239.6535,62.8476z M174.4462,85.0121l10.4232-27.8753l3.2747-0.9984v-1.4776h-8.9456v1.4776   l3.2747,0.8386l-8.0671,21.845l-8.0271-21.7651l3.6342-0.9185v-1.4776h-12.1006v1.4776l3.3147,0.9984l10.5431,27.8753H174.4462z    M156.2117,68.7972c0,10.583-7.3482,16.6133-15.4556,16.6133c-8.1867,0-15.4152-6.1901-15.4152-15.8146   c0-9.7044,7.3083-15.8546,15.3752-15.8546C150.6203,53.7413,156.2117,61.409,156.2117,68.7972z M151.02,70.3556   c0-7.7475-4.5927-14.8162-10.9028-14.8162c-6.7094,0-9.6645,6.0702-9.6645,12.9791s3.7941,15.1357,10.9826,15.1357   C148.1842,83.6543,151.02,77.1846,151.02,70.3556z M120.6342,56.1384v-1.4776h-9.2252v1.4776l3.6342,0.8386v19.0894   L98.5896,54.6608h-7.7875v1.4776c0.3195,0.0399,0.7188,0.1198,0.9185,0.1597c0.8386,0.1997,2.1565,0.7188,2.8354,1.2779v24.4807   l-3.2747,0.9585v1.4776h9.1853v-1.4776l-3.6342-0.8387V60.0921l19.329,24.8801h1.3578c-0.0799-0.5591-0.1597-3.9936-0.1597-5.5511   V57.0969L120.6342,56.1384z"/>
	<g>
		
			<linearGradient id="XMLID_00000150104906552482843590000004313103029440124561_" gradientUnits="userSpaceOnUse" x1="37.8224" y1="66.1362" x2="75.6449" y2="66.1362">
			<stop offset="0.3" style="stop-color:#E74A21"/>
			<stop offset="0.7011" style="stop-color:#EC9A1E"/>
		</linearGradient>
		
			<path id="XMLID_00000098197039953327840740000000483467928132857491_" style="fill:url(#XMLID_00000150104906552482843590000004313103029440124561_);" d="    M63.9423,61.8093l-0.1078,0.2702c1.7738,0.778,5.7415,3.8664,5.7415,10.0773c0,5.848-4.934,11.7496-12.6835,11.7496    c-9.6475,0-12.9722-5.6362-12.9722-10.8177c0-6.6373,4.6415-11.0622,4.6415-17.1075c0-4.2094-3.1843-8.3647-7.4473-9.1201    l-0.1616,0.2702c1.78,1.8883,2.3739,3.7237,2.3739,5.6667c0,6.5295-5.5043,11.1705-5.5043,18.6715    c0,6.9085,4.8309,13.9419,18.8012,13.9419c12.4533,0,19.0213-6.0962,19.0213-12.5924    C75.6449,67.261,71.6504,62.5508,63.9423,61.8093z"/>
		<polygon id="XMLID_00000018939452969838917230000011839165213004269722_" class="st0" points="56.7861,76.111 60.294,42.7057     52.9546,42.7057 56.4625,76.111   "/>
	</g>
</g>
</svg>