<?xml version="1.0" encoding="UTF-8"?>
<svg width="350" height="250" version="1.1" viewBox="0 0 350 250" xmlns="http://www.w3.org/2000/svg" xmlns:cc="http://creativecommons.org/ns#" xmlns:dc="http://purl.org/dc/elements/1.1/" xmlns:rdf="http://www.w3.org/1999/02/22-rdf-syntax-ns#">
 <metadata>
  <rdf:RDF>
   <cc:Work rdf:about="">
    <dc:format>image/svg+xml</dc:format>
    <dc:type rdf:resource="http://purl.org/dc/dcmitype/StillImage"/>
    <dc:title>GW Pharma [Converted]</dc:title>
   </cc:Work>
  </rdf:RDF>
 </metadata>
 <title>GW Pharma [Converted]</title>
 <path d="m315.98 204.61c0 4.6252 3.9822 5.8281 7.9229 6.7199 3.9407 0.89185 7.9229 1.4933 7.9229 5.0814s-3.3392 4.9777-6.5125 4.9777c-3.1733 0-6.6785-1.0992-6.9273-4.8326h-3.2563c0 5.517 5.0814 7.5703 9.4162 7.5703 5.2681 0 10.495-2.5304 10.495-8.1718a6.077 6.077 0 0 0-4.1481-5.8281c-6.7614-2.3852-11.594-2.074-11.594-5.7244 0-2.9244 2.8415-4.0237 5.6207-4.0237 2.7792 0 5.8696 1.037 6.2222 4.1481h3.2355c-0.39407-5.2681-4.3763-6.9274-9.1051-6.9274-4.3763 0-9.1673 1.7837-9.1673 6.9688zm-4.7288 18.77v-35.943h-2.9866v35.943zm-24.453-6.9688c0-6.2222 8.8562-5.4755 13.087-5.6207 0.29036 5.2266-0.93333 10.598-7.4666 10.598-3.0281 0-5.6207-1.597-5.6207-4.9777zm13.087-8.2962c-3.6296 0.2074-7.9644-0.29037-11.304 1.1407a7.7155 7.7155 0 0 0 3.277 14.933 8.9392 8.9392 0 0 0 7.8192-4.1481l0.14518-0.35259v3.6918h3.0904c0-1.7007-0.24889-3.6918-0.24889-5.6207v-11.843c0-5.7244-3.3392-8.2962-8.8562-8.2962-4.7703 0-8.6073 1.9496-9.354 7.0725h3.2978c0.39407-3.3807 2.9866-4.3348 6.2222-4.3348 3.5259 0 5.9318 1.2859 5.9318 5.3718v2.2815zm-17.567-2.0741c-0.24889-5.3303-4.4385-8.4207-9.5614-8.4207-7.4251 0-11.158 6.4711-11.158 13.232s3.4844 13.232 10.951 13.232c5.6829 0 8.9599-2.8415 9.7481-8.5658h-3.2355a6.2222 6.2222 0 0 1-6.8236 5.8281c-4.5837 0-7.4251-4.8326-7.4251-10.557 0-5.7244 2.8414-10.37 7.4251-10.37 4.1481 0 6.5748 1.8459 6.8236 5.6829zm-27.585-7.6533v24.889h2.9866v-24.889zm3.2355-10.951h-3.4014v3.7333h3.4844v-3.7333zm-15.244 29.161c0 3.3807-0.35259 7.4251 5.9733 7.4251a12.444 12.444 0 0 0 3.0281-0.43555v-2.5926a8.8562 8.8562 0 0 1-2.5926 0.29036 3.1111 3.1111 0 0 1-3.4429-3.5259v-16.717h5.6829v-2.7378h-5.6829v-6.5955l-2.9866 1.2859v5.3303h-4.9777v2.7378h4.9777v15.535zm-10.619-3.837c0 4.48-2.24 8.6073-7.1762 8.6073a6.2222 6.2222 0 0 1-6.5748-6.8651v-16.136h-2.9866v15.638c0 2.8829 0.64296 10.101 8.8147 10.101a8.5866 8.5866 0 0 0 7.8192-4.5214l0.14518 3.6918h3.0904c0-1.7007-0.24889-3.6918-0.24889-5.6207v-19.372h-2.9866v14.394zm-20.865-1.1822c0-7.8192-3.0281-13.938-11.407-13.938-7.4251 0-11.158 6.4711-11.158 13.232s3.4844 13.232 10.951 13.232a10.495 10.495 0 0 0 11.304-8.711h-3.1318a7.4459 7.4459 0 0 1-7.2177 5.9733c-6.2222 0-8.5658-4.48-8.6696-9.8103zm-19.206-2.7378c0.39407-4.3763 2.9866-8.4622 7.8607-8.4622s7.757 3.6296 8.1096 8.4622zm-5.3096-2.8c-0.24888-5.3303-4.4385-8.4207-9.5614-8.4207-7.4251 0-11.158 6.4711-11.158 13.232s3.4844 13.232 10.951 13.232c5.6829 0 8.9599-2.8415 9.7481-8.5658h-3.2355a6.2222 6.2222 0 0 1-6.8236 5.8281c-4.5837 0-7.4251-4.8326-7.4251-10.557 0-5.7244 2.8415-10.37 7.4251-10.37 4.1481 0 6.5748 1.8459 6.8236 5.6829zm-40.423 10.37c0-6.2222 8.8562-5.4755 13.087-5.6207 0.29036 5.2266-0.95407 10.598-7.4666 10.598-3.0281 0-5.6207-1.597-5.6207-4.9777zm13.087-8.2962c-3.6296 0.2074-7.9644-0.29037-11.304 1.1407a7.7155 7.7155 0 0 0 3.277 14.933 8.9392 8.9392 0 0 0 7.8192-4.1481l0.14518-0.35259v3.6918h3.0904c0-1.7007-0.24889-3.6918-0.24889-5.6207v-11.843c0-5.7244-3.3392-8.2962-8.8562-8.2962-4.7703 0-8.6073 1.9496-9.354 7.0725h3.194c0.39407-3.3807 2.9866-4.3348 6.2222-4.3348 3.5259 0 5.9318 1.2859 5.9318 5.3718v2.2815zm-53.137-9.7273h-3.0904c0 1.7007 0.24889 3.6918 0.24889 5.6207v19.372h2.9866v-14.394c0-4.48 2.24-8.6073 7.1762-8.6073a6.2222 6.2222 0 0 1 6.5748 6.8651v16.136h2.9866v-14.394c0-4.48 2.24-8.6073 7.1762-8.6073a6.2222 6.2222 0 0 1 6.5748 6.8651v16.136h2.9866v-15.638c0-2.8829-0.64296-10.101-8.8147-10.101a10.37 10.37 0 0 0-8.6073 5.4755 8.2962 8.2962 0 0 0-8.1096-5.4755 8.5866 8.5866 0 0 0-7.8192 4.5214l-0.14519-3.6918zm-13.896 9.914c0-4.7703 2.4474-7.9644 6.8651-7.9644 0.60148 0 1.2444 0.14518 1.8459 0.2074v-2.8829a29.348 29.348 0 0 0-2.9866 0 6.4296 6.4296 0 0 0-5.6207 4.4385l-0.14518-3.6918h-3.0903c0 1.7007 0.24889 3.6918 0.24889 5.6207v19.372h2.9866v-15.099zm-24.453 8.1096c0-6.2222 8.8562-5.4755 13.087-5.6207 0.29037 5.2266-0.95407 10.598-7.4666 10.598-3.0281 0-5.6207-1.597-5.6207-4.9777zm13.087-8.2962c-3.6296 0.2074-7.9644-0.29037-11.304 1.1407a7.7155 7.7155 0 0 0 3.277 14.933 8.9392 8.9392 0 0 0 7.8192-4.1481l0.14518-0.35259v3.6918h3.0903c0-1.7007-0.24889-3.6918-0.24889-5.6207v-11.843c0-5.7244-3.3392-8.2962-8.8562-8.2962-4.7703 0-8.6073 1.9496-9.354 7.0725h3.194c0.39407-3.3807 2.9866-4.3348 6.2222-4.3348 3.5259 0 5.9318 1.2859 5.9318 5.3718v2.2815zm-36.296-20.678h-2.9866v35.943h2.9866v-14.394c0-4.48 2.24-8.6073 7.1762-8.6073a6.2222 6.2222 0 0 1 6.5748 6.8651v16.136h2.9866v-15.638c0-2.8829-0.64296-10.101-8.8147-10.101a8.5866 8.5866 0 0 0-7.8192 4.5214v-14.726zm-25.718 22.939c0-5.0814 2.24-9.914 8.0681-9.914 5.8281 0 7.674 5.1851 7.674 9.914s-1.4518 10.951-7.1762 10.951c-6.5125 0-8.5036-5.434-8.5036-11.096zm0 9.2088a10.225 10.225 0 0 0 8.711 4.6251c7.2592 0 10.101-7.0725 10.101-13.336s-2.8415-13.15-10.246-13.15a9.997 9.997 0 0 0-8.5659 4.5214l-0.14518-3.6918h-3.0903c0 1.7007 0.24889 3.6918 0.24889 5.6207v28.912h2.9866v-13.44z" fill="#0c2577" stroke-width="2.0741"/>
 <line x1="7.0741" x2="342.12" y1="176.92" y2="176.92" fill="none" stroke="#005a46" stroke-linecap="round" stroke-miterlimit="3.8637" stroke-width="4.1481px"/>
 <line x1="7.8829" x2="342.93" y1="242.51" y2="242.51" fill="none" stroke="#005a46" stroke-linecap="round" stroke-miterlimit="3.8637" stroke-width="4.1481px"/>
 <path d="m86.613 5.4199c-23.312 0-37.706 6.5748-46.002 11.656-23.748 14.622-35.611 40.279-35.611 67.615a92.15 92.15 0 0 0 9.334 40.07c13.979 26.506 37.518 32.438 48.324 34.346a114.74 114.74 0 0 0 19.496 1.4941 161.05 161.05 0 0 0 42.414-5.7871 76.74 76.74 0 0 0 11.656-4.1484v-58.072l-0.28906 0.19531v-0.13476h-25.574-0.20703-1.5547c-1.5141 0.14518-9.582 0.62234-14.373 5.123a38.785 38.785 0 0 0-7.7793 12.32h23.707v0.08398h0.14648v30.529a51.644 51.644 0 0 1-23.521 5.2891 56.228 56.228 0 0 1-18.023-2.7578c-11.241-3.5881-28.187-14.83-33.496-42.602a102.04 102.04 0 0 1-1.6992-17.588c0-19.932 7.196-43.037 24.369-54.693a49.964 49.964 0 0 1 28.188-8.0469c15.472 0 30.011 5.6406 34.906 8.6895 4.8948 3.0489 12.9 9.6041 16.592 23.998 11.387 44.26 25.137 103.27 25.137 103.27h11.098a47.04 47.04 0 0 0 10.682-0.82812 30.012 30.012 0 0 0 8.0059-3.2773c9.0429-5.9525 12.112-16.428 14.373-26.279l23.207-88.914c0.2074-0.82962 0.62268-1.6391 0.83008-2.4688 0.20741-1.68 0.20803-3.941 2.4688-4.1484l31.816 125.88h10.369c9.2503 0 12.694-0.80876 16.842-2.8828a32.086 32.086 0 0 0 7.7988-5.9531 23.292 23.292 0 0 0 5.5371-8.0059c2.0533-4.0859 4.0854-11.179 7.1758-21.549l29.162-106.56h-23.002l-29.367 116.83c-0.82962 3.2978-2.0539 8.4415-2.4688 9.043-0.41481 0.60147-0.62321 0.80785-2.2617 1.2227l-32.023-127.1h-10.059c-6.9688 0-12.444 0.20662-18.666 3.8984-5.1229 3.0696-10.06 8.0067-13.752 20.119-0.82962 2.6755-1.4302 5.3303-2.2598 8.0059l-22.379 85.617-1.2246 5.5371c-0.64296 1.8459-1.0372 2.261-2.0742 2.6758 0 0-10.245-42.352-18.77-70.787-2.3229-7.7985-9.81-32.294-22.047-43.266a63.487 63.487 0 0 0-22.545-12.982 120.9 120.9 0 0 0-32.605-4.668z" fill="#005a46" stroke-width="2.0741"/>
</svg>
