<?xml version="1.0" encoding="UTF-8" standalone="no"?>
<!-- Created with Inkscape (http://www.inkscape.org/) -->

<svg
   xmlns:dc="http://purl.org/dc/elements/1.1/"
   xmlns:cc="http://creativecommons.org/ns#"
   xmlns:rdf="http://www.w3.org/1999/02/22-rdf-syntax-ns#"
   xmlns:svg="http://www.w3.org/2000/svg"
   xmlns="http://www.w3.org/2000/svg"
   xmlns:sodipodi="http://sodipodi.sourceforge.net/DTD/sodipodi-0.dtd"
   xmlns:inkscape="http://www.inkscape.org/namespaces/inkscape"
   width="221.22301"
   height="102.675"
   id="svg3241"
   version="1.1"
   inkscape:version="0.48.1 "
   sodipodi:docname="lifetech.svg">
  <defs
     id="defs3243" />
  <sodipodi:namedview
     id="base"
     pagecolor="#ffffff"
     bordercolor="#666666"
     borderopacity="1.0"
     inkscape:pageopacity="0.0"
     inkscape:pageshadow="2"
     inkscape:zoom="1.4"
     inkscape:cx="25.43202"
     inkscape:cy="58.79541"
     inkscape:document-units="px"
     inkscape:current-layer="layer1"
     showgrid="false"
     inkscape:window-width="1280"
     inkscape:window-height="750"
     inkscape:window-x="-8"
     inkscape:window-y="-8"
     inkscape:window-maximized="1"
     showborder="false"
     inkscape:showpageshadow="false"
     fit-margin-top="0"
     fit-margin-left="0"
     fit-margin-right="0"
     fit-margin-bottom="0" />
  <metadata
     id="metadata3246">
    <rdf:RDF>
      <cc:Work
         rdf:about="">
        <dc:format>image/svg+xml</dc:format>
        <dc:type
           rdf:resource="http://purl.org/dc/dcmitype/StillImage" />
        <dc:title></dc:title>
      </cc:Work>
    </rdf:RDF>
  </metadata>
  <g
     inkscape:label="Layer 1"
     inkscape:groupmode="layer"
     id="layer1"
     transform="translate(-73.236061,-671.64264)">
    <rect
       style="fill:none;fill-opacity:1"
       id="rect5670"
       width="221.22301"
       height="102.675"
       x="73.236061"
       y="671.64264" />
    <g
       id="g3117"
       transform="matrix(1.8749966,0,0,-1.8753335,171.19825,726.49344)"
       style="fill:#191a4f;fill-opacity:1">
      <path
         inkscape:connector-curvature="0"
         d="M 0,0 C 0.537,0.151 2.415,0.454 2.799,0.606 4.048,1.09 4.653,1.137 5.567,1.595 7.204,2.419 8.435,3.486 8.71,3.781 9.431,4.551 9.427,5.446 9.424,5.956 9.423,6.492 9.025,6.819 8.986,7.349 8.892,8.63 7.467,9.316 6.489,9.758 5.513,10.2 2.656,9.113 1.381,7.98 0.155,6.89 -2.16,5.017 -3.871,1.559 c -1.514,0.077 -3.34,0.234 -4.665,0.409 -0.457,0.06 -0.898,0.124 -1.328,0.191 0.02,0.101 0.045,0.2 0.066,0.302 1.048,1.212 2.169,2.6 3.174,3.994 0.418,0.577 0.816,1.159 1.178,1.726 0.303,0.473 0.933,1.318 1.182,1.767 0.382,0.689 0.525,1.145 1.062,2.071 0.428,0.727 0.877,1.508 1.319,2.316 0.984,1.789 1.927,3.683 2.438,5.346 0.715,2.322 0.797,2.984 0.665,4.26 -0.084,0.814 -0.492,0.848 -0.828,1.034 -0.193,0.103 -0.361,0.255 -0.432,0.626 -0.057,0.295 -0.173,0.577 -0.335,0.827 -0.114,0.173 -0.245,0.332 -0.394,0.473 -0.385,0.361 -0.914,0.771 -1.434,0.818 -0.21,0.02 -0.435,0.063 -0.67,0.074 -0.372,0.017 -0.746,-0.205 -1.201,-0.548 -1.042,-0.79 -2.283,-2.701 -3.559,-5.297 -0.695,-1.411 -1.336,-2.982 -1.924,-4.615 -1.084,-3.014 -1.983,-6.239 -2.676,-9.043 -0.535,-2.183 -0.941,-4.106 -1.213,-5.484 -0.287,0.054 -0.571,0.11 -0.845,0.162 -0.679,0.127 -1.365,0.346 -1.666,0.242 -0.431,-0.156 -0.932,-0.105 -0.847,-1.431 0.033,-0.564 0.143,-1.577 0.925,-1.608 l 0.369,-0.014 c 0,0 0.526,0.063 1.489,0.056 -2.293,-2.212 -5.583,-5.07 -6.845,-4.493 -1.055,0.485 -0.596,2.947 -0.569,3.856 0.03,0.906 0.851,3.13 0.886,3.519 0.033,0.388 0.845,2.127 0.533,2.908 -0.312,0.777 -0.489,0.645 -0.896,1.031 -0.408,0.387 -1.923,0.031 -2.474,-0.712 -0.552,-0.743 -5.473,-6.416 -7.173,-7.915 -1.699,-1.498 -3.386,-2.204 -4.593,-1.907 -0.703,0.177 -2.269,1.778 -2.591,5.319 0.812,1.066 1.649,2.265 2.126,3.064 0.907,1.515 2.454,3.761 3.151,5.043 0.699,1.282 1.385,2.606 3.094,6.703 1.199,2.875 1.478,3.705 1.637,4.307 0.251,0.958 0.502,2.108 0.244,2.894 -0.166,0.51 -0.485,1.452 -0.424,1.898 0.063,0.45 -0.667,2.182 -0.973,2.436 -0.924,0.77 -2.525,0.345 -3.56,-0.774 -0.783,-0.845 -2.214,-2.444 -2.881,-3.844 -0.168,-0.353 -1.286,-2.445 -1.792,-3.532 -0.508,-1.089 -2.346,-5.875 -3.669,-11.186 -0.425,-1.717 -0.639,-3.937 -0.804,-6.2 -0.041,-0.56 -0.064,-1.116 -0.067,-1.666 -1.923,-2.441 -3.679,-4.16 -4.459,-4.937 -0.553,-0.551 -3.457,-3.22 -4.329,-3.996 -0.342,-0.31 -1.145,-1.089 -0.759,-1.536 0.384,-0.447 1.464,-0.464 1.792,-0.35 1.04,0.36 0.425,0.249 1.177,0.72 0.754,0.476 3.765,3.362 4.31,3.896 0.319,0.31 1.433,1.7 2.485,2.94 0.426,-2.735 1.513,-4.938 3.563,-5.657 3.702,-1.292 7.259,2.485 8.136,3.155 0.999,0.765 2.652,2.505 3.217,3.289 0.568,0.786 0.921,0.56 0.796,-0.143 -0.129,-0.726 -0.051,-0.89 -0.204,-1.794 -0.153,-0.905 0.166,-2.85 0.488,-3.294 0.321,-0.447 1.315,-1.735 3.459,-1.291 1.128,0.234 2.278,0.913 3.456,1.667 1.031,0.66 2.669,2.369 3.977,3.77 -0.944,-4.535 -2.082,-10.229 -2.245,-13.898 -0.058,-1.265 -0.297,-2.508 -0.181,-3.077 0.21,-1.021 0.413,-1.818 1,-2.387 0.298,-0.288 0.889,-1.117 0.942,-1.357 0.086,-0.409 0.784,-0.89 0.966,-1.143 0.495,-0.679 2.415,-0.555 2.355,0.593 -0.046,0.89 -0.198,1.837 -0.273,2.858 -0.051,0.692 -0.081,1.81 -0.078,2.818 0.003,0.671 0.015,1.408 0.052,2.207 0.128,2.846 0.333,5.998 0.626,7.909 0.156,1.032 0.435,4.535 0.993,7.587 0.024,0.141 0.052,0.28 0.079,0.419 1.021,-0.112 2.252,-0.22 3.134,-0.133 0.76,0.08 1.676,0.072 2.61,0.048 -0.91,-2.902 -0.225,-5.355 1.039,-6.67 1.449,-1.506 3.148,-1.87 4.342,-1.889 0.597,-0.009 1.82,0.118 2.629,0.356 0.807,0.236 1.2,0.582 1.746,0.792 1.092,0.417 1.641,1.544 1.842,1.975 0.204,0.431 0.869,1.23 0.991,1.871 C 8.2,-2.779 7.419,-2.985 7.153,-3.108 6.725,-3.301 5.028,-4.524 3.186,-4.926 2.242,-5.135 0.717,-5.274 -0.735,-4.173 -1.491,-3.603 -1.692,-1.706 -1.378,-0.184 -0.846,-0.159 -0.371,-0.107 0,0 M 2.059,4.775 C 2.485,5.118 4.099,5.963 4.511,6.021 4.924,6.078 6.188,5.752 5.806,4.961 5.548,4.414 5.504,3.878 3.602,2.971 2.732,2.557 1.029,2.02 -0.647,1.677 0.203,3.218 1.321,4.182 2.059,4.775 M -8.599,7.462 c 0.921,3.921 2.773,9.212 4.421,12.629 0.63,1.305 1.169,2.167 1.485,2.216 0.51,0.083 0.859,-0.054 0.898,-0.785 C -1.771,21.068 -1.887,20.264 -2.107,19.5 -2.428,18.38 -3.087,16.947 -3.751,15.605 -4.259,14.573 -4.769,13.592 -5.128,12.841 -5.432,12.2 -6.052,10.998 -6.854,9.585 -7.451,8.537 -8.15,7.375 -8.894,6.246 -8.787,6.678 -8.69,7.09 -8.599,7.462 m -22.803,14.054 c 0.769,-0.188 0.047,-2.669 -1.104,-5.517 -0.745,-1.839 -1.204,-3.437 -2.854,-6.384 -0.665,-1.186 -1.405,-2.277 -2.185,-3.341 1.033,6.909 4.784,15.579 6.143,15.242 m 10.007,-11.174 c 1.073,-0.457 2.63,0.634 3.241,0.938 0.61,0.305 2.097,1.613 2.433,2.638 0.173,0.523 0.735,2.452 -0.798,2.448 -0.778,-0.003 -3.406,-0.866 -4.409,-2.551 -0.38,-0.637 -1.541,-3.017 -0.467,-3.473"
         style="fill:#191a4f;fill-opacity:1;fill-rule:nonzero;stroke:none"
         id="path3119" />
    </g>
    <g
       id="g3121"
       transform="matrix(1.8749966,0,0,-1.8753335,163.38702,765.32222)"
       style="fill:#b3b1ae;fill-opacity:1">
      <path
         inkscape:connector-curvature="0"
         d="m 0,0 c -0.992,0 -1.487,0.696 -1.487,1.558 l 0,3.564 -0.732,0 0,0.649 0.732,0 0,1.819 0.85,0 0,-1.819 1.239,0 0,-0.649 -1.239,0 0,-3.54 c 0,-0.531 0.248,-0.851 0.79,-0.851 l 0.449,0 L 0.602,0 0,0"
         style="fill:#b3b1ae;fill-opacity:1;fill-rule:nonzero;stroke:none"
         id="path3123" />
    </g>
    <g
       id="g3125"
       transform="matrix(1.8749966,0,0,-1.8753335,168.71951,760.30007)"
       style="fill:#b3b1ae;fill-opacity:1">
      <path
         inkscape:connector-curvature="0"
         d="m 0,0 c 0,-1.274 0.602,-2.006 1.711,-2.006 0.673,0 1.063,0.2 1.522,0.661 L 3.812,-1.853 C 3.222,-2.443 2.679,-2.75 1.688,-2.75 c -1.535,0 -2.539,0.921 -2.539,2.974 0,1.878 0.909,2.975 2.385,2.975 1.499,0 2.384,-1.086 2.384,-2.81 L 3.918,0 0,0 z M 2.891,1.605 C 2.667,2.136 2.148,2.479 1.534,2.479 0.92,2.479 0.401,2.136 0.177,1.605 0.047,1.286 0.023,1.11 0,0.637 l 3.068,0 C 3.045,1.11 3.021,1.286 2.891,1.605"
         style="fill:#b3b1ae;fill-opacity:1;fill-rule:nonzero;stroke:none"
         id="path3127" />
    </g>
    <g
       id="g3129"
       transform="matrix(1.8749966,0,0,-1.8753335,183.90136,765.45537)"
       style="fill:#b3b1ae;fill-opacity:1">
      <path
         inkscape:connector-curvature="0"
         d="m 0,0 c -1.464,0 -2.573,0.992 -2.573,2.974 0,1.982 1.109,2.974 2.573,2.974 0.803,0 1.31,-0.213 1.912,-0.861 L 1.334,4.544 C 0.897,5.028 0.555,5.193 0,5.193 -0.567,5.193 -1.038,4.969 -1.346,4.532 -1.618,4.154 -1.723,3.706 -1.723,2.974 c 0,-0.732 0.105,-1.18 0.377,-1.558 C -1.038,0.979 -0.567,0.755 0,0.755 c 0.555,0 0.897,0.177 1.334,0.661 L 1.912,0.861 C 1.31,0.212 0.803,0 0,0"
         style="fill:#b3b1ae;fill-opacity:1;fill-rule:nonzero;stroke:none"
         id="path3131" />
    </g>
    <g
       id="g3133"
       transform="matrix(1.8749966,0,0,-1.8753335,197.71071,765.32222)"
       style="fill:#b3b1ae;fill-opacity:1">
      <path
         inkscape:connector-curvature="0"
         d="m 0,0 0,3.588 c 0,1.015 -0.544,1.534 -1.417,1.534 -0.873,0 -1.451,-0.531 -1.451,-1.534 l 0,-3.588 -0.851,0 0,8.403 0.851,0 0,-3.233 c 0.424,0.483 0.978,0.708 1.628,0.708 1.31,0 2.09,-0.838 2.09,-2.148 L 0.85,0 0,0"
         style="fill:#b3b1ae;fill-opacity:1;fill-rule:nonzero;stroke:none"
         id="path3135" />
    </g>
    <g
       id="g3137"
       transform="matrix(1.8749966,0,0,-1.8753335,210.36881,765.32222)"
       style="fill:#b3b1ae;fill-opacity:1">
      <path
         inkscape:connector-curvature="0"
         d="m 0,0 0,3.576 c 0,1.027 -0.555,1.546 -1.428,1.546 -0.874,0 -1.44,-0.531 -1.44,-1.546 l 0,-3.576 -0.85,0 0,5.807 0.85,0 0,-0.637 c 0.413,0.472 0.978,0.708 1.629,0.708 0.625,0 1.132,-0.189 1.487,-0.543 C 0.661,4.933 0.85,4.391 0.85,3.718 L 0.85,0 0,0"
         style="fill:#b3b1ae;fill-opacity:1;fill-rule:nonzero;stroke:none"
         id="path3139" />
    </g>
    <g
       id="g3141"
       transform="matrix(1.8749966,0,0,-1.8753335,223.04941,764.21577)"
       style="fill:#b3b1ae;fill-opacity:1">
      <path
         inkscape:connector-curvature="0"
         d="m 0,0 c -0.401,-0.402 -0.955,-0.661 -1.663,-0.661 -0.709,0 -1.264,0.259 -1.665,0.661 -0.59,0.602 -0.709,1.416 -0.709,2.313 0,0.898 0.119,1.712 0.709,2.314 0.401,0.4 0.956,0.66 1.665,0.66 0.708,0 1.262,-0.26 1.663,-0.66 C 0.59,4.025 0.708,3.211 0.708,2.313 0.708,1.416 0.59,0.602 0,0 m -0.602,4.107 c -0.271,0.272 -0.648,0.425 -1.061,0.425 -0.414,0 -0.779,-0.153 -1.051,-0.425 -0.425,-0.424 -0.473,-1.145 -0.473,-1.794 0,-0.65 0.048,-1.369 0.473,-1.794 0.272,-0.271 0.637,-0.424 1.051,-0.424 0.413,0 0.79,0.153 1.061,0.424 0.425,0.425 0.46,1.144 0.46,1.794 0,0.649 -0.035,1.37 -0.46,1.794"
         style="fill:#b3b1ae;fill-opacity:1;fill-rule:nonzero;stroke:none"
         id="path3143" />
    </g>
    <g
       id="g3145"
       transform="matrix(1.8749966,0,0,-1.8753335,230.72938,765.32222)"
       style="fill:#b3b1ae;fill-opacity:1">
      <path
         inkscape:connector-curvature="0"
         d="m 0,0 c -1.015,0 -1.476,0.661 -1.476,1.547 l 0,6.856 0.85,0 0,-6.821 c 0,-0.567 0.189,-0.851 0.779,-0.851 l 0.461,0 L 0.614,0 0,0"
         style="fill:#b3b1ae;fill-opacity:1;fill-rule:nonzero;stroke:none"
         id="path3147" />
    </g>
    <g
       id="g3149"
       transform="matrix(1.8749966,0,0,-1.8753335,241.35124,764.21577)"
       style="fill:#b3b1ae;fill-opacity:1">
      <path
         inkscape:connector-curvature="0"
         d="m 0,0 c -0.401,-0.402 -0.956,-0.661 -1.664,-0.661 -0.708,0 -1.263,0.259 -1.664,0.661 -0.591,0.602 -0.708,1.416 -0.708,2.313 0,0.898 0.117,1.712 0.708,2.314 0.401,0.4 0.956,0.66 1.664,0.66 0.708,0 1.263,-0.26 1.664,-0.66 C 0.59,4.025 0.709,3.211 0.709,2.313 0.709,1.416 0.59,0.602 0,0 m -0.602,4.107 c -0.272,0.272 -0.648,0.425 -1.062,0.425 -0.413,0 -0.778,-0.153 -1.05,-0.425 -0.426,-0.424 -0.473,-1.145 -0.473,-1.794 0,-0.65 0.047,-1.369 0.473,-1.794 0.272,-0.271 0.637,-0.424 1.05,-0.424 0.414,0 0.79,0.153 1.062,0.424 0.425,0.425 0.461,1.144 0.461,1.794 0,0.649 -0.036,1.37 -0.461,1.794"
         style="fill:#b3b1ae;fill-opacity:1;fill-rule:nonzero;stroke:none"
         id="path3151" />
    </g>
    <g
       id="g3153"
       transform="matrix(1.8749966,0,0,-1.8753335,249.8056,770.32748)"
       style="fill:#b3b1ae;fill-opacity:1">
      <path
         inkscape:connector-curvature="0"
         d="m 0,0 c -0.873,0 -1.357,0.225 -1.971,0.779 l 0.555,0.544 c 0.425,-0.378 0.719,-0.578 1.392,-0.578 1.122,0 1.594,0.791 1.594,1.781 l 0,0.91 C 1.098,2.833 0.567,2.68 -0.059,2.68 c -0.59,0 -1.098,0.213 -1.404,0.519 -0.579,0.579 -0.709,1.475 -0.709,2.42 0,0.944 0.13,1.841 0.709,2.42 0.306,0.307 0.825,0.507 1.416,0.507 0.638,0 1.157,-0.141 1.629,-0.755 l 0,0.685 0.837,0 0,-5.985 C 2.419,1.051 1.522,0 0,0 m 0.13,7.791 c -1.263,0 -1.452,-1.087 -1.452,-2.172 0,-1.086 0.189,-2.171 1.452,-2.171 1.263,0 1.44,1.085 1.44,2.171 0,1.085 -0.177,2.172 -1.44,2.172"
         style="fill:#b3b1ae;fill-opacity:1;fill-rule:nonzero;stroke:none"
         id="path3155" />
    </g>
    <g
       id="g3157"
       transform="matrix(1.8749966,0,0,-1.8753335,258.45871,749.54129)"
       style="fill:#b3b1ae;fill-opacity:1">
      <path
         inkscape:connector-curvature="0"
         d="m 0,0 0.95599,0 0,-0.95648 L 0,-0.95648 0,0 z m 0.047,-2.609 0.84901,0 0,-5.8073 -0.84901,0 0,5.8073 z"
         style="fill:#b3b1ae;fill-opacity:1;fill-rule:nonzero;stroke:none"
         id="path3159" />
    </g>
    <g
       id="g3161"
       transform="matrix(1.8749966,0,0,-1.8753335,265.36432,760.30007)"
       style="fill:#b3b1ae;fill-opacity:1">
      <path
         inkscape:connector-curvature="0"
         d="m 0,0 c 0,-1.274 0.602,-2.006 1.711,-2.006 0.673,0 1.062,0.2 1.523,0.661 L 3.812,-1.853 C 3.222,-2.443 2.679,-2.75 1.688,-2.75 c -1.535,0 -2.538,0.921 -2.538,2.974 0,1.878 0.909,2.975 2.384,2.975 1.499,0 2.385,-1.086 2.385,-2.81 L 3.919,0 0,0 z M 2.891,1.605 C 2.667,2.136 2.148,2.479 1.534,2.479 0.92,2.479 0.401,2.136 0.176,1.605 0.047,1.286 0.023,1.11 0,0.637 l 3.069,0 C 3.045,1.11 3.021,1.286 2.891,1.605"
         style="fill:#b3b1ae;fill-opacity:1;fill-rule:nonzero;stroke:none"
         id="path3163" />
    </g>
    <g
       id="g3165"
       transform="matrix(1.8749966,0,0,-1.8753335,279.74929,765.45537)"
       style="fill:#b3b1ae;fill-opacity:1">
      <path
         inkscape:connector-curvature="0"
         d="m 0,0 c -0.98,0 -1.747,0.224 -2.385,0.838 l 0.567,0.567 c 0.46,-0.485 1.085,-0.674 1.806,-0.674 0.956,0 1.546,0.343 1.546,1.027 0,0.508 -0.295,0.791 -0.968,0.85 L -0.391,2.69 c -1.132,0.095 -1.734,0.602 -1.734,1.56 0,1.061 0.897,1.698 2.136,1.698 0.826,0 1.57,-0.2 2.09,-0.626 L 1.546,4.767 C 1.133,5.087 0.602,5.228 0,5.228 c -0.85,0 -1.299,-0.365 -1.299,-0.956 0,-0.495 0.284,-0.791 1.016,-0.85 L 0.649,3.34 C 1.664,3.246 2.36,2.856 2.36,1.77 2.36,0.648 1.404,0 0,0"
         style="fill:#b3b1ae;fill-opacity:1;fill-rule:nonzero;stroke:none"
         id="path3167" />
    </g>
    <g
       id="g3169"
       transform="matrix(1.8749966,0,0,-1.8753335,287.43115,750.67399)"
       style="fill:#b3b1ae;fill-opacity:1">
      <path
         inkscape:connector-curvature="0"
         d="m 0,0 0,-2.101 -0.248,0 0,2.101 -0.672,0 0,0.222 1.592,0 L 0.672,0 0,0"
         style="fill:#b3b1ae;fill-opacity:1;fill-rule:nonzero;stroke:none"
         id="path3171" />
    </g>
    <g
       id="g3173"
       transform="matrix(1.8749966,0,0,-1.8753335,292.77302,754.61406)"
       style="fill:#b3b1ae;fill-opacity:1">
      <path
         inkscape:connector-curvature="0"
         d="m 0,0 0,1.766 -0.636,-1.4 -0.212,0 -0.646,1.4 0,-1.766 -0.248,0 0,2.323 0.248,0 L -0.738,0.676 0,2.323 0.248,2.323 0.248,0 0,0"
         style="fill:#b3b1ae;fill-opacity:1;fill-rule:nonzero;stroke:none"
         id="path3175" />
    </g>
  </g>
</svg>
