<?xml version="1.0" encoding="UTF-8" standalone="no"?>
<!-- Created with Inkscape (http://www.inkscape.org/) -->

<svg
   xmlns:dc="http://purl.org/dc/elements/1.1/"
   xmlns:cc="http://creativecommons.org/ns#"
   xmlns:rdf="http://www.w3.org/1999/02/22-rdf-syntax-ns#"
   xmlns:svg="http://www.w3.org/2000/svg"
   xmlns="http://www.w3.org/2000/svg"
   xmlns:sodipodi="http://sodipodi.sourceforge.net/DTD/sodipodi-0.dtd"
   xmlns:inkscape="http://www.inkscape.org/namespaces/inkscape"
   width="205.3"
   height="107.2"
   viewBox="0 0 54.318958 28.363332"
   version="1.1"
   id="svg590"
   inkscape:version="0.92.0 r15299"
   sodipodi:docname="madison dearborn partners.svg">
  <defs
     id="defs584" />
  <sodipodi:namedview
     id="base"
     pagecolor="#ffffff"
     bordercolor="#666666"
     borderopacity="1.0"
     inkscape:pageopacity="0.0"
     inkscape:pageshadow="2"
     inkscape:zoom="0.35"
     inkscape:cx="102.15"
     inkscape:cy="53.100006"
     inkscape:document-units="mm"
     inkscape:current-layer="layer1"
     showgrid="false"
     fit-margin-top="0"
     fit-margin-left="0"
     fit-margin-right="0"
     fit-margin-bottom="0"
     units="px"
     inkscape:window-width="1280"
     inkscape:window-height="744"
     inkscape:window-x="-4"
     inkscape:window-y="-4"
     inkscape:window-maximized="1" />
  <metadata
     id="metadata587">
    <rdf:RDF>
      <cc:Work
         rdf:about="">
        <dc:format>image/svg+xml</dc:format>
        <dc:type
           rdf:resource="http://purl.org/dc/dcmitype/StillImage" />
        <dc:title></dc:title>
      </cc:Work>
    </rdf:RDF>
  </metadata>
  <g
     inkscape:label="Layer 1"
     inkscape:groupmode="layer"
     id="layer1"
     transform="translate(14.553973,-134.51938)">
    <g
       transform="translate(65.60546,-121.47637)"
       id="g569">
      <path
         style="stroke-width:0.26458332"
         id="path539"
         d="m -72.486515,276.58033 v -0.55562 l 0.661458,-0.1323 c 0.291042,-0.0529 0.502709,-0.15875 0.608542,-0.3175 0.105833,-0.15875 0.15875,-0.5027 0.15875,-1.00541 v -9.02229 c 0,-0.42334 -0.02646,-0.71438 -0.105833,-0.84667 -0.07938,-0.13229 -0.238125,-0.21167 -0.47625,-0.26458 l -0.846667,-0.18521 v -0.55563 h 4.048125 l 3.413125,9.81604 h 0.05292 l 3.307292,-9.81604 h 3.862917 v 0.55563 l -0.846667,0.18521 c -0.238125,0.0529 -0.396875,0.13229 -0.449792,0.26458 -0.07937,0.13229 -0.105833,0.39687 -0.105833,0.84667 v 9.18104 c 0,0.44979 0.02646,0.74083 0.105833,0.84666 0.07937,0.1323 0.238125,0.21167 0.47625,0.26459 l 0.846667,0.18521 v 0.55562 h -4.7625 v -0.55562 l 0.767292,-0.18521 c 0.264583,-0.0529 0.423333,-0.13229 0.47625,-0.26459 0.07937,-0.10583 0.105833,-0.39687 0.105833,-0.84666 v -9.8425 h -0.05292 l -3.730625,11.40354 h -0.978958 l -4.021666,-11.40354 h -0.07937 v 9.68375 c 0,0.52916 0.05292,0.87312 0.132291,1.03187 0.105834,0.15875 0.3175,0.23813 0.635,0.3175 l 0.687917,0.13229 v 0.55563 h -3.889375 z"
         inkscape:connector-curvature="0" />
      <path
         style="stroke-width:0.26458332"
         id="path541"
         d="m -56.479224,276.58033 v -0.55562 l 0.846667,-0.18521 c 0.238125,-0.0265 0.396875,-0.13229 0.47625,-0.26459 0.07937,-0.13229 0.105833,-0.42333 0.105833,-0.87312 v -9.15458 c 0,-0.42334 -0.02646,-0.71438 -0.105833,-0.84667 -0.07937,-0.13229 -0.238125,-0.21167 -0.47625,-0.26458 l -0.846667,-0.15875 v -0.55563 h 5.529792 c 0.740833,0 1.402292,0.0794 2.010833,0.21167 0.608542,0.13229 1.190625,0.34396 1.74625,0.66146 0.529167,0.3175 1.005417,0.71437 1.375834,1.19062 0.370416,0.47625 0.661458,1.08479 0.873125,1.79917 0.211666,0.71437 0.3175,1.53458 0.3175,2.46062 0,1.05834 -0.15875,2.01084 -0.47625,2.8575 -0.3175,0.84667 -0.767292,1.53459 -1.322917,2.06375 -0.582083,0.52917 -1.243542,0.9525 -2.037292,1.21709 -0.79375,0.29104 -1.640416,0.42333 -2.619375,0.42333 h -5.3975 z m 3.466042,-2.56646 c 0,0.29104 0,0.50271 0.02646,0.66146 0,0.15875 0.02646,0.3175 0.07937,0.47625 0.05292,0.15875 0.105834,0.26458 0.185209,0.34396 0.07938,0.0794 0.185208,0.13229 0.3175,0.18521 0.132291,0.0529 0.3175,0.10583 0.502708,0.10583 0.185208,0 0.423333,0.0265 0.740833,0.0265 0.687917,0 1.27,-0.0794 1.799167,-0.26458 0.529167,-0.18521 0.926042,-0.42334 1.27,-0.71438 0.343958,-0.29104 0.608542,-0.68792 0.820208,-1.16417 0.211667,-0.44979 0.370417,-0.9525 0.449792,-1.48166 0.07937,-0.52917 0.132292,-1.13771 0.132292,-1.79917 0,-2.06375 -0.343959,-3.57187 -1.031875,-4.49792 -0.687917,-0.92604 -1.852084,-1.37583 -3.466042,-1.37583 -0.79375,0 -1.375833,0.0529 -1.799167,0.15875 v 9.33979 z"
         inkscape:connector-curvature="0" />
      <path
         style="stroke-width:0.26458332"
         id="path543"
         d="m -43.541099,276.58033 v -0.55562 l 0.846667,-0.18521 c 0.238125,-0.0265 0.396875,-0.13229 0.47625,-0.26459 0.07937,-0.13229 0.105833,-0.42333 0.105833,-0.87312 v -9.15458 c 0,-0.29105 -0.02646,-0.52917 -0.05292,-0.68792 -0.02646,-0.15875 -0.07937,-0.23813 -0.105834,-0.29104 -0.05292,-0.0529 -0.132291,-0.0794 -0.238125,-0.0794 l -1.031875,-0.23812 v -0.55563 h 5.291667 c 1.508125,0 2.672291,0.3175 3.466041,0.97896 0.79375,0.66146 1.190625,1.56104 1.190625,2.75167 0,1.16416 -0.396875,2.14312 -1.164166,2.93687 -0.79375,0.79375 -1.772709,1.19063 -2.936875,1.19063 -0.661459,0 -1.084792,-0.0794 -1.322917,-0.23813 v -0.55562 c 0.132292,0 0.238125,0 0.343958,0 0.978959,0 1.693334,-0.21167 2.169584,-0.635 0.529166,-0.47625 0.79375,-1.29646 0.79375,-2.51354 0,-1.11125 -0.211667,-1.905 -0.608542,-2.38125 -0.423333,-0.47625 -1.084792,-0.71438 -2.037292,-0.71438 -0.820208,0 -1.375833,0.0529 -1.719791,0.13229 v 10.08063 c 0,0.44979 0.02646,0.74083 0.105833,0.87312 0.07937,0.13229 0.238125,0.21167 0.502708,0.23813 l 1.084792,0.18521 v 0.55562 z"
         inkscape:connector-curvature="0" />
      <path
         id="path545"
         d="M -25.972766,284.22679 H -80.02714 v -28.09875 h 54.054374 z m -53.287082,-0.79375 h 52.493332 v -26.53771 h -52.493332 z"
         class="st0"
         inkscape:connector-curvature="0"
         style="fill:#2884c2;stroke-width:0.26458332" />
    </g>
  </g>
</svg>
