<?xml version="1.0" encoding="utf-8"?>
<!-- Generator: Adobe Illustrator 25.0.0, SVG Export Plug-In . SVG Version: 6.00 Build 0)  -->
<svg version="1.1" id="Layer_1" xmlns="http://www.w3.org/2000/svg" xmlns:xlink="http://www.w3.org/1999/xlink" x="0px" y="0px"
	 viewBox="0 0 487.82 74.46" style="enable-background:new 0 0 487.82 74.46;" xml:space="preserve">
<style type="text/css">
	.st0{fill:#1B4298;}
	.st1{fill:#E20177;}
	.st2{fill:#009DDC;}
	.st3{fill:#54B948;}
</style>
<g>
	<path class="st0" d="M100.26,36.39c0-3.81,0.62-7.22,1.85-10.2c1.23-2.98,2.96-5.51,5.18-7.58c2.22-2.06,4.88-3.64,7.98-4.71
		c3.1-1.08,6.49-1.62,10.17-1.62c3.72,0,7.14,0.54,10.23,1.62c3.1,1.08,5.76,2.65,7.98,4.71c2.22,2.07,3.95,4.59,5.19,7.58
		c1.23,2.98,1.85,6.39,1.85,10.2c0,3.82-0.62,7.22-1.85,10.2c-1.24,2.98-2.96,5.51-5.19,7.57c-2.22,2.06-4.88,3.6-7.98,4.61
		s-6.51,1.51-10.23,1.51c-3.68,0-7.07-0.5-10.17-1.51c-3.1-1.01-5.76-2.55-7.98-4.61c-2.22-2.06-3.95-4.59-5.18-7.57
		C100.88,43.6,100.26,40.2,100.26,36.39z M144.09,36.39c0-3.73-0.47-6.95-1.41-9.66c-0.94-2.72-2.26-4.96-3.94-6.73
		c-1.68-1.77-3.66-3.09-5.93-3.94c-2.27-0.85-4.72-1.28-7.37-1.28c-2.6,0-5.04,0.43-7.31,1.28c-2.27,0.85-4.24,2.17-5.93,3.94
		c-1.68,1.77-3,4.02-3.94,6.73c-0.94,2.72-1.41,5.94-1.41,9.66c0,3.73,0.47,6.95,1.41,9.66c0.94,2.72,2.26,4.96,3.94,6.73
		c1.68,1.77,3.66,3.09,5.93,3.94c2.27,0.85,4.7,1.28,7.31,1.28c2.65,0,5.11-0.43,7.37-1.28c2.27-0.85,4.24-2.17,5.93-3.94
		c1.68-1.77,3-4.02,3.94-6.73C143.62,43.34,144.09,40.12,144.09,36.39z"/>
	<path class="st0" d="M166.85,30.6c0-2.96-0.06-5.87-0.17-8.72c-0.11-2.85-0.24-5.76-0.37-8.72c1.3,0.09,2.58,0.17,3.84,0.24
		c1.26,0.07,2.54,0.1,3.84,0.1c1.3,0,2.58-0.06,3.84-0.17c1.26-0.11,2.54-0.17,3.84-0.17c1.89,0,3.68,0.18,5.39,0.54
		c1.71,0.36,3.2,0.95,4.48,1.78c1.28,0.83,2.29,1.92,3.03,3.27c0.74,1.35,1.11,3.03,1.11,5.05c0,2.16-0.48,4.01-1.45,5.55
		c-0.97,1.55-2.14,2.83-3.53,3.84c-1.39,1.01-2.88,1.8-4.48,2.36c-1.59,0.56-3.04,0.93-4.34,1.11c0.54,0.67,1.28,1.62,2.22,2.83
		c0.94,1.21,2,2.55,3.17,4.01c1.17,1.46,2.38,2.99,3.64,4.58c1.26,1.59,2.47,3.12,3.64,4.58c1.17,1.46,2.27,2.79,3.3,4.01
		c1.03,1.21,1.86,2.13,2.49,2.76c-0.67-0.09-1.35-0.14-2.02-0.14c-0.67,0-1.35,0-2.02,0c-0.63,0-1.28,0-1.95,0
		c-0.67,0-1.32,0.04-1.95,0.14c-0.67-0.94-1.69-2.36-3.06-4.24c-1.37-1.89-2.88-3.91-4.54-6.06c-1.66-2.16-3.36-4.3-5.08-6.43
		c-1.73-2.13-3.31-3.94-4.75-5.42h-2.56v4.91c0,2.96,0.06,5.88,0.17,8.75c0.11,2.87,0.24,5.7,0.37,8.48
		c-1.03-0.09-2.13-0.14-3.3-0.14c-1.17,0-2.27,0.04-3.3,0.14c0.13-2.78,0.26-5.61,0.37-8.48c0.11-2.87,0.17-5.79,0.17-8.75V30.6z
		 M172.37,34.44c0.63,0.14,1.31,0.23,2.05,0.27c0.74,0.05,1.56,0.07,2.46,0.07c1.39,0,2.84-0.16,4.34-0.47
		c1.5-0.31,2.88-0.86,4.14-1.65c1.26-0.78,2.3-1.84,3.13-3.16c0.83-1.32,1.25-3,1.25-5.02c0-1.75-0.33-3.2-0.98-4.34
		c-0.65-1.14-1.49-2.05-2.52-2.73c-1.03-0.67-2.16-1.13-3.37-1.38c-1.21-0.25-2.4-0.37-3.57-0.37c-1.57,0-2.87,0.03-3.91,0.1
		c-1.03,0.07-1.91,0.15-2.63,0.24c-0.09,2.47-0.18,4.92-0.27,7.34c-0.09,2.42-0.13,4.85-0.13,7.27V34.44z"/>
	<path class="st0" d="M250.78,18.95c-1.01-0.81-2.13-1.51-3.37-2.12c-1.23-0.61-2.6-1.1-4.11-1.48c-1.5-0.38-3.11-0.57-4.81-0.57
		c-2.78,0-5.38,0.43-7.78,1.28c-2.4,0.85-4.49,2.17-6.26,3.94c-1.77,1.77-3.16,4.02-4.17,6.73s-1.51,5.94-1.51,9.66
		c0,3.28,0.45,6.24,1.35,8.89c0.9,2.65,2.21,4.88,3.94,6.7c1.73,1.82,3.84,3.22,6.33,4.21c2.49,0.99,5.31,1.48,8.45,1.48
		c0.94,0,1.93-0.05,2.96-0.14c1.03-0.09,2.03-0.22,3-0.4c0.96-0.18,1.86-0.4,2.69-0.67c0.83-0.27,1.54-0.58,2.12-0.94
		c0.04-1.35,0.08-2.69,0.1-4.04c0.02-1.35,0.03-2.72,0.03-4.11c0-1.57-0.03-3.14-0.1-4.71c-0.07-1.57-0.15-3.07-0.24-4.51
		c1.12,0.23,2.2,0.34,3.23,0.34c0.49,0,0.99-0.02,1.48-0.07c0.49-0.04,0.96-0.13,1.41-0.27c-0.09,1.03-0.16,2.66-0.2,4.88
		c-0.05,2.22-0.07,5.15-0.07,8.79c0,0.9,0.01,1.81,0.03,2.73c0.02,0.92,0.03,1.83,0.03,2.73c-0.94,0.36-2.12,0.73-3.53,1.11
		c-1.41,0.38-2.92,0.7-4.51,0.94c-1.59,0.25-3.19,0.47-4.78,0.67c-1.59,0.2-3.04,0.3-4.34,0.3c-4,0-7.6-0.48-10.81-1.45
		c-3.21-0.96-5.94-2.46-8.18-4.48c-2.25-2.02-3.97-4.53-5.18-7.54c-1.21-3.01-1.82-6.49-1.82-10.44c0-3.81,0.63-7.22,1.89-10.2
		c1.26-2.98,3.03-5.51,5.32-7.58c2.29-2.06,5.06-3.64,8.32-4.71c3.25-1.08,6.86-1.62,10.81-1.62c2.29,0,4.32,0.12,6.09,0.37
		c1.77,0.25,3.34,0.57,4.71,0.98c1.37,0.4,2.57,0.83,3.6,1.28c1.03,0.45,1.95,0.87,2.76,1.28c-0.36,0.63-0.69,1.44-0.98,2.42
		c-0.29,0.99-0.48,1.91-0.57,2.76h-0.81C252.63,20.57,251.79,19.76,250.78,18.95z"/>
	<path class="st0" d="M311.68,59.42c-0.63-0.09-1.22-0.14-1.78-0.14c-0.56,0-1.16,0-1.78,0c-0.63,0-1.22,0-1.78,0
		c-0.56,0-1.16,0.04-1.78,0.14c-0.31-1.03-0.74-2.28-1.28-3.74c-0.54-1.46-1.13-2.98-1.78-4.58c-0.65-1.59-1.31-3.21-1.99-4.85
		c-0.67-1.64-1.3-3.2-1.89-4.68c-1.44-0.05-2.9-0.08-4.38-0.1c-1.48-0.02-2.96-0.03-4.44-0.03c-1.39,0-2.76,0.01-4.11,0.03
		c-1.35,0.02-2.72,0.06-4.11,0.1c-1.44,3.5-2.74,6.83-3.91,10c-1.17,3.17-2.04,5.78-2.63,7.85c-0.76-0.09-1.59-0.14-2.49-0.14
		c-0.9,0-1.73,0.04-2.49,0.14c3.64-7.86,7.18-15.67,10.64-23.43c3.46-7.76,6.94-15.66,10.44-23.7h1.28c1.08,2.6,2.24,5.42,3.5,8.45
		c1.26,3.03,2.54,6.09,3.84,9.19c1.3,3.1,2.6,6.17,3.91,9.22c1.3,3.05,2.52,5.89,3.67,8.52c1.14,2.63,2.18,4.97,3.1,7.04
		C310.34,56.77,311.09,58.34,311.68,59.42z M281.85,38.48c1.17,0,2.38,0.02,3.64,0.07c1.26,0.05,2.47,0.07,3.64,0.07
		c1.26,0,2.51-0.01,3.77-0.03c1.26-0.02,2.51-0.06,3.77-0.1l-7.47-17.1L281.85,38.48z"/>
	<path class="st0" d="M347.57,41.94c-5.84-6.26-11.67-12.49-17.51-18.68c-0.05,1.26-0.09,2.94-0.13,5.05
		c-0.05,2.11-0.07,4.98-0.07,8.62c0,0.94,0.01,2.11,0.03,3.5c0.02,1.39,0.04,2.85,0.07,4.38c0.02,1.53,0.06,3.08,0.1,4.65
		c0.04,1.57,0.09,3.03,0.14,4.38c0.04,1.35,0.09,2.52,0.13,3.53c0.04,1.01,0.09,1.7,0.13,2.05c-0.72-0.09-1.5-0.14-2.36-0.14
		c-0.9,0-1.73,0.04-2.49,0.14c0.09-0.45,0.19-1.28,0.3-2.49c0.11-1.21,0.21-2.66,0.3-4.34c0.09-1.68,0.19-3.51,0.3-5.49
		c0.11-1.97,0.2-3.95,0.27-5.93c0.07-1.97,0.12-3.9,0.17-5.79c0.04-1.88,0.07-3.57,0.07-5.05c0-4.31-0.01-8.01-0.03-11.11
		c-0.02-3.1-0.08-5.41-0.17-6.94h1.08c2.74,2.96,5.67,6.14,8.79,9.53c3.12,3.39,6.22,6.73,9.29,10.03c3.07,3.3,5.99,6.42,8.75,9.36
		c2.76,2.94,5.17,5.44,7.24,7.51v-9.16c0-4.71-0.03-9.3-0.1-13.77c-0.07-4.47-0.21-8.67-0.44-12.62c0.9,0.23,1.66,0.34,2.29,0.34
		c0.54,0,1.26-0.11,2.15-0.34c-0.09,0.99-0.19,2.47-0.3,4.44c-0.11,1.98-0.23,4.09-0.34,6.33c-0.11,2.24-0.21,4.44-0.3,6.6
		c-0.09,2.15-0.13,3.88-0.13,5.18c0,1.12,0,2.47,0,4.04c0,1.53,0.01,3.12,0.03,4.78c0.02,1.66,0.04,3.33,0.07,5.02
		c0.02,1.68,0.04,3.26,0.07,4.71c0.02,1.46,0.03,2.73,0.03,3.8c0,0.99,0,1.73,0,2.22h-0.94C358.9,54.32,353.4,48.21,347.57,41.94z"
		/>
	<path class="st0" d="M381.5,36.39c0-3.81,0.62-7.22,1.85-10.2c1.23-2.98,2.96-5.51,5.18-7.58c2.22-2.06,4.88-3.64,7.98-4.71
		c3.1-1.08,6.49-1.62,10.17-1.62c3.73,0,7.14,0.54,10.23,1.62c3.1,1.08,5.76,2.65,7.98,4.71c2.22,2.07,3.95,4.59,5.18,7.58
		c1.23,2.98,1.85,6.39,1.85,10.2c0,3.82-0.62,7.22-1.85,10.2c-1.24,2.98-2.96,5.51-5.18,7.57c-2.22,2.06-4.88,3.6-7.98,4.61
		s-6.51,1.51-10.23,1.51c-3.68,0-7.07-0.5-10.17-1.51s-5.76-2.55-7.98-4.61c-2.22-2.06-3.95-4.59-5.18-7.57
		C382.12,43.6,381.5,40.2,381.5,36.39z M425.33,36.39c0-3.73-0.47-6.95-1.41-9.66s-2.26-4.96-3.94-6.73
		c-1.68-1.77-3.66-3.09-5.92-3.94c-2.27-0.85-4.73-1.28-7.37-1.28c-2.6,0-5.04,0.43-7.31,1.28c-2.27,0.85-4.24,2.17-5.92,3.94
		c-1.68,1.77-3,4.02-3.94,6.73c-0.94,2.72-1.41,5.94-1.41,9.66c0,3.73,0.47,6.95,1.41,9.66c0.94,2.72,2.26,4.96,3.94,6.73
		c1.68,1.77,3.66,3.09,5.92,3.94c2.27,0.85,4.7,1.28,7.31,1.28c2.65,0,5.11-0.43,7.37-1.28c2.27-0.85,4.24-2.17,5.92-3.94
		c1.68-1.77,3-4.02,3.94-6.73C424.86,43.34,425.33,40.12,425.33,36.39z"/>
	<path class="st0" d="M469.5,41.94c-5.84-6.26-11.67-12.49-17.51-18.68c-0.05,1.26-0.09,2.94-0.14,5.05
		c-0.05,2.11-0.07,4.98-0.07,8.62c0,0.94,0.01,2.11,0.03,3.5c0.02,1.39,0.04,2.85,0.07,4.38c0.02,1.53,0.06,3.08,0.1,4.65
		c0.04,1.57,0.09,3.03,0.13,4.38c0.05,1.35,0.09,2.52,0.14,3.53c0.04,1.01,0.09,1.7,0.13,2.05c-0.72-0.09-1.5-0.14-2.36-0.14
		c-0.9,0-1.73,0.04-2.49,0.14c0.09-0.45,0.19-1.28,0.3-2.49c0.11-1.21,0.21-2.66,0.3-4.34c0.09-1.68,0.19-3.51,0.3-5.49
		c0.11-1.97,0.2-3.95,0.27-5.93c0.07-1.97,0.12-3.9,0.17-5.79c0.05-1.88,0.07-3.57,0.07-5.05c0-4.31-0.01-8.01-0.03-11.11
		c-0.02-3.1-0.08-5.41-0.17-6.94h1.08c2.74,2.96,5.67,6.14,8.79,9.53c3.12,3.39,6.22,6.73,9.29,10.03c3.07,3.3,5.99,6.42,8.75,9.36
		c2.76,2.94,5.17,5.44,7.24,7.51v-9.16c0-4.71-0.03-9.3-0.1-13.77c-0.07-4.47-0.21-8.67-0.44-12.62c0.9,0.23,1.66,0.34,2.29,0.34
		c0.54,0,1.26-0.11,2.15-0.34c-0.09,0.99-0.19,2.47-0.3,4.44c-0.11,1.98-0.23,4.09-0.34,6.33c-0.11,2.24-0.21,4.44-0.3,6.6
		c-0.09,2.15-0.13,3.88-0.13,5.18c0,1.12,0,2.47,0,4.04c0,1.53,0.01,3.12,0.03,4.78c0.02,1.66,0.04,3.33,0.07,5.02
		c0.02,1.68,0.04,3.26,0.07,4.71c0.02,1.46,0.03,2.73,0.03,3.8c0,0.99,0,1.73,0,2.22H486C480.83,54.32,475.34,48.21,469.5,41.94z"/>
</g>
<path class="st1" d="M65.48,30.55H47.44c-2.2,0-3.99-1.78-3.99-3.99v0c0-2.2,1.78-3.99,3.99-3.99h18.04c2.2,0,3.99,1.78,3.99,3.99v0
	C69.47,28.77,67.68,30.55,65.48,30.55z"/>
<path class="st1" d="M54.21,49.13V38c0-2.2,1.78-3.99,3.99-3.99h0c2.2,0,3.99,1.78,3.99,3.99v11.13c0,2.2-1.78,3.99-3.99,3.99h0
	C56,53.12,54.21,51.33,54.21,49.13z"/>
<path class="st1" d="M42.76,15.12V3.99c0-2.2,1.78-3.99,3.99-3.99h0c2.2,0,3.99,1.78,3.99,3.99v11.13c0,2.2-1.78,3.99-3.99,3.99h0
	C44.55,19.11,42.76,17.32,42.76,15.12z"/>
<path class="st1" d="M42.76,70.18V52.46c0-2.2,1.78-3.99,3.99-3.99h0c2.2,0,3.99,1.78,3.99,3.99v17.72c0,2.2-1.78,3.99-3.99,3.99h0
	C44.55,74.17,42.76,72.38,42.76,70.18z"/>
<path class="st1" d="M31.31,28.85V17.72c0-2.2,1.78-3.99,3.99-3.99h0c2.2,0,3.99,1.78,3.99,3.99v11.13c0,2.2-1.78,3.99-3.99,3.99h0
	C33.1,32.84,31.31,31.05,31.31,28.85z"/>
<path class="st1" d="M31.31,59.33v-5.75c0-2.2,1.78-3.99,3.99-3.99h0c2.2,0,3.99,1.78,3.99,3.99v5.75c0,2.2-1.78,3.99-3.99,3.99h0
	C33.1,63.32,31.31,61.53,31.31,59.33z"/>
<path class="st1" d="M69.65,34.03h8.42c2.2,0,3.99,1.78,3.99,3.99v0c0,2.2-1.78,3.99-3.99,3.99h-8.42c-2.2,0-3.99-1.78-3.99-3.99v0
	C65.66,35.81,67.44,34.03,69.65,34.03z"/>
<path class="st1" d="M3.99,34.03h8.42c2.2,0,3.99,1.78,3.99,3.99v0c0,2.2-1.78,3.99-3.99,3.99H3.99C1.78,42,0,40.21,0,38.01v0
	C0,35.81,1.78,34.03,3.99,34.03z"/>
<path class="st1" d="M19.87,49.13V38c0-2.2,1.78-3.99,3.99-3.99h0c2.2,0,3.99,1.78,3.99,3.99v11.13c0,2.2-1.78,3.99-3.99,3.99h0
	C21.65,53.12,19.87,51.33,19.87,49.13z"/>
<circle class="st1" cx="41.35" cy="40.31" r="5.39"/>
<circle class="st2" cx="76.76" cy="26.57" r="3.81"/>
<circle class="st3" cx="35.28" cy="70.64" r="3.81"/>
<circle class="st0" cx="23.83" cy="26.57" r="3.81"/>
</svg>
