<?xml version="1.0" encoding="UTF-8" standalone="no"?>
<!-- Created with Inkscape (http://www.inkscape.org/) -->

<svg
   xmlns:dc="http://purl.org/dc/elements/1.1/"
   xmlns:cc="http://creativecommons.org/ns#"
   xmlns:rdf="http://www.w3.org/1999/02/22-rdf-syntax-ns#"
   xmlns:svg="http://www.w3.org/2000/svg"
   xmlns="http://www.w3.org/2000/svg"
   xmlns:sodipodi="http://sodipodi.sourceforge.net/DTD/sodipodi-0.dtd"
   xmlns:inkscape="http://www.inkscape.org/namespaces/inkscape"
   width="120.51248"
   height="36.876431"
   viewBox="0 0 31.885593 9.7568891"
   version="1.1"
   id="svg9121"
   inkscape:version="0.92.0 r15299"
   sodipodi:docname="dupont.svg">
  <defs
     id="defs9115" />
  <sodipodi:namedview
     id="base"
     pagecolor="#ffffff"
     bordercolor="#666666"
     borderopacity="1.0"
     inkscape:pageopacity="0.0"
     inkscape:pageshadow="2"
     inkscape:zoom="7.505492"
     inkscape:cx="59.756242"
     inkscape:cy="17.938219"
     inkscape:document-units="mm"
     inkscape:current-layer="layer1"
     showgrid="false"
     fit-margin-top="0"
     fit-margin-left="0"
     fit-margin-right="0"
     fit-margin-bottom="0"
     units="px"
     inkscape:window-width="1280"
     inkscape:window-height="744"
     inkscape:window-x="-4"
     inkscape:window-y="-4"
     inkscape:window-maximized="1" />
  <metadata
     id="metadata9118">
    <rdf:RDF>
      <cc:Work
         rdf:about="">
        <dc:format>image/svg+xml</dc:format>
        <dc:type
           rdf:resource="http://purl.org/dc/dcmitype/StillImage" />
        <dc:title></dc:title>
      </cc:Work>
    </rdf:RDF>
  </metadata>
  <g
     inkscape:label="Layer 1"
     inkscape:groupmode="layer"
     id="layer1"
     transform="translate(-144.4514,-171.79284)">
    <g
       id="g9175"
       transform="translate(0.13229206,-0.13228691)">
      <path
         d="m 150.43916,173.19639 c -0.38276,0 -0.93521,0.12171 -1.93428,0.45402 v 6.30273 c 0.87842,0.28646 1.55152,0.45403 1.93428,0.45403 0.8823,0 1.37971,-0.58103 1.37971,-1.51307 v -4.18465 c 0,-0.93204 -0.49741,-1.51306 -1.37971,-1.51306 m 0.28751,5.53579 c 0,0.36477 -0.20355,0.48613 -0.44697,0.48613 -0.18944,0 -0.48189,-0.0741 -0.72037,-0.14429 v -4.54695 c 0.23848,-0.0677 0.53093,-0.14182 0.72037,-0.14182 0.24342,0 0.44697,0.12136 0.44697,0.48613 z"
         style="fill:#e4001c;fill-opacity:1;fill-rule:nonzero;stroke:none;stroke-width:0.35277778"
         id="path8097"
         inkscape:connector-curvature="0" />
      <path
         d="m 163.05364,172.06172 c -1.11725,-0.0582 -1.78259,0.47272 -1.78259,1.68839 v 6.03956 c 0,1.28341 0.60255,1.81151 1.78259,1.75613 1.15499,-0.054 1.75754,-0.5267 1.75754,-1.89124 v -5.7651 c 0,-1.30104 -0.54504,-1.76424 -1.75754,-1.82774 m 0.53975,7.62 c 0,0.36477 -0.11289,0.55386 -0.53975,0.56727 -0.43921,0.0138 -0.55845,-0.18909 -0.55845,-0.56727 v -5.75592 c 0,-0.37818 0.11924,-0.58773 0.55845,-0.57397 0.42686,0.0134 0.53975,0.2092 0.53975,0.57397 z"
         style="fill:#e4001c;fill-opacity:1;fill-rule:nonzero;stroke:none;stroke-width:0.35277778"
         id="path8101"
         inkscape:connector-curvature="0" />
      <path
         d="m 173.91447,174.41891 v 4.75756 c 1.37089,-0.70097 2.15794,-1.51553 2.15794,-2.3883 0,-0.86325 -0.78705,-1.67358 -2.15794,-2.36926"
         style="fill:#e4001c;fill-opacity:1;fill-rule:nonzero;stroke:none;stroke-width:0.35277778"
         id="path8105"
         inkscape:connector-curvature="0" />
      <path
         d="m 144.4514,176.78827 c 0,0.87136 0.78599,1.68734 2.15653,2.38689 v -4.75473 c -1.37054,0.69426 -2.15653,1.50459 -2.15653,2.36784"
         style="fill:#e4001c;fill-opacity:1;fill-rule:nonzero;stroke:none;stroke-width:0.35277778"
         id="path8109"
         inkscape:connector-curvature="0" />
      <path
         d="m 154.89421,179.47101 c 0,0.36477 -0.11677,0.59584 -0.53975,0.54046 -0.41557,-0.054 -0.5274,-0.24342 -0.5274,-0.67557 v -6.85941 c -0.27587,0.0324 -0.89112,0.12417 -1.15464,0.16474 v 6.93773 c 0,1.10772 0.49953,1.53882 1.68204,1.68451 1.08197,0.13371 1.74484,-0.45508 1.74484,-1.68451 v -7.32966 c -0.22578,0.0137 -0.96661,0.0811 -1.20509,0.1083 z"
         style="fill:#e4001c;fill-opacity:1;fill-rule:nonzero;stroke:none;stroke-width:0.35277778"
         id="path8113"
         inkscape:connector-curvature="0" />
      <path
         d="m 168.15645,177.2043 -1.33703,-4.69406 c -0.36406,-0.0515 -0.80327,-0.10407 -1.14229,-0.13794 v 8.86002 c 0.23848,-0.024 0.84631,-0.0984 1.15993,-0.14182 l -0.0953,-5.22076 1.41464,5.01685 c 0.30127,-0.0512 0.74048,-0.1337 1.02941,-0.19297 v -7.78509 c -0.30128,-0.0635 -0.84879,-0.16334 -1.11231,-0.20638 z"
         style="fill:#e4001c;fill-opacity:1;fill-rule:nonzero;stroke:none;stroke-width:0.35277778"
         id="path8117"
         inkscape:connector-curvature="0" />
      <path
         d="m 158.71786,172.11305 c -0.20955,0 -0.97402,0.0282 -1.67711,0.073 v 9.2329 c 0.23848,0.0134 0.86607,0.0487 1.20509,0.0582 v -3.13549 l 0.47202,-10e-4 c 1.26294,-0.004 1.78752,-0.61312 1.78752,-1.78576 v -2.72062 c 0,-1.14794 -0.58984,-1.72085 -1.78752,-1.72085 m 0.56974,4.34411 c 0,0.39722 -0.12912,0.59866 -0.61878,0.60007 l -0.42298,10e-4 v -3.64314 c 0.18839,-0.0106 0.28858,-0.0134 0.40182,-0.0134 0.52952,0 0.63994,0.21625 0.63994,0.62124 z"
         style="fill:#e4001c;fill-opacity:1;fill-rule:nonzero;stroke:none;stroke-width:0.35277778"
         id="path8121"
         inkscape:connector-curvature="0" />
      <path
         d="m 169.78205,174.27032 c 0.29845,0.0575 0.59231,0.12136 0.87877,0.18909 v 5.89103 c 0.26352,-0.0663 0.75318,-0.2039 1.0795,-0.30797 v -5.30507 c 0.31327,0.0875 0.60854,0.17498 0.87877,0.25823 v -1.13594 c -0.85231,-0.32033 -1.76742,-0.58103 -2.83704,-0.82127 z"
         style="fill:#e4001c;fill-opacity:1;fill-rule:nonzero;stroke:none;stroke-width:0.35277778"
         id="path8125"
         inkscape:connector-curvature="0" />
    </g>
  </g>
</svg>
