<svg height="38.4px" style="enable-background:new 0 0 39 38.4;" version="1.1" viewBox="0 0 39 38.4" width="39px" x="0px" xml:space="preserve" xmlns="http://www.w3.org/2000/svg" xmlns:xlink="http://www.w3.org/1999/xlink" y="0px">
<style type="text/css">
						.st1 {
							fill: #FFFFFF;
						}
					</style>
<path class="st1" d="M4,18c0.1-3.5,2.1-6.5,5-7.9c0.1-0.9,0.3-1.8,0.5-2.7c-4.5,1.1-8.3,5.4-8.5,10.7C0.8,30.9,19.5,37,24.8,38.4
				c0.6-0.5,1.4-1.1,2.3-1.9C18.4,34.5,3.8,28.1,4,18z"></path>
<path class="st1" d="M24.4,0C16-0.3,11.7,6.3,11.3,9.4c0.5-0.1,1.1-0.1,1.6-0.1c2.8-5.4,8.3-7.7,14.6-5.8L6,19
				c0,0.6,0.1,1.2,0.4,1.7L30.9,4.9c2,1.2,3.6,2.9,4.5,5.1L7.1,22.4c0.2,0.5,0.5,0.9,0.8,1.4l28.2-10.7c0.3,2.1-0.3,5.1-0.9,6.8
				l-26,5.4c0.4,0.5,0.9,1,1.4,1.4l23.3-3.6c-0.9,2-2.1,3.9-3.3,5.6H13.2c0.8,0.5,1.6,1.1,2.6,1.6l12.6,1.3c-0.8,1-1.6,1.9-2.3,2.6
				c0.9,0.2,1.8,0.4,2.7,0.6c4.5-4.4,10.1-11.6,10.3-20C39.3,6.2,32.9,0.3,24.4,0z"></path>
</svg>