<svg version="1.1" id="Layer_1" xmlns:x="ns_extend;" xmlns:i="ns_ai;" xmlns:graph="ns_graphs;" xmlns="http://www.w3.org/2000/svg" xmlns:xlink="http://www.w3.org/1999/xlink" x="0px" y="0px" viewBox="0 0 324.9 92" style="enable-background:new 0 0 324.9 92;" xml:space="preserve">
 <style type="text/css">
  .st0{fill:#414544;}
	.st1{clip-path:url(#SVGID_2_);fill:url(#SVGID_3_);}
	.st2{clip-path:url(#SVGID_5_);fill:url(#SVGID_6_);}
	.st3{clip-path:url(#SVGID_8_);fill:url(#SVGID_9_);}
 </style>
 <metadata>
  <sfw xmlns="ns_sfw;">
   <slices>
   </slices>
   <sliceSourceBounds bottomLeftOrigin="true" height="92" width="324.9" x="37.7" y="-246.2">
   </sliceSourceBounds>
  </sfw>
 </metadata>
 <g>
  <g>
   <path class="st0" d="M203,25.5c-1.8-1.7-3.8-3.1-6.3-4c-2.4-1-5.1-1.4-7.9-1.4c-2.8,0-5.5,0.5-7.9,1.4c-2.4,1-4.5,2.3-6.3,4
			c-1.8,1.7-3.1,3.8-4.2,6.2c-1,2.4-1.5,5.2-1.5,8.2l0,28.9l7.8,0l0-29.2c0-3.6,1.1-6.5,3.3-8.8c2.2-2.3,5.1-3.5,8.8-3.5
			c3.7,0,6.6,1.2,8.7,3.5c2.1,2.3,3.2,5.3,3.2,8.8l0,29.2l7.8,0l0-28.9c0-3-0.5-5.7-1.5-8.2C206.1,29.3,204.8,27.2,203,25.5">
   </path>
   <path class="st0" d="M312.1,51.9c-0.8,2.1-2,3.9-3.5,5.5c-1.5,1.6-3.2,2.8-5.1,3.7c-1.9,0.9-4,1.3-6.3,1.3c-2.2,0-4.3-0.4-6.2-1.3
			c-1.9-0.9-3.6-2.1-5.1-3.7c-1.5-1.6-2.6-3.4-3.4-5.5c-0.8-2.1-1.2-4.3-1.2-6.7c0-2.4,0.4-4.7,1.3-6.8c0.8-2.2,2-4,3.4-5.6
			c1.5-1.6,3.1-2.9,5.1-3.8c1.9-0.9,4-1.4,6.3-1.4c2.2,0,4.3,0.5,6.2,1.4c1.9,0.9,3.7,2.2,5.1,3.8c1.5,1.6,2.6,3.5,3.5,5.6
			c0.8,2.2,1.2,4.4,1.2,6.8C313.4,47.6,313,49.8,312.1,51.9 M319.4,35.4c-1.2-3.1-2.9-5.7-5-8c-2.1-2.3-4.6-4.1-7.6-5.4
			c-2.9-1.3-6.1-2-9.5-2c-3.4,0-6.5,0.7-9.4,2c-2.9,1.3-5.4,3.1-7.6,5.4c-2.2,2.3-3.8,4.9-5.1,8c-1.2,3.1-1.9,6.3-1.9,9.8
			c0,3.5,0.6,6.7,1.8,9.7c1.2,3,2.9,5.6,5.1,7.9c2.2,2.3,4.7,4.1,7.6,5.4c2.9,1.3,6,1.9,9.4,1.9c3.4,0,6.5-0.6,9.5-1.9
			c2.9-1.3,5.4-3.1,7.6-5.4c2.1-2.3,3.8-4.9,5-7.9c1.2-3,1.8-6.2,1.9-9.7C321.3,41.7,320.6,38.4,319.4,35.4">
   </path>
   <path class="st0" d="M256.6,51.8c-0.9,2.2-2,4-3.5,5.7c-1.5,1.6-3.2,2.9-5.1,3.8c-1.9,0.9-4,1.4-6.1,1.4c-2.2,0-4.3-0.5-6.2-1.4
			c-1.9-0.9-3.6-2.2-5.1-3.8c-1.5-1.6-2.6-3.5-3.5-5.6c-0.8-2.2-1.2-4.5-1.2-7c0-2.5,0.4-4.8,1.3-6.9c0.8-2.2,2-4,3.5-5.6
			c1.5-1.6,3.2-2.8,5.1-3.7c1.9-0.9,4-1.4,6.2-1.4c2.2,0,4.3,0.5,6.2,1.4c1.9,0.9,3.6,2.2,5.1,3.8c1.4,1.6,2.6,3.5,3.5,5.6
			c0.9,2.1,1.3,4.4,1.3,6.9C257.9,47.3,257.5,49.6,256.6,51.8 M258.1,28.1c-2-2.5-4.4-4.4-7.2-5.9c-2.8-1.4-5.9-2.2-9.2-2.2
			c-3.3,0-6.3,0.6-9.2,1.9c-2.9,1.3-5.4,3-7.6,5.2c-2.2,2.2-3.9,4.8-5.1,7.8c-1.2,3-1.8,6.3-1.9,9.9c0,3.6,0.6,6.9,1.9,9.9
			c1.3,3,3,5.7,5.1,7.9c2.2,2.2,4.7,4,7.6,5.3c2.9,1.3,6,1.9,9.3,1.9c3.4,0,6.5-0.6,9.4-1.9c2.9-1.3,5.4-3.1,7.5-5.3
			c2.1-2.2,3.8-4.9,5-7.9c1.2-3,1.9-6.3,1.9-9.8l0-44.8l-7.6,3.6L258.1,28.1z">
   </path>
   <path class="st0" d="M120.3,45.5c-0.1-2.7,0.3-5.2,1.1-7.4c0.9-2.2,2-4.1,3.5-5.7c1.5-1.6,3.2-2.8,5-3.7c1.9-0.9,3.8-1.4,5.7-1.4
			c2.7-0.1,5.3,0.5,7.8,2c2.5,1.4,4.5,3.4,6.1,5.9l-28.9,13.5C120.5,47.8,120.4,46.7,120.3,45.5 M151.4,53.8
			c-0.8,1.5-2.6,4.4-5.3,6.1c-3.5,2.3-6.9,2.4-8.5,2.5c-2.8,0.1-5.4-0.4-7.9-1.6c-2.5-1.2-4.5-3-6.2-5.3l35.8-16.9
			c-0.8-3-2-5.8-3.7-8.1c-1.6-2.4-3.5-4.3-5.7-5.9c-2.2-1.6-4.5-2.8-7-3.6c-2.5-0.8-5-1.1-7.6-1c-3.3,0.1-6.4,0.9-9.2,2.4
			c-2.8,1.4-5.3,3.3-7.4,5.7c-2.1,2.3-3.7,5-4.8,8.1c-1.1,3.1-1.6,6.4-1.5,9.8c0.1,3.5,0.9,6.7,2.3,9.7c1.4,3,3.2,5.5,5.5,7.6
			c2.3,2.1,4.9,3.8,7.9,5c3,1.2,6.2,1.7,9.7,1.6c5.5-0.2,10.2-1.8,13.9-4.7c3.4-2.6,5.9-6.1,7.5-10.6c0.2-0.4,0.3-0.9,0.5-1.3
			c0.4-1.3,0.7-2.5,0.9-3.8L151.4,53.8z">
   </path>
  </g>
  <g>
   <defs>
    <path id="SVGID_1_" d="M50.3,0c-1.4,0-2.7,0.3-4,0.9L9,18.3c-3,1.4-5.1,4.4-5.4,7.7L2,42.9l67.6-31.5L55.7,1.7
				C54.1,0.6,52.2,0,50.3,0L50.3,0z">
    </path>
   </defs>
   <clipPath id="SVGID_2_">
    <use href="#SVGID_1_" style="overflow:visible;">
    </use>
   </clipPath>
   <linearGradient id="SVGID_3_" gradientUnits="userSpaceOnUse" x1="-137.9505" y1="460.9832" x2="-134.9829" y2="460.9832" gradientTransform="matrix(22.7855 0 0 -22.7855 3145.304 10525.1582)">
    <stop offset="0" style="stop-color:#F99D22">
    </stop>
    <stop offset="1" style="stop-color:#FFCF01">
    </stop>
   </linearGradient>
   <rect x="2" y="0" class="st1" width="67.6" height="42.9">
   </rect>
  </g>
  <g>
   <defs>
    <path id="SVGID_4_" d="M19.6,80.7l13.9,9.7c1.5,1,3.1,1.6,4.8,1.7h1.2c1.2-0.1,2.3-0.4,3.4-0.9l37.3-17.4
				c3.1-1.4,5.1-4.4,5.4-7.7l1.6-16.9L19.6,80.7z">
    </path>
   </defs>
   <clipPath id="SVGID_5_">
    <use xlink:href="#SVGID_4_" style="overflow:visible;">
    </use>
   </clipPath>
   <linearGradient id="SVGID_6_" gradientUnits="userSpaceOnUse" x1="-137.438" y1="459.5607" x2="-134.4703" y2="459.5607" gradientTransform="matrix(22.7855 0 0 -22.7855 3151.2388 10541.9062)">
    <stop offset="0" style="stop-color:#F99D22">
    </stop>
    <stop offset="1" style="stop-color:#FFCF01">
    </stop>
   </linearGradient>
   <rect x="19.6" y="49.2" class="st2" width="67.6" height="42.8">
   </rect>
  </g>
  <g>
   <defs>
    <path id="SVGID_7_" d="M74.5,15.3l-0.2,2.3c-0.2,2.6-1.8,4.8-4.1,5.9L10.7,51.2c-2.3,1.1-5.1,0.9-7.2-0.6l-1.9-1.3l-0.2,0.1
				c-0.2,2.6-0.7,7.7-1.1,12c-0.3,3.5,1.2,6.8,4.1,8.8c0.7,0.5,1.4,0.8,2.1,1.1h6.8c0.2-0.1,0.5-0.2,0.7-0.3l69.1-32.2
				c3.1-1.4,5.2-4.4,5.5-7.9c0.3-3.5-1.3-6.8-4.1-8.8c-3.6-2.5-7.7-5.4-9.9-6.9L74.5,15.3z">
    </path>
   </defs>
   <clipPath id="SVGID_8_">
    <use xlink:href="#SVGID_7_" style="overflow:visible;">
    </use>
   </clipPath>
   <linearGradient id="SVGID_9_" gradientUnits="userSpaceOnUse" x1="-139.106" y1="456.7769" x2="-136.1383" y2="456.7769" gradientTransform="matrix(29.8031 0 0 -29.8031 4146.0698 13656.5742)">
    <stop offset="0" style="stop-color:#F99D22">
    </stop>
    <stop offset="1" style="stop-color:#FFCF01">
    </stop>
   </linearGradient>
   <rect y="15.2" class="st3" width="89" height="56">
   </rect>
  </g>
  <path class="st0" d="M324.9,69.5h-0.8v-3.6l-1.3,3.6H322l-1.3-3.6v3.6h-0.8v-5h1.1l1.5,4l1.5-4h1.1V69.5z M319.4,64.5v0.8h-1.4v4.3
		h-0.8v-4.3h-1.4v-0.8H319.4z">
  </path>
 </g>
</svg>