<?xml version="1.0" encoding="UTF-8"?>
<svg id="Coelacanth_Studio" xmlns="http://www.w3.org/2000/svg" version="1.1" viewBox="0 0 1920 365.23">
  <!-- Generator: Adobe Illustrator 29.3.1, SVG Export Plug-In . SVG Version: 2.1.0 Build 151)  -->
  <defs>
    <style>
      .st0 {
        fill: #fff;
      }
    </style>
  </defs>
  <g>
    <path class="st0" d="M589.23,323.87c-37.89,7.72-76.57,10.01-115.48,6.52-79.06-7.08-156.54-37.03-230.3-89.01-24.56-17.31-48.49-36.92-71.72-58.77,23.23-21.85,47.16-41.46,71.72-58.77,73.76-51.98,151.24-81.93,230.3-89.01,38.91-3.48,77.6-1.2,115.48,6.52l15.38-30.77C560.85.75,515.98-2.31,470.78,1.74c-84.95,7.61-167.88,39.55-246.48,94.94-26.17,18.44-51.62,39.34-76.29,62.62C105.4,115.5,65.29,63.94,28.09,5.04L0,22.77c38.47,60.91,80.06,114.34,124.35,159.84C80.06,228.11,38.47,281.54,0,342.45l28.09,17.74c37.2-58.9,77.31-110.47,119.93-154.27,24.67,23.28,50.12,44.18,76.29,62.62,78.6,55.39,161.53,87.34,246.48,94.95,12.97,1.16,25.9,1.74,38.79,1.74,32.06,0,63.83-3.59,95.03-10.6l-15.38-30.75Z"/>
    <g>
      <polygon class="st0" points="476.92 140.73 497.83 182.55 476.92 224.37 456.01 182.55 476.92 140.73"/>
      <polygon class="st0" points="414.19 119.82 435.1 78 456.01 119.82 435.1 161.64 414.19 119.82"/>
      <polygon class="st0" points="393.28 140.73 414.19 182.55 393.28 224.37 372.37 182.55 393.28 140.73"/>
      <polygon class="st0" points="456.01 245.28 435.1 287.1 414.19 245.28 435.1 203.46 456.01 245.28"/>
    </g>
    <path class="st0" d="M589.2,41.34l-70.6,141.2,70.66,141.32c88.79-18.1,173.16-66.23,245.53-141.26-72.39-75.04-156.77-123.18-245.59-141.27ZM665.11,264.09c-5.98,1.36-12.2,2.1-18.59,2.1-46.19,0-83.64-37.45-83.64-83.64s37.45-83.64,83.64-83.64c6.39,0,12.61.74,18.59,2.1-37.24,8.45-65.05,41.74-65.05,81.54s27.81,73.09,65.05,81.54ZM686.02,198.44c-10.26,0-18.59-8.32-18.59-18.59s8.32-18.58,18.59-18.58,18.59,8.32,18.59,18.58-8.32,18.59-18.59,18.59Z"/>
  </g>
  <g>
    <g>
      <path class="st0" d="M1032.04,85.29c-11.38-13.38-27.75-20.96-44.91-20.96-34.14,0-59.69,27.35-59.69,61.09,0,39.52,32.94,60.08,59.89,60.08,13.38,0,31.14-5.39,44.72-20.16v11.58c-13.57,11.98-29.94,16.57-44.32,16.57-39.92,0-69.47-31.34-69.47-68.47s30.74-68.67,69.07-68.67c25.35,0,40.72,13.57,44.72,17.37v11.58Z"/>
      <path class="st0" d="M1152.95,150.77c0,24.15-18.57,42.72-42.72,42.72s-42.72-18.57-42.72-42.72,18.56-42.72,42.72-42.72,42.72,18.57,42.72,42.72ZM1144.57,150.77c0-19.76-14.77-35.14-34.33-35.14s-34.33,15.37-34.33,35.14,14.77,35.13,34.33,35.13,34.33-15.37,34.33-35.13Z"/>
      <path class="st0" d="M1196.46,151.57c0,20.76,15.17,34.34,32.34,34.34,13.18,0,23.16-7.79,28.35-18.57l6.79,3.99c-4.79,9.18-15.57,22.16-35.73,22.16-25.35,0-40.12-18.77-40.12-42.52,0-28.35,19.56-42.92,39.53-42.92,21.96,0,38.53,17.57,38.53,43.52h-69.67ZM1257.75,143.98c-2-16.17-13.97-28.35-30.14-28.35s-28.35,12.58-30.54,28.35h60.69Z"/>
      <path class="st0" d="M1313.5,45.77v145.52h-7.99V45.77h7.99Z"/>
      <path class="st0" d="M1424.96,109.85h7.98v81.45h-7.98v-14.57c-8.18,12.58-21.16,16.77-31.74,16.77-21.36,0-39.72-16.17-39.72-42.92,0-25.15,15.97-42.52,39.72-42.52,12.78,0,23.95,4.99,31.74,15.97v-14.17ZM1361.88,149.97c0,18.37,11.38,35.93,31.94,35.93s31.54-17.17,31.54-35.93c0-24.16-17.77-34.34-31.74-34.34-16.17,0-31.74,12.18-31.74,34.34Z"/>
      <path class="st0" d="M1543.23,129.01c-5.39-6.19-14.77-13.38-28.15-13.38-19.96,0-33.94,15.37-33.94,35.34,0,23.35,17.77,34.93,33.54,34.93,12.98,0,23.16-7.59,29.54-14.57v10.78c-5.39,4.79-15.37,11.38-29.74,11.38-24.55,0-41.72-18.17-41.72-42.32s16.17-43.12,42.32-43.12c5.79,0,16.97,1,28.15,10.38v10.58Z"/>
      <path class="st0" d="M1647.99,109.85h7.99v81.45h-7.99v-14.57c-8.18,12.58-21.16,16.77-31.74,16.77-21.36,0-39.72-16.17-39.72-42.92,0-25.15,15.97-42.52,39.72-42.52,12.78,0,23.96,4.99,31.74,15.97v-14.17ZM1584.91,149.97c0,18.37,11.38,35.93,31.94,35.93s31.54-17.17,31.54-35.93c0-24.16-17.77-34.34-31.74-34.34-16.17,0-31.74,12.18-31.74,34.34Z"/>
      <path class="st0" d="M1700.61,109.85h7.99v12.78c3.79-6.79,11.18-14.57,24.95-14.57,14.57,0,20.76,8.58,22.56,11.38,3.59,5.79,3.99,13.38,3.99,20.56v51.3h-7.98v-51.3c0-5.59-.2-11.78-3.19-16.37-1.8-2.99-6.19-7.99-15.97-7.99-11.18,0-16.97,5.99-19.96,11.38-3.59,6.39-4.39,13.97-4.39,21.96v42.32h-7.99v-81.45Z"/>
      <path class="st0" d="M1812.99,117.43v73.86h-7.99v-73.86h-8.98v-7.59h8.98v-29.15h7.99v29.15h14.17v7.59h-14.17Z"/>
      <path class="st0" d="M1860.51,45.77h7.99v76.85c3.79-6.79,11.18-14.57,24.95-14.57,14.57,0,20.76,8.58,22.56,11.38,3.59,5.79,3.99,13.38,3.99,20.56v51.3h-7.99v-51.3c0-5.59-.2-11.78-3.19-16.37-1.8-2.99-6.19-7.99-15.97-7.99-11.18,0-16.97,5.99-19.96,11.38-3.59,6.39-4.39,13.97-4.39,21.96v42.32h-7.99V45.77Z"/>
    </g>
    <g>
      <path class="st0" d="M961.48,263.31c-2.06-1.67-4.12-2.91-6.17-3.71-2.06-.8-4.05-1.21-5.98-1.21-2.45,0-4.44.58-5.98,1.74-1.54,1.16-2.32,2.67-2.32,4.54,0,1.29.39,2.35,1.16,3.18.77.84,1.78,1.56,3.04,2.17,1.25.61,2.67,1.14,4.25,1.59,1.58.45,3.14.93,4.68,1.45,6.17,2.06,10.69,4.81,13.55,8.25,2.86,3.44,4.29,7.93,4.29,13.46,0,3.73-.63,7.11-1.88,10.13-1.25,3.02-3.09,5.61-5.5,7.77-2.41,2.16-5.37,3.83-8.88,5.02-3.51,1.19-7.48,1.78-11.92,1.78-9.2,0-17.72-2.73-25.57-8.2l8.1-15.24c2.83,2.51,5.63,4.37,8.39,5.6,2.76,1.22,5.5,1.83,8.2,1.83,3.09,0,5.39-.71,6.9-2.12,1.51-1.41,2.27-3.02,2.27-4.82,0-1.09-.19-2.04-.58-2.85-.39-.8-1.03-1.54-1.93-2.22-.9-.68-2.07-1.3-3.52-1.88s-3.2-1.22-5.26-1.93c-2.45-.77-4.84-1.62-7.19-2.56-2.35-.93-4.44-2.17-6.27-3.71-1.83-1.54-3.31-3.49-4.44-5.84-1.13-2.35-1.69-5.32-1.69-8.92s.59-6.86,1.78-9.79c1.19-2.93,2.86-5.43,5.02-7.53,2.15-2.09,4.79-3.71,7.91-4.87,3.12-1.16,6.61-1.74,10.47-1.74,3.6,0,7.36.5,11.29,1.5,3.92,1,7.69,2.46,11.29,4.39l-7.53,14.76Z"/>
      <path class="st0" d="M1135,260.7v56.73h-18.91v-56.73h-15.53v-16.01h49.98v16.01h-15.53Z"/>
      <path class="st0" d="M1301.54,244.69v39.55c0,2.12.08,4.29.24,6.51.16,2.22.64,4.23,1.45,6.03.8,1.8,2.07,3.27,3.81,4.39,1.74,1.13,4.18,1.69,7.33,1.69s5.58-.56,7.28-1.69c1.7-1.12,2.97-2.59,3.81-4.39.84-1.8,1.33-3.81,1.5-6.03.16-2.22.24-4.39.24-6.51v-39.55h18.81v42.16c0,11.32-2.59,19.58-7.77,24.79-5.18,5.21-13.14,7.81-23.88,7.81s-18.72-2.6-23.93-7.81-7.81-13.47-7.81-24.79v-42.16h18.91Z"/>
      <path class="st0" d="M1485.14,244.69h27.98c4.95,0,9.6,1,13.94,2.99,4.34,1.99,8.14,4.65,11.38,7.96,3.25,3.31,5.8,7.17,7.67,11.58,1.86,4.41,2.8,9.02,2.8,13.84s-.92,9.34-2.75,13.75c-1.83,4.41-4.37,8.28-7.62,11.62-3.25,3.35-7.04,6.02-11.38,8.01-4.34,1.99-9.02,2.99-14.04,2.99h-27.98v-72.74ZM1504.05,301.42h4.34c3.28,0,6.21-.51,8.78-1.54,2.57-1.03,4.74-2.44,6.51-4.25,1.77-1.8,3.12-3.94,4.05-6.42.93-2.48,1.4-5.19,1.4-8.15s-.48-5.6-1.45-8.1c-.96-2.51-2.33-4.66-4.1-6.46-1.77-1.8-3.94-3.22-6.51-4.24-2.57-1.03-5.47-1.54-8.68-1.54h-4.34v40.71Z"/>
      <path class="st0" d="M1703.55,244.69v72.74h-18.91v-72.74h18.91Z"/>
      <path class="st0" d="M1839.44,281.06c0-5.4,1-10.43,2.99-15.1,1.99-4.66,4.76-8.73,8.3-12.2,3.54-3.47,7.77-6.19,12.69-8.15,4.92-1.96,10.34-2.94,16.26-2.94s11.25.98,16.21,2.94c4.95,1.96,9.21,4.68,12.78,8.15s6.35,7.54,8.34,12.2c1.99,4.66,2.99,9.7,2.99,15.1s-1,10.44-2.99,15.1c-1.99,4.66-4.78,8.73-8.34,12.2-3.57,3.47-7.83,6.19-12.78,8.15-4.95,1.96-10.36,2.94-16.21,2.94s-11.34-.98-16.26-2.94c-4.92-1.96-9.15-4.68-12.69-8.15-3.54-3.47-6.3-7.54-8.3-12.2-1.99-4.66-2.99-9.7-2.99-15.1ZM1859.22,281.06c0,2.9.55,5.56,1.64,8.01,1.09,2.44,2.57,4.57,4.44,6.37,1.86,1.8,4.04,3.2,6.51,4.2,2.48,1,5.1,1.5,7.86,1.5s5.39-.5,7.86-1.5c2.48-1,4.66-2.4,6.56-4.2,1.9-1.8,3.39-3.92,4.49-6.37,1.09-2.44,1.64-5.11,1.64-8.01s-.55-5.56-1.64-8.01c-1.09-2.44-2.59-4.57-4.49-6.37-1.9-1.8-4.09-3.2-6.56-4.2-2.48-1-5.1-1.5-7.86-1.5s-5.39.5-7.86,1.5c-2.48,1-4.65,2.4-6.51,4.2-1.87,1.8-3.34,3.92-4.44,6.37-1.09,2.45-1.64,5.11-1.64,8.01Z"/>
    </g>
  </g>
</svg>