<?xml version="1.0" encoding="utf-8"?>
<!-- Generator: Adobe Illustrator 26.0.3, SVG Export Plug-In . SVG Version: 6.00 Build 0)  -->
<svg version="1.1" id="Layer_1" xmlns="http://www.w3.org/2000/svg" xmlns:xlink="http://www.w3.org/1999/xlink" x="0px" y="0px"
	 viewBox="0 0 162.7 70" style="enable-background:new 0 0 162.7 70;" xml:space="preserve">
<style type="text/css">
	.st0{fill:#B3B3B3;}
	.st1{fill:#FFFFFF;}
	.st2{fill:#009FE3;}
</style>
<path class="st0" d="M93.7,54.7c0,4.1-1.6,8-4.5,10.9c-1.4,1.4-3.1,2.5-4.9,3.2c-3.9,1.6-8.2,1.6-12.1,0c-1.8-0.7-3.5-1.8-4.9-3.2
	c-1.4-1.4-2.5-3.1-3.3-4.9c-1.6-3.8-1.6-8.2,0-12c0.8-1.8,1.9-3.5,3.3-4.9c1.4-1.4,3.1-2.5,4.9-3.2c3.9-1.6,8.2-1.6,12.1,0
	c1.8,0.8,3.5,1.9,4.9,3.2C92.1,46.7,93.7,50.6,93.7,54.7 M89.2,54.7c0-1.5-0.3-3-0.8-4.4C87.8,49,87,47.8,86,46.7
	c-1-1-2.2-1.8-3.5-2.3c-1.4-0.6-2.8-0.9-4.3-0.8c-1.5,0-2.9,0.3-4.3,0.8c-1.3,0.5-2.5,1.3-3.4,2.3c-1,1-1.8,2.2-2.3,3.6
	c-1.1,2.8-1.1,6,0,8.8c0.5,1.3,1.3,2.5,2.3,3.5c4.3,4.3,11.2,4.3,15.5,0c0,0,0,0,0,0c1-1,1.8-2.2,2.3-3.5
	C88.9,57.7,89.2,56.2,89.2,54.7"/>
<path class="st0" d="M124.3,56.9c0,1.9-0.3,3.7-0.9,5.4c-0.5,1.5-1.4,2.9-2.5,4.1c-1.1,1.2-2.5,2.1-4,2.6c-1.7,0.6-3.4,1-5.2,0.9
	c-3.4,0.2-6.8-1.1-9.2-3.6c-2.3-2.4-3.4-5.6-3.4-9.6v-17h4.4v17c-0.1,2.4,0.7,4.7,2.2,6.6c3.3,3.3,8.6,3.3,11.9,0
	c1.5-1.8,2.3-4.2,2.2-6.6v-17h4.4L124.3,56.9z"/>
<path class="st0" d="M150.5,42.4c-1.9-1.7-4.4-2.6-7-2.5h-13.7v29.6h4.4V53.8l0,0v-10h8.8c1.5-0.1,3,0.4,4.1,1.3
	c1,0.9,1.6,2.3,1.6,3.6c0.1,1.4-0.5,2.7-1.6,3.7c-1.2,0.9-2.6,1.4-4.1,1.3h-8.8l1.9,3.8h7.4c2.6,0.1,5.1-0.8,7-2.5
	c1.8-1.6,2.8-3.9,2.7-6.4C153.3,46.4,152.3,44,150.5,42.4"/>
<path class="st0" d="M29.8,53.6H17.5v3.9h9.9c-0.2,2.4-1.4,4.5-3.2,6.1c-1.9,1.6-4.3,2.5-6.7,2.4c-1.5,0-3-0.3-4.3-0.9
	c-1.3-0.6-2.5-1.4-3.5-2.4c-1-1-1.8-2.2-2.3-3.5c-0.6-1.4-0.9-2.9-0.8-4.4c0-1.5,0.3-3,0.8-4.4c0.5-1.3,1.3-2.5,2.3-3.6
	c1-1,2.1-1.8,3.4-2.3c1.4-0.6,2.8-0.9,4.3-0.8c1.7,0,3.4,0.3,4.9,1c1.5,0.7,2.9,1.7,4,2.9l3-3c-1.5-1.6-3.2-2.9-5.2-3.7
	c-2.1-0.9-4.4-1.4-6.6-1.4c-2.1,0-4.1,0.4-6,1.2c-1.8,0.7-3.5,1.8-4.9,3.2c-1.4,1.4-2.5,3.1-3.3,4.9C0.7,54.5,2,61.1,6.4,65.6
	c1.4,1.4,3.1,2.5,4.9,3.2c1.9,0.8,4,1.2,6.1,1.2c2,0,4-0.4,5.8-1.1c1.7-0.7,3.3-1.8,4.6-3.1c1.3-1.4,2.4-3,3.1-4.7
	c0.4-1.1,0.8-2.3,0.9-3.5L29.8,53.6z"/>
<path class="st0" d="M53.3,56.8c1.8-0.6,3.3-1.6,4.4-3.1c2.6-3.5,2.1-8.4-1.1-11.4c-2-1.7-4.5-2.6-7.1-2.4H36v29.6h4.5V43.8h8.6
	c1.5-0.1,3,0.4,4.2,1.3c2,1.8,2.1,4.9,0.3,6.9c-0.1,0.1-0.2,0.2-0.3,0.3c-1.2,1-2.7,1.5-4.2,1.4h-8.6l1.9,3.7h6.5L55,69.5h4.9
	L53.3,56.8z"/>
<path class="st1" d="M121.4,15.9c0,2.1-0.4,4.1-1.2,6c-1.5,3.7-4.5,6.6-8.2,8.1c-3.9,1.6-8.2,1.6-12.1,0c-1.8-0.8-3.5-1.9-4.9-3.3
	c-1.4-1.4-2.5-3.1-3.3-4.9c-0.8-1.9-1.2-3.9-1.2-6c0-2.1,0.4-4.1,1.2-6C92.5,8,93.6,6.4,95,5c1.4-1.4,3.1-2.5,4.9-3.2
	c3.9-1.6,8.2-1.6,12.1,0c3.7,1.5,6.6,4.4,8.2,8.1C121,11.8,121.4,13.8,121.4,15.9 M116.9,15.9c0-1.5-0.3-3-0.8-4.4
	c-0.5-1.3-1.3-2.5-2.3-3.6c-1-1-2.2-1.8-3.5-2.3c-2.7-1.1-5.8-1.1-8.6,0c-1.3,0.5-2.5,1.3-3.4,2.3c-1,1-1.8,2.2-2.3,3.6
	c-0.6,1.4-0.9,2.9-0.8,4.4c0,1.5,0.3,3,0.8,4.4c1.1,2.6,3.1,4.8,5.8,5.9c2.7,1.2,5.8,1.2,8.6,0c2.6-1.1,4.7-3.2,5.8-5.9
	C116.6,18.9,116.9,17.4,116.9,15.9"/>
<path class="st1" d="M53.3,18c1.8-0.6,3.3-1.6,4.4-3.1c1.1-1.5,1.7-3.2,1.7-5.1c0.1-2.4-0.9-4.7-2.7-6.3c-2-1.7-4.5-2.5-7.1-2.4H36
	v29.6h4.5V5h8.6c1.5-0.1,3,0.4,4.2,1.3c1.1,0.9,1.6,2.2,1.6,3.6c0,1.4-0.5,2.7-1.6,3.6c-1.2,1-2.7,1.5-4.2,1.4h-8.6l1.9,3.7h6.5
	L55,30.7h4.9L53.3,18z"/>
<path class="st1" d="M81.2,18c1.8-0.5,3.3-1.6,4.4-3.1c1.1-1.5,1.7-3.2,1.7-5.1c0.1-2.4-0.9-4.7-2.7-6.3c-2-1.7-4.5-2.6-7.1-2.5
	H63.9v29.6h4.4V5H77c1.5-0.1,3,0.4,4.2,1.3c1.1,0.9,1.6,2.2,1.6,3.6c0,1.4-0.5,2.7-1.6,3.6c-1.2,1-2.7,1.5-4.2,1.4h-8.6l1.9,3.7h6.5
	l6.1,12.1h4.9L81.2,18z"/>
<polygon class="st2" points="31.8,30.7 15.9,0 0,30.7 5.1,30.7 15.9,9.3 26.7,30.7 "/>
<path class="st1" d="M19.2,27.4c0,1.8-1.5,3.3-3.4,3.3s-3.3-1.5-3.3-3.4c0-1.8,1.5-3.3,3.3-3.3C17.7,24,19.2,25.5,19.2,27.4"/>
<polygon class="st1" points="142.6,13.2 133.6,30.7 122.5,1.2 127.5,1.2 134.5,20 142.6,4.5 150.6,20 157.7,1.2 162.7,1.2 
	151.6,30.7 "/>
</svg>
