<svg id="Layer_1" data-name="Layer 1" xmlns="http://www.w3.org/2000/svg" xmlns:xlink="http://www.w3.org/1999/xlink" viewBox="0 0 153.3648 29.0612"><defs><style>.cls-1{fill:#005cb9;}.cls-2{fill:url(#linear-gradient);}.cls-3{fill:#00b6f1;}.cls-4{fill:#77bc1f;}</style><linearGradient id="linear-gradient" x1="42.0705" y1="85.9226" x2="42.2863" y2="86.1244" gradientUnits="userSpaceOnUse"><stop offset="0.5056" stop-color="#29aae1"/><stop offset="0.7182" stop-color="#1884b1"/><stop offset="1" stop-color="#025576"/></linearGradient></defs><title>logo</title><g id="_Group_" data-name="&lt;Group&gt;"><path id="_Compound_Path_" data-name="&lt;Compound Path&gt;" class="cls-1" d="M69.73,78.7006c-.7788,1.7522-.1623,2.4662,2.5311,2.4662v.6814H64.6682v-.6814c2.7259,0,2.8879-.5517,3.8939-2.8231l7.1392-16.5172h.4217l7.1715,16.5172c1.006,2.2714,1.1682,2.8231,3.8616,2.8231v.6814H78.1674v-.6814c2.6933,0,3.31-.6814,2.5311-2.4662l-1.5577-3.6019H71.2879Zm5.4515-12.623-3.3747,7.82h6.7821Z" transform="translate(-31.8535 -57.5827)"/><path id="_Compound_Path_2" data-name="&lt;Compound Path&gt;" class="cls-1" d="M124.2932,82.4a10.2991,10.2991,0,1,1,0-20.5733c5.9707,0,10.8382,4.64,10.8382,10.2868S130.2639,82.4,124.2932,82.4ZM116.57,72.1134c0,4.0236,2.1416,8.9886,7.7229,8.9886,5.6138,0,7.7555-4.965,7.7555-8.9886s-2.1416-9.0211-7.7555-9.0211C118.712,63.0923,116.57,68.09,116.57,72.1134Z" transform="translate(-31.8535 -57.5827)"/><path id="_Compound_Path_3" data-name="&lt;Compound Path&gt;" class="cls-1" d="M180.9025,66.8239c0-3.2448-.3891-3.7642-3.0825-3.7642v-.6814h7.3983V63.06c-2.6933,0-3.115.5194-3.115,3.7642V82.4h-.7463L168.15,66.0776V77.37c0,3.245.422,3.7967,3.1153,3.7967v.6814h-7.3986v-.6814c2.6933,0,3.0828-.5517,3.0828-3.7967V66.8239c0-3.2448-.3894-3.7642-3.0828-3.7642v-.6814h4.5753l12.4607,15.4461Z" transform="translate(-31.8535 -57.5827)"/><path id="_Compound_Path_4" data-name="&lt;Compound Path&gt;" class="cls-1" d="M96.4646,72.86v4.51c0,3.245.3894,3.7967,3.0828,3.7967v.6814H90.7859v-.6814c2.6933,0,3.0828-.5517,3.0828-3.7967V66.8239c0-3.2448-.3894-3.7642-3.0828-3.7642v-.6814h8.7614V63.06c-2.6933,0-3.0828.5194-3.0828,3.7642V72.86Zm15.5626,8.6391a3.8546,3.8546,0,0,1-.7847-.0773c-1.2987-.2319-2.2457-.7989-4.4643-2.7831-1.2719-1.1339-6.1963-5.9011-7.9009-7.6793.5411-.5748,5.6335-5.2709,5.6335-5.2709,2.2716-1.9471,3.44-2.6285,5.9384-2.6285v-.6814h-7.5283V63.06c1.401,0,1.78.4119,1.2223,1.2351-.253.2772-.6052.638-1.099,1.124-1.6505,1.6235-5.33,5.3084-6.169,6.0815v.2319a100.3888,100.3888,0,0,0,8.8747,8.89c1.2719.9535,1.894,1.237,4.248,1.237H112c.2977,0,.4058-.0516.4058-.18S112.2437,81.4987,112.0272,81.4987Z" transform="translate(-31.8535 -57.5827)"/><path id="_Compound_Path_5" data-name="&lt;Compound Path&gt;" class="cls-1" d="M160.6688,81.5153a3.86,3.86,0,0,1-.7847-.0773c-1.2987-.2319-2.2457-.7989-4.4643-2.7832-.8912-.7945-3.5744-3.3717-5.6879-5.4557,3.3993-.5468,5.2383-2.7113,5.2383-5.3141,0-3.0179-2.466-5.484-6.9765-5.484h-8.5662v.6818c2.6932,0,3.0827.5189,3.0827,3.7639V77.3919c0,3.245-.3895,3.7968-3.0827,3.7968V81.87h8.7609v-.6812c-2.6932,0-3.0827-.5518-3.0827-3.7968V73.3362h1.8506a88.86,88.86,0,0,0,7.4351,7.303c1.2719.9534,1.894,1.2369,4.248,1.2369h2.0024c.2977,0,.4058-.0516.4058-.18S160.8853,81.5153,160.6688,81.5153ZM145.1057,63.6017h2.8556c2.8232,0,4.1209,1.9467,4.1209,4.2833,0,2.3685-1.2978,4.2829-4.1209,4.2829h-2.8556Z" transform="translate(-31.8535 -57.5827)"/></g><g id="_Group_2" data-name="&lt;Group&gt;"><g id="_Group_3" data-name="&lt;Group&gt;"><g id="_Group_4" data-name="&lt;Group&gt;"><g id="_Group_5" data-name="&lt;Group&gt;"><g id="_Group_6" data-name="&lt;Group&gt;"><path id="_Path_" data-name="&lt;Path&gt;" class="cls-2" d="M41.9716,85.957c.2556.0907.4063.1262.4063.1262Q42.1733,86.0228,41.9716,85.957Z" transform="translate(-31.8535 -57.5827)"/><path id="_Path_2" data-name="&lt;Path&gt;" class="cls-1" d="M42.3379,59.3236a8.9,8.9,0,0,0-5.7165,2.0356,14.5244,14.5244,0,0,0,5.35,24.5978,8.8978,8.8978,0,0,1-4.6371-3.9386c-2.4625-4.2652-1.5525-8.0855,1.5361-13.5658a21.1048,21.1048,0,0,1,6.5953-7.3393,4.0225,4.0225,0,0,1,1.7594-.5983A9.6969,9.6969,0,0,0,42.3379,59.3236Z" transform="translate(-31.8535 -57.5827)"/></g></g><g id="_Group_7" data-name="&lt;Group&gt;"><path id="_Path_3" data-name="&lt;Path&gt;" class="cls-3" d="M60.5823,69.0162A8.8975,8.8975,0,0,1,59.49,75.0041c-2.4625,4.2652-6.226,5.3873-12.5164,5.4526A21.1048,21.1048,0,0,1,37.32,78.4146a4.0213,4.0213,0,0,1-1.3983-1.2253,9.6973,9.6973,0,0,0,1.4124,4.8291,8.9,8.9,0,0,0,4.6213,3.9329,14.116,14.116,0,0,0,4.31.6926,14.5955,14.5955,0,0,0,12.72-7.2837,14.3191,14.3191,0,0,0,1.9329-7.2092A15.0262,15.0262,0,0,0,60.5823,69.0162Z" transform="translate(-31.8535 -57.5827)"/></g></g><path id="_Path_4" data-name="&lt;Path&gt;" class="cls-4" d="M59.49,75.0041a8.9,8.9,0,0,0,1.0954-5.9685A14.5244,14.5244,0,0,0,36.6084,61.37a8.8978,8.8978,0,0,1,5.7295-2.0466c4.925,0,7.7785,2.6982,10.98,8.1132a21.1048,21.1048,0,0,1,3.0583,9.3814,4.0225,4.0225,0,0,1-.3616,1.8228A9.6969,9.6969,0,0,0,59.49,75.0041Z" transform="translate(-31.8535 -57.5827)"/></g></g></svg>