<svg xmlns="http://www.w3.org/2000/svg" viewBox="0 0 282.4 87.56"><defs><style>.cls-1{fill:#fff;}.cls-2{fill:#a49ddd;}.cls-3{fill:#d79fda;}.cls-4{fill:#8cb2df;}.cls-5{fill:#ffbba7;}.cls-6{fill:#685bc7;}.cls-7{fill:#bd5fc2;}.cls-8{fill:#407ec9;}.cls-9{fill:#ff8d6d;}</style></defs><g id="Layer_2" data-name="Layer 2"><g id="Layer_1-2" data-name="Layer 1"><path class="cls-1" d="M145.49,19.79h6.37v26.9c0,2.83,1,3.54,2.63,3.54.51,0,1,0,1,0v5.61a14.77,14.77,0,0,1-2,.15c-3.54,0-7.94-.91-7.94-8.29Z"/><path class="cls-1" d="M171.59,29.3C179,29.3,183,34.71,183,41.53c0,.76-.15,2.48-.15,2.48h-17.8c.4,4.5,3.89,6.83,7.74,6.83A12.73,12.73,0,0,0,180.24,48l2.48,4.61a16.14,16.14,0,0,1-10.37,3.69c-8.54,0-13.85-6.17-13.85-13.5C158.5,34.86,163.91,29.3,171.59,29.3Zm5,10.31c-.1-3.49-2.28-5.36-5.11-5.36-3.29,0-5.56,2-6.17,5.36Z"/><path class="cls-1" d="M200.57,29.3c6.73,0,9.91,3.84,9.91,3.84l-2.83,4.4a10.11,10.11,0,0,0-6.72-2.78,7.67,7.67,0,0,0-7.84,8,7.86,7.86,0,0,0,8,8.09,11.84,11.84,0,0,0,7.58-3.29l2.48,4.55a14.68,14.68,0,0,1-10.62,4.2c-8.54,0-14-6-14-13.5C186.57,35.47,192,29.3,200.57,29.3Z"/><path class="cls-1" d="M217.34,35H214V29.9h3.49v-7h6.27v7h5.86V35h-5.86V45.43c0,4.24,3.33,4.85,5.1,4.85a6.07,6.07,0,0,0,1.17-.1v5.61a11.28,11.28,0,0,1-2,.15c-3.59,0-10.71-1.06-10.71-9.71Z"/><path class="cls-1" d="M247.63,29.3c7.89,0,14.21,5.61,14.21,13.5s-6.32,13.5-14.16,13.5-14.2-5.57-14.2-13.5S239.8,29.3,247.63,29.3Zm.05,21.54a7.67,7.67,0,0,0,7.64-8,7.67,7.67,0,1,0-15.32,0A7.68,7.68,0,0,0,247.68,50.84Z"/><path class="cls-1" d="M266.88,29.9h6.17v4.45a17.77,17.77,0,0,1-.1,1.82h.1c1.16-3.69,4.25-6.62,8.19-6.62a7.32,7.32,0,0,1,1.16.1V36a11,11,0,0,0-1.51-.1,7.3,7.3,0,0,0-7,5.41,13.64,13.64,0,0,0-.56,4.2V55.69h-6.42Z"/><path class="cls-1" d="M140.36,50.26c-1.41,0-2.31-.52-2.54-2.42V40.41q0-.75-.06-1.44c-.37-4.6-2.55-7.66-6.31-9a14.36,14.36,0,0,0-4.69-.71A23.86,23.86,0,0,0,115,32.86l2.2,4c2.67-1.47,5.55-2.73,8.44-2.73,3.32,0,5.09,1.35,5.79,3.34a6.57,6.57,0,0,1,.34,1.7l-.34,0C119,40.15,114,43,114,48.75c0,4.51,3.56,7.55,8.6,7.55,3.46,0,6.92-1.73,9.64-3.83h.1a1.09,1.09,0,0,1,.08.15,5.85,5.85,0,0,0,4.19,3.05,12.93,12.93,0,0,0,2.68.25,14.72,14.72,0,0,0,2-.15V50.21S140.86,50.26,140.36,50.26Zm-8.57-1.83-.31.25c-2.26,1.75-4.57,2.9-7,2.9s-4.61-1-4.61-3.3c0-2.75,2.66-4.62,11.61-5.27l.34,0Z"/><rect class="cls-2" y="28.62" width="6.94" height="29.07"/><rect class="cls-2" x="86.06" y="28.62" width="6.94" height="29.07"/><rect class="cls-3" x="27.76" y="9.81" width="6.94" height="54.53"/><rect class="cls-4" x="73.57" y="17.48" width="6.94" height="58.51"/><rect class="cls-4" x="12.49" y="17.48" width="9.72" height="51.36"/><rect class="cls-3" x="58.3" width="9.72" height="87.56"/><rect class="cls-5" x="40.26" y="5.23" width="12.49" height="63.61"/><rect class="cls-6" y="43.16" width="6.94" height="14.54"/><rect class="cls-6" x="86.06" y="43.16" width="6.94" height="14.54"/><rect class="cls-7" x="27.76" y="43.16" width="6.94" height="21.19"/><rect class="cls-8" x="73.57" y="43.16" width="6.94" height="32.83"/><rect class="cls-8" x="12.49" y="43.16" width="9.72" height="25.68"/><rect class="cls-7" x="58.3" y="43.16" width="9.72" height="44.4"/><rect class="cls-9" x="40.26" y="43.16" width="12.49" height="25.68"/></g></g></svg>