<svg xmlns="http://www.w3.org/2000/svg" id="endorsed-dealer-inspire" viewBox="0 0 249 49"><defs><style>.st0{fill:#fff}</style></defs><path id="endorsement" fill="#949ba8" d="M64.85 37.34h.7l2.31 5.97h-.68l-.59-1.51h-2.78l-.59 1.51h-.69l2.31-5.97Zm-.8 3.85h2.31L65.2 38.2zm9.71 2.2c-.44 0-.88-.08-1.28-.24-.37-.15-.7-.37-.98-.65s-.5-.61-.64-.98a3.25 3.25 0 0 1 .01-2.43 3 3 0 0 1 1.67-1.61c.39-.15.81-.23 1.23-.23a3.24 3.24 0 0 1 1.56.41c.23.13.44.28.63.47.19.18.35.39.48.61l-1.02.64c-.16-.29-.38-.54-.66-.73-.3-.18-.64-.28-.99-.26-.27 0-.54.04-.79.14-.23.1-.44.24-.62.41-.18.18-.32.39-.41.62a2 2 0 0 0 0 1.52c.09.23.23.44.41.61.18.18.39.32.62.41q.375.15.78.15c.38.01.75-.1 1.06-.32.29-.21.52-.48.67-.8l1.06.55c-.26.5-.65.92-1.13 1.23-.24.15-.5.27-.77.35-.28.08-.58.13-.87.13ZM79 37.34h1.18l2.16 5.97h-1.22l-.37-1.04h-2.34l-.37 1.04h-1.21l2.16-5.97Zm-.2 3.84h1.57l-.78-2.22zm4.32-3.84h1.95c.33 0 .66.04.98.14.27.09.51.24.72.43.2.19.35.41.44.66.1.27.15.56.15.85 0 .35-.09.69-.26 1s-.43.57-.75.73l1.22 2.15h-1.32l-.95-1.8h-1.02v1.8h-1.16zm1.16 1.06v2.06h.69c.2 0 .4-.02.59-.09.14-.05.27-.13.38-.23.1-.1.17-.21.21-.34q.06-.21.06-.42c0-.13-.02-.27-.07-.39s-.13-.23-.23-.33c-.19-.18-.51-.26-.94-.26zm6.11 4.99c-.49.01-.97-.09-1.4-.31-.37-.2-.71-.45-.99-.77l1.06-.82c.14.24.33.45.57.59.23.14.49.21.75.21.13 0 .27-.02.39-.06.11-.04.2-.1.28-.18.08-.07.14-.15.18-.25.04-.09.06-.19.06-.29a.5.5 0 0 0-.1-.31.9.9 0 0 0-.28-.22 2 2 0 0 0-.41-.16c-.15-.05-.31-.1-.47-.14-.21-.06-.41-.13-.62-.21-.2-.08-.39-.18-.56-.31s-.3-.29-.4-.47c-.11-.22-.16-.47-.15-.72a1.56 1.56 0 0 1 .57-1.21c.19-.16.41-.28.64-.37.26-.09.54-.14.82-.13.23 0 .45.02.67.06q.285.06.54.18c.16.07.31.17.44.27.14.11.27.22.39.35l-.96.71c-.11-.18-.28-.33-.47-.42-.19-.1-.4-.15-.62-.14a.87.87 0 0 0-.62.19.57.57 0 0 0-.21.47c0 .1.03.21.1.29.07.09.17.16.27.21.13.07.26.12.4.16l.47.16c.21.07.41.14.62.22q.3.12.57.33c.17.14.31.3.41.49.11.22.17.47.16.72q0 .36-.15.69c-.09.22-.23.42-.41.59-.19.18-.42.32-.66.42-.28.11-.59.16-.89.15Zm7.82 0c-.44 0-.88-.08-1.29-.24-.37-.15-.7-.37-.98-.65a2.8 2.8 0 0 1-.63-.97 3.25 3.25 0 0 1 .01-2.43 2.96 2.96 0 0 1 1.65-1.61c.39-.15.81-.23 1.23-.23a3.24 3.24 0 0 1 1.56.41c.23.13.44.28.62.47.19.18.35.39.48.61l-1.02.64a2.2 2.2 0 0 0-.66-.73c-.29-.18-.64-.28-.99-.26-.27 0-.54.04-.79.14-.23.1-.44.24-.62.41s-.32.39-.41.62a2 2 0 0 0 0 1.52c.09.23.23.44.41.61.18.18.39.32.62.41q.375.15.78.15c.38.01.75-.1 1.06-.32.29-.21.52-.48.67-.8l1.06.55c-.26.5-.65.92-1.13 1.23-.24.15-.5.27-.77.35-.28.08-.57.13-.87.13Zm6.45 0c-.42 0-.83-.08-1.22-.24-.37-.15-.7-.38-.99-.65-.58-.58-.91-1.36-.9-2.17 0-.41.08-.82.24-1.19a3.1 3.1 0 0 1 2.87-1.87c.42 0 .83.08 1.22.24.37.16.71.38.99.66s.51.61.67.97c.16.38.25.78.24 1.19 0 .4-.08.8-.23 1.17-.16.37-.39.71-.68 1a3.16 3.16 0 0 1-2.21.89m0-1.12c.26 0 .52-.05.77-.15.23-.1.45-.24.63-.42.37-.37.58-.86.58-1.37s-.21-1.01-.58-1.37q-.27-.27-.63-.42c-.24-.1-.5-.15-.77-.15s-.53.05-.77.15c-.47.2-.84.57-1.03 1.03-.21.48-.21 1.03 0 1.51a1.96 1.96 0 0 0 1.8 1.19m3.96-4.93h1.15l1.83 2.48 1.9-2.48h1.09v5.97h-1.16v-4.14l-1.84 2.43-1.81-2.41v4.11h-1.16zm6.97 0h1.15l1.83 2.48 1.9-2.48h1.09v5.97h-1.16v-4.14l-1.83 2.43-1.82-2.41v4.11h-1.16zm6.97 0h3.61v1.09h-2.45v1.35h2.45v1.09h-2.45v1.37h2.45v1.09h-3.61v-5.97Zm4.55 0h1.95c.33 0 .66.04.98.14.27.09.51.24.72.43.2.19.35.41.44.66.1.27.15.56.15.85 0 .35-.09.69-.26 1s-.43.57-.75.73l1.2 2.14h-1.32l-.93-1.79h-1.02v1.8h-1.16zm1.16 1.06v2.06h.69c.2 0 .4-.02.59-.09.14-.05.27-.13.38-.23a.7.7 0 0 0 .2-.34q.06-.21.06-.42c0-.13-.02-.27-.07-.39s-.13-.23-.23-.33c-.2-.18-.51-.26-.94-.26h-.69Zm7.04 4.99c-.44 0-.88-.08-1.29-.24-.37-.15-.7-.37-.99-.65a3 3 0 0 1-.63-.97 3.25 3.25 0 0 1 .01-2.43 2.96 2.96 0 0 1 1.65-1.61c.39-.15.81-.23 1.23-.23a3.24 3.24 0 0 1 1.56.41c.23.13.44.28.62.47.19.18.35.39.48.61l-1.02.64c-.16-.29-.38-.54-.66-.73-.29-.18-.64-.28-.99-.26-.27 0-.54.04-.79.14-.23.1-.44.24-.62.41-.18.18-.32.39-.41.62-.2.49-.19 1.03 0 1.52.09.23.23.44.41.61.18.18.39.32.62.41q.375.15.78.15c.38.01.75-.1 1.06-.32.29-.21.52-.48.67-.8l1.06.55c-.26.5-.65.92-1.13 1.23-.24.15-.5.27-.77.35-.28.08-.58.12-.87.12Zm3.51-6.05h3.61v1.09h-2.45v1.35h2.46v1.09h-2.46v1.37h2.46v1.09h-3.62v-5.97Zm8.55 6.05c-.44.01-.87-.09-1.26-.29-.35-.2-.65-.48-.89-.81l.55-.41c.17.28.41.52.69.69.27.16.59.24.9.23.18 0 .35-.03.52-.09.15-.05.29-.13.41-.23.11-.1.21-.22.27-.36a1.02 1.02 0 0 0-.02-.92c-.09-.13-.2-.24-.33-.32-.15-.1-.31-.17-.47-.23-.18-.07-.36-.13-.55-.2-.21-.07-.42-.14-.62-.23-.2-.08-.38-.18-.54-.31-.16-.12-.29-.28-.39-.45-.1-.2-.16-.43-.15-.66 0-.21.05-.42.15-.61s.23-.36.39-.49c.18-.14.38-.25.59-.33.24-.08.49-.12.74-.12.38-.01.76.07 1.1.24.31.16.57.39.79.66l-.52.38a1.54 1.54 0 0 0-1.38-.71c-.16 0-.32.02-.47.07-.14.05-.27.12-.38.21a.9.9 0 0 0-.25.32c-.06.12-.09.25-.09.38 0 .15.04.3.12.43.09.12.2.23.32.31.14.09.3.17.46.22.17.06.36.13.55.19.19.07.42.14.63.24.2.08.39.19.56.32.16.13.3.29.4.47.11.21.16.45.15.69 0 .22-.05.44-.14.64-.09.21-.23.39-.4.54a2.07 2.07 0 0 1-1.42.52Zm6.23 0c-.42 0-.83-.08-1.22-.24-.75-.31-1.34-.9-1.67-1.63-.16-.38-.24-.78-.24-1.19s.08-.82.24-1.19c.32-.73.92-1.32 1.67-1.63.39-.16.8-.24 1.22-.24s.83.08 1.22.24c.37.16.71.38.99.66.29.28.51.61.67.97.16.38.25.78.25 1.19s-.08.82-.25 1.19c-.16.36-.39.69-.67.97q-.435.42-.99.66-.585.24-1.23.24Zm0-.61c.34 0 .67-.06.98-.2.29-.13.56-.31.78-.53.46-.47.71-1.09.71-1.74s-.26-1.27-.71-1.74c-.22-.23-.49-.41-.78-.53-.31-.13-.64-.2-.98-.2s-.67.07-.98.2c-.29.13-.56.31-.78.53-.46.47-.71 1.09-.71 1.74s.26 1.27.71 1.74c.22.23.49.41.78.53.31.13.64.2.98.2m4.48-5.44h.65v5.35h2.72v.61h-3.37zm6.57 6.05c-.29 0-.57-.05-.83-.16-.25-.1-.47-.25-.65-.43s-.33-.4-.43-.64c-.1-.25-.15-.53-.15-.8v-4.01h.65v4.05c0 .19.04.37.11.54a1.39 1.39 0 0 0 1.04.82c.28.05.57.02.84-.08.17-.07.32-.17.46-.3.13-.13.24-.28.31-.45s.1-.35.1-.53v-4.05h.65v4.02q0 .405-.15.78c-.15.375-.25.47-.44.67-.19.19-.41.33-.66.43-.27.1-.55.15-.84.14Zm5.2-5.46h-1.83v-.59h4.31v.59h-1.83v5.38h-.65zm3.87-.59h.65v5.97h-.65zm5.21 6.05c-.42 0-.83-.08-1.22-.24-.75-.31-1.35-.9-1.67-1.63-.16-.38-.24-.78-.24-1.19s.08-.82.24-1.19c.32-.73.92-1.32 1.67-1.63.39-.16.8-.24 1.22-.24s.83.08 1.22.24c.75.31 1.35.9 1.67 1.63.16.38.25.78.25 1.19s-.08.82-.25 1.19a3.1 3.1 0 0 1-1.67 1.63c-.38.16-.8.24-1.21.24Zm0-.61c.34 0 .67-.06.98-.2.29-.13.56-.31.78-.53.46-.47.71-1.09.71-1.74 0-.33-.06-.65-.19-.95-.12-.29-.3-.55-.52-.78s-.49-.41-.78-.53c-.31-.13-.64-.2-.98-.2s-.67.07-.98.2c-.29.13-.56.31-.78.53-.46.47-.71 1.09-.71 1.74s.25 1.27.71 1.74c.22.23.49.41.78.53.31.13.64.2.98.2Zm4.48-5.44h.72l3.59 4.95v-4.95h.65v5.97h-.69l-3.62-5v5h-.65z"/><path id="brand" d="M63.74 6.59h5.96c1.86 0 3.5.27 4.93.82 1.36.5 2.59 1.27 3.63 2.26.99.96 1.75 2.11 2.24 3.39.52 1.36.78 2.79.76 4.24.01 1.46-.27 2.9-.84 4.25-.54 1.28-1.34 2.43-2.35 3.39-1.04.97-2.26 1.74-3.6 2.25-1.46.56-3.02.84-4.6.82h-6.14V6.59Zm4.17 3.79v13.85h1.49c1.09.02 2.17-.16 3.19-.53.9-.32 1.72-.81 2.43-1.45.67-.62 1.19-1.37 1.54-2.2.36-.87.55-1.81.54-2.75a7.8 7.8 0 0 0-.48-2.79c-.31-.83-.81-1.57-1.45-2.19-.7-.65-1.54-1.14-2.46-1.44-1.13-.36-2.31-.54-3.49-.51h-1.31ZM90.37 28.3c-1.1.01-2.2-.19-3.22-.6-.93-.37-1.77-.92-2.47-1.62-.71-.7-1.26-1.52-1.63-2.43-.4-.94-.6-1.96-.59-2.98 0-1.02.2-2.04.61-2.98a7.7 7.7 0 0 1 4.13-4.05c.96-.4 2-.61 3.05-.6 1.07-.01 2.14.19 3.13.59.92.37 1.75.93 2.44 1.63.68.7 1.22 1.52 1.59 2.42.38.94.58 1.95.57 2.96v1.47H86.42c.21.78.69 1.47 1.36 1.95s1.54.72 2.62.72c.78.01 1.56-.2 2.21-.62a4 4 0 0 0 1.47-1.67l3.27 1.91a7.7 7.7 0 0 1-2.71 2.82c-1.17.72-2.59 1.08-4.27 1.08m-.09-11.73c-.8-.02-1.59.2-2.26.65-.62.42-1.11 1-1.42 1.67h7.25a3.33 3.33 0 0 0-1.33-1.74c-.67-.41-1.45-.61-2.24-.58m16.15 11.73c-.85 0-1.68-.17-2.47-.47-.9-.33-1.73-.84-2.43-1.49s-1.26-1.43-1.65-2.29c-.45-.96-.67-2.08-.67-3.37s.22-2.42.66-3.37c.4-.9.98-1.72 1.71-2.39.68-.62 1.48-1.1 2.35-1.41.82-.3 1.69-.45 2.56-.46.89-.02 1.77.15 2.59.48.7.29 1.34.72 1.87 1.25v-1.44h4.1v14.67h-4.1v-1.64c-.53.59-1.18 1.06-1.9 1.39-.82.37-1.72.56-2.62.54m.8-3.7c.53 0 1.06-.1 1.54-.31.46-.2.87-.49 1.21-.85.34-.37.61-.8.79-1.26.38-.99.38-2.09 0-3.08-.18-.46-.45-.89-.79-1.25-.35-.37-.78-.66-1.25-.85-.47-.2-.99-.3-1.5-.29-.55 0-1.09.09-1.6.29-.48.19-.91.47-1.27.82-.36.36-.65.78-.84 1.25-.4 1.01-.4 2.13 0 3.14.19.47.48.89.84 1.25.38.37.83.66 1.32.85.49.2 1.02.29 1.56.29Zm14.02-18.01v21.42h-4.1V6.59zm9.55 21.71c-1.1.02-2.2-.19-3.23-.6-.93-.37-1.77-.92-2.47-1.62-.71-.7-1.26-1.52-1.63-2.43-.39-.94-.6-1.96-.59-2.98 0-1.02.2-2.04.61-2.98a7.67 7.67 0 0 1 4.14-4.05c.96-.4 2-.61 3.05-.6 1.07-.01 2.14.19 3.13.59.92.37 1.75.93 2.44 1.63.68.7 1.22 1.52 1.59 2.42.38.94.58 1.95.57 2.96v1.47h-11.56c.21.78.69 1.47 1.36 1.95s1.54.72 2.62.72c.78.01 1.56-.2 2.22-.62.64-.41 1.15-.99 1.47-1.68l3.26 1.91a7.7 7.7 0 0 1-2.71 2.82c-1.17.72-2.59 1.08-4.27 1.08Zm-.09-11.73c-.8-.02-1.59.2-2.26.65-.62.42-1.11 1-1.42 1.67h7.25a3.33 3.33 0 0 0-1.33-1.74c-.61-.39-1.36-.58-2.24-.58m9.38-3.23h4.07v2.41c.35-.73.9-1.34 1.59-1.78q1.02-.63 2.55-.63h1.5v3.9h-2.46q-1.65 0-2.4.9c-.5.6-.75 1.58-.75 2.95v6.92h-4.1zm17.46-6.75h4.16v21.42h-4.16zm6.71 6.75h4.07v1.64c.47-.6 1.08-1.09 1.78-1.42.73-.35 1.54-.52 2.35-.51 1.77 0 3.16.53 4.16 1.59s1.5 2.54 1.5 4.43v8.95h-4.16v-8.43c0-1-.23-1.77-.69-2.3s-1.15-.81-2.07-.81c-.38 0-.75.07-1.09.21-.35.14-.66.36-.91.62-.56.56-.84 1.45-.84 2.68V28h-4.1V13.33Zm21.95 14.96c-1.82 0-3.28-.34-4.4-1.01a6.08 6.08 0 0 1-2.49-2.95l3.92-1.49c.23.62.66 1.15 1.23 1.51.58.33 1.25.5 1.92.48.68 0 1.19-.13 1.54-.4.35-.26.52-.58.52-.92 0-.1-.02-.19-.07-.28a.6.6 0 0 0-.19-.22c-.21-.16-.44-.27-.69-.35-.33-.11-.67-.2-1.02-.26-.39-.08-.8-.16-1.24-.23-.67-.11-1.33-.27-1.98-.47-.61-.18-1.19-.45-1.72-.79-.51-.33-.93-.77-1.23-1.29-.31-.53-.46-1.18-.46-1.97 0-.61.15-1.21.43-1.76.3-.58.72-1.08 1.24-1.48a6.6 6.6 0 0 1 1.93-1.01c.82-.26 1.67-.38 2.53-.35 1.67 0 3.02.31 4.03.94.98.6 1.79 1.45 2.32 2.46l-3.62 1.5c-.2-.49-.56-.9-1.02-1.17-.53-.3-1.13-.45-1.74-.43-.68 0-1.17.12-1.48.35-.14.09-.26.22-.34.37s-.12.31-.13.48c0 .33.23.58.7.75.79.25 1.59.44 2.41.58.64.12 1.28.28 1.9.47.62.18 1.21.46 1.75.81.51.34.95.78 1.27 1.3.33.53.49 1.18.49 1.97a4 4 0 0 1-.39 1.67c-.27.61-.67 1.15-1.17 1.6-.58.51-1.25.92-1.98 1.19-.9.33-1.86.47-2.82.43Zm16.66 0a7.4 7.4 0 0 1-2.67-.45c-.73-.27-1.37-.71-1.89-1.28v8.18h-4.1V13.34h4.1v1.67c.51-.59 1.14-1.07 1.84-1.41.83-.39 1.74-.58 2.66-.56.87 0 1.74.16 2.56.46.87.3 1.67.78 2.34 1.41.72.68 1.29 1.49 1.69 2.39.44.96.66 2.08.66 3.37s-.23 2.42-.68 3.37c-.4.9-.99 1.71-1.72 2.38-.67.61-1.46 1.09-2.32 1.41-.79.3-1.62.46-2.47.47m-.84-3.7c.54 0 1.07-.1 1.57-.31.61-.26 1.14-.66 1.56-1.16a3.94 3.94 0 0 0 .72-3.65c-.19-.62-.54-1.19-1-1.65-.36-.35-.8-.63-1.27-.82-.5-.2-1.03-.29-1.57-.29-.52 0-1.03.09-1.5.29s-.9.49-1.26.85c-.35.36-.62.78-.79 1.25-.38.99-.38 2.09 0 3.08.18.47.45.89.79 1.26.34.36.75.65 1.21.85.49.21 1.01.31 1.54.3m9.13-15.13c0-.72.22-1.31.67-1.76s1.04-.67 1.78-.67c.33-.02.66.03.97.15s.59.29.83.52c.23.23.42.51.53.81.12.3.17.63.15.95 0 .72-.23 1.3-.69 1.75q-.69.66-1.8.66c-.74 0-1.33-.22-1.78-.66s-.67-1.02-.67-1.75Zm.42 3.87h4.1v14.67h-4.1zm6.21 0h4.07v2.41c.35-.73.9-1.34 1.59-1.78q1.02-.63 2.55-.63h1.5v3.9h-2.45q-1.65 0-2.4.9c-.5.6-.75 1.58-.75 2.95v6.92h-4.1V13.34Zm18.42 14.96c-1.1.01-2.2-.19-3.22-.6-.93-.37-1.77-.92-2.47-1.62s-1.26-1.52-1.63-2.43c-.4-.94-.6-1.96-.59-2.98 0-1.02.2-2.04.61-2.98a7.7 7.7 0 0 1 4.13-4.05c.96-.4 2-.61 3.04-.6 1.07-.01 2.14.19 3.13.59.92.37 1.75.93 2.44 1.63.68.7 1.22 1.52 1.59 2.42.38.94.58 1.95.57 2.96v1.47h-11.56c.21.78.69 1.47 1.36 1.95s1.54.72 2.62.72c.78.01 1.56-.2 2.22-.62a4 4 0 0 0 1.47-1.67l3.26 1.91a7.63 7.63 0 0 1-2.71 2.82q-1.74 1.08-4.26 1.08m-.09-11.73c-.81-.02-1.6.2-2.26.65-.62.42-1.11 1-1.42 1.67h7.25a3.33 3.33 0 0 0-1.33-1.74c-.67-.41-1.45-.61-2.24-.58m8.13-1.45c0-.37.11-.72.32-1.03s.5-.54.85-.68.73-.18 1.09-.11c.37.07.7.25.97.51.26.26.45.59.52.95s.04.73-.11 1.07c-.14.34-.38.63-.69.83a1.95 1.95 0 0 1-1.78.17c-.23-.09-.44-.23-.62-.4s-.32-.38-.41-.6c-.1-.23-.14-.47-.14-.71m.32 0c0 .31.09.6.27.86a1.6 1.6 0 0 0 1.62.66 1.54 1.54 0 0 0 1.24-1.21c.06-.3.03-.61-.09-.89s-.32-.52-.58-.7a1.62 1.62 0 0 0-1.49-.14c-.19.08-.37.19-.51.34-.15.14-.26.31-.34.5s-.12.39-.12.59Zm2.08 1.07-.56-.84h-.35v.84h-.33v-2.12h.89c.42 0 .74.25.74.65 0 .15-.05.3-.15.42s-.24.19-.4.21l.58.85h-.41Zm-.91-1.86v.73h.55c.05 0 .1 0 .15-.02s.09-.04.13-.08a.35.35 0 0 0 .12-.27c0-.05 0-.1-.02-.15a.38.38 0 0 0-.22-.21c-.05-.02-.1-.02-.15-.02h-.55Z" class="st0"/><g id="icon"><path fill="#0093c5" d="M42.03 0H7.79C3.49 0 0 3.42 0 7.63v33.53c0 4.22 3.49 7.63 7.79 7.63h34.24c4.3 0 7.79-3.42 7.79-7.63V7.63c0-4.22-3.49-7.63-7.79-7.63"/><path d="M37.45 23.43v7.83c0 .46-.19.9-.52 1.22a1.8 1.8 0 0 1-1.24.51c-.47 0-.91-.18-1.24-.51-.33-.32-.52-.76-.52-1.22v-4.51l-5.57 4.05-2.86 2.09-4.71 3.43h6.56l-1.3-2.4 2.86-2.09.22.41 2.7 5s.04.08.06.13c.03.06.05.12.07.19.01.04.03.08.04.13 0 .02 0 .04.01.06 0 .04.01.09.02.13 0 .06.01.12.01.17v.22c-.01.11-.04.21-.07.32-.01.05-.03.1-.05.14-.02.05-.05.1-.08.14-.03.05-.06.1-.09.14v.01l-.1.12s-.07.08-.1.11l-.03.03c-.07.07-.14.13-.22.18l-.03.02s-.08.05-.13.07h-.01l-.03.02c-.03.02-.07.03-.1.05-.06.03-.13.05-.19.07-.04.01-.09.03-.13.03-.02 0-.04 0-.06.01l-.13.02H15.32q-.105 0-.21-.03c-.05-.01-.1-.02-.15-.04h-.02s-.1-.03-.15-.05-.1-.05-.15-.07a1 1 0 0 1-.12-.07l-.05-.03-.12-.09c-.04-.03-.08-.07-.12-.11s-.08-.08-.11-.12a.4.4 0 0 1-.06-.07c-.01-.02-.03-.03-.04-.05 0 0-.01-.02-.02-.03-.03-.04-.05-.09-.08-.13-.03-.05-.05-.09-.08-.14-.02-.06-.04-.11-.05-.15-.02-.05-.03-.1-.04-.15v-.04c0-.04-.01-.09-.02-.13v-.02c0-.06-.01-.11-.01-.17v-.18c0-.07.02-.14.03-.2.01-.05.02-.1.04-.14s.04-.11.06-.16.05-.1.08-.14c.03-.05.06-.1.09-.14.06-.09.14-.18.22-.25.04-.04.08-.08.12-.11.02-.02.04-.04.07-.06l9.42-6.86 2.86-2.09 7.95-5.8c.3-.22.66-.33 1.03-.34.37 0 .73.11 1.04.31a1.71 1.71 0 0 1 .75 1.49v.04Zm-11.31 3.26-2.62 1.91-.26.19-5.57-10.31-.47-.87v10.67c0 .46-.19.9-.52 1.22a1.76 1.76 0 0 1-1.79.42c-.36-.11-.67-.33-.89-.63s-.34-.65-.34-1.02V10.39s.01-.08.02-.12v-.03c.05-.21.13-.4.25-.58l.04-.05c.07-.07.14-.14.22-.21l.02-.02c.11-.1.24-.2.38-.27.04-.02.09-.04.13-.06h.01l.27-.09h.1l.12-.02h.45s.08.01.12.02h.03c.21.05.4.13.58.25l.02.02.03.02.21.18.02.02c.07.08.14.16.19.25.03.04.05.09.08.13l9.12 16.87Zm11.56-8.58c0 .34-.1.67-.3.95-.19.28-.47.5-.79.63s-.67.16-1.01.1c-.34-.07-.65-.23-.9-.47s-.41-.55-.48-.88-.03-.68.1-.99.36-.58.65-.77a1.78 1.78 0 0 1 2.21.21c.33.32.51.76.51 1.21Z" class="st0"/></g></svg>