<svg height="277.102353" viewBox="0 0 14.856628 11.412913" width="360.877484" xmlns="http://www.w3.org/2000/svg" xmlns:xlink="http://www.w3.org/1999/xlink"><clipPath id="a"><path d="m1.566406 1.1875h41.363282v25.8125h-41.363282zm0 0"/></clipPath><clipPath id="b"><path d="m4 27h6v5.789063h-6zm0 0"/></clipPath><clipPath id="c"><path d="m19 27h7v5.789063h-7zm0 0"/></clipPath><clipPath id="d"><path d="m35 27h7v5.789063h-7zm0 0"/></clipPath><clipPath id="e"><path d="m0 0h44v34h-44z"/></clipPath><symbol id="f" overflow="visible"/><symbol id="g" overflow="visible"/><g transform="translate(156.2534 99.704108)"><g transform="matrix(.35277778 0 0 .35277778 -549.40326 -317.81607)"><use height="100%" width="100%" x="297.63449" xlink:href="#g" y="298.6156"/><use height="100%" width="100%" x="541.28699" xlink:href="#f" y="298.57361"/><use height="100%" width="100%" x="541.28387" xlink:href="#f" y="452.5351"/><use height="100%" width="100%" x="324.03885" xlink:href="#f" y="466.53159"/><use height="100%" width="100%" x="479.89035" xlink:href="#f" y="466.53159"/><use height="100%" width="100%" x="541.29645" xlink:href="#f" y="466.53159"/></g><g clip-path="url(#e)" transform="matrix(.35277777 0 0 .35277777 -156.6737 -99.99074)"><g clip-path="url(#a)"><path d="m4.71875 24.148438c0-1.132813.230469-2.179688.230469-2.777344 0-1 .128906-1.695313.261719-2.042969.296875-.804687 1.25-.949219 1.984375-1.375.980468-.570312 1.28125-1.671875 1.28125-3.136719 0-1.652343.230468-2.03125.597656-2.503906.019531-.02734.035156-.04297.058594-.04297.019531 0 .035156.02344.039062.07422.144531 1.269531.5625 2.566406 1.726563 3.988281.726562.890625 1.710937 1.546875 2.082031 1.695313.03516.01563.05078.04297.01563.06641-.71875.46875-1.5625.527344-1.941406.683594.01953-.07031.0625-.246094.0625-.472656 0-.632813-.476563-1.082032-1.132813-1.082032-.722656 0-1.617187.492188-1.859375 2.472657-.035156.28125-.117187.394531-.300781.683593-.160156.25-.65625 1.035157-.78125 1.359375-.113281.292969-.21875.644532-.21875.945313 0 .304687.226562.421875.484375.519531.289062.109375.664062.359375.792969.667969.074218.171875.21875.183594.378906.25.164062.0625.257812.226562.273437.335937-.207031.0078-.351562.03516-.519531.144532-.019531-.03516-.054687-.05859-.078125-.07031 0-.289062-.226562-.476562-.34375-.527344-.132817-.441413-.789067-.484382-1.066411-.789069-.035156 0-.054688.03516-.054688.05078.1875.402344.722657.285156.9375.863281.019532.04687.296875.128907.3125.390625-.179687.0078-.351562.144532-.441406.316407-.125 0-.269531.03125-.386719.152343-.074218-.042967-.167968-.179686-.261718-.324217-.359375-.558594-1.117188-.382813-1.375-.671875-.21875-.238282-.195313-.773438-.195313-1.003907 0-.07422.00781-.15625.00781-.15625-.054688 0-.105469.01563-.117188.164063-.027344.335937-.03125 1.035156.203125 1.257812.285156.273438.976563.128907 1.179688.605469.066406.148438.136718.425781.304687.601563h-1.609372c-.417969-.246094-.53125-.84375-.53125-1.3125m10.65625-3.078125c0-.09375.148438-.234375.242188-.234375.125 0 .351562.34375.351562.460937 0 .117188-.164062.273438-.261719.273438-.105468 0-.332031-.335938-.332031-.5m-3.910156-4.601563c-1.347656-1.46875-1.972656-3.210937-1.972656-4.550781.1875-.253906.242187-.679688.242187-.898438 0-.167968.199219-.269531.402344-.269531.390625 0 1.066406.347656 1.179687 1.308594.25 2.085937.84375 3.042969 1.945313 3.996094.601562.523437.980469.859375.980469 1.164062 0 .300781-.164063.570313-.582032.570313-.863281 0-1.785156-.871094-2.195312-1.320313m-3.105469 3.542969c.246094-1.65625.828125-2.464844 1.589844-2.464844.664062 0 .816406.46875.816406.875 0 .894531-1.414062 1.742188-2.238281 1.742188-.101563 0-.167969-.05469-.167969-.152344m.628906 5.449219c.101563-.242188.203125-.488282.203125-.828125 0-.355469-.261718-.761719-.6875-.878907l-.082031-.035156c-.226562-.523437-.570312-.773437-1.132812-.96875-.082032-.027344-.085938-.105469-.082032-.164062.019532-.253907.105469-.523438.183594-.707032.164063-.40625.386719-.742187.671875-1.089843.113281-.140625.28125-.152344.375-.167969.363281-.054688 1.089844-.230469 1.566406-.519531.308594-.183594.683594-.546875.820313-.707032.386719-.460937 1.328125-.199218 2.675781-1.109375.496094.175782 1.15625.714844 1.234375 1.417969.05469.488281-.0039 1.175781.195313 1.683594.08594.257812.449218.671875.585937.832031.132813.164063 1.371094 1.792969 2.269531 3.0625.02344.03125.07422.109375.144532.179688zm-.582031-.710938c.082031-.08203.351563-.199219.351563.04687 0 .214844-.183594.460938-.183594.460938-.007813-.23437-.167969-.507808-.167969-.507808m-.15625.203125s.035156.05078.050781.117188c.03125.109375.019532.238281-.058593.320312h-.242188c.097656-.08594.195313-.253906.25-.4375m-.328125.242188s-.00391-.109375-.089844-.222657c-.03125-.03906-.089843-.07422-.136718-.09766.027343-.07422.128906-.179687.238281-.179687.082031 0 .105469.0625.105469.15625 0 .128906-.046875.242187-.117188.34375m-.660156.01172c0-.08594.066406-.15625.171875-.15625.121094 0 .195312.05859.195312.160157 0 .109375-.0625.125-.195312.125-.152344 0-.171875-.06641-.171875-.128907m1.675781-14.824216c-3.648437-1.007813-6.945312-3.757813-6.945312-6.382813 0-1.441406.8125-2.449219 2.183593-2.449219 1.542969 0 1.847657.980469 1.976563 1.726563.050781.222656.128906.390625.355469.597656.222656.207031-.078125 1.050781-.28125 1.050781-.113282 0-.179688-.285156-.328125-.429687-.210938-.203125-.246094-.414063-.246094-.601563 0-.183593.054687-.296875.054687-.433593 0-1.027344-.617187-1.523438-1.53125-1.523438-.945312 0-1.710937.609375-1.710937 2.0625 0 2.765625 4.675781 5.328125 6.789062 5.328125 1.320313 0 2.160157-1.128906 4.730469-1.128906 1.457031 0 3.605469.558594 6.75.558594 3.523438 0 4.289063-.179688 5.378906-.59375-.0078.109375-.03516.242187-.08203.378906-.01172.035156-.01172.054687.03516.058594.25.023437.585938-.011719.796875-.132813-.07813.136719-.136718.222656-.171875.34375-.01172.035156-.0078.050781.03125.050781.05078 0 .101563-.00781.148438-.019531-.082036.21875-.121099.449219-.121099.675781v.00781c0 .46875.230469 1.25.875 1.890625.214844.210937.457031.394531.730469.550781-.289063.117188-.582031.285156-.726563.484375-.01563.01953-.01563.03125.0039.04687.08594.05469.1875.160156.257812.226563-.08984.05469-.230469.210937-.308594.335937-.335937.08594-.824218.335938-.96875.4375-.121093.08984-.128906.175781-.07813.277344-.300781.132812-.761718.300781-.867187.582031-.128906.08203-.402344.179688-.5625.273438-.261719-.152344-.851563-.1875-1.183594-.105469-.28125-.28125-1.398437-.710938-1.964844-.742188-.390625-.371093-.898437-.457031-.976562-.460937-.148438-.01172-.195313.02734-.121094.1875-.226562-.0625-.472656-.08984-.691406-.07422-.03516 0-.05078.01953-.03516.07422.03125.136719.140625.308594.203125.375-.117188 0-.253907.01953-.324219.05078-.04297.02344-.03906.04297-.0078.09375.152344.246094.457032.546875.664063.707031-.07422.01953-.09766.05078-.08203.08594.203125.375.902343.769531 1.292968.90625.09375.308594.898438.757812 1.464844.769531.234375.230469.742188.324219 1.160156.222656.527344.246094 1.1875.148438 1.792969-.28125l.03516.01953c.363282.222656 1.125.242187 1.351563.160156.296875.101562.828125.140625 1.238281.07422 0 0 .05859.05859.195313.08203.140625.02344.183593.03125.433593.04297.01172 0 .0078.01172.0078.02344-1 .0625-2.148438.0039-2.351563.01563-1.265625.07813-1.183593.539063-4.101562.539063-2.058594 0-3.796875-.550782-4.230469-.785157-.0039-.0039-.1875-.292968-.1875-.660156 0-.476562.246094-.640625.515625-.640625.140625 0 .242188 0 .242188-.07031 0-.05078-.05859-.125-.34375-.125-.304688 0-.804688.265625-.804688.910156 0 .578125.265625 1.027344.300781 1.195312.03906.167969.05078.289063 0 .425782-.308593-.464844-.71875-.789063-1.195312-.789063-.652344 0-1.085938.421875-1.085938 1.035156 0 .65625.273438 1.070313.710938 1.425782.296875.246093.757812.601562.757812.601562.132813.105469.226563.300781.25.433594.199219 1.214844.542969 2.199219 1.449219 3.234375.132813-.152344.378906-.292969.679688-.292969.59375 0 .882812.46875.945312.738281 0 0 .246094-.0078.378906.195313-.03516.08203-.08203.15625-.15625.21875-.121093-.144531-.230468-.207031-.390625-.257813.03906-.253906-.4375-.644531-.601562-.644531-.04297 0-.105469.01563-.140625.05859.121094.04687.539062.328125.539062.566406 0 .261719.277344.1875.382813.417969-.07813.07031-.195313.140625-.285156.1875.0625.132812.132812.414062.132812.675781l-.08203.0078h-2.128906c-.542969-.292969-2.566407-3.25-2.867188-3.609375.09766-.05078.355469-.15625.355469-.523438 0-.253906-.359375-.722656-.605469-.722656-.105469 0-.222656.06641-.269531.121094-.05469-.25-.01172-.519532-.01953-.78125-.027335-.964829-.476554-1.535142-1.101554-1.968735.1875-.144532.347656-.355469.347656-.65625 0-.550782-.660156-1.0625-1.238281-1.582032-.9375-.839843-1.449219-2.207031-1.613281-3.4375-.195313-1.425781-.789063-1.882812-1.71875-1.882812-.21875 0-.65625.06641-1.089844-.03516m17.453125-2.328121c.3125-.152344.679688-.34375.867188-.476563-.04297.234375-.160157.496094-.289063.578125-.09766.058594-.371094.207031-.628906.238281.03125-.09375.05078-.191406.05078-.339843m1.191406-.601563c.132813-.121094.261719-.152344.5-.097656 0 0-.1875.246094-.246093.480469-.07031.03125-.132813.066406-.195313.101562-.08594.027344-.164062.03125-.226562.015625.105468-.117187.140625-.304687.167968-.5m.78125-.65625c-.003905.101563-.035155.214844-.11328.304688l-.253906-.007813c.117187-.074219.277344-.1875.367187-.296875m.289063-.207031c.203125-.15625.550781-.4375.785156-.691406-.113281.199218-.238281.671875-.257812.839843-.09375.152344-.5625.363282-.648438.363282.07422-.144532.117188-.328125.121094-.511719m1.136719-.78125c.183593-.042969.496093-.113281.699218-.195313.03125-.019531.04297.015625.03125.050782-.0078.03125-.07813.28125-.136718.421875-.09375.234375-.328125.378906-.859375.546875-.03516.015625-.06641-.00391-.06641-.035157.07031-.289062.152344-.574218.332032-.789062m.933593-1.019531.01563.019531c-.01172.191406-.02344.382812-.125.527344-.226562.070312-.578125.1875-.730468.203125.1875-.132813.632812-.535157.839843-.75m.746094.476562c-.03516.1875-.105469.441406-.136719.558594-.09766.339844-.117187.394531-.53125.578125-.32422.140625-.394533.058594-.394533.058594.191406-.179688.347656-.609375.417969-.863282.246094-.105468.429687-.171875.644531-.332031m-.386719-.769531c.207032-.21875.445313-.480469.683594-.664063h.01563c-.128906.199219-.246094.945313-.246094.945313-.03906.179687-.164062.324219-.609375.53125.109375-.171875.117188-.480469.15625-.8125m.980464-.59375c.05078-.085938.199219-.117188.441406-.097656-.07031.21875-.121093.488281-.140625.742187-.105468.109375-.382812.292969-.570312.328125.046875-.371094.171875-.777344.269531-.972656m.113281-.351563c.996094-.867187 2.535157-1.769531 3.738282-1.769531.847656 0 .996093.179688 1.136718.316406.0078.3125-.01953.589844-.06641.851563-.320312.089844-.714844.265625-.503906.605469 0 0-.07813.035156-.148438.089843-.050777.035157-.109371.121094-.109371.121094-.140625-.007812-.394531-.019531-.578125-.265625-.152343-.210937-.289062-.351562-.445312-.449219.425781-.300781.828125-.351562 1.300781-.109375.03516-.015625.07031-.03125.121094-.050781-.06641-.21875-.414063-.429687-.769531-.429687-.582032 0-.980469.527343-1.34375.660156-.01563.03125-.01563.046875-.01563.066406.101562.050781.132812.152344.1875.238281.167968.339844.488281.769532.914062.820313-.05078.117187-.08203.328125-.08984.425781-.296875.167969-.84375.742188-1.101562.871094.06641-.34375.08984-.621094.08984-.621094s-.429688.308594-.601563.375c-.02734.011719-.04687-.00781-.04297-.046875.01563-.132812.113282-.691406.113282-.691406s-.382813.347656-.65625.445312c-.04297.015625-.07422-.023437-.07422-.042968-.01563-.214844.203125-.992188.203125-.992188s-.597656.347656-.71875.410156c-.03906.019532-.0625 0-.05859-.027343.01172-.199219.121094-.753907.121094-.753907s-.460938-.019531-.601563-.03125zm5.140625-1.421875c.695313.039063 1.570313.40625 2.210938.828125-.07422.203125-.09766.253907-.210938.253907-.121093 0-.648437-.5-1.296875-.5-.410156 0-.707031.269531-.707031.691406 0 .257812.183594.671875.785156.675781.132813.00391.269532-.023437.386719-.070312-.01953.074218.01172.199218.05469.253906-.128909-.011719-.33594-.050781-.464846-.050781-.441406 0-.664063.25-.664063.609375-.105468.128906-.15625.261718-.15625.421875 0 .421875.445313.675781.886719.675781.757813 0 1.507813-.628906 1.925781-1.160156.339844-.0625.808594-.238282.996094-.238282.160156 0 .285156.082032.535156.292969-.03516.015625-.08984.046875-.117187.070313-.175781-.128907-.402344-.203125-.589844-.203125-.164062 0-.316406.066406-.421875.164062-.0078.00781-.08203.00781-.1875.058594-.183594.085937-.246094.199219-.316406.308594.511719.03125.992187.421875 1.300781.773437.03516.035156.05859.097656.01953.160156-.01953.027344-.05859.019532-.140625-.046875-.83203-.835937-1.453124-.785156-1.632811-.265625.558594.09375.933594.378907 1.289062.789063 0 .015625-.03516.023437-.06641.019531-.40625-.050781-.722656-.558594-1.175781-.558594-.269531 0-.5.132813-.578125.378907-.07813-.023438-.1875-.050782-.261719-.070313-.08984-.027344-.125-.00781-.183594.046875-.675781.613281-.757812.78125-.640625 1.558594.132813.875.246094.945312 1.640625 1.300781.01172.238281-.05469.417969-.480468.417969-.332032 0-.617188-.171875-.882813-.171875-.203125 0-.449219.109375-.582031.00391-.171875-.128906-1.210938-1.257812-1.210938-3.152344 0-1.730468.96875-2.527343.9375-4.265625m2.449219.898438c.105469-.035156.25.070312.257813.269531-.05078.050781-.207032-.035156-.390625-.042969.0625-.03125.08594-.171875.132812-.226562m1.019531.886719c-.355464.210933-.792964.394527-1.242183.378902.02344-.039063.03906-.128906.03125-.175781.230469.070312.472656.027343.441406-.140625-.339844.113281-.460937-.386719-.957031-.386719-.519531 0-.914063.414062-1.320313.160156-.121093-.085937-.167968-.222656-.167968-.359375 0-.269531.191406-.457031.460937-.457031.46875 0 .828125.441406 1.320313.480469.210937.015625.3125.023437.464843.066406.15625.042969.234375.015625.332032-.027344.222656.09375.492187.277344.636718.460938m-2.046875.15625c0-.226563.160157-.320313.34375-.320313.175782 0 .316407.125.316407.339844 0 .152344-.152344.289062-.316407.289062-.203125 0-.34375-.132812-.34375-.308593m1.035157.734375c-.363282.441406-1.140625.894531-1.617188.894531-.5 0-.78125-.390625-.648437-.640625.136718.210937.394531.34375.648437.34375.5625 0 1.140625-.507813 1.617188-.597656m1.3125-.722657c.207031-.085937.734375.296875.871093.542969-.03125.054688-.152343.09375-.214843.121094-.199219-.214844-.46875-.40625-.644532-.394531-.324218.015625-.605468.164062-1.203125.253906-.636718.097656-1.265625.574219-1.726562.574219-.355469 0-.527344-.179688-.527344-.402344 0-.304688.226563-.371094.507813-.371094.320312 0 .597656.179688.90625.179688.140625 0 .269531-.035157.355468-.089844.882813 0 1.40625-.300781 1.675782-.414063m1.355468 1.300782c0 .140625-.191406.378906-.222656.378906-.03516 0-.117187-.023438-.152344-.050781 0-.566407-.457031-.347657-.457031-.59375 0-.117188.300781-.105469.472656-.238282.125.058594.359375.363282.359375.503907m-.992187.375c0 .074218-.08594.101562-.132813.050781-.253906-.273438-.628906-.589844-1.015625-.695313.285157-.28125 1.148438.238282 1.148438.644532m-.085938-.503907c-.191406-.179687-.464843-.320312-.703125-.363281.199219-.128906.515625-.046875.699219.09375-.05859.082031-.04687.199219.0039.269531m-.664056 1.011719c-.222656-.234375-.539063-.464844-.914063-.550781.21875-.269531.890625.097656 1.28125.554687.07031.082032.05859.148438.02734.183594-.105469.101563-.324219-.117187-.394531-.1875m.328129.734375c-.05469 0-.08594-.027344-.07422-.054687.09375-.210938.183594-.238282.289063-.304688.109375-.0625.02344-.265625.171875-.320312.117187-.042969.148437-.144532.15625-.222657.0078-.078125.09766-.164062.117187-.25.117188.089844.175781.242188.175781.242188-.035155.089844-.429686.910156-.835936.910156m-.332031-.058594c-.480469-.117187-1.417969-.398437-1.492188-.417968.05469-.167969.21875-.238282.414063-.238282.265625 0 .632812.441407 1.078125.5.04297.00391.05469.03125.05469.070313 0 .046875-.02734.089844-.05469.085937m-.640625.703125c-.03906 0-.04687-.035156-.04687-.089843 0-.121094.07813-.386719.160156-.527344.08594.027344.289062.097656.425781.140625-.117187.164062-.40625.476562-.539062.476562m-.23438-.574218c-.09375 0-.15625-.144532-.222657-.144532-.05859 0-.05078.089844-.191406.027344-.06641-.03125-.179687-.121094-.183594-.226562.15625.050781.632813.203125.769532.246093-.03516.066407-.08984.097657-.171875.097657m-1.511719.617187c.09766.773438.160156.808594.960937 1.292969.0078.00391.0039.011719-.0039.00781-.976562-.304687-1.003906-.34375-1.121094-1.019531-.136718-.789062-.0078-.808594.503907-1.375.01953-.019531.03125-.027344.07813-.011719.05078.011719.06641.023438.132812.039063-.503906.601562-.59375.71875-.550781 1.066406m.242187.082031c-.0625-.355468-.05469-.363281.253907-.78125-.04297.375-.02344.777344.01563.984375-.101579-.023435-.242204-.050779-.269548-.203123m.886719.527344c.144531.160156.101563.429688.03516.558594-.062504-.042969-.195316-.136719-.238285-.175781.066406-.09375.164063-.242188.203125-.382813m-1.523437 3.230469c.05078.230469.08984.488281.113281.777344-.05078.171875-.164063.394531-.195313.421875-.03516.03516-.06641.0039-.09766-.03516-.109375-.167968-.277344-.5-.246094-.675781.140625-.05469.355469-.304687.425782-.488281m.140625 1.425781c0 .144531-.01172.289063-.03125.433594-.07031.101562-.171875.199219-.207032.199219-.05078 0-.09766-.06641-.121093-.109375-.08594-.152344-.199219-.402344-.234375-.496094.01563-.03125.06641-.140625.08203-.191406.05469.105468.144531.261718.207031.328125.04687.04687.0625.05859.109375.0039.07031-.07813.160156-.234375.195313-.332031v.164062m-.390625 1.605469c-.06641.02344-.152344.03125-.203125-.02344-.08984-.08984-.148438-.289062-.171875-.351562.08594-.101563.238281-.304688.285156-.429688.0625.09375.152344.128907.207031.128907.02734 0 .09375-.03516.160156-.08203-.07031.261719-.164062.515625-.277343.757813m-1.546875 2.109375c.613281 1.179687.875 2.1875 1.328125 4.144531.363281 1.570313 1.304687 2.589844 1.546875 2.679688.246093.08594 1.019531-.289063 1.375.171875.535156.769531.894531.609375.894531.992187-.07422.07031-.144531.207031-.152344.339844.132813.06641.289063.265625.289063.464844h-.46875c.01172-.02734.09375-.210938.09375-.375 0-.46875-.523438-.65625-.929688-1.308594-.02734.01172-.04687.03906-.05469.0625.101562.300781.371093.695312.546875.914062-.105469.03516-.238282.1875-.273438.289063.04297.04687.167969.273437.199219.417969h-.445313c.05078-.07813.109375-.21875.105469-.382813 0 0 .101563-.152344.101563-.273437 0-.558594-.511719-.84375-1.136719-1.054688-.789063-.269531-1.019531-.480469-1.503906-1.121094-.02344-.01172-.05078-.01563-.06641-.01563 0 .441407.410157.855469.675782 1.074219.519531.429688 1.699218.523438 1.699218 1.113281-.261718-.0625-.585937.08203-.621093.289063.05859.04297.257812.28125.277343.371094h-.609364c-.113281-.242174-.433593-.417955-.863281-.624986-.03125 0-.101562.03516-.06641.05859.246094.175782.496094.375.496094.566407h-.785153c-.203125-.335935-.851562-.683591-1.140625-1.066404.05859-.136718.05469-.585937-.125-.765625.05469.433594-.132812.679688-.414062.679688-.371094 0-.449219-.359375-.433594-.667969-.476562-.636719.0078-1.167969-.921875-2.589844-1.015625-1.546875-2.039062-2.679687-3.46875-3.828125 0 0 .324219.04297.484375.04297.464844 0 1.003906-.21875 1.410156-.421875.02734-.0078.05078-.01953.07813-.02734-.07422.117188-.152343.410157-.152343.679688 0 1.679687 2.261718 3.128906 2.808593 5.015625l.03906.0039c.261719-2.398437-1.523438-3.960937-1.523438-4.367187 0-.08984.04297-.144532.113282-.144532.507812 0 1.441406 3.597657 3.183593 4.238282.01953-.0078.03906-.02344.04687-.03516-1.242187-2.722656-1.433593-4.5625-2.632812-5.578125.511719-.04687.96875-.242187 1.332031-.574218.398438-.359375.660156-.859375.773438-1.4375.01953.04687.05078.167968.113281.214843.05078.03906.136719.0078.191406-.0078-.3125.597656-.839844 1.335937-1.414062 1.84375m5.476562 8.015625c.203125.07031.300781.566406.05469.6875-.01563-.222656-.183594-.367188-.285157-.449219.02344-.06641.160157-.222656.230469-.238281m-.863281.75c-.042968-.132821-.105468-.285164-.226562-.417977.08594-.06641.21875-.132812.320313-.07031.04687.136718.02734.40625-.09375.488281m-1.152344-.382813s.07813-.0625.167969-.0625c.101562 0 .160156.01953.203125.05078.05078.121093 0 .273437-.06641.371093-.08203-.191406-.203125-.289062-.304688-.359375m-10.75-.589843c-.03125-.238282-.179687-.410157-.605469-.5-.128902-.742188-.722652-1.097657-1.281246-1.066407.179688-.375 3.539063-2.652343 4.855469-4.566406 1.003906.738281 2.355469 2.398438 2.929688 3.527344.328125.644531.171875 1.347656.53125 1.894531 0 0 .06641.828125.625.957031.179687.04297.363281-.02734.4375-.07031.175781.308594.574218.640625.742187.824219h-8.132812c.128906-.304688.1875-.695313-.101563-1m-1.128906.417968c.08203-.02734.203125-.01563.289062.03906.05859.363281-.152343.488281-.269531.484375.09766-.273438-.01953-.523438-.01953-.523438m.507812.550782c-.03906.01953-.136718.01563-.175781-.0039.05469-.03516.148438-.132812.164063-.195312.01172.05859.02344.148437.01172.199219m.144532-.449219c-.0078-.02734.01172-.04297.03906-.0625.04297-.03125.136719-.08203.246094-.109375.128906.367187-.125.625-.238281.613281.01172-.148437-.01172-.339844-.04687-.441406m2.230468-7.75c.125.125.289063.28125.449219.425781-1.027344 1.125-3.214844 2.882813-3.65625 3.210938-.04687-.253907-.0039-.632813.113281-.910157.214844-.507812.789063-1.859375 1.097657-2.636718.660156.01172 1.253906.02344 1.996093-.08984m-1.324218-.742188c.08594-.101562.316406-.246093.492187-.328125.167969.1875.347656.355469.539063.496094-.214844.02734-.773438-.0625-.984375-.113281-.05078-.01172-.06641-.03516-.04687-.05469m-.464844-.683593c-.02734-.0078-.02734-.01953 0-.04687.132812-.121094.289062-.230469.460937-.292969.09375.167969.203125.328125.316407.480469-.06641.02734-.203125.101562-.203125.101562s-.316407-.167969-.574219-.242187m-.847656.589843c.0625-.07813.363281-.304687.527343-.390625.203125.03516.433594.113282.671875.238282l-.222656.203125c-.191406.03516-.804687.02344-.957031-.01563-.02344-.0078-.02734-.01953-.01953-.03516m-1.359387-.113286c.230468-.132812.476562-.269531.636718-.394531.265625.09766.609375.117187.855469.101562 0 0-.398437.277344-.492187.402344-.257813.05859-.789063-.01172-.996094-.07422-.02344-.0078-.02734-.02344-.0039-.03516m-1.054694-.292964c-.04297-.02344-.04297-.05469-.0078-.0625.222656-.0625.550781-.234375.765625-.351562 0 0 .390625.101562.71875.125-.121094.121094-.632813.355469-.730469.441406-.25.01172-.527344-.05859-.746094-.152344m-.828125.519532c.339844-.21875.515625-.277344.628906-.320313 0 0 .351563.121094.609375.15625-.285156.28125-.808593.304688-1.21875.21875-.03516-.01563-.03516-.03906-.01953-.05469m-.917969-.5c-.01953-.01172-.02344-.03125-.0039-.04687.09375-.07031.414063-.210938.515625-.253907.292969.125.726563.203125.878906.207032-.02344.03516-.01953.06641-.01953.09766-.09766.01563-.335937.121094-.523437.230469-.320313-.02734-.578125-.09375-.847657-.234375m.503907-.621094c-.03125.01953-.0625.06641-.07422.09375-.183594-.02734-.433594-.08203-.507813-.148438-.01953-.01172-.01563-.03125 0-.05078l.09766-.0625c.08594.04297.308593.125.484375.167969m1.726562-.101563c-.02734.04297.0078.109375.03516.140625l-.105468.04687c-.207032.121094-.367188.175782-.546875.238282-.25-.0039-.589844-.0625-.84375-.15625-.03125-.01172-.03125-.04297-.01563-.05469.144531-.117187.507812-.300781.71875-.355469.183593.0625.484375.125.757812.140625m.691406-.570312s-.01953.03906-.0039.08594c0 0-.355469.125-.539062.25-.304688-.0039-.753907-.06641-.878907-.164062-.03516-.02734-.03516-.0625.01563-.08984.121094-.0625.378907-.148437.492188-.234375.253906.08203.75.175781.914062.152344m.824219-.628906c-.0039.03906.0039.08203.03516.113281-.238281.03125-.554687.179687-.742187.296875-.332031.01953-.636719-.04297-.851563-.113281-.02734-.01172-.03516-.01563-.0078-.05469.105469-.144531.609375-.320312.757812-.378906.152344.06641.808594.136719.808594.136719m.769531-.507813.0039.01172c-.242188.06641-.457032.144531-.644532.277344-.308593-.0078-.625-.04687-.84375-.148438-.02734-.01563-.05078-.0625.01953-.09766.257812-.152344.519531-.234375.808593-.316406.179688.07031.382813.15625.65625.273437m.457032-.691406c-.01953.09766-.03125.195312-.04297.292969 0 .02734-.0039.05859-.0039.08594-.0039.01172-.0039.02344-.0039.03516-.0039.03906-.0039.07813-.0039.117188v.05469c-.269531-.02734-.609375-.25-.789062-.332031-.03516-.01563-.04297-.02734-.01563-.05859.214843-.238281.503906-.253906.859375-.195312m.167968-.652344c-.04297.125-.08203.265625-.117187.414063-.226563-.05469-.492188-.0625-.675781-.01563-.05469-.07031-.121094-.121094-.167969-.15625-.03516-.02734-.01953-.03906-.0078-.05078.09375-.08203.449219-.253906.660157-.320312.101562.04687.203125.08984.308593.128906m.699154 1.175768c.0039-.304687.109375-.679687.191406-.933593.351563.05859.722657.08984 1.113282.08984.796875 0 1.402343-.328125 1.933593-.617187.519532-.285156.96875-.527344 1.582032-.527344.429687 0 .902343.304688 1.292968.835938.382813.523437.621094 1.179687.621094 1.71875 0 .578125-.191406 1.085937-.527344 1.390625-.246093.226562-.5625.34375-.941406.34375-.05469 0-.109375-.0039-.164062-.0078-.144532-.01172-.285157-.01953-.421875-.01953-.738282 0-1.226563.195312-1.617188.351562-.324219.128907-.582031.230469-.949219.230469-.433593 0-.960937-.3125-1.375-.8125-.46875-.57423-.738281-1.316417-.738281-2.04298m-1.300781 1.652344c-.04297-.01953-.03125-.04687-.0039-.06641.152343-.121094.421875-.277344.582031-.339844.05469.171875.121094.339844.195312.503906-.214843.01563-.648437-.03906-.773437-.09766m-.917975.562508c.183594-.148437.421875-.261719.65625-.359375.203125.101563.570313.128906.8125.144531-.08594.04297-.289062.203125-.394531.320313-.289063.0625-.855469.07031-1.070313-.0625-.01563-.0078-.01953-.02734-.0039-.04297m.425781-.574219c0 .02344.0039.04687.01172.0625-.195312.08203-.476562.226563-.660156.359375-.300781-.03906-.675781-.101562-.796875-.144531-.04297-.01953-.05859-.04297-.02344-.07813.06641-.0625.378907-.226562.511719-.292969.113281.03906.398438.113282.957031.09375m.05859-1.019531c.179688-.144531.5625-.289062.824219-.335937.01563.21875.05078.441406.105469.660156-.230469.05469-.839844-.21875-.921875-.265625-.01563-.01172-.03516-.03906-.0078-.05859m.621094.527344s-.121094.06641-.179688.09766c-.05859.03125-.273437.167969-.273437.167969-.269531.03125-.710938.02734-1.019531-.08594-.02344-.0078-.02734-.02734-.01563-.04297.136718-.148438.570312-.261719.617187-.28125.08203-.03125.101563-.05859.128906-.08984.21875.105469.542969.207031.742188.234375m7.09375 6.640625h-.0039c-.492188-.871094-2.175782-2.554688-2.175782-3.753906 0-.480469.199219-.738282.535157-.8125.09375-.01172.191406-.01563.296875-.01953 1.332031.128907 2.261718 3.320313 2.964843 5.023438 0 .0039-.0078.0039-.0078.0039-1.824219-1.949219-1.773438-3.941406-2.769531-3.941406-.164063 0-.347657.128906-.347657.371094 0 .707031 1.019532 1.210937 1.507813 3.128906m-3.328125-9.988281c-.4375.238281-.839844.425781-1.347656.425781-1.15625 0-2.078125-.304688-2.65625-.886719-.476563-.472656-.601563-1.011719-.601563-1.230469.0039-.472656.324219-.972656 1.226563-.972656 1.082031 0 2.546875 1.558594 3.378906 2.664063m-1.335965-3.953123c-.08594.085937-.371093.199218-.527343.222656-.05469.011719-.105469-.015625-.07813-.113281.08984-.332032.171875-.550782.230468-.640625.191407-.054688.449219-.132813.613282-.261719-.121094.261719-.238282.792969-.238282.792969m.21875 1.175781c-.01953.078125-.05469.140625-.07422.164062-.04297-.035156-.08984-.070312-.132813-.101562.09375-.00781.195313-.046875.207031-.0625m-.324211-.382813-.023438.339844c-.08984-.066406-.179687-.128906-.273437-.191406-.0039-.00391-.0078-.011719-.0078-.015625.01953-.03125.203125-.128906.304688-.132813m-.265625-.15625c.02344-.066406.03516-.148437.01563-.226562.132812-.035156.320312-.09375.394531-.144531 0 0-.07813.171875-.08594.273437-.117203.015625-.230484.050781-.324234.097656m1.246093.667969c-.148437.023438-.425781.140625-.527343.207031-.01563-.011718-.02734-.023437-.04297-.039062.03125-.046875.152344-.234375.128906-.363281.08594-.03125.214844-.136719.285156-.207032.08203.027344.183594.042969.273438.023438-.05469.125-.09766.253906-.117188.378906m.105469.535156c.01172.054688.01172.191407-.0039.269532-.050786-.054688-.105474-.109375-.160161-.164063l-.257813-.28125c.07031-.070312.226563-.128906.304688-.15625-.01563.117188.05078.28125.117187.332031m-.664062-1.640625c.269531-.105468.636718-.394531.730468-.511718 0 0 .0039.152343.03516.214843-.156253.203125-.281253.476563-.34766.714844-.148437.125-.367187.34375-.578125.34375-.035156-.101562.054688-.542969.160157-.761719m.90625-1.324218c-.0078.101562-.04687.304687-.15625.476562-.132813.214844-.667969.574219-.730469.574219-.03906 0-.05469-.023438-.04687-.058594.03125-.160156.136719-.507812.199219-.679687.25-.023438.539062-.148438.734375-.3125m-.597657.058593c-.03125.00781-.05078-.00391-.05078-.035156 0-.03125.207031-.566406.203125-.96875.207031-.058594.554688-.285156.554688-.285156.05078-.015625.06641.00391.07031.070312.0078.683594-.1875 1.050782-.777344 1.21875m2.164063.046875c-.06641.15625-.08203.417969-.07813.683594-.101563.179688-.433594.527344-.59375.527344-.05469 0-.07031-.0625-.07031-.136719.0078-.226562.08203-.523437.08203-.523437.09766-.085938.140625-.179688.175781-.242188.207031-.066406.417969-.242187.484375-.308594m1.304687-.359375.0039.015625c-.261712.136719-.578118.480469-.578118.480469s-.152344.019531-.308594.101563c-.042969.023437-.167969.113281-.246094.203125.01172-.316407.01953-.546875.203125-.683594.1875-.132813.386719-.222656.386719-.222656.152344.050781.351562.085937.539062.105468m.734375-.523437s.01563.027344-.01953.035156c-.160156.035156-.40625.179688-.558594.304688 0 0-.378906-.0625-.429687-.113282.160156-.144531.375-.324218.5-.449218.144531.027343.441406.136718.507812.222656m.179688 3.453125c-.08984-.011719-.109375-.042969-.109375-.042969.125-.121094.269531-.34375.300781-.671875l.117188-.058594c.07031.246094.15625.464844.253906.667969-.08203.070313-.355469.128906-.5625.105469m.67578 2.570312c.0078.0625.05859.117188.09375.152344-.03516.117188-.08203.257813-.08203.394531-.0039-.0039-.0078-.0078-.01172-.0078-.08594-.128906-.175781-.253906-.269531-.371094.08594-.03516.214844-.08594.269531-.167969m-.308594-.527343s.121094-.132813.273438-.21875h.01563c.03125.105468.04687.335937 0 .527343-.07813.09766-.261719.214844-.382813.214844l-.02344-.0039c.105469-.144531.113281-.34375.117187-.519531m-.097658-.914081c.109375-.050781.277344-.089844.382813-.097656-.03906.15625-.07031.355469-.03906.507812 0 0-.253906.179688-.40625.335938-.03125.03516-.05859-.0039-.05859-.03906-.0078-.246093.01563-.5.121094-.707031m-.175788-.472659c-.175781.078125-.429688.265625-.511719.265625-.03125 0-.05469-.019531-.05469-.070313.03516-.203125.144531-.464843.230468-.652343.15625.046875.296875.046875.570313.019531-.121094.167969-.234375.4375-.234375.4375m-.507813 1.3125c-.02344.01172-.08594.0078-.08594-.06641-.0078-.292969.03516-.476563.09375-.691407.125-.070312.265625-.171875.410156-.261718 0 .042968.01563.085937.03516.101562-.101562.238281-.128906.453125-.140625.734375-.121093.04687-.292968.175781-.3125.183594m.355469.07031c.02734.0625.08594.132813.203125.121094.0039.05078-.01563.175781-.03516.222656-.04687-.03125-.09766-.0625-.144531-.09375-.0625-.05078-.125-.101562-.1875-.148437.03906-.03125.113281-.07422.164062-.101563m-1.03125-.5625c0 .08203-.01953.195313-.05469.25-.08203-.01563-.164063-.02734-.246094-.03125.148437-.06641.300781-.21875.300781-.21875m-.54296-.464837c.07813-.011719.226563-.125.273438-.1875 0 0-.0625.328125.02344.582031-.132812.125-.261718.199219-.316406.199219-.05859 0-.0625-.332032.01953-.59375m-.093752-.851563s.238282-.257812.285157-.386719c0 0 .1875.019532.300781-.00781-.04687.152344-.0625.277344-.0625.441406-.136719.375-.382813.59375-.5.59375-.0625 0-.128906-.257812-.02344-.640625m1.046877-1.968752c.136719.089844.300782.160156.476563.164063 0 0-.289063.183593-.414063.550781-.210937.089844-.421875.125-.640625.101562-.03906 0-.08984-.015625-.07031-.0625.07031-.203125.374998-.550781.648435-.753906m-.511718-.132812c.0625.00781.226562.019531.34375.00781-.05469.058594-.226563.167969-.394532.34375-.167968-.050781-.03906-.1875.05078-.351562m.9375-.644532c-.136719.132813-.257813.367188-.4375.421875-.183594.054688-.535157.015625-.585938 0-.05469-.011718-.04687-.066406-.02734-.089843.164063-.234375.445313-.453125.621094-.53125.08984.050781.253906.148437.429688.199218m.363279-.140623c-.167969-.023437-.515625-.148437-.597656-.210937-.03516-.023438-.01953-.050781.0078-.078125.121094-.101563.457031-.277344.675781-.285156-.03906.179687-.07031.371093-.08594.574218m-.0078.367188c-.0039.070312 0 .140625.0039.210937.0039.097657.0078.191407.01563.285157-.105465.070312-.476559.023437-.644528-.132813.050782-.023437.148438-.105469.257813-.257812.109375-.164063.234375-.277344.234375-.277344l.132812.00781v.109375zm-.535156 1.351562c0-.117187.324219-.527343.496094-.558593.05469-.00781.07031 0 .08594.015625.02344.1875.05469.359375.09375.519531-.183593.140625-.675781.09375-.675781.023437m-.59375.535157c-.08203.035156-.21875.050781-.285156.035156.02344-.078125.152344-.273438.21875-.328125.101562-.00391.257812-.019531.339844-.046875-.101563.085937-.207032.242187-.273438.339844m.558594-.3125c.132812.054687.253906.078125.410156.085937 0 .15625-.183594.476563-.304687.5625-.265625.117188-.542969.179688-.582032.140625-.03906-.039062.09375-.550781.476563-.789062m-1.632813.859375h-.01953l.04297-.792969c.296875-.242188.597656-.722656.597656-.722656s.03516.027343.101563.023437c-.08594.140625-.1875.273438-.1875.441406 0 .136719.09766.1875.246093.199219-.113281.113281-.175781.265625-.226562.386719-.15625.214844-.429688.457031-.554688.464844m-.0625-1.613282c.101563-.339843.457032-.582031.53125-.613281.01563.085938.128907.171875.222657.179688-.101563.144531-.15625.234375-.195313.386718-.144531.214844-.375.484375-.523437.609375-.02734.023438-.05078.00781-.05469-.011718-.02344-.140625-.02344-.402344.01953-.550782m-.234375 1.964844c-.09766.1875-.355468.375-.507812.375-.02344 0-.04687.00391-.04687-.035156 0-.035156.148437-.59375.167969-.894531.101562-.121094.367187-.34375.484375-.480469.01172.257812 0 .847656-.09766 1.035156m-.101564 1.078125c.02734.05469.08203.101563.128906.109375-.0039.04687 0 .144531.0078.195313-.167969.05078-.324219.109375-.46875.171875-.04297-.05469-.08984-.117188-.140625-.1875.140625-.04297.371093-.1875.472656-.289063m-.527331-.460937c.195313-.015625.40625-.105469.558594-.21875-.03125.101562-.05469.292968-.05469.433593-.15625.171875-.367187.324219-.570312.378907-.01953-.02344-.03516-.04687-.05469-.07031-.01172-.214844.06641-.382812.121094-.523437m.644531-1.917969c-.164062.183594-.320312.3125-.460937.453125-.05469.050781-.117188.125-.191406.125-.05859 0-.06641-.074219-.06641-.109375 0-.140625.05469-.453125.109375-.683594.195313.011719.46875-.15625.601563-.320312-.05859.34375.0078.535156.0078.535156m-1.585918-.011722c-.04297 0-.04687-.019531-.04297-.046875.03906-.203125.152344-.46875.261719-.652344.207031-.039062.460937-.175781.609375-.292968 0 0-.05078.171875-.08984.492187-.128906.246094-.484375.5-.738281.5m.234372.203125c.191406-.078125.351562-.179687.5-.316406 0 0-.09766.34375-.140625.6875-.136719.152344-.425781.34375-.496094.34375-.02734 0-.04687-.019531-.04687-.050781 0-.1875.101563-.53125.183594-.664063m.546875 1.40625-.03906.242188c-.05078.105468-.09766.234375-.109375.367187-.09375-.109375-.191406-.226562-.296875-.347656.105469-.046875.3125-.144531.445313-.261719m-.582031.089844c-.0078 0-.01172 0-.01953 0-.01953-.019531-.03906-.042969-.05859-.0625.01953-.117188.04687-.34375.03516-.472656.113264-.027344.390608-.210938.515608-.296875.08203.035156.15625.039062.242187.00391-.0078.097656-.0625.324219-.08984.4375-.195313.171875-.40625.289062-.625.390625m1.878906.519531c0 .117188-.02344.285156-.04297.386719-.07813.01172-.15625.02344-.230469.04297-.0078-.03516-.02344-.101563-.01953-.171875.105469-.03125.25-.167969.292969-.257813m-.34375.0078c-.03125 0-.04687-.01563-.05859-.04687-.0039-.01953-.05859-.351563.02734-.621094.05469-.078125.117187-.269531.132812-.355469.06641 0 .144532-.011719.195313-.039062 0 0-.05469.195312-.05469.386718 0 .128907.04297.246094.109375.332032 0 0-.140625.34375-.351562.34375m1.589844-.621094c-.132813.179687-.28125.328125-.449219.460937-.05078.03125-.06641-.015625-.06641-.046875-.01563-.214843.01953-.425781.07031-.621093l.152344-.253907c.273437-.019531.503906-.113281.503906-.113281l.01563.019531c-.160156.277347-.226562.554691-.226562.554691m-.242188.601562c.04297-.03906.167969-.167968.21875-.253906 0 .042969.01953.117188.05859.148438-.09375.355468-.09375.636718-.09375.636718-.01172 0-.02344 0-.03125 0-.05469-.02344-.109375-.04297-.164063-.0625.03906-.152343.02734-.339843.01172-.46875m1.765625.214844c-.05469 0-.06641-.06641-.06641-.101562 0-.214844.08594-.515625.160156-.65625-.125-.015625-.515625.066406-.585937.082031-.054681.011719-.085931-.03125-.074212-.074219.015625-.082031.210937-.464844.320312-.617187l.05859-.019532c.199219.363282.421875.675782.628906 1.019532-.08203.136718-.347656.367187-.441406.367187m.355469.394531c.0078-.136718-.01172-.25-.01953-.308593.08984-.07422.171875-.160157.226562-.25.08594.152343.167969.316406.246094.488281-.101563.05078-.347656.105469-.453125.07031m.253906.902344c-.07031-.171875-.109375-.445312-.0625-.675781.105469-.0039.257813-.04687.34375-.09375.03125.07813.05859.15625.08594.242187-.04687.214844-.242188.570313-.308594.570313-.01563 0-.04297 0-.05859-.04297m-.09375 1.554688c.02344.113281.117188.355468.117188.355468-.0625.125-.136719.214844-.183594.261719-.0078-.144531-.02734-.289062-.05078-.433594.02734-.04687.08203-.128906.117187-.183593m-.04687-.976563h.01563c.04297.1875.07422.273438.105469.363281-.06641.144532-.179688.359375-.265625.496094-.03125-.109375-.0625-.214844-.105469-.324219.105469-.160156.183594-.347656.25-.535156m-.378906-.640625c.113281-.0625.21875-.210937.265625-.269531-.02734.210937.06641.496094.06641.496094-.08203.277343-.171875.492187-.277344.648437-.01953.0078-.03516.0039-.05469-.0078-.03516-.07422-.07422-.152344-.113281-.226563.0039-.371094.113281-.640625.113281-.640625m-.08594-.984375c.05469-.0078.132813-.05078.15625-.07422 0 .101563-.0039.183594-.01172.269532-.0078.07813.01172.105468.04687.121093.02734.01172.07813.02734.125.03516-.01953.101562-.160157.292968-.246094.332031-.05859.02734-.09766-.01172-.08203-.07813.01953-.07031.03906-.40625.01172-.605469m-.441415-6.382818c-.050781.035156-.109375.066406-.183594.117187-.027343-.035156-.074218-.121094-.082031-.179687.03906-.023438.08203-.0625.109375-.101563.03125.050781.101563.113281.15625.164063m.148438.109375c-.03516.089843-.07031.183593-.109375.273437-.06641 0-.164063-.019531-.210938-.035156.05469-.054688.238281-.183594.320313-.238281m.09375-.957032c0-.089843.203125-.179687.304687-.1875-.02734.117188-.0625.234375-.09766.347657-.0625-.019532-.207031-.101563-.207031-.160157m.125.394532c-.04297.128906-.09375.25-.140625.375-.09375-.050782-.207032-.164063-.253907-.230469.07813-.125.175782-.183594.265625-.230469.02734.011719.08594.054688.128907.085938m-.75.941406s.195312.085937.351562.082031c-.05859.164063-.113281.332031-.160156.507813-.01953-.00391-.527344-.261719-.667969-.300782-.02734-.00781-.01563-.035156-.0078-.042968.0078-.015625.160156-.132813.160156-.132813s.234375-.039062.324219-.113281m.02344-.246094c-.04687.058594-.164062.125-.265625.152344-.01953-.09375 0-.265625.03516-.351563.04687-.00391.101563-.015625.144532-.035156.01172.085938.04297.171875.08594.234375m-.843768-.769531c-.07813-.046875-.347656-.441406-.355469-.460938-.0039-.015625-.0039-.042968.05078-.042968.222656 0 .609375.507812.609375.507812-.109375.054688-.230469.046875-.304688-.00391m.414063.113281c.07422.078125.261718.148438.449218.136719-.0625.070312-.179687.125-.324218.125-.109375 0-.289063-.09375-.402344-.207031.08594.019531.195312-.03125.277344-.054688m-1.898438 1.8125c.238281-.066406.527344-.238281.527344-.238281-.0078.078125-.0625.289062-.0625.289062s-.08203.054688-.324219.238282c-.160156.117187-.472656.359375-.523437.359375-.05469 0-.03516-.101563-.03516-.167969s.148438-.804688.199219-.855469l.179688-.132812s-.05859.304687-.05859.4375c0 .070312.05469.082031.09766.070312m-.5-.320312s.02734.00391.03906 0c-.121094.339843-.210938.699218-.230469 1.089843-.03516.160157-.246094.347657-.6875.523438-.03906.019531-.05078.011719-.0625-.015625-.01563-.042969-.03125-.109375-.02344-.179688.148438-.277343.195313-.523437.195313-.746093.292969-.1875.550781-.402344.769531-.671875m-.57031-.55859c.128906-.046875.417968-.230469.417968-.230469s-.121093.464844-.06641.679688c-.117183.152343-.30859.328125-.480465.445312.101563-.226562.144532-.71875.128907-.894531m-3.027344 2.683594c0-.167969.02344-.398438.109375-.605469.105469-.042969.289062-.125.40625-.191406.05469.09375.183594.128906.183594.128906-.06641.128906-.160157.320312-.203125.484375-.152344.085937-.285157.1875-.429688.234375-.05469.019531-.06641-.015625-.06641-.050781m.445312.113281s-.03516.203125.03906.234375.257812-.023438.257812-.023438c.01563.085938-.02734.234375-.05859.308594-.0039 0-.0039 0-.0039 0-.234378-.132812-.472659-.242187-.714846-.316406.257812-.046875.480468-.203125.480468-.203125m-.714843-.089844s-.175782.042969-.285157.066406c-.050781.011719-.066406-.007812-.070312-.019531-.02734-.097656-.03125-.199219-.01563-.28125.171875-.042969.449219-.292969.449219-.292969s-.113282.238282-.07813.527344m-.4375.484375c1.578125 0 3.390625 2.257813 3.945312 3.003906l-.285156.152344c-.5625-.746094-2.265625-2.839844-3.660156-2.839844-1.128907 0-1.527344.6875-1.527344 1.28125v.00781c0 .625.652344 2.417969 3.558594 2.417969.636718 0 .933593-.136719 1.9375-.675782.71875-.382812 1.011718-.46875 1.578125-.46875 1.34375 0 2.535156 1.777344 2.539062 3.175782-.0039.761718-.261719 1.417968-.734375 1.851562-.410156.378906-.957031.546875-1.578125.492188-.84375-.07422-1.304687.113281-1.753906.292968-.339844.132813-.691406.273438-1.179688.273438-.625 0-1.320312-.386719-1.855468-1.039063-.558594-.683593-.878907-1.570312-.878907-2.4375 0-.02344.0039-.04297.0039-.0625.01172-.351562.113281-.734375.203125-1.019531l.3125.07422c-.08594.269531-.183594.632812-.199219.949219v.06641c0 .792969.296875 1.609375.808594 2.234375.472656.574219 1.074218.921875 1.605468.921875.425782 0 .71875-.117188 1.0625-.253906.460938-.183594.980469-.390625 1.898438-.3125.527344.04687.992187-.09375 1.335937-.410157.398438-.367187.625-.957031.625-1.621093 0 0 0-.0039 0-.0078 0-1.246094-1.074218-2.855469-2.214843-2.855469-.691407 0-1.195313.273438-1.726563.5625-.523437.289063-1.070312.585938-1.789062.585938-1.285157 0-2.390625-.367188-3.089844-1.0625-.582014-.57814-.789046-1.26564-.789046-1.679703.003907-.796875.574219-1.597656 1.847657-1.597656m-.15625-.296875-.054688.003906c-.144531.011719-.277344.03125-.40625.058594l-.07813.011719c.01953-.085938.05469-.203125.125-.308594.101563-.03125.257813-.054687.394531-.09375-.01563.050781-.03906.285156.01953.328125m-3.734375 7.351563c-.09766.03516-.421875.171875-.53125.246093-.332032-.08594-.574219-.175781-.785157-.292968-.02734-.01563-.02734-.04297 0-.0625.382813-.253907.996094-.207032 1.300782-.07031-.03125.07813-.03906.125.01563.179688m-2.347657.621093c-.01953-.01953 0-.03516 0-.03516s.613282-.121094.699219-.160156c.105469.06641.375.1875.59375.207031-.3125.113281-.488281.289063-.488281.289063-.339844-.09375-.5625-.167969-.804688-.300782m-1.664062-.679687c.121094-.0625.589844-.0039.589844-.0039.1875.257812.472656.433593.703125.515625-.08984.03906-.07813.113281-.01953.171875-.484375-.05469-1.097656-.445313-1.273437-.652344-.01172-.01563-.01953-.01953 0-.03125m1.570312-.398438c-.125-.0625-.410156-.242187-.589843-.457031-.02734-.03125-.01953-.05078.01563-.05078.449218.0039.945312.207031 1.304687.386719-.183594-.0078-.53125.03906-.730469.121093m.511719.71875v.01953c-.136719.03125-.316406.0625-.453125.07813-.253906-.07031-.558594-.277344-.679687-.402344-.01563-.01563 0-.03125.01953-.03906.03906-.01563.28125-.06641.46875-.05859.1875.15625.421875.285156.644531.402343m.21875-.289062c.04297.03516.15625.113281.28125.160156-.04297.01953-.08594.05078-.117187.07422-.214844-.117188-.535157-.277344-.753907-.425781-.01953-.01563-.02344-.03125.0039-.03906.320312-.101562.699218-.140625.941406-.07813-.09766.04297-.273438.140625-.359375.222656-.03125.03125-.01953.06641.0039.08594m-2.148437-1.375c.15625.03516.40625.140625.539062.257812-.04297.02344-.06641.0625-.06641.09766-.105469-.05469-.296875-.07813-.367188-.08203-.06641-.08984-.125-.1875-.144531-.238281-.01172-.04297-.0078-.04687.03906-.03516m.535156.554687c.167969.1875.378906.359375.605469.507813-.125-.01172-.429688.03906-.539063.07422-.183594-.07031-.648437-.476563-.691406-.597657-.0078-.02344-.0039-.03125.0078-.04297.09375-.07031.441407-.01172.617188.05859m-1.246066-.4922c.121094 0 .339844.03516.472656.07031l.117188.160157c-.07813.01563-.171875.03906-.191406.08984-.08594-.03906-.1875-.06641-.273438-.07031-.04297-.04687-.109375-.144531-.144531-.21875-.01172-.01953 0-.03125.01953-.03125m.394531.542969c.09766.167968.296875.390625.476563.488281-.132813-.0078-.273438-.0078-.398438.01563-.175781-.144531-.460937-.429688-.578125-.5625-.01563-.01953.0039-.03906.03125-.03906.171875-.01953.355469.02734.46875.09766m2.402344 2.097656c-.238281-.01953-.839844-.261719-1.027344-.476563 0 0 .140625.02734.265625-.03516.183594.117188.632813.28125.867188.324219-.109375.0625-.136719.09766-.105469.1875m1.097656.265625c-.45703.02734-.64453-.027348-.83203-.210942-.04687-.04687-.02734-.08984.105469-.152343.144531.09375.488281.199218.746094.246093-.03125.05078-.04297.09375-.01953.117188m0 6.457031c0-.09375.07422-.175781.15625-.175781.117188 0 .15625.08203.160157.171875.0039.128906-.109375.195312-.167969.195312-.09375 0-.148438-.0625-.148438-.191406m-6.257812-3.179687h-.0039c-.148438-.1875-.476563-.382813-.8125-.648438-.382813-.300781-.675782-.742187-.675782-1.28125 0-.410156.320313-.757812.691407-.757812.527343 0 .832031.375 1.058593.734375.07031.109375.101563.242187.101563.390625 0 .1875-.183594 1.109375-.359375 1.5625m4.0625 5.636718c0-.148437.167969-.261718.167969-.566406 0-.558594-.617188-1.011719-1.003907-1.175781-.238289-.695313-.980476-.964844-1.753914-.773438-.535156-.582031-1.011719-1.738281-1.121094-2.808593.238282-.59375.378907-1.257813.433594-1.957032.152344-.25.269531-.617187.214844-.953125.839844.308594 2.488281.652344 4.410156.652344 1.261719 0 2.320313-.21875 3.070313-.476562l.0039.01172c-.480469.542969-.984375 1.929688-1.683594 2.789063-.671875.820312-1.273437 1.546875-1.273437 2.40625 0 .507812.25.703125.25.964844 0 .08594-.03516.171875-.03516.421875 0 .183593.04687.332031.164063.523437-.0625.136719-.109375.308594-.109375.480469 0 .179687.0625.378906.09766.464844h-1.828125zm-.914063-.242187c-.01953-.125-.05469-.289063-.08984-.378906.144531-.125.261718-.08594.261718.03906 0 .128906-.05078.273438-.171875.339844m.257813-.617188s.140625-.152343.171875-.195312c.167969.136719.265625.316406.265625.535156 0 .06641-.02734.132813-.05859.160156-.0625-.148437-.171875-.265625-.289062-.328125-.01172-.09766-.08984-.171875-.08984-.171875m.04687.566407c.07031.05078.105469.117187.109375.195312-.04297.05469-.167969.0625-.28125.04297.0625-.05078.144531-.148438.171875-.238281m5.097642.296876c-.132812-.160157-.203125-.5-.02344-.78125-.132813-.128907-.222657-.316407-.226563-.507813-.0039-.113281.02344-.234375.09375-.339844-.207031.07031-.292969.230469-.292969.441407 0 .144531.0625.308593.167969.40625-.179687.210937-.207031.613281-.152344.78125h-1.609375c-.140625-.128907-.222656-.339844-.222656-.550782 0-.222656.03906-.371093.09766-.476562-.167968-.257813-.21875-.617188-.08203-.9375.07422-.167969.464844-.136719.464844-.507813 0-.1875-.109375-.34375-.355469-.34375-.148437 0-.332031.132813-.332031.382813-.05469-.08203-.09375-.257813-.09375-.367188 0-.816406.523437-1.289062 1.386719-2.421875.605468-.796875 1.207031-2.285156 1.761718-2.898437.199219-.01563.453125-.02734.757813-.02734h.277344c-.316407.789063-.84375 2.035156-1.050782 2.519531-.230468.542969-.175781 1.132813-.0078 1.570313.882812-.589844 3.035156-2.371094 4.085937-3.53125.0625.05469.121094.105469.171875.148437-1.429687 1.945313-4.316406 4.0625-4.625 4.375-.308593.3125-.558593.609375-.488281 1.007813.699219-.324219 1.394531.03516 1.5.585937.01953.117188.01563.292969.167969.324219.199219.03906.355469.08984.449219.246094-.05469.03516-.1875.125-.246094.199219-.101563-.07813-.195313-.113282-.289063-.121094-.06641-.1875-.238281-.359375-.421875-.425781-.04297-.214844-.234375-.515625-.484375-.515625-.117187 0-.203125.05469-.203125.05469.25 0 .398438.265625.429688.542969.117187.05078.371094.214844.371094.347656 0 .08203-.03906.125-.136719.164063.02734.140625.06641.273437.01563.425781-.01563.08203-.07422.179687-.140625.230469zm15.464844 0c.175781-.484375-.07422-.941407-.410156-1.089844-.07031-.167969-.421875-.390625-.625-.535156-.285157-.199219-.410157-.828125-1.140625-.828125-.351563 0-.398438.05078-.667969.05078-.339844 0-1.109375-1.378906-1.3125-2.332031-.335938-1.582032-.796875-3.136719-1.195313-3.992188.613282-.699219 1.804688-2.257812 1.804688-3.78125 0-1.40625-.332031-2.242187-.734375-2.917969.05078-.039062.203125-.113281.335937-.113281.21875 0 .558594.15625.929688.15625.4375 0 .792969-.222656.792969-.644531 0-.21875-.0625-.355469-.179688-.398438.167969-.589842-.09375-1.046874-.347656-1.140624-.046875.304688-.15625.527344-.277344.671875-.316406-.21875-.414062-.347656-.441406-.476562.113281.066406.308594.09375.421875.085937-.109375-.597656-.101563-.980468-.058594-1.335937l.05469-.082031c.054685.242187.253904.421875.35156.421875.07813 0 .09375-.035157.132813-.035157.03516 0 .08594.164063.167968.164063.06641 0 .128907-.019531.210938-.074219-.085938.171875-.097656.402344-.027344.597656.304688.035157.640625-.160156.957031-.585937.589844.140625.914063-.402344 1.265625-1.058594.339844-.15625.617188-.402344.617188-.796875 0-.398437-.429688-.671875-.488281-.789062-.242188-.484375-.597657-.746094-1.125-.890625-.234375-.265625-.566407-.472657-.722657-.542969-.101562-.273438-.371093-.53125-.679687-.546875-1.105469-.710938-2.46875-.863281-2.46875-.863281-.230469-.246094-.679688-.4375-1.078125-.4375-3.570313 0-5.957031 3.945312-9.03125 5.808593-1.726563 1.046875-2.886719 1.125-6.386719 1.125-2.683594 0-5.570312-.546875-6.953125-.546875-2.527344 0-3.429687 1.144532-4.691406 1.144532-1.632813 0-6.191406-2.144532-6.191406-4.851563 0-.792969.292968-1.679687 1.277343-1.679687.789063 0 1.074219.5 1.074219.859375 0 .355468-.078125.558593-.078125.714843 0 .402344.191406.660157.460938.929688.167968.164062.320312.75.59375.75.421875 0 .84375-1.027344.84375-1.519531 0-.410157-.472657-.703125-.53125-.941407-.1875-.769531-.558594-1.925781-2.363282-1.925781-1.335937 0-2.609375.867188-2.609375 2.8125 0 2.734375 3.179688 5.539063 6.824219 6.671875.257813.08594.546875.160156.761719.199219.0625.01172.074219.02734.046875.105469-.113281.328125-.109375.527343-.109375.695312-.519531.339844-1.109375 1.339844-1.109375 2.757813 0 1.09375-.125 2.222656-.605469 2.722656-.332031.34375-1.085937.554687-1.734375.960937-.808594.503907-1.132812 1.054688-1.132812 2.214844 0 2.265625-.335938 2.617188-.335938 3.757813 0 .574218.0625.886718.324219 1.355468.00391.0078.00781.01172.011719.01953h-1.285157v.800781h39.707032v-.800781zm0 0" fill="#211e1e"/></g><g fill="#211e1e"><path d="m14.394531 10.957031c.449219 0 .5625.246094.5625.59375 0 .476563-.4375.921875-.4375 1.621094 0 .605469.578125.890625.578125 1.347656 0 .269532-.06641.488282-.464843.488282-.445313 0-1.214844-1.015625-1.214844-2.46875 0-1.015625.542969-1.582032.976562-1.582032m.289063 4.351563c.355469 0 .683594-.242188.683594-.746094 0-.679687-.589844-.8125-.589844-1.390625 0-.640625.464844-1.105469.464844-1.6875 0-.488281-.3125-.777344-.824219-.777344-.671875 0-1.363281.703125-1.363281 1.816407 0 1.695312.917968 2.785156 1.628906 2.785156"/><path d="m5.363281 20.339844c.015625-.152344.132813-.535156.15625-.714844.00781-.05859-.121093-.05078-.121093-.05078s-.253907.488281-.253907 1.015625c0 .375.019532.542969.015625.6875-.00391.292969-.074218.65625-.074218.695312 0 .03125.070312.02734.070312.02734s.167969-.609375.191406-.832031c.023438-.277344-.019531-.496094.015625-.828125"/><path d="m5.460938 22.386719c.00781.101562.160156.132812.160156.132812s-.023438-.515625.128906-1.082031c.25-.949219.34375-1.421875.1875-1.421875-.054687 0-.0625.01953-.074219.140625-.050781.460938-.304687.929688-.363281 1.308594-.042969.261719-.054687.691406-.039062.921875"/><path d="m6.675781 20.515625c-.089843.523438-.445312.914063-.550781 1.425781-.054687.355469.046875.660157.164063.96875.011718.03906.070312.04297.089843.04297.070313 0 .054688-.07031.011719-.210937-.066406-.273439-.097656-.597658.007813-.867189.152343-.425781.324218-.851562.363281-1.328125 0-.05078-.058594-.05078-.085938-.03125"/><path d="m18.179688 22.871094c.386718.773437 1.03125 1.246094 1.117187 1.246094.04297 0 .05469-.02344.05469-.05078 0-.101562-.503907-.460937-.816407-1.023437-.242187-.4375-.457031-1.007813-.554687-1.109375-.09766-.101563-.257813-.199219-.285156-.199219-.02734 0-.03125.02734-.01172.05859.199219.289062.285156.65625.496094 1.078125"/><path d="m36.546875 22.269531c-.03125.01563-.0625.04687-.05078.06641.347656.542968.335937.820312.335937 1.4375 0 .261718.402344.679687.671875.867187.01953-.01563.01953-.03516.01953-.06641-.167969-.222656-.4375-.574219-.4375-.777344 0-.699219-.109375-1.066406-.539063-1.527344"/><path d="m17.414063 23.054688c-.05469-.05078-.136719-.03906-.136719 0s.902344 1.183593 1.085937 1.371093c.179688.183594.777344.355469.894532.40625.121093.05078.238281.15625.269531.15625s.03125-.140625-.03125-.179687c-.04297-.03125-.347656-.203125-.59375-.335938-.269531-.144531-1.464844-1.394531-1.488281-1.417968"/><path d="m36.105469 23.984375c-.07031 0-.148438-.06641-.148438-.15625 0-.07422.01953-.183594.136719-.183594.101563 0 .152344.09375.152344.179688 0 .08594-.03906.160156-.140625.160156m-.01172-.492187c-.175781 0-.285156.113281-.285156.335937 0 .167969.140625.34375.320312.34375.15625 0 .269532-.125.269532-.320312 0-.15625-.113282-.359375-.304688-.359375"/><path d="m25.019531 24.523438c0-.464844.06641-.558594.242188-.714844-.01953-.01563-.05078-.03125-.08984-.03125-.195312 0-.351562.25-.351562.796875 0 .398437.07813.765625.363281.765625.121094 0 .246094-.03125.300781-.0625-.335937-.128906-.464844-.339844-.464844-.753906"/><path d="m6.355469 19.875c.03125-.08984.101562-.148437.179687-.164062.050782.109375.144532.195312.253907.234375 0 .03516-.00781.07031-.019532.105468-.054687.132813-.1875.203125-.300781.15625-.113281-.050781-.167969-.199218-.113281-.332031m.632812-.625c.125 0 .230469.113281.230469.261719 0 .144531-.105469.261719-.230469.261719-.128906 0-.234375-.117188-.234375-.261719 0-.148438.105469-.261719.234375-.261719m-.644531 1.128906c.226563.109375.503906.0078.617188-.226562.027343-.05469.042968-.109375.046875-.167969.234375-.02344.414062-.226562.414062-.472656 0-.257813-.207031-.472656-.457031-.472656-.246094 0-.441406.195312-.457031.445312-.152344.019531-.292969.113281-.367188.265625-.117187.234375-.023437.515625.203125.628906"/><path d="m5.902344 23.648438c-.121094 0-.226563-.105469-.226563-.210938 0-.128906.089844-.175781.226563-.175781.132812 0 .238281.09766.238281.203125 0 .109375-.105469.183594-.238281.183594m.03125-.546875c-.238281 0-.429688.105468-.429688.320312 0 .203125.195313.402344.429688.402344.238281 0 .433594-.144531.433594-.34375 0-.203125-.195313-.378906-.433594-.378906"/><path d="m16.878906 20.074219c.171875 0 .308594.140625.308594.3125s-.136719.308594-.308594.308594-.3125-.136719-.3125-.308594c0-.195313.121094-.3125.3125-.3125m.53125 1.320312c0 .171875-.160156.3125-.332031.3125s-.292969-.140625-.292969-.3125.160157-.308593.332032-.308593.292968.140625.292968.308593m-.636718-.46875c-.152344.101563-.257813.269532-.25.464844.01563.3125.269531.566406.570312.566406s.535156-.296875.523438-.609375c-.01563-.28125-.199219-.480468-.433594-.519531.125-.105469.203125-.28125.195312-.464844-.01172-.296875-.257812-.539062-.542968-.539062-.335938 0-.511719.203125-.5.539062.01172.261719.203125.5.4375.5625"/><path d="m26.613281 21.6875c.113282 0 .203125.09375.203125.207031 0 .113282-.08984.207032-.203125.207032-.140625 0-.203125-.09375-.203125-.207032 0-.113281.09375-.207031.203125-.207031m-.5.933594c-.132812 0-.242187-.109375-.242187-.246094 0-.152344.109375-.246094.246094-.246094.160156 0 .238281.109375.238281.246094s-.109375.246094-.242188.246094m.433594-.257813c0-.01563 0-.03125 0-.05078.01172.0039.01953.0039.03125.0039.226563 0 .425781-.183593.425781-.414062 0-.226563-.160156-.410156-.382812-.410156s-.425781.175781-.425781.410156v.02734c-.01953-.0039-.04297-.0078-.06641-.0078-.257812 0-.484375.179688-.484375.464844 0 .25.226563.4375.476563.4375s.425781-.207031.425781-.460938"/><path d="m39.191406 4.066406c0-.09375-.07813-.167968-.167968-.167968-.09375 0-.171875.074218-.171875.167968s.07813.167969.171875.167969c.08984 0 .167968-.074219.167968-.167969"/></g><g clip-path="url(#b)"><path d="m5.78125 31.796875v-4.074219h-.894531v4.917969h4.328125v-.84375zm0 0" fill="#211e1e"/></g><g clip-path="url(#c)"><path d="m25.039063 28.5625v-.839844h-5.320313v4.917969h5.320313v-.84375h-4.425782v-1.226562h3.566407v-.84375h-3.566407v-1.164063zm0 0" fill="#211e1e"/></g><g clip-path="url(#d)"><path d="m38.355469 28.488281c-1.136719 0-2.101563.664063-2.101563 1.71875 0 1.054688.964844 1.722657 2.101563 1.722657s2.101562-.667969 2.101562-1.722657c0-1.054687-.964843-1.71875-2.101562-1.71875m0 4.300782c-1.703125 0-3.09375-1.054688-3.09375-2.582032 0-1.527343 1.390625-2.582031 3.09375-2.582031 1.707031 0 3.089844 1.054688 3.089844 2.582031 0 1.527344-1.382813 2.582032-3.089844 2.582032" fill="#211e1e"/></g></g></g></svg>