<svg xmlns="http://www.w3.org/2000/svg" xmlns:sodipodi="http://sodipodi.sourceforge.net/DTD/sodipodi-0.dtd" xmlns:inkscape="http://www.inkscape.org/namespaces/inkscape" width="3200" height="742pt" viewBox="0 0 2400 742" sodipodi:docname="ArenaLogo.svg" inkscape:version="1.0.2 (e86c870879, 2021-01-15)">
  <sodipodi:namedview pagecolor="#ffffff" bordercolor="#666666" borderopacity="1" objecttolerance="10" gridtolerance="10" guidetolerance="10" inkscape:pageopacity="0" inkscape:pageshadow="2" inkscape:window-width="1920" inkscape:window-height="1001" showgrid="false" inkscape:zoom=".754" inkscape:cx="836.867" inkscape:cy="266.086" inkscape:window-x="-9" inkscape:window-y="-9" inkscape:window-maximized="1" inkscape:current-layer="svg62"/>
  <g/>
  <g fill="#4e4e4e">
    <path d="M1628.52 396.52q1.8 1.32 0 0m6.58 8.28c5.66-.58 8.56 4.52 11.32 8.6-2.04-1.06-4.06-2.12-5.98-3.26-1.92-1.66-3.7-3.46-5.34-5.34m-865.28 19.1c.24.1.72.26.96.34z"/>
    <path d="m335.94 557.66 13.5.14-.08 94.14-13.36.1.08-44.36h-48.42l.22 44.28-13.44.02-.08-94.18 13.58-.3-.18 38.56H336Zm118.76-.44 13.62.2 38.62 94.62-14.7.04-10.6-28.34-39.6.16L431.9 652l-13.76.06zm6.24 10.98-15.24 44.68 31.96.24z" sodipodi:nodetypes="ccccccccccccc"/>
    <path d="m802.88 557.38 17.38.06.16 94.62-12.8.04.14-76.64-25.948 76.362-13.192-.062-27.06-77.74.84 78.14-12.72-.02.12-94.8 19.48.22 25.9 80.08z" sodipodi:nodetypes="cccccccccccccc"/>
    <path d="m925 557.34 13.72-.04 38.96 94.3-15.032-.046L951.9 623.58l-39.48.08-10.14 28.56-13.66-.2zm-8.8 55.74 31.86.1-16.044-43.044z" sodipodi:nodetypes="ccccccccccccc"/>
    <path d="M1057.96 565.68c15.96-13.02 42.48-14.26 57.52.84 4.38 4.9 8.06 10.78 9.24 17.32-4.26.54-8.42 1.62-12.62 2.38-2.42-6.8-6.12-13.8-12.94-17-11.42-5.26-26.36-2.64-34.8 6.84-6.54 7.7-8.26 18.2-8.6 28 .28 9.78 1.66 20.24 7.82 28.2 10.24 12.98 33.08 14.18 43.5.8 3.56-4.06 5.28-9.26 6.36-14.46 4.38 1.04 8.74 2.1 13.14 3.16-2.6 8.58-6.44 17.36-13.64 23.08-7.14 6.1-16.72 8.94-26.04 8.7l.78 1.7c-3.02-3.12-8.14-1.28-12-2.64-15.72-2.16-27.22-15.96-30.68-30.8-5.18-19.06-2.76-42.56 12.96-56.12m687.48 3.86c11.08-12.68 29.82-16.24 45.68-12.32 12.58 3.22 21.94 14.04 25.2 26.38-4.24.62-8.32 2.04-12.56 2.56-2.62-4.66-4.02-10.16-8.32-13.7-10.22-8.64-26.24-7.36-36.46.56-6.18 4.48-8.9 12.1-10.6 19.24-1.88 12.34-1.72 25.8 4.52 36.96 8.56 14.92 32.2 18.14 44.04 5.5 4.42-4.36 6.68-10.38 8-16.34 4.34 1.18 8.72 2.24 13.14 3.3-3.2 11.88-10.34 23.54-22.08 28.48-13.32 5.44-29.36 4.62-41.94-2.42-12.86-7.94-18.32-23.3-19.88-37.62-1.18-14.2 1.48-29.66 11.26-40.58"/>
    <path d="m1917.82 557.44 13.744.112c12.86 31.44 26.096 62.968 38.576 94.508-4.82-.06-14.36.06-14.36.06l-10.46-28.22-39.68-.5-9.982 28.67s-9.578.03-14.378.03c12.56-31.42 24.28-63.14 36.54-94.66m-8.7 55.6 31.7.1-15.62-43.52z" sodipodi:nodetypes="ccccccccccccc"/>
    <path d="M2172.74 572.72c4.12-10.94 16.22-16.34 27.26-16.8 10.96-.86 23.02.86 31.46 8.5 5.7 4.9 7.8 12.52 8.82 19.68-4.06.2-8.12.62-12.1 1.2-2-17.328-21.38-16.05-21.28-18.64-5.14.54-10.44.66-15.32 2.46-6.04 2.56-10.4 10.34-7.24 16.58 2.86 5.74 9.76 7.06 15.38 8.76 11.92 3.38 25.44 4.24 35.2 12.72 11.16 9.22 9.8 27.98-.5 37.32-7.7 6.82-18.3 9.46-28.42 9.1-10.9-.16-22.9-2.7-30.48-11.14-5.3-5.74-8.22-13.5-8.12-21.32 4.06-.28 8.16-.54 12.28-.6.24 7.1 4.06 14.06 10.44 17.42 10.26 5.44 23.58 5.88 33.7-.16 5.98-3.66 8.7-12.16 4.62-18.2-13.366-13.11-35.74-10.468-49.66-20.76-7.68-5.98-9.96-17.36-6.04-26.12" sodipodi:nodetypes="cccccccccccccccccccc"/>
    <path d="M127.2 557.34c14.92.52 29.86-.12 44.78.28 8.86.08 18.52 3.56 23.28 11.48 2.22 3.38 2.74 7.58 5 10.96-.2.04-.64.14-.86.18 1.44 11.74-3.4 25.62-15.2 30.12-14.1 5.26-29.46 3.04-44.16 3.16.08 12.78-.38 25.58.36 38.36-4.38.16-8.74.18-13.1.2-.16-31.58.12-63.18-.1-94.74m12.88 11.36c-.12 11.08-.08 22.18-.04 33.26 9.32.08 18.64.16 27.96.08 5.22-.06 10.84-1.56 14.42-5.6 7.74-8.46 3.78-25.7-8.56-27.18-11.22-1.1-22.52-.24-33.78-.56"/>
    <path d="M575.92 557.52c14.68-.04 29.38 0 44.06 0 7.46.08 15.58.18 21.88 4.76 10.1 7.58 12.88 22.86 6.62 33.72-4.64 7.54-13.36 12.16-22.14 12.4 15.36 10.7 22.74 28.52 33.26 43.38-5.32.34-10.66.24-15.96.5-8.46-12.2-15.08-25.72-25.08-36.78-7.66-8.24-19.82-4.98-29.74-5.22.52 13.92-.08 27.84.34 41.76-4.42 0-8.84 0-13.24-.04.06-31.48.06-62.98 0-94.48M589 568c.04 10.3.1 20.6-.02 30.9 11.58-.36 23.22.46 34.78-.52 8.08-.66 15.78-7.78 14.6-16.32.02-8.34-8.5-13.7-16.1-13.94-11.1-.26-22.18-.04-33.26-.12" sodipodi:nodetypes="cccccccccccccccccc"/>
    <path d="m1200.46 557.82 68.88-.34v11.28l-55.12-.16-.06 28.84 52.08-.08-.06 11.14-52.14-.06-.14 32.1 57.72-.2.06 11.64-71.1.08z" sodipodi:nodetypes="ccccccccccccc"/>
    <path d="m1347.82 557.28 12.96.14s-.08 37.74-.04 56.62c.42 7.8.28 17.08 6.92 22.5 8.6 7.24 21.66 6.9 31.56 2.64 8.42-4.2 9.94-14.6 10.2-23.06l.04-58.68 13.14-.06s.08 39.1-.22 58.66c-.46 9.62-1.62 20.38-8.82 27.54-8 8.62-20.52 10.5-31.72 9.98-10.58-.44-22.12-4.08-28.14-13.4-4.34-7.24-5.56-15.9-5.76-24.2-.02-19.56-.12-58.68-.12-58.68" sodipodi:nodetypes="cccccccccccccc"/>
    <path d="m1494.92 557.28 75.24.04.06 11.64-31.44-.28.16 83.34-12.8-.08.36-82.72-31.56-.32z" sodipodi:nodetypes="ccccccccc"/>
    <path d="m1643.96 557.38 12.64-.04.04 94.76-12.88-.2z" sodipodi:nodetypes="ccccc"/>
    <path d="M2038.38 557.52c4.12-.06 8.28-.14 12.44-.34.88 27.7.12 55.52.36 83.26 15.52 0 31.04.16 46.56-.12.26 3.84.28 7.7.08 11.56-19.78.2-39.58.24-59.38.04.32-31.46.44-62.94-.06-94.4"/>
  </g>
  <g fill="#334c9e">
    <path d="M624.6 68.32c45.12-.8 90.34.06 135.5-.36 35.4-.8 70.68 9.02 101.36 26.5 30.14 16.62 54.02 44.42 64.4 77.38 10.42 33.56 11.02 70.04 3.04 104.18-8.08 33.6-29.3 63.66-58.34 82.4-22.36 14.88-48.14 24.06-74.52 28.58-4.36 1.5-9.38.3-13.44 2.5 33.28 31.28 65.58 63.64 98.52 95.28 9.52 9.78 20.2 18.5 29.04 28.92-15.92-.82-31.9-.12-47.82-.38-3.32-1.72-5.54-4.96-8.28-7.38-27.48-26.86-55.16-53.52-82.68-80.32l-.6-1.38c-.24-.08-.72-.24-.96-.34-22.66-21.96-45.84-43.52-67.32-66.62 18.5.78 37.04.14 55.56.34 36.58 1.44 74.04-9.92 102.62-33.06 24.52-20.02 37.52-51.32 39.22-82.48 2.54-33.5-4.02-69.62-26.52-95.68-25.24-28.68-63.64-43.6-101.24-45.56-37.98-.1-75.96.08-113.94-.1-.84 137.5-.02 275.04-.42 412.58-11.08.04-22.16-.02-33.24.02.84-53.74.12-107.52.36-161.28-.2-94.58.4-189.18-.3-283.74"/>
    <path d="m1341.86 67.3 370 367.28-.14-366.74 32.74-.04.14 445.4-369.44-366.22.22 366.3-33.54-.02z" sodipodi:nodetypes="ccccccccc"/>
    <path d="m2012.72 67.28 25.18 46.36 209.46 400.4-39.36-.08-195.2-368.3L1820 514.18l-41.98-.14Zm-1647.5 4.74s165.26 314.65 232.04 442.06c-13.24 0-26.48-.14-39.74.08-68.51-126.354-128.716-243.554-194.4-368.6-65.422 122.94-135.43 257.414-193.5 368.6-14.02-.22-42.04-.12-42.04-.12L357.75 72.354Z" sodipodi:nodetypes="cccccccc"/>
  </g>
  <g fill="#a9d482">
    <path d="m967.26 67.4 341.66.14.2 33.18-306.42.12-.2 378.74 306.22.52.24 32.7-341.8-.06z" sodipodi:nodetypes="ccccccccc"/>
    <path d="m1052.56 350.4 254.94.02-.78 32.44-254.4-.24z" sodipodi:nodetypes="ccccc"/>
  </g>
</svg>
