<?xml version="1.0" encoding="UTF-8"?><svg id="_レイヤー_2" xmlns="http://www.w3.org/2000/svg" viewBox="0 0 378.45 42.99"><defs><style>.cls-1{fill:#494949;}.cls-2{fill:#005bac;}</style></defs><g id="_レイヤー_1-2"><path class="cls-2" d="M67.69.98c-30.4-.47-31.07,24.85-41.62,31.1l.05.16c15.51-2.4,24.63-28.36,41.59-31.09l-.02-.17Z"/><path class="cls-2" d="M74.41,24.61c-21.12-3.46-24.64,12.81-36.35,17.61l.04.16c20.92-3.63,23.04-15,36.31-17.61v-.16Z"/><path class="cls-2" d="M31.16,37.34l.05.15c18.47-3.27,30.53-24.53,43.03-25.27v-.16c-26.22-3.6-29.46,17.9-43.08,25.28Z"/><path class="cls-2" d="M34.22,42.7C17.16,39.45,20.83,14.71,0,23.29l.03.16c12.82.01,4.74,21.37,34.18,19.41v-.16Z"/><path class="cls-2" d="M44.42,0c-17.92,3.08-15.25,18.78-22.73,27.11l.1.13C37.93,18.09,36.66,3.98,44.46.15l-.04-.15Z"/><path class="cls-1" d="M111.66,12.2l.35.05-.1-.34c-.15-.54-.22-1-.22-1.39,0-.35.08-.84.23-1.44l.07-.3h-.31c-2.05.07-4.06.13-6.02.17-3.91.09-8.13.09-12.04,0-1.96-.05-3.97-.1-6.02-.16h-.31s.07.29.07.29c.15.6.23,1.07.23,1.39,0,.41-.08.89-.22,1.43l-.1.34.35-.05c.64-.09,1.38-.17,2.2-.23s1.68-.12,2.56-.16c.86-.05,1.75-.08,2.65-.09.8-.01,1.57-.02,2.31-.02.09,3.11.13,6.28.13,9.43v8.03c0,2.03-.04,4.07-.12,6.06s-.16,3.95-.26,5.88v.27s.26-.02.26-.02c1.4-.12,3.13-.12,4.54,0l.27.02v-.27c-.1-1.93-.19-3.89-.27-5.88-.08-1.98-.12-4.01-.12-6.06v-8.03c0-3.15.04-6.32.13-9.43.74,0,1.51.01,2.31.02.9.02,1.79.05,2.65.09.89.05,1.74.1,2.56.16.86.07,1.6.15,2.24.24Z"/><path class="cls-1" d="M257.85,11.24c-.63-.61-1.33-1.08-2.1-1.4-.76-.32-1.53-.56-2.31-.71-.77-.16-1.51-.25-2.21-.28-.7-.03-1.27-.05-1.74-.05-.34,0-.77.02-1.27.05s-1.02.05-1.56.07c-.55.02-1.09.04-1.62.07-.52.03-.97.05-1.34.05-.74,0-1.49-.02-2.25-.07-.76-.05-1.51-.1-2.26-.16l-.26-.02v.27c.1,2.05.19,4.07.27,6.04.08,1.98.12,4.01.12,6.04v8.03c0,2.03-.04,4.07-.12,6.06s-.16,3.95-.26,5.88v.27s.26-.02.26-.02c1.4-.12,3.13-.12,4.54,0l.27.02v-.27c-.1-1.93-.19-3.89-.27-5.88-.08-1.98-.12-4.01-.12-6.06v-2.31c.54.05,1.07.08,1.58.09.59.02,1.25.02,1.97.02,1.13,0,2.44-.13,3.89-.38,1.47-.25,2.87-.75,4.18-1.47,1.32-.73,2.44-1.76,3.35-3.06.91-1.31,1.37-3.04,1.37-5.13,0-1.33-.19-2.47-.58-3.38-.39-.92-.9-1.69-1.53-2.31ZM255.19,17.2c0,1.54-.27,2.82-.79,3.79-.52.97-1.21,1.75-2.03,2.3-.83.56-1.75.95-2.74,1.16-2.13.45-4.17.4-6.02,0v-13.45h3.97c1.19,0,2.28.09,3.23.25.93.17,1.72.47,2.36.92.63.44,1.13,1.07,1.48,1.86.36.8.54,1.87.54,3.17Z"/><path class="cls-1" d="M282.27,30.73c.06-1.42.09-2.81.09-4.14,0-1.64-.23-3.02-.7-4.08-.46-1.07-1.07-1.93-1.81-2.56-.74-.62-1.58-1.07-2.49-1.33-.9-.25-1.81-.38-2.7-.38-1.71,0-3.22.38-4.46,1.13-1.09.66-2.05,1.56-2.87,2.69,0-1.98.02-8.36.37-13l.02-.31-.31.07c-.51.11-1.53.23-2.05.23s-1.21-.08-2.06-.23l-.3-.05.03.3c.37,4.12.37,10.12.37,17.71,0,6.44-.14,11.79-.37,14.32l-.03.28.28-.03c.42-.04,1.39-.09,2.08-.09s1.38.03,2.08.09l.28.02-.03-.28c-.06-.67-.11-1.54-.16-2.65-.05-1.09-.09-2.22-.12-3.38-.03-1.17-.05-2.32-.07-3.48-.02-1.15-.02-2.16-.02-3.03,0-2.37.49-4.22,1.47-5.51.96-1.27,2.51-1.91,4.6-1.91,1.52,0,2.68.56,3.55,1.7.87,1.15,1.31,2.89,1.31,5.16v2.85c0,1.78-.04,3.55-.12,5.27-.08,1.71-.15,3.38-.21,5v.27s.26-.03.26-.03c1.25-.13,2.64-.12,3.83,0l.28.03-.02-.28c-.03-.43-.05-.89-.07-1.37-.02-.48-.02-.97-.02-1.46v-3.04c0-1.59.03-3.1.09-4.5Z"/><path class="cls-1" d="M354.87,20.02c-.66-.61-1.45-1.07-2.35-1.36-.89-.29-1.87-.43-2.92-.43-1.72,0-3.26.41-4.58,1.23-1.21.74-2.19,1.79-2.93,3.13-.18-.52-.45-1.01-.8-1.48-.45-.59-1-1.11-1.62-1.52-.63-.42-1.33-.75-2.09-.99-.77-.24-1.56-.36-2.36-.36-2.86,0-5.15,1.27-6.81,3.76.01-1.02.06-2.04.14-3.05l.02-.29-1.34.21c-.28.04-.54.07-.78.07-.52,0-1.21-.08-2.06-.23l-.31-.06.04.31c.15,1.33.26,2.77.3,4.3.05,1.53.07,3.01.07,4.41v4.86c0,1.4-.02,2.88-.07,4.41s-.15,2.92-.3,4.16l-.04.29.29-.03c1.4-.12,2.76-.12,4.16,0l.29.03-.04-.29c-.15-1.23-.26-2.63-.3-4.16-.05-1.53-.07-3.01-.07-4.41v-3.97c0-2.37.47-4.22,1.4-5.51.91-1.27,2.37-1.91,4.34-1.91.73,0,1.46.2,2.15.6s1.2.88,1.52,1.42c.18.36.32.69.43,1,.1.29.19.68.25,1.14.06.47.1,1.12.11,1.94.02.82.02,1.97.02,3.43,0,1.69-.03,3.45-.09,5.22-.06,1.76-.17,3.52-.33,5.22l-.03.28.28-.02c1.4-.12,2.66-.12,4.07,0l.27.02v-.27c-.07-1.31-.13-2.51-.17-3.62-.05-1.1-.07-2.33-.07-3.66,0-2.2.02-3.95.05-5.2.03-1.25.08-2.23.16-2.92.07-.67.18-1.18.31-1.5s.32-.65.56-.98c.41-.56,1-1.06,1.75-1.48.74-.41,1.66-.62,2.73-.62.89,0,1.65.14,2.23.42.59.28,1.06.66,1.41,1.12.35.47.61,1.04.78,1.69.17.66.25,1.38.25,2.14,0,4.21-.05,7.54-.16,9.89-.11,2.36-.21,3.94-.3,4.7l-.04.31.31-.06c.33-.06.66-.09.99-.09h2.01c.33,0,.66.03.99.09l.3.05-.02-.3c-.06-.89-.1-1.74-.12-2.51-.02-.78-.02-1.58-.02-2.42,0-1.37.02-2.58.05-3.61.03-1.04.06-1.97.09-2.8.03-.82.06-1.55.09-2.17.03-.63.05-1.22.05-1.74,0-1.33-.19-2.49-.55-3.45-.41-.97-.93-1.77-1.59-2.38Z"/><path class="cls-1" d="M150.97,30.73c.06-1.42.09-2.81.09-4.14,0-1.64-.23-3.02-.7-4.08-.46-1.07-1.07-1.93-1.81-2.56-.74-.62-1.58-1.07-2.49-1.33-.9-.25-1.81-.38-2.7-.38-1.71,0-3.22.38-4.46,1.13-1.09.65-2.05,1.56-2.86,2.68.01-1.03.06-2.07.14-3.1l.02-.29-1.35.2c-.28.04-.54.07-.78.07-.52,0-1.21-.08-2.06-.23l-.31-.06.04.31c.15,1.33.26,2.77.3,4.3.05,1.52.07,3,.07,4.41v4.86c0,1.41-.02,2.89-.07,4.41-.05,1.53-.15,2.92-.3,4.16l-.04.29.29-.03c1.4-.12,2.76-.12,4.16,0l.29.03-.04-.29c-.15-1.23-.26-2.63-.3-4.16-.05-1.53-.07-3.01-.07-4.41v-3.97c0-2.36.49-4.22,1.47-5.51.96-1.27,2.51-1.91,4.6-1.91,1.52,0,2.68.56,3.55,1.7.87,1.15,1.31,2.89,1.31,5.16v2.85c0,1.78-.04,3.55-.12,5.27-.08,1.71-.15,3.38-.21,5v.27s.26-.03.26-.03c1.25-.13,2.64-.12,3.83,0l.28.03-.02-.28c-.03-.43-.05-.89-.07-1.37-.02-.48-.02-.97-.02-1.46v-3.04c-.02-1.58.02-3.1.08-4.5Z"/><path class="cls-1" d="M196.52,21.63c-.8-1.02-1.81-1.85-3.02-2.47s-2.66-.94-4.31-.94-3.25.4-4.56,1.2c-1.16.71-2.25,1.8-3.23,3.24.03-2.21.14-9.52.55-13.61l.03-.3-.3.04c-.43.06-.84.12-1.21.16-.36.05-.71.07-1.05.07-.51,0-1.21-.08-2.06-.23l-.3-.05.02.3c.3,3.66.36,8.79.37,12.65v6.02c-.01,3.86-.06,9.45-.37,13.37l-.02.3.3-.05c.85-.15,1.54-.23,2.06-.23.33,0,.68.02,1.05.07.37.05.77.1,1.21.16l.3.04-.03-.3c-.05-.52-.1-1.12-.15-1.82.58.59,1.28,1.12,2.12,1.56,1.23.65,2.62.98,4.15.98s2.96-.3,4.27-.88c1.32-.59,2.47-1.44,3.44-2.53.96-1.09,1.73-2.41,2.29-3.93.55-1.51.83-3.21.83-5.03,0-1.48-.2-2.91-.59-4.24-.39-1.33-1-2.53-1.79-3.55ZM194.33,29.3c0,1.62-.17,3.11-.51,4.42-.34,1.31-.81,2.45-1.4,3.39-.59.93-1.28,1.65-2.05,2.15-.77.49-1.62.73-2.54.73-4.43,0-6.58-2.99-6.58-9.15,0-1.9.19-3.52.57-4.81s.89-2.34,1.52-3.14c.63-.79,1.37-1.36,2.22-1.7.86-.34,1.76-.52,2.69-.52.77,0,1.53.19,2.25.56.73.37,1.38.92,1.93,1.64.56.72,1.02,1.63,1.36,2.71.36,1.06.54,2.32.54,3.72Z"/><path class="cls-1" d="M220.33,21.13c-.83-.88-1.87-1.58-3.09-2.11-1.22-.52-2.69-.79-4.36-.79-3.54,0-6.28,1.13-8.14,3.35-1.85,2.21-2.79,5.29-2.79,9.16,0,1.58.28,3.07.83,4.43s1.36,2.56,2.39,3.56c1.03,1,2.27,1.77,3.68,2.29,1.4.52,2.98.79,4.68.79,1.51,0,3-.27,4.4-.81s2.59-1.19,3.54-1.95l.07-.06.31-2.53-.53-.32-.13.15c-.39.45-.86.88-1.39,1.27-.53.39-1.11.74-1.71,1.03-.61.29-1.24.52-1.87.69s-1.25.25-1.86.25c-1.27,0-2.4-.22-3.36-.66-.96-.43-1.78-1.03-2.44-1.76-.66-.74-1.17-1.63-1.52-2.65-.35-1.03-.52-2.15-.52-3.33v-.61c0-.19.01-.35.02-.47l2.86-.09c2.69-.08,5.36-.05,8.04,0l5.21.1.02-.21c.03-.31.06-.62.07-.92.02-.3.02-.61.02-.92,0-1.33-.2-2.59-.6-3.76-.38-1.2-1-2.25-1.83-3.12ZM207.15,25.41c.26-.92.64-1.78,1.14-2.55.49-.76,1.13-1.41,1.89-1.92.75-.5,1.69-.75,2.79-.75,1.16,0,2.1.25,2.81.75.71.51,1.28,1.15,1.68,1.93.41.78.68,1.64.82,2.54.12.83.19,1.64.21,2.4-.92.03-1.88.06-2.85.09-2.07.06-4.07.06-6.17,0-.95-.03-1.88-.06-2.77-.09.06-.75.21-1.56.45-2.4Z"/><path class="cls-1" d="M126.87,36.92c-.01-.53,0-4.5.06-6.24.06-1.76.09-3.55.09-5.31,0-1.05-.19-2.04-.58-2.92-.39-.88-.92-1.65-1.6-2.27-.67-.63-1.5-1.11-2.46-1.45-.95-.33-2.02-.5-3.16-.5-1.26,0-2.51.19-3.71.57-1.2.38-2.53,1.11-3.95,2.18l-.09.07v2.78h.89l.07-.12c.5-.95,1.28-1.7,2.31-2.24,1.03-.54,2.17-.81,3.37-.81.89,0,1.66.16,2.28.47s1.13.72,1.51,1.22.67,1.1.85,1.78c.18.69.27,1.43.27,2.18,0,.44-.04.8-.13,1.07-.07.23-.31.44-.69.63-.44.21-1.12.42-2.05.61-.93.2-2.22.44-3.93.72-2.09.35-3.75,1.06-4.95,2.11-1.21,1.07-1.83,2.59-1.83,4.52,0,.94.19,1.78.56,2.51s.86,1.35,1.46,1.87,1.29.89,2.07,1.12c.77.22,1.56.34,2.35.34,1.62,0,3-.27,4.12-.82.89-.43,1.8-1.07,2.72-1.9-.05.7-.11,1.37-.19,1.98l-.04.29.29-.03c1.4-.12,2.76-.12,4.16,0l.29.03-.04-.29c-.17-1.26-.27-2.66-.32-4.15ZM123,29.81l-.18,6.61c-.51.82-1.24,1.54-2.16,2.16-.94.62-1.98.94-3.12.94-.96,0-1.85-.36-2.65-1.06-.78-.7-1.18-1.75-1.18-3.14,0-.83.15-1.51.46-2.03.31-.53.73-.98,1.24-1.33.52-.36,1.13-.65,1.8-.86.69-.21,1.39-.39,2.1-.53.71-.14,1.42-.27,2.12-.4.58-.09,1.11-.22,1.57-.36Z"/><path class="cls-1" d="M172.25,36.92c-.01-.53,0-4.5.06-6.24.06-1.76.09-3.55.09-5.31,0-1.05-.2-2.04-.58-2.92-.39-.88-.92-1.65-1.6-2.27-.67-.63-1.5-1.11-2.46-1.45-.96-.33-2.02-.5-3.16-.5-1.26,0-2.51.19-3.71.57-1.2.38-2.53,1.11-3.95,2.18l-.09.07v2.78h.89l.07-.12c.5-.95,1.28-1.7,2.31-2.24,1.04-.54,2.17-.81,3.37-.81.89,0,1.66.16,2.28.47s1.13.72,1.51,1.22.67,1.1.85,1.78c.18.69.27,1.43.27,2.18,0,.44-.04.8-.13,1.07-.07.23-.31.44-.7.63-.44.21-1.12.42-2.05.61-.93.2-2.22.44-3.93.72-2.09.35-3.75,1.06-4.95,2.11-1.21,1.07-1.83,2.59-1.83,4.52,0,.94.19,1.78.56,2.51.37.72.86,1.35,1.46,1.87s1.29.89,2.07,1.12c.77.22,1.56.34,2.35.34,1.62,0,3-.27,4.12-.82.89-.43,1.8-1.07,2.72-1.9-.05.7-.11,1.37-.19,1.98l-.04.29.29-.03c1.4-.12,2.76-.12,4.16,0l.29.03-.04-.29c-.16-1.26-.27-2.66-.31-4.15ZM168.38,29.81l-.18,6.61c-.51.82-1.24,1.55-2.16,2.16-.94.62-1.98.94-3.12.94-.96,0-1.85-.36-2.65-1.06-.78-.7-1.18-1.75-1.18-3.14,0-.83.15-1.51.46-2.03.31-.53.72-.97,1.24-1.33s1.13-.65,1.81-.86c.69-.21,1.39-.39,2.1-.53.71-.14,1.42-.27,2.12-.4.57-.09,1.09-.22,1.56-.36Z"/><path class="cls-1" d="M303.56,36.92c-.01-.53,0-4.5.06-6.24.06-1.76.09-3.55.09-5.31,0-1.05-.2-2.04-.58-2.92-.39-.88-.92-1.65-1.6-2.27-.67-.63-1.5-1.11-2.46-1.45-.96-.33-2.02-.5-3.16-.5-1.26,0-2.51.19-3.71.57s-2.53,1.11-3.95,2.18l-.09.07v2.78h.89l.07-.12c.5-.95,1.28-1.7,2.31-2.24,1.03-.54,2.17-.81,3.37-.81.89,0,1.66.16,2.28.47.62.31,1.13.72,1.51,1.22s.67,1.1.85,1.78c.18.69.27,1.43.27,2.18,0,.44-.04.8-.13,1.07-.07.23-.31.44-.7.63-.44.21-1.12.42-2.05.61-.93.2-2.22.44-3.93.72-2.09.35-3.75,1.06-4.95,2.11-1.21,1.07-1.83,2.59-1.83,4.52,0,.94.19,1.78.56,2.51s.86,1.35,1.46,1.87c.6.52,1.29.89,2.07,1.12.77.22,1.56.34,2.35.34,1.62,0,3-.27,4.12-.82.89-.43,1.8-1.07,2.72-1.9-.05.7-.11,1.37-.19,1.98l-.04.29.29-.03c1.4-.12,2.76-.12,4.16,0l.29.03-.04-.29c-.17-1.26-.27-2.66-.31-4.15ZM299.68,29.81l-.18,6.61c-.51.82-1.24,1.55-2.16,2.16-.94.62-1.98.94-3.12.94-.96,0-1.85-.36-2.65-1.06-.78-.7-1.18-1.75-1.18-3.14,0-.83.15-1.51.46-2.03.31-.53.73-.98,1.24-1.33.52-.36,1.13-.65,1.8-.86.69-.21,1.39-.39,2.1-.53.71-.14,1.42-.27,2.12-.4.58-.09,1.11-.22,1.57-.36Z"/><path class="cls-1" d="M378.41,41.08c-.16-1.27-.26-2.67-.3-4.16h0c-.02-.53,0-4.49.06-6.24.06-1.76.09-3.55.09-5.31,0-1.05-.2-2.04-.58-2.92-.39-.88-.92-1.65-1.6-2.27-.67-.63-1.5-1.11-2.46-1.45-.96-.33-2.02-.5-3.16-.5-1.26,0-2.51.19-3.71.57s-2.53,1.11-3.95,2.18l-.09.07v2.78h.89l.07-.12c.5-.95,1.28-1.7,2.31-2.24,1.03-.54,2.17-.81,3.37-.81.89,0,1.66.16,2.28.47.62.31,1.13.72,1.51,1.22s.67,1.1.85,1.78c.18.69.27,1.43.27,2.18,0,.44-.04.8-.13,1.07-.07.23-.31.44-.7.63-.44.21-1.12.42-2.05.61-.93.2-2.22.44-3.94.72-2.09.35-3.75,1.06-4.95,2.11-1.21,1.07-1.83,2.59-1.83,4.52,0,.94.19,1.78.56,2.51s.86,1.35,1.46,1.87c.6.52,1.29.89,2.07,1.12.77.22,1.56.34,2.35.34,1.61,0,3-.27,4.12-.82.89-.43,1.8-1.07,2.72-1.9-.05.7-.11,1.37-.19,1.98l-.04.29.29-.03c1.4-.12,2.76-.12,4.16,0l.29.03-.04-.28ZM374.24,29.81l-.18,6.61c-.51.82-1.24,1.55-2.16,2.16-.94.62-1.98.94-3.12.94-.96,0-1.85-.36-2.65-1.06-.78-.7-1.18-1.75-1.18-3.14,0-.83.15-1.51.46-2.03.31-.53.72-.97,1.24-1.33s1.13-.65,1.8-.86c.69-.21,1.39-.39,2.1-.53.71-.14,1.42-.27,2.12-.4.58-.09,1.1-.22,1.57-.36Z"/><path class="cls-1" d="M319.25,18.28c-.22-.03-.47-.05-.76-.05-2.21,0-4.23,1.53-6.02,4.55,0-.38.01-.78.02-1.18.02-.64.09-1.53.21-2.64l.03-.31-.31.06c-.34.06-.66.12-.97.16-.66.1-1.26.08-1.8,0-.31-.05-.63-.1-.97-.16l-.29-.05v.29c.1,2.03.16,3.87.17,5.45.02,1.59.02,2.99.02,4.2v1.49c0,2.65-.01,4.88-.02,6.7-.02,1.81-.07,3.26-.16,4.3l-.03.28.28-.03c1.16-.12,2.51-.13,3.78,0l.29.03-.04-.29c-.09-.67-.15-1.57-.16-2.66-.02-1.08-.02-2.65-.02-4.78v-5.14c0-.88.11-1.71.32-2.48.21-.76.51-1.43.9-1.98.38-.54.86-.98,1.42-1.31.55-.32,1.19-.48,1.89-.48.44,0,.88.07,1.3.22.51.18.72.34.81.44l.14.17.6-.43v-.12c0-.63.02-1.32.05-2.07.03-.73.12-1.28.26-1.62l.09-.22-.22-.09c-.32-.14-.59-.22-.81-.25Z"/></g></svg>